<?xml version="1.0" encoding="UTF-8" standalone="no"?>
<!DOCTYPE svg PUBLIC "-//W3C//DTD SVG 1.1//EN"
 "http://www.w3.org/Graphics/SVG/1.1/DTD/svg11.dtd">
<!-- Generated by graphviz version 2.43.0 (0)
 -->
<!-- Title: userver/utils/trivial_map.hpp Pages: 1 -->
<svg width="2236pt" height="599pt"
 viewBox="0.00 0.00 2235.50 599.00" xmlns="http://www.w3.org/2000/svg" xmlns:xlink="http://www.w3.org/1999/xlink">
<g id="graph0" class="graph" transform="scale(1 1) rotate(0) translate(4 595)">
<title>userver/utils/trivial_map.hpp</title>
<!-- Node1 -->
<g id="Node000001" class="node">
<title>Node1</title>
<g id="a_Node000001"><a xlink:title="Bidirectional map|sets over string literals or other trivial types.">
<polygon fill="#999999" stroke="#666666" points="848,-591 739,-591 739,-561 848,-561 848,-591"/>
<text text-anchor="start" x="747" y="-579" font-family="Helvetica,sans-Serif" font-size="10.00">userver/utils/trivial</text>
<text text-anchor="middle" x="793.5" y="-568" font-family="Helvetica,sans-Serif" font-size="10.00">_map.hpp</text>
</a>
</g>
</g>
<!-- Node2 -->
<g id="Node000002" class="node">
<title>Node2</title>
<g id="a_Node000002"><a xlink:href="../../de/dd5/predefined__header_8hpp_source.html" target="_top" xlink:title=" ">
<polygon fill="white" stroke="#666666" points="784,-525 653,-525 653,-495 784,-495 784,-525"/>
<text text-anchor="start" x="661" y="-513" font-family="Helvetica,sans-Serif" font-size="10.00">userver/http/predefined</text>
<text text-anchor="middle" x="718.5" y="-502" font-family="Helvetica,sans-Serif" font-size="10.00">_header.hpp</text>
</a>
</g>
</g>
<!-- Node1&#45;&gt;Node2 -->
<g id="edge1_Node000001_Node000002" class="edge">
<title>Node1&#45;&gt;Node2</title>
<g id="a_edge1_Node000001_Node000002"><a xlink:title=" ">
<path fill="none" stroke="#63b8ff" d="M769.13,-554.2C757.99,-544.7 745.09,-533.69 735.1,-525.16"/>
<polygon fill="#63b8ff" stroke="#63b8ff" points="766.98,-556.97 776.86,-560.8 771.52,-551.64 766.98,-556.97"/>
</a>
</g>
</g>
<!-- Node38 -->
<g id="Node000038" class="node">
<title>Node38</title>
<g id="a_Node000038"><a xlink:href="../../d2/ddc/core_2include_2userver_2server_2handlers_2auth_2digest_2types_8hpp.html" target="_top" xlink:title="Types for validating directive values.">
<polygon fill="white" stroke="#666666" points="934.5,-525 802.5,-525 802.5,-495 934.5,-495 934.5,-525"/>
<text text-anchor="start" x="810.5" y="-513" font-family="Helvetica,sans-Serif" font-size="10.00">userver/server/handlers</text>
<text text-anchor="middle" x="868.5" y="-502" font-family="Helvetica,sans-Serif" font-size="10.00">/auth/digest/types.hpp</text>
</a>
</g>
</g>
<!-- Node1&#45;&gt;Node38 -->
<g id="edge47_Node000001_Node000038" class="edge">
<title>Node1&#45;&gt;Node38</title>
<g id="a_edge47_Node000001_Node000038"><a xlink:title=" ">
<path fill="none" stroke="#63b8ff" d="M817.87,-554.2C829.01,-544.7 841.91,-533.69 851.9,-525.16"/>
<polygon fill="#63b8ff" stroke="#63b8ff" points="815.48,-551.64 810.14,-560.8 820.02,-556.97 815.48,-551.64"/>
</a>
</g>
</g>
<!-- Node3 -->
<g id="Node000003" class="node">
<title>Node3</title>
<g id="a_Node000003"><a xlink:href="../../d8/d9f/common__headers_8hpp.html" target="_top" xlink:title="Common HTTP header names.">
<polygon fill="white" stroke="#666666" points="711.5,-459 589.5,-459 589.5,-429 711.5,-429 711.5,-459"/>
<text text-anchor="start" x="597.5" y="-447" font-family="Helvetica,sans-Serif" font-size="10.00">userver/http/common</text>
<text text-anchor="middle" x="650.5" y="-436" font-family="Helvetica,sans-Serif" font-size="10.00">_headers.hpp</text>
</a>
</g>
</g>
<!-- Node2&#45;&gt;Node3 -->
<g id="edge2_Node000002_Node000003" class="edge">
<title>Node2&#45;&gt;Node3</title>
<g id="a_edge2_Node000002_Node000003"><a xlink:title=" ">
<path fill="none" stroke="#63b8ff" d="M696.11,-487.92C686.08,-478.49 674.52,-467.61 665.55,-459.16"/>
<polygon fill="#63b8ff" stroke="#63b8ff" points="693.73,-490.49 703.41,-494.8 698.53,-485.39 693.73,-490.49"/>
</a>
</g>
</g>
<!-- Node4 -->
<g id="Node000004" class="node">
<title>Node4</title>
<g id="a_Node000004"><a xlink:href="../../d4/d81/header__map_8hpp_source.html" target="_top" xlink:title=" ">
<polygon fill="white" stroke="#666666" points="843,-459 730,-459 730,-429 843,-429 843,-459"/>
<text text-anchor="start" x="738" y="-447" font-family="Helvetica,sans-Serif" font-size="10.00">userver/http/header</text>
<text text-anchor="middle" x="786.5" y="-436" font-family="Helvetica,sans-Serif" font-size="10.00">_map.hpp</text>
</a>
</g>
</g>
<!-- Node2&#45;&gt;Node4 -->
<g id="edge3_Node000002_Node000004" class="edge">
<title>Node2&#45;&gt;Node4</title>
<g id="a_edge3_Node000002_Node000004"><a xlink:title=" ">
<path fill="none" stroke="#63b8ff" d="M740.89,-487.92C750.92,-478.49 762.48,-467.61 771.45,-459.16"/>
<polygon fill="#63b8ff" stroke="#63b8ff" points="738.47,-485.39 733.59,-494.8 743.27,-490.49 738.47,-485.39"/>
</a>
</g>
</g>
<!-- Node5 -->
<g id="Node000005" class="node">
<title>Node5</title>
<g id="a_Node000005"><a xlink:href="../../db/da4/response_8hpp.html" target="_top" xlink:title="Class that will be returned for successful request.">
<polygon fill="white" stroke="#666666" points="287,-393 176,-393 176,-363 287,-363 287,-393"/>
<text text-anchor="start" x="184" y="-381" font-family="Helvetica,sans-Serif" font-size="10.00">userver/clients/http</text>
<text text-anchor="middle" x="231.5" y="-370" font-family="Helvetica,sans-Serif" font-size="10.00">/response.hpp</text>
</a>
</g>
</g>
<!-- Node4&#45;&gt;Node5 -->
<g id="edge4_Node000004_Node000005" class="edge">
<title>Node4&#45;&gt;Node5</title>
<g id="a_edge4_Node000004_Node000005"><a xlink:title=" ">
<path fill="none" stroke="#63b8ff" d="M719.49,-428.96C556.72,-403.9 376.24,-389.15 287.12,-382.74"/>
<polygon fill="#63b8ff" stroke="#63b8ff" points="719.27,-432.47 729.69,-430.55 720.35,-425.55 719.27,-432.47"/>
</a>
</g>
</g>
<!-- Node14 -->
<g id="Node000014" class="node">
<title>Node14</title>
<g id="a_Node000014"><a xlink:href="../../d2/d45/http__request_8hpp.html" target="_top" xlink:title="HTTP Request data.">
<polygon fill="white" stroke="#666666" points="940.5,-321.5 830.5,-321.5 830.5,-291.5 940.5,-291.5 940.5,-321.5"/>
<text text-anchor="start" x="838.5" y="-309.5" font-family="Helvetica,sans-Serif" font-size="10.00">userver/server/http</text>
<text text-anchor="middle" x="885.5" y="-298.5" font-family="Helvetica,sans-Serif" font-size="10.00">/http_request.hpp</text>
</a>
</g>
</g>
<!-- Node4&#45;&gt;Node14 -->
<g id="edge15_Node000004_Node000014" class="edge">
<title>Node4&#45;&gt;Node14</title>
<g id="a_edge15_Node000004_Node000014"><a xlink:title=" ">
<path fill="none" stroke="#63b8ff" d="M818.43,-423.13C829.71,-414.89 841.75,-404.56 850.5,-393 867.25,-370.88 877.35,-339.61 882.13,-321.66"/>
<polygon fill="#63b8ff" stroke="#63b8ff" points="816.21,-420.4 810.02,-429 820.22,-426.14 816.21,-420.4"/>
</a>
</g>
</g>
<!-- Node36 -->
<g id="Node000036" class="node">
<title>Node36</title>
<g id="a_Node000036"><a xlink:href="../../db/d6b/http__response_8hpp.html" target="_top" xlink:title="HTTP Response data.">
<polygon fill="white" stroke="#666666" points="841.5,-393 731.5,-393 731.5,-363 841.5,-363 841.5,-393"/>
<text text-anchor="start" x="739.5" y="-381" font-family="Helvetica,sans-Serif" font-size="10.00">userver/server/http</text>
<text text-anchor="middle" x="786.5" y="-370" font-family="Helvetica,sans-Serif" font-size="10.00">/http_response.hpp</text>
</a>
</g>
</g>
<!-- Node4&#45;&gt;Node36 -->
<g id="edge41_Node000004_Node000036" class="edge">
<title>Node4&#45;&gt;Node36</title>
<g id="a_edge41_Node000004_Node000036"><a xlink:title=" ">
<path fill="none" stroke="#63b8ff" d="M786.5,-418.54C786.5,-409.96 786.5,-400.61 786.5,-393.16"/>
<polygon fill="#63b8ff" stroke="#63b8ff" points="783,-418.8 786.5,-428.8 790,-418.8 783,-418.8"/>
</a>
</g>
</g>
<!-- Node6 -->
<g id="Node000006" class="node">
<title>Node6</title>
<g id="a_Node000006"><a xlink:href="../../d1/d57/core_2include_2userver_2clients_2http_2request_8hpp.html" target="_top" xlink:title="Class for creating and performing new http requests.">
<polygon fill="white" stroke="#666666" points="130,-250 19,-250 19,-220 130,-220 130,-250"/>
<text text-anchor="start" x="27" y="-238" font-family="Helvetica,sans-Serif" font-size="10.00">userver/clients/http</text>
<text text-anchor="middle" x="74.5" y="-227" font-family="Helvetica,sans-Serif" font-size="10.00">/request.hpp</text>
</a>
</g>
</g>
<!-- Node5&#45;&gt;Node6 -->
<g id="edge5_Node000005_Node000006" class="edge">
<title>Node5&#45;&gt;Node6</title>
<g id="a_edge5_Node000005_Node000006"><a xlink:title=" ">
<path fill="none" stroke="#63b8ff" d="M165.64,-369.83C112.13,-362.48 42.78,-348.98 25.5,-327 14.24,-312.68 18.61,-302.87 25.5,-286 31.38,-271.6 43.63,-259.1 54.41,-250.2"/>
<polygon fill="#63b8ff" stroke="#63b8ff" points="165.4,-373.33 175.77,-371.17 166.32,-366.39 165.4,-373.33"/>
</a>
</g>
</g>
<!-- Node9 -->
<g id="Node000009" class="node">
<title>Node9</title>
<g id="a_Node000009"><a xlink:href="../../d2/d6c/http__server__mock_8hpp_source.html" target="_top" xlink:title=" ">
<polygon fill="white" stroke="#666666" points="235.5,-178.5 129.5,-178.5 129.5,-148.5 235.5,-148.5 235.5,-178.5"/>
<text text-anchor="start" x="137.5" y="-166.5" font-family="Helvetica,sans-Serif" font-size="10.00">userver/utest/http</text>
<text text-anchor="middle" x="182.5" y="-155.5" font-family="Helvetica,sans-Serif" font-size="10.00">_server_mock.hpp</text>
</a>
</g>
</g>
<!-- Node5&#45;&gt;Node9 -->
<g id="edge14_Node000005_Node000009" class="edge">
<title>Node5&#45;&gt;Node9</title>
<g id="a_edge14_Node000005_Node000009"><a xlink:title=" ">
<path fill="none" stroke="#63b8ff" d="M215.27,-354.57C210.04,-346.28 204.76,-336.57 201.5,-327 183.64,-274.57 181.96,-207.73 182.18,-178.85"/>
<polygon fill="#63b8ff" stroke="#63b8ff" points="212.38,-356.54 220.83,-362.93 218.21,-352.67 212.38,-356.54"/>
</a>
</g>
</g>
<!-- Node10 -->
<g id="Node000010" class="node">
<title>Node10</title>
<g id="a_Node000010"><a xlink:href="../../d2/de8/response__future_8hpp.html" target="_top" xlink:title="Allows to perform a request concurrently with other work without creating an extra coroutine for wait...">
<polygon fill="white" stroke="#666666" points="154,-321.5 35,-321.5 35,-291.5 154,-291.5 154,-321.5"/>
<text text-anchor="start" x="43" y="-309.5" font-family="Helvetica,sans-Serif" font-size="10.00">userver/clients/http</text>
<text text-anchor="middle" x="94.5" y="-298.5" font-family="Helvetica,sans-Serif" font-size="10.00">/response_future.hpp</text>
</a>
</g>
</g>
<!-- Node5&#45;&gt;Node10 -->
<g id="edge9_Node000005_Node000010" class="edge">
<title>Node5&#45;&gt;Node10</title>
<g id="a_edge9_Node000005_Node000010"><a xlink:title=" ">
<path fill="none" stroke="#63b8ff" d="M194.72,-358.34C171.91,-346.77 143.06,-332.14 122.18,-321.54"/>
<polygon fill="#63b8ff" stroke="#63b8ff" points="193.27,-361.53 203.78,-362.94 196.44,-355.29 193.27,-361.53"/>
</a>
</g>
</g>
<!-- Node11 -->
<g id="Node000011" class="node">
<title>Node11</title>
<g id="a_Node000011"><a xlink:href="../../d5/d26/streamed__response_8hpp.html" target="_top" xlink:title="HTTP response for streamed API.">
<polygon fill="white" stroke="#666666" points="348,-321.5 211,-321.5 211,-291.5 348,-291.5 348,-321.5"/>
<text text-anchor="start" x="219" y="-309.5" font-family="Helvetica,sans-Serif" font-size="10.00">userver/clients/http</text>
<text text-anchor="middle" x="279.5" y="-298.5" font-family="Helvetica,sans-Serif" font-size="10.00">/streamed_response.hpp</text>
</a>
</g>
</g>
<!-- Node5&#45;&gt;Node11 -->
<g id="edge11_Node000005_Node000011" class="edge">
<title>Node5&#45;&gt;Node11</title>
<g id="a_edge11_Node000005_Node000011"><a xlink:title=" ">
<path fill="none" stroke="#63b8ff" d="M246.9,-354.71C254.42,-343.82 263.23,-331.05 269.8,-321.54"/>
<polygon fill="#63b8ff" stroke="#63b8ff" points="244.02,-352.72 241.21,-362.94 249.78,-356.7 244.02,-352.72"/>
</a>
</g>
</g>
<!-- Node12 -->
<g id="Node000012" class="node">
<title>Node12</title>
<g id="a_Node000012"><a xlink:href="../../da/d04/manager_8hpp.html" target="_top" xlink:title="Base class for propagating trace context information in headers.">
<polygon fill="white" stroke="#666666" points="523,-316 366,-316 366,-297 523,-297 523,-316"/>
<text text-anchor="middle" x="444.5" y="-304" font-family="Helvetica,sans-Serif" font-size="10.00">userver/tracing/manager.hpp</text>
</a>
</g>
</g>
<!-- Node5&#45;&gt;Node12 -->
<g id="edge12_Node000005_Node000012" class="edge">
<title>Node5&#45;&gt;Node12</title>
<g id="a_edge12_Node000005_Node000012"><a xlink:title=" ">
<path fill="none" stroke="#63b8ff" d="M284.25,-359.79C326.84,-345.89 384.97,-326.92 418.24,-316.07"/>
<polygon fill="#63b8ff" stroke="#63b8ff" points="283.02,-356.51 274.6,-362.94 285.2,-363.16 283.02,-356.51"/>
</a>
</g>
</g>
<!-- Node7 -->
<g id="Node000007" class="node">
<title>Node7</title>
<g id="a_Node000007"><a xlink:href="../../d3/db8/core_2include_2userver_2clients_2http_2client_8hpp.html" target="_top" xlink:title="HTTP client that returns a HTTP request builder from CreateRequest().">
<polygon fill="white" stroke="#666666" points="111,-178.5 0,-178.5 0,-148.5 111,-148.5 111,-178.5"/>
<text text-anchor="start" x="8" y="-166.5" font-family="Helvetica,sans-Serif" font-size="10.00">userver/clients/http</text>
<text text-anchor="middle" x="55.5" y="-155.5" font-family="Helvetica,sans-Serif" font-size="10.00">/client.hpp</text>
</a>
</g>
</g>
<!-- Node6&#45;&gt;Node7 -->
<g id="edge6_Node000006_Node000007" class="edge">
<title>Node6&#45;&gt;Node7</title>
<g id="a_edge6_Node000006_Node000007"><a xlink:title=" ">
<path fill="none" stroke="#63b8ff" d="M67.96,-210.08C65.09,-199.56 61.81,-187.58 59.34,-178.54"/>
<polygon fill="#63b8ff" stroke="#63b8ff" points="64.64,-211.21 70.66,-219.94 71.39,-209.37 64.64,-211.21"/>
</a>
</g>
</g>
<!-- Node6&#45;&gt;Node9 -->
<g id="edge8_Node000006_Node000009" class="edge">
<title>Node6&#45;&gt;Node9</title>
<g id="a_edge8_Node000006_Node000009"><a xlink:title=" ">
<path fill="none" stroke="#63b8ff" d="M105.18,-214.25C122.89,-202.86 144.73,-188.81 160.68,-178.54"/>
<polygon fill="#63b8ff" stroke="#63b8ff" points="102.87,-211.58 96.36,-219.94 106.66,-217.47 102.87,-211.58"/>
</a>
</g>
</g>
<!-- Node8 -->
<g id="Node000008" class="node">
<title>Node8</title>
<g id="a_Node000008"><a xlink:href="../../d7/d98/core_2include_2userver_2clients_2http_2component_8hpp.html" target="_top" xlink:title="Component that manages clients::http::Client.">
<polygon fill="white" stroke="#666666" points="111,-101.5 0,-101.5 0,-71.5 111,-71.5 111,-101.5"/>
<text text-anchor="start" x="8" y="-89.5" font-family="Helvetica,sans-Serif" font-size="10.00">userver/clients/http</text>
<text text-anchor="middle" x="55.5" y="-78.5" font-family="Helvetica,sans-Serif" font-size="10.00">/component.hpp</text>
</a>
</g>
</g>
<!-- Node7&#45;&gt;Node8 -->
<g id="edge7_Node000007_Node000008" class="edge">
<title>Node7&#45;&gt;Node8</title>
<g id="a_edge7_Node000007_Node000008"><a xlink:title=" ">
<path fill="none" stroke="#63b8ff" d="M55.5,-138.04C55.5,-125.95 55.5,-111.79 55.5,-101.54"/>
<polygon fill="#63b8ff" stroke="#63b8ff" points="52,-138.39 55.5,-148.39 59,-138.39 52,-138.39"/>
</a>
</g>
</g>
<!-- Node10&#45;&gt;Node6 -->
<g id="edge10_Node000010_Node000006" class="edge">
<title>Node10&#45;&gt;Node6</title>
<g id="a_edge10_Node000010_Node000006"><a xlink:title=" ">
<path fill="none" stroke="#63b8ff" d="M87.62,-281.58C84.59,-271.06 81.14,-259.08 78.54,-250.04"/>
<polygon fill="#63b8ff" stroke="#63b8ff" points="84.32,-282.79 90.45,-291.44 91.05,-280.86 84.32,-282.79"/>
</a>
</g>
</g>
<!-- Node13 -->
<g id="Node000013" class="node">
<title>Node13</title>
<g id="a_Node000013"><a xlink:href="../../d6/dbd/manager__component_8hpp.html" target="_top" xlink:title="TracingManager base and default components.">
<polygon fill="white" stroke="#666666" points="513,-250 376,-250 376,-220 513,-220 513,-250"/>
<text text-anchor="start" x="384" y="-238" font-family="Helvetica,sans-Serif" font-size="10.00">userver/tracing/manager</text>
<text text-anchor="middle" x="444.5" y="-227" font-family="Helvetica,sans-Serif" font-size="10.00">_component.hpp</text>
</a>
</g>
</g>
<!-- Node12&#45;&gt;Node13 -->
<g id="edge13_Node000012_Node000013" class="edge">
<title>Node12&#45;&gt;Node13</title>
<g id="a_edge13_Node000012_Node000013"><a xlink:title=" ">
<path fill="none" stroke="#63b8ff" d="M444.5,-286.71C444.5,-275.19 444.5,-260.68 444.5,-250.14"/>
<polygon fill="#63b8ff" stroke="#63b8ff" points="441,-286.98 444.5,-296.98 448,-286.98 441,-286.98"/>
</a>
</g>
</g>
<!-- Node15 -->
<g id="Node000015" class="node">
<title>Node15</title>
<g id="a_Node000015"><a xlink:href="../../da/dff/auth__checker__base_8hpp_source.html" target="_top" xlink:title=" ">
<polygon fill="white" stroke="#666666" points="1073.5,-250 915.5,-250 915.5,-220 1073.5,-220 1073.5,-250"/>
<text text-anchor="start" x="923.5" y="-238" font-family="Helvetica,sans-Serif" font-size="10.00">userver/server/handlers</text>
<text text-anchor="middle" x="994.5" y="-227" font-family="Helvetica,sans-Serif" font-size="10.00">/auth/auth_checker_base.hpp</text>
</a>
</g>
</g>
<!-- Node14&#45;&gt;Node15 -->
<g id="edge16_Node000014_Node000015" class="edge">
<title>Node14&#45;&gt;Node15</title>
<g id="a_edge16_Node000014_Node000015"><a xlink:title=" ">
<path fill="none" stroke="#63b8ff" d="M916.47,-285.75C934.33,-274.36 956.38,-260.31 972.48,-250.04"/>
<polygon fill="#63b8ff" stroke="#63b8ff" points="914.11,-283.11 907.56,-291.44 917.87,-289.01 914.11,-283.11"/>
</a>
</g>
</g>
<!-- Node17 -->
<g id="Node000017" class="node">
<title>Node17</title>
<g id="a_Node000017"><a xlink:href="../../de/d82/digest_2auth__checker__base_8hpp.html" target="_top" xlink:title="Base class for digest authentication checkers. Implements a digest&#45;authentication logic.">
<polygon fill="white" stroke="#666666" points="857.5,-184 715.5,-184 715.5,-143 857.5,-143 857.5,-184"/>
<text text-anchor="start" x="723.5" y="-172" font-family="Helvetica,sans-Serif" font-size="10.00">userver/server/handlers</text>
<text text-anchor="start" x="723.5" y="-161" font-family="Helvetica,sans-Serif" font-size="10.00">/auth/digest/auth_checker</text>
<text text-anchor="middle" x="786.5" y="-150" font-family="Helvetica,sans-Serif" font-size="10.00">_base.hpp</text>
</a>
</g>
</g>
<!-- Node14&#45;&gt;Node17 -->
<g id="edge36_Node000014_Node000017" class="edge">
<title>Node14&#45;&gt;Node17</title>
<g id="a_edge36_Node000014_Node000017"><a xlink:title=" ">
<path fill="none" stroke="#63b8ff" d="M869.69,-282.98C850.55,-255.73 818.65,-210.29 800.41,-184.31"/>
<polygon fill="#63b8ff" stroke="#63b8ff" points="867.03,-285.29 875.65,-291.46 872.76,-281.27 867.03,-285.29"/>
</a>
</g>
</g>
<!-- Node18 -->
<g id="Node000018" class="node">
<title>Node18</title>
<g id="a_Node000018"><a xlink:href="../../db/df0/standalone__checker_8hpp.html" target="_top" xlink:title="Class for digest authentication checker. Implements a stand&#45;alone digest&#45;authentication logic.">
<polygon fill="white" stroke="#666666" points="375.5,-107 243.5,-107 243.5,-66 375.5,-66 375.5,-107"/>
<text text-anchor="start" x="251.5" y="-95" font-family="Helvetica,sans-Serif" font-size="10.00">userver/server/handlers</text>
<text text-anchor="start" x="251.5" y="-84" font-family="Helvetica,sans-Serif" font-size="10.00">/auth/digest/standalone</text>
<text text-anchor="middle" x="309.5" y="-73" font-family="Helvetica,sans-Serif" font-size="10.00">_checker.hpp</text>
</a>
</g>
</g>
<!-- Node14&#45;&gt;Node18 -->
<g id="edge37_Node000014_Node000018" class="edge">
<title>Node14&#45;&gt;Node18</title>
<g id="a_edge37_Node000014_Node000018"><a xlink:title=" ">
<path fill="none" stroke="#63b8ff" d="M891.09,-281.14C897.72,-245.27 903.66,-178.63 866.5,-143 827.74,-105.83 437.48,-115.79 384.5,-107 381.58,-106.52 378.61,-105.97 375.61,-105.38"/>
<polygon fill="#63b8ff" stroke="#63b8ff" points="887.6,-280.72 889.06,-291.22 894.47,-282.11 887.6,-280.72"/>
</a>
</g>
</g>
<!-- Node19 -->
<g id="Node000019" class="node">
<title>Node19</title>
<g id="a_Node000019"><a xlink:href="../../d4/df6/http__handler__base_8hpp.html" target="_top" xlink:title="Base class for all the Userver HTTP Handlers.">
<polygon fill="white" stroke="#666666" points="1231.5,-178.5 1099.5,-178.5 1099.5,-148.5 1231.5,-148.5 1231.5,-178.5"/>
<text text-anchor="start" x="1107.5" y="-166.5" font-family="Helvetica,sans-Serif" font-size="10.00">userver/server/handlers</text>
<text text-anchor="middle" x="1165.5" y="-155.5" font-family="Helvetica,sans-Serif" font-size="10.00">/http_handler_base.hpp</text>
</a>
</g>
</g>
<!-- Node14&#45;&gt;Node19 -->
<g id="edge38_Node000014_Node000019" class="edge">
<title>Node14&#45;&gt;Node19</title>
<g id="a_edge38_Node000014_Node000019"><a xlink:title=" ">
<path fill="none" stroke="#63b8ff" d="M950.76,-296C990.87,-288.08 1042.12,-274.06 1082.5,-250 1113.96,-231.25 1141.59,-197.56 1155.65,-178.55"/>
<polygon fill="#63b8ff" stroke="#63b8ff" points="949.99,-292.59 940.82,-297.89 951.3,-299.46 949.99,-292.59"/>
</a>
</g>
</g>
<!-- Node35 -->
<g id="Node000035" class="node">
<title>Node35</title>
<g id="a_Node000035"><a xlink:href="../../de/d4e/core_2include_2userver_2server_2websocket_2server_8hpp.html" target="_top" xlink:title=" ">
<polygon fill="white" stroke="#666666" points="1572.5,-250 1430.5,-250 1430.5,-220 1572.5,-220 1572.5,-250"/>
<text text-anchor="start" x="1438.5" y="-238" font-family="Helvetica,sans-Serif" font-size="10.00">userver/server/websocket</text>
<text text-anchor="middle" x="1501.5" y="-227" font-family="Helvetica,sans-Serif" font-size="10.00">/server.hpp</text>
</a>
</g>
</g>
<!-- Node14&#45;&gt;Node35 -->
<g id="edge39_Node000014_Node000035" class="edge">
<title>Node14&#45;&gt;Node35</title>
<g id="a_edge39_Node000014_Node000035"><a xlink:title=" ">
<path fill="none" stroke="#63b8ff" d="M950.9,-298.12C1067.37,-284.98 1309.78,-257.63 1430.29,-244.03"/>
<polygon fill="#63b8ff" stroke="#63b8ff" points="950.25,-294.67 940.71,-299.27 951.04,-301.63 950.25,-294.67"/>
</a>
</g>
</g>
<!-- Node16 -->
<g id="Node000016" class="node">
<title>Node16</title>
<g id="a_Node000016"><a xlink:href="../../db/ddd/auth__checker__factory_8hpp.html" target="_top" xlink:title="Authorization factory registration and base classes.">
<polygon fill="white" stroke="#666666" points="1081.5,-178.5 913.5,-178.5 913.5,-148.5 1081.5,-148.5 1081.5,-178.5"/>
<text text-anchor="start" x="921.5" y="-166.5" font-family="Helvetica,sans-Serif" font-size="10.00">userver/server/handlers</text>
<text text-anchor="middle" x="997.5" y="-155.5" font-family="Helvetica,sans-Serif" font-size="10.00">/auth/auth_checker_factory.hpp</text>
</a>
</g>
</g>
<!-- Node15&#45;&gt;Node16 -->
<g id="edge17_Node000015_Node000016" class="edge">
<title>Node15&#45;&gt;Node16</title>
<g id="a_edge17_Node000015_Node000016"><a xlink:title=" ">
<path fill="none" stroke="#63b8ff" d="M995.55,-209.75C996,-199.31 996.51,-187.49 996.89,-178.54"/>
<polygon fill="#63b8ff" stroke="#63b8ff" points="992.04,-209.79 995.11,-219.94 999.04,-210.1 992.04,-209.79"/>
</a>
</g>
</g>
<!-- Node15&#45;&gt;Node17 -->
<g id="edge18_Node000015_Node000017" class="edge">
<title>Node15&#45;&gt;Node17</title>
<g id="a_edge18_Node000015_Node000017"><a xlink:title=" ">
<path fill="none" stroke="#63b8ff" d="M942.67,-216.68C913.04,-206.78 875.77,-194.33 845.08,-184.07"/>
<polygon fill="#63b8ff" stroke="#63b8ff" points="941.81,-220.09 952.41,-219.94 944.03,-213.45 941.81,-220.09"/>
</a>
</g>
</g>
<!-- Node15&#45;&gt;Node19 -->
<g id="edge20_Node000015_Node000019" class="edge">
<title>Node15&#45;&gt;Node19</title>
<g id="a_edge20_Node000015_Node000019"><a xlink:title=" ">
<path fill="none" stroke="#63b8ff" d="M1038.51,-216.11C1067.28,-204.42 1104.31,-189.37 1130.95,-178.54"/>
<polygon fill="#63b8ff" stroke="#63b8ff" points="1037.05,-212.93 1029.1,-219.94 1039.69,-219.41 1037.05,-212.93"/>
</a>
</g>
</g>
<!-- Node17&#45;&gt;Node18 -->
<g id="edge19_Node000017_Node000018" class="edge">
<title>Node17&#45;&gt;Node18</title>
<g id="a_edge19_Node000017_Node000018"><a xlink:title=" ">
<path fill="none" stroke="#63b8ff" d="M705.3,-143.67C704.03,-143.44 702.76,-143.22 701.5,-143 561.73,-119.11 523.91,-132.9 384.5,-107 381.59,-106.46 378.63,-105.87 375.64,-105.24"/>
<polygon fill="#63b8ff" stroke="#63b8ff" points="704.72,-147.12 715.2,-145.53 706.02,-140.24 704.72,-147.12"/>
</a>
</g>
</g>
<!-- Node20 -->
<g id="Node000020" class="node">
<title>Node20</title>
<g id="a_Node000020"><a xlink:href="../../d6/d0d/dns__client__control_8hpp.html" target="_top" xlink:title="Handlers that controls the DNS client.">
<polygon fill="white" stroke="#666666" points="525.5,-101.5 393.5,-101.5 393.5,-71.5 525.5,-71.5 525.5,-101.5"/>
<text text-anchor="start" x="401.5" y="-89.5" font-family="Helvetica,sans-Serif" font-size="10.00">userver/server/handlers</text>
<text text-anchor="middle" x="459.5" y="-78.5" font-family="Helvetica,sans-Serif" font-size="10.00">/dns_client_control.hpp</text>
</a>
</g>
</g>
<!-- Node19&#45;&gt;Node20 -->
<g id="edge21_Node000019_Node000020" class="edge">
<title>Node19&#45;&gt;Node20</title>
<g id="a_edge21_Node000019_Node000020"><a xlink:title=" ">
<path fill="none" stroke="#63b8ff" d="M1107.03,-146.16C1101.47,-144.95 1095.9,-143.87 1090.5,-143 846.02,-103.67 778.98,-146.33 534.5,-107 525.87,-105.61 516.78,-103.67 508.03,-101.55"/>
<polygon fill="#63b8ff" stroke="#63b8ff" points="1106.44,-149.62 1116.97,-148.45 1108.01,-142.8 1106.44,-149.62"/>
</a>
</g>
</g>
<!-- Node21 -->
<g id="Node000021" class="node">
<title>Node21</title>
<g id="a_Node000021"><a xlink:href="../../d6/dc0/dynamic__debug__log_8hpp.html" target="_top" xlink:title="HTTP Handler to show/hide logs at the specific file:line.">
<polygon fill="white" stroke="#666666" points="681.5,-101.5 543.5,-101.5 543.5,-71.5 681.5,-71.5 681.5,-101.5"/>
<text text-anchor="start" x="551.5" y="-89.5" font-family="Helvetica,sans-Serif" font-size="10.00">userver/server/handlers</text>
<text text-anchor="middle" x="612.5" y="-78.5" font-family="Helvetica,sans-Serif" font-size="10.00">/dynamic_debug_log.hpp</text>
</a>
</g>
</g>
<!-- Node19&#45;&gt;Node21 -->
<g id="edge22_Node000019_Node000021" class="edge">
<title>Node19&#45;&gt;Node21</title>
<g id="a_edge22_Node000019_Node000021"><a xlink:title=" ">
<path fill="none" stroke="#63b8ff" d="M1106.08,-146.1C1100.84,-144.94 1095.59,-143.88 1090.5,-143 914.64,-112.44 866.5,-136.74 690.5,-107 681.83,-105.54 672.7,-103.61 663.87,-101.54"/>
<polygon fill="#63b8ff" stroke="#63b8ff" points="1105.6,-149.58 1116.13,-148.44 1107.18,-142.76 1105.6,-149.58"/>
</a>
</g>
</g>
<!-- Node22 -->
<g id="Node000022" class="node">
<title>Node22</title>
<g id="a_Node000022"><a xlink:href="../../d5/d4d/http__handler__flatbuf__base_8hpp.html" target="_top" xlink:title="Convenient base for handlers that accept requests with body in Flatbuffer format and respond with bod...">
<polygon fill="white" stroke="#666666" points="831.5,-107 699.5,-107 699.5,-66 831.5,-66 831.5,-107"/>
<text text-anchor="start" x="707.5" y="-95" font-family="Helvetica,sans-Serif" font-size="10.00">userver/server/handlers</text>
<text text-anchor="start" x="707.5" y="-84" font-family="Helvetica,sans-Serif" font-size="10.00">/http_handler_flatbuf</text>
<text text-anchor="middle" x="765.5" y="-73" font-family="Helvetica,sans-Serif" font-size="10.00">_base.hpp</text>
</a>
</g>
</g>
<!-- Node19&#45;&gt;Node22 -->
<g id="edge23_Node000019_Node000022" class="edge">
<title>Node19&#45;&gt;Node22</title>
<g id="a_edge23_Node000019_Node000022"><a xlink:title=" ">
<path fill="none" stroke="#63b8ff" d="M1104.66,-146.07C1099.88,-144.97 1095.12,-143.93 1090.5,-143 980.45,-120.84 950.55,-129.16 840.5,-107 837.6,-106.42 834.64,-105.79 831.66,-105.13"/>
<polygon fill="#63b8ff" stroke="#63b8ff" points="1103.9,-149.49 1114.44,-148.41 1105.53,-142.68 1103.9,-149.49"/>
</a>
</g>
</g>
<!-- Node23 -->
<g id="Node000023" class="node">
<title>Node23</title>
<g id="a_Node000023"><a xlink:href="../../d1/d58/http__handler__json__base_8hpp.html" target="_top" xlink:title="Convenient base for handlers that accept requests with body in JSON format and respond with body in J...">
<polygon fill="white" stroke="#666666" points="1005.5,-101.5 849.5,-101.5 849.5,-71.5 1005.5,-71.5 1005.5,-101.5"/>
<text text-anchor="start" x="857.5" y="-89.5" font-family="Helvetica,sans-Serif" font-size="10.00">userver/server/handlers</text>
<text text-anchor="middle" x="927.5" y="-78.5" font-family="Helvetica,sans-Serif" font-size="10.00">/http_handler_json_base.hpp</text>
</a>
</g>
</g>
<!-- Node19&#45;&gt;Node23 -->
<g id="edge24_Node000019_Node000023" class="edge">
<title>Node19&#45;&gt;Node23</title>
<g id="a_edge24_Node000019_Node000023"><a xlink:title=" ">
<path fill="none" stroke="#63b8ff" d="M1111.21,-145.39C1069.15,-132.14 1011.59,-114 972.17,-101.58"/>
<polygon fill="#63b8ff" stroke="#63b8ff" points="1110.42,-148.81 1121.01,-148.48 1112.53,-142.14 1110.42,-148.81"/>
</a>
</g>
</g>
<!-- Node26 -->
<g id="Node000026" class="node">
<title>Node26</title>
<g id="a_Node000026"><a xlink:href="../../dd/db6/http__handler__static_8hpp.html" target="_top" xlink:title="Handler that returns HTTP 200 if file exist and returns file data with mapped content/type.">
<polygon fill="white" stroke="#666666" points="1157.5,-101.5 1023.5,-101.5 1023.5,-71.5 1157.5,-71.5 1157.5,-101.5"/>
<text text-anchor="start" x="1031.5" y="-89.5" font-family="Helvetica,sans-Serif" font-size="10.00">userver/server/handlers</text>
<text text-anchor="middle" x="1090.5" y="-78.5" font-family="Helvetica,sans-Serif" font-size="10.00">/http_handler_static.hpp</text>
</a>
</g>
</g>
<!-- Node19&#45;&gt;Node26 -->
<g id="edge27_Node000019_Node000026" class="edge">
<title>Node19&#45;&gt;Node26</title>
<g id="a_edge27_Node000019_Node000026"><a xlink:title=" ">
<path fill="none" stroke="#63b8ff" d="M1144.32,-141.32C1131.58,-128.58 1115.74,-112.74 1104.54,-101.54"/>
<polygon fill="#63b8ff" stroke="#63b8ff" points="1141.85,-143.8 1151.39,-148.39 1146.8,-138.85 1141.85,-143.8"/>
</a>
</g>
</g>
<!-- Node27 -->
<g id="Node000027" class="node">
<title>Node27</title>
<g id="a_Node000027"><a xlink:href="../../d5/d86/jemalloc_8hpp.html" target="_top" xlink:title="Handler that controls the jemalloc allocator.">
<polygon fill="white" stroke="#666666" points="1307.5,-101.5 1175.5,-101.5 1175.5,-71.5 1307.5,-71.5 1307.5,-101.5"/>
<text text-anchor="start" x="1183.5" y="-89.5" font-family="Helvetica,sans-Serif" font-size="10.00">userver/server/handlers</text>
<text text-anchor="middle" x="1241.5" y="-78.5" font-family="Helvetica,sans-Serif" font-size="10.00">/jemalloc.hpp</text>
</a>
</g>
</g>
<!-- Node19&#45;&gt;Node27 -->
<g id="edge28_Node000019_Node000027" class="edge">
<title>Node19&#45;&gt;Node27</title>
<g id="a_edge28_Node000019_Node000027"><a xlink:title=" ">
<path fill="none" stroke="#63b8ff" d="M1186.97,-141.32C1199.87,-128.58 1215.93,-112.74 1227.27,-101.54"/>
<polygon fill="#63b8ff" stroke="#63b8ff" points="1184.45,-138.88 1179.8,-148.39 1189.37,-143.86 1184.45,-138.88"/>
</a>
</g>
</g>
<!-- Node28 -->
<g id="Node000028" class="node">
<title>Node28</title>
<g id="a_Node000028"><a xlink:href="../../d0/d01/log__level_8hpp.html" target="_top" xlink:title="Handler that controls logging levels of all the loggers.">
<polygon fill="white" stroke="#666666" points="1457.5,-101.5 1325.5,-101.5 1325.5,-71.5 1457.5,-71.5 1457.5,-101.5"/>
<text text-anchor="start" x="1333.5" y="-89.5" font-family="Helvetica,sans-Serif" font-size="10.00">userver/server/handlers</text>
<text text-anchor="middle" x="1391.5" y="-78.5" font-family="Helvetica,sans-Serif" font-size="10.00">/log_level.hpp</text>
</a>
</g>
</g>
<!-- Node19&#45;&gt;Node28 -->
<g id="edge29_Node000019_Node000028" class="edge">
<title>Node19&#45;&gt;Node28</title>
<g id="a_edge29_Node000019_Node000028"><a xlink:title=" ">
<path fill="none" stroke="#63b8ff" d="M1217.3,-145.31C1257.22,-132.06 1311.73,-113.97 1349.08,-101.58"/>
<polygon fill="#63b8ff" stroke="#63b8ff" points="1216.13,-142.01 1207.74,-148.48 1218.34,-148.65 1216.13,-142.01"/>
</a>
</g>
</g>
<!-- Node29 -->
<g id="Node000029" class="node">
<title>Node29</title>
<g id="a_Node000029"><a xlink:href="../../d7/d72/on__log__rotate_8hpp.html" target="_top" xlink:title="Handler that controls logging levels of all the loggers.">
<polygon fill="white" stroke="#666666" points="1607.5,-101.5 1475.5,-101.5 1475.5,-71.5 1607.5,-71.5 1607.5,-101.5"/>
<text text-anchor="start" x="1483.5" y="-89.5" font-family="Helvetica,sans-Serif" font-size="10.00">userver/server/handlers</text>
<text text-anchor="middle" x="1541.5" y="-78.5" font-family="Helvetica,sans-Serif" font-size="10.00">/on_log_rotate.hpp</text>
</a>
</g>
</g>
<!-- Node19&#45;&gt;Node29 -->
<g id="edge30_Node000019_Node000029" class="edge">
<title>Node19&#45;&gt;Node29</title>
<g id="a_edge30_Node000019_Node000029"><a xlink:title=" ">
<path fill="none" stroke="#63b8ff" d="M1241.48,-150.05C1302.52,-139.67 1390.33,-123.9 1466.5,-107 1473.99,-105.34 1481.86,-103.45 1489.57,-101.52"/>
<polygon fill="#63b8ff" stroke="#63b8ff" points="1240.82,-146.61 1231.54,-151.73 1241.98,-153.51 1240.82,-146.61"/>
</a>
</g>
</g>
<!-- Node30 -->
<g id="Node000030" class="node">
<title>Node30</title>
<g id="a_Node000030"><a xlink:href="../../d8/d39/ping_8hpp.html" target="_top" xlink:title="Handler that returns HTTP 200 if the service is OK and able to process requests.">
<polygon fill="white" stroke="#666666" points="1757.5,-101.5 1625.5,-101.5 1625.5,-71.5 1757.5,-71.5 1757.5,-101.5"/>
<text text-anchor="start" x="1633.5" y="-89.5" font-family="Helvetica,sans-Serif" font-size="10.00">userver/server/handlers</text>
<text text-anchor="middle" x="1691.5" y="-78.5" font-family="Helvetica,sans-Serif" font-size="10.00">/ping.hpp</text>
</a>
</g>
</g>
<!-- Node19&#45;&gt;Node30 -->
<g id="edge31_Node000019_Node000030" class="edge">
<title>Node19&#45;&gt;Node30</title>
<g id="a_edge31_Node000019_Node000030"><a xlink:title=" ">
<path fill="none" stroke="#63b8ff" d="M1241.77,-156.21C1331.84,-148.06 1485.92,-131.9 1616.5,-107 1624.56,-105.46 1633.04,-103.55 1641.28,-101.53"/>
<polygon fill="#63b8ff" stroke="#63b8ff" points="1241.3,-152.74 1231.65,-157.11 1241.92,-159.71 1241.3,-152.74"/>
</a>
</g>
</g>
<!-- Node31 -->
<g id="Node000031" class="node">
<title>Node31</title>
<g id="a_Node000031"><a xlink:href="../../de/d18/server__monitor_8hpp.html" target="_top" xlink:title="Handler that returns statistics data.">
<polygon fill="white" stroke="#666666" points="1907.5,-101.5 1775.5,-101.5 1775.5,-71.5 1907.5,-71.5 1907.5,-101.5"/>
<text text-anchor="start" x="1783.5" y="-89.5" font-family="Helvetica,sans-Serif" font-size="10.00">userver/server/handlers</text>
<text text-anchor="middle" x="1841.5" y="-78.5" font-family="Helvetica,sans-Serif" font-size="10.00">/server_monitor.hpp</text>
</a>
</g>
</g>
<!-- Node19&#45;&gt;Node31 -->
<g id="edge32_Node000019_Node000031" class="edge">
<title>Node19&#45;&gt;Node31</title>
<g id="a_edge32_Node000019_Node000031"><a xlink:title=" ">
<path fill="none" stroke="#63b8ff" d="M1241.85,-159.42C1356.51,-153.9 1579.64,-139.7 1766.5,-107 1774.85,-105.54 1783.63,-103.62 1792.13,-101.55"/>
<polygon fill="#63b8ff" stroke="#63b8ff" points="1241.6,-155.93 1231.77,-159.9 1241.93,-162.92 1241.6,-155.93"/>
</a>
</g>
</g>
<!-- Node32 -->
<g id="Node000032" class="node">
<title>Node32</title>
<g id="a_Node000032"><a xlink:href="../../d8/d82/core_2include_2userver_2server_2server_8hpp_source.html" target="_top" xlink:title=" ">
<polygon fill="white" stroke="#666666" points="2067,-96 1926,-96 1926,-77 2067,-77 2067,-96"/>
<text text-anchor="middle" x="1996.5" y="-84" font-family="Helvetica,sans-Serif" font-size="10.00">userver/server/server.hpp</text>
</a>
</g>
</g>
<!-- Node19&#45;&gt;Node32 -->
<g id="edge33_Node000019_Node000032" class="edge">
<title>Node19&#45;&gt;Node32</title>
<g id="a_edge33_Node000019_Node000032"><a xlink:title=" ">
<path fill="none" stroke="#63b8ff" d="M1242.05,-161.01C1378.42,-157.44 1672.01,-145.56 1916.5,-107 1933.16,-104.37 1951.46,-100.02 1966.35,-96.1"/>
<polygon fill="#63b8ff" stroke="#63b8ff" points="1241.63,-157.52 1231.72,-161.28 1241.81,-164.52 1241.63,-157.52"/>
</a>
</g>
</g>
<!-- Node34 -->
<g id="Node000034" class="node">
<title>Node34</title>
<g id="a_Node000034"><a xlink:href="../../d4/d64/websocket__handler_8hpp.html" target="_top" xlink:title=" ">
<polygon fill="white" stroke="#666666" points="2227.5,-101.5 2085.5,-101.5 2085.5,-71.5 2227.5,-71.5 2227.5,-101.5"/>
<text text-anchor="start" x="2093.5" y="-89.5" font-family="Helvetica,sans-Serif" font-size="10.00">userver/server/websocket</text>
<text text-anchor="middle" x="2156.5" y="-78.5" font-family="Helvetica,sans-Serif" font-size="10.00">/websocket_handler.hpp</text>
</a>
</g>
</g>
<!-- Node19&#45;&gt;Node34 -->
<g id="edge35_Node000019_Node000034" class="edge">
<title>Node19&#45;&gt;Node34</title>
<g id="a_edge35_Node000019_Node000034"><a xlink:title=" ">
<path fill="none" stroke="#63b8ff" d="M1241.86,-159.6C1430.77,-152.15 1916.31,-131.2 2076.5,-107 2085.69,-105.61 2095.37,-103.67 2104.7,-101.55"/>
<polygon fill="#63b8ff" stroke="#63b8ff" points="1241.59,-156.11 1231.73,-160 1241.86,-163.11 1241.59,-156.11"/>
</a>
</g>
</g>
<!-- Node24 -->
<g id="Node000024" class="node">
<title>Node24</title>
<g id="a_Node000024"><a xlink:href="../../d7/d79/inspect__requests_8hpp.html" target="_top" xlink:title="Handler that returns information about all in&#45;flight requests.">
<polygon fill="white" stroke="#666666" points="1068.5,-30 936.5,-30 936.5,0 1068.5,0 1068.5,-30"/>
<text text-anchor="start" x="944.5" y="-18" font-family="Helvetica,sans-Serif" font-size="10.00">userver/server/handlers</text>
<text text-anchor="middle" x="1002.5" y="-7" font-family="Helvetica,sans-Serif" font-size="10.00">/inspect_requests.hpp</text>
</a>
</g>
</g>
<!-- Node23&#45;&gt;Node24 -->
<g id="edge25_Node000023_Node000024" class="edge">
<title>Node23&#45;&gt;Node24</title>
<g id="a_edge25_Node000023_Node000024"><a xlink:title=" ">
<path fill="none" stroke="#63b8ff" d="M950.17,-64.49C962.21,-53.34 976.68,-39.93 987.35,-30.04"/>
<polygon fill="#63b8ff" stroke="#63b8ff" points="947.63,-62.07 942.68,-71.44 952.39,-67.21 947.63,-62.07"/>
</a>
</g>
</g>
<!-- Node25 -->
<g id="Node000025" class="node">
<title>Node25</title>
<g id="a_Node000025"><a xlink:href="../../d6/d43/tests__control_8hpp.html" target="_top" xlink:title="Handler that allows to control the behavior of server from tests, and functional tests with testsuite...">
<polygon fill="white" stroke="#666666" points="918.5,-30 786.5,-30 786.5,0 918.5,0 918.5,-30"/>
<text text-anchor="start" x="794.5" y="-18" font-family="Helvetica,sans-Serif" font-size="10.00">userver/server/handlers</text>
<text text-anchor="middle" x="852.5" y="-7" font-family="Helvetica,sans-Serif" font-size="10.00">/tests_control.hpp</text>
</a>
</g>
</g>
<!-- Node23&#45;&gt;Node25 -->
<g id="edge26_Node000023_Node000025" class="edge">
<title>Node23&#45;&gt;Node25</title>
<g id="a_edge26_Node000023_Node000025"><a xlink:title=" ">
<path fill="none" stroke="#63b8ff" d="M904.83,-64.49C892.79,-53.34 878.32,-39.93 867.65,-30.04"/>
<polygon fill="#63b8ff" stroke="#63b8ff" points="902.61,-67.21 912.32,-71.44 907.37,-62.07 902.61,-67.21"/>
</a>
</g>
</g>
<!-- Node33 -->
<g id="Node000033" class="node">
<title>Node33</title>
<g id="a_Node000033"><a xlink:href="../../d3/ddd/core_2include_2userver_2server_2component_8hpp.html" target="_top" xlink:title="Component that listens for incoming requests, manages incoming connections and passes the requests to...">
<polygon fill="white" stroke="#666666" points="2079.5,-24.5 1913.5,-24.5 1913.5,-5.5 2079.5,-5.5 2079.5,-24.5"/>
<text text-anchor="middle" x="1996.5" y="-12.5" font-family="Helvetica,sans-Serif" font-size="10.00">userver/server/component.hpp</text>
</a>
</g>
</g>
<!-- Node32&#45;&gt;Node33 -->
<g id="edge34_Node000032_Node000033" class="edge">
<title>Node32&#45;&gt;Node33</title>
<g id="a_edge34_Node000032_Node000033"><a xlink:title=" ">
<path fill="none" stroke="#63b8ff" d="M1996.5,-66.71C1996.5,-53 1996.5,-35.05 1996.5,-24.59"/>
<polygon fill="#63b8ff" stroke="#63b8ff" points="1993,-66.98 1996.5,-76.98 2000,-66.98 1993,-66.98"/>
</a>
</g>
</g>
<!-- Node35&#45;&gt;Node34 -->
<g id="edge40_Node000035_Node000034" class="edge">
<title>Node35&#45;&gt;Node34</title>
<g id="a_edge40_Node000035_Node000034"><a xlink:title=" ">
<path fill="none" stroke="#63b8ff" d="M1577.15,-217.84C1687.21,-194.2 1897.85,-148.5 2076.5,-107 2084.02,-105.25 2091.93,-103.38 2099.72,-101.5"/>
<polygon fill="#63b8ff" stroke="#63b8ff" points="1576.18,-214.47 1567.14,-219.99 1577.65,-221.31 1576.18,-214.47"/>
</a>
</g>
</g>
<!-- Node36&#45;&gt;Node14 -->
<g id="edge45_Node000036_Node000014" class="edge">
<title>Node36&#45;&gt;Node14</title>
<g id="a_edge45_Node000036_Node000014"><a xlink:title=" ">
<path fill="none" stroke="#63b8ff" d="M815.07,-356.94C831.22,-345.6 851.01,-331.71 865.5,-321.54"/>
<polygon fill="#63b8ff" stroke="#63b8ff" points="812.71,-354.33 806.53,-362.94 816.73,-360.05 812.71,-354.33"/>
</a>
</g>
</g>
<!-- Node36&#45;&gt;Node17 -->
<g id="edge42_Node000036_Node000017" class="edge">
<title>Node36&#45;&gt;Node17</title>
<g id="a_edge42_Node000036_Node000017"><a xlink:title=" ">
<path fill="none" stroke="#63b8ff" d="M786.5,-352.69C786.5,-310.16 786.5,-223.06 786.5,-184.1"/>
<polygon fill="#63b8ff" stroke="#63b8ff" points="783,-352.73 786.5,-362.73 790,-352.73 783,-352.73"/>
</a>
</g>
</g>
<!-- Node36&#45;&gt;Node18 -->
<g id="edge43_Node000036_Node000018" class="edge">
<title>Node36&#45;&gt;Node18</title>
<g id="a_edge43_Node000036_Node000018"><a xlink:title=" ">
<path fill="none" stroke="#63b8ff" d="M761.93,-356.28C738.61,-337.04 702.21,-308.13 668.5,-286 557.17,-212.9 416.93,-140.68 349.42,-107.06"/>
<polygon fill="#63b8ff" stroke="#63b8ff" points="759.97,-359.2 769.9,-362.9 764.44,-353.82 759.97,-359.2"/>
</a>
</g>
</g>
<!-- Node36&#45;&gt;Node19 -->
<g id="edge44_Node000036_Node000019" class="edge">
<title>Node36&#45;&gt;Node19</title>
<g id="a_edge44_Node000036_Node000019"><a xlink:title=" ">
<path fill="none" stroke="#63b8ff" d="M851.51,-365.98C923.19,-350.87 1038.3,-317.52 1113.5,-250 1136.12,-229.69 1152.12,-197.19 1159.97,-178.66"/>
<polygon fill="#63b8ff" stroke="#63b8ff" points="850.79,-362.55 841.69,-367.99 852.19,-369.41 850.79,-362.55"/>
</a>
</g>
</g>
<!-- Node37 -->
<g id="Node000037" class="node">
<title>Node37</title>
<g id="a_Node000037"><a xlink:href="../../d8/d76/http__response__body__stream_8hpp_source.html" target="_top" xlink:title=" ">
<polygon fill="white" stroke="#666666" points="659.5,-327 541.5,-327 541.5,-286 659.5,-286 659.5,-327"/>
<text text-anchor="start" x="549.5" y="-315" font-family="Helvetica,sans-Serif" font-size="10.00">userver/server/http</text>
<text text-anchor="start" x="549.5" y="-304" font-family="Helvetica,sans-Serif" font-size="10.00">/http_response_body</text>
<text text-anchor="middle" x="600.5" y="-293" font-family="Helvetica,sans-Serif" font-size="10.00">_stream.hpp</text>
</a>
</g>
</g>
<!-- Node36&#45;&gt;Node37 -->
<g id="edge46_Node000036_Node000037" class="edge">
<title>Node36&#45;&gt;Node37</title>
<g id="a_edge46_Node000036_Node000037"><a xlink:title=" ">
<path fill="none" stroke="#63b8ff" d="M739.46,-359.42C713.07,-349.56 680.09,-337.24 652.88,-327.07"/>
<polygon fill="#63b8ff" stroke="#63b8ff" points="738.27,-362.71 748.86,-362.94 740.72,-356.16 738.27,-362.71"/>
</a>
</g>
</g>
</g>
</svg>
