<?xml version="1.0" encoding="UTF-8" standalone="no"?>
<!DOCTYPE svg PUBLIC "-//W3C//DTD SVG 1.1//EN"
 "http://www.w3.org/Graphics/SVG/1.1/DTD/svg11.dtd">
<!-- Generated by graphviz version 2.43.0 (0)
 -->
<!-- Title: userver/testsuite/testpoint_control.hpp Pages: 1 -->
<svg width="461pt" height="170pt"
 viewBox="0.00 0.00 461.00 170.00" xmlns="http://www.w3.org/2000/svg" xmlns:xlink="http://www.w3.org/1999/xlink">
<g id="graph0" class="graph" transform="scale(1 1) rotate(0) translate(4 166)">
<title>userver/testsuite/testpoint_control.hpp</title>
<!-- Node1 -->
<g id="Node000001" class="node">
<title>Node1</title>
<g id="a_Node000001"><a xlink:title="Testpoint control interface for testsuite.">
<polygon fill="#999999" stroke="#666666" points="219.5,-162 73.5,-162 73.5,-132 219.5,-132 219.5,-162"/>
<text text-anchor="start" x="81.5" y="-150" font-family="Helvetica,sans-Serif" font-size="10.00">userver/testsuite/testpoint</text>
<text text-anchor="middle" x="146.5" y="-139" font-family="Helvetica,sans-Serif" font-size="10.00">_control.hpp</text>
</a>
</g>
</g>
<!-- Node2 -->
<g id="Node000002" class="node">
<title>Node2</title>
<g id="a_Node000002"><a xlink:title=" ">
<polygon fill="#e0e0e0" stroke="#999999" points="65,-90.5 0,-90.5 0,-71.5 65,-71.5 65,-90.5"/>
<text text-anchor="middle" x="32.5" y="-78.5" font-family="Helvetica,sans-Serif" font-size="10.00">functional</text>
</a>
</g>
</g>
<!-- Node1&#45;&gt;Node2 -->
<g id="edge1_Node000001_Node000002" class="edge">
<title>Node1&#45;&gt;Node2</title>
<g id="a_edge1_Node000001_Node000002"><a xlink:title=" ">
<path fill="none" stroke="#63b8ff" d="M121.48,-131.95C102.19,-121.13 75.68,-106.24 56.62,-95.54"/>
<polygon fill="#63b8ff" stroke="#63b8ff" points="58.1,-92.36 47.67,-90.52 54.68,-98.46 58.1,-92.36"/>
</a>
</g>
</g>
<!-- Node3 -->
<g id="Node000003" class="node">
<title>Node3</title>
<g id="a_Node000003"><a xlink:title=" ">
<polygon fill="#e0e0e0" stroke="#999999" points="127.5,-90.5 83.5,-90.5 83.5,-71.5 127.5,-71.5 127.5,-90.5"/>
<text text-anchor="middle" x="105.5" y="-78.5" font-family="Helvetica,sans-Serif" font-size="10.00">string</text>
</a>
</g>
</g>
<!-- Node1&#45;&gt;Node3 -->
<g id="edge2_Node000001_Node000003" class="edge">
<title>Node1&#45;&gt;Node3</title>
<g id="a_edge2_Node000001_Node000003"><a xlink:title=" ">
<path fill="none" stroke="#63b8ff" d="M137.4,-131.8C131.26,-122.21 123.12,-109.5 116.6,-99.32"/>
<polygon fill="#63b8ff" stroke="#63b8ff" points="119.51,-97.38 111.17,-90.84 113.61,-101.15 119.51,-97.38"/>
</a>
</g>
</g>
<!-- Node4 -->
<g id="Node000004" class="node">
<title>Node4</title>
<g id="a_Node000004"><a xlink:title=" ">
<polygon fill="#e0e0e0" stroke="#999999" points="231.5,-90.5 145.5,-90.5 145.5,-71.5 231.5,-71.5 231.5,-90.5"/>
<text text-anchor="middle" x="188.5" y="-78.5" font-family="Helvetica,sans-Serif" font-size="10.00">unordered_set</text>
</a>
</g>
</g>
<!-- Node1&#45;&gt;Node4 -->
<g id="edge3_Node000001_Node000004" class="edge">
<title>Node1&#45;&gt;Node4</title>
<g id="a_edge3_Node000001_Node000004"><a xlink:title=" ">
<path fill="none" stroke="#63b8ff" d="M155.82,-131.8C162.11,-122.21 170.45,-109.5 177.13,-99.32"/>
<polygon fill="#63b8ff" stroke="#63b8ff" points="180.14,-101.13 182.7,-90.84 174.28,-97.28 180.14,-101.13"/>
</a>
</g>
</g>
<!-- Node5 -->
<g id="Node000005" class="node">
<title>Node5</title>
<g id="a_Node000005"><a xlink:href="../../dc/d7d/json__fwd_8hpp.html" target="_top" xlink:title="Forward declarations of formats::json types, formats::parse::To and formats::serialize::To.">
<polygon fill="white" stroke="#666666" points="367.5,-96 249.5,-96 249.5,-66 367.5,-66 367.5,-96"/>
<text text-anchor="start" x="257.5" y="-84" font-family="Helvetica,sans-Serif" font-size="10.00">userver/formats/json</text>
<text text-anchor="middle" x="308.5" y="-73" font-family="Helvetica,sans-Serif" font-size="10.00">_fwd.hpp</text>
</a>
</g>
</g>
<!-- Node1&#45;&gt;Node5 -->
<g id="edge4_Node000001_Node000005" class="edge">
<title>Node1&#45;&gt;Node5</title>
<g id="a_edge4_Node000001_Node000005"><a xlink:title=" ">
<path fill="none" stroke="#63b8ff" d="M182.05,-131.95C206,-122.49 237.79,-109.93 263.5,-99.78"/>
<polygon fill="#63b8ff" stroke="#63b8ff" points="265.02,-102.94 273.03,-96.01 262.44,-96.43 265.02,-102.94"/>
</a>
</g>
</g>
<!-- Node6 -->
<g id="Node000006" class="node">
<title>Node6</title>
<g id="a_Node000006"><a xlink:href="../../d2/dc8/universal_2include_2userver_2formats_2parse_2to_8hpp.html" target="_top" xlink:title="Helper for parsers.">
<polygon fill="white" stroke="#666666" points="296,-30 171,-30 171,0 296,0 296,-30"/>
<text text-anchor="start" x="179" y="-18" font-family="Helvetica,sans-Serif" font-size="10.00">userver/formats/parse</text>
<text text-anchor="middle" x="233.5" y="-7" font-family="Helvetica,sans-Serif" font-size="10.00">/to.hpp</text>
</a>
</g>
</g>
<!-- Node5&#45;&gt;Node6 -->
<g id="edge5_Node000005_Node000006" class="edge">
<title>Node5&#45;&gt;Node6</title>
<g id="a_edge5_Node000005_Node000006"><a xlink:title=" ">
<path fill="none" stroke="#63b8ff" d="M291.86,-65.8C281.85,-57.26 268.95,-46.25 257.82,-36.75"/>
<polygon fill="#63b8ff" stroke="#63b8ff" points="259.98,-33.99 250.1,-30.16 255.43,-39.32 259.98,-33.99"/>
</a>
</g>
</g>
<!-- Node7 -->
<g id="Node000007" class="node">
<title>Node7</title>
<g id="a_Node000007"><a xlink:href="../../d6/d8e/universal_2include_2userver_2formats_2serialize_2to_8hpp.html" target="_top" xlink:title="Helper for serializers.">
<polygon fill="white" stroke="#666666" points="453,-30 314,-30 314,0 453,0 453,-30"/>
<text text-anchor="start" x="322" y="-18" font-family="Helvetica,sans-Serif" font-size="10.00">userver/formats/serialize</text>
<text text-anchor="middle" x="383.5" y="-7" font-family="Helvetica,sans-Serif" font-size="10.00">/to.hpp</text>
</a>
</g>
</g>
<!-- Node5&#45;&gt;Node7 -->
<g id="edge6_Node000005_Node000007" class="edge">
<title>Node5&#45;&gt;Node7</title>
<g id="a_edge6_Node000005_Node000007"><a xlink:title=" ">
<path fill="none" stroke="#63b8ff" d="M325.14,-65.8C335.15,-57.26 348.05,-46.25 359.18,-36.75"/>
<polygon fill="#63b8ff" stroke="#63b8ff" points="361.57,-39.32 366.9,-30.16 357.02,-33.99 361.57,-39.32"/>
</a>
</g>
</g>
</g>
</svg>
