<?xml version="1.0" encoding="UTF-8" standalone="no"?>
<!DOCTYPE svg PUBLIC "-//W3C//DTD SVG 1.1//EN"
 "http://www.w3.org/Graphics/SVG/1.1/DTD/svg11.dtd">
<!-- Generated by graphviz version 2.43.0 (0)
 -->
<!-- Title: Serializers Pages: 1 -->
<svg width="403pt" height="143pt"
 viewBox="0.00 0.00 403.00 142.84" xmlns="http://www.w3.org/2000/svg" xmlns:xlink="http://www.w3.org/1999/xlink">
<g id="graph0" class="graph" transform="scale(1 1) rotate(0) translate(4 138.84)">
<title>Serializers</title>
<!-- Node2 -->
<g id="Node000002" class="node">
<title>Node2</title>
<g id="a_Node000002"><a xlink:href="../../d3/dcb/group__userver__formats.html" target="_top" xlink:title="Different containers that share the same interface and manipulate tree&#45;like formats.">
<polygon fill="white" stroke="#666666" points="56,-86.34 0,-86.34 0,-67.34 56,-67.34 56,-86.34"/>
<text text-anchor="middle" x="28" y="-74.34" font-family="Helvetica,sans-Serif" font-size="10.00">Formats</text>
</a>
</g>
</g>
<!-- Node1 -->
<g id="Node000001" class="node">
<title>Node1</title>
<g id="a_Node000001"><a xlink:title="Files with serializers into formats.">
<polygon fill="#999999" stroke="#666666" points="161,-86.34 93,-86.34 93,-67.34 161,-67.34 161,-86.34"/>
<text text-anchor="middle" x="127" y="-74.34" font-family="Helvetica,sans-Serif" font-size="10.00">Serializers</text>
</a>
</g>
</g>
<!-- Node2&#45;&gt;Node1 -->
<g id="edge1" class="edge">
<title>Node2&#45;&gt;Node1</title>
<path fill="none" stroke="black" d="M66.07,-76.84C74.9,-76.84 84.27,-76.84 92.91,-76.84"/>
<polygon fill="black" stroke="black" points="66.02,-73.34 56.02,-76.84 66.02,-80.34 66.02,-73.34"/>
</g>
<!-- Node3 -->
<g id="Node000003" class="node">
<title>Node3</title>
<g id="a_Node000003"><a xlink:href="../../d7/d67/group__userver__universal.html" target="_top" xlink:title="Functions and classes that could be used with or without coroutine environment.">
<polygon fill="white" stroke="#666666" points="395,-86.34 332,-86.34 332,-67.34 395,-67.34 395,-86.34"/>
<text text-anchor="middle" x="363.5" y="-74.34" font-family="Helvetica,sans-Serif" font-size="10.00">Universal</text>
</a>
</g>
</g>
<!-- Node1&#45;&gt;Node3 -->
<g id="edge2" class="edge">
<title>Node1&#45;&gt;Node3</title>
<path fill="none" stroke="orange" stroke-dasharray="5,2" d="M138.37,-86.47C148.05,-94.75 163.32,-106.09 179,-110.84 236.43,-128.23 256.78,-128.9 314,-110.84 329.1,-106.07 343.59,-94.74 352.73,-86.46"/>
<text text-anchor="middle" x="246.5" y="-126.84" font-family="Helvetica,sans-Serif" font-size="10.00">formats::serialize::To</text>
</g>
<!-- Node1&#45;&gt;Node3 -->
<g id="edge3" class="edge">
<title>Node1&#45;&gt;Node3</title>
<path fill="none" stroke="darkgreen" stroke-dasharray="5,2" d="M133,-67.17C140.73,-53.42 157.01,-28.79 179,-18.84 233.67,5.89 259.64,6.56 314,-18.84 335.4,-28.84 350.69,-53.45 357.87,-67.19"/>
<text text-anchor="middle" x="246.5" y="-98.84" font-family="Helvetica,sans-Serif" font-size="10.00">serialize_boost_variant.hpp</text>
<text text-anchor="middle" x="246.5" y="-87.84" font-family="Helvetica,sans-Serif" font-size="10.00">serialize_duration.hpp</text>
<text text-anchor="middle" x="246.5" y="-76.84" font-family="Helvetica,sans-Serif" font-size="10.00">serialize_variant.hpp</text>
<text text-anchor="middle" x="246.5" y="-65.84" font-family="Helvetica,sans-Serif" font-size="10.00">boost_optional.hpp</text>
<text text-anchor="middle" x="246.5" y="-54.84" font-family="Helvetica,sans-Serif" font-size="10.00">boost_uuid.hpp</text>
<text text-anchor="middle" x="246.5" y="-43.84" font-family="Helvetica,sans-Serif" font-size="10.00">common_containers.hpp</text>
<text text-anchor="middle" x="246.5" y="-32.84" font-family="Helvetica,sans-Serif" font-size="10.00">time_of_day.hpp</text>
<text text-anchor="middle" x="246.5" y="-21.84" font-family="Helvetica,sans-Serif" font-size="10.00">to.hpp</text>
</g>
</g>
</svg>
