<?xml version="1.0" encoding="UTF-8" standalone="no"?>
<!DOCTYPE svg PUBLIC "-//W3C//DTD SVG 1.1//EN"
 "http://www.w3.org/Graphics/SVG/1.1/DTD/svg11.dtd">
<!-- Generated by graphviz version 2.42.4 (0)
 -->
<!-- Title: userver/storages/postgres/io/user_types.hpp Pages: 1 -->
<svg width="1229pt" height="797pt"
 viewBox="0.00 0.00 1229.00 797.00" xmlns="http://www.w3.org/2000/svg" xmlns:xlink="http://www.w3.org/1999/xlink">
<g id="graph0" class="graph" transform="scale(1 1) rotate(0) translate(4 793)">
<title>userver/storages/postgres/io/user_types.hpp</title>
<!-- Node1 -->
<g id="Node000001" class="node">
<title>Node1</title>
<g id="a_Node000001"><a xlink:title="User types I/O support.">
<polygon fill="#999999" stroke="#666666" points="600,-789 457,-789 457,-759 600,-759 600,-789"/>
<text text-anchor="start" x="465" y="-777" font-family="Helvetica,sans-Serif" font-size="10.00">userver/storages/postgres</text>
<text text-anchor="middle" x="528.5" y="-766" font-family="Helvetica,sans-Serif" font-size="10.00">/io/user_types.hpp</text>
</a>
</g>
</g>
<!-- Node2 -->
<g id="Node000002" class="node">
<title>Node2</title>
<g id="a_Node000002"><a xlink:href="../../d4/d90/array__types_8hpp.html" target="_top" xlink:title="I/O support for arrays (std::array, std::set, std::unordered_set, std::vector)">
<polygon fill="white" stroke="#666666" points="201,-657 58,-657 58,-627 201,-627 201,-657"/>
<text text-anchor="start" x="66" y="-645" font-family="Helvetica,sans-Serif" font-size="10.00">userver/storages/postgres</text>
<text text-anchor="middle" x="129.5" y="-634" font-family="Helvetica,sans-Serif" font-size="10.00">/io/array_types.hpp</text>
</a>
</g>
</g>
<!-- Node1&#45;&gt;Node2 -->
<g id="edge1_Node000001_Node000002" class="edge">
<title>Node1&#45;&gt;Node2</title>
<g id="a_edge1_Node000001_Node000002"><a xlink:title=" ">
<path fill="none" stroke="#63b8ff" d="M446.46,-769.5C356.56,-764.27 219.39,-751.74 176.5,-723 153.08,-707.31 139.72,-675.69 133.6,-657.25"/>
<polygon fill="#63b8ff" stroke="#63b8ff" points="446.46,-773.01 456.64,-770.08 446.85,-766.02 446.46,-773.01"/>
</a>
</g>
</g>
<!-- Node3 -->
<g id="Node000003" class="node">
<title>Node3</title>
<g id="a_Node000003"><a xlink:href="../../dc/da2/postgresql_2include_2userver_2storages_2postgres_2io_2supported__types_8hpp.html" target="_top" xlink:title="Includes parsers and formatters for all supported data types; prefer using the type specific include ...">
<polygon fill="white" stroke="#666666" points="500,-585.5 357,-585.5 357,-555.5 500,-555.5 500,-585.5"/>
<text text-anchor="start" x="365" y="-573.5" font-family="Helvetica,sans-Serif" font-size="10.00">userver/storages/postgres</text>
<text text-anchor="middle" x="428.5" y="-562.5" font-family="Helvetica,sans-Serif" font-size="10.00">/io/supported_types.hpp</text>
</a>
</g>
</g>
<!-- Node1&#45;&gt;Node3 -->
<g id="edge36_Node000001_Node000003" class="edge">
<title>Node1&#45;&gt;Node3</title>
<g id="a_edge36_Node000001_Node000003"><a xlink:title=" ">
<path fill="none" stroke="#63b8ff" d="M525.03,-748.66C522.16,-732.42 517.28,-710.87 509.5,-693 506.97,-687.19 458.95,-616.3 438.07,-585.56"/>
<polygon fill="#63b8ff" stroke="#63b8ff" points="521.64,-749.63 526.7,-758.93 528.55,-748.5 521.64,-749.63"/>
</a>
</g>
</g>
<!-- Node22 -->
<g id="Node000022" class="node">
<title>Node22</title>
<g id="a_Node000022"><a xlink:href="../../d4/dda/composite__types_8hpp.html" target="_top" xlink:title="Composite types I/O support.">
<polygon fill="white" stroke="#666666" points="362,-657 219,-657 219,-627 362,-627 362,-657"/>
<text text-anchor="start" x="227" y="-645" font-family="Helvetica,sans-Serif" font-size="10.00">userver/storages/postgres</text>
<text text-anchor="middle" x="290.5" y="-634" font-family="Helvetica,sans-Serif" font-size="10.00">/io/composite_types.hpp</text>
</a>
</g>
</g>
<!-- Node1&#45;&gt;Node22 -->
<g id="edge27_Node000001_Node000022" class="edge">
<title>Node1&#45;&gt;Node22</title>
<g id="a_edge27_Node000001_Node000022"><a xlink:title=" ">
<path fill="none" stroke="#63b8ff" d="M446.62,-772.81C356.6,-770.65 220.32,-760.98 187.5,-723 163.96,-695.76 209.4,-671.5 247.21,-657.02"/>
<polygon fill="#63b8ff" stroke="#63b8ff" points="446.74,-776.31 456.82,-773.03 446.89,-769.32 446.74,-776.31"/>
</a>
</g>
</g>
<!-- Node23 -->
<g id="Node000023" class="node">
<title>Node23</title>
<g id="a_Node000023"><a xlink:href="../../d5/d23/enum__types_8hpp.html" target="_top" xlink:title="Enum I/O support.">
<polygon fill="white" stroke="#666666" points="638,-657 495,-657 495,-627 638,-627 638,-657"/>
<text text-anchor="start" x="503" y="-645" font-family="Helvetica,sans-Serif" font-size="10.00">userver/storages/postgres</text>
<text text-anchor="middle" x="566.5" y="-634" font-family="Helvetica,sans-Serif" font-size="10.00">/io/enum_types.hpp</text>
</a>
</g>
</g>
<!-- Node1&#45;&gt;Node23 -->
<g id="edge29_Node000001_Node000023" class="edge">
<title>Node1&#45;&gt;Node23</title>
<g id="a_edge29_Node000001_Node000023"><a xlink:title=" ">
<path fill="none" stroke="#63b8ff" d="M535.51,-749.04C543.38,-722.08 555.92,-679.21 562.37,-657.14"/>
<polygon fill="#63b8ff" stroke="#63b8ff" points="532.09,-748.26 532.64,-758.84 538.8,-750.22 532.09,-748.26"/>
</a>
</g>
</g>
<!-- Node24 -->
<g id="Node000024" class="node">
<title>Node24</title>
<g id="a_Node000024"><a xlink:href="../../da/d26/geometry__types_8hpp.html" target="_top" xlink:title="Geometry I/O support.">
<polygon fill="white" stroke="#666666" points="999,-723 856,-723 856,-693 999,-693 999,-723"/>
<text text-anchor="start" x="864" y="-711" font-family="Helvetica,sans-Serif" font-size="10.00">userver/storages/postgres</text>
<text text-anchor="middle" x="927.5" y="-700" font-family="Helvetica,sans-Serif" font-size="10.00">/io/geometry_types.hpp</text>
</a>
</g>
</g>
<!-- Node1&#45;&gt;Node24 -->
<g id="edge31_Node000001_Node000024" class="edge">
<title>Node1&#45;&gt;Node24</title>
<g id="a_edge31_Node000001_Node000024"><a xlink:title=" ">
<path fill="none" stroke="#63b8ff" d="M610.21,-760.02C673.37,-749.96 762.99,-735.66 841.5,-723 846.13,-722.25 850.9,-721.48 855.71,-720.7"/>
<polygon fill="#63b8ff" stroke="#63b8ff" points="609.63,-756.56 600.3,-761.59 610.73,-763.48 609.63,-756.56"/>
</a>
</g>
</g>
<!-- Node25 -->
<g id="Node000025" class="node">
<title>Node25</title>
<g id="a_Node000025"><a xlink:href="../../dd/d50/json__types_8hpp.html" target="_top" xlink:title="JSON I/O support.">
<polygon fill="white" stroke="#666666" points="339,-723 196,-723 196,-693 339,-693 339,-723"/>
<text text-anchor="start" x="204" y="-711" font-family="Helvetica,sans-Serif" font-size="10.00">userver/storages/postgres</text>
<text text-anchor="middle" x="267.5" y="-700" font-family="Helvetica,sans-Serif" font-size="10.00">/io/json_types.hpp</text>
</a>
</g>
</g>
<!-- Node1&#45;&gt;Node25 -->
<g id="edge32_Node000001_Node000025" class="edge">
<title>Node1&#45;&gt;Node25</title>
<g id="a_edge32_Node000001_Node000025"><a xlink:title=" ">
<path fill="none" stroke="#63b8ff" d="M461.28,-756.52C418.95,-746.14 364.9,-732.88 324.64,-723.01"/>
<polygon fill="#63b8ff" stroke="#63b8ff" points="460.68,-759.97 471.22,-758.95 462.34,-753.17 460.68,-759.97"/>
</a>
</g>
</g>
<!-- Node26 -->
<g id="Node000026" class="node">
<title>Node26</title>
<g id="a_Node000026"><a xlink:href="../../d5/d60/range__types_8hpp.html" target="_top" xlink:title="Ranges I/O support.">
<polygon fill="white" stroke="#666666" points="500,-723 357,-723 357,-693 500,-693 500,-723"/>
<text text-anchor="start" x="365" y="-711" font-family="Helvetica,sans-Serif" font-size="10.00">userver/storages/postgres</text>
<text text-anchor="middle" x="428.5" y="-700" font-family="Helvetica,sans-Serif" font-size="10.00">/io/range_types.hpp</text>
</a>
</g>
</g>
<!-- Node1&#45;&gt;Node26 -->
<g id="edge34_Node000001_Node000026" class="edge">
<title>Node1&#45;&gt;Node26</title>
<g id="a_edge34_Node000001_Node000026"><a xlink:title=" ">
<path fill="none" stroke="#63b8ff" d="M497.72,-753.3C482.5,-743.56 464.47,-732.02 450.63,-723.16"/>
<polygon fill="#63b8ff" stroke="#63b8ff" points="496,-756.35 506.31,-758.8 499.77,-750.46 496,-756.35"/>
</a>
</g>
</g>
<!-- Node27 -->
<g id="Node000027" class="node">
<title>Node27</title>
<g id="a_Node000027"><a xlink:href="../../d9/d6e/transform__io_8hpp_source.html" target="_top" xlink:title=" ">
<polygon fill="white" stroke="#666666" points="738,-723 595,-723 595,-693 738,-693 738,-723"/>
<text text-anchor="start" x="603" y="-711" font-family="Helvetica,sans-Serif" font-size="10.00">userver/storages/postgres</text>
<text text-anchor="middle" x="666.5" y="-700" font-family="Helvetica,sans-Serif" font-size="10.00">/io/transform_io.hpp</text>
</a>
</g>
</g>
<!-- Node1&#45;&gt;Node27 -->
<g id="edge37_Node000001_Node000027" class="edge">
<title>Node1&#45;&gt;Node27</title>
<g id="a_edge37_Node000001_Node000027"><a xlink:title=" ">
<path fill="none" stroke="#63b8ff" d="M568.07,-754.65C589.77,-744.58 616.26,-732.3 636.29,-723.01"/>
<polygon fill="#63b8ff" stroke="#63b8ff" points="566.38,-751.57 558.78,-758.95 569.33,-757.92 566.38,-751.57"/>
</a>
</g>
</g>
<!-- Node30 -->
<g id="Node000030" class="node">
<title>Node30</title>
<g id="a_Node000030"><a xlink:href="../../d6/d9a/postgresql_2include_2userver_2storages_2postgres_2parameter__store_8hpp.html" target="_top" xlink:title="Class for dynamic PostgreSQL parameter list construction.">
<polygon fill="white" stroke="#666666" points="899,-514 756,-514 756,-484 899,-484 899,-514"/>
<text text-anchor="start" x="764" y="-502" font-family="Helvetica,sans-Serif" font-size="10.00">userver/storages/postgres</text>
<text text-anchor="middle" x="827.5" y="-491" font-family="Helvetica,sans-Serif" font-size="10.00">/parameter_store.hpp</text>
</a>
</g>
</g>
<!-- Node1&#45;&gt;Node30 -->
<g id="edge43_Node000001_Node000030" class="edge">
<title>Node1&#45;&gt;Node30</title>
<g id="a_edge43_Node000001_Node000030"><a xlink:title=" ">
<path fill="none" stroke="#63b8ff" d="M610.42,-766.05C653.5,-759.58 705.86,-747.1 747.5,-723 782.07,-702.99 791.73,-693.25 808.5,-657 830.98,-608.41 830.24,-542.75 828.61,-514.22"/>
<polygon fill="#63b8ff" stroke="#63b8ff" points="609.65,-762.62 600.24,-767.49 610.64,-769.55 609.65,-762.62"/>
</a>
</g>
</g>
<!-- Node2&#45;&gt;Node3 -->
<g id="edge2_Node000002_Node000003" class="edge">
<title>Node2&#45;&gt;Node3</title>
<g id="a_edge2_Node000002_Node000003"><a xlink:title=" ">
<path fill="none" stroke="#63b8ff" d="M199.99,-624.62C251.09,-612.74 319.47,-596.84 368.08,-585.54"/>
<polygon fill="#63b8ff" stroke="#63b8ff" points="198.95,-621.26 190.01,-626.94 200.54,-628.08 198.95,-621.26"/>
</a>
</g>
</g>
<!-- Node4 -->
<g id="Node000004" class="node">
<title>Node4</title>
<g id="a_Node000004"><a xlink:href="../../d5/da1/field_8hpp.html" target="_top" xlink:title="Result field accessors.">
<polygon fill="white" stroke="#666666" points="600,-514 457,-514 457,-484 600,-484 600,-514"/>
<text text-anchor="start" x="465" y="-502" font-family="Helvetica,sans-Serif" font-size="10.00">userver/storages/postgres</text>
<text text-anchor="middle" x="528.5" y="-491" font-family="Helvetica,sans-Serif" font-size="10.00">/field.hpp</text>
</a>
</g>
</g>
<!-- Node3&#45;&gt;Node4 -->
<g id="edge3_Node000003_Node000004" class="edge">
<title>Node3&#45;&gt;Node4</title>
<g id="a_edge3_Node000003_Node000004"><a xlink:title=" ">
<path fill="none" stroke="#63b8ff" d="M457.36,-549.44C473.67,-538.1 493.66,-524.21 508.29,-514.04"/>
<polygon fill="#63b8ff" stroke="#63b8ff" points="454.95,-546.85 448.74,-555.44 458.95,-552.6 454.95,-546.85"/>
</a>
</g>
</g>
<!-- Node5 -->
<g id="Node000005" class="node">
<title>Node5</title>
<g id="a_Node000005"><a xlink:href="../../dc/d69/row_8hpp.html" target="_top" xlink:title="Result row accessors.">
<polygon fill="white" stroke="#666666" points="562,-448 419,-448 419,-418 562,-418 562,-448"/>
<text text-anchor="start" x="427" y="-436" font-family="Helvetica,sans-Serif" font-size="10.00">userver/storages/postgres</text>
<text text-anchor="middle" x="490.5" y="-425" font-family="Helvetica,sans-Serif" font-size="10.00">/row.hpp</text>
</a>
</g>
</g>
<!-- Node3&#45;&gt;Node5 -->
<g id="edge26_Node000003_Node000005" class="edge">
<title>Node3&#45;&gt;Node5</title>
<g id="a_edge26_Node000003_Node000005"><a xlink:title=" ">
<path fill="none" stroke="#63b8ff" d="M431.08,-545.41C433.68,-527.69 438.78,-503.42 448.5,-484 455.2,-470.62 466.16,-457.74 475.2,-448.41"/>
<polygon fill="#63b8ff" stroke="#63b8ff" points="427.58,-545.13 429.75,-555.5 434.52,-546.04 427.58,-545.13"/>
</a>
</g>
</g>
<!-- Node6 -->
<g id="Node000006" class="node">
<title>Node6</title>
<g id="a_Node000006"><a xlink:href="../../dd/daf/postgresql_2include_2userver_2storages_2postgres_2result__set_8hpp.html" target="_top" xlink:title="Result accessors.">
<polygon fill="white" stroke="#666666" points="530,-382 387,-382 387,-352 530,-352 530,-382"/>
<text text-anchor="start" x="395" y="-370" font-family="Helvetica,sans-Serif" font-size="10.00">userver/storages/postgres</text>
<text text-anchor="middle" x="458.5" y="-359" font-family="Helvetica,sans-Serif" font-size="10.00">/result_set.hpp</text>
</a>
</g>
</g>
<!-- Node3&#45;&gt;Node6 -->
<g id="edge25_Node000003_Node000006" class="edge">
<title>Node3&#45;&gt;Node6</title>
<g id="a_edge25_Node000003_Node000006"><a xlink:title=" ">
<path fill="none" stroke="#63b8ff" d="M418.73,-545.67C407.7,-515 393.36,-460.61 410.5,-418 416.25,-403.71 428.25,-391.21 438.81,-382.28"/>
<polygon fill="#63b8ff" stroke="#63b8ff" points="415.49,-546.99 422.3,-555.11 422.04,-544.52 415.49,-546.99"/>
</a>
</g>
</g>
<!-- Node4&#45;&gt;Node5 -->
<g id="edge4_Node000004_Node000005" class="edge">
<title>Node4&#45;&gt;Node5</title>
<g id="a_edge4_Node000004_Node000005"><a xlink:title=" ">
<path fill="none" stroke="#63b8ff" d="M514.82,-474.96C509.5,-466 503.58,-456.03 498.91,-448.16"/>
<polygon fill="#63b8ff" stroke="#63b8ff" points="511.95,-476.98 520.07,-483.8 517.97,-473.41 511.95,-476.98"/>
</a>
</g>
</g>
<!-- Node5&#45;&gt;Node6 -->
<g id="edge5_Node000005_Node000006" class="edge">
<title>Node5&#45;&gt;Node6</title>
<g id="a_edge5_Node000005_Node000006"><a xlink:title=" ">
<path fill="none" stroke="#63b8ff" d="M478.84,-408.68C474.4,-399.79 469.47,-389.95 465.58,-382.16"/>
<polygon fill="#63b8ff" stroke="#63b8ff" points="475.8,-410.42 483.4,-417.8 482.06,-407.29 475.8,-410.42"/>
</a>
</g>
</g>
<!-- Node7 -->
<g id="Node000007" class="node">
<title>Node7</title>
<g id="a_Node000007"><a xlink:href="../../d2/de3/portal_8hpp_source.html" target="_top" xlink:title=" ">
<polygon fill="white" stroke="#666666" points="587,-316 444,-316 444,-286 587,-286 587,-316"/>
<text text-anchor="start" x="452" y="-304" font-family="Helvetica,sans-Serif" font-size="10.00">userver/storages/postgres</text>
<text text-anchor="middle" x="515.5" y="-293" font-family="Helvetica,sans-Serif" font-size="10.00">/portal.hpp</text>
</a>
</g>
</g>
<!-- Node6&#45;&gt;Node7 -->
<g id="edge6_Node000006_Node000007" class="edge">
<title>Node6&#45;&gt;Node7</title>
<g id="a_edge6_Node000006_Node000007"><a xlink:title=" ">
<path fill="none" stroke="#63b8ff" d="M478.02,-344.09C486.24,-334.85 495.59,-324.36 502.89,-316.16"/>
<polygon fill="#63b8ff" stroke="#63b8ff" points="475.19,-342 471.15,-351.8 480.41,-346.66 475.19,-342"/>
</a>
</g>
</g>
<!-- Node8 -->
<g id="Node000008" class="node">
<title>Node8</title>
<g id="a_Node000008"><a xlink:href="../../da/deb/postgresql_2include_2userver_2storages_2postgres_2transaction_8hpp.html" target="_top" xlink:title="Transactions.">
<polygon fill="white" stroke="#666666" points="538,-250 395,-250 395,-220 538,-220 538,-250"/>
<text text-anchor="start" x="403" y="-238" font-family="Helvetica,sans-Serif" font-size="10.00">userver/storages/postgres</text>
<text text-anchor="middle" x="466.5" y="-227" font-family="Helvetica,sans-Serif" font-size="10.00">/transaction.hpp</text>
</a>
</g>
</g>
<!-- Node6&#45;&gt;Node8 -->
<g id="edge24_Node000006_Node000008" class="edge">
<title>Node6&#45;&gt;Node8</title>
<g id="a_edge24_Node000006_Node000008"><a xlink:title=" ">
<path fill="none" stroke="#63b8ff" d="M444.77,-342.72C437.09,-326.76 430.06,-305.11 435.5,-286 439.25,-272.84 447.57,-259.76 454.64,-250.28"/>
<polygon fill="#63b8ff" stroke="#63b8ff" points="441.81,-344.6 449.53,-351.84 448.01,-341.36 441.81,-344.6"/>
</a>
</g>
</g>
<!-- Node20 -->
<g id="Node000020" class="node">
<title>Node20</title>
<g id="a_Node000020"><a xlink:href="../../df/d02/postgres_8hpp.html" target="_top" xlink:title=" ">
<polygon fill="white" stroke="#666666" points="533,-118 390,-118 390,-88 533,-88 533,-118"/>
<text text-anchor="start" x="398" y="-106" font-family="Helvetica,sans-Serif" font-size="10.00">userver/storages/postgres</text>
<text text-anchor="middle" x="461.5" y="-95" font-family="Helvetica,sans-Serif" font-size="10.00">/postgres.hpp</text>
</a>
</g>
</g>
<!-- Node6&#45;&gt;Node20 -->
<g id="edge21_Node000006_Node000020" class="edge">
<title>Node6&#45;&gt;Node20</title>
<g id="a_edge21_Node000006_Node000020"><a xlink:title=" ">
<path fill="none" stroke="#63b8ff" d="M435.9,-344.23C409.98,-316.51 372.74,-266.63 386.5,-220 398.58,-179.06 430.12,-138.97 448.22,-118.34"/>
<polygon fill="#63b8ff" stroke="#63b8ff" points="433.71,-347 443.18,-351.76 438.75,-342.14 433.71,-347"/>
</a>
</g>
</g>
<!-- Node21 -->
<g id="Node000021" class="node">
<title>Node21</title>
<g id="a_Node000021"><a xlink:href="../../d8/d63/query__queue_8hpp.html" target="_top" xlink:title="An utility to execute multiple queries in a single network round&#45;trip.">
<polygon fill="white" stroke="#666666" points="699,-250 556,-250 556,-220 699,-220 699,-250"/>
<text text-anchor="start" x="564" y="-238" font-family="Helvetica,sans-Serif" font-size="10.00">userver/storages/postgres</text>
<text text-anchor="middle" x="627.5" y="-227" font-family="Helvetica,sans-Serif" font-size="10.00">/query_queue.hpp</text>
</a>
</g>
</g>
<!-- Node6&#45;&gt;Node21 -->
<g id="edge22_Node000006_Node000021" class="edge">
<title>Node6&#45;&gt;Node21</title>
<g id="a_edge22_Node000006_Node000021"><a xlink:title=" ">
<path fill="none" stroke="#63b8ff" d="M539.9,-349.27C560.38,-341.86 580.93,-331.23 596.5,-316 614.92,-297.98 622.6,-267.78 625.65,-250.09"/>
<polygon fill="#63b8ff" stroke="#63b8ff" points="538.55,-346.03 530.2,-352.55 540.79,-352.66 538.55,-346.03"/>
</a>
</g>
</g>
<!-- Node7&#45;&gt;Node8 -->
<g id="edge7_Node000007_Node000008" class="edge">
<title>Node7&#45;&gt;Node8</title>
<g id="a_edge7_Node000007_Node000008"><a xlink:title=" ">
<path fill="none" stroke="#63b8ff" d="M498.51,-277.81C491.49,-268.64 483.56,-258.28 477.34,-250.16"/>
<polygon fill="#63b8ff" stroke="#63b8ff" points="495.77,-279.98 504.63,-285.8 501.33,-275.73 495.77,-279.98"/>
</a>
</g>
</g>
<!-- Node9 -->
<g id="Node000009" class="node">
<title>Node9</title>
<g id="a_Node000009"><a xlink:href="../../de/dd3/postgresql_2include_2userver_2storages_2postgres_2cluster_8hpp.html" target="_top" xlink:title="Interface for executing queries on a cluster of PostgreSQL servers.">
<polygon fill="white" stroke="#666666" points="672,-184 529,-184 529,-154 672,-154 672,-184"/>
<text text-anchor="start" x="537" y="-172" font-family="Helvetica,sans-Serif" font-size="10.00">userver/storages/postgres</text>
<text text-anchor="middle" x="600.5" y="-161" font-family="Helvetica,sans-Serif" font-size="10.00">/cluster.hpp</text>
</a>
</g>
</g>
<!-- Node8&#45;&gt;Node9 -->
<g id="edge8_Node000008_Node000009" class="edge">
<title>Node8&#45;&gt;Node9</title>
<g id="a_edge8_Node000008_Node000009"><a xlink:title=" ">
<path fill="none" stroke="#63b8ff" d="M505.21,-215.51C526.23,-205.47 551.8,-193.26 571.16,-184.01"/>
<polygon fill="#63b8ff" stroke="#63b8ff" points="503.42,-212.49 495.91,-219.95 506.44,-218.8 503.42,-212.49"/>
</a>
</g>
</g>
<!-- Node8&#45;&gt;Node20 -->
<g id="edge20_Node000008_Node000020" class="edge">
<title>Node8&#45;&gt;Node20</title>
<g id="a_edge20_Node000008_Node000020"><a xlink:title=" ">
<path fill="none" stroke="#63b8ff" d="M465.56,-209.68C464.53,-182.7 462.89,-140.11 462.04,-118.14"/>
<polygon fill="#63b8ff" stroke="#63b8ff" points="462.07,-209.98 465.96,-219.84 469.07,-209.71 462.07,-209.98"/>
</a>
</g>
</g>
<!-- Node10 -->
<g id="Node000010" class="node">
<title>Node10</title>
<g id="a_Node000010"><a xlink:href="../../dc/df7/base__postgres__cache_8hpp.html" target="_top" xlink:title="Caching component for PostgreSQL. See Caching Component for PostgreSQL.">
<polygon fill="white" stroke="#666666" points="787,-118 668,-118 668,-88 787,-88 787,-118"/>
<text text-anchor="start" x="676" y="-106" font-family="Helvetica,sans-Serif" font-size="10.00">userver/cache/base</text>
<text text-anchor="middle" x="727.5" y="-95" font-family="Helvetica,sans-Serif" font-size="10.00">_postgres_cache.hpp</text>
</a>
</g>
</g>
<!-- Node9&#45;&gt;Node10 -->
<g id="edge9_Node000009_Node000010" class="edge">
<title>Node9&#45;&gt;Node10</title>
<g id="a_edge9_Node000009_Node000010"><a xlink:title=" ">
<path fill="none" stroke="#63b8ff" d="M637.45,-149.38C657.33,-139.36 681.43,-127.22 699.69,-118.01"/>
<polygon fill="#63b8ff" stroke="#63b8ff" points="635.73,-146.33 628.37,-153.95 638.88,-152.58 635.73,-146.33"/>
</a>
</g>
</g>
<!-- Node11 -->
<g id="Node000011" class="node">
<title>Node11</title>
<g id="a_Node000011"><a xlink:href="../../d9/d66/easy_8hpp.html" target="_top" xlink:title="Headers of an library for easy prototyping.">
<polygon fill="white" stroke="#666666" points="650,-112.5 551,-112.5 551,-93.5 650,-93.5 650,-112.5"/>
<text text-anchor="middle" x="600.5" y="-100.5" font-family="Helvetica,sans-Serif" font-size="10.00">userver/easy.hpp</text>
</a>
</g>
</g>
<!-- Node9&#45;&gt;Node11 -->
<g id="edge10_Node000009_Node000011" class="edge">
<title>Node9&#45;&gt;Node11</title>
<g id="a_edge10_Node000009_Node000011"><a xlink:title=" ">
<path fill="none" stroke="#63b8ff" d="M600.5,-143.6C600.5,-132.8 600.5,-120.78 600.5,-112.84"/>
<polygon fill="#63b8ff" stroke="#63b8ff" points="597,-143.8 600.5,-153.8 604,-143.8 597,-143.8"/>
</a>
</g>
</g>
<!-- Node9&#45;&gt;Node20 -->
<g id="edge19_Node000009_Node000020" class="edge">
<title>Node9&#45;&gt;Node20</title>
<g id="a_edge19_Node000009_Node000020"><a xlink:title=" ">
<path fill="none" stroke="#63b8ff" d="M560.64,-149.65C538.78,-139.58 512.11,-127.3 491.93,-118.01"/>
<polygon fill="#63b8ff" stroke="#63b8ff" points="559.45,-152.95 570,-153.95 562.38,-146.59 559.45,-152.95"/>
</a>
</g>
</g>
<!-- Node12 -->
<g id="Node000012" class="node">
<title>Node12</title>
<g id="a_Node000012"><a xlink:href="../../db/d04/easy_2samples_20__hello__world_2main_8cpp_source.html" target="_top" xlink:title=" ">
<polygon fill="white" stroke="#666666" points="135,-46.5 0,-46.5 0,-5.5 135,-5.5 135,-46.5"/>
<text text-anchor="start" x="8" y="-34.5" font-family="Helvetica,sans-Serif" font-size="10.00">/data/code/userver</text>
<text text-anchor="start" x="8" y="-23.5" font-family="Helvetica,sans-Serif" font-size="10.00">/libraries/easy/samples</text>
<text text-anchor="middle" x="67.5" y="-12.5" font-family="Helvetica,sans-Serif" font-size="10.00">/0_hello_world/main.cpp</text>
</a>
</g>
</g>
<!-- Node11&#45;&gt;Node12 -->
<g id="edge11_Node000011_Node000012" class="edge">
<title>Node11&#45;&gt;Node12</title>
<g id="a_edge11_Node000011_Node000012"><a xlink:title=" ">
<path fill="none" stroke="#63b8ff" d="M558.99,-91.2C553.47,-90 547.87,-88.89 542.5,-88 367.26,-59.08 318.5,-87.65 144.5,-52 137.34,-50.53 129.91,-48.63 122.62,-46.53"/>
<polygon fill="#63b8ff" stroke="#63b8ff" points="558.23,-94.62 568.76,-93.45 559.8,-87.8 558.23,-94.62"/>
</a>
</g>
</g>
<!-- Node13 -->
<g id="Node000013" class="node">
<title>Node13</title>
<g id="a_Node000013"><a xlink:href="../../de/d8c/easy_2samples_21__hi_2main_8cpp_source.html" target="_top" xlink:title=" ">
<polygon fill="white" stroke="#666666" points="283.5,-46.5 153.5,-46.5 153.5,-5.5 283.5,-5.5 283.5,-46.5"/>
<text text-anchor="start" x="161.5" y="-34.5" font-family="Helvetica,sans-Serif" font-size="10.00">/data/code/userver</text>
<text text-anchor="start" x="161.5" y="-23.5" font-family="Helvetica,sans-Serif" font-size="10.00">/libraries/easy/samples</text>
<text text-anchor="middle" x="218.5" y="-12.5" font-family="Helvetica,sans-Serif" font-size="10.00">/1_hi/main.cpp</text>
</a>
</g>
</g>
<!-- Node11&#45;&gt;Node13 -->
<g id="edge12_Node000011_Node000013" class="edge">
<title>Node11&#45;&gt;Node13</title>
<g id="a_edge12_Node000011_Node000013"><a xlink:title=" ">
<path fill="none" stroke="#63b8ff" d="M557.36,-91.12C552.37,-90 547.33,-88.93 542.5,-88 432.26,-66.81 401.69,-78.07 292.5,-52 286.04,-50.46 279.34,-48.59 272.73,-46.58"/>
<polygon fill="#63b8ff" stroke="#63b8ff" points="556.96,-94.61 567.49,-93.47 558.54,-87.8 556.96,-94.61"/>
</a>
</g>
</g>
<!-- Node14 -->
<g id="Node000014" class="node">
<title>Node14</title>
<g id="a_Node000014"><a xlink:href="../../d0/df2/easy_2samples_22__key__value_2main_8cpp_source.html" target="_top" xlink:title=" ">
<polygon fill="white" stroke="#666666" points="431.5,-46.5 301.5,-46.5 301.5,-5.5 431.5,-5.5 431.5,-46.5"/>
<text text-anchor="start" x="309.5" y="-34.5" font-family="Helvetica,sans-Serif" font-size="10.00">/data/code/userver</text>
<text text-anchor="start" x="309.5" y="-23.5" font-family="Helvetica,sans-Serif" font-size="10.00">/libraries/easy/samples</text>
<text text-anchor="middle" x="366.5" y="-12.5" font-family="Helvetica,sans-Serif" font-size="10.00">/2_key_value/main.cpp</text>
</a>
</g>
</g>
<!-- Node11&#45;&gt;Node14 -->
<g id="edge13_Node000011_Node000014" class="edge">
<title>Node11&#45;&gt;Node14</title>
<g id="a_edge13_Node000011_Node000014"><a xlink:title=" ">
<path fill="none" stroke="#63b8ff" d="M562.43,-90.37C529.96,-80.39 482.08,-65.52 440.5,-52 435.08,-50.24 429.45,-48.38 423.82,-46.51"/>
<polygon fill="#63b8ff" stroke="#63b8ff" points="561.82,-93.84 572.4,-93.43 563.87,-87.15 561.82,-93.84"/>
</a>
</g>
</g>
<!-- Node15 -->
<g id="Node000015" class="node">
<title>Node15</title>
<g id="a_Node000015"><a xlink:href="../../da/d8c/easy_2samples_23__json_2main_8cpp_source.html" target="_top" xlink:title=" ">
<polygon fill="white" stroke="#666666" points="579.5,-46.5 449.5,-46.5 449.5,-5.5 579.5,-5.5 579.5,-46.5"/>
<text text-anchor="start" x="457.5" y="-34.5" font-family="Helvetica,sans-Serif" font-size="10.00">/data/code/userver</text>
<text text-anchor="start" x="457.5" y="-23.5" font-family="Helvetica,sans-Serif" font-size="10.00">/libraries/easy/samples</text>
<text text-anchor="middle" x="514.5" y="-12.5" font-family="Helvetica,sans-Serif" font-size="10.00">/3_json/main.cpp</text>
</a>
</g>
</g>
<!-- Node11&#45;&gt;Node15 -->
<g id="edge14_Node000011_Node000015" class="edge">
<title>Node11&#45;&gt;Node15</title>
<g id="a_edge14_Node000011_Node000015"><a xlink:title=" ">
<path fill="none" stroke="#63b8ff" d="M582.75,-86.52C569.52,-74.98 551.36,-59.15 537.1,-46.71"/>
<polygon fill="#63b8ff" stroke="#63b8ff" points="580.8,-89.46 590.63,-93.4 585.4,-84.19 580.8,-89.46"/>
</a>
</g>
</g>
<!-- Node16 -->
<g id="Node000016" class="node">
<title>Node16</title>
<g id="a_Node000016"><a xlink:href="../../d4/d8e/easy_2samples_24__custom__dependency_2main_8cpp_source.html" target="_top" xlink:title=" ">
<polygon fill="white" stroke="#666666" points="777,-46.5 598,-46.5 598,-5.5 777,-5.5 777,-46.5"/>
<text text-anchor="start" x="606" y="-34.5" font-family="Helvetica,sans-Serif" font-size="10.00">/data/code/userver</text>
<text text-anchor="start" x="606" y="-23.5" font-family="Helvetica,sans-Serif" font-size="10.00">/libraries/easy/samples</text>
<text text-anchor="middle" x="687.5" y="-12.5" font-family="Helvetica,sans-Serif" font-size="10.00">/4_custom_dependency/main.cpp</text>
</a>
</g>
</g>
<!-- Node11&#45;&gt;Node16 -->
<g id="edge15_Node000011_Node000016" class="edge">
<title>Node11&#45;&gt;Node16</title>
<g id="a_edge15_Node000011_Node000016"><a xlink:title=" ">
<path fill="none" stroke="#63b8ff" d="M618.08,-86.85C631.49,-75.29 650.07,-59.26 664.64,-46.71"/>
<polygon fill="#63b8ff" stroke="#63b8ff" points="615.77,-84.22 610.48,-93.4 620.34,-89.52 615.77,-84.22"/>
</a>
</g>
</g>
<!-- Node17 -->
<g id="Node000017" class="node">
<title>Node17</title>
<g id="a_Node000017"><a xlink:href="../../d3/dc4/easy_2samples_25__pg__service__template_2src_2main_8cpp_source.html" target="_top" xlink:title=" ">
<polygon fill="white" stroke="#666666" points="928,-52 795,-52 795,0 928,0 928,-52"/>
<text text-anchor="start" x="803" y="-40" font-family="Helvetica,sans-Serif" font-size="10.00">/data/code/userver</text>
<text text-anchor="start" x="803" y="-29" font-family="Helvetica,sans-Serif" font-size="10.00">/libraries/easy/samples</text>
<text text-anchor="start" x="803" y="-18" font-family="Helvetica,sans-Serif" font-size="10.00">/5_pg_service_template</text>
<text text-anchor="middle" x="861.5" y="-7" font-family="Helvetica,sans-Serif" font-size="10.00">/src/main.cpp</text>
</a>
</g>
</g>
<!-- Node11&#45;&gt;Node17 -->
<g id="edge16_Node000011_Node000017" class="edge">
<title>Node11&#45;&gt;Node17</title>
<g id="a_edge16_Node000011_Node000017"><a xlink:title=" ">
<path fill="none" stroke="#63b8ff" d="M644.78,-90.88C682.6,-81.2 738.35,-66.48 786.5,-52 789.26,-51.17 792.07,-50.31 794.91,-49.42"/>
<polygon fill="#63b8ff" stroke="#63b8ff" points="643.44,-87.61 634.61,-93.48 645.17,-94.4 643.44,-87.61"/>
</a>
</g>
</g>
<!-- Node18 -->
<g id="Node000018" class="node">
<title>Node18</title>
<g id="a_Node000018"><a xlink:href="../../d1/de1/easy_2samples_26__pg__service__template__no__http__with_2src_2main_8cpp_source.html" target="_top" xlink:title=" ">
<polygon fill="white" stroke="#666666" points="1096.5,-52 946.5,-52 946.5,0 1096.5,0 1096.5,-52"/>
<text text-anchor="start" x="954.5" y="-40" font-family="Helvetica,sans-Serif" font-size="10.00">/data/code/userver</text>
<text text-anchor="start" x="954.5" y="-29" font-family="Helvetica,sans-Serif" font-size="10.00">/libraries/easy/samples</text>
<text text-anchor="start" x="954.5" y="-18" font-family="Helvetica,sans-Serif" font-size="10.00">/6_pg_service_template</text>
<text text-anchor="middle" x="1021.5" y="-7" font-family="Helvetica,sans-Serif" font-size="10.00">_no_http_with/src/main.cpp</text>
</a>
</g>
</g>
<!-- Node11&#45;&gt;Node18 -->
<g id="edge17_Node000011_Node000018" class="edge">
<title>Node11&#45;&gt;Node18</title>
<g id="a_edge17_Node000011_Node000018"><a xlink:title=" ">
<path fill="none" stroke="#63b8ff" d="M643.77,-91.19C649.05,-90.03 654.39,-88.93 659.5,-88 782.05,-65.59 815.62,-77.85 937.5,-52 940.33,-51.4 943.2,-50.75 946.09,-50.06"/>
<polygon fill="#63b8ff" stroke="#63b8ff" points="642.73,-87.84 633.76,-93.47 644.29,-94.66 642.73,-87.84"/>
</a>
</g>
</g>
<!-- Node19 -->
<g id="Node000019" class="node">
<title>Node19</title>
<g id="a_Node000019"><a xlink:href="../../dc/d2e/easy_8cpp_source.html" target="_top" xlink:title=" ">
<polygon fill="white" stroke="#666666" points="1221,-46.5 1114,-46.5 1114,-5.5 1221,-5.5 1221,-46.5"/>
<text text-anchor="start" x="1122" y="-34.5" font-family="Helvetica,sans-Serif" font-size="10.00">/data/code/userver</text>
<text text-anchor="start" x="1122" y="-23.5" font-family="Helvetica,sans-Serif" font-size="10.00">/libraries/easy/src</text>
<text text-anchor="middle" x="1167.5" y="-12.5" font-family="Helvetica,sans-Serif" font-size="10.00">/easy.cpp</text>
</a>
</g>
</g>
<!-- Node11&#45;&gt;Node19 -->
<g id="edge18_Node000011_Node000019" class="edge">
<title>Node11&#45;&gt;Node19</title>
<g id="a_edge18_Node000011_Node000019"><a xlink:title=" ">
<path fill="none" stroke="#63b8ff" d="M642.52,-91.2C648.2,-89.99 653.98,-88.87 659.5,-88 855.93,-56.95 911.96,-97.71 1105.5,-52 1111.49,-50.59 1117.65,-48.69 1123.66,-46.56"/>
<polygon fill="#63b8ff" stroke="#63b8ff" points="641.46,-87.86 632.48,-93.48 643,-94.68 641.46,-87.86"/>
</a>
</g>
</g>
<!-- Node21&#45;&gt;Node9 -->
<g id="edge23_Node000021_Node000009" class="edge">
<title>Node21&#45;&gt;Node9</title>
<g id="a_edge23_Node000021_Node000009"><a xlink:title=" ">
<path fill="none" stroke="#63b8ff" d="M617.54,-210.39C613.83,-201.59 609.72,-191.86 606.48,-184.16"/>
<polygon fill="#63b8ff" stroke="#63b8ff" points="614.4,-211.94 621.51,-219.8 620.85,-209.22 614.4,-211.94"/>
</a>
</g>
</g>
<!-- Node22&#45;&gt;Node3 -->
<g id="edge28_Node000022_Node000003" class="edge">
<title>Node22&#45;&gt;Node3</title>
<g id="a_edge28_Node000022_Node000003"><a xlink:title=" ">
<path fill="none" stroke="#63b8ff" d="M327.54,-622.34C350.53,-610.77 379.58,-596.14 400.62,-585.54"/>
<polygon fill="#63b8ff" stroke="#63b8ff" points="325.78,-619.31 318.43,-626.94 328.93,-625.56 325.78,-619.31"/>
</a>
</g>
</g>
<!-- Node23&#45;&gt;Node3 -->
<g id="edge30_Node000023_Node000003" class="edge">
<title>Node23&#45;&gt;Node3</title>
<g id="a_edge30_Node000023_Node000003"><a xlink:title=" ">
<path fill="none" stroke="#63b8ff" d="M529.46,-622.34C506.47,-610.77 477.42,-596.14 456.38,-585.54"/>
<polygon fill="#63b8ff" stroke="#63b8ff" points="528.07,-625.56 538.57,-626.94 531.22,-619.31 528.07,-625.56"/>
</a>
</g>
</g>
<!-- Node25&#45;&gt;Node3 -->
<g id="edge33_Node000025_Node000003" class="edge">
<title>Node25&#45;&gt;Node3</title>
<g id="a_edge33_Node000025_Node000003"><a xlink:title=" ">
<path fill="none" stroke="#63b8ff" d="M318.51,-688.98C336.52,-681.02 356.11,-670.37 371.5,-657 395.06,-636.52 413.05,-604.09 422.07,-585.61"/>
<polygon fill="#63b8ff" stroke="#63b8ff" points="317.1,-685.78 309.26,-692.91 319.83,-692.22 317.1,-685.78"/>
</a>
</g>
</g>
<!-- Node26&#45;&gt;Node3 -->
<g id="edge35_Node000026_Node000003" class="edge">
<title>Node26&#45;&gt;Node3</title>
<g id="a_edge35_Node000026_Node000003"><a xlink:title=" ">
<path fill="none" stroke="#63b8ff" d="M428.5,-682.48C428.5,-654.14 428.5,-608.46 428.5,-585.55"/>
<polygon fill="#63b8ff" stroke="#63b8ff" points="425,-682.76 428.5,-692.76 432,-682.76 425,-682.76"/>
</a>
</g>
</g>
<!-- Node27&#45;&gt;Node23 -->
<g id="edge42_Node000027_Node000023" class="edge">
<title>Node27&#45;&gt;Node23</title>
<g id="a_edge42_Node000027_Node000023"><a xlink:title=" ">
<path fill="none" stroke="#63b8ff" d="M635.72,-687.3C620.5,-677.56 602.47,-666.02 588.63,-657.16"/>
<polygon fill="#63b8ff" stroke="#63b8ff" points="634,-690.35 644.31,-692.8 637.77,-684.46 634,-690.35"/>
</a>
</g>
</g>
<!-- Node28 -->
<g id="Node000028" class="node">
<title>Node28</title>
<g id="a_Node000028"><a xlink:href="../../d6/db8/chrono_8hpp.html" target="_top" xlink:title="Timestamp (std::chrono::*) I/O support.">
<polygon fill="white" stroke="#666666" points="799,-657 656,-657 656,-627 799,-627 799,-657"/>
<text text-anchor="start" x="664" y="-645" font-family="Helvetica,sans-Serif" font-size="10.00">userver/storages/postgres</text>
<text text-anchor="middle" x="727.5" y="-634" font-family="Helvetica,sans-Serif" font-size="10.00">/io/chrono.hpp</text>
</a>
</g>
</g>
<!-- Node27&#45;&gt;Node28 -->
<g id="edge38_Node000027_Node000028" class="edge">
<title>Node27&#45;&gt;Node28</title>
<g id="a_edge38_Node000027_Node000028"><a xlink:title=" ">
<path fill="none" stroke="#63b8ff" d="M687.12,-685.37C695.99,-676.06 706.11,-665.44 714,-657.16"/>
<polygon fill="#63b8ff" stroke="#63b8ff" points="684.4,-683.14 680.04,-692.8 689.47,-687.97 684.4,-683.14"/>
</a>
</g>
</g>
<!-- Node28&#45;&gt;Node3 -->
<g id="edge41_Node000028_Node000003" class="edge">
<title>Node28&#45;&gt;Node3</title>
<g id="a_edge41_Node000028_Node000003"><a xlink:title=" ">
<path fill="none" stroke="#63b8ff" d="M657.01,-624.62C605.91,-612.74 537.53,-596.84 488.92,-585.54"/>
<polygon fill="#63b8ff" stroke="#63b8ff" points="656.46,-628.08 666.99,-626.94 658.05,-621.26 656.46,-628.08"/>
</a>
</g>
</g>
<!-- Node28&#45;&gt;Node10 -->
<g id="edge39_Node000028_Node000010" class="edge">
<title>Node28&#45;&gt;Node10</title>
<g id="a_edge39_Node000028_Node000010"><a xlink:title=" ">
<path fill="none" stroke="#63b8ff" d="M727.5,-616.92C727.5,-588.85 727.5,-541.06 727.5,-500 727.5,-500 727.5,-500 727.5,-234 727.5,-191.8 727.5,-141.88 727.5,-118.04"/>
<polygon fill="#63b8ff" stroke="#63b8ff" points="724,-616.99 727.5,-626.99 731,-616.99 724,-616.99"/>
</a>
</g>
</g>
<!-- Node29 -->
<g id="Node000029" class="node">
<title>Node29</title>
<g id="a_Node000029"><a xlink:href="../../de/da6/time__point__tz_8hpp_source.html" target="_top" xlink:title=" ">
<polygon fill="white" stroke="#666666" points="699.5,-591 553.5,-591 553.5,-550 699.5,-550 699.5,-591"/>
<text text-anchor="start" x="561.5" y="-579" font-family="Helvetica,sans-Serif" font-size="10.00">userver/chaotic/io</text>
<text text-anchor="start" x="561.5" y="-568" font-family="Helvetica,sans-Serif" font-size="10.00">/userver/storages/postgres</text>
<text text-anchor="middle" x="626.5" y="-557" font-family="Helvetica,sans-Serif" font-size="10.00">/time_point_tz.hpp</text>
</a>
</g>
</g>
<!-- Node28&#45;&gt;Node29 -->
<g id="edge40_Node000028_Node000029" class="edge">
<title>Node28&#45;&gt;Node29</title>
<g id="a_edge40_Node000028_Node000029"><a xlink:title=" ">
<path fill="none" stroke="#63b8ff" d="M698.5,-621.04C684.82,-611.63 668.55,-600.44 654.94,-591.07"/>
<polygon fill="#63b8ff" stroke="#63b8ff" points="696.84,-624.15 707.06,-626.94 700.81,-618.38 696.84,-624.15"/>
</a>
</g>
</g>
<!-- Node30&#45;&gt;Node8 -->
<g id="edge44_Node000030_Node000008" class="edge">
<title>Node30&#45;&gt;Node8</title>
<g id="a_edge44_Node000030_Node000008"><a xlink:title=" ">
<path fill="none" stroke="#63b8ff" d="M809,-476.21C772.33,-434.22 686.18,-341.34 596.5,-286 571.39,-270.51 540.69,-258.43 515.43,-250.02"/>
<polygon fill="#63b8ff" stroke="#63b8ff" points="806.47,-478.64 815.66,-483.91 811.76,-474.06 806.47,-478.64"/>
</a>
</g>
</g>
</g>
</svg>
