<?xml version="1.0" encoding="UTF-8" standalone="no"?>
<!DOCTYPE svg PUBLIC "-//W3C//DTD SVG 1.1//EN"
 "http://www.w3.org/Graphics/SVG/1.1/DTD/svg11.dtd">
<!-- Generated by graphviz version 2.43.0 (0)
 -->
<!-- Title: userver/testsuite/periodic_task_control.hpp Pages: 1 -->
<svg width="1097pt" height="588pt"
 viewBox="0.00 0.00 1096.50 588.00" xmlns="http://www.w3.org/2000/svg" xmlns:xlink="http://www.w3.org/1999/xlink">
<g id="graph0" class="graph" transform="scale(1 1) rotate(0) translate(4 584)">
<title>userver/testsuite/periodic_task_control.hpp</title>
<!-- Node1 -->
<g id="Node000001" class="node">
<title>Node1</title>
<g id="a_Node000001"><a xlink:title="Periodic task control interface for testsuite.">
<polygon fill="#999999" stroke="#666666" points="598,-580 457,-580 457,-550 598,-550 598,-580"/>
<text text-anchor="start" x="465" y="-568" font-family="Helvetica,sans-Serif" font-size="10.00">userver/testsuite/periodic</text>
<text text-anchor="middle" x="527.5" y="-557" font-family="Helvetica,sans-Serif" font-size="10.00">_task_control.hpp</text>
</a>
</g>
</g>
<!-- Node2 -->
<g id="Node000002" class="node">
<title>Node2</title>
<g id="a_Node000002"><a xlink:href="../../d3/d37/testsuite__support_8hpp.html" target="_top" xlink:title="Testsuite support component.">
<polygon fill="white" stroke="#666666" points="525,-514 380,-514 380,-484 525,-484 525,-514"/>
<text text-anchor="start" x="388" y="-502" font-family="Helvetica,sans-Serif" font-size="10.00">userver/testsuite/testsuite</text>
<text text-anchor="middle" x="452.5" y="-491" font-family="Helvetica,sans-Serif" font-size="10.00">_support.hpp</text>
</a>
</g>
</g>
<!-- Node1&#45;&gt;Node2 -->
<g id="edge1_Node000001_Node000002" class="edge">
<title>Node1&#45;&gt;Node2</title>
<g id="a_edge1_Node000001_Node000002"><a xlink:title=" ">
<path fill="none" stroke="#63b8ff" d="M503.13,-543.2C491.99,-533.7 479.09,-522.69 469.1,-514.16"/>
<polygon fill="#63b8ff" stroke="#63b8ff" points="500.98,-545.97 510.86,-549.8 505.52,-540.64 500.98,-545.97"/>
</a>
</g>
</g>
<!-- Node3 -->
<g id="Node000003" class="node">
<title>Node3</title>
<g id="a_Node000003"><a xlink:href="../../dd/d64/periodic__task_8hpp.html" target="_top" xlink:title="Task that periodically runs a user callback. Callback is started after the previous callback executio...">
<polygon fill="white" stroke="#666666" points="662,-514 543,-514 543,-484 662,-484 662,-514"/>
<text text-anchor="start" x="551" y="-502" font-family="Helvetica,sans-Serif" font-size="10.00">userver/utils/periodic</text>
<text text-anchor="middle" x="602.5" y="-491" font-family="Helvetica,sans-Serif" font-size="10.00">_task.hpp</text>
</a>
</g>
</g>
<!-- Node1&#45;&gt;Node3 -->
<g id="edge2_Node000001_Node000003" class="edge">
<title>Node1&#45;&gt;Node3</title>
<g id="a_edge2_Node000001_Node000003"><a xlink:title=" ">
<path fill="none" stroke="#63b8ff" d="M551.87,-543.2C563.01,-533.7 575.91,-522.69 585.9,-514.16"/>
<polygon fill="#63b8ff" stroke="#63b8ff" points="549.48,-540.64 544.14,-549.8 554.02,-545.97 549.48,-540.64"/>
</a>
</g>
</g>
<!-- Node4 -->
<g id="Node000004" class="node">
<title>Node4</title>
<g id="a_Node000004"><a xlink:href="../../d3/db8/core_2include_2userver_2clients_2http_2client_8hpp.html" target="_top" xlink:title="HTTP client that returns a HTTP request builder from CreateRequest().">
<polygon fill="white" stroke="#666666" points="416,-442.5 305,-442.5 305,-412.5 416,-412.5 416,-442.5"/>
<text text-anchor="start" x="313" y="-430.5" font-family="Helvetica,sans-Serif" font-size="10.00">userver/clients/http</text>
<text text-anchor="middle" x="360.5" y="-419.5" font-family="Helvetica,sans-Serif" font-size="10.00">/client.hpp</text>
</a>
</g>
</g>
<!-- Node3&#45;&gt;Node4 -->
<g id="edge3_Node000003_Node000004" class="edge">
<title>Node3&#45;&gt;Node4</title>
<g id="a_edge3_Node000003_Node000004"><a xlink:title=" ">
<path fill="none" stroke="#63b8ff" d="M543.89,-481.17C502.71,-469.34 448.25,-453.7 409.4,-442.54"/>
<polygon fill="#63b8ff" stroke="#63b8ff" points="542.95,-484.54 553.53,-483.94 544.88,-477.81 542.95,-484.54"/>
</a>
</g>
</g>
<!-- Node6 -->
<g id="Node000006" class="node">
<title>Node6</title>
<g id="a_Node000006"><a xlink:href="../../d9/d28/linear_8hpp_source.html" target="_top" xlink:title=" ">
<polygon fill="white" stroke="#666666" points="532.5,-371 422.5,-371 422.5,-330 532.5,-330 532.5,-371"/>
<text text-anchor="start" x="430.5" y="-359" font-family="Helvetica,sans-Serif" font-size="10.00">userver/congestion</text>
<text text-anchor="start" x="430.5" y="-348" font-family="Helvetica,sans-Serif" font-size="10.00">_control/controllers</text>
<text text-anchor="middle" x="477.5" y="-337" font-family="Helvetica,sans-Serif" font-size="10.00">/linear.hpp</text>
</a>
</g>
</g>
<!-- Node3&#45;&gt;Node6 -->
<g id="edge5_Node000003_Node000006" class="edge">
<title>Node3&#45;&gt;Node6</title>
<g id="a_edge5_Node000003_Node000006"><a xlink:title=" ">
<path fill="none" stroke="#63b8ff" d="M540.25,-480.96C511.82,-471.8 482.66,-459.95 474.5,-448 459,-425.3 464.59,-392.08 470.61,-371.14"/>
<polygon fill="#63b8ff" stroke="#63b8ff" points="539.24,-484.31 549.83,-483.96 541.33,-477.63 539.24,-484.31"/>
</a>
</g>
</g>
<!-- Node24 -->
<g id="Node000024" class="node">
<title>Node24</title>
<g id="a_Node000024"><a xlink:href="../../d2/d7f/v2_8hpp_source.html" target="_top" xlink:title=" ">
<polygon fill="white" stroke="#666666" points="593.5,-448 483.5,-448 483.5,-407 593.5,-407 593.5,-448"/>
<text text-anchor="start" x="491.5" y="-436" font-family="Helvetica,sans-Serif" font-size="10.00">userver/congestion</text>
<text text-anchor="start" x="491.5" y="-425" font-family="Helvetica,sans-Serif" font-size="10.00">_control/controllers</text>
<text text-anchor="middle" x="538.5" y="-414" font-family="Helvetica,sans-Serif" font-size="10.00">/v2.hpp</text>
</a>
</g>
</g>
<!-- Node3&#45;&gt;Node24 -->
<g id="edge33_Node000003_Node000024" class="edge">
<title>Node3&#45;&gt;Node24</title>
<g id="a_edge33_Node000003_Node000024"><a xlink:title=" ">
<path fill="none" stroke="#63b8ff" d="M582.62,-476.41C574.28,-467.36 564.65,-456.9 556.52,-448.07"/>
<polygon fill="#63b8ff" stroke="#63b8ff" points="580.2,-478.95 589.55,-483.94 585.35,-474.21 580.2,-478.95"/>
</a>
</g>
</g>
<!-- Node25 -->
<g id="Node000025" class="node">
<title>Node25</title>
<g id="a_Node000025"><a xlink:href="../../d6/dc2/fs__cache__client_8hpp.html" target="_top" xlink:title="@copybref fs::FsCacheClient">
<polygon fill="white" stroke="#666666" points="723,-442.5 612,-442.5 612,-412.5 723,-412.5 723,-442.5"/>
<text text-anchor="start" x="620" y="-430.5" font-family="Helvetica,sans-Serif" font-size="10.00">userver/fs/fs_cache</text>
<text text-anchor="middle" x="667.5" y="-419.5" font-family="Helvetica,sans-Serif" font-size="10.00">_client.hpp</text>
</a>
</g>
</g>
<!-- Node3&#45;&gt;Node25 -->
<g id="edge35_Node000003_Node000025" class="edge">
<title>Node3&#45;&gt;Node25</title>
<g id="a_edge35_Node000003_Node000025"><a xlink:title=" ">
<path fill="none" stroke="#63b8ff" d="M622.75,-476.35C633.06,-465.33 645.3,-452.24 654.37,-442.54"/>
<polygon fill="#63b8ff" stroke="#63b8ff" points="619.93,-474.24 615.65,-483.94 625.04,-479.02 619.93,-474.24"/>
</a>
</g>
</g>
<!-- Node28 -->
<g id="Node000028" class="node">
<title>Node28</title>
<g id="a_Node000028"><a xlink:href="../../dc/d2e/core_2include_2userver_2logging_2component_8hpp.html" target="_top" xlink:title="Logging component">
<polygon fill="white" stroke="#666666" points="912,-437 741,-437 741,-418 912,-418 912,-437"/>
<text text-anchor="middle" x="826.5" y="-425" font-family="Helvetica,sans-Serif" font-size="10.00">userver/logging/component.hpp</text>
</a>
</g>
</g>
<!-- Node3&#45;&gt;Node28 -->
<g id="edge39_Node000003_Node000028" class="edge">
<title>Node3&#45;&gt;Node28</title>
<g id="a_edge39_Node000003_Node000028"><a xlink:title=" ">
<path fill="none" stroke="#63b8ff" d="M657.41,-480.96C702.25,-467.05 763.75,-447.97 798.89,-437.07"/>
<polygon fill="#63b8ff" stroke="#63b8ff" points="656.34,-477.63 647.83,-483.94 658.42,-484.32 656.34,-477.63"/>
</a>
</g>
</g>
<!-- Node29 -->
<g id="Node000029" class="node">
<title>Node29</title>
<g id="a_Node000029"><a xlink:href="../../db/d6a/consumer__base_8hpp.html" target="_top" xlink:title="Base class for your consumers.">
<polygon fill="white" stroke="#666666" points="1088.5,-442.5 930.5,-442.5 930.5,-412.5 1088.5,-412.5 1088.5,-442.5"/>
<text text-anchor="start" x="938.5" y="-430.5" font-family="Helvetica,sans-Serif" font-size="10.00">userver/urabbitmq/consumer</text>
<text text-anchor="middle" x="1009.5" y="-419.5" font-family="Helvetica,sans-Serif" font-size="10.00">_base.hpp</text>
</a>
</g>
</g>
<!-- Node3&#45;&gt;Node29 -->
<g id="edge40_Node000003_Node000029" class="edge">
<title>Node3&#45;&gt;Node29</title>
<g id="a_edge40_Node000003_Node000029"><a xlink:title=" ">
<path fill="none" stroke="#63b8ff" d="M672.17,-488.36C736.94,-479.1 836.01,-464.15 921.5,-448 930.26,-446.34 939.49,-444.46 948.53,-442.53"/>
<polygon fill="#63b8ff" stroke="#63b8ff" points="671.48,-484.92 662.07,-489.8 672.47,-491.85 671.48,-484.92"/>
</a>
</g>
</g>
<!-- Node5 -->
<g id="Node000005" class="node">
<title>Node5</title>
<g id="a_Node000005"><a xlink:href="../../d7/d98/core_2include_2userver_2clients_2http_2component_8hpp.html" target="_top" xlink:title="Component that manages clients::http::Client.">
<polygon fill="white" stroke="#666666" points="404,-365.5 293,-365.5 293,-335.5 404,-335.5 404,-365.5"/>
<text text-anchor="start" x="301" y="-353.5" font-family="Helvetica,sans-Serif" font-size="10.00">userver/clients/http</text>
<text text-anchor="middle" x="348.5" y="-342.5" font-family="Helvetica,sans-Serif" font-size="10.00">/component.hpp</text>
</a>
</g>
</g>
<!-- Node4&#45;&gt;Node5 -->
<g id="edge4_Node000004_Node000005" class="edge">
<title>Node4&#45;&gt;Node5</title>
<g id="a_edge4_Node000004_Node000005"><a xlink:title=" ">
<path fill="none" stroke="#63b8ff" d="M356.65,-402.41C354.7,-390.24 352.4,-375.9 350.75,-365.54"/>
<polygon fill="#63b8ff" stroke="#63b8ff" points="353.21,-403.07 358.24,-412.39 360.12,-401.97 353.21,-403.07"/>
</a>
</g>
</g>
<!-- Node7 -->
<g id="Node000007" class="node">
<title>Node7</title>
<g id="a_Node000007"><a xlink:href="../../d8/d6c/pool__config_8hpp.html" target="_top" xlink:title="MongoDB connection pool configuration.">
<polygon fill="white" stroke="#666666" points="231,-294 96,-294 96,-264 231,-264 231,-294"/>
<text text-anchor="start" x="104" y="-282" font-family="Helvetica,sans-Serif" font-size="10.00">userver/storages/mongo</text>
<text text-anchor="middle" x="163.5" y="-271" font-family="Helvetica,sans-Serif" font-size="10.00">/pool_config.hpp</text>
</a>
</g>
</g>
<!-- Node6&#45;&gt;Node7 -->
<g id="edge6_Node000006_Node000007" class="edge">
<title>Node6&#45;&gt;Node7</title>
<g id="a_edge6_Node000006_Node000007"><a xlink:title=" ">
<path fill="none" stroke="#63b8ff" d="M412.8,-330.08C412.7,-330.05 412.6,-330.02 412.5,-330 351.65,-314.8 281.54,-301.05 231.25,-291.84"/>
<polygon fill="#63b8ff" stroke="#63b8ff" points="411.72,-333.41 422.28,-332.55 413.49,-326.64 411.72,-333.41"/>
</a>
</g>
</g>
<!-- Node12 -->
<g id="Node000012" class="node">
<title>Node12</title>
<g id="a_Node000012"><a xlink:href="../../d7/d18/postgresql_2include_2userver_2storages_2postgres_2options_8hpp.html" target="_top" xlink:title="Options.">
<polygon fill="white" stroke="#666666" points="668,-294 525,-294 525,-264 668,-264 668,-294"/>
<text text-anchor="start" x="533" y="-282" font-family="Helvetica,sans-Serif" font-size="10.00">userver/storages/postgres</text>
<text text-anchor="middle" x="596.5" y="-271" font-family="Helvetica,sans-Serif" font-size="10.00">/options.hpp</text>
</a>
</g>
</g>
<!-- Node6&#45;&gt;Node12 -->
<g id="edge13_Node000006_Node000012" class="edge">
<title>Node6&#45;&gt;Node12</title>
<g id="a_edge13_Node000006_Node000012"><a xlink:title=" ">
<path fill="none" stroke="#63b8ff" d="M519.93,-324.72C537.52,-314.44 557.29,-302.9 572.34,-294.11"/>
<polygon fill="#63b8ff" stroke="#63b8ff" points="517.83,-321.89 510.96,-329.96 521.37,-327.93 517.83,-321.89"/>
</a>
</g>
</g>
<!-- Node23 -->
<g id="Node000023" class="node">
<title>Node23</title>
<g id="a_Node000023"><a xlink:href="../../d1/db6/postgresql_2include_2userver_2storages_2postgres_2statistics_8hpp.html" target="_top" xlink:title="Statistics helpers.">
<polygon fill="white" stroke="#666666" points="467,-294 324,-294 324,-264 467,-264 467,-294"/>
<text text-anchor="start" x="332" y="-282" font-family="Helvetica,sans-Serif" font-size="10.00">userver/storages/postgres</text>
<text text-anchor="middle" x="395.5" y="-271" font-family="Helvetica,sans-Serif" font-size="10.00">/statistics.hpp</text>
</a>
</g>
</g>
<!-- Node6&#45;&gt;Node23 -->
<g id="edge31_Node000006_Node000023" class="edge">
<title>Node6&#45;&gt;Node23</title>
<g id="a_edge31_Node000006_Node000023"><a xlink:title=" ">
<path fill="none" stroke="#63b8ff" d="M446.38,-323.12C434.71,-313.23 421.91,-302.38 412.06,-294.04"/>
<polygon fill="#63b8ff" stroke="#63b8ff" points="444.33,-325.97 454.22,-329.77 448.86,-320.63 444.33,-325.97"/>
</a>
</g>
</g>
<!-- Node8 -->
<g id="Node000008" class="node">
<title>Node8</title>
<g id="a_Node000008"><a xlink:href="../../d2/de5/multi__mongo_8hpp_source.html" target="_top" xlink:title=" ">
<polygon fill="white" stroke="#666666" points="135,-162 0,-162 0,-132 135,-132 135,-162"/>
<text text-anchor="start" x="8" y="-150" font-family="Helvetica,sans-Serif" font-size="10.00">userver/storages/mongo</text>
<text text-anchor="middle" x="67.5" y="-139" font-family="Helvetica,sans-Serif" font-size="10.00">/multi_mongo.hpp</text>
</a>
</g>
</g>
<!-- Node7&#45;&gt;Node8 -->
<g id="edge7_Node000007_Node000008" class="edge">
<title>Node7&#45;&gt;Node8</title>
<g id="a_edge7_Node000007_Node000008"><a xlink:title=" ">
<path fill="none" stroke="#63b8ff" d="M121.8,-258.84C108.76,-250.98 95.45,-240.7 86.5,-228 72.44,-208.05 68.68,-179.06 67.74,-162"/>
<polygon fill="#63b8ff" stroke="#63b8ff" points="120.3,-262.02 130.73,-263.9 123.75,-255.92 120.3,-262.02"/>
</a>
</g>
</g>
<!-- Node10 -->
<g id="Node000010" class="node">
<title>Node10</title>
<g id="a_Node000010"><a xlink:href="../../d8/d62/mongo_2include_2userver_2storages_2mongo_2pool_8hpp.html" target="_top" xlink:title="MongoDB client pool.">
<polygon fill="white" stroke="#666666" points="231,-228 96,-228 96,-198 231,-198 231,-228"/>
<text text-anchor="start" x="104" y="-216" font-family="Helvetica,sans-Serif" font-size="10.00">userver/storages/mongo</text>
<text text-anchor="middle" x="163.5" y="-205" font-family="Helvetica,sans-Serif" font-size="10.00">/pool.hpp</text>
</a>
</g>
</g>
<!-- Node7&#45;&gt;Node10 -->
<g id="edge9_Node000007_Node000010" class="edge">
<title>Node7&#45;&gt;Node10</title>
<g id="a_edge9_Node000007_Node000010"><a xlink:title=" ">
<path fill="none" stroke="#63b8ff" d="M163.5,-253.54C163.5,-244.96 163.5,-235.61 163.5,-228.16"/>
<polygon fill="#63b8ff" stroke="#63b8ff" points="160,-253.8 163.5,-263.8 167,-253.8 160,-253.8"/>
</a>
</g>
</g>
<!-- Node9 -->
<g id="Node000009" class="node">
<title>Node9</title>
<g id="a_Node000009"><a xlink:href="../../d1/dd7/mongo_2include_2userver_2storages_2mongo_2component_8hpp.html" target="_top" xlink:title="MongoDB client component.">
<polygon fill="white" stroke="#666666" points="183,-96 48,-96 48,-66 183,-66 183,-96"/>
<text text-anchor="start" x="56" y="-84" font-family="Helvetica,sans-Serif" font-size="10.00">userver/storages/mongo</text>
<text text-anchor="middle" x="115.5" y="-73" font-family="Helvetica,sans-Serif" font-size="10.00">/component.hpp</text>
</a>
</g>
</g>
<!-- Node8&#45;&gt;Node9 -->
<g id="edge8_Node000008_Node000009" class="edge">
<title>Node8&#45;&gt;Node9</title>
<g id="a_edge8_Node000008_Node000009"><a xlink:title=" ">
<path fill="none" stroke="#63b8ff" d="M84.36,-123.53C91.18,-114.43 98.85,-104.19 104.88,-96.16"/>
<polygon fill="#63b8ff" stroke="#63b8ff" points="81.35,-121.7 78.15,-131.8 86.95,-125.9 81.35,-121.7"/>
</a>
</g>
</g>
<!-- Node10&#45;&gt;Node8 -->
<g id="edge12_Node000010_Node000008" class="edge">
<title>Node10&#45;&gt;Node8</title>
<g id="a_edge12_Node000010_Node000008"><a xlink:title=" ">
<path fill="none" stroke="#63b8ff" d="M133.54,-192.03C119.01,-182.34 101.91,-170.94 88.75,-162.16"/>
<polygon fill="#63b8ff" stroke="#63b8ff" points="131.93,-195.16 142.19,-197.8 135.82,-189.34 131.93,-195.16"/>
</a>
</g>
</g>
<!-- Node10&#45;&gt;Node9 -->
<g id="edge11_Node000010_Node000009" class="edge">
<title>Node10&#45;&gt;Node9</title>
<g id="a_edge11_Node000010_Node000009"><a xlink:title=" ">
<path fill="none" stroke="#63b8ff" d="M159.15,-187.56C155.85,-171.45 150.66,-150.06 143.5,-132 138.51,-119.42 130.92,-106.1 124.9,-96.37"/>
<polygon fill="#63b8ff" stroke="#63b8ff" points="155.79,-188.62 161.13,-197.77 162.66,-187.29 155.79,-188.62"/>
</a>
</g>
</g>
<!-- Node11 -->
<g id="Node000011" class="node">
<title>Node11</title>
<g id="a_Node000011"><a xlink:href="../../d2/d86/mongo_8hpp.html" target="_top" xlink:title="Include&#45;all header for MongoDB client.">
<polygon fill="white" stroke="#666666" points="347.5,-156.5 191.5,-156.5 191.5,-137.5 347.5,-137.5 347.5,-156.5"/>
<text text-anchor="middle" x="269.5" y="-144.5" font-family="Helvetica,sans-Serif" font-size="10.00">userver/storages/mongo.hpp</text>
</a>
</g>
</g>
<!-- Node10&#45;&gt;Node11 -->
<g id="edge10_Node000010_Node000011" class="edge">
<title>Node10&#45;&gt;Node11</title>
<g id="a_edge10_Node000010_Node000011"><a xlink:title=" ">
<path fill="none" stroke="#63b8ff" d="M195.55,-192.65C215.51,-180.6 240.2,-165.69 255.39,-156.52"/>
<polygon fill="#63b8ff" stroke="#63b8ff" points="193.51,-189.79 186.76,-197.95 197.13,-195.78 193.51,-189.79"/>
</a>
</g>
</g>
<!-- Node13 -->
<g id="Node000013" class="node">
<title>Node13</title>
<g id="a_Node000013"><a xlink:href="../../de/dd3/postgresql_2include_2userver_2storages_2postgres_2cluster_8hpp.html" target="_top" xlink:title="Interface for executing queries on a cluster of PostgreSQL servers.">
<polygon fill="white" stroke="#666666" points="689,-96 546,-96 546,-66 689,-66 689,-96"/>
<text text-anchor="start" x="554" y="-84" font-family="Helvetica,sans-Serif" font-size="10.00">userver/storages/postgres</text>
<text text-anchor="middle" x="617.5" y="-73" font-family="Helvetica,sans-Serif" font-size="10.00">/cluster.hpp</text>
</a>
</g>
</g>
<!-- Node12&#45;&gt;Node13 -->
<g id="edge14_Node000012_Node000013" class="edge">
<title>Node12&#45;&gt;Node13</title>
<g id="a_edge14_Node000012_Node000013"><a xlink:title=" ">
<path fill="none" stroke="#63b8ff" d="M599.08,-253.89C603.51,-212.58 612.41,-129.48 615.98,-96.23"/>
<polygon fill="#63b8ff" stroke="#63b8ff" points="595.6,-253.59 598.01,-263.9 602.56,-254.33 595.6,-253.59"/>
</a>
</g>
</g>
<!-- Node16 -->
<g id="Node000016" class="node">
<title>Node16</title>
<g id="a_Node000016"><a xlink:href="../../df/da2/database_8hpp.html" target="_top" xlink:title="Object for accessing PostgreSQL database instance (sharded or not)">
<polygon fill="white" stroke="#666666" points="547,-162 404,-162 404,-132 547,-132 547,-162"/>
<text text-anchor="start" x="412" y="-150" font-family="Helvetica,sans-Serif" font-size="10.00">userver/storages/postgres</text>
<text text-anchor="middle" x="475.5" y="-139" font-family="Helvetica,sans-Serif" font-size="10.00">/database.hpp</text>
</a>
</g>
</g>
<!-- Node12&#45;&gt;Node16 -->
<g id="edge17_Node000012_Node000016" class="edge">
<title>Node12&#45;&gt;Node16</title>
<g id="a_edge17_Node000012_Node000016"><a xlink:title=" ">
<path fill="none" stroke="#63b8ff" d="M514.76,-273.35C483.58,-267.09 450.89,-254.14 431.5,-228 415.63,-206.61 439.54,-178.84 457.85,-162.28"/>
<polygon fill="#63b8ff" stroke="#63b8ff" points="514.36,-276.83 524.82,-275.15 515.59,-269.94 514.36,-276.83"/>
</a>
</g>
</g>
<!-- Node18 -->
<g id="Node000018" class="node">
<title>Node18</title>
<g id="a_Node000018"><a xlink:href="../../d4/dd3/non__transaction_8hpp_source.html" target="_top" xlink:title=" ">
<polygon fill="white" stroke="#666666" points="590,-228 441,-228 441,-198 590,-198 590,-228"/>
<text text-anchor="start" x="449" y="-216" font-family="Helvetica,sans-Serif" font-size="10.00">userver/storages/postgres</text>
<text text-anchor="middle" x="515.5" y="-205" font-family="Helvetica,sans-Serif" font-size="10.00">/detail/non_transaction.hpp</text>
</a>
</g>
</g>
<!-- Node12&#45;&gt;Node18 -->
<g id="edge22_Node000012_Node000018" class="edge">
<title>Node12&#45;&gt;Node18</title>
<g id="a_edge22_Node000012_Node000018"><a xlink:title=" ">
<path fill="none" stroke="#63b8ff" d="M570.53,-257.48C558.42,-247.91 544.32,-236.77 533.43,-228.16"/>
<polygon fill="#63b8ff" stroke="#63b8ff" points="568.51,-260.34 578.52,-263.8 572.85,-254.85 568.51,-260.34"/>
</a>
</g>
</g>
<!-- Node19 -->
<g id="Node000019" class="node">
<title>Node19</title>
<g id="a_Node000019"><a xlink:href="../../d9/d02/postgresql_2include_2userver_2storages_2postgres_2dist__lock__strategy_8hpp.html" target="_top" xlink:title="Postgres distributed locking strategy.">
<polygon fill="white" stroke="#666666" points="989,-228 846,-228 846,-198 989,-198 989,-228"/>
<text text-anchor="start" x="854" y="-216" font-family="Helvetica,sans-Serif" font-size="10.00">userver/storages/postgres</text>
<text text-anchor="middle" x="917.5" y="-205" font-family="Helvetica,sans-Serif" font-size="10.00">/dist_lock_strategy.hpp</text>
</a>
</g>
</g>
<!-- Node12&#45;&gt;Node19 -->
<g id="edge24_Node000012_Node000019" class="edge">
<title>Node12&#45;&gt;Node19</title>
<g id="a_edge24_Node000012_Node000019"><a xlink:title=" ">
<path fill="none" stroke="#63b8ff" d="M676.87,-261.98C729.27,-251.53 796.98,-238.03 847.22,-228.01"/>
<polygon fill="#63b8ff" stroke="#63b8ff" points="676.07,-258.57 666.94,-263.95 677.44,-265.43 676.07,-258.57"/>
</a>
</g>
</g>
<!-- Node21 -->
<g id="Node000021" class="node">
<title>Node21</title>
<g id="a_Node000021"><a xlink:href="../../d2/de3/portal_8hpp_source.html" target="_top" xlink:title=" ">
<polygon fill="white" stroke="#666666" points="789,-228 646,-228 646,-198 789,-198 789,-228"/>
<text text-anchor="start" x="654" y="-216" font-family="Helvetica,sans-Serif" font-size="10.00">userver/storages/postgres</text>
<text text-anchor="middle" x="717.5" y="-205" font-family="Helvetica,sans-Serif" font-size="10.00">/portal.hpp</text>
</a>
</g>
</g>
<!-- Node12&#45;&gt;Node21 -->
<g id="edge26_Node000012_Node000021" class="edge">
<title>Node12&#45;&gt;Node21</title>
<g id="a_edge26_Node000012_Node000021"><a xlink:title=" ">
<path fill="none" stroke="#63b8ff" d="M631.97,-259.24C650.85,-249.25 673.68,-237.18 691.01,-228.01"/>
<polygon fill="#63b8ff" stroke="#63b8ff" points="630.26,-256.19 623.05,-263.95 633.53,-262.37 630.26,-256.19"/>
</a>
</g>
</g>
<!-- Node22 -->
<g id="Node000022" class="node">
<title>Node22</title>
<g id="a_Node000022"><a xlink:href="../../da/deb/postgresql_2include_2userver_2storages_2postgres_2transaction_8hpp.html" target="_top" xlink:title="Transactions.">
<polygon fill="white" stroke="#666666" points="789,-162 646,-162 646,-132 789,-132 789,-162"/>
<text text-anchor="start" x="654" y="-150" font-family="Helvetica,sans-Serif" font-size="10.00">userver/storages/postgres</text>
<text text-anchor="middle" x="717.5" y="-139" font-family="Helvetica,sans-Serif" font-size="10.00">/transaction.hpp</text>
</a>
</g>
</g>
<!-- Node12&#45;&gt;Node22 -->
<g id="edge30_Node000012_Node000022" class="edge">
<title>Node12&#45;&gt;Node22</title>
<g id="a_edge30_Node000012_Node000022"><a xlink:title=" ">
<path fill="none" stroke="#63b8ff" d="M678.3,-262.69C730.84,-252.02 790.69,-237.97 798.5,-228 818.3,-202.71 780.32,-177.29 749.94,-162.1"/>
<polygon fill="#63b8ff" stroke="#63b8ff" points="677.36,-259.31 668.25,-264.71 678.74,-266.17 677.36,-259.31"/>
</a>
</g>
</g>
<!-- Node14 -->
<g id="Node000014" class="node">
<title>Node14</title>
<g id="a_Node000014"><a xlink:href="../../dc/df7/base__postgres__cache_8hpp.html" target="_top" xlink:title="Caching component for PostgreSQL. See Caching Component for PostgreSQL.">
<polygon fill="white" stroke="#666666" points="522,-30 403,-30 403,0 522,0 522,-30"/>
<text text-anchor="start" x="411" y="-18" font-family="Helvetica,sans-Serif" font-size="10.00">userver/cache/base</text>
<text text-anchor="middle" x="462.5" y="-7" font-family="Helvetica,sans-Serif" font-size="10.00">_postgres_cache.hpp</text>
</a>
</g>
</g>
<!-- Node13&#45;&gt;Node14 -->
<g id="edge15_Node000013_Node000014" class="edge">
<title>Node13&#45;&gt;Node14</title>
<g id="a_edge15_Node000013_Node000014"><a xlink:title=" ">
<path fill="none" stroke="#63b8ff" d="M574.04,-62.05C549.48,-51.91 519.23,-39.43 496.44,-30.01"/>
<polygon fill="#63b8ff" stroke="#63b8ff" points="572.91,-65.37 583.48,-65.95 575.58,-58.9 572.91,-65.37"/>
</a>
</g>
</g>
<!-- Node15 -->
<g id="Node000015" class="node">
<title>Node15</title>
<g id="a_Node000015"><a xlink:href="../../df/d02/postgres_8hpp.html" target="_top" xlink:title=" ">
<polygon fill="white" stroke="#666666" points="689,-30 546,-30 546,0 689,0 689,-30"/>
<text text-anchor="start" x="554" y="-18" font-family="Helvetica,sans-Serif" font-size="10.00">userver/storages/postgres</text>
<text text-anchor="middle" x="617.5" y="-7" font-family="Helvetica,sans-Serif" font-size="10.00">/postgres.hpp</text>
</a>
</g>
</g>
<!-- Node13&#45;&gt;Node15 -->
<g id="edge16_Node000013_Node000015" class="edge">
<title>Node13&#45;&gt;Node15</title>
<g id="a_edge16_Node000013_Node000015"><a xlink:title=" ">
<path fill="none" stroke="#63b8ff" d="M617.5,-55.54C617.5,-46.96 617.5,-37.61 617.5,-30.16"/>
<polygon fill="#63b8ff" stroke="#63b8ff" points="614,-55.8 617.5,-65.8 621,-55.8 614,-55.8"/>
</a>
</g>
</g>
<!-- Node16&#45;&gt;Node13 -->
<g id="edge18_Node000016_Node000013" class="edge">
<title>Node16&#45;&gt;Node13</title>
<g id="a_edge18_Node000016_Node000013"><a xlink:title=" ">
<path fill="none" stroke="#63b8ff" d="M515.92,-127.78C538.3,-117.69 565.71,-105.34 586.41,-96.01"/>
<polygon fill="#63b8ff" stroke="#63b8ff" points="514.34,-124.65 506.66,-131.95 517.22,-131.04 514.34,-124.65"/>
</a>
</g>
</g>
<!-- Node17 -->
<g id="Node000017" class="node">
<title>Node17</title>
<g id="a_Node000017"><a xlink:href="../../df/d08/postgresql_2include_2userver_2storages_2postgres_2component_8hpp.html" target="_top" xlink:title="PosgreSQL client component.">
<polygon fill="white" stroke="#666666" points="528,-96 385,-96 385,-66 528,-66 528,-96"/>
<text text-anchor="start" x="393" y="-84" font-family="Helvetica,sans-Serif" font-size="10.00">userver/storages/postgres</text>
<text text-anchor="middle" x="456.5" y="-73" font-family="Helvetica,sans-Serif" font-size="10.00">/component.hpp</text>
</a>
</g>
</g>
<!-- Node16&#45;&gt;Node17 -->
<g id="edge19_Node000016_Node000017" class="edge">
<title>Node16&#45;&gt;Node17</title>
<g id="a_edge19_Node000016_Node000017"><a xlink:title=" ">
<path fill="none" stroke="#63b8ff" d="M468.41,-122.11C465.81,-113.38 462.97,-103.78 460.7,-96.16"/>
<polygon fill="#63b8ff" stroke="#63b8ff" points="465.08,-123.21 471.28,-131.8 471.79,-121.21 465.08,-123.21"/>
</a>
</g>
</g>
<!-- Node17&#45;&gt;Node14 -->
<g id="edge20_Node000017_Node000014" class="edge">
<title>Node17&#45;&gt;Node14</title>
<g id="a_edge20_Node000017_Node000014"><a xlink:title=" ">
<path fill="none" stroke="#63b8ff" d="M458.77,-55.83C459.58,-47.17 460.47,-37.7 461.17,-30.16"/>
<polygon fill="#63b8ff" stroke="#63b8ff" points="455.28,-55.51 457.83,-65.8 462.25,-56.17 455.28,-55.51"/>
</a>
</g>
</g>
<!-- Node17&#45;&gt;Node15 -->
<g id="edge21_Node000017_Node000015" class="edge">
<title>Node17&#45;&gt;Node15</title>
<g id="a_edge21_Node000017_Node000015"><a xlink:title=" ">
<path fill="none" stroke="#63b8ff" d="M501.31,-62.19C526.87,-52.02 558.47,-39.47 582.25,-30.01"/>
<polygon fill="#63b8ff" stroke="#63b8ff" points="499.83,-59.01 491.83,-65.95 502.42,-65.51 499.83,-59.01"/>
</a>
</g>
</g>
<!-- Node18&#45;&gt;Node13 -->
<g id="edge23_Node000018_Node000013" class="edge">
<title>Node18&#45;&gt;Node13</title>
<g id="a_edge23_Node000018_Node000013"><a xlink:title=" ">
<path fill="none" stroke="#63b8ff" d="M533.38,-189.8C540.32,-181.15 548.31,-171.13 555.5,-162 573.55,-139.08 594.26,-112.25 606.59,-96.21"/>
<polygon fill="#63b8ff" stroke="#63b8ff" points="530.64,-187.62 527.11,-197.61 536.1,-192 530.64,-187.62"/>
</a>
</g>
</g>
<!-- Node20 -->
<g id="Node000020" class="node">
<title>Node20</title>
<g id="a_Node000020"><a xlink:href="../../dc/d89/postgresql_2include_2userver_2storages_2postgres_2dist__lock__component__base_8hpp.html" target="_top" xlink:title="Base class for postgres&#45;based distlock worker components.">
<polygon fill="white" stroke="#666666" points="1004,-162 831,-162 831,-132 1004,-132 1004,-162"/>
<text text-anchor="start" x="839" y="-150" font-family="Helvetica,sans-Serif" font-size="10.00">userver/storages/postgres</text>
<text text-anchor="middle" x="917.5" y="-139" font-family="Helvetica,sans-Serif" font-size="10.00">/dist_lock_component_base.hpp</text>
</a>
</g>
</g>
<!-- Node19&#45;&gt;Node20 -->
<g id="edge25_Node000019_Node000020" class="edge">
<title>Node19&#45;&gt;Node20</title>
<g id="a_edge25_Node000019_Node000020"><a xlink:title=" ">
<path fill="none" stroke="#63b8ff" d="M917.5,-187.54C917.5,-178.96 917.5,-169.61 917.5,-162.16"/>
<polygon fill="#63b8ff" stroke="#63b8ff" points="914,-187.8 917.5,-197.8 921,-187.8 914,-187.8"/>
</a>
</g>
</g>
<!-- Node21&#45;&gt;Node22 -->
<g id="edge27_Node000021_Node000022" class="edge">
<title>Node21&#45;&gt;Node22</title>
<g id="a_edge27_Node000021_Node000022"><a xlink:title=" ">
<path fill="none" stroke="#63b8ff" d="M717.5,-187.54C717.5,-178.96 717.5,-169.61 717.5,-162.16"/>
<polygon fill="#63b8ff" stroke="#63b8ff" points="714,-187.8 717.5,-197.8 721,-187.8 714,-187.8"/>
</a>
</g>
</g>
<!-- Node22&#45;&gt;Node13 -->
<g id="edge28_Node000022_Node000013" class="edge">
<title>Node22&#45;&gt;Node13</title>
<g id="a_edge28_Node000022_Node000013"><a xlink:title=" ">
<path fill="none" stroke="#63b8ff" d="M686.72,-126.3C671.5,-116.56 653.47,-105.02 639.63,-96.16"/>
<polygon fill="#63b8ff" stroke="#63b8ff" points="685,-129.35 695.31,-131.8 688.77,-123.46 685,-129.35"/>
</a>
</g>
</g>
<!-- Node22&#45;&gt;Node15 -->
<g id="edge29_Node000022_Node000015" class="edge">
<title>Node22&#45;&gt;Node15</title>
<g id="a_edge29_Node000022_Node000015"><a xlink:title=" ">
<path fill="none" stroke="#63b8ff" d="M716.17,-121.69C714.18,-104.71 709.31,-82.24 697.5,-66 686.04,-50.24 667.95,-38.32 651.87,-30.09"/>
<polygon fill="#63b8ff" stroke="#63b8ff" points="712.71,-122.31 717.11,-131.95 719.69,-121.67 712.71,-122.31"/>
</a>
</g>
</g>
<!-- Node23&#45;&gt;Node13 -->
<g id="edge32_Node000023_Node000013" class="edge">
<title>Node23&#45;&gt;Node13</title>
<g id="a_edge32_Node000023_Node000013"><a xlink:title=" ">
<path fill="none" stroke="#63b8ff" d="M386.97,-253.91C377.45,-222.26 366.75,-166.67 394.5,-132 399.37,-125.91 482.4,-108.44 545.73,-95.86"/>
<polygon fill="#63b8ff" stroke="#63b8ff" points="383.71,-255.2 390.09,-263.65 390.37,-253.06 383.71,-255.2"/>
</a>
</g>
</g>
<!-- Node24&#45;&gt;Node6 -->
<g id="edge34_Node000024_Node000006" class="edge">
<title>Node24&#45;&gt;Node6</title>
<g id="a_edge34_Node000024_Node000006"><a xlink:title=" ">
<path fill="none" stroke="#63b8ff" d="M516.1,-398.95C508.57,-389.7 500.34,-379.58 493.42,-371.07"/>
<polygon fill="#63b8ff" stroke="#63b8ff" points="513.45,-401.25 522.47,-406.79 518.88,-396.83 513.45,-401.25"/>
</a>
</g>
</g>
<!-- Node26 -->
<g id="Node000026" class="node">
<title>Node26</title>
<g id="a_Node000026"><a xlink:href="../../d1/d41/fs__cache_8hpp.html" target="_top" xlink:title="Component for storing files in memory.">
<polygon fill="white" stroke="#666666" points="811.5,-365.5 695.5,-365.5 695.5,-335.5 811.5,-335.5 811.5,-365.5"/>
<text text-anchor="start" x="703.5" y="-353.5" font-family="Helvetica,sans-Serif" font-size="10.00">userver/components</text>
<text text-anchor="middle" x="753.5" y="-342.5" font-family="Helvetica,sans-Serif" font-size="10.00">/fs_cache.hpp</text>
</a>
</g>
</g>
<!-- Node25&#45;&gt;Node26 -->
<g id="edge36_Node000025_Node000026" class="edge">
<title>Node25&#45;&gt;Node26</title>
<g id="a_edge36_Node000025_Node000026"><a xlink:title=" ">
<path fill="none" stroke="#63b8ff" d="M691.38,-405.67C706.05,-392.88 724.44,-376.84 737.4,-365.54"/>
<polygon fill="#63b8ff" stroke="#63b8ff" points="688.91,-403.18 683.68,-412.39 693.51,-408.46 688.91,-403.18"/>
</a>
</g>
</g>
<!-- Node27 -->
<g id="Node000027" class="node">
<title>Node27</title>
<g id="a_Node000027"><a xlink:href="../../dd/db6/http__handler__static_8hpp.html" target="_top" xlink:title="Handler that returns HTTP 200 if file exist and returns file data with mapped content/type.">
<polygon fill="white" stroke="#666666" points="820.5,-294 686.5,-294 686.5,-264 820.5,-264 820.5,-294"/>
<text text-anchor="start" x="694.5" y="-282" font-family="Helvetica,sans-Serif" font-size="10.00">userver/server/handlers</text>
<text text-anchor="middle" x="753.5" y="-271" font-family="Helvetica,sans-Serif" font-size="10.00">/http_handler_static.hpp</text>
</a>
</g>
</g>
<!-- Node25&#45;&gt;Node27 -->
<g id="edge38_Node000025_Node000027" class="edge">
<title>Node25&#45;&gt;Node27</title>
<g id="a_edge38_Node000025_Node000027"><a xlink:title=" ">
<path fill="none" stroke="#63b8ff" d="M667.53,-402.08C668.62,-381.42 672.77,-351.8 686.5,-330 696.09,-314.77 712.11,-302.56 726.08,-294.02"/>
<polygon fill="#63b8ff" stroke="#63b8ff" points="664.03,-402.14 667.21,-412.25 671.03,-402.36 664.03,-402.14"/>
</a>
</g>
</g>
<!-- Node26&#45;&gt;Node27 -->
<g id="edge37_Node000026_Node000027" class="edge">
<title>Node26&#45;&gt;Node27</title>
<g id="a_edge37_Node000026_Node000027"><a xlink:title=" ">
<path fill="none" stroke="#63b8ff" d="M753.5,-325.25C753.5,-314.81 753.5,-302.99 753.5,-294.04"/>
<polygon fill="#63b8ff" stroke="#63b8ff" points="750,-325.44 753.5,-335.44 757,-325.44 750,-325.44"/>
</a>
</g>
</g>
<!-- Node30 -->
<g id="Node000030" class="node">
<title>Node30</title>
<g id="a_Node000030"><a xlink:href="../../d7/de4/rabbitmq_8hpp.html" target="_top" xlink:title=" ">
<polygon fill="white" stroke="#666666" points="1070.5,-360 948.5,-360 948.5,-341 1070.5,-341 1070.5,-360"/>
<text text-anchor="middle" x="1009.5" y="-348" font-family="Helvetica,sans-Serif" font-size="10.00">userver/rabbitmq.hpp</text>
</a>
</g>
</g>
<!-- Node29&#45;&gt;Node30 -->
<g id="edge41_Node000029_Node000030" class="edge">
<title>Node29&#45;&gt;Node30</title>
<g id="a_edge41_Node000029_Node000030"><a xlink:title=" ">
<path fill="none" stroke="#63b8ff" d="M1009.5,-402.18C1009.5,-387.86 1009.5,-370.61 1009.5,-360.37"/>
<polygon fill="#63b8ff" stroke="#63b8ff" points="1006,-402.39 1009.5,-412.39 1013,-402.39 1006,-402.39"/>
</a>
</g>
</g>
</g>
</svg>
