<?xml version="1.0" encoding="UTF-8" standalone="no"?>
<!DOCTYPE svg PUBLIC "-//W3C//DTD SVG 1.1//EN"
 "http://www.w3.org/Graphics/SVG/1.1/DTD/svg11.dtd">
<!-- Generated by graphviz version 2.43.0 (0)
 -->
<!-- Title: userver/dynamic_config/updates_sink/component.hpp Pages: 1 -->
<svg width="314pt" height="170pt"
 viewBox="0.00 0.00 313.50 170.00" xmlns="http://www.w3.org/2000/svg" xmlns:xlink="http://www.w3.org/1999/xlink">
<g id="graph0" class="graph" transform="scale(1 1) rotate(0) translate(4 166)">
<title>userver/dynamic_config/updates_sink/component.hpp</title>
<!-- Node1 -->
<g id="Node000001" class="node">
<title>Node1</title>
<g id="a_Node000001"><a xlink:title="Base class for components acting as dynamic config updates sinks.">
<polygon fill="#999999" stroke="#666666" points="232,-162 69,-162 69,-132 232,-132 232,-162"/>
<text text-anchor="start" x="77" y="-150" font-family="Helvetica,sans-Serif" font-size="10.00">userver/dynamic_config</text>
<text text-anchor="middle" x="150.5" y="-139" font-family="Helvetica,sans-Serif" font-size="10.00">/updates_sink/component.hpp</text>
</a>
</g>
</g>
<!-- Node2 -->
<g id="Node000002" class="node">
<title>Node2</title>
<g id="a_Node000002"><a xlink:href="../../d0/d56/core_2include_2userver_2dynamic__config_2fallbacks_2component_8hpp.html" target="_top" xlink:title="Component that setup runtime configs based on fallbacks from file.">
<polygon fill="white" stroke="#666666" points="143,-30 0,-30 0,0 143,0 143,-30"/>
<text text-anchor="start" x="8" y="-18" font-family="Helvetica,sans-Serif" font-size="10.00">userver/dynamic_config</text>
<text text-anchor="middle" x="71.5" y="-7" font-family="Helvetica,sans-Serif" font-size="10.00">/fallbacks/component.hpp</text>
</a>
</g>
</g>
<!-- Node1&#45;&gt;Node2 -->
<g id="edge1_Node000001_Node000002" class="edge">
<title>Node1&#45;&gt;Node2</title>
<g id="a_edge1_Node000001_Node000002"><a xlink:title=" ">
<path fill="none" stroke="#63b8ff" d="M105.91,-127.04C93.2,-119.35 80.83,-109.11 73.5,-96 61.97,-75.39 64.87,-46.87 68.12,-30.04"/>
<polygon fill="#63b8ff" stroke="#63b8ff" points="104.26,-130.14 114.7,-131.97 107.69,-124.03 104.26,-130.14"/>
</a>
</g>
</g>
<!-- Node3 -->
<g id="Node000003" class="node">
<title>Node3</title>
<g id="a_Node000003"><a xlink:href="../../d2/d88/core_2include_2userver_2dynamic__config_2storage_2component_8hpp.html" target="_top" xlink:title="Component that stores the runtime config.">
<polygon fill="white" stroke="#666666" points="218,-96 83,-96 83,-66 218,-66 218,-96"/>
<text text-anchor="start" x="91" y="-84" font-family="Helvetica,sans-Serif" font-size="10.00">userver/dynamic_config</text>
<text text-anchor="middle" x="150.5" y="-73" font-family="Helvetica,sans-Serif" font-size="10.00">/storage/component.hpp</text>
</a>
</g>
</g>
<!-- Node1&#45;&gt;Node3 -->
<g id="edge2_Node000001_Node000003" class="edge">
<title>Node1&#45;&gt;Node3</title>
<g id="a_edge2_Node000001_Node000003"><a xlink:title=" ">
<path fill="none" stroke="#63b8ff" d="M150.5,-121.54C150.5,-112.96 150.5,-103.61 150.5,-96.16"/>
<polygon fill="#63b8ff" stroke="#63b8ff" points="147,-121.8 150.5,-131.8 154,-121.8 147,-121.8"/>
</a>
</g>
</g>
<!-- Node4 -->
<g id="Node000004" class="node">
<title>Node4</title>
<g id="a_Node000004"><a xlink:href="../../db/df3/core_2include_2userver_2dynamic__config_2updater_2component_8hpp.html" target="_top" xlink:title="Component that does a periodic update of runtime configs.">
<polygon fill="white" stroke="#666666" points="305.5,-30 169.5,-30 169.5,0 305.5,0 305.5,-30"/>
<text text-anchor="start" x="177.5" y="-18" font-family="Helvetica,sans-Serif" font-size="10.00">userver/dynamic_config</text>
<text text-anchor="middle" x="237.5" y="-7" font-family="Helvetica,sans-Serif" font-size="10.00">/updater/component.hpp</text>
</a>
</g>
</g>
<!-- Node1&#45;&gt;Node4 -->
<g id="edge5_Node000001_Node000004" class="edge">
<title>Node1&#45;&gt;Node4</title>
<g id="a_edge5_Node000001_Node000004"><a xlink:title=" ">
<path fill="none" stroke="#63b8ff" d="M193.67,-126.99C206.55,-119.21 219.39,-108.95 227.5,-96 240.13,-75.83 240.4,-47.17 239.15,-30.19"/>
<polygon fill="#63b8ff" stroke="#63b8ff" points="191.8,-124.02 184.8,-131.97 195.23,-130.12 191.8,-124.02"/>
</a>
</g>
</g>
<!-- Node3&#45;&gt;Node2 -->
<g id="edge3_Node000003_Node000002" class="edge">
<title>Node3&#45;&gt;Node2</title>
<g id="a_edge3_Node000003_Node000002"><a xlink:title=" ">
<path fill="none" stroke="#63b8ff" d="M125.17,-59.48C113.36,-49.91 99.61,-38.77 88.98,-30.16"/>
<polygon fill="#63b8ff" stroke="#63b8ff" points="122.99,-62.22 132.97,-65.8 127.4,-56.78 122.99,-62.22"/>
</a>
</g>
</g>
<!-- Node3&#45;&gt;Node4 -->
<g id="edge4_Node000003_Node000004" class="edge">
<title>Node3&#45;&gt;Node4</title>
<g id="a_edge4_Node000003_Node000004"><a xlink:title=" ">
<path fill="none" stroke="#63b8ff" d="M178.02,-59.75C191.11,-50.13 206.43,-38.86 218.25,-30.16"/>
<polygon fill="#63b8ff" stroke="#63b8ff" points="175.79,-57.05 169.81,-65.8 179.94,-62.69 175.79,-57.05"/>
</a>
</g>
</g>
</g>
</svg>
