<?xml version="1.0" encoding="UTF-8" standalone="no"?>
<!DOCTYPE svg PUBLIC "-//W3C//DTD SVG 1.1//EN"
 "http://www.w3.org/Graphics/SVG/1.1/DTD/svg11.dtd">
<!-- Generated by graphviz version 2.43.0 (0)
 -->
<!-- Title: userver/server/http/http_method.hpp Pages: 1 -->
<svg width="1992pt" height="390pt"
 viewBox="0.00 0.00 1992.00 390.00" xmlns="http://www.w3.org/2000/svg" xmlns:xlink="http://www.w3.org/1999/xlink">
<g id="graph0" class="graph" transform="scale(1 1) rotate(0) translate(4 386)">
<title>userver/server/http/http_method.hpp</title>
<!-- Node1 -->
<g id="Node000001" class="node">
<title>Node1</title>
<g id="a_Node000001"><a xlink:title="List of HTTP methods.">
<polygon fill="#999999" stroke="#666666" points="855,-382 745,-382 745,-352 855,-352 855,-382"/>
<text text-anchor="start" x="753" y="-370" font-family="Helvetica,sans-Serif" font-size="10.00">userver/server/http</text>
<text text-anchor="middle" x="800" y="-359" font-family="Helvetica,sans-Serif" font-size="10.00">/http_method.hpp</text>
</a>
</g>
</g>
<!-- Node2 -->
<g id="Node000002" class="node">
<title>Node2</title>
<g id="a_Node000002"><a xlink:href="../../d2/d45/http__request_8hpp.html" target="_top" xlink:title="HTTP Request data.">
<polygon fill="white" stroke="#666666" points="855,-316 745,-316 745,-286 855,-286 855,-316"/>
<text text-anchor="start" x="753" y="-304" font-family="Helvetica,sans-Serif" font-size="10.00">userver/server/http</text>
<text text-anchor="middle" x="800" y="-293" font-family="Helvetica,sans-Serif" font-size="10.00">/http_request.hpp</text>
</a>
</g>
</g>
<!-- Node1&#45;&gt;Node2 -->
<g id="edge1_Node000001_Node000002" class="edge">
<title>Node1&#45;&gt;Node2</title>
<g id="a_edge1_Node000001_Node000002"><a xlink:title=" ">
<path fill="none" stroke="#63b8ff" d="M800,-341.54C800,-332.96 800,-323.61 800,-316.16"/>
<polygon fill="#63b8ff" stroke="#63b8ff" points="796.5,-341.8 800,-351.8 803.5,-341.8 796.5,-341.8"/>
</a>
</g>
</g>
<!-- Node3 -->
<g id="Node000003" class="node">
<title>Node3</title>
<g id="a_Node000003"><a xlink:href="../../da/dff/auth__checker__base_8hpp_source.html" target="_top" xlink:title=" ">
<polygon fill="white" stroke="#666666" points="879,-250 721,-250 721,-220 879,-220 879,-250"/>
<text text-anchor="start" x="729" y="-238" font-family="Helvetica,sans-Serif" font-size="10.00">userver/server/handlers</text>
<text text-anchor="middle" x="800" y="-227" font-family="Helvetica,sans-Serif" font-size="10.00">/auth/auth_checker_base.hpp</text>
</a>
</g>
</g>
<!-- Node2&#45;&gt;Node3 -->
<g id="edge2_Node000002_Node000003" class="edge">
<title>Node2&#45;&gt;Node3</title>
<g id="a_edge2_Node000002_Node000003"><a xlink:title=" ">
<path fill="none" stroke="#63b8ff" d="M800,-275.54C800,-266.96 800,-257.61 800,-250.16"/>
<polygon fill="#63b8ff" stroke="#63b8ff" points="796.5,-275.8 800,-285.8 803.5,-275.8 796.5,-275.8"/>
</a>
</g>
</g>
<!-- Node5 -->
<g id="Node000005" class="node">
<title>Node5</title>
<g id="a_Node000005"><a xlink:href="../../de/d82/digest_2auth__checker__base_8hpp.html" target="_top" xlink:title="Base class for digest authentication checkers. Implements a digest&#45;authentication logic.">
<polygon fill="white" stroke="#666666" points="698,-184 556,-184 556,-143 698,-143 698,-184"/>
<text text-anchor="start" x="564" y="-172" font-family="Helvetica,sans-Serif" font-size="10.00">userver/server/handlers</text>
<text text-anchor="start" x="564" y="-161" font-family="Helvetica,sans-Serif" font-size="10.00">/auth/digest/auth_checker</text>
<text text-anchor="middle" x="627" y="-150" font-family="Helvetica,sans-Serif" font-size="10.00">_base.hpp</text>
</a>
</g>
</g>
<!-- Node2&#45;&gt;Node5 -->
<g id="edge22_Node000002_Node000005" class="edge">
<title>Node2&#45;&gt;Node5</title>
<g id="a_edge22_Node000002_Node000005"><a xlink:title=" ">
<path fill="none" stroke="#63b8ff" d="M761.55,-281.1C745.6,-272.52 727.29,-261.68 712,-250 685.89,-230.05 659.84,-202.41 643.59,-184.02"/>
<polygon fill="#63b8ff" stroke="#63b8ff" points="760.15,-284.32 770.63,-285.88 763.41,-278.12 760.15,-284.32"/>
</a>
</g>
</g>
<!-- Node6 -->
<g id="Node000006" class="node">
<title>Node6</title>
<g id="a_Node000006"><a xlink:href="../../db/df0/standalone__checker_8hpp.html" target="_top" xlink:title="Class for digest authentication checker. Implements a stand&#45;alone digest&#45;authentication logic.">
<polygon fill="white" stroke="#666666" points="132,-107 0,-107 0,-66 132,-66 132,-107"/>
<text text-anchor="start" x="8" y="-95" font-family="Helvetica,sans-Serif" font-size="10.00">userver/server/handlers</text>
<text text-anchor="start" x="8" y="-84" font-family="Helvetica,sans-Serif" font-size="10.00">/auth/digest/standalone</text>
<text text-anchor="middle" x="66" y="-73" font-family="Helvetica,sans-Serif" font-size="10.00">_checker.hpp</text>
</a>
</g>
</g>
<!-- Node2&#45;&gt;Node6 -->
<g id="edge23_Node000002_Node000006" class="edge">
<title>Node2&#45;&gt;Node6</title>
<g id="a_edge23_Node000002_Node000006"><a xlink:title=" ">
<path fill="none" stroke="#63b8ff" d="M741.82,-283.16C607.12,-244.16 274.51,-147.87 132.26,-106.68"/>
<polygon fill="#63b8ff" stroke="#63b8ff" points="740.98,-286.56 751.56,-285.98 742.92,-279.83 740.98,-286.56"/>
</a>
</g>
</g>
<!-- Node7 -->
<g id="Node000007" class="node">
<title>Node7</title>
<g id="a_Node000007"><a xlink:href="../../d4/df6/http__handler__base_8hpp.html" target="_top" xlink:title="Base class for all the Userver HTTP Handlers.">
<polygon fill="white" stroke="#666666" points="1034,-178.5 902,-178.5 902,-148.5 1034,-148.5 1034,-178.5"/>
<text text-anchor="start" x="910" y="-166.5" font-family="Helvetica,sans-Serif" font-size="10.00">userver/server/handlers</text>
<text text-anchor="middle" x="968" y="-155.5" font-family="Helvetica,sans-Serif" font-size="10.00">/http_handler_base.hpp</text>
</a>
</g>
</g>
<!-- Node2&#45;&gt;Node7 -->
<g id="edge24_Node000002_Node000007" class="edge">
<title>Node2&#45;&gt;Node7</title>
<g id="a_edge24_Node000002_Node000007"><a xlink:title=" ">
<path fill="none" stroke="#63b8ff" d="M838.99,-281.13C854.88,-272.62 873,-261.82 888,-250 915.62,-228.23 942.44,-196.83 956.93,-178.77"/>
<polygon fill="#63b8ff" stroke="#63b8ff" points="837.17,-278.13 829.93,-285.86 840.42,-284.33 837.17,-278.13"/>
</a>
</g>
</g>
<!-- Node23 -->
<g id="Node000023" class="node">
<title>Node23</title>
<g id="a_Node000023"><a xlink:href="../../de/d4e/core_2include_2userver_2server_2websocket_2server_8hpp.html" target="_top" xlink:title=" ">
<polygon fill="white" stroke="#666666" points="1119,-250 977,-250 977,-220 1119,-220 1119,-250"/>
<text text-anchor="start" x="985" y="-238" font-family="Helvetica,sans-Serif" font-size="10.00">userver/server/websocket</text>
<text text-anchor="middle" x="1048" y="-227" font-family="Helvetica,sans-Serif" font-size="10.00">/server.hpp</text>
</a>
</g>
</g>
<!-- Node2&#45;&gt;Node23 -->
<g id="edge25_Node000002_Node000023" class="edge">
<title>Node2&#45;&gt;Node23</title>
<g id="a_edge25_Node000002_Node000023"><a xlink:title=" ">
<path fill="none" stroke="#63b8ff" d="M864.13,-283.45C904.31,-273.08 955.53,-259.86 993.7,-250.01"/>
<polygon fill="#63b8ff" stroke="#63b8ff" points="863.23,-280.07 854.42,-285.95 864.98,-286.85 863.23,-280.07"/>
</a>
</g>
</g>
<!-- Node4 -->
<g id="Node000004" class="node">
<title>Node4</title>
<g id="a_Node000004"><a xlink:href="../../db/ddd/auth__checker__factory_8hpp.html" target="_top" xlink:title="Authorization factory registration and base classes.">
<polygon fill="white" stroke="#666666" points="884,-178.5 716,-178.5 716,-148.5 884,-148.5 884,-178.5"/>
<text text-anchor="start" x="724" y="-166.5" font-family="Helvetica,sans-Serif" font-size="10.00">userver/server/handlers</text>
<text text-anchor="middle" x="800" y="-155.5" font-family="Helvetica,sans-Serif" font-size="10.00">/auth/auth_checker_factory.hpp</text>
</a>
</g>
</g>
<!-- Node3&#45;&gt;Node4 -->
<g id="edge3_Node000003_Node000004" class="edge">
<title>Node3&#45;&gt;Node4</title>
<g id="a_edge3_Node000003_Node000004"><a xlink:title=" ">
<path fill="none" stroke="#63b8ff" d="M800,-209.75C800,-199.31 800,-187.49 800,-178.54"/>
<polygon fill="#63b8ff" stroke="#63b8ff" points="796.5,-209.94 800,-219.94 803.5,-209.94 796.5,-209.94"/>
</a>
</g>
</g>
<!-- Node3&#45;&gt;Node5 -->
<g id="edge4_Node000003_Node000005" class="edge">
<title>Node3&#45;&gt;Node5</title>
<g id="a_edge4_Node000003_Node000005"><a xlink:title=" ">
<path fill="none" stroke="#63b8ff" d="M755.6,-216.16C731.17,-206.35 700.81,-194.15 675.72,-184.07"/>
<polygon fill="#63b8ff" stroke="#63b8ff" points="754.41,-219.46 764.99,-219.94 757.02,-212.96 754.41,-219.46"/>
</a>
</g>
</g>
<!-- Node3&#45;&gt;Node7 -->
<g id="edge6_Node000003_Node000007" class="edge">
<title>Node3&#45;&gt;Node7</title>
<g id="a_edge6_Node000003_Node000007"><a xlink:title=" ">
<path fill="none" stroke="#63b8ff" d="M843.24,-216.11C871.5,-204.42 907.88,-189.37 934.05,-178.54"/>
<polygon fill="#63b8ff" stroke="#63b8ff" points="841.9,-212.88 834,-219.94 844.58,-219.35 841.9,-212.88"/>
</a>
</g>
</g>
<!-- Node5&#45;&gt;Node6 -->
<g id="edge5_Node000005_Node000006" class="edge">
<title>Node5&#45;&gt;Node6</title>
<g id="a_edge5_Node000005_Node000006"><a xlink:title=" ">
<path fill="none" stroke="#63b8ff" d="M545.68,-156.73C448.74,-149.04 282.11,-133.27 141,-107 138.09,-106.46 135.13,-105.87 132.14,-105.24"/>
<polygon fill="#63b8ff" stroke="#63b8ff" points="545.46,-160.22 555.71,-157.52 546.01,-153.24 545.46,-160.22"/>
</a>
</g>
</g>
<!-- Node8 -->
<g id="Node000008" class="node">
<title>Node8</title>
<g id="a_Node000008"><a xlink:href="../../d6/d0d/dns__client__control_8hpp.html" target="_top" xlink:title="Handlers that controls the DNS client.">
<polygon fill="white" stroke="#666666" points="1344,-101.5 1212,-101.5 1212,-71.5 1344,-71.5 1344,-101.5"/>
<text text-anchor="start" x="1220" y="-89.5" font-family="Helvetica,sans-Serif" font-size="10.00">userver/server/handlers</text>
<text text-anchor="middle" x="1278" y="-78.5" font-family="Helvetica,sans-Serif" font-size="10.00">/dns_client_control.hpp</text>
</a>
</g>
</g>
<!-- Node7&#45;&gt;Node8 -->
<g id="edge7_Node000007_Node000008" class="edge">
<title>Node7&#45;&gt;Node8</title>
<g id="a_edge7_Node000007_Node000008"><a xlink:title=" ">
<path fill="none" stroke="#63b8ff" d="M1038.65,-146.1C1085.12,-135.22 1147.24,-120.52 1202,-107 1209.01,-105.27 1216.37,-103.42 1223.65,-101.57"/>
<polygon fill="#63b8ff" stroke="#63b8ff" points="1037.62,-142.74 1028.68,-148.43 1039.21,-149.56 1037.62,-142.74"/>
</a>
</g>
</g>
<!-- Node9 -->
<g id="Node000009" class="node">
<title>Node9</title>
<g id="a_Node000009"><a xlink:href="../../d6/dc0/dynamic__debug__log_8hpp.html" target="_top" xlink:title="HTTP Handler to show/hide logs at the specific file:line.">
<polygon fill="white" stroke="#666666" points="1500,-101.5 1362,-101.5 1362,-71.5 1500,-71.5 1500,-101.5"/>
<text text-anchor="start" x="1370" y="-89.5" font-family="Helvetica,sans-Serif" font-size="10.00">userver/server/handlers</text>
<text text-anchor="middle" x="1431" y="-78.5" font-family="Helvetica,sans-Serif" font-size="10.00">/dynamic_debug_log.hpp</text>
</a>
</g>
</g>
<!-- Node7&#45;&gt;Node9 -->
<g id="edge8_Node000007_Node000009" class="edge">
<title>Node7&#45;&gt;Node9</title>
<g id="a_edge8_Node000007_Node000009"><a xlink:title=" ">
<path fill="none" stroke="#63b8ff" d="M1044.3,-153.83C1122.25,-144.42 1246.62,-127.91 1353,-107 1361.08,-105.41 1369.58,-103.52 1377.88,-101.55"/>
<polygon fill="#63b8ff" stroke="#63b8ff" points="1043.6,-150.39 1034.08,-155.05 1044.43,-157.34 1043.6,-150.39"/>
</a>
</g>
</g>
<!-- Node10 -->
<g id="Node000010" class="node">
<title>Node10</title>
<g id="a_Node000010"><a xlink:href="../../d5/d4d/http__handler__flatbuf__base_8hpp.html" target="_top" xlink:title="Convenient base for handlers that accept requests with body in Flatbuffer format and respond with bod...">
<polygon fill="white" stroke="#666666" points="1650,-107 1518,-107 1518,-66 1650,-66 1650,-107"/>
<text text-anchor="start" x="1526" y="-95" font-family="Helvetica,sans-Serif" font-size="10.00">userver/server/handlers</text>
<text text-anchor="start" x="1526" y="-84" font-family="Helvetica,sans-Serif" font-size="10.00">/http_handler_flatbuf</text>
<text text-anchor="middle" x="1584" y="-73" font-family="Helvetica,sans-Serif" font-size="10.00">_base.hpp</text>
</a>
</g>
</g>
<!-- Node7&#45;&gt;Node10 -->
<g id="edge9_Node000007_Node000010" class="edge">
<title>Node7&#45;&gt;Node10</title>
<g id="a_edge9_Node000007_Node000010"><a xlink:title=" ">
<path fill="none" stroke="#63b8ff" d="M1044.45,-158.33C1149.71,-151.76 1344.89,-136.58 1509,-107 1511.91,-106.48 1514.88,-105.9 1517.87,-105.28"/>
<polygon fill="#63b8ff" stroke="#63b8ff" points="1044.01,-154.85 1034.24,-158.96 1044.44,-161.84 1044.01,-154.85"/>
</a>
</g>
</g>
<!-- Node11 -->
<g id="Node000011" class="node">
<title>Node11</title>
<g id="a_Node000011"><a xlink:href="../../d1/d58/http__handler__json__base_8hpp.html" target="_top" xlink:title="Convenient base for handlers that accept requests with body in JSON format and respond with body in J...">
<polygon fill="white" stroke="#666666" points="1824,-101.5 1668,-101.5 1668,-71.5 1824,-71.5 1824,-101.5"/>
<text text-anchor="start" x="1676" y="-89.5" font-family="Helvetica,sans-Serif" font-size="10.00">userver/server/handlers</text>
<text text-anchor="middle" x="1746" y="-78.5" font-family="Helvetica,sans-Serif" font-size="10.00">/http_handler_json_base.hpp</text>
</a>
</g>
</g>
<!-- Node7&#45;&gt;Node11 -->
<g id="edge10_Node000007_Node000011" class="edge">
<title>Node7&#45;&gt;Node11</title>
<g id="a_edge10_Node000007_Node000011"><a xlink:title=" ">
<path fill="none" stroke="#63b8ff" d="M1044.17,-159.88C1171.9,-154.7 1437.13,-140.6 1659,-107 1668.64,-105.54 1678.81,-103.62 1688.65,-101.55"/>
<polygon fill="#63b8ff" stroke="#63b8ff" points="1043.95,-156.38 1034.09,-160.28 1044.23,-163.38 1043.95,-156.38"/>
</a>
</g>
</g>
<!-- Node14 -->
<g id="Node000014" class="node">
<title>Node14</title>
<g id="a_Node000014"><a xlink:href="../../dd/db6/http__handler__static_8hpp.html" target="_top" xlink:title="Handler that returns HTTP 200 if file exist and returns file data with mapped content/type.">
<polygon fill="white" stroke="#666666" points="284,-101.5 150,-101.5 150,-71.5 284,-71.5 284,-101.5"/>
<text text-anchor="start" x="158" y="-89.5" font-family="Helvetica,sans-Serif" font-size="10.00">userver/server/handlers</text>
<text text-anchor="middle" x="217" y="-78.5" font-family="Helvetica,sans-Serif" font-size="10.00">/http_handler_static.hpp</text>
</a>
</g>
</g>
<!-- Node7&#45;&gt;Node14 -->
<g id="edge13_Node000007_Node000014" class="edge">
<title>Node7&#45;&gt;Node14</title>
<g id="a_edge13_Node000007_Node000014"><a xlink:title=" ">
<path fill="none" stroke="#63b8ff" d="M909.53,-146.13C903.97,-144.93 898.4,-143.86 893,-143 629.15,-101.19 556.92,-148.39 293,-107 284.25,-105.63 275.05,-103.7 266.18,-101.58"/>
<polygon fill="#63b8ff" stroke="#63b8ff" points="908.94,-149.59 919.47,-148.42 910.51,-142.77 908.94,-149.59"/>
</a>
</g>
</g>
<!-- Node15 -->
<g id="Node000015" class="node">
<title>Node15</title>
<g id="a_Node000015"><a xlink:href="../../d5/d86/jemalloc_8hpp.html" target="_top" xlink:title="Handler that controls the jemalloc allocator.">
<polygon fill="white" stroke="#666666" points="434,-101.5 302,-101.5 302,-71.5 434,-71.5 434,-101.5"/>
<text text-anchor="start" x="310" y="-89.5" font-family="Helvetica,sans-Serif" font-size="10.00">userver/server/handlers</text>
<text text-anchor="middle" x="368" y="-78.5" font-family="Helvetica,sans-Serif" font-size="10.00">/jemalloc.hpp</text>
</a>
</g>
</g>
<!-- Node7&#45;&gt;Node15 -->
<g id="edge14_Node000007_Node000015" class="edge">
<title>Node7&#45;&gt;Node15</title>
<g id="a_edge14_Node000007_Node000015"><a xlink:title=" ">
<path fill="none" stroke="#63b8ff" d="M909.25,-146.19C903.79,-144.99 898.31,-143.9 893,-143 695.16,-109.63 640.84,-140.37 443,-107 434.51,-105.57 425.58,-103.63 416.95,-101.54"/>
<polygon fill="#63b8ff" stroke="#63b8ff" points="908.51,-149.61 919.05,-148.46 910.1,-142.79 908.51,-149.61"/>
</a>
</g>
</g>
<!-- Node16 -->
<g id="Node000016" class="node">
<title>Node16</title>
<g id="a_Node000016"><a xlink:href="../../d0/d01/log__level_8hpp.html" target="_top" xlink:title="Handler that controls logging levels of all the loggers.">
<polygon fill="white" stroke="#666666" points="584,-101.5 452,-101.5 452,-71.5 584,-71.5 584,-101.5"/>
<text text-anchor="start" x="460" y="-89.5" font-family="Helvetica,sans-Serif" font-size="10.00">userver/server/handlers</text>
<text text-anchor="middle" x="518" y="-78.5" font-family="Helvetica,sans-Serif" font-size="10.00">/log_level.hpp</text>
</a>
</g>
</g>
<!-- Node7&#45;&gt;Node16 -->
<g id="edge15_Node000007_Node000016" class="edge">
<title>Node7&#45;&gt;Node16</title>
<g id="a_edge15_Node000007_Node000016"><a xlink:title=" ">
<path fill="none" stroke="#63b8ff" d="M907.67,-146.06C902.72,-144.94 897.79,-143.91 893,-143 761.05,-118.05 724.95,-131.95 593,-107 584.94,-105.48 576.46,-103.57 568.22,-101.55"/>
<polygon fill="#63b8ff" stroke="#63b8ff" points="907.25,-149.56 917.78,-148.45 908.85,-142.75 907.25,-149.56"/>
</a>
</g>
</g>
<!-- Node17 -->
<g id="Node000017" class="node">
<title>Node17</title>
<g id="a_Node000017"><a xlink:href="../../d7/d72/on__log__rotate_8hpp.html" target="_top" xlink:title="Handler that controls logging levels of all the loggers.">
<polygon fill="white" stroke="#666666" points="734,-101.5 602,-101.5 602,-71.5 734,-71.5 734,-101.5"/>
<text text-anchor="start" x="610" y="-89.5" font-family="Helvetica,sans-Serif" font-size="10.00">userver/server/handlers</text>
<text text-anchor="middle" x="668" y="-78.5" font-family="Helvetica,sans-Serif" font-size="10.00">/on_log_rotate.hpp</text>
</a>
</g>
</g>
<!-- Node7&#45;&gt;Node17 -->
<g id="edge16_Node000007_Node000017" class="edge">
<title>Node7&#45;&gt;Node17</title>
<g id="a_edge16_Node000007_Node000017"><a xlink:title=" ">
<path fill="none" stroke="#63b8ff" d="M904.59,-145.92C900.67,-144.93 896.78,-143.95 893,-143 826.49,-126.37 809.51,-123.63 743,-107 736.08,-105.27 728.81,-103.42 721.64,-101.58"/>
<polygon fill="#63b8ff" stroke="#63b8ff" points="903.81,-149.34 914.36,-148.42 905.54,-142.55 903.81,-149.34"/>
</a>
</g>
</g>
<!-- Node18 -->
<g id="Node000018" class="node">
<title>Node18</title>
<g id="a_Node000018"><a xlink:href="../../d8/d39/ping_8hpp.html" target="_top" xlink:title="Handler that returns HTTP 200 if the service is OK and able to process requests.">
<polygon fill="white" stroke="#666666" points="884,-101.5 752,-101.5 752,-71.5 884,-71.5 884,-101.5"/>
<text text-anchor="start" x="760" y="-89.5" font-family="Helvetica,sans-Serif" font-size="10.00">userver/server/handlers</text>
<text text-anchor="middle" x="818" y="-78.5" font-family="Helvetica,sans-Serif" font-size="10.00">/ping.hpp</text>
</a>
</g>
</g>
<!-- Node7&#45;&gt;Node18 -->
<g id="edge17_Node000007_Node000018" class="edge">
<title>Node7&#45;&gt;Node18</title>
<g id="a_edge17_Node000007_Node000018"><a xlink:title=" ">
<path fill="none" stroke="#63b8ff" d="M930.54,-143.77C904.35,-130.68 869.93,-113.47 846.09,-101.54"/>
<polygon fill="#63b8ff" stroke="#63b8ff" points="929.28,-147.05 939.79,-148.39 932.41,-140.79 929.28,-147.05"/>
</a>
</g>
</g>
<!-- Node19 -->
<g id="Node000019" class="node">
<title>Node19</title>
<g id="a_Node000019"><a xlink:href="../../de/d18/server__monitor_8hpp.html" target="_top" xlink:title="Handler that returns statistics data.">
<polygon fill="white" stroke="#666666" points="1034,-101.5 902,-101.5 902,-71.5 1034,-71.5 1034,-101.5"/>
<text text-anchor="start" x="910" y="-89.5" font-family="Helvetica,sans-Serif" font-size="10.00">userver/server/handlers</text>
<text text-anchor="middle" x="968" y="-78.5" font-family="Helvetica,sans-Serif" font-size="10.00">/server_monitor.hpp</text>
</a>
</g>
</g>
<!-- Node7&#45;&gt;Node19 -->
<g id="edge18_Node000007_Node000019" class="edge">
<title>Node7&#45;&gt;Node19</title>
<g id="a_edge18_Node000007_Node000019"><a xlink:title=" ">
<path fill="none" stroke="#63b8ff" d="M968,-138.04C968,-125.95 968,-111.79 968,-101.54"/>
<polygon fill="#63b8ff" stroke="#63b8ff" points="964.5,-138.39 968,-148.39 971.5,-138.39 964.5,-138.39"/>
</a>
</g>
</g>
<!-- Node20 -->
<g id="Node000020" class="node">
<title>Node20</title>
<g id="a_Node000020"><a xlink:href="../../d8/d82/core_2include_2userver_2server_2server_8hpp_source.html" target="_top" xlink:title=" ">
<polygon fill="white" stroke="#666666" points="1193.5,-96 1052.5,-96 1052.5,-77 1193.5,-77 1193.5,-96"/>
<text text-anchor="middle" x="1123" y="-84" font-family="Helvetica,sans-Serif" font-size="10.00">userver/server/server.hpp</text>
</a>
</g>
</g>
<!-- Node7&#45;&gt;Node20 -->
<g id="edge19_Node000007_Node000020" class="edge">
<title>Node7&#45;&gt;Node20</title>
<g id="a_edge19_Node000007_Node000020"><a xlink:title=" ">
<path fill="none" stroke="#63b8ff" d="M1006.52,-143.86C1038.03,-128.62 1081.14,-107.75 1105.1,-96.16"/>
<polygon fill="#63b8ff" stroke="#63b8ff" points="1004.63,-140.89 997.15,-148.39 1007.68,-147.19 1004.63,-140.89"/>
</a>
</g>
</g>
<!-- Node22 -->
<g id="Node000022" class="node">
<title>Node22</title>
<g id="a_Node000022"><a xlink:href="../../d4/d64/websocket__handler_8hpp.html" target="_top" xlink:title=" ">
<polygon fill="white" stroke="#666666" points="1984,-101.5 1842,-101.5 1842,-71.5 1984,-71.5 1984,-101.5"/>
<text text-anchor="start" x="1850" y="-89.5" font-family="Helvetica,sans-Serif" font-size="10.00">userver/server/websocket</text>
<text text-anchor="middle" x="1913" y="-78.5" font-family="Helvetica,sans-Serif" font-size="10.00">/websocket_handler.hpp</text>
</a>
</g>
</g>
<!-- Node7&#45;&gt;Node22 -->
<g id="edge21_Node000007_Node000022" class="edge">
<title>Node7&#45;&gt;Node22</title>
<g id="a_edge21_Node000007_Node000022"><a xlink:title=" ">
<path fill="none" stroke="#63b8ff" d="M1044.03,-159.33C1225.86,-151.48 1681.89,-130.08 1833,-107 1842.19,-105.6 1851.86,-103.65 1861.19,-101.52"/>
<polygon fill="#63b8ff" stroke="#63b8ff" points="1043.86,-155.84 1034.02,-159.76 1044.16,-162.83 1043.86,-155.84"/>
</a>
</g>
</g>
<!-- Node12 -->
<g id="Node000012" class="node">
<title>Node12</title>
<g id="a_Node000012"><a xlink:href="../../d7/d79/inspect__requests_8hpp.html" target="_top" xlink:title="Handler that returns information about all in&#45;flight requests.">
<polygon fill="white" stroke="#666666" points="1737,-30 1605,-30 1605,0 1737,0 1737,-30"/>
<text text-anchor="start" x="1613" y="-18" font-family="Helvetica,sans-Serif" font-size="10.00">userver/server/handlers</text>
<text text-anchor="middle" x="1671" y="-7" font-family="Helvetica,sans-Serif" font-size="10.00">/inspect_requests.hpp</text>
</a>
</g>
</g>
<!-- Node11&#45;&gt;Node12 -->
<g id="edge11_Node000011_Node000012" class="edge">
<title>Node11&#45;&gt;Node12</title>
<g id="a_edge11_Node000011_Node000012"><a xlink:title=" ">
<path fill="none" stroke="#63b8ff" d="M1723.33,-64.49C1711.29,-53.34 1696.82,-39.93 1686.15,-30.04"/>
<polygon fill="#63b8ff" stroke="#63b8ff" points="1721.11,-67.21 1730.82,-71.44 1725.87,-62.07 1721.11,-67.21"/>
</a>
</g>
</g>
<!-- Node13 -->
<g id="Node000013" class="node">
<title>Node13</title>
<g id="a_Node000013"><a xlink:href="../../d6/d43/tests__control_8hpp.html" target="_top" xlink:title="Handler that allows to control the behavior of server from tests, and functional tests with testsuite...">
<polygon fill="white" stroke="#666666" points="1887,-30 1755,-30 1755,0 1887,0 1887,-30"/>
<text text-anchor="start" x="1763" y="-18" font-family="Helvetica,sans-Serif" font-size="10.00">userver/server/handlers</text>
<text text-anchor="middle" x="1821" y="-7" font-family="Helvetica,sans-Serif" font-size="10.00">/tests_control.hpp</text>
</a>
</g>
</g>
<!-- Node11&#45;&gt;Node13 -->
<g id="edge12_Node000011_Node000013" class="edge">
<title>Node11&#45;&gt;Node13</title>
<g id="a_edge12_Node000011_Node000013"><a xlink:title=" ">
<path fill="none" stroke="#63b8ff" d="M1768.67,-64.49C1780.71,-53.34 1795.18,-39.93 1805.85,-30.04"/>
<polygon fill="#63b8ff" stroke="#63b8ff" points="1766.13,-62.07 1761.18,-71.44 1770.89,-67.21 1766.13,-62.07"/>
</a>
</g>
</g>
<!-- Node21 -->
<g id="Node000021" class="node">
<title>Node21</title>
<g id="a_Node000021"><a xlink:href="../../d3/ddd/core_2include_2userver_2server_2component_8hpp.html" target="_top" xlink:title="Component that listens for incoming requests, manages incoming connections and passes the requests to...">
<polygon fill="white" stroke="#666666" points="1206,-24.5 1040,-24.5 1040,-5.5 1206,-5.5 1206,-24.5"/>
<text text-anchor="middle" x="1123" y="-12.5" font-family="Helvetica,sans-Serif" font-size="10.00">userver/server/component.hpp</text>
</a>
</g>
</g>
<!-- Node20&#45;&gt;Node21 -->
<g id="edge20_Node000020_Node000021" class="edge">
<title>Node20&#45;&gt;Node21</title>
<g id="a_edge20_Node000020_Node000021"><a xlink:title=" ">
<path fill="none" stroke="#63b8ff" d="M1123,-66.71C1123,-53 1123,-35.05 1123,-24.59"/>
<polygon fill="#63b8ff" stroke="#63b8ff" points="1119.5,-66.98 1123,-76.98 1126.5,-66.98 1119.5,-66.98"/>
</a>
</g>
</g>
<!-- Node23&#45;&gt;Node22 -->
<g id="edge26_Node000023_Node000022" class="edge">
<title>Node23&#45;&gt;Node22</title>
<g id="a_edge26_Node000023_Node000022"><a xlink:title=" ">
<path fill="none" stroke="#63b8ff" d="M1129.25,-223.01C1272.17,-203.19 1577.64,-158.7 1833,-107 1840.99,-105.38 1849.38,-103.52 1857.61,-101.6"/>
<polygon fill="#63b8ff" stroke="#63b8ff" points="1128.67,-219.55 1119.24,-224.39 1129.62,-226.49 1128.67,-219.55"/>
</a>
</g>
</g>
</g>
</svg>
