<?xml version="1.0" encoding="UTF-8" standalone="no"?>
<!DOCTYPE svg PUBLIC "-//W3C//DTD SVG 1.1//EN"
 "http://www.w3.org/Graphics/SVG/1.1/DTD/svg11.dtd">
<!-- Generated by graphviz version 2.43.0 (0)
 -->
<!-- Title: userver/components/tracer.hpp Pages: 1 -->
<svg width="294pt" height="159pt"
 viewBox="0.00 0.00 293.50 159.00" xmlns="http://www.w3.org/2000/svg" xmlns:xlink="http://www.w3.org/1999/xlink">
<g id="graph0" class="graph" transform="scale(1 1) rotate(0) translate(4 155)">
<title>userver/components/tracer.hpp</title>
<!-- Node1 -->
<g id="Node000001" class="node">
<title>Node1</title>
<g id="a_Node000001"><a xlink:title="Component that initializes the request tracing facilities.">
<polygon fill="#999999" stroke="#666666" points="193,-151 77,-151 77,-121 193,-121 193,-151"/>
<text text-anchor="start" x="85" y="-139" font-family="Helvetica,sans-Serif" font-size="10.00">userver/components</text>
<text text-anchor="middle" x="135" y="-128" font-family="Helvetica,sans-Serif" font-size="10.00">/tracer.hpp</text>
</a>
</g>
</g>
<!-- Node2 -->
<g id="Node000002" class="node">
<title>Node2</title>
<g id="a_Node000002"><a xlink:href="../../d7/d47/component__fwd_8hpp.html" target="_top" xlink:title="Forward declarations for components::ComponentContext and components::ComponentConfig; function compo...">
<polygon fill="white" stroke="#666666" points="118,-85 0,-85 0,-55 118,-55 118,-85"/>
<text text-anchor="start" x="8" y="-73" font-family="Helvetica,sans-Serif" font-size="10.00">userver/components</text>
<text text-anchor="middle" x="59" y="-62" font-family="Helvetica,sans-Serif" font-size="10.00">/component_fwd.hpp</text>
</a>
</g>
</g>
<!-- Node1&#45;&gt;Node2 -->
<g id="edge1_Node000001_Node000002" class="edge">
<title>Node1&#45;&gt;Node2</title>
<g id="a_edge1_Node000001_Node000002"><a xlink:title=" ">
<path fill="none" stroke="#63b8ff" d="M118.13,-120.8C108,-112.26 94.92,-101.25 83.65,-91.75"/>
<polygon fill="#63b8ff" stroke="#63b8ff" points="85.72,-88.93 75.82,-85.16 81.21,-94.28 85.72,-88.93"/>
</a>
</g>
</g>
<!-- Node4 -->
<g id="Node000004" class="node">
<title>Node4</title>
<g id="a_Node000004"><a xlink:href="../../d2/d61/component__base_8hpp_source.html" target="_top" xlink:title=" ">
<polygon fill="white" stroke="#666666" points="285.5,-85 136.5,-85 136.5,-55 285.5,-55 285.5,-85"/>
<text text-anchor="start" x="144.5" y="-73" font-family="Helvetica,sans-Serif" font-size="10.00">userver/components</text>
<text text-anchor="middle" x="211" y="-62" font-family="Helvetica,sans-Serif" font-size="10.00">/impl/component_base.hpp</text>
</a>
</g>
</g>
<!-- Node1&#45;&gt;Node4 -->
<g id="edge3_Node000001_Node000004" class="edge">
<title>Node1&#45;&gt;Node4</title>
<g id="a_edge3_Node000001_Node000004"><a xlink:title=" ">
<path fill="none" stroke="#63b8ff" d="M151.87,-120.8C162,-112.26 175.08,-101.25 186.35,-91.75"/>
<polygon fill="#63b8ff" stroke="#63b8ff" points="188.79,-94.28 194.18,-85.16 184.28,-88.93 188.79,-94.28"/>
</a>
</g>
</g>
<!-- Node3 -->
<g id="Node000003" class="node">
<title>Node3</title>
<g id="a_Node000003"><a xlink:title=" ">
<polygon fill="#e0e0e0" stroke="#999999" points="81,-19 37,-19 37,0 81,0 81,-19"/>
<text text-anchor="middle" x="59" y="-7" font-family="Helvetica,sans-Serif" font-size="10.00">string</text>
</a>
</g>
</g>
<!-- Node2&#45;&gt;Node3 -->
<g id="edge2_Node000002_Node000003" class="edge">
<title>Node2&#45;&gt;Node3</title>
<g id="a_edge2_Node000002_Node000003"><a xlink:title=" ">
<path fill="none" stroke="#63b8ff" d="M59,-54.84C59,-47.21 59,-37.7 59,-29.45"/>
<polygon fill="#63b8ff" stroke="#63b8ff" points="62.5,-29.27 59,-19.27 55.5,-29.27 62.5,-29.27"/>
</a>
</g>
</g>
</g>
</svg>
