<?xml version="1.0" encoding="UTF-8" standalone="no"?>
<!DOCTYPE svg PUBLIC "-//W3C//DTD SVG 1.1//EN"
 "http://www.w3.org/Graphics/SVG/1.1/DTD/svg11.dtd">
<!-- Generated by graphviz version 2.43.0 (0)
 -->
<!-- Title: userver/storages/secdist/provider.hpp Pages: 1 -->
<svg width="473pt" height="302pt"
 viewBox="0.00 0.00 473.00 302.00" xmlns="http://www.w3.org/2000/svg" xmlns:xlink="http://www.w3.org/1999/xlink">
<g id="graph0" class="graph" transform="scale(1 1) rotate(0) translate(4 298)">
<title>userver/storages/secdist/provider.hpp</title>
<!-- Node1 -->
<g id="Node000001" class="node">
<title>Node1</title>
<g id="a_Node000001"><a xlink:title=" ">
<polygon fill="#999999" stroke="#666666" points="200.5,-294 64.5,-294 64.5,-264 200.5,-264 200.5,-294"/>
<text text-anchor="start" x="72.5" y="-282" font-family="Helvetica,sans-Serif" font-size="10.00">userver/storages/secdist</text>
<text text-anchor="middle" x="132.5" y="-271" font-family="Helvetica,sans-Serif" font-size="10.00">/provider.hpp</text>
</a>
</g>
</g>
<!-- Node2 -->
<g id="Node000002" class="node">
<title>Node2</title>
<g id="a_Node000002"><a xlink:href="../../dd/d8c/provider__component_8hpp_source.html" target="_top" xlink:title=" ">
<polygon fill="white" stroke="#666666" points="155,-162 14,-162 14,-132 155,-132 155,-162"/>
<text text-anchor="start" x="22" y="-150" font-family="Helvetica,sans-Serif" font-size="10.00">userver/storages/secdist</text>
<text text-anchor="middle" x="84.5" y="-139" font-family="Helvetica,sans-Serif" font-size="10.00">/provider_component.hpp</text>
</a>
</g>
</g>
<!-- Node1&#45;&gt;Node2 -->
<g id="edge1_Node000001_Node000002" class="edge">
<title>Node1&#45;&gt;Node2</title>
<g id="a_edge1_Node000001_Node000002"><a xlink:title=" ">
<path fill="none" stroke="#63b8ff" d="M117.28,-255.01C112.33,-246.76 107.17,-237.21 103.5,-228 94.67,-205.86 89.28,-178.56 86.59,-162.25"/>
<polygon fill="#63b8ff" stroke="#63b8ff" points="114.43,-257.06 122.69,-263.7 120.37,-253.36 114.43,-257.06"/>
</a>
</g>
</g>
<!-- Node3 -->
<g id="Node000003" class="node">
<title>Node3</title>
<g id="a_Node000003"><a xlink:href="../../dd/d27/secdist_8hpp.html" target="_top" xlink:title="Client to retrieve credentials from the components::Secdist.">
<polygon fill="white" stroke="#666666" points="248.5,-228 112.5,-228 112.5,-198 248.5,-198 248.5,-228"/>
<text text-anchor="start" x="120.5" y="-216" font-family="Helvetica,sans-Serif" font-size="10.00">userver/storages/secdist</text>
<text text-anchor="middle" x="180.5" y="-205" font-family="Helvetica,sans-Serif" font-size="10.00">/secdist.hpp</text>
</a>
</g>
</g>
<!-- Node1&#45;&gt;Node3 -->
<g id="edge2_Node000001_Node000003" class="edge">
<title>Node1&#45;&gt;Node3</title>
<g id="a_edge2_Node000001_Node000003"><a xlink:title=" ">
<path fill="none" stroke="#63b8ff" d="M149.36,-255.53C156.18,-246.43 163.85,-236.19 169.88,-228.16"/>
<polygon fill="#63b8ff" stroke="#63b8ff" points="146.35,-253.7 143.15,-263.8 151.95,-257.9 146.35,-253.7"/>
</a>
</g>
</g>
<!-- Node3&#45;&gt;Node2 -->
<g id="edge8_Node000003_Node000002" class="edge">
<title>Node3&#45;&gt;Node2</title>
<g id="a_edge8_Node000003_Node000002"><a xlink:title=" ">
<path fill="none" stroke="#63b8ff" d="M150.54,-192.03C136.01,-182.34 118.91,-170.94 105.75,-162.16"/>
<polygon fill="#63b8ff" stroke="#63b8ff" points="148.93,-195.16 159.19,-197.8 152.82,-189.34 148.93,-195.16"/>
</a>
</g>
</g>
<!-- Node4 -->
<g id="Node000004" class="node">
<title>Node4</title>
<g id="a_Node000004"><a xlink:href="../../dd/d60/core_2include_2userver_2storages_2secdist_2component_8hpp.html" target="_top" xlink:title="Component that stores security related data (keys, passwords, ...).">
<polygon fill="white" stroke="#666666" points="309.5,-162 173.5,-162 173.5,-132 309.5,-132 309.5,-162"/>
<text text-anchor="start" x="181.5" y="-150" font-family="Helvetica,sans-Serif" font-size="10.00">userver/storages/secdist</text>
<text text-anchor="middle" x="241.5" y="-139" font-family="Helvetica,sans-Serif" font-size="10.00">/component.hpp</text>
</a>
</g>
</g>
<!-- Node3&#45;&gt;Node4 -->
<g id="edge3_Node000003_Node000004" class="edge">
<title>Node3&#45;&gt;Node4</title>
<g id="a_edge3_Node000003_Node000004"><a xlink:title=" ">
<path fill="none" stroke="#63b8ff" d="M201.12,-190.37C209.99,-181.06 220.11,-170.44 228,-162.16"/>
<polygon fill="#63b8ff" stroke="#63b8ff" points="198.4,-188.14 194.04,-197.8 203.47,-192.97 198.4,-188.14"/>
</a>
</g>
</g>
<!-- Node5 -->
<g id="Node000005" class="node">
<title>Node5</title>
<g id="a_Node000005"><a xlink:href="../../da/db3/auth__checker__settings__component_8hpp.html" target="_top" xlink:title="Component that loads auth configuration settings from a components::Secdist component if the latter w...">
<polygon fill="white" stroke="#666666" points="153,-96 0,-96 0,-55 153,-55 153,-96"/>
<text text-anchor="start" x="8" y="-84" font-family="Helvetica,sans-Serif" font-size="10.00">userver/server/handlers</text>
<text text-anchor="start" x="8" y="-73" font-family="Helvetica,sans-Serif" font-size="10.00">/auth/auth_checker_settings</text>
<text text-anchor="middle" x="76.5" y="-62" font-family="Helvetica,sans-Serif" font-size="10.00">_component.hpp</text>
</a>
</g>
</g>
<!-- Node4&#45;&gt;Node5 -->
<g id="edge4_Node000004_Node000005" class="edge">
<title>Node4&#45;&gt;Node5</title>
<g id="a_edge4_Node000004_Node000005"><a xlink:title=" ">
<path fill="none" stroke="#63b8ff" d="M198.84,-128.03C175.59,-118.24 146.79,-106.11 122.97,-96.07"/>
<polygon fill="#63b8ff" stroke="#63b8ff" points="197.54,-131.28 208.11,-131.94 200.25,-124.83 197.54,-131.28"/>
</a>
</g>
</g>
<!-- Node6 -->
<g id="Node000006" class="node">
<title>Node6</title>
<g id="a_Node000006"><a xlink:href="../../d8/d82/core_2include_2userver_2server_2server_8hpp_source.html" target="_top" xlink:title=" ">
<polygon fill="white" stroke="#666666" points="312,-85 171,-85 171,-66 312,-66 312,-85"/>
<text text-anchor="middle" x="241.5" y="-73" font-family="Helvetica,sans-Serif" font-size="10.00">userver/server/server.hpp</text>
</a>
</g>
</g>
<!-- Node4&#45;&gt;Node6 -->
<g id="edge5_Node000004_Node000006" class="edge">
<title>Node4&#45;&gt;Node6</title>
<g id="a_edge5_Node000004_Node000006"><a xlink:title=" ">
<path fill="none" stroke="#63b8ff" d="M241.5,-121.56C241.5,-108.95 241.5,-94.35 241.5,-85.27"/>
<polygon fill="#63b8ff" stroke="#63b8ff" points="238,-121.94 241.5,-131.94 245,-121.94 238,-121.94"/>
</a>
</g>
</g>
<!-- Node8 -->
<g id="Node000008" class="node">
<title>Node8</title>
<g id="a_Node000008"><a xlink:href="../../d1/dd7/mongo_2include_2userver_2storages_2mongo_2component_8hpp.html" target="_top" xlink:title="MongoDB client component.">
<polygon fill="white" stroke="#666666" points="465,-90.5 330,-90.5 330,-60.5 465,-60.5 465,-90.5"/>
<text text-anchor="start" x="338" y="-78.5" font-family="Helvetica,sans-Serif" font-size="10.00">userver/storages/mongo</text>
<text text-anchor="middle" x="397.5" y="-67.5" font-family="Helvetica,sans-Serif" font-size="10.00">/component.hpp</text>
</a>
</g>
</g>
<!-- Node4&#45;&gt;Node8 -->
<g id="edge7_Node000004_Node000008" class="edge">
<title>Node4&#45;&gt;Node8</title>
<g id="a_edge7_Node000004_Node000008"><a xlink:title=" ">
<path fill="none" stroke="#63b8ff" d="M282.34,-127.81C308.48,-116.16 341.89,-101.28 365.98,-90.54"/>
<polygon fill="#63b8ff" stroke="#63b8ff" points="280.78,-124.67 273.07,-131.94 283.63,-131.06 280.78,-124.67"/>
</a>
</g>
</g>
<!-- Node7 -->
<g id="Node000007" class="node">
<title>Node7</title>
<g id="a_Node000007"><a xlink:href="../../d3/ddd/core_2include_2userver_2server_2component_8hpp.html" target="_top" xlink:title="Component that listens for incoming requests, manages incoming connections and passes the requests to...">
<polygon fill="white" stroke="#666666" points="324.5,-19 158.5,-19 158.5,0 324.5,0 324.5,-19"/>
<text text-anchor="middle" x="241.5" y="-7" font-family="Helvetica,sans-Serif" font-size="10.00">userver/server/component.hpp</text>
</a>
</g>
</g>
<!-- Node6&#45;&gt;Node7 -->
<g id="edge6_Node000006_Node000007" class="edge">
<title>Node6&#45;&gt;Node7</title>
<g id="a_edge6_Node000006_Node000007"><a xlink:title=" ">
<path fill="none" stroke="#63b8ff" d="M241.5,-55.58C241.5,-43.63 241.5,-28.72 241.5,-19.41"/>
<polygon fill="#63b8ff" stroke="#63b8ff" points="238,-55.87 241.5,-65.87 245,-55.87 238,-55.87"/>
</a>
</g>
</g>
</g>
</svg>
