<?xml version="1.0" encoding="UTF-8" standalone="no"?>
<!DOCTYPE svg PUBLIC "-//W3C//DTD SVG 1.1//EN"
 "http://www.w3.org/Graphics/SVG/1.1/DTD/svg11.dtd">
<!-- Generated by graphviz version 2.43.0 (0)
 -->
<!-- Title: userver/server/http/http_response.hpp Pages: 1 -->
<svg width="1992pt" height="401pt"
 viewBox="0.00 0.00 1992.00 401.00" xmlns="http://www.w3.org/2000/svg" xmlns:xlink="http://www.w3.org/1999/xlink">
<g id="graph0" class="graph" transform="scale(1 1) rotate(0) translate(4 397)">
<title>userver/server/http/http_response.hpp</title>
<!-- Node1 -->
<g id="Node000001" class="node">
<title>Node1</title>
<g id="a_Node000001"><a xlink:title="HTTP Response data.">
<polygon fill="#999999" stroke="#666666" points="376,-393 266,-393 266,-363 376,-363 376,-393"/>
<text text-anchor="start" x="274" y="-381" font-family="Helvetica,sans-Serif" font-size="10.00">userver/server/http</text>
<text text-anchor="middle" x="321" y="-370" font-family="Helvetica,sans-Serif" font-size="10.00">/http_response.hpp</text>
</a>
</g>
</g>
<!-- Node2 -->
<g id="Node000002" class="node">
<title>Node2</title>
<g id="a_Node000002"><a xlink:href="../../de/d82/digest_2auth__checker__base_8hpp.html" target="_top" xlink:title="Base class for digest authentication checkers. Implements a digest&#45;authentication logic.">
<polygon fill="white" stroke="#666666" points="293,-184 151,-184 151,-143 293,-143 293,-184"/>
<text text-anchor="start" x="159" y="-172" font-family="Helvetica,sans-Serif" font-size="10.00">userver/server/handlers</text>
<text text-anchor="start" x="159" y="-161" font-family="Helvetica,sans-Serif" font-size="10.00">/auth/digest/auth_checker</text>
<text text-anchor="middle" x="222" y="-150" font-family="Helvetica,sans-Serif" font-size="10.00">_base.hpp</text>
</a>
</g>
</g>
<!-- Node1&#45;&gt;Node2 -->
<g id="edge1_Node000001_Node000002" class="edge">
<title>Node1&#45;&gt;Node2</title>
<g id="a_edge1_Node000001_Node000002"><a xlink:title=" ">
<path fill="none" stroke="#63b8ff" d="M289.1,-357.1C277.83,-348.87 265.78,-338.53 257,-327 234.55,-297.51 232.89,-286.21 225,-250 220.16,-227.8 220.04,-201.59 220.72,-184.1"/>
<polygon fill="#63b8ff" stroke="#63b8ff" points="287.31,-360.12 297.51,-362.98 291.32,-354.38 287.31,-360.12"/>
</a>
</g>
</g>
<!-- Node3 -->
<g id="Node000003" class="node">
<title>Node3</title>
<g id="a_Node000003"><a xlink:href="../../db/df0/standalone__checker_8hpp.html" target="_top" xlink:title="Class for digest authentication checker. Implements a stand&#45;alone digest&#45;authentication logic.">
<polygon fill="white" stroke="#666666" points="132,-107 0,-107 0,-66 132,-66 132,-107"/>
<text text-anchor="start" x="8" y="-95" font-family="Helvetica,sans-Serif" font-size="10.00">userver/server/handlers</text>
<text text-anchor="start" x="8" y="-84" font-family="Helvetica,sans-Serif" font-size="10.00">/auth/digest/standalone</text>
<text text-anchor="middle" x="66" y="-73" font-family="Helvetica,sans-Serif" font-size="10.00">_checker.hpp</text>
</a>
</g>
</g>
<!-- Node1&#45;&gt;Node3 -->
<g id="edge3_Node000001_Node000003" class="edge">
<title>Node1&#45;&gt;Node3</title>
<g id="a_edge3_Node000001_Node000003"><a xlink:title=" ">
<path fill="none" stroke="#63b8ff" d="M279.7,-358.16C263.42,-349.77 245.05,-339.06 230,-327 163.89,-274.04 148.18,-256.27 104,-184 88.88,-159.27 77.75,-127.48 71.57,-107.29"/>
<polygon fill="#63b8ff" stroke="#63b8ff" points="278.5,-361.47 289.01,-362.82 281.63,-355.21 278.5,-361.47"/>
</a>
</g>
</g>
<!-- Node4 -->
<g id="Node000004" class="node">
<title>Node4</title>
<g id="a_Node000004"><a xlink:href="../../d4/df6/http__handler__base_8hpp.html" target="_top" xlink:title="Base class for all the Userver HTTP Handlers.">
<polygon fill="white" stroke="#666666" points="892,-178.5 760,-178.5 760,-148.5 892,-148.5 892,-178.5"/>
<text text-anchor="start" x="768" y="-166.5" font-family="Helvetica,sans-Serif" font-size="10.00">userver/server/handlers</text>
<text text-anchor="middle" x="826" y="-155.5" font-family="Helvetica,sans-Serif" font-size="10.00">/http_handler_base.hpp</text>
</a>
</g>
</g>
<!-- Node1&#45;&gt;Node4 -->
<g id="edge4_Node000001_Node000004" class="edge">
<title>Node1&#45;&gt;Node4</title>
<g id="a_edge4_Node000001_Node000004"><a xlink:title=" ">
<path fill="none" stroke="#63b8ff" d="M363.89,-358.95C462.51,-317.45 703.71,-215.96 792.49,-178.6"/>
<polygon fill="#63b8ff" stroke="#63b8ff" points="362.39,-355.79 354.53,-362.89 365.1,-362.24 362.39,-355.79"/>
</a>
</g>
</g>
<!-- Node20 -->
<g id="Node000020" class="node">
<title>Node20</title>
<g id="a_Node000020"><a xlink:href="../../d2/d45/http__request_8hpp.html" target="_top" xlink:title="HTTP Request data.">
<polygon fill="white" stroke="#666666" points="376,-321.5 266,-321.5 266,-291.5 376,-291.5 376,-321.5"/>
<text text-anchor="start" x="274" y="-309.5" font-family="Helvetica,sans-Serif" font-size="10.00">userver/server/http</text>
<text text-anchor="middle" x="321" y="-298.5" font-family="Helvetica,sans-Serif" font-size="10.00">/http_request.hpp</text>
</a>
</g>
</g>
<!-- Node1&#45;&gt;Node20 -->
<g id="edge20_Node000001_Node000020" class="edge">
<title>Node1&#45;&gt;Node20</title>
<g id="a_edge20_Node000001_Node000020"><a xlink:title=" ">
<path fill="none" stroke="#63b8ff" d="M321,-352.75C321,-342.31 321,-330.49 321,-321.54"/>
<polygon fill="#63b8ff" stroke="#63b8ff" points="317.5,-352.94 321,-362.94 324.5,-352.94 317.5,-352.94"/>
</a>
</g>
</g>
<!-- Node24 -->
<g id="Node000024" class="node">
<title>Node24</title>
<g id="a_Node000024"><a xlink:href="../../d8/d76/http__response__body__stream_8hpp_source.html" target="_top" xlink:title=" ">
<polygon fill="white" stroke="#666666" points="780,-327 662,-327 662,-286 780,-286 780,-327"/>
<text text-anchor="start" x="670" y="-315" font-family="Helvetica,sans-Serif" font-size="10.00">userver/server/http</text>
<text text-anchor="start" x="670" y="-304" font-family="Helvetica,sans-Serif" font-size="10.00">/http_response_body</text>
<text text-anchor="middle" x="721" y="-293" font-family="Helvetica,sans-Serif" font-size="10.00">_stream.hpp</text>
</a>
</g>
</g>
<!-- Node1&#45;&gt;Node24 -->
<g id="edge30_Node000001_Node000024" class="edge">
<title>Node1&#45;&gt;Node24</title>
<g id="a_edge30_Node000001_Node000024"><a xlink:title=" ">
<path fill="none" stroke="#63b8ff" d="M386.3,-369.15C452.57,-360.69 557.96,-345.85 648,-327 652.49,-326.06 657.12,-325.01 661.77,-323.9"/>
<polygon fill="#63b8ff" stroke="#63b8ff" points="385.49,-365.73 376,-370.46 386.37,-372.67 385.49,-365.73"/>
</a>
</g>
</g>
<!-- Node2&#45;&gt;Node3 -->
<g id="edge2_Node000002_Node000003" class="edge">
<title>Node2&#45;&gt;Node3</title>
<g id="a_edge2_Node000002_Node000003"><a xlink:title=" ">
<path fill="none" stroke="#63b8ff" d="M172.26,-138.59C151.09,-128.41 126.71,-116.69 106.65,-107.04"/>
<polygon fill="#63b8ff" stroke="#63b8ff" points="170.89,-141.81 181.42,-142.99 173.92,-135.5 170.89,-141.81"/>
</a>
</g>
</g>
<!-- Node5 -->
<g id="Node000005" class="node">
<title>Node5</title>
<g id="a_Node000005"><a xlink:href="../../d6/d0d/dns__client__control_8hpp.html" target="_top" xlink:title="Handlers that controls the DNS client.">
<polygon fill="white" stroke="#666666" points="1352,-101.5 1220,-101.5 1220,-71.5 1352,-71.5 1352,-101.5"/>
<text text-anchor="start" x="1228" y="-89.5" font-family="Helvetica,sans-Serif" font-size="10.00">userver/server/handlers</text>
<text text-anchor="middle" x="1286" y="-78.5" font-family="Helvetica,sans-Serif" font-size="10.00">/dns_client_control.hpp</text>
</a>
</g>
</g>
<!-- Node4&#45;&gt;Node5 -->
<g id="edge5_Node000004_Node000005" class="edge">
<title>Node4&#45;&gt;Node5</title>
<g id="a_edge5_Node000004_Node000005"><a xlink:title=" ">
<path fill="none" stroke="#63b8ff" d="M902.34,-154.03C980.33,-144.79 1104.72,-128.41 1211,-107 1218.78,-105.43 1226.96,-103.55 1234.94,-101.59"/>
<polygon fill="#63b8ff" stroke="#63b8ff" points="901.64,-150.59 892.12,-155.24 902.46,-157.54 901.64,-150.59"/>
</a>
</g>
</g>
<!-- Node6 -->
<g id="Node000006" class="node">
<title>Node6</title>
<g id="a_Node000006"><a xlink:href="../../d6/dc0/dynamic__debug__log_8hpp.html" target="_top" xlink:title="HTTP Handler to show/hide logs at the specific file:line.">
<polygon fill="white" stroke="#666666" points="1508,-101.5 1370,-101.5 1370,-71.5 1508,-71.5 1508,-101.5"/>
<text text-anchor="start" x="1378" y="-89.5" font-family="Helvetica,sans-Serif" font-size="10.00">userver/server/handlers</text>
<text text-anchor="middle" x="1439" y="-78.5" font-family="Helvetica,sans-Serif" font-size="10.00">/dynamic_debug_log.hpp</text>
</a>
</g>
</g>
<!-- Node4&#45;&gt;Node6 -->
<g id="edge6_Node000004_Node000006" class="edge">
<title>Node4&#45;&gt;Node6</title>
<g id="a_edge6_Node000004_Node000006"><a xlink:title=" ">
<path fill="none" stroke="#63b8ff" d="M902.42,-157.99C1006.67,-151.06 1199.01,-135.5 1361,-107 1369.52,-105.5 1378.49,-103.58 1387.19,-101.54"/>
<polygon fill="#63b8ff" stroke="#63b8ff" points="902.06,-154.5 892.31,-158.65 902.52,-161.49 902.06,-154.5"/>
</a>
</g>
</g>
<!-- Node7 -->
<g id="Node000007" class="node">
<title>Node7</title>
<g id="a_Node000007"><a xlink:href="../../d5/d4d/http__handler__flatbuf__base_8hpp.html" target="_top" xlink:title="Convenient base for handlers that accept requests with body in Flatbuffer format and respond with bod...">
<polygon fill="white" stroke="#666666" points="1658,-107 1526,-107 1526,-66 1658,-66 1658,-107"/>
<text text-anchor="start" x="1534" y="-95" font-family="Helvetica,sans-Serif" font-size="10.00">userver/server/handlers</text>
<text text-anchor="start" x="1534" y="-84" font-family="Helvetica,sans-Serif" font-size="10.00">/http_handler_flatbuf</text>
<text text-anchor="middle" x="1592" y="-73" font-family="Helvetica,sans-Serif" font-size="10.00">_base.hpp</text>
</a>
</g>
</g>
<!-- Node4&#45;&gt;Node7 -->
<g id="edge7_Node000004_Node000007" class="edge">
<title>Node4&#45;&gt;Node7</title>
<g id="a_edge7_Node000004_Node000007"><a xlink:title=" ">
<path fill="none" stroke="#63b8ff" d="M902.3,-160.71C1030.23,-156.74 1295.74,-144.36 1517,-107 1519.92,-106.51 1522.89,-105.96 1525.88,-105.36"/>
<polygon fill="#63b8ff" stroke="#63b8ff" points="902.1,-157.21 892.21,-161.01 902.31,-164.21 902.1,-157.21"/>
</a>
</g>
</g>
<!-- Node8 -->
<g id="Node000008" class="node">
<title>Node8</title>
<g id="a_Node000008"><a xlink:href="../../d1/d58/http__handler__json__base_8hpp.html" target="_top" xlink:title="Convenient base for handlers that accept requests with body in JSON format and respond with body in J...">
<polygon fill="white" stroke="#666666" points="1832,-101.5 1676,-101.5 1676,-71.5 1832,-71.5 1832,-101.5"/>
<text text-anchor="start" x="1684" y="-89.5" font-family="Helvetica,sans-Serif" font-size="10.00">userver/server/handlers</text>
<text text-anchor="middle" x="1754" y="-78.5" font-family="Helvetica,sans-Serif" font-size="10.00">/http_handler_json_base.hpp</text>
</a>
</g>
</g>
<!-- Node4&#45;&gt;Node8 -->
<g id="edge8_Node000004_Node000008" class="edge">
<title>Node4&#45;&gt;Node8</title>
<g id="a_edge8_Node000004_Node000008"><a xlink:title=" ">
<path fill="none" stroke="#63b8ff" d="M902.4,-161.4C1050.6,-158.41 1387.14,-147.35 1667,-107 1676.81,-105.59 1687.15,-103.66 1697.14,-101.57"/>
<polygon fill="#63b8ff" stroke="#63b8ff" points="901.99,-157.91 892.06,-161.61 902.12,-164.91 901.99,-157.91"/>
</a>
</g>
</g>
<!-- Node11 -->
<g id="Node000011" class="node">
<title>Node11</title>
<g id="a_Node000011"><a xlink:href="../../dd/db6/http__handler__static_8hpp.html" target="_top" xlink:title="Handler that returns HTTP 200 if file exist and returns file data with mapped content/type.">
<polygon fill="white" stroke="#666666" points="1984,-101.5 1850,-101.5 1850,-71.5 1984,-71.5 1984,-101.5"/>
<text text-anchor="start" x="1858" y="-89.5" font-family="Helvetica,sans-Serif" font-size="10.00">userver/server/handlers</text>
<text text-anchor="middle" x="1917" y="-78.5" font-family="Helvetica,sans-Serif" font-size="10.00">/http_handler_static.hpp</text>
</a>
</g>
</g>
<!-- Node4&#45;&gt;Node11 -->
<g id="edge11_Node000004_Node000011" class="edge">
<title>Node4&#45;&gt;Node11</title>
<g id="a_edge11_Node000004_Node000011"><a xlink:title=" ">
<path fill="none" stroke="#63b8ff" d="M902.01,-160.28C1105.61,-154.03 1660.04,-134.88 1841,-107 1849.89,-105.63 1859.24,-103.67 1868.23,-101.52"/>
<polygon fill="#63b8ff" stroke="#63b8ff" points="901.89,-156.78 892,-160.59 902.11,-163.78 901.89,-156.78"/>
</a>
</g>
</g>
<!-- Node12 -->
<g id="Node000012" class="node">
<title>Node12</title>
<g id="a_Node000012"><a xlink:href="../../d5/d86/jemalloc_8hpp.html" target="_top" xlink:title="Handler that controls the jemalloc allocator.">
<polygon fill="white" stroke="#666666" points="442,-101.5 310,-101.5 310,-71.5 442,-71.5 442,-101.5"/>
<text text-anchor="start" x="318" y="-89.5" font-family="Helvetica,sans-Serif" font-size="10.00">userver/server/handlers</text>
<text text-anchor="middle" x="376" y="-78.5" font-family="Helvetica,sans-Serif" font-size="10.00">/jemalloc.hpp</text>
</a>
</g>
</g>
<!-- Node4&#45;&gt;Node12 -->
<g id="edge12_Node000004_Node000012" class="edge">
<title>Node4&#45;&gt;Node12</title>
<g id="a_edge12_Node000004_Node000012"><a xlink:title=" ">
<path fill="none" stroke="#63b8ff" d="M749.95,-153.68C673.89,-144.29 553.77,-127.9 451,-107 443.22,-105.42 435.04,-103.53 427.07,-101.56"/>
<polygon fill="#63b8ff" stroke="#63b8ff" points="749.57,-157.16 759.92,-154.9 750.42,-150.21 749.57,-157.16"/>
</a>
</g>
</g>
<!-- Node13 -->
<g id="Node000013" class="node">
<title>Node13</title>
<g id="a_Node000013"><a xlink:href="../../d0/d01/log__level_8hpp.html" target="_top" xlink:title="Handler that controls logging levels of all the loggers.">
<polygon fill="white" stroke="#666666" points="592,-101.5 460,-101.5 460,-71.5 592,-71.5 592,-101.5"/>
<text text-anchor="start" x="468" y="-89.5" font-family="Helvetica,sans-Serif" font-size="10.00">userver/server/handlers</text>
<text text-anchor="middle" x="526" y="-78.5" font-family="Helvetica,sans-Serif" font-size="10.00">/log_level.hpp</text>
</a>
</g>
</g>
<!-- Node4&#45;&gt;Node13 -->
<g id="edge13_Node000004_Node000013" class="edge">
<title>Node4&#45;&gt;Node13</title>
<g id="a_edge13_Node000004_Node000013"><a xlink:title=" ">
<path fill="none" stroke="#63b8ff" d="M758.27,-146.03C713.58,-135.1 653.76,-120.36 601,-107 594.09,-105.25 586.82,-103.39 579.65,-101.54"/>
<polygon fill="#63b8ff" stroke="#63b8ff" points="757.6,-149.47 768.15,-148.44 759.26,-142.67 757.6,-149.47"/>
</a>
</g>
</g>
<!-- Node14 -->
<g id="Node000014" class="node">
<title>Node14</title>
<g id="a_Node000014"><a xlink:href="../../d7/d72/on__log__rotate_8hpp.html" target="_top" xlink:title="Handler that controls logging levels of all the loggers.">
<polygon fill="white" stroke="#666666" points="742,-101.5 610,-101.5 610,-71.5 742,-71.5 742,-101.5"/>
<text text-anchor="start" x="618" y="-89.5" font-family="Helvetica,sans-Serif" font-size="10.00">userver/server/handlers</text>
<text text-anchor="middle" x="676" y="-78.5" font-family="Helvetica,sans-Serif" font-size="10.00">/on_log_rotate.hpp</text>
</a>
</g>
</g>
<!-- Node4&#45;&gt;Node14 -->
<g id="edge14_Node000004_Node000014" class="edge">
<title>Node4&#45;&gt;Node14</title>
<g id="a_edge14_Node000004_Node000014"><a xlink:title=" ">
<path fill="none" stroke="#63b8ff" d="M788.54,-143.77C762.35,-130.68 727.93,-113.47 704.09,-101.54"/>
<polygon fill="#63b8ff" stroke="#63b8ff" points="787.28,-147.05 797.79,-148.39 790.41,-140.79 787.28,-147.05"/>
</a>
</g>
</g>
<!-- Node15 -->
<g id="Node000015" class="node">
<title>Node15</title>
<g id="a_Node000015"><a xlink:href="../../d8/d39/ping_8hpp.html" target="_top" xlink:title="Handler that returns HTTP 200 if the service is OK and able to process requests.">
<polygon fill="white" stroke="#666666" points="892,-101.5 760,-101.5 760,-71.5 892,-71.5 892,-101.5"/>
<text text-anchor="start" x="768" y="-89.5" font-family="Helvetica,sans-Serif" font-size="10.00">userver/server/handlers</text>
<text text-anchor="middle" x="826" y="-78.5" font-family="Helvetica,sans-Serif" font-size="10.00">/ping.hpp</text>
</a>
</g>
</g>
<!-- Node4&#45;&gt;Node15 -->
<g id="edge15_Node000004_Node000015" class="edge">
<title>Node4&#45;&gt;Node15</title>
<g id="a_edge15_Node000004_Node000015"><a xlink:title=" ">
<path fill="none" stroke="#63b8ff" d="M826,-138.04C826,-125.95 826,-111.79 826,-101.54"/>
<polygon fill="#63b8ff" stroke="#63b8ff" points="822.5,-138.39 826,-148.39 829.5,-138.39 822.5,-138.39"/>
</a>
</g>
</g>
<!-- Node16 -->
<g id="Node000016" class="node">
<title>Node16</title>
<g id="a_Node000016"><a xlink:href="../../de/d18/server__monitor_8hpp.html" target="_top" xlink:title="Handler that returns statistics data.">
<polygon fill="white" stroke="#666666" points="1042,-101.5 910,-101.5 910,-71.5 1042,-71.5 1042,-101.5"/>
<text text-anchor="start" x="918" y="-89.5" font-family="Helvetica,sans-Serif" font-size="10.00">userver/server/handlers</text>
<text text-anchor="middle" x="976" y="-78.5" font-family="Helvetica,sans-Serif" font-size="10.00">/server_monitor.hpp</text>
</a>
</g>
</g>
<!-- Node4&#45;&gt;Node16 -->
<g id="edge16_Node000004_Node000016" class="edge">
<title>Node4&#45;&gt;Node16</title>
<g id="a_edge16_Node000004_Node000016"><a xlink:title=" ">
<path fill="none" stroke="#63b8ff" d="M863.46,-143.77C889.65,-130.68 924.07,-113.47 947.91,-101.54"/>
<polygon fill="#63b8ff" stroke="#63b8ff" points="861.59,-140.79 854.21,-148.39 864.72,-147.05 861.59,-140.79"/>
</a>
</g>
</g>
<!-- Node17 -->
<g id="Node000017" class="node">
<title>Node17</title>
<g id="a_Node000017"><a xlink:href="../../d8/d82/core_2include_2userver_2server_2server_8hpp_source.html" target="_top" xlink:title=" ">
<polygon fill="white" stroke="#666666" points="1201.5,-96 1060.5,-96 1060.5,-77 1201.5,-77 1201.5,-96"/>
<text text-anchor="middle" x="1131" y="-84" font-family="Helvetica,sans-Serif" font-size="10.00">userver/server/server.hpp</text>
</a>
</g>
</g>
<!-- Node4&#45;&gt;Node17 -->
<g id="edge17_Node000004_Node000017" class="edge">
<title>Node4&#45;&gt;Node17</title>
<g id="a_edge17_Node000004_Node000017"><a xlink:title=" ">
<path fill="none" stroke="#63b8ff" d="M892.81,-146.07C955.48,-130.66 1046.73,-108.22 1096.12,-96.08"/>
<polygon fill="#63b8ff" stroke="#63b8ff" points="891.89,-142.69 883.01,-148.48 893.56,-149.49 891.89,-142.69"/>
</a>
</g>
</g>
<!-- Node19 -->
<g id="Node000019" class="node">
<title>Node19</title>
<g id="a_Node000019"><a xlink:href="../../d4/d64/websocket__handler_8hpp.html" target="_top" xlink:title=" ">
<polygon fill="white" stroke="#666666" points="292,-101.5 150,-101.5 150,-71.5 292,-71.5 292,-101.5"/>
<text text-anchor="start" x="158" y="-89.5" font-family="Helvetica,sans-Serif" font-size="10.00">userver/server/websocket</text>
<text text-anchor="middle" x="221" y="-78.5" font-family="Helvetica,sans-Serif" font-size="10.00">/websocket_handler.hpp</text>
</a>
</g>
</g>
<!-- Node4&#45;&gt;Node19 -->
<g id="edge19_Node000004_Node000019" class="edge">
<title>Node4&#45;&gt;Node19</title>
<g id="a_edge19_Node000004_Node000019"><a xlink:title=" ">
<path fill="none" stroke="#63b8ff" d="M749.56,-155.69C625.37,-144.41 385.21,-121.65 301,-107 292.27,-105.48 283.07,-103.55 274.15,-101.51"/>
<polygon fill="#63b8ff" stroke="#63b8ff" points="749.48,-159.2 759.75,-156.61 750.11,-152.22 749.48,-159.2"/>
</a>
</g>
</g>
<!-- Node9 -->
<g id="Node000009" class="node">
<title>Node9</title>
<g id="a_Node000009"><a xlink:href="../../d7/d79/inspect__requests_8hpp.html" target="_top" xlink:title="Handler that returns information about all in&#45;flight requests.">
<polygon fill="white" stroke="#666666" points="1895,-30 1763,-30 1763,0 1895,0 1895,-30"/>
<text text-anchor="start" x="1771" y="-18" font-family="Helvetica,sans-Serif" font-size="10.00">userver/server/handlers</text>
<text text-anchor="middle" x="1829" y="-7" font-family="Helvetica,sans-Serif" font-size="10.00">/inspect_requests.hpp</text>
</a>
</g>
</g>
<!-- Node8&#45;&gt;Node9 -->
<g id="edge9_Node000008_Node000009" class="edge">
<title>Node8&#45;&gt;Node9</title>
<g id="a_edge9_Node000008_Node000009"><a xlink:title=" ">
<path fill="none" stroke="#63b8ff" d="M1776.67,-64.49C1788.71,-53.34 1803.18,-39.93 1813.85,-30.04"/>
<polygon fill="#63b8ff" stroke="#63b8ff" points="1774.13,-62.07 1769.18,-71.44 1778.89,-67.21 1774.13,-62.07"/>
</a>
</g>
</g>
<!-- Node10 -->
<g id="Node000010" class="node">
<title>Node10</title>
<g id="a_Node000010"><a xlink:href="../../d6/d43/tests__control_8hpp.html" target="_top" xlink:title="Handler that allows to control the behavior of server from tests, and functional tests with testsuite...">
<polygon fill="white" stroke="#666666" points="1745,-30 1613,-30 1613,0 1745,0 1745,-30"/>
<text text-anchor="start" x="1621" y="-18" font-family="Helvetica,sans-Serif" font-size="10.00">userver/server/handlers</text>
<text text-anchor="middle" x="1679" y="-7" font-family="Helvetica,sans-Serif" font-size="10.00">/tests_control.hpp</text>
</a>
</g>
</g>
<!-- Node8&#45;&gt;Node10 -->
<g id="edge10_Node000008_Node000010" class="edge">
<title>Node8&#45;&gt;Node10</title>
<g id="a_edge10_Node000008_Node000010"><a xlink:title=" ">
<path fill="none" stroke="#63b8ff" d="M1731.33,-64.49C1719.29,-53.34 1704.82,-39.93 1694.15,-30.04"/>
<polygon fill="#63b8ff" stroke="#63b8ff" points="1729.11,-67.21 1738.82,-71.44 1733.87,-62.07 1729.11,-67.21"/>
</a>
</g>
</g>
<!-- Node18 -->
<g id="Node000018" class="node">
<title>Node18</title>
<g id="a_Node000018"><a xlink:href="../../d3/ddd/core_2include_2userver_2server_2component_8hpp.html" target="_top" xlink:title="Component that listens for incoming requests, manages incoming connections and passes the requests to...">
<polygon fill="white" stroke="#666666" points="1214,-24.5 1048,-24.5 1048,-5.5 1214,-5.5 1214,-24.5"/>
<text text-anchor="middle" x="1131" y="-12.5" font-family="Helvetica,sans-Serif" font-size="10.00">userver/server/component.hpp</text>
</a>
</g>
</g>
<!-- Node17&#45;&gt;Node18 -->
<g id="edge18_Node000017_Node000018" class="edge">
<title>Node17&#45;&gt;Node18</title>
<g id="a_edge18_Node000017_Node000018"><a xlink:title=" ">
<path fill="none" stroke="#63b8ff" d="M1131,-66.71C1131,-53 1131,-35.05 1131,-24.59"/>
<polygon fill="#63b8ff" stroke="#63b8ff" points="1127.5,-66.98 1131,-76.98 1134.5,-66.98 1127.5,-66.98"/>
</a>
</g>
</g>
<!-- Node20&#45;&gt;Node2 -->
<g id="edge25_Node000020_Node000002" class="edge">
<title>Node20&#45;&gt;Node2</title>
<g id="a_edge25_Node000020_Node000002"><a xlink:title=" ">
<path fill="none" stroke="#63b8ff" d="M281.42,-286.2C266.67,-277.13 251.07,-264.99 241,-250 227.69,-230.18 223.56,-202.51 222.35,-184.08"/>
<polygon fill="#63b8ff" stroke="#63b8ff" points="280.04,-289.44 290.45,-291.44 283.56,-283.39 280.04,-289.44"/>
</a>
</g>
</g>
<!-- Node20&#45;&gt;Node3 -->
<g id="edge26_Node000020_Node000003" class="edge">
<title>Node20&#45;&gt;Node3</title>
<g id="a_edge26_Node000020_Node000003"><a xlink:title=" ">
<path fill="none" stroke="#63b8ff" d="M285.34,-286.54C266.93,-276.33 244.33,-263.17 225,-250 186.05,-223.47 175.25,-217.4 142,-184 117.63,-159.51 93.67,-127.37 79.36,-107.07"/>
<polygon fill="#63b8ff" stroke="#63b8ff" points="283.83,-289.7 294.28,-291.44 287.2,-283.56 283.83,-289.7"/>
</a>
</g>
</g>
<!-- Node20&#45;&gt;Node4 -->
<g id="edge27_Node000020_Node000004" class="edge">
<title>Node20&#45;&gt;Node4</title>
<g id="a_edge27_Node000020_Node000004"><a xlink:title=" ">
<path fill="none" stroke="#63b8ff" d="M386.09,-298.6C439.18,-291.29 515.23,-276.95 577,-250 598.36,-240.68 598.88,-229.84 620,-220 664.65,-199.19 718.51,-185.02 759.95,-176.21"/>
<polygon fill="#63b8ff" stroke="#63b8ff" points="385.57,-295.14 376.12,-299.93 386.5,-302.08 385.57,-295.14"/>
</a>
</g>
</g>
<!-- Node21 -->
<g id="Node000021" class="node">
<title>Node21</title>
<g id="a_Node000021"><a xlink:href="../../da/dff/auth__checker__base_8hpp_source.html" target="_top" xlink:title=" ">
<polygon fill="white" stroke="#666666" points="568,-250 410,-250 410,-220 568,-220 568,-250"/>
<text text-anchor="start" x="418" y="-238" font-family="Helvetica,sans-Serif" font-size="10.00">userver/server/handlers</text>
<text text-anchor="middle" x="489" y="-227" font-family="Helvetica,sans-Serif" font-size="10.00">/auth/auth_checker_base.hpp</text>
</a>
</g>
</g>
<!-- Node20&#45;&gt;Node21 -->
<g id="edge21_Node000020_Node000021" class="edge">
<title>Node20&#45;&gt;Node21</title>
<g id="a_edge21_Node000020_Node000021"><a xlink:title=" ">
<path fill="none" stroke="#63b8ff" d="M364.24,-287.61C392.5,-275.92 428.88,-260.87 455.05,-250.04"/>
<polygon fill="#63b8ff" stroke="#63b8ff" points="362.9,-284.38 355,-291.44 365.58,-290.85 362.9,-284.38"/>
</a>
</g>
</g>
<!-- Node23 -->
<g id="Node000023" class="node">
<title>Node23</title>
<g id="a_Node000023"><a xlink:href="../../de/d4e/core_2include_2userver_2server_2websocket_2server_8hpp.html" target="_top" xlink:title=" ">
<polygon fill="white" stroke="#666666" points="392,-250 250,-250 250,-220 392,-220 392,-250"/>
<text text-anchor="start" x="258" y="-238" font-family="Helvetica,sans-Serif" font-size="10.00">userver/server/websocket</text>
<text text-anchor="middle" x="321" y="-227" font-family="Helvetica,sans-Serif" font-size="10.00">/server.hpp</text>
</a>
</g>
</g>
<!-- Node20&#45;&gt;Node23 -->
<g id="edge28_Node000020_Node000023" class="edge">
<title>Node20&#45;&gt;Node23</title>
<g id="a_edge28_Node000020_Node000023"><a xlink:title=" ">
<path fill="none" stroke="#63b8ff" d="M321,-281.25C321,-270.81 321,-258.99 321,-250.04"/>
<polygon fill="#63b8ff" stroke="#63b8ff" points="317.5,-281.44 321,-291.44 324.5,-281.44 317.5,-281.44"/>
</a>
</g>
</g>
<!-- Node21&#45;&gt;Node2 -->
<g id="edge23_Node000021_Node000002" class="edge">
<title>Node21&#45;&gt;Node2</title>
<g id="a_edge23_Node000021_Node000002"><a xlink:title=" ">
<path fill="none" stroke="#63b8ff" d="M425.12,-217.37C385.39,-207.03 334.22,-193.71 293.18,-183.03"/>
<polygon fill="#63b8ff" stroke="#63b8ff" points="424.41,-220.8 434.97,-219.94 426.17,-214.03 424.41,-220.8"/>
</a>
</g>
</g>
<!-- Node21&#45;&gt;Node4 -->
<g id="edge24_Node000021_Node000004" class="edge">
<title>Node21&#45;&gt;Node4</title>
<g id="a_edge24_Node000021_Node000004"><a xlink:title=" ">
<path fill="none" stroke="#63b8ff" d="M567.12,-217.89C625.56,-205.84 704.6,-189.54 759.91,-178.13"/>
<polygon fill="#63b8ff" stroke="#63b8ff" points="566.28,-214.49 557.2,-219.94 567.7,-221.34 566.28,-214.49"/>
</a>
</g>
</g>
<!-- Node22 -->
<g id="Node000022" class="node">
<title>Node22</title>
<g id="a_Node000022"><a xlink:href="../../db/ddd/auth__checker__factory_8hpp.html" target="_top" xlink:title="Authorization factory registration and base classes.">
<polygon fill="white" stroke="#666666" points="573,-178.5 405,-178.5 405,-148.5 573,-148.5 573,-178.5"/>
<text text-anchor="start" x="413" y="-166.5" font-family="Helvetica,sans-Serif" font-size="10.00">userver/server/handlers</text>
<text text-anchor="middle" x="489" y="-155.5" font-family="Helvetica,sans-Serif" font-size="10.00">/auth/auth_checker_factory.hpp</text>
</a>
</g>
</g>
<!-- Node21&#45;&gt;Node22 -->
<g id="edge22_Node000021_Node000022" class="edge">
<title>Node21&#45;&gt;Node22</title>
<g id="a_edge22_Node000021_Node000022"><a xlink:title=" ">
<path fill="none" stroke="#63b8ff" d="M489,-209.75C489,-199.31 489,-187.49 489,-178.54"/>
<polygon fill="#63b8ff" stroke="#63b8ff" points="485.5,-209.94 489,-219.94 492.5,-209.94 485.5,-209.94"/>
</a>
</g>
</g>
<!-- Node23&#45;&gt;Node19 -->
<g id="edge29_Node000023_Node000019" class="edge">
<title>Node23&#45;&gt;Node19</title>
<g id="a_edge29_Node000023_Node000019"><a xlink:title=" ">
<path fill="none" stroke="#63b8ff" d="M320.78,-209.62C319.52,-190.12 315.23,-162.85 302,-143 289.9,-124.84 269.65,-110.97 252.42,-101.63"/>
<polygon fill="#63b8ff" stroke="#63b8ff" points="317.29,-209.98 321.21,-219.82 324.28,-209.68 317.29,-209.98"/>
</a>
</g>
</g>
</g>
</svg>
