<?xml version="1.0" encoding="UTF-8" standalone="no"?>
<!DOCTYPE svg PUBLIC "-//W3C//DTD SVG 1.1//EN"
 "http://www.w3.org/Graphics/SVG/1.1/DTD/svg11.dtd">
<!-- Generated by graphviz version 2.43.0 (0)
 -->
<!-- Title: userver/testsuite/testpoint_control.hpp Pages: 1 -->
<svg width="484pt" height="170pt"
 viewBox="0.00 0.00 483.50 170.00" xmlns="http://www.w3.org/2000/svg" xmlns:xlink="http://www.w3.org/1999/xlink">
<g id="graph0" class="graph" transform="scale(1 1) rotate(0) translate(4 166)">
<title>userver/testsuite/testpoint_control.hpp</title>
<!-- Node1 -->
<g id="Node000001" class="node">
<title>Node1</title>
<g id="a_Node000001"><a xlink:title="Testpoint control interface for testsuite.">
<polygon fill="#999999" stroke="#666666" points="302,-162 156,-162 156,-132 302,-132 302,-162"/>
<text text-anchor="start" x="164" y="-150" font-family="Helvetica,sans-Serif" font-size="10.00">userver/testsuite/testpoint</text>
<text text-anchor="middle" x="229" y="-139" font-family="Helvetica,sans-Serif" font-size="10.00">_control.hpp</text>
</a>
</g>
</g>
<!-- Node2 -->
<g id="Node000002" class="node">
<title>Node2</title>
<g id="a_Node000002"><a xlink:href="../../df/d7c/http__testpoint__client_8hpp_source.html" target="_top" xlink:title=" ">
<polygon fill="white" stroke="#666666" points="127,-96 5,-96 5,-66 127,-66 127,-96"/>
<text text-anchor="start" x="13" y="-84" font-family="Helvetica,sans-Serif" font-size="10.00">userver/testsuite/http</text>
<text text-anchor="middle" x="66" y="-73" font-family="Helvetica,sans-Serif" font-size="10.00">_testpoint_client.hpp</text>
</a>
</g>
</g>
<!-- Node1&#45;&gt;Node2 -->
<g id="edge1_Node000001_Node000002" class="edge">
<title>Node1&#45;&gt;Node2</title>
<g id="a_edge1_Node000001_Node000002"><a xlink:title=" ">
<path fill="none" stroke="#63b8ff" d="M183.64,-128.19C157.75,-118.02 125.77,-105.47 101.69,-96.01"/>
<polygon fill="#63b8ff" stroke="#63b8ff" points="182.64,-131.56 193.23,-131.95 185.2,-125.04 182.64,-131.56"/>
</a>
</g>
</g>
<!-- Node4 -->
<g id="Node000004" class="node">
<title>Node4</title>
<g id="a_Node000004"><a xlink:href="../../d9/d1d/testpoint_8hpp.html" target="_top" xlink:title="Send testpoint notification. Works only if testpoint support is enabled (e.g. in components::TestsCon...">
<polygon fill="white" stroke="#666666" points="312.5,-90.5 145.5,-90.5 145.5,-71.5 312.5,-71.5 312.5,-90.5"/>
<text text-anchor="middle" x="229" y="-78.5" font-family="Helvetica,sans-Serif" font-size="10.00">userver/testsuite/testpoint.hpp</text>
</a>
</g>
</g>
<!-- Node1&#45;&gt;Node4 -->
<g id="edge3_Node000001_Node000004" class="edge">
<title>Node1&#45;&gt;Node4</title>
<g id="a_edge3_Node000001_Node000004"><a xlink:title=" ">
<path fill="none" stroke="#63b8ff" d="M229,-121.6C229,-110.8 229,-98.78 229,-90.84"/>
<polygon fill="#63b8ff" stroke="#63b8ff" points="225.5,-121.8 229,-131.8 232.5,-121.8 225.5,-121.8"/>
</a>
</g>
</g>
<!-- Node5 -->
<g id="Node000005" class="node">
<title>Node5</title>
<g id="a_Node000005"><a xlink:href="../../d3/d37/testsuite__support_8hpp.html" target="_top" xlink:title="Testsuite support component.">
<polygon fill="white" stroke="#666666" points="475.5,-96 330.5,-96 330.5,-66 475.5,-66 475.5,-96"/>
<text text-anchor="start" x="338.5" y="-84" font-family="Helvetica,sans-Serif" font-size="10.00">userver/testsuite/testsuite</text>
<text text-anchor="middle" x="403" y="-73" font-family="Helvetica,sans-Serif" font-size="10.00">_support.hpp</text>
</a>
</g>
</g>
<!-- Node1&#45;&gt;Node5 -->
<g id="edge4_Node000001_Node000005" class="edge">
<title>Node1&#45;&gt;Node5</title>
<g id="a_edge4_Node000001_Node000005"><a xlink:title=" ">
<path fill="none" stroke="#63b8ff" d="M276.7,-128.46C304.46,-118.25 338.97,-105.55 364.9,-96.01"/>
<polygon fill="#63b8ff" stroke="#63b8ff" points="275.36,-125.22 267.19,-131.95 277.78,-131.79 275.36,-125.22"/>
</a>
</g>
</g>
<!-- Node3 -->
<g id="Node000003" class="node">
<title>Node3</title>
<g id="a_Node000003"><a xlink:href="../../d6/d43/tests__control_8hpp.html" target="_top" xlink:title="Handler that allows to control the behavior of server from tests, and functional tests with testsuite...">
<polygon fill="white" stroke="#666666" points="132,-30 0,-30 0,0 132,0 132,-30"/>
<text text-anchor="start" x="8" y="-18" font-family="Helvetica,sans-Serif" font-size="10.00">userver/server/handlers</text>
<text text-anchor="middle" x="66" y="-7" font-family="Helvetica,sans-Serif" font-size="10.00">/tests_control.hpp</text>
</a>
</g>
</g>
<!-- Node2&#45;&gt;Node3 -->
<g id="edge2_Node000002_Node000003" class="edge">
<title>Node2&#45;&gt;Node3</title>
<g id="a_edge2_Node000002_Node000003"><a xlink:title=" ">
<path fill="none" stroke="#63b8ff" d="M66,-55.54C66,-46.96 66,-37.61 66,-30.16"/>
<polygon fill="#63b8ff" stroke="#63b8ff" points="62.5,-55.8 66,-65.8 69.5,-55.8 62.5,-55.8"/>
</a>
</g>
</g>
</g>
</svg>
