<?xml version="1.0" encoding="UTF-8" standalone="no"?>
<!DOCTYPE svg PUBLIC "-//W3C//DTD SVG 1.1//EN"
 "http://www.w3.org/Graphics/SVG/1.1/DTD/svg11.dtd">
<!-- Generated by graphviz version 2.43.0 (0)
 -->
<!-- Title: userver/engine/io/tls_wrapper.hpp Pages: 1 -->
<svg width="1839pt" height="423pt"
 viewBox="0.00 0.00 1839.30 423.00" xmlns="http://www.w3.org/2000/svg" xmlns:xlink="http://www.w3.org/1999/xlink">
<g id="graph0" class="graph" transform="scale(1 1) rotate(0) translate(4 419)">
<title>userver/engine/io/tls_wrapper.hpp</title>
<!-- Node1 -->
<g id="Node000001" class="node">
<title>Node1</title>
<g id="a_Node000001"><a xlink:title="TLS socket wrappers.">
<polygon fill="#999999" stroke="#666666" points="749.8,-415 633.8,-415 633.8,-385 749.8,-385 749.8,-415"/>
<text text-anchor="start" x="641.8" y="-403" font-family="Helvetica,sans-Serif" font-size="10.00">userver/engine/io/tls</text>
<text text-anchor="middle" x="691.8" y="-392" font-family="Helvetica,sans-Serif" font-size="10.00">_wrapper.hpp</text>
</a>
</g>
</g>
<!-- Node2 -->
<g id="Node000002" class="node">
<title>Node2</title>
<g id="a_Node000002"><a xlink:title=" ">
<polygon fill="#e0e0e0" stroke="#999999" points="1126.8,-79.5 1082.8,-79.5 1082.8,-60.5 1126.8,-60.5 1126.8,-79.5"/>
<text text-anchor="middle" x="1104.8" y="-67.5" font-family="Helvetica,sans-Serif" font-size="10.00">string</text>
</a>
</g>
</g>
<!-- Node1&#45;&gt;Node2 -->
<g id="edge1_Node000001_Node000002" class="edge">
<title>Node1&#45;&gt;Node2</title>
<g id="a_edge1_Node000001_Node000002"><a xlink:title=" ">
<path fill="none" stroke="#63b8ff" d="M749.9,-397.8C966.94,-392.55 1717.8,-367.3 1717.8,-269 1717.8,-269 1717.8,-269 1717.8,-201 1717.8,-160.84 1709.45,-142.91 1675.8,-121 1575.19,-55.51 1253.41,-113.48 1136.8,-85 1134.85,-84.53 1132.88,-83.94 1130.91,-83.28"/>
<polygon fill="#63b8ff" stroke="#63b8ff" points="1131.94,-79.93 1121.35,-79.54 1129.39,-86.44 1131.94,-79.93"/>
</a>
</g>
</g>
<!-- Node3 -->
<g id="Node000003" class="node">
<title>Node3</title>
<g id="a_Node000003"><a xlink:title=" ">
<polygon fill="#e0e0e0" stroke="#999999" points="1831.3,-343.5 1784.3,-343.5 1784.3,-324.5 1831.3,-324.5 1831.3,-343.5"/>
<text text-anchor="middle" x="1807.8" y="-331.5" font-family="Helvetica,sans-Serif" font-size="10.00">vector</text>
</a>
</g>
</g>
<!-- Node1&#45;&gt;Node3 -->
<g id="edge2_Node000001_Node000003" class="edge">
<title>Node1&#45;&gt;Node3</title>
<g id="a_edge2_Node000001_Node000003"><a xlink:title=" ">
<path fill="none" stroke="#63b8ff" d="M750.02,-398.64C944.75,-397.08 1572.16,-388.99 1769.8,-349 1772.64,-348.42 1775.55,-347.67 1778.44,-346.81"/>
<polygon fill="#63b8ff" stroke="#63b8ff" points="1779.65,-350.1 1788.01,-343.59 1777.42,-343.46 1779.65,-350.1"/>
</a>
</g>
</g>
<!-- Node4 -->
<g id="Node000004" class="node">
<title>Node4</title>
<g id="a_Node000004"><a xlink:href="../../d1/dab/certificate_8hpp.html" target="_top" xlink:title=" ">
<polygon fill="white" stroke="#666666" points="627.8,-343.5 467.8,-343.5 467.8,-324.5 627.8,-324.5 627.8,-343.5"/>
<text text-anchor="middle" x="547.8" y="-331.5" font-family="Helvetica,sans-Serif" font-size="10.00">userver/crypto/certificate.hpp</text>
</a>
</g>
</g>
<!-- Node1&#45;&gt;Node4 -->
<g id="edge3_Node000001_Node000004" class="edge">
<title>Node1&#45;&gt;Node4</title>
<g id="a_edge3_Node000001_Node000004"><a xlink:title=" ">
<path fill="none" stroke="#63b8ff" d="M660.19,-384.95C635.16,-373.83 600.5,-358.42 576.31,-347.67"/>
<polygon fill="#63b8ff" stroke="#63b8ff" points="577.52,-344.38 566.96,-343.52 574.68,-350.78 577.52,-344.38"/>
</a>
</g>
</g>
<!-- Node16 -->
<g id="Node000016" class="node">
<title>Node16</title>
<g id="a_Node000016"><a xlink:href="../../d5/d02/fast__pimpl_8hpp.html" target="_top" xlink:title="Implements pimpl idiom without dynamic memory allocation.">
<polygon fill="white" stroke="#666666" points="1244.3,-85 1145.3,-85 1145.3,-55 1244.3,-55 1244.3,-85"/>
<text text-anchor="start" x="1153.3" y="-73" font-family="Helvetica,sans-Serif" font-size="10.00">userver/utils/fast</text>
<text text-anchor="middle" x="1194.8" y="-62" font-family="Helvetica,sans-Serif" font-size="10.00">_pimpl.hpp</text>
</a>
</g>
</g>
<!-- Node1&#45;&gt;Node16 -->
<g id="edge61_Node000001_Node000016" class="edge">
<title>Node1&#45;&gt;Node16</title>
<g id="a_edge61_Node000001_Node000016"><a xlink:title=" ">
<path fill="none" stroke="#63b8ff" d="M749.88,-398.38C920.64,-396.14 1418.92,-386.47 1576.8,-349 1661.58,-328.88 1755.8,-356.14 1755.8,-269 1755.8,-269 1755.8,-269 1755.8,-201 1755.8,-158.83 1740.73,-143.06 1704.8,-121 1630.73,-75.54 1372.72,-70.35 1254.63,-70.44"/>
<polygon fill="#63b8ff" stroke="#63b8ff" points="1254.32,-66.94 1244.33,-70.46 1254.34,-73.94 1254.32,-66.94"/>
</a>
</g>
</g>
<!-- Node19 -->
<g id="Node000019" class="node">
<title>Node19</title>
<g id="a_Node000019"><a xlink:href="../../d4/d2b/private__key_8hpp.html" target="_top" xlink:title=" ">
<polygon fill="white" stroke="#666666" points="449.3,-349 324.3,-349 324.3,-319 449.3,-319 449.3,-349"/>
<text text-anchor="start" x="332.3" y="-337" font-family="Helvetica,sans-Serif" font-size="10.00">userver/crypto/private</text>
<text text-anchor="middle" x="386.8" y="-326" font-family="Helvetica,sans-Serif" font-size="10.00">_key.hpp</text>
</a>
</g>
</g>
<!-- Node1&#45;&gt;Node19 -->
<g id="edge23_Node000001_Node000019" class="edge">
<title>Node1&#45;&gt;Node19</title>
<g id="a_edge23_Node000001_Node000019"><a xlink:title=" ">
<path fill="none" stroke="#63b8ff" d="M633.71,-386.81C584.19,-376.42 512.76,-361.43 459.46,-350.25"/>
<polygon fill="#63b8ff" stroke="#63b8ff" points="459.9,-346.76 449.39,-348.13 458.46,-353.61 459.9,-346.76"/>
</a>
</g>
</g>
<!-- Node20 -->
<g id="Node000020" class="node">
<title>Node20</title>
<g id="a_Node000020"><a xlink:href="../../d2/d22/deadline_8hpp.html" target="_top" xlink:title="Internal representation of a deadline time point.">
<polygon fill="white" stroke="#666666" points="317.3,-211.5 162.3,-211.5 162.3,-192.5 317.3,-192.5 317.3,-211.5"/>
<text text-anchor="middle" x="239.8" y="-199.5" font-family="Helvetica,sans-Serif" font-size="10.00">userver/engine/deadline.hpp</text>
</a>
</g>
</g>
<!-- Node1&#45;&gt;Node20 -->
<g id="edge27_Node000001_Node000020" class="edge">
<title>Node1&#45;&gt;Node20</title>
<g id="a_edge27_Node000001_Node000020"><a xlink:title=" ">
<path fill="none" stroke="#63b8ff" d="M633.6,-399.97C553.63,-399.48 406.41,-392.04 289.8,-349 239.84,-330.56 215.03,-329.89 189.8,-283 183.48,-271.26 184.69,-265.32 189.8,-253 195.58,-239.04 207.36,-226.94 218.04,-218.15"/>
<polygon fill="#63b8ff" stroke="#63b8ff" points="220.45,-220.71 226.22,-211.83 216.17,-215.17 220.45,-220.71"/>
</a>
</g>
</g>
<!-- Node23 -->
<g id="Node000023" class="node">
<title>Node23</title>
<g id="a_Node000023"><a xlink:href="../../da/d29/core_2include_2userver_2engine_2io_2common_8hpp.html" target="_top" xlink:title="Common definitions and base classes for stream like objects.">
<polygon fill="white" stroke="#666666" points="366.8,-277.5 198.8,-277.5 198.8,-258.5 366.8,-258.5 366.8,-277.5"/>
<text text-anchor="middle" x="282.8" y="-265.5" font-family="Helvetica,sans-Serif" font-size="10.00">userver/engine/io/common.hpp</text>
</a>
</g>
</g>
<!-- Node1&#45;&gt;Node23 -->
<g id="edge32_Node000001_Node000023" class="edge">
<title>Node1&#45;&gt;Node23</title>
<g id="a_edge32_Node000001_Node000023"><a xlink:title=" ">
<path fill="none" stroke="#63b8ff" d="M633.72,-398.21C540.83,-395.82 364.33,-386.35 315.8,-349 296.58,-334.21 288.47,-306.27 285.11,-287.64"/>
<polygon fill="#63b8ff" stroke="#63b8ff" points="288.56,-287.04 283.6,-277.68 281.64,-288.09 288.56,-287.04"/>
</a>
</g>
</g>
<!-- Node24 -->
<g id="Node000024" class="node">
<title>Node24</title>
<g id="a_Node000024"><a xlink:href="../../da/dfc/socket_8hpp.html" target="_top" xlink:title="Socket representation.">
<polygon fill="white" stroke="#666666" points="855.3,-343.5 698.3,-343.5 698.3,-324.5 855.3,-324.5 855.3,-343.5"/>
<text text-anchor="middle" x="776.8" y="-331.5" font-family="Helvetica,sans-Serif" font-size="10.00">userver/engine/io/socket.hpp</text>
</a>
</g>
</g>
<!-- Node1&#45;&gt;Node24 -->
<g id="edge36_Node000001_Node000024" class="edge">
<title>Node1&#45;&gt;Node24</title>
<g id="a_edge36_Node000001_Node000024"><a xlink:title=" ">
<path fill="none" stroke="#63b8ff" d="M710.66,-384.8C724.43,-374.43 743.06,-360.4 757.03,-349.88"/>
<polygon fill="#63b8ff" stroke="#63b8ff" points="759.17,-352.66 765.05,-343.84 754.96,-347.06 759.17,-352.66"/>
</a>
</g>
</g>
<!-- Node5 -->
<g id="Node000005" class="node">
<title>Node5</title>
<g id="a_Node000005"><a xlink:title=" ">
<polygon fill="#e0e0e0" stroke="#999999" points="491.8,-79.5 433.8,-79.5 433.8,-60.5 491.8,-60.5 491.8,-79.5"/>
<text text-anchor="middle" x="462.8" y="-67.5" font-family="Helvetica,sans-Serif" font-size="10.00">memory</text>
</a>
</g>
</g>
<!-- Node4&#45;&gt;Node5 -->
<g id="edge4_Node000004_Node000005" class="edge">
<title>Node4&#45;&gt;Node5</title>
<g id="a_edge4_Node000004_Node000005"><a xlink:title=" ">
<path fill="none" stroke="#63b8ff" d="M527.8,-324.36C510.86,-316.07 487.1,-302 472.8,-283 428.83,-224.62 446.99,-129.43 457.4,-89.53"/>
<polygon fill="#63b8ff" stroke="#63b8ff" points="460.79,-90.38 460.07,-79.81 454.05,-88.53 460.79,-90.38"/>
</a>
</g>
</g>
<!-- Node6 -->
<g id="Node000006" class="node">
<title>Node6</title>
<g id="a_Node000006"><a xlink:title=" ">
<polygon fill="#e0e0e0" stroke="#999999" points="114.3,-79.5 41.3,-79.5 41.3,-60.5 114.3,-60.5 114.3,-79.5"/>
<text text-anchor="middle" x="77.8" y="-67.5" font-family="Helvetica,sans-Serif" font-size="10.00">string_view</text>
</a>
</g>
</g>
<!-- Node4&#45;&gt;Node6 -->
<g id="edge5_Node000004_Node000006" class="edge">
<title>Node4&#45;&gt;Node6</title>
<g id="a_edge5_Node000004_Node000006"><a xlink:title=" ">
<path fill="none" stroke="#63b8ff" d="M494.65,-324.43C482.85,-322.59 470.4,-320.69 458.8,-319 339.43,-301.63 298.6,-335.06 189.8,-283 112.95,-246.23 84.41,-229.28 50.8,-151 41.71,-129.83 53.95,-104.5 64.76,-88.1"/>
<polygon fill="#63b8ff" stroke="#63b8ff" points="67.88,-89.76 70.79,-79.58 62.16,-85.72 67.88,-89.76"/>
</a>
</g>
</g>
<!-- Node7 -->
<g id="Node000007" class="node">
<title>Node7</title>
<g id="a_Node000007"><a xlink:href="../../d0/df9/basic__types_8hpp.html" target="_top" xlink:title="Common types for crypto module.">
<polygon fill="white" stroke="#666666" points="597.8,-283 481.8,-283 481.8,-253 597.8,-253 597.8,-283"/>
<text text-anchor="start" x="489.8" y="-271" font-family="Helvetica,sans-Serif" font-size="10.00">userver/crypto/basic</text>
<text text-anchor="middle" x="539.8" y="-260" font-family="Helvetica,sans-Serif" font-size="10.00">_types.hpp</text>
</a>
</g>
</g>
<!-- Node4&#45;&gt;Node7 -->
<g id="edge6_Node000004_Node000007" class="edge">
<title>Node4&#45;&gt;Node7</title>
<g id="a_edge6_Node000004_Node000007"><a xlink:title=" ">
<path fill="none" stroke="#63b8ff" d="M546.72,-324.37C545.73,-316.49 544.23,-304.45 542.87,-293.6"/>
<polygon fill="#63b8ff" stroke="#63b8ff" points="546.3,-292.85 541.59,-283.36 539.36,-293.72 546.3,-292.85"/>
</a>
</g>
</g>
<!-- Node7&#45;&gt;Node2 -->
<g id="edge7_Node000007_Node000002" class="edge">
<title>Node7&#45;&gt;Node2</title>
<g id="a_edge7_Node000007_Node000002"><a xlink:title=" ">
<path fill="none" stroke="#63b8ff" d="M564.03,-252.96C595.38,-235.33 652.1,-205.19 703.8,-187 772.15,-162.96 797.22,-181.81 862.8,-151 882.59,-141.7 881.92,-130.12 901.8,-121 973.17,-88.23 1000.27,-109.77 1074.8,-85 1076.19,-84.54 1077.61,-84.02 1079.03,-83.48"/>
<polygon fill="#63b8ff" stroke="#63b8ff" points="1080.43,-86.69 1088.26,-79.55 1077.68,-80.25 1080.43,-86.69"/>
</a>
</g>
</g>
<!-- Node8 -->
<g id="Node000008" class="node">
<title>Node8</title>
<g id="a_Node000008"><a xlink:href="../../df/db8/universal_2include_2userver_2crypto_2exception_8hpp.html" target="_top" xlink:title="Exception classes for crypto module.">
<polygon fill="white" stroke="#666666" points="619.3,-211.5 460.3,-211.5 460.3,-192.5 619.3,-192.5 619.3,-211.5"/>
<text text-anchor="middle" x="539.8" y="-199.5" font-family="Helvetica,sans-Serif" font-size="10.00">userver/crypto/exception.hpp</text>
</a>
</g>
</g>
<!-- Node7&#45;&gt;Node8 -->
<g id="edge8_Node000007_Node000008" class="edge">
<title>Node7&#45;&gt;Node8</title>
<g id="a_edge8_Node000007_Node000008"><a xlink:title=" ">
<path fill="none" stroke="#63b8ff" d="M539.8,-252.8C539.8,-243.7 539.8,-231.79 539.8,-221.9"/>
<polygon fill="#63b8ff" stroke="#63b8ff" points="543.3,-221.84 539.8,-211.84 536.3,-221.84 543.3,-221.84"/>
</a>
</g>
</g>
<!-- Node8&#45;&gt;Node5 -->
<g id="edge9_Node000008_Node000005" class="edge">
<title>Node8&#45;&gt;Node5</title>
<g id="a_edge9_Node000008_Node000005"><a xlink:title=" ">
<path fill="none" stroke="#63b8ff" d="M534.74,-192.47C522.29,-171.45 489.93,-116.82 473.18,-88.54"/>
<polygon fill="#63b8ff" stroke="#63b8ff" points="476.08,-86.55 467.97,-79.73 470.05,-90.12 476.08,-86.55"/>
</a>
</g>
</g>
<!-- Node9 -->
<g id="Node000009" class="node">
<title>Node9</title>
<g id="a_Node000009"><a xlink:href="../../da/de0/traceful__exception_8hpp.html" target="_top" xlink:title="Exception that remembers the backtrace at the point of its construction.">
<polygon fill="white" stroke="#666666" points="853.8,-151 735.8,-151 735.8,-121 853.8,-121 853.8,-151"/>
<text text-anchor="start" x="743.8" y="-139" font-family="Helvetica,sans-Serif" font-size="10.00">userver/utils/traceful</text>
<text text-anchor="middle" x="794.8" y="-128" font-family="Helvetica,sans-Serif" font-size="10.00">_exception.hpp</text>
</a>
</g>
</g>
<!-- Node8&#45;&gt;Node9 -->
<g id="edge10_Node000008_Node000009" class="edge">
<title>Node8&#45;&gt;Node9</title>
<g id="a_edge10_Node000008_Node000009"><a xlink:title=" ">
<path fill="none" stroke="#63b8ff" d="M573.92,-192.44C613.41,-182.52 679.34,-165.98 728.92,-153.53"/>
<polygon fill="#63b8ff" stroke="#63b8ff" points="730.07,-156.85 738.92,-151.02 728.36,-150.06 730.07,-156.85"/>
</a>
</g>
</g>
<!-- Node9&#45;&gt;Node2 -->
<g id="edge12_Node000009_Node000002" class="edge">
<title>Node9&#45;&gt;Node2</title>
<g id="a_edge12_Node000009_Node000002"><a xlink:title=" ">
<path fill="none" stroke="#63b8ff" d="M854.14,-123.53C858.76,-122.66 863.35,-121.81 867.8,-121 959.65,-104.21 985.71,-112.99 1074.8,-85 1076.24,-84.55 1077.69,-84.04 1079.16,-83.5"/>
<polygon fill="#63b8ff" stroke="#63b8ff" points="1080.75,-86.62 1088.6,-79.51 1078.03,-80.17 1080.75,-86.62"/>
</a>
</g>
</g>
<!-- Node10 -->
<g id="Node000010" class="node">
<title>Node10</title>
<g id="a_Node000010"><a xlink:title=" ">
<polygon fill="#e0e0e0" stroke="#999999" points="797.3,-79.5 732.3,-79.5 732.3,-60.5 797.3,-60.5 797.3,-79.5"/>
<text text-anchor="middle" x="764.8" y="-67.5" font-family="Helvetica,sans-Serif" font-size="10.00">exception</text>
</a>
</g>
</g>
<!-- Node9&#45;&gt;Node10 -->
<g id="edge11_Node000009_Node000010" class="edge">
<title>Node9&#45;&gt;Node10</title>
<g id="a_edge11_Node000009_Node000010"><a xlink:title=" ">
<path fill="none" stroke="#63b8ff" d="M788.14,-120.8C783.74,-111.41 777.93,-99.02 773.21,-88.95"/>
<polygon fill="#63b8ff" stroke="#63b8ff" points="776.36,-87.41 768.94,-79.84 770.02,-90.38 776.36,-87.41"/>
</a>
</g>
</g>
<!-- Node11 -->
<g id="Node000011" class="node">
<title>Node11</title>
<g id="a_Node000011"><a xlink:title=" ">
<polygon fill="#e0e0e0" stroke="#999999" points="738.3,-19 669.3,-19 669.3,0 738.3,0 738.3,-19"/>
<text text-anchor="middle" x="703.8" y="-7" font-family="Helvetica,sans-Serif" font-size="10.00">type_traits</text>
</a>
</g>
</g>
<!-- Node9&#45;&gt;Node11 -->
<g id="edge13_Node000009_Node000011" class="edge">
<title>Node9&#45;&gt;Node11</title>
<g id="a_edge13_Node000009_Node000011"><a xlink:title=" ">
<path fill="none" stroke="#63b8ff" d="M765.82,-120.85C751.22,-112.34 734.42,-100.2 723.8,-85 712.19,-68.39 707.32,-45.4 705.27,-29.36"/>
<polygon fill="#63b8ff" stroke="#63b8ff" points="708.72,-28.7 704.23,-19.11 701.76,-29.41 708.72,-28.7"/>
</a>
</g>
</g>
<!-- Node12 -->
<g id="Node000012" class="node">
<title>Node12</title>
<g id="a_Node000012"><a xlink:title=" ">
<polygon fill="#e0e0e0" stroke="#999999" points="1065.3,-79.5 986.3,-79.5 986.3,-60.5 1065.3,-60.5 1065.3,-79.5"/>
<text text-anchor="middle" x="1025.8" y="-67.5" font-family="Helvetica,sans-Serif" font-size="10.00">fmt/format.h</text>
</a>
</g>
</g>
<!-- Node9&#45;&gt;Node12 -->
<g id="edge14_Node000009_Node000012" class="edge">
<title>Node9&#45;&gt;Node12</title>
<g id="a_edge14_Node000009_Node000012"><a xlink:title=" ">
<path fill="none" stroke="#63b8ff" d="M846.61,-120.92C883.05,-110.97 932.94,-97.29 976.8,-85 979.91,-84.13 983.12,-83.22 986.36,-82.31"/>
<polygon fill="#63b8ff" stroke="#63b8ff" points="987.35,-85.66 996.01,-79.56 985.43,-78.93 987.35,-85.66"/>
</a>
</g>
</g>
<!-- Node13 -->
<g id="Node000013" class="node">
<title>Node13</title>
<g id="a_Node000013"><a xlink:title=" ">
<polygon fill="#e0e0e0" stroke="#999999" points="967.8,-85 815.8,-85 815.8,-55 967.8,-55 967.8,-85"/>
<text text-anchor="start" x="823.8" y="-73" font-family="Helvetica,sans-Serif" font-size="10.00">boost/stacktrace/stacktrace</text>
<text text-anchor="middle" x="891.8" y="-62" font-family="Helvetica,sans-Serif" font-size="10.00">_fwd.hpp</text>
</a>
</g>
</g>
<!-- Node9&#45;&gt;Node13 -->
<g id="edge15_Node000009_Node000013" class="edge">
<title>Node9&#45;&gt;Node13</title>
<g id="a_edge15_Node000009_Node000013"><a xlink:title=" ">
<path fill="none" stroke="#63b8ff" d="M816.32,-120.8C829.64,-112.01 846.92,-100.61 861.59,-90.93"/>
<polygon fill="#63b8ff" stroke="#63b8ff" points="863.91,-93.59 870.33,-85.16 860.05,-87.75 863.91,-93.59"/>
</a>
</g>
</g>
<!-- Node14 -->
<g id="Node000014" class="node">
<title>Node14</title>
<g id="a_Node000014"><a xlink:href="../../d2/d84/select_8hpp.html" target="_top" xlink:title="Utilities for selection of platform specific values.">
<polygon fill="white" stroke="#666666" points="675.8,-79.5 523.8,-79.5 523.8,-60.5 675.8,-60.5 675.8,-79.5"/>
<text text-anchor="middle" x="599.8" y="-67.5" font-family="Helvetica,sans-Serif" font-size="10.00">userver/compiler/select.hpp</text>
</a>
</g>
</g>
<!-- Node9&#45;&gt;Node14 -->
<g id="edge16_Node000009_Node000014" class="edge">
<title>Node9&#45;&gt;Node14</title>
<g id="a_edge16_Node000009_Node000014"><a xlink:title=" ">
<path fill="none" stroke="#63b8ff" d="M752,-120.95C717.05,-109.48 668.23,-93.46 635.39,-82.68"/>
<polygon fill="#63b8ff" stroke="#63b8ff" points="636.34,-79.31 625.75,-79.52 634.16,-85.96 636.34,-79.31"/>
</a>
</g>
</g>
<!-- Node9&#45;&gt;Node16 -->
<g id="edge18_Node000009_Node000016" class="edge">
<title>Node9&#45;&gt;Node16</title>
<g id="a_edge18_Node000009_Node000016"><a xlink:title=" ">
<path fill="none" stroke="#63b8ff" d="M853.82,-126.98C932.42,-116.2 1068.35,-97.16 1135.18,-84.97"/>
<polygon fill="#63b8ff" stroke="#63b8ff" points="1136.1,-88.36 1145.29,-83.08 1134.82,-81.48 1136.1,-88.36"/>
</a>
</g>
</g>
<!-- Node15 -->
<g id="Node000015" class="node">
<title>Node15</title>
<g id="a_Node000015"><a xlink:title=" ">
<polygon fill="#e0e0e0" stroke="#999999" points="626.3,-19 573.3,-19 573.3,0 626.3,0 626.3,-19"/>
<text text-anchor="middle" x="599.8" y="-7" font-family="Helvetica,sans-Serif" font-size="10.00">cstddef</text>
</a>
</g>
</g>
<!-- Node14&#45;&gt;Node15 -->
<g id="edge17_Node000014_Node000015" class="edge">
<title>Node14&#45;&gt;Node15</title>
<g id="a_edge17_Node000014_Node000015"><a xlink:title=" ">
<path fill="none" stroke="#63b8ff" d="M599.8,-60.37C599.8,-52.25 599.8,-39.81 599.8,-29.39"/>
<polygon fill="#63b8ff" stroke="#63b8ff" points="603.3,-29.17 599.8,-19.17 596.3,-29.17 603.3,-29.17"/>
</a>
</g>
</g>
<!-- Node16&#45;&gt;Node11 -->
<g id="edge21_Node000016_Node000011" class="edge">
<title>Node16&#45;&gt;Node11</title>
<g id="a_edge21_Node000016_Node000011"><a xlink:title=" ">
<path fill="none" stroke="#63b8ff" d="M1145,-56.7C1141.89,-56.08 1138.81,-55.51 1135.8,-55 995.47,-31.23 827.19,-18.32 748.49,-13.18"/>
<polygon fill="#63b8ff" stroke="#63b8ff" points="748.65,-9.68 738.44,-12.53 748.2,-16.66 748.65,-9.68"/>
</a>
</g>
</g>
<!-- Node16&#45;&gt;Node15 -->
<g id="edge19_Node000016_Node000015" class="edge">
<title>Node16&#45;&gt;Node15</title>
<g id="a_edge19_Node000016_Node000015"><a xlink:title=" ">
<path fill="none" stroke="#63b8ff" d="M1145.01,-56.61C1141.9,-56.01 1138.81,-55.47 1135.8,-55 926.6,-22.46 871.3,-41.62 660.8,-19 652.96,-18.16 644.58,-17.1 636.62,-16.01"/>
<polygon fill="#63b8ff" stroke="#63b8ff" points="636.86,-12.51 626.47,-14.59 635.89,-19.44 636.86,-12.51"/>
</a>
</g>
</g>
<!-- Node17 -->
<g id="Node000017" class="node">
<title>Node17</title>
<g id="a_Node000017"><a xlink:title=" ">
<polygon fill="#e0e0e0" stroke="#999999" points="1183.3,-19 1146.3,-19 1146.3,0 1183.3,0 1183.3,-19"/>
<text text-anchor="middle" x="1164.8" y="-7" font-family="Helvetica,sans-Serif" font-size="10.00">new</text>
</a>
</g>
</g>
<!-- Node16&#45;&gt;Node17 -->
<g id="edge20_Node000016_Node000017" class="edge">
<title>Node16&#45;&gt;Node17</title>
<g id="a_edge20_Node000016_Node000017"><a xlink:title=" ">
<path fill="none" stroke="#63b8ff" d="M1187.53,-54.84C1183.45,-46.87 1178.3,-36.84 1173.94,-28.33"/>
<polygon fill="#63b8ff" stroke="#63b8ff" points="1176.97,-26.57 1169.29,-19.27 1170.74,-29.76 1176.97,-26.57"/>
</a>
</g>
</g>
<!-- Node18 -->
<g id="Node000018" class="node">
<title>Node18</title>
<g id="a_Node000018"><a xlink:title=" ">
<polygon fill="#e0e0e0" stroke="#999999" points="1246.3,-19 1201.3,-19 1201.3,0 1246.3,0 1246.3,-19"/>
<text text-anchor="middle" x="1223.8" y="-7" font-family="Helvetica,sans-Serif" font-size="10.00">utility</text>
</a>
</g>
</g>
<!-- Node16&#45;&gt;Node18 -->
<g id="edge22_Node000016_Node000018" class="edge">
<title>Node16&#45;&gt;Node18</title>
<g id="a_edge22_Node000016_Node000018"><a xlink:title=" ">
<path fill="none" stroke="#63b8ff" d="M1201.82,-54.84C1205.77,-46.87 1210.74,-36.84 1214.96,-28.33"/>
<polygon fill="#63b8ff" stroke="#63b8ff" points="1218.14,-29.78 1219.45,-19.27 1211.87,-26.67 1218.14,-29.78"/>
</a>
</g>
</g>
<!-- Node19&#45;&gt;Node5 -->
<g id="edge24_Node000019_Node000005" class="edge">
<title>Node19&#45;&gt;Node5</title>
<g id="a_edge24_Node000019_Node000005"><a xlink:title=" ">
<path fill="none" stroke="#63b8ff" d="M387.07,-318.96C388.21,-284 394.14,-190.85 424.8,-121 430.23,-108.62 439.32,-96.5 447.25,-87.29"/>
<polygon fill="#63b8ff" stroke="#63b8ff" points="449.96,-89.5 454.06,-79.73 444.76,-84.82 449.96,-89.5"/>
</a>
</g>
</g>
<!-- Node19&#45;&gt;Node6 -->
<g id="edge25_Node000019_Node000006" class="edge">
<title>Node19&#45;&gt;Node6</title>
<g id="a_edge25_Node000019_Node000006"><a xlink:title=" ">
<path fill="none" stroke="#63b8ff" d="M323.98,-331.43C239.07,-328.02 93.8,-317.21 54.8,-283 -0.8,-234.24 -14.84,-187.84 16.8,-121 24.08,-105.61 38.67,-93.38 51.76,-84.87"/>
<polygon fill="#63b8ff" stroke="#63b8ff" points="53.74,-87.76 60.47,-79.57 50.11,-81.77 53.74,-87.76"/>
</a>
</g>
</g>
<!-- Node19&#45;&gt;Node7 -->
<g id="edge26_Node000019_Node000007" class="edge">
<title>Node19&#45;&gt;Node7</title>
<g id="a_edge26_Node000019_Node000007"><a xlink:title=" ">
<path fill="none" stroke="#63b8ff" d="M420.37,-318.95C442.89,-309.53 472.75,-297.04 496.98,-286.91"/>
<polygon fill="#63b8ff" stroke="#63b8ff" points="498.42,-290.1 506.3,-283.01 495.72,-283.64 498.42,-290.1"/>
</a>
</g>
</g>
<!-- Node20&#45;&gt;Node11 -->
<g id="edge29_Node000020_Node000011" class="edge">
<title>Node20&#45;&gt;Node11</title>
<g id="a_edge29_Node000020_Node000011"><a xlink:title=" ">
<path fill="none" stroke="#63b8ff" d="M247.61,-192.27C271.32,-166.37 345.73,-89.66 424.8,-55 445.83,-45.78 585.42,-26.23 658.83,-16.4"/>
<polygon fill="#63b8ff" stroke="#63b8ff" points="659.71,-19.82 669.16,-15.03 658.79,-12.88 659.71,-19.82"/>
</a>
</g>
</g>
<!-- Node21 -->
<g id="Node000021" class="node">
<title>Node21</title>
<g id="a_Node000021"><a xlink:title=" ">
<polygon fill="#e0e0e0" stroke="#999999" points="258.8,-145.5 208.8,-145.5 208.8,-126.5 258.8,-126.5 258.8,-145.5"/>
<text text-anchor="middle" x="233.8" y="-133.5" font-family="Helvetica,sans-Serif" font-size="10.00">chrono</text>
</a>
</g>
</g>
<!-- Node20&#45;&gt;Node21 -->
<g id="edge28_Node000020_Node000021" class="edge">
<title>Node20&#45;&gt;Node21</title>
<g id="a_edge28_Node000020_Node000021"><a xlink:title=" ">
<path fill="none" stroke="#63b8ff" d="M238.99,-192.37C238.11,-183.07 236.7,-167.98 235.57,-155.9"/>
<polygon fill="#63b8ff" stroke="#63b8ff" points="239.05,-155.53 234.63,-145.91 232.08,-156.19 239.05,-155.53"/>
</a>
</g>
</g>
<!-- Node22 -->
<g id="Node000022" class="node">
<title>Node22</title>
<g id="a_Node000022"><a xlink:href="../../d2/d54/assert_8hpp.html" target="_top" xlink:title="Assertion macros UASSERT, UASSERT_MSG, UINVARIANT.">
<polygon fill="white" stroke="#666666" points="190.3,-145.5 59.3,-145.5 59.3,-126.5 190.3,-126.5 190.3,-145.5"/>
<text text-anchor="middle" x="124.8" y="-133.5" font-family="Helvetica,sans-Serif" font-size="10.00">userver/utils/assert.hpp</text>
</a>
</g>
</g>
<!-- Node20&#45;&gt;Node22 -->
<g id="edge30_Node000020_Node000022" class="edge">
<title>Node20&#45;&gt;Node22</title>
<g id="a_edge30_Node000020_Node000022"><a xlink:title=" ">
<path fill="none" stroke="#63b8ff" d="M224.29,-192.37C205.08,-181.68 172.14,-163.35 149.45,-150.72"/>
<polygon fill="#63b8ff" stroke="#63b8ff" points="150.87,-147.5 140.43,-145.7 147.46,-153.62 150.87,-147.5"/>
</a>
</g>
</g>
<!-- Node22&#45;&gt;Node6 -->
<g id="edge31_Node000022_Node000006" class="edge">
<title>Node22&#45;&gt;Node6</title>
<g id="a_edge31_Node000022_Node000006"><a xlink:title=" ">
<path fill="none" stroke="#63b8ff" d="M118.46,-126.37C111.28,-116.59 99.4,-100.42 90.34,-88.08"/>
<polygon fill="#63b8ff" stroke="#63b8ff" points="93.08,-85.89 84.34,-79.91 87.43,-90.04 93.08,-85.89"/>
</a>
</g>
</g>
<!-- Node23&#45;&gt;Node5 -->
<g id="edge34_Node000023_Node000005" class="edge">
<title>Node23&#45;&gt;Node5</title>
<g id="a_edge34_Node000023_Node000005"><a xlink:title=" ">
<path fill="none" stroke="#63b8ff" d="M291.37,-258.16C300.6,-248.45 315.47,-232.21 326.8,-217 356.85,-176.65 351.64,-156.99 386.8,-121 401.24,-106.22 420.77,-93.48 436.42,-84.57"/>
<polygon fill="#63b8ff" stroke="#63b8ff" points="438.51,-87.41 445.58,-79.52 435.13,-81.28 438.51,-87.41"/>
</a>
</g>
</g>
<!-- Node23&#45;&gt;Node15 -->
<g id="edge33_Node000023_Node000015" class="edge">
<title>Node23&#45;&gt;Node15</title>
<g id="a_edge33_Node000023_Node000015"><a xlink:title=" ">
<path fill="none" stroke="#63b8ff" d="M256.48,-258.41C177.15,-231.25 -49.3,-143.79 32.8,-55 68.75,-16.12 442.61,-11.15 562.8,-10.56"/>
<polygon fill="#63b8ff" stroke="#63b8ff" points="562.99,-14.06 572.98,-10.52 562.96,-7.06 562.99,-14.06"/>
</a>
</g>
</g>
<!-- Node23&#45;&gt;Node20 -->
<g id="edge35_Node000023_Node000020" class="edge">
<title>Node23&#45;&gt;Node20</title>
<g id="a_edge35_Node000023_Node000020"><a xlink:title=" ">
<path fill="none" stroke="#63b8ff" d="M277,-258.37C270.49,-248.69 259.78,-232.74 251.51,-220.44"/>
<polygon fill="#63b8ff" stroke="#63b8ff" points="254.26,-218.25 245.78,-211.91 248.45,-222.16 254.26,-218.25"/>
</a>
</g>
</g>
<!-- Node24&#45;&gt;Node20 -->
<g id="edge39_Node000024_Node000020" class="edge">
<title>Node24&#45;&gt;Node20</title>
<g id="a_edge39_Node000024_Node000020"><a xlink:title=" ">
<path fill="none" stroke="#63b8ff" d="M746.54,-324.45C719,-316 677.74,-301.65 644.8,-283 626.07,-272.4 626.6,-261.42 606.8,-253 558.02,-232.27 419.92,-217.51 327.74,-209.62"/>
<polygon fill="#63b8ff" stroke="#63b8ff" points="327.83,-206.12 317.57,-208.76 327.24,-213.09 327.83,-206.12"/>
</a>
</g>
</g>
<!-- Node24&#45;&gt;Node23 -->
<g id="edge40_Node000024_Node000023" class="edge">
<title>Node24&#45;&gt;Node23</title>
<g id="a_edge40_Node000024_Node000023"><a xlink:title=" ">
<path fill="none" stroke="#63b8ff" d="M710.94,-324.47C619.61,-312.64 454.88,-291.29 358.55,-278.81"/>
<polygon fill="#63b8ff" stroke="#63b8ff" points="358.96,-275.34 348.59,-277.52 358.06,-282.28 358.96,-275.34"/>
</a>
</g>
</g>
<!-- Node25 -->
<g id="Node000025" class="node">
<title>Node25</title>
<g id="a_Node000025"><a xlink:title=" ">
<polygon fill="#e0e0e0" stroke="#999999" points="1498.3,-211.5 1421.3,-211.5 1421.3,-192.5 1498.3,-192.5 1498.3,-211.5"/>
<text text-anchor="middle" x="1459.8" y="-199.5" font-family="Helvetica,sans-Serif" font-size="10.00">sys/socket.h</text>
</a>
</g>
</g>
<!-- Node24&#45;&gt;Node25 -->
<g id="edge37_Node000024_Node000025" class="edge">
<title>Node24&#45;&gt;Node25</title>
<g id="a_edge37_Node000024_Node000025"><a xlink:title=" ">
<path fill="none" stroke="#63b8ff" d="M855.68,-330.88C950.44,-326.91 1113.67,-315.54 1249.8,-283 1317.83,-266.74 1393.58,-234.01 1432.86,-215.86"/>
<polygon fill="#63b8ff" stroke="#63b8ff" points="1434.46,-218.98 1442.04,-211.58 1431.5,-212.64 1434.46,-218.98"/>
</a>
</g>
</g>
<!-- Node26 -->
<g id="Node000026" class="node">
<title>Node26</title>
<g id="a_Node000026"><a xlink:title=" ">
<polygon fill="#e0e0e0" stroke="#999999" points="869.3,-277.5 786.3,-277.5 786.3,-258.5 869.3,-258.5 869.3,-277.5"/>
<text text-anchor="middle" x="827.8" y="-265.5" font-family="Helvetica,sans-Serif" font-size="10.00">initializer_list</text>
</a>
</g>
</g>
<!-- Node24&#45;&gt;Node26 -->
<g id="edge38_Node000024_Node000026" class="edge">
<title>Node24&#45;&gt;Node26</title>
<g id="a_edge38_Node000024_Node000026"><a xlink:title=" ">
<path fill="none" stroke="#63b8ff" d="M783.67,-324.37C791.46,-314.59 804.35,-298.42 814.19,-286.08"/>
<polygon fill="#63b8ff" stroke="#63b8ff" points="817.2,-287.91 820.7,-277.91 811.73,-283.54 817.2,-287.91"/>
</a>
</g>
</g>
<!-- Node27 -->
<g id="Node000027" class="node">
<title>Node27</title>
<g id="a_Node000027"><a xlink:href="../../d1/d76/core_2include_2userver_2engine_2io_2exception_8hpp.html" target="_top" xlink:title="I/O exceptions.">
<polygon fill="white" stroke="#666666" points="1689.3,-211.5 1516.3,-211.5 1516.3,-192.5 1689.3,-192.5 1689.3,-211.5"/>
<text text-anchor="middle" x="1602.8" y="-199.5" font-family="Helvetica,sans-Serif" font-size="10.00">userver/engine/io/exception.hpp</text>
</a>
</g>
</g>
<!-- Node24&#45;&gt;Node27 -->
<g id="edge41_Node000024_Node000027" class="edge">
<title>Node24&#45;&gt;Node27</title>
<g id="a_edge41_Node000024_Node000027"><a xlink:title=" ">
<path fill="none" stroke="#63b8ff" d="M855.5,-329.88C960.01,-324.76 1150.01,-312.08 1309.8,-283 1404.54,-265.76 1513.23,-232.4 1567.74,-214.7"/>
<polygon fill="#63b8ff" stroke="#63b8ff" points="1568.85,-218.01 1577.27,-211.58 1566.68,-211.36 1568.85,-218.01"/>
</a>
</g>
</g>
<!-- Node30 -->
<g id="Node000030" class="node">
<title>Node30</title>
<g id="a_Node000030"><a xlink:href="../../db/d29/fd__control__holder_8hpp_source.html" target="_top" xlink:title=" ">
<polygon fill="white" stroke="#666666" points="767.8,-283 653.8,-283 653.8,-253 767.8,-253 767.8,-283"/>
<text text-anchor="start" x="661.8" y="-271" font-family="Helvetica,sans-Serif" font-size="10.00">userver/engine/io/fd</text>
<text text-anchor="middle" x="710.8" y="-260" font-family="Helvetica,sans-Serif" font-size="10.00">_control_holder.hpp</text>
</a>
</g>
</g>
<!-- Node24&#45;&gt;Node30 -->
<g id="edge46_Node000024_Node000030" class="edge">
<title>Node24&#45;&gt;Node30</title>
<g id="a_edge46_Node000024_Node000030"><a xlink:title=" ">
<path fill="none" stroke="#63b8ff" d="M767.89,-324.37C758.95,-315.69 744.8,-301.98 732.83,-290.37"/>
<polygon fill="#63b8ff" stroke="#63b8ff" points="734.97,-287.56 725.35,-283.12 730.1,-292.59 734.97,-287.56"/>
</a>
</g>
</g>
<!-- Node31 -->
<g id="Node000031" class="node">
<title>Node31</title>
<g id="a_Node000031"><a xlink:href="../../d7/d1b/sockaddr_8hpp.html" target="_top" xlink:title="Native socket address wrapper.">
<polygon fill="white" stroke="#666666" points="1240.8,-277.5 1072.8,-277.5 1072.8,-258.5 1240.8,-258.5 1240.8,-277.5"/>
<text text-anchor="middle" x="1156.8" y="-265.5" font-family="Helvetica,sans-Serif" font-size="10.00">userver/engine/io/sockaddr.hpp</text>
</a>
</g>
</g>
<!-- Node24&#45;&gt;Node31 -->
<g id="edge48_Node000024_Node000031" class="edge">
<title>Node24&#45;&gt;Node31</title>
<g id="a_edge48_Node000024_Node000031"><a xlink:title=" ">
<path fill="none" stroke="#63b8ff" d="M827.65,-324.44C897.19,-312.72 1021.76,-291.74 1096.1,-279.22"/>
<polygon fill="#63b8ff" stroke="#63b8ff" points="1096.96,-282.63 1106.24,-277.51 1095.8,-275.72 1096.96,-282.63"/>
</a>
</g>
</g>
<!-- Node27&#45;&gt;Node6 -->
<g id="edge43_Node000027_Node000006" class="edge">
<title>Node27&#45;&gt;Node6</title>
<g id="a_edge43_Node000027_Node000006"><a xlink:title=" ">
<path fill="none" stroke="#63b8ff" d="M1551.64,-192.43C1537.48,-190.34 1522.07,-188.32 1507.8,-187 1094.59,-148.69 987.74,-192.05 574.8,-151 407.91,-134.41 211.95,-97.74 124.28,-80.41"/>
<polygon fill="#63b8ff" stroke="#63b8ff" points="124.87,-76.96 114.38,-78.45 123.51,-83.83 124.87,-76.96"/>
</a>
</g>
</g>
<!-- Node27&#45;&gt;Node9 -->
<g id="edge45_Node000027_Node000009" class="edge">
<title>Node27&#45;&gt;Node9</title>
<g id="a_edge45_Node000027_Node000009"><a xlink:title=" ">
<path fill="none" stroke="#63b8ff" d="M1550.63,-192.48C1536.74,-190.44 1521.73,-188.44 1507.8,-187 1239.41,-159.31 1170.39,-176.52 901.8,-151 889.51,-149.83 876.46,-148.34 863.85,-146.76"/>
<polygon fill="#63b8ff" stroke="#63b8ff" points="864.22,-143.28 853.86,-145.49 863.33,-150.23 864.22,-143.28"/>
</a>
</g>
</g>
<!-- Node28 -->
<g id="Node000028" class="node">
<title>Node28</title>
<g id="a_Node000028"><a xlink:title=" ">
<polygon fill="#e0e0e0" stroke="#999999" points="1567.3,-145.5 1502.3,-145.5 1502.3,-126.5 1567.3,-126.5 1567.3,-145.5"/>
<text text-anchor="middle" x="1534.8" y="-133.5" font-family="Helvetica,sans-Serif" font-size="10.00">stdexcept</text>
</a>
</g>
</g>
<!-- Node27&#45;&gt;Node28 -->
<g id="edge42_Node000027_Node000028" class="edge">
<title>Node27&#45;&gt;Node28</title>
<g id="a_edge42_Node000027_Node000028"><a xlink:title=" ">
<path fill="none" stroke="#63b8ff" d="M1593.63,-192.37C1582.94,-182.31 1565.05,-165.48 1551.8,-153.01"/>
<polygon fill="#63b8ff" stroke="#63b8ff" points="1553.94,-150.21 1544.26,-145.91 1549.14,-155.31 1553.94,-150.21"/>
</a>
</g>
</g>
<!-- Node29 -->
<g id="Node000029" class="node">
<title>Node29</title>
<g id="a_Node000029"><a xlink:title=" ">
<polygon fill="#e0e0e0" stroke="#999999" points="1666.3,-145.5 1585.3,-145.5 1585.3,-126.5 1666.3,-126.5 1666.3,-145.5"/>
<text text-anchor="middle" x="1625.8" y="-133.5" font-family="Helvetica,sans-Serif" font-size="10.00">system_error</text>
</a>
</g>
</g>
<!-- Node27&#45;&gt;Node29 -->
<g id="edge44_Node000027_Node000029" class="edge">
<title>Node27&#45;&gt;Node29</title>
<g id="a_edge44_Node000027_Node000029"><a xlink:title=" ">
<path fill="none" stroke="#63b8ff" d="M1605.9,-192.37C1609.27,-182.97 1614.77,-167.67 1619.14,-155.53"/>
<polygon fill="#63b8ff" stroke="#63b8ff" points="1622.51,-156.5 1622.6,-145.91 1615.92,-154.13 1622.51,-156.5"/>
</a>
</g>
</g>
<!-- Node30&#45;&gt;Node5 -->
<g id="edge47_Node000030_Node000005" class="edge">
<title>Node30&#45;&gt;Node5</title>
<g id="a_edge47_Node000030_Node000005"><a xlink:title=" ">
<path fill="none" stroke="#63b8ff" d="M697.87,-252.89C682.29,-236.24 654.92,-208.15 628.8,-187 606.38,-168.85 598.53,-167.38 574.8,-151 542.3,-128.57 505.09,-101.77 482.8,-85.58"/>
<polygon fill="#63b8ff" stroke="#63b8ff" points="484.63,-82.58 474.48,-79.53 480.51,-88.25 484.63,-82.58"/>
</a>
</g>
</g>
<!-- Node31&#45;&gt;Node2 -->
<g id="edge54_Node000031_Node000002" class="edge">
<title>Node31&#45;&gt;Node2</title>
<g id="a_edge54_Node000031_Node000002"><a xlink:title=" ">
<path fill="none" stroke="#63b8ff" d="M1208.74,-258.49C1269.59,-248 1363.47,-229.97 1373.8,-217 1382.1,-206.57 1381.13,-198.14 1373.8,-187 1310.74,-91.22 1241.99,-130.65 1136.8,-85 1135.79,-84.57 1134.78,-84.12 1133.75,-83.68"/>
<polygon fill="#63b8ff" stroke="#63b8ff" points="1134.98,-80.4 1124.42,-79.61 1132.19,-86.81 1134.98,-80.4"/>
</a>
</g>
</g>
<!-- Node31&#45;&gt;Node12 -->
<g id="edge55_Node000031_Node000012" class="edge">
<title>Node31&#45;&gt;Node12</title>
<g id="a_edge55_Node000031_Node000012"><a xlink:title=" ">
<path fill="none" stroke="#63b8ff" d="M1161.48,-258.12C1168.85,-242.82 1181.22,-210.86 1169.8,-187 1145.92,-137.11 1088.95,-101.83 1054.25,-84.09"/>
<polygon fill="#63b8ff" stroke="#63b8ff" points="1055.62,-80.86 1045.1,-79.56 1052.51,-87.13 1055.62,-80.86"/>
</a>
</g>
</g>
<!-- Node31&#45;&gt;Node25 -->
<g id="edge50_Node000031_Node000025" class="edge">
<title>Node31&#45;&gt;Node25</title>
<g id="a_edge50_Node000031_Node000025"><a xlink:title=" ">
<path fill="none" stroke="#63b8ff" d="M1203.98,-258.45C1254.38,-249.11 1336.51,-233.3 1406.8,-217 1410.7,-216.09 1414.75,-215.11 1418.8,-214.09"/>
<polygon fill="#63b8ff" stroke="#63b8ff" points="1419.95,-217.41 1428.77,-211.53 1418.21,-210.63 1419.95,-217.41"/>
</a>
</g>
</g>
<!-- Node32 -->
<g id="Node000032" class="node">
<title>Node32</title>
<g id="a_Node000032"><a xlink:title=" ">
<polygon fill="#e0e0e0" stroke="#999999" points="1160.8,-211.5 1088.8,-211.5 1088.8,-192.5 1160.8,-192.5 1160.8,-211.5"/>
<text text-anchor="middle" x="1124.8" y="-199.5" font-family="Helvetica,sans-Serif" font-size="10.00">netinet/in.h</text>
</a>
</g>
</g>
<!-- Node31&#45;&gt;Node32 -->
<g id="edge49_Node000031_Node000032" class="edge">
<title>Node31&#45;&gt;Node32</title>
<g id="a_edge49_Node000031_Node000032"><a xlink:title=" ">
<path fill="none" stroke="#63b8ff" d="M1152.48,-258.37C1147.74,-248.88 1139.98,-233.36 1133.88,-221.16"/>
<polygon fill="#63b8ff" stroke="#63b8ff" points="1136.85,-219.28 1129.25,-211.91 1130.59,-222.41 1136.85,-219.28"/>
</a>
</g>
</g>
<!-- Node33 -->
<g id="Node000033" class="node">
<title>Node33</title>
<g id="a_Node000033"><a xlink:title=" ">
<polygon fill="#e0e0e0" stroke="#999999" points="1288.8,-211.5 1216.8,-211.5 1216.8,-192.5 1288.8,-192.5 1288.8,-211.5"/>
<text text-anchor="middle" x="1252.8" y="-199.5" font-family="Helvetica,sans-Serif" font-size="10.00">sys/types.h</text>
</a>
</g>
</g>
<!-- Node31&#45;&gt;Node33 -->
<g id="edge51_Node000031_Node000033" class="edge">
<title>Node31&#45;&gt;Node33</title>
<g id="a_edge51_Node000031_Node000033"><a xlink:title=" ">
<path fill="none" stroke="#63b8ff" d="M1169.74,-258.37C1185.49,-247.87 1212.3,-230 1231.19,-217.4"/>
<polygon fill="#63b8ff" stroke="#63b8ff" points="1233.37,-220.16 1239.75,-211.7 1229.49,-214.33 1233.37,-220.16"/>
</a>
</g>
</g>
<!-- Node34 -->
<g id="Node000034" class="node">
<title>Node34</title>
<g id="a_Node000034"><a xlink:title=" ">
<polygon fill="#e0e0e0" stroke="#999999" points="1364.3,-211.5 1307.3,-211.5 1307.3,-192.5 1364.3,-192.5 1364.3,-211.5"/>
<text text-anchor="middle" x="1335.8" y="-199.5" font-family="Helvetica,sans-Serif" font-size="10.00">sys/un.h</text>
</a>
</g>
</g>
<!-- Node31&#45;&gt;Node34 -->
<g id="edge52_Node000031_Node000034" class="edge">
<title>Node31&#45;&gt;Node34</title>
<g id="a_edge52_Node000031_Node000034"><a xlink:title=" ">
<path fill="none" stroke="#63b8ff" d="M1181.28,-258.42C1209.43,-248.53 1257,-231.75 1297.8,-217 1299.43,-216.41 1301.11,-215.8 1302.8,-215.18"/>
<polygon fill="#63b8ff" stroke="#63b8ff" points="1304.31,-218.36 1312.5,-211.63 1301.91,-211.78 1304.31,-218.36"/>
</a>
</g>
</g>
<!-- Node35 -->
<g id="Node000035" class="node">
<title>Node35</title>
<g id="a_Node000035"><a xlink:title=" ">
<polygon fill="#e0e0e0" stroke="#999999" points="1070.8,-211.5 1020.8,-211.5 1020.8,-192.5 1070.8,-192.5 1070.8,-211.5"/>
<text text-anchor="middle" x="1045.8" y="-199.5" font-family="Helvetica,sans-Serif" font-size="10.00">cstring</text>
</a>
</g>
</g>
<!-- Node31&#45;&gt;Node35 -->
<g id="edge53_Node000031_Node000035" class="edge">
<title>Node31&#45;&gt;Node35</title>
<g id="a_edge53_Node000031_Node000035"><a xlink:title=" ">
<path fill="none" stroke="#63b8ff" d="M1141.83,-258.37C1123.29,-247.68 1091.49,-229.35 1069.59,-216.72"/>
<polygon fill="#63b8ff" stroke="#63b8ff" points="1071.29,-213.66 1060.88,-211.7 1067.8,-219.73 1071.29,-213.66"/>
</a>
</g>
</g>
<!-- Node36 -->
<g id="Node000036" class="node">
<title>Node36</title>
<g id="a_Node000036"><a xlink:href="../../d3/d6c/fmt__compat_8hpp_source.html" target="_top" xlink:title=" ">
<polygon fill="white" stroke="#666666" points="1002.3,-211.5 841.3,-211.5 841.3,-192.5 1002.3,-192.5 1002.3,-211.5"/>
<text text-anchor="middle" x="921.8" y="-199.5" font-family="Helvetica,sans-Serif" font-size="10.00">userver/utils/fmt_compat.hpp</text>
</a>
</g>
</g>
<!-- Node31&#45;&gt;Node36 -->
<g id="edge56_Node000031_Node000036" class="edge">
<title>Node31&#45;&gt;Node36</title>
<g id="a_edge56_Node000031_Node000036"><a xlink:title=" ">
<path fill="none" stroke="#63b8ff" d="M1125.1,-258.37C1083.2,-246.96 1009.29,-226.83 963.07,-214.24"/>
<polygon fill="#63b8ff" stroke="#63b8ff" points="963.93,-210.85 953.36,-211.6 962.09,-217.6 963.93,-210.85"/>
</a>
</g>
</g>
<!-- Node38 -->
<g id="Node000038" class="node">
<title>Node38</title>
<g id="a_Node000038"><a xlink:href="../../d0/d14/log__helper__fwd_8hpp.html" target="_top" xlink:title=" ">
<polygon fill="white" stroke="#666666" points="822.8,-217 712.8,-217 712.8,-187 822.8,-187 822.8,-217"/>
<text text-anchor="start" x="720.8" y="-205" font-family="Helvetica,sans-Serif" font-size="10.00">userver/logging/log</text>
<text text-anchor="middle" x="767.8" y="-194" font-family="Helvetica,sans-Serif" font-size="10.00">_helper_fwd.hpp</text>
</a>
</g>
</g>
<!-- Node31&#45;&gt;Node38 -->
<g id="edge58_Node000031_Node000038" class="edge">
<title>Node31&#45;&gt;Node38</title>
<g id="a_edge58_Node000031_Node000038"><a xlink:title=" ">
<path fill="none" stroke="#63b8ff" d="M1094.5,-258.5C1031.3,-249.62 930.44,-234.77 833.09,-216.98"/>
<polygon fill="#63b8ff" stroke="#63b8ff" points="833.54,-213.51 823.07,-215.14 832.27,-220.39 833.54,-213.51"/>
</a>
</g>
</g>
<!-- Node37 -->
<g id="Node000037" class="node">
<title>Node37</title>
<g id="a_Node000037"><a xlink:title=" ">
<polygon fill="#e0e0e0" stroke="#999999" points="977.3,-145.5 910.3,-145.5 910.3,-126.5 977.3,-126.5 977.3,-145.5"/>
<text text-anchor="middle" x="943.8" y="-133.5" font-family="Helvetica,sans-Serif" font-size="10.00">fmt/core.h</text>
</a>
</g>
</g>
<!-- Node36&#45;&gt;Node37 -->
<g id="edge57_Node000036_Node000037" class="edge">
<title>Node36&#45;&gt;Node37</title>
<g id="a_edge57_Node000036_Node000037"><a xlink:title=" ">
<path fill="none" stroke="#63b8ff" d="M924.76,-192.37C927.99,-182.97 933.25,-167.67 937.43,-155.53"/>
<polygon fill="#63b8ff" stroke="#63b8ff" points="940.79,-156.5 940.73,-145.91 934.17,-154.22 940.79,-156.5"/>
</a>
</g>
</g>
<!-- Node39 -->
<g id="Node000039" class="node">
<title>Node39</title>
<g id="a_Node000039"><a xlink:href="../../db/dfb/universal_2include_2userver_2logging_2fwd_8hpp.html" target="_top" xlink:title="Forward declarations for logging types.">
<polygon fill="white" stroke="#666666" points="717.8,-145.5 583.8,-145.5 583.8,-126.5 717.8,-126.5 717.8,-145.5"/>
<text text-anchor="middle" x="650.8" y="-133.5" font-family="Helvetica,sans-Serif" font-size="10.00">userver/logging/fwd.hpp</text>
</a>
</g>
</g>
<!-- Node38&#45;&gt;Node39 -->
<g id="edge59_Node000038_Node000039" class="edge">
<title>Node38&#45;&gt;Node39</title>
<g id="a_edge59_Node000038_Node000039"><a xlink:title=" ">
<path fill="none" stroke="#63b8ff" d="M742.12,-186.95C722.23,-176.08 694.87,-161.11 675.29,-150.4"/>
<polygon fill="#63b8ff" stroke="#63b8ff" points="676.82,-147.25 666.37,-145.52 673.46,-153.39 676.82,-147.25"/>
</a>
</g>
</g>
<!-- Node39&#45;&gt;Node5 -->
<g id="edge60_Node000039_Node000005" class="edge">
<title>Node39&#45;&gt;Node5</title>
<g id="a_edge60_Node000039_Node000005"><a xlink:title=" ">
<path fill="none" stroke="#63b8ff" d="M625.44,-126.37C592.55,-115.17 535.01,-95.58 497.93,-82.96"/>
<polygon fill="#63b8ff" stroke="#63b8ff" points="498.64,-79.51 488.05,-79.6 496.39,-86.13 498.64,-79.51"/>
</a>
</g>
</g>
</g>
</svg>
