<?xml version="1.0" encoding="UTF-8" standalone="no"?>
<!DOCTYPE svg PUBLIC "-//W3C//DTD SVG 1.1//EN"
 "http://www.w3.org/Graphics/SVG/1.1/DTD/svg11.dtd">
<!-- Generated by graphviz version 2.43.0 (0)
 -->
<!-- Title: userver/server/request/request_context.hpp Pages: 1 -->
<svg width="633pt" height="159pt"
 viewBox="0.00 0.00 633.00 159.00" xmlns="http://www.w3.org/2000/svg" xmlns:xlink="http://www.w3.org/1999/xlink">
<g id="graph0" class="graph" transform="scale(1 1) rotate(0) translate(4 155)">
<title>userver/server/request/request_context.hpp</title>
<!-- Node1 -->
<g id="Node000001" class="node">
<title>Node1</title>
<g id="a_Node000001"><a xlink:title="Stores request&#45;specific data during request processing.">
<polygon fill="#999999" stroke="#666666" points="273.5,-151 146.5,-151 146.5,-121 273.5,-121 273.5,-151"/>
<text text-anchor="start" x="154.5" y="-139" font-family="Helvetica,sans-Serif" font-size="10.00">userver/server/request</text>
<text text-anchor="middle" x="210" y="-128" font-family="Helvetica,sans-Serif" font-size="10.00">/request_context.hpp</text>
</a>
</g>
</g>
<!-- Node2 -->
<g id="Node000002" class="node">
<title>Node2</title>
<g id="a_Node000002"><a xlink:title=" ">
<polygon fill="#e0e0e0" stroke="#999999" points="44,-79.5 0,-79.5 0,-60.5 44,-60.5 44,-79.5"/>
<text text-anchor="middle" x="22" y="-67.5" font-family="Helvetica,sans-Serif" font-size="10.00">string</text>
</a>
</g>
</g>
<!-- Node1&#45;&gt;Node2 -->
<g id="edge1_Node000001_Node000002" class="edge">
<title>Node1&#45;&gt;Node2</title>
<g id="a_edge1_Node000001_Node000002"><a xlink:title=" ">
<path fill="none" stroke="#63b8ff" d="M160.7,-120.9C129.51,-111.59 88.52,-98.62 53,-85 51.79,-84.54 50.56,-84.05 49.32,-83.55"/>
<polygon fill="#63b8ff" stroke="#63b8ff" points="50.45,-80.22 39.88,-79.5 47.7,-86.66 50.45,-80.22"/>
</a>
</g>
</g>
<!-- Node3 -->
<g id="Node000003" class="node">
<title>Node3</title>
<g id="a_Node000003"><a xlink:href="../../d2/d84/select_8hpp.html" target="_top" xlink:title="Utilities for selection of platform specific values.">
<polygon fill="white" stroke="#666666" points="214,-79.5 62,-79.5 62,-60.5 214,-60.5 214,-79.5"/>
<text text-anchor="middle" x="138" y="-67.5" font-family="Helvetica,sans-Serif" font-size="10.00">userver/compiler/select.hpp</text>
</a>
</g>
</g>
<!-- Node1&#45;&gt;Node3 -->
<g id="edge2_Node000001_Node000003" class="edge">
<title>Node1&#45;&gt;Node3</title>
<g id="a_edge2_Node000001_Node000003"><a xlink:title=" ">
<path fill="none" stroke="#63b8ff" d="M194.02,-120.8C182.69,-110.72 167.47,-97.19 155.75,-86.78"/>
<polygon fill="#63b8ff" stroke="#63b8ff" points="157.75,-83.87 147.95,-79.84 153.1,-89.1 157.75,-83.87"/>
</a>
</g>
</g>
<!-- Node5 -->
<g id="Node000005" class="node">
<title>Node5</title>
<g id="a_Node000005"><a xlink:href="../../d5/d29/any__movable_8hpp.html" target="_top" xlink:title="Replacement for std::any that is not copyable. It allows to store non&#45;copyable and even non&#45;movable t...">
<polygon fill="white" stroke="#666666" points="516.5,-79.5 349.5,-79.5 349.5,-60.5 516.5,-60.5 516.5,-79.5"/>
<text text-anchor="middle" x="433" y="-67.5" font-family="Helvetica,sans-Serif" font-size="10.00">userver/utils/any_movable.hpp</text>
</a>
</g>
</g>
<!-- Node1&#45;&gt;Node5 -->
<g id="edge4_Node000001_Node000005" class="edge">
<title>Node1&#45;&gt;Node5</title>
<g id="a_edge4_Node000001_Node000005"><a xlink:title=" ">
<path fill="none" stroke="#63b8ff" d="M258.94,-120.95C299.25,-109.38 355.7,-93.18 393.26,-82.41"/>
<polygon fill="#63b8ff" stroke="#63b8ff" points="394.68,-85.64 403.32,-79.52 392.74,-78.91 394.68,-85.64"/>
</a>
</g>
</g>
<!-- Node11 -->
<g id="Node000011" class="node">
<title>Node11</title>
<g id="a_Node000011"><a xlink:href="../../d5/d02/fast__pimpl_8hpp.html" target="_top" xlink:title="Implements pimpl idiom without dynamic memory allocation.">
<polygon fill="white" stroke="#666666" points="331.5,-85 232.5,-85 232.5,-55 331.5,-55 331.5,-85"/>
<text text-anchor="start" x="240.5" y="-73" font-family="Helvetica,sans-Serif" font-size="10.00">userver/utils/fast</text>
<text text-anchor="middle" x="282" y="-62" font-family="Helvetica,sans-Serif" font-size="10.00">_pimpl.hpp</text>
</a>
</g>
</g>
<!-- Node1&#45;&gt;Node11 -->
<g id="edge10_Node000001_Node000011" class="edge">
<title>Node1&#45;&gt;Node11</title>
<g id="a_edge10_Node000001_Node000011"><a xlink:title=" ">
<path fill="none" stroke="#63b8ff" d="M225.98,-120.8C235.49,-112.34 247.73,-101.46 258.34,-92.03"/>
<polygon fill="#63b8ff" stroke="#63b8ff" points="260.92,-94.42 266.07,-85.16 256.27,-89.19 260.92,-94.42"/>
</a>
</g>
</g>
<!-- Node4 -->
<g id="Node000004" class="node">
<title>Node4</title>
<g id="a_Node000004"><a xlink:title=" ">
<polygon fill="#e0e0e0" stroke="#999999" points="178.5,-19 125.5,-19 125.5,0 178.5,0 178.5,-19"/>
<text text-anchor="middle" x="152" y="-7" font-family="Helvetica,sans-Serif" font-size="10.00">cstddef</text>
</a>
</g>
</g>
<!-- Node3&#45;&gt;Node4 -->
<g id="edge3_Node000003_Node000004" class="edge">
<title>Node3&#45;&gt;Node4</title>
<g id="a_edge3_Node000003_Node000004"><a xlink:title=" ">
<path fill="none" stroke="#63b8ff" d="M140.07,-60.37C142.03,-52.16 145.05,-39.54 147.56,-29.05"/>
<polygon fill="#63b8ff" stroke="#63b8ff" points="151,-29.71 149.93,-19.17 144.19,-28.08 151,-29.71"/>
</a>
</g>
</g>
<!-- Node6 -->
<g id="Node000006" class="node">
<title>Node6</title>
<g id="a_Node000006"><a xlink:title=" ">
<polygon fill="#e0e0e0" stroke="#999999" points="447.5,-19 412.5,-19 412.5,0 447.5,0 447.5,-19"/>
<text text-anchor="middle" x="430" y="-7" font-family="Helvetica,sans-Serif" font-size="10.00">any</text>
</a>
</g>
</g>
<!-- Node5&#45;&gt;Node6 -->
<g id="edge5_Node000005_Node000006" class="edge">
<title>Node5&#45;&gt;Node6</title>
<g id="a_edge5_Node000005_Node000006"><a xlink:title=" ">
<path fill="none" stroke="#63b8ff" d="M432.56,-60.37C432.14,-52.25 431.5,-39.81 430.97,-29.39"/>
<polygon fill="#63b8ff" stroke="#63b8ff" points="434.45,-28.97 430.44,-19.17 427.46,-29.33 434.45,-28.97"/>
</a>
</g>
</g>
<!-- Node7 -->
<g id="Node000007" class="node">
<title>Node7</title>
<g id="a_Node000007"><a xlink:title=" ">
<polygon fill="#e0e0e0" stroke="#999999" points="548.5,-19 465.5,-19 465.5,0 548.5,0 548.5,-19"/>
<text text-anchor="middle" x="507" y="-7" font-family="Helvetica,sans-Serif" font-size="10.00">initializer_list</text>
</a>
</g>
</g>
<!-- Node5&#45;&gt;Node7 -->
<g id="edge6_Node000005_Node000007" class="edge">
<title>Node5&#45;&gt;Node7</title>
<g id="a_edge6_Node000005_Node000007"><a xlink:title=" ">
<path fill="none" stroke="#63b8ff" d="M443.92,-60.37C455.51,-51.21 474.03,-36.56 488.02,-25.51"/>
<polygon fill="#63b8ff" stroke="#63b8ff" points="490.36,-28.11 496.04,-19.17 486.02,-22.62 490.36,-28.11"/>
</a>
</g>
</g>
<!-- Node8 -->
<g id="Node000008" class="node">
<title>Node8</title>
<g id="a_Node000008"><a xlink:title=" ">
<polygon fill="#e0e0e0" stroke="#999999" points="625,-19 567,-19 567,0 625,0 625,-19"/>
<text text-anchor="middle" x="596" y="-7" font-family="Helvetica,sans-Serif" font-size="10.00">memory</text>
</a>
</g>
</g>
<!-- Node5&#45;&gt;Node8 -->
<g id="edge7_Node000005_Node000008" class="edge">
<title>Node5&#45;&gt;Node8</title>
<g id="a_edge7_Node000005_Node000008"><a xlink:title=" ">
<path fill="none" stroke="#63b8ff" d="M456.7,-60.49C484.59,-50.49 531.07,-33.8 562.6,-22.49"/>
<polygon fill="#63b8ff" stroke="#63b8ff" points="564.04,-25.69 572.27,-19.02 561.68,-19.1 564.04,-25.69"/>
</a>
</g>
</g>
<!-- Node9 -->
<g id="Node000009" class="node">
<title>Node9</title>
<g id="a_Node000009"><a xlink:title=" ">
<polygon fill="#e0e0e0" stroke="#999999" points="394.5,-19 325.5,-19 325.5,0 394.5,0 394.5,-19"/>
<text text-anchor="middle" x="360" y="-7" font-family="Helvetica,sans-Serif" font-size="10.00">type_traits</text>
</a>
</g>
</g>
<!-- Node5&#45;&gt;Node9 -->
<g id="edge8_Node000005_Node000009" class="edge">
<title>Node5&#45;&gt;Node9</title>
<g id="a_edge8_Node000005_Node000009"><a xlink:title=" ">
<path fill="none" stroke="#63b8ff" d="M422.23,-60.37C410.8,-51.21 392.52,-36.56 378.72,-25.51"/>
<polygon fill="#63b8ff" stroke="#63b8ff" points="380.81,-22.69 370.82,-19.17 376.43,-28.15 380.81,-22.69"/>
</a>
</g>
</g>
<!-- Node10 -->
<g id="Node000010" class="node">
<title>Node10</title>
<g id="a_Node000010"><a xlink:title=" ">
<polygon fill="#e0e0e0" stroke="#999999" points="307.5,-19 262.5,-19 262.5,0 307.5,0 307.5,-19"/>
<text text-anchor="middle" x="285" y="-7" font-family="Helvetica,sans-Serif" font-size="10.00">utility</text>
</a>
</g>
</g>
<!-- Node5&#45;&gt;Node10 -->
<g id="edge9_Node000005_Node000010" class="edge">
<title>Node5&#45;&gt;Node10</title>
<g id="a_edge9_Node000005_Node000010"><a xlink:title=" ">
<path fill="none" stroke="#63b8ff" d="M411.48,-60.49C386.38,-50.57 344.68,-34.09 316.07,-22.78"/>
<polygon fill="#63b8ff" stroke="#63b8ff" points="317.13,-19.44 306.55,-19.02 314.56,-25.95 317.13,-19.44"/>
</a>
</g>
</g>
<!-- Node11&#45;&gt;Node4 -->
<g id="edge11_Node000011_Node000004" class="edge">
<title>Node11&#45;&gt;Node4</title>
<g id="a_edge11_Node000011_Node000004"><a xlink:title=" ">
<path fill="none" stroke="#63b8ff" d="M250.86,-54.99C229.46,-45.36 201.27,-32.67 180.47,-23.31"/>
<polygon fill="#63b8ff" stroke="#63b8ff" points="181.75,-20.05 171.2,-19.14 178.88,-26.43 181.75,-20.05"/>
</a>
</g>
</g>
<!-- Node11&#45;&gt;Node9 -->
<g id="edge13_Node000011_Node000009" class="edge">
<title>Node11&#45;&gt;Node9</title>
<g id="a_edge13_Node000011_Node000009"><a xlink:title=" ">
<path fill="none" stroke="#63b8ff" d="M300.88,-54.84C312.78,-45.91 328.12,-34.41 340.2,-25.35"/>
<polygon fill="#63b8ff" stroke="#63b8ff" points="342.41,-28.07 348.31,-19.27 338.21,-22.47 342.41,-28.07"/>
</a>
</g>
</g>
<!-- Node11&#45;&gt;Node10 -->
<g id="edge14_Node000011_Node000010" class="edge">
<title>Node11&#45;&gt;Node10</title>
<g id="a_edge14_Node000011_Node000010"><a xlink:title=" ">
<path fill="none" stroke="#63b8ff" d="M282.73,-54.84C283.12,-47.21 283.6,-37.7 284.03,-29.45"/>
<polygon fill="#63b8ff" stroke="#63b8ff" points="287.53,-29.43 284.55,-19.27 280.54,-29.07 287.53,-29.43"/>
</a>
</g>
</g>
<!-- Node12 -->
<g id="Node000012" class="node">
<title>Node12</title>
<g id="a_Node000012"><a xlink:title=" ">
<polygon fill="#e0e0e0" stroke="#999999" points="244.5,-19 207.5,-19 207.5,0 244.5,0 244.5,-19"/>
<text text-anchor="middle" x="226" y="-7" font-family="Helvetica,sans-Serif" font-size="10.00">new</text>
</a>
</g>
</g>
<!-- Node11&#45;&gt;Node12 -->
<g id="edge12_Node000011_Node000012" class="edge">
<title>Node11&#45;&gt;Node12</title>
<g id="a_edge12_Node000011_Node000012"><a xlink:title=" ">
<path fill="none" stroke="#63b8ff" d="M268.44,-54.84C260.32,-46.35 249.95,-35.52 241.5,-26.69"/>
<polygon fill="#63b8ff" stroke="#63b8ff" points="243.83,-24.07 234.39,-19.27 238.78,-28.91 243.83,-24.07"/>
</a>
</g>
</g>
</g>
</svg>
