<?xml version="1.0" encoding="UTF-8" standalone="no"?>
<!DOCTYPE svg PUBLIC "-//W3C//DTD SVG 1.1//EN"
 "http://www.w3.org/Graphics/SVG/1.1/DTD/svg11.dtd">
<!-- Generated by graphviz version 2.43.0 (0)
 -->
<!-- Title: userver/storages/postgres/io/enum_types.hpp Pages: 1 -->
<svg width="681pt" height="434pt"
 viewBox="0.00 0.00 680.98 434.00" xmlns="http://www.w3.org/2000/svg" xmlns:xlink="http://www.w3.org/1999/xlink">
<g id="graph0" class="graph" transform="scale(1 1) rotate(0) translate(4 430)">
<title>userver/storages/postgres/io/enum_types.hpp</title>
<!-- Node1 -->
<g id="Node000001" class="node">
<title>Node1</title>
<g id="a_Node000001"><a xlink:title="Enum I/O support.">
<polygon fill="#999999" stroke="#666666" points="377.23,-426 234.23,-426 234.23,-396 377.23,-396 377.23,-426"/>
<text text-anchor="start" x="242.23" y="-414" font-family="Helvetica,sans-Serif" font-size="10.00">userver/storages/postgres</text>
<text text-anchor="middle" x="305.73" y="-403" font-family="Helvetica,sans-Serif" font-size="10.00">/io/enum_types.hpp</text>
</a>
</g>
</g>
<!-- Node2 -->
<g id="Node000002" class="node">
<title>Node2</title>
<g id="a_Node000002"><a xlink:href="../../de/d7f/supported__types_8hpp_source.html" target="_top" xlink:title=" ">
<polygon fill="white" stroke="#666666" points="377.23,-360 234.23,-360 234.23,-330 377.23,-330 377.23,-360"/>
<text text-anchor="start" x="242.23" y="-348" font-family="Helvetica,sans-Serif" font-size="10.00">userver/storages/postgres</text>
<text text-anchor="middle" x="305.73" y="-337" font-family="Helvetica,sans-Serif" font-size="10.00">/io/supported_types.hpp</text>
</a>
</g>
</g>
<!-- Node1&#45;&gt;Node2 -->
<g id="edge1_Node000001_Node000002" class="edge">
<title>Node1&#45;&gt;Node2</title>
<g id="a_edge1_Node000001_Node000002"><a xlink:title=" ">
<path fill="none" stroke="#63b8ff" d="M305.73,-385.54C305.73,-376.96 305.73,-367.61 305.73,-360.16"/>
<polygon fill="#63b8ff" stroke="#63b8ff" points="302.23,-385.8 305.73,-395.8 309.23,-385.8 302.23,-385.8"/>
</a>
</g>
</g>
<!-- Node3 -->
<g id="Node000003" class="node">
<title>Node3</title>
<g id="a_Node000003"><a xlink:href="../../d2/d3f/query__parameters_8hpp_source.html" target="_top" xlink:title=" ">
<polygon fill="white" stroke="#666666" points="267.23,-294 106.23,-294 106.23,-264 267.23,-264 267.23,-294"/>
<text text-anchor="start" x="114.23" y="-282" font-family="Helvetica,sans-Serif" font-size="10.00">userver/storages/postgres</text>
<text text-anchor="middle" x="186.73" y="-271" font-family="Helvetica,sans-Serif" font-size="10.00">/detail/query_parameters.hpp</text>
</a>
</g>
</g>
<!-- Node2&#45;&gt;Node3 -->
<g id="edge2_Node000002_Node000003" class="edge">
<title>Node2&#45;&gt;Node3</title>
<g id="a_edge2_Node000002_Node000003"><a xlink:title=" ">
<path fill="none" stroke="#63b8ff" d="M270.6,-325.11C252.07,-315.14 229.74,-303.13 212.78,-294.01"/>
<polygon fill="#63b8ff" stroke="#63b8ff" points="269.15,-328.3 279.61,-329.95 272.46,-322.14 269.15,-328.3"/>
</a>
</g>
</g>
<!-- Node11 -->
<g id="Node000011" class="node">
<title>Node11</title>
<g id="a_Node000011"><a xlink:href="../../de/d1d/result__set_8hpp.html" target="_top" xlink:title="Result accessors.">
<polygon fill="white" stroke="#666666" points="546.23,-294 403.23,-294 403.23,-264 546.23,-264 546.23,-294"/>
<text text-anchor="start" x="411.23" y="-282" font-family="Helvetica,sans-Serif" font-size="10.00">userver/storages/postgres</text>
<text text-anchor="middle" x="474.73" y="-271" font-family="Helvetica,sans-Serif" font-size="10.00">/result_set.hpp</text>
</a>
</g>
</g>
<!-- Node2&#45;&gt;Node11 -->
<g id="edge15_Node000002_Node000011" class="edge">
<title>Node2&#45;&gt;Node11</title>
<g id="a_edge15_Node000002_Node000011"><a xlink:title=" ">
<path fill="none" stroke="#63b8ff" d="M352.41,-326.32C379.31,-316.14 412.65,-303.51 437.73,-294.01"/>
<polygon fill="#63b8ff" stroke="#63b8ff" points="350.93,-323.14 342.82,-329.95 353.41,-329.69 350.93,-323.14"/>
</a>
</g>
</g>
<!-- Node4 -->
<g id="Node000004" class="node">
<title>Node4</title>
<g id="a_Node000004"><a xlink:href="../../d4/dd3/non__transaction_8hpp_source.html" target="_top" xlink:title=" ">
<polygon fill="white" stroke="#666666" points="170.23,-162 21.23,-162 21.23,-132 170.23,-132 170.23,-162"/>
<text text-anchor="start" x="29.23" y="-150" font-family="Helvetica,sans-Serif" font-size="10.00">userver/storages/postgres</text>
<text text-anchor="middle" x="95.73" y="-139" font-family="Helvetica,sans-Serif" font-size="10.00">/detail/non_transaction.hpp</text>
</a>
</g>
</g>
<!-- Node3&#45;&gt;Node4 -->
<g id="edge3_Node000003_Node000004" class="edge">
<title>Node3&#45;&gt;Node4</title>
<g id="a_edge3_Node000003_Node000004"><a xlink:title=" ">
<path fill="none" stroke="#63b8ff" d="M96.26,-263.52C57.05,-255.22 17.42,-243.36 5.73,-228 -2.35,-217.39 -1.03,-209.49 5.73,-198 15.52,-181.36 33.07,-169.86 50.08,-162.13"/>
<polygon fill="#63b8ff" stroke="#63b8ff" points="95.7,-266.97 106.2,-265.55 97.1,-260.12 95.7,-266.97"/>
</a>
</g>
</g>
<!-- Node8 -->
<g id="Node000008" class="node">
<title>Node8</title>
<g id="a_Node000008"><a xlink:href="../../db/d6e/parameter__store_8hpp.html" target="_top" xlink:title="Class for dynamic PostgreSQL parameter list construction.">
<polygon fill="white" stroke="#666666" points="158.23,-228 15.23,-228 15.23,-198 158.23,-198 158.23,-228"/>
<text text-anchor="start" x="23.23" y="-216" font-family="Helvetica,sans-Serif" font-size="10.00">userver/storages/postgres</text>
<text text-anchor="middle" x="86.73" y="-205" font-family="Helvetica,sans-Serif" font-size="10.00">/parameter_store.hpp</text>
</a>
</g>
</g>
<!-- Node3&#45;&gt;Node8 -->
<g id="edge7_Node000003_Node000008" class="edge">
<title>Node3&#45;&gt;Node8</title>
<g id="a_edge7_Node000003_Node000008"><a xlink:title=" ">
<path fill="none" stroke="#63b8ff" d="M155.95,-258.3C140.73,-248.56 122.7,-237.02 108.86,-228.16"/>
<polygon fill="#63b8ff" stroke="#63b8ff" points="154.23,-261.35 164.54,-263.8 158,-255.46 154.23,-261.35"/>
</a>
</g>
</g>
<!-- Node9 -->
<g id="Node000009" class="node">
<title>Node9</title>
<g id="a_Node000009"><a xlink:href="../../da/deb/postgresql_2include_2userver_2storages_2postgres_2transaction_8hpp.html" target="_top" xlink:title="Transactions.">
<polygon fill="white" stroke="#666666" points="340.23,-162 197.23,-162 197.23,-132 340.23,-132 340.23,-162"/>
<text text-anchor="start" x="205.23" y="-150" font-family="Helvetica,sans-Serif" font-size="10.00">userver/storages/postgres</text>
<text text-anchor="middle" x="268.73" y="-139" font-family="Helvetica,sans-Serif" font-size="10.00">/transaction.hpp</text>
</a>
</g>
</g>
<!-- Node3&#45;&gt;Node9 -->
<g id="edge14_Node000003_Node000009" class="edge">
<title>Node3&#45;&gt;Node9</title>
<g id="a_edge14_Node000003_Node000009"><a xlink:title=" ">
<path fill="none" stroke="#63b8ff" d="M188.31,-253.8C190.36,-237.03 195.04,-214.8 205.73,-198 215.17,-183.15 230.58,-170.81 243.8,-162.1"/>
<polygon fill="#63b8ff" stroke="#63b8ff" points="184.81,-253.62 187.31,-263.91 191.78,-254.31 184.81,-253.62"/>
</a>
</g>
</g>
<!-- Node10 -->
<g id="Node000010" class="node">
<title>Node10</title>
<g id="a_Node000010"><a xlink:href="../../d2/de3/portal_8hpp_source.html" target="_top" xlink:title=" ">
<polygon fill="white" stroke="#666666" points="358.23,-228 215.23,-228 215.23,-198 358.23,-198 358.23,-228"/>
<text text-anchor="start" x="223.23" y="-216" font-family="Helvetica,sans-Serif" font-size="10.00">userver/storages/postgres</text>
<text text-anchor="middle" x="286.73" y="-205" font-family="Helvetica,sans-Serif" font-size="10.00">/portal.hpp</text>
</a>
</g>
</g>
<!-- Node3&#45;&gt;Node10 -->
<g id="edge12_Node000003_Node000010" class="edge">
<title>Node3&#45;&gt;Node10</title>
<g id="a_edge12_Node000003_Node000010"><a xlink:title=" ">
<path fill="none" stroke="#63b8ff" d="M217.51,-258.3C232.73,-248.56 250.76,-237.02 264.6,-228.16"/>
<polygon fill="#63b8ff" stroke="#63b8ff" points="215.46,-255.46 208.92,-263.8 219.23,-261.35 215.46,-255.46"/>
</a>
</g>
</g>
<!-- Node5 -->
<g id="Node000005" class="node">
<title>Node5</title>
<g id="a_Node000005"><a xlink:href="../../de/dd3/postgresql_2include_2userver_2storages_2postgres_2cluster_8hpp.html" target="_top" xlink:title="Interface for executing queries on a cluster of PostgreSQL servers.">
<polygon fill="white" stroke="#666666" points="284.23,-96 141.23,-96 141.23,-66 284.23,-66 284.23,-96"/>
<text text-anchor="start" x="149.23" y="-84" font-family="Helvetica,sans-Serif" font-size="10.00">userver/storages/postgres</text>
<text text-anchor="middle" x="212.73" y="-73" font-family="Helvetica,sans-Serif" font-size="10.00">/cluster.hpp</text>
</a>
</g>
</g>
<!-- Node4&#45;&gt;Node5 -->
<g id="edge4_Node000004_Node000005" class="edge">
<title>Node4&#45;&gt;Node5</title>
<g id="a_edge4_Node000004_Node000005"><a xlink:title=" ">
<path fill="none" stroke="#63b8ff" d="M130.52,-126.97C148.68,-117.03 170.51,-105.09 187.11,-96.01"/>
<polygon fill="#63b8ff" stroke="#63b8ff" points="128.5,-124.09 121.4,-131.95 131.86,-130.23 128.5,-124.09"/>
</a>
</g>
</g>
<!-- Node6 -->
<g id="Node000006" class="node">
<title>Node6</title>
<g id="a_Node000006"><a xlink:href="../../dc/df7/base__postgres__cache_8hpp.html" target="_top" xlink:title="Caching component for PostgreSQL. See Caching Component for PostgreSQL.">
<polygon fill="white" stroke="#666666" points="248.23,-30 129.23,-30 129.23,0 248.23,0 248.23,-30"/>
<text text-anchor="start" x="137.23" y="-18" font-family="Helvetica,sans-Serif" font-size="10.00">userver/cache/base</text>
<text text-anchor="middle" x="188.73" y="-7" font-family="Helvetica,sans-Serif" font-size="10.00">_postgres_cache.hpp</text>
</a>
</g>
</g>
<!-- Node5&#45;&gt;Node6 -->
<g id="edge5_Node000005_Node000006" class="edge">
<title>Node5&#45;&gt;Node6</title>
<g id="a_edge5_Node000005_Node000006"><a xlink:title=" ">
<path fill="none" stroke="#63b8ff" d="M203.88,-56.39C200.57,-47.59 196.93,-37.86 194.04,-30.16"/>
<polygon fill="#63b8ff" stroke="#63b8ff" points="200.61,-57.66 207.4,-65.8 207.17,-55.2 200.61,-57.66"/>
</a>
</g>
</g>
<!-- Node7 -->
<g id="Node000007" class="node">
<title>Node7</title>
<g id="a_Node000007"><a xlink:href="../../df/d02/postgres_8hpp.html" target="_top" xlink:title=" ">
<polygon fill="white" stroke="#666666" points="409.23,-30 266.23,-30 266.23,0 409.23,0 409.23,-30"/>
<text text-anchor="start" x="274.23" y="-18" font-family="Helvetica,sans-Serif" font-size="10.00">userver/storages/postgres</text>
<text text-anchor="middle" x="337.73" y="-7" font-family="Helvetica,sans-Serif" font-size="10.00">/postgres.hpp</text>
</a>
</g>
</g>
<!-- Node5&#45;&gt;Node7 -->
<g id="edge6_Node000005_Node000007" class="edge">
<title>Node5&#45;&gt;Node7</title>
<g id="a_edge6_Node000005_Node000007"><a xlink:title=" ">
<path fill="none" stroke="#63b8ff" d="M249.1,-61.38C268.66,-51.36 292.38,-39.22 310.36,-30.01"/>
<polygon fill="#63b8ff" stroke="#63b8ff" points="247.47,-58.28 240.16,-65.95 250.66,-64.51 247.47,-58.28"/>
</a>
</g>
</g>
<!-- Node8&#45;&gt;Node4 -->
<g id="edge8_Node000008_Node000004" class="edge">
<title>Node8&#45;&gt;Node4</title>
<g id="a_edge8_Node000008_Node000004"><a xlink:title=" ">
<path fill="none" stroke="#63b8ff" d="M90.13,-187.83C91.35,-179.17 92.68,-169.7 93.74,-162.16"/>
<polygon fill="#63b8ff" stroke="#63b8ff" points="86.65,-187.41 88.73,-197.8 93.58,-188.38 86.65,-187.41"/>
</a>
</g>
</g>
<!-- Node8&#45;&gt;Node9 -->
<g id="edge9_Node000008_Node000009" class="edge">
<title>Node8&#45;&gt;Node9</title>
<g id="a_edge9_Node000008_Node000009"><a xlink:title=" ">
<path fill="none" stroke="#63b8ff" d="M136.24,-194.59C165.34,-184.36 201.64,-171.59 228.88,-162.01"/>
<polygon fill="#63b8ff" stroke="#63b8ff" points="134.94,-191.34 126.67,-197.95 137.26,-197.94 134.94,-191.34"/>
</a>
</g>
</g>
<!-- Node9&#45;&gt;Node5 -->
<g id="edge10_Node000009_Node000005" class="edge">
<title>Node9&#45;&gt;Node5</title>
<g id="a_edge10_Node000009_Node000005"><a xlink:title=" ">
<path fill="none" stroke="#63b8ff" d="M249.56,-124.09C241.47,-114.85 232.29,-104.36 225.12,-96.16"/>
<polygon fill="#63b8ff" stroke="#63b8ff" points="247.08,-126.58 256.3,-131.8 252.35,-121.97 247.08,-126.58"/>
</a>
</g>
</g>
<!-- Node9&#45;&gt;Node7 -->
<g id="edge11_Node000009_Node000007" class="edge">
<title>Node9&#45;&gt;Node7</title>
<g id="a_edge11_Node000009_Node000007"><a xlink:title=" ">
<path fill="none" stroke="#63b8ff" d="M281.07,-122.75C295.35,-95.84 318.41,-52.4 330.22,-30.14"/>
<polygon fill="#63b8ff" stroke="#63b8ff" points="277.84,-121.37 276.24,-131.84 284.02,-124.65 277.84,-121.37"/>
</a>
</g>
</g>
<!-- Node10&#45;&gt;Node9 -->
<g id="edge13_Node000010_Node000009" class="edge">
<title>Node10&#45;&gt;Node9</title>
<g id="a_edge13_Node000010_Node000009"><a xlink:title=" ">
<path fill="none" stroke="#63b8ff" d="M280.01,-188.11C277.55,-179.38 274.85,-169.78 272.71,-162.16"/>
<polygon fill="#63b8ff" stroke="#63b8ff" points="276.66,-189.12 282.73,-197.8 283.4,-187.22 276.66,-189.12"/>
</a>
</g>
</g>
<!-- Node11&#45;&gt;Node4 -->
<g id="edge16_Node000011_Node000004" class="edge">
<title>Node11&#45;&gt;Node4</title>
<g id="a_edge16_Node000011_Node000004"><a xlink:title=" ">
<path fill="none" stroke="#63b8ff" d="M443.7,-258.32C430.22,-249.44 414.41,-238.59 400.73,-228 384.79,-215.67 384.85,-206.81 366.73,-198 349.22,-189.49 244.45,-171.59 170.44,-159.68"/>
<polygon fill="#63b8ff" stroke="#63b8ff" points="441.9,-261.32 452.19,-263.85 445.72,-255.46 441.9,-261.32"/>
</a>
</g>
</g>
<!-- Node11&#45;&gt;Node7 -->
<g id="edge21_Node000011_Node000007" class="edge">
<title>Node11&#45;&gt;Node7</title>
<g id="a_edge21_Node000011_Node000007"><a xlink:title=" ">
<path fill="none" stroke="#63b8ff" d="M556.45,-265.19C582.54,-257.82 609.98,-246.23 630.73,-228 664.41,-198.4 687.54,-168.66 661.73,-132 604.8,-51.15 486.07,-26.36 409.23,-18.93"/>
<polygon fill="#63b8ff" stroke="#63b8ff" points="555.31,-261.87 546.54,-267.81 557.1,-268.64 555.31,-261.87"/>
</a>
</g>
</g>
<!-- Node11&#45;&gt;Node9 -->
<g id="edge22_Node000011_Node000009" class="edge">
<title>Node11&#45;&gt;Node9</title>
<g id="a_edge22_Node000011_Node000009"><a xlink:title=" ">
<path fill="none" stroke="#63b8ff" d="M458.91,-255.9C445.24,-238.17 424.05,-213.72 400.73,-198 376.96,-181.97 347.34,-170.15 322.19,-162.04"/>
<polygon fill="#63b8ff" stroke="#63b8ff" points="456.19,-258.1 464.99,-263.99 461.79,-253.9 456.19,-258.1"/>
</a>
</g>
</g>
<!-- Node11&#45;&gt;Node10 -->
<g id="edge20_Node000011_Node000010" class="edge">
<title>Node11&#45;&gt;Node10</title>
<g id="a_edge20_Node000011_Node000010"><a xlink:title=" ">
<path fill="none" stroke="#63b8ff" d="M423.98,-260.72C393.85,-250.47 356.15,-237.63 327.89,-228.01"/>
<polygon fill="#63b8ff" stroke="#63b8ff" points="422.88,-264.05 433.47,-263.95 425.13,-257.42 422.88,-264.05"/>
</a>
</g>
</g>
<!-- Node12 -->
<g id="Node000012" class="node">
<title>Node12</title>
<g id="a_Node000012"><a xlink:href="../../d7/d52/typed__rows_8hpp_source.html" target="_top" xlink:title=" ">
<polygon fill="white" stroke="#666666" points="596.23,-228 453.23,-228 453.23,-198 596.23,-198 596.23,-228"/>
<text text-anchor="start" x="461.23" y="-216" font-family="Helvetica,sans-Serif" font-size="10.00">userver/storages/postgres</text>
<text text-anchor="middle" x="524.73" y="-205" font-family="Helvetica,sans-Serif" font-size="10.00">/detail/typed_rows.hpp</text>
</a>
</g>
</g>
<!-- Node11&#45;&gt;Node12 -->
<g id="edge17_Node000011_Node000012" class="edge">
<title>Node11&#45;&gt;Node12</title>
<g id="a_edge17_Node000011_Node000012"><a xlink:title=" ">
<path fill="none" stroke="#63b8ff" d="M492.07,-255.81C499.23,-246.64 507.32,-236.28 513.66,-228.16"/>
<polygon fill="#63b8ff" stroke="#63b8ff" points="489.22,-253.76 485.83,-263.8 494.74,-258.07 489.22,-253.76"/>
</a>
</g>
</g>
<!-- Node13 -->
<g id="Node000013" class="node">
<title>Node13</title>
<g id="a_Node000013"><a xlink:href="../../d1/dee/typed__result__set_8hpp.html" target="_top" xlink:title="Typed PostgreSQL results.">
<polygon fill="white" stroke="#666666" points="652.23,-162 509.23,-162 509.23,-132 652.23,-132 652.23,-162"/>
<text text-anchor="start" x="517.23" y="-150" font-family="Helvetica,sans-Serif" font-size="10.00">userver/storages/postgres</text>
<text text-anchor="middle" x="580.73" y="-139" font-family="Helvetica,sans-Serif" font-size="10.00">/typed_result_set.hpp</text>
</a>
</g>
</g>
<!-- Node11&#45;&gt;Node13 -->
<g id="edge23_Node000011_Node000013" class="edge">
<title>Node11&#45;&gt;Node13</title>
<g id="a_edge23_Node000011_Node000013"><a xlink:title=" ">
<path fill="none" stroke="#63b8ff" d="M555.78,-260.23C571.78,-252.91 586.69,-242.58 596.73,-228 610.76,-207.63 595.13,-179.03 585.68,-162.12"/>
<polygon fill="#63b8ff" stroke="#63b8ff" points="554.15,-257.12 546.27,-264.2 556.85,-263.58 554.15,-257.12"/>
</a>
</g>
</g>
<!-- Node12&#45;&gt;Node13 -->
<g id="edge18_Node000012_Node000013" class="edge">
<title>Node12&#45;&gt;Node13</title>
<g id="a_edge18_Node000012_Node000013"><a xlink:title=" ">
<path fill="none" stroke="#63b8ff" d="M543.9,-190.09C551.99,-180.85 561.16,-170.36 568.33,-162.16"/>
<polygon fill="#63b8ff" stroke="#63b8ff" points="541.11,-187.97 537.16,-197.8 546.38,-192.58 541.11,-187.97"/>
</a>
</g>
</g>
<!-- Node13&#45;&gt;Node11 -->
<g id="edge19_Node000013_Node000011" class="edge">
<title>Node13&#45;&gt;Node11</title>
<g id="a_edge19_Node000013_Node000011"><a xlink:title=" ">
<path fill="none" stroke="#63b8ff" d="M604.93,-170.36C617.12,-187.34 626.68,-210.65 614.73,-228 599.33,-250.35 572.5,-262.72 546.36,-269.56"/>
<polygon fill="#63b8ff" stroke="#63b8ff" points="607.36,-167.79 598.41,-162.12 601.87,-172.14 607.36,-167.79"/>
</a>
</g>
</g>
</g>
</svg>
