<?xml version="1.0" encoding="UTF-8" standalone="no"?>
<!DOCTYPE svg PUBLIC "-//W3C//DTD SVG 1.1//EN"
 "http://www.w3.org/Graphics/SVG/1.1/DTD/svg11.dtd">
<!-- Generated by graphviz version 2.42.4 (0)
 -->
<!-- Title: storages::postgres::io::traits::ParserBufferCategory&lt; BufferParser&lt;::utils::StrongTypedef&lt; Tag, T, Ops, Enable &gt; &gt; &gt; Pages: 1 -->
<svg width="538pt" height="93pt"
 viewBox="0.00 0.00 538.00 92.50" xmlns="http://www.w3.org/2000/svg" xmlns:xlink="http://www.w3.org/1999/xlink">
<g id="graph0" class="graph" transform="scale(1 1) rotate(0) translate(4 88.5)">
<title>storages::postgres::io::traits::ParserBufferCategory&lt; BufferParser&lt;::utils::StrongTypedef&lt; Tag, T, Ops, Enable &gt; &gt; &gt;</title>
<!-- Node1 -->
<g id="Node000001" class="node">
<title>Node1</title>
<g id="a_Node000001"><a xlink:title=" ">
<polygon fill="#999999" stroke="#666666" points="530,-84.5 380,-84.5 380,-21.5 530,-21.5 530,-84.5"/>
<text text-anchor="start" x="388" y="-72.5" font-family="Helvetica,sans-Serif" font-size="10.00">storages::postgres</text>
<text text-anchor="start" x="388" y="-61.5" font-family="Helvetica,sans-Serif" font-size="10.00">::io::traits::ParserBuffer</text>
<text text-anchor="start" x="388" y="-50.5" font-family="Helvetica,sans-Serif" font-size="10.00">Category&lt; BufferParser&lt;</text>
<text text-anchor="start" x="388" y="-39.5" font-family="Helvetica,sans-Serif" font-size="10.00">::utils::StrongTypedef&lt; Tag,</text>
<text text-anchor="middle" x="455" y="-28.5" font-family="Helvetica,sans-Serif" font-size="10.00"> T, Ops, Enable &gt; &gt; &gt;</text>
</a>
</g>
</g>
<!-- Node2 -->
<g id="Node000002" class="node">
<title>Node2</title>
<g id="a_Node000002"><a xlink:title=" ">
<polygon fill="white" stroke="#bfbfbf" points="177,-68 0,-68 0,-38 177,-38 177,-68"/>
<text text-anchor="start" x="8" y="-56" font-family="Helvetica,sans-Serif" font-size="10.00">BufferCategoryConstant</text>
<text text-anchor="middle" x="88.5" y="-45" font-family="Helvetica,sans-Serif" font-size="10.00">&lt; BufferCategory::kPlainBuffer &gt;</text>
</a>
</g>
</g>
<!-- Node2&#45;&gt;Node1 -->
<g id="edge1_Node000001_Node000002" class="edge">
<title>Node2&#45;&gt;Node1</title>
<g id="a_edge1_Node000001_Node000002"><a xlink:title=" ">
<path fill="none" stroke="#63b8ff" d="M187.35,-59.92C196.02,-60.36 204.67,-60.73 213,-61 271.19,-62.88 285.82,-63.11 344,-61 355.58,-60.58 367.83,-59.91 379.78,-59.14"/>
<polygon fill="#63b8ff" stroke="#63b8ff" points="187.34,-56.42 177.17,-59.38 186.97,-63.41 187.34,-56.42"/>
</a>
</g>
</g>
<!-- Node3 -->
<g id="Node000003" class="node">
<title>Node3</title>
<g id="a_Node000003"><a xlink:href="../../d6/df6/structstorages_1_1postgres_1_1io_1_1traits_1_1ParserBufferCategory.html" target="_top" xlink:title=" ">
<polygon fill="white" stroke="#666666" points="344,-52 213,-52 213,0 344,0 344,-52"/>
<text text-anchor="start" x="221" y="-40" font-family="Helvetica,sans-Serif" font-size="10.00">storages::postgres</text>
<text text-anchor="start" x="221" y="-29" font-family="Helvetica,sans-Serif" font-size="10.00">::io::traits::ParserBuffer</text>
<text text-anchor="start" x="221" y="-18" font-family="Helvetica,sans-Serif" font-size="10.00">Category&lt; traits::IO&lt; T</text>
<text text-anchor="middle" x="278.5" y="-7" font-family="Helvetica,sans-Serif" font-size="10.00"> &gt;::ParserType &gt;</text>
</a>
</g>
</g>
<!-- Node2&#45;&gt;Node3 -->
<g id="edge3_Node000003_Node000002" class="edge">
<title>Node2&#45;&gt;Node3</title>
<g id="a_edge3_Node000003_Node000002"><a xlink:title=" ">
<path fill="none" stroke="#63b8ff" d="M187.08,-38.99C195.86,-37.73 204.59,-36.47 212.97,-35.27"/>
<polygon fill="#63b8ff" stroke="#63b8ff" points="186.57,-35.52 177.17,-40.41 187.57,-42.45 186.57,-35.52"/>
</a>
</g>
</g>
<!-- Node3&#45;&gt;Node1 -->
<g id="edge2_Node000001_Node000003" class="edge">
<title>Node3&#45;&gt;Node1</title>
<g id="a_edge2_Node000001_Node000003"><a xlink:title=" ">
<path fill="none" stroke="#63b8ff" d="M354.6,-37.62C362.97,-38.92 371.5,-40.23 379.86,-41.53"/>
<polygon fill="#63b8ff" stroke="#63b8ff" points="354.89,-34.12 344.48,-36.05 353.82,-41.04 354.89,-34.12"/>
</a>
</g>
</g>
</g>
</svg>
