<?xml version="1.0" encoding="UTF-8" standalone="no"?>
<!DOCTYPE svg PUBLIC "-//W3C//DTD SVG 1.1//EN"
 "http://www.w3.org/Graphics/SVG/1.1/DTD/svg11.dtd">
<!-- Generated by graphviz version 2.43.0 (0)
 -->
<!-- Title: userver/storages/clickhouse/io/columns/datetime64_column.hpp Pages: 1 -->
<svg width="437pt" height="489pt"
 viewBox="0.00 0.00 437.00 489.00" xmlns="http://www.w3.org/2000/svg" xmlns:xlink="http://www.w3.org/1999/xlink">
<g id="graph0" class="graph" transform="scale(1 1) rotate(0) translate(4 485)">
<title>userver/storages/clickhouse/io/columns/datetime64_column.hpp</title>
<!-- Node1 -->
<g id="Node000001" class="node">
<title>Node1</title>
<g id="a_Node000001"><a xlink:title="DateTime64 columns support.">
<polygon fill="#999999" stroke="#666666" points="338.5,-481 144.5,-481 144.5,-451 338.5,-451 338.5,-481"/>
<text text-anchor="start" x="152.5" y="-469" font-family="Helvetica,sans-Serif" font-size="10.00">userver/storages/clickhouse</text>
<text text-anchor="middle" x="241.5" y="-458" font-family="Helvetica,sans-Serif" font-size="10.00">/io/columns/datetime64_column.hpp</text>
</a>
</g>
</g>
<!-- Node2 -->
<g id="Node000002" class="node">
<title>Node2</title>
<g id="a_Node000002"><a xlink:href="../../d3/d25/common__columns_8hpp.html" target="_top" xlink:title=" ">
<polygon fill="white" stroke="#666666" points="240.5,-415 54.5,-415 54.5,-385 240.5,-385 240.5,-415"/>
<text text-anchor="start" x="62.5" y="-403" font-family="Helvetica,sans-Serif" font-size="10.00">userver/storages/clickhouse</text>
<text text-anchor="middle" x="147.5" y="-392" font-family="Helvetica,sans-Serif" font-size="10.00">/io/columns/common_columns.hpp</text>
</a>
</g>
</g>
<!-- Node1&#45;&gt;Node2 -->
<g id="edge1_Node000001_Node000002" class="edge">
<title>Node1&#45;&gt;Node2</title>
<g id="a_edge1_Node000001_Node000002"><a xlink:title=" ">
<path fill="none" stroke="#63b8ff" d="M212.17,-445.03C197.94,-435.34 181.19,-423.94 168.3,-415.16"/>
<polygon fill="#63b8ff" stroke="#63b8ff" points="210.4,-448.06 220.64,-450.8 214.34,-442.28 210.4,-448.06"/>
</a>
</g>
</g>
<!-- Node10 -->
<g id="Node000010" class="node">
<title>Node10</title>
<g id="a_Node000010"><a xlink:href="../../de/dab/clickhouse_2include_2userver_2storages_2clickhouse_2io_2typedefs_8hpp.html" target="_top" xlink:title=" ">
<polygon fill="white" stroke="#666666" points="420,-415 267,-415 267,-385 420,-385 420,-415"/>
<text text-anchor="start" x="275" y="-403" font-family="Helvetica,sans-Serif" font-size="10.00">userver/storages/clickhouse</text>
<text text-anchor="middle" x="343.5" y="-392" font-family="Helvetica,sans-Serif" font-size="10.00">/io/typedefs.hpp</text>
</a>
</g>
</g>
<!-- Node1&#45;&gt;Node10 -->
<g id="edge14_Node000001_Node000010" class="edge">
<title>Node1&#45;&gt;Node10</title>
<g id="a_edge14_Node000001_Node000010"><a xlink:title=" ">
<path fill="none" stroke="#63b8ff" d="M272.71,-445.42C288.36,-435.6 306.96,-423.93 321.17,-415.01"/>
<polygon fill="#63b8ff" stroke="#63b8ff" points="270.49,-442.68 263.88,-450.95 274.22,-448.6 270.49,-442.68"/>
</a>
</g>
</g>
<!-- Node3 -->
<g id="Node000003" class="node">
<title>Node3</title>
<g id="a_Node000003"><a xlink:href="../../dd/d84/insertion__request_8hpp_source.html" target="_top" xlink:title=" ">
<polygon fill="white" stroke="#666666" points="324,-217 171,-217 171,-187 324,-187 324,-217"/>
<text text-anchor="start" x="179" y="-205" font-family="Helvetica,sans-Serif" font-size="10.00">userver/storages/clickhouse</text>
<text text-anchor="middle" x="247.5" y="-194" font-family="Helvetica,sans-Serif" font-size="10.00">/impl/insertion_request.hpp</text>
</a>
</g>
</g>
<!-- Node2&#45;&gt;Node3 -->
<g id="edge2_Node000002_Node000003" class="edge">
<title>Node2&#45;&gt;Node3</title>
<g id="a_edge2_Node000002_Node000003"><a xlink:title=" ">
<path fill="none" stroke="#63b8ff" d="M193.52,-380.01C206.84,-372.31 220.05,-362.08 228.5,-349 255.41,-307.35 252.45,-244.98 249.43,-217.21"/>
<polygon fill="#63b8ff" stroke="#63b8ff" points="191.5,-377.13 184.35,-384.94 194.81,-383.29 191.5,-377.13"/>
</a>
</g>
</g>
<!-- Node6 -->
<g id="Node000006" class="node">
<title>Node6</title>
<g id="a_Node000006"><a xlink:href="../../d3/d11/nullable__column_8hpp.html" target="_top" xlink:title="Nullable column support.">
<polygon fill="white" stroke="#666666" points="220,-349 43,-349 43,-319 220,-319 220,-349"/>
<text text-anchor="start" x="51" y="-337" font-family="Helvetica,sans-Serif" font-size="10.00">userver/storages/clickhouse</text>
<text text-anchor="middle" x="131.5" y="-326" font-family="Helvetica,sans-Serif" font-size="10.00">/io/columns/nullable_column.hpp</text>
</a>
</g>
</g>
<!-- Node2&#45;&gt;Node6 -->
<g id="edge5_Node000002_Node000006" class="edge">
<title>Node2&#45;&gt;Node6</title>
<g id="a_edge5_Node000002_Node000006"><a xlink:title=" ">
<path fill="none" stroke="#63b8ff" d="M141.46,-374.83C139.29,-366.17 136.92,-356.7 135.04,-349.16"/>
<polygon fill="#63b8ff" stroke="#63b8ff" points="138.13,-375.94 143.95,-384.8 144.92,-374.25 138.13,-375.94"/>
</a>
</g>
</g>
<!-- Node7 -->
<g id="Node000007" class="node">
<title>Node7</title>
<g id="a_Node000007"><a xlink:href="../../dc/d3f/validate_8hpp_source.html" target="_top" xlink:title=" ">
<polygon fill="white" stroke="#666666" points="167,-283 14,-283 14,-253 167,-253 167,-283"/>
<text text-anchor="start" x="22" y="-271" font-family="Helvetica,sans-Serif" font-size="10.00">userver/storages/clickhouse</text>
<text text-anchor="middle" x="90.5" y="-260" font-family="Helvetica,sans-Serif" font-size="10.00">/io/impl/validate.hpp</text>
</a>
</g>
</g>
<!-- Node2&#45;&gt;Node7 -->
<g id="edge13_Node000002_Node000007" class="edge">
<title>Node2&#45;&gt;Node7</title>
<g id="a_edge13_Node000002_Node000007"><a xlink:title=" ">
<path fill="none" stroke="#63b8ff" d="M73,-380.96C57.42,-373.63 42.89,-363.37 33.5,-349 18.11,-325.44 46.24,-299.02 68.18,-283.21"/>
<polygon fill="#63b8ff" stroke="#63b8ff" points="71.7,-384.21 82.27,-384.94 74.46,-377.78 71.7,-384.21"/>
</a>
</g>
</g>
<!-- Node4 -->
<g id="Node000004" class="node">
<title>Node4</title>
<g id="a_Node000004"><a xlink:href="../../da/de8/clickhouse_2include_2userver_2storages_2clickhouse_2cluster_8hpp.html" target="_top" xlink:title="Interface for executing queries on a cluster of ClickHouse servers.">
<polygon fill="white" stroke="#666666" points="324,-85 171,-85 171,-55 324,-55 324,-85"/>
<text text-anchor="start" x="179" y="-73" font-family="Helvetica,sans-Serif" font-size="10.00">userver/storages/clickhouse</text>
<text text-anchor="middle" x="247.5" y="-62" font-family="Helvetica,sans-Serif" font-size="10.00">/cluster.hpp</text>
</a>
</g>
</g>
<!-- Node3&#45;&gt;Node4 -->
<g id="edge3_Node000003_Node000004" class="edge">
<title>Node3&#45;&gt;Node4</title>
<g id="a_edge3_Node000003_Node000004"><a xlink:title=" ">
<path fill="none" stroke="#63b8ff" d="M247.5,-176.68C247.5,-149.7 247.5,-107.11 247.5,-85.14"/>
<polygon fill="#63b8ff" stroke="#63b8ff" points="244,-176.84 247.5,-186.84 251,-176.84 244,-176.84"/>
</a>
</g>
</g>
<!-- Node5 -->
<g id="Node000005" class="node">
<title>Node5</title>
<g id="a_Node000005"><a xlink:href="../../d7/d29/clickhouse_8hpp.html" target="_top" xlink:title=" ">
<polygon fill="white" stroke="#666666" points="334.5,-19 160.5,-19 160.5,0 334.5,0 334.5,-19"/>
<text text-anchor="middle" x="247.5" y="-7" font-family="Helvetica,sans-Serif" font-size="10.00">userver/storages/clickhouse.hpp</text>
</a>
</g>
</g>
<!-- Node4&#45;&gt;Node5 -->
<g id="edge4_Node000004_Node000005" class="edge">
<title>Node4&#45;&gt;Node5</title>
<g id="a_edge4_Node000004_Node000005"><a xlink:title=" ">
<path fill="none" stroke="#63b8ff" d="M247.5,-44.75C247.5,-35.72 247.5,-26.03 247.5,-19.27"/>
<polygon fill="#63b8ff" stroke="#63b8ff" points="244,-44.84 247.5,-54.84 251,-44.84 244,-44.84"/>
</a>
</g>
</g>
<!-- Node6&#45;&gt;Node3 -->
<g id="edge6_Node000006_Node000003" class="edge">
<title>Node6&#45;&gt;Node3</title>
<g id="a_edge6_Node000006_Node000003"><a xlink:title=" ">
<path fill="none" stroke="#63b8ff" d="M151,-311.15C174.89,-284.38 214.67,-239.79 234.88,-217.14"/>
<polygon fill="#63b8ff" stroke="#63b8ff" points="148.18,-309.05 144.13,-318.84 153.4,-313.71 148.18,-309.05"/>
</a>
</g>
</g>
<!-- Node6&#45;&gt;Node7 -->
<g id="edge7_Node000006_Node000007" class="edge">
<title>Node6&#45;&gt;Node7</title>
<g id="a_edge7_Node000006_Node000007"><a xlink:title=" ">
<path fill="none" stroke="#63b8ff" d="M116.92,-310.24C111.14,-301.21 104.66,-291.11 99.57,-283.16"/>
<polygon fill="#63b8ff" stroke="#63b8ff" points="114.06,-312.26 122.4,-318.8 119.95,-308.49 114.06,-312.26"/>
</a>
</g>
</g>
<!-- Node7&#45;&gt;Node3 -->
<g id="edge12_Node000007_Node000003" class="edge">
<title>Node7&#45;&gt;Node3</title>
<g id="a_edge12_Node000007_Node000003"><a xlink:title=" ">
<path fill="none" stroke="#63b8ff" d="M134.52,-249.05C159.4,-238.91 190.03,-226.43 213.13,-217.01"/>
<polygon fill="#63b8ff" stroke="#63b8ff" points="132.89,-245.94 124.95,-252.95 135.54,-252.42 132.89,-245.94"/>
</a>
</g>
</g>
<!-- Node8 -->
<g id="Node000008" class="node">
<title>Node8</title>
<g id="a_Node000008"><a xlink:href="../../db/d1b/clickhouse_2include_2userver_2storages_2clickhouse_2execution__result_8hpp.html" target="_top" xlink:title="Result accessor.">
<polygon fill="white" stroke="#666666" points="153,-217 0,-217 0,-187 153,-187 153,-217"/>
<text text-anchor="start" x="8" y="-205" font-family="Helvetica,sans-Serif" font-size="10.00">userver/storages/clickhouse</text>
<text text-anchor="middle" x="76.5" y="-194" font-family="Helvetica,sans-Serif" font-size="10.00">/execution_result.hpp</text>
</a>
</g>
</g>
<!-- Node7&#45;&gt;Node8 -->
<g id="edge8_Node000007_Node000008" class="edge">
<title>Node7&#45;&gt;Node8</title>
<g id="a_edge8_Node000007_Node000008"><a xlink:title=" ">
<path fill="none" stroke="#63b8ff" d="M85.21,-242.83C83.32,-234.17 81.25,-224.7 79.6,-217.16"/>
<polygon fill="#63b8ff" stroke="#63b8ff" points="81.84,-243.78 87.39,-252.8 88.68,-242.28 81.84,-243.78"/>
</a>
</g>
</g>
<!-- Node8&#45;&gt;Node5 -->
<g id="edge9_Node000008_Node000005" class="edge">
<title>Node8&#45;&gt;Node5</title>
<g id="a_edge9_Node000008_Node000005"><a xlink:title=" ">
<path fill="none" stroke="#63b8ff" d="M62.16,-177.87C53.82,-161.23 46.72,-138.7 56.5,-121 88.92,-62.32 166.27,-32.23 211.97,-19.06"/>
<polygon fill="#63b8ff" stroke="#63b8ff" points="59.22,-179.8 67.09,-186.9 65.37,-176.44 59.22,-179.8"/>
</a>
</g>
</g>
<!-- Node9 -->
<g id="Node000009" class="node">
<title>Node9</title>
<g id="a_Node000009"><a xlink:href="../../d3/de4/clickhouse_2include_2userver_2storages_2clickhouse_2impl_2pool_8hpp_source.html" target="_top" xlink:title=" ">
<polygon fill="white" stroke="#666666" points="219,-151 66,-151 66,-121 219,-121 219,-151"/>
<text text-anchor="start" x="74" y="-139" font-family="Helvetica,sans-Serif" font-size="10.00">userver/storages/clickhouse</text>
<text text-anchor="middle" x="142.5" y="-128" font-family="Helvetica,sans-Serif" font-size="10.00">/impl/pool.hpp</text>
</a>
</g>
</g>
<!-- Node8&#45;&gt;Node9 -->
<g id="edge10_Node000008_Node000009" class="edge">
<title>Node8&#45;&gt;Node9</title>
<g id="a_edge10_Node000008_Node000009"><a xlink:title=" ">
<path fill="none" stroke="#63b8ff" d="M98.52,-179.65C108.19,-170.27 119.27,-159.53 127.89,-151.16"/>
<polygon fill="#63b8ff" stroke="#63b8ff" points="95.89,-177.32 91.15,-186.8 100.76,-182.35 95.89,-177.32"/>
</a>
</g>
</g>
<!-- Node9&#45;&gt;Node4 -->
<g id="edge11_Node000009_Node000004" class="edge">
<title>Node9&#45;&gt;Node4</title>
<g id="a_edge11_Node000009_Node000004"><a xlink:title=" ">
<path fill="none" stroke="#63b8ff" d="M174.17,-115.69C190.38,-105.82 209.75,-94.01 224.51,-85.01"/>
<polygon fill="#63b8ff" stroke="#63b8ff" points="172.26,-112.76 165.54,-120.95 175.9,-118.74 172.26,-112.76"/>
</a>
</g>
</g>
<!-- Node11 -->
<g id="Node000011" class="node">
<title>Node11</title>
<g id="a_Node000011"><a xlink:href="../../d3/d92/escape_8hpp_source.html" target="_top" xlink:title=" ">
<polygon fill="white" stroke="#666666" points="429,-349 276,-349 276,-319 429,-319 429,-349"/>
<text text-anchor="start" x="284" y="-337" font-family="Helvetica,sans-Serif" font-size="10.00">userver/storages/clickhouse</text>
<text text-anchor="middle" x="352.5" y="-326" font-family="Helvetica,sans-Serif" font-size="10.00">/io/impl/escape.hpp</text>
</a>
</g>
</g>
<!-- Node10&#45;&gt;Node11 -->
<g id="edge15_Node000010_Node000011" class="edge">
<title>Node10&#45;&gt;Node11</title>
<g id="a_edge15_Node000010_Node000011"><a xlink:title=" ">
<path fill="none" stroke="#63b8ff" d="M346.9,-374.83C348.12,-366.17 349.45,-356.7 350.51,-349.16"/>
<polygon fill="#63b8ff" stroke="#63b8ff" points="343.42,-374.41 345.5,-384.8 350.36,-375.38 343.42,-374.41"/>
</a>
</g>
</g>
<!-- Node12 -->
<g id="Node000012" class="node">
<title>Node12</title>
<g id="a_Node000012"><a xlink:href="../../d7/de9/clickhouse_2include_2userver_2storages_2clickhouse_2query_8hpp.html" target="_top" xlink:title="Holds a query and its name. In case query is expected to be executed with parameters,...">
<polygon fill="white" stroke="#666666" points="429,-151 276,-151 276,-121 429,-121 429,-151"/>
<text text-anchor="start" x="284" y="-139" font-family="Helvetica,sans-Serif" font-size="10.00">userver/storages/clickhouse</text>
<text text-anchor="middle" x="352.5" y="-128" font-family="Helvetica,sans-Serif" font-size="10.00">/query.hpp</text>
</a>
</g>
</g>
<!-- Node11&#45;&gt;Node12 -->
<g id="edge16_Node000011_Node000012" class="edge">
<title>Node11&#45;&gt;Node12</title>
<g id="a_edge16_Node000011_Node000012"><a xlink:title=" ">
<path fill="none" stroke="#63b8ff" d="M352.5,-308.89C352.5,-267.58 352.5,-184.48 352.5,-151.23"/>
<polygon fill="#63b8ff" stroke="#63b8ff" points="349,-308.9 352.5,-318.9 356,-308.9 349,-308.9"/>
</a>
</g>
</g>
<!-- Node12&#45;&gt;Node4 -->
<g id="edge18_Node000012_Node000004" class="edge">
<title>Node12&#45;&gt;Node4</title>
<g id="a_edge18_Node000012_Node000004"><a xlink:title=" ">
<path fill="none" stroke="#63b8ff" d="M320.83,-115.69C304.62,-105.82 285.25,-94.01 270.49,-85.01"/>
<polygon fill="#63b8ff" stroke="#63b8ff" points="319.1,-118.74 329.46,-120.95 322.74,-112.76 319.1,-118.74"/>
</a>
</g>
</g>
<!-- Node12&#45;&gt;Node5 -->
<g id="edge17_Node000012_Node000005" class="edge">
<title>Node12&#45;&gt;Node5</title>
<g id="a_edge17_Node000012_Node000005"><a xlink:title=" ">
<path fill="none" stroke="#63b8ff" d="M351.55,-110.41C349.73,-93.29 344.92,-70.78 332.5,-55 318.59,-37.33 295.72,-25.92 277.2,-19.08"/>
<polygon fill="#63b8ff" stroke="#63b8ff" points="348.09,-111.06 352.36,-120.76 355.07,-110.52 348.09,-111.06"/>
</a>
</g>
</g>
</g>
</svg>
