<?xml version="1.0" encoding="UTF-8" standalone="no"?>
<!DOCTYPE svg PUBLIC "-//W3C//DTD SVG 1.1//EN"
 "http://www.w3.org/Graphics/SVG/1.1/DTD/svg11.dtd">
<!-- Generated by graphviz version 2.43.0 (0)
 -->
<!-- Title: userver/server Pages: 1 -->
<svg width="1182pt" height="306pt"
 viewBox="0.00 0.00 1182.20 306.00" xmlns="http://www.w3.org/2000/svg" xmlns:xlink="http://www.w3.org/1999/xlink">
<g id="graph0" class="graph" transform="scale(1 1) rotate(0) translate(4 302)">
<title>userver/server</title>
<g id="clust1" class="cluster">
<title>clusterdir_26f8c63b8c67b2ed6c1b7078f08f1e18</title>
<g id="a_clust1"><a xlink:href="dir_26f8c63b8c67b2ed6c1b7078f08f1e18.html" target="_top" xlink:title="userver">
<polygon fill="#feefdf" stroke="#404040" stroke-dasharray="5,2" points="8,-8 8,-290 998,-290 998,-8 8,-8"/>
<text text-anchor="middle" x="503" y="-278" font-family="Helvetica,sans-Serif" font-size="10.00">userver</text>
</a>
</g>
</g>
<g id="clust2" class="cluster">
<title>clusterdir_ee914885184833579e051451a9f6b65c</title>
<g id="a_clust2"><a xlink:href="dir_ee914885184833579e051451a9f6b65c.html" target="_top">
<polygon fill="#feefdf" stroke="#404040" stroke-width="2" points="525,-63 525,-263 803,-263 803,-63 525,-63"/>
</a>
</g>
</g>
<!-- dir_0c57938951830d22b3fad77440a122e7 -->
<g id="node1" class="node">
<title>dir_0c57938951830d22b3fad77440a122e7</title>
<g id="a_node1"><a xlink:href="dir_0c57938951830d22b3fad77440a122e7.html" target="_top" xlink:title="tracing">
<polygon fill="#fdaf60" stroke="#404040" points="336,-145 286,-145 286,-126 336,-126 336,-145"/>
<text text-anchor="middle" x="311" y="-133" font-family="Helvetica,sans-Serif" font-size="10.00">tracing</text>
</a>
</g>
</g>
<!-- dir_150bbd271f1504029fbda942e72f1022 -->
<g id="node2" class="node">
<title>dir_150bbd271f1504029fbda942e72f1022</title>
<g id="a_node2"><a xlink:href="dir_150bbd271f1504029fbda942e72f1022.html" target="_top" xlink:title="utils">
<polygon fill="#fdaf60" stroke="red" points="74,-145 36,-145 36,-126 74,-126 74,-145"/>
<text text-anchor="middle" x="55" y="-133" font-family="Helvetica,sans-Serif" font-size="10.00">utils</text>
</a>
</g>
</g>
<!-- dir_2c6b70c628beb7fc0194b7f508f3ad90 -->
<g id="node3" class="node">
<title>dir_2c6b70c628beb7fc0194b7f508f3ad90</title>
<g id="a_node3"><a xlink:href="dir_2c6b70c628beb7fc0194b7f508f3ad90.html" target="_top" xlink:title="cache">
<polygon fill="#fdaf60" stroke="#404040" points="903.5,-145 858.5,-145 858.5,-126 903.5,-126 903.5,-145"/>
<text text-anchor="middle" x="881" y="-133" font-family="Helvetica,sans-Serif" font-size="10.00">cache</text>
</a>
</g>
</g>
<!-- dir_3285f5f33091c25af669261537588667 -->
<g id="node4" class="node">
<title>dir_3285f5f33091c25af669261537588667</title>
<g id="a_node4"><a xlink:href="dir_3285f5f33091c25af669261537588667.html" target="_top" xlink:title="rcu">
<polygon fill="#fdaf60" stroke="#404040" points="386,-145 354,-145 354,-126 386,-126 386,-145"/>
<text text-anchor="middle" x="370" y="-133" font-family="Helvetica,sans-Serif" font-size="10.00">rcu</text>
</a>
</g>
</g>
<!-- dir_486b9402482621fd641691dc37d76b53 -->
<g id="node5" class="node">
<title>dir_486b9402482621fd641691dc37d76b53</title>
<g id="a_node5"><a xlink:href="dir_486b9402482621fd641691dc37d76b53.html" target="_top" xlink:title="engine">
<polygon fill="#fdaf60" stroke="red" points="430,-35 380,-35 380,-16 430,-16 430,-35"/>
<text text-anchor="middle" x="405" y="-23" font-family="Helvetica,sans-Serif" font-size="10.00">engine</text>
</a>
</g>
</g>
<!-- dir_6fe6ce792de102936b3c02369b7e8bae -->
<g id="node6" class="node">
<title>dir_6fe6ce792de102936b3c02369b7e8bae</title>
<g id="a_node6"><a xlink:href="dir_6fe6ce792de102936b3c02369b7e8bae.html" target="_top" xlink:title="dynamic_config">
<polygon fill="#fdaf60" stroke="red" points="517.5,-145 424.5,-145 424.5,-126 517.5,-126 517.5,-145"/>
<text text-anchor="middle" x="471" y="-133" font-family="Helvetica,sans-Serif" font-size="10.00">dynamic_config</text>
</a>
</g>
</g>
<!-- dir_994ef2a14b32cb8134d8b7b97f08d542 -->
<g id="node7" class="node">
<title>dir_994ef2a14b32cb8134d8b7b97f08d542</title>
<g id="a_node7"><a xlink:href="dir_994ef2a14b32cb8134d8b7b97f08d542.html" target="_top" xlink:title="components">
<polygon fill="#fdaf60" stroke="red" points="169.5,-145 92.5,-145 92.5,-126 169.5,-126 169.5,-145"/>
<text text-anchor="middle" x="131" y="-133" font-family="Helvetica,sans-Serif" font-size="10.00">components</text>
</a>
</g>
</g>
<!-- dir_a002d428d11eb8614f350575a2d4c4e0 -->
<g id="node8" class="node">
<title>dir_a002d428d11eb8614f350575a2d4c4e0</title>
<g id="a_node8"><a xlink:href="dir_a002d428d11eb8614f350575a2d4c4e0.html" target="_top" xlink:title="fs">
<polygon fill="#fdaf60" stroke="#404040" points="840.5,-145 811.5,-145 811.5,-126 840.5,-126 840.5,-145"/>
<text text-anchor="middle" x="826" y="-133" font-family="Helvetica,sans-Serif" font-size="10.00">fs</text>
</a>
</g>
</g>
<!-- dir_b2e5dd734b4dca0bb7544c080eed55d0 -->
<g id="node9" class="node">
<title>dir_b2e5dd734b4dca0bb7544c080eed55d0</title>
<g id="a_node9"><a xlink:href="dir_b2e5dd734b4dca0bb7544c080eed55d0.html" target="_top" xlink:title="storages">
<polygon fill="#fdaf60" stroke="red" points="267.5,-145 208.5,-145 208.5,-126 267.5,-126 267.5,-145"/>
<text text-anchor="middle" x="238" y="-133" font-family="Helvetica,sans-Serif" font-size="10.00">storages</text>
</a>
</g>
</g>
<!-- dir_e64dfdcbff0f609bc29171eebbcbbcc9 -->
<g id="node10" class="node">
<title>dir_e64dfdcbff0f609bc29171eebbcbbcc9</title>
<g id="a_node10"><a xlink:href="dir_e64dfdcbff0f609bc29171eebbcbbcc9.html" target="_top" xlink:title="concurrent">
<polygon fill="#fdaf60" stroke="red" points="990,-145 922,-145 922,-126 990,-126 990,-145"/>
<text text-anchor="middle" x="956" y="-133" font-family="Helvetica,sans-Serif" font-size="10.00">concurrent</text>
</a>
</g>
</g>
<!-- dir_ee914885184833579e051451a9f6b65c -->
<g id="node11" class="node">
<title>dir_ee914885184833579e051451a9f6b65c</title>
<text text-anchor="middle" x="557" y="-243" font-family="Helvetica,sans-Serif" font-size="10.00">server</text>
</g>
<!-- dir_ee914885184833579e051451a9f6b65c&#45;&gt;dir_150bbd271f1504029fbda942e72f1022 -->
<g id="edge1" class="edge">
<title>dir_ee914885184833579e051451a9f6b65c&#45;&gt;dir_150bbd271f1504029fbda942e72f1022</title>
<g id="a_edge1"><a xlink:href="dir_000114_000149.html" target="_top">
<path fill="none" stroke="#63b8ff" d="M533.38,-243.84C455.06,-241.36 204.63,-231.13 131,-200 106.15,-189.49 83.2,-168 69.17,-152.95"/>
<polygon fill="#63b8ff" stroke="#63b8ff" points="71.62,-150.44 62.33,-145.35 66.42,-155.13 71.62,-150.44"/>
</a>
</g>
<g id="a_edge1&#45;headlabel"><a xlink:href="dir_000114_000149.html" target="_top" xlink:title="5">
<text text-anchor="middle" x="76.14" y="-148.71" font-family="Helvetica,sans-Serif" font-size="10.00" fill="#63b8ff">5</text>
</a>
</g>
</g>
<!-- dir_ee914885184833579e051451a9f6b65c&#45;&gt;dir_486b9402482621fd641691dc37d76b53 -->
<g id="edge2" class="edge">
<title>dir_ee914885184833579e051451a9f6b65c&#45;&gt;dir_486b9402482621fd641691dc37d76b53</title>
<g id="a_edge2"><a xlink:href="dir_000114_000046.html" target="_top">
<path fill="none" stroke="#63b8ff" d="M533.28,-243.96C450.88,-241.8 177.62,-232.31 97,-200 60.27,-185.28 44.3,-180.59 27,-145 -4.54,-80.1 269.63,-41.97 369.51,-30.34"/>
<polygon fill="#63b8ff" stroke="#63b8ff" points="370.17,-33.78 379.71,-29.17 369.37,-26.83 370.17,-33.78"/>
</a>
</g>
<g id="a_edge2&#45;headlabel"><a xlink:href="dir_000114_000046.html" target="_top" xlink:title="7">
<text text-anchor="middle" x="366.92" y="-34.51" font-family="Helvetica,sans-Serif" font-size="10.00" fill="#63b8ff">7</text>
</a>
</g>
</g>
<!-- dir_ee914885184833579e051451a9f6b65c&#45;&gt;dir_994ef2a14b32cb8134d8b7b97f08d542 -->
<g id="edge3" class="edge">
<title>dir_ee914885184833579e051451a9f6b65c&#45;&gt;dir_994ef2a14b32cb8134d8b7b97f08d542</title>
<g id="a_edge3"><a xlink:href="dir_000114_000021.html" target="_top">
<path fill="none" stroke="#63b8ff" d="M533.32,-243.51C450.2,-239.83 175.19,-225.77 146,-200 133.54,-189 130.43,-169.74 130.06,-155.31"/>
<polygon fill="#63b8ff" stroke="#63b8ff" points="133.56,-155.07 130.21,-145.02 126.56,-154.97 133.56,-155.07"/>
</a>
</g>
<g id="a_edge3&#45;headlabel"><a xlink:href="dir_000114_000021.html" target="_top" xlink:title="9">
<text text-anchor="middle" x="136.34" y="-156.21" font-family="Helvetica,sans-Serif" font-size="10.00" fill="#63b8ff">9</text>
</a>
</g>
</g>
<!-- dir_ee914885184833579e051451a9f6b65c&#45;&gt;dir_b2e5dd734b4dca0bb7544c080eed55d0 -->
<g id="edge5" class="edge">
<title>dir_ee914885184833579e051451a9f6b65c&#45;&gt;dir_b2e5dd734b4dca0bb7544c080eed55d0</title>
<g id="a_edge5"><a xlink:href="dir_000114_000120.html" target="_top">
<path fill="none" stroke="#63b8ff" d="M533.45,-238.07C503.78,-229.85 451.29,-214.87 407,-200 358.26,-183.64 302.6,-162.17 268.89,-148.86"/>
<polygon fill="#63b8ff" stroke="#63b8ff" points="269.75,-145.44 259.17,-145.01 267.18,-151.95 269.75,-145.44"/>
</a>
</g>
<g id="a_edge5&#45;headlabel"><a xlink:href="dir_000114_000120.html" target="_top" xlink:title="2">
<text text-anchor="middle" x="274.14" y="-141.62" font-family="Helvetica,sans-Serif" font-size="10.00" fill="#63b8ff">2</text>
</a>
</g>
</g>
<!-- dir_cbd02b5be4584b4d66ebef73a874b298 -->
<g id="node14" class="node">
<title>dir_cbd02b5be4584b4d66ebef73a874b298</title>
<g id="a_node14"><a xlink:href="dir_cbd02b5be4584b4d66ebef73a874b298.html" target="_top" xlink:title="handlers">
<polygon fill="#fdaf60" stroke="#404040" points="592.5,-200 533.5,-200 533.5,-181 592.5,-181 592.5,-200"/>
<text text-anchor="middle" x="563" y="-188" font-family="Helvetica,sans-Serif" font-size="10.00">handlers</text>
</a>
</g>
</g>
<!-- dir_ee914885184833579e051451a9f6b65c&#45;&gt;dir_cbd02b5be4584b4d66ebef73a874b298 -->
<g id="edge6" class="edge">
<title>dir_ee914885184833579e051451a9f6b65c&#45;&gt;dir_cbd02b5be4584b4d66ebef73a874b298</title>
<g id="a_edge6"><a xlink:href="dir_000114_000054.html" target="_top">
<path fill="none" stroke="#63b8ff" d="M557.99,-235.75C558.78,-228.8 559.9,-218.85 560.89,-210.13"/>
<polygon fill="#63b8ff" stroke="#63b8ff" points="564.38,-210.42 562.03,-200.09 557.42,-209.63 564.38,-210.42"/>
</a>
</g>
<g id="a_edge6&#45;headlabel"><a xlink:href="dir_000114_000054.html" target="_top" xlink:title="3">
<text text-anchor="middle" x="566.8" y="-211.81" font-family="Helvetica,sans-Serif" font-size="10.00" fill="#63b8ff">3</text>
</a>
</g>
</g>
<!-- dir_a7364e945deb3de9e65ddca50507f79f -->
<g id="node18" class="node">
<title>dir_a7364e945deb3de9e65ddca50507f79f</title>
<g id="a_node18"><a xlink:href="dir_a7364e945deb3de9e65ddca50507f79f.html" target="_top" xlink:title="userver">
<polygon fill="#feefdf" stroke="red" points="1082.5,-35 1029.5,-35 1029.5,-16 1082.5,-16 1082.5,-35"/>
<text text-anchor="middle" x="1056" y="-23" font-family="Helvetica,sans-Serif" font-size="10.00">userver</text>
</a>
</g>
</g>
<!-- dir_ee914885184833579e051451a9f6b65c&#45;&gt;dir_a7364e945deb3de9e65ddca50507f79f -->
<g id="edge4" class="edge">
<title>dir_ee914885184833579e051451a9f6b65c&#45;&gt;dir_a7364e945deb3de9e65ddca50507f79f</title>
<g id="a_edge4"><a xlink:href="dir_000114_000146.html" target="_top">
<path fill="none" stroke="#63b8ff" d="M580.75,-238.21C583.86,-237.44 587,-236.68 590,-236 794.08,-189.66 893.05,-281.14 1052,-145 1080.49,-120.6 1079.69,-99.72 1072,-63 1070.69,-56.74 1068.23,-50.23 1065.64,-44.48"/>
<polygon fill="#63b8ff" stroke="#63b8ff" points="1068.59,-42.56 1061.02,-35.16 1062.32,-45.67 1068.59,-42.56"/>
</a>
</g>
<g id="a_edge4&#45;headlabel"><a xlink:href="dir_000114_000146.html" target="_top" xlink:title="38">
<text text-anchor="middle" x="1072.73" y="-42.03" font-family="Helvetica,sans-Serif" font-size="10.00" fill="#63b8ff">38</text>
</a>
</g>
</g>
<!-- dir_6dee7a840c66e9033c3284f1ad4fe4a1 -->
<g id="node12" class="node">
<title>dir_6dee7a840c66e9033c3284f1ad4fe4a1</title>
<g id="a_node12"><a xlink:href="dir_6dee7a840c66e9033c3284f1ad4fe4a1.html" target="_top" xlink:title="auth">
<polygon fill="#fdaf60" stroke="#404040" points="649,-200 611,-200 611,-181 649,-181 649,-200"/>
<text text-anchor="middle" x="630" y="-188" font-family="Helvetica,sans-Serif" font-size="10.00">auth</text>
</a>
</g>
</g>
<!-- dir_990ca0e4d1092627101070a1c89f24df -->
<g id="node16" class="node">
<title>dir_990ca0e4d1092627101070a1c89f24df</title>
<g id="a_node16"><a xlink:href="dir_990ca0e4d1092627101070a1c89f24df.html" target="_top" xlink:title="request">
<polygon fill="#fdaf60" stroke="#404040" points="635.5,-145 582.5,-145 582.5,-126 635.5,-126 635.5,-145"/>
<text text-anchor="middle" x="609" y="-133" font-family="Helvetica,sans-Serif" font-size="10.00">request</text>
</a>
</g>
</g>
<!-- dir_6dee7a840c66e9033c3284f1ad4fe4a1&#45;&gt;dir_990ca0e4d1092627101070a1c89f24df -->
<g id="edge7" class="edge">
<title>dir_6dee7a840c66e9033c3284f1ad4fe4a1&#45;&gt;dir_990ca0e4d1092627101070a1c89f24df</title>
<g id="a_edge7"><a xlink:href="dir_000000_000110.html" target="_top">
<path fill="none" stroke="#63b8ff" d="M626.53,-180.75C623.72,-173.65 619.66,-163.4 616.15,-154.56"/>
<polygon fill="#63b8ff" stroke="#63b8ff" points="619.34,-153.1 612.4,-145.09 612.83,-155.68 619.34,-153.1"/>
</a>
</g>
<g id="a_edge7&#45;headlabel"><a xlink:href="dir_000000_000110.html" target="_top" xlink:title="1">
<text text-anchor="middle" x="623.3" y="-152.89" font-family="Helvetica,sans-Serif" font-size="10.00" fill="#63b8ff">1</text>
</a>
</g>
</g>
<!-- dir_6dee7a840c66e9033c3284f1ad4fe4a1&#45;&gt;dir_a7364e945deb3de9e65ddca50507f79f -->
<g id="edge8" class="edge">
<title>dir_6dee7a840c66e9033c3284f1ad4fe4a1&#45;&gt;dir_a7364e945deb3de9e65ddca50507f79f</title>
<g id="a_edge8"><a xlink:href="dir_000000_000146.html" target="_top">
<path fill="none" stroke="#63b8ff" d="M649.14,-188.69C725.21,-185.29 1003.4,-171.15 1032,-145 1059.67,-119.71 1060.41,-72.04 1058.33,-45.52"/>
<polygon fill="#63b8ff" stroke="#63b8ff" points="1061.79,-44.88 1057.3,-35.28 1054.82,-45.58 1061.79,-44.88"/>
</a>
</g>
<g id="a_edge8&#45;headlabel"><a xlink:href="dir_000000_000146.html" target="_top" xlink:title="5">
<text text-anchor="middle" x="1064.97" y="-45.67" font-family="Helvetica,sans-Serif" font-size="10.00" fill="#63b8ff">5</text>
</a>
</g>
</g>
<!-- dir_87e8b8d6be5db6018332e1f6029d9963 -->
<g id="node13" class="node">
<title>dir_87e8b8d6be5db6018332e1f6029d9963</title>
<g id="a_node13"><a xlink:href="dir_87e8b8d6be5db6018332e1f6029d9963.html" target="_top" xlink:title="congestion_control">
<polygon fill="#fdaf60" stroke="#404040" points="794.5,-255 685.5,-255 685.5,-236 794.5,-236 794.5,-255"/>
<text text-anchor="middle" x="740" y="-243" font-family="Helvetica,sans-Serif" font-size="10.00">congestion_control</text>
</a>
</g>
</g>
<!-- dir_87e8b8d6be5db6018332e1f6029d9963&#45;&gt;dir_a7364e945deb3de9e65ddca50507f79f -->
<g id="edge9" class="edge">
<title>dir_87e8b8d6be5db6018332e1f6029d9963&#45;&gt;dir_a7364e945deb3de9e65ddca50507f79f</title>
<g id="a_edge9"><a xlink:href="dir_000024_000146.html" target="_top">
<path fill="none" stroke="#63b8ff" d="M794.64,-242.49C900.01,-238.05 1122.96,-225.71 1146,-200 1186.64,-154.66 1180.02,-113.5 1146,-63 1134.05,-45.26 1111.84,-36.13 1092.47,-31.45"/>
<polygon fill="#63b8ff" stroke="#63b8ff" points="1093.18,-28.02 1082.67,-29.38 1091.73,-34.87 1093.18,-28.02"/>
</a>
</g>
<g id="a_edge9&#45;headlabel"><a xlink:href="dir_000024_000146.html" target="_top" xlink:title="1">
<text text-anchor="middle" x="1097.28" y="-23.48" font-family="Helvetica,sans-Serif" font-size="10.00" fill="#63b8ff">1</text>
</a>
</g>
</g>
<!-- dir_cbd02b5be4584b4d66ebef73a874b298&#45;&gt;dir_0c57938951830d22b3fad77440a122e7 -->
<g id="edge10" class="edge">
<title>dir_cbd02b5be4584b4d66ebef73a874b298&#45;&gt;dir_0c57938951830d22b3fad77440a122e7</title>
<g id="a_edge10"><a xlink:href="dir_000054_000130.html" target="_top">
<path fill="none" stroke="#63b8ff" d="M533.35,-181.99C531.88,-181.65 530.43,-181.32 529,-181 450.84,-163.6 428.09,-163.12 346.47,-145.23"/>
<polygon fill="#63b8ff" stroke="#63b8ff" points="346.74,-141.7 336.22,-142.96 345.22,-148.54 346.74,-141.7"/>
</a>
</g>
<g id="a_edge10&#45;headlabel"><a xlink:href="dir_000054_000130.html" target="_top" xlink:title="1">
<text text-anchor="middle" x="350.86" y="-137.21" font-family="Helvetica,sans-Serif" font-size="10.00" fill="#63b8ff">1</text>
</a>
</g>
</g>
<!-- dir_cbd02b5be4584b4d66ebef73a874b298&#45;&gt;dir_150bbd271f1504029fbda942e72f1022 -->
<g id="edge11" class="edge">
<title>dir_cbd02b5be4584b4d66ebef73a874b298&#45;&gt;dir_150bbd271f1504029fbda942e72f1022</title>
<g id="a_edge11"><a xlink:href="dir_000054_000149.html" target="_top">
<path fill="none" stroke="#63b8ff" d="M533.39,-181.79C531.91,-181.5 530.44,-181.24 529,-181 336.02,-149.31 280.22,-181.01 84.19,-144.8"/>
<polygon fill="#63b8ff" stroke="#63b8ff" points="84.62,-141.31 74.14,-142.9 83.32,-148.19 84.62,-141.31"/>
</a>
</g>
<g id="a_edge11&#45;headlabel"><a xlink:href="dir_000054_000149.html" target="_top" xlink:title="3">
<text text-anchor="middle" x="88.68" y="-136.69" font-family="Helvetica,sans-Serif" font-size="10.00" fill="#63b8ff">3</text>
</a>
</g>
</g>
<!-- dir_cbd02b5be4584b4d66ebef73a874b298&#45;&gt;dir_2c6b70c628beb7fc0194b7f508f3ad90 -->
<g id="edge12" class="edge">
<title>dir_cbd02b5be4584b4d66ebef73a874b298&#45;&gt;dir_2c6b70c628beb7fc0194b7f508f3ad90</title>
<g id="a_edge12"><a xlink:href="dir_000054_000009.html" target="_top">
<path fill="none" stroke="#63b8ff" d="M592.77,-182.79C595.88,-182.15 599,-181.54 602,-181 708.38,-161.71 739.18,-167.4 848.29,-145.14"/>
<polygon fill="#63b8ff" stroke="#63b8ff" points="849.31,-148.5 858.39,-143.05 847.89,-141.65 849.31,-148.5"/>
</a>
</g>
<g id="a_edge12&#45;headlabel"><a xlink:href="dir_000054_000009.html" target="_top" xlink:title="1">
<text text-anchor="middle" x="846.37" y="-149.51" font-family="Helvetica,sans-Serif" font-size="10.00" fill="#63b8ff">1</text>
</a>
</g>
</g>
<!-- dir_cbd02b5be4584b4d66ebef73a874b298&#45;&gt;dir_3285f5f33091c25af669261537588667 -->
<g id="edge13" class="edge">
<title>dir_cbd02b5be4584b4d66ebef73a874b298&#45;&gt;dir_3285f5f33091c25af669261537588667</title>
<g id="a_edge13"><a xlink:href="dir_000054_000107.html" target="_top">
<path fill="none" stroke="#63b8ff" d="M533.23,-181.47C500.54,-172.62 446.49,-157.93 400,-145 398.74,-144.65 397.45,-144.29 396.14,-143.92"/>
<polygon fill="#63b8ff" stroke="#63b8ff" points="396.76,-140.46 386.18,-141.12 394.86,-147.2 396.76,-140.46"/>
</a>
</g>
<g id="a_edge13&#45;headlabel"><a xlink:href="dir_000054_000107.html" target="_top" xlink:title="2">
<text text-anchor="middle" x="400.99" y="-136.2" font-family="Helvetica,sans-Serif" font-size="10.00" fill="#63b8ff">2</text>
</a>
</g>
</g>
<!-- dir_cbd02b5be4584b4d66ebef73a874b298&#45;&gt;dir_486b9402482621fd641691dc37d76b53 -->
<g id="edge14" class="edge">
<title>dir_cbd02b5be4584b4d66ebef73a874b298&#45;&gt;dir_486b9402482621fd641691dc37d76b53</title>
<g id="a_edge14"><a xlink:href="dir_000054_000046.html" target="_top">
<path fill="none" stroke="#63b8ff" d="M533.32,-181.49C491.22,-170.01 418.82,-149.71 415,-145 391.89,-116.51 396.04,-70.47 400.75,-44.98"/>
<polygon fill="#63b8ff" stroke="#63b8ff" points="404.19,-45.63 402.79,-35.13 397.33,-44.22 404.19,-45.63"/>
</a>
</g>
<g id="a_edge14&#45;headlabel"><a xlink:href="dir_000054_000046.html" target="_top" xlink:title="1">
<text text-anchor="middle" x="406.24" y="-47.23" font-family="Helvetica,sans-Serif" font-size="10.00" fill="#63b8ff">1</text>
</a>
</g>
</g>
<!-- dir_cbd02b5be4584b4d66ebef73a874b298&#45;&gt;dir_6fe6ce792de102936b3c02369b7e8bae -->
<g id="edge15" class="edge">
<title>dir_cbd02b5be4584b4d66ebef73a874b298&#45;&gt;dir_6fe6ce792de102936b3c02369b7e8bae</title>
<g id="a_edge15"><a xlink:href="dir_000054_000042.html" target="_top">
<path fill="none" stroke="#63b8ff" d="M548.22,-180.98C533.82,-172.69 511.69,-159.94 494.81,-150.22"/>
<polygon fill="#63b8ff" stroke="#63b8ff" points="496.46,-147.13 486.05,-145.17 492.97,-153.19 496.46,-147.13"/>
</a>
</g>
<g id="a_edge15&#45;headlabel"><a xlink:href="dir_000054_000042.html" target="_top" xlink:title="5">
<text text-anchor="middle" x="500.99" y="-143.96" font-family="Helvetica,sans-Serif" font-size="10.00" fill="#63b8ff">5</text>
</a>
</g>
</g>
<!-- dir_cbd02b5be4584b4d66ebef73a874b298&#45;&gt;dir_994ef2a14b32cb8134d8b7b97f08d542 -->
<g id="edge18" class="edge">
<title>dir_cbd02b5be4584b4d66ebef73a874b298&#45;&gt;dir_994ef2a14b32cb8134d8b7b97f08d542</title>
<g id="a_edge18"><a xlink:href="dir_000054_000021.html" target="_top">
<path fill="none" stroke="#63b8ff" d="M533.38,-181.84C531.9,-181.54 530.44,-181.26 529,-181 383.76,-155.05 345.54,-162.15 199,-145 192.8,-144.27 186.28,-143.49 179.83,-142.7"/>
<polygon fill="#63b8ff" stroke="#63b8ff" points="180.18,-139.21 169.82,-141.46 179.32,-146.16 180.18,-139.21"/>
</a>
</g>
<g id="a_edge18&#45;headlabel"><a xlink:href="dir_000054_000021.html" target="_top" xlink:title="6">
<text text-anchor="middle" x="184.09" y="-134.34" font-family="Helvetica,sans-Serif" font-size="10.00" fill="#63b8ff">6</text>
</a>
</g>
</g>
<!-- dir_cbd02b5be4584b4d66ebef73a874b298&#45;&gt;dir_a002d428d11eb8614f350575a2d4c4e0 -->
<g id="edge19" class="edge">
<title>dir_cbd02b5be4584b4d66ebef73a874b298&#45;&gt;dir_a002d428d11eb8614f350575a2d4c4e0</title>
<g id="a_edge19"><a xlink:href="dir_000054_000051.html" target="_top">
<path fill="none" stroke="#63b8ff" d="M592.78,-182.88C595.89,-182.23 599.01,-181.59 602,-181 689.49,-163.79 716.6,-171.48 801.41,-146.49"/>
<polygon fill="#63b8ff" stroke="#63b8ff" points="802.63,-149.78 811.2,-143.54 800.61,-143.07 802.63,-149.78"/>
</a>
</g>
<g id="a_edge19&#45;headlabel"><a xlink:href="dir_000054_000051.html" target="_top" xlink:title="1">
<text text-anchor="middle" x="800.01" y="-151.03" font-family="Helvetica,sans-Serif" font-size="10.00" fill="#63b8ff">1</text>
</a>
</g>
</g>
<!-- dir_cbd02b5be4584b4d66ebef73a874b298&#45;&gt;dir_b2e5dd734b4dca0bb7544c080eed55d0 -->
<g id="edge21" class="edge">
<title>dir_cbd02b5be4584b4d66ebef73a874b298&#45;&gt;dir_b2e5dd734b4dca0bb7544c080eed55d0</title>
<g id="a_edge21"><a xlink:href="dir_000054_000120.html" target="_top">
<path fill="none" stroke="#63b8ff" d="M533.37,-181.9C531.9,-181.58 530.43,-181.28 529,-181 421.12,-159.87 390.09,-164.75 277.8,-145.01"/>
<polygon fill="#63b8ff" stroke="#63b8ff" points="278.23,-141.53 267.77,-143.22 277,-148.42 278.23,-141.53"/>
</a>
</g>
<g id="a_edge21&#45;headlabel"><a xlink:href="dir_000054_000120.html" target="_top" xlink:title="1">
<text text-anchor="middle" x="282.26" y="-136.87" font-family="Helvetica,sans-Serif" font-size="10.00" fill="#63b8ff">1</text>
</a>
</g>
</g>
<!-- dir_cbd02b5be4584b4d66ebef73a874b298&#45;&gt;dir_e64dfdcbff0f609bc29171eebbcbbcc9 -->
<g id="edge22" class="edge">
<title>dir_cbd02b5be4584b4d66ebef73a874b298&#45;&gt;dir_e64dfdcbff0f609bc29171eebbcbbcc9</title>
<g id="a_edge22"><a xlink:href="dir_000054_000022.html" target="_top">
<path fill="none" stroke="#63b8ff" d="M592.75,-182.7C595.87,-182.08 598.99,-181.5 602,-181 736.04,-158.69 773.77,-166.13 911.67,-145.09"/>
<polygon fill="#63b8ff" stroke="#63b8ff" points="912.43,-148.51 921.78,-143.52 911.36,-141.59 912.43,-148.51"/>
</a>
</g>
<g id="a_edge22&#45;headlabel"><a xlink:href="dir_000054_000022.html" target="_top" xlink:title="1">
<text text-anchor="middle" x="909.31" y="-149.37" font-family="Helvetica,sans-Serif" font-size="10.00" fill="#63b8ff">1</text>
</a>
</g>
</g>
<!-- dir_7c8aad318a3904861a0ee81bd37c7629 -->
<g id="node15" class="node">
<title>dir_7c8aad318a3904861a0ee81bd37c7629</title>
<g id="a_node15"><a xlink:href="dir_7c8aad318a3904861a0ee81bd37c7629.html" target="_top" xlink:title="http">
<polygon fill="#fdaf60" stroke="#404040" points="604,-90 568,-90 568,-71 604,-71 604,-90"/>
<text text-anchor="middle" x="586" y="-78" font-family="Helvetica,sans-Serif" font-size="10.00">http</text>
</a>
</g>
</g>
<!-- dir_cbd02b5be4584b4d66ebef73a874b298&#45;&gt;dir_7c8aad318a3904861a0ee81bd37c7629 -->
<g id="edge16" class="edge">
<title>dir_cbd02b5be4584b4d66ebef73a874b298&#45;&gt;dir_7c8aad318a3904861a0ee81bd37c7629</title>
<g id="a_edge16"><a xlink:href="dir_000054_000057.html" target="_top">
<path fill="none" stroke="#63b8ff" d="M558.27,-180.82C557.06,-168.55 560.7,-145.45 565,-126 566.94,-117.21 569.49,-107.55 572.51,-99.49"/>
<polygon fill="#63b8ff" stroke="#63b8ff" points="575.73,-100.87 576.57,-90.31 569.32,-98.04 575.73,-100.87"/>
</a>
</g>
<g id="a_edge16&#45;headlabel"><a xlink:href="dir_000054_000057.html" target="_top" xlink:title="12">
<text text-anchor="middle" x="576.87" y="-102.8" font-family="Helvetica,sans-Serif" font-size="10.00" fill="#63b8ff">12</text>
</a>
</g>
</g>
<!-- dir_cbd02b5be4584b4d66ebef73a874b298&#45;&gt;dir_990ca0e4d1092627101070a1c89f24df -->
<g id="edge17" class="edge">
<title>dir_cbd02b5be4584b4d66ebef73a874b298&#45;&gt;dir_990ca0e4d1092627101070a1c89f24df</title>
<g id="a_edge17"><a xlink:href="dir_000054_000110.html" target="_top">
<path fill="none" stroke="#63b8ff" d="M570.6,-180.75C577.16,-173.18 586.82,-162.05 594.81,-152.84"/>
<polygon fill="#63b8ff" stroke="#63b8ff" points="597.63,-154.94 601.55,-145.09 592.35,-150.35 597.63,-154.94"/>
</a>
</g>
<g id="a_edge17&#45;headlabel"><a xlink:href="dir_000054_000110.html" target="_top" xlink:title="4">
<text text-anchor="middle" x="597.42" y="-157.01" font-family="Helvetica,sans-Serif" font-size="10.00" fill="#63b8ff">4</text>
</a>
</g>
</g>
<!-- dir_cbd02b5be4584b4d66ebef73a874b298&#45;&gt;dir_a7364e945deb3de9e65ddca50507f79f -->
<g id="edge20" class="edge">
<title>dir_cbd02b5be4584b4d66ebef73a874b298&#45;&gt;dir_a7364e945deb3de9e65ddca50507f79f</title>
<g id="a_edge20"><a xlink:href="dir_000054_000146.html" target="_top">
<path fill="none" stroke="#63b8ff" d="M592.74,-182.62C595.86,-182.02 598.99,-181.46 602,-181 690.22,-167.47 929.18,-196.6 1002,-145 1035.25,-121.44 1048.45,-72.31 1053.35,-45.3"/>
<polygon fill="#63b8ff" stroke="#63b8ff" points="1056.84,-45.64 1054.97,-35.21 1049.93,-44.53 1056.84,-45.64"/>
</a>
</g>
<g id="a_edge20&#45;headlabel"><a xlink:href="dir_000054_000146.html" target="_top" xlink:title="20">
<text text-anchor="middle" x="1059.07" y="-47.14" font-family="Helvetica,sans-Serif" font-size="10.00" fill="#63b8ff">20</text>
</a>
</g>
</g>
<!-- dir_7c8aad318a3904861a0ee81bd37c7629&#45;&gt;dir_486b9402482621fd641691dc37d76b53 -->
<g id="edge23" class="edge">
<title>dir_7c8aad318a3904861a0ee81bd37c7629&#45;&gt;dir_486b9402482621fd641691dc37d76b53</title>
<g id="a_edge23"><a xlink:href="dir_000057_000046.html" target="_top">
<path fill="none" stroke="#63b8ff" d="M576.27,-70.83C572.63,-67.97 568.33,-65.01 564,-63 523.78,-44.33 473.29,-34.85 440.13,-30.29"/>
<polygon fill="#63b8ff" stroke="#63b8ff" points="440.38,-26.8 430.01,-28.98 439.48,-33.74 440.38,-26.8"/>
</a>
</g>
<g id="a_edge23&#45;headlabel"><a xlink:href="dir_000057_000046.html" target="_top" xlink:title="1">
<text text-anchor="middle" x="444.3" y="-21.94" font-family="Helvetica,sans-Serif" font-size="10.00" fill="#63b8ff">1</text>
</a>
</g>
</g>
<!-- dir_7c8aad318a3904861a0ee81bd37c7629&#45;&gt;dir_cbd02b5be4584b4d66ebef73a874b298 -->
<g id="edge25" class="edge">
<title>dir_7c8aad318a3904861a0ee81bd37c7629&#45;&gt;dir_cbd02b5be4584b4d66ebef73a874b298</title>
<g id="a_edge25"><a xlink:href="dir_000057_000054.html" target="_top">
<path fill="none" stroke="#63b8ff" d="M590.17,-90.31C589.76,-99.24 585.76,-113.5 583,-126 579.68,-141.04 576.75,-158.27 573.35,-170.98"/>
<polygon fill="#63b8ff" stroke="#63b8ff" points="569.91,-170.23 570.22,-180.82 576.58,-172.35 569.91,-170.23"/>
</a>
</g>
<g id="a_edge25&#45;headlabel"><a xlink:href="dir_000057_000054.html" target="_top" xlink:title="1">
<text text-anchor="middle" x="568.3" y="-163.45" font-family="Helvetica,sans-Serif" font-size="10.00" fill="#63b8ff">1</text>
</a>
</g>
</g>
<!-- dir_7c8aad318a3904861a0ee81bd37c7629&#45;&gt;dir_a7364e945deb3de9e65ddca50507f79f -->
<g id="edge24" class="edge">
<title>dir_7c8aad318a3904861a0ee81bd37c7629&#45;&gt;dir_a7364e945deb3de9e65ddca50507f79f</title>
<g id="a_edge24"><a xlink:href="dir_000057_000146.html" target="_top">
<path fill="none" stroke="#63b8ff" d="M604.29,-77.87C662.49,-72.61 848.62,-55.26 1002,-35 1007.59,-34.26 1013.49,-33.41 1019.25,-32.53"/>
<polygon fill="#63b8ff" stroke="#63b8ff" points="1020.05,-35.95 1029.4,-30.96 1018.98,-29.04 1020.05,-35.95"/>
</a>
</g>
<g id="a_edge24&#45;headlabel"><a xlink:href="dir_000057_000146.html" target="_top" xlink:title="5">
<text text-anchor="middle" x="1016.94" y="-36.81" font-family="Helvetica,sans-Serif" font-size="10.00" fill="#63b8ff">5</text>
</a>
</g>
</g>
<!-- dir_990ca0e4d1092627101070a1c89f24df&#45;&gt;dir_486b9402482621fd641691dc37d76b53 -->
<g id="edge26" class="edge">
<title>dir_990ca0e4d1092627101070a1c89f24df&#45;&gt;dir_486b9402482621fd641691dc37d76b53</title>
<g id="a_edge26"><a xlink:href="dir_000110_000046.html" target="_top">
<path fill="none" stroke="#63b8ff" d="M592.65,-125.84C557.05,-107 472.33,-62.14 429.98,-39.73"/>
<polygon fill="#63b8ff" stroke="#63b8ff" points="431.62,-36.63 421.14,-35.05 428.34,-42.82 431.62,-36.63"/>
</a>
</g>
<g id="a_edge26&#45;headlabel"><a xlink:href="dir_000110_000046.html" target="_top" xlink:title="2">
<text text-anchor="middle" x="436.12" y="-33.31" font-family="Helvetica,sans-Serif" font-size="10.00" fill="#63b8ff">2</text>
</a>
</g>
</g>
<!-- dir_990ca0e4d1092627101070a1c89f24df&#45;&gt;dir_7c8aad318a3904861a0ee81bd37c7629 -->
<g id="edge27" class="edge">
<title>dir_990ca0e4d1092627101070a1c89f24df&#45;&gt;dir_7c8aad318a3904861a0ee81bd37c7629</title>
<g id="a_edge27"><a xlink:href="dir_000110_000057.html" target="_top">
<path fill="none" stroke="#63b8ff" d="M605.2,-125.75C602.09,-118.57 597.58,-108.18 593.71,-99.27"/>
<polygon fill="#63b8ff" stroke="#63b8ff" points="596.92,-97.87 589.73,-90.09 590.5,-100.66 596.92,-97.87"/>
</a>
</g>
<g id="a_edge27&#45;headlabel"><a xlink:href="dir_000110_000057.html" target="_top" xlink:title="1">
<text text-anchor="middle" x="600.95" y="-97.54" font-family="Helvetica,sans-Serif" font-size="10.00" fill="#63b8ff">1</text>
</a>
</g>
</g>
<!-- dir_990ca0e4d1092627101070a1c89f24df&#45;&gt;dir_a7364e945deb3de9e65ddca50507f79f -->
<g id="edge28" class="edge">
<title>dir_990ca0e4d1092627101070a1c89f24df&#45;&gt;dir_a7364e945deb3de9e65ddca50507f79f</title>
<g id="a_edge28"><a xlink:href="dir_000110_000146.html" target="_top">
<path fill="none" stroke="#63b8ff" d="M635.7,-127.12C637.15,-126.74 638.59,-126.36 640,-126 779.51,-90.2 946.42,-51.53 1019.13,-34.89"/>
<polygon fill="#63b8ff" stroke="#63b8ff" points="1020.19,-38.24 1029.16,-32.6 1018.63,-31.41 1020.19,-38.24"/>
</a>
</g>
<g id="a_edge28&#45;headlabel"><a xlink:href="dir_000110_000146.html" target="_top" xlink:title="5">
<text text-anchor="middle" x="1017.32" y="-39.31" font-family="Helvetica,sans-Serif" font-size="10.00" fill="#63b8ff">5</text>
</a>
</g>
</g>
<!-- dir_3ce3464159f2bbaab90110805323015e -->
<g id="node17" class="node">
<title>dir_3ce3464159f2bbaab90110805323015e</title>
<g id="a_node17"><a xlink:href="dir_3ce3464159f2bbaab90110805323015e.html" target="_top" xlink:title="websocket">
<polygon fill="#fdaf60" stroke="#404040" points="667,-255 599,-255 599,-236 667,-236 667,-255"/>
<text text-anchor="middle" x="633" y="-243" font-family="Helvetica,sans-Serif" font-size="10.00">websocket</text>
</a>
</g>
</g>
<!-- dir_3ce3464159f2bbaab90110805323015e&#45;&gt;dir_0c57938951830d22b3fad77440a122e7 -->
<g id="edge29" class="edge">
<title>dir_3ce3464159f2bbaab90110805323015e&#45;&gt;dir_0c57938951830d22b3fad77440a122e7</title>
<g id="a_edge29"><a xlink:href="dir_000153_000130.html" target="_top">
<path fill="none" stroke="#63b8ff" d="M607.46,-235.94C550.14,-216.71 411.15,-170.09 345.91,-148.21"/>
<polygon fill="#63b8ff" stroke="#63b8ff" points="346.69,-144.78 336.09,-144.92 344.46,-151.41 346.69,-144.78"/>
</a>
</g>
<g id="a_edge29&#45;headlabel"><a xlink:href="dir_000153_000130.html" target="_top" xlink:title="1">
<text text-anchor="middle" x="351" y="-140.73" font-family="Helvetica,sans-Serif" font-size="10.00" fill="#63b8ff">1</text>
</a>
</g>
</g>
<!-- dir_3ce3464159f2bbaab90110805323015e&#45;&gt;dir_486b9402482621fd641691dc37d76b53 -->
<g id="edge30" class="edge">
<title>dir_3ce3464159f2bbaab90110805323015e&#45;&gt;dir_486b9402482621fd641691dc37d76b53</title>
<g id="a_edge30"><a xlink:href="dir_000153_000046.html" target="_top">
<path fill="none" stroke="#63b8ff" d="M598.66,-237.84C498.3,-218.2 211.7,-160.95 199,-145 148.15,-81.18 298.82,-45.24 369.99,-32.2"/>
<polygon fill="#63b8ff" stroke="#63b8ff" points="370.64,-35.64 379.88,-30.44 369.42,-28.74 370.64,-35.64"/>
</a>
</g>
<g id="a_edge30&#45;headlabel"><a xlink:href="dir_000153_000046.html" target="_top" xlink:title="1">
<text text-anchor="middle" x="367.6" y="-36.56" font-family="Helvetica,sans-Serif" font-size="10.00" fill="#63b8ff">1</text>
</a>
</g>
</g>
<!-- dir_3ce3464159f2bbaab90110805323015e&#45;&gt;dir_994ef2a14b32cb8134d8b7b97f08d542 -->
<g id="edge32" class="edge">
<title>dir_3ce3464159f2bbaab90110805323015e&#45;&gt;dir_994ef2a14b32cb8134d8b7b97f08d542</title>
<g id="a_edge32"><a xlink:href="dir_000153_000021.html" target="_top">
<path fill="none" stroke="#63b8ff" d="M598.95,-237.57C595.59,-236.99 592.24,-236.46 589,-236 499.97,-223.46 266.04,-240.96 186,-200 166.19,-189.86 150.46,-169.25 140.98,-154.25"/>
<polygon fill="#63b8ff" stroke="#63b8ff" points="143.81,-152.16 135.67,-145.37 137.8,-155.75 143.81,-152.16"/>
</a>
</g>
<g id="a_edge32&#45;headlabel"><a xlink:href="dir_000153_000021.html" target="_top" xlink:title="1">
<text text-anchor="middle" x="148.09" y="-151.29" font-family="Helvetica,sans-Serif" font-size="10.00" fill="#63b8ff">1</text>
</a>
</g>
</g>
<!-- dir_3ce3464159f2bbaab90110805323015e&#45;&gt;dir_cbd02b5be4584b4d66ebef73a874b298 -->
<g id="edge34" class="edge">
<title>dir_3ce3464159f2bbaab90110805323015e&#45;&gt;dir_cbd02b5be4584b4d66ebef73a874b298</title>
<g id="a_edge34"><a xlink:href="dir_000153_000054.html" target="_top">
<path fill="none" stroke="#63b8ff" d="M621.75,-235.98C611.2,-228 595.2,-215.88 582.56,-206.31"/>
<polygon fill="#63b8ff" stroke="#63b8ff" points="584.54,-203.42 574.45,-200.17 580.31,-209 584.54,-203.42"/>
</a>
</g>
<g id="a_edge34&#45;headlabel"><a xlink:href="dir_000153_000054.html" target="_top" xlink:title="1">
<text text-anchor="middle" x="589.12" y="-200.82" font-family="Helvetica,sans-Serif" font-size="10.00" fill="#63b8ff">1</text>
</a>
</g>
</g>
<!-- dir_3ce3464159f2bbaab90110805323015e&#45;&gt;dir_7c8aad318a3904861a0ee81bd37c7629 -->
<g id="edge31" class="edge">
<title>dir_3ce3464159f2bbaab90110805323015e&#45;&gt;dir_7c8aad318a3904861a0ee81bd37c7629</title>
<g id="a_edge31"><a xlink:href="dir_000153_000057.html" target="_top">
<path fill="none" stroke="#63b8ff" d="M639.63,-235.88C645.76,-227.32 654.46,-213.54 658,-200 666.45,-167.7 663.25,-153.96 645,-126 636.73,-113.33 623.56,-102.89 611.75,-95.31"/>
<polygon fill="#63b8ff" stroke="#63b8ff" points="613.47,-92.26 603.1,-90.09 609.85,-98.25 613.47,-92.26"/>
</a>
</g>
<g id="a_edge31&#45;headlabel"><a xlink:href="dir_000153_000057.html" target="_top" xlink:title="1">
<text text-anchor="middle" x="618.01" y="-89.19" font-family="Helvetica,sans-Serif" font-size="10.00" fill="#63b8ff">1</text>
</a>
</g>
</g>
<!-- dir_3ce3464159f2bbaab90110805323015e&#45;&gt;dir_a7364e945deb3de9e65ddca50507f79f -->
<g id="edge33" class="edge">
<title>dir_3ce3464159f2bbaab90110805323015e&#45;&gt;dir_a7364e945deb3de9e65ddca50507f79f</title>
<g id="a_edge33"><a xlink:href="dir_000153_000146.html" target="_top">
<path fill="none" stroke="#63b8ff" d="M667.05,-237.55C670.4,-236.98 673.76,-236.45 677,-236 724.6,-229.43 1075.46,-235.37 1108,-200 1149.22,-155.19 1136.08,-117.03 1108,-63 1103.04,-53.46 1094.32,-45.89 1085.41,-40.18"/>
<polygon fill="#63b8ff" stroke="#63b8ff" points="1086.99,-37.05 1076.58,-35.08 1083.49,-43.11 1086.99,-37.05"/>
</a>
</g>
<g id="a_edge33&#45;headlabel"><a xlink:href="dir_000153_000146.html" target="_top" xlink:title="1">
<text text-anchor="middle" x="1091.53" y="-33.89" font-family="Helvetica,sans-Serif" font-size="10.00" fill="#63b8ff">1</text>
</a>
</g>
</g>
</g>
</svg>
