<?xml version="1.0" encoding="UTF-8" standalone="no"?>
<!DOCTYPE svg PUBLIC "-//W3C//DTD SVG 1.1//EN"
 "http://www.w3.org/Graphics/SVG/1.1/DTD/svg11.dtd">
<!-- Generated by graphviz version 2.43.0 (0)
 -->
<!-- Title: userver/formats Pages: 1 -->
<svg width="280pt" height="306pt"
 viewBox="0.00 0.00 280.00 306.00" xmlns="http://www.w3.org/2000/svg" xmlns:xlink="http://www.w3.org/1999/xlink">
<g id="graph0" class="graph" transform="scale(1 1) rotate(0) translate(4 302)">
<title>userver/formats</title>
<g id="clust1" class="cluster">
<title>clusterdir_a7364e945deb3de9e65ddca50507f79f</title>
<g id="a_clust1"><a xlink:href="dir_a7364e945deb3de9e65ddca50507f79f.html" target="_top" xlink:title="userver">
<polygon fill="#feefdf" stroke="#404040" stroke-dasharray="5,2" points="8,-8 8,-290 264,-290 264,-8 8,-8"/>
<text text-anchor="middle" x="136" y="-278" font-family="Helvetica,sans-Serif" font-size="10.00">userver</text>
</a>
</g>
</g>
<g id="clust2" class="cluster">
<title>clusterdir_e5d739089ab2f029c385362e3cd8d126</title>
<g id="a_clust2"><a xlink:href="dir_e5d739089ab2f029c385362e3cd8d126.html" target="_top">
<polygon fill="#feefdf" stroke="#404040" stroke-width="2" points="48,-63 48,-263 244,-263 244,-63 48,-63"/>
</a>
</g>
</g>
<!-- dir_257c7dd21ee5674f3b200d28efeb46c0 -->
<g id="node1" class="node">
<title>dir_257c7dd21ee5674f3b200d28efeb46c0</title>
<g id="a_node1"><a xlink:href="dir_257c7dd21ee5674f3b200d28efeb46c0.html" target="_top" xlink:title="utils">
<polygon fill="#fdaf60" stroke="red" points="87,-35 49,-35 49,-16 87,-16 87,-35"/>
<text text-anchor="middle" x="68" y="-23" font-family="Helvetica,sans-Serif" font-size="10.00">utils</text>
</a>
</g>
</g>
<!-- dir_43758eace6093c93b1a9e9554aba0822 -->
<g id="node2" class="node">
<title>dir_43758eace6093c93b1a9e9554aba0822</title>
<g id="a_node2"><a xlink:href="dir_43758eace6093c93b1a9e9554aba0822.html" target="_top" xlink:title="compiler">
<polygon fill="#fdaf60" stroke="red" points="239.5,-35 180.5,-35 180.5,-16 239.5,-16 239.5,-35"/>
<text text-anchor="middle" x="210" y="-23" font-family="Helvetica,sans-Serif" font-size="10.00">compiler</text>
</a>
</g>
</g>
<!-- dir_e5d739089ab2f029c385362e3cd8d126 -->
<g id="node3" class="node">
<title>dir_e5d739089ab2f029c385362e3cd8d126</title>
<text text-anchor="middle" x="157" y="-243" font-family="Helvetica,sans-Serif" font-size="10.00">formats</text>
</g>
<!-- dir_0ff24befbf8b818075ce0110e6c83a25 -->
<g id="node5" class="node">
<title>dir_0ff24befbf8b818075ce0110e6c83a25</title>
<g id="a_node5"><a xlink:href="dir_0ff24befbf8b818075ce0110e6c83a25.html" target="_top" xlink:title="json">
<polygon fill="#fdaf60" stroke="#404040" points="207.5,-200 170.5,-200 170.5,-181 207.5,-181 207.5,-200"/>
<text text-anchor="middle" x="189" y="-188" font-family="Helvetica,sans-Serif" font-size="10.00">json</text>
</a>
</g>
</g>
<!-- dir_e5d739089ab2f029c385362e3cd8d126&#45;&gt;dir_0ff24befbf8b818075ce0110e6c83a25 -->
<g id="edge1" class="edge">
<title>dir_e5d739089ab2f029c385362e3cd8d126&#45;&gt;dir_0ff24befbf8b818075ce0110e6c83a25</title>
<g id="a_edge1"><a xlink:href="dir_000050_000085.html" target="_top">
<path fill="none" stroke="#63b8ff" d="M162.28,-235.75C166.71,-228.42 173.16,-217.73 178.62,-208.7"/>
<polygon fill="#63b8ff" stroke="#63b8ff" points="181.64,-210.46 183.81,-200.09 175.65,-206.84 181.64,-210.46"/>
</a>
</g>
<g id="a_edge1&#45;headlabel"><a xlink:href="dir_000050_000085.html" target="_top" xlink:title="6">
<text text-anchor="middle" x="182.21" y="-212.5" font-family="Helvetica,sans-Serif" font-size="10.00" fill="#63b8ff">6</text>
</a>
</g>
</g>
<!-- dir_21df508d69b23d4739d18ebf8f3a190b -->
<g id="node6" class="node">
<title>dir_21df508d69b23d4739d18ebf8f3a190b</title>
<g id="a_node6"><a xlink:href="dir_21df508d69b23d4739d18ebf8f3a190b.html" target="_top" xlink:title="parse">
<polygon fill="#fdaf60" stroke="#404040" points="207,-90 163,-90 163,-71 207,-71 207,-90"/>
<text text-anchor="middle" x="185" y="-78" font-family="Helvetica,sans-Serif" font-size="10.00">parse</text>
</a>
</g>
</g>
<!-- dir_e5d739089ab2f029c385362e3cd8d126&#45;&gt;dir_21df508d69b23d4739d18ebf8f3a190b -->
<g id="edge2" class="edge">
<title>dir_e5d739089ab2f029c385362e3cd8d126&#45;&gt;dir_21df508d69b23d4739d18ebf8f3a190b</title>
<g id="a_edge2"><a xlink:href="dir_000050_000099.html" target="_top">
<path fill="none" stroke="#63b8ff" d="M176.58,-235.98C190.67,-228.68 208.6,-216.68 217,-200 233.93,-166.37 212.25,-122.73 197.19,-98.9"/>
<polygon fill="#63b8ff" stroke="#63b8ff" points="199.91,-96.66 191.46,-90.26 194.07,-100.53 199.91,-96.66"/>
</a>
</g>
<g id="a_edge2&#45;headlabel"><a xlink:href="dir_000050_000099.html" target="_top" xlink:title="7">
<text text-anchor="middle" x="204.26" y="-95.59" font-family="Helvetica,sans-Serif" font-size="10.00" fill="#63b8ff">7</text>
</a>
</g>
</g>
<!-- dir_23c15cb36468dc16ec328f258c45a386 -->
<g id="node7" class="node">
<title>dir_23c15cb36468dc16ec328f258c45a386</title>
<g id="a_node7"><a xlink:href="dir_23c15cb36468dc16ec328f258c45a386.html" target="_top" xlink:title="serialize">
<polygon fill="#fdaf60" stroke="#404040" points="145,-90 87,-90 87,-71 145,-71 145,-90"/>
<text text-anchor="middle" x="116" y="-78" font-family="Helvetica,sans-Serif" font-size="10.00">serialize</text>
</a>
</g>
</g>
<!-- dir_e5d739089ab2f029c385362e3cd8d126&#45;&gt;dir_23c15cb36468dc16ec328f258c45a386 -->
<g id="edge4" class="edge">
<title>dir_e5d739089ab2f029c385362e3cd8d126&#45;&gt;dir_23c15cb36468dc16ec328f258c45a386</title>
<g id="a_edge4"><a xlink:href="dir_000050_000113.html" target="_top">
<path fill="none" stroke="#63b8ff" d="M139.76,-235.88C126.19,-228.24 107.83,-215.85 97,-200 82.71,-179.08 85.36,-170.11 82,-145 80.88,-136.63 79.29,-134 82,-126 85.56,-115.47 92.72,-105.48 99.55,-97.63"/>
<polygon fill="#63b8ff" stroke="#63b8ff" points="102.13,-100.01 106.39,-90.31 97.01,-95.23 102.13,-100.01"/>
</a>
</g>
<g id="a_edge4&#45;headlabel"><a xlink:href="dir_000050_000113.html" target="_top" xlink:title="9">
<text text-anchor="middle" x="101.75" y="-102.07" font-family="Helvetica,sans-Serif" font-size="10.00" fill="#63b8ff">9</text>
</a>
</g>
</g>
<!-- dir_227832b22ab05b0e33cd3f1313eabb65 -->
<g id="node8" class="node">
<title>dir_227832b22ab05b0e33cd3f1313eabb65</title>
<g id="a_node8"><a xlink:href="dir_227832b22ab05b0e33cd3f1313eabb65.html" target="_top" xlink:title="yaml">
<polygon fill="#fdaf60" stroke="#404040" points="146.5,-200 105.5,-200 105.5,-181 146.5,-181 146.5,-200"/>
<text text-anchor="middle" x="126" y="-188" font-family="Helvetica,sans-Serif" font-size="10.00">yaml</text>
</a>
</g>
</g>
<!-- dir_e5d739089ab2f029c385362e3cd8d126&#45;&gt;dir_227832b22ab05b0e33cd3f1313eabb65 -->
<g id="edge3" class="edge">
<title>dir_e5d739089ab2f029c385362e3cd8d126&#45;&gt;dir_227832b22ab05b0e33cd3f1313eabb65</title>
<g id="a_edge3"><a xlink:href="dir_000050_000154.html" target="_top">
<path fill="none" stroke="#63b8ff" d="M151.88,-235.75C147.64,-228.49 141.47,-217.95 136.22,-208.98"/>
<polygon fill="#63b8ff" stroke="#63b8ff" points="139.09,-206.95 131.02,-200.09 133.05,-210.49 139.09,-206.95"/>
</a>
</g>
<g id="a_edge3&#45;headlabel"><a xlink:href="dir_000050_000154.html" target="_top" xlink:title="6">
<text text-anchor="middle" x="143.36" y="-206.12" font-family="Helvetica,sans-Serif" font-size="10.00" fill="#63b8ff">6</text>
</a>
</g>
</g>
<!-- dir_efd27ce7c10cb1e5e16c82ebbb233a32 -->
<g id="node4" class="node">
<title>dir_efd27ce7c10cb1e5e16c82ebbb233a32</title>
<g id="a_node4"><a xlink:href="dir_efd27ce7c10cb1e5e16c82ebbb233a32.html" target="_top" xlink:title="common">
<polygon fill="#fdaf60" stroke="#404040" points="155.5,-145 96.5,-145 96.5,-126 155.5,-126 155.5,-145"/>
<text text-anchor="middle" x="126" y="-133" font-family="Helvetica,sans-Serif" font-size="10.00">common</text>
</a>
</g>
</g>
<!-- dir_efd27ce7c10cb1e5e16c82ebbb233a32&#45;&gt;dir_257c7dd21ee5674f3b200d28efeb46c0 -->
<g id="edge7" class="edge">
<title>dir_efd27ce7c10cb1e5e16c82ebbb233a32&#45;&gt;dir_257c7dd21ee5674f3b200d28efeb46c0</title>
<g id="a_edge7"><a xlink:href="dir_000019_000152.html" target="_top">
<path fill="none" stroke="#63b8ff" d="M112.69,-125.98C101.52,-118.07 86.12,-105.24 78,-90 70.69,-76.29 68.37,-58.71 67.78,-45.53"/>
<polygon fill="#63b8ff" stroke="#63b8ff" points="71.28,-45.22 67.62,-35.28 64.28,-45.33 71.28,-45.22"/>
</a>
</g>
<g id="a_edge7&#45;headlabel"><a xlink:href="dir_000019_000152.html" target="_top" xlink:title="2">
<text text-anchor="middle" x="74.17" y="-46.27" font-family="Helvetica,sans-Serif" font-size="10.00" fill="#63b8ff">2</text>
</a>
</g>
</g>
<!-- dir_efd27ce7c10cb1e5e16c82ebbb233a32&#45;&gt;dir_21df508d69b23d4739d18ebf8f3a190b -->
<g id="edge5" class="edge">
<title>dir_efd27ce7c10cb1e5e16c82ebbb233a32&#45;&gt;dir_21df508d69b23d4739d18ebf8f3a190b</title>
<g id="a_edge5"><a xlink:href="dir_000019_000099.html" target="_top">
<path fill="none" stroke="#63b8ff" d="M130.58,-125.75C137.72,-117.8 150.63,-105.91 162.21,-96.45"/>
<polygon fill="#63b8ff" stroke="#63b8ff" points="164.61,-99.02 170.31,-90.09 160.28,-93.52 164.61,-99.02"/>
</a>
</g>
<g id="a_edge5&#45;headlabel"><a xlink:href="dir_000019_000099.html" target="_top" xlink:title="1">
<text text-anchor="middle" x="163.54" y="-100.97" font-family="Helvetica,sans-Serif" font-size="10.00" fill="#63b8ff">1</text>
</a>
</g>
</g>
<!-- dir_efd27ce7c10cb1e5e16c82ebbb233a32&#45;&gt;dir_23c15cb36468dc16ec328f258c45a386 -->
<g id="edge6" class="edge">
<title>dir_efd27ce7c10cb1e5e16c82ebbb233a32&#45;&gt;dir_23c15cb36468dc16ec328f258c45a386</title>
<g id="a_edge6"><a xlink:href="dir_000019_000113.html" target="_top">
<path fill="none" stroke="#63b8ff" d="M119.18,-125.75C116.38,-118.8 114.06,-108.85 113.04,-100.13"/>
<polygon fill="#63b8ff" stroke="#63b8ff" points="116.53,-99.88 112.49,-90.09 109.54,-100.26 116.53,-99.88"/>
</a>
</g>
<g id="a_edge6&#45;headlabel"><a xlink:href="dir_000019_000113.html" target="_top" xlink:title="1">
<text text-anchor="middle" x="119.56" y="-100.82" font-family="Helvetica,sans-Serif" font-size="10.00" fill="#63b8ff">1</text>
</a>
</g>
</g>
<!-- dir_0ff24befbf8b818075ce0110e6c83a25&#45;&gt;dir_257c7dd21ee5674f3b200d28efeb46c0 -->
<g id="edge10" class="edge">
<title>dir_0ff24befbf8b818075ce0110e6c83a25&#45;&gt;dir_257c7dd21ee5674f3b200d28efeb46c0</title>
<g id="a_edge10"><a xlink:href="dir_000085_000152.html" target="_top">
<path fill="none" stroke="#63b8ff" d="M170.34,-183.17C144.61,-174.12 100.01,-157.24 88,-145 61.49,-117.98 63.45,-100.82 65,-63 65.24,-57.19 65.69,-50.88 66.17,-45.16"/>
<polygon fill="#63b8ff" stroke="#63b8ff" points="69.66,-45.47 67.08,-35.19 62.69,-44.83 69.66,-45.47"/>
</a>
</g>
<g id="a_edge10&#45;headlabel"><a xlink:href="dir_000085_000152.html" target="_top" xlink:title="8">
<text text-anchor="middle" x="72.16" y="-46.81" font-family="Helvetica,sans-Serif" font-size="10.00" fill="#63b8ff">8</text>
</a>
</g>
</g>
<!-- dir_0ff24befbf8b818075ce0110e6c83a25&#45;&gt;dir_43758eace6093c93b1a9e9554aba0822 -->
<g id="edge11" class="edge">
<title>dir_0ff24befbf8b818075ce0110e6c83a25&#45;&gt;dir_43758eace6093c93b1a9e9554aba0822</title>
<g id="a_edge11"><a xlink:href="dir_000085_000020.html" target="_top">
<path fill="none" stroke="#63b8ff" d="M192.58,-180.76C196.11,-171.87 201.48,-157.66 205,-145 214.85,-109.57 218.99,-99.65 216,-63 215.52,-57.15 214.62,-50.82 213.66,-45.11"/>
<polygon fill="#63b8ff" stroke="#63b8ff" points="217.08,-44.36 211.83,-35.15 210.19,-45.62 217.08,-44.36"/>
</a>
</g>
<g id="a_edge11&#45;headlabel"><a xlink:href="dir_000085_000020.html" target="_top" xlink:title="1">
<text text-anchor="middle" x="220.52" y="-44.88" font-family="Helvetica,sans-Serif" font-size="10.00" fill="#63b8ff">1</text>
</a>
</g>
</g>
<!-- dir_0ff24befbf8b818075ce0110e6c83a25&#45;&gt;dir_efd27ce7c10cb1e5e16c82ebbb233a32 -->
<g id="edge12" class="edge">
<title>dir_0ff24befbf8b818075ce0110e6c83a25&#45;&gt;dir_efd27ce7c10cb1e5e16c82ebbb233a32</title>
<g id="a_edge12"><a xlink:href="dir_000085_000019.html" target="_top">
<path fill="none" stroke="#63b8ff" d="M178.88,-180.98C169.56,-173.15 155.53,-161.34 144.26,-151.86"/>
<polygon fill="#63b8ff" stroke="#63b8ff" points="146.21,-148.93 136.31,-145.17 141.71,-154.29 146.21,-148.93"/>
</a>
</g>
<g id="a_edge12&#45;headlabel"><a xlink:href="dir_000085_000019.html" target="_top" xlink:title="6">
<text text-anchor="middle" x="150.79" y="-146.57" font-family="Helvetica,sans-Serif" font-size="10.00" fill="#63b8ff">6</text>
</a>
</g>
</g>
<!-- dir_0ff24befbf8b818075ce0110e6c83a25&#45;&gt;dir_21df508d69b23d4739d18ebf8f3a190b -->
<g id="edge8" class="edge">
<title>dir_0ff24befbf8b818075ce0110e6c83a25&#45;&gt;dir_21df508d69b23d4739d18ebf8f3a190b</title>
<g id="a_edge8"><a xlink:href="dir_000085_000099.html" target="_top">
<path fill="none" stroke="#63b8ff" d="M192.34,-180.88C196.65,-168.68 203.22,-145.65 200,-126 198.53,-117.05 195.51,-107.47 192.56,-99.51"/>
<polygon fill="#63b8ff" stroke="#63b8ff" points="195.79,-98.16 188.86,-90.15 189.28,-100.74 195.79,-98.16"/>
</a>
</g>
<g id="a_edge8&#45;headlabel"><a xlink:href="dir_000085_000099.html" target="_top" xlink:title="2">
<text text-anchor="middle" x="199.75" y="-97.96" font-family="Helvetica,sans-Serif" font-size="10.00" fill="#63b8ff">2</text>
</a>
</g>
</g>
<!-- dir_0ff24befbf8b818075ce0110e6c83a25&#45;&gt;dir_23c15cb36468dc16ec328f258c45a386 -->
<g id="edge9" class="edge">
<title>dir_0ff24befbf8b818075ce0110e6c83a25&#45;&gt;dir_23c15cb36468dc16ec328f258c45a386</title>
<g id="a_edge9"><a xlink:href="dir_000085_000113.html" target="_top">
<path fill="none" stroke="#63b8ff" d="M187.07,-180.67C183.95,-167.81 176.93,-143.54 165,-126 157.3,-114.68 146.16,-104.26 136.44,-96.36"/>
<polygon fill="#63b8ff" stroke="#63b8ff" points="138.44,-93.47 128.4,-90.1 134.14,-99 138.44,-93.47"/>
</a>
</g>
<g id="a_edge9&#45;headlabel"><a xlink:href="dir_000085_000113.html" target="_top" xlink:title="5">
<text text-anchor="middle" x="143.02" y="-90.94" font-family="Helvetica,sans-Serif" font-size="10.00" fill="#63b8ff">5</text>
</a>
</g>
</g>
<!-- dir_21df508d69b23d4739d18ebf8f3a190b&#45;&gt;dir_257c7dd21ee5674f3b200d28efeb46c0 -->
<g id="edge13" class="edge">
<title>dir_21df508d69b23d4739d18ebf8f3a190b&#45;&gt;dir_257c7dd21ee5674f3b200d28efeb46c0</title>
<g id="a_edge13"><a xlink:href="dir_000099_000152.html" target="_top">
<path fill="none" stroke="#63b8ff" d="M169.37,-70.84C164.49,-68.23 159.06,-65.42 154,-63 135.03,-53.95 113.24,-44.71 96.33,-37.79"/>
<polygon fill="#63b8ff" stroke="#63b8ff" points="97.58,-34.52 87,-34.01 94.95,-41.01 97.58,-34.52"/>
</a>
</g>
<g id="a_edge13&#45;headlabel"><a xlink:href="dir_000099_000152.html" target="_top" xlink:title="7">
<text text-anchor="middle" x="101.98" y="-30.74" font-family="Helvetica,sans-Serif" font-size="10.00" fill="#63b8ff">7</text>
</a>
</g>
</g>
<!-- dir_21df508d69b23d4739d18ebf8f3a190b&#45;&gt;dir_43758eace6093c93b1a9e9554aba0822 -->
<g id="edge14" class="edge">
<title>dir_21df508d69b23d4739d18ebf8f3a190b&#45;&gt;dir_43758eace6093c93b1a9e9554aba0822</title>
<g id="a_edge14"><a xlink:href="dir_000099_000020.html" target="_top">
<path fill="none" stroke="#63b8ff" d="M189.13,-70.75C192.51,-63.57 197.42,-53.18 201.62,-44.27"/>
<polygon fill="#63b8ff" stroke="#63b8ff" points="204.85,-45.63 205.95,-35.09 198.52,-42.64 204.85,-45.63"/>
</a>
</g>
<g id="a_edge14&#45;headlabel"><a xlink:href="dir_000099_000020.html" target="_top" xlink:title="2">
<text text-anchor="middle" x="205.88" y="-47.59" font-family="Helvetica,sans-Serif" font-size="10.00" fill="#63b8ff">2</text>
</a>
</g>
</g>
<!-- dir_21df508d69b23d4739d18ebf8f3a190b&#45;&gt;dir_efd27ce7c10cb1e5e16c82ebbb233a32 -->
<g id="edge15" class="edge">
<title>dir_21df508d69b23d4739d18ebf8f3a190b&#45;&gt;dir_efd27ce7c10cb1e5e16c82ebbb233a32</title>
<g id="a_edge15"><a xlink:href="dir_000099_000019.html" target="_top">
<path fill="none" stroke="#63b8ff" d="M180.5,-90.17C173.36,-98.13 160.36,-110.11 148.72,-119.6"/>
<polygon fill="#63b8ff" stroke="#63b8ff" points="146.3,-117.06 140.59,-125.98 150.62,-122.56 146.3,-117.06"/>
</a>
</g>
<g id="a_edge15&#45;headlabel"><a xlink:href="dir_000099_000019.html" target="_top" xlink:title="4">
<text text-anchor="middle" x="147.37" y="-110.1" font-family="Helvetica,sans-Serif" font-size="10.00" fill="#63b8ff">4</text>
</a>
</g>
</g>
<!-- dir_23c15cb36468dc16ec328f258c45a386&#45;&gt;dir_257c7dd21ee5674f3b200d28efeb46c0 -->
<g id="edge16" class="edge">
<title>dir_23c15cb36468dc16ec328f258c45a386&#45;&gt;dir_257c7dd21ee5674f3b200d28efeb46c0</title>
<g id="a_edge16"><a xlink:href="dir_000113_000152.html" target="_top">
<path fill="none" stroke="#63b8ff" d="M108.07,-70.75C101.15,-63.11 90.93,-51.82 82.55,-42.56"/>
<polygon fill="#63b8ff" stroke="#63b8ff" points="85.09,-40.15 75.78,-35.09 79.9,-44.85 85.09,-40.15"/>
</a>
</g>
<g id="a_edge16&#45;headlabel"><a xlink:href="dir_000113_000152.html" target="_top" xlink:title="3">
<text text-anchor="middle" x="89.6" y="-38.41" font-family="Helvetica,sans-Serif" font-size="10.00" fill="#63b8ff">3</text>
</a>
</g>
</g>
<!-- dir_23c15cb36468dc16ec328f258c45a386&#45;&gt;dir_efd27ce7c10cb1e5e16c82ebbb233a32 -->
<g id="edge17" class="edge">
<title>dir_23c15cb36468dc16ec328f258c45a386&#45;&gt;dir_efd27ce7c10cb1e5e16c82ebbb233a32</title>
<g id="a_edge17"><a xlink:href="dir_000113_000019.html" target="_top">
<path fill="none" stroke="#63b8ff" d="M122.75,-90.09C125.56,-96.99 127.89,-106.93 128.94,-115.66"/>
<polygon fill="#63b8ff" stroke="#63b8ff" points="125.45,-115.96 129.52,-125.75 132.44,-115.56 125.45,-115.96"/>
</a>
</g>
<g id="a_edge17&#45;headlabel"><a xlink:href="dir_000113_000019.html" target="_top" xlink:title="3">
<text text-anchor="middle" x="122.41" y="-110.04" font-family="Helvetica,sans-Serif" font-size="10.00" fill="#63b8ff">3</text>
</a>
</g>
</g>
<!-- dir_227832b22ab05b0e33cd3f1313eabb65&#45;&gt;dir_257c7dd21ee5674f3b200d28efeb46c0 -->
<g id="edge20" class="edge">
<title>dir_227832b22ab05b0e33cd3f1313eabb65&#45;&gt;dir_257c7dd21ee5674f3b200d28efeb46c0</title>
<g id="a_edge20"><a xlink:href="dir_000154_000152.html" target="_top">
<path fill="none" stroke="#63b8ff" d="M105.26,-186.26C82.8,-181.52 48.03,-170.33 32,-145 12.51,-114.21 18.17,-96.72 32,-63 35.32,-54.89 41.42,-47.63 47.65,-41.75"/>
<polygon fill="#63b8ff" stroke="#63b8ff" points="50.11,-44.25 55.44,-35.09 45.56,-38.93 50.11,-44.25"/>
</a>
</g>
<g id="a_edge20&#45;headlabel"><a xlink:href="dir_000154_000152.html" target="_top" xlink:title="4">
<text text-anchor="middle" x="49.23" y="-46.24" font-family="Helvetica,sans-Serif" font-size="10.00" fill="#63b8ff">4</text>
</a>
</g>
</g>
<!-- dir_227832b22ab05b0e33cd3f1313eabb65&#45;&gt;dir_efd27ce7c10cb1e5e16c82ebbb233a32 -->
<g id="edge21" class="edge">
<title>dir_227832b22ab05b0e33cd3f1313eabb65&#45;&gt;dir_efd27ce7c10cb1e5e16c82ebbb233a32</title>
<g id="a_edge21"><a xlink:href="dir_000154_000019.html" target="_top">
<path fill="none" stroke="#63b8ff" d="M126,-180.75C126,-173.8 126,-163.85 126,-155.13"/>
<polygon fill="#63b8ff" stroke="#63b8ff" points="129.5,-155.09 126,-145.09 122.5,-155.09 129.5,-155.09"/>
</a>
</g>
<g id="a_edge21&#45;headlabel"><a xlink:href="dir_000154_000019.html" target="_top" xlink:title="5">
<text text-anchor="middle" x="132.34" y="-156.18" font-family="Helvetica,sans-Serif" font-size="10.00" fill="#63b8ff">5</text>
</a>
</g>
</g>
<!-- dir_227832b22ab05b0e33cd3f1313eabb65&#45;&gt;dir_21df508d69b23d4739d18ebf8f3a190b -->
<g id="edge18" class="edge">
<title>dir_227832b22ab05b0e33cd3f1313eabb65&#45;&gt;dir_21df508d69b23d4739d18ebf8f3a190b</title>
<g id="a_edge18"><a xlink:href="dir_000154_000099.html" target="_top">
<path fill="none" stroke="#63b8ff" d="M135.61,-180.83C144.38,-172.44 157.14,-158.97 165,-145 172.89,-130.98 178.11,-113.42 181.24,-100.33"/>
<polygon fill="#63b8ff" stroke="#63b8ff" points="184.74,-100.69 183.46,-90.17 177.9,-99.19 184.74,-100.69"/>
</a>
</g>
<g id="a_edge18&#45;headlabel"><a xlink:href="dir_000154_000099.html" target="_top" xlink:title="2">
<text text-anchor="middle" x="186.75" y="-102.31" font-family="Helvetica,sans-Serif" font-size="10.00" fill="#63b8ff">2</text>
</a>
</g>
</g>
<!-- dir_227832b22ab05b0e33cd3f1313eabb65&#45;&gt;dir_23c15cb36468dc16ec328f258c45a386 -->
<g id="edge19" class="edge">
<title>dir_227832b22ab05b0e33cd3f1313eabb65&#45;&gt;dir_23c15cb36468dc16ec328f258c45a386</title>
<g id="a_edge19"><a xlink:href="dir_000154_000113.html" target="_top">
<path fill="none" stroke="#63b8ff" d="M115.29,-180.93C106.07,-172.8 93.41,-159.68 88,-145 82.04,-128.84 91.47,-110.92 100.96,-98.25"/>
<polygon fill="#63b8ff" stroke="#63b8ff" points="103.75,-100.36 107.36,-90.4 98.33,-95.94 103.75,-100.36"/>
</a>
</g>
<g id="a_edge19&#45;headlabel"><a xlink:href="dir_000154_000113.html" target="_top" xlink:title="1">
<text text-anchor="middle" x="103.69" y="-102.44" font-family="Helvetica,sans-Serif" font-size="10.00" fill="#63b8ff">1</text>
</a>
</g>
</g>
</g>
</svg>
