<?xml version="1.0" encoding="UTF-8" standalone="no"?>
<!DOCTYPE svg PUBLIC "-//W3C//DTD SVG 1.1//EN"
 "http://www.w3.org/Graphics/SVG/1.1/DTD/svg11.dtd">
<!-- Generated by graphviz version 2.43.0 (0)
 -->
<!-- Title: userver/dynamic_config Pages: 1 -->
<svg width="649pt" height="251pt"
 viewBox="0.00 0.00 648.50 251.00" xmlns="http://www.w3.org/2000/svg" xmlns:xlink="http://www.w3.org/1999/xlink">
<g id="graph0" class="graph" transform="scale(1 1) rotate(0) translate(4 247)">
<title>userver/dynamic_config</title>
<g id="clust1" class="cluster">
<title>clusterdir_26f8c63b8c67b2ed6c1b7078f08f1e18</title>
<g id="a_clust1"><a xlink:href="dir_26f8c63b8c67b2ed6c1b7078f08f1e18.html" target="_top" xlink:title="userver">
<polygon fill="#feefdf" stroke="#404040" stroke-dasharray="5,2" points="8,-8 8,-235 579,-235 579,-8 8,-8"/>
<text text-anchor="middle" x="293.5" y="-223" font-family="Helvetica,sans-Serif" font-size="10.00">userver</text>
</a>
</g>
</g>
<g id="clust2" class="cluster">
<title>clusterdir_6fe6ce792de102936b3c02369b7e8bae</title>
<g id="a_clust2"><a xlink:href="dir_6fe6ce792de102936b3c02369b7e8bae.html" target="_top">
<polygon fill="#feefdf" stroke="#404040" stroke-width="2" points="132,-63 132,-208 449,-208 449,-63 132,-63"/>
</a>
</g>
</g>
<!-- dir_150bbd271f1504029fbda942e72f1022 -->
<g id="node1" class="node">
<title>dir_150bbd271f1504029fbda942e72f1022</title>
<g id="a_node1"><a xlink:href="dir_150bbd271f1504029fbda942e72f1022.html" target="_top" xlink:title="utils">
<polygon fill="#fdaf60" stroke="red" points="54,-145 16,-145 16,-126 54,-126 54,-145"/>
<text text-anchor="middle" x="35" y="-133" font-family="Helvetica,sans-Serif" font-size="10.00">utils</text>
</a>
</g>
</g>
<!-- dir_994ef2a14b32cb8134d8b7b97f08d542 -->
<g id="node2" class="node">
<title>dir_994ef2a14b32cb8134d8b7b97f08d542</title>
<g id="a_node2"><a xlink:href="dir_994ef2a14b32cb8134d8b7b97f08d542.html" target="_top" xlink:title="components">
<polygon fill="#fdaf60" stroke="red" points="288.5,-35 211.5,-35 211.5,-16 288.5,-16 288.5,-35"/>
<text text-anchor="middle" x="250" y="-23" font-family="Helvetica,sans-Serif" font-size="10.00">components</text>
</a>
</g>
</g>
<!-- dir_e64dfdcbff0f609bc29171eebbcbbcc9 -->
<g id="node3" class="node">
<title>dir_e64dfdcbff0f609bc29171eebbcbbcc9</title>
<g id="a_node3"><a xlink:href="dir_e64dfdcbff0f609bc29171eebbcbbcc9.html" target="_top" xlink:title="concurrent">
<polygon fill="#fdaf60" stroke="red" points="124,-90 56,-90 56,-71 124,-71 124,-90"/>
<text text-anchor="middle" x="90" y="-78" font-family="Helvetica,sans-Serif" font-size="10.00">concurrent</text>
</a>
</g>
</g>
<!-- dir_2c6b70c628beb7fc0194b7f508f3ad90 -->
<g id="node4" class="node">
<title>dir_2c6b70c628beb7fc0194b7f508f3ad90</title>
<g id="a_node4"><a xlink:href="dir_2c6b70c628beb7fc0194b7f508f3ad90.html" target="_top" xlink:title="cache">
<polygon fill="#fdaf60" stroke="#404040" points="570.5,-145 525.5,-145 525.5,-126 570.5,-126 570.5,-145"/>
<text text-anchor="middle" x="548" y="-133" font-family="Helvetica,sans-Serif" font-size="10.00">cache</text>
</a>
</g>
</g>
<!-- dir_486b9402482621fd641691dc37d76b53 -->
<g id="node5" class="node">
<title>dir_486b9402482621fd641691dc37d76b53</title>
<g id="a_node5"><a xlink:href="dir_486b9402482621fd641691dc37d76b53.html" target="_top" xlink:title="engine">
<polygon fill="#fdaf60" stroke="red" points="507,-145 457,-145 457,-126 507,-126 507,-145"/>
<text text-anchor="middle" x="482" y="-133" font-family="Helvetica,sans-Serif" font-size="10.00">engine</text>
</a>
</g>
</g>
<!-- dir_6fe6ce792de102936b3c02369b7e8bae -->
<g id="node6" class="node">
<title>dir_6fe6ce792de102936b3c02369b7e8bae</title>
<text text-anchor="middle" x="186" y="-188" font-family="Helvetica,sans-Serif" font-size="10.00">dynamic_config</text>
</g>
<!-- dir_6fe6ce792de102936b3c02369b7e8bae&#45;&gt;dir_150bbd271f1504029fbda942e72f1022 -->
<g id="edge1" class="edge">
<title>dir_6fe6ce792de102936b3c02369b7e8bae&#45;&gt;dir_150bbd271f1504029fbda942e72f1022</title>
<g id="a_edge1"><a xlink:href="dir_000042_000149.html" target="_top">
<path fill="none" stroke="#63b8ff" d="M161.74,-180.98C135.16,-171.65 92.53,-156.69 64.15,-146.73"/>
<polygon fill="#63b8ff" stroke="#63b8ff" points="65,-143.32 54.4,-143.31 62.68,-149.92 65,-143.32"/>
</a>
</g>
<g id="a_edge1&#45;headlabel"><a xlink:href="dir_000042_000149.html" target="_top" xlink:title="1">
<text text-anchor="middle" x="69.33" y="-139.33" font-family="Helvetica,sans-Serif" font-size="10.00" fill="#63b8ff">1</text>
</a>
</g>
</g>
<!-- dir_6fe6ce792de102936b3c02369b7e8bae&#45;&gt;dir_e64dfdcbff0f609bc29171eebbcbbcc9 -->
<g id="edge3" class="edge">
<title>dir_6fe6ce792de102936b3c02369b7e8bae&#45;&gt;dir_e64dfdcbff0f609bc29171eebbcbbcc9</title>
<g id="a_edge3"><a xlink:href="dir_000042_000022.html" target="_top">
<path fill="none" stroke="#63b8ff" d="M178.14,-180.66C162.03,-162.54 125.03,-120.91 104.46,-97.77"/>
<polygon fill="#63b8ff" stroke="#63b8ff" points="106.96,-95.31 97.7,-90.16 101.72,-99.96 106.96,-95.31"/>
</a>
</g>
<g id="a_edge3&#45;headlabel"><a xlink:href="dir_000042_000022.html" target="_top" xlink:title="2">
<text text-anchor="middle" x="111.47" y="-93.61" font-family="Helvetica,sans-Serif" font-size="10.00" fill="#63b8ff">2</text>
</a>
</g>
</g>
<!-- dir_a7364e945deb3de9e65ddca50507f79f -->
<g id="node13" class="node">
<title>dir_a7364e945deb3de9e65ddca50507f79f</title>
<g id="a_node13"><a xlink:href="dir_a7364e945deb3de9e65ddca50507f79f.html" target="_top" xlink:title="userver">
<polygon fill="#feefdf" stroke="red" points="640.5,-90 587.5,-90 587.5,-71 640.5,-71 640.5,-90"/>
<text text-anchor="middle" x="614" y="-78" font-family="Helvetica,sans-Serif" font-size="10.00">userver</text>
</a>
</g>
</g>
<!-- dir_6fe6ce792de102936b3c02369b7e8bae&#45;&gt;dir_a7364e945deb3de9e65ddca50507f79f -->
<g id="edge2" class="edge">
<title>dir_6fe6ce792de102936b3c02369b7e8bae&#45;&gt;dir_a7364e945deb3de9e65ddca50507f79f</title>
<g id="a_edge2"><a xlink:href="dir_000042_000146.html" target="_top">
<path fill="none" stroke="#63b8ff" d="M232.73,-182.24C235.86,-181.81 238.98,-181.39 242,-181 317.58,-171.28 520.58,-188.71 583,-145 597.89,-134.57 605.93,-114.93 610.06,-100.24"/>
<polygon fill="#63b8ff" stroke="#63b8ff" points="613.54,-100.76 612.51,-90.21 606.74,-99.1 613.54,-100.76"/>
</a>
</g>
<g id="a_edge2&#45;headlabel"><a xlink:href="dir_000042_000146.html" target="_top" xlink:title="7">
<text text-anchor="middle" x="615.45" y="-102.42" font-family="Helvetica,sans-Serif" font-size="10.00" fill="#63b8ff">7</text>
</a>
</g>
</g>
<!-- dir_05a6664772dfaaf897e460ab78028af4 -->
<g id="node7" class="node">
<title>dir_05a6664772dfaaf897e460ab78028af4</title>
<g id="a_node7"><a xlink:href="dir_05a6664772dfaaf897e460ab78028af4.html" target="_top" xlink:title="client">
<polygon fill="#fdaf60" stroke="#404040" points="419,-145 375,-145 375,-126 419,-126 419,-145"/>
<text text-anchor="middle" x="397" y="-133" font-family="Helvetica,sans-Serif" font-size="10.00">client</text>
</a>
</g>
</g>
<!-- dir_05a6664772dfaaf897e460ab78028af4&#45;&gt;dir_994ef2a14b32cb8134d8b7b97f08d542 -->
<g id="edge4" class="edge">
<title>dir_05a6664772dfaaf897e460ab78028af4&#45;&gt;dir_994ef2a14b32cb8134d8b7b97f08d542</title>
<g id="a_edge4"><a xlink:href="dir_000015_000021.html" target="_top">
<path fill="none" stroke="#63b8ff" d="M374.99,-128.28C345.22,-119.52 294.2,-103.13 280,-90 276.37,-86.64 265.3,-62.06 257.67,-44.48"/>
<polygon fill="#63b8ff" stroke="#63b8ff" points="260.83,-42.97 253.66,-35.16 254.4,-45.73 260.83,-42.97"/>
</a>
</g>
<g id="a_edge4&#45;headlabel"><a xlink:href="dir_000015_000021.html" target="_top" xlink:title="1">
<text text-anchor="middle" x="264.86" y="-42.65" font-family="Helvetica,sans-Serif" font-size="10.00" fill="#63b8ff">1</text>
</a>
</g>
</g>
<!-- dir_d18fd13a7368730bb938299dd5a86152 -->
<g id="node8" class="node">
<title>dir_d18fd13a7368730bb938299dd5a86152</title>
<g id="a_node8"><a xlink:href="dir_d18fd13a7368730bb938299dd5a86152.html" target="_top" xlink:title="fallbacks">
<polygon fill="#fdaf60" stroke="#404040" points="368.5,-200 307.5,-200 307.5,-181 368.5,-181 368.5,-200"/>
<text text-anchor="middle" x="338" y="-188" font-family="Helvetica,sans-Serif" font-size="10.00">fallbacks</text>
</a>
</g>
</g>
<!-- dir_d18fd13a7368730bb938299dd5a86152&#45;&gt;dir_994ef2a14b32cb8134d8b7b97f08d542 -->
<g id="edge6" class="edge">
<title>dir_d18fd13a7368730bb938299dd5a86152&#45;&gt;dir_994ef2a14b32cb8134d8b7b97f08d542</title>
<g id="a_edge6"><a xlink:href="dir_000048_000021.html" target="_top">
<path fill="none" stroke="#63b8ff" d="M307.44,-182.93C304.25,-182.27 301.06,-181.62 298,-181 213.74,-164.07 186.93,-179.01 108,-145 69.71,-128.5 50.96,-127.13 32,-90 26.54,-79.31 24.25,-72.16 32,-63 53.18,-37.98 143.2,-30.1 200.73,-27.62"/>
<polygon fill="#63b8ff" stroke="#63b8ff" points="201.22,-31.11 211.07,-27.22 200.95,-24.11 201.22,-31.11"/>
</a>
</g>
<g id="a_edge6&#45;headlabel"><a xlink:href="dir_000048_000021.html" target="_top" xlink:title="2">
<text text-anchor="middle" x="197.74" y="-31.58" font-family="Helvetica,sans-Serif" font-size="10.00" fill="#63b8ff">2</text>
</a>
</g>
</g>
<!-- dir_dae432e0d0164373c6da79fe3057ff2d -->
<g id="node10" class="node">
<title>dir_dae432e0d0164373c6da79fe3057ff2d</title>
<g id="a_node10"><a xlink:href="dir_dae432e0d0164373c6da79fe3057ff2d.html" target="_top" xlink:title="storage">
<polygon fill="#fdaf60" stroke="#404040" points="356.5,-145 303.5,-145 303.5,-126 356.5,-126 356.5,-145"/>
<text text-anchor="middle" x="330" y="-133" font-family="Helvetica,sans-Serif" font-size="10.00">storage</text>
</a>
</g>
</g>
<!-- dir_d18fd13a7368730bb938299dd5a86152&#45;&gt;dir_dae432e0d0164373c6da79fe3057ff2d -->
<g id="edge7" class="edge">
<title>dir_d18fd13a7368730bb938299dd5a86152&#45;&gt;dir_dae432e0d0164373c6da79fe3057ff2d</title>
<g id="a_edge7"><a xlink:href="dir_000048_000118.html" target="_top">
<path fill="none" stroke="#63b8ff" d="M336.68,-180.75C335.63,-173.8 334.13,-163.85 332.81,-155.13"/>
<polygon fill="#63b8ff" stroke="#63b8ff" points="336.25,-154.45 331.3,-145.09 329.33,-155.5 336.25,-154.45"/>
</a>
</g>
<g id="a_edge7&#45;headlabel"><a xlink:href="dir_000048_000118.html" target="_top" xlink:title="1">
<text text-anchor="middle" x="339.59" y="-155.09" font-family="Helvetica,sans-Serif" font-size="10.00" fill="#63b8ff">1</text>
</a>
</g>
</g>
<!-- dir_3da997a331c0854ed3f0597e9ff03ec2 -->
<g id="node12" class="node">
<title>dir_3da997a331c0854ed3f0597e9ff03ec2</title>
<g id="a_node12"><a xlink:href="dir_3da997a331c0854ed3f0597e9ff03ec2.html" target="_top" xlink:title="updates_sink">
<polygon fill="#fdaf60" stroke="#404040" points="370.5,-90 289.5,-90 289.5,-71 370.5,-71 370.5,-90"/>
<text text-anchor="middle" x="330" y="-78" font-family="Helvetica,sans-Serif" font-size="10.00">updates_sink</text>
</a>
</g>
</g>
<!-- dir_d18fd13a7368730bb938299dd5a86152&#45;&gt;dir_3da997a331c0854ed3f0597e9ff03ec2 -->
<g id="edge5" class="edge">
<title>dir_d18fd13a7368730bb938299dd5a86152&#45;&gt;dir_3da997a331c0854ed3f0597e9ff03ec2</title>
<g id="a_edge5"><a xlink:href="dir_000048_000134.html" target="_top">
<path fill="none" stroke="#63b8ff" d="M325.22,-181C314.61,-173.1 300.28,-160.27 294,-145 286.98,-127.92 299.62,-109.7 311.81,-97.18"/>
<polygon fill="#63b8ff" stroke="#63b8ff" points="314.34,-99.61 319.17,-90.18 309.51,-94.54 314.34,-99.61"/>
</a>
</g>
<g id="a_edge5&#45;headlabel"><a xlink:href="dir_000048_000134.html" target="_top" xlink:title="1">
<text text-anchor="middle" x="313.69" y="-101.65" font-family="Helvetica,sans-Serif" font-size="10.00" fill="#63b8ff">1</text>
</a>
</g>
</g>
<!-- dir_4a0b8f7ef673ceac6865b8ac4f9409e3 -->
<g id="node9" class="node">
<title>dir_4a0b8f7ef673ceac6865b8ac4f9409e3</title>
<g id="a_node9"><a xlink:href="dir_4a0b8f7ef673ceac6865b8ac4f9409e3.html" target="_top" xlink:title="impl">
<polygon fill="#fdaf60" stroke="#404040" points="289,-200 251,-200 251,-181 289,-181 289,-200"/>
<text text-anchor="middle" x="270" y="-188" font-family="Helvetica,sans-Serif" font-size="10.00">impl</text>
</a>
</g>
</g>
<!-- dir_dae432e0d0164373c6da79fe3057ff2d&#45;&gt;dir_994ef2a14b32cb8134d8b7b97f08d542 -->
<g id="edge9" class="edge">
<title>dir_dae432e0d0164373c6da79fe3057ff2d&#45;&gt;dir_994ef2a14b32cb8134d8b7b97f08d542</title>
<g id="a_edge9"><a xlink:href="dir_000118_000021.html" target="_top">
<path fill="none" stroke="#63b8ff" d="M310.26,-125.88C295.58,-118.46 276.22,-106.35 265,-90 255.89,-76.72 252.27,-58.6 250.86,-45.12"/>
<polygon fill="#63b8ff" stroke="#63b8ff" points="254.34,-44.8 250.11,-35.09 247.36,-45.32 254.34,-44.8"/>
</a>
</g>
<g id="a_edge9&#45;headlabel"><a xlink:href="dir_000118_000021.html" target="_top" xlink:title="1">
<text text-anchor="middle" x="257.44" y="-45.68" font-family="Helvetica,sans-Serif" font-size="10.00" fill="#63b8ff">1</text>
</a>
</g>
</g>
<!-- dir_dae432e0d0164373c6da79fe3057ff2d&#45;&gt;dir_e64dfdcbff0f609bc29171eebbcbbcc9 -->
<g id="edge11" class="edge">
<title>dir_dae432e0d0164373c6da79fe3057ff2d&#45;&gt;dir_e64dfdcbff0f609bc29171eebbcbbcc9</title>
<g id="a_edge11"><a xlink:href="dir_000118_000022.html" target="_top">
<path fill="none" stroke="#63b8ff" d="M303.31,-127.07C301.85,-126.7 300.41,-126.34 299,-126 226.76,-108.51 205.69,-106.62 134.31,-91.35"/>
<polygon fill="#63b8ff" stroke="#63b8ff" points="134.89,-87.9 124.38,-89.21 133.42,-94.74 134.89,-87.9"/>
</a>
</g>
<g id="a_edge11&#45;headlabel"><a xlink:href="dir_000118_000022.html" target="_top" xlink:title="1">
<text text-anchor="middle" x="139" y="-83.38" font-family="Helvetica,sans-Serif" font-size="10.00" fill="#63b8ff">1</text>
</a>
</g>
</g>
<!-- dir_dae432e0d0164373c6da79fe3057ff2d&#45;&gt;dir_3da997a331c0854ed3f0597e9ff03ec2 -->
<g id="edge8" class="edge">
<title>dir_dae432e0d0164373c6da79fe3057ff2d&#45;&gt;dir_3da997a331c0854ed3f0597e9ff03ec2</title>
<g id="a_edge8"><a xlink:href="dir_000118_000134.html" target="_top">
<path fill="none" stroke="#63b8ff" d="M330,-125.75C330,-118.8 330,-108.85 330,-100.13"/>
<polygon fill="#63b8ff" stroke="#63b8ff" points="333.5,-100.09 330,-90.09 326.5,-100.09 333.5,-100.09"/>
</a>
</g>
<g id="a_edge8&#45;headlabel"><a xlink:href="dir_000118_000134.html" target="_top" xlink:title="1">
<text text-anchor="middle" x="336.34" y="-101.18" font-family="Helvetica,sans-Serif" font-size="10.00" fill="#63b8ff">1</text>
</a>
</g>
</g>
<!-- dir_dae432e0d0164373c6da79fe3057ff2d&#45;&gt;dir_a7364e945deb3de9e65ddca50507f79f -->
<g id="edge10" class="edge">
<title>dir_dae432e0d0164373c6da79fe3057ff2d&#45;&gt;dir_a7364e945deb3de9e65ddca50507f79f</title>
<g id="a_edge10"><a xlink:href="dir_000118_000146.html" target="_top">
<path fill="none" stroke="#63b8ff" d="M356.7,-128.03C359.83,-127.32 362.98,-126.63 366,-126 440.82,-110.47 529,-95.41 577.47,-87.42"/>
<polygon fill="#63b8ff" stroke="#63b8ff" points="578.18,-90.85 587.48,-85.77 577.05,-83.94 578.18,-90.85"/>
</a>
</g>
<g id="a_edge10&#45;headlabel"><a xlink:href="dir_000118_000146.html" target="_top" xlink:title="1">
<text text-anchor="middle" x="575.1" y="-91.73" font-family="Helvetica,sans-Serif" font-size="10.00" fill="#63b8ff">1</text>
</a>
</g>
</g>
<!-- dir_8fb6b2bfcd52ae2cc2387ccc03fd3fed -->
<g id="node11" class="node">
<title>dir_8fb6b2bfcd52ae2cc2387ccc03fd3fed</title>
<g id="a_node11"><a xlink:href="dir_8fb6b2bfcd52ae2cc2387ccc03fd3fed.html" target="_top" xlink:title="updater">
<polygon fill="#fdaf60" stroke="#404040" points="441,-200 387,-200 387,-181 441,-181 441,-200"/>
<text text-anchor="middle" x="414" y="-188" font-family="Helvetica,sans-Serif" font-size="10.00">updater</text>
</a>
</g>
</g>
<!-- dir_8fb6b2bfcd52ae2cc2387ccc03fd3fed&#45;&gt;dir_994ef2a14b32cb8134d8b7b97f08d542 -->
<g id="edge16" class="edge">
<title>dir_8fb6b2bfcd52ae2cc2387ccc03fd3fed&#45;&gt;dir_994ef2a14b32cb8134d8b7b97f08d542</title>
<g id="a_edge16"><a xlink:href="dir_000133_000021.html" target="_top">
<path fill="none" stroke="#63b8ff" d="M386.73,-183.06C303.49,-163.29 57.65,-103.93 47,-90 5.73,-36.05 128.59,-26.84 201.01,-25.94"/>
<polygon fill="#63b8ff" stroke="#63b8ff" points="201.33,-29.44 211.3,-25.86 201.27,-22.44 201.33,-29.44"/>
</a>
</g>
<g id="a_edge16&#45;headlabel"><a xlink:href="dir_000133_000021.html" target="_top" xlink:title="1">
<text text-anchor="middle" x="197.75" y="-29.8" font-family="Helvetica,sans-Serif" font-size="10.00" fill="#63b8ff">1</text>
</a>
</g>
</g>
<!-- dir_8fb6b2bfcd52ae2cc2387ccc03fd3fed&#45;&gt;dir_2c6b70c628beb7fc0194b7f508f3ad90 -->
<g id="edge13" class="edge">
<title>dir_8fb6b2bfcd52ae2cc2387ccc03fd3fed&#45;&gt;dir_2c6b70c628beb7fc0194b7f508f3ad90</title>
<g id="a_edge13"><a xlink:href="dir_000133_000009.html" target="_top">
<path fill="none" stroke="#63b8ff" d="M435.53,-180.98C457.47,-172.3 491.74,-158.75 516.69,-148.88"/>
<polygon fill="#63b8ff" stroke="#63b8ff" points="518.07,-152.1 526.08,-145.17 515.49,-145.59 518.07,-152.1"/>
</a>
</g>
<g id="a_edge13&#45;headlabel"><a xlink:href="dir_000133_000009.html" target="_top" xlink:title="3">
<text text-anchor="middle" x="515.77" y="-153.57" font-family="Helvetica,sans-Serif" font-size="10.00" fill="#63b8ff">3</text>
</a>
</g>
</g>
<!-- dir_8fb6b2bfcd52ae2cc2387ccc03fd3fed&#45;&gt;dir_486b9402482621fd641691dc37d76b53 -->
<g id="edge15" class="edge">
<title>dir_8fb6b2bfcd52ae2cc2387ccc03fd3fed&#45;&gt;dir_486b9402482621fd641691dc37d76b53</title>
<g id="a_edge15"><a xlink:href="dir_000133_000046.html" target="_top">
<path fill="none" stroke="#63b8ff" d="M424.93,-180.98C435.08,-173.07 450.42,-161.11 462.65,-151.58"/>
<polygon fill="#63b8ff" stroke="#63b8ff" points="465.14,-154.08 470.88,-145.17 460.84,-148.56 465.14,-154.08"/>
</a>
</g>
<g id="a_edge15&#45;headlabel"><a xlink:href="dir_000133_000046.html" target="_top" xlink:title="1">
<text text-anchor="middle" x="464.05" y="-156.03" font-family="Helvetica,sans-Serif" font-size="10.00" fill="#63b8ff">1</text>
</a>
</g>
</g>
<!-- dir_8fb6b2bfcd52ae2cc2387ccc03fd3fed&#45;&gt;dir_05a6664772dfaaf897e460ab78028af4 -->
<g id="edge12" class="edge">
<title>dir_8fb6b2bfcd52ae2cc2387ccc03fd3fed&#45;&gt;dir_05a6664772dfaaf897e460ab78028af4</title>
<g id="a_edge12"><a xlink:href="dir_000133_000015.html" target="_top">
<path fill="none" stroke="#63b8ff" d="M411.19,-180.75C408.94,-173.72 405.7,-163.62 402.88,-154.84"/>
<polygon fill="#63b8ff" stroke="#63b8ff" points="406.14,-153.54 399.75,-145.09 399.48,-155.68 406.14,-153.54"/>
</a>
</g>
<g id="a_edge12&#45;headlabel"><a xlink:href="dir_000133_000015.html" target="_top" xlink:title="1">
<text text-anchor="middle" x="409.94" y="-153.6" font-family="Helvetica,sans-Serif" font-size="10.00" fill="#63b8ff">1</text>
</a>
</g>
</g>
<!-- dir_8fb6b2bfcd52ae2cc2387ccc03fd3fed&#45;&gt;dir_dae432e0d0164373c6da79fe3057ff2d -->
<g id="edge17" class="edge">
<title>dir_8fb6b2bfcd52ae2cc2387ccc03fd3fed&#45;&gt;dir_dae432e0d0164373c6da79fe3057ff2d</title>
<g id="a_edge17"><a xlink:href="dir_000133_000118.html" target="_top">
<path fill="none" stroke="#63b8ff" d="M400.5,-180.98C387.6,-172.84 367.9,-160.41 352.6,-150.76"/>
<polygon fill="#63b8ff" stroke="#63b8ff" points="354.07,-147.55 343.74,-145.17 350.33,-153.47 354.07,-147.55"/>
</a>
</g>
<g id="a_edge17&#45;headlabel"><a xlink:href="dir_000133_000118.html" target="_top" xlink:title="1">
<text text-anchor="middle" x="358.62" y="-144.56" font-family="Helvetica,sans-Serif" font-size="10.00" fill="#63b8ff">1</text>
</a>
</g>
</g>
<!-- dir_8fb6b2bfcd52ae2cc2387ccc03fd3fed&#45;&gt;dir_3da997a331c0854ed3f0597e9ff03ec2 -->
<g id="edge14" class="edge">
<title>dir_8fb6b2bfcd52ae2cc2387ccc03fd3fed&#45;&gt;dir_3da997a331c0854ed3f0597e9ff03ec2</title>
<g id="a_edge14"><a xlink:href="dir_000133_000134.html" target="_top">
<path fill="none" stroke="#63b8ff" d="M419.62,-180.98C427.36,-168.08 439.13,-143.27 428,-126 417.24,-109.29 398.49,-98.78 380.26,-92.21"/>
<polygon fill="#63b8ff" stroke="#63b8ff" points="381.13,-88.81 370.53,-89.03 378.96,-95.46 381.13,-88.81"/>
</a>
</g>
<g id="a_edge14&#45;headlabel"><a xlink:href="dir_000133_000134.html" target="_top" xlink:title="1">
<text text-anchor="middle" x="385.43" y="-84.73" font-family="Helvetica,sans-Serif" font-size="10.00" fill="#63b8ff">1</text>
</a>
</g>
</g>
<!-- dir_3da997a331c0854ed3f0597e9ff03ec2&#45;&gt;dir_994ef2a14b32cb8134d8b7b97f08d542 -->
<g id="edge18" class="edge">
<title>dir_3da997a331c0854ed3f0597e9ff03ec2&#45;&gt;dir_994ef2a14b32cb8134d8b7b97f08d542</title>
<g id="a_edge18"><a xlink:href="dir_000134_000021.html" target="_top">
<path fill="none" stroke="#63b8ff" d="M317.15,-70.98C304.86,-62.84 286.09,-50.41 271.52,-40.76"/>
<polygon fill="#63b8ff" stroke="#63b8ff" points="273.36,-37.78 263.09,-35.17 269.49,-43.61 273.36,-37.78"/>
</a>
</g>
<g id="a_edge18&#45;headlabel"><a xlink:href="dir_000134_000021.html" target="_top" xlink:title="2">
<text text-anchor="middle" x="277.92" y="-34.89" font-family="Helvetica,sans-Serif" font-size="10.00" fill="#63b8ff">2</text>
</a>
</g>
</g>
</g>
</svg>
