<?xml version="1.0" encoding="UTF-8" standalone="no"?>
<!DOCTYPE svg PUBLIC "-//W3C//DTD SVG 1.1//EN"
 "http://www.w3.org/Graphics/SVG/1.1/DTD/svg11.dtd">
<!-- Generated by graphviz version 2.43.0 (0)
 -->
<!-- Title: Graphical Class Hierarchy Pages: 1 -->
<svg width="720pt" height="278pt"
 viewBox="0.00 0.00 720.00 278.00" xmlns="http://www.w3.org/2000/svg" xmlns:xlink="http://www.w3.org/1999/xlink">
<g id="graph0" class="graph" transform="scale(1 1) rotate(0) translate(4 274)">
<title>Graphical Class Hierarchy</title>
<!-- Node0 -->
<g id="Node000000" class="node">
<title>Node0</title>
<g id="a_Node000000"><a xlink:title=" ">
<polygon fill="#e0e0e0" stroke="#999999" points="65,-72.5 0,-72.5 0,-53.5 65,-53.5 65,-72.5"/>
<text text-anchor="middle" x="32.5" y="-60.5" font-family="Helvetica,sans-Serif" font-size="10.00">Exception</text>
</a>
</g>
</g>
<!-- Node1 -->
<g id="Node000001" class="node">
<title>Node1</title>
<g id="a_Node000001"><a xlink:href="da/db1/classpytest__userver_1_1client_1_1BaseError.html" target="_top" xlink:title="Base class for exceptions of this module.">
<polygon fill="white" stroke="#666666" points="262,-174 116,-174 116,-144 262,-144 262,-174"/>
<text text-anchor="start" x="124" y="-162" font-family="Helvetica,sans-Serif" font-size="10.00">pytest_userver.client.Base</text>
<text text-anchor="middle" x="189" y="-151" font-family="Helvetica,sans-Serif" font-size="10.00">Error</text>
</a>
</g>
</g>
<!-- Node0&#45;&gt;Node1 -->
<g id="edge206_Node000000_Node000001" class="edge">
<title>Node0&#45;&gt;Node1</title>
<g id="a_edge206_Node000000_Node000001"><a xlink:title=" ">
<path fill="none" stroke="#63b8ff" d="M57.53,-77.93C86.4,-95.87 134.57,-125.8 163.6,-143.84"/>
<polygon fill="#63b8ff" stroke="#63b8ff" points="59.22,-74.86 48.88,-72.56 55.53,-80.81 59.22,-74.86"/>
</a>
</g>
</g>
<!-- Node9 -->
<g id="Node000009" class="node">
<title>Node9</title>
<g id="a_Node000009"><a xlink:href="de/df6/classpytest__userver_1_1plugins_1_1dynamic__config_1_1BaseError.html" target="_top" xlink:title="Base class for exceptions from this module.">
<polygon fill="white" stroke="#666666" points="275,-78 103,-78 103,-48 275,-48 275,-78"/>
<text text-anchor="start" x="111" y="-66" font-family="Helvetica,sans-Serif" font-size="10.00">pytest_userver.plugins.dynamic</text>
<text text-anchor="middle" x="189" y="-55" font-family="Helvetica,sans-Serif" font-size="10.00">_config.BaseError</text>
</a>
</g>
</g>
<!-- Node0&#45;&gt;Node9 -->
<g id="edge214_Node000000_Node000009" class="edge">
<title>Node0&#45;&gt;Node9</title>
<g id="a_edge214_Node000000_Node000009"><a xlink:title=" ">
<path fill="none" stroke="#63b8ff" d="M75.24,-63C83.86,-63 93.23,-63 102.77,-63"/>
<polygon fill="#63b8ff" stroke="#63b8ff" points="75.14,-59.5 65.14,-63 75.14,-66.5 75.14,-59.5"/>
</a>
</g>
</g>
<!-- Node11 -->
<g id="Node000011" class="node">
<title>Node11</title>
<g id="a_Node000011"><a xlink:href="d1/db0/classpytest__userver_1_1plugins_1_1testpoint_1_1BaseError.html" target="_top" xlink:title=" ">
<polygon fill="white" stroke="#666666" points="277,-30 101,-30 101,0 277,0 277,-30"/>
<text text-anchor="start" x="109" y="-18" font-family="Helvetica,sans-Serif" font-size="10.00">pytest_userver.plugins.testpoint.</text>
<text text-anchor="middle" x="189" y="-7" font-family="Helvetica,sans-Serif" font-size="10.00">BaseError</text>
</a>
</g>
</g>
<!-- Node0&#45;&gt;Node11 -->
<g id="edge216_Node000000_Node000011" class="edge">
<title>Node0&#45;&gt;Node11</title>
<g id="a_edge216_Node000000_Node000011"><a xlink:title=" ">
<path fill="none" stroke="#63b8ff" d="M68.57,-49.99C78.96,-46.28 90.39,-42.34 101,-39 110.71,-35.94 121.1,-32.88 131.2,-30.03"/>
<polygon fill="#63b8ff" stroke="#63b8ff" points="67.21,-46.76 58.99,-53.44 69.59,-53.34 67.21,-46.76"/>
</a>
</g>
</g>
<!-- Node2 -->
<g id="Node000002" class="node">
<title>Node2</title>
<g id="a_Node000002"><a xlink:href="da/d95/classpytest__userver_1_1client_1_1ConfigurationError.html" target="_top" xlink:title=" ">
<polygon fill="white" stroke="#666666" points="505.5,-270 318.5,-270 318.5,-240 505.5,-240 505.5,-270"/>
<text text-anchor="start" x="326.5" y="-258" font-family="Helvetica,sans-Serif" font-size="10.00">pytest_userver.client.Configuration</text>
<text text-anchor="middle" x="412" y="-247" font-family="Helvetica,sans-Serif" font-size="10.00">Error</text>
</a>
</g>
</g>
<!-- Node1&#45;&gt;Node2 -->
<g id="edge207_Node000001_Node000002" class="edge">
<title>Node1&#45;&gt;Node2</title>
<g id="a_edge207_Node000001_Node000002"><a xlink:title=" ">
<path fill="none" stroke="#63b8ff" d="M219.6,-179.63C243.76,-195.64 279.3,-217.35 313,-231 321.28,-234.35 330.15,-237.32 339.05,-239.93"/>
<polygon fill="#63b8ff" stroke="#63b8ff" points="221.49,-176.68 211.23,-174.01 217.58,-182.5 221.49,-176.68"/>
</a>
</g>
</g>
<!-- Node3 -->
<g id="Node000003" class="node">
<title>Node3</title>
<g id="a_Node000003"><a xlink:href="d8/d90/classpytest__userver_1_1client_1_1PeriodicTaskFailed.html" target="_top" xlink:title=" ">
<polygon fill="white" stroke="#666666" points="492.5,-222 331.5,-222 331.5,-192 492.5,-192 492.5,-222"/>
<text text-anchor="start" x="339.5" y="-210" font-family="Helvetica,sans-Serif" font-size="10.00">pytest_userver.client.Periodic</text>
<text text-anchor="middle" x="412" y="-199" font-family="Helvetica,sans-Serif" font-size="10.00">TaskFailed</text>
</a>
</g>
</g>
<!-- Node1&#45;&gt;Node3 -->
<g id="edge208_Node000001_Node000003" class="edge">
<title>Node1&#45;&gt;Node3</title>
<g id="a_edge208_Node000001_Node000003"><a xlink:title=" ">
<path fill="none" stroke="#63b8ff" d="M269.35,-176.23C293.08,-181.39 318.91,-187 341.93,-192"/>
<polygon fill="#63b8ff" stroke="#63b8ff" points="269.83,-172.76 259.32,-174.06 268.35,-179.6 269.83,-172.76"/>
</a>
</g>
</g>
<!-- Node4 -->
<g id="Node000004" class="node">
<title>Node4</title>
<g id="a_Node000004"><a xlink:href="de/d4e/classpytest__userver_1_1client_1_1TestsuiteActionFailed.html" target="_top" xlink:title=" ">
<polygon fill="white" stroke="#666666" points="494.5,-174 329.5,-174 329.5,-144 494.5,-144 494.5,-174"/>
<text text-anchor="start" x="337.5" y="-162" font-family="Helvetica,sans-Serif" font-size="10.00">pytest_userver.client.Testsuite</text>
<text text-anchor="middle" x="412" y="-151" font-family="Helvetica,sans-Serif" font-size="10.00">ActionFailed</text>
</a>
</g>
</g>
<!-- Node1&#45;&gt;Node4 -->
<g id="edge209_Node000001_Node000004" class="edge">
<title>Node1&#45;&gt;Node4</title>
<g id="a_edge209_Node000001_Node000004"><a xlink:title=" ">
<path fill="none" stroke="#63b8ff" d="M272.3,-159C290.98,-159 310.82,-159 329.46,-159"/>
<polygon fill="#63b8ff" stroke="#63b8ff" points="272.06,-155.5 262.06,-159 272.06,-162.5 272.06,-155.5"/>
</a>
</g>
</g>
<!-- Node5 -->
<g id="Node000005" class="node">
<title>Node5</title>
<g id="a_Node000005"><a xlink:href="d3/dc5/classpytest__userver_1_1client_1_1TestsuiteTaskError.html" target="_top" xlink:title=" ">
<polygon fill="white" stroke="#666666" points="494.5,-126 329.5,-126 329.5,-96 494.5,-96 494.5,-126"/>
<text text-anchor="start" x="337.5" y="-114" font-family="Helvetica,sans-Serif" font-size="10.00">pytest_userver.client.Testsuite</text>
<text text-anchor="middle" x="412" y="-103" font-family="Helvetica,sans-Serif" font-size="10.00">TaskError</text>
</a>
</g>
</g>
<!-- Node1&#45;&gt;Node5 -->
<g id="edge210_Node000001_Node000005" class="edge">
<title>Node1&#45;&gt;Node5</title>
<g id="a_edge210_Node000001_Node000005"><a xlink:title=" ">
<path fill="none" stroke="#63b8ff" d="M269.35,-141.77C293.08,-136.61 318.91,-131 341.93,-126"/>
<polygon fill="#63b8ff" stroke="#63b8ff" points="268.35,-138.4 259.32,-143.94 269.83,-145.24 268.35,-138.4"/>
</a>
</g>
</g>
<!-- Node6 -->
<g id="Node000006" class="node">
<title>Node6</title>
<g id="a_Node000006"><a xlink:href="d2/d54/classpytest__userver_1_1client_1_1TestsuiteTaskConflict.html" target="_top" xlink:title=" ">
<polygon fill="white" stroke="#666666" points="712,-174 547,-174 547,-144 712,-144 712,-174"/>
<text text-anchor="start" x="555" y="-162" font-family="Helvetica,sans-Serif" font-size="10.00">pytest_userver.client.Testsuite</text>
<text text-anchor="middle" x="629.5" y="-151" font-family="Helvetica,sans-Serif" font-size="10.00">TaskConflict</text>
</a>
</g>
</g>
<!-- Node5&#45;&gt;Node6 -->
<g id="edge211_Node000005_Node000006" class="edge">
<title>Node5&#45;&gt;Node6</title>
<g id="a_edge211_Node000005_Node000006"><a xlink:title=" ">
<path fill="none" stroke="#63b8ff" d="M490.37,-128.23C513.52,-133.39 538.7,-139 561.15,-144"/>
<polygon fill="#63b8ff" stroke="#63b8ff" points="491.12,-124.81 480.59,-126.06 489.59,-131.65 491.12,-124.81"/>
</a>
</g>
</g>
<!-- Node7 -->
<g id="Node000007" class="node">
<title>Node7</title>
<g id="a_Node000007"><a xlink:href="d3/d5d/classpytest__userver_1_1client_1_1TestsuiteTaskFailed.html" target="_top" xlink:title=" ">
<polygon fill="white" stroke="#666666" points="712,-126 547,-126 547,-96 712,-96 712,-126"/>
<text text-anchor="start" x="555" y="-114" font-family="Helvetica,sans-Serif" font-size="10.00">pytest_userver.client.Testsuite</text>
<text text-anchor="middle" x="629.5" y="-103" font-family="Helvetica,sans-Serif" font-size="10.00">TaskFailed</text>
</a>
</g>
</g>
<!-- Node5&#45;&gt;Node7 -->
<g id="edge212_Node000005_Node000007" class="edge">
<title>Node5&#45;&gt;Node7</title>
<g id="a_edge212_Node000005_Node000007"><a xlink:title=" ">
<path fill="none" stroke="#63b8ff" d="M504.85,-111C518.78,-111 533.08,-111 546.78,-111"/>
<polygon fill="#63b8ff" stroke="#63b8ff" points="504.78,-107.5 494.78,-111 504.78,-114.5 504.78,-107.5"/>
</a>
</g>
</g>
<!-- Node8 -->
<g id="Node000008" class="node">
<title>Node8</title>
<g id="a_Node000008"><a xlink:href="d7/d2f/classpytest__userver_1_1client_1_1TestsuiteTaskNotFound.html" target="_top" xlink:title=" ">
<polygon fill="white" stroke="#666666" points="712,-78 547,-78 547,-48 712,-48 712,-78"/>
<text text-anchor="start" x="555" y="-66" font-family="Helvetica,sans-Serif" font-size="10.00">pytest_userver.client.Testsuite</text>
<text text-anchor="middle" x="629.5" y="-55" font-family="Helvetica,sans-Serif" font-size="10.00">TaskNotFound</text>
</a>
</g>
</g>
<!-- Node5&#45;&gt;Node8 -->
<g id="edge213_Node000005_Node000008" class="edge">
<title>Node5&#45;&gt;Node8</title>
<g id="a_edge213_Node000005_Node000008"><a xlink:title=" ">
<path fill="none" stroke="#63b8ff" d="M490.37,-93.77C513.52,-88.61 538.7,-83 561.15,-78"/>
<polygon fill="#63b8ff" stroke="#63b8ff" points="489.59,-90.35 480.59,-95.94 491.12,-97.19 489.59,-90.35"/>
</a>
</g>
</g>
<!-- Node10 -->
<g id="Node000010" class="node">
<title>Node10</title>
<g id="a_Node000010"><a xlink:href="d9/d5a/classpytest__userver_1_1plugins_1_1dynamic__config_1_1DynamicConfigNotFoundError.html" target="_top" xlink:title="Config parameter was not found and no default was provided.">
<polygon fill="white" stroke="#666666" points="511,-78 313,-78 313,-48 511,-48 511,-78"/>
<text text-anchor="start" x="321" y="-66" font-family="Helvetica,sans-Serif" font-size="10.00">pytest_userver.plugins.dynamic</text>
<text text-anchor="middle" x="412" y="-55" font-family="Helvetica,sans-Serif" font-size="10.00">_config.DynamicConfigNotFoundError</text>
</a>
</g>
</g>
<!-- Node9&#45;&gt;Node10 -->
<g id="edge215_Node000009_Node000010" class="edge">
<title>Node9&#45;&gt;Node10</title>
<g id="a_edge215_Node000009_Node000010"><a xlink:title=" ">
<path fill="none" stroke="#63b8ff" d="M285.29,-63C294.35,-63 303.55,-63 312.65,-63"/>
<polygon fill="#63b8ff" stroke="#63b8ff" points="285.13,-59.5 275.13,-63 285.13,-66.5 285.13,-59.5"/>
</a>
</g>
</g>
<!-- Node12 -->
<g id="Node000012" class="node">
<title>Node12</title>
<g id="a_Node000012"><a xlink:href="d5/d1e/classpytest__userver_1_1plugins_1_1testpoint_1_1UnregisteredTestpointError.html" target="_top" xlink:title=" ">
<polygon fill="white" stroke="#666666" points="500,-30 324,-30 324,0 500,0 500,-30"/>
<text text-anchor="start" x="332" y="-18" font-family="Helvetica,sans-Serif" font-size="10.00">pytest_userver.plugins.testpoint.</text>
<text text-anchor="middle" x="412" y="-7" font-family="Helvetica,sans-Serif" font-size="10.00">UnregisteredTestpointError</text>
</a>
</g>
</g>
<!-- Node11&#45;&gt;Node12 -->
<g id="edge217_Node000011_Node000012" class="edge">
<title>Node11&#45;&gt;Node12</title>
<g id="a_edge217_Node000011_Node000012"><a xlink:title=" ">
<path fill="none" stroke="#63b8ff" d="M287.17,-15C299.33,-15 311.7,-15 323.69,-15"/>
<polygon fill="#63b8ff" stroke="#63b8ff" points="287.03,-11.5 277.03,-15 287.03,-18.5 287.03,-11.5"/>
</a>
</g>
</g>
</g>
</svg>
