<?xml version="1.0" encoding="UTF-8" standalone="no"?>
<!DOCTYPE svg PUBLIC "-//W3C//DTD SVG 1.1//EN"
 "http://www.w3.org/Graphics/SVG/1.1/DTD/svg11.dtd">
<!-- Generated by graphviz version 2.43.0 (0)
 -->
<!-- Title: userver/utils/not_null.hpp Pages: 1 -->
<svg width="1161pt" height="302pt"
 viewBox="0.00 0.00 1161.00 302.00" xmlns="http://www.w3.org/2000/svg" xmlns:xlink="http://www.w3.org/1999/xlink">
<g id="graph0" class="graph" transform="scale(1 1) rotate(0) translate(4 298)">
<title>userver/utils/not_null.hpp</title>
<!-- Node1 -->
<g id="Node000001" class="node">
<title>Node1</title>
<g id="a_Node000001"><a xlink:title="Restricts a pointer or smart pointer to only hold non&#45;null values.">
<polygon fill="#999999" stroke="#666666" points="625.5,-294 485.5,-294 485.5,-275 625.5,-275 625.5,-294"/>
<text text-anchor="middle" x="555.5" y="-282" font-family="Helvetica,sans-Serif" font-size="10.00">userver/utils/not_null.hpp</text>
</a>
</g>
</g>
<!-- Node2 -->
<g id="Node000002" class="node">
<title>Node2</title>
<g id="a_Node000002"><a xlink:href="../../d3/db8/core_2include_2userver_2clients_2http_2client_8hpp.html" target="_top" xlink:title="HTTP client that returns a HTTP request builder from CreateRequest().">
<polygon fill="white" stroke="#666666" points="111,-101.5 0,-101.5 0,-71.5 111,-71.5 111,-101.5"/>
<text text-anchor="start" x="8" y="-89.5" font-family="Helvetica,sans-Serif" font-size="10.00">userver/clients/http</text>
<text text-anchor="middle" x="55.5" y="-78.5" font-family="Helvetica,sans-Serif" font-size="10.00">/client.hpp</text>
</a>
</g>
</g>
<!-- Node1&#45;&gt;Node2 -->
<g id="edge1_Node000001_Node000002" class="edge">
<title>Node1&#45;&gt;Node2</title>
<g id="a_edge1_Node000001_Node000002"><a xlink:title=" ">
<path fill="none" stroke="#63b8ff" d="M474.91,-279.85C355.3,-273.77 141.76,-260.1 113.5,-239 68.59,-205.47 58.46,-132.52 56.17,-101.7"/>
<polygon fill="#63b8ff" stroke="#63b8ff" points="474.96,-283.36 485.12,-280.36 475.31,-276.37 474.96,-283.36"/>
</a>
</g>
</g>
<!-- Node4 -->
<g id="Node000004" class="node">
<title>Node4</title>
<g id="a_Node000004"><a xlink:href="../../d1/dab/plugin_8hpp.html" target="_top" xlink:title="Base class for HTTP Client plugins.">
<polygon fill="white" stroke="#666666" points="234,-239 123,-239 123,-209 234,-209 234,-239"/>
<text text-anchor="start" x="131" y="-227" font-family="Helvetica,sans-Serif" font-size="10.00">userver/clients/http</text>
<text text-anchor="middle" x="178.5" y="-216" font-family="Helvetica,sans-Serif" font-size="10.00">/plugin.hpp</text>
</a>
</g>
</g>
<!-- Node1&#45;&gt;Node4 -->
<g id="edge3_Node000001_Node000004" class="edge">
<title>Node1&#45;&gt;Node4</title>
<g id="a_edge3_Node000001_Node000004"><a xlink:title=" ">
<path fill="none" stroke="#63b8ff" d="M476.16,-273.64C413.18,-265.45 322.97,-252.92 244.5,-239 241.16,-238.41 237.72,-237.77 234.26,-237.1"/>
<polygon fill="#63b8ff" stroke="#63b8ff" points="476.06,-277.15 486.42,-274.96 476.96,-270.21 476.06,-277.15"/>
</a>
</g>
</g>
<!-- Node9 -->
<g id="Node000009" class="node">
<title>Node9</title>
<g id="a_Node000009"><a xlink:href="../../d6/df3/core_2include_2userver_2fs_2temp__file_8hpp.html" target="_top" xlink:title="A unique temporary file. The file is deleted when the TempFile object is destroyed.">
<polygon fill="white" stroke="#666666" points="389,-233.5 254,-233.5 254,-214.5 389,-214.5 389,-233.5"/>
<text text-anchor="middle" x="321.5" y="-221.5" font-family="Helvetica,sans-Serif" font-size="10.00">userver/fs/temp_file.hpp</text>
</a>
</g>
</g>
<!-- Node1&#45;&gt;Node9 -->
<g id="edge10_Node000001_Node000009" class="edge">
<title>Node1&#45;&gt;Node9</title>
<g id="a_edge10_Node000001_Node000009"><a xlink:title=" ">
<path fill="none" stroke="#63b8ff" d="M511.65,-272.54C466.42,-261.23 396.83,-243.83 355.57,-233.52"/>
<polygon fill="#63b8ff" stroke="#63b8ff" points="510.92,-275.96 521.47,-274.99 512.62,-269.17 510.92,-275.96"/>
</a>
</g>
</g>
<!-- Node10 -->
<g id="Node000010" class="node">
<title>Node10</title>
<g id="a_Node000010"><a xlink:href="../../d3/d1a/server_2congestion__control_2limiter_8hpp_source.html" target="_top" xlink:title=" ">
<polygon fill="white" stroke="#666666" points="550,-239 407,-239 407,-209 550,-209 550,-239"/>
<text text-anchor="start" x="415" y="-227" font-family="Helvetica,sans-Serif" font-size="10.00">userver/server/congestion</text>
<text text-anchor="middle" x="478.5" y="-216" font-family="Helvetica,sans-Serif" font-size="10.00">_control/limiter.hpp</text>
</a>
</g>
</g>
<!-- Node1&#45;&gt;Node10 -->
<g id="edge11_Node000001_Node000010" class="edge">
<title>Node1&#45;&gt;Node10</title>
<g id="a_edge11_Node000001_Node000010"><a xlink:title=" ">
<path fill="none" stroke="#63b8ff" d="M536.11,-268.77C524.15,-259.68 508.89,-248.09 497.08,-239.11"/>
<polygon fill="#63b8ff" stroke="#63b8ff" points="534.06,-271.61 544.14,-274.87 538.29,-266.03 534.06,-271.61"/>
</a>
</g>
</g>
<!-- Node14 -->
<g id="Node000014" class="node">
<title>Node14</title>
<g id="a_Node000014"><a xlink:href="../../da/d8f/cache__control_8hpp.html" target="_top" xlink:title="Periodically updated caches control interface for testsuite.">
<polygon fill="white" stroke="#666666" points="699,-239 568,-239 568,-209 699,-209 699,-239"/>
<text text-anchor="start" x="576" y="-227" font-family="Helvetica,sans-Serif" font-size="10.00">userver/testsuite/cache</text>
<text text-anchor="middle" x="633.5" y="-216" font-family="Helvetica,sans-Serif" font-size="10.00">_control.hpp</text>
</a>
</g>
</g>
<!-- Node1&#45;&gt;Node14 -->
<g id="edge15_Node000001_Node000014" class="edge">
<title>Node1&#45;&gt;Node14</title>
<g id="a_edge15_Node000001_Node000014"><a xlink:title=" ">
<path fill="none" stroke="#63b8ff" d="M575.14,-268.77C587.26,-259.68 602.72,-248.09 614.68,-239.11"/>
<polygon fill="#63b8ff" stroke="#63b8ff" points="572.91,-266.07 567.01,-274.87 577.11,-271.67 572.91,-266.07"/>
</a>
</g>
</g>
<!-- Node16 -->
<g id="Node000016" class="node">
<title>Node16</title>
<g id="a_Node000016"><a xlink:href="../../d2/d2b/dump__control_8hpp.html" target="_top" xlink:title="Dumper control interface for testsuite.">
<polygon fill="white" stroke="#666666" points="847.5,-239 717.5,-239 717.5,-209 847.5,-209 847.5,-239"/>
<text text-anchor="start" x="725.5" y="-227" font-family="Helvetica,sans-Serif" font-size="10.00">userver/testsuite/dump</text>
<text text-anchor="middle" x="782.5" y="-216" font-family="Helvetica,sans-Serif" font-size="10.00">_control.hpp</text>
</a>
</g>
</g>
<!-- Node1&#45;&gt;Node16 -->
<g id="edge17_Node000001_Node000016" class="edge">
<title>Node1&#45;&gt;Node16</title>
<g id="a_edge17_Node000001_Node000016"><a xlink:title=" ">
<path fill="none" stroke="#63b8ff" d="M598.41,-272.44C635.12,-262.98 688.19,-249.3 727.93,-239.06"/>
<polygon fill="#63b8ff" stroke="#63b8ff" points="597.32,-269.11 588.51,-274.99 599.06,-275.89 597.32,-269.11"/>
</a>
</g>
</g>
<!-- Node17 -->
<g id="Node000017" class="node">
<title>Node17</title>
<g id="a_Node000017"><a xlink:href="../../da/dbd/userver__experiments_8hpp_source.html" target="_top" xlink:title=" ">
<polygon fill="white" stroke="#666666" points="1009.5,-239 865.5,-239 865.5,-209 1009.5,-209 1009.5,-239"/>
<text text-anchor="start" x="873.5" y="-227" font-family="Helvetica,sans-Serif" font-size="10.00">userver/utils/impl</text>
<text text-anchor="middle" x="937.5" y="-216" font-family="Helvetica,sans-Serif" font-size="10.00">/userver_experiments.hpp</text>
</a>
</g>
</g>
<!-- Node1&#45;&gt;Node17 -->
<g id="edge19_Node000001_Node000017" class="edge">
<title>Node1&#45;&gt;Node17</title>
<g id="a_edge19_Node000001_Node000017"><a xlink:title=" ">
<path fill="none" stroke="#63b8ff" d="M626.02,-273.57C687.06,-264.86 777.69,-251.63 856.5,-239 859.32,-238.55 862.19,-238.08 865.09,-237.61"/>
<polygon fill="#63b8ff" stroke="#63b8ff" points="625.51,-270.11 616.1,-274.98 626.5,-277.04 625.51,-270.11"/>
</a>
</g>
</g>
<!-- Node18 -->
<g id="Node000018" class="node">
<title>Node18</title>
<g id="a_Node000018"><a xlink:href="../../d2/da2/testing_8hpp_source.html" target="_top" xlink:title=" ">
<polygon fill="white" stroke="#666666" points="1153,-239 1028,-239 1028,-209 1153,-209 1153,-239"/>
<text text-anchor="start" x="1036" y="-227" font-family="Helvetica,sans-Serif" font-size="10.00">userver/utils/statistics</text>
<text text-anchor="middle" x="1090.5" y="-216" font-family="Helvetica,sans-Serif" font-size="10.00">/testing.hpp</text>
</a>
</g>
</g>
<!-- Node1&#45;&gt;Node18 -->
<g id="edge20_Node000001_Node000018" class="edge">
<title>Node1&#45;&gt;Node18</title>
<g id="a_edge20_Node000001_Node000018"><a xlink:title=" ">
<path fill="none" stroke="#63b8ff" d="M635.69,-278.15C728.24,-271.42 884.85,-258.37 1018.5,-239 1021.52,-238.56 1024.61,-238.08 1027.73,-237.57"/>
<polygon fill="#63b8ff" stroke="#63b8ff" points="635.28,-274.67 625.56,-278.88 635.79,-281.65 635.28,-274.67"/>
</a>
</g>
</g>
<!-- Node3 -->
<g id="Node000003" class="node">
<title>Node3</title>
<g id="a_Node000003"><a xlink:href="../../d7/d98/core_2include_2userver_2clients_2http_2component_8hpp.html" target="_top" xlink:title="Component that manages clients::http::Client.">
<polygon fill="white" stroke="#666666" points="111,-30 0,-30 0,0 111,0 111,-30"/>
<text text-anchor="start" x="8" y="-18" font-family="Helvetica,sans-Serif" font-size="10.00">userver/clients/http</text>
<text text-anchor="middle" x="55.5" y="-7" font-family="Helvetica,sans-Serif" font-size="10.00">/component.hpp</text>
</a>
</g>
</g>
<!-- Node2&#45;&gt;Node3 -->
<g id="edge2_Node000002_Node000003" class="edge">
<title>Node2&#45;&gt;Node3</title>
<g id="a_edge2_Node000002_Node000003"><a xlink:title=" ">
<path fill="none" stroke="#63b8ff" d="M55.5,-61.25C55.5,-50.81 55.5,-38.99 55.5,-30.04"/>
<polygon fill="#63b8ff" stroke="#63b8ff" points="52,-61.44 55.5,-71.44 59,-61.44 52,-61.44"/>
</a>
</g>
</g>
<!-- Node4&#45;&gt;Node2 -->
<g id="edge4_Node000004_Node000002" class="edge">
<title>Node4&#45;&gt;Node2</title>
<g id="a_edge4_Node000004_Node000002"><a xlink:title=" ">
<path fill="none" stroke="#63b8ff" d="M147.91,-203.1C136.11,-194.62 122.97,-184.12 112.5,-173 91.34,-150.53 72.75,-119.38 62.92,-101.55"/>
<polygon fill="#63b8ff" stroke="#63b8ff" points="146,-206.04 156.2,-208.9 150.01,-200.3 146,-206.04"/>
</a>
</g>
</g>
<!-- Node5 -->
<g id="Node000005" class="node">
<title>Node5</title>
<g id="a_Node000005"><a xlink:href="../../d5/d70/plugin__component_8hpp_source.html" target="_top" xlink:title=" ">
<polygon fill="white" stroke="#666666" points="382,-173 251,-173 251,-143 382,-143 382,-173"/>
<text text-anchor="start" x="259" y="-161" font-family="Helvetica,sans-Serif" font-size="10.00">userver/clients/http</text>
<text text-anchor="middle" x="316.5" y="-150" font-family="Helvetica,sans-Serif" font-size="10.00">/plugin_component.hpp</text>
</a>
</g>
</g>
<!-- Node4&#45;&gt;Node5 -->
<g id="edge5_Node000004_Node000005" class="edge">
<title>Node4&#45;&gt;Node5</title>
<g id="a_edge5_Node000004_Node000005"><a xlink:title=" ">
<path fill="none" stroke="#63b8ff" d="M218.07,-204.65C239.77,-194.58 266.26,-182.3 286.29,-173.01"/>
<polygon fill="#63b8ff" stroke="#63b8ff" points="216.38,-201.57 208.78,-208.95 219.33,-207.92 216.38,-201.57"/>
</a>
</g>
</g>
<!-- Node7 -->
<g id="Node000007" class="node">
<title>Node7</title>
<g id="a_Node000007"><a xlink:href="../../d1/d57/core_2include_2userver_2clients_2http_2request_8hpp.html" target="_top" xlink:title="Class for creating and performing new http requests.">
<polygon fill="white" stroke="#666666" points="233,-173 122,-173 122,-143 233,-143 233,-173"/>
<text text-anchor="start" x="130" y="-161" font-family="Helvetica,sans-Serif" font-size="10.00">userver/clients/http</text>
<text text-anchor="middle" x="177.5" y="-150" font-family="Helvetica,sans-Serif" font-size="10.00">/request.hpp</text>
</a>
</g>
</g>
<!-- Node4&#45;&gt;Node7 -->
<g id="edge7_Node000004_Node000007" class="edge">
<title>Node4&#45;&gt;Node7</title>
<g id="a_edge7_Node000004_Node000007"><a xlink:title=" ">
<path fill="none" stroke="#63b8ff" d="M178.12,-198.54C177.98,-189.96 177.84,-180.61 177.72,-173.16"/>
<polygon fill="#63b8ff" stroke="#63b8ff" points="174.62,-198.85 178.28,-208.8 181.62,-198.74 174.62,-198.85"/>
</a>
</g>
</g>
<!-- Node6 -->
<g id="Node000006" class="node">
<title>Node6</title>
<g id="a_Node000006"><a xlink:href="../../d5/d3d/core_2include_2userver_2clients_2http_2plugins_2yandex__tracing_2component_8hpp_source.html" target="_top" xlink:title=" ">
<polygon fill="white" stroke="#666666" points="387,-107 254,-107 254,-66 387,-66 387,-107"/>
<text text-anchor="start" x="262" y="-95" font-family="Helvetica,sans-Serif" font-size="10.00">userver/clients/http</text>
<text text-anchor="start" x="262" y="-84" font-family="Helvetica,sans-Serif" font-size="10.00">/plugins/yandex_tracing</text>
<text text-anchor="middle" x="320.5" y="-73" font-family="Helvetica,sans-Serif" font-size="10.00">/component.hpp</text>
</a>
</g>
</g>
<!-- Node5&#45;&gt;Node6 -->
<g id="edge6_Node000005_Node000006" class="edge">
<title>Node5&#45;&gt;Node6</title>
<g id="a_edge6_Node000005_Node000006"><a xlink:title=" ">
<path fill="none" stroke="#63b8ff" d="M317.89,-132.91C318.37,-124.47 318.91,-115.1 319.37,-107.07"/>
<polygon fill="#63b8ff" stroke="#63b8ff" points="314.39,-132.75 317.31,-142.94 321.38,-133.15 314.39,-132.75"/>
</a>
</g>
</g>
<!-- Node7&#45;&gt;Node2 -->
<g id="edge8_Node000007_Node000002" class="edge">
<title>Node7&#45;&gt;Node2</title>
<g id="a_edge8_Node000007_Node000002"><a xlink:title=" ">
<path fill="none" stroke="#63b8ff" d="M143.94,-137.88C123.75,-126.38 98.5,-111.99 80.15,-101.54"/>
<polygon fill="#63b8ff" stroke="#63b8ff" points="142.39,-141.03 152.81,-142.94 145.85,-134.94 142.39,-141.03"/>
</a>
</g>
</g>
<!-- Node8 -->
<g id="Node000008" class="node">
<title>Node8</title>
<g id="a_Node000008"><a xlink:href="../../d2/d6c/http__server__mock_8hpp_source.html" target="_top" xlink:title=" ">
<polygon fill="white" stroke="#666666" points="235.5,-101.5 129.5,-101.5 129.5,-71.5 235.5,-71.5 235.5,-101.5"/>
<text text-anchor="start" x="137.5" y="-89.5" font-family="Helvetica,sans-Serif" font-size="10.00">userver/utest/http</text>
<text text-anchor="middle" x="182.5" y="-78.5" font-family="Helvetica,sans-Serif" font-size="10.00">_server_mock.hpp</text>
</a>
</g>
</g>
<!-- Node7&#45;&gt;Node8 -->
<g id="edge9_Node000007_Node000008" class="edge">
<title>Node7&#45;&gt;Node8</title>
<g id="a_edge9_Node000007_Node000008"><a xlink:title=" ">
<path fill="none" stroke="#63b8ff" d="M179.24,-132.75C180,-122.31 180.85,-110.49 181.49,-101.54"/>
<polygon fill="#63b8ff" stroke="#63b8ff" points="175.74,-132.71 178.51,-142.94 182.72,-133.21 175.74,-132.71"/>
</a>
</g>
</g>
<!-- Node11 -->
<g id="Node000011" class="node">
<title>Node11</title>
<g id="a_Node000011"><a xlink:href="../../dd/d55/core_2include_2userver_2congestion__control_2component_8hpp.html" target="_top" xlink:title="Component to limit too active requests, also known as CC.">
<polygon fill="white" stroke="#666666" points="534.5,-173 400.5,-173 400.5,-143 534.5,-143 534.5,-173"/>
<text text-anchor="start" x="408.5" y="-161" font-family="Helvetica,sans-Serif" font-size="10.00">userver/congestion</text>
<text text-anchor="middle" x="467.5" y="-150" font-family="Helvetica,sans-Serif" font-size="10.00">_control/component.hpp</text>
</a>
</g>
</g>
<!-- Node10&#45;&gt;Node11 -->
<g id="edge12_Node000010_Node000011" class="edge">
<title>Node10&#45;&gt;Node11</title>
<g id="a_edge12_Node000010_Node000011"><a xlink:title=" ">
<path fill="none" stroke="#63b8ff" d="M474.34,-198.83C472.86,-190.17 471.23,-180.7 469.93,-173.16"/>
<polygon fill="#63b8ff" stroke="#63b8ff" points="470.92,-199.53 476.06,-208.8 477.81,-198.35 470.92,-199.53"/>
</a>
</g>
</g>
<!-- Node12 -->
<g id="Node000012" class="node">
<title>Node12</title>
<g id="a_Node000012"><a xlink:href="../../d8/d82/core_2include_2userver_2server_2server_8hpp_source.html" target="_top" xlink:title=" ">
<polygon fill="white" stroke="#666666" points="694,-167.5 553,-167.5 553,-148.5 694,-148.5 694,-167.5"/>
<text text-anchor="middle" x="623.5" y="-155.5" font-family="Helvetica,sans-Serif" font-size="10.00">userver/server/server.hpp</text>
</a>
</g>
</g>
<!-- Node10&#45;&gt;Node12 -->
<g id="edge13_Node000010_Node000012" class="edge">
<title>Node10&#45;&gt;Node12</title>
<g id="a_edge13_Node000010_Node000012"><a xlink:title=" ">
<path fill="none" stroke="#63b8ff" d="M519.78,-204.78C547.5,-192.54 582.76,-176.98 604.2,-167.52"/>
<polygon fill="#63b8ff" stroke="#63b8ff" points="518.06,-201.71 510.32,-208.95 520.88,-208.12 518.06,-201.71"/>
</a>
</g>
</g>
<!-- Node13 -->
<g id="Node000013" class="node">
<title>Node13</title>
<g id="a_Node000013"><a xlink:href="../../d3/ddd/core_2include_2userver_2server_2component_8hpp.html" target="_top" xlink:title="Component that listens for incoming requests, manages incoming connections and passes the requests to...">
<polygon fill="white" stroke="#666666" points="706.5,-96 540.5,-96 540.5,-77 706.5,-77 706.5,-96"/>
<text text-anchor="middle" x="623.5" y="-84" font-family="Helvetica,sans-Serif" font-size="10.00">userver/server/component.hpp</text>
</a>
</g>
</g>
<!-- Node12&#45;&gt;Node13 -->
<g id="edge14_Node000012_Node000013" class="edge">
<title>Node12&#45;&gt;Node13</title>
<g id="a_edge14_Node000012_Node000013"><a xlink:title=" ">
<path fill="none" stroke="#63b8ff" d="M623.5,-138.21C623.5,-124.5 623.5,-106.55 623.5,-96.09"/>
<polygon fill="#63b8ff" stroke="#63b8ff" points="620,-138.48 623.5,-148.48 627,-138.48 620,-138.48"/>
</a>
</g>
</g>
<!-- Node15 -->
<g id="Node000015" class="node">
<title>Node15</title>
<g id="a_Node000015"><a xlink:href="../../d3/d37/testsuite__support_8hpp.html" target="_top" xlink:title="Testsuite support component.">
<polygon fill="white" stroke="#666666" points="857,-173 712,-173 712,-143 857,-143 857,-173"/>
<text text-anchor="start" x="720" y="-161" font-family="Helvetica,sans-Serif" font-size="10.00">userver/testsuite/testsuite</text>
<text text-anchor="middle" x="784.5" y="-150" font-family="Helvetica,sans-Serif" font-size="10.00">_support.hpp</text>
</a>
</g>
</g>
<!-- Node14&#45;&gt;Node15 -->
<g id="edge16_Node000014_Node000015" class="edge">
<title>Node14&#45;&gt;Node15</title>
<g id="a_edge16_Node000014_Node000015"><a xlink:title=" ">
<path fill="none" stroke="#63b8ff" d="M676.16,-204.92C700.03,-194.8 729.33,-182.38 751.44,-173.01"/>
<polygon fill="#63b8ff" stroke="#63b8ff" points="674.48,-201.83 666.64,-208.95 677.21,-208.28 674.48,-201.83"/>
</a>
</g>
</g>
<!-- Node16&#45;&gt;Node15 -->
<g id="edge18_Node000016_Node000015" class="edge">
<title>Node16&#45;&gt;Node15</title>
<g id="a_edge18_Node000016_Node000015"><a xlink:title=" ">
<path fill="none" stroke="#63b8ff" d="M783.26,-198.54C783.53,-189.96 783.82,-180.61 784.06,-173.16"/>
<polygon fill="#63b8ff" stroke="#63b8ff" points="779.76,-198.69 782.94,-208.8 786.75,-198.91 779.76,-198.69"/>
</a>
</g>
</g>
</g>
</svg>
