<?xml version="1.0" encoding="UTF-8" standalone="no"?>
<!DOCTYPE svg PUBLIC "-//W3C//DTD SVG 1.1//EN"
 "http://www.w3.org/Graphics/SVG/1.1/DTD/svg11.dtd">
<!-- Generated by graphviz version 2.43.0 (0)
 -->
<!-- Title: userver/formats/yaml/serialize.hpp Pages: 1 -->
<svg width="2085pt" height="423pt"
 viewBox="0.00 0.00 2084.96 423.00" xmlns="http://www.w3.org/2000/svg" xmlns:xlink="http://www.w3.org/1999/xlink">
<g id="graph0" class="graph" transform="scale(1 1) rotate(0) translate(4 419)">
<title>userver/formats/yaml/serialize.hpp</title>
<!-- Node1 -->
<g id="Node000001" class="node">
<title>Node1</title>
<g id="a_Node000001"><a xlink:title="Parsers and serializers to/from string and stream.">
<polygon fill="#999999" stroke="#666666" points="1384.5,-415 1262.5,-415 1262.5,-385 1384.5,-385 1384.5,-415"/>
<text text-anchor="start" x="1270.5" y="-403" font-family="Helvetica,sans-Serif" font-size="10.00">userver/formats/yaml</text>
<text text-anchor="middle" x="1323.5" y="-392" font-family="Helvetica,sans-Serif" font-size="10.00">/serialize.hpp</text>
</a>
</g>
</g>
<!-- Node2 -->
<g id="Node000002" class="node">
<title>Node2</title>
<g id="a_Node000002"><a xlink:title=" ">
<polygon fill="#e0e0e0" stroke="#999999" points="1131.5,-145.5 1083.5,-145.5 1083.5,-126.5 1131.5,-126.5 1131.5,-145.5"/>
<text text-anchor="middle" x="1107.5" y="-133.5" font-family="Helvetica,sans-Serif" font-size="10.00">iosfwd</text>
</a>
</g>
</g>
<!-- Node1&#45;&gt;Node2 -->
<g id="edge1_Node000001_Node000002" class="edge">
<title>Node1&#45;&gt;Node2</title>
<g id="a_edge1_Node000001_Node000002"><a xlink:title=" ">
<path fill="none" stroke="#63b8ff" d="M1309.3,-384.73C1289.15,-363.88 1252.12,-323.17 1228.5,-283 1205.24,-243.44 1220.16,-222.02 1190.5,-187 1176.65,-170.65 1156.03,-158.19 1138.8,-149.79"/>
<polygon fill="#63b8ff" stroke="#63b8ff" points="1140.19,-146.58 1129.65,-145.55 1137.25,-152.93 1140.19,-146.58"/>
</a>
</g>
</g>
<!-- Node3 -->
<g id="Node000003" class="node">
<title>Node3</title>
<g id="a_Node000003"><a xlink:href="../../d6/d64/universal_2include_2userver_2formats_2yaml_2value_8hpp.html" target="_top" xlink:title="Non&#45;mutable YAML value representation.">
<polygon fill="white" stroke="#666666" points="1499.5,-349 1377.5,-349 1377.5,-319 1499.5,-319 1499.5,-349"/>
<text text-anchor="start" x="1385.5" y="-337" font-family="Helvetica,sans-Serif" font-size="10.00">userver/formats/yaml</text>
<text text-anchor="middle" x="1438.5" y="-326" font-family="Helvetica,sans-Serif" font-size="10.00">/value.hpp</text>
</a>
</g>
</g>
<!-- Node1&#45;&gt;Node3 -->
<g id="edge2_Node000001_Node000003" class="edge">
<title>Node1&#45;&gt;Node3</title>
<g id="a_edge2_Node000001_Node000003"><a xlink:title=" ">
<path fill="none" stroke="#63b8ff" d="M1348.74,-384.95C1365.07,-375.87 1386.52,-363.93 1404.37,-354"/>
<polygon fill="#63b8ff" stroke="#63b8ff" points="1406.29,-356.93 1413.32,-349.01 1402.88,-350.82 1406.29,-356.93"/>
</a>
</g>
</g>
<!-- Node4 -->
<g id="Node000004" class="node">
<title>Node4</title>
<g id="a_Node000004"><a xlink:title=" ">
<polygon fill="#e0e0e0" stroke="#999999" points="1278,-19 1209,-19 1209,0 1278,0 1278,-19"/>
<text text-anchor="middle" x="1243.5" y="-7" font-family="Helvetica,sans-Serif" font-size="10.00">type_traits</text>
</a>
</g>
</g>
<!-- Node3&#45;&gt;Node4 -->
<g id="edge3_Node000003_Node000004" class="edge">
<title>Node3&#45;&gt;Node4</title>
<g id="a_edge3_Node000003_Node000004"><a xlink:title=" ">
<path fill="none" stroke="#63b8ff" d="M1499.54,-332.65C1652.58,-330.11 2040.5,-312.86 2040.5,-203 2040.5,-203 2040.5,-203 2040.5,-135 2040.5,-104.52 2219.68,-132.68 1781.5,-55 1600.45,-22.91 1380.93,-13.87 1288.23,-11.4"/>
<polygon fill="#63b8ff" stroke="#63b8ff" points="1288.17,-7.89 1278.09,-11.14 1288,-14.89 1288.17,-7.89"/>
</a>
</g>
</g>
<!-- Node5 -->
<g id="Node000005" class="node">
<title>Node5</title>
<g id="a_Node000005"><a xlink:href="../../dd/d14/items_8hpp.html" target="_top" xlink:title="Wrapper for handy python&#45;like iteration over a map.">
<polygon fill="white" stroke="#666666" points="1529.5,-217 1389.5,-217 1389.5,-187 1529.5,-187 1529.5,-217"/>
<text text-anchor="start" x="1397.5" y="-205" font-family="Helvetica,sans-Serif" font-size="10.00">userver/formats/common</text>
<text text-anchor="middle" x="1459.5" y="-194" font-family="Helvetica,sans-Serif" font-size="10.00">/items.hpp</text>
</a>
</g>
</g>
<!-- Node3&#45;&gt;Node5 -->
<g id="edge4_Node000003_Node000005" class="edge">
<title>Node3&#45;&gt;Node5</title>
<g id="a_edge4_Node000003_Node000005"><a xlink:title=" ">
<path fill="none" stroke="#63b8ff" d="M1470.2,-318.94C1484.67,-310.72 1500.37,-298.8 1508.5,-283 1514.6,-271.14 1513.54,-265.34 1508.5,-253 1504,-241.97 1495.76,-232.06 1487.31,-224.03"/>
<polygon fill="#63b8ff" stroke="#63b8ff" points="1489.4,-221.2 1479.59,-217.2 1484.76,-226.44 1489.4,-221.2"/>
</a>
</g>
</g>
<!-- Node9 -->
<g id="Node000009" class="node">
<title>Node9</title>
<g id="a_Node000009"><a xlink:href="../../da/d00/universal_2include_2userver_2formats_2common_2meta_8hpp.html" target="_top" xlink:title="Metaprogramming helpers for converters detection.">
<polygon fill="white" stroke="#666666" points="233.5,-217 93.5,-217 93.5,-187 233.5,-187 233.5,-217"/>
<text text-anchor="start" x="101.5" y="-205" font-family="Helvetica,sans-Serif" font-size="10.00">userver/formats/common</text>
<text text-anchor="middle" x="163.5" y="-194" font-family="Helvetica,sans-Serif" font-size="10.00">/meta.hpp</text>
</a>
</g>
</g>
<!-- Node3&#45;&gt;Node9 -->
<g id="edge9_Node000003_Node000009" class="edge">
<title>Node3&#45;&gt;Node9</title>
<g id="a_edge9_Node000003_Node000009"><a xlink:title=" ">
<path fill="none" stroke="#63b8ff" d="M1377.37,-331.98C1238.01,-329.09 886.27,-318.58 594.5,-283 467.15,-267.47 320.63,-237.7 235.41,-219.18"/>
<polygon fill="#63b8ff" stroke="#63b8ff" points="236.09,-215.75 225.58,-217.04 234.6,-222.59 236.09,-215.75"/>
</a>
</g>
</g>
<!-- Node14 -->
<g id="Node000014" class="node">
<title>Node14</title>
<g id="a_Node000014"><a xlink:href="../../d1/deb/universal_2include_2userver_2formats_2parse_2common_8hpp.html" target="_top" xlink:title="Parsers and converters for std::chrono::seconds, std::chrono::system_clock::time_point and integral t...">
<polygon fill="white" stroke="#666666" points="728,-283 603,-283 603,-253 728,-253 728,-283"/>
<text text-anchor="start" x="611" y="-271" font-family="Helvetica,sans-Serif" font-size="10.00">userver/formats/parse</text>
<text text-anchor="middle" x="665.5" y="-260" font-family="Helvetica,sans-Serif" font-size="10.00">/common.hpp</text>
</a>
</g>
</g>
<!-- Node3&#45;&gt;Node14 -->
<g id="edge17_Node000003_Node000014" class="edge">
<title>Node3&#45;&gt;Node14</title>
<g id="a_edge17_Node000003_Node000014"><a xlink:title=" ">
<path fill="none" stroke="#63b8ff" d="M1377.2,-327.92C1236.26,-316.26 889.7,-287.56 738.28,-275.03"/>
<polygon fill="#63b8ff" stroke="#63b8ff" points="738.41,-271.52 728.15,-274.19 737.83,-278.5 738.41,-271.52"/>
</a>
</g>
</g>
<!-- Node27 -->
<g id="Node000027" class="node">
<title>Node27</title>
<g id="a_Node000027"><a xlink:href="../../d6/db5/universal_2include_2userver_2formats_2yaml_2exception_8hpp.html" target="_top" xlink:title="Exception classes for YAML module.">
<polygon fill="white" stroke="#666666" points="1359.5,-283 1237.5,-283 1237.5,-253 1359.5,-253 1359.5,-283"/>
<text text-anchor="start" x="1245.5" y="-271" font-family="Helvetica,sans-Serif" font-size="10.00">userver/formats/yaml</text>
<text text-anchor="middle" x="1298.5" y="-260" font-family="Helvetica,sans-Serif" font-size="10.00">/exception.hpp</text>
</a>
</g>
</g>
<!-- Node3&#45;&gt;Node27 -->
<g id="edge42_Node000003_Node000027" class="edge">
<title>Node3&#45;&gt;Node27</title>
<g id="a_edge42_Node000003_Node000027"><a xlink:title=" ">
<path fill="none" stroke="#63b8ff" d="M1407.78,-318.95C1387.35,-309.62 1360.33,-297.27 1338.27,-287.18"/>
<polygon fill="#63b8ff" stroke="#63b8ff" points="1339.7,-283.99 1329.15,-283.01 1336.79,-290.35 1339.7,-283.99"/>
</a>
</g>
</g>
<!-- Node28 -->
<g id="Node000028" class="node">
<title>Node28</title>
<g id="a_Node000028"><a xlink:href="../../d5/dda/universal_2include_2userver_2formats_2yaml_2types_8hpp.html" target="_top" xlink:title="Forward declarations of the internal YAML types.">
<polygon fill="white" stroke="#666666" points="1669.5,-217 1547.5,-217 1547.5,-187 1669.5,-187 1669.5,-217"/>
<text text-anchor="start" x="1555.5" y="-205" font-family="Helvetica,sans-Serif" font-size="10.00">userver/formats/yaml</text>
<text text-anchor="middle" x="1608.5" y="-194" font-family="Helvetica,sans-Serif" font-size="10.00">/types.hpp</text>
</a>
</g>
</g>
<!-- Node3&#45;&gt;Node28 -->
<g id="edge63_Node000003_Node000028" class="edge">
<title>Node3&#45;&gt;Node28</title>
<g id="a_edge63_Node000003_Node000028"><a xlink:title=" ">
<path fill="none" stroke="#63b8ff" d="M1466.65,-318.8C1483.97,-309.55 1506.27,-296.68 1524.5,-283 1548.25,-265.18 1572.5,-241.35 1588.8,-224.35"/>
<polygon fill="#63b8ff" stroke="#63b8ff" points="1591.37,-226.73 1595.7,-217.06 1586.28,-221.92 1591.37,-226.73"/>
</a>
</g>
</g>
<!-- Node32 -->
<g id="Node000032" class="node">
<title>Node32</title>
<g id="a_Node000032"><a xlink:href="../../d7/dbc/universal_2include_2userver_2formats_2yaml_2iterator_8hpp.html" target="_top" xlink:title="Iterator for formats::yaml::Value">
<polygon fill="white" stroke="#666666" points="1499.5,-283 1377.5,-283 1377.5,-253 1499.5,-253 1499.5,-283"/>
<text text-anchor="start" x="1385.5" y="-271" font-family="Helvetica,sans-Serif" font-size="10.00">userver/formats/yaml</text>
<text text-anchor="middle" x="1438.5" y="-260" font-family="Helvetica,sans-Serif" font-size="10.00">/iterator.hpp</text>
</a>
</g>
</g>
<!-- Node3&#45;&gt;Node32 -->
<g id="edge53_Node000003_Node000032" class="edge">
<title>Node3&#45;&gt;Node32</title>
<g id="a_edge53_Node000003_Node000032"><a xlink:title=" ">
<path fill="none" stroke="#63b8ff" d="M1438.5,-318.8C1438.5,-311.34 1438.5,-301.99 1438.5,-293.41"/>
<polygon fill="#63b8ff" stroke="#63b8ff" points="1442,-293.16 1438.5,-283.16 1435,-293.16 1442,-293.16"/>
</a>
</g>
</g>
<!-- Node33 -->
<g id="Node000033" class="node">
<title>Node33</title>
<g id="a_Node000033"><a xlink:href="../../d5/d02/fast__pimpl_8hpp.html" target="_top" xlink:title="Implements pimpl idiom without dynamic memory allocation.">
<polygon fill="white" stroke="#666666" points="1870,-217 1771,-217 1771,-187 1870,-187 1870,-217"/>
<text text-anchor="start" x="1779" y="-205" font-family="Helvetica,sans-Serif" font-size="10.00">userver/utils/fast</text>
<text text-anchor="middle" x="1820.5" y="-194" font-family="Helvetica,sans-Serif" font-size="10.00">_pimpl.hpp</text>
</a>
</g>
</g>
<!-- Node3&#45;&gt;Node33 -->
<g id="edge64_Node000003_Node000033" class="edge">
<title>Node3&#45;&gt;Node33</title>
<g id="a_edge64_Node000003_Node000033"><a xlink:title=" ">
<path fill="none" stroke="#63b8ff" d="M1479.74,-318.96C1550,-295.06 1692.69,-246.5 1769.24,-220.44"/>
<polygon fill="#63b8ff" stroke="#63b8ff" points="1770.8,-223.61 1779.14,-217.08 1768.55,-216.98 1770.8,-223.61"/>
</a>
</g>
</g>
<!-- Node5&#45;&gt;Node4 -->
<g id="edge8_Node000005_Node000004" class="edge">
<title>Node5&#45;&gt;Node4</title>
<g id="a_edge8_Node000005_Node000004"><a xlink:title=" ">
<path fill="none" stroke="#63b8ff" d="M1443.62,-186.99C1404.24,-152.26 1302.34,-62.39 1261.15,-26.07"/>
<polygon fill="#63b8ff" stroke="#63b8ff" points="1263.36,-23.35 1253.55,-19.36 1258.73,-28.6 1263.36,-23.35"/>
</a>
</g>
</g>
<!-- Node6 -->
<g id="Node000006" class="node">
<title>Node6</title>
<g id="a_Node000006"><a xlink:title=" ">
<polygon fill="#e0e0e0" stroke="#999999" points="1697,-145.5 1644,-145.5 1644,-126.5 1697,-126.5 1697,-145.5"/>
<text text-anchor="middle" x="1670.5" y="-133.5" font-family="Helvetica,sans-Serif" font-size="10.00">cstddef</text>
</a>
</g>
</g>
<!-- Node5&#45;&gt;Node6 -->
<g id="edge5_Node000005_Node000006" class="edge">
<title>Node5&#45;&gt;Node6</title>
<g id="a_edge5_Node000005_Node000006"><a xlink:title=" ">
<path fill="none" stroke="#63b8ff" d="M1505.8,-186.95C1544.34,-175.27 1598.45,-158.85 1633.98,-148.08"/>
<polygon fill="#63b8ff" stroke="#63b8ff" points="1635.37,-151.31 1643.92,-145.06 1633.34,-144.61 1635.37,-151.31"/>
</a>
</g>
</g>
<!-- Node7 -->
<g id="Node000007" class="node">
<title>Node7</title>
<g id="a_Node000007"><a xlink:title=" ">
<polygon fill="#e0e0e0" stroke="#999999" points="1315,-145.5 1262,-145.5 1262,-126.5 1315,-126.5 1315,-145.5"/>
<text text-anchor="middle" x="1288.5" y="-133.5" font-family="Helvetica,sans-Serif" font-size="10.00">iterator</text>
</a>
</g>
</g>
<!-- Node5&#45;&gt;Node7 -->
<g id="edge6_Node000005_Node000007" class="edge">
<title>Node5&#45;&gt;Node7</title>
<g id="a_edge6_Node000005_Node000007"><a xlink:title=" ">
<path fill="none" stroke="#63b8ff" d="M1421.97,-186.95C1391.72,-175.63 1349.62,-159.88 1320.84,-149.1"/>
<polygon fill="#63b8ff" stroke="#63b8ff" points="1321.85,-145.74 1311.26,-145.52 1319.4,-152.3 1321.85,-145.74"/>
</a>
</g>
</g>
<!-- Node8 -->
<g id="Node000008" class="node">
<title>Node8</title>
<g id="a_Node000008"><a xlink:title=" ">
<polygon fill="#e0e0e0" stroke="#999999" points="1181.5,-79.5 1137.5,-79.5 1137.5,-60.5 1181.5,-60.5 1181.5,-79.5"/>
<text text-anchor="middle" x="1159.5" y="-67.5" font-family="Helvetica,sans-Serif" font-size="10.00">string</text>
</a>
</g>
</g>
<!-- Node5&#45;&gt;Node8 -->
<g id="edge7_Node000005_Node000008" class="edge">
<title>Node5&#45;&gt;Node8</title>
<g id="a_edge7_Node000005_Node000008"><a xlink:title=" ">
<path fill="none" stroke="#63b8ff" d="M1439.29,-186.91C1413.59,-169.5 1367.39,-139.88 1324.5,-121 1279.93,-101.39 1225.38,-86.51 1191.53,-78.27"/>
<polygon fill="#63b8ff" stroke="#63b8ff" points="1192.26,-74.85 1181.72,-75.93 1190.64,-81.66 1192.26,-74.85"/>
</a>
</g>
</g>
<!-- Node9&#45;&gt;Node4 -->
<g id="edge10_Node000009_Node000004" class="edge">
<title>Node9&#45;&gt;Node4</title>
<g id="a_edge10_Node000009_Node000004"><a xlink:title=" ">
<path fill="none" stroke="#63b8ff" d="M163.33,-186.92C163.95,-168.67 168.01,-137.25 187.5,-121 392.22,49.63 518.41,-82.5 783.5,-55 935.8,-39.2 1116.66,-22.23 1198.86,-14.61"/>
<polygon fill="#63b8ff" stroke="#63b8ff" points="1199.23,-18.09 1208.86,-13.69 1198.58,-11.12 1199.23,-18.09"/>
</a>
</g>
</g>
<!-- Node10 -->
<g id="Node000010" class="node">
<title>Node10</title>
<g id="a_Node000010"><a xlink:href="../../d2/dc8/universal_2include_2userver_2formats_2parse_2to_8hpp.html" target="_top" xlink:title="Helper for parsers.">
<polygon fill="white" stroke="#666666" points="321,-151 196,-151 196,-121 321,-121 321,-151"/>
<text text-anchor="start" x="204" y="-139" font-family="Helvetica,sans-Serif" font-size="10.00">userver/formats/parse</text>
<text text-anchor="middle" x="258.5" y="-128" font-family="Helvetica,sans-Serif" font-size="10.00">/to.hpp</text>
</a>
</g>
</g>
<!-- Node9&#45;&gt;Node10 -->
<g id="edge11_Node000009_Node000010" class="edge">
<title>Node9&#45;&gt;Node10</title>
<g id="a_edge11_Node000009_Node000010"><a xlink:title=" ">
<path fill="none" stroke="#63b8ff" d="M184.58,-186.8C197.62,-178.01 214.55,-166.61 228.92,-156.93"/>
<polygon fill="#63b8ff" stroke="#63b8ff" points="231.14,-159.65 237.48,-151.16 227.23,-153.85 231.14,-159.65"/>
</a>
</g>
</g>
<!-- Node11 -->
<g id="Node000011" class="node">
<title>Node11</title>
<g id="a_Node000011"><a xlink:href="../../d6/d8e/universal_2include_2userver_2formats_2serialize_2to_8hpp.html" target="_top" xlink:title="Helper for serializers.">
<polygon fill="white" stroke="#666666" points="139,-151 0,-151 0,-121 139,-121 139,-151"/>
<text text-anchor="start" x="8" y="-139" font-family="Helvetica,sans-Serif" font-size="10.00">userver/formats/serialize</text>
<text text-anchor="middle" x="69.5" y="-128" font-family="Helvetica,sans-Serif" font-size="10.00">/to.hpp</text>
</a>
</g>
</g>
<!-- Node9&#45;&gt;Node11 -->
<g id="edge12_Node000009_Node000011" class="edge">
<title>Node9&#45;&gt;Node11</title>
<g id="a_edge12_Node000009_Node000011"><a xlink:title=" ">
<path fill="none" stroke="#63b8ff" d="M142.64,-186.8C129.74,-178.01 112.99,-166.61 98.77,-156.93"/>
<polygon fill="#63b8ff" stroke="#63b8ff" points="100.54,-153.9 90.3,-151.16 96.6,-159.69 100.54,-153.9"/>
</a>
</g>
</g>
<!-- Node12 -->
<g id="Node000012" class="node">
<title>Node12</title>
<g id="a_Node000012"><a xlink:href="../../d3/da0/meta__light_8hpp.html" target="_top" xlink:title="Lightweight concepts.">
<polygon fill="white" stroke="#666666" points="604.5,-151 498.5,-151 498.5,-121 604.5,-121 604.5,-151"/>
<text text-anchor="start" x="506.5" y="-139" font-family="Helvetica,sans-Serif" font-size="10.00">userver/utils/meta</text>
<text text-anchor="middle" x="551.5" y="-128" font-family="Helvetica,sans-Serif" font-size="10.00">_light.hpp</text>
</a>
</g>
</g>
<!-- Node9&#45;&gt;Node12 -->
<g id="edge13_Node000009_Node000012" class="edge">
<title>Node9&#45;&gt;Node12</title>
<g id="a_edge13_Node000009_Node000012"><a xlink:title=" ">
<path fill="none" stroke="#63b8ff" d="M233.76,-189.41C306.3,-177.45 418.45,-158.95 488.29,-147.43"/>
<polygon fill="#63b8ff" stroke="#63b8ff" points="488.98,-150.86 498.27,-145.78 487.84,-143.95 488.98,-150.86"/>
</a>
</g>
</g>
<!-- Node12&#45;&gt;Node4 -->
<g id="edge14_Node000012_Node000004" class="edge">
<title>Node12&#45;&gt;Node4</title>
<g id="a_edge14_Node000012_Node000004"><a xlink:title=" ">
<path fill="none" stroke="#63b8ff" d="M604.53,-123.91C609.25,-122.92 613.96,-121.94 618.5,-121 760.25,-91.53 794.91,-80.1 937.5,-55 1030.02,-38.72 1139.04,-23.9 1198.76,-16.16"/>
<polygon fill="#63b8ff" stroke="#63b8ff" points="1199.51,-19.59 1208.98,-14.84 1198.61,-12.65 1199.51,-19.59"/>
</a>
</g>
</g>
<!-- Node13 -->
<g id="Node000013" class="node">
<title>Node13</title>
<g id="a_Node000013"><a xlink:href="../../d9/dce/void__t_8hpp.html" target="_top" xlink:title="std::void_t implementation with workarounds for compiler bugs">
<polygon fill="white" stroke="#666666" points="1119,-85 1018,-85 1018,-55 1119,-55 1119,-85"/>
<text text-anchor="start" x="1026" y="-73" font-family="Helvetica,sans-Serif" font-size="10.00">userver/utils/void</text>
<text text-anchor="middle" x="1068.5" y="-62" font-family="Helvetica,sans-Serif" font-size="10.00">_t.hpp</text>
</a>
</g>
</g>
<!-- Node12&#45;&gt;Node13 -->
<g id="edge15_Node000012_Node000013" class="edge">
<title>Node12&#45;&gt;Node13</title>
<g id="a_edge15_Node000012_Node000013"><a xlink:title=" ">
<path fill="none" stroke="#63b8ff" d="M604.81,-123.38C609.43,-122.52 614.04,-121.71 618.5,-121 756.87,-98.91 920.72,-83.34 1007.48,-75.92"/>
<polygon fill="#63b8ff" stroke="#63b8ff" points="1008.01,-79.39 1017.67,-75.06 1007.41,-72.41 1008.01,-79.39"/>
</a>
</g>
</g>
<!-- Node13&#45;&gt;Node4 -->
<g id="edge16_Node000013_Node000004" class="edge">
<title>Node13&#45;&gt;Node4</title>
<g id="a_edge16_Node000013_Node000004"><a xlink:title=" ">
<path fill="none" stroke="#63b8ff" d="M1110.42,-54.99C1140.23,-45.02 1179.83,-31.78 1208.06,-22.35"/>
<polygon fill="#63b8ff" stroke="#63b8ff" points="1209.54,-25.54 1217.91,-19.05 1207.32,-18.9 1209.54,-25.54"/>
</a>
</g>
</g>
<!-- Node14&#45;&gt;Node9 -->
<g id="edge22_Node000014_Node000009" class="edge">
<title>Node14&#45;&gt;Node9</title>
<g id="a_edge22_Node000014_Node000009"><a xlink:title=" ">
<path fill="none" stroke="#63b8ff" d="M602.71,-260.4C520.83,-251.59 373.21,-234.98 247.5,-217 246.22,-216.82 244.94,-216.63 243.64,-216.44"/>
<polygon fill="#63b8ff" stroke="#63b8ff" points="244,-212.96 233.59,-214.93 242.96,-219.88 244,-212.96"/>
</a>
</g>
</g>
<!-- Node14&#45;&gt;Node10 -->
<g id="edge23_Node000014_Node000010" class="edge">
<title>Node14&#45;&gt;Node10</title>
<g id="a_edge23_Node000014_Node000010"><a xlink:title=" ">
<path fill="none" stroke="#63b8ff" d="M602.77,-267.02C506.2,-265.74 327.35,-257.75 280.5,-217 264.76,-203.32 259.79,-179.52 258.44,-161.43"/>
<polygon fill="#63b8ff" stroke="#63b8ff" points="261.93,-161.14 258,-151.3 254.94,-161.44 261.93,-161.14"/>
</a>
</g>
</g>
<!-- Node15 -->
<g id="Node000015" class="node">
<title>Node15</title>
<g id="a_Node000015"><a xlink:title=" ">
<polygon fill="#e0e0e0" stroke="#999999" points="710.5,-145.5 660.5,-145.5 660.5,-126.5 710.5,-126.5 710.5,-145.5"/>
<text text-anchor="middle" x="685.5" y="-133.5" font-family="Helvetica,sans-Serif" font-size="10.00">chrono</text>
</a>
</g>
</g>
<!-- Node14&#45;&gt;Node15 -->
<g id="edge18_Node000014_Node000015" class="edge">
<title>Node14&#45;&gt;Node15</title>
<g id="a_edge18_Node000014_Node000015"><a xlink:title=" ">
<path fill="none" stroke="#63b8ff" d="M602.9,-261.17C536.92,-252.53 447.19,-232.21 483.5,-187 529.96,-129.16 575.22,-171.57 646.5,-151 648.77,-150.34 651.11,-149.62 653.45,-148.87"/>
<polygon fill="#63b8ff" stroke="#63b8ff" points="654.63,-152.17 662.97,-145.64 652.38,-145.54 654.63,-152.17"/>
</a>
</g>
</g>
<!-- Node16 -->
<g id="Node000016" class="node">
<title>Node16</title>
<g id="a_Node000016"><a xlink:title=" ">
<polygon fill="#e0e0e0" stroke="#999999" points="1181.5,-211.5 1131.5,-211.5 1131.5,-192.5 1181.5,-192.5 1181.5,-211.5"/>
<text text-anchor="middle" x="1156.5" y="-199.5" font-family="Helvetica,sans-Serif" font-size="10.00">cstdint</text>
</a>
</g>
</g>
<!-- Node14&#45;&gt;Node16 -->
<g id="edge19_Node000014_Node000016" class="edge">
<title>Node14&#45;&gt;Node16</title>
<g id="a_edge19_Node000014_Node000016"><a xlink:title=" ">
<path fill="none" stroke="#63b8ff" d="M728.21,-265.7C817.2,-262.6 984.65,-252.17 1122.5,-217 1124.66,-216.45 1126.87,-215.79 1129.06,-215.06"/>
<polygon fill="#63b8ff" stroke="#63b8ff" points="1130.34,-218.32 1138.47,-211.53 1127.88,-211.76 1130.34,-218.32"/>
</a>
</g>
</g>
<!-- Node17 -->
<g id="Node000017" class="node">
<title>Node17</title>
<g id="a_Node000017"><a xlink:title=" ">
<polygon fill="#e0e0e0" stroke="#999999" points="929.5,-211.5 885.5,-211.5 885.5,-192.5 929.5,-192.5 929.5,-211.5"/>
<text text-anchor="middle" x="907.5" y="-199.5" font-family="Helvetica,sans-Serif" font-size="10.00">limits</text>
</a>
</g>
</g>
<!-- Node14&#45;&gt;Node17 -->
<g id="edge20_Node000014_Node000017" class="edge">
<title>Node14&#45;&gt;Node17</title>
<g id="a_edge20_Node000014_Node000017"><a xlink:title=" ">
<path fill="none" stroke="#63b8ff" d="M728.25,-255.42C770.69,-246.79 827.68,-233.64 876.5,-217 877.9,-216.52 879.32,-216.01 880.74,-215.46"/>
<polygon fill="#63b8ff" stroke="#63b8ff" points="882.15,-218.67 890.03,-211.59 879.45,-212.21 882.15,-218.67"/>
</a>
</g>
</g>
<!-- Node18 -->
<g id="Node000018" class="node">
<title>Node18</title>
<g id="a_Node000018"><a xlink:title=" ">
<polygon fill="#e0e0e0" stroke="#999999" points="571,-211.5 492,-211.5 492,-192.5 571,-192.5 571,-211.5"/>
<text text-anchor="middle" x="531.5" y="-199.5" font-family="Helvetica,sans-Serif" font-size="10.00">fmt/format.h</text>
</a>
</g>
</g>
<!-- Node14&#45;&gt;Node18 -->
<g id="edge21_Node000014_Node000018" class="edge">
<title>Node14&#45;&gt;Node18</title>
<g id="a_edge21_Node000014_Node000018"><a xlink:title=" ">
<path fill="none" stroke="#63b8ff" d="M636.09,-252.95C613.01,-241.93 581.12,-226.7 558.64,-215.96"/>
<polygon fill="#63b8ff" stroke="#63b8ff" points="559.87,-212.67 549.33,-211.52 556.85,-218.99 559.87,-212.67"/>
</a>
</g>
</g>
<!-- Node19 -->
<g id="Node000019" class="node">
<title>Node19</title>
<g id="a_Node000019"><a xlink:href="../../d7/d4a/datetime_8hpp.html" target="_top" xlink:title="Date and Time related converters.">
<polygon fill="white" stroke="#666666" points="435.5,-211.5 289.5,-211.5 289.5,-192.5 435.5,-192.5 435.5,-211.5"/>
<text text-anchor="middle" x="362.5" y="-199.5" font-family="Helvetica,sans-Serif" font-size="10.00">userver/utils/datetime.hpp</text>
</a>
</g>
</g>
<!-- Node14&#45;&gt;Node19 -->
<g id="edge24_Node000014_Node000019" class="edge">
<title>Node14&#45;&gt;Node19</title>
<g id="a_edge24_Node000014_Node000019"><a xlink:title=" ">
<path fill="none" stroke="#63b8ff" d="M602.72,-253.74C546.49,-241.86 465.09,-224.67 412.98,-213.66"/>
<polygon fill="#63b8ff" stroke="#63b8ff" points="413.47,-210.19 402.97,-211.55 412.03,-217.04 413.47,-210.19"/>
</a>
</g>
</g>
<!-- Node22 -->
<g id="Node000022" class="node">
<title>Node22</title>
<g id="a_Node000022"><a xlink:href="../../dd/d10/from__string__saturating_8hpp.html" target="_top" xlink:title="Saturating converters from strings to time points.">
<polygon fill="white" stroke="#666666" points="741.5,-217 589.5,-217 589.5,-187 741.5,-187 741.5,-217"/>
<text text-anchor="start" x="597.5" y="-205" font-family="Helvetica,sans-Serif" font-size="10.00">userver/utils/datetime</text>
<text text-anchor="middle" x="665.5" y="-194" font-family="Helvetica,sans-Serif" font-size="10.00">/from_string_saturating.hpp</text>
</a>
</g>
</g>
<!-- Node14&#45;&gt;Node22 -->
<g id="edge29_Node000014_Node000022" class="edge">
<title>Node14&#45;&gt;Node22</title>
<g id="a_edge29_Node000014_Node000022"><a xlink:title=" ">
<path fill="none" stroke="#63b8ff" d="M665.5,-252.8C665.5,-245.34 665.5,-235.99 665.5,-227.41"/>
<polygon fill="#63b8ff" stroke="#63b8ff" points="669,-227.16 665.5,-217.16 662,-227.16 669,-227.16"/>
</a>
</g>
</g>
<!-- Node23 -->
<g id="Node000023" class="node">
<title>Node23</title>
<g id="a_Node000023"><a xlink:href="../../d0/d03/universal_2include_2userver_2utils_2meta_8hpp.html" target="_top" xlink:title="Metaprogramming, template variables and concepts.">
<polygon fill="white" stroke="#666666" points="1113,-211.5 986,-211.5 986,-192.5 1113,-192.5 1113,-211.5"/>
<text text-anchor="middle" x="1049.5" y="-199.5" font-family="Helvetica,sans-Serif" font-size="10.00">userver/utils/meta.hpp</text>
</a>
</g>
</g>
<!-- Node14&#45;&gt;Node23 -->
<g id="edge32_Node000014_Node000023" class="edge">
<title>Node14&#45;&gt;Node23</title>
<g id="a_edge32_Node000014_Node000023"><a xlink:title=" ">
<path fill="none" stroke="#63b8ff" d="M728.05,-256.57C799.86,-244.61 916.88,-225.1 988.17,-213.22"/>
<polygon fill="#63b8ff" stroke="#63b8ff" points="989.06,-216.62 998.35,-211.53 987.91,-209.72 989.06,-216.62"/>
</a>
</g>
</g>
<!-- Node26 -->
<g id="Node000026" class="node">
<title>Node26</title>
<g id="a_Node000026"><a xlink:href="../../dc/dff/string__to__duration_8hpp.html" target="_top" xlink:title="Converts strings like &quot;10s&quot;, &quot;5d&quot;, &quot;1h&quot; to durations.">
<polygon fill="white" stroke="#666666" points="867.5,-217 759.5,-217 759.5,-187 867.5,-187 867.5,-217"/>
<text text-anchor="start" x="767.5" y="-205" font-family="Helvetica,sans-Serif" font-size="10.00">userver/utils/string</text>
<text text-anchor="middle" x="813.5" y="-194" font-family="Helvetica,sans-Serif" font-size="10.00">_to_duration.hpp</text>
</a>
</g>
</g>
<!-- Node14&#45;&gt;Node26 -->
<g id="edge39_Node000014_Node000026" class="edge">
<title>Node14&#45;&gt;Node26</title>
<g id="a_edge39_Node000014_Node000026"><a xlink:title=" ">
<path fill="none" stroke="#63b8ff" d="M697.98,-252.95C719.67,-243.58 748.39,-231.16 771.77,-221.05"/>
<polygon fill="#63b8ff" stroke="#63b8ff" points="773.31,-224.19 781.1,-217.01 770.53,-217.77 773.31,-224.19"/>
</a>
</g>
</g>
<!-- Node19&#45;&gt;Node8 -->
<g id="edge27_Node000019_Node000008" class="edge">
<title>Node19&#45;&gt;Node8</title>
<g id="a_edge27_Node000019_Node000008"><a xlink:title=" ">
<path fill="none" stroke="#63b8ff" d="M421.62,-192.49C484.71,-182.84 580.07,-166.43 613.5,-151 633.04,-141.98 631.45,-128.82 651.5,-121 849.58,-43.76 922.49,-137.55 1128.5,-85 1130.23,-84.56 1131.99,-84.03 1133.73,-83.43"/>
<polygon fill="#63b8ff" stroke="#63b8ff" points="1135.5,-86.49 1143.48,-79.51 1132.89,-80 1135.5,-86.49"/>
</a>
</g>
</g>
<!-- Node19&#45;&gt;Node15 -->
<g id="edge25_Node000019_Node000015" class="edge">
<title>Node19&#45;&gt;Node15</title>
<g id="a_edge25_Node000019_Node000015"><a xlink:title=" ">
<path fill="none" stroke="#63b8ff" d="M413.83,-192.45C489.49,-179.78 624.42,-156.86 646.5,-151 648.99,-150.34 651.56,-149.59 654.12,-148.78"/>
<polygon fill="#63b8ff" stroke="#63b8ff" points="655.48,-152.02 663.84,-145.51 653.25,-145.38 655.48,-152.02"/>
</a>
</g>
</g>
<!-- Node20 -->
<g id="Node000020" class="node">
<title>Node20</title>
<g id="a_Node000020"><a xlink:title=" ">
<polygon fill="#e0e0e0" stroke="#999999" points="910,-145.5 845,-145.5 845,-126.5 910,-126.5 910,-145.5"/>
<text text-anchor="middle" x="877.5" y="-133.5" font-family="Helvetica,sans-Serif" font-size="10.00">stdexcept</text>
</a>
</g>
</g>
<!-- Node19&#45;&gt;Node20 -->
<g id="edge26_Node000019_Node000020" class="edge">
<title>Node19&#45;&gt;Node20</title>
<g id="a_edge26_Node000019_Node000020"><a xlink:title=" ">
<path fill="none" stroke="#63b8ff" d="M431.15,-192.47C539.16,-179.05 745.61,-153.39 834.76,-142.31"/>
<polygon fill="#63b8ff" stroke="#63b8ff" points="835.29,-145.77 844.78,-141.07 834.43,-138.83 835.29,-145.77"/>
</a>
</g>
</g>
<!-- Node21 -->
<g id="Node000021" class="node">
<title>Node21</title>
<g id="a_Node000021"><a xlink:title=" ">
<polygon fill="#e0e0e0" stroke="#999999" points="435.5,-145.5 339.5,-145.5 339.5,-126.5 435.5,-126.5 435.5,-145.5"/>
<text text-anchor="middle" x="387.5" y="-133.5" font-family="Helvetica,sans-Serif" font-size="10.00">cctz/civil_time.h</text>
</a>
</g>
</g>
<!-- Node19&#45;&gt;Node21 -->
<g id="edge28_Node000019_Node000021" class="edge">
<title>Node19&#45;&gt;Node21</title>
<g id="a_edge28_Node000019_Node000021"><a xlink:title=" ">
<path fill="none" stroke="#63b8ff" d="M365.87,-192.37C369.54,-182.97 375.52,-167.67 380.26,-155.53"/>
<polygon fill="#63b8ff" stroke="#63b8ff" points="383.64,-156.49 384.02,-145.91 377.12,-153.95 383.64,-156.49"/>
</a>
</g>
</g>
<!-- Node22&#45;&gt;Node8 -->
<g id="edge31_Node000022_Node000008" class="edge">
<title>Node22&#45;&gt;Node8</title>
<g id="a_edge31_Node000022_Node000008"><a xlink:title=" ">
<path fill="none" stroke="#63b8ff" d="M689.19,-186.96C721.37,-168.6 781.22,-136.9 836.5,-121 962.16,-84.85 1002.6,-120.31 1128.5,-85 1130.18,-84.53 1131.89,-83.98 1133.59,-83.38"/>
<polygon fill="#63b8ff" stroke="#63b8ff" points="1135.17,-86.51 1143.11,-79.51 1132.53,-80.03 1135.17,-86.51"/>
</a>
</g>
</g>
<!-- Node22&#45;&gt;Node15 -->
<g id="edge30_Node000022_Node000015" class="edge">
<title>Node22&#45;&gt;Node15</title>
<g id="a_edge30_Node000022_Node000015"><a xlink:title=" ">
<path fill="none" stroke="#63b8ff" d="M669.94,-186.8C672.81,-177.6 676.58,-165.53 679.69,-155.58"/>
<polygon fill="#63b8ff" stroke="#63b8ff" points="683.09,-156.43 682.74,-145.84 676.41,-154.35 683.09,-156.43"/>
</a>
</g>
</g>
<!-- Node23&#45;&gt;Node2 -->
<g id="edge33_Node000023_Node000002" class="edge">
<title>Node23&#45;&gt;Node2</title>
<g id="a_edge33_Node000023_Node000002"><a xlink:title=" ">
<path fill="none" stroke="#63b8ff" d="M1057.32,-192.37C1066.35,-182.4 1081.41,-165.79 1092.67,-153.36"/>
<polygon fill="#63b8ff" stroke="#63b8ff" points="1095.31,-155.67 1099.43,-145.91 1090.12,-150.96 1095.31,-155.67"/>
</a>
</g>
</g>
<!-- Node23&#45;&gt;Node4 -->
<g id="edge36_Node000023_Node000004" class="edge">
<title>Node23&#45;&gt;Node4</title>
<g id="a_edge36_Node000023_Node000004"><a xlink:title=" ">
<path fill="none" stroke="#63b8ff" d="M1039.33,-192.26C1029.54,-183.12 1015.39,-167.78 1009.5,-151 995.38,-110.74 982.29,-87.87 1009.5,-55 1033.06,-26.54 1137.71,-16.13 1198.79,-12.44"/>
<polygon fill="#63b8ff" stroke="#63b8ff" points="1199.14,-15.92 1208.93,-11.86 1198.74,-8.94 1199.14,-15.92"/>
</a>
</g>
</g>
<!-- Node23&#45;&gt;Node7 -->
<g id="edge34_Node000023_Node000007" class="edge">
<title>Node23&#45;&gt;Node7</title>
<g id="a_edge34_Node000023_Node000007"><a xlink:title=" ">
<path fill="none" stroke="#63b8ff" d="M1090.76,-192.48C1132.08,-183.57 1197.3,-168.45 1252.5,-151 1254.37,-150.41 1256.28,-149.77 1258.2,-149.1"/>
<polygon fill="#63b8ff" stroke="#63b8ff" points="1259.54,-152.34 1267.72,-145.61 1257.13,-145.77 1259.54,-152.34"/>
</a>
</g>
</g>
<!-- Node23&#45;&gt;Node12 -->
<g id="edge38_Node000023_Node000012" class="edge">
<title>Node23&#45;&gt;Node12</title>
<g id="a_edge38_Node000023_Node000012"><a xlink:title=" ">
<path fill="none" stroke="#63b8ff" d="M985.81,-192.96C970.33,-191.01 953.82,-188.93 938.5,-187 810.95,-170.96 778.94,-167.91 651.5,-151 639.62,-149.42 626.95,-147.69 614.77,-146"/>
<polygon fill="#63b8ff" stroke="#63b8ff" points="615.06,-142.5 604.68,-144.59 614.1,-149.44 615.06,-142.5"/>
</a>
</g>
</g>
<!-- Node24 -->
<g id="Node000024" class="node">
<title>Node24</title>
<g id="a_Node000024"><a xlink:title=" ">
<polygon fill="#e0e0e0" stroke="#999999" points="1243.5,-145.5 1187.5,-145.5 1187.5,-126.5 1243.5,-126.5 1243.5,-145.5"/>
<text text-anchor="middle" x="1215.5" y="-133.5" font-family="Helvetica,sans-Serif" font-size="10.00">optional</text>
</a>
</g>
</g>
<!-- Node23&#45;&gt;Node24 -->
<g id="edge35_Node000023_Node000024" class="edge">
<title>Node23&#45;&gt;Node24</title>
<g id="a_edge35_Node000023_Node000024"><a xlink:title=" ">
<path fill="none" stroke="#63b8ff" d="M1071.89,-192.37C1100.68,-181.27 1150.87,-161.92 1183.64,-149.28"/>
<polygon fill="#63b8ff" stroke="#63b8ff" points="1185.13,-152.46 1193.2,-145.6 1182.61,-145.93 1185.13,-152.46"/>
</a>
</g>
</g>
<!-- Node25 -->
<g id="Node000025" class="node">
<title>Node25</title>
<g id="a_Node000025"><a xlink:title=" ">
<polygon fill="#e0e0e0" stroke="#999999" points="1065,-145.5 1018,-145.5 1018,-126.5 1065,-126.5 1065,-145.5"/>
<text text-anchor="middle" x="1041.5" y="-133.5" font-family="Helvetica,sans-Serif" font-size="10.00">vector</text>
</a>
</g>
</g>
<!-- Node23&#45;&gt;Node25 -->
<g id="edge37_Node000023_Node000025" class="edge">
<title>Node23&#45;&gt;Node25</title>
<g id="a_edge37_Node000023_Node000025"><a xlink:title=" ">
<path fill="none" stroke="#63b8ff" d="M1048.42,-192.37C1047.26,-183.07 1045.37,-167.98 1043.86,-155.9"/>
<polygon fill="#63b8ff" stroke="#63b8ff" points="1047.33,-155.39 1042.61,-145.91 1040.38,-156.26 1047.33,-155.39"/>
</a>
</g>
</g>
<!-- Node26&#45;&gt;Node8 -->
<g id="edge41_Node000026_Node000008" class="edge">
<title>Node26&#45;&gt;Node8</title>
<g id="a_edge41_Node000026_Node000008"><a xlink:title=" ">
<path fill="none" stroke="#63b8ff" d="M845.4,-186.9C883.9,-170.14 950.78,-141.81 1009.5,-121 1061.58,-102.54 1076.77,-104.41 1128.5,-85 1129.71,-84.54 1130.95,-84.06 1132.19,-83.57"/>
<polygon fill="#63b8ff" stroke="#63b8ff" points="1133.8,-86.68 1141.63,-79.55 1131.06,-80.24 1133.8,-86.68"/>
</a>
</g>
</g>
<!-- Node26&#45;&gt;Node15 -->
<g id="edge40_Node000026_Node000015" class="edge">
<title>Node26&#45;&gt;Node15</title>
<g id="a_edge40_Node000026_Node000015"><a xlink:title=" ">
<path fill="none" stroke="#63b8ff" d="M785.41,-186.95C763.46,-175.98 733.17,-160.83 711.71,-150.11"/>
<polygon fill="#63b8ff" stroke="#63b8ff" points="713.04,-146.86 702.53,-145.52 709.91,-153.12 713.04,-146.86"/>
</a>
</g>
</g>
<!-- Node27&#45;&gt;Node2 -->
<g id="edge43_Node000027_Node000002" class="edge">
<title>Node27&#45;&gt;Node2</title>
<g id="a_edge43_Node000027_Node000002"><a xlink:title=" ">
<path fill="none" stroke="#63b8ff" d="M1288.23,-252.89C1274.94,-235.46 1250.3,-205.82 1223.5,-187 1209.39,-177.09 1168.86,-160.49 1139.68,-149.16"/>
<polygon fill="#63b8ff" stroke="#63b8ff" points="1140.86,-145.87 1130.27,-145.54 1138.35,-152.4 1140.86,-145.87"/>
</a>
</g>
</g>
<!-- Node27&#45;&gt;Node8 -->
<g id="edge45_Node000027_Node000008" class="edge">
<title>Node27&#45;&gt;Node8</title>
<g id="a_edge45_Node000027_Node000008"><a xlink:title=" ">
<path fill="none" stroke="#63b8ff" d="M1293.6,-252.87C1286.94,-235.41 1273.5,-205.74 1253.5,-187 1226.52,-161.72 1201.7,-179.79 1178.5,-151 1164.47,-133.58 1160.49,-107.52 1159.52,-89.92"/>
<polygon fill="#63b8ff" stroke="#63b8ff" points="1163.02,-89.65 1159.24,-79.75 1156.02,-89.84 1163.02,-89.65"/>
</a>
</g>
</g>
<!-- Node27&#45;&gt;Node20 -->
<g id="edge44_Node000027_Node000020" class="edge">
<title>Node27&#45;&gt;Node20</title>
<g id="a_edge44_Node000027_Node000020"><a xlink:title=" ">
<path fill="none" stroke="#63b8ff" d="M1237.34,-266.73C1170.75,-264.36 1062.42,-254.38 977.5,-217 972.82,-214.94 923.22,-174.53 895.68,-151.95"/>
<polygon fill="#63b8ff" stroke="#63b8ff" points="897.87,-149.21 887.92,-145.57 893.43,-154.62 897.87,-149.21"/>
</a>
</g>
</g>
<!-- Node27&#45;&gt;Node28 -->
<g id="edge46_Node000027_Node000028" class="edge">
<title>Node27&#45;&gt;Node28</title>
<g id="a_edge46_Node000027_Node000028"><a xlink:title=" ">
<path fill="none" stroke="#63b8ff" d="M1359.75,-254.36C1410.8,-243.81 1483.6,-228.79 1537.26,-217.71"/>
<polygon fill="#63b8ff" stroke="#63b8ff" points="1538.3,-221.07 1547.38,-215.62 1536.88,-214.21 1538.3,-221.07"/>
</a>
</g>
</g>
<!-- Node28&#45;&gt;Node4 -->
<g id="edge47_Node000028_Node000004" class="edge">
<title>Node28&#45;&gt;Node4</title>
<g id="a_edge47_Node000028_Node000004"><a xlink:title=" ">
<path fill="none" stroke="#63b8ff" d="M1609.19,-186.63C1609.75,-156.22 1606.16,-85.63 1563.5,-55 1520.36,-24.03 1365.98,-14.53 1288.51,-11.68"/>
<polygon fill="#63b8ff" stroke="#63b8ff" points="1288.23,-8.17 1278.11,-11.32 1287.98,-15.16 1288.23,-8.17"/>
</a>
</g>
</g>
<!-- Node28&#45;&gt;Node13 -->
<g id="edge48_Node000028_Node000013" class="edge">
<title>Node28&#45;&gt;Node13</title>
<g id="a_edge48_Node000028_Node000013"><a xlink:title=" ">
<path fill="none" stroke="#63b8ff" d="M1560.71,-186.96C1492.25,-166.94 1369.53,-131.45 1324.5,-121 1241.26,-101.68 1216.9,-102.95 1129.06,-85.04"/>
<polygon fill="#63b8ff" stroke="#63b8ff" points="1129.7,-81.6 1119.2,-83.01 1128.29,-88.46 1129.7,-81.6"/>
</a>
</g>
</g>
<!-- Node29 -->
<g id="Node000029" class="node">
<title>Node29</title>
<g id="a_Node000029"><a xlink:href="../../d1/d4c/path_8hpp.html" target="_top" xlink:title=" ">
<polygon fill="white" stroke="#666666" points="1587.5,-151 1447.5,-151 1447.5,-121 1587.5,-121 1587.5,-151"/>
<text text-anchor="start" x="1455.5" y="-139" font-family="Helvetica,sans-Serif" font-size="10.00">userver/formats/common</text>
<text text-anchor="middle" x="1517.5" y="-128" font-family="Helvetica,sans-Serif" font-size="10.00">/path.hpp</text>
</a>
</g>
</g>
<!-- Node28&#45;&gt;Node29 -->
<g id="edge49_Node000028_Node000029" class="edge">
<title>Node28&#45;&gt;Node29</title>
<g id="a_edge49_Node000028_Node000029"><a xlink:title=" ">
<path fill="none" stroke="#63b8ff" d="M1588.3,-186.8C1575.82,-178.01 1559.6,-166.61 1545.84,-156.93"/>
<polygon fill="#63b8ff" stroke="#63b8ff" points="1547.83,-154.05 1537.64,-151.16 1543.81,-159.78 1547.83,-154.05"/>
</a>
</g>
</g>
<!-- Node31 -->
<g id="Node000031" class="node">
<title>Node31</title>
<g id="a_Node000031"><a xlink:href="../../da/d72/type_8hpp.html" target="_top" xlink:title="Common enum of types.">
<polygon fill="white" stroke="#666666" points="1855.5,-151 1715.5,-151 1715.5,-121 1855.5,-121 1855.5,-151"/>
<text text-anchor="start" x="1723.5" y="-139" font-family="Helvetica,sans-Serif" font-size="10.00">userver/formats/common</text>
<text text-anchor="middle" x="1785.5" y="-128" font-family="Helvetica,sans-Serif" font-size="10.00">/type.hpp</text>
</a>
</g>
</g>
<!-- Node28&#45;&gt;Node31 -->
<g id="edge52_Node000028_Node000031" class="edge">
<title>Node28&#45;&gt;Node31</title>
<g id="a_edge52_Node000028_Node000031"><a xlink:title=" ">
<path fill="none" stroke="#63b8ff" d="M1647.34,-186.95C1673.74,-177.41 1708.86,-164.71 1737.08,-154.51"/>
<polygon fill="#63b8ff" stroke="#63b8ff" points="1738.53,-157.7 1746.75,-151.01 1736.15,-151.12 1738.53,-157.7"/>
</a>
</g>
</g>
<!-- Node29&#45;&gt;Node8 -->
<g id="edge50_Node000029_Node000008" class="edge">
<title>Node29&#45;&gt;Node8</title>
<g id="a_edge50_Node000029_Node000008"><a xlink:title=" ">
<path fill="none" stroke="#63b8ff" d="M1447.2,-122.43C1369.75,-108.59 1248.61,-86.93 1191.43,-76.71"/>
<polygon fill="#63b8ff" stroke="#63b8ff" points="1191.98,-73.25 1181.52,-74.94 1190.75,-80.14 1191.98,-73.25"/>
</a>
</g>
</g>
<!-- Node30 -->
<g id="Node000030" class="node">
<title>Node30</title>
<g id="a_Node000030"><a xlink:title=" ">
<polygon fill="#e0e0e0" stroke="#999999" points="1554,-79.5 1481,-79.5 1481,-60.5 1554,-60.5 1554,-79.5"/>
<text text-anchor="middle" x="1517.5" y="-67.5" font-family="Helvetica,sans-Serif" font-size="10.00">string_view</text>
</a>
</g>
</g>
<!-- Node29&#45;&gt;Node30 -->
<g id="edge51_Node000029_Node000030" class="edge">
<title>Node29&#45;&gt;Node30</title>
<g id="a_edge51_Node000029_Node000030"><a xlink:title=" ">
<path fill="none" stroke="#63b8ff" d="M1517.5,-120.8C1517.5,-111.7 1517.5,-99.79 1517.5,-89.9"/>
<polygon fill="#63b8ff" stroke="#63b8ff" points="1521,-89.84 1517.5,-79.84 1514,-89.84 1521,-89.84"/>
</a>
</g>
</g>
<!-- Node32&#45;&gt;Node7 -->
<g id="edge55_Node000032_Node000007" class="edge">
<title>Node32&#45;&gt;Node7</title>
<g id="a_edge55_Node000032_Node000007"><a xlink:title=" ">
<path fill="none" stroke="#63b8ff" d="M1421.98,-252.79C1410.37,-242.8 1394.47,-229.1 1380.5,-217 1354.55,-194.53 1324.56,-168.43 1306.06,-152.31"/>
<polygon fill="#63b8ff" stroke="#63b8ff" points="1308.26,-149.59 1298.43,-145.66 1303.67,-154.86 1308.26,-149.59"/>
</a>
</g>
</g>
<!-- Node32&#45;&gt;Node16 -->
<g id="edge54_Node000032_Node000016" class="edge">
<title>Node32&#45;&gt;Node16</title>
<g id="a_edge54_Node000032_Node000016"><a xlink:title=" ">
<path fill="none" stroke="#63b8ff" d="M1377.31,-253.11C1320.53,-240.23 1238.02,-221.5 1191.61,-210.97"/>
<polygon fill="#63b8ff" stroke="#63b8ff" points="1192.25,-207.52 1181.72,-208.72 1190.7,-214.35 1192.25,-207.52"/>
</a>
</g>
</g>
<!-- Node32&#45;&gt;Node24 -->
<g id="edge56_Node000032_Node000024" class="edge">
<title>Node32&#45;&gt;Node24</title>
<g id="a_edge56_Node000032_Node000024"><a xlink:title=" ">
<path fill="none" stroke="#63b8ff" d="M1409.77,-252.95C1390.68,-243.36 1365.22,-230.06 1343.5,-217 1323.22,-204.8 1319.46,-199.73 1299.5,-187 1279.46,-174.22 1256.2,-160.46 1239.25,-150.61"/>
<polygon fill="#63b8ff" stroke="#63b8ff" points="1240.95,-147.55 1230.54,-145.58 1237.44,-153.61 1240.95,-147.55"/>
</a>
</g>
</g>
<!-- Node32&#45;&gt;Node28 -->
<g id="edge57_Node000032_Node000028" class="edge">
<title>Node32&#45;&gt;Node28</title>
<g id="a_edge57_Node000032_Node000028"><a xlink:title=" ">
<path fill="none" stroke="#63b8ff" d="M1475.81,-252.95C1501.05,-243.45 1534.59,-230.82 1561.64,-220.64"/>
<polygon fill="#63b8ff" stroke="#63b8ff" points="1563.15,-223.81 1571.28,-217.01 1560.69,-217.26 1563.15,-223.81"/>
</a>
</g>
</g>
<!-- Node32&#45;&gt;Node33 -->
<g id="edge58_Node000032_Node000033" class="edge">
<title>Node32&#45;&gt;Node33</title>
<g id="a_edge58_Node000032_Node000033"><a xlink:title=" ">
<path fill="none" stroke="#63b8ff" d="M1499.87,-256.72C1571.64,-244.69 1689.63,-224.93 1760.7,-213.02"/>
<polygon fill="#63b8ff" stroke="#63b8ff" points="1761.55,-216.42 1770.84,-211.32 1760.4,-209.52 1761.55,-216.42"/>
</a>
</g>
</g>
<!-- Node33&#45;&gt;Node4 -->
<g id="edge61_Node000033_Node000004" class="edge">
<title>Node33&#45;&gt;Node4</title>
<g id="a_edge61_Node000033_Node000004"><a xlink:title=" ">
<path fill="none" stroke="#63b8ff" d="M1838.04,-186.85C1856.6,-170.16 1881.09,-142.04 1864.5,-121 1793.04,-30.37 1418.23,-14.07 1288.07,-11.14"/>
<polygon fill="#63b8ff" stroke="#63b8ff" points="1288.12,-7.64 1278.05,-10.93 1287.97,-14.64 1288.12,-7.64"/>
</a>
</g>
</g>
<!-- Node33&#45;&gt;Node6 -->
<g id="edge59_Node000033_Node000006" class="edge">
<title>Node33&#45;&gt;Node6</title>
<g id="a_edge59_Node000033_Node000006"><a xlink:title=" ">
<path fill="none" stroke="#63b8ff" d="M1787.58,-186.95C1761.39,-175.78 1725.08,-160.29 1699.87,-149.53"/>
<polygon fill="#63b8ff" stroke="#63b8ff" points="1701.03,-146.22 1690.46,-145.52 1698.29,-152.66 1701.03,-146.22"/>
</a>
</g>
</g>
<!-- Node34 -->
<g id="Node000034" class="node">
<title>Node34</title>
<g id="a_Node000034"><a xlink:title=" ">
<polygon fill="#e0e0e0" stroke="#999999" points="2012,-145.5 1975,-145.5 1975,-126.5 2012,-126.5 2012,-145.5"/>
<text text-anchor="middle" x="1993.5" y="-133.5" font-family="Helvetica,sans-Serif" font-size="10.00">new</text>
</a>
</g>
</g>
<!-- Node33&#45;&gt;Node34 -->
<g id="edge60_Node000033_Node000034" class="edge">
<title>Node33&#45;&gt;Node34</title>
<g id="a_edge60_Node000033_Node000034"><a xlink:title=" ">
<path fill="none" stroke="#63b8ff" d="M1867.19,-186.96C1896.18,-177.77 1933.98,-164.91 1966.5,-151 1967.21,-150.7 1967.93,-150.38 1968.65,-150.06"/>
<polygon fill="#63b8ff" stroke="#63b8ff" points="1970.51,-153.05 1977.98,-145.54 1967.46,-146.75 1970.51,-153.05"/>
</a>
</g>
</g>
<!-- Node35 -->
<g id="Node000035" class="node">
<title>Node35</title>
<g id="a_Node000035"><a xlink:title=" ">
<polygon fill="#e0e0e0" stroke="#999999" points="1957,-145.5 1912,-145.5 1912,-126.5 1957,-126.5 1957,-145.5"/>
<text text-anchor="middle" x="1934.5" y="-133.5" font-family="Helvetica,sans-Serif" font-size="10.00">utility</text>
</a>
</g>
</g>
<!-- Node33&#45;&gt;Node35 -->
<g id="edge62_Node000033_Node000035" class="edge">
<title>Node33&#45;&gt;Node35</title>
<g id="a_edge62_Node000033_Node000035"><a xlink:title=" ">
<path fill="none" stroke="#63b8ff" d="M1845.52,-186.95C1864.81,-176.13 1891.32,-161.24 1910.38,-150.54"/>
<polygon fill="#63b8ff" stroke="#63b8ff" points="1912.32,-153.46 1919.33,-145.52 1908.9,-147.36 1912.32,-153.46"/>
</a>
</g>
</g>
</g>
</svg>
