<?xml version="1.0" encoding="UTF-8" standalone="no"?>
<!DOCTYPE svg PUBLIC "-//W3C//DTD SVG 1.1//EN"
 "http://www.w3.org/Graphics/SVG/1.1/DTD/svg11.dtd">
<!-- Generated by graphviz version 2.43.0 (0)
 -->
<!-- Title: userver/dynamic_config/fallbacks/component.hpp Pages: 1 -->
<svg width="1183pt" height="379pt"
 viewBox="0.00 0.00 1182.61 379.00" xmlns="http://www.w3.org/2000/svg" xmlns:xlink="http://www.w3.org/1999/xlink">
<g id="graph0" class="graph" transform="scale(1 1) rotate(0) translate(4 375)">
<title>userver/dynamic_config/fallbacks/component.hpp</title>
<!-- Node1 -->
<g id="Node000001" class="node">
<title>Node1</title>
<g id="a_Node000001"><a xlink:title="Component that setup runtime configs based on fallbacks from file.">
<polygon fill="#999999" stroke="#666666" points="802.11,-371 659.11,-371 659.11,-341 802.11,-341 802.11,-371"/>
<text text-anchor="start" x="667.11" y="-359" font-family="Helvetica,sans-Serif" font-size="10.00">userver/dynamic_config</text>
<text text-anchor="middle" x="730.61" y="-348" font-family="Helvetica,sans-Serif" font-size="10.00">/fallbacks/component.hpp</text>
</a>
</g>
</g>
<!-- Node2 -->
<g id="Node000002" class="node">
<title>Node2</title>
<g id="a_Node000002"><a xlink:title=" ">
<polygon fill="#e0e0e0" stroke="#999999" points="174.11,-90.5 101.11,-90.5 101.11,-71.5 174.11,-71.5 174.11,-90.5"/>
<text text-anchor="middle" x="137.61" y="-78.5" font-family="Helvetica,sans-Serif" font-size="10.00">string_view</text>
</a>
</g>
</g>
<!-- Node1&#45;&gt;Node2 -->
<g id="edge1_Node000001_Node000002" class="edge">
<title>Node1&#45;&gt;Node2</title>
<g id="a_edge1_Node000001_Node000002"><a xlink:title=" ">
<path fill="none" stroke="#63b8ff" d="M658.86,-348.57C508.96,-334.15 168.12,-295.99 67.61,-239 20.74,-212.42 -19.72,-176.54 10.61,-132 28.49,-105.75 62.46,-93.28 90.77,-87.36"/>
<polygon fill="#63b8ff" stroke="#63b8ff" points="91.72,-90.74 100.91,-85.46 90.44,-83.86 91.72,-90.74"/>
</a>
</g>
</g>
<!-- Node3 -->
<g id="Node000003" class="node">
<title>Node3</title>
<g id="a_Node000003"><a xlink:href="../../d7/d47/component__fwd_8hpp.html" target="_top" xlink:title="Forward declarations for components::ComponentContext and components::ComponentConfig; function compo...">
<polygon fill="white" stroke="#666666" points="1174.61,-96 1056.61,-96 1056.61,-66 1174.61,-66 1174.61,-96"/>
<text text-anchor="start" x="1064.61" y="-84" font-family="Helvetica,sans-Serif" font-size="10.00">userver/components</text>
<text text-anchor="middle" x="1115.61" y="-73" font-family="Helvetica,sans-Serif" font-size="10.00">/component_fwd.hpp</text>
</a>
</g>
</g>
<!-- Node1&#45;&gt;Node3 -->
<g id="edge2_Node000001_Node000003" class="edge">
<title>Node1&#45;&gt;Node3</title>
<g id="a_edge2_Node000001_Node000003"><a xlink:title=" ">
<path fill="none" stroke="#63b8ff" d="M757.3,-340.86C775.37,-331.13 799.67,-317.7 820.61,-305 911.67,-249.77 937.37,-239.44 1020.61,-173 1048.07,-151.09 1076.82,-122.66 1095.41,-103.45"/>
<polygon fill="#63b8ff" stroke="#63b8ff" points="1098.08,-105.72 1102.48,-96.08 1093.03,-100.87 1098.08,-105.72"/>
</a>
</g>
</g>
<!-- Node5 -->
<g id="Node000005" class="node">
<title>Node5</title>
<g id="a_Node000005"><a xlink:href="../../da/d11/loggable__component__base_8hpp.html" target="_top" xlink:title="Contains components::LoggableComponentBase declaration and forward declarations of components::Compon...">
<polygon fill="white" stroke="#666666" points="1011.61,-173 889.61,-173 889.61,-132 1011.61,-132 1011.61,-173"/>
<text text-anchor="start" x="897.61" y="-161" font-family="Helvetica,sans-Serif" font-size="10.00">userver/components</text>
<text text-anchor="start" x="897.61" y="-150" font-family="Helvetica,sans-Serif" font-size="10.00">/loggable_component</text>
<text text-anchor="middle" x="950.61" y="-139" font-family="Helvetica,sans-Serif" font-size="10.00">_base.hpp</text>
</a>
</g>
</g>
<!-- Node1&#45;&gt;Node5 -->
<g id="edge4_Node000001_Node000005" class="edge">
<title>Node1&#45;&gt;Node5</title>
<g id="a_edge4_Node000001_Node000005"><a xlink:title=" ">
<path fill="none" stroke="#63b8ff" d="M747.69,-340.67C773.28,-319.06 822.92,-276.68 863.61,-239 884.23,-219.91 906.84,-197.64 923.85,-180.62"/>
<polygon fill="#63b8ff" stroke="#63b8ff" points="926.66,-182.75 931.24,-173.19 921.7,-177.81 926.66,-182.75"/>
</a>
</g>
</g>
<!-- Node7 -->
<g id="Node000007" class="node">
<title>Node7</title>
<g id="a_Node000007"><a xlink:href="../../d2/d88/core_2include_2userver_2dynamic__config_2storage_2component_8hpp.html" target="_top" xlink:title="Component that stores the runtime config.">
<polygon fill="white" stroke="#666666" points="611.11,-305 476.11,-305 476.11,-275 611.11,-275 611.11,-305"/>
<text text-anchor="start" x="484.11" y="-293" font-family="Helvetica,sans-Serif" font-size="10.00">userver/dynamic_config</text>
<text text-anchor="middle" x="543.61" y="-282" font-family="Helvetica,sans-Serif" font-size="10.00">/storage/component.hpp</text>
</a>
</g>
</g>
<!-- Node1&#45;&gt;Node7 -->
<g id="edge7_Node000001_Node000007" class="edge">
<title>Node1&#45;&gt;Node7</title>
<g id="a_edge7_Node000001_Node000007"><a xlink:title=" ">
<path fill="none" stroke="#63b8ff" d="M689.57,-340.95C661.56,-331.37 624.26,-318.6 594.38,-308.37"/>
<polygon fill="#63b8ff" stroke="#63b8ff" points="595.15,-304.94 584.55,-305.01 592.88,-311.56 595.15,-304.94"/>
</a>
</g>
</g>
<!-- Node28 -->
<g id="Node000028" class="node">
<title>Node28</title>
<g id="a_Node000028"><a xlink:href="../../d5/d81/core_2include_2userver_2dynamic__config_2updates__sink_2component_8hpp.html" target="_top" xlink:title="Base class for components acting as dynamic config updates sinks.">
<polygon fill="white" stroke="#666666" points="812.11,-239 649.11,-239 649.11,-209 812.11,-209 812.11,-239"/>
<text text-anchor="start" x="657.11" y="-227" font-family="Helvetica,sans-Serif" font-size="10.00">userver/dynamic_config</text>
<text text-anchor="middle" x="730.61" y="-216" font-family="Helvetica,sans-Serif" font-size="10.00">/updates_sink/component.hpp</text>
</a>
</g>
</g>
<!-- Node1&#45;&gt;Node28 -->
<g id="edge49_Node000001_Node000028" class="edge">
<title>Node1&#45;&gt;Node28</title>
<g id="a_edge49_Node000001_Node000028"><a xlink:title=" ">
<path fill="none" stroke="#63b8ff" d="M730.61,-340.84C730.61,-318.86 730.61,-276.27 730.61,-249.3"/>
<polygon fill="#63b8ff" stroke="#63b8ff" points="734.11,-249.14 730.61,-239.14 727.11,-249.14 734.11,-249.14"/>
</a>
</g>
</g>
<!-- Node4 -->
<g id="Node000004" class="node">
<title>Node4</title>
<g id="a_Node000004"><a xlink:title=" ">
<polygon fill="#e0e0e0" stroke="#999999" points="1137.61,-24.5 1093.61,-24.5 1093.61,-5.5 1137.61,-5.5 1137.61,-24.5"/>
<text text-anchor="middle" x="1115.61" y="-12.5" font-family="Helvetica,sans-Serif" font-size="10.00">string</text>
</a>
</g>
</g>
<!-- Node3&#45;&gt;Node4 -->
<g id="edge3_Node000003_Node000004" class="edge">
<title>Node3&#45;&gt;Node4</title>
<g id="a_edge3_Node000003_Node000004"><a xlink:title=" ">
<path fill="none" stroke="#63b8ff" d="M1115.61,-65.8C1115.61,-56.7 1115.61,-44.79 1115.61,-34.9"/>
<polygon fill="#63b8ff" stroke="#63b8ff" points="1119.11,-34.84 1115.61,-24.84 1112.11,-34.84 1119.11,-34.84"/>
</a>
</g>
</g>
<!-- Node5&#45;&gt;Node3 -->
<g id="edge5_Node000005_Node000003" class="edge">
<title>Node5&#45;&gt;Node3</title>
<g id="a_edge5_Node000005_Node000003"><a xlink:title=" ">
<path fill="none" stroke="#63b8ff" d="M997.01,-131.96C1020.89,-121.9 1049.79,-109.73 1073.08,-99.91"/>
<polygon fill="#63b8ff" stroke="#63b8ff" points="1074.51,-103.11 1082.36,-96 1071.79,-96.66 1074.51,-103.11"/>
</a>
</g>
</g>
<!-- Node6 -->
<g id="Node000006" class="node">
<title>Node6</title>
<g id="a_Node000006"><a xlink:href="../../d2/d61/component__base_8hpp_source.html" target="_top" xlink:title=" ">
<polygon fill="white" stroke="#666666" points="1038.11,-96 889.11,-96 889.11,-66 1038.11,-66 1038.11,-96"/>
<text text-anchor="start" x="897.11" y="-84" font-family="Helvetica,sans-Serif" font-size="10.00">userver/components</text>
<text text-anchor="middle" x="963.61" y="-73" font-family="Helvetica,sans-Serif" font-size="10.00">/impl/component_base.hpp</text>
</a>
</g>
</g>
<!-- Node5&#45;&gt;Node6 -->
<g id="edge6_Node000005_Node000006" class="edge">
<title>Node5&#45;&gt;Node6</title>
<g id="a_edge6_Node000005_Node000006"><a xlink:title=" ">
<path fill="none" stroke="#63b8ff" d="M954.3,-131.77C955.8,-123.76 957.55,-114.42 959.12,-106.02"/>
<polygon fill="#63b8ff" stroke="#63b8ff" points="962.59,-106.51 960.98,-96.04 955.71,-105.22 962.59,-106.51"/>
</a>
</g>
</g>
<!-- Node7&#45;&gt;Node2 -->
<g id="edge9_Node000007_Node000002" class="edge">
<title>Node7&#45;&gt;Node2</title>
<g id="a_edge9_Node000007_Node000002"><a xlink:title=" ">
<path fill="none" stroke="#63b8ff" d="M476.03,-285.19C346.37,-276.2 71.1,-248.44 21.61,-173 11.62,-157.76 11.59,-147.22 21.61,-132 37.04,-108.55 66.04,-96.05 91.19,-89.41"/>
<polygon fill="#63b8ff" stroke="#63b8ff" points="92.05,-92.8 100.95,-87.07 90.41,-86 92.05,-92.8"/>
</a>
</g>
</g>
<!-- Node7&#45;&gt;Node5 -->
<g id="edge11_Node000007_Node000005" class="edge">
<title>Node7&#45;&gt;Node5</title>
<g id="a_edge11_Node000007_Node000005"><a xlink:title=" ">
<path fill="none" stroke="#63b8ff" d="M611.17,-284.43C668.59,-278.77 752.32,-266.29 820.61,-239 857.12,-224.41 894.14,-198.77 919.28,-179.37"/>
<polygon fill="#63b8ff" stroke="#63b8ff" points="921.63,-181.97 927.34,-173.05 917.31,-176.47 921.63,-181.97"/>
</a>
</g>
</g>
<!-- Node8 -->
<g id="Node000008" class="node">
<title>Node8</title>
<g id="a_Node000008"><a xlink:title=" ">
<polygon fill="#e0e0e0" stroke="#999999" points="759.61,-162 701.61,-162 701.61,-143 759.61,-143 759.61,-162"/>
<text text-anchor="middle" x="730.61" y="-150" font-family="Helvetica,sans-Serif" font-size="10.00">memory</text>
</a>
</g>
</g>
<!-- Node7&#45;&gt;Node8 -->
<g id="edge8_Node000007_Node000008" class="edge">
<title>Node7&#45;&gt;Node8</title>
<g id="a_edge8_Node000007_Node000008"><a xlink:title=" ">
<path fill="none" stroke="#63b8ff" d="M559.01,-274.96C577.51,-258.37 609.8,-230.34 639.61,-209 661.37,-193.43 687.57,-177.74 706.26,-167.04"/>
<polygon fill="#63b8ff" stroke="#63b8ff" points="708.06,-170.04 715.04,-162.07 704.61,-163.95 708.06,-170.04"/>
</a>
</g>
</g>
<!-- Node9 -->
<g id="Node000009" class="node">
<title>Node9</title>
<g id="a_Node000009"><a xlink:title=" ">
<polygon fill="#e0e0e0" stroke="#999999" points="556.11,-24.5 487.11,-24.5 487.11,-5.5 556.11,-5.5 556.11,-24.5"/>
<text text-anchor="middle" x="521.61" y="-12.5" font-family="Helvetica,sans-Serif" font-size="10.00">type_traits</text>
</a>
</g>
</g>
<!-- Node7&#45;&gt;Node9 -->
<g id="edge10_Node000007_Node000009" class="edge">
<title>Node7&#45;&gt;Node9</title>
<g id="a_edge10_Node000007_Node000009"><a xlink:title=" ">
<path fill="none" stroke="#63b8ff" d="M542.46,-274.71C538.77,-228.91 527.24,-85.83 523.1,-34.53"/>
<polygon fill="#63b8ff" stroke="#63b8ff" points="526.59,-34.24 522.3,-24.55 519.61,-34.8 526.59,-34.24"/>
</a>
</g>
</g>
<!-- Node10 -->
<g id="Node000010" class="node">
<title>Node10</title>
<g id="a_Node000010"><a xlink:href="../../d4/de4/async__event__source_8hpp.html" target="_top" xlink:title="The read&#45;only side of an event channel. Events are delivered to listeners in a strict FIFO order,...">
<polygon fill="white" stroke="#666666" points="455.61,-167.5 315.61,-167.5 315.61,-137.5 455.61,-137.5 455.61,-167.5"/>
<text text-anchor="start" x="323.61" y="-155.5" font-family="Helvetica,sans-Serif" font-size="10.00">userver/concurrent</text>
<text text-anchor="middle" x="385.61" y="-144.5" font-family="Helvetica,sans-Serif" font-size="10.00">/async_event_source.hpp</text>
</a>
</g>
</g>
<!-- Node7&#45;&gt;Node10 -->
<g id="edge12_Node000007_Node000010" class="edge">
<title>Node7&#45;&gt;Node10</title>
<g id="a_edge12_Node000007_Node000010"><a xlink:title=" ">
<path fill="none" stroke="#63b8ff" d="M520.09,-274.81C505.1,-265.37 485.58,-252.29 469.61,-239 445.76,-219.14 421.18,-193.4 404.83,-175.37"/>
<polygon fill="#63b8ff" stroke="#63b8ff" points="407.21,-172.78 397.92,-167.68 402,-177.46 407.21,-172.78"/>
</a>
</g>
</g>
<!-- Node15 -->
<g id="Node000015" class="node">
<title>Node15</title>
<g id="a_Node000015"><a xlink:href="../../df/d22/snapshot_8hpp.html" target="_top" xlink:title="The storage for a snapshot of configs.">
<polygon fill="white" stroke="#666666" points="683.11,-167.5 550.11,-167.5 550.11,-137.5 683.11,-137.5 683.11,-167.5"/>
<text text-anchor="start" x="558.11" y="-155.5" font-family="Helvetica,sans-Serif" font-size="10.00">userver/dynamic_config</text>
<text text-anchor="middle" x="616.61" y="-144.5" font-family="Helvetica,sans-Serif" font-size="10.00">/snapshot.hpp</text>
</a>
</g>
</g>
<!-- Node7&#45;&gt;Node15 -->
<g id="edge18_Node000007_Node000015" class="edge">
<title>Node7&#45;&gt;Node15</title>
<g id="a_edge18_Node000007_Node000015"><a xlink:title=" ">
<path fill="none" stroke="#63b8ff" d="M551.28,-274.76C563.86,-251.42 588.96,-204.82 604.13,-176.67"/>
<polygon fill="#63b8ff" stroke="#63b8ff" points="607.38,-178.02 609.04,-167.55 601.21,-174.7 607.38,-178.02"/>
</a>
</g>
</g>
<!-- Node23 -->
<g id="Node000023" class="node">
<title>Node23</title>
<g id="a_Node000023"><a xlink:href="../../d5/d02/fast__pimpl_8hpp.html" target="_top" xlink:title="Implements pimpl idiom without dynamic memory allocation.">
<polygon fill="white" stroke="#666666" points="493.11,-96 394.11,-96 394.11,-66 493.11,-66 493.11,-96"/>
<text text-anchor="start" x="402.11" y="-84" font-family="Helvetica,sans-Serif" font-size="10.00">userver/utils/fast</text>
<text text-anchor="middle" x="443.61" y="-73" font-family="Helvetica,sans-Serif" font-size="10.00">_pimpl.hpp</text>
</a>
</g>
</g>
<!-- Node7&#45;&gt;Node23 -->
<g id="edge48_Node000007_Node000023" class="edge">
<title>Node7&#45;&gt;Node23</title>
<g id="a_edge48_Node000007_Node000023"><a xlink:title=" ">
<path fill="none" stroke="#63b8ff" d="M531.92,-274.74C524.35,-265.06 514.62,-251.74 507.61,-239 482.9,-194.1 484.09,-179.41 464.61,-132 461.1,-123.46 457.2,-114.12 453.72,-105.85"/>
<polygon fill="#63b8ff" stroke="#63b8ff" points="456.85,-104.27 449.73,-96.42 450.4,-106.99 456.85,-104.27"/>
</a>
</g>
</g>
<!-- Node25 -->
<g id="Node000025" class="node">
<title>Node25</title>
<g id="a_Node000025"><a xlink:href="../../d2/d2e/source_8hpp.html" target="_top" xlink:title="A client for easy dynamic config fetching in components.">
<polygon fill="white" stroke="#666666" points="316.11,-239 183.11,-239 183.11,-209 316.11,-209 316.11,-239"/>
<text text-anchor="start" x="191.11" y="-227" font-family="Helvetica,sans-Serif" font-size="10.00">userver/dynamic_config</text>
<text text-anchor="middle" x="249.61" y="-216" font-family="Helvetica,sans-Serif" font-size="10.00">/source.hpp</text>
</a>
</g>
</g>
<!-- Node7&#45;&gt;Node25 -->
<g id="edge35_Node000007_Node000025" class="edge">
<title>Node7&#45;&gt;Node25</title>
<g id="a_edge35_Node000007_Node000025"><a xlink:title=" ">
<path fill="none" stroke="#63b8ff" d="M479.09,-274.95C433.33,-264.99 371.79,-251.6 323.97,-241.19"/>
<polygon fill="#63b8ff" stroke="#63b8ff" points="324.5,-237.72 313.98,-239.01 323.01,-244.56 324.5,-237.72"/>
</a>
</g>
</g>
<!-- Node7&#45;&gt;Node28 -->
<g id="edge43_Node000007_Node000028" class="edge">
<title>Node7&#45;&gt;Node28</title>
<g id="a_edge43_Node000007_Node000028"><a xlink:title=" ">
<path fill="none" stroke="#63b8ff" d="M584.65,-274.95C612.66,-265.37 649.96,-252.6 679.84,-242.37"/>
<polygon fill="#63b8ff" stroke="#63b8ff" points="681.34,-245.56 689.67,-239.01 679.07,-238.94 681.34,-245.56"/>
</a>
</g>
</g>
<!-- Node10&#45;&gt;Node2 -->
<g id="edge15_Node000010_Node000002" class="edge">
<title>Node10&#45;&gt;Node2</title>
<g id="a_edge15_Node000010_Node000002"><a xlink:title=" ">
<path fill="none" stroke="#63b8ff" d="M335.42,-137.44C289.04,-124.44 220.99,-105.37 178.01,-93.32"/>
<polygon fill="#63b8ff" stroke="#63b8ff" points="178.76,-89.9 168.18,-90.57 176.87,-96.64 178.76,-89.9"/>
</a>
</g>
</g>
<!-- Node11 -->
<g id="Node000011" class="node">
<title>Node11</title>
<g id="a_Node000011"><a xlink:title=" ">
<polygon fill="#e0e0e0" stroke="#999999" points="469.11,-24.5 416.11,-24.5 416.11,-5.5 469.11,-5.5 469.11,-24.5"/>
<text text-anchor="middle" x="442.61" y="-12.5" font-family="Helvetica,sans-Serif" font-size="10.00">cstddef</text>
</a>
</g>
</g>
<!-- Node10&#45;&gt;Node11 -->
<g id="edge13_Node000010_Node000011" class="edge">
<title>Node10&#45;&gt;Node11</title>
<g id="a_edge13_Node000010_Node000011"><a xlink:title=" ">
<path fill="none" stroke="#63b8ff" d="M381.92,-137.42C378.08,-119.83 373.97,-89.21 384.61,-66 391.47,-51.02 405.28,-38.83 417.71,-30.23"/>
<polygon fill="#63b8ff" stroke="#63b8ff" points="419.89,-32.99 426.39,-24.62 416.09,-27.11 419.89,-32.99"/>
</a>
</g>
</g>
<!-- Node12 -->
<g id="Node000012" class="node">
<title>Node12</title>
<g id="a_Node000012"><a xlink:title=" ">
<polygon fill="#e0e0e0" stroke="#999999" points="337.11,-90.5 272.11,-90.5 272.11,-71.5 337.11,-71.5 337.11,-90.5"/>
<text text-anchor="middle" x="304.61" y="-78.5" font-family="Helvetica,sans-Serif" font-size="10.00">functional</text>
</a>
</g>
</g>
<!-- Node10&#45;&gt;Node12 -->
<g id="edge14_Node000010_Node000012" class="edge">
<title>Node10&#45;&gt;Node12</title>
<g id="a_edge14_Node000010_Node000012"><a xlink:title=" ">
<path fill="none" stroke="#63b8ff" d="M369.22,-137.44C355.74,-125.87 336.67,-109.51 322.74,-97.56"/>
<polygon fill="#63b8ff" stroke="#63b8ff" points="324.7,-94.62 314.83,-90.77 320.14,-99.94 324.7,-94.62"/>
</a>
</g>
</g>
<!-- Node13 -->
<g id="Node000013" class="node">
<title>Node13</title>
<g id="a_Node000013"><a xlink:title=" ">
<polygon fill="#e0e0e0" stroke="#999999" points="631.11,-24.5 574.11,-24.5 574.11,-5.5 631.11,-5.5 631.11,-24.5"/>
<text text-anchor="middle" x="602.61" y="-12.5" font-family="Helvetica,sans-Serif" font-size="10.00">typeinfo</text>
</a>
</g>
</g>
<!-- Node10&#45;&gt;Node13 -->
<g id="edge16_Node000010_Node000013" class="edge">
<title>Node10&#45;&gt;Node13</title>
<g id="a_edge16_Node000010_Node000013"><a xlink:title=" ">
<path fill="none" stroke="#63b8ff" d="M420.17,-137.39C443.81,-127.17 475.48,-112.31 501.61,-96 533.02,-76.39 566.03,-48.7 585.44,-31.57"/>
<polygon fill="#63b8ff" stroke="#63b8ff" points="587.99,-33.99 593.12,-24.72 583.33,-28.77 587.99,-33.99"/>
</a>
</g>
</g>
<!-- Node14 -->
<g id="Node000014" class="node">
<title>Node14</title>
<g id="a_Node000014"><a xlink:title=" ">
<polygon fill="#e0e0e0" stroke="#999999" points="266.11,-24.5 221.11,-24.5 221.11,-5.5 266.11,-5.5 266.11,-24.5"/>
<text text-anchor="middle" x="243.61" y="-12.5" font-family="Helvetica,sans-Serif" font-size="10.00">utility</text>
</a>
</g>
</g>
<!-- Node10&#45;&gt;Node14 -->
<g id="edge17_Node000010_Node000014" class="edge">
<title>Node10&#45;&gt;Node14</title>
<g id="a_edge17_Node000010_Node000014"><a xlink:title=" ">
<path fill="none" stroke="#63b8ff" d="M327.55,-137.44C304.26,-129.03 279.09,-115.96 262.61,-96 248.3,-78.66 244.4,-52.38 243.53,-34.72"/>
<polygon fill="#63b8ff" stroke="#63b8ff" points="247.02,-34.46 243.31,-24.54 240.02,-34.61 247.02,-34.46"/>
</a>
</g>
</g>
<!-- Node15&#45;&gt;Node9 -->
<g id="edge20_Node000015_Node000009" class="edge">
<title>Node15&#45;&gt;Node9</title>
<g id="a_edge20_Node000015_Node000009"><a xlink:title=" ">
<path fill="none" stroke="#63b8ff" d="M606.62,-137.26C588.98,-112.09 552.38,-59.89 533.48,-32.93"/>
<polygon fill="#63b8ff" stroke="#63b8ff" points="536.2,-30.71 527.59,-24.53 530.47,-34.73 536.2,-30.71"/>
</a>
</g>
</g>
<!-- Node16 -->
<g id="Node000016" class="node">
<title>Node16</title>
<g id="a_Node000016"><a xlink:title=" ">
<polygon fill="#e0e0e0" stroke="#999999" points="681.61,-90.5 625.61,-90.5 625.61,-71.5 681.61,-71.5 681.61,-90.5"/>
<text text-anchor="middle" x="653.61" y="-78.5" font-family="Helvetica,sans-Serif" font-size="10.00">optional</text>
</a>
</g>
</g>
<!-- Node15&#45;&gt;Node16 -->
<g id="edge19_Node000015_Node000016" class="edge">
<title>Node15&#45;&gt;Node16</title>
<g id="a_edge19_Node000015_Node000016"><a xlink:title=" ">
<path fill="none" stroke="#63b8ff" d="M624.1,-137.44C629.9,-126.53 637.99,-111.35 644.23,-99.63"/>
<polygon fill="#63b8ff" stroke="#63b8ff" points="647.33,-101.24 648.94,-90.77 641.15,-97.95 647.33,-101.24"/>
</a>
</g>
</g>
<!-- Node17 -->
<g id="Node000017" class="node">
<title>Node17</title>
<g id="a_Node000017"><a xlink:href="../../d8/d20/impl_2snapshot_8hpp_source.html" target="_top" xlink:title=" ">
<polygon fill="white" stroke="#666666" points="833.11,-96 700.11,-96 700.11,-66 833.11,-66 833.11,-96"/>
<text text-anchor="start" x="708.11" y="-84" font-family="Helvetica,sans-Serif" font-size="10.00">userver/dynamic_config</text>
<text text-anchor="middle" x="766.61" y="-73" font-family="Helvetica,sans-Serif" font-size="10.00">/impl/snapshot.hpp</text>
</a>
</g>
</g>
<!-- Node15&#45;&gt;Node17 -->
<g id="edge21_Node000015_Node000017" class="edge">
<title>Node15&#45;&gt;Node17</title>
<g id="a_edge21_Node000015_Node000017"><a xlink:title=" ">
<path fill="none" stroke="#63b8ff" d="M646.97,-137.44C670.04,-126.74 701.98,-111.94 727.06,-100.33"/>
<polygon fill="#63b8ff" stroke="#63b8ff" points="728.7,-103.42 736.3,-96.04 725.76,-97.07 728.7,-103.42"/>
</a>
</g>
</g>
<!-- Node15&#45;&gt;Node23 -->
<g id="edge30_Node000015_Node000023" class="edge">
<title>Node15&#45;&gt;Node23</title>
<g id="a_edge30_Node000015_Node000023"><a xlink:title=" ">
<path fill="none" stroke="#63b8ff" d="M581.6,-137.44C554.63,-126.6 517.17,-111.55 488.08,-99.87"/>
<polygon fill="#63b8ff" stroke="#63b8ff" points="489.15,-96.52 478.57,-96.04 486.54,-103.02 489.15,-96.52"/>
</a>
</g>
</g>
<!-- Node17&#45;&gt;Node9 -->
<g id="edge25_Node000017_Node000009" class="edge">
<title>Node17&#45;&gt;Node9</title>
<g id="a_edge25_Node000017_Node000009"><a xlink:title=" ">
<path fill="none" stroke="#63b8ff" d="M704.87,-65.94C664.71,-56.49 611.33,-43.37 564.61,-30 562.01,-29.26 559.33,-28.46 556.64,-27.64"/>
<polygon fill="#63b8ff" stroke="#63b8ff" points="557.57,-24.26 546.98,-24.6 555.47,-30.94 557.57,-24.26"/>
</a>
</g>
</g>
<!-- Node17&#45;&gt;Node11 -->
<g id="edge23_Node000017_Node000011" class="edge">
<title>Node17&#45;&gt;Node11</title>
<g id="a_edge23_Node000017_Node000011"><a xlink:title=" ">
<path fill="none" stroke="#63b8ff" d="M699.89,-67.65C696.76,-67.09 693.65,-66.54 690.61,-66 596.06,-49.3 570.04,-55.98 477.61,-30 475.67,-29.46 473.7,-28.84 471.72,-28.18"/>
<polygon fill="#63b8ff" stroke="#63b8ff" points="472.57,-24.76 461.98,-24.6 470.16,-31.33 472.57,-24.76"/>
</a>
</g>
</g>
<!-- Node17&#45;&gt;Node13 -->
<g id="edge27_Node000017_Node000013" class="edge">
<title>Node17&#45;&gt;Node13</title>
<g id="a_edge27_Node000017_Node000013"><a xlink:title=" ">
<path fill="none" stroke="#63b8ff" d="M730.62,-65.95C701.73,-54.68 661.58,-39.01 633.99,-28.25"/>
<polygon fill="#63b8ff" stroke="#63b8ff" points="635.02,-24.89 624.44,-24.52 632.48,-31.41 635.02,-24.89"/>
</a>
</g>
</g>
<!-- Node18 -->
<g id="Node000018" class="node">
<title>Node18</title>
<g id="a_Node000018"><a xlink:title=" ">
<polygon fill="#e0e0e0" stroke="#999999" points="832.11,-24.5 797.11,-24.5 797.11,-5.5 832.11,-5.5 832.11,-24.5"/>
<text text-anchor="middle" x="814.61" y="-12.5" font-family="Helvetica,sans-Serif" font-size="10.00">any</text>
</a>
</g>
</g>
<!-- Node17&#45;&gt;Node18 -->
<g id="edge22_Node000017_Node000018" class="edge">
<title>Node17&#45;&gt;Node18</title>
<g id="a_edge22_Node000017_Node000018"><a xlink:title=" ">
<path fill="none" stroke="#63b8ff" d="M777.26,-65.8C784.53,-56.11 794.18,-43.24 801.85,-33.01"/>
<polygon fill="#63b8ff" stroke="#63b8ff" points="804.78,-34.94 807.98,-24.84 799.18,-30.74 804.78,-34.94"/>
</a>
</g>
</g>
<!-- Node19 -->
<g id="Node000019" class="node">
<title>Node19</title>
<g id="a_Node000019"><a xlink:title=" ">
<polygon fill="#e0e0e0" stroke="#999999" points="915.11,-24.5 850.11,-24.5 850.11,-5.5 915.11,-5.5 915.11,-24.5"/>
<text text-anchor="middle" x="882.61" y="-12.5" font-family="Helvetica,sans-Serif" font-size="10.00">exception</text>
</a>
</g>
</g>
<!-- Node17&#45;&gt;Node19 -->
<g id="edge24_Node000017_Node000019" class="edge">
<title>Node17&#45;&gt;Node19</title>
<g id="a_edge24_Node000017_Node000019"><a xlink:title=" ">
<path fill="none" stroke="#63b8ff" d="M792.07,-65.95C811.78,-55.08 838.92,-40.11 858.33,-29.4"/>
<polygon fill="#63b8ff" stroke="#63b8ff" points="860.11,-32.41 867.17,-24.52 856.73,-26.28 860.11,-32.41"/>
</a>
</g>
</g>
<!-- Node20 -->
<g id="Node000020" class="node">
<title>Node20</title>
<g id="a_Node000020"><a xlink:title=" ">
<polygon fill="#e0e0e0" stroke="#999999" points="714.11,-24.5 649.11,-24.5 649.11,-5.5 714.11,-5.5 714.11,-24.5"/>
<text text-anchor="middle" x="681.61" y="-12.5" font-family="Helvetica,sans-Serif" font-size="10.00">typeindex</text>
</a>
</g>
</g>
<!-- Node17&#45;&gt;Node20 -->
<g id="edge26_Node000017_Node000020" class="edge">
<title>Node17&#45;&gt;Node20</title>
<g id="a_edge26_Node000017_Node000020"><a xlink:title=" ">
<path fill="none" stroke="#63b8ff" d="M747.75,-65.8C733.97,-55.43 715.35,-41.4 701.37,-30.88"/>
<polygon fill="#63b8ff" stroke="#63b8ff" points="703.45,-28.06 693.36,-24.84 699.24,-33.66 703.45,-28.06"/>
</a>
</g>
</g>
<!-- Node21 -->
<g id="Node000021" class="node">
<title>Node21</title>
<g id="a_Node000021"><a xlink:title=" ">
<polygon fill="#e0e0e0" stroke="#999999" points="779.11,-24.5 732.11,-24.5 732.11,-5.5 779.11,-5.5 779.11,-24.5"/>
<text text-anchor="middle" x="755.61" y="-12.5" font-family="Helvetica,sans-Serif" font-size="10.00">vector</text>
</a>
</g>
</g>
<!-- Node17&#45;&gt;Node21 -->
<g id="edge28_Node000017_Node000021" class="edge">
<title>Node17&#45;&gt;Node21</title>
<g id="a_edge28_Node000017_Node000021"><a xlink:title=" ">
<path fill="none" stroke="#63b8ff" d="M764.17,-65.8C762.61,-56.7 760.56,-44.79 758.86,-34.9"/>
<polygon fill="#63b8ff" stroke="#63b8ff" points="762.27,-34.11 757.13,-24.84 755.38,-35.29 762.27,-34.11"/>
</a>
</g>
</g>
<!-- Node22 -->
<g id="Node000022" class="node">
<title>Node22</title>
<g id="a_Node000022"><a xlink:href="../../df/d7e/core_2include_2userver_2dynamic__config_2fwd_8hpp.html" target="_top" xlink:title="Forward declarations of dynamic_config classes.">
<polygon fill="white" stroke="#666666" points="1066.11,-30 933.11,-30 933.11,0 1066.11,0 1066.11,-30"/>
<text text-anchor="start" x="941.11" y="-18" font-family="Helvetica,sans-Serif" font-size="10.00">userver/dynamic_config</text>
<text text-anchor="middle" x="999.61" y="-7" font-family="Helvetica,sans-Serif" font-size="10.00">/fwd.hpp</text>
</a>
</g>
</g>
<!-- Node17&#45;&gt;Node22 -->
<g id="edge29_Node000017_Node000022" class="edge">
<title>Node17&#45;&gt;Node22</title>
<g id="a_edge29_Node000017_Node000022"><a xlink:title=" ">
<path fill="none" stroke="#63b8ff" d="M817.74,-65.95C853.4,-56.16 901.15,-43.05 938.77,-32.71"/>
<polygon fill="#63b8ff" stroke="#63b8ff" points="939.88,-36.04 948.6,-30.01 938.03,-29.29 939.88,-36.04"/>
</a>
</g>
</g>
<!-- Node23&#45;&gt;Node9 -->
<g id="edge33_Node000023_Node000009" class="edge">
<title>Node23&#45;&gt;Node9</title>
<g id="a_edge33_Node000023_Node000009"><a xlink:title=" ">
<path fill="none" stroke="#63b8ff" d="M460.92,-65.8C473.32,-55.62 490.01,-41.93 502.74,-31.48"/>
<polygon fill="#63b8ff" stroke="#63b8ff" points="505.32,-33.89 510.83,-24.84 500.88,-28.48 505.32,-33.89"/>
</a>
</g>
</g>
<!-- Node23&#45;&gt;Node11 -->
<g id="edge31_Node000023_Node000011" class="edge">
<title>Node23&#45;&gt;Node11</title>
<g id="a_edge31_Node000023_Node000011"><a xlink:title=" ">
<path fill="none" stroke="#63b8ff" d="M443.39,-65.8C443.25,-56.7 443.06,-44.79 442.91,-34.9"/>
<polygon fill="#63b8ff" stroke="#63b8ff" points="446.4,-34.79 442.75,-24.84 439.41,-34.9 446.4,-34.79"/>
</a>
</g>
</g>
<!-- Node23&#45;&gt;Node14 -->
<g id="edge34_Node000023_Node000014" class="edge">
<title>Node23&#45;&gt;Node14</title>
<g id="a_edge34_Node000023_Node000014"><a xlink:title=" ">
<path fill="none" stroke="#63b8ff" d="M399.72,-65.95C362.41,-54.02 309.7,-37.15 276.09,-26.39"/>
<polygon fill="#63b8ff" stroke="#63b8ff" points="276.9,-22.98 266.31,-23.26 274.77,-29.65 276.9,-22.98"/>
</a>
</g>
</g>
<!-- Node24 -->
<g id="Node000024" class="node">
<title>Node24</title>
<g id="a_Node000024"><a xlink:title=" ">
<polygon fill="#e0e0e0" stroke="#999999" points="398.11,-24.5 361.11,-24.5 361.11,-5.5 398.11,-5.5 398.11,-24.5"/>
<text text-anchor="middle" x="379.61" y="-12.5" font-family="Helvetica,sans-Serif" font-size="10.00">new</text>
</a>
</g>
</g>
<!-- Node23&#45;&gt;Node24 -->
<g id="edge32_Node000023_Node000024" class="edge">
<title>Node23&#45;&gt;Node24</title>
<g id="a_edge32_Node000023_Node000024"><a xlink:title=" ">
<path fill="none" stroke="#63b8ff" d="M429.41,-65.8C419.43,-55.82 406.07,-42.46 395.7,-32.09"/>
<polygon fill="#63b8ff" stroke="#63b8ff" points="398,-29.44 388.45,-24.84 393.05,-34.39 398,-29.44"/>
</a>
</g>
</g>
<!-- Node25&#45;&gt;Node2 -->
<g id="edge36_Node000025_Node000002" class="edge">
<title>Node25&#45;&gt;Node2</title>
<g id="a_edge36_Node000025_Node000002"><a xlink:title=" ">
<path fill="none" stroke="#63b8ff" d="M249.99,-208.89C249.79,-189.63 246.82,-154.88 229.61,-132 216.4,-114.43 195.14,-102.3 176.39,-94.4"/>
<polygon fill="#63b8ff" stroke="#63b8ff" points="177.45,-91.05 166.87,-90.64 174.88,-97.56 177.45,-91.05"/>
</a>
</g>
</g>
<!-- Node25&#45;&gt;Node10 -->
<g id="edge39_Node000025_Node000010" class="edge">
<title>Node25&#45;&gt;Node10</title>
<g id="a_edge39_Node000025_Node000010"><a xlink:title=" ">
<path fill="none" stroke="#63b8ff" d="M277.13,-208.94C297.87,-198.34 326.51,-183.7 349.15,-172.13"/>
<polygon fill="#63b8ff" stroke="#63b8ff" points="350.82,-175.21 358.13,-167.54 347.63,-168.98 350.82,-175.21"/>
</a>
</g>
</g>
<!-- Node25&#45;&gt;Node14 -->
<g id="edge38_Node000025_Node000014" class="edge">
<title>Node25&#45;&gt;Node14</title>
<g id="a_edge38_Node000025_Node000014"><a xlink:title=" ">
<path fill="none" stroke="#63b8ff" d="M182.92,-217.5C123.05,-211.02 41.58,-197.83 21.61,-173 -38.3,-98.53 135.43,-43.65 210.7,-23.95"/>
<polygon fill="#63b8ff" stroke="#63b8ff" points="211.81,-27.28 220.63,-21.41 210.08,-20.5 211.81,-27.28"/>
</a>
</g>
</g>
<!-- Node25&#45;&gt;Node15 -->
<g id="edge40_Node000025_Node000015" class="edge">
<title>Node25&#45;&gt;Node15</title>
<g id="a_edge40_Node000025_Node000015"><a xlink:title=" ">
<path fill="none" stroke="#63b8ff" d="M316.5,-210.33C379.52,-198.4 473.89,-180.53 539.93,-168.02"/>
<polygon fill="#63b8ff" stroke="#63b8ff" points="540.7,-171.44 549.87,-166.14 539.4,-164.56 540.7,-171.44"/>
</a>
</g>
</g>
<!-- Node26 -->
<g id="Node000026" class="node">
<title>Node26</title>
<g id="a_Node000026"><a xlink:title=" ">
<polygon fill="#e0e0e0" stroke="#999999" points="221.11,-162 180.11,-162 180.11,-143 221.11,-143 221.11,-162"/>
<text text-anchor="middle" x="200.61" y="-150" font-family="Helvetica,sans-Serif" font-size="10.00">tuple</text>
</a>
</g>
</g>
<!-- Node25&#45;&gt;Node26 -->
<g id="edge37_Node000025_Node000026" class="edge">
<title>Node25&#45;&gt;Node26</title>
<g id="a_edge37_Node000025_Node000026"><a xlink:title=" ">
<path fill="none" stroke="#63b8ff" d="M239.69,-208.94C231.93,-197.92 221.09,-182.54 212.79,-170.78"/>
<polygon fill="#63b8ff" stroke="#63b8ff" points="215.41,-168.42 206.79,-162.27 209.69,-172.46 215.41,-168.42"/>
</a>
</g>
</g>
<!-- Node27 -->
<g id="Node000027" class="node">
<title>Node27</title>
<g id="a_Node000027"><a xlink:href="../../d2/d54/assert_8hpp.html" target="_top" xlink:title="Assertion macros UASSERT, UASSERT_MSG, UINVARIANT.">
<polygon fill="white" stroke="#666666" points="162.11,-162 31.11,-162 31.11,-143 162.11,-143 162.11,-162"/>
<text text-anchor="middle" x="96.61" y="-150" font-family="Helvetica,sans-Serif" font-size="10.00">userver/utils/assert.hpp</text>
</a>
</g>
</g>
<!-- Node25&#45;&gt;Node27 -->
<g id="edge41_Node000025_Node000027" class="edge">
<title>Node25&#45;&gt;Node27</title>
<g id="a_edge41_Node000025_Node000027"><a xlink:title=" ">
<path fill="none" stroke="#63b8ff" d="M218.65,-208.94C191.12,-196.43 151.22,-178.31 124.62,-166.22"/>
<polygon fill="#63b8ff" stroke="#63b8ff" points="126.02,-163.02 115.47,-162.07 123.13,-169.39 126.02,-163.02"/>
</a>
</g>
</g>
<!-- Node27&#45;&gt;Node2 -->
<g id="edge42_Node000027_Node000002" class="edge">
<title>Node27&#45;&gt;Node2</title>
<g id="a_edge42_Node000027_Node000002"><a xlink:title=" ">
<path fill="none" stroke="#63b8ff" d="M101.64,-142.98C108.03,-132.14 119.23,-113.16 127.43,-99.25"/>
<polygon fill="#63b8ff" stroke="#63b8ff" points="130.48,-100.98 132.54,-90.59 124.45,-97.43 130.48,-100.98"/>
</a>
</g>
</g>
<!-- Node28&#45;&gt;Node2 -->
<g id="edge45_Node000028_Node000002" class="edge">
<title>Node28&#45;&gt;Node2</title>
<g id="a_edge45_Node000028_Node000002"><a xlink:title=" ">
<path fill="none" stroke="#63b8ff" d="M649.09,-218.49C543.81,-211.8 366.93,-197.33 306.61,-173 278.66,-161.73 278.61,-147.23 252.61,-132 226.47,-116.69 194.78,-103.26 171.29,-94.18"/>
<polygon fill="#63b8ff" stroke="#63b8ff" points="172.36,-90.84 161.76,-90.56 169.87,-97.38 172.36,-90.84"/>
</a>
</g>
</g>
<!-- Node28&#45;&gt;Node5 -->
<g id="edge46_Node000028_Node000005" class="edge">
<title>Node28&#45;&gt;Node5</title>
<g id="a_edge46_Node000028_Node000005"><a xlink:title=" ">
<path fill="none" stroke="#63b8ff" d="M775.13,-208.94C805.2,-199.44 845.53,-186.7 879.95,-175.82"/>
<polygon fill="#63b8ff" stroke="#63b8ff" points="881,-179.16 889.48,-172.81 878.89,-172.49 881,-179.16"/>
</a>
</g>
</g>
<!-- Node28&#45;&gt;Node8 -->
<g id="edge44_Node000028_Node000008" class="edge">
<title>Node28&#45;&gt;Node8</title>
<g id="a_edge44_Node000028_Node000008"><a xlink:title=" ">
<path fill="none" stroke="#63b8ff" d="M730.61,-208.94C730.61,-198.46 730.61,-184.05 730.61,-172.55"/>
<polygon fill="#63b8ff" stroke="#63b8ff" points="734.11,-172.27 730.61,-162.27 727.11,-172.27 734.11,-172.27"/>
</a>
</g>
</g>
<!-- Node28&#45;&gt;Node22 -->
<g id="edge47_Node000028_Node000022" class="edge">
<title>Node28&#45;&gt;Node22</title>
<g id="a_edge47_Node000028_Node000022"><a xlink:title=" ">
<path fill="none" stroke="#63b8ff" d="M740.75,-208.99C763.02,-179.1 819.13,-108.33 880.61,-66 900.14,-52.55 923.85,-41.68 944.95,-33.55"/>
<polygon fill="#63b8ff" stroke="#63b8ff" points="946.29,-36.79 954.44,-30.01 943.85,-30.23 946.29,-36.79"/>
</a>
</g>
</g>
</g>
</svg>
