<?xml version="1.0" encoding="UTF-8" standalone="no"?>
<!DOCTYPE svg PUBLIC "-//W3C//DTD SVG 1.1//EN"
 "http://www.w3.org/Graphics/SVG/1.1/DTD/svg11.dtd">
<!-- Generated by graphviz version 2.43.0 (0)
 -->
<!-- Title: userver/testsuite/cache_control.hpp Pages: 1 -->
<svg width="1245pt" height="291pt"
 viewBox="0.00 0.00 1245.00 291.00" xmlns="http://www.w3.org/2000/svg" xmlns:xlink="http://www.w3.org/1999/xlink">
<g id="graph0" class="graph" transform="scale(1 1) rotate(0) translate(4 287)">
<title>userver/testsuite/cache_control.hpp</title>
<!-- Node1 -->
<g id="Node000001" class="node">
<title>Node1</title>
<g id="a_Node000001"><a xlink:title="Periodically updated caches control interface for testsuite.">
<polygon fill="#999999" stroke="#666666" points="942,-283 811,-283 811,-253 942,-253 942,-283"/>
<text text-anchor="start" x="819" y="-271" font-family="Helvetica,sans-Serif" font-size="10.00">userver/testsuite/cache</text>
<text text-anchor="middle" x="876.5" y="-260" font-family="Helvetica,sans-Serif" font-size="10.00">_control.hpp</text>
</a>
</g>
</g>
<!-- Node2 -->
<g id="Node000002" class="node">
<title>Node2</title>
<g id="a_Node000002"><a xlink:title=" ">
<polygon fill="#e0e0e0" stroke="#999999" points="65,-79.5 0,-79.5 0,-60.5 65,-60.5 65,-79.5"/>
<text text-anchor="middle" x="32.5" y="-67.5" font-family="Helvetica,sans-Serif" font-size="10.00">functional</text>
</a>
</g>
</g>
<!-- Node1&#45;&gt;Node2 -->
<g id="edge1_Node000001_Node000002" class="edge">
<title>Node1&#45;&gt;Node2</title>
<g id="a_edge1_Node000001_Node000002"><a xlink:title=" ">
<path fill="none" stroke="#63b8ff" d="M810.89,-262.77C648.78,-251.41 233.78,-216.6 113.5,-151 84.57,-135.22 58.97,-106.07 44.63,-87.65"/>
<polygon fill="#63b8ff" stroke="#63b8ff" points="47.35,-85.44 38.53,-79.57 41.76,-89.66 47.35,-85.44"/>
</a>
</g>
</g>
<!-- Node3 -->
<g id="Node000003" class="node">
<title>Node3</title>
<g id="a_Node000003"><a xlink:title=" ">
<polygon fill="#e0e0e0" stroke="#999999" points="1131.5,-145.5 1087.5,-145.5 1087.5,-126.5 1131.5,-126.5 1131.5,-145.5"/>
<text text-anchor="middle" x="1109.5" y="-133.5" font-family="Helvetica,sans-Serif" font-size="10.00">string</text>
</a>
</g>
</g>
<!-- Node1&#45;&gt;Node3 -->
<g id="edge2_Node000001_Node000003" class="edge">
<title>Node1&#45;&gt;Node3</title>
<g id="a_edge2_Node000001_Node000003"><a xlink:title=" ">
<path fill="none" stroke="#63b8ff" d="M884,-252.82C894.3,-234.75 914.54,-203.85 940.5,-187 993.67,-152.5 1018.74,-172.12 1078.5,-151 1079.89,-150.51 1081.31,-149.98 1082.73,-149.42"/>
<polygon fill="#63b8ff" stroke="#63b8ff" points="1084.15,-152.63 1092.01,-145.52 1081.43,-146.17 1084.15,-152.63"/>
</a>
</g>
</g>
<!-- Node4 -->
<g id="Node000004" class="node">
<title>Node4</title>
<g id="a_Node000004"><a xlink:title=" ">
<polygon fill="#e0e0e0" stroke="#999999" points="1171.5,-211.5 1085.5,-211.5 1085.5,-192.5 1171.5,-192.5 1171.5,-211.5"/>
<text text-anchor="middle" x="1128.5" y="-199.5" font-family="Helvetica,sans-Serif" font-size="10.00">unordered_set</text>
</a>
</g>
</g>
<!-- Node1&#45;&gt;Node4 -->
<g id="edge3_Node000001_Node000004" class="edge">
<title>Node1&#45;&gt;Node4</title>
<g id="a_edge3_Node000001_Node000004"><a xlink:title=" ">
<path fill="none" stroke="#63b8ff" d="M933.9,-252.94C973.92,-243.07 1028.52,-229.46 1076.5,-217 1080.06,-216.08 1083.75,-215.11 1087.45,-214.13"/>
<polygon fill="#63b8ff" stroke="#63b8ff" points="1088.42,-217.49 1097.18,-211.53 1086.61,-210.73 1088.42,-217.49"/>
</a>
</g>
</g>
<!-- Node5 -->
<g id="Node000005" class="node">
<title>Node5</title>
<g id="a_Node000005"><a xlink:title=" ">
<polygon fill="#e0e0e0" stroke="#999999" points="1237,-211.5 1190,-211.5 1190,-192.5 1237,-192.5 1237,-211.5"/>
<text text-anchor="middle" x="1213.5" y="-199.5" font-family="Helvetica,sans-Serif" font-size="10.00">vector</text>
</a>
</g>
</g>
<!-- Node1&#45;&gt;Node5 -->
<g id="edge4_Node000001_Node000005" class="edge">
<title>Node1&#45;&gt;Node5</title>
<g id="a_edge4_Node000001_Node000005"><a xlink:title=" ">
<path fill="none" stroke="#63b8ff" d="M942.14,-260.77C1004.39,-253.8 1100.1,-240.3 1180.5,-217 1182.18,-216.51 1183.9,-215.96 1185.61,-215.37"/>
<polygon fill="#63b8ff" stroke="#63b8ff" points="1187.21,-218.5 1195.28,-211.64 1184.69,-211.97 1187.21,-218.5"/>
</a>
</g>
</g>
<!-- Node6 -->
<g id="Node000006" class="node">
<title>Node6</title>
<g id="a_Node000006"><a xlink:href="../../d9/dc2/update__type_8hpp.html" target="_top" xlink:title="Enums representing periodic update types for CachingComponentBase">
<polygon fill="white" stroke="#666666" points="893.5,-217 771.5,-217 771.5,-187 893.5,-187 893.5,-217"/>
<text text-anchor="start" x="779.5" y="-205" font-family="Helvetica,sans-Serif" font-size="10.00">userver/cache/update</text>
<text text-anchor="middle" x="832.5" y="-194" font-family="Helvetica,sans-Serif" font-size="10.00">_type.hpp</text>
</a>
</g>
</g>
<!-- Node1&#45;&gt;Node6 -->
<g id="edge5_Node000001_Node000006" class="edge">
<title>Node1&#45;&gt;Node6</title>
<g id="a_edge5_Node000001_Node000006"><a xlink:title=" ">
<path fill="none" stroke="#63b8ff" d="M866.73,-252.8C861.21,-244.76 854.17,-234.53 847.92,-225.43"/>
<polygon fill="#63b8ff" stroke="#63b8ff" points="850.79,-223.42 842.24,-217.16 845.02,-227.39 850.79,-223.42"/>
</a>
</g>
</g>
<!-- Node12 -->
<g id="Node000012" class="node">
<title>Node12</title>
<g id="a_Node000012"><a xlink:href="../../d7/d47/component__fwd_8hpp.html" target="_top" xlink:title="Forward declarations for components::ComponentContext and components::ComponentConfig; function compo...">
<polygon fill="white" stroke="#666666" points="1067.5,-217 949.5,-217 949.5,-187 1067.5,-187 1067.5,-217"/>
<text text-anchor="start" x="957.5" y="-205" font-family="Helvetica,sans-Serif" font-size="10.00">userver/components</text>
<text text-anchor="middle" x="1008.5" y="-194" font-family="Helvetica,sans-Serif" font-size="10.00">/component_fwd.hpp</text>
</a>
</g>
</g>
<!-- Node1&#45;&gt;Node12 -->
<g id="edge12_Node000001_Node000012" class="edge">
<title>Node1&#45;&gt;Node12</title>
<g id="a_edge12_Node000001_Node000012"><a xlink:title=" ">
<path fill="none" stroke="#63b8ff" d="M905.47,-252.95C924.55,-243.7 949.75,-231.49 970.44,-221.45"/>
<polygon fill="#63b8ff" stroke="#63b8ff" points="972.13,-224.52 979.6,-217.01 969.07,-218.23 972.13,-224.52"/>
</a>
</g>
</g>
<!-- Node13 -->
<g id="Node000013" class="node">
<title>Node13</title>
<g id="a_Node000013"><a xlink:href="../../d8/da6/mutex_8hpp.html" target="_top" xlink:title="std::mutex replacement for asynchronous tasks">
<polygon fill="white" stroke="#666666" points="707,-211.5 562,-211.5 562,-192.5 707,-192.5 707,-211.5"/>
<text text-anchor="middle" x="634.5" y="-199.5" font-family="Helvetica,sans-Serif" font-size="10.00">userver/engine/mutex.hpp</text>
</a>
</g>
</g>
<!-- Node1&#45;&gt;Node13 -->
<g id="edge14_Node000001_Node000013" class="edge">
<title>Node1&#45;&gt;Node13</title>
<g id="a_edge14_Node000001_Node000013"><a xlink:title=" ">
<path fill="none" stroke="#63b8ff" d="M823.39,-252.95C779.27,-241.29 717.34,-224.91 676.59,-214.13"/>
<polygon fill="#63b8ff" stroke="#63b8ff" points="677.27,-210.69 666.71,-211.52 675.48,-217.46 677.27,-210.69"/>
</a>
</g>
</g>
<!-- Node26 -->
<g id="Node000026" class="node">
<title>Node26</title>
<g id="a_Node000026"><a xlink:href="../../d1/dc9/not__null_8hpp.html" target="_top" xlink:title="Restricts a pointer or smart pointer to only hold non&#45;null values.">
<polygon fill="white" stroke="#666666" points="262.5,-145.5 122.5,-145.5 122.5,-126.5 262.5,-126.5 262.5,-145.5"/>
<text text-anchor="middle" x="192.5" y="-133.5" font-family="Helvetica,sans-Serif" font-size="10.00">userver/utils/not_null.hpp</text>
</a>
</g>
</g>
<!-- Node1&#45;&gt;Node26 -->
<g id="edge31_Node000001_Node000026" class="edge">
<title>Node1&#45;&gt;Node26</title>
<g id="a_edge31_Node000001_Node000026"><a xlink:title=" ">
<path fill="none" stroke="#63b8ff" d="M810.82,-258.15C745.21,-249.01 641.58,-233.75 552.5,-217 438.34,-195.53 305.17,-164.31 237.28,-147.94"/>
<polygon fill="#63b8ff" stroke="#63b8ff" points="237.89,-144.49 227.35,-145.54 236.25,-151.29 237.89,-144.49"/>
</a>
</g>
</g>
<!-- Node7 -->
<g id="Node000007" class="node">
<title>Node7</title>
<g id="a_Node000007"><a xlink:title=" ">
<polygon fill="#e0e0e0" stroke="#999999" points="726,-19 653,-19 653,0 726,0 726,-19"/>
<text text-anchor="middle" x="689.5" y="-7" font-family="Helvetica,sans-Serif" font-size="10.00">string_view</text>
</a>
</g>
</g>
<!-- Node6&#45;&gt;Node7 -->
<g id="edge6_Node000006_Node000007" class="edge">
<title>Node6&#45;&gt;Node7</title>
<g id="a_edge6_Node000006_Node000007"><a xlink:title=" ">
<path fill="none" stroke="#63b8ff" d="M825.3,-186.68C820.38,-176.75 813.82,-163.17 808.5,-151 790.12,-108.96 800.85,-89.42 770.5,-55 758.11,-40.95 740.17,-30.46 724.32,-23.2"/>
<polygon fill="#63b8ff" stroke="#63b8ff" points="725.36,-19.84 714.79,-19.1 722.59,-26.27 725.36,-19.84"/>
</a>
</g>
</g>
<!-- Node8 -->
<g id="Node000008" class="node">
<title>Node8</title>
<g id="a_Node000008"><a xlink:href="../../dc/d7d/json__fwd_8hpp.html" target="_top" xlink:title="Forward declarations of formats::json types, formats::parse::To and formats::serialize::To.">
<polygon fill="white" stroke="#666666" points="935.5,-151 817.5,-151 817.5,-121 935.5,-121 935.5,-151"/>
<text text-anchor="start" x="825.5" y="-139" font-family="Helvetica,sans-Serif" font-size="10.00">userver/formats/json</text>
<text text-anchor="middle" x="876.5" y="-128" font-family="Helvetica,sans-Serif" font-size="10.00">_fwd.hpp</text>
</a>
</g>
</g>
<!-- Node6&#45;&gt;Node8 -->
<g id="edge7_Node000006_Node000008" class="edge">
<title>Node6&#45;&gt;Node8</title>
<g id="a_edge7_Node000006_Node000008"><a xlink:title=" ">
<path fill="none" stroke="#63b8ff" d="M842.27,-186.8C847.79,-178.76 854.83,-168.53 861.08,-159.43"/>
<polygon fill="#63b8ff" stroke="#63b8ff" points="863.98,-161.39 866.76,-151.16 858.21,-157.42 863.98,-161.39"/>
</a>
</g>
</g>
<!-- Node11 -->
<g id="Node000011" class="node">
<title>Node11</title>
<g id="a_Node000011"><a xlink:href="../../dd/dd7/universal_2include_2userver_2yaml__config_2fwd_8hpp.html" target="_top" xlink:title="Forward declarations of YamlConfig type and formats::parse::To.">
<polygon fill="white" stroke="#666666" points="1069.5,-151 953.5,-151 953.5,-121 1069.5,-121 1069.5,-151"/>
<text text-anchor="start" x="961.5" y="-139" font-family="Helvetica,sans-Serif" font-size="10.00">userver/yaml_config</text>
<text text-anchor="middle" x="1011.5" y="-128" font-family="Helvetica,sans-Serif" font-size="10.00">/fwd.hpp</text>
</a>
</g>
</g>
<!-- Node6&#45;&gt;Node11 -->
<g id="edge10_Node000006_Node000011" class="edge">
<title>Node6&#45;&gt;Node11</title>
<g id="a_edge10_Node000006_Node000011"><a xlink:title=" ">
<path fill="none" stroke="#63b8ff" d="M871.78,-186.95C898.48,-177.41 933.99,-164.71 962.53,-154.51"/>
<polygon fill="#63b8ff" stroke="#63b8ff" points="964.07,-157.67 972.31,-151.01 961.71,-151.08 964.07,-157.67"/>
</a>
</g>
</g>
<!-- Node9 -->
<g id="Node000009" class="node">
<title>Node9</title>
<g id="a_Node000009"><a xlink:href="../../d2/dc8/universal_2include_2userver_2formats_2parse_2to_8hpp.html" target="_top" xlink:title="Helper for parsers.">
<polygon fill="white" stroke="#666666" points="1100,-85 975,-85 975,-55 1100,-55 1100,-85"/>
<text text-anchor="start" x="983" y="-73" font-family="Helvetica,sans-Serif" font-size="10.00">userver/formats/parse</text>
<text text-anchor="middle" x="1037.5" y="-62" font-family="Helvetica,sans-Serif" font-size="10.00">/to.hpp</text>
</a>
</g>
</g>
<!-- Node8&#45;&gt;Node9 -->
<g id="edge8_Node000008_Node000009" class="edge">
<title>Node8&#45;&gt;Node9</title>
<g id="a_edge8_Node000008_Node000009"><a xlink:title=" ">
<path fill="none" stroke="#63b8ff" d="M911.83,-120.95C935.63,-111.49 967.23,-98.93 992.78,-88.78"/>
<polygon fill="#63b8ff" stroke="#63b8ff" points="994.25,-91.96 1002.25,-85.01 991.66,-85.45 994.25,-91.96"/>
</a>
</g>
</g>
<!-- Node10 -->
<g id="Node000010" class="node">
<title>Node10</title>
<g id="a_Node000010"><a xlink:href="../../d6/d8e/universal_2include_2userver_2formats_2serialize_2to_8hpp.html" target="_top" xlink:title="Helper for serializers.">
<polygon fill="white" stroke="#666666" points="957,-85 818,-85 818,-55 957,-55 957,-85"/>
<text text-anchor="start" x="826" y="-73" font-family="Helvetica,sans-Serif" font-size="10.00">userver/formats/serialize</text>
<text text-anchor="middle" x="887.5" y="-62" font-family="Helvetica,sans-Serif" font-size="10.00">/to.hpp</text>
</a>
</g>
</g>
<!-- Node8&#45;&gt;Node10 -->
<g id="edge9_Node000008_Node000010" class="edge">
<title>Node8&#45;&gt;Node10</title>
<g id="a_edge9_Node000008_Node000010"><a xlink:title=" ">
<path fill="none" stroke="#63b8ff" d="M878.94,-120.8C880.24,-113.26 881.87,-103.78 883.35,-95.13"/>
<polygon fill="#63b8ff" stroke="#63b8ff" points="886.82,-95.61 885.07,-85.16 879.92,-94.43 886.82,-95.61"/>
</a>
</g>
</g>
<!-- Node11&#45;&gt;Node9 -->
<g id="edge11_Node000011_Node000009" class="edge">
<title>Node11&#45;&gt;Node9</title>
<g id="a_edge11_Node000011_Node000009"><a xlink:title=" ">
<path fill="none" stroke="#63b8ff" d="M1017.27,-120.8C1020.4,-113.09 1024.35,-103.37 1027.93,-94.56"/>
<polygon fill="#63b8ff" stroke="#63b8ff" points="1031.22,-95.75 1031.75,-85.16 1024.74,-93.11 1031.22,-95.75"/>
</a>
</g>
</g>
<!-- Node12&#45;&gt;Node3 -->
<g id="edge13_Node000012_Node000003" class="edge">
<title>Node12&#45;&gt;Node3</title>
<g id="a_edge13_Node000012_Node000003"><a xlink:title=" ">
<path fill="none" stroke="#63b8ff" d="M1030.92,-186.8C1047.69,-176.17 1070.51,-161.7 1087.25,-151.1"/>
<polygon fill="#63b8ff" stroke="#63b8ff" points="1089.26,-153.97 1095.84,-145.66 1085.52,-148.05 1089.26,-153.97"/>
</a>
</g>
</g>
<!-- Node14 -->
<g id="Node000014" class="node">
<title>Node14</title>
<g id="a_Node000014"><a xlink:title=" ">
<polygon fill="#e0e0e0" stroke="#999999" points="657.5,-145.5 607.5,-145.5 607.5,-126.5 657.5,-126.5 657.5,-145.5"/>
<text text-anchor="middle" x="632.5" y="-133.5" font-family="Helvetica,sans-Serif" font-size="10.00">atomic</text>
</a>
</g>
</g>
<!-- Node13&#45;&gt;Node14 -->
<g id="edge15_Node000013_Node000014" class="edge">
<title>Node13&#45;&gt;Node14</title>
<g id="a_edge15_Node000013_Node000014"><a xlink:title=" ">
<path fill="none" stroke="#63b8ff" d="M634.23,-192.37C633.94,-183.16 633.48,-168.29 633.1,-156.27"/>
<polygon fill="#63b8ff" stroke="#63b8ff" points="636.59,-155.79 632.78,-145.91 629.59,-156.01 636.59,-155.79"/>
</a>
</g>
</g>
<!-- Node15 -->
<g id="Node000015" class="node">
<title>Node15</title>
<g id="a_Node000015"><a xlink:title=" ">
<polygon fill="#e0e0e0" stroke="#999999" points="761.5,-79.5 711.5,-79.5 711.5,-60.5 761.5,-60.5 761.5,-79.5"/>
<text text-anchor="middle" x="736.5" y="-67.5" font-family="Helvetica,sans-Serif" font-size="10.00">chrono</text>
</a>
</g>
</g>
<!-- Node13&#45;&gt;Node15 -->
<g id="edge16_Node000013_Node000015" class="edge">
<title>Node13&#45;&gt;Node15</title>
<g id="a_edge16_Node000013_Node000015"><a xlink:title=" ">
<path fill="none" stroke="#63b8ff" d="M670.58,-192.4C692.39,-185.18 718.59,-172.49 732.5,-151 744.34,-132.71 743.19,-106.84 740.51,-89.52"/>
<polygon fill="#63b8ff" stroke="#63b8ff" points="743.92,-88.73 738.65,-79.54 737.04,-90.01 743.92,-88.73"/>
</a>
</g>
</g>
<!-- Node16 -->
<g id="Node000016" class="node">
<title>Node16</title>
<g id="a_Node000016"><a xlink:title=" ">
<polygon fill="#e0e0e0" stroke="#999999" points="723.5,-145.5 675.5,-145.5 675.5,-126.5 723.5,-126.5 723.5,-145.5"/>
<text text-anchor="middle" x="699.5" y="-133.5" font-family="Helvetica,sans-Serif" font-size="10.00">mutex</text>
</a>
</g>
</g>
<!-- Node13&#45;&gt;Node16 -->
<g id="edge17_Node000013_Node000016" class="edge">
<title>Node13&#45;&gt;Node16</title>
<g id="a_edge17_Node000013_Node000016"><a xlink:title=" ">
<path fill="none" stroke="#63b8ff" d="M643.27,-192.37C653.48,-182.31 670.58,-165.48 683.24,-153.01"/>
<polygon fill="#63b8ff" stroke="#63b8ff" points="685.79,-155.42 690.46,-145.91 680.87,-150.43 685.79,-155.42"/>
</a>
</g>
</g>
<!-- Node17 -->
<g id="Node000017" class="node">
<title>Node17</title>
<g id="a_Node000017"><a xlink:href="../../d2/d22/deadline_8hpp.html" target="_top" xlink:title="Internal representation of a deadline time point.">
<polygon fill="white" stroke="#666666" points="589,-145.5 434,-145.5 434,-126.5 589,-126.5 589,-145.5"/>
<text text-anchor="middle" x="511.5" y="-133.5" font-family="Helvetica,sans-Serif" font-size="10.00">userver/engine/deadline.hpp</text>
</a>
</g>
</g>
<!-- Node13&#45;&gt;Node17 -->
<g id="edge18_Node000013_Node000017" class="edge">
<title>Node13&#45;&gt;Node17</title>
<g id="a_edge18_Node000013_Node000017"><a xlink:title=" ">
<path fill="none" stroke="#63b8ff" d="M617.91,-192.37C597.19,-181.59 561.5,-163.02 537.22,-150.38"/>
<polygon fill="#63b8ff" stroke="#63b8ff" points="538.7,-147.21 528.22,-145.7 535.47,-153.42 538.7,-147.21"/>
</a>
</g>
</g>
<!-- Node20 -->
<g id="Node000020" class="node">
<title>Node20</title>
<g id="a_Node000020"><a xlink:href="../../d9/db5/wait__list__fwd_8hpp_source.html" target="_top" xlink:title=" ">
<polygon fill="white" stroke="#666666" points="415.5,-151 301.5,-151 301.5,-121 415.5,-121 415.5,-151"/>
<text text-anchor="start" x="309.5" y="-139" font-family="Helvetica,sans-Serif" font-size="10.00">userver/engine/impl</text>
<text text-anchor="middle" x="358.5" y="-128" font-family="Helvetica,sans-Serif" font-size="10.00">/wait_list_fwd.hpp</text>
</a>
</g>
</g>
<!-- Node13&#45;&gt;Node20 -->
<g id="edge23_Node000013_Node000020" class="edge">
<title>Node13&#45;&gt;Node20</title>
<g id="a_edge23_Node000013_Node000020"><a xlink:title=" ">
<path fill="none" stroke="#63b8ff" d="M597.56,-192.44C553.66,-182.25 479.54,-165.07 425.45,-152.52"/>
<polygon fill="#63b8ff" stroke="#63b8ff" points="426.13,-149.09 415.6,-150.24 424.55,-155.91 426.13,-149.09"/>
</a>
</g>
</g>
<!-- Node17&#45;&gt;Node15 -->
<g id="edge19_Node000017_Node000015" class="edge">
<title>Node17&#45;&gt;Node15</title>
<g id="a_edge19_Node000017_Node000015"><a xlink:title=" ">
<path fill="none" stroke="#63b8ff" d="M546.71,-126.45C584.3,-117.11 645.49,-101.3 697.5,-85 699.62,-84.34 701.8,-83.63 703.98,-82.9"/>
<polygon fill="#63b8ff" stroke="#63b8ff" points="705.2,-86.18 713.51,-79.61 702.91,-79.56 705.2,-86.18"/>
</a>
</g>
</g>
<!-- Node18 -->
<g id="Node000018" class="node">
<title>Node18</title>
<g id="a_Node000018"><a xlink:title=" ">
<polygon fill="#e0e0e0" stroke="#999999" points="392,-19 323,-19 323,0 392,0 392,-19"/>
<text text-anchor="middle" x="357.5" y="-7" font-family="Helvetica,sans-Serif" font-size="10.00">type_traits</text>
</a>
</g>
</g>
<!-- Node17&#45;&gt;Node18 -->
<g id="edge20_Node000017_Node000018" class="edge">
<title>Node17&#45;&gt;Node18</title>
<g id="a_edge20_Node000017_Node000018"><a xlink:title=" ">
<path fill="none" stroke="#63b8ff" d="M565.15,-126.47C621.02,-115.37 696.18,-92.78 663.5,-55 630.29,-16.61 479.17,-10.66 402.46,-10.16"/>
<polygon fill="#63b8ff" stroke="#63b8ff" points="402.16,-6.66 392.15,-10.13 402.14,-13.66 402.16,-6.66"/>
</a>
</g>
</g>
<!-- Node19 -->
<g id="Node000019" class="node">
<title>Node19</title>
<g id="a_Node000019"><a xlink:href="../../d2/d54/assert_8hpp.html" target="_top" xlink:title="Assertion macros UASSERT, UASSERT_MSG, UINVARIANT.">
<polygon fill="white" stroke="#666666" points="655,-79.5 524,-79.5 524,-60.5 655,-60.5 655,-79.5"/>
<text text-anchor="middle" x="589.5" y="-67.5" font-family="Helvetica,sans-Serif" font-size="10.00">userver/utils/assert.hpp</text>
</a>
</g>
</g>
<!-- Node17&#45;&gt;Node19 -->
<g id="edge21_Node000017_Node000019" class="edge">
<title>Node17&#45;&gt;Node19</title>
<g id="a_edge21_Node000017_Node000019"><a xlink:title=" ">
<path fill="none" stroke="#63b8ff" d="M522.02,-126.37C534.58,-116.06 555.81,-98.65 571.1,-86.09"/>
<polygon fill="#63b8ff" stroke="#63b8ff" points="573.39,-88.75 578.9,-79.7 568.95,-83.34 573.39,-88.75"/>
</a>
</g>
</g>
<!-- Node19&#45;&gt;Node7 -->
<g id="edge22_Node000019_Node000007" class="edge">
<title>Node19&#45;&gt;Node7</title>
<g id="a_edge22_Node000019_Node000007"><a xlink:title=" ">
<path fill="none" stroke="#63b8ff" d="M604.26,-60.37C620.5,-50.86 646.85,-35.45 665.96,-24.27"/>
<polygon fill="#63b8ff" stroke="#63b8ff" points="667.82,-27.24 674.68,-19.17 664.29,-21.2 667.82,-27.24"/>
</a>
</g>
</g>
<!-- Node21 -->
<g id="Node000021" class="node">
<title>Node21</title>
<g id="a_Node000021"><a xlink:href="../../d2/d84/select_8hpp.html" target="_top" xlink:title="Utilities for selection of platform specific values.">
<polygon fill="white" stroke="#666666" points="505.5,-79.5 353.5,-79.5 353.5,-60.5 505.5,-60.5 505.5,-79.5"/>
<text text-anchor="middle" x="429.5" y="-67.5" font-family="Helvetica,sans-Serif" font-size="10.00">userver/compiler/select.hpp</text>
</a>
</g>
</g>
<!-- Node20&#45;&gt;Node21 -->
<g id="edge24_Node000020_Node000021" class="edge">
<title>Node20&#45;&gt;Node21</title>
<g id="a_edge24_Node000020_Node000021"><a xlink:title=" ">
<path fill="none" stroke="#63b8ff" d="M374.26,-120.8C385.43,-110.72 400.44,-97.19 411.99,-86.78"/>
<polygon fill="#63b8ff" stroke="#63b8ff" points="414.6,-89.14 419.69,-79.84 409.92,-83.94 414.6,-89.14"/>
</a>
</g>
</g>
<!-- Node23 -->
<g id="Node000023" class="node">
<title>Node23</title>
<g id="a_Node000023"><a xlink:href="../../d5/d02/fast__pimpl_8hpp.html" target="_top" xlink:title="Implements pimpl idiom without dynamic memory allocation.">
<polygon fill="white" stroke="#666666" points="297,-85 198,-85 198,-55 297,-55 297,-85"/>
<text text-anchor="start" x="206" y="-73" font-family="Helvetica,sans-Serif" font-size="10.00">userver/utils/fast</text>
<text text-anchor="middle" x="247.5" y="-62" font-family="Helvetica,sans-Serif" font-size="10.00">_pimpl.hpp</text>
</a>
</g>
</g>
<!-- Node20&#45;&gt;Node23 -->
<g id="edge26_Node000020_Node000023" class="edge">
<title>Node20&#45;&gt;Node23</title>
<g id="a_edge26_Node000020_Node000023"><a xlink:title=" ">
<path fill="none" stroke="#63b8ff" d="M334.14,-120.95C318.53,-111.95 298.05,-100.14 280.92,-90.27"/>
<polygon fill="#63b8ff" stroke="#63b8ff" points="282.21,-86.98 271.8,-85.01 278.72,-93.04 282.21,-86.98"/>
</a>
</g>
</g>
<!-- Node22 -->
<g id="Node000022" class="node">
<title>Node22</title>
<g id="a_Node000022"><a xlink:title=" ">
<polygon fill="#e0e0e0" stroke="#999999" points="305,-19 252,-19 252,0 305,0 305,-19"/>
<text text-anchor="middle" x="278.5" y="-7" font-family="Helvetica,sans-Serif" font-size="10.00">cstddef</text>
</a>
</g>
</g>
<!-- Node21&#45;&gt;Node22 -->
<g id="edge25_Node000021_Node000022" class="edge">
<title>Node21&#45;&gt;Node22</title>
<g id="a_edge25_Node000021_Node000022"><a xlink:title=" ">
<path fill="none" stroke="#63b8ff" d="M407.54,-60.49C381.82,-50.53 339.02,-33.95 309.82,-22.63"/>
<polygon fill="#63b8ff" stroke="#63b8ff" points="311.07,-19.37 300.48,-19.02 308.54,-25.89 311.07,-19.37"/>
</a>
</g>
</g>
<!-- Node23&#45;&gt;Node18 -->
<g id="edge29_Node000023_Node000018" class="edge">
<title>Node23&#45;&gt;Node18</title>
<g id="a_edge29_Node000023_Node000018"><a xlink:title=" ">
<path fill="none" stroke="#63b8ff" d="M273.85,-54.99C291.55,-45.58 314.73,-33.24 332.21,-23.95"/>
<polygon fill="#63b8ff" stroke="#63b8ff" points="334.07,-26.92 341.26,-19.14 330.78,-20.74 334.07,-26.92"/>
</a>
</g>
</g>
<!-- Node23&#45;&gt;Node22 -->
<g id="edge27_Node000023_Node000022" class="edge">
<title>Node23&#45;&gt;Node22</title>
<g id="a_edge27_Node000023_Node000022"><a xlink:title=" ">
<path fill="none" stroke="#63b8ff" d="M255,-54.84C259.23,-46.87 264.54,-36.84 269.05,-28.33"/>
<polygon fill="#63b8ff" stroke="#63b8ff" points="272.27,-29.74 273.85,-19.27 266.08,-26.46 272.27,-29.74"/>
</a>
</g>
</g>
<!-- Node24 -->
<g id="Node000024" class="node">
<title>Node24</title>
<g id="a_Node000024"><a xlink:title=" ">
<polygon fill="#e0e0e0" stroke="#999999" points="234,-19 197,-19 197,0 234,0 234,-19"/>
<text text-anchor="middle" x="215.5" y="-7" font-family="Helvetica,sans-Serif" font-size="10.00">new</text>
</a>
</g>
</g>
<!-- Node23&#45;&gt;Node24 -->
<g id="edge28_Node000023_Node000024" class="edge">
<title>Node23&#45;&gt;Node24</title>
<g id="a_edge28_Node000023_Node000024"><a xlink:title=" ">
<path fill="none" stroke="#63b8ff" d="M239.75,-54.84C235.35,-46.78 229.79,-36.62 225.1,-28.06"/>
<polygon fill="#63b8ff" stroke="#63b8ff" points="228.16,-26.36 220.3,-19.27 222.02,-29.72 228.16,-26.36"/>
</a>
</g>
</g>
<!-- Node25 -->
<g id="Node000025" class="node">
<title>Node25</title>
<g id="a_Node000025"><a xlink:title=" ">
<polygon fill="#e0e0e0" stroke="#999999" points="163,-19 118,-19 118,0 163,0 163,-19"/>
<text text-anchor="middle" x="140.5" y="-7" font-family="Helvetica,sans-Serif" font-size="10.00">utility</text>
</a>
</g>
</g>
<!-- Node23&#45;&gt;Node25 -->
<g id="edge30_Node000023_Node000025" class="edge">
<title>Node23&#45;&gt;Node25</title>
<g id="a_edge30_Node000023_Node000025"><a xlink:title=" ">
<path fill="none" stroke="#63b8ff" d="M221.87,-54.99C204.66,-45.58 182.1,-33.24 165.1,-23.95"/>
<polygon fill="#63b8ff" stroke="#63b8ff" points="166.75,-20.87 156.3,-19.14 163.4,-27.01 166.75,-20.87"/>
</a>
</g>
</g>
<!-- Node26&#45;&gt;Node2 -->
<g id="edge32_Node000026_Node000002" class="edge">
<title>Node26&#45;&gt;Node2</title>
<g id="a_edge32_Node000026_Node000002"><a xlink:title=" ">
<path fill="none" stroke="#63b8ff" d="M170.92,-126.37C143.29,-115.32 95.21,-96.08 63.62,-83.45"/>
<polygon fill="#63b8ff" stroke="#63b8ff" points="64.58,-80.06 53.99,-79.6 61.98,-86.56 64.58,-80.06"/>
</a>
</g>
</g>
<!-- Node26&#45;&gt;Node18 -->
<g id="edge34_Node000026_Node000018" class="edge">
<title>Node26&#45;&gt;Node18</title>
<g id="a_edge34_Node000026_Node000018"><a xlink:title=" ">
<path fill="none" stroke="#63b8ff" d="M223.27,-126.43C247.51,-118.56 281.16,-105.05 305.5,-85 324.66,-69.22 339.91,-44.7 348.82,-28.14"/>
<polygon fill="#63b8ff" stroke="#63b8ff" points="352.06,-29.5 353.53,-19 345.83,-26.29 352.06,-29.5"/>
</a>
</g>
</g>
<!-- Node26&#45;&gt;Node19 -->
<g id="edge36_Node000026_Node000019" class="edge">
<title>Node26&#45;&gt;Node19</title>
<g id="a_edge36_Node000026_Node000019"><a xlink:title=" ">
<path fill="none" stroke="#63b8ff" d="M250.76,-126.5C315.32,-116.95 422.49,-100.73 514.5,-85 521.17,-83.86 528.16,-82.62 535.08,-81.36"/>
<polygon fill="#63b8ff" stroke="#63b8ff" points="535.92,-84.76 545.12,-79.52 534.65,-77.88 535.92,-84.76"/>
</a>
</g>
</g>
<!-- Node26&#45;&gt;Node25 -->
<g id="edge35_Node000026_Node000025" class="edge">
<title>Node26&#45;&gt;Node25</title>
<g id="a_edge35_Node000026_Node000025"><a xlink:title=" ">
<path fill="none" stroke="#63b8ff" d="M166.14,-126.35C147.49,-118.69 123.85,-105.49 112.5,-85 102.09,-66.21 114.65,-42.76 126.12,-27.25"/>
<polygon fill="#63b8ff" stroke="#63b8ff" points="129.1,-29.13 132.57,-19.12 123.61,-24.78 129.1,-29.13"/>
</a>
</g>
</g>
<!-- Node27 -->
<g id="Node000027" class="node">
<title>Node27</title>
<g id="a_Node000027"><a xlink:title=" ">
<polygon fill="#e0e0e0" stroke="#999999" points="179.5,-79.5 121.5,-79.5 121.5,-60.5 179.5,-60.5 179.5,-79.5"/>
<text text-anchor="middle" x="150.5" y="-67.5" font-family="Helvetica,sans-Serif" font-size="10.00">memory</text>
</a>
</g>
</g>
<!-- Node26&#45;&gt;Node27 -->
<g id="edge33_Node000026_Node000027" class="edge">
<title>Node26&#45;&gt;Node27</title>
<g id="a_edge33_Node000026_Node000027"><a xlink:title=" ">
<path fill="none" stroke="#63b8ff" d="M186.84,-126.37C180.48,-116.69 170.02,-100.74 161.94,-88.44"/>
<polygon fill="#63b8ff" stroke="#63b8ff" points="164.76,-86.35 156.34,-79.91 158.9,-90.19 164.76,-86.35"/>
</a>
</g>
</g>
</g>
</svg>
