<?xml version="1.0" encoding="UTF-8" standalone="no"?>
<!DOCTYPE svg PUBLIC "-//W3C//DTD SVG 1.1//EN"
 "http://www.w3.org/Graphics/SVG/1.1/DTD/svg11.dtd">
<!-- Generated by graphviz version 2.43.0 (0)
 -->
<!-- Title: userver/formats/yaml/value.hpp Pages: 1 -->
<svg width="1963pt" height="357pt"
 viewBox="0.00 0.00 1963.00 357.00" xmlns="http://www.w3.org/2000/svg" xmlns:xlink="http://www.w3.org/1999/xlink">
<g id="graph0" class="graph" transform="scale(1 1) rotate(0) translate(4 353)">
<title>userver/formats/yaml/value.hpp</title>
<!-- Node1 -->
<g id="Node000001" class="node">
<title>Node1</title>
<g id="a_Node000001"><a xlink:title="Non&#45;mutable YAML value representation.">
<polygon fill="#999999" stroke="#666666" points="1367,-349 1245,-349 1245,-319 1367,-319 1367,-349"/>
<text text-anchor="start" x="1253" y="-337" font-family="Helvetica,sans-Serif" font-size="10.00">userver/formats/yaml</text>
<text text-anchor="middle" x="1306" y="-326" font-family="Helvetica,sans-Serif" font-size="10.00">/value.hpp</text>
</a>
</g>
</g>
<!-- Node2 -->
<g id="Node000002" class="node">
<title>Node2</title>
<g id="a_Node000002"><a xlink:title=" ">
<polygon fill="#e0e0e0" stroke="#999999" points="1389.5,-19 1320.5,-19 1320.5,0 1389.5,0 1389.5,-19"/>
<text text-anchor="middle" x="1355" y="-7" font-family="Helvetica,sans-Serif" font-size="10.00">type_traits</text>
</a>
</g>
</g>
<!-- Node1&#45;&gt;Node2 -->
<g id="edge1_Node000001_Node000002" class="edge">
<title>Node1&#45;&gt;Node2</title>
<g id="a_edge1_Node000001_Node000002"><a xlink:title=" ">
<path fill="none" stroke="#63b8ff" d="M1367.06,-333.61C1528.62,-333.58 1955,-322.22 1955,-203 1955,-203 1955,-203 1955,-135 1955,-21.72 1539.82,-10.75 1400.19,-10.27"/>
<polygon fill="#63b8ff" stroke="#63b8ff" points="1399.86,-6.77 1389.85,-10.25 1399.85,-13.77 1399.86,-6.77"/>
</a>
</g>
</g>
<!-- Node3 -->
<g id="Node000003" class="node">
<title>Node3</title>
<g id="a_Node000003"><a xlink:href="../../dd/d14/items_8hpp.html" target="_top" xlink:title="Wrapper for handy python&#45;like iteration over a map.">
<polygon fill="white" stroke="#666666" points="1720,-217 1580,-217 1580,-187 1720,-187 1720,-217"/>
<text text-anchor="start" x="1588" y="-205" font-family="Helvetica,sans-Serif" font-size="10.00">userver/formats/common</text>
<text text-anchor="middle" x="1650" y="-194" font-family="Helvetica,sans-Serif" font-size="10.00">/items.hpp</text>
</a>
</g>
</g>
<!-- Node1&#45;&gt;Node3 -->
<g id="edge2_Node000001_Node000003" class="edge">
<title>Node1&#45;&gt;Node3</title>
<g id="a_edge2_Node000001_Node000003"><a xlink:title=" ">
<path fill="none" stroke="#63b8ff" d="M1343.14,-318.96C1406.15,-295.15 1533.86,-246.89 1602.99,-220.76"/>
<polygon fill="#63b8ff" stroke="#63b8ff" points="1604.64,-223.88 1612.75,-217.08 1602.16,-217.34 1604.64,-223.88"/>
</a>
</g>
</g>
<!-- Node7 -->
<g id="Node000007" class="node">
<title>Node7</title>
<g id="a_Node000007"><a xlink:href="../../da/d00/universal_2include_2userver_2formats_2common_2meta_8hpp.html" target="_top" xlink:title="Metaprogramming helpers for converters detection.">
<polygon fill="white" stroke="#666666" points="912,-217 772,-217 772,-187 912,-187 912,-217"/>
<text text-anchor="start" x="780" y="-205" font-family="Helvetica,sans-Serif" font-size="10.00">userver/formats/common</text>
<text text-anchor="middle" x="842" y="-194" font-family="Helvetica,sans-Serif" font-size="10.00">/meta.hpp</text>
</a>
</g>
</g>
<!-- Node1&#45;&gt;Node7 -->
<g id="edge7_Node000001_Node000007" class="edge">
<title>Node1&#45;&gt;Node7</title>
<g id="a_edge7_Node000001_Node000007"><a xlink:title=" ">
<path fill="none" stroke="#63b8ff" d="M1267.58,-318.99C1244.88,-310.03 1215.99,-297.41 1192,-283 1173.55,-271.92 1173.73,-261.59 1154,-253 1060.84,-212.42 1026.46,-232.81 922.17,-217.1"/>
<polygon fill="#63b8ff" stroke="#63b8ff" points="922.62,-213.63 912.2,-215.52 921.53,-220.54 922.62,-213.63"/>
</a>
</g>
</g>
<!-- Node12 -->
<g id="Node000012" class="node">
<title>Node12</title>
<g id="a_Node000012"><a xlink:href="../../d1/deb/universal_2include_2userver_2formats_2parse_2common_8hpp.html" target="_top" xlink:title="Parsers and converters for std::chrono::seconds, std::chrono::system_clock::time_point and integral t...">
<polygon fill="white" stroke="#666666" points="566.5,-283 441.5,-283 441.5,-253 566.5,-253 566.5,-283"/>
<text text-anchor="start" x="449.5" y="-271" font-family="Helvetica,sans-Serif" font-size="10.00">userver/formats/parse</text>
<text text-anchor="middle" x="504" y="-260" font-family="Helvetica,sans-Serif" font-size="10.00">/common.hpp</text>
</a>
</g>
</g>
<!-- Node1&#45;&gt;Node12 -->
<g id="edge15_Node000001_Node000012" class="edge">
<title>Node1&#45;&gt;Node12</title>
<g id="a_edge15_Node000001_Node000012"><a xlink:title=" ">
<path fill="none" stroke="#63b8ff" d="M1244.73,-328.11C1099.17,-316.49 733.12,-287.28 576.7,-274.8"/>
<polygon fill="#63b8ff" stroke="#63b8ff" points="576.95,-271.31 566.71,-274 576.4,-278.29 576.95,-271.31"/>
</a>
</g>
</g>
<!-- Node26 -->
<g id="Node000026" class="node">
<title>Node26</title>
<g id="a_Node000026"><a xlink:href="../../d6/db5/universal_2include_2userver_2formats_2yaml_2exception_8hpp.html" target="_top" xlink:title="Exception classes for YAML module.">
<polygon fill="white" stroke="#666666" points="1145,-283 1023,-283 1023,-253 1145,-253 1145,-283"/>
<text text-anchor="start" x="1031" y="-271" font-family="Helvetica,sans-Serif" font-size="10.00">userver/formats/yaml</text>
<text text-anchor="middle" x="1084" y="-260" font-family="Helvetica,sans-Serif" font-size="10.00">/exception.hpp</text>
</a>
</g>
</g>
<!-- Node1&#45;&gt;Node26 -->
<g id="edge40_Node000001_Node000026" class="edge">
<title>Node1&#45;&gt;Node26</title>
<g id="a_edge40_Node000001_Node000026"><a xlink:title=" ">
<path fill="none" stroke="#63b8ff" d="M1257.28,-318.95C1223.45,-309.2 1178.2,-296.16 1142.43,-285.84"/>
<polygon fill="#63b8ff" stroke="#63b8ff" points="1143.18,-282.42 1132.61,-283.01 1141.24,-289.15 1143.18,-282.42"/>
</a>
</g>
</g>
<!-- Node27 -->
<g id="Node000027" class="node">
<title>Node27</title>
<g id="a_Node000027"><a xlink:href="../../d5/dda/universal_2include_2userver_2formats_2yaml_2types_8hpp.html" target="_top" xlink:title="Forward declarations of the internal YAML types.">
<polygon fill="white" stroke="#666666" points="1412,-217 1290,-217 1290,-187 1412,-187 1412,-217"/>
<text text-anchor="start" x="1298" y="-205" font-family="Helvetica,sans-Serif" font-size="10.00">userver/formats/yaml</text>
<text text-anchor="middle" x="1351" y="-194" font-family="Helvetica,sans-Serif" font-size="10.00">/types.hpp</text>
</a>
</g>
</g>
<!-- Node1&#45;&gt;Node27 -->
<g id="edge61_Node000001_Node000027" class="edge">
<title>Node1&#45;&gt;Node27</title>
<g id="a_edge61_Node000001_Node000027"><a xlink:title=" ">
<path fill="none" stroke="#63b8ff" d="M1314.48,-318.99C1320.1,-309.19 1327.29,-295.65 1332,-283 1338.76,-264.85 1343.69,-243.46 1346.83,-227.37"/>
<polygon fill="#63b8ff" stroke="#63b8ff" points="1350.34,-227.65 1348.72,-217.18 1343.46,-226.38 1350.34,-227.65"/>
</a>
</g>
</g>
<!-- Node31 -->
<g id="Node000031" class="node">
<title>Node31</title>
<g id="a_Node000031"><a xlink:href="../../d7/dbc/universal_2include_2userver_2formats_2yaml_2iterator_8hpp.html" target="_top" xlink:title="Iterator for formats::yaml::Value">
<polygon fill="white" stroke="#666666" points="1323,-283 1201,-283 1201,-253 1323,-253 1323,-283"/>
<text text-anchor="start" x="1209" y="-271" font-family="Helvetica,sans-Serif" font-size="10.00">userver/formats/yaml</text>
<text text-anchor="middle" x="1262" y="-260" font-family="Helvetica,sans-Serif" font-size="10.00">/iterator.hpp</text>
</a>
</g>
</g>
<!-- Node1&#45;&gt;Node31 -->
<g id="edge51_Node000001_Node000031" class="edge">
<title>Node1&#45;&gt;Node31</title>
<g id="a_edge51_Node000001_Node000031"><a xlink:title=" ">
<path fill="none" stroke="#63b8ff" d="M1296.23,-318.8C1290.71,-310.76 1283.67,-300.53 1277.42,-291.43"/>
<polygon fill="#63b8ff" stroke="#63b8ff" points="1280.29,-289.42 1271.74,-283.16 1274.52,-293.39 1280.29,-289.42"/>
</a>
</g>
</g>
<!-- Node32 -->
<g id="Node000032" class="node">
<title>Node32</title>
<g id="a_Node000032"><a xlink:href="../../d5/d02/fast__pimpl_8hpp.html" target="_top" xlink:title="Implements pimpl idiom without dynamic memory allocation.">
<polygon fill="white" stroke="#666666" points="1842.5,-217 1743.5,-217 1743.5,-187 1842.5,-187 1842.5,-217"/>
<text text-anchor="start" x="1751.5" y="-205" font-family="Helvetica,sans-Serif" font-size="10.00">userver/utils/fast</text>
<text text-anchor="middle" x="1793" y="-194" font-family="Helvetica,sans-Serif" font-size="10.00">_pimpl.hpp</text>
</a>
</g>
</g>
<!-- Node1&#45;&gt;Node32 -->
<g id="edge62_Node000001_Node000032" class="edge">
<title>Node1&#45;&gt;Node32</title>
<g id="a_edge62_Node000001_Node000032"><a xlink:title=" ">
<path fill="none" stroke="#63b8ff" d="M1358.58,-318.96C1449.92,-294.58 1637.3,-244.56 1733.35,-218.92"/>
<polygon fill="#63b8ff" stroke="#63b8ff" points="1734.43,-222.26 1743.19,-216.3 1732.63,-215.49 1734.43,-222.26"/>
</a>
</g>
</g>
<!-- Node3&#45;&gt;Node2 -->
<g id="edge6_Node000003_Node000002" class="edge">
<title>Node3&#45;&gt;Node2</title>
<g id="a_edge6_Node000003_Node000002"><a xlink:title=" ">
<path fill="none" stroke="#63b8ff" d="M1655.53,-186.85C1661.24,-169.65 1667.59,-140.51 1654,-121 1596.01,-37.74 1467.73,-17.06 1399.57,-12.03"/>
<polygon fill="#63b8ff" stroke="#63b8ff" points="1399.78,-8.54 1389.57,-11.37 1399.32,-15.52 1399.78,-8.54"/>
</a>
</g>
</g>
<!-- Node4 -->
<g id="Node000004" class="node">
<title>Node4</title>
<g id="a_Node000004"><a xlink:title=" ">
<polygon fill="#e0e0e0" stroke="#999999" points="1769.5,-145.5 1716.5,-145.5 1716.5,-126.5 1769.5,-126.5 1769.5,-145.5"/>
<text text-anchor="middle" x="1743" y="-133.5" font-family="Helvetica,sans-Serif" font-size="10.00">cstddef</text>
</a>
</g>
</g>
<!-- Node3&#45;&gt;Node4 -->
<g id="edge3_Node000003_Node000004" class="edge">
<title>Node3&#45;&gt;Node4</title>
<g id="a_edge3_Node000003_Node000004"><a xlink:title=" ">
<path fill="none" stroke="#63b8ff" d="M1670.64,-186.8C1685.94,-176.27 1706.71,-161.97 1722.08,-151.4"/>
<polygon fill="#63b8ff" stroke="#63b8ff" points="1724.16,-154.21 1730.42,-145.66 1720.2,-148.44 1724.16,-154.21"/>
</a>
</g>
</g>
<!-- Node5 -->
<g id="Node000005" class="node">
<title>Node5</title>
<g id="a_Node000005"><a xlink:title=" ">
<polygon fill="#e0e0e0" stroke="#999999" points="1229.5,-145.5 1176.5,-145.5 1176.5,-126.5 1229.5,-126.5 1229.5,-145.5"/>
<text text-anchor="middle" x="1203" y="-133.5" font-family="Helvetica,sans-Serif" font-size="10.00">iterator</text>
</a>
</g>
</g>
<!-- Node3&#45;&gt;Node5 -->
<g id="edge4_Node000003_Node000005" class="edge">
<title>Node3&#45;&gt;Node5</title>
<g id="a_edge4_Node000003_Node000005"><a xlink:title=" ">
<path fill="none" stroke="#63b8ff" d="M1579.71,-192.72C1504.61,-183.61 1382.14,-167.98 1277,-151 1264.82,-149.03 1251.57,-146.61 1239.68,-144.34"/>
<polygon fill="#63b8ff" stroke="#63b8ff" points="1240.14,-140.87 1229.66,-142.4 1238.81,-147.74 1240.14,-140.87"/>
</a>
</g>
</g>
<!-- Node6 -->
<g id="Node000006" class="node">
<title>Node6</title>
<g id="a_Node000006"><a xlink:title=" ">
<polygon fill="#e0e0e0" stroke="#999999" points="402,-79.5 358,-79.5 358,-60.5 402,-60.5 402,-79.5"/>
<text text-anchor="middle" x="380" y="-67.5" font-family="Helvetica,sans-Serif" font-size="10.00">string</text>
</a>
</g>
</g>
<!-- Node3&#45;&gt;Node6 -->
<g id="edge5_Node000003_Node000006" class="edge">
<title>Node3&#45;&gt;Node6</title>
<g id="a_edge5_Node000003_Node000006"><a xlink:title=" ">
<path fill="none" stroke="#63b8ff" d="M1651.29,-186.81C1652.08,-168.43 1650.29,-136.88 1631,-121 1582.57,-81.13 603.85,-72.51 412.34,-71.2"/>
<polygon fill="#63b8ff" stroke="#63b8ff" points="412.11,-67.7 402.09,-71.13 412.07,-74.7 412.11,-67.7"/>
</a>
</g>
</g>
<!-- Node7&#45;&gt;Node2 -->
<g id="edge8_Node000007_Node000002" class="edge">
<title>Node7&#45;&gt;Node2</title>
<g id="a_edge8_Node000007_Node000002"><a xlink:title=" ">
<path fill="none" stroke="#63b8ff" d="M835.02,-186.92C827.91,-170.55 819.1,-142.95 828,-121 843.35,-83.13 855.18,-72.71 892,-55 965.1,-19.84 1208.59,-12.46 1310.03,-10.91"/>
<polygon fill="#63b8ff" stroke="#63b8ff" points="1310.3,-14.41 1320.25,-10.77 1310.21,-7.41 1310.3,-14.41"/>
</a>
</g>
</g>
<!-- Node8 -->
<g id="Node000008" class="node">
<title>Node8</title>
<g id="a_Node000008"><a xlink:href="../../d2/dc8/universal_2include_2userver_2formats_2parse_2to_8hpp.html" target="_top" xlink:title="Helper for parsers.">
<polygon fill="white" stroke="#666666" points="594.5,-151 469.5,-151 469.5,-121 594.5,-121 594.5,-151"/>
<text text-anchor="start" x="477.5" y="-139" font-family="Helvetica,sans-Serif" font-size="10.00">userver/formats/parse</text>
<text text-anchor="middle" x="532" y="-128" font-family="Helvetica,sans-Serif" font-size="10.00">/to.hpp</text>
</a>
</g>
</g>
<!-- Node7&#45;&gt;Node8 -->
<g id="edge9_Node000007_Node000008" class="edge">
<title>Node7&#45;&gt;Node8</title>
<g id="a_edge9_Node000007_Node000008"><a xlink:title=" ">
<path fill="none" stroke="#63b8ff" d="M773.97,-186.95C723.84,-176.61 655.77,-162.55 604.6,-151.99"/>
<polygon fill="#63b8ff" stroke="#63b8ff" points="605.1,-148.52 594.6,-149.92 603.68,-155.37 605.1,-148.52"/>
</a>
</g>
</g>
<!-- Node9 -->
<g id="Node000009" class="node">
<title>Node9</title>
<g id="a_Node000009"><a xlink:href="../../d6/d8e/universal_2include_2userver_2formats_2serialize_2to_8hpp.html" target="_top" xlink:title="Helper for serializers.">
<polygon fill="white" stroke="#666666" points="751.5,-151 612.5,-151 612.5,-121 751.5,-121 751.5,-151"/>
<text text-anchor="start" x="620.5" y="-139" font-family="Helvetica,sans-Serif" font-size="10.00">userver/formats/serialize</text>
<text text-anchor="middle" x="682" y="-128" font-family="Helvetica,sans-Serif" font-size="10.00">/to.hpp</text>
</a>
</g>
</g>
<!-- Node7&#45;&gt;Node9 -->
<g id="edge10_Node000007_Node000009" class="edge">
<title>Node7&#45;&gt;Node9</title>
<g id="a_edge10_Node000007_Node000009"><a xlink:title=" ">
<path fill="none" stroke="#63b8ff" d="M806.89,-186.95C783.23,-177.49 751.84,-164.93 726.44,-154.78"/>
<polygon fill="#63b8ff" stroke="#63b8ff" points="727.62,-151.48 717.03,-151.01 725.02,-157.98 727.62,-151.48"/>
</a>
</g>
</g>
<!-- Node10 -->
<g id="Node000010" class="node">
<title>Node10</title>
<g id="a_Node000010"><a xlink:href="../../d3/da0/meta__light_8hpp.html" target="_top" xlink:title="Lightweight concepts.">
<polygon fill="white" stroke="#666666" points="952,-151 846,-151 846,-121 952,-121 952,-151"/>
<text text-anchor="start" x="854" y="-139" font-family="Helvetica,sans-Serif" font-size="10.00">userver/utils/meta</text>
<text text-anchor="middle" x="899" y="-128" font-family="Helvetica,sans-Serif" font-size="10.00">_light.hpp</text>
</a>
</g>
</g>
<!-- Node7&#45;&gt;Node10 -->
<g id="edge11_Node000007_Node000010" class="edge">
<title>Node7&#45;&gt;Node10</title>
<g id="a_edge11_Node000007_Node000010"><a xlink:title=" ">
<path fill="none" stroke="#63b8ff" d="M854.65,-186.8C861.96,-178.59 871.3,-168.1 879.52,-158.87"/>
<polygon fill="#63b8ff" stroke="#63b8ff" points="882.35,-160.96 886.39,-151.16 877.12,-156.3 882.35,-160.96"/>
</a>
</g>
</g>
<!-- Node10&#45;&gt;Node2 -->
<g id="edge12_Node000010_Node000002" class="edge">
<title>Node10&#45;&gt;Node2</title>
<g id="a_edge12_Node000010_Node000002"><a xlink:title=" ">
<path fill="none" stroke="#63b8ff" d="M950.42,-120.96C1041.76,-96.02 1230.52,-44.49 1313.88,-21.73"/>
<polygon fill="#63b8ff" stroke="#63b8ff" points="1315.03,-25.04 1323.75,-19.03 1313.18,-18.29 1315.03,-25.04"/>
</a>
</g>
</g>
<!-- Node11 -->
<g id="Node000011" class="node">
<title>Node11</title>
<g id="a_Node000011"><a xlink:href="../../d9/dce/void__t_8hpp.html" target="_top" xlink:title="std::void_t implementation with workarounds for compiler bugs">
<polygon fill="white" stroke="#666666" points="1304.5,-85 1203.5,-85 1203.5,-55 1304.5,-55 1304.5,-85"/>
<text text-anchor="start" x="1211.5" y="-73" font-family="Helvetica,sans-Serif" font-size="10.00">userver/utils/void</text>
<text text-anchor="middle" x="1254" y="-62" font-family="Helvetica,sans-Serif" font-size="10.00">_t.hpp</text>
</a>
</g>
</g>
<!-- Node10&#45;&gt;Node11 -->
<g id="edge13_Node000010_Node000011" class="edge">
<title>Node10&#45;&gt;Node11</title>
<g id="a_edge13_Node000010_Node000011"><a xlink:title=" ">
<path fill="none" stroke="#63b8ff" d="M952.06,-122.82C955.08,-122.19 958.08,-121.58 961,-121 1041.03,-105.15 1133.97,-89.8 1193.34,-80.39"/>
<polygon fill="#63b8ff" stroke="#63b8ff" points="1193.97,-83.83 1203.3,-78.81 1192.87,-76.92 1193.97,-83.83"/>
</a>
</g>
</g>
<!-- Node11&#45;&gt;Node2 -->
<g id="edge14_Node000011_Node000002" class="edge">
<title>Node11&#45;&gt;Node2</title>
<g id="a_edge14_Node000011_Node000002"><a xlink:title=" ">
<path fill="none" stroke="#63b8ff" d="M1278.19,-54.99C1294.29,-45.66 1315.34,-33.47 1331.33,-24.21"/>
<polygon fill="#63b8ff" stroke="#63b8ff" points="1333.19,-27.18 1340.08,-19.14 1329.68,-21.12 1333.19,-27.18"/>
</a>
</g>
</g>
<!-- Node12&#45;&gt;Node7 -->
<g id="edge20_Node000012_Node000007" class="edge">
<title>Node12&#45;&gt;Node7</title>
<g id="a_edge20_Node000012_Node000007"><a xlink:title=" ">
<path fill="none" stroke="#63b8ff" d="M566.78,-255.11C621.83,-244.69 702.15,-229.48 761.83,-218.18"/>
<polygon fill="#63b8ff" stroke="#63b8ff" points="762.8,-221.56 771.97,-216.26 761.49,-214.68 762.8,-221.56"/>
</a>
</g>
</g>
<!-- Node12&#45;&gt;Node8 -->
<g id="edge21_Node000012_Node000008" class="edge">
<title>Node12&#45;&gt;Node8</title>
<g id="a_edge21_Node000012_Node000008"><a xlink:title=" ">
<path fill="none" stroke="#63b8ff" d="M441.24,-256.37C389.87,-244.84 329.79,-223.07 357,-187 369.73,-170.13 416.94,-157.23 459.12,-148.77"/>
<polygon fill="#63b8ff" stroke="#63b8ff" points="460,-152.17 469.15,-146.82 458.66,-145.29 460,-152.17"/>
</a>
</g>
</g>
<!-- Node13 -->
<g id="Node000013" class="node">
<title>Node13</title>
<g id="a_Node000013"><a xlink:title=" ">
<polygon fill="#e0e0e0" stroke="#999999" points="240,-145.5 190,-145.5 190,-126.5 240,-126.5 240,-145.5"/>
<text text-anchor="middle" x="215" y="-133.5" font-family="Helvetica,sans-Serif" font-size="10.00">chrono</text>
</a>
</g>
</g>
<!-- Node12&#45;&gt;Node13 -->
<g id="edge16_Node000012_Node000013" class="edge">
<title>Node12&#45;&gt;Node13</title>
<g id="a_edge16_Node000012_Node000013"><a xlink:title=" ">
<path fill="none" stroke="#63b8ff" d="M441.36,-266.15C359.89,-263.55 224.26,-253.68 193,-217 177.73,-199.07 190.94,-171.41 202.48,-153.76"/>
<polygon fill="#63b8ff" stroke="#63b8ff" points="205.35,-155.76 208.2,-145.55 199.61,-151.76 205.35,-155.76"/>
</a>
</g>
</g>
<!-- Node14 -->
<g id="Node000014" class="node">
<title>Node14</title>
<g id="a_Node000014"><a xlink:title=" ">
<polygon fill="#e0e0e0" stroke="#999999" points="1167,-211.5 1117,-211.5 1117,-192.5 1167,-192.5 1167,-211.5"/>
<text text-anchor="middle" x="1142" y="-199.5" font-family="Helvetica,sans-Serif" font-size="10.00">cstdint</text>
</a>
</g>
</g>
<!-- Node12&#45;&gt;Node14 -->
<g id="edge17_Node000012_Node000014" class="edge">
<title>Node12&#45;&gt;Node14</title>
<g id="a_edge17_Node000012_Node000014"><a xlink:title=" ">
<path fill="none" stroke="#63b8ff" d="M566.59,-263.35C670.6,-256.85 885.47,-241.6 1066,-217 1079.43,-215.17 1094.09,-212.61 1106.92,-210.17"/>
<polygon fill="#63b8ff" stroke="#63b8ff" points="1107.61,-213.6 1116.76,-208.26 1106.28,-206.73 1107.61,-213.6"/>
</a>
</g>
</g>
<!-- Node15 -->
<g id="Node000015" class="node">
<title>Node15</title>
<g id="a_Node000015"><a xlink:title=" ">
<polygon fill="#e0e0e0" stroke="#999999" points="410,-211.5 366,-211.5 366,-192.5 410,-192.5 410,-211.5"/>
<text text-anchor="middle" x="388" y="-199.5" font-family="Helvetica,sans-Serif" font-size="10.00">limits</text>
</a>
</g>
</g>
<!-- Node12&#45;&gt;Node15 -->
<g id="edge18_Node000012_Node000015" class="edge">
<title>Node12&#45;&gt;Node15</title>
<g id="a_edge18_Node000012_Node000015"><a xlink:title=" ">
<path fill="none" stroke="#63b8ff" d="M478.54,-252.95C458.83,-242.08 431.69,-227.11 412.28,-216.4"/>
<polygon fill="#63b8ff" stroke="#63b8ff" points="413.88,-213.28 403.44,-211.52 410.5,-219.41 413.88,-213.28"/>
</a>
</g>
</g>
<!-- Node16 -->
<g id="Node000016" class="node">
<title>Node16</title>
<g id="a_Node000016"><a xlink:title=" ">
<polygon fill="#e0e0e0" stroke="#999999" points="677.5,-211.5 598.5,-211.5 598.5,-192.5 677.5,-192.5 677.5,-211.5"/>
<text text-anchor="middle" x="638" y="-199.5" font-family="Helvetica,sans-Serif" font-size="10.00">fmt/format.h</text>
</a>
</g>
</g>
<!-- Node12&#45;&gt;Node16 -->
<g id="edge19_Node000012_Node000016" class="edge">
<title>Node12&#45;&gt;Node16</title>
<g id="a_edge19_Node000012_Node000016"><a xlink:title=" ">
<path fill="none" stroke="#63b8ff" d="M533.41,-252.95C556.49,-241.93 588.38,-226.7 610.86,-215.96"/>
<polygon fill="#63b8ff" stroke="#63b8ff" points="612.65,-218.99 620.17,-211.52 609.63,-212.67 612.65,-218.99"/>
</a>
</g>
</g>
<!-- Node17 -->
<g id="Node000017" class="node">
<title>Node17</title>
<g id="a_Node000017"><a xlink:href="../../d7/d4a/datetime_8hpp.html" target="_top" xlink:title="Date and Time related converters.">
<polygon fill="white" stroke="#666666" points="146,-211.5 0,-211.5 0,-192.5 146,-192.5 146,-211.5"/>
<text text-anchor="middle" x="73" y="-199.5" font-family="Helvetica,sans-Serif" font-size="10.00">userver/utils/datetime.hpp</text>
</a>
</g>
</g>
<!-- Node12&#45;&gt;Node17 -->
<g id="edge22_Node000012_Node000017" class="edge">
<title>Node12&#45;&gt;Node17</title>
<g id="a_edge22_Node000012_Node000017"><a xlink:title=" ">
<path fill="none" stroke="#63b8ff" d="M441.5,-258.21C372.54,-248.44 258.28,-232.05 160,-217 152.04,-215.78 143.68,-214.47 135.42,-213.16"/>
<polygon fill="#63b8ff" stroke="#63b8ff" points="135.85,-209.69 125.43,-211.57 134.75,-216.6 135.85,-209.69"/>
</a>
</g>
</g>
<!-- Node20 -->
<g id="Node000020" class="node">
<title>Node20</title>
<g id="a_Node000020"><a xlink:href="../../dd/d10/from__string__saturating_8hpp.html" target="_top" xlink:title="Saturating converters from strings to time points.">
<polygon fill="white" stroke="#666666" points="580,-217 428,-217 428,-187 580,-187 580,-217"/>
<text text-anchor="start" x="436" y="-205" font-family="Helvetica,sans-Serif" font-size="10.00">userver/utils/datetime</text>
<text text-anchor="middle" x="504" y="-194" font-family="Helvetica,sans-Serif" font-size="10.00">/from_string_saturating.hpp</text>
</a>
</g>
</g>
<!-- Node12&#45;&gt;Node20 -->
<g id="edge27_Node000012_Node000020" class="edge">
<title>Node12&#45;&gt;Node20</title>
<g id="a_edge27_Node000012_Node000020"><a xlink:title=" ">
<path fill="none" stroke="#63b8ff" d="M504,-252.8C504,-245.34 504,-235.99 504,-227.41"/>
<polygon fill="#63b8ff" stroke="#63b8ff" points="507.5,-227.16 504,-217.16 500.5,-227.16 507.5,-227.16"/>
</a>
</g>
</g>
<!-- Node21 -->
<g id="Node000021" class="node">
<title>Node21</title>
<g id="a_Node000021"><a xlink:href="../../d0/d03/universal_2include_2userver_2utils_2meta_8hpp.html" target="_top" xlink:title="Metaprogramming, template variables and concepts.">
<polygon fill="white" stroke="#666666" points="1057.5,-211.5 930.5,-211.5 930.5,-192.5 1057.5,-192.5 1057.5,-211.5"/>
<text text-anchor="middle" x="994" y="-199.5" font-family="Helvetica,sans-Serif" font-size="10.00">userver/utils/meta.hpp</text>
</a>
</g>
</g>
<!-- Node12&#45;&gt;Node21 -->
<g id="edge30_Node000012_Node000021" class="edge">
<title>Node12&#45;&gt;Node21</title>
<g id="a_edge30_Node000012_Node000021"><a xlink:title=" ">
<path fill="none" stroke="#63b8ff" d="M566.71,-260.87C648.47,-252.55 795.82,-236.48 921,-217 927.85,-215.93 935.05,-214.7 942.14,-213.41"/>
<polygon fill="#63b8ff" stroke="#63b8ff" points="943.2,-216.77 952.4,-211.5 941.92,-209.89 943.2,-216.77"/>
</a>
</g>
</g>
<!-- Node25 -->
<g id="Node000025" class="node">
<title>Node25</title>
<g id="a_Node000025"><a xlink:href="../../dc/dff/string__to__duration_8hpp.html" target="_top" xlink:title="Converts strings like &quot;10s&quot;, &quot;5d&quot;, &quot;1h&quot; to durations.">
<polygon fill="white" stroke="#666666" points="310,-217 202,-217 202,-187 310,-187 310,-217"/>
<text text-anchor="start" x="210" y="-205" font-family="Helvetica,sans-Serif" font-size="10.00">userver/utils/string</text>
<text text-anchor="middle" x="256" y="-194" font-family="Helvetica,sans-Serif" font-size="10.00">_to_duration.hpp</text>
</a>
</g>
</g>
<!-- Node12&#45;&gt;Node25 -->
<g id="edge37_Node000012_Node000025" class="edge">
<title>Node12&#45;&gt;Node25</title>
<g id="a_edge37_Node000012_Node000025"><a xlink:title=" ">
<path fill="none" stroke="#63b8ff" d="M449.58,-252.95C411.38,-243.1 360.15,-229.88 319.99,-219.51"/>
<polygon fill="#63b8ff" stroke="#63b8ff" points="320.86,-216.12 310.3,-217.01 319.11,-222.9 320.86,-216.12"/>
</a>
</g>
</g>
<!-- Node17&#45;&gt;Node6 -->
<g id="edge25_Node000017_Node000006" class="edge">
<title>Node17&#45;&gt;Node6</title>
<g id="a_edge25_Node000017_Node000006"><a xlink:title=" ">
<path fill="none" stroke="#63b8ff" d="M82.01,-192.35C99.58,-175.95 140.29,-140.26 181,-121 236.42,-94.78 307.28,-81.22 347.76,-75.14"/>
<polygon fill="#63b8ff" stroke="#63b8ff" points="348.45,-78.58 357.85,-73.69 347.45,-71.65 348.45,-78.58"/>
</a>
</g>
</g>
<!-- Node17&#45;&gt;Node13 -->
<g id="edge23_Node000017_Node000013" class="edge">
<title>Node17&#45;&gt;Node13</title>
<g id="a_edge23_Node000017_Node000013"><a xlink:title=" ">
<path fill="none" stroke="#63b8ff" d="M92.15,-192.37C116.39,-181.44 158.37,-162.52 186.41,-149.88"/>
<polygon fill="#63b8ff" stroke="#63b8ff" points="188.02,-153 195.7,-145.7 185.14,-146.62 188.02,-153"/>
</a>
</g>
</g>
<!-- Node18 -->
<g id="Node000018" class="node">
<title>Node18</title>
<g id="a_Node000018"><a xlink:title=" ">
<polygon fill="#e0e0e0" stroke="#999999" points="412.5,-145.5 347.5,-145.5 347.5,-126.5 412.5,-126.5 412.5,-145.5"/>
<text text-anchor="middle" x="380" y="-133.5" font-family="Helvetica,sans-Serif" font-size="10.00">stdexcept</text>
</a>
</g>
</g>
<!-- Node17&#45;&gt;Node18 -->
<g id="edge24_Node000017_Node000018" class="edge">
<title>Node17&#45;&gt;Node18</title>
<g id="a_edge24_Node000017_Node000018"><a xlink:title=" ">
<path fill="none" stroke="#63b8ff" d="M114.08,-192.44C172.19,-180.32 277.88,-158.29 337.01,-145.96"/>
<polygon fill="#63b8ff" stroke="#63b8ff" points="338.06,-149.32 347.13,-143.85 336.63,-142.47 338.06,-149.32"/>
</a>
</g>
</g>
<!-- Node19 -->
<g id="Node000019" class="node">
<title>Node19</title>
<g id="a_Node000019"><a xlink:title=" ">
<polygon fill="#e0e0e0" stroke="#999999" points="121,-145.5 25,-145.5 25,-126.5 121,-126.5 121,-145.5"/>
<text text-anchor="middle" x="73" y="-133.5" font-family="Helvetica,sans-Serif" font-size="10.00">cctz/civil_time.h</text>
</a>
</g>
</g>
<!-- Node17&#45;&gt;Node19 -->
<g id="edge26_Node000017_Node000019" class="edge">
<title>Node17&#45;&gt;Node19</title>
<g id="a_edge26_Node000017_Node000019"><a xlink:title=" ">
<path fill="none" stroke="#63b8ff" d="M73,-192.37C73,-183.16 73,-168.29 73,-156.27"/>
<polygon fill="#63b8ff" stroke="#63b8ff" points="76.5,-155.91 73,-145.91 69.5,-155.91 76.5,-155.91"/>
</a>
</g>
</g>
<!-- Node20&#45;&gt;Node6 -->
<g id="edge29_Node000020_Node000006" class="edge">
<title>Node20&#45;&gt;Node6</title>
<g id="a_edge29_Node000020_Node000006"><a xlink:title=" ">
<path fill="none" stroke="#63b8ff" d="M427.8,-187.19C389.7,-178.57 349.31,-166.22 338,-151 322.66,-130.36 344.18,-103.36 361.65,-86.6"/>
<polygon fill="#63b8ff" stroke="#63b8ff" points="364.21,-89 369.24,-79.68 359.49,-83.83 364.21,-89"/>
</a>
</g>
</g>
<!-- Node20&#45;&gt;Node13 -->
<g id="edge28_Node000020_Node000013" class="edge">
<title>Node20&#45;&gt;Node13</title>
<g id="a_edge28_Node000020_Node000013"><a xlink:title=" ">
<path fill="none" stroke="#63b8ff" d="M440.58,-186.95C382.03,-173.99 297.23,-155.21 250.04,-144.76"/>
<polygon fill="#63b8ff" stroke="#63b8ff" points="250.53,-141.28 240.01,-142.54 249.02,-148.12 250.53,-141.28"/>
</a>
</g>
</g>
<!-- Node21&#45;&gt;Node2 -->
<g id="edge34_Node000021_Node000002" class="edge">
<title>Node21&#45;&gt;Node2</title>
<g id="a_edge34_Node000021_Node000002"><a xlink:title=" ">
<path fill="none" stroke="#63b8ff" d="M947.67,-192.48C906.3,-183.83 850.25,-169.13 837,-151 829.13,-140.24 828.88,-131.58 837,-121 894.66,-45.83 1195.13,-20.08 1310.15,-12.89"/>
<polygon fill="#63b8ff" stroke="#63b8ff" points="1310.59,-16.37 1320.36,-12.27 1310.17,-9.38 1310.59,-16.37"/>
</a>
</g>
</g>
<!-- Node21&#45;&gt;Node5 -->
<g id="edge32_Node000021_Node000005" class="edge">
<title>Node21&#45;&gt;Node5</title>
<g id="a_edge32_Node000021_Node000005"><a xlink:title=" ">
<path fill="none" stroke="#63b8ff" d="M1026.79,-192.46C1061.79,-183.13 1118.73,-167.33 1167,-151 1168.66,-150.44 1170.36,-149.85 1172.06,-149.23"/>
<polygon fill="#63b8ff" stroke="#63b8ff" points="1173.65,-152.38 1181.8,-145.61 1171.2,-145.82 1173.65,-152.38"/>
</a>
</g>
</g>
<!-- Node21&#45;&gt;Node10 -->
<g id="edge36_Node000021_Node000010" class="edge">
<title>Node21&#45;&gt;Node10</title>
<g id="a_edge36_Node000021_Node000010"><a xlink:title=" ">
<path fill="none" stroke="#63b8ff" d="M981.19,-192.37C967.7,-183.28 945.99,-168.66 928.28,-156.72"/>
<polygon fill="#63b8ff" stroke="#63b8ff" points="930.2,-153.8 919.95,-151.12 926.29,-159.61 930.2,-153.8"/>
</a>
</g>
</g>
<!-- Node22 -->
<g id="Node000022" class="node">
<title>Node22</title>
<g id="a_Node000022"><a xlink:title=" ">
<polygon fill="#e0e0e0" stroke="#999999" points="1084,-145.5 1036,-145.5 1036,-126.5 1084,-126.5 1084,-145.5"/>
<text text-anchor="middle" x="1060" y="-133.5" font-family="Helvetica,sans-Serif" font-size="10.00">iosfwd</text>
</a>
</g>
</g>
<!-- Node21&#45;&gt;Node22 -->
<g id="edge31_Node000021_Node000022" class="edge">
<title>Node21&#45;&gt;Node22</title>
<g id="a_edge31_Node000021_Node000022"><a xlink:title=" ">
<path fill="none" stroke="#63b8ff" d="M1002.9,-192.37C1013.27,-182.31 1030.63,-165.48 1043.49,-153.01"/>
<polygon fill="#63b8ff" stroke="#63b8ff" points="1046.07,-155.38 1050.82,-145.91 1041.2,-150.35 1046.07,-155.38"/>
</a>
</g>
</g>
<!-- Node23 -->
<g id="Node000023" class="node">
<title>Node23</title>
<g id="a_Node000023"><a xlink:title=" ">
<polygon fill="#e0e0e0" stroke="#999999" points="1158,-145.5 1102,-145.5 1102,-126.5 1158,-126.5 1158,-145.5"/>
<text text-anchor="middle" x="1130" y="-133.5" font-family="Helvetica,sans-Serif" font-size="10.00">optional</text>
</a>
</g>
</g>
<!-- Node21&#45;&gt;Node23 -->
<g id="edge33_Node000021_Node000023" class="edge">
<title>Node21&#45;&gt;Node23</title>
<g id="a_edge33_Node000021_Node000023"><a xlink:title=" ">
<path fill="none" stroke="#63b8ff" d="M1012.34,-192.37C1035.46,-181.49 1075.41,-162.69 1102.27,-150.05"/>
<polygon fill="#63b8ff" stroke="#63b8ff" points="1103.96,-153.12 1111.51,-145.7 1100.98,-146.79 1103.96,-153.12"/>
</a>
</g>
</g>
<!-- Node24 -->
<g id="Node000024" class="node">
<title>Node24</title>
<g id="a_Node000024"><a xlink:title=" ">
<polygon fill="#e0e0e0" stroke="#999999" points="1017.5,-145.5 970.5,-145.5 970.5,-126.5 1017.5,-126.5 1017.5,-145.5"/>
<text text-anchor="middle" x="994" y="-133.5" font-family="Helvetica,sans-Serif" font-size="10.00">vector</text>
</a>
</g>
</g>
<!-- Node21&#45;&gt;Node24 -->
<g id="edge35_Node000021_Node000024" class="edge">
<title>Node21&#45;&gt;Node24</title>
<g id="a_edge35_Node000021_Node000024"><a xlink:title=" ">
<path fill="none" stroke="#63b8ff" d="M994,-192.37C994,-183.16 994,-168.29 994,-156.27"/>
<polygon fill="#63b8ff" stroke="#63b8ff" points="997.5,-155.91 994,-145.91 990.5,-155.91 997.5,-155.91"/>
</a>
</g>
</g>
<!-- Node25&#45;&gt;Node6 -->
<g id="edge39_Node000025_Node000006" class="edge">
<title>Node25&#45;&gt;Node6</title>
<g id="a_edge39_Node000025_Node000006"><a xlink:title=" ">
<path fill="none" stroke="#63b8ff" d="M268.43,-186.91C282.78,-170.76 307.2,-143.6 329,-121 340.28,-109.31 353.37,-96.49 363.46,-86.76"/>
<polygon fill="#63b8ff" stroke="#63b8ff" points="366.03,-89.15 370.82,-79.7 361.18,-84.1 366.03,-89.15"/>
</a>
</g>
</g>
<!-- Node25&#45;&gt;Node13 -->
<g id="edge38_Node000025_Node000013" class="edge">
<title>Node25&#45;&gt;Node13</title>
<g id="a_edge38_Node000025_Node000013"><a xlink:title=" ">
<path fill="none" stroke="#63b8ff" d="M246.9,-186.8C240.76,-177.21 232.62,-164.5 226.1,-154.32"/>
<polygon fill="#63b8ff" stroke="#63b8ff" points="229.01,-152.38 220.67,-145.84 223.11,-156.15 229.01,-152.38"/>
</a>
</g>
</g>
<!-- Node26&#45;&gt;Node6 -->
<g id="edge43_Node000026_Node000006" class="edge">
<title>Node26&#45;&gt;Node6</title>
<g id="a_edge43_Node000026_Node000006"><a xlink:title=" ">
<path fill="none" stroke="#63b8ff" d="M1022.83,-266.01C956.48,-263.02 848.57,-252.49 763,-217 742.14,-208.35 742.93,-195.46 722,-187 613.03,-142.95 565.27,-203.28 460,-151 444.54,-143.32 412.59,-108.47 394.09,-87.38"/>
<polygon fill="#63b8ff" stroke="#63b8ff" points="396.49,-84.81 387.28,-79.56 391.2,-89.4 396.49,-84.81"/>
</a>
</g>
</g>
<!-- Node26&#45;&gt;Node18 -->
<g id="edge42_Node000026_Node000018" class="edge">
<title>Node26&#45;&gt;Node18</title>
<g id="a_edge42_Node000026_Node000018"><a xlink:title=" ">
<path fill="none" stroke="#63b8ff" d="M1022.71,-266.71C950.4,-264.5 827.68,-254.81 730,-217 707.93,-208.46 708.08,-195.52 686,-187 577.57,-145.16 540.57,-175.66 427,-151 423.38,-150.21 419.62,-149.29 415.89,-148.3"/>
<polygon fill="#63b8ff" stroke="#63b8ff" points="416.74,-144.9 406.17,-145.56 414.84,-151.64 416.74,-144.9"/>
</a>
</g>
</g>
<!-- Node26&#45;&gt;Node22 -->
<g id="edge41_Node000026_Node000022" class="edge">
<title>Node26&#45;&gt;Node22</title>
<g id="a_edge41_Node000026_Node000022"><a xlink:title=" ">
<path fill="none" stroke="#63b8ff" d="M1081.39,-252.84C1077.05,-229.34 1068.36,-182.26 1063.49,-155.93"/>
<polygon fill="#63b8ff" stroke="#63b8ff" points="1066.87,-154.95 1061.62,-145.75 1059.99,-156.22 1066.87,-154.95"/>
</a>
</g>
</g>
<!-- Node26&#45;&gt;Node27 -->
<g id="edge44_Node000026_Node000027" class="edge">
<title>Node26&#45;&gt;Node27</title>
<g id="a_edge44_Node000026_Node000027"><a xlink:title=" ">
<path fill="none" stroke="#63b8ff" d="M1142.59,-252.95C1183.89,-243.06 1239.34,-229.77 1282.65,-219.38"/>
<polygon fill="#63b8ff" stroke="#63b8ff" points="1283.63,-222.75 1292.54,-217.01 1282,-215.94 1283.63,-222.75"/>
</a>
</g>
</g>
<!-- Node27&#45;&gt;Node2 -->
<g id="edge45_Node000027_Node000002" class="edge">
<title>Node27&#45;&gt;Node2</title>
<g id="a_edge45_Node000027_Node000002"><a xlink:title=" ">
<path fill="none" stroke="#63b8ff" d="M1392.36,-186.81C1408.66,-178.95 1425.69,-167.38 1435,-151 1460.99,-105.28 1406.07,-51.21 1374.76,-25.52"/>
<polygon fill="#63b8ff" stroke="#63b8ff" points="1376.65,-22.54 1366.65,-19.05 1372.29,-28.02 1376.65,-22.54"/>
</a>
</g>
</g>
<!-- Node27&#45;&gt;Node11 -->
<g id="edge46_Node000027_Node000011" class="edge">
<title>Node27&#45;&gt;Node11</title>
<g id="a_edge46_Node000027_Node000011"><a xlink:title=" ">
<path fill="none" stroke="#63b8ff" d="M1320.54,-186.82C1305.45,-178.38 1288.12,-166.3 1277,-151 1265.16,-134.7 1259.39,-112.41 1256.6,-95.51"/>
<polygon fill="#63b8ff" stroke="#63b8ff" points="1260.02,-94.7 1255.15,-85.29 1253.09,-95.68 1260.02,-94.7"/>
</a>
</g>
</g>
<!-- Node28 -->
<g id="Node000028" class="node">
<title>Node28</title>
<g id="a_Node000028"><a xlink:href="../../d1/d4c/path_8hpp.html" target="_top" xlink:title=" ">
<polygon fill="white" stroke="#666666" points="1426,-151 1286,-151 1286,-121 1426,-121 1426,-151"/>
<text text-anchor="start" x="1294" y="-139" font-family="Helvetica,sans-Serif" font-size="10.00">userver/formats/common</text>
<text text-anchor="middle" x="1356" y="-128" font-family="Helvetica,sans-Serif" font-size="10.00">/path.hpp</text>
</a>
</g>
</g>
<!-- Node27&#45;&gt;Node28 -->
<g id="edge47_Node000027_Node000028" class="edge">
<title>Node27&#45;&gt;Node28</title>
<g id="a_edge47_Node000027_Node000028"><a xlink:title=" ">
<path fill="none" stroke="#63b8ff" d="M1352.11,-186.8C1352.69,-179.34 1353.42,-169.99 1354.09,-161.41"/>
<polygon fill="#63b8ff" stroke="#63b8ff" points="1357.6,-161.41 1354.89,-151.16 1350.63,-160.86 1357.6,-161.41"/>
</a>
</g>
</g>
<!-- Node30 -->
<g id="Node000030" class="node">
<title>Node30</title>
<g id="a_Node000030"><a xlink:href="../../da/d72/type_8hpp.html" target="_top" xlink:title="Common enum of types.">
<polygon fill="white" stroke="#666666" points="1622,-151 1482,-151 1482,-121 1622,-121 1622,-151"/>
<text text-anchor="start" x="1490" y="-139" font-family="Helvetica,sans-Serif" font-size="10.00">userver/formats/common</text>
<text text-anchor="middle" x="1552" y="-128" font-family="Helvetica,sans-Serif" font-size="10.00">/type.hpp</text>
</a>
</g>
</g>
<!-- Node27&#45;&gt;Node30 -->
<g id="edge50_Node000027_Node000030" class="edge">
<title>Node27&#45;&gt;Node30</title>
<g id="a_edge50_Node000027_Node000030"><a xlink:title=" ">
<path fill="none" stroke="#63b8ff" d="M1395.11,-186.95C1425.48,-177.28 1466.01,-164.38 1498.27,-154.11"/>
<polygon fill="#63b8ff" stroke="#63b8ff" points="1499.53,-157.38 1507.99,-151.01 1497.4,-150.71 1499.53,-157.38"/>
</a>
</g>
</g>
<!-- Node28&#45;&gt;Node6 -->
<g id="edge48_Node000028_Node000006" class="edge">
<title>Node28&#45;&gt;Node6</title>
<g id="a_edge48_Node000028_Node000006"><a xlink:title=" ">
<path fill="none" stroke="#63b8ff" d="M1285.88,-125.98C1270.14,-124.15 1253.52,-122.37 1238,-121 916.55,-92.59 525.86,-76.5 412.35,-72.19"/>
<polygon fill="#63b8ff" stroke="#63b8ff" points="412.37,-68.68 402.24,-71.81 412.1,-75.68 412.37,-68.68"/>
</a>
</g>
</g>
<!-- Node29 -->
<g id="Node000029" class="node">
<title>Node29</title>
<g id="a_Node000029"><a xlink:title=" ">
<polygon fill="#e0e0e0" stroke="#999999" points="1395.5,-79.5 1322.5,-79.5 1322.5,-60.5 1395.5,-60.5 1395.5,-79.5"/>
<text text-anchor="middle" x="1359" y="-67.5" font-family="Helvetica,sans-Serif" font-size="10.00">string_view</text>
</a>
</g>
</g>
<!-- Node28&#45;&gt;Node29 -->
<g id="edge49_Node000028_Node000029" class="edge">
<title>Node28&#45;&gt;Node29</title>
<g id="a_edge49_Node000028_Node000029"><a xlink:title=" ">
<path fill="none" stroke="#63b8ff" d="M1356.67,-120.8C1357.09,-111.7 1357.65,-99.79 1358.11,-89.9"/>
<polygon fill="#63b8ff" stroke="#63b8ff" points="1361.61,-90 1358.59,-79.84 1354.62,-89.67 1361.61,-90"/>
</a>
</g>
</g>
<!-- Node31&#45;&gt;Node5 -->
<g id="edge53_Node000031_Node000005" class="edge">
<title>Node31&#45;&gt;Node5</title>
<g id="a_edge53_Node000031_Node000005"><a xlink:title=" ">
<path fill="none" stroke="#63b8ff" d="M1255.66,-252.82C1248.5,-236.82 1236.47,-210.01 1226,-187 1221.18,-176.4 1215.73,-164.55 1211.35,-155.06"/>
<polygon fill="#63b8ff" stroke="#63b8ff" points="1214.46,-153.45 1207.09,-145.84 1208.11,-156.39 1214.46,-153.45"/>
</a>
</g>
</g>
<!-- Node31&#45;&gt;Node14 -->
<g id="edge52_Node000031_Node000014" class="edge">
<title>Node31&#45;&gt;Node14</title>
<g id="a_edge52_Node000031_Node000014"><a xlink:title=" ">
<path fill="none" stroke="#63b8ff" d="M1235.67,-252.95C1215.18,-242.03 1186.94,-226.97 1166.84,-216.25"/>
<polygon fill="#63b8ff" stroke="#63b8ff" points="1168.44,-213.14 1157.97,-211.52 1165.15,-219.31 1168.44,-213.14"/>
</a>
</g>
</g>
<!-- Node31&#45;&gt;Node23 -->
<g id="edge54_Node000031_Node000023" class="edge">
<title>Node31&#45;&gt;Node23</title>
<g id="a_edge54_Node000031_Node000023"><a xlink:title=" ">
<path fill="none" stroke="#63b8ff" d="M1247.62,-252.84C1222.79,-228.39 1172.06,-178.42 1146.09,-152.85"/>
<polygon fill="#63b8ff" stroke="#63b8ff" points="1148.46,-150.27 1138.88,-145.75 1143.55,-155.26 1148.46,-150.27"/>
</a>
</g>
</g>
<!-- Node31&#45;&gt;Node27 -->
<g id="edge55_Node000031_Node000027" class="edge">
<title>Node31&#45;&gt;Node27</title>
<g id="a_edge55_Node000031_Node000027"><a xlink:title=" ">
<path fill="none" stroke="#63b8ff" d="M1281.75,-252.8C1293.85,-244.1 1309.53,-232.82 1322.91,-223.2"/>
<polygon fill="#63b8ff" stroke="#63b8ff" points="1325.23,-225.84 1331.3,-217.16 1321.14,-220.16 1325.23,-225.84"/>
</a>
</g>
</g>
<!-- Node31&#45;&gt;Node32 -->
<g id="edge56_Node000031_Node000032" class="edge">
<title>Node31&#45;&gt;Node32</title>
<g id="a_edge56_Node000031_Node000032"><a xlink:title=" ">
<path fill="none" stroke="#63b8ff" d="M1323.11,-262.59C1412.58,-255.65 1584.33,-240.5 1729,-217 1730.47,-216.76 1731.96,-216.51 1733.47,-216.25"/>
<polygon fill="#63b8ff" stroke="#63b8ff" points="1734.29,-219.65 1743.49,-214.39 1733.02,-212.77 1734.29,-219.65"/>
</a>
</g>
</g>
<!-- Node32&#45;&gt;Node2 -->
<g id="edge59_Node000032_Node000002" class="edge">
<title>Node32&#45;&gt;Node2</title>
<g id="a_edge59_Node000032_Node000002"><a xlink:title=" ">
<path fill="none" stroke="#63b8ff" d="M1794.21,-186.87C1794.92,-169.42 1793.47,-139.75 1778,-121 1729.65,-62.41 1498.3,-27.89 1399.69,-15.61"/>
<polygon fill="#63b8ff" stroke="#63b8ff" points="1400.08,-12.14 1389.73,-14.4 1399.23,-19.08 1400.08,-12.14"/>
</a>
</g>
</g>
<!-- Node32&#45;&gt;Node4 -->
<g id="edge57_Node000032_Node000004" class="edge">
<title>Node32&#45;&gt;Node4</title>
<g id="a_edge57_Node000032_Node000004"><a xlink:title=" ">
<path fill="none" stroke="#63b8ff" d="M1781.9,-186.8C1774.34,-177.11 1764.28,-164.24 1756.29,-154.01"/>
<polygon fill="#63b8ff" stroke="#63b8ff" points="1758.82,-151.57 1749.91,-145.84 1753.31,-155.88 1758.82,-151.57"/>
</a>
</g>
</g>
<!-- Node33 -->
<g id="Node000033" class="node">
<title>Node33</title>
<g id="a_Node000033"><a xlink:title=" ">
<polygon fill="#e0e0e0" stroke="#999999" points="1863.5,-145.5 1826.5,-145.5 1826.5,-126.5 1863.5,-126.5 1863.5,-145.5"/>
<text text-anchor="middle" x="1845" y="-133.5" font-family="Helvetica,sans-Serif" font-size="10.00">new</text>
</a>
</g>
</g>
<!-- Node32&#45;&gt;Node33 -->
<g id="edge58_Node000032_Node000033" class="edge">
<title>Node32&#45;&gt;Node33</title>
<g id="a_edge58_Node000032_Node000033"><a xlink:title=" ">
<path fill="none" stroke="#63b8ff" d="M1804.54,-186.8C1812.49,-177.01 1823.08,-163.98 1831.43,-153.7"/>
<polygon fill="#63b8ff" stroke="#63b8ff" points="1834.22,-155.81 1837.81,-145.84 1828.79,-151.4 1834.22,-155.81"/>
</a>
</g>
</g>
<!-- Node34 -->
<g id="Node000034" class="node">
<title>Node34</title>
<g id="a_Node000034"><a xlink:title=" ">
<polygon fill="#e0e0e0" stroke="#999999" points="1926.5,-145.5 1881.5,-145.5 1881.5,-126.5 1926.5,-126.5 1926.5,-145.5"/>
<text text-anchor="middle" x="1904" y="-133.5" font-family="Helvetica,sans-Serif" font-size="10.00">utility</text>
</a>
</g>
</g>
<!-- Node32&#45;&gt;Node34 -->
<g id="edge60_Node000032_Node000034" class="edge">
<title>Node32&#45;&gt;Node34</title>
<g id="a_edge60_Node000032_Node000034"><a xlink:title=" ">
<path fill="none" stroke="#63b8ff" d="M1817.36,-186.95C1836.14,-176.13 1861.95,-161.24 1880.51,-150.54"/>
<polygon fill="#63b8ff" stroke="#63b8ff" points="1882.31,-153.54 1889.23,-145.52 1878.82,-147.48 1882.31,-153.54"/>
</a>
</g>
</g>
</g>
</svg>
