<?xml version="1.0" encoding="UTF-8" standalone="no"?>
<!DOCTYPE svg PUBLIC "-//W3C//DTD SVG 1.1//EN"
 "http://www.w3.org/Graphics/SVG/1.1/DTD/svg11.dtd">
<!-- Generated by graphviz version 2.43.0 (0)
 -->
<!-- Title: userver/components/manager_controller_component.hpp Pages: 1 -->
<svg width="1027pt" height="247pt"
 viewBox="0.00 0.00 1027.00 247.00" xmlns="http://www.w3.org/2000/svg" xmlns:xlink="http://www.w3.org/1999/xlink">
<g id="graph0" class="graph" transform="scale(1 1) rotate(0) translate(4 243)">
<title>userver/components/manager_controller_component.hpp</title>
<!-- Node1 -->
<g id="Node000001" class="node">
<title>Node1</title>
<g id="a_Node000001"><a xlink:title="Component that prepares the engine internals and starts all the other components.">
<polygon fill="#999999" stroke="#666666" points="620.5,-239 504.5,-239 504.5,-198 620.5,-198 620.5,-239"/>
<text text-anchor="start" x="512.5" y="-227" font-family="Helvetica,sans-Serif" font-size="10.00">userver/components</text>
<text text-anchor="start" x="512.5" y="-216" font-family="Helvetica,sans-Serif" font-size="10.00">/manager_controller</text>
<text text-anchor="middle" x="562.5" y="-205" font-family="Helvetica,sans-Serif" font-size="10.00">_component.hpp</text>
</a>
</g>
</g>
<!-- Node2 -->
<g id="Node000002" class="node">
<title>Node2</title>
<g id="a_Node000002"><a xlink:href="../../d7/d47/component__fwd_8hpp.html" target="_top" xlink:title="Forward declarations for components::ComponentContext and components::ComponentConfig; function compo...">
<polygon fill="white" stroke="#666666" points="237.5,-162 119.5,-162 119.5,-132 237.5,-132 237.5,-162"/>
<text text-anchor="start" x="127.5" y="-150" font-family="Helvetica,sans-Serif" font-size="10.00">userver/components</text>
<text text-anchor="middle" x="178.5" y="-139" font-family="Helvetica,sans-Serif" font-size="10.00">/component_fwd.hpp</text>
</a>
</g>
</g>
<!-- Node1&#45;&gt;Node2 -->
<g id="edge1_Node000001_Node000002" class="edge">
<title>Node1&#45;&gt;Node2</title>
<g id="a_edge1_Node000001_Node000002"><a xlink:title=" ">
<path fill="none" stroke="#63b8ff" d="M504.46,-207.83C443.11,-197.49 343.27,-180.33 247.65,-162.19"/>
<polygon fill="#63b8ff" stroke="#63b8ff" points="248.3,-158.75 237.82,-160.32 246.99,-165.63 248.3,-158.75"/>
</a>
</g>
</g>
<!-- Node4 -->
<g id="Node000004" class="node">
<title>Node4</title>
<g id="a_Node000004"><a xlink:href="../../d2/d61/component__base_8hpp_source.html" target="_top" xlink:title=" ">
<polygon fill="white" stroke="#666666" points="405,-162 256,-162 256,-132 405,-132 405,-162"/>
<text text-anchor="start" x="264" y="-150" font-family="Helvetica,sans-Serif" font-size="10.00">userver/components</text>
<text text-anchor="middle" x="330.5" y="-139" font-family="Helvetica,sans-Serif" font-size="10.00">/impl/component_base.hpp</text>
</a>
</g>
</g>
<!-- Node1&#45;&gt;Node4 -->
<g id="edge3_Node000001_Node000004" class="edge">
<title>Node1&#45;&gt;Node4</title>
<g id="a_edge3_Node000001_Node000004"><a xlink:title=" ">
<path fill="none" stroke="#63b8ff" d="M504.26,-200.05C468.43,-189.32 422.74,-175.63 387.2,-164.99"/>
<polygon fill="#63b8ff" stroke="#63b8ff" points="388.05,-161.59 377.46,-162.07 386.04,-168.29 388.05,-161.59"/>
</a>
</g>
</g>
<!-- Node5 -->
<g id="Node000005" class="node">
<title>Node5</title>
<g id="a_Node000005"><a xlink:href="../../d4/de4/async__event__source_8hpp.html" target="_top" xlink:title="The read&#45;only side of an event channel. Events are delivered to listeners in a strict FIFO order,...">
<polygon fill="white" stroke="#666666" points="810.5,-96 670.5,-96 670.5,-66 810.5,-66 810.5,-96"/>
<text text-anchor="start" x="678.5" y="-84" font-family="Helvetica,sans-Serif" font-size="10.00">userver/concurrent</text>
<text text-anchor="middle" x="740.5" y="-73" font-family="Helvetica,sans-Serif" font-size="10.00">/async_event_source.hpp</text>
</a>
</g>
</g>
<!-- Node1&#45;&gt;Node5 -->
<g id="edge4_Node000001_Node000005" class="edge">
<title>Node1&#45;&gt;Node5</title>
<g id="a_edge4_Node000001_Node000005"><a xlink:title=" ">
<path fill="none" stroke="#63b8ff" d="M620.74,-206.67C649.92,-198.63 683.95,-184.95 707.5,-162 722.91,-146.98 731.41,-123.71 735.91,-106.14"/>
<polygon fill="#63b8ff" stroke="#63b8ff" points="739.39,-106.58 738.21,-96.05 732.57,-105.02 739.39,-106.58"/>
</a>
</g>
</g>
<!-- Node11 -->
<g id="Node000011" class="node">
<title>Node11</title>
<g id="a_Node000011"><a xlink:href="../../df/d22/snapshot_8hpp.html" target="_top" xlink:title="The storage for a snapshot of configs.">
<polygon fill="white" stroke="#666666" points="556,-162 423,-162 423,-132 556,-132 556,-162"/>
<text text-anchor="start" x="431" y="-150" font-family="Helvetica,sans-Serif" font-size="10.00">userver/dynamic_config</text>
<text text-anchor="middle" x="489.5" y="-139" font-family="Helvetica,sans-Serif" font-size="10.00">/snapshot.hpp</text>
</a>
</g>
</g>
<!-- Node1&#45;&gt;Node11 -->
<g id="edge10_Node000001_Node000011" class="edge">
<title>Node1&#45;&gt;Node11</title>
<g id="a_edge10_Node000001_Node000011"><a xlink:title=" ">
<path fill="none" stroke="#63b8ff" d="M541.78,-197.77C532.33,-188.78 521.14,-178.12 511.54,-168.98"/>
<polygon fill="#63b8ff" stroke="#63b8ff" points="513.9,-166.4 504.25,-162.04 509.07,-171.47 513.9,-166.4"/>
</a>
</g>
</g>
<!-- Node22 -->
<g id="Node000022" class="node">
<title>Node22</title>
<g id="a_Node000022"><a xlink:href="../../d8/d03/task__processor__fwd_8hpp.html" target="_top" xlink:title=" ">
<polygon fill="white" stroke="#666666" points="978,-162 841,-162 841,-132 978,-132 978,-162"/>
<text text-anchor="start" x="849" y="-150" font-family="Helvetica,sans-Serif" font-size="10.00">userver/engine/task</text>
<text text-anchor="middle" x="909.5" y="-139" font-family="Helvetica,sans-Serif" font-size="10.00">/task_processor_fwd.hpp</text>
</a>
</g>
</g>
<!-- Node1&#45;&gt;Node22 -->
<g id="edge27_Node000001_Node000022" class="edge">
<title>Node1&#45;&gt;Node22</title>
<g id="a_edge27_Node000001_Node000022"><a xlink:title=" ">
<path fill="none" stroke="#63b8ff" d="M620.58,-205.87C678.18,-194.33 766.83,-176.57 830.74,-163.77"/>
<polygon fill="#63b8ff" stroke="#63b8ff" points="831.66,-167.16 840.78,-161.76 830.29,-160.3 831.66,-167.16"/>
</a>
</g>
</g>
<!-- Node23 -->
<g id="Node000023" class="node">
<title>Node23</title>
<g id="a_Node000023"><a xlink:href="../../d4/ddc/entry_8hpp.html" target="_top" xlink:title="Header with all the types required in component header to use statistics (includes utils::statistics:...">
<polygon fill="white" stroke="#666666" points="699,-162 574,-162 574,-132 699,-132 699,-162"/>
<text text-anchor="start" x="582" y="-150" font-family="Helvetica,sans-Serif" font-size="10.00">userver/utils/statistics</text>
<text text-anchor="middle" x="636.5" y="-139" font-family="Helvetica,sans-Serif" font-size="10.00">/entry.hpp</text>
</a>
</g>
</g>
<!-- Node1&#45;&gt;Node23 -->
<g id="edge29_Node000001_Node000023" class="edge">
<title>Node1&#45;&gt;Node23</title>
<g id="a_edge29_Node000001_Node000023"><a xlink:title=" ">
<path fill="none" stroke="#63b8ff" d="M583.51,-197.77C593.08,-188.78 604.43,-178.12 614.16,-168.98"/>
<polygon fill="#63b8ff" stroke="#63b8ff" points="616.66,-171.44 621.55,-162.04 611.87,-166.33 616.66,-171.44"/>
</a>
</g>
</g>
<!-- Node3 -->
<g id="Node000003" class="node">
<title>Node3</title>
<g id="a_Node000003"><a xlink:title=" ">
<polygon fill="#e0e0e0" stroke="#999999" points="200.5,-90.5 156.5,-90.5 156.5,-71.5 200.5,-71.5 200.5,-90.5"/>
<text text-anchor="middle" x="178.5" y="-78.5" font-family="Helvetica,sans-Serif" font-size="10.00">string</text>
</a>
</g>
</g>
<!-- Node2&#45;&gt;Node3 -->
<g id="edge2_Node000002_Node000003" class="edge">
<title>Node2&#45;&gt;Node3</title>
<g id="a_edge2_Node000002_Node000003"><a xlink:title=" ">
<path fill="none" stroke="#63b8ff" d="M178.5,-131.8C178.5,-122.7 178.5,-110.79 178.5,-100.9"/>
<polygon fill="#63b8ff" stroke="#63b8ff" points="182,-100.84 178.5,-90.84 175,-100.84 182,-100.84"/>
</a>
</g>
</g>
<!-- Node6 -->
<g id="Node000006" class="node">
<title>Node6</title>
<g id="a_Node000006"><a xlink:title=" ">
<polygon fill="#e0e0e0" stroke="#999999" points="575,-24.5 522,-24.5 522,-5.5 575,-5.5 575,-24.5"/>
<text text-anchor="middle" x="548.5" y="-12.5" font-family="Helvetica,sans-Serif" font-size="10.00">cstddef</text>
</a>
</g>
</g>
<!-- Node5&#45;&gt;Node6 -->
<g id="edge5_Node000005_Node000006" class="edge">
<title>Node5&#45;&gt;Node6</title>
<g id="a_edge5_Node000005_Node000006"><a xlink:title=" ">
<path fill="none" stroke="#63b8ff" d="M693.49,-66C662.14,-56.43 620.12,-43.14 583.5,-30 581.89,-29.42 580.25,-28.82 578.59,-28.2"/>
<polygon fill="#63b8ff" stroke="#63b8ff" points="579.72,-24.88 569.13,-24.54 577.2,-31.41 579.72,-24.88"/>
</a>
</g>
</g>
<!-- Node7 -->
<g id="Node000007" class="node">
<title>Node7</title>
<g id="a_Node000007"><a xlink:title=" ">
<polygon fill="#e0e0e0" stroke="#999999" points="1019,-24.5 954,-24.5 954,-5.5 1019,-5.5 1019,-24.5"/>
<text text-anchor="middle" x="986.5" y="-12.5" font-family="Helvetica,sans-Serif" font-size="10.00">functional</text>
</a>
</g>
</g>
<!-- Node5&#45;&gt;Node7 -->
<g id="edge6_Node000005_Node000007" class="edge">
<title>Node5&#45;&gt;Node7</title>
<g id="a_edge6_Node000005_Node000007"><a xlink:title=" ">
<path fill="none" stroke="#63b8ff" d="M803.35,-65.99C843.86,-56.62 897.55,-43.55 944.5,-30 946.96,-29.29 949.48,-28.53 952.02,-27.74"/>
<polygon fill="#63b8ff" stroke="#63b8ff" points="953.28,-31.01 961.73,-24.63 951.14,-24.35 953.28,-31.01"/>
</a>
</g>
</g>
<!-- Node8 -->
<g id="Node000008" class="node">
<title>Node8</title>
<g id="a_Node000008"><a xlink:title=" ">
<polygon fill="#e0e0e0" stroke="#999999" points="859,-24.5 786,-24.5 786,-5.5 859,-5.5 859,-24.5"/>
<text text-anchor="middle" x="822.5" y="-12.5" font-family="Helvetica,sans-Serif" font-size="10.00">string_view</text>
</a>
</g>
</g>
<!-- Node5&#45;&gt;Node8 -->
<g id="edge7_Node000005_Node000008" class="edge">
<title>Node5&#45;&gt;Node8</title>
<g id="a_edge7_Node000005_Node000008"><a xlink:title=" ">
<path fill="none" stroke="#63b8ff" d="M758.7,-65.8C771.86,-55.53 789.61,-41.67 803.05,-31.18"/>
<polygon fill="#63b8ff" stroke="#63b8ff" points="805.44,-33.76 811.17,-24.84 801.13,-28.24 805.44,-33.76"/>
</a>
</g>
</g>
<!-- Node9 -->
<g id="Node000009" class="node">
<title>Node9</title>
<g id="a_Node000009"><a xlink:title=" ">
<polygon fill="#e0e0e0" stroke="#999999" points="705,-24.5 648,-24.5 648,-5.5 705,-5.5 705,-24.5"/>
<text text-anchor="middle" x="676.5" y="-12.5" font-family="Helvetica,sans-Serif" font-size="10.00">typeinfo</text>
</a>
</g>
</g>
<!-- Node5&#45;&gt;Node9 -->
<g id="edge8_Node000005_Node000009" class="edge">
<title>Node5&#45;&gt;Node9</title>
<g id="a_edge8_Node000005_Node000009"><a xlink:title=" ">
<path fill="none" stroke="#63b8ff" d="M726.3,-65.8C716.32,-55.82 702.96,-42.46 692.59,-32.09"/>
<polygon fill="#63b8ff" stroke="#63b8ff" points="694.89,-29.44 685.34,-24.84 689.94,-34.39 694.89,-29.44"/>
</a>
</g>
</g>
<!-- Node10 -->
<g id="Node000010" class="node">
<title>Node10</title>
<g id="a_Node000010"><a xlink:title=" ">
<polygon fill="#e0e0e0" stroke="#999999" points="768,-24.5 723,-24.5 723,-5.5 768,-5.5 768,-24.5"/>
<text text-anchor="middle" x="745.5" y="-12.5" font-family="Helvetica,sans-Serif" font-size="10.00">utility</text>
</a>
</g>
</g>
<!-- Node5&#45;&gt;Node10 -->
<g id="edge9_Node000005_Node000010" class="edge">
<title>Node5&#45;&gt;Node10</title>
<g id="a_edge9_Node000005_Node000010"><a xlink:title=" ">
<path fill="none" stroke="#63b8ff" d="M741.61,-65.8C742.32,-56.7 743.25,-44.79 744.02,-34.9"/>
<polygon fill="#63b8ff" stroke="#63b8ff" points="747.52,-35.09 744.81,-24.84 740.54,-34.54 747.52,-35.09"/>
</a>
</g>
</g>
<!-- Node12 -->
<g id="Node000012" class="node">
<title>Node12</title>
<g id="a_Node000012"><a xlink:title=" ">
<polygon fill="#e0e0e0" stroke="#999999" points="299.5,-90.5 243.5,-90.5 243.5,-71.5 299.5,-71.5 299.5,-90.5"/>
<text text-anchor="middle" x="271.5" y="-78.5" font-family="Helvetica,sans-Serif" font-size="10.00">optional</text>
</a>
</g>
</g>
<!-- Node11&#45;&gt;Node12 -->
<g id="edge11_Node000011_Node000012" class="edge">
<title>Node11&#45;&gt;Node12</title>
<g id="a_edge11_Node000011_Node000012"><a xlink:title=" ">
<path fill="none" stroke="#63b8ff" d="M433.65,-132C397.67,-122.62 350.03,-109.56 308.5,-96 306.64,-95.39 304.73,-94.75 302.82,-94.08"/>
<polygon fill="#63b8ff" stroke="#63b8ff" points="303.89,-90.74 293.29,-90.63 301.5,-97.33 303.89,-90.74"/>
</a>
</g>
</g>
<!-- Node13 -->
<g id="Node000013" class="node">
<title>Node13</title>
<g id="a_Node000013"><a xlink:title=" ">
<polygon fill="#e0e0e0" stroke="#999999" points="504,-24.5 435,-24.5 435,-5.5 504,-5.5 504,-24.5"/>
<text text-anchor="middle" x="469.5" y="-12.5" font-family="Helvetica,sans-Serif" font-size="10.00">type_traits</text>
</a>
</g>
</g>
<!-- Node11&#45;&gt;Node13 -->
<g id="edge12_Node000011_Node000013" class="edge">
<title>Node11&#45;&gt;Node13</title>
<g id="a_edge12_Node000011_Node000013"><a xlink:title=" ">
<path fill="none" stroke="#63b8ff" d="M487.32,-131.84C483.71,-108.34 476.46,-61.26 472.41,-34.93"/>
<polygon fill="#63b8ff" stroke="#63b8ff" points="475.83,-34.1 470.85,-24.75 468.91,-35.16 475.83,-34.1"/>
</a>
</g>
</g>
<!-- Node14 -->
<g id="Node000014" class="node">
<title>Node14</title>
<g id="a_Node000014"><a xlink:href="../../d8/d20/impl_2snapshot_8hpp_source.html" target="_top" xlink:title=" ">
<polygon fill="white" stroke="#666666" points="451,-96 318,-96 318,-66 451,-66 451,-96"/>
<text text-anchor="start" x="326" y="-84" font-family="Helvetica,sans-Serif" font-size="10.00">userver/dynamic_config</text>
<text text-anchor="middle" x="384.5" y="-73" font-family="Helvetica,sans-Serif" font-size="10.00">/impl/snapshot.hpp</text>
</a>
</g>
</g>
<!-- Node11&#45;&gt;Node14 -->
<g id="edge13_Node000011_Node000014" class="edge">
<title>Node11&#45;&gt;Node14</title>
<g id="a_edge13_Node000011_Node000014"><a xlink:title=" ">
<path fill="none" stroke="#63b8ff" d="M466.46,-131.95C451.69,-122.95 432.31,-111.14 416.11,-101.27"/>
<polygon fill="#63b8ff" stroke="#63b8ff" points="417.85,-98.23 407.49,-96.01 414.21,-104.21 417.85,-98.23"/>
</a>
</g>
</g>
<!-- Node20 -->
<g id="Node000020" class="node">
<title>Node20</title>
<g id="a_Node000020"><a xlink:href="../../d5/d02/fast__pimpl_8hpp.html" target="_top" xlink:title="Implements pimpl idiom without dynamic memory allocation.">
<polygon fill="white" stroke="#666666" points="633,-96 534,-96 534,-66 633,-66 633,-96"/>
<text text-anchor="start" x="542" y="-84" font-family="Helvetica,sans-Serif" font-size="10.00">userver/utils/fast</text>
<text text-anchor="middle" x="583.5" y="-73" font-family="Helvetica,sans-Serif" font-size="10.00">_pimpl.hpp</text>
</a>
</g>
</g>
<!-- Node11&#45;&gt;Node20 -->
<g id="edge22_Node000011_Node000020" class="edge">
<title>Node11&#45;&gt;Node20</title>
<g id="a_edge22_Node000011_Node000020"><a xlink:title=" ">
<path fill="none" stroke="#63b8ff" d="M510.36,-131.8C523.26,-123.01 540.01,-111.61 554.23,-101.93"/>
<polygon fill="#63b8ff" stroke="#63b8ff" points="556.4,-104.69 562.7,-96.16 552.46,-98.9 556.4,-104.69"/>
</a>
</g>
</g>
<!-- Node14&#45;&gt;Node6 -->
<g id="edge15_Node000014_Node000006" class="edge">
<title>Node14&#45;&gt;Node6</title>
<g id="a_edge15_Node000014_Node000006"><a xlink:title=" ">
<path fill="none" stroke="#63b8ff" d="M420.49,-65.95C449.38,-54.68 489.53,-39.01 517.12,-28.25"/>
<polygon fill="#63b8ff" stroke="#63b8ff" points="518.63,-31.41 526.67,-24.52 516.09,-24.89 518.63,-31.41"/>
</a>
</g>
</g>
<!-- Node14&#45;&gt;Node9 -->
<g id="edge19_Node000014_Node000009" class="edge">
<title>Node14&#45;&gt;Node9</title>
<g id="a_edge19_Node000014_Node000009"><a xlink:title=" ">
<path fill="none" stroke="#63b8ff" d="M451.23,-69.84C502.86,-61.27 575.87,-47.58 638.5,-30 640.78,-29.36 643.13,-28.64 645.47,-27.88"/>
<polygon fill="#63b8ff" stroke="#63b8ff" points="646.68,-31.17 654.99,-24.6 644.4,-24.55 646.68,-31.17"/>
</a>
</g>
</g>
<!-- Node14&#45;&gt;Node13 -->
<g id="edge17_Node000014_Node000013" class="edge">
<title>Node14&#45;&gt;Node13</title>
<g id="a_edge17_Node000014_Node000013"><a xlink:title=" ">
<path fill="none" stroke="#63b8ff" d="M403.36,-65.8C417.14,-55.43 435.76,-41.4 449.74,-30.88"/>
<polygon fill="#63b8ff" stroke="#63b8ff" points="451.87,-33.66 457.75,-24.84 447.66,-28.06 451.87,-33.66"/>
</a>
</g>
</g>
<!-- Node15 -->
<g id="Node000015" class="node">
<title>Node15</title>
<g id="a_Node000015"><a xlink:title=" ">
<polygon fill="#e0e0e0" stroke="#999999" points="251,-24.5 216,-24.5 216,-5.5 251,-5.5 251,-24.5"/>
<text text-anchor="middle" x="233.5" y="-12.5" font-family="Helvetica,sans-Serif" font-size="10.00">any</text>
</a>
</g>
</g>
<!-- Node14&#45;&gt;Node15 -->
<g id="edge14_Node000014_Node000015" class="edge">
<title>Node14&#45;&gt;Node15</title>
<g id="a_edge14_Node000014_Node000015"><a xlink:title=" ">
<path fill="none" stroke="#63b8ff" d="M346,-65.9C321.04,-56.44 287.98,-43.31 259.5,-30 258.95,-29.74 258.39,-29.48 257.83,-29.21"/>
<polygon fill="#63b8ff" stroke="#63b8ff" points="259.25,-26 248.75,-24.58 256.07,-32.24 259.25,-26"/>
</a>
</g>
</g>
<!-- Node16 -->
<g id="Node000016" class="node">
<title>Node16</title>
<g id="a_Node000016"><a xlink:title=" ">
<polygon fill="#e0e0e0" stroke="#999999" points="334,-24.5 269,-24.5 269,-5.5 334,-5.5 334,-24.5"/>
<text text-anchor="middle" x="301.5" y="-12.5" font-family="Helvetica,sans-Serif" font-size="10.00">exception</text>
</a>
</g>
</g>
<!-- Node14&#45;&gt;Node16 -->
<g id="edge16_Node000014_Node000016" class="edge">
<title>Node14&#45;&gt;Node16</title>
<g id="a_edge16_Node000014_Node000016"><a xlink:title=" ">
<path fill="none" stroke="#63b8ff" d="M366.08,-65.8C352.76,-55.53 334.79,-41.67 321.19,-31.18"/>
<polygon fill="#63b8ff" stroke="#63b8ff" points="323.03,-28.18 312.97,-24.84 318.75,-33.72 323.03,-28.18"/>
</a>
</g>
</g>
<!-- Node17 -->
<g id="Node000017" class="node">
<title>Node17</title>
<g id="a_Node000017"><a xlink:title=" ">
<polygon fill="#e0e0e0" stroke="#999999" points="417,-24.5 352,-24.5 352,-5.5 417,-5.5 417,-24.5"/>
<text text-anchor="middle" x="384.5" y="-12.5" font-family="Helvetica,sans-Serif" font-size="10.00">typeindex</text>
</a>
</g>
</g>
<!-- Node14&#45;&gt;Node17 -->
<g id="edge18_Node000014_Node000017" class="edge">
<title>Node14&#45;&gt;Node17</title>
<g id="a_edge18_Node000014_Node000017"><a xlink:title=" ">
<path fill="none" stroke="#63b8ff" d="M384.5,-65.8C384.5,-56.7 384.5,-44.79 384.5,-34.9"/>
<polygon fill="#63b8ff" stroke="#63b8ff" points="388,-34.84 384.5,-24.84 381,-34.84 388,-34.84"/>
</a>
</g>
</g>
<!-- Node18 -->
<g id="Node000018" class="node">
<title>Node18</title>
<g id="a_Node000018"><a xlink:title=" ">
<polygon fill="#e0e0e0" stroke="#999999" points="47,-24.5 0,-24.5 0,-5.5 47,-5.5 47,-24.5"/>
<text text-anchor="middle" x="23.5" y="-12.5" font-family="Helvetica,sans-Serif" font-size="10.00">vector</text>
</a>
</g>
</g>
<!-- Node14&#45;&gt;Node18 -->
<g id="edge20_Node000014_Node000018" class="edge">
<title>Node14&#45;&gt;Node18</title>
<g id="a_edge20_Node000014_Node000018"><a xlink:title=" ">
<path fill="none" stroke="#63b8ff" d="M317.8,-67.55C314.66,-67.02 311.55,-66.5 308.5,-66 196.41,-47.71 164.75,-61.05 55.5,-30 53.82,-29.52 52.1,-28.97 50.39,-28.38"/>
<polygon fill="#63b8ff" stroke="#63b8ff" points="51.38,-25 40.79,-24.58 48.8,-31.51 51.38,-25"/>
</a>
</g>
</g>
<!-- Node19 -->
<g id="Node000019" class="node">
<title>Node19</title>
<g id="a_Node000019"><a xlink:href="../../df/d7e/core_2include_2userver_2dynamic__config_2fwd_8hpp.html" target="_top" xlink:title="Forward declarations of dynamic_config classes.">
<polygon fill="white" stroke="#666666" points="198,-30 65,-30 65,0 198,0 198,-30"/>
<text text-anchor="start" x="73" y="-18" font-family="Helvetica,sans-Serif" font-size="10.00">userver/dynamic_config</text>
<text text-anchor="middle" x="131.5" y="-7" font-family="Helvetica,sans-Serif" font-size="10.00">/fwd.hpp</text>
</a>
</g>
</g>
<!-- Node14&#45;&gt;Node19 -->
<g id="edge21_Node000014_Node000019" class="edge">
<title>Node14&#45;&gt;Node19</title>
<g id="a_edge21_Node000014_Node000019"><a xlink:title=" ">
<path fill="none" stroke="#63b8ff" d="M328.98,-65.95C290.01,-56.1 237.75,-42.88 196.78,-32.51"/>
<polygon fill="#63b8ff" stroke="#63b8ff" points="197.45,-29.07 186.89,-30.01 195.73,-35.86 197.45,-29.07"/>
</a>
</g>
</g>
<!-- Node20&#45;&gt;Node6 -->
<g id="edge23_Node000020_Node000006" class="edge">
<title>Node20&#45;&gt;Node6</title>
<g id="a_edge23_Node000020_Node000006"><a xlink:title=" ">
<path fill="none" stroke="#63b8ff" d="M575.73,-65.8C570.54,-56.31 563.68,-43.76 558.14,-33.63"/>
<polygon fill="#63b8ff" stroke="#63b8ff" points="561.21,-31.94 553.34,-24.84 555.06,-35.3 561.21,-31.94"/>
</a>
</g>
</g>
<!-- Node20&#45;&gt;Node10 -->
<g id="edge26_Node000020_Node000010" class="edge">
<title>Node20&#45;&gt;Node10</title>
<g id="a_edge26_Node000020_Node000010"><a xlink:title=" ">
<path fill="none" stroke="#63b8ff" d="M621.51,-65.9C647.52,-56.12 682.74,-42.63 713.5,-30 714.67,-29.52 715.86,-29.03 717.06,-28.52"/>
<polygon fill="#63b8ff" stroke="#63b8ff" points="718.45,-31.73 726.27,-24.58 715.7,-25.3 718.45,-31.73"/>
</a>
</g>
</g>
<!-- Node20&#45;&gt;Node13 -->
<g id="edge25_Node000020_Node000013" class="edge">
<title>Node20&#45;&gt;Node13</title>
<g id="a_edge25_Node000020_Node000013"><a xlink:title=" ">
<path fill="none" stroke="#63b8ff" d="M558.48,-65.95C539.19,-55.13 512.68,-40.24 493.62,-29.54"/>
<polygon fill="#63b8ff" stroke="#63b8ff" points="495.1,-26.36 484.67,-24.52 491.68,-32.46 495.1,-26.36"/>
</a>
</g>
</g>
<!-- Node21 -->
<g id="Node000021" class="node">
<title>Node21</title>
<g id="a_Node000021"><a xlink:title=" ">
<polygon fill="#e0e0e0" stroke="#999999" points="630,-24.5 593,-24.5 593,-5.5 630,-5.5 630,-24.5"/>
<text text-anchor="middle" x="611.5" y="-12.5" font-family="Helvetica,sans-Serif" font-size="10.00">new</text>
</a>
</g>
</g>
<!-- Node20&#45;&gt;Node21 -->
<g id="edge24_Node000020_Node000021" class="edge">
<title>Node20&#45;&gt;Node21</title>
<g id="a_edge24_Node000020_Node000021"><a xlink:title=" ">
<path fill="none" stroke="#63b8ff" d="M589.71,-65.8C593.78,-56.5 599.13,-44.27 603.51,-34.26"/>
<polygon fill="#63b8ff" stroke="#63b8ff" points="606.83,-35.41 607.63,-24.84 600.42,-32.6 606.83,-35.41"/>
</a>
</g>
</g>
<!-- Node22&#45;&gt;Node7 -->
<g id="edge28_Node000022_Node000007" class="edge">
<title>Node22&#45;&gt;Node7</title>
<g id="a_edge28_Node000022_Node000007"><a xlink:title=" ">
<path fill="none" stroke="#63b8ff" d="M929.98,-131.98C941.68,-122.97 955.72,-110.3 964.5,-96 976.14,-77.05 981.74,-51.86 984.35,-34.85"/>
<polygon fill="#63b8ff" stroke="#63b8ff" points="987.87,-34.93 985.72,-24.56 980.93,-34.01 987.87,-34.93"/>
</a>
</g>
</g>
<!-- Node23&#45;&gt;Node20 -->
<g id="edge30_Node000023_Node000020" class="edge">
<title>Node23&#45;&gt;Node20</title>
<g id="a_edge30_Node000023_Node000020"><a xlink:title=" ">
<path fill="none" stroke="#63b8ff" d="M624.74,-131.8C617.94,-123.59 609.26,-113.1 601.61,-103.87"/>
<polygon fill="#63b8ff" stroke="#63b8ff" points="604.3,-101.63 595.23,-96.16 598.91,-106.1 604.3,-101.63"/>
</a>
</g>
</g>
<!-- Node24 -->
<g id="Node000024" class="node">
<title>Node24</title>
<g id="a_Node000024"><a xlink:href="../../d7/def/core_2include_2userver_2utils_2statistics_2fwd_8hpp.html" target="_top" xlink:title="Forward declarations for statistics entities.">
<polygon fill="white" stroke="#666666" points="956,-96 831,-96 831,-66 956,-66 956,-96"/>
<text text-anchor="start" x="839" y="-84" font-family="Helvetica,sans-Serif" font-size="10.00">userver/utils/statistics</text>
<text text-anchor="middle" x="893.5" y="-73" font-family="Helvetica,sans-Serif" font-size="10.00">/fwd.hpp</text>
</a>
</g>
</g>
<!-- Node23&#45;&gt;Node24 -->
<g id="edge31_Node000023_Node000024" class="edge">
<title>Node23&#45;&gt;Node24</title>
<g id="a_edge31_Node000023_Node000024"><a xlink:title=" ">
<path fill="none" stroke="#63b8ff" d="M692.9,-131.95C732.57,-122.08 785.79,-108.82 827.45,-98.45"/>
<polygon fill="#63b8ff" stroke="#63b8ff" points="828.37,-101.83 837.23,-96.01 826.68,-95.03 828.37,-101.83"/>
</a>
</g>
</g>
<!-- Node25 -->
<g id="Node000025" class="node">
<title>Node25</title>
<g id="a_Node000025"><a xlink:title=" ">
<polygon fill="#e0e0e0" stroke="#999999" points="935.5,-24.5 877.5,-24.5 877.5,-5.5 935.5,-5.5 935.5,-24.5"/>
<text text-anchor="middle" x="906.5" y="-12.5" font-family="Helvetica,sans-Serif" font-size="10.00">memory</text>
</a>
</g>
</g>
<!-- Node24&#45;&gt;Node25 -->
<g id="edge32_Node000024_Node000025" class="edge">
<title>Node24&#45;&gt;Node25</title>
<g id="a_edge32_Node000024_Node000025"><a xlink:title=" ">
<path fill="none" stroke="#63b8ff" d="M896.39,-65.8C898.23,-56.7 900.65,-44.79 902.66,-34.9"/>
<polygon fill="#63b8ff" stroke="#63b8ff" points="906.14,-35.34 904.7,-24.84 899.28,-33.95 906.14,-35.34"/>
</a>
</g>
</g>
</g>
</svg>
