<?xml version="1.0" encoding="UTF-8" standalone="no"?>
<!DOCTYPE svg PUBLIC "-//W3C//DTD SVG 1.1//EN"
 "http://www.w3.org/Graphics/SVG/1.1/DTD/svg11.dtd">
<!-- Generated by graphviz version 2.43.0 (0)
 -->
<!-- Title: userver/utils/statistics/rate_counter.hpp Pages: 1 -->
<svg width="1217pt" height="654pt"
 viewBox="0.00 0.00 1217.00 654.00" xmlns="http://www.w3.org/2000/svg" xmlns:xlink="http://www.w3.org/1999/xlink">
<g id="graph0" class="graph" transform="scale(1 1) rotate(0) translate(4 650)">
<title>userver/utils/statistics/rate_counter.hpp</title>
<!-- Node1 -->
<g id="Node000001" class="node">
<title>Node1</title>
<g id="a_Node000001"><a xlink:title="Atomic counter of type Rate with relaxed memory ordering.">
<polygon fill="#999999" stroke="#666666" points="639,-646 514,-646 514,-616 639,-616 639,-646"/>
<text text-anchor="start" x="522" y="-634" font-family="Helvetica,sans-Serif" font-size="10.00">userver/utils/statistics</text>
<text text-anchor="middle" x="576.5" y="-623" font-family="Helvetica,sans-Serif" font-size="10.00">/rate_counter.hpp</text>
</a>
</g>
</g>
<!-- Node2 -->
<g id="Node000002" class="node">
<title>Node2</title>
<g id="a_Node000002"><a xlink:href="../../d6/d93/grpc_2include_2userver_2ugrpc_2impl_2statistics_8hpp_source.html" target="_top" xlink:title=" ">
<polygon fill="white" stroke="#666666" points="630.5,-580 522.5,-580 522.5,-550 630.5,-550 630.5,-580"/>
<text text-anchor="start" x="530.5" y="-568" font-family="Helvetica,sans-Serif" font-size="10.00">userver/ugrpc/impl</text>
<text text-anchor="middle" x="576.5" y="-557" font-family="Helvetica,sans-Serif" font-size="10.00">/statistics.hpp</text>
</a>
</g>
</g>
<!-- Node1&#45;&gt;Node2 -->
<g id="edge1_Node000001_Node000002" class="edge">
<title>Node1&#45;&gt;Node2</title>
<g id="a_edge1_Node000001_Node000002"><a xlink:title=" ">
<path fill="none" stroke="#63b8ff" d="M576.5,-605.54C576.5,-596.96 576.5,-587.61 576.5,-580.16"/>
<polygon fill="#63b8ff" stroke="#63b8ff" points="573,-605.8 576.5,-615.8 580,-605.8 573,-605.8"/>
</a>
</g>
</g>
<!-- Node3 -->
<g id="Node000003" class="node">
<title>Node3</title>
<g id="a_Node000003"><a xlink:href="../../d2/d7b/client_2impl_2call__params_8hpp_source.html" target="_top" xlink:title=" ">
<polygon fill="white" stroke="#666666" points="364,-448 239,-448 239,-418 364,-418 364,-448"/>
<text text-anchor="start" x="247" y="-436" font-family="Helvetica,sans-Serif" font-size="10.00">userver/ugrpc/client</text>
<text text-anchor="middle" x="301.5" y="-425" font-family="Helvetica,sans-Serif" font-size="10.00">/impl/call_params.hpp</text>
</a>
</g>
</g>
<!-- Node2&#45;&gt;Node3 -->
<g id="edge2_Node000002_Node000003" class="edge">
<title>Node2&#45;&gt;Node3</title>
<g id="a_edge2_Node000002_Node000003"><a xlink:title=" ">
<path fill="none" stroke="#63b8ff" d="M512.15,-556.96C471.66,-550.37 419.49,-537.79 378.5,-514 349.49,-497.16 324.34,-466.25 311.21,-448.18"/>
<polygon fill="#63b8ff" stroke="#63b8ff" points="511.77,-560.44 522.18,-558.51 512.83,-553.52 511.77,-560.44"/>
</a>
</g>
</g>
<!-- Node6 -->
<g id="Node000006" class="node">
<title>Node6</title>
<g id="a_Node000006"><a xlink:href="../../d8/d5f/client_2impl_2codegen__declarations_8hpp_source.html" target="_top" xlink:title=" ">
<polygon fill="white" stroke="#666666" points="516.5,-239 344.5,-239 344.5,-209 516.5,-209 516.5,-239"/>
<text text-anchor="start" x="352.5" y="-227" font-family="Helvetica,sans-Serif" font-size="10.00">userver/ugrpc/client</text>
<text text-anchor="middle" x="430.5" y="-216" font-family="Helvetica,sans-Serif" font-size="10.00">/impl/codegen_declarations.hpp</text>
</a>
</g>
</g>
<!-- Node2&#45;&gt;Node6 -->
<g id="edge19_Node000002_Node000006" class="edge">
<title>Node2&#45;&gt;Node6</title>
<g id="a_edge19_Node000002_Node000006"><a xlink:title=" ">
<path fill="none" stroke="#63b8ff" d="M512.8,-551.34C487.25,-543.81 458.86,-532.06 437.5,-514 406.35,-487.66 392.5,-474.79 392.5,-434 392.5,-434 392.5,-434 392.5,-366 392.5,-318.08 413.21,-264.07 424.05,-239.07"/>
<polygon fill="#63b8ff" stroke="#63b8ff" points="511.86,-554.71 522.44,-554.03 513.74,-547.97 511.86,-554.71"/>
</a>
</g>
</g>
<!-- Node14 -->
<g id="Node000014" class="node">
<title>Node14</title>
<g id="a_Node000014"><a xlink:href="../../d9/d5b/client__data_8hpp_source.html" target="_top" xlink:title=" ">
<polygon fill="white" stroke="#666666" points="566,-514 447,-514 447,-484 566,-484 566,-514"/>
<text text-anchor="start" x="455" y="-502" font-family="Helvetica,sans-Serif" font-size="10.00">userver/ugrpc/client</text>
<text text-anchor="middle" x="506.5" y="-491" font-family="Helvetica,sans-Serif" font-size="10.00">/impl/client_data.hpp</text>
</a>
</g>
</g>
<!-- Node2&#45;&gt;Node14 -->
<g id="edge14_Node000002_Node000014" class="edge">
<title>Node2&#45;&gt;Node14</title>
<g id="a_edge14_Node000002_Node000014"><a xlink:title=" ">
<path fill="none" stroke="#63b8ff" d="M553.45,-542.92C543.13,-533.49 531.23,-522.61 521.99,-514.16"/>
<polygon fill="#63b8ff" stroke="#63b8ff" points="551.22,-545.63 560.96,-549.8 555.95,-540.47 551.22,-545.63"/>
</a>
</g>
</g>
<!-- Node16 -->
<g id="Node000016" class="node">
<title>Node16</title>
<g id="a_Node000016"><a xlink:href="../../d8/dc6/grpc_2include_2userver_2ugrpc_2impl_2statistics__storage_8hpp_source.html" target="_top" xlink:title=" ">
<polygon fill="white" stroke="#666666" points="711,-514 584,-514 584,-484 711,-484 711,-514"/>
<text text-anchor="start" x="592" y="-502" font-family="Helvetica,sans-Serif" font-size="10.00">userver/ugrpc/impl</text>
<text text-anchor="middle" x="647.5" y="-491" font-family="Helvetica,sans-Serif" font-size="10.00">/statistics_storage.hpp</text>
</a>
</g>
</g>
<!-- Node2&#45;&gt;Node16 -->
<g id="edge20_Node000002_Node000016" class="edge">
<title>Node2&#45;&gt;Node16</title>
<g id="a_edge20_Node000002_Node000016"><a xlink:title=" ">
<path fill="none" stroke="#63b8ff" d="M599.88,-542.92C610.35,-533.49 622.42,-522.61 631.79,-514.16"/>
<polygon fill="#63b8ff" stroke="#63b8ff" points="597.34,-540.5 592.26,-549.8 602.03,-545.7 597.34,-540.5"/>
</a>
</g>
</g>
<!-- Node19 -->
<g id="Node000019" class="node">
<title>Node19</title>
<g id="a_Node000019"><a xlink:href="../../db/d93/service__worker__impl_8hpp_source.html" target="_top" xlink:title=" ">
<polygon fill="white" stroke="#666666" points="1042.5,-316 924.5,-316 924.5,-275 1042.5,-275 1042.5,-316"/>
<text text-anchor="start" x="932.5" y="-304" font-family="Helvetica,sans-Serif" font-size="10.00">userver/ugrpc/server</text>
<text text-anchor="start" x="932.5" y="-293" font-family="Helvetica,sans-Serif" font-size="10.00">/impl/service_worker</text>
<text text-anchor="middle" x="983.5" y="-282" font-family="Helvetica,sans-Serif" font-size="10.00">_impl.hpp</text>
</a>
</g>
</g>
<!-- Node2&#45;&gt;Node19 -->
<g id="edge33_Node000002_Node000019" class="edge">
<title>Node2&#45;&gt;Node19</title>
<g id="a_edge33_Node000002_Node000019"><a xlink:title=" ">
<path fill="none" stroke="#63b8ff" d="M638.9,-547.08C701.6,-528.45 799.58,-494.8 875.5,-448 914.16,-424.17 927.75,-419.4 953.5,-382 967.42,-361.79 975.51,-334.46 979.71,-316.19"/>
<polygon fill="#63b8ff" stroke="#63b8ff" points="637.76,-543.77 629.15,-549.94 639.73,-550.49 637.76,-543.77"/>
</a>
</g>
</g>
<!-- Node22 -->
<g id="Node000022" class="node">
<title>Node22</title>
<g id="a_Node000022"><a xlink:href="../../d4/d79/grpc_2include_2userver_2ugrpc_2server_2server_8hpp.html" target="_top" xlink:title="Manages the gRPC server.">
<polygon fill="white" stroke="#666666" points="1178,-310.5 1061,-310.5 1061,-280.5 1178,-280.5 1178,-310.5"/>
<text text-anchor="start" x="1069" y="-298.5" font-family="Helvetica,sans-Serif" font-size="10.00">userver/ugrpc/server</text>
<text text-anchor="middle" x="1119.5" y="-287.5" font-family="Helvetica,sans-Serif" font-size="10.00">/server.hpp</text>
</a>
</g>
</g>
<!-- Node2&#45;&gt;Node22 -->
<g id="edge34_Node000002_Node000022" class="edge">
<title>Node2&#45;&gt;Node22</title>
<g id="a_edge34_Node000002_Node000022"><a xlink:title=" ">
<path fill="none" stroke="#63b8ff" d="M640.55,-553.05C682.79,-544.79 738.9,-531.82 786.5,-514 921.66,-463.41 1058.08,-350.46 1103.62,-310.69"/>
<polygon fill="#63b8ff" stroke="#63b8ff" points="639.83,-549.62 630.67,-554.95 641.15,-556.5 639.83,-549.62"/>
</a>
</g>
</g>
<!-- Node4 -->
<g id="Node000004" class="node">
<title>Node4</title>
<g id="a_Node000004"><a xlink:href="../../d7/d8b/client_2impl_2async__methods_8hpp_source.html" target="_top" xlink:title=" ">
<polygon fill="white" stroke="#666666" points="300.5,-382 158.5,-382 158.5,-352 300.5,-352 300.5,-382"/>
<text text-anchor="start" x="166.5" y="-370" font-family="Helvetica,sans-Serif" font-size="10.00">userver/ugrpc/client</text>
<text text-anchor="middle" x="229.5" y="-359" font-family="Helvetica,sans-Serif" font-size="10.00">/impl/async_methods.hpp</text>
</a>
</g>
</g>
<!-- Node3&#45;&gt;Node4 -->
<g id="edge3_Node000003_Node000004" class="edge">
<title>Node3&#45;&gt;Node4</title>
<g id="a_edge3_Node000003_Node000004"><a xlink:title=" ">
<path fill="none" stroke="#63b8ff" d="M277.79,-410.92C267.17,-401.49 254.93,-390.61 245.43,-382.16"/>
<polygon fill="#63b8ff" stroke="#63b8ff" points="275.72,-413.77 285.52,-417.8 280.37,-408.54 275.72,-413.77"/>
</a>
</g>
</g>
<!-- Node5 -->
<g id="Node000005" class="node">
<title>Node5</title>
<g id="a_Node000005"><a xlink:href="../../db/df8/client_2rpc_8hpp.html" target="_top" xlink:title="Classes representing an outgoing RPC.">
<polygon fill="white" stroke="#666666" points="341,-310.5 228,-310.5 228,-280.5 341,-280.5 341,-310.5"/>
<text text-anchor="start" x="236" y="-298.5" font-family="Helvetica,sans-Serif" font-size="10.00">userver/ugrpc/client</text>
<text text-anchor="middle" x="284.5" y="-287.5" font-family="Helvetica,sans-Serif" font-size="10.00">/rpc.hpp</text>
</a>
</g>
</g>
<!-- Node3&#45;&gt;Node5 -->
<g id="edge13_Node000003_Node000005" class="edge">
<title>Node3&#45;&gt;Node5</title>
<g id="a_edge13_Node000003_Node000005"><a xlink:title=" ">
<path fill="none" stroke="#63b8ff" d="M307.78,-407.87C310.99,-391.88 313.48,-370.52 309.5,-352 306.3,-337.12 298.79,-321.42 292.83,-310.53"/>
<polygon fill="#63b8ff" stroke="#63b8ff" points="304.28,-407.45 305.5,-417.98 311.11,-408.99 304.28,-407.45"/>
</a>
</g>
</g>
<!-- Node4&#45;&gt;Node5 -->
<g id="edge4_Node000004_Node000005" class="edge">
<title>Node4&#45;&gt;Node5</title>
<g id="a_edge4_Node000004_Node000005"><a xlink:title=" ">
<path fill="none" stroke="#63b8ff" d="M246.89,-344.03C255.56,-333.07 265.79,-320.15 273.39,-310.54"/>
<polygon fill="#63b8ff" stroke="#63b8ff" points="244.09,-341.92 240.63,-351.94 249.58,-346.27 244.09,-341.92"/>
</a>
</g>
</g>
<!-- Node5&#45;&gt;Node6 -->
<g id="edge5_Node000005_Node000006" class="edge">
<title>Node5&#45;&gt;Node6</title>
<g id="a_edge5_Node000005_Node000006"><a xlink:title=" ">
<path fill="none" stroke="#63b8ff" d="M323.37,-276C347.73,-264.4 378.65,-249.68 401,-239.04"/>
<polygon fill="#63b8ff" stroke="#63b8ff" points="321.57,-272.98 314.05,-280.44 324.58,-279.3 321.57,-272.98"/>
</a>
</g>
</g>
<!-- Node7 -->
<g id="Node000007" class="node">
<title>Node7</title>
<g id="a_Node000007"><a xlink:href="../../d3/d3e/grpc_2include_2userver_2ugrpc_2client_2middlewares_2base_8hpp_source.html" target="_top" xlink:title=" ">
<polygon fill="white" stroke="#666666" points="326.5,-239 196.5,-239 196.5,-209 326.5,-209 326.5,-239"/>
<text text-anchor="start" x="204.5" y="-227" font-family="Helvetica,sans-Serif" font-size="10.00">userver/ugrpc/client</text>
<text text-anchor="middle" x="261.5" y="-216" font-family="Helvetica,sans-Serif" font-size="10.00">/middlewares/base.hpp</text>
</a>
</g>
</g>
<!-- Node5&#45;&gt;Node7 -->
<g id="edge6_Node000005_Node000007" class="edge">
<title>Node5&#45;&gt;Node7</title>
<g id="a_edge6_Node000005_Node000007"><a xlink:title=" ">
<path fill="none" stroke="#63b8ff" d="M276.69,-270.9C273.19,-260.31 269.17,-248.18 266.15,-239.04"/>
<polygon fill="#63b8ff" stroke="#63b8ff" points="273.38,-272.04 279.85,-280.44 280.03,-269.84 273.38,-272.04"/>
</a>
</g>
</g>
<!-- Node8 -->
<g id="Node000008" class="node">
<title>Node8</title>
<g id="a_Node000008"><a xlink:href="../../d0/d98/client__factory_8hpp.html" target="_top" xlink:title="Creates generated gRPC clients. Has a minimal built&#45;in channel cache: as long as a channel to the sam...">
<polygon fill="white" stroke="#666666" points="657,-167.5 544,-167.5 544,-137.5 657,-137.5 657,-167.5"/>
<text text-anchor="start" x="552" y="-155.5" font-family="Helvetica,sans-Serif" font-size="10.00">userver/ugrpc/client</text>
<text text-anchor="middle" x="600.5" y="-144.5" font-family="Helvetica,sans-Serif" font-size="10.00">/client_factory.hpp</text>
</a>
</g>
</g>
<!-- Node7&#45;&gt;Node8 -->
<g id="edge7_Node000007_Node000008" class="edge">
<title>Node7&#45;&gt;Node8</title>
<g id="a_edge7_Node000007_Node000008"><a xlink:title=" ">
<path fill="none" stroke="#63b8ff" d="M336.6,-208.35C386.28,-198.57 452.83,-185.29 511.5,-173 521.87,-170.83 532.91,-168.46 543.56,-166.14"/>
<polygon fill="#63b8ff" stroke="#63b8ff" points="335.71,-204.96 326.58,-210.32 337.06,-211.83 335.71,-204.96"/>
</a>
</g>
</g>
<!-- Node11 -->
<g id="Node000011" class="node">
<title>Node11</title>
<g id="a_Node000011"><a xlink:href="../../d4/d96/grpc_2include_2userver_2ugrpc_2client_2middlewares_2baggage_2component_8hpp_source.html" target="_top" xlink:title=" ">
<polygon fill="white" stroke="#666666" points="325.5,-173 197.5,-173 197.5,-132 325.5,-132 325.5,-173"/>
<text text-anchor="start" x="205.5" y="-161" font-family="Helvetica,sans-Serif" font-size="10.00">userver/ugrpc/client</text>
<text text-anchor="start" x="205.5" y="-150" font-family="Helvetica,sans-Serif" font-size="10.00">/middlewares/baggage</text>
<text text-anchor="middle" x="261.5" y="-139" font-family="Helvetica,sans-Serif" font-size="10.00">/component.hpp</text>
</a>
</g>
</g>
<!-- Node7&#45;&gt;Node11 -->
<g id="edge10_Node000007_Node000011" class="edge">
<title>Node7&#45;&gt;Node11</title>
<g id="a_edge10_Node000007_Node000011"><a xlink:title=" ">
<path fill="none" stroke="#63b8ff" d="M261.5,-198.91C261.5,-190.47 261.5,-181.1 261.5,-173.07"/>
<polygon fill="#63b8ff" stroke="#63b8ff" points="258,-198.94 261.5,-208.94 265,-198.94 258,-198.94"/>
</a>
</g>
</g>
<!-- Node12 -->
<g id="Node000012" class="node">
<title>Node12</title>
<g id="a_Node000012"><a xlink:href="../../d6/d04/grpc_2include_2userver_2ugrpc_2client_2middlewares_2deadline__propagation_2component_8hpp.html" target="_top" xlink:title="ugrpc::client::middlewares::deadline_propagation::Component">
<polygon fill="white" stroke="#666666" points="503,-173 344,-173 344,-132 503,-132 503,-173"/>
<text text-anchor="start" x="352" y="-161" font-family="Helvetica,sans-Serif" font-size="10.00">userver/ugrpc/client</text>
<text text-anchor="start" x="352" y="-150" font-family="Helvetica,sans-Serif" font-size="10.00">/middlewares/deadline</text>
<text text-anchor="middle" x="423.5" y="-139" font-family="Helvetica,sans-Serif" font-size="10.00">_propagation/component.hpp</text>
</a>
</g>
</g>
<!-- Node7&#45;&gt;Node12 -->
<g id="edge11_Node000007_Node000012" class="edge">
<title>Node7&#45;&gt;Node12</title>
<g id="a_edge11_Node000007_Node000012"><a xlink:title=" ">
<path fill="none" stroke="#63b8ff" d="M303.69,-204.9C326.46,-195.13 354.59,-183.06 377.88,-173.07"/>
<polygon fill="#63b8ff" stroke="#63b8ff" points="302.09,-201.78 294.28,-208.94 304.85,-208.21 302.09,-201.78"/>
</a>
</g>
</g>
<!-- Node13 -->
<g id="Node000013" class="node">
<title>Node13</title>
<g id="a_Node000013"><a xlink:href="../../d1/de5/grpc_2include_2userver_2ugrpc_2client_2middlewares_2log_2component_8hpp_source.html" target="_top" xlink:title=" ">
<polygon fill="white" stroke="#666666" points="179,-167.5 0,-167.5 0,-137.5 179,-137.5 179,-167.5"/>
<text text-anchor="start" x="8" y="-155.5" font-family="Helvetica,sans-Serif" font-size="10.00">userver/ugrpc/client</text>
<text text-anchor="middle" x="89.5" y="-144.5" font-family="Helvetica,sans-Serif" font-size="10.00">/middlewares/log/component.hpp</text>
</a>
</g>
</g>
<!-- Node7&#45;&gt;Node13 -->
<g id="edge12_Node000007_Node000013" class="edge">
<title>Node7&#45;&gt;Node13</title>
<g id="a_edge12_Node000007_Node000013"><a xlink:title=" ">
<path fill="none" stroke="#63b8ff" d="M217.23,-205.11C188.3,-193.42 151.05,-178.37 124.26,-167.54"/>
<polygon fill="#63b8ff" stroke="#63b8ff" points="216.11,-208.43 226.69,-208.94 218.73,-201.94 216.11,-208.43"/>
</a>
</g>
</g>
<!-- Node9 -->
<g id="Node000009" class="node">
<title>Node9</title>
<g id="a_Node000009"><a xlink:href="../../da/dd3/client__factory__component_8hpp.html" target="_top" xlink:title="Provides a ClientFactory in the component system.">
<polygon fill="white" stroke="#666666" points="684,-96 517,-96 517,-66 684,-66 684,-96"/>
<text text-anchor="start" x="525" y="-84" font-family="Helvetica,sans-Serif" font-size="10.00">userver/ugrpc/client</text>
<text text-anchor="middle" x="600.5" y="-73" font-family="Helvetica,sans-Serif" font-size="10.00">/client_factory_component.hpp</text>
</a>
</g>
</g>
<!-- Node8&#45;&gt;Node9 -->
<g id="edge8_Node000008_Node000009" class="edge">
<title>Node8&#45;&gt;Node9</title>
<g id="a_edge8_Node000008_Node000009"><a xlink:title=" ">
<path fill="none" stroke="#63b8ff" d="M600.5,-127.25C600.5,-116.81 600.5,-104.99 600.5,-96.04"/>
<polygon fill="#63b8ff" stroke="#63b8ff" points="597,-127.44 600.5,-137.44 604,-127.44 597,-127.44"/>
</a>
</g>
</g>
<!-- Node10 -->
<g id="Node000010" class="node">
<title>Node10</title>
<g id="a_Node000010"><a xlink:href="../../d8/d98/simple__client__component_8hpp.html" target="_top" xlink:title="Template class for a simple gRPC client.">
<polygon fill="white" stroke="#666666" points="683.5,-30 517.5,-30 517.5,0 683.5,0 683.5,-30"/>
<text text-anchor="start" x="525.5" y="-18" font-family="Helvetica,sans-Serif" font-size="10.00">userver/ugrpc/client</text>
<text text-anchor="middle" x="600.5" y="-7" font-family="Helvetica,sans-Serif" font-size="10.00">/simple_client_component.hpp</text>
</a>
</g>
</g>
<!-- Node9&#45;&gt;Node10 -->
<g id="edge9_Node000009_Node000010" class="edge">
<title>Node9&#45;&gt;Node10</title>
<g id="a_edge9_Node000009_Node000010"><a xlink:title=" ">
<path fill="none" stroke="#63b8ff" d="M600.5,-55.54C600.5,-46.96 600.5,-37.61 600.5,-30.16"/>
<polygon fill="#63b8ff" stroke="#63b8ff" points="597,-55.8 600.5,-65.8 604,-55.8 597,-55.8"/>
</a>
</g>
</g>
<!-- Node14&#45;&gt;Node3 -->
<g id="edge17_Node000014_Node000003" class="edge">
<title>Node14&#45;&gt;Node3</title>
<g id="a_edge17_Node000014_Node000003"><a xlink:title=" ">
<path fill="none" stroke="#63b8ff" d="M451.59,-480.86C418.67,-470.58 377.34,-457.68 346.38,-448.01"/>
<polygon fill="#63b8ff" stroke="#63b8ff" points="450.92,-484.32 461.51,-483.95 453.01,-477.63 450.92,-484.32"/>
</a>
</g>
</g>
<!-- Node14&#45;&gt;Node6 -->
<g id="edge18_Node000014_Node000006" class="edge">
<title>Node14&#45;&gt;Node6</title>
<g id="a_edge18_Node000014_Node000006"><a xlink:title=" ">
<path fill="none" stroke="#63b8ff" d="M474.94,-477.64C465.12,-469.63 455.34,-459.57 449.5,-448 413.4,-376.56 423.1,-275.7 428.26,-239.02"/>
<polygon fill="#63b8ff" stroke="#63b8ff" points="473.04,-480.59 483.12,-483.87 477.29,-475.02 473.04,-480.59"/>
</a>
</g>
</g>
<!-- Node14&#45;&gt;Node8 -->
<g id="edge16_Node000014_Node000008" class="edge">
<title>Node14&#45;&gt;Node8</title>
<g id="a_edge16_Node000014_Node000008"><a xlink:title=" ">
<path fill="none" stroke="#63b8ff" d="M545.88,-478.87C558.6,-470.93 571.69,-460.59 580.5,-448 601.52,-417.98 600.5,-404.65 600.5,-368 600.5,-368 600.5,-368 600.5,-294.5 600.5,-247.99 600.5,-192.85 600.5,-167.51"/>
<polygon fill="#63b8ff" stroke="#63b8ff" points="544.03,-475.89 537.18,-483.98 547.58,-481.93 544.03,-475.89"/>
</a>
</g>
</g>
<!-- Node15 -->
<g id="Node000015" class="node">
<title>Node15</title>
<g id="a_Node000015"><a xlink:href="../../d5/d0c/channels_8hpp.html" target="_top" xlink:title="Utilities for managing gRPC connections.">
<polygon fill="white" stroke="#666666" points="572,-448 459,-448 459,-418 572,-418 572,-448"/>
<text text-anchor="start" x="467" y="-436" font-family="Helvetica,sans-Serif" font-size="10.00">userver/ugrpc/client</text>
<text text-anchor="middle" x="515.5" y="-425" font-family="Helvetica,sans-Serif" font-size="10.00">/channels.hpp</text>
</a>
</g>
</g>
<!-- Node14&#45;&gt;Node15 -->
<g id="edge15_Node000014_Node000015" class="edge">
<title>Node14&#45;&gt;Node15</title>
<g id="a_edge15_Node000014_Node000015"><a xlink:title=" ">
<path fill="none" stroke="#63b8ff" d="M509.9,-473.83C511.12,-465.17 512.45,-455.7 513.51,-448.16"/>
<polygon fill="#63b8ff" stroke="#63b8ff" points="506.42,-473.41 508.5,-483.8 513.36,-474.38 506.42,-473.41"/>
</a>
</g>
</g>
<!-- Node16&#45;&gt;Node8 -->
<g id="edge21_Node000016_Node000008" class="edge">
<title>Node16&#45;&gt;Node8</title>
<g id="a_edge21_Node000016_Node000008"><a xlink:title=" ">
<path fill="none" stroke="#63b8ff" d="M644.83,-473.9C642.18,-447.82 638.5,-405.02 638.5,-368 638.5,-368 638.5,-368 638.5,-294.5 638.5,-246.58 617.79,-192.57 606.95,-167.57"/>
<polygon fill="#63b8ff" stroke="#63b8ff" points="641.36,-474.4 645.89,-483.98 648.33,-473.67 641.36,-474.4"/>
</a>
</g>
</g>
<!-- Node17 -->
<g id="Node000017" class="node">
<title>Node17</title>
<g id="a_Node000017"><a xlink:href="../../d9/dfa/service__worker_8hpp_source.html" target="_top" xlink:title=" ">
<polygon fill="white" stroke="#666666" points="866.5,-448 728.5,-448 728.5,-418 866.5,-418 866.5,-448"/>
<text text-anchor="start" x="736.5" y="-436" font-family="Helvetica,sans-Serif" font-size="10.00">userver/ugrpc/server</text>
<text text-anchor="middle" x="797.5" y="-425" font-family="Helvetica,sans-Serif" font-size="10.00">/impl/service_worker.hpp</text>
</a>
</g>
</g>
<!-- Node16&#45;&gt;Node17 -->
<g id="edge22_Node000016_Node000017" class="edge">
<title>Node16&#45;&gt;Node17</title>
<g id="a_edge22_Node000016_Node000017"><a xlink:title=" ">
<path fill="none" stroke="#63b8ff" d="M689.88,-479.92C713.58,-469.8 742.69,-457.38 764.66,-448.01"/>
<polygon fill="#63b8ff" stroke="#63b8ff" points="688.24,-476.81 680.42,-483.95 690.99,-483.25 688.24,-476.81"/>
</a>
</g>
</g>
<!-- Node18 -->
<g id="Node000018" class="node">
<title>Node18</title>
<g id="a_Node000018"><a xlink:href="../../df/d2b/server_2impl_2codegen__declarations_8hpp_source.html" target="_top" xlink:title=" ">
<polygon fill="white" stroke="#666666" points="872.5,-239 700.5,-239 700.5,-209 872.5,-209 872.5,-239"/>
<text text-anchor="start" x="708.5" y="-227" font-family="Helvetica,sans-Serif" font-size="10.00">userver/ugrpc/server</text>
<text text-anchor="middle" x="786.5" y="-216" font-family="Helvetica,sans-Serif" font-size="10.00">/impl/codegen_declarations.hpp</text>
</a>
</g>
</g>
<!-- Node17&#45;&gt;Node18 -->
<g id="edge23_Node000017_Node000018" class="edge">
<title>Node17&#45;&gt;Node18</title>
<g id="a_edge23_Node000017_Node000018"><a xlink:title=" ">
<path fill="none" stroke="#63b8ff" d="M770.31,-411.14C745.46,-390.2 710.38,-355.45 695.5,-316 689.07,-298.95 686.22,-290.68 695.5,-275 705.41,-258.24 723.16,-246.73 740.36,-239.01"/>
<polygon fill="#63b8ff" stroke="#63b8ff" points="768.35,-414.06 778.3,-417.7 772.79,-408.65 768.35,-414.06"/>
</a>
</g>
</g>
<!-- Node17&#45;&gt;Node19 -->
<g id="edge24_Node000017_Node000019" class="edge">
<title>Node17&#45;&gt;Node19</title>
<g id="a_edge24_Node000017_Node000019"><a xlink:title=" ">
<path fill="none" stroke="#63b8ff" d="M865.01,-414.59C886.17,-406.94 908.63,-396.34 926.5,-382 948.76,-364.13 965.46,-335.2 974.86,-316.02"/>
<polygon fill="#63b8ff" stroke="#63b8ff" points="863.72,-411.33 855.41,-417.9 866,-417.95 863.72,-411.33"/>
</a>
</g>
</g>
<!-- Node21 -->
<g id="Node000021" class="node">
<title>Node21</title>
<g id="a_Node000021"><a xlink:href="../../df/da9/service__base_8hpp.html" target="_top" xlink:title="The type&#45;erased base class for all gRPC service implementations.">
<polygon fill="white" stroke="#666666" points="917,-382 800,-382 800,-352 917,-352 917,-382"/>
<text text-anchor="start" x="808" y="-370" font-family="Helvetica,sans-Serif" font-size="10.00">userver/ugrpc/server</text>
<text text-anchor="middle" x="858.5" y="-359" font-family="Helvetica,sans-Serif" font-size="10.00">/service_base.hpp</text>
</a>
</g>
</g>
<!-- Node17&#45;&gt;Node21 -->
<g id="edge26_Node000017_Node000021" class="edge">
<title>Node17&#45;&gt;Node21</title>
<g id="a_edge26_Node000017_Node000021"><a xlink:title=" ">
<path fill="none" stroke="#63b8ff" d="M818.12,-410.37C826.99,-401.06 837.11,-390.44 845,-382.16"/>
<polygon fill="#63b8ff" stroke="#63b8ff" points="815.4,-408.14 811.04,-417.8 820.47,-412.97 815.4,-408.14"/>
</a>
</g>
</g>
<!-- Node20 -->
<g id="Node000020" class="node">
<title>Node20</title>
<g id="a_Node000020"><a xlink:href="../../d1/dac/server_2impl_2codegen__definitions_8hpp_source.html" target="_top" xlink:title=" ">
<polygon fill="white" stroke="#666666" points="1060,-239 897,-239 897,-209 1060,-209 1060,-239"/>
<text text-anchor="start" x="905" y="-227" font-family="Helvetica,sans-Serif" font-size="10.00">userver/ugrpc/server</text>
<text text-anchor="middle" x="978.5" y="-216" font-family="Helvetica,sans-Serif" font-size="10.00">/impl/codegen_definitions.hpp</text>
</a>
</g>
</g>
<!-- Node19&#45;&gt;Node20 -->
<g id="edge25_Node000019_Node000020" class="edge">
<title>Node19&#45;&gt;Node20</title>
<g id="a_edge25_Node000019_Node000020"><a xlink:title=" ">
<path fill="none" stroke="#63b8ff" d="M981.35,-264.66C980.71,-255.76 980.04,-246.42 979.51,-239.04"/>
<polygon fill="#63b8ff" stroke="#63b8ff" points="977.87,-265.05 982.08,-274.77 984.85,-264.54 977.87,-265.05"/>
</a>
</g>
</g>
<!-- Node21&#45;&gt;Node18 -->
<g id="edge27_Node000021_Node000018" class="edge">
<title>Node21&#45;&gt;Node18</title>
<g id="a_edge27_Node000021_Node000018"><a xlink:title=" ">
<path fill="none" stroke="#63b8ff" d="M871.97,-342.72C881.22,-323.39 889.8,-295.8 877.5,-275 867.59,-258.24 849.84,-246.73 832.64,-239.01"/>
<polygon fill="#63b8ff" stroke="#63b8ff" points="868.79,-341.24 867.32,-351.74 875.01,-344.45 868.79,-341.24"/>
</a>
</g>
</g>
<!-- Node21&#45;&gt;Node19 -->
<g id="edge28_Node000021_Node000019" class="edge">
<title>Node21&#45;&gt;Node19</title>
<g id="a_edge28_Node000021_Node000019"><a xlink:title=" ">
<path fill="none" stroke="#63b8ff" d="M892.95,-346.85C910.17,-337.27 930.97,-325.71 948.3,-316.07"/>
<polygon fill="#63b8ff" stroke="#63b8ff" points="890.83,-344.02 883.8,-351.94 894.24,-350.14 890.83,-344.02"/>
</a>
</g>
</g>
<!-- Node21&#45;&gt;Node22 -->
<g id="edge29_Node000021_Node000022" class="edge">
<title>Node21&#45;&gt;Node22</title>
<g id="a_edge29_Node000021_Node000022"><a xlink:title=" ">
<path fill="none" stroke="#63b8ff" d="M924.11,-349.45C961.5,-339.91 1009.2,-327.54 1051.5,-316 1057.9,-314.25 1064.62,-312.38 1071.25,-310.5"/>
<polygon fill="#63b8ff" stroke="#63b8ff" points="923.17,-346.08 914.34,-351.94 924.9,-352.86 923.17,-346.08"/>
</a>
</g>
</g>
<!-- Node24 -->
<g id="Node000024" class="node">
<title>Node24</title>
<g id="a_Node000024"><a xlink:href="../../d1/d68/service__component__base_8hpp.html" target="_top" xlink:title="Base class for all the gRPC service components.">
<polygon fill="white" stroke="#666666" points="868.5,-310.5 704.5,-310.5 704.5,-280.5 868.5,-280.5 868.5,-310.5"/>
<text text-anchor="start" x="712.5" y="-298.5" font-family="Helvetica,sans-Serif" font-size="10.00">userver/ugrpc/server</text>
<text text-anchor="middle" x="786.5" y="-287.5" font-family="Helvetica,sans-Serif" font-size="10.00">/service_component_base.hpp</text>
</a>
</g>
</g>
<!-- Node21&#45;&gt;Node24 -->
<g id="edge31_Node000021_Node000024" class="edge">
<title>Node21&#45;&gt;Node24</title>
<g id="a_edge31_Node000021_Node000024"><a xlink:title=" ">
<path fill="none" stroke="#63b8ff" d="M836.73,-344.99C825.18,-333.84 811.29,-320.43 801.05,-310.54"/>
<polygon fill="#63b8ff" stroke="#63b8ff" points="834.3,-347.51 843.93,-351.94 839.17,-342.47 834.3,-347.51"/>
</a>
</g>
</g>
<!-- Node23 -->
<g id="Node000023" class="node">
<title>Node23</title>
<g id="a_Node000023"><a xlink:href="../../db/d7e/server__component_8hpp.html" target="_top" xlink:title="Component that configures and manages the gRPC server.">
<polygon fill="white" stroke="#666666" points="1209,-239 1078,-239 1078,-209 1209,-209 1209,-239"/>
<text text-anchor="start" x="1086" y="-227" font-family="Helvetica,sans-Serif" font-size="10.00">userver/ugrpc/server</text>
<text text-anchor="middle" x="1143.5" y="-216" font-family="Helvetica,sans-Serif" font-size="10.00">/server_component.hpp</text>
</a>
</g>
</g>
<!-- Node22&#45;&gt;Node23 -->
<g id="edge30_Node000022_Node000023" class="edge">
<title>Node22&#45;&gt;Node23</title>
<g id="a_edge30_Node000022_Node000023"><a xlink:title=" ">
<path fill="none" stroke="#63b8ff" d="M1127.65,-270.9C1131.31,-260.31 1135.5,-248.18 1138.65,-239.04"/>
<polygon fill="#63b8ff" stroke="#63b8ff" points="1124.31,-269.84 1124.36,-280.44 1130.93,-272.13 1124.31,-269.84"/>
</a>
</g>
</g>
<!-- Node24&#45;&gt;Node18 -->
<g id="edge32_Node000024_Node000018" class="edge">
<title>Node24&#45;&gt;Node18</title>
<g id="a_edge32_Node000024_Node000018"><a xlink:title=" ">
<path fill="none" stroke="#63b8ff" d="M786.5,-270.25C786.5,-259.81 786.5,-247.99 786.5,-239.04"/>
<polygon fill="#63b8ff" stroke="#63b8ff" points="783,-270.44 786.5,-280.44 790,-270.44 783,-270.44"/>
</a>
</g>
</g>
</g>
</svg>
