<?xml version="1.0" encoding="UTF-8" standalone="no"?>
<!DOCTYPE svg PUBLIC "-//W3C//DTD SVG 1.1//EN"
 "http://www.w3.org/Graphics/SVG/1.1/DTD/svg11.dtd">
<!-- Generated by graphviz version 2.43.0 (0)
 -->
<!-- Title: redis::ConnectionInfo Pages: 1 -->
<svg width="753pt" height="125pt"
 viewBox="0.00 0.00 753.00 124.50" xmlns="http://www.w3.org/2000/svg" xmlns:xlink="http://www.w3.org/1999/xlink">
<g id="graph0" class="graph" transform="scale(1 1) rotate(0) translate(4 120.5)">
<title>redis::ConnectionInfo</title>
<!-- Node1 -->
<g id="Node000001" class="node">
<title>Node1</title>
<g id="a_Node000001"><a xlink:title=" ">
<polygon fill="#999999" stroke="#666666" points="745,-78 625,-78 625,-59 745,-59 745,-78"/>
<text text-anchor="middle" x="685" y="-66" font-family="Helvetica,sans-Serif" font-size="10.00">redis::ConnectionInfo</text>
</a>
</g>
</g>
<!-- Node2 -->
<g id="Node000002" class="node">
<title>Node2</title>
<g id="a_Node000002"><a xlink:title=" ">
<polygon fill="white" stroke="#666666" points="249,-111 184,-111 184,-92 249,-92 249,-111"/>
<text text-anchor="middle" x="216.5" y="-99" font-family="Helvetica,sans-Serif" font-size="10.00">std::string</text>
</a>
</g>
</g>
<!-- Node2&#45;&gt;Node1 -->
<g id="edge1_Node000001_Node000002" class="edge">
<title>Node2&#45;&gt;Node1</title>
<g id="a_edge1_Node000001_Node000002"><a xlink:title=" ">
<path fill="none" stroke="#9a32cd" stroke-dasharray="5,2" d="M259.62,-101.87C331.28,-101.98 481.39,-99.98 607,-83.5 617.8,-82.08 629.37,-80.09 640.18,-78.01"/>
<polygon fill="#9a32cd" stroke="#9a32cd" points="259.22,-98.37 249.21,-101.84 259.2,-105.37 259.22,-98.37"/>
</a>
</g>
<text text-anchor="middle" x="447" y="-102.5" font-family="Helvetica,sans-Serif" font-size="10.00" fill="grey"> host</text>
</g>
<!-- Node6 -->
<g id="Node000006" class="node">
<title>Node6</title>
<g id="a_Node000006"><a xlink:title=" ">
<polygon fill="white" stroke="#666666" points="517,-78 377,-78 377,-59 517,-59 517,-78"/>
<text text-anchor="middle" x="447" y="-66" font-family="Helvetica,sans-Serif" font-size="10.00">std::vector&lt; std::string &gt;</text>
</a>
</g>
</g>
<!-- Node2&#45;&gt;Node6 -->
<g id="edge6_Node000006_Node000002" class="edge">
<title>Node2&#45;&gt;Node6</title>
<g id="a_edge6_Node000006_Node000002"><a xlink:title=" ">
<path fill="none" stroke="#9a32cd" stroke-dasharray="5,2" d="M259.23,-95.47C292.9,-90.61 340.87,-83.68 379.77,-78.06"/>
<polygon fill="#9a32cd" stroke="#9a32cd" points="258.67,-92.02 249.27,-96.91 259.67,-98.95 258.67,-92.02"/>
</a>
</g>
<text text-anchor="middle" x="334.5" y="-90.5" font-family="Helvetica,sans-Serif" font-size="10.00" fill="grey"> elements</text>
</g>
<!-- Node3 -->
<g id="Node000003" class="node">
<title>Node3</title>
<g id="a_Node000003"><a xlink:title=" ">
<polygon fill="white" stroke="#666666" points="104,-116.5 0,-116.5 0,-86.5 104,-86.5 104,-116.5"/>
<text text-anchor="start" x="8" y="-104.5" font-family="Helvetica,sans-Serif" font-size="10.00">std::basic_string&lt;</text>
<text text-anchor="middle" x="52" y="-93.5" font-family="Helvetica,sans-Serif" font-size="10.00"> Char &gt;</text>
</a>
</g>
</g>
<!-- Node3&#45;&gt;Node2 -->
<g id="edge2_Node000002_Node000003" class="edge">
<title>Node3&#45;&gt;Node2</title>
<g id="a_edge2_Node000002_Node000003"><a xlink:title=" ">
<path fill="none" stroke="#63b8ff" d="M114.69,-101.5C138.25,-101.5 164.14,-101.5 183.78,-101.5"/>
<polygon fill="#63b8ff" stroke="#63b8ff" points="114.42,-98 104.42,-101.5 114.42,-105 114.42,-98"/>
</a>
</g>
</g>
<!-- Node4 -->
<g id="Node000004" class="node">
<title>Node4</title>
<g id="a_Node000004"><a xlink:href="../../d4/d67/classutils_1_1StrongTypedef.html" target="_top" xlink:title=" ">
<polygon fill="white" stroke="#666666" points="507.5,-41 386.5,-41 386.5,0 507.5,0 507.5,-41"/>
<text text-anchor="start" x="394.5" y="-29" font-family="Helvetica,sans-Serif" font-size="10.00">utils::StrongTypedef</text>
<text text-anchor="start" x="394.5" y="-18" font-family="Helvetica,sans-Serif" font-size="10.00">&lt; class PasswordTag,</text>
<text text-anchor="middle" x="447" y="-7" font-family="Helvetica,sans-Serif" font-size="10.00"> std::string &gt;</text>
</a>
</g>
</g>
<!-- Node4&#45;&gt;Node1 -->
<g id="edge3_Node000001_Node000004" class="edge">
<title>Node4&#45;&gt;Node1</title>
<g id="a_edge3_Node000001_Node000004"><a xlink:title=" ">
<path fill="none" stroke="#9a32cd" stroke-dasharray="5,2" d="M517.66,-34.67C556.16,-42.5 602.97,-52.02 637.11,-58.96"/>
<polygon fill="#9a32cd" stroke="#9a32cd" points="518.05,-31.18 507.55,-32.61 516.65,-38.04 518.05,-31.18"/>
</a>
</g>
<text text-anchor="middle" x="571" y="-55.5" font-family="Helvetica,sans-Serif" font-size="10.00" fill="grey"> password</text>
</g>
<!-- Node5 -->
<g id="Node000005" class="node">
<title>Node5</title>
<g id="a_Node000005"><a xlink:title=" ">
<polygon fill="white" stroke="#bfbfbf" points="292,-35.5 141,-35.5 141,-5.5 292,-5.5 292,-35.5"/>
<text text-anchor="start" x="149" y="-23.5" font-family="Helvetica,sans-Serif" font-size="10.00">utils::impl::strong</text>
<text text-anchor="middle" x="216.5" y="-12.5" font-family="Helvetica,sans-Serif" font-size="10.00">_typedef::StrongTypedefTag</text>
</a>
</g>
</g>
<!-- Node5&#45;&gt;Node4 -->
<g id="edge4_Node000004_Node000005" class="edge">
<title>Node5&#45;&gt;Node4</title>
<g id="a_edge4_Node000004_Node000005"><a xlink:title=" ">
<path fill="none" stroke="#63b8ff" d="M302.19,-20.5C330.18,-20.5 360.72,-20.5 386.42,-20.5"/>
<polygon fill="#63b8ff" stroke="#63b8ff" points="302,-17 292,-20.5 302,-24 302,-17"/>
</a>
</g>
</g>
<!-- Node6&#45;&gt;Node1 -->
<g id="edge5_Node000001_Node000006" class="edge">
<title>Node6&#45;&gt;Node1</title>
<g id="a_edge5_Node000001_Node000006"><a xlink:title=" ">
<path fill="none" stroke="#9a32cd" stroke-dasharray="5,2" d="M527.39,-68.5C559.23,-68.5 595.29,-68.5 624.78,-68.5"/>
<polygon fill="#9a32cd" stroke="#9a32cd" points="527.21,-65 517.21,-68.5 527.21,-72 527.21,-65"/>
</a>
</g>
<text text-anchor="middle" x="571" y="-71.5" font-family="Helvetica,sans-Serif" font-size="10.00" fill="grey"> resolved_host</text>
</g>
</g>
</svg>
