<?xml version="1.0" encoding="UTF-8" standalone="no"?>
<!DOCTYPE svg PUBLIC "-//W3C//DTD SVG 1.1//EN"
 "http://www.w3.org/Graphics/SVG/1.1/DTD/svg11.dtd">
<!-- Generated by graphviz version 2.43.0 (0)
 -->
<!-- Title: userver/engine/wait_all_checked.hpp Pages: 1 -->
<svg width="795pt" height="291pt"
 viewBox="0.00 0.00 794.50 291.00" xmlns="http://www.w3.org/2000/svg" xmlns:xlink="http://www.w3.org/1999/xlink">
<g id="graph0" class="graph" transform="scale(1 1) rotate(0) translate(4 287)">
<title>userver/engine/wait_all_checked.hpp</title>
<!-- Node1 -->
<g id="Node000001" class="node">
<title>Node1</title>
<g id="a_Node000001"><a xlink:title="Provides engine::WaitAllChecked.">
<polygon fill="#999999" stroke="#666666" points="459.5,-283 346.5,-283 346.5,-253 459.5,-253 459.5,-283"/>
<text text-anchor="start" x="354.5" y="-271" font-family="Helvetica,sans-Serif" font-size="10.00">userver/engine/wait</text>
<text text-anchor="middle" x="403" y="-260" font-family="Helvetica,sans-Serif" font-size="10.00">_all_checked.hpp</text>
</a>
</g>
</g>
<!-- Node2 -->
<g id="Node000002" class="node">
<title>Node2</title>
<g id="a_Node000002"><a xlink:title=" ">
<polygon fill="#e0e0e0" stroke="#999999" points="50,-145.5 0,-145.5 0,-126.5 50,-126.5 50,-145.5"/>
<text text-anchor="middle" x="25" y="-133.5" font-family="Helvetica,sans-Serif" font-size="10.00">chrono</text>
</a>
</g>
</g>
<!-- Node1&#45;&gt;Node2 -->
<g id="edge1_Node000001_Node000002" class="edge">
<title>Node1&#45;&gt;Node2</title>
<g id="a_edge1_Node000001_Node000002"><a xlink:title=" ">
<path fill="none" stroke="#63b8ff" d="M346.25,-264.02C264.49,-258.78 118.56,-245.64 75,-217 52.7,-202.34 38.54,-173.93 31.18,-155.22"/>
<polygon fill="#63b8ff" stroke="#63b8ff" points="34.43,-153.92 27.71,-145.73 27.86,-156.33 34.43,-153.92"/>
</a>
</g>
</g>
<!-- Node3 -->
<g id="Node000003" class="node">
<title>Node3</title>
<g id="a_Node000003"><a xlink:title=" ">
<polygon fill="#e0e0e0" stroke="#999999" points="786.5,-145.5 739.5,-145.5 739.5,-126.5 786.5,-126.5 786.5,-145.5"/>
<text text-anchor="middle" x="763" y="-133.5" font-family="Helvetica,sans-Serif" font-size="10.00">vector</text>
</a>
</g>
</g>
<!-- Node1&#45;&gt;Node3 -->
<g id="edge2_Node000001_Node000003" class="edge">
<title>Node1&#45;&gt;Node3</title>
<g id="a_edge2_Node000001_Node000003"><a xlink:title=" ">
<path fill="none" stroke="#63b8ff" d="M459.6,-255.09C492.13,-246.95 533.13,-234.45 567,-217 586.44,-206.98 586.49,-196.89 606,-187 657.19,-161.06 675.93,-170.24 730,-151 731.43,-150.49 732.89,-149.95 734.35,-149.39"/>
<polygon fill="#63b8ff" stroke="#63b8ff" points="735.98,-152.51 743.96,-145.53 733.37,-146.02 735.98,-152.51"/>
</a>
</g>
</g>
<!-- Node4 -->
<g id="Node000004" class="node">
<title>Node4</title>
<g id="a_Node000004"><a xlink:href="../../d2/d22/deadline_8hpp.html" target="_top" xlink:title="Internal representation of a deadline time point.">
<polygon fill="white" stroke="#666666" points="239.5,-211.5 84.5,-211.5 84.5,-192.5 239.5,-192.5 239.5,-211.5"/>
<text text-anchor="middle" x="162" y="-199.5" font-family="Helvetica,sans-Serif" font-size="10.00">userver/engine/deadline.hpp</text>
</a>
</g>
</g>
<!-- Node1&#45;&gt;Node4 -->
<g id="edge3_Node000001_Node000004" class="edge">
<title>Node1&#45;&gt;Node4</title>
<g id="a_edge3_Node000001_Node000004"><a xlink:title=" ">
<path fill="none" stroke="#63b8ff" d="M350.11,-252.95C306.17,-241.29 244.5,-224.91 203.91,-214.13"/>
<polygon fill="#63b8ff" stroke="#63b8ff" points="204.64,-210.7 194.07,-211.52 202.84,-217.47 204.64,-210.7"/>
</a>
</g>
</g>
<!-- Node8 -->
<g id="Node000008" class="node">
<title>Node8</title>
<g id="a_Node000008"><a xlink:href="../../d0/dd6/future__status_8hpp.html" target="_top" xlink:title="std::future state extended with &quot;cancelled&quot; state">
<polygon fill="white" stroke="#666666" points="737,-217 615,-217 615,-187 737,-187 737,-217"/>
<text text-anchor="start" x="623" y="-205" font-family="Helvetica,sans-Serif" font-size="10.00">userver/engine/future</text>
<text text-anchor="middle" x="676" y="-194" font-family="Helvetica,sans-Serif" font-size="10.00">_status.hpp</text>
</a>
</g>
</g>
<!-- Node1&#45;&gt;Node8 -->
<g id="edge8_Node000001_Node000008" class="edge">
<title>Node1&#45;&gt;Node8</title>
<g id="a_edge8_Node000001_Node000008"><a xlink:title=" ">
<path fill="none" stroke="#63b8ff" d="M459.57,-253.74C502.2,-243.74 560.89,-229.99 606.4,-219.32"/>
<polygon fill="#63b8ff" stroke="#63b8ff" points="607.26,-222.71 616.2,-217.02 605.66,-215.89 607.26,-222.71"/>
</a>
</g>
</g>
<!-- Node9 -->
<g id="Node000009" class="node">
<title>Node9</title>
<g id="a_Node000009"><a xlink:href="../../d5/dd8/universal_2include_2userver_2utils_2impl_2span_8hpp_source.html" target="_top" xlink:title=" ">
<polygon fill="white" stroke="#666666" points="388,-217 286,-217 286,-187 388,-187 388,-217"/>
<text text-anchor="start" x="294" y="-205" font-family="Helvetica,sans-Serif" font-size="10.00">userver/utils/impl</text>
<text text-anchor="middle" x="337" y="-194" font-family="Helvetica,sans-Serif" font-size="10.00">/span.hpp</text>
</a>
</g>
</g>
<!-- Node1&#45;&gt;Node9 -->
<g id="edge9_Node000001_Node000009" class="edge">
<title>Node1&#45;&gt;Node9</title>
<g id="a_edge9_Node000001_Node000009"><a xlink:title=" ">
<path fill="none" stroke="#63b8ff" d="M388.35,-252.8C379.72,-244.43 368.64,-233.68 358.98,-224.31"/>
<polygon fill="#63b8ff" stroke="#63b8ff" points="361.22,-221.61 351.61,-217.16 356.35,-226.64 361.22,-221.61"/>
</a>
</g>
</g>
<!-- Node12 -->
<g id="Node000012" class="node">
<title>Node12</title>
<g id="a_Node000012"><a xlink:href="../../d0/d03/universal_2include_2userver_2utils_2meta_8hpp.html" target="_top" xlink:title="Metaprogramming, template variables and concepts.">
<polygon fill="white" stroke="#666666" points="558.5,-211.5 431.5,-211.5 431.5,-192.5 558.5,-192.5 558.5,-211.5"/>
<text text-anchor="middle" x="495" y="-199.5" font-family="Helvetica,sans-Serif" font-size="10.00">userver/utils/meta.hpp</text>
</a>
</g>
</g>
<!-- Node1&#45;&gt;Node12 -->
<g id="edge14_Node000001_Node000012" class="edge">
<title>Node1&#45;&gt;Node12</title>
<g id="a_edge14_Node000001_Node000012"><a xlink:title=" ">
<path fill="none" stroke="#63b8ff" d="M423.42,-252.8C438.55,-242.27 459.1,-227.97 474.3,-217.4"/>
<polygon fill="#63b8ff" stroke="#63b8ff" points="476.34,-220.24 482.55,-211.66 472.35,-214.5 476.34,-220.24"/>
</a>
</g>
</g>
<!-- Node4&#45;&gt;Node2 -->
<g id="edge4_Node000004_Node000002" class="edge">
<title>Node4&#45;&gt;Node2</title>
<g id="a_edge4_Node000004_Node000002"><a xlink:title=" ">
<path fill="none" stroke="#63b8ff" d="M143.52,-192.37C120.24,-181.49 79.99,-162.69 52.94,-150.05"/>
<polygon fill="#63b8ff" stroke="#63b8ff" points="54.16,-146.76 43.62,-145.7 51.2,-153.1 54.16,-146.76"/>
</a>
</g>
</g>
<!-- Node5 -->
<g id="Node000005" class="node">
<title>Node5</title>
<g id="a_Node000005"><a xlink:title=" ">
<polygon fill="#e0e0e0" stroke="#999999" points="555.5,-19 486.5,-19 486.5,0 555.5,0 555.5,-19"/>
<text text-anchor="middle" x="521" y="-7" font-family="Helvetica,sans-Serif" font-size="10.00">type_traits</text>
</a>
</g>
</g>
<!-- Node4&#45;&gt;Node5 -->
<g id="edge5_Node000004_Node000005" class="edge">
<title>Node4&#45;&gt;Node5</title>
<g id="a_edge5_Node000004_Node000005"><a xlink:title=" ">
<path fill="none" stroke="#63b8ff" d="M142.96,-192.4C127.4,-184.22 106.5,-170.29 97,-151 77.31,-111.01 90.1,-81.42 126,-55 180.72,-14.72 384.96,-10.08 476.33,-10.08"/>
<polygon fill="#63b8ff" stroke="#63b8ff" points="476.37,-13.58 486.37,-10.1 476.38,-6.58 476.37,-13.58"/>
</a>
</g>
</g>
<!-- Node6 -->
<g id="Node000006" class="node">
<title>Node6</title>
<g id="a_Node000006"><a xlink:href="../../d2/d54/assert_8hpp.html" target="_top" xlink:title="Assertion macros UASSERT, UASSERT_MSG, UINVARIANT.">
<polygon fill="white" stroke="#666666" points="237.5,-145.5 106.5,-145.5 106.5,-126.5 237.5,-126.5 237.5,-145.5"/>
<text text-anchor="middle" x="172" y="-133.5" font-family="Helvetica,sans-Serif" font-size="10.00">userver/utils/assert.hpp</text>
</a>
</g>
</g>
<!-- Node4&#45;&gt;Node6 -->
<g id="edge6_Node000004_Node000006" class="edge">
<title>Node4&#45;&gt;Node6</title>
<g id="a_edge6_Node000004_Node000006"><a xlink:title=" ">
<path fill="none" stroke="#63b8ff" d="M163.35,-192.37C164.8,-183.07 167.16,-167.98 169.05,-155.9"/>
<polygon fill="#63b8ff" stroke="#63b8ff" points="172.52,-156.33 170.61,-145.91 165.61,-155.25 172.52,-156.33"/>
</a>
</g>
</g>
<!-- Node7 -->
<g id="Node000007" class="node">
<title>Node7</title>
<g id="a_Node000007"><a xlink:title=" ">
<polygon fill="#e0e0e0" stroke="#999999" points="208.5,-79.5 135.5,-79.5 135.5,-60.5 208.5,-60.5 208.5,-79.5"/>
<text text-anchor="middle" x="172" y="-67.5" font-family="Helvetica,sans-Serif" font-size="10.00">string_view</text>
</a>
</g>
</g>
<!-- Node6&#45;&gt;Node7 -->
<g id="edge7_Node000006_Node000007" class="edge">
<title>Node6&#45;&gt;Node7</title>
<g id="a_edge7_Node000006_Node000007"><a xlink:title=" ">
<path fill="none" stroke="#63b8ff" d="M172,-126.37C172,-117.16 172,-102.29 172,-90.27"/>
<polygon fill="#63b8ff" stroke="#63b8ff" points="175.5,-89.91 172,-79.91 168.5,-89.91 175.5,-89.91"/>
</a>
</g>
</g>
<!-- Node9&#45;&gt;Node5 -->
<g id="edge12_Node000009_Node000005" class="edge">
<title>Node9&#45;&gt;Node5</title>
<g id="a_edge12_Node000009_Node000005"><a xlink:title=" ">
<path fill="none" stroke="#63b8ff" d="M337.31,-186.73C338.32,-169.67 342.16,-140.93 356,-121 389.48,-72.78 451.43,-39.82 489.15,-23.15"/>
<polygon fill="#63b8ff" stroke="#63b8ff" points="490.84,-26.23 498.65,-19.07 488.08,-19.8 490.84,-26.23"/>
</a>
</g>
</g>
<!-- Node9&#45;&gt;Node6 -->
<g id="edge13_Node000009_Node000006" class="edge">
<title>Node9&#45;&gt;Node6</title>
<g id="a_edge13_Node000009_Node000006"><a xlink:title=" ">
<path fill="none" stroke="#63b8ff" d="M300.79,-186.95C271.73,-175.68 231.33,-160.01 203.57,-149.25"/>
<polygon fill="#63b8ff" stroke="#63b8ff" points="204.55,-145.87 193.96,-145.52 202.02,-152.4 204.55,-145.87"/>
</a>
</g>
</g>
<!-- Node10 -->
<g id="Node000010" class="node">
<title>Node10</title>
<g id="a_Node000010"><a xlink:title=" ">
<polygon fill="#e0e0e0" stroke="#999999" points="308.5,-145.5 255.5,-145.5 255.5,-126.5 308.5,-126.5 308.5,-145.5"/>
<text text-anchor="middle" x="282" y="-133.5" font-family="Helvetica,sans-Serif" font-size="10.00">cstddef</text>
</a>
</g>
</g>
<!-- Node9&#45;&gt;Node10 -->
<g id="edge10_Node000009_Node000010" class="edge">
<title>Node9&#45;&gt;Node10</title>
<g id="a_edge10_Node000009_Node000010"><a xlink:title=" ">
<path fill="none" stroke="#63b8ff" d="M324.79,-186.8C316.39,-177.01 305.19,-163.98 296.35,-153.7"/>
<polygon fill="#63b8ff" stroke="#63b8ff" points="298.77,-151.15 289.6,-145.84 293.46,-155.71 298.77,-151.15"/>
</a>
</g>
</g>
<!-- Node11 -->
<g id="Node000011" class="node">
<title>Node11</title>
<g id="a_Node000011"><a xlink:title=" ">
<polygon fill="#e0e0e0" stroke="#999999" points="418.5,-145.5 365.5,-145.5 365.5,-126.5 418.5,-126.5 418.5,-145.5"/>
<text text-anchor="middle" x="392" y="-133.5" font-family="Helvetica,sans-Serif" font-size="10.00">iterator</text>
</a>
</g>
</g>
<!-- Node9&#45;&gt;Node11 -->
<g id="edge11_Node000009_Node000011" class="edge">
<title>Node9&#45;&gt;Node11</title>
<g id="a_edge11_Node000009_Node000011"><a xlink:title=" ">
<path fill="none" stroke="#63b8ff" d="M349.21,-186.8C357.61,-177.01 368.81,-163.98 377.65,-153.7"/>
<polygon fill="#63b8ff" stroke="#63b8ff" points="380.54,-155.71 384.4,-145.84 375.23,-151.15 380.54,-155.71"/>
</a>
</g>
</g>
<!-- Node12&#45;&gt;Node3 -->
<g id="edge19_Node000012_Node000003" class="edge">
<title>Node12&#45;&gt;Node3</title>
<g id="a_edge19_Node000012_Node000003"><a xlink:title=" ">
<path fill="none" stroke="#63b8ff" d="M540.24,-192.45C598.16,-181.31 695.19,-161.98 730,-151 731.63,-150.49 733.29,-149.92 734.96,-149.32"/>
<polygon fill="#63b8ff" stroke="#63b8ff" points="736.35,-152.53 744.39,-145.63 733.8,-146.02 736.35,-152.53"/>
</a>
</g>
</g>
<!-- Node12&#45;&gt;Node5 -->
<g id="edge18_Node000012_Node000005" class="edge">
<title>Node12&#45;&gt;Node5</title>
<g id="a_edge18_Node000012_Node000005"><a xlink:title=" ">
<path fill="none" stroke="#63b8ff" d="M496.25,-192.15C497.66,-182.16 500.02,-165.41 502,-151 508.02,-107.26 514.93,-55.84 518.53,-28.97"/>
<polygon fill="#63b8ff" stroke="#63b8ff" points="522,-29.43 519.86,-19.05 515.06,-28.5 522,-29.43"/>
</a>
</g>
</g>
<!-- Node12&#45;&gt;Node11 -->
<g id="edge16_Node000012_Node000011" class="edge">
<title>Node12&#45;&gt;Node11</title>
<g id="a_edge16_Node000012_Node000011"><a xlink:title=" ">
<path fill="none" stroke="#63b8ff" d="M481.11,-192.37C464.06,-181.78 434.93,-163.67 414.63,-151.06"/>
<polygon fill="#63b8ff" stroke="#63b8ff" points="416.34,-148 406,-145.7 412.65,-153.95 416.34,-148"/>
</a>
</g>
</g>
<!-- Node13 -->
<g id="Node000013" class="node">
<title>Node13</title>
<g id="a_Node000013"><a xlink:title=" ">
<polygon fill="#e0e0e0" stroke="#999999" points="721,-145.5 673,-145.5 673,-126.5 721,-126.5 721,-145.5"/>
<text text-anchor="middle" x="697" y="-133.5" font-family="Helvetica,sans-Serif" font-size="10.00">iosfwd</text>
</a>
</g>
</g>
<!-- Node12&#45;&gt;Node13 -->
<g id="edge15_Node000012_Node000013" class="edge">
<title>Node12&#45;&gt;Node13</title>
<g id="a_edge15_Node000012_Node000013"><a xlink:title=" ">
<path fill="none" stroke="#63b8ff" d="M527.75,-192.5C562.06,-183.31 617.34,-167.74 664,-151 665.43,-150.49 666.88,-149.95 668.35,-149.39"/>
<polygon fill="#63b8ff" stroke="#63b8ff" points="669.98,-152.5 677.95,-145.52 667.37,-146.01 669.98,-152.5"/>
</a>
</g>
</g>
<!-- Node14 -->
<g id="Node000014" class="node">
<title>Node14</title>
<g id="a_Node000014"><a xlink:title=" ">
<polygon fill="#e0e0e0" stroke="#999999" points="493,-145.5 437,-145.5 437,-126.5 493,-126.5 493,-145.5"/>
<text text-anchor="middle" x="465" y="-133.5" font-family="Helvetica,sans-Serif" font-size="10.00">optional</text>
</a>
</g>
</g>
<!-- Node12&#45;&gt;Node14 -->
<g id="edge17_Node000012_Node000014" class="edge">
<title>Node12&#45;&gt;Node14</title>
<g id="a_edge17_Node000012_Node000014"><a xlink:title=" ">
<path fill="none" stroke="#63b8ff" d="M490.95,-192.37C486.51,-182.88 479.23,-167.36 473.51,-155.16"/>
<polygon fill="#63b8ff" stroke="#63b8ff" points="476.59,-153.47 469.17,-145.91 470.25,-156.45 476.59,-153.47"/>
</a>
</g>
</g>
<!-- Node15 -->
<g id="Node000015" class="node">
<title>Node15</title>
<g id="a_Node000015"><a xlink:href="../../d3/da0/meta__light_8hpp.html" target="_top" xlink:title="Lightweight concepts.">
<polygon fill="white" stroke="#666666" points="655,-151 549,-151 549,-121 655,-121 655,-151"/>
<text text-anchor="start" x="557" y="-139" font-family="Helvetica,sans-Serif" font-size="10.00">userver/utils/meta</text>
<text text-anchor="middle" x="602" y="-128" font-family="Helvetica,sans-Serif" font-size="10.00">_light.hpp</text>
</a>
</g>
</g>
<!-- Node12&#45;&gt;Node15 -->
<g id="edge20_Node000012_Node000015" class="edge">
<title>Node12&#45;&gt;Node15</title>
<g id="a_edge20_Node000012_Node000015"><a xlink:title=" ">
<path fill="none" stroke="#63b8ff" d="M509.43,-192.37C524.77,-183.2 549.52,-168.39 569.57,-156.4"/>
<polygon fill="#63b8ff" stroke="#63b8ff" points="571.62,-159.25 578.4,-151.12 568.02,-153.25 571.62,-159.25"/>
</a>
</g>
</g>
<!-- Node15&#45;&gt;Node5 -->
<g id="edge21_Node000015_Node000005" class="edge">
<title>Node15&#45;&gt;Node5</title>
<g id="a_edge21_Node000015_Node000005"><a xlink:title=" ">
<path fill="none" stroke="#63b8ff" d="M592.71,-120.72C577.74,-97.71 548.34,-52.53 532.23,-27.76"/>
<polygon fill="#63b8ff" stroke="#63b8ff" points="534.96,-25.54 526.58,-19.07 529.1,-29.36 534.96,-25.54"/>
</a>
</g>
</g>
<!-- Node16 -->
<g id="Node000016" class="node">
<title>Node16</title>
<g id="a_Node000016"><a xlink:href="../../d9/dce/void__t_8hpp.html" target="_top" xlink:title="std::void_t implementation with workarounds for compiler bugs">
<polygon fill="white" stroke="#666666" points="688.5,-85 587.5,-85 587.5,-55 688.5,-55 688.5,-85"/>
<text text-anchor="start" x="595.5" y="-73" font-family="Helvetica,sans-Serif" font-size="10.00">userver/utils/void</text>
<text text-anchor="middle" x="638" y="-62" font-family="Helvetica,sans-Serif" font-size="10.00">_t.hpp</text>
</a>
</g>
</g>
<!-- Node15&#45;&gt;Node16 -->
<g id="edge22_Node000015_Node000016" class="edge">
<title>Node15&#45;&gt;Node16</title>
<g id="a_edge22_Node000015_Node000016"><a xlink:title=" ">
<path fill="none" stroke="#63b8ff" d="M609.99,-120.8C614.42,-112.92 620.03,-102.95 625.07,-93.99"/>
<polygon fill="#63b8ff" stroke="#63b8ff" points="628.18,-95.6 630.03,-85.16 622.08,-92.16 628.18,-95.6"/>
</a>
</g>
</g>
<!-- Node16&#45;&gt;Node5 -->
<g id="edge23_Node000016_Node000005" class="edge">
<title>Node16&#45;&gt;Node5</title>
<g id="a_edge23_Node000016_Node000005"><a xlink:title=" ">
<path fill="none" stroke="#63b8ff" d="M609.98,-54.99C590.98,-45.49 566.03,-33.02 547.39,-23.69"/>
<polygon fill="#63b8ff" stroke="#63b8ff" points="548.79,-20.48 538.28,-19.14 545.66,-26.74 548.79,-20.48"/>
</a>
</g>
</g>
</g>
</svg>
