<?xml version="1.0" encoding="UTF-8" standalone="no"?>
<!DOCTYPE svg PUBLIC "-//W3C//DTD SVG 1.1//EN"
 "http://www.w3.org/Graphics/SVG/1.1/DTD/svg11.dtd">
<!-- Generated by graphviz version 2.43.0 (0)
 -->
<!-- Title: userver/tracing/span.hpp Pages: 1 -->
<svg width="2141pt" height="412pt"
 viewBox="0.00 0.00 2140.50 412.00" xmlns="http://www.w3.org/2000/svg" xmlns:xlink="http://www.w3.org/1999/xlink">
<g id="graph0" class="graph" transform="scale(1 1) rotate(0) translate(4 408)">
<title>userver/tracing/span.hpp</title>
<!-- Node1 -->
<g id="Node000001" class="node">
<title>Node1</title>
<g id="a_Node000001"><a xlink:title="Measures the execution time of the current code block, links it with the parent tracing::Spans and st...">
<polygon fill="#999999" stroke="#666666" points="1360.5,-404 1223.5,-404 1223.5,-385 1360.5,-385 1360.5,-404"/>
<text text-anchor="middle" x="1292" y="-392" font-family="Helvetica,sans-Serif" font-size="10.00">userver/tracing/span.hpp</text>
</a>
</g>
</g>
<!-- Node2 -->
<g id="Node000002" class="node">
<title>Node2</title>
<g id="a_Node000002"><a xlink:title=" ">
<polygon fill="#e0e0e0" stroke="#999999" points="895,-145.5 839,-145.5 839,-126.5 895,-126.5 895,-145.5"/>
<text text-anchor="middle" x="867" y="-133.5" font-family="Helvetica,sans-Serif" font-size="10.00">optional</text>
</a>
</g>
</g>
<!-- Node1&#45;&gt;Node2 -->
<g id="edge1_Node000001_Node000002" class="edge">
<title>Node1&#45;&gt;Node2</title>
<g id="a_edge1_Node000001_Node000002"><a xlink:title=" ">
<path fill="none" stroke="#63b8ff" d="M1245.89,-384.97C1130.23,-362.52 833.33,-297.86 781,-217 773.76,-205.81 774.35,-198.56 781,-187 787.44,-175.8 815.73,-160.61 838.13,-149.92"/>
<polygon fill="#63b8ff" stroke="#63b8ff" points="839.71,-153.05 847.29,-145.64 836.75,-146.71 839.71,-153.05"/>
</a>
</g>
</g>
<!-- Node3 -->
<g id="Node000003" class="node">
<title>Node3</title>
<g id="a_Node000003"><a xlink:title=" ">
<polygon fill="#e0e0e0" stroke="#999999" points="95.5,-79.5 22.5,-79.5 22.5,-60.5 95.5,-60.5 95.5,-79.5"/>
<text text-anchor="middle" x="59" y="-67.5" font-family="Helvetica,sans-Serif" font-size="10.00">string_view</text>
</a>
</g>
</g>
<!-- Node1&#45;&gt;Node3 -->
<g id="edge2_Node000001_Node000003" class="edge">
<title>Node1&#45;&gt;Node3</title>
<g id="a_edge2_Node000001_Node000003"><a xlink:title=" ">
<path fill="none" stroke="#63b8ff" d="M1223.45,-394.15C956.34,-395.81 0,-393.08 0,-269 0,-269 0,-269 0,-201 0,-157.02 28.35,-111.55 45.74,-87.79"/>
<polygon fill="#63b8ff" stroke="#63b8ff" points="48.75,-89.61 52,-79.52 43.17,-85.38 48.75,-89.61"/>
</a>
</g>
</g>
<!-- Node4 -->
<g id="Node000004" class="node">
<title>Node4</title>
<g id="a_Node000004"><a xlink:href="../../dd/de6/universal_2include_2userver_2logging_2log_8hpp.html" target="_top" xlink:title="Logging helpers.">
<polygon fill="white" stroke="#666666" points="1454.5,-343.5 1323.5,-343.5 1323.5,-324.5 1454.5,-324.5 1454.5,-343.5"/>
<text text-anchor="middle" x="1389" y="-331.5" font-family="Helvetica,sans-Serif" font-size="10.00">userver/logging/log.hpp</text>
</a>
</g>
</g>
<!-- Node1&#45;&gt;Node4 -->
<g id="edge3_Node000001_Node000004" class="edge">
<title>Node1&#45;&gt;Node4</title>
<g id="a_edge3_Node000001_Node000004"><a xlink:title=" ">
<path fill="none" stroke="#63b8ff" d="M1306.31,-384.87C1322,-375.41 1347.4,-360.09 1365.91,-348.92"/>
<polygon fill="#63b8ff" stroke="#63b8ff" points="1367.87,-351.83 1374.63,-343.67 1364.26,-345.83 1367.87,-351.83"/>
</a>
</g>
</g>
<!-- Node24 -->
<g id="Node000024" class="node">
<title>Node24</title>
<g id="a_Node000024"><a xlink:href="../../d6/def/log__extra_8hpp.html" target="_top" xlink:title="Extra tskv fields storage.">
<polygon fill="white" stroke="#666666" points="1837,-217 1727,-217 1727,-187 1837,-187 1837,-217"/>
<text text-anchor="start" x="1735" y="-205" font-family="Helvetica,sans-Serif" font-size="10.00">userver/logging/log</text>
<text text-anchor="middle" x="1782" y="-194" font-family="Helvetica,sans-Serif" font-size="10.00">_extra.hpp</text>
</a>
</g>
</g>
<!-- Node1&#45;&gt;Node24 -->
<g id="edge59_Node000001_Node000024" class="edge">
<title>Node1&#45;&gt;Node24</title>
<g id="a_edge59_Node000001_Node000024"><a xlink:title=" ">
<path fill="none" stroke="#63b8ff" d="M1360.52,-385.49C1474.83,-370.8 1697.52,-336.1 1754,-283 1769.43,-268.49 1776.36,-245.01 1779.47,-227.23"/>
<polygon fill="#63b8ff" stroke="#63b8ff" points="1782.94,-227.68 1780.93,-217.28 1776.02,-226.66 1782.94,-227.68"/>
</a>
</g>
</g>
<!-- Node31 -->
<g id="Node000031" class="node">
<title>Node31</title>
<g id="a_Node000031"><a xlink:href="../../df/dd4/source__location_8hpp_source.html" target="_top" xlink:title=" ">
<polygon fill="white" stroke="#666666" points="212.5,-217 95.5,-217 95.5,-187 212.5,-187 212.5,-217"/>
<text text-anchor="start" x="103.5" y="-205" font-family="Helvetica,sans-Serif" font-size="10.00">userver/utils/impl</text>
<text text-anchor="middle" x="154" y="-194" font-family="Helvetica,sans-Serif" font-size="10.00">/source_location.hpp</text>
</a>
</g>
</g>
<!-- Node1&#45;&gt;Node31 -->
<g id="edge67_Node000001_Node000031" class="edge">
<title>Node1&#45;&gt;Node31</title>
<g id="a_edge67_Node000001_Node000031"><a xlink:title=" ">
<path fill="none" stroke="#63b8ff" d="M1223.47,-391.83C1019.98,-385.99 422.59,-362.37 247,-283 217.11,-269.49 189.53,-243.28 172.29,-224.55"/>
<polygon fill="#63b8ff" stroke="#63b8ff" points="174.84,-222.15 165.56,-217.03 169.63,-226.82 174.84,-222.15"/>
</a>
</g>
</g>
<!-- Node35 -->
<g id="Node000035" class="node">
<title>Node35</title>
<g id="a_Node000035"><a xlink:href="../../d4/d54/scope__time_8hpp.html" target="_top" xlink:title="Type to measure execution time of a scope.">
<polygon fill="white" stroke="#666666" points="1745,-283 1623,-283 1623,-253 1745,-253 1745,-283"/>
<text text-anchor="start" x="1631" y="-271" font-family="Helvetica,sans-Serif" font-size="10.00">userver/tracing/scope</text>
<text text-anchor="middle" x="1684" y="-260" font-family="Helvetica,sans-Serif" font-size="10.00">_time.hpp</text>
</a>
</g>
</g>
<!-- Node1&#45;&gt;Node35 -->
<g id="edge60_Node000001_Node000035" class="edge">
<title>Node1&#45;&gt;Node35</title>
<g id="a_edge60_Node000001_Node000035"><a xlink:title=" ">
<path fill="none" stroke="#63b8ff" d="M1328.97,-384.93C1363.79,-376.61 1417.3,-363.19 1463,-349 1524.72,-329.84 1594.66,-303.77 1639.03,-286.67"/>
<polygon fill="#63b8ff" stroke="#63b8ff" points="1640.3,-289.93 1648.36,-283.06 1637.78,-283.4 1640.3,-289.93"/>
</a>
</g>
</g>
<!-- Node37 -->
<g id="Node000037" class="node">
<title>Node37</title>
<g id="a_Node000037"><a xlink:href="../../dc/d90/tracer__fwd_8hpp_source.html" target="_top" xlink:title=" ">
<polygon fill="white" stroke="#666666" points="1059,-283 937,-283 937,-253 1059,-253 1059,-283"/>
<text text-anchor="start" x="945" y="-271" font-family="Helvetica,sans-Serif" font-size="10.00">userver/tracing/tracer</text>
<text text-anchor="middle" x="998" y="-260" font-family="Helvetica,sans-Serif" font-size="10.00">_fwd.hpp</text>
</a>
</g>
</g>
<!-- Node1&#45;&gt;Node37 -->
<g id="edge65_Node000001_Node000037" class="edge">
<title>Node1&#45;&gt;Node37</title>
<g id="a_edge65_Node000001_Node000037"><a xlink:title=" ">
<path fill="none" stroke="#63b8ff" d="M1271.79,-384.94C1224.41,-364.88 1105.29,-314.44 1040.91,-287.17"/>
<polygon fill="#63b8ff" stroke="#63b8ff" points="1042.01,-283.84 1031.44,-283.16 1039.28,-290.28 1042.01,-283.84"/>
</a>
</g>
</g>
<!-- Node38 -->
<g id="Node000038" class="node">
<title>Node38</title>
<g id="a_Node000038"><a xlink:href="../../d7/d2e/core_2include_2userver_2utils_2internal__tag__fwd_8hpp.html" target="_top" xlink:title=" ">
<polygon fill="white" stroke="#666666" points="1919,-349 1801,-349 1801,-319 1919,-319 1919,-349"/>
<text text-anchor="start" x="1809" y="-337" font-family="Helvetica,sans-Serif" font-size="10.00">userver/utils/internal</text>
<text text-anchor="middle" x="1860" y="-326" font-family="Helvetica,sans-Serif" font-size="10.00">_tag_fwd.hpp</text>
</a>
</g>
</g>
<!-- Node1&#45;&gt;Node38 -->
<g id="edge68_Node000001_Node000038" class="edge">
<title>Node1&#45;&gt;Node38</title>
<g id="a_edge68_Node000001_Node000038"><a xlink:title=" ">
<path fill="none" stroke="#63b8ff" d="M1360.71,-389.5C1456.52,-383.42 1635.55,-370.28 1787,-349 1788.26,-348.82 1789.53,-348.64 1790.8,-348.45"/>
<polygon fill="#63b8ff" stroke="#63b8ff" points="1791.39,-351.9 1800.72,-346.88 1790.3,-344.99 1791.39,-351.9"/>
</a>
</g>
</g>
<!-- Node5 -->
<g id="Node000005" class="node">
<title>Node5</title>
<g id="a_Node000005"><a xlink:title=" ">
<polygon fill="#e0e0e0" stroke="#999999" points="1565,-211.5 1515,-211.5 1515,-192.5 1565,-192.5 1565,-211.5"/>
<text text-anchor="middle" x="1540" y="-199.5" font-family="Helvetica,sans-Serif" font-size="10.00">chrono</text>
</a>
</g>
</g>
<!-- Node4&#45;&gt;Node5 -->
<g id="edge4_Node000004_Node000005" class="edge">
<title>Node4&#45;&gt;Node5</title>
<g id="a_edge4_Node000004_Node000005"><a xlink:title=" ">
<path fill="none" stroke="#63b8ff" d="M1423.43,-324.43C1447.63,-316.92 1479.41,-303.87 1501,-283 1518.66,-265.92 1529.43,-239.2 1535.05,-221.4"/>
<polygon fill="#63b8ff" stroke="#63b8ff" points="1538.46,-222.21 1537.91,-211.63 1531.74,-220.25 1538.46,-222.21"/>
</a>
</g>
</g>
<!-- Node6 -->
<g id="Node000006" class="node">
<title>Node6</title>
<g id="a_Node000006"><a xlink:href="../../d2/d84/select_8hpp.html" target="_top" xlink:title="Utilities for selection of platform specific values.">
<polygon fill="white" stroke="#666666" points="1647,-145.5 1495,-145.5 1495,-126.5 1647,-126.5 1647,-145.5"/>
<text text-anchor="middle" x="1571" y="-133.5" font-family="Helvetica,sans-Serif" font-size="10.00">userver/compiler/select.hpp</text>
</a>
</g>
</g>
<!-- Node4&#45;&gt;Node6 -->
<g id="edge5_Node000004_Node000006" class="edge">
<title>Node4&#45;&gt;Node6</title>
<g id="a_edge5_Node000004_Node000006"><a xlink:title=" ">
<path fill="none" stroke="#63b8ff" d="M1431.08,-324.49C1459.92,-317.11 1497.9,-304.19 1526,-283 1554.96,-261.17 1562.78,-251.49 1574,-217 1580.57,-196.81 1578.23,-172.23 1575.27,-155.69"/>
<polygon fill="#63b8ff" stroke="#63b8ff" points="1578.66,-154.77 1573.23,-145.68 1571.8,-156.17 1578.66,-154.77"/>
</a>
</g>
</g>
<!-- Node8 -->
<g id="Node000008" class="node">
<title>Node8</title>
<g id="a_Node000008"><a xlink:href="../../db/dfb/universal_2include_2userver_2logging_2fwd_8hpp.html" target="_top" xlink:title="Forward declarations for logging types.">
<polygon fill="white" stroke="#666666" points="1415,-145.5 1281,-145.5 1281,-126.5 1415,-126.5 1415,-145.5"/>
<text text-anchor="middle" x="1348" y="-133.5" font-family="Helvetica,sans-Serif" font-size="10.00">userver/logging/fwd.hpp</text>
</a>
</g>
</g>
<!-- Node4&#45;&gt;Node8 -->
<g id="edge7_Node000004_Node000008" class="edge">
<title>Node4&#45;&gt;Node8</title>
<g id="a_edge7_Node000004_Node000008"><a xlink:title=" ">
<path fill="none" stroke="#63b8ff" d="M1400.21,-324.46C1429.02,-301.46 1501.09,-236.64 1468,-187 1455.08,-167.62 1433.07,-155.73 1411.4,-148.46"/>
<polygon fill="#63b8ff" stroke="#63b8ff" points="1412.41,-145.11 1401.83,-145.52 1410.36,-151.8 1412.41,-145.11"/>
</a>
</g>
</g>
<!-- Node10 -->
<g id="Node000010" class="node">
<title>Node10</title>
<g id="a_Node000010"><a xlink:href="../../d5/d37/level_8hpp.html" target="_top" xlink:title="Log levels.">
<polygon fill="white" stroke="#666666" points="1459,-211.5 1319,-211.5 1319,-192.5 1459,-192.5 1459,-211.5"/>
<text text-anchor="middle" x="1389" y="-199.5" font-family="Helvetica,sans-Serif" font-size="10.00">userver/logging/level.hpp</text>
</a>
</g>
</g>
<!-- Node4&#45;&gt;Node10 -->
<g id="edge9_Node000004_Node000010" class="edge">
<title>Node4&#45;&gt;Node10</title>
<g id="a_edge9_Node000004_Node000010"><a xlink:title=" ">
<path fill="none" stroke="#63b8ff" d="M1389,-324.47C1389,-303.82 1389,-250.72 1389,-222.04"/>
<polygon fill="#63b8ff" stroke="#63b8ff" points="1392.5,-221.73 1389,-211.73 1385.5,-221.73 1392.5,-221.73"/>
</a>
</g>
</g>
<!-- Node12 -->
<g id="Node000012" class="node">
<title>Node12</title>
<g id="a_Node000012"><a xlink:href="../../d4/dc3/log__filepath_8hpp.html" target="_top" xlink:title="Short source path calculator.">
<polygon fill="white" stroke="#666666" points="282,-151 172,-151 172,-121 282,-121 282,-151"/>
<text text-anchor="start" x="180" y="-139" font-family="Helvetica,sans-Serif" font-size="10.00">userver/logging/log</text>
<text text-anchor="middle" x="227" y="-128" font-family="Helvetica,sans-Serif" font-size="10.00">_filepath.hpp</text>
</a>
</g>
</g>
<!-- Node4&#45;&gt;Node12 -->
<g id="edge12_Node000004_Node000012" class="edge">
<title>Node4&#45;&gt;Node12</title>
<g id="a_edge12_Node000004_Node000012"><a xlink:title=" ">
<path fill="none" stroke="#63b8ff" d="M1323.29,-331.47C1118.04,-325.83 491.79,-301.93 310,-217 282.33,-204.07 258.15,-178.12 243.13,-159.27"/>
<polygon fill="#63b8ff" stroke="#63b8ff" points="245.78,-156.97 236.9,-151.19 240.23,-161.24 245.78,-156.97"/>
</a>
</g>
</g>
<!-- Node13 -->
<g id="Node000013" class="node">
<title>Node13</title>
<g id="a_Node000013"><a xlink:href="../../db/d94/log__helper_8hpp.html" target="_top" xlink:title=" ">
<polygon fill="white" stroke="#666666" points="1196,-283 1086,-283 1086,-253 1196,-253 1196,-283"/>
<text text-anchor="start" x="1094" y="-271" font-family="Helvetica,sans-Serif" font-size="10.00">userver/logging/log</text>
<text text-anchor="middle" x="1141" y="-260" font-family="Helvetica,sans-Serif" font-size="10.00">_helper.hpp</text>
</a>
</g>
</g>
<!-- Node4&#45;&gt;Node13 -->
<g id="edge14_Node000004_Node000013" class="edge">
<title>Node4&#45;&gt;Node13</title>
<g id="a_edge14_Node000004_Node000013"><a xlink:title=" ">
<path fill="none" stroke="#63b8ff" d="M1355.81,-324.44C1317.41,-314.52 1253.28,-297.98 1205.07,-285.53"/>
<polygon fill="#63b8ff" stroke="#63b8ff" points="1205.9,-282.13 1195.35,-283.02 1204.15,-288.91 1205.9,-282.13"/>
</a>
</g>
</g>
<!-- Node7 -->
<g id="Node000007" class="node">
<title>Node7</title>
<g id="a_Node000007"><a xlink:title=" ">
<polygon fill="#e0e0e0" stroke="#999999" points="1647.5,-79.5 1594.5,-79.5 1594.5,-60.5 1647.5,-60.5 1647.5,-79.5"/>
<text text-anchor="middle" x="1621" y="-67.5" font-family="Helvetica,sans-Serif" font-size="10.00">cstddef</text>
</a>
</g>
</g>
<!-- Node6&#45;&gt;Node7 -->
<g id="edge6_Node000006_Node000007" class="edge">
<title>Node6&#45;&gt;Node7</title>
<g id="a_edge6_Node000006_Node000007"><a xlink:title=" ">
<path fill="none" stroke="#63b8ff" d="M1577.74,-126.37C1585.38,-116.59 1598.01,-100.42 1607.66,-88.08"/>
<polygon fill="#63b8ff" stroke="#63b8ff" points="1610.64,-89.94 1614.04,-79.91 1605.13,-85.63 1610.64,-89.94"/>
</a>
</g>
</g>
<!-- Node9 -->
<g id="Node000009" class="node">
<title>Node9</title>
<g id="a_Node000009"><a xlink:title=" ">
<polygon fill="#e0e0e0" stroke="#999999" points="1282,-79.5 1224,-79.5 1224,-60.5 1282,-60.5 1282,-79.5"/>
<text text-anchor="middle" x="1253" y="-67.5" font-family="Helvetica,sans-Serif" font-size="10.00">memory</text>
</a>
</g>
</g>
<!-- Node8&#45;&gt;Node9 -->
<g id="edge8_Node000008_Node000009" class="edge">
<title>Node8&#45;&gt;Node9</title>
<g id="a_edge8_Node000008_Node000009"><a xlink:title=" ">
<path fill="none" stroke="#63b8ff" d="M1335.19,-126.37C1319.61,-115.87 1293.07,-98 1274.38,-85.4"/>
<polygon fill="#63b8ff" stroke="#63b8ff" points="1276.16,-82.38 1265.91,-79.7 1272.25,-88.19 1276.16,-82.38"/>
</a>
</g>
</g>
<!-- Node10&#45;&gt;Node2 -->
<g id="edge10_Node000010_Node000002" class="edge">
<title>Node10&#45;&gt;Node2</title>
<g id="a_edge10_Node000010_Node000002"><a xlink:title=" ">
<path fill="none" stroke="#63b8ff" d="M1318.73,-194.74C1230.51,-186.52 1074.65,-170.77 942,-151 929.94,-149.2 916.86,-146.89 905.05,-144.66"/>
<polygon fill="#63b8ff" stroke="#63b8ff" points="905.53,-141.19 895.05,-142.74 904.21,-148.06 905.53,-141.19"/>
</a>
</g>
</g>
<!-- Node11 -->
<g id="Node000011" class="node">
<title>Node11</title>
<g id="a_Node000011"><a xlink:title=" ">
<polygon fill="#e0e0e0" stroke="#999999" points="1477,-145.5 1433,-145.5 1433,-126.5 1477,-126.5 1477,-145.5"/>
<text text-anchor="middle" x="1455" y="-133.5" font-family="Helvetica,sans-Serif" font-size="10.00">string</text>
</a>
</g>
</g>
<!-- Node10&#45;&gt;Node11 -->
<g id="edge11_Node000010_Node000011" class="edge">
<title>Node10&#45;&gt;Node11</title>
<g id="a_edge11_Node000010_Node000011"><a xlink:title=" ">
<path fill="none" stroke="#63b8ff" d="M1397.9,-192.37C1408.27,-182.31 1425.63,-165.48 1438.49,-153.01"/>
<polygon fill="#63b8ff" stroke="#63b8ff" points="1441.07,-155.38 1445.82,-145.91 1436.2,-150.35 1441.07,-155.38"/>
</a>
</g>
</g>
<!-- Node12&#45;&gt;Node3 -->
<g id="edge13_Node000012_Node000003" class="edge">
<title>Node12&#45;&gt;Node3</title>
<g id="a_edge13_Node000012_Node000003"><a xlink:title=" ">
<path fill="none" stroke="#63b8ff" d="M190.13,-120.95C160.41,-109.63 119.05,-93.88 90.77,-83.1"/>
<polygon fill="#63b8ff" stroke="#63b8ff" points="91.95,-79.81 81.36,-79.52 89.46,-86.35 91.95,-79.81"/>
</a>
</g>
</g>
<!-- Node13&#45;&gt;Node2 -->
<g id="edge20_Node000013_Node000002" class="edge">
<title>Node13&#45;&gt;Node2</title>
<g id="a_edge20_Node000013_Node000002"><a xlink:title=" ">
<path fill="none" stroke="#63b8ff" d="M1085.66,-256.02C1079.71,-254.95 1073.73,-253.92 1068,-253 1006.71,-243.15 831.97,-263.64 791,-217 769.78,-192.84 809.05,-165.98 838.62,-150.33"/>
<polygon fill="#63b8ff" stroke="#63b8ff" points="840.46,-153.32 847.79,-145.67 837.29,-147.08 840.46,-153.32"/>
</a>
</g>
</g>
<!-- Node13&#45;&gt;Node3 -->
<g id="edge21_Node000013_Node000003" class="edge">
<title>Node13&#45;&gt;Node3</title>
<g id="a_edge21_Node000013_Node000003"><a xlink:title=" ">
<path fill="none" stroke="#63b8ff" d="M1085.72,-255.55C1079.76,-254.57 1073.77,-253.69 1068,-253 986.93,-243.29 401.42,-263.06 334,-217 295.4,-190.63 327.32,-150.43 291,-121 263.07,-98.37 165.4,-83.35 106.06,-76.09"/>
<polygon fill="#63b8ff" stroke="#63b8ff" points="106.15,-72.58 95.8,-74.87 105.32,-79.53 106.15,-72.58"/>
</a>
</g>
</g>
<!-- Node13&#45;&gt;Node5 -->
<g id="edge15_Node000013_Node000005" class="edge">
<title>Node13&#45;&gt;Node5</title>
<g id="a_edge15_Node000013_Node000005"><a xlink:title=" ">
<path fill="none" stroke="#63b8ff" d="M1196.07,-259.27C1261.16,-249.98 1372.66,-233.55 1468,-217 1480.03,-214.91 1493.16,-212.42 1504.86,-210.13"/>
<polygon fill="#63b8ff" stroke="#63b8ff" points="1505.59,-213.55 1514.72,-208.17 1504.23,-206.68 1505.59,-213.55"/>
</a>
</g>
</g>
<!-- Node13&#45;&gt;Node8 -->
<g id="edge32_Node000013_Node000008" class="edge">
<title>Node13&#45;&gt;Node8</title>
<g id="a_edge32_Node000013_Node000008"><a xlink:title=" ">
<path fill="none" stroke="#63b8ff" d="M1189.27,-252.94C1213.7,-244.59 1243.16,-232.57 1267,-217 1294.31,-199.17 1320.06,-171.09 1334.92,-153.38"/>
<polygon fill="#63b8ff" stroke="#63b8ff" points="1337.66,-155.56 1341.3,-145.61 1332.25,-151.12 1337.66,-155.56"/>
</a>
</g>
</g>
<!-- Node13&#45;&gt;Node9 -->
<g id="edge19_Node000013_Node000009" class="edge">
<title>Node13&#45;&gt;Node9</title>
<g id="a_edge19_Node000013_Node000009"><a xlink:title=" ">
<path fill="none" stroke="#63b8ff" d="M1169.11,-252.89C1183.55,-244.33 1200.31,-232.12 1211,-217 1238.96,-177.45 1248.42,-119.52 1251.53,-89.93"/>
<polygon fill="#63b8ff" stroke="#63b8ff" points="1255.04,-90.03 1252.46,-79.75 1248.07,-89.39 1255.04,-90.03"/>
</a>
</g>
</g>
<!-- Node13&#45;&gt;Node10 -->
<g id="edge33_Node000013_Node000010" class="edge">
<title>Node13&#45;&gt;Node10</title>
<g id="a_edge33_Node000013_Node000010"><a xlink:title=" ">
<path fill="none" stroke="#63b8ff" d="M1195.42,-252.95C1240.74,-241.26 1304.38,-224.84 1346.14,-214.06"/>
<polygon fill="#63b8ff" stroke="#63b8ff" points="1347.19,-217.41 1356,-211.52 1345.44,-210.63 1347.19,-217.41"/>
</a>
</g>
</g>
<!-- Node14 -->
<g id="Node000014" class="node">
<title>Node14</title>
<g id="a_Node000014"><a xlink:title=" ">
<polygon fill="#e0e0e0" stroke="#999999" points="1087.5,-211.5 1022.5,-211.5 1022.5,-192.5 1087.5,-192.5 1087.5,-211.5"/>
<text text-anchor="middle" x="1055" y="-199.5" font-family="Helvetica,sans-Serif" font-size="10.00">exception</text>
</a>
</g>
</g>
<!-- Node13&#45;&gt;Node14 -->
<g id="edge16_Node000013_Node000014" class="edge">
<title>Node13&#45;&gt;Node14</title>
<g id="a_edge16_Node000013_Node000014"><a xlink:title=" ">
<path fill="none" stroke="#63b8ff" d="M1121.91,-252.8C1107.98,-242.43 1089.14,-228.4 1075,-217.88"/>
<polygon fill="#63b8ff" stroke="#63b8ff" points="1077,-215.01 1066.88,-211.84 1072.82,-220.62 1077,-215.01"/>
</a>
</g>
</g>
<!-- Node15 -->
<g id="Node000015" class="node">
<title>Node15</title>
<g id="a_Node000015"><a xlink:title=" ">
<polygon fill="#e0e0e0" stroke="#999999" points="1065,-145.5 1017,-145.5 1017,-126.5 1065,-126.5 1065,-145.5"/>
<text text-anchor="middle" x="1041" y="-133.5" font-family="Helvetica,sans-Serif" font-size="10.00">iosfwd</text>
</a>
</g>
</g>
<!-- Node13&#45;&gt;Node15 -->
<g id="edge17_Node000013_Node000015" class="edge">
<title>Node13&#45;&gt;Node15</title>
<g id="a_edge17_Node000013_Node000015"><a xlink:title=" ">
<path fill="none" stroke="#63b8ff" d="M1088.33,-252.96C1057.18,-243.48 1022.08,-230.3 1013,-217 999.57,-197.34 1014.3,-170.57 1026.96,-153.54"/>
<polygon fill="#63b8ff" stroke="#63b8ff" points="1029.78,-155.62 1033.23,-145.61 1024.28,-151.28 1029.78,-155.62"/>
</a>
</g>
</g>
<!-- Node16 -->
<g id="Node000016" class="node">
<title>Node16</title>
<g id="a_Node000016"><a xlink:title=" ">
<polygon fill="#e0e0e0" stroke="#999999" points="1199.5,-145.5 1146.5,-145.5 1146.5,-126.5 1199.5,-126.5 1199.5,-145.5"/>
<text text-anchor="middle" x="1173" y="-133.5" font-family="Helvetica,sans-Serif" font-size="10.00">iterator</text>
</a>
</g>
</g>
<!-- Node13&#45;&gt;Node16 -->
<g id="edge18_Node000013_Node000016" class="edge">
<title>Node13&#45;&gt;Node16</title>
<g id="a_edge18_Node000013_Node000016"><a xlink:title=" ">
<path fill="none" stroke="#63b8ff" d="M1163.65,-252.83C1175.37,-244.09 1188.55,-231.75 1195,-217 1204.06,-196.26 1193.71,-170.83 1184.36,-154.29"/>
<polygon fill="#63b8ff" stroke="#63b8ff" points="1187.31,-152.41 1179.13,-145.68 1181.33,-156.05 1187.31,-152.41"/>
</a>
</g>
</g>
<!-- Node17 -->
<g id="Node000017" class="node">
<title>Node17</title>
<g id="a_Node000017"><a xlink:title=" ">
<polygon fill="#e0e0e0" stroke="#999999" points="1186.5,-211.5 1105.5,-211.5 1105.5,-192.5 1186.5,-192.5 1186.5,-211.5"/>
<text text-anchor="middle" x="1146" y="-199.5" font-family="Helvetica,sans-Serif" font-size="10.00">system_error</text>
</a>
</g>
</g>
<!-- Node13&#45;&gt;Node17 -->
<g id="edge22_Node000013_Node000017" class="edge">
<title>Node13&#45;&gt;Node17</title>
<g id="a_edge22_Node000013_Node000017"><a xlink:title=" ">
<path fill="none" stroke="#63b8ff" d="M1142.11,-252.8C1142.82,-243.7 1143.75,-231.79 1144.52,-221.9"/>
<polygon fill="#63b8ff" stroke="#63b8ff" points="1148.02,-222.09 1145.31,-211.84 1141.04,-221.54 1148.02,-222.09"/>
</a>
</g>
</g>
<!-- Node18 -->
<g id="Node000018" class="node">
<title>Node18</title>
<g id="a_Node000018"><a xlink:title=" ">
<polygon fill="#e0e0e0" stroke="#999999" points="723.5,-19 654.5,-19 654.5,0 723.5,0 723.5,-19"/>
<text text-anchor="middle" x="689" y="-7" font-family="Helvetica,sans-Serif" font-size="10.00">type_traits</text>
</a>
</g>
</g>
<!-- Node13&#45;&gt;Node18 -->
<g id="edge23_Node000013_Node000018" class="edge">
<title>Node13&#45;&gt;Node18</title>
<g id="a_edge23_Node000013_Node000018"><a xlink:title=" ">
<path fill="none" stroke="#63b8ff" d="M1085.71,-255.68C1079.75,-254.67 1073.76,-253.75 1068,-253 917.57,-233.37 477.65,-276.89 393,-151 367.73,-113.41 436.24,-55.5 437,-55 470.47,-33.13 581.43,-20.02 644.39,-14.16"/>
<polygon fill="#63b8ff" stroke="#63b8ff" points="644.79,-17.63 654.43,-13.24 644.16,-10.66 644.79,-17.63"/>
</a>
</g>
</g>
<!-- Node19 -->
<g id="Node000019" class="node">
<title>Node19</title>
<g id="a_Node000019"><a xlink:href="../../da/d00/universal_2include_2userver_2formats_2common_2meta_8hpp.html" target="_top" xlink:title="Metaprogramming helpers for converters detection.">
<polygon fill="white" stroke="#666666" points="704,-217 564,-217 564,-187 704,-187 704,-217"/>
<text text-anchor="start" x="572" y="-205" font-family="Helvetica,sans-Serif" font-size="10.00">userver/formats/common</text>
<text text-anchor="middle" x="634" y="-194" font-family="Helvetica,sans-Serif" font-size="10.00">/meta.hpp</text>
</a>
</g>
</g>
<!-- Node13&#45;&gt;Node19 -->
<g id="edge24_Node000013_Node000019" class="edge">
<title>Node13&#45;&gt;Node19</title>
<g id="a_edge24_Node000013_Node000019"><a xlink:title=" ">
<path fill="none" stroke="#63b8ff" d="M1085.67,-255.94C1079.72,-254.88 1073.74,-253.88 1068,-253 1050.8,-250.36 835.06,-225.79 714.4,-212.11"/>
<polygon fill="#63b8ff" stroke="#63b8ff" points="714.78,-208.63 704.45,-210.98 713.99,-215.58 714.78,-208.63"/>
</a>
</g>
</g>
<!-- Node13&#45;&gt;Node24 -->
<g id="edge34_Node000013_Node000024" class="edge">
<title>Node13&#45;&gt;Node24</title>
<g id="a_edge34_Node000013_Node000024"><a xlink:title=" ">
<path fill="none" stroke="#63b8ff" d="M1196.17,-264.59C1297.49,-259.65 1520.09,-246.4 1716.98,-217.02"/>
<polygon fill="#63b8ff" stroke="#63b8ff" points="1717.56,-220.47 1726.93,-215.52 1716.52,-213.55 1717.56,-220.47"/>
</a>
</g>
</g>
<!-- Node13&#45;&gt;Node31 -->
<g id="edge47_Node000013_Node000031" class="edge">
<title>Node13&#45;&gt;Node31</title>
<g id="a_edge47_Node000013_Node000031"><a xlink:title=" ">
<path fill="none" stroke="#63b8ff" d="M1085.73,-255.54C1079.76,-254.56 1073.77,-253.68 1068,-253 726.91,-212.55 638.58,-241.86 296,-217 272.11,-215.27 246.01,-212.85 222.78,-210.5"/>
<polygon fill="#63b8ff" stroke="#63b8ff" points="222.97,-207 212.67,-209.47 222.26,-213.97 222.97,-207"/>
</a>
</g>
</g>
<!-- Node33 -->
<g id="Node000033" class="node">
<title>Node33</title>
<g id="a_Node000033"><a xlink:href="../../d0/d03/universal_2include_2userver_2utils_2meta_8hpp.html" target="_top" xlink:title="Metaprogramming, template variables and concepts.">
<polygon fill="white" stroke="#666666" points="927.5,-211.5 800.5,-211.5 800.5,-192.5 927.5,-192.5 927.5,-211.5"/>
<text text-anchor="middle" x="864" y="-199.5" font-family="Helvetica,sans-Serif" font-size="10.00">userver/utils/meta.hpp</text>
</a>
</g>
</g>
<!-- Node13&#45;&gt;Node33 -->
<g id="edge52_Node000013_Node000033" class="edge">
<title>Node13&#45;&gt;Node33</title>
<g id="a_edge52_Node000013_Node000033"><a xlink:title=" ">
<path fill="none" stroke="#63b8ff" d="M1085.94,-254.28C1034.68,-242.44 959.11,-224.97 910.72,-213.79"/>
<polygon fill="#63b8ff" stroke="#63b8ff" points="911.36,-210.35 900.83,-211.51 909.78,-217.17 911.36,-210.35"/>
</a>
</g>
</g>
<!-- Node19&#45;&gt;Node18 -->
<g id="edge25_Node000019_Node000018" class="edge">
<title>Node19&#45;&gt;Node18</title>
<g id="a_edge25_Node000019_Node000018"><a xlink:title=" ">
<path fill="none" stroke="#63b8ff" d="M563.72,-200.16C482.22,-196.44 363.99,-180.96 405,-121 459.15,-41.83 579.04,-19.37 644.4,-13.01"/>
<polygon fill="#63b8ff" stroke="#63b8ff" points="644.75,-16.49 654.4,-12.12 644.13,-9.52 644.75,-16.49"/>
</a>
</g>
</g>
<!-- Node20 -->
<g id="Node000020" class="node">
<title>Node20</title>
<g id="a_Node000020"><a xlink:href="../../d2/dc8/universal_2include_2userver_2formats_2parse_2to_8hpp.html" target="_top" xlink:title="Helper for parsers.">
<polygon fill="white" stroke="#666666" points="696.5,-151 571.5,-151 571.5,-121 696.5,-121 696.5,-151"/>
<text text-anchor="start" x="579.5" y="-139" font-family="Helvetica,sans-Serif" font-size="10.00">userver/formats/parse</text>
<text text-anchor="middle" x="634" y="-128" font-family="Helvetica,sans-Serif" font-size="10.00">/to.hpp</text>
</a>
</g>
</g>
<!-- Node19&#45;&gt;Node20 -->
<g id="edge26_Node000019_Node000020" class="edge">
<title>Node19&#45;&gt;Node20</title>
<g id="a_edge26_Node000019_Node000020"><a xlink:title=" ">
<path fill="none" stroke="#63b8ff" d="M634,-186.8C634,-179.34 634,-169.99 634,-161.41"/>
<polygon fill="#63b8ff" stroke="#63b8ff" points="637.5,-161.16 634,-151.16 630.5,-161.16 637.5,-161.16"/>
</a>
</g>
</g>
<!-- Node21 -->
<g id="Node000021" class="node">
<title>Node21</title>
<g id="a_Node000021"><a xlink:href="../../d6/d8e/universal_2include_2userver_2formats_2serialize_2to_8hpp.html" target="_top" xlink:title="Helper for serializers.">
<polygon fill="white" stroke="#666666" points="553.5,-151 414.5,-151 414.5,-121 553.5,-121 553.5,-151"/>
<text text-anchor="start" x="422.5" y="-139" font-family="Helvetica,sans-Serif" font-size="10.00">userver/formats/serialize</text>
<text text-anchor="middle" x="484" y="-128" font-family="Helvetica,sans-Serif" font-size="10.00">/to.hpp</text>
</a>
</g>
</g>
<!-- Node19&#45;&gt;Node21 -->
<g id="edge27_Node000019_Node000021" class="edge">
<title>Node19&#45;&gt;Node21</title>
<g id="a_edge27_Node000019_Node000021"><a xlink:title=" ">
<path fill="none" stroke="#63b8ff" d="M601.08,-186.95C579.1,-177.58 549.99,-165.16 526.29,-155.05"/>
<polygon fill="#63b8ff" stroke="#63b8ff" points="527.41,-151.72 516.84,-151.01 524.67,-158.16 527.41,-151.72"/>
</a>
</g>
</g>
<!-- Node22 -->
<g id="Node000022" class="node">
<title>Node22</title>
<g id="a_Node000022"><a xlink:href="../../d3/da0/meta__light_8hpp.html" target="_top" xlink:title="Lightweight concepts.">
<polygon fill="white" stroke="#666666" points="821,-151 715,-151 715,-121 821,-121 821,-151"/>
<text text-anchor="start" x="723" y="-139" font-family="Helvetica,sans-Serif" font-size="10.00">userver/utils/meta</text>
<text text-anchor="middle" x="768" y="-128" font-family="Helvetica,sans-Serif" font-size="10.00">_light.hpp</text>
</a>
</g>
</g>
<!-- Node19&#45;&gt;Node22 -->
<g id="edge28_Node000019_Node000022" class="edge">
<title>Node19&#45;&gt;Node22</title>
<g id="a_edge28_Node000019_Node000022"><a xlink:title=" ">
<path fill="none" stroke="#63b8ff" d="M663.41,-186.95C682.78,-177.7 708.36,-165.49 729.37,-155.45"/>
<polygon fill="#63b8ff" stroke="#63b8ff" points="731.15,-158.48 738.66,-151.01 728.13,-152.16 731.15,-158.48"/>
</a>
</g>
</g>
<!-- Node22&#45;&gt;Node18 -->
<g id="edge29_Node000022_Node000018" class="edge">
<title>Node22&#45;&gt;Node18</title>
<g id="a_edge29_Node000022_Node000018"><a xlink:title=" ">
<path fill="none" stroke="#63b8ff" d="M744.65,-120.8C732.03,-111.98 717.19,-99.56 708,-85 697.34,-68.1 692.65,-45.5 690.59,-29.64"/>
<polygon fill="#63b8ff" stroke="#63b8ff" points="694.05,-29.03 689.51,-19.45 687.09,-29.77 694.05,-29.03"/>
</a>
</g>
</g>
<!-- Node23 -->
<g id="Node000023" class="node">
<title>Node23</title>
<g id="a_Node000023"><a xlink:href="../../d9/dce/void__t_8hpp.html" target="_top" xlink:title="std::void_t implementation with workarounds for compiler bugs">
<polygon fill="white" stroke="#666666" points="818.5,-85 717.5,-85 717.5,-55 818.5,-55 818.5,-85"/>
<text text-anchor="start" x="725.5" y="-73" font-family="Helvetica,sans-Serif" font-size="10.00">userver/utils/void</text>
<text text-anchor="middle" x="768" y="-62" font-family="Helvetica,sans-Serif" font-size="10.00">_t.hpp</text>
</a>
</g>
</g>
<!-- Node22&#45;&gt;Node23 -->
<g id="edge30_Node000022_Node000023" class="edge">
<title>Node22&#45;&gt;Node23</title>
<g id="a_edge30_Node000022_Node000023"><a xlink:title=" ">
<path fill="none" stroke="#63b8ff" d="M768,-120.8C768,-113.34 768,-103.99 768,-95.41"/>
<polygon fill="#63b8ff" stroke="#63b8ff" points="771.5,-95.16 768,-85.16 764.5,-95.16 771.5,-95.16"/>
</a>
</g>
</g>
<!-- Node23&#45;&gt;Node18 -->
<g id="edge31_Node000023_Node000018" class="edge">
<title>Node23&#45;&gt;Node18</title>
<g id="a_edge31_Node000023_Node000018"><a xlink:title=" ">
<path fill="none" stroke="#63b8ff" d="M748.88,-54.84C736.82,-45.91 721.29,-34.41 709.06,-25.35"/>
<polygon fill="#63b8ff" stroke="#63b8ff" points="710.96,-22.4 700.84,-19.27 706.79,-28.03 710.96,-22.4"/>
</a>
</g>
</g>
<!-- Node24&#45;&gt;Node6 -->
<g id="edge40_Node000024_Node000006" class="edge">
<title>Node24&#45;&gt;Node6</title>
<g id="a_edge40_Node000024_Node000006"><a xlink:title=" ">
<path fill="none" stroke="#63b8ff" d="M1735.7,-186.95C1697.71,-175.43 1644.6,-159.32 1609.06,-148.54"/>
<polygon fill="#63b8ff" stroke="#63b8ff" points="1609.67,-145.07 1599.08,-145.52 1607.63,-151.77 1609.67,-145.07"/>
</a>
</g>
</g>
<!-- Node24&#45;&gt;Node8 -->
<g id="edge41_Node000024_Node000008" class="edge">
<title>Node24&#45;&gt;Node8</title>
<g id="a_edge41_Node000024_Node000008"><a xlink:title=" ">
<path fill="none" stroke="#63b8ff" d="M1726.91,-188.61C1723.9,-188.04 1720.92,-187.5 1718,-187 1588.22,-164.91 1554.12,-170.93 1424,-151 1416.8,-149.9 1409.23,-148.63 1401.78,-147.32"/>
<polygon fill="#63b8ff" stroke="#63b8ff" points="1402.19,-143.84 1391.73,-145.52 1400.96,-150.73 1402.19,-143.84"/>
</a>
</g>
</g>
<!-- Node24&#45;&gt;Node11 -->
<g id="edge36_Node000024_Node000011" class="edge">
<title>Node24&#45;&gt;Node11</title>
<g id="a_edge36_Node000024_Node000011"><a xlink:title=" ">
<path fill="none" stroke="#63b8ff" d="M1726.89,-188.72C1723.88,-188.12 1720.91,-187.54 1718,-187 1615.43,-167.84 1586.02,-180.74 1486,-151 1484.37,-150.51 1482.71,-149.96 1481.05,-149.36"/>
<polygon fill="#63b8ff" stroke="#63b8ff" points="1482.32,-146.1 1471.74,-145.55 1479.67,-152.58 1482.32,-146.1"/>
</a>
</g>
</g>
<!-- Node25 -->
<g id="Node000025" class="node">
<title>Node25</title>
<g id="a_Node000025"><a xlink:title=" ">
<polygon fill="#e0e0e0" stroke="#999999" points="2024.5,-145.5 1941.5,-145.5 1941.5,-126.5 2024.5,-126.5 2024.5,-145.5"/>
<text text-anchor="middle" x="1983" y="-133.5" font-family="Helvetica,sans-Serif" font-size="10.00">initializer_list</text>
</a>
</g>
</g>
<!-- Node24&#45;&gt;Node25 -->
<g id="edge35_Node000024_Node000025" class="edge">
<title>Node24&#45;&gt;Node25</title>
<g id="a_edge35_Node000024_Node000025"><a xlink:title=" ">
<path fill="none" stroke="#63b8ff" d="M1826.11,-186.95C1862.14,-175.48 1912.46,-159.46 1946.31,-148.68"/>
<polygon fill="#63b8ff" stroke="#63b8ff" points="1947.78,-151.89 1956.25,-145.52 1945.66,-145.22 1947.78,-151.89"/>
</a>
</g>
</g>
<!-- Node26 -->
<g id="Node000026" class="node">
<title>Node26</title>
<g id="a_Node000026"><a xlink:title=" ">
<polygon fill="#e0e0e0" stroke="#999999" points="2015.5,-79.5 1970.5,-79.5 1970.5,-60.5 2015.5,-60.5 2015.5,-79.5"/>
<text text-anchor="middle" x="1993" y="-67.5" font-family="Helvetica,sans-Serif" font-size="10.00">utility</text>
</a>
</g>
</g>
<!-- Node24&#45;&gt;Node26 -->
<g id="edge37_Node000024_Node000026" class="edge">
<title>Node24&#45;&gt;Node26</title>
<g id="a_edge37_Node000024_Node000026"><a xlink:title=" ">
<path fill="none" stroke="#63b8ff" d="M1837.22,-197.95C1903.48,-192.99 2008.73,-180.58 2033,-151 2049.23,-131.22 2028,-103.76 2010.8,-86.7"/>
<polygon fill="#63b8ff" stroke="#63b8ff" points="2013.01,-83.98 2003.34,-79.66 2008.21,-89.07 2013.01,-83.98"/>
</a>
</g>
</g>
<!-- Node27 -->
<g id="Node000027" class="node">
<title>Node27</title>
<g id="a_Node000027"><a xlink:title=" ">
<polygon fill="#e0e0e0" stroke="#999999" points="2132.5,-145.5 2081.5,-145.5 2081.5,-126.5 2132.5,-126.5 2132.5,-145.5"/>
<text text-anchor="middle" x="2107" y="-133.5" font-family="Helvetica,sans-Serif" font-size="10.00">variant</text>
</a>
</g>
</g>
<!-- Node24&#45;&gt;Node27 -->
<g id="edge38_Node000024_Node000027" class="edge">
<title>Node24&#45;&gt;Node27</title>
<g id="a_edge38_Node000024_Node000027"><a xlink:title=" ">
<path fill="none" stroke="#63b8ff" d="M1837.21,-194.04C1895.04,-186.11 1988.25,-171.54 2067,-151 2069.65,-150.31 2072.37,-149.53 2075.08,-148.69"/>
<polygon fill="#63b8ff" stroke="#63b8ff" points="2076.37,-151.95 2084.77,-145.5 2074.18,-145.3 2076.37,-151.95"/>
</a>
</g>
</g>
<!-- Node28 -->
<g id="Node000028" class="node">
<title>Node28</title>
<g id="a_Node000028"><a xlink:title=" ">
<polygon fill="#e0e0e0" stroke="#999999" points="1806.5,-151 1665.5,-151 1665.5,-121 1806.5,-121 1806.5,-151"/>
<text text-anchor="start" x="1673.5" y="-139" font-family="Helvetica,sans-Serif" font-size="10.00">boost/container/container</text>
<text text-anchor="middle" x="1736" y="-128" font-family="Helvetica,sans-Serif" font-size="10.00">_fwd.hpp</text>
</a>
</g>
</g>
<!-- Node24&#45;&gt;Node28 -->
<g id="edge39_Node000024_Node000028" class="edge">
<title>Node24&#45;&gt;Node28</title>
<g id="a_edge39_Node000024_Node000028"><a xlink:title=" ">
<path fill="none" stroke="#63b8ff" d="M1771.79,-186.8C1766.01,-178.76 1758.66,-168.53 1752.12,-159.43"/>
<polygon fill="#63b8ff" stroke="#63b8ff" points="1754.86,-157.24 1746.18,-151.16 1749.17,-161.33 1754.86,-157.24"/>
</a>
</g>
</g>
<!-- Node29 -->
<g id="Node000029" class="node">
<title>Node29</title>
<g id="a_Node000029"><a xlink:href="../../d5/d02/fast__pimpl_8hpp.html" target="_top" xlink:title="Implements pimpl idiom without dynamic memory allocation.">
<polygon fill="white" stroke="#666666" points="1923.5,-151 1824.5,-151 1824.5,-121 1923.5,-121 1923.5,-151"/>
<text text-anchor="start" x="1832.5" y="-139" font-family="Helvetica,sans-Serif" font-size="10.00">userver/utils/fast</text>
<text text-anchor="middle" x="1874" y="-128" font-family="Helvetica,sans-Serif" font-size="10.00">_pimpl.hpp</text>
</a>
</g>
</g>
<!-- Node24&#45;&gt;Node29 -->
<g id="edge42_Node000024_Node000029" class="edge">
<title>Node24&#45;&gt;Node29</title>
<g id="a_edge42_Node000024_Node000029"><a xlink:title=" ">
<path fill="none" stroke="#63b8ff" d="M1802.42,-186.8C1815.04,-178.01 1831.44,-166.61 1845.35,-156.93"/>
<polygon fill="#63b8ff" stroke="#63b8ff" points="1847.43,-159.75 1853.64,-151.16 1843.43,-154 1847.43,-159.75"/>
</a>
</g>
</g>
<!-- Node29&#45;&gt;Node7 -->
<g id="edge43_Node000029_Node000007" class="edge">
<title>Node29&#45;&gt;Node7</title>
<g id="a_edge43_Node000029_Node000007"><a xlink:title=" ">
<path fill="none" stroke="#63b8ff" d="M1824.32,-122.43C1775.29,-110.03 1701.49,-91.36 1657.59,-80.26"/>
<polygon fill="#63b8ff" stroke="#63b8ff" points="1658.19,-76.8 1647.63,-77.74 1656.47,-83.58 1658.19,-76.8"/>
</a>
</g>
</g>
<!-- Node29&#45;&gt;Node18 -->
<g id="edge45_Node000029_Node000018" class="edge">
<title>Node29&#45;&gt;Node18</title>
<g id="a_edge45_Node000029_Node000018"><a xlink:title=" ">
<path fill="none" stroke="#63b8ff" d="M1844.52,-120.87C1803.39,-101.94 1725.95,-69.1 1656,-55 1476.15,-18.76 899.71,-11.97 733.97,-10.75"/>
<polygon fill="#63b8ff" stroke="#63b8ff" points="733.68,-7.25 723.65,-10.68 733.63,-14.25 733.68,-7.25"/>
</a>
</g>
</g>
<!-- Node29&#45;&gt;Node26 -->
<g id="edge46_Node000029_Node000026" class="edge">
<title>Node29&#45;&gt;Node26</title>
<g id="a_edge46_Node000029_Node000026"><a xlink:title=" ">
<path fill="none" stroke="#63b8ff" d="M1900.12,-120.95C1920.34,-110.08 1948.18,-95.11 1968.09,-84.4"/>
<polygon fill="#63b8ff" stroke="#63b8ff" points="1970.01,-87.34 1977.16,-79.52 1966.7,-81.17 1970.01,-87.34"/>
</a>
</g>
</g>
<!-- Node30 -->
<g id="Node000030" class="node">
<title>Node30</title>
<g id="a_Node000030"><a xlink:title=" ">
<polygon fill="#e0e0e0" stroke="#999999" points="1892.5,-79.5 1855.5,-79.5 1855.5,-60.5 1892.5,-60.5 1892.5,-79.5"/>
<text text-anchor="middle" x="1874" y="-67.5" font-family="Helvetica,sans-Serif" font-size="10.00">new</text>
</a>
</g>
</g>
<!-- Node29&#45;&gt;Node30 -->
<g id="edge44_Node000029_Node000030" class="edge">
<title>Node29&#45;&gt;Node30</title>
<g id="a_edge44_Node000029_Node000030"><a xlink:title=" ">
<path fill="none" stroke="#63b8ff" d="M1874,-120.8C1874,-111.7 1874,-99.79 1874,-89.9"/>
<polygon fill="#63b8ff" stroke="#63b8ff" points="1877.5,-89.84 1874,-79.84 1870.5,-89.84 1877.5,-89.84"/>
</a>
</g>
</g>
<!-- Node31&#45;&gt;Node3 -->
<g id="edge49_Node000031_Node000003" class="edge">
<title>Node31&#45;&gt;Node3</title>
<g id="a_edge49_Node000031_Node000003"><a xlink:title=" ">
<path fill="none" stroke="#63b8ff" d="M103.12,-186.95C85.36,-179.34 67.3,-167.91 57,-151 45.73,-132.51 48.92,-106.88 53.15,-89.66"/>
<polygon fill="#63b8ff" stroke="#63b8ff" points="56.61,-90.29 55.93,-79.72 49.86,-88.4 56.61,-90.29"/>
</a>
</g>
</g>
<!-- Node31&#45;&gt;Node12 -->
<g id="edge51_Node000031_Node000012" class="edge">
<title>Node31&#45;&gt;Node12</title>
<g id="a_edge51_Node000031_Node000012"><a xlink:title=" ">
<path fill="none" stroke="#63b8ff" d="M170.2,-186.8C179.84,-178.34 192.25,-167.46 203.01,-158.03"/>
<polygon fill="#63b8ff" stroke="#63b8ff" points="205.63,-160.39 210.84,-151.16 201.02,-155.12 205.63,-160.39"/>
</a>
</g>
</g>
<!-- Node31&#45;&gt;Node18 -->
<g id="edge50_Node000031_Node000018" class="edge">
<title>Node31&#45;&gt;Node18</title>
<g id="a_edge50_Node000031_Node000018"><a xlink:title=" ">
<path fill="none" stroke="#63b8ff" d="M151.53,-186.96C149.3,-169.6 148.31,-140.03 163,-121 212.77,-56.51 255,-74.88 334,-55 443.35,-27.48 576.13,-16.61 644.12,-12.62"/>
<polygon fill="#63b8ff" stroke="#63b8ff" points="644.68,-16.09 654.47,-12.04 644.28,-9.11 644.68,-16.09"/>
</a>
</g>
</g>
<!-- Node32 -->
<g id="Node000032" class="node">
<title>Node32</title>
<g id="a_Node000032"><a xlink:title=" ">
<polygon fill="#e0e0e0" stroke="#999999" points="116,-145.5 66,-145.5 66,-126.5 116,-126.5 116,-145.5"/>
<text text-anchor="middle" x="91" y="-133.5" font-family="Helvetica,sans-Serif" font-size="10.00">cstdint</text>
</a>
</g>
</g>
<!-- Node31&#45;&gt;Node32 -->
<g id="edge48_Node000031_Node000032" class="edge">
<title>Node31&#45;&gt;Node32</title>
<g id="a_edge48_Node000031_Node000032"><a xlink:title=" ">
<path fill="none" stroke="#63b8ff" d="M140.02,-186.8C130.2,-176.82 117.04,-163.46 106.83,-153.09"/>
<polygon fill="#63b8ff" stroke="#63b8ff" points="109.22,-150.52 99.71,-145.84 104.23,-155.43 109.22,-150.52"/>
</a>
</g>
</g>
<!-- Node33&#45;&gt;Node2 -->
<g id="edge55_Node000033_Node000002" class="edge">
<title>Node33&#45;&gt;Node2</title>
<g id="a_edge55_Node000033_Node000002"><a xlink:title=" ">
<path fill="none" stroke="#63b8ff" d="M864.4,-192.37C864.84,-183.07 865.55,-167.98 866.11,-155.9"/>
<polygon fill="#63b8ff" stroke="#63b8ff" points="869.61,-156.06 866.58,-145.91 862.62,-155.73 869.61,-156.06"/>
</a>
</g>
</g>
<!-- Node33&#45;&gt;Node15 -->
<g id="edge53_Node000033_Node000015" class="edge">
<title>Node33&#45;&gt;Node15</title>
<g id="a_edge53_Node000033_Node000015"><a xlink:title=" ">
<path fill="none" stroke="#63b8ff" d="M889.73,-192.47C918.47,-182.84 966.32,-166.48 1007,-151 1008.38,-150.48 1009.79,-149.93 1011.21,-149.38"/>
<polygon fill="#63b8ff" stroke="#63b8ff" points="1012.6,-152.59 1020.58,-145.62 1009.99,-146.09 1012.6,-152.59"/>
</a>
</g>
</g>
<!-- Node33&#45;&gt;Node16 -->
<g id="edge54_Node000033_Node000016" class="edge">
<title>Node33&#45;&gt;Node16</title>
<g id="a_edge54_Node000033_Node000016"><a xlink:title=" ">
<path fill="none" stroke="#63b8ff" d="M905.35,-192.44C966.17,-179.84 1078.75,-156.52 1136.6,-144.54"/>
<polygon fill="#63b8ff" stroke="#63b8ff" points="1137.33,-147.96 1146.41,-142.51 1135.91,-141.11 1137.33,-147.96"/>
</a>
</g>
</g>
<!-- Node33&#45;&gt;Node18 -->
<g id="edge56_Node000033_Node000018" class="edge">
<title>Node33&#45;&gt;Node18</title>
<g id="a_edge56_Node000033_Node000018"><a xlink:title=" ">
<path fill="none" stroke="#63b8ff" d="M874.17,-192.26C883.96,-183.12 898.11,-167.78 904,-151 908.41,-138.42 909.57,-133.11 904,-121 873.85,-55.45 787.23,-28.11 733.59,-17.22"/>
<polygon fill="#63b8ff" stroke="#63b8ff" points="734.13,-13.76 723.65,-15.31 732.81,-20.63 734.13,-13.76"/>
</a>
</g>
</g>
<!-- Node33&#45;&gt;Node22 -->
<g id="edge58_Node000033_Node000022" class="edge">
<title>Node33&#45;&gt;Node22</title>
<g id="a_edge58_Node000033_Node000022"><a xlink:title=" ">
<path fill="none" stroke="#63b8ff" d="M851.05,-192.37C837.42,-183.28 815.49,-168.66 797.58,-156.72"/>
<polygon fill="#63b8ff" stroke="#63b8ff" points="799.44,-153.75 789.17,-151.12 795.55,-159.57 799.44,-153.75"/>
</a>
</g>
</g>
<!-- Node34 -->
<g id="Node000034" class="node">
<title>Node34</title>
<g id="a_Node000034"><a xlink:title=" ">
<polygon fill="#e0e0e0" stroke="#999999" points="998.5,-145.5 951.5,-145.5 951.5,-126.5 998.5,-126.5 998.5,-145.5"/>
<text text-anchor="middle" x="975" y="-133.5" font-family="Helvetica,sans-Serif" font-size="10.00">vector</text>
</a>
</g>
</g>
<!-- Node33&#45;&gt;Node34 -->
<g id="edge57_Node000033_Node000034" class="edge">
<title>Node33&#45;&gt;Node34</title>
<g id="a_edge57_Node000033_Node000034"><a xlink:title=" ">
<path fill="none" stroke="#63b8ff" d="M878.97,-192.37C897.51,-181.68 929.31,-163.35 951.2,-150.72"/>
<polygon fill="#63b8ff" stroke="#63b8ff" points="953,-153.73 959.91,-145.7 949.5,-147.66 953,-153.73"/>
</a>
</g>
</g>
<!-- Node35&#45;&gt;Node5 -->
<g id="edge62_Node000035_Node000005" class="edge">
<title>Node35&#45;&gt;Node5</title>
<g id="a_edge62_Node000035_Node000005"><a xlink:title=" ">
<path fill="none" stroke="#63b8ff" d="M1652.4,-252.95C1627.37,-241.83 1592.7,-226.42 1568.51,-215.67"/>
<polygon fill="#63b8ff" stroke="#63b8ff" points="1569.72,-212.38 1559.16,-211.52 1566.88,-218.78 1569.72,-212.38"/>
</a>
</g>
</g>
<!-- Node35&#45;&gt;Node11 -->
<g id="edge63_Node000035_Node000011" class="edge">
<title>Node35&#45;&gt;Node11</title>
<g id="a_edge63_Node000035_Node000011"><a xlink:title=" ">
<path fill="none" stroke="#63b8ff" d="M1667.34,-252.9C1646.5,-235.75 1609.27,-206.66 1574,-187 1537.09,-166.42 1524.82,-167.7 1486,-151 1485,-150.57 1483.98,-150.13 1482.95,-149.68"/>
<polygon fill="#63b8ff" stroke="#63b8ff" points="1484.2,-146.4 1473.64,-145.55 1481.36,-152.8 1484.2,-146.4"/>
</a>
</g>
</g>
<!-- Node35&#45;&gt;Node24 -->
<g id="edge64_Node000035_Node000024" class="edge">
<title>Node35&#45;&gt;Node24</title>
<g id="a_edge64_Node000035_Node000024"><a xlink:title=" ">
<path fill="none" stroke="#63b8ff" d="M1705.75,-252.8C1719.33,-243.93 1736.99,-232.39 1751.9,-222.66"/>
<polygon fill="#63b8ff" stroke="#63b8ff" points="1753.85,-225.56 1760.31,-217.16 1750.02,-219.7 1753.85,-225.56"/>
</a>
</g>
</g>
<!-- Node36 -->
<g id="Node000036" class="node">
<title>Node36</title>
<g id="a_Node000036"><a xlink:title=" ">
<polygon fill="#e0e0e0" stroke="#999999" points="1709,-211.5 1659,-211.5 1659,-192.5 1709,-192.5 1709,-211.5"/>
<text text-anchor="middle" x="1684" y="-199.5" font-family="Helvetica,sans-Serif" font-size="10.00">atomic</text>
</a>
</g>
</g>
<!-- Node35&#45;&gt;Node36 -->
<g id="edge61_Node000035_Node000036" class="edge">
<title>Node35&#45;&gt;Node36</title>
<g id="a_edge61_Node000035_Node000036"><a xlink:title=" ">
<path fill="none" stroke="#63b8ff" d="M1684,-252.8C1684,-243.7 1684,-231.79 1684,-221.9"/>
<polygon fill="#63b8ff" stroke="#63b8ff" points="1687.5,-221.84 1684,-211.84 1680.5,-221.84 1687.5,-221.84"/>
</a>
</g>
</g>
<!-- Node37&#45;&gt;Node9 -->
<g id="edge66_Node000037_Node000009" class="edge">
<title>Node37&#45;&gt;Node9</title>
<g id="a_edge66_Node000037_Node000009"><a xlink:title=" ">
<path fill="none" stroke="#63b8ff" d="M997.13,-252.84C996.81,-235.63 998.7,-206.47 1013,-187 1022.24,-174.42 1122.93,-127.76 1137,-121 1165.54,-107.28 1198.78,-93.14 1222.35,-83.41"/>
<polygon fill="#63b8ff" stroke="#63b8ff" points="1223.89,-86.56 1231.81,-79.52 1221.23,-80.08 1223.89,-86.56"/>
</a>
</g>
</g>
</g>
</svg>
