<?xml version="1.0" encoding="UTF-8" standalone="no"?>
<!DOCTYPE svg PUBLIC "-//W3C//DTD SVG 1.1//EN"
 "http://www.w3.org/Graphics/SVG/1.1/DTD/svg11.dtd">
<!-- Generated by graphviz version 2.43.0 (0)
 -->
<!-- Title: userver/utils/atomic.hpp Pages: 1 -->
<svg width="2212pt" height="522pt"
 viewBox="0.00 0.00 2212.00 522.00" xmlns="http://www.w3.org/2000/svg" xmlns:xlink="http://www.w3.org/1999/xlink">
<g id="graph0" class="graph" transform="scale(1 1) rotate(0) translate(4 518)">
<title>userver/utils/atomic.hpp</title>
<!-- Node1 -->
<g id="Node000001" class="node">
<title>Node1</title>
<g id="a_Node000001"><a xlink:title="Helper algorithms to work with atomics.">
<polygon fill="#999999" stroke="#666666" points="378.5,-514 243.5,-514 243.5,-495 378.5,-495 378.5,-514"/>
<text text-anchor="middle" x="311" y="-502" font-family="Helvetica,sans-Serif" font-size="10.00">userver/utils/atomic.hpp</text>
</a>
</g>
</g>
<!-- Node2 -->
<g id="Node000002" class="node">
<title>Node2</title>
<g id="a_Node000002"><a xlink:href="../../d7/ded/queue_8hpp_source.html" target="_top" xlink:title=" ">
<polygon fill="white" stroke="#666666" points="365,-459 257,-459 257,-429 365,-429 365,-459"/>
<text text-anchor="start" x="265" y="-447" font-family="Helvetica,sans-Serif" font-size="10.00">userver/concurrent</text>
<text text-anchor="middle" x="311" y="-436" font-family="Helvetica,sans-Serif" font-size="10.00">/queue.hpp</text>
</a>
</g>
</g>
<!-- Node1&#45;&gt;Node2 -->
<g id="edge1_Node000001_Node000002" class="edge">
<title>Node1&#45;&gt;Node2</title>
<g id="a_edge1_Node000001_Node000002"><a xlink:title=" ">
<path fill="none" stroke="#63b8ff" d="M311,-484.65C311,-476.36 311,-466.78 311,-459.11"/>
<polygon fill="#63b8ff" stroke="#63b8ff" points="307.5,-484.87 311,-494.87 314.5,-484.87 307.5,-484.87"/>
</a>
</g>
</g>
<!-- Node3 -->
<g id="Node000003" class="node">
<title>Node3</title>
<g id="a_Node000003"><a xlink:href="../../d1/d57/core_2include_2userver_2clients_2http_2request_8hpp.html" target="_top" xlink:title="Class for creating and performing new http requests.">
<polygon fill="white" stroke="#666666" points="224.5,-393 113.5,-393 113.5,-363 224.5,-363 224.5,-393"/>
<text text-anchor="start" x="121.5" y="-381" font-family="Helvetica,sans-Serif" font-size="10.00">userver/clients/http</text>
<text text-anchor="middle" x="169" y="-370" font-family="Helvetica,sans-Serif" font-size="10.00">/request.hpp</text>
</a>
</g>
</g>
<!-- Node2&#45;&gt;Node3 -->
<g id="edge2_Node000002_Node000003" class="edge">
<title>Node2&#45;&gt;Node3</title>
<g id="a_edge2_Node000002_Node000003"><a xlink:title=" ">
<path fill="none" stroke="#63b8ff" d="M270.58,-424.78C248.2,-414.69 220.79,-402.34 200.09,-393.01"/>
<polygon fill="#63b8ff" stroke="#63b8ff" points="269.28,-428.04 279.84,-428.95 272.16,-421.65 269.28,-428.04"/>
</a>
</g>
</g>
<!-- Node7 -->
<g id="Node000007" class="node">
<title>Node7</title>
<g id="a_Node000007"><a xlink:href="../../d5/d26/streamed__response_8hpp.html" target="_top" xlink:title="HTTP response for streamed API.">
<polygon fill="white" stroke="#666666" points="379.5,-393 242.5,-393 242.5,-363 379.5,-363 379.5,-393"/>
<text text-anchor="start" x="250.5" y="-381" font-family="Helvetica,sans-Serif" font-size="10.00">userver/clients/http</text>
<text text-anchor="middle" x="311" y="-370" font-family="Helvetica,sans-Serif" font-size="10.00">/streamed_response.hpp</text>
</a>
</g>
</g>
<!-- Node2&#45;&gt;Node7 -->
<g id="edge6_Node000002_Node000007" class="edge">
<title>Node2&#45;&gt;Node7</title>
<g id="a_edge6_Node000002_Node000007"><a xlink:title=" ">
<path fill="none" stroke="#63b8ff" d="M311,-418.54C311,-409.96 311,-400.61 311,-393.16"/>
<polygon fill="#63b8ff" stroke="#63b8ff" points="307.5,-418.8 311,-428.8 314.5,-418.8 307.5,-418.8"/>
</a>
</g>
</g>
<!-- Node8 -->
<g id="Node000008" class="node">
<title>Node8</title>
<g id="a_Node000008"><a xlink:href="../../db/d6b/http__response_8hpp.html" target="_top" xlink:title="HTTP Response data.">
<polygon fill="white" stroke="#666666" points="508,-393 398,-393 398,-363 508,-363 508,-393"/>
<text text-anchor="start" x="406" y="-381" font-family="Helvetica,sans-Serif" font-size="10.00">userver/server/http</text>
<text text-anchor="middle" x="453" y="-370" font-family="Helvetica,sans-Serif" font-size="10.00">/http_response.hpp</text>
</a>
</g>
</g>
<!-- Node2&#45;&gt;Node8 -->
<g id="edge7_Node000002_Node000008" class="edge">
<title>Node2&#45;&gt;Node8</title>
<g id="a_edge7_Node000002_Node000008"><a xlink:title=" ">
<path fill="none" stroke="#63b8ff" d="M351.42,-424.78C373.8,-414.69 401.21,-402.34 421.91,-393.01"/>
<polygon fill="#63b8ff" stroke="#63b8ff" points="349.84,-421.65 342.16,-428.95 352.72,-428.04 349.84,-421.65"/>
</a>
</g>
</g>
<!-- Node4 -->
<g id="Node000004" class="node">
<title>Node4</title>
<g id="a_Node000004"><a xlink:href="../../d3/db8/core_2include_2userver_2clients_2http_2client_8hpp.html" target="_top" xlink:title="HTTP client that returns a HTTP request builder from CreateRequest().">
<polygon fill="white" stroke="#666666" points="235.5,-321.5 124.5,-321.5 124.5,-291.5 235.5,-291.5 235.5,-321.5"/>
<text text-anchor="start" x="132.5" y="-309.5" font-family="Helvetica,sans-Serif" font-size="10.00">userver/clients/http</text>
<text text-anchor="middle" x="180" y="-298.5" font-family="Helvetica,sans-Serif" font-size="10.00">/client.hpp</text>
</a>
</g>
</g>
<!-- Node3&#45;&gt;Node4 -->
<g id="edge3_Node000003_Node000004" class="edge">
<title>Node3&#45;&gt;Node4</title>
<g id="a_edge3_Node000003_Node000004"><a xlink:title=" ">
<path fill="none" stroke="#63b8ff" d="M172.84,-352.75C174.49,-342.31 176.36,-330.49 177.78,-321.54"/>
<polygon fill="#63b8ff" stroke="#63b8ff" points="169.33,-352.51 171.23,-362.94 176.25,-353.61 169.33,-352.51"/>
</a>
</g>
</g>
<!-- Node6 -->
<g id="Node000006" class="node">
<title>Node6</title>
<g id="a_Node000006"><a xlink:href="../../d2/d6c/http__server__mock_8hpp_source.html" target="_top" xlink:title=" ">
<polygon fill="white" stroke="#666666" points="106,-321.5 0,-321.5 0,-291.5 106,-291.5 106,-321.5"/>
<text text-anchor="start" x="8" y="-309.5" font-family="Helvetica,sans-Serif" font-size="10.00">userver/utest/http</text>
<text text-anchor="middle" x="53" y="-298.5" font-family="Helvetica,sans-Serif" font-size="10.00">_server_mock.hpp</text>
</a>
</g>
</g>
<!-- Node3&#45;&gt;Node6 -->
<g id="edge5_Node000003_Node000006" class="edge">
<title>Node3&#45;&gt;Node6</title>
<g id="a_edge5_Node000003_Node000006"><a xlink:title=" ">
<path fill="none" stroke="#63b8ff" d="M136.83,-357.72C117.68,-346.25 93.8,-331.95 76.44,-321.54"/>
<polygon fill="#63b8ff" stroke="#63b8ff" points="135.15,-360.8 145.53,-362.94 138.75,-354.79 135.15,-360.8"/>
</a>
</g>
</g>
<!-- Node5 -->
<g id="Node000005" class="node">
<title>Node5</title>
<g id="a_Node000005"><a xlink:href="../../d7/d98/core_2include_2userver_2clients_2http_2component_8hpp.html" target="_top" xlink:title="Component that manages clients::http::Client.">
<polygon fill="white" stroke="#666666" points="235.5,-250 124.5,-250 124.5,-220 235.5,-220 235.5,-250"/>
<text text-anchor="start" x="132.5" y="-238" font-family="Helvetica,sans-Serif" font-size="10.00">userver/clients/http</text>
<text text-anchor="middle" x="180" y="-227" font-family="Helvetica,sans-Serif" font-size="10.00">/component.hpp</text>
</a>
</g>
</g>
<!-- Node4&#45;&gt;Node5 -->
<g id="edge4_Node000004_Node000005" class="edge">
<title>Node4&#45;&gt;Node5</title>
<g id="a_edge4_Node000004_Node000005"><a xlink:title=" ">
<path fill="none" stroke="#63b8ff" d="M180,-281.25C180,-270.81 180,-258.99 180,-250.04"/>
<polygon fill="#63b8ff" stroke="#63b8ff" points="176.5,-281.44 180,-291.44 183.5,-281.44 176.5,-281.44"/>
</a>
</g>
</g>
<!-- Node9 -->
<g id="Node000009" class="node">
<title>Node9</title>
<g id="a_Node000009"><a xlink:href="../../de/d82/digest_2auth__checker__base_8hpp.html" target="_top" xlink:title="Base class for digest authentication checkers. Implements a digest&#45;authentication logic.">
<polygon fill="white" stroke="#666666" points="513,-184 371,-184 371,-143 513,-143 513,-184"/>
<text text-anchor="start" x="379" y="-172" font-family="Helvetica,sans-Serif" font-size="10.00">userver/server/handlers</text>
<text text-anchor="start" x="379" y="-161" font-family="Helvetica,sans-Serif" font-size="10.00">/auth/digest/auth_checker</text>
<text text-anchor="middle" x="442" y="-150" font-family="Helvetica,sans-Serif" font-size="10.00">_base.hpp</text>
</a>
</g>
</g>
<!-- Node8&#45;&gt;Node9 -->
<g id="edge8_Node000008_Node000009" class="edge">
<title>Node8&#45;&gt;Node9</title>
<g id="a_edge8_Node000008_Node000009"><a xlink:title=" ">
<path fill="none" stroke="#63b8ff" d="M416.61,-357.37C405.68,-349.49 395.01,-339.32 389,-327 365.06,-277.93 402.92,-215.45 426.1,-184.19"/>
<polygon fill="#63b8ff" stroke="#63b8ff" points="414.69,-360.3 424.95,-362.95 418.59,-354.48 414.69,-360.3"/>
</a>
</g>
</g>
<!-- Node10 -->
<g id="Node000010" class="node">
<title>Node10</title>
<g id="a_Node000010"><a xlink:href="../../db/df0/standalone__checker_8hpp.html" target="_top" xlink:title="Class for digest authentication checker. Implements a stand&#45;alone digest&#45;authentication logic.">
<polygon fill="white" stroke="#666666" points="352,-107 220,-107 220,-66 352,-66 352,-107"/>
<text text-anchor="start" x="228" y="-95" font-family="Helvetica,sans-Serif" font-size="10.00">userver/server/handlers</text>
<text text-anchor="start" x="228" y="-84" font-family="Helvetica,sans-Serif" font-size="10.00">/auth/digest/standalone</text>
<text text-anchor="middle" x="286" y="-73" font-family="Helvetica,sans-Serif" font-size="10.00">_checker.hpp</text>
</a>
</g>
</g>
<!-- Node8&#45;&gt;Node10 -->
<g id="edge10_Node000008_Node000010" class="edge">
<title>Node8&#45;&gt;Node10</title>
<g id="a_edge10_Node000008_Node000010"><a xlink:title=" ">
<path fill="none" stroke="#63b8ff" d="M414.57,-357.72C401.56,-349.68 387.85,-339.31 378,-327 322.49,-257.61 297.62,-150.92 289.35,-107.21"/>
<polygon fill="#63b8ff" stroke="#63b8ff" points="413.02,-360.87 423.41,-362.91 416.56,-354.83 413.02,-360.87"/>
</a>
</g>
</g>
<!-- Node11 -->
<g id="Node000011" class="node">
<title>Node11</title>
<g id="a_Node000011"><a xlink:href="../../d4/df6/http__handler__base_8hpp.html" target="_top" xlink:title="Base class for all the Userver HTTP Handlers.">
<polygon fill="white" stroke="#666666" points="1112,-178.5 980,-178.5 980,-148.5 1112,-148.5 1112,-178.5"/>
<text text-anchor="start" x="988" y="-166.5" font-family="Helvetica,sans-Serif" font-size="10.00">userver/server/handlers</text>
<text text-anchor="middle" x="1046" y="-155.5" font-family="Helvetica,sans-Serif" font-size="10.00">/http_handler_base.hpp</text>
</a>
</g>
</g>
<!-- Node8&#45;&gt;Node11 -->
<g id="edge11_Node000008_Node000011" class="edge">
<title>Node8&#45;&gt;Node11</title>
<g id="a_edge11_Node000008_Node000011"><a xlink:title=" ">
<path fill="none" stroke="#63b8ff" d="M517.96,-362.72C557.34,-353.57 608.42,-340.86 653,-327 746.34,-297.99 768.72,-287.46 859,-250 915.55,-226.54 980.26,-196.14 1016.81,-178.63"/>
<polygon fill="#63b8ff" stroke="#63b8ff" points="517.17,-359.31 508.21,-364.96 518.74,-366.13 517.17,-359.31"/>
</a>
</g>
</g>
<!-- Node27 -->
<g id="Node000027" class="node">
<title>Node27</title>
<g id="a_Node000027"><a xlink:href="../../d2/d45/http__request_8hpp.html" target="_top" xlink:title="HTTP Request data.">
<polygon fill="white" stroke="#666666" points="508,-321.5 398,-321.5 398,-291.5 508,-291.5 508,-321.5"/>
<text text-anchor="start" x="406" y="-309.5" font-family="Helvetica,sans-Serif" font-size="10.00">userver/server/http</text>
<text text-anchor="middle" x="453" y="-298.5" font-family="Helvetica,sans-Serif" font-size="10.00">/http_request.hpp</text>
</a>
</g>
</g>
<!-- Node8&#45;&gt;Node27 -->
<g id="edge27_Node000008_Node000027" class="edge">
<title>Node8&#45;&gt;Node27</title>
<g id="a_edge27_Node000008_Node000027"><a xlink:title=" ">
<path fill="none" stroke="#63b8ff" d="M453,-352.75C453,-342.31 453,-330.49 453,-321.54"/>
<polygon fill="#63b8ff" stroke="#63b8ff" points="449.5,-352.94 453,-362.94 456.5,-352.94 449.5,-352.94"/>
</a>
</g>
</g>
<!-- Node31 -->
<g id="Node000031" class="node">
<title>Node31</title>
<g id="a_Node000031"><a xlink:href="../../d8/d76/http__response__body__stream_8hpp_source.html" target="_top" xlink:title=" ">
<polygon fill="white" stroke="#666666" points="644,-327 526,-327 526,-286 644,-286 644,-327"/>
<text text-anchor="start" x="534" y="-315" font-family="Helvetica,sans-Serif" font-size="10.00">userver/server/http</text>
<text text-anchor="start" x="534" y="-304" font-family="Helvetica,sans-Serif" font-size="10.00">/http_response_body</text>
<text text-anchor="middle" x="585" y="-293" font-family="Helvetica,sans-Serif" font-size="10.00">_stream.hpp</text>
</a>
</g>
</g>
<!-- Node8&#45;&gt;Node31 -->
<g id="edge37_Node000008_Node000031" class="edge">
<title>Node8&#45;&gt;Node31</title>
<g id="a_edge37_Node000008_Node000031"><a xlink:title=" ">
<path fill="none" stroke="#63b8ff" d="M488.62,-358.24C506.95,-348.59 529.28,-336.84 547.82,-327.07"/>
<polygon fill="#63b8ff" stroke="#63b8ff" points="486.93,-355.18 479.71,-362.94 490.19,-361.37 486.93,-355.18"/>
</a>
</g>
</g>
<!-- Node9&#45;&gt;Node10 -->
<g id="edge9_Node000009_Node000010" class="edge">
<title>Node9&#45;&gt;Node10</title>
<g id="a_edge9_Node000009_Node000010"><a xlink:title=" ">
<path fill="none" stroke="#63b8ff" d="M392.26,-138.59C371.09,-128.41 346.71,-116.69 326.65,-107.04"/>
<polygon fill="#63b8ff" stroke="#63b8ff" points="390.89,-141.81 401.42,-142.99 393.92,-135.5 390.89,-141.81"/>
</a>
</g>
</g>
<!-- Node12 -->
<g id="Node000012" class="node">
<title>Node12</title>
<g id="a_Node000012"><a xlink:href="../../d6/d0d/dns__client__control_8hpp.html" target="_top" xlink:title="Handlers that controls the DNS client.">
<polygon fill="white" stroke="#666666" points="1572,-101.5 1440,-101.5 1440,-71.5 1572,-71.5 1572,-101.5"/>
<text text-anchor="start" x="1448" y="-89.5" font-family="Helvetica,sans-Serif" font-size="10.00">userver/server/handlers</text>
<text text-anchor="middle" x="1506" y="-78.5" font-family="Helvetica,sans-Serif" font-size="10.00">/dns_client_control.hpp</text>
</a>
</g>
</g>
<!-- Node11&#45;&gt;Node12 -->
<g id="edge12_Node000011_Node000012" class="edge">
<title>Node11&#45;&gt;Node12</title>
<g id="a_edge12_Node000011_Node000012"><a xlink:title=" ">
<path fill="none" stroke="#63b8ff" d="M1122.34,-154.03C1200.33,-144.79 1324.72,-128.41 1431,-107 1438.78,-105.43 1446.96,-103.55 1454.94,-101.59"/>
<polygon fill="#63b8ff" stroke="#63b8ff" points="1121.64,-150.59 1112.12,-155.24 1122.46,-157.54 1121.64,-150.59"/>
</a>
</g>
</g>
<!-- Node13 -->
<g id="Node000013" class="node">
<title>Node13</title>
<g id="a_Node000013"><a xlink:href="../../d6/dc0/dynamic__debug__log_8hpp.html" target="_top" xlink:title="HTTP Handler to show/hide logs at the specific file:line.">
<polygon fill="white" stroke="#666666" points="1728,-101.5 1590,-101.5 1590,-71.5 1728,-71.5 1728,-101.5"/>
<text text-anchor="start" x="1598" y="-89.5" font-family="Helvetica,sans-Serif" font-size="10.00">userver/server/handlers</text>
<text text-anchor="middle" x="1659" y="-78.5" font-family="Helvetica,sans-Serif" font-size="10.00">/dynamic_debug_log.hpp</text>
</a>
</g>
</g>
<!-- Node11&#45;&gt;Node13 -->
<g id="edge13_Node000011_Node000013" class="edge">
<title>Node11&#45;&gt;Node13</title>
<g id="a_edge13_Node000011_Node000013"><a xlink:title=" ">
<path fill="none" stroke="#63b8ff" d="M1122.42,-157.99C1226.67,-151.06 1419.01,-135.5 1581,-107 1589.52,-105.5 1598.49,-103.58 1607.19,-101.54"/>
<polygon fill="#63b8ff" stroke="#63b8ff" points="1122.06,-154.5 1112.31,-158.65 1122.52,-161.49 1122.06,-154.5"/>
</a>
</g>
</g>
<!-- Node14 -->
<g id="Node000014" class="node">
<title>Node14</title>
<g id="a_Node000014"><a xlink:href="../../d5/d4d/http__handler__flatbuf__base_8hpp.html" target="_top" xlink:title="Convenient base for handlers that accept requests with body in Flatbuffer format and respond with bod...">
<polygon fill="white" stroke="#666666" points="1878,-107 1746,-107 1746,-66 1878,-66 1878,-107"/>
<text text-anchor="start" x="1754" y="-95" font-family="Helvetica,sans-Serif" font-size="10.00">userver/server/handlers</text>
<text text-anchor="start" x="1754" y="-84" font-family="Helvetica,sans-Serif" font-size="10.00">/http_handler_flatbuf</text>
<text text-anchor="middle" x="1812" y="-73" font-family="Helvetica,sans-Serif" font-size="10.00">_base.hpp</text>
</a>
</g>
</g>
<!-- Node11&#45;&gt;Node14 -->
<g id="edge14_Node000011_Node000014" class="edge">
<title>Node11&#45;&gt;Node14</title>
<g id="a_edge14_Node000011_Node000014"><a xlink:title=" ">
<path fill="none" stroke="#63b8ff" d="M1122.3,-160.71C1250.23,-156.74 1515.74,-144.36 1737,-107 1739.92,-106.51 1742.89,-105.96 1745.88,-105.36"/>
<polygon fill="#63b8ff" stroke="#63b8ff" points="1122.1,-157.21 1112.21,-161.01 1122.31,-164.21 1122.1,-157.21"/>
</a>
</g>
</g>
<!-- Node15 -->
<g id="Node000015" class="node">
<title>Node15</title>
<g id="a_Node000015"><a xlink:href="../../d1/d58/http__handler__json__base_8hpp.html" target="_top" xlink:title="Convenient base for handlers that accept requests with body in JSON format and respond with body in J...">
<polygon fill="white" stroke="#666666" points="2052,-101.5 1896,-101.5 1896,-71.5 2052,-71.5 2052,-101.5"/>
<text text-anchor="start" x="1904" y="-89.5" font-family="Helvetica,sans-Serif" font-size="10.00">userver/server/handlers</text>
<text text-anchor="middle" x="1974" y="-78.5" font-family="Helvetica,sans-Serif" font-size="10.00">/http_handler_json_base.hpp</text>
</a>
</g>
</g>
<!-- Node11&#45;&gt;Node15 -->
<g id="edge15_Node000011_Node000015" class="edge">
<title>Node11&#45;&gt;Node15</title>
<g id="a_edge15_Node000011_Node000015"><a xlink:title=" ">
<path fill="none" stroke="#63b8ff" d="M1122.4,-161.4C1270.6,-158.41 1607.14,-147.35 1887,-107 1896.81,-105.59 1907.15,-103.66 1917.14,-101.57"/>
<polygon fill="#63b8ff" stroke="#63b8ff" points="1121.99,-157.91 1112.06,-161.61 1122.12,-164.91 1121.99,-157.91"/>
</a>
</g>
</g>
<!-- Node18 -->
<g id="Node000018" class="node">
<title>Node18</title>
<g id="a_Node000018"><a xlink:href="../../dd/db6/http__handler__static_8hpp.html" target="_top" xlink:title="Handler that returns HTTP 200 if file exist and returns file data with mapped content/type.">
<polygon fill="white" stroke="#666666" points="2204,-101.5 2070,-101.5 2070,-71.5 2204,-71.5 2204,-101.5"/>
<text text-anchor="start" x="2078" y="-89.5" font-family="Helvetica,sans-Serif" font-size="10.00">userver/server/handlers</text>
<text text-anchor="middle" x="2137" y="-78.5" font-family="Helvetica,sans-Serif" font-size="10.00">/http_handler_static.hpp</text>
</a>
</g>
</g>
<!-- Node11&#45;&gt;Node18 -->
<g id="edge18_Node000011_Node000018" class="edge">
<title>Node11&#45;&gt;Node18</title>
<g id="a_edge18_Node000011_Node000018"><a xlink:title=" ">
<path fill="none" stroke="#63b8ff" d="M1122.01,-160.28C1325.61,-154.03 1880.04,-134.88 2061,-107 2069.89,-105.63 2079.24,-103.67 2088.23,-101.52"/>
<polygon fill="#63b8ff" stroke="#63b8ff" points="1121.89,-156.78 1112,-160.59 1122.11,-163.78 1121.89,-156.78"/>
</a>
</g>
</g>
<!-- Node19 -->
<g id="Node000019" class="node">
<title>Node19</title>
<g id="a_Node000019"><a xlink:href="../../d5/d86/jemalloc_8hpp.html" target="_top" xlink:title="Handler that controls the jemalloc allocator.">
<polygon fill="white" stroke="#666666" points="662,-101.5 530,-101.5 530,-71.5 662,-71.5 662,-101.5"/>
<text text-anchor="start" x="538" y="-89.5" font-family="Helvetica,sans-Serif" font-size="10.00">userver/server/handlers</text>
<text text-anchor="middle" x="596" y="-78.5" font-family="Helvetica,sans-Serif" font-size="10.00">/jemalloc.hpp</text>
</a>
</g>
</g>
<!-- Node11&#45;&gt;Node19 -->
<g id="edge19_Node000011_Node000019" class="edge">
<title>Node11&#45;&gt;Node19</title>
<g id="a_edge19_Node000011_Node000019"><a xlink:title=" ">
<path fill="none" stroke="#63b8ff" d="M969.95,-153.68C893.89,-144.29 773.77,-127.9 671,-107 663.22,-105.42 655.04,-103.53 647.07,-101.56"/>
<polygon fill="#63b8ff" stroke="#63b8ff" points="969.57,-157.16 979.92,-154.9 970.42,-150.21 969.57,-157.16"/>
</a>
</g>
</g>
<!-- Node20 -->
<g id="Node000020" class="node">
<title>Node20</title>
<g id="a_Node000020"><a xlink:href="../../d0/d01/log__level_8hpp.html" target="_top" xlink:title="Handler that controls logging levels of all the loggers.">
<polygon fill="white" stroke="#666666" points="812,-101.5 680,-101.5 680,-71.5 812,-71.5 812,-101.5"/>
<text text-anchor="start" x="688" y="-89.5" font-family="Helvetica,sans-Serif" font-size="10.00">userver/server/handlers</text>
<text text-anchor="middle" x="746" y="-78.5" font-family="Helvetica,sans-Serif" font-size="10.00">/log_level.hpp</text>
</a>
</g>
</g>
<!-- Node11&#45;&gt;Node20 -->
<g id="edge20_Node000011_Node000020" class="edge">
<title>Node11&#45;&gt;Node20</title>
<g id="a_edge20_Node000011_Node000020"><a xlink:title=" ">
<path fill="none" stroke="#63b8ff" d="M978.27,-146.03C933.58,-135.1 873.76,-120.36 821,-107 814.09,-105.25 806.82,-103.39 799.65,-101.54"/>
<polygon fill="#63b8ff" stroke="#63b8ff" points="977.6,-149.47 988.15,-148.44 979.26,-142.67 977.6,-149.47"/>
</a>
</g>
</g>
<!-- Node21 -->
<g id="Node000021" class="node">
<title>Node21</title>
<g id="a_Node000021"><a xlink:href="../../d7/d72/on__log__rotate_8hpp.html" target="_top" xlink:title="Handler that controls logging levels of all the loggers.">
<polygon fill="white" stroke="#666666" points="962,-101.5 830,-101.5 830,-71.5 962,-71.5 962,-101.5"/>
<text text-anchor="start" x="838" y="-89.5" font-family="Helvetica,sans-Serif" font-size="10.00">userver/server/handlers</text>
<text text-anchor="middle" x="896" y="-78.5" font-family="Helvetica,sans-Serif" font-size="10.00">/on_log_rotate.hpp</text>
</a>
</g>
</g>
<!-- Node11&#45;&gt;Node21 -->
<g id="edge21_Node000011_Node000021" class="edge">
<title>Node11&#45;&gt;Node21</title>
<g id="a_edge21_Node000011_Node000021"><a xlink:title=" ">
<path fill="none" stroke="#63b8ff" d="M1008.54,-143.77C982.35,-130.68 947.93,-113.47 924.09,-101.54"/>
<polygon fill="#63b8ff" stroke="#63b8ff" points="1007.28,-147.05 1017.79,-148.39 1010.41,-140.79 1007.28,-147.05"/>
</a>
</g>
</g>
<!-- Node22 -->
<g id="Node000022" class="node">
<title>Node22</title>
<g id="a_Node000022"><a xlink:href="../../d8/d39/ping_8hpp.html" target="_top" xlink:title="Handler that returns HTTP 200 if the service is OK and able to process requests.">
<polygon fill="white" stroke="#666666" points="1112,-101.5 980,-101.5 980,-71.5 1112,-71.5 1112,-101.5"/>
<text text-anchor="start" x="988" y="-89.5" font-family="Helvetica,sans-Serif" font-size="10.00">userver/server/handlers</text>
<text text-anchor="middle" x="1046" y="-78.5" font-family="Helvetica,sans-Serif" font-size="10.00">/ping.hpp</text>
</a>
</g>
</g>
<!-- Node11&#45;&gt;Node22 -->
<g id="edge22_Node000011_Node000022" class="edge">
<title>Node11&#45;&gt;Node22</title>
<g id="a_edge22_Node000011_Node000022"><a xlink:title=" ">
<path fill="none" stroke="#63b8ff" d="M1046,-138.04C1046,-125.95 1046,-111.79 1046,-101.54"/>
<polygon fill="#63b8ff" stroke="#63b8ff" points="1042.5,-138.39 1046,-148.39 1049.5,-138.39 1042.5,-138.39"/>
</a>
</g>
</g>
<!-- Node23 -->
<g id="Node000023" class="node">
<title>Node23</title>
<g id="a_Node000023"><a xlink:href="../../de/d18/server__monitor_8hpp.html" target="_top" xlink:title="Handler that returns statistics data.">
<polygon fill="white" stroke="#666666" points="1262,-101.5 1130,-101.5 1130,-71.5 1262,-71.5 1262,-101.5"/>
<text text-anchor="start" x="1138" y="-89.5" font-family="Helvetica,sans-Serif" font-size="10.00">userver/server/handlers</text>
<text text-anchor="middle" x="1196" y="-78.5" font-family="Helvetica,sans-Serif" font-size="10.00">/server_monitor.hpp</text>
</a>
</g>
</g>
<!-- Node11&#45;&gt;Node23 -->
<g id="edge23_Node000011_Node000023" class="edge">
<title>Node11&#45;&gt;Node23</title>
<g id="a_edge23_Node000011_Node000023"><a xlink:title=" ">
<path fill="none" stroke="#63b8ff" d="M1083.46,-143.77C1109.65,-130.68 1144.07,-113.47 1167.91,-101.54"/>
<polygon fill="#63b8ff" stroke="#63b8ff" points="1081.59,-140.79 1074.21,-148.39 1084.72,-147.05 1081.59,-140.79"/>
</a>
</g>
</g>
<!-- Node24 -->
<g id="Node000024" class="node">
<title>Node24</title>
<g id="a_Node000024"><a xlink:href="../../d8/d82/core_2include_2userver_2server_2server_8hpp_source.html" target="_top" xlink:title=" ">
<polygon fill="white" stroke="#666666" points="1421.5,-96 1280.5,-96 1280.5,-77 1421.5,-77 1421.5,-96"/>
<text text-anchor="middle" x="1351" y="-84" font-family="Helvetica,sans-Serif" font-size="10.00">userver/server/server.hpp</text>
</a>
</g>
</g>
<!-- Node11&#45;&gt;Node24 -->
<g id="edge24_Node000011_Node000024" class="edge">
<title>Node11&#45;&gt;Node24</title>
<g id="a_edge24_Node000011_Node000024"><a xlink:title=" ">
<path fill="none" stroke="#63b8ff" d="M1112.81,-146.07C1175.48,-130.66 1266.73,-108.22 1316.12,-96.08"/>
<polygon fill="#63b8ff" stroke="#63b8ff" points="1111.89,-142.69 1103.01,-148.48 1113.56,-149.49 1111.89,-142.69"/>
</a>
</g>
</g>
<!-- Node26 -->
<g id="Node000026" class="node">
<title>Node26</title>
<g id="a_Node000026"><a xlink:href="../../d4/d64/websocket__handler_8hpp.html" target="_top" xlink:title=" ">
<polygon fill="white" stroke="#666666" points="512,-101.5 370,-101.5 370,-71.5 512,-71.5 512,-101.5"/>
<text text-anchor="start" x="378" y="-89.5" font-family="Helvetica,sans-Serif" font-size="10.00">userver/server/websocket</text>
<text text-anchor="middle" x="441" y="-78.5" font-family="Helvetica,sans-Serif" font-size="10.00">/websocket_handler.hpp</text>
</a>
</g>
</g>
<!-- Node11&#45;&gt;Node26 -->
<g id="edge26_Node000011_Node000026" class="edge">
<title>Node11&#45;&gt;Node26</title>
<g id="a_edge26_Node000011_Node000026"><a xlink:title=" ">
<path fill="none" stroke="#63b8ff" d="M969.56,-155.69C845.37,-144.41 605.21,-121.65 521,-107 512.27,-105.48 503.07,-103.55 494.15,-101.51"/>
<polygon fill="#63b8ff" stroke="#63b8ff" points="969.48,-159.2 979.75,-156.61 970.11,-152.22 969.48,-159.2"/>
</a>
</g>
</g>
<!-- Node16 -->
<g id="Node000016" class="node">
<title>Node16</title>
<g id="a_Node000016"><a xlink:href="../../d7/d79/inspect__requests_8hpp.html" target="_top" xlink:title="Handler that returns information about all in&#45;flight requests.">
<polygon fill="white" stroke="#666666" points="2115,-30 1983,-30 1983,0 2115,0 2115,-30"/>
<text text-anchor="start" x="1991" y="-18" font-family="Helvetica,sans-Serif" font-size="10.00">userver/server/handlers</text>
<text text-anchor="middle" x="2049" y="-7" font-family="Helvetica,sans-Serif" font-size="10.00">/inspect_requests.hpp</text>
</a>
</g>
</g>
<!-- Node15&#45;&gt;Node16 -->
<g id="edge16_Node000015_Node000016" class="edge">
<title>Node15&#45;&gt;Node16</title>
<g id="a_edge16_Node000015_Node000016"><a xlink:title=" ">
<path fill="none" stroke="#63b8ff" d="M1996.67,-64.49C2008.71,-53.34 2023.18,-39.93 2033.85,-30.04"/>
<polygon fill="#63b8ff" stroke="#63b8ff" points="1994.13,-62.07 1989.18,-71.44 1998.89,-67.21 1994.13,-62.07"/>
</a>
</g>
</g>
<!-- Node17 -->
<g id="Node000017" class="node">
<title>Node17</title>
<g id="a_Node000017"><a xlink:href="../../d6/d43/tests__control_8hpp.html" target="_top" xlink:title="Handler that allows to control the behavior of server from tests, and functional tests with testsuite...">
<polygon fill="white" stroke="#666666" points="1965,-30 1833,-30 1833,0 1965,0 1965,-30"/>
<text text-anchor="start" x="1841" y="-18" font-family="Helvetica,sans-Serif" font-size="10.00">userver/server/handlers</text>
<text text-anchor="middle" x="1899" y="-7" font-family="Helvetica,sans-Serif" font-size="10.00">/tests_control.hpp</text>
</a>
</g>
</g>
<!-- Node15&#45;&gt;Node17 -->
<g id="edge17_Node000015_Node000017" class="edge">
<title>Node15&#45;&gt;Node17</title>
<g id="a_edge17_Node000015_Node000017"><a xlink:title=" ">
<path fill="none" stroke="#63b8ff" d="M1951.33,-64.49C1939.29,-53.34 1924.82,-39.93 1914.15,-30.04"/>
<polygon fill="#63b8ff" stroke="#63b8ff" points="1949.11,-67.21 1958.82,-71.44 1953.87,-62.07 1949.11,-67.21"/>
</a>
</g>
</g>
<!-- Node25 -->
<g id="Node000025" class="node">
<title>Node25</title>
<g id="a_Node000025"><a xlink:href="../../d3/ddd/core_2include_2userver_2server_2component_8hpp.html" target="_top" xlink:title="Component that listens for incoming requests, manages incoming connections and passes the requests to...">
<polygon fill="white" stroke="#666666" points="1434,-24.5 1268,-24.5 1268,-5.5 1434,-5.5 1434,-24.5"/>
<text text-anchor="middle" x="1351" y="-12.5" font-family="Helvetica,sans-Serif" font-size="10.00">userver/server/component.hpp</text>
</a>
</g>
</g>
<!-- Node24&#45;&gt;Node25 -->
<g id="edge25_Node000024_Node000025" class="edge">
<title>Node24&#45;&gt;Node25</title>
<g id="a_edge25_Node000024_Node000025"><a xlink:title=" ">
<path fill="none" stroke="#63b8ff" d="M1351,-66.71C1351,-53 1351,-35.05 1351,-24.59"/>
<polygon fill="#63b8ff" stroke="#63b8ff" points="1347.5,-66.98 1351,-76.98 1354.5,-66.98 1347.5,-66.98"/>
</a>
</g>
</g>
<!-- Node27&#45;&gt;Node9 -->
<g id="edge32_Node000027_Node000009" class="edge">
<title>Node27&#45;&gt;Node9</title>
<g id="a_edge32_Node000027_Node000009"><a xlink:title=" ">
<path fill="none" stroke="#63b8ff" d="M451.1,-281.17C448.96,-253.76 445.53,-209.72 443.55,-184.31"/>
<polygon fill="#63b8ff" stroke="#63b8ff" points="447.64,-281.77 451.91,-291.46 454.62,-281.22 447.64,-281.77"/>
</a>
</g>
</g>
<!-- Node27&#45;&gt;Node10 -->
<g id="edge33_Node000027_Node000010" class="edge">
<title>Node27&#45;&gt;Node10</title>
<g id="a_edge33_Node000027_Node000010"><a xlink:title=" ">
<path fill="none" stroke="#63b8ff" d="M435.83,-283.09C403.03,-240.28 331.97,-147.51 300.97,-107.04"/>
<polygon fill="#63b8ff" stroke="#63b8ff" points="433.18,-285.39 442.04,-291.2 438.74,-281.13 433.18,-285.39"/>
</a>
</g>
</g>
<!-- Node27&#45;&gt;Node11 -->
<g id="edge34_Node000027_Node000011" class="edge">
<title>Node27&#45;&gt;Node11</title>
<g id="a_edge34_Node000027_Node000011"><a xlink:title=" ">
<path fill="none" stroke="#63b8ff" d="M505.24,-288.81C509.2,-287.78 513.15,-286.83 517,-286 639.66,-259.62 674.82,-278.52 797,-250 875.78,-231.61 964.66,-197.78 1012.01,-178.65"/>
<polygon fill="#63b8ff" stroke="#63b8ff" points="504.15,-285.47 495.43,-291.49 506,-292.23 504.15,-285.47"/>
</a>
</g>
</g>
<!-- Node28 -->
<g id="Node000028" class="node">
<title>Node28</title>
<g id="a_Node000028"><a xlink:href="../../da/dff/auth__checker__base_8hpp_source.html" target="_top" xlink:title=" ">
<polygon fill="white" stroke="#666666" points="788,-250 630,-250 630,-220 788,-220 788,-250"/>
<text text-anchor="start" x="638" y="-238" font-family="Helvetica,sans-Serif" font-size="10.00">userver/server/handlers</text>
<text text-anchor="middle" x="709" y="-227" font-family="Helvetica,sans-Serif" font-size="10.00">/auth/auth_checker_base.hpp</text>
</a>
</g>
</g>
<!-- Node27&#45;&gt;Node28 -->
<g id="edge28_Node000027_Node000028" class="edge">
<title>Node27&#45;&gt;Node28</title>
<g id="a_edge28_Node000027_Node000028"><a xlink:title=" ">
<path fill="none" stroke="#63b8ff" d="M508.06,-288.57C511.08,-287.69 514.08,-286.83 517,-286 562.41,-273.17 614.21,-259.76 652.55,-250.05"/>
<polygon fill="#63b8ff" stroke="#63b8ff" points="506.98,-285.23 498.38,-291.42 508.97,-291.95 506.98,-285.23"/>
</a>
</g>
</g>
<!-- Node30 -->
<g id="Node000030" class="node">
<title>Node30</title>
<g id="a_Node000030"><a xlink:href="../../de/d4e/core_2include_2userver_2server_2websocket_2server_8hpp.html" target="_top" xlink:title=" ">
<polygon fill="white" stroke="#666666" points="612,-250 470,-250 470,-220 612,-220 612,-250"/>
<text text-anchor="start" x="478" y="-238" font-family="Helvetica,sans-Serif" font-size="10.00">userver/server/websocket</text>
<text text-anchor="middle" x="541" y="-227" font-family="Helvetica,sans-Serif" font-size="10.00">/server.hpp</text>
</a>
</g>
</g>
<!-- Node27&#45;&gt;Node30 -->
<g id="edge35_Node000027_Node000030" class="edge">
<title>Node27&#45;&gt;Node30</title>
<g id="a_edge35_Node000027_Node000030"><a xlink:title=" ">
<path fill="none" stroke="#63b8ff" d="M478.8,-285.13C493.08,-273.85 510.46,-260.12 523.22,-250.04"/>
<polygon fill="#63b8ff" stroke="#63b8ff" points="476.49,-282.49 470.81,-291.44 480.83,-287.98 476.49,-282.49"/>
</a>
</g>
</g>
<!-- Node28&#45;&gt;Node9 -->
<g id="edge30_Node000028_Node000009" class="edge">
<title>Node28&#45;&gt;Node9</title>
<g id="a_edge30_Node000028_Node000009"><a xlink:title=" ">
<path fill="none" stroke="#63b8ff" d="M645.12,-217.37C605.39,-207.03 554.22,-193.71 513.18,-183.03"/>
<polygon fill="#63b8ff" stroke="#63b8ff" points="644.41,-220.8 654.97,-219.94 646.17,-214.03 644.41,-220.8"/>
</a>
</g>
</g>
<!-- Node28&#45;&gt;Node11 -->
<g id="edge31_Node000028_Node000011" class="edge">
<title>Node28&#45;&gt;Node11</title>
<g id="a_edge31_Node000028_Node000011"><a xlink:title=" ">
<path fill="none" stroke="#63b8ff" d="M787.12,-217.89C845.56,-205.84 924.6,-189.54 979.91,-178.13"/>
<polygon fill="#63b8ff" stroke="#63b8ff" points="786.28,-214.49 777.2,-219.94 787.7,-221.34 786.28,-214.49"/>
</a>
</g>
</g>
<!-- Node29 -->
<g id="Node000029" class="node">
<title>Node29</title>
<g id="a_Node000029"><a xlink:href="../../db/ddd/auth__checker__factory_8hpp.html" target="_top" xlink:title="Authorization factory registration and base classes.">
<polygon fill="white" stroke="#666666" points="793,-178.5 625,-178.5 625,-148.5 793,-148.5 793,-178.5"/>
<text text-anchor="start" x="633" y="-166.5" font-family="Helvetica,sans-Serif" font-size="10.00">userver/server/handlers</text>
<text text-anchor="middle" x="709" y="-155.5" font-family="Helvetica,sans-Serif" font-size="10.00">/auth/auth_checker_factory.hpp</text>
</a>
</g>
</g>
<!-- Node28&#45;&gt;Node29 -->
<g id="edge29_Node000028_Node000029" class="edge">
<title>Node28&#45;&gt;Node29</title>
<g id="a_edge29_Node000028_Node000029"><a xlink:title=" ">
<path fill="none" stroke="#63b8ff" d="M709,-209.75C709,-199.31 709,-187.49 709,-178.54"/>
<polygon fill="#63b8ff" stroke="#63b8ff" points="705.5,-209.94 709,-219.94 712.5,-209.94 705.5,-209.94"/>
</a>
</g>
</g>
<!-- Node30&#45;&gt;Node26 -->
<g id="edge36_Node000030_Node000026" class="edge">
<title>Node30&#45;&gt;Node26</title>
<g id="a_edge36_Node000030_Node000026"><a xlink:title=" ">
<path fill="none" stroke="#63b8ff" d="M540.78,-209.62C539.52,-190.12 535.23,-162.85 522,-143 509.9,-124.84 489.65,-110.97 472.42,-101.63"/>
<polygon fill="#63b8ff" stroke="#63b8ff" points="537.29,-209.98 541.21,-219.82 544.28,-209.68 537.29,-209.98"/>
</a>
</g>
</g>
</g>
</svg>
