<?xml version="1.0" encoding="UTF-8" standalone="no"?>
<!DOCTYPE svg PUBLIC "-//W3C//DTD SVG 1.1//EN"
 "http://www.w3.org/Graphics/SVG/1.1/DTD/svg11.dtd">
<!-- Generated by graphviz version 2.43.0 (0)
 -->
<!-- Title: userver/server/http/http_response_cookie.hpp Pages: 1 -->
<svg width="525pt" height="148pt"
 viewBox="0.00 0.00 524.50 148.00" xmlns="http://www.w3.org/2000/svg" xmlns:xlink="http://www.w3.org/1999/xlink">
<g id="graph0" class="graph" transform="scale(1 1) rotate(0) translate(4 144)">
<title>userver/server/http/http_response_cookie.hpp</title>
<!-- Node1 -->
<g id="Node000001" class="node">
<title>Node1</title>
<g id="a_Node000001"><a xlink:title="HTTP response cookie.">
<polygon fill="#999999" stroke="#666666" points="273.5,-140 126.5,-140 126.5,-110 273.5,-110 273.5,-140"/>
<text text-anchor="start" x="134.5" y="-128" font-family="Helvetica,sans-Serif" font-size="10.00">userver/server/http</text>
<text text-anchor="middle" x="200" y="-117" font-family="Helvetica,sans-Serif" font-size="10.00">/http_response_cookie.hpp</text>
</a>
</g>
</g>
<!-- Node2 -->
<g id="Node000002" class="node">
<title>Node2</title>
<g id="a_Node000002"><a xlink:title=" ">
<polygon fill="#e0e0e0" stroke="#999999" points="50,-74 0,-74 0,-55 50,-55 50,-74"/>
<text text-anchor="middle" x="25" y="-62" font-family="Helvetica,sans-Serif" font-size="10.00">chrono</text>
</a>
</g>
</g>
<!-- Node1&#45;&gt;Node2 -->
<g id="edge1_Node000001_Node000002" class="edge">
<title>Node1&#45;&gt;Node2</title>
<g id="a_edge1_Node000001_Node000002"><a xlink:title=" ">
<path fill="none" stroke="#63b8ff" d="M158.08,-109.99C128.09,-99.96 88.19,-86.62 59.93,-77.18"/>
<polygon fill="#63b8ff" stroke="#63b8ff" points="60.67,-73.73 50.08,-73.88 58.45,-80.37 60.67,-73.73"/>
</a>
</g>
</g>
<!-- Node3 -->
<g id="Node000003" class="node">
<title>Node3</title>
<g id="a_Node000003"><a xlink:title=" ">
<polygon fill="#e0e0e0" stroke="#999999" points="126,-74 68,-74 68,-55 126,-55 126,-74"/>
<text text-anchor="middle" x="97" y="-62" font-family="Helvetica,sans-Serif" font-size="10.00">memory</text>
</a>
</g>
</g>
<!-- Node1&#45;&gt;Node3 -->
<g id="edge2_Node000001_Node000003" class="edge">
<title>Node1&#45;&gt;Node3</title>
<g id="a_edge2_Node000001_Node000003"><a xlink:title=" ">
<path fill="none" stroke="#63b8ff" d="M175.33,-109.99C158.91,-100.66 137.45,-88.47 121.14,-79.21"/>
<polygon fill="#63b8ff" stroke="#63b8ff" points="122.63,-76.03 112.21,-74.14 119.18,-82.12 122.63,-76.03"/>
</a>
</g>
</g>
<!-- Node4 -->
<g id="Node000004" class="node">
<title>Node4</title>
<g id="a_Node000004"><a xlink:title=" ">
<polygon fill="#e0e0e0" stroke="#999999" points="200,-74 144,-74 144,-55 200,-55 200,-74"/>
<text text-anchor="middle" x="172" y="-62" font-family="Helvetica,sans-Serif" font-size="10.00">optional</text>
</a>
</g>
</g>
<!-- Node1&#45;&gt;Node4 -->
<g id="edge3_Node000001_Node000004" class="edge">
<title>Node1&#45;&gt;Node4</title>
<g id="a_edge3_Node000001_Node000004"><a xlink:title=" ">
<path fill="none" stroke="#63b8ff" d="M193.22,-109.84C189.41,-101.87 184.61,-91.84 180.54,-83.33"/>
<polygon fill="#63b8ff" stroke="#63b8ff" points="183.67,-81.77 176.2,-74.27 177.36,-84.8 183.67,-81.77"/>
</a>
</g>
</g>
<!-- Node5 -->
<g id="Node000005" class="node">
<title>Node5</title>
<g id="a_Node000005"><a xlink:title=" ">
<polygon fill="#e0e0e0" stroke="#999999" points="324,-19 280,-19 280,0 324,0 324,-19"/>
<text text-anchor="middle" x="302" y="-7" font-family="Helvetica,sans-Serif" font-size="10.00">string</text>
</a>
</g>
</g>
<!-- Node1&#45;&gt;Node5 -->
<g id="edge4_Node000001_Node000005" class="edge">
<title>Node1&#45;&gt;Node5</title>
<g id="a_edge4_Node000001_Node000005"><a xlink:title=" ">
<path fill="none" stroke="#63b8ff" d="M207.92,-109.91C216.5,-95.32 231.09,-72.27 247,-55 257.24,-43.88 270.35,-33.16 281.2,-25.04"/>
<polygon fill="#63b8ff" stroke="#63b8ff" points="283.3,-27.83 289.32,-19.11 279.18,-22.18 283.3,-27.83"/>
</a>
</g>
</g>
<!-- Node6 -->
<g id="Node000006" class="node">
<title>Node6</title>
<g id="a_Node000006"><a xlink:title=" ">
<polygon fill="#e0e0e0" stroke="#999999" points="349.5,-74 256.5,-74 256.5,-55 349.5,-55 349.5,-74"/>
<text text-anchor="middle" x="303" y="-62" font-family="Helvetica,sans-Serif" font-size="10.00">unordered_map</text>
</a>
</g>
</g>
<!-- Node1&#45;&gt;Node6 -->
<g id="edge5_Node000001_Node000006" class="edge">
<title>Node1&#45;&gt;Node6</title>
<g id="a_edge5_Node000001_Node000006"><a xlink:title=" ">
<path fill="none" stroke="#63b8ff" d="M224.67,-109.99C241.09,-100.66 262.55,-88.47 278.86,-79.21"/>
<polygon fill="#63b8ff" stroke="#63b8ff" points="280.82,-82.12 287.79,-74.14 277.37,-76.03 280.82,-82.12"/>
</a>
</g>
</g>
<!-- Node7 -->
<g id="Node000007" class="node">
<title>Node7</title>
<g id="a_Node000007"><a xlink:href="../../d1/d46/str__icase_8hpp.html" target="_top" xlink:title="Case insensitive ASCII comparators and hashers.">
<polygon fill="white" stroke="#666666" points="512.5,-74 367.5,-74 367.5,-55 512.5,-55 512.5,-74"/>
<text text-anchor="middle" x="440" y="-62" font-family="Helvetica,sans-Serif" font-size="10.00">userver/utils/str_icase.hpp</text>
</a>
</g>
</g>
<!-- Node1&#45;&gt;Node7 -->
<g id="edge6_Node000001_Node000007" class="edge">
<title>Node1&#45;&gt;Node7</title>
<g id="a_edge6_Node000001_Node000007"><a xlink:title=" ">
<path fill="none" stroke="#63b8ff" d="M257.49,-109.99C299.62,-99.72 356.03,-85.97 394.92,-76.49"/>
<polygon fill="#63b8ff" stroke="#63b8ff" points="396.02,-79.82 404.91,-74.05 394.36,-73.02 396.02,-79.82"/>
</a>
</g>
</g>
<!-- Node7&#45;&gt;Node5 -->
<g id="edge8_Node000007_Node000005" class="edge">
<title>Node7&#45;&gt;Node5</title>
<g id="a_edge8_Node000007_Node000005"><a xlink:title=" ">
<path fill="none" stroke="#63b8ff" d="M417.83,-54.98C395.09,-46.25 359.52,-32.59 333.79,-22.71"/>
<polygon fill="#63b8ff" stroke="#63b8ff" points="334.71,-19.31 324.12,-18.99 332.2,-25.85 334.71,-19.31"/>
</a>
</g>
</g>
<!-- Node8 -->
<g id="Node000008" class="node">
<title>Node8</title>
<g id="a_Node000008"><a xlink:title=" ">
<polygon fill="#e0e0e0" stroke="#999999" points="425,-19 375,-19 375,0 425,0 425,-19"/>
<text text-anchor="middle" x="400" y="-7" font-family="Helvetica,sans-Serif" font-size="10.00">cstdint</text>
</a>
</g>
</g>
<!-- Node7&#45;&gt;Node8 -->
<g id="edge7_Node000007_Node000008" class="edge">
<title>Node7&#45;&gt;Node8</title>
<g id="a_edge7_Node000007_Node000008"><a xlink:title=" ">
<path fill="none" stroke="#63b8ff" d="M433.39,-54.75C427.74,-47.26 419.46,-36.28 412.55,-27.13"/>
<polygon fill="#63b8ff" stroke="#63b8ff" points="415.3,-24.96 406.48,-19.09 409.71,-29.18 415.3,-24.96"/>
</a>
</g>
</g>
<!-- Node9 -->
<g id="Node000009" class="node">
<title>Node9</title>
<g id="a_Node000009"><a xlink:title=" ">
<polygon fill="#e0e0e0" stroke="#999999" points="516.5,-19 443.5,-19 443.5,0 516.5,0 516.5,-19"/>
<text text-anchor="middle" x="480" y="-7" font-family="Helvetica,sans-Serif" font-size="10.00">string_view</text>
</a>
</g>
</g>
<!-- Node7&#45;&gt;Node9 -->
<g id="edge9_Node000007_Node000009" class="edge">
<title>Node7&#45;&gt;Node9</title>
<g id="a_edge9_Node000007_Node000009"><a xlink:title=" ">
<path fill="none" stroke="#63b8ff" d="M446.61,-54.75C452.26,-47.26 460.54,-36.28 467.45,-27.13"/>
<polygon fill="#63b8ff" stroke="#63b8ff" points="470.29,-29.18 473.52,-19.09 464.7,-24.96 470.29,-29.18"/>
</a>
</g>
</g>
</g>
</svg>
