<?xml version="1.0" encoding="UTF-8" standalone="no"?>
<!DOCTYPE svg PUBLIC "-//W3C//DTD SVG 1.1//EN"
 "http://www.w3.org/Graphics/SVG/1.1/DTD/svg11.dtd">
<!-- Generated by graphviz version 2.43.0 (0)
 -->
<!-- Title: userver/engine/future_status.hpp Pages: 1 -->
<svg width="827pt" height="445pt"
 viewBox="0.00 0.00 827.00 445.00" xmlns="http://www.w3.org/2000/svg" xmlns:xlink="http://www.w3.org/1999/xlink">
<g id="graph0" class="graph" transform="scale(1 1) rotate(0) translate(4 441)">
<title>userver/engine/future_status.hpp</title>
<!-- Node1 -->
<g id="Node000001" class="node">
<title>Node1</title>
<g id="a_Node000001"><a xlink:title="std::future state extended with &quot;cancelled&quot; state">
<polygon fill="#999999" stroke="#666666" points="559.5,-437 437.5,-437 437.5,-407 559.5,-407 559.5,-437"/>
<text text-anchor="start" x="445.5" y="-425" font-family="Helvetica,sans-Serif" font-size="10.00">userver/engine/future</text>
<text text-anchor="middle" x="498.5" y="-414" font-family="Helvetica,sans-Serif" font-size="10.00">_status.hpp</text>
</a>
</g>
</g>
<!-- Node2 -->
<g id="Node000002" class="node">
<title>Node2</title>
<g id="a_Node000002"><a xlink:href="../../db/ddf/future_8hpp.html" target="_top" xlink:title="std::future replacement for asynchronous tasks that works in pair with engine::Promise">
<polygon fill="white" stroke="#666666" points="485,-299.5 342,-299.5 342,-280.5 485,-280.5 485,-299.5"/>
<text text-anchor="middle" x="413.5" y="-287.5" font-family="Helvetica,sans-Serif" font-size="10.00">userver/engine/future.hpp</text>
</a>
</g>
</g>
<!-- Node1&#45;&gt;Node2 -->
<g id="edge1_Node000001_Node000002" class="edge">
<title>Node1&#45;&gt;Node2</title>
<g id="a_edge1_Node000001_Node000002"><a xlink:title=" ">
<path fill="none" stroke="#63b8ff" d="M463.46,-401.25C452.05,-393.22 440.32,-382.99 432.5,-371 417.69,-348.28 414.4,-315.22 413.68,-299.68"/>
<polygon fill="#63b8ff" stroke="#63b8ff" points="461.78,-404.34 472.05,-406.95 465.65,-398.5 461.78,-404.34"/>
</a>
</g>
</g>
<!-- Node11 -->
<g id="Node000011" class="node">
<title>Node11</title>
<g id="a_Node000011"><a xlink:href="../../de/d5c/future__state_8hpp_source.html" target="_top" xlink:title=" ">
<polygon fill="white" stroke="#666666" points="555.5,-371 441.5,-371 441.5,-341 555.5,-341 555.5,-371"/>
<text text-anchor="start" x="449.5" y="-359" font-family="Helvetica,sans-Serif" font-size="10.00">userver/engine/impl</text>
<text text-anchor="middle" x="498.5" y="-348" font-family="Helvetica,sans-Serif" font-size="10.00">/future_state.hpp</text>
</a>
</g>
</g>
<!-- Node1&#45;&gt;Node11 -->
<g id="edge10_Node000001_Node000011" class="edge">
<title>Node1&#45;&gt;Node11</title>
<g id="a_edge10_Node000001_Node000011"><a xlink:title=" ">
<path fill="none" stroke="#63b8ff" d="M498.5,-396.54C498.5,-387.96 498.5,-378.61 498.5,-371.16"/>
<polygon fill="#63b8ff" stroke="#63b8ff" points="495,-396.8 498.5,-406.8 502,-396.8 495,-396.8"/>
</a>
</g>
</g>
<!-- Node12 -->
<g id="Node000012" class="node">
<title>Node12</title>
<g id="a_Node000012"><a xlink:href="../../db/d30/wait__all__checked_8hpp.html" target="_top" xlink:title="Provides engine::WaitAllChecked.">
<polygon fill="white" stroke="#666666" points="744,-371 631,-371 631,-341 744,-341 744,-371"/>
<text text-anchor="start" x="639" y="-359" font-family="Helvetica,sans-Serif" font-size="10.00">userver/engine/wait</text>
<text text-anchor="middle" x="687.5" y="-348" font-family="Helvetica,sans-Serif" font-size="10.00">_all_checked.hpp</text>
</a>
</g>
</g>
<!-- Node1&#45;&gt;Node12 -->
<g id="edge12_Node000001_Node000012" class="edge">
<title>Node1&#45;&gt;Node12</title>
<g id="a_edge12_Node000001_Node000012"><a xlink:title=" ">
<path fill="none" stroke="#63b8ff" d="M549.52,-403.72C579.8,-393.47 617.71,-380.63 646.12,-371.01"/>
<polygon fill="#63b8ff" stroke="#63b8ff" points="548.33,-400.43 539.98,-406.95 550.57,-407.06 548.33,-400.43"/>
</a>
</g>
</g>
<!-- Node3 -->
<g id="Node000003" class="node">
<title>Node3</title>
<g id="a_Node000003"><a xlink:href="../../d2/de8/response__future_8hpp.html" target="_top" xlink:title="Allows to perform a request concurrently with other work without creating an extra coroutine for wait...">
<polygon fill="white" stroke="#666666" points="178,-233.5 59,-233.5 59,-203.5 178,-203.5 178,-233.5"/>
<text text-anchor="start" x="67" y="-221.5" font-family="Helvetica,sans-Serif" font-size="10.00">userver/clients/http</text>
<text text-anchor="middle" x="118.5" y="-210.5" font-family="Helvetica,sans-Serif" font-size="10.00">/response_future.hpp</text>
</a>
</g>
</g>
<!-- Node2&#45;&gt;Node3 -->
<g id="edge2_Node000002_Node000003" class="edge">
<title>Node2&#45;&gt;Node3</title>
<g id="a_edge2_Node000002_Node000003"><a xlink:title=" ">
<path fill="none" stroke="#63b8ff" d="M360.99,-278.41C314.84,-268.86 245.96,-254.06 186.5,-239 179.83,-237.31 172.83,-235.43 165.95,-233.52"/>
<polygon fill="#63b8ff" stroke="#63b8ff" points="360.56,-281.89 371.06,-280.48 361.97,-275.03 360.56,-281.89"/>
</a>
</g>
</g>
<!-- Node8 -->
<g id="Node000008" class="node">
<title>Node8</title>
<g id="a_Node000008"><a xlink:href="../../d5/d26/streamed__response_8hpp.html" target="_top" xlink:title="HTTP response for streamed API.">
<polygon fill="white" stroke="#666666" points="333,-233.5 196,-233.5 196,-203.5 333,-203.5 333,-233.5"/>
<text text-anchor="start" x="204" y="-221.5" font-family="Helvetica,sans-Serif" font-size="10.00">userver/clients/http</text>
<text text-anchor="middle" x="264.5" y="-210.5" font-family="Helvetica,sans-Serif" font-size="10.00">/streamed_response.hpp</text>
</a>
</g>
</g>
<!-- Node2&#45;&gt;Node8 -->
<g id="edge7_Node000002_Node000008" class="edge">
<title>Node2&#45;&gt;Node8</title>
<g id="a_edge7_Node000002_Node000008"><a xlink:title=" ">
<path fill="none" stroke="#63b8ff" d="M385.97,-276.16C360.03,-264.06 321.26,-245.97 294.53,-233.51"/>
<polygon fill="#63b8ff" stroke="#63b8ff" points="384.69,-279.42 395.23,-280.48 387.65,-273.08 384.69,-279.42"/>
</a>
</g>
</g>
<!-- Node9 -->
<g id="Node000009" class="node">
<title>Node9</title>
<g id="a_Node000009"><a xlink:href="../../d0/d43/redis_2include_2userver_2storages_2redis_2impl_2request_8hpp_source.html" target="_top" xlink:title=" ">
<polygon fill="white" stroke="#666666" points="476,-233.5 351,-233.5 351,-203.5 476,-203.5 476,-233.5"/>
<text text-anchor="start" x="359" y="-221.5" font-family="Helvetica,sans-Serif" font-size="10.00">userver/storages/redis</text>
<text text-anchor="middle" x="413.5" y="-210.5" font-family="Helvetica,sans-Serif" font-size="10.00">/impl/request.hpp</text>
</a>
</g>
</g>
<!-- Node2&#45;&gt;Node9 -->
<g id="edge8_Node000002_Node000009" class="edge">
<title>Node2&#45;&gt;Node9</title>
<g id="a_edge8_Node000002_Node000009"><a xlink:title=" ">
<path fill="none" stroke="#63b8ff" d="M413.5,-270.21C413.5,-258.69 413.5,-244.18 413.5,-233.64"/>
<polygon fill="#63b8ff" stroke="#63b8ff" points="410,-270.48 413.5,-280.48 417,-270.48 410,-270.48"/>
</a>
</g>
</g>
<!-- Node10 -->
<g id="Node000010" class="node">
<title>Node10</title>
<g id="a_Node000010"><a xlink:href="../../d1/d35/transaction__subrequest__data_8hpp_source.html" target="_top" xlink:title=" ">
<polygon fill="white" stroke="#666666" points="652.5,-239 494.5,-239 494.5,-198 652.5,-198 652.5,-239"/>
<text text-anchor="start" x="502.5" y="-227" font-family="Helvetica,sans-Serif" font-size="10.00">userver/storages/redis</text>
<text text-anchor="start" x="502.5" y="-216" font-family="Helvetica,sans-Serif" font-size="10.00">/impl/transaction_subrequest</text>
<text text-anchor="middle" x="573.5" y="-205" font-family="Helvetica,sans-Serif" font-size="10.00">_data.hpp</text>
</a>
</g>
</g>
<!-- Node2&#45;&gt;Node10 -->
<g id="edge9_Node000002_Node000010" class="edge">
<title>Node2&#45;&gt;Node10</title>
<g id="a_edge9_Node000002_Node000010"><a xlink:title=" ">
<path fill="none" stroke="#63b8ff" d="M442.39,-276.45C466.39,-266.03 500.94,-251.02 528.55,-239.03"/>
<polygon fill="#63b8ff" stroke="#63b8ff" points="440.9,-273.28 433.12,-280.48 443.69,-279.7 440.9,-273.28"/>
</a>
</g>
</g>
<!-- Node4 -->
<g id="Node000004" class="node">
<title>Node4</title>
<g id="a_Node000004"><a xlink:href="../../d1/d57/core_2include_2userver_2clients_2http_2request_8hpp.html" target="_top" xlink:title="Class for creating and performing new http requests.">
<polygon fill="white" stroke="#666666" points="174,-162 63,-162 63,-132 174,-132 174,-162"/>
<text text-anchor="start" x="71" y="-150" font-family="Helvetica,sans-Serif" font-size="10.00">userver/clients/http</text>
<text text-anchor="middle" x="118.5" y="-139" font-family="Helvetica,sans-Serif" font-size="10.00">/request.hpp</text>
</a>
</g>
</g>
<!-- Node3&#45;&gt;Node4 -->
<g id="edge3_Node000003_Node000004" class="edge">
<title>Node3&#45;&gt;Node4</title>
<g id="a_edge3_Node000003_Node000004"><a xlink:title=" ">
<path fill="none" stroke="#63b8ff" d="M118.5,-193.25C118.5,-182.81 118.5,-170.99 118.5,-162.04"/>
<polygon fill="#63b8ff" stroke="#63b8ff" points="115,-193.44 118.5,-203.44 122,-193.44 115,-193.44"/>
</a>
</g>
</g>
<!-- Node5 -->
<g id="Node000005" class="node">
<title>Node5</title>
<g id="a_Node000005"><a xlink:href="../../d3/db8/core_2include_2userver_2clients_2http_2client_8hpp.html" target="_top" xlink:title="HTTP client that returns a HTTP request builder from CreateRequest().">
<polygon fill="white" stroke="#666666" points="111,-96 0,-96 0,-66 111,-66 111,-96"/>
<text text-anchor="start" x="8" y="-84" font-family="Helvetica,sans-Serif" font-size="10.00">userver/clients/http</text>
<text text-anchor="middle" x="55.5" y="-73" font-family="Helvetica,sans-Serif" font-size="10.00">/client.hpp</text>
</a>
</g>
</g>
<!-- Node4&#45;&gt;Node5 -->
<g id="edge4_Node000004_Node000005" class="edge">
<title>Node4&#45;&gt;Node5</title>
<g id="a_edge4_Node000004_Node000005"><a xlink:title=" ">
<path fill="none" stroke="#63b8ff" d="M97.48,-124.65C88.25,-115.27 77.67,-104.53 69.44,-96.16"/>
<polygon fill="#63b8ff" stroke="#63b8ff" points="95.01,-127.13 104.52,-131.8 100,-122.21 95.01,-127.13"/>
</a>
</g>
</g>
<!-- Node7 -->
<g id="Node000007" class="node">
<title>Node7</title>
<g id="a_Node000007"><a xlink:href="../../d2/d6c/http__server__mock_8hpp_source.html" target="_top" xlink:title=" ">
<polygon fill="white" stroke="#666666" points="235.5,-96 129.5,-96 129.5,-66 235.5,-66 235.5,-96"/>
<text text-anchor="start" x="137.5" y="-84" font-family="Helvetica,sans-Serif" font-size="10.00">userver/utest/http</text>
<text text-anchor="middle" x="182.5" y="-73" font-family="Helvetica,sans-Serif" font-size="10.00">_server_mock.hpp</text>
</a>
</g>
</g>
<!-- Node4&#45;&gt;Node7 -->
<g id="edge6_Node000004_Node000007" class="edge">
<title>Node4&#45;&gt;Node7</title>
<g id="a_edge6_Node000004_Node000007"><a xlink:title=" ">
<path fill="none" stroke="#63b8ff" d="M139.85,-124.65C149.23,-115.27 159.97,-104.53 168.34,-96.16"/>
<polygon fill="#63b8ff" stroke="#63b8ff" points="137.3,-122.25 132.7,-131.8 142.25,-127.2 137.3,-122.25"/>
</a>
</g>
</g>
<!-- Node6 -->
<g id="Node000006" class="node">
<title>Node6</title>
<g id="a_Node000006"><a xlink:href="../../d7/d98/core_2include_2userver_2clients_2http_2component_8hpp.html" target="_top" xlink:title="Component that manages clients::http::Client.">
<polygon fill="white" stroke="#666666" points="111,-30 0,-30 0,0 111,0 111,-30"/>
<text text-anchor="start" x="8" y="-18" font-family="Helvetica,sans-Serif" font-size="10.00">userver/clients/http</text>
<text text-anchor="middle" x="55.5" y="-7" font-family="Helvetica,sans-Serif" font-size="10.00">/component.hpp</text>
</a>
</g>
</g>
<!-- Node5&#45;&gt;Node6 -->
<g id="edge5_Node000005_Node000006" class="edge">
<title>Node5&#45;&gt;Node6</title>
<g id="a_edge5_Node000005_Node000006"><a xlink:title=" ">
<path fill="none" stroke="#63b8ff" d="M55.5,-55.54C55.5,-46.96 55.5,-37.61 55.5,-30.16"/>
<polygon fill="#63b8ff" stroke="#63b8ff" points="52,-55.8 55.5,-65.8 59,-55.8 52,-55.8"/>
</a>
</g>
</g>
<!-- Node11&#45;&gt;Node2 -->
<g id="edge11_Node000011_Node000002" class="edge">
<title>Node11&#45;&gt;Node2</title>
<g id="a_edge11_Node000011_Node000002"><a xlink:title=" ">
<path fill="none" stroke="#63b8ff" d="M471.39,-334.58C455.83,-322.87 437.1,-308.77 425.25,-299.84"/>
<polygon fill="#63b8ff" stroke="#63b8ff" points="469.54,-337.58 479.64,-340.8 473.75,-331.99 469.54,-337.58"/>
</a>
</g>
</g>
<!-- Node13 -->
<g id="Node000013" class="node">
<title>Node13</title>
<g id="a_Node000013"><a xlink:href="../../db/d71/get__all_8hpp.html" target="_top" xlink:title="Provides engine::GetAll.">
<polygon fill="white" stroke="#666666" points="769.5,-305 661.5,-305 661.5,-275 769.5,-275 769.5,-305"/>
<text text-anchor="start" x="669.5" y="-293" font-family="Helvetica,sans-Serif" font-size="10.00">userver/engine/get</text>
<text text-anchor="middle" x="715.5" y="-282" font-family="Helvetica,sans-Serif" font-size="10.00">_all.hpp</text>
</a>
</g>
</g>
<!-- Node12&#45;&gt;Node13 -->
<g id="edge13_Node000012_Node000013" class="edge">
<title>Node12&#45;&gt;Node13</title>
<g id="a_edge13_Node000012_Node000013"><a xlink:title=" ">
<path fill="none" stroke="#63b8ff" d="M697.83,-331.39C701.68,-322.59 705.93,-312.86 709.3,-305.16"/>
<polygon fill="#63b8ff" stroke="#63b8ff" points="694.52,-330.23 693.71,-340.8 700.93,-333.04 694.52,-330.23"/>
</a>
</g>
</g>
<!-- Node14 -->
<g id="Node000014" class="node">
<title>Node14</title>
<g id="a_Node000014"><a xlink:href="../../d4/d5f/connection__pool__base_8hpp.html" target="_top" xlink:title="Base connection pool implementation to be derived in different drivers. Takes care of synchronization...">
<polygon fill="white" stroke="#666666" points="819,-233.5 670,-233.5 670,-203.5 819,-203.5 819,-233.5"/>
<text text-anchor="start" x="678" y="-221.5" font-family="Helvetica,sans-Serif" font-size="10.00">userver/drivers/impl</text>
<text text-anchor="middle" x="744.5" y="-210.5" font-family="Helvetica,sans-Serif" font-size="10.00">/connection_pool_base.hpp</text>
</a>
</g>
</g>
<!-- Node13&#45;&gt;Node14 -->
<g id="edge14_Node000013_Node000014" class="edge">
<title>Node13&#45;&gt;Node14</title>
<g id="a_edge14_Node000013_Node000014"><a xlink:title=" ">
<path fill="none" stroke="#63b8ff" d="M725.35,-265.4C729.76,-254.81 734.83,-242.68 738.64,-233.54"/>
<polygon fill="#63b8ff" stroke="#63b8ff" points="721.99,-264.36 721.37,-274.94 728.45,-267.05 721.99,-264.36"/>
</a>
</g>
</g>
<!-- Node15 -->
<g id="Node000015" class="node">
<title>Node15</title>
<g id="a_Node000015"><a xlink:href="../../d3/dd3/drivers_8hpp.html" target="_top" xlink:title=" ">
<polygon fill="white" stroke="#666666" points="818.5,-156.5 670.5,-156.5 670.5,-137.5 818.5,-137.5 818.5,-156.5"/>
<text text-anchor="middle" x="744.5" y="-144.5" font-family="Helvetica,sans-Serif" font-size="10.00">userver/drivers/drivers.hpp</text>
</a>
</g>
</g>
<!-- Node14&#45;&gt;Node15 -->
<g id="edge15_Node000014_Node000015" class="edge">
<title>Node14&#45;&gt;Node15</title>
<g id="a_edge15_Node000014_Node000015"><a xlink:title=" ">
<path fill="none" stroke="#63b8ff" d="M744.5,-193.06C744.5,-180.45 744.5,-165.85 744.5,-156.77"/>
<polygon fill="#63b8ff" stroke="#63b8ff" points="741,-193.44 744.5,-203.44 748,-193.44 741,-193.44"/>
</a>
</g>
</g>
</g>
</svg>
