<?xml version="1.0" encoding="UTF-8" standalone="no"?>
<!DOCTYPE svg PUBLIC "-//W3C//DTD SVG 1.1//EN"
 "http://www.w3.org/Graphics/SVG/1.1/DTD/svg11.dtd">
<!-- Generated by graphviz version 2.43.0 (0)
 -->
<!-- Title: userver/utils/statistics/writer.hpp Pages: 1 -->
<svg width="508pt" height="170pt"
 viewBox="0.00 0.00 508.00 170.00" xmlns="http://www.w3.org/2000/svg" xmlns:xlink="http://www.w3.org/1999/xlink">
<g id="graph0" class="graph" transform="scale(1 1) rotate(0) translate(4 166)">
<title>userver/utils/statistics/writer.hpp</title>
<!-- Node1 -->
<g id="Node000001" class="node">
<title>Node1</title>
<g id="a_Node000001"><a xlink:title="Class for writing metrics.">
<polygon fill="#999999" stroke="#666666" points="231.5,-162 106.5,-162 106.5,-132 231.5,-132 231.5,-162"/>
<text text-anchor="start" x="114.5" y="-150" font-family="Helvetica,sans-Serif" font-size="10.00">userver/utils/statistics</text>
<text text-anchor="middle" x="169" y="-139" font-family="Helvetica,sans-Serif" font-size="10.00">/writer.hpp</text>
</a>
</g>
</g>
<!-- Node2 -->
<g id="Node000002" class="node">
<title>Node2</title>
<g id="a_Node000002"><a xlink:title=" ">
<polygon fill="#e0e0e0" stroke="#999999" points="50,-90.5 0,-90.5 0,-71.5 50,-71.5 50,-90.5"/>
<text text-anchor="middle" x="25" y="-78.5" font-family="Helvetica,sans-Serif" font-size="10.00">atomic</text>
</a>
</g>
</g>
<!-- Node1&#45;&gt;Node2 -->
<g id="edge1_Node000001_Node000002" class="edge">
<title>Node1&#45;&gt;Node2</title>
<g id="a_edge1_Node000001_Node000002"><a xlink:title=" ">
<path fill="none" stroke="#63b8ff" d="M137.4,-131.95C112.37,-120.83 77.7,-105.42 53.51,-94.67"/>
<polygon fill="#63b8ff" stroke="#63b8ff" points="54.72,-91.38 44.16,-90.52 51.88,-97.78 54.72,-91.38"/>
</a>
</g>
</g>
<!-- Node3 -->
<g id="Node000003" class="node">
<title>Node3</title>
<g id="a_Node000003"><a xlink:title=" ">
<polygon fill="#e0e0e0" stroke="#999999" points="121.5,-24.5 48.5,-24.5 48.5,-5.5 121.5,-5.5 121.5,-24.5"/>
<text text-anchor="middle" x="85" y="-12.5" font-family="Helvetica,sans-Serif" font-size="10.00">string_view</text>
</a>
</g>
</g>
<!-- Node1&#45;&gt;Node3 -->
<g id="edge2_Node000001_Node000003" class="edge">
<title>Node1&#45;&gt;Node3</title>
<g id="a_edge2_Node000001_Node000003"><a xlink:title=" ">
<path fill="none" stroke="#63b8ff" d="M138.16,-132C123.34,-123.66 106.72,-111.64 97,-96 85.55,-77.59 83.55,-52.29 83.76,-35.11"/>
<polygon fill="#63b8ff" stroke="#63b8ff" points="87.27,-34.82 84.17,-24.69 80.28,-34.55 87.27,-34.82"/>
</a>
</g>
</g>
<!-- Node4 -->
<g id="Node000004" class="node">
<title>Node4</title>
<g id="a_Node000004"><a xlink:title=" ">
<polygon fill="#e0e0e0" stroke="#999999" points="274.5,-24.5 205.5,-24.5 205.5,-5.5 274.5,-5.5 274.5,-24.5"/>
<text text-anchor="middle" x="240" y="-12.5" font-family="Helvetica,sans-Serif" font-size="10.00">type_traits</text>
</a>
</g>
</g>
<!-- Node1&#45;&gt;Node4 -->
<g id="edge3_Node000001_Node000004" class="edge">
<title>Node1&#45;&gt;Node4</title>
<g id="a_edge3_Node000001_Node000004"><a xlink:title=" ">
<path fill="none" stroke="#63b8ff" d="M201.51,-131.84C216.08,-123.65 231.81,-111.79 240,-96 249.97,-76.79 247.8,-51.31 244.58,-34.33"/>
<polygon fill="#63b8ff" stroke="#63b8ff" points="247.99,-33.55 242.42,-24.54 241.15,-35.06 247.99,-33.55"/>
</a>
</g>
</g>
<!-- Node5 -->
<g id="Node000005" class="node">
<title>Node5</title>
<g id="a_Node000005"><a xlink:href="../../d1/d0e/labels_8hpp.html" target="_top" xlink:title="Owning and non owning labels representations.">
<polygon fill="white" stroke="#666666" points="231.5,-96 106.5,-96 106.5,-66 231.5,-66 231.5,-96"/>
<text text-anchor="start" x="114.5" y="-84" font-family="Helvetica,sans-Serif" font-size="10.00">userver/utils/statistics</text>
<text text-anchor="middle" x="169" y="-73" font-family="Helvetica,sans-Serif" font-size="10.00">/labels.hpp</text>
</a>
</g>
</g>
<!-- Node1&#45;&gt;Node5 -->
<g id="edge4_Node000001_Node000005" class="edge">
<title>Node1&#45;&gt;Node5</title>
<g id="a_edge4_Node000001_Node000005"><a xlink:title=" ">
<path fill="none" stroke="#63b8ff" d="M169,-131.8C169,-124.34 169,-114.99 169,-106.41"/>
<polygon fill="#63b8ff" stroke="#63b8ff" points="172.5,-106.16 169,-96.16 165.5,-106.16 172.5,-106.16"/>
</a>
</g>
</g>
<!-- Node7 -->
<g id="Node000007" class="node">
<title>Node7</title>
<g id="a_Node000007"><a xlink:href="../../d6/dab/rate_8hpp.html" target="_top" xlink:title=" ">
<polygon fill="white" stroke="#666666" points="424.5,-96 299.5,-96 299.5,-66 424.5,-66 424.5,-96"/>
<text text-anchor="start" x="307.5" y="-84" font-family="Helvetica,sans-Serif" font-size="10.00">userver/utils/statistics</text>
<text text-anchor="middle" x="362" y="-73" font-family="Helvetica,sans-Serif" font-size="10.00">/rate.hpp</text>
</a>
</g>
</g>
<!-- Node1&#45;&gt;Node7 -->
<g id="edge8_Node000001_Node000007" class="edge">
<title>Node1&#45;&gt;Node7</title>
<g id="a_edge8_Node000001_Node000007"><a xlink:title=" ">
<path fill="none" stroke="#63b8ff" d="M211.35,-131.95C240.39,-122.33 279.1,-109.49 310.01,-99.24"/>
<polygon fill="#63b8ff" stroke="#63b8ff" points="311.35,-102.48 319.74,-96.01 309.15,-95.84 311.35,-102.48"/>
</a>
</g>
</g>
<!-- Node5&#45;&gt;Node3 -->
<g id="edge6_Node000005_Node000003" class="edge">
<title>Node5&#45;&gt;Node3</title>
<g id="a_edge6_Node000005_Node000003"><a xlink:title=" ">
<path fill="none" stroke="#63b8ff" d="M150.36,-65.8C136.88,-55.53 118.69,-41.67 104.92,-31.18"/>
<polygon fill="#63b8ff" stroke="#63b8ff" points="106.68,-28.12 96.61,-24.84 102.44,-33.69 106.68,-28.12"/>
</a>
</g>
</g>
<!-- Node5&#45;&gt;Node4 -->
<g id="edge7_Node000005_Node000004" class="edge">
<title>Node5&#45;&gt;Node4</title>
<g id="a_edge7_Node000005_Node000004"><a xlink:title=" ">
<path fill="none" stroke="#63b8ff" d="M184.76,-65.8C195.93,-55.72 210.94,-42.19 222.49,-31.78"/>
<polygon fill="#63b8ff" stroke="#63b8ff" points="225.1,-34.14 230.19,-24.84 220.42,-28.94 225.1,-34.14"/>
</a>
</g>
</g>
<!-- Node6 -->
<g id="Node000006" class="node">
<title>Node6</title>
<g id="a_Node000006"><a xlink:title=" ">
<polygon fill="#e0e0e0" stroke="#999999" points="187,-24.5 143,-24.5 143,-5.5 187,-5.5 187,-24.5"/>
<text text-anchor="middle" x="165" y="-12.5" font-family="Helvetica,sans-Serif" font-size="10.00">string</text>
</a>
</g>
</g>
<!-- Node5&#45;&gt;Node6 -->
<g id="edge5_Node000005_Node000006" class="edge">
<title>Node5&#45;&gt;Node6</title>
<g id="a_edge5_Node000005_Node000006"><a xlink:title=" ">
<path fill="none" stroke="#63b8ff" d="M168.11,-65.8C167.54,-56.7 166.8,-44.79 166.18,-34.9"/>
<polygon fill="#63b8ff" stroke="#63b8ff" points="169.67,-34.61 165.55,-24.84 162.68,-35.04 169.67,-34.61"/>
</a>
</g>
</g>
<!-- Node8 -->
<g id="Node000008" class="node">
<title>Node8</title>
<g id="a_Node000008"><a xlink:title=" ">
<polygon fill="#e0e0e0" stroke="#999999" points="500,-24.5 450,-24.5 450,-5.5 500,-5.5 500,-24.5"/>
<text text-anchor="middle" x="475" y="-12.5" font-family="Helvetica,sans-Serif" font-size="10.00">cstdint</text>
</a>
</g>
</g>
<!-- Node7&#45;&gt;Node8 -->
<g id="edge9_Node000007_Node000008" class="edge">
<title>Node7&#45;&gt;Node8</title>
<g id="a_edge9_Node000007_Node000008"><a xlink:title=" ">
<path fill="none" stroke="#63b8ff" d="M386.8,-65.95C405.92,-55.13 432.2,-40.24 451.09,-29.54"/>
<polygon fill="#63b8ff" stroke="#63b8ff" points="452.99,-32.49 459.96,-24.52 449.54,-26.4 452.99,-32.49"/>
</a>
</g>
</g>
<!-- Node9 -->
<g id="Node000009" class="node">
<title>Node9</title>
<g id="a_Node000009"><a xlink:href="../../d6/d8e/universal_2include_2userver_2formats_2serialize_2to_8hpp.html" target="_top" xlink:title="Helper for serializers.">
<polygon fill="white" stroke="#666666" points="431.5,-30 292.5,-30 292.5,0 431.5,0 431.5,-30"/>
<text text-anchor="start" x="300.5" y="-18" font-family="Helvetica,sans-Serif" font-size="10.00">userver/formats/serialize</text>
<text text-anchor="middle" x="362" y="-7" font-family="Helvetica,sans-Serif" font-size="10.00">/to.hpp</text>
</a>
</g>
</g>
<!-- Node7&#45;&gt;Node9 -->
<g id="edge10_Node000007_Node000009" class="edge">
<title>Node7&#45;&gt;Node9</title>
<g id="a_edge10_Node000007_Node000009"><a xlink:title=" ">
<path fill="none" stroke="#63b8ff" d="M362,-65.8C362,-58.34 362,-48.99 362,-40.41"/>
<polygon fill="#63b8ff" stroke="#63b8ff" points="365.5,-40.16 362,-30.16 358.5,-40.16 365.5,-40.16"/>
</a>
</g>
</g>
</g>
</svg>
