<?xml version="1.0" encoding="UTF-8" standalone="no"?>
<!DOCTYPE svg PUBLIC "-//W3C//DTD SVG 1.1//EN"
 "http://www.w3.org/Graphics/SVG/1.1/DTD/svg11.dtd">
<!-- Generated by graphviz version 2.43.0 (0)
 -->
<!-- Title: components::LoggableComponentBase Pages: 1 -->
<svg width="888pt" height="1894pt"
 viewBox="0.00 0.00 888.00 1893.50" xmlns="http://www.w3.org/2000/svg" xmlns:xlink="http://www.w3.org/1999/xlink">
<g id="graph0" class="graph" transform="scale(1 1) rotate(0) translate(4 1889.5)">
<title>components::LoggableComponentBase</title>
<!-- Node1 -->
<g id="Node000001" class="node">
<title>Node1</title>
<g id="a_Node000001"><a xlink:title="Base class for all application components, it depends on components::Logger and components::Tracer.">
<polygon fill="#999999" stroke="#666666" points="434,-962 227,-962 227,-943 434,-943 434,-962"/>
<text text-anchor="middle" x="330.5" y="-950" font-family="Helvetica,sans-Serif" font-size="10.00">components::LoggableComponentBase</text>
</a>
</g>
</g>
<!-- Node3 -->
<g id="Node000003" class="node">
<title>Node3</title>
<g id="a_Node000003"><a xlink:href="../../df/dd1/classcomponents_1_1CachingComponentBase.html" target="_top" xlink:title=" ">
<polygon fill="white" stroke="#666666" points="672.5,-1885.5 481.5,-1885.5 481.5,-1855.5 672.5,-1855.5 672.5,-1885.5"/>
<text text-anchor="start" x="489.5" y="-1873.5" font-family="Helvetica,sans-Serif" font-size="10.00">components::CachingComponent</text>
<text text-anchor="middle" x="577" y="-1862.5" font-family="Helvetica,sans-Serif" font-size="10.00">Base&lt; dynamic_config::DocsMap &gt;</text>
</a>
</g>
</g>
<!-- Node1&#45;&gt;Node3 -->
<g id="edge2_Node000001_Node000003" class="edge">
<title>Node1&#45;&gt;Node3</title>
<g id="a_edge2_Node000001_Node000003"><a xlink:title=" ">
<path fill="none" stroke="#63b8ff" d="M331.68,-972.49C333.19,-1092.12 346.91,-1712.45 470,-1845.5 473.47,-1849.25 477.38,-1852.48 481.61,-1855.27"/>
<polygon fill="#63b8ff" stroke="#63b8ff" points="335.18,-972.21 331.57,-962.24 328.18,-972.28 335.18,-972.21"/>
</a>
</g>
</g>
<!-- Node5 -->
<g id="Node000005" class="node">
<title>Node5</title>
<g id="a_Node000005"><a xlink:href="../../df/dd1/classcomponents_1_1CachingComponentBase.html" target="_top" xlink:title=" ">
<polygon fill="white" stroke="#666666" points="666,-1837 488,-1837 488,-1796 666,-1796 666,-1837"/>
<text text-anchor="start" x="496" y="-1825" font-family="Helvetica,sans-Serif" font-size="10.00">components::CachingComponent</text>
<text text-anchor="start" x="496" y="-1814" font-family="Helvetica,sans-Serif" font-size="10.00">Base&lt; MongoCacheTraits::</text>
<text text-anchor="middle" x="577" y="-1803" font-family="Helvetica,sans-Serif" font-size="10.00">DataType &gt;</text>
</a>
</g>
</g>
<!-- Node1&#45;&gt;Node5 -->
<g id="edge4_Node000001_Node000005" class="edge">
<title>Node1&#45;&gt;Node5</title>
<g id="a_edge4_Node000001_Node000005"><a xlink:title=" ">
<path fill="none" stroke="#63b8ff" d="M332,-972.16C335.28,-1086.06 357.3,-1660.51 470,-1786.5 475.1,-1792.2 481.19,-1796.85 487.85,-1800.65"/>
<polygon fill="#63b8ff" stroke="#63b8ff" points="335.5,-971.99 331.72,-962.09 328.5,-972.18 335.5,-971.99"/>
</a>
</g>
</g>
<!-- Node7 -->
<g id="Node000007" class="node">
<title>Node7</title>
<g id="a_Node000007"><a xlink:href="../../d5/d40/classbaggage_1_1BaggageManagerComponent.html" target="_top" xlink:title="Component for relationship with header baggage.">
<polygon fill="white" stroke="#666666" points="680,-1778 474,-1778 474,-1759 680,-1759 680,-1778"/>
<text text-anchor="middle" x="577" y="-1766" font-family="Helvetica,sans-Serif" font-size="10.00">baggage::BaggageManagerComponent</text>
</a>
</g>
</g>
<!-- Node1&#45;&gt;Node7 -->
<g id="edge6_Node000001_Node000007" class="edge">
<title>Node1&#45;&gt;Node7</title>
<g id="a_edge6_Node000001_Node000007"><a xlink:title=" ">
<path fill="none" stroke="#63b8ff" d="M331.98,-972.15C335.09,-1083.56 356.17,-1635.06 470,-1749.5 473.69,-1753.21 477.84,-1756.34 482.31,-1758.96"/>
<polygon fill="#63b8ff" stroke="#63b8ff" points="335.47,-971.91 331.71,-962.01 328.47,-972.1 335.47,-971.91"/>
</a>
</g>
</g>
<!-- Node8 -->
<g id="Node000008" class="node">
<title>Node8</title>
<g id="a_Node000008"><a xlink:href="../../d9/d97/classcache_1_1LruCacheComponent.html" target="_top" xlink:title="Base class for LRU&#45;cache components.">
<polygon fill="white" stroke="#666666" points="654,-1740.5 500,-1740.5 500,-1710.5 654,-1710.5 654,-1740.5"/>
<text text-anchor="start" x="508" y="-1728.5" font-family="Helvetica,sans-Serif" font-size="10.00">cache::LruCacheComponent</text>
<text text-anchor="middle" x="577" y="-1717.5" font-family="Helvetica,sans-Serif" font-size="10.00">&lt; Key, Value, Hash, Equal &gt;</text>
</a>
</g>
</g>
<!-- Node1&#45;&gt;Node8 -->
<g id="edge7_Node000001_Node000008" class="edge">
<title>Node1&#45;&gt;Node8</title>
<g id="a_edge7_Node000001_Node000008"><a xlink:title=" ">
<path fill="none" stroke="#63b8ff" d="M332.32,-972.18C337.2,-1079.27 365.74,-1591.05 470,-1700.5 478.15,-1709.06 488.64,-1714.92 499.84,-1718.91"/>
<polygon fill="#63b8ff" stroke="#63b8ff" points="335.82,-971.96 331.88,-962.12 328.82,-972.27 335.82,-971.96"/>
</a>
</g>
</g>
<!-- Node9 -->
<g id="Node000009" class="node">
<title>Node9</title>
<g id="a_Node000009"><a xlink:href="../../d0/d1e/classclients_1_1dns_1_1Component.html" target="_top" xlink:title="Caching DNS resolver component.">
<polygon fill="white" stroke="#666666" points="644,-1692 510,-1692 510,-1673 644,-1673 644,-1692"/>
<text text-anchor="middle" x="577" y="-1680" font-family="Helvetica,sans-Serif" font-size="10.00">clients::dns::Component</text>
</a>
</g>
</g>
<!-- Node1&#45;&gt;Node9 -->
<g id="edge8_Node000001_Node000009" class="edge">
<title>Node1&#45;&gt;Node9</title>
<g id="a_edge8_Node000001_Node000009"><a xlink:title=" ">
<path fill="none" stroke="#63b8ff" d="M332.45,-972.61C337.81,-1077.71 367.89,-1562.91 470,-1663.5 480.72,-1674.06 495.18,-1679.86 509.97,-1682.85"/>
<polygon fill="#63b8ff" stroke="#63b8ff" points="335.93,-972.25 331.94,-962.43 328.94,-972.59 335.93,-972.25"/>
</a>
</g>
</g>
<!-- Node10 -->
<g id="Node000010" class="node">
<title>Node10</title>
<g id="a_Node000010"><a xlink:href="../../dd/d3c/classclients_1_1http_1_1plugin_1_1ComponentBase.html" target="_top" xlink:title=" ">
<polygon fill="white" stroke="#bfbfbf" points="632,-1654.5 522,-1654.5 522,-1624.5 632,-1624.5 632,-1654.5"/>
<text text-anchor="start" x="530" y="-1642.5" font-family="Helvetica,sans-Serif" font-size="10.00">clients::http::plugin</text>
<text text-anchor="middle" x="577" y="-1631.5" font-family="Helvetica,sans-Serif" font-size="10.00">::ComponentBase</text>
</a>
</g>
</g>
<!-- Node1&#45;&gt;Node10 -->
<g id="edge9_Node000001_Node000010" class="edge">
<title>Node1&#45;&gt;Node10</title>
<g id="a_edge9_Node000001_Node000010"><a xlink:title=" ">
<path fill="none" stroke="#63b8ff" d="M332.85,-972.37C340.02,-1072.32 376.96,-1519.07 470,-1614.5 483.53,-1628.38 503.22,-1635.15 521.96,-1638.28"/>
<polygon fill="#63b8ff" stroke="#63b8ff" points="336.32,-971.9 332.13,-962.17 329.34,-972.39 336.32,-971.9"/>
</a>
</g>
</g>
<!-- Node12 -->
<g id="Node000012" class="node">
<title>Node12</title>
<g id="a_Node000012"><a xlink:href="../../dc/d75/classcomponents_1_1AuthCheckerSettings.html" target="_top" xlink:title="Component that loads auth configuration settings from a components::Secdist component if the latter w...">
<polygon fill="white" stroke="#666666" points="669,-1606 485,-1606 485,-1587 669,-1587 669,-1606"/>
<text text-anchor="middle" x="577" y="-1594" font-family="Helvetica,sans-Serif" font-size="10.00">components::AuthCheckerSettings</text>
</a>
</g>
</g>
<!-- Node1&#45;&gt;Node12 -->
<g id="edge11_Node000001_Node000012" class="edge">
<title>Node1&#45;&gt;Node12</title>
<g id="a_edge11_Node000001_Node000012"><a xlink:title=" ">
<path fill="none" stroke="#63b8ff" d="M333,-972.27C340.72,-1068.9 379.29,-1490.41 470,-1577.5 474.45,-1581.77 479.52,-1585.26 484.96,-1588.09"/>
<polygon fill="#63b8ff" stroke="#63b8ff" points="336.47,-971.84 332.21,-962.14 329.5,-972.38 336.47,-971.84"/>
</a>
</g>
</g>
<!-- Node13 -->
<g id="Node000013" class="node">
<title>Node13</title>
<g id="a_Node000013"><a xlink:href="../../df/dd1/classcomponents_1_1CachingComponentBase.html" target="_top" xlink:title="Base class for caching components.">
<polygon fill="#fff0f0" stroke="red" points="666,-1568.5 488,-1568.5 488,-1538.5 666,-1538.5 666,-1568.5"/>
<text text-anchor="start" x="496" y="-1556.5" font-family="Helvetica,sans-Serif" font-size="10.00">components::CachingComponent</text>
<text text-anchor="middle" x="577" y="-1545.5" font-family="Helvetica,sans-Serif" font-size="10.00">Base&lt; T &gt;</text>
</a>
</g>
</g>
<!-- Node1&#45;&gt;Node13 -->
<g id="edge12_Node000001_Node000013" class="edge">
<title>Node1&#45;&gt;Node13</title>
<g id="a_edge12_Node000001_Node000013"><a xlink:title=" ">
<path fill="none" stroke="#63b8ff" d="M333.51,-972.35C343.2,-1064.18 388.05,-1446.9 470,-1528.5 475.23,-1533.7 481.32,-1537.9 487.89,-1541.28"/>
<polygon fill="#63b8ff" stroke="#63b8ff" points="336.97,-971.79 332.46,-962.21 330.01,-972.51 336.97,-971.79"/>
</a>
</g>
</g>
<!-- Node15 -->
<g id="Node000015" class="node">
<title>Node15</title>
<g id="a_Node000015"><a xlink:href="../../d8/daa/classcomponents_1_1ClickHouse.html" target="_top" xlink:title="ClickHouse client component.">
<polygon fill="white" stroke="#666666" points="645.5,-1520 508.5,-1520 508.5,-1501 645.5,-1501 645.5,-1520"/>
<text text-anchor="middle" x="577" y="-1508" font-family="Helvetica,sans-Serif" font-size="10.00">components::ClickHouse</text>
</a>
</g>
</g>
<!-- Node1&#45;&gt;Node15 -->
<g id="edge13_Node000001_Node000015" class="edge">
<title>Node1&#45;&gt;Node15</title>
<g id="a_edge13_Node000001_Node000015"><a xlink:title=" ">
<path fill="none" stroke="#63b8ff" d="M333.71,-972C344.06,-1059.87 390.64,-1417.82 470,-1491.5 480.55,-1501.3 494.34,-1506.92 508.47,-1509.99"/>
<polygon fill="#63b8ff" stroke="#63b8ff" points="337.18,-971.58 332.56,-962.05 330.23,-972.39 337.18,-971.58"/>
</a>
</g>
</g>
<!-- Node16 -->
<g id="Node000016" class="node">
<title>Node16</title>
<g id="a_Node000016"><a xlink:href="../../de/d65/classcomponents_1_1DefaultSecdistProvider.html" target="_top" xlink:title="Component that stores security related data (keys, passwords, ...).">
<polygon fill="white" stroke="#666666" points="654,-1482.5 500,-1482.5 500,-1452.5 654,-1452.5 654,-1482.5"/>
<text text-anchor="start" x="508" y="-1470.5" font-family="Helvetica,sans-Serif" font-size="10.00">components::DefaultSecdist</text>
<text text-anchor="middle" x="577" y="-1459.5" font-family="Helvetica,sans-Serif" font-size="10.00">Provider</text>
</a>
</g>
</g>
<!-- Node1&#45;&gt;Node16 -->
<g id="edge14_Node000001_Node000016" class="edge">
<title>Node1&#45;&gt;Node16</title>
<g id="a_edge14_Node000001_Node000016"><a xlink:title=" ">
<path fill="none" stroke="#63b8ff" d="M334.38,-972.23C346.88,-1055.18 399.02,-1374.57 470,-1442.5 478.4,-1450.54 488.88,-1456.16 499.96,-1460.06"/>
<polygon fill="#63b8ff" stroke="#63b8ff" points="337.84,-971.71 332.91,-962.33 330.92,-972.74 337.84,-971.71"/>
</a>
</g>
</g>
<!-- Node17 -->
<g id="Node000017" class="node">
<title>Node17</title>
<g id="a_Node000017"><a xlink:href="../../d2/da7/classcomponents_1_1DumpConfigurator.html" target="_top" xlink:title="Helper component that manages common configuration for userver dumps.">
<polygon fill="white" stroke="#666666" points="663,-1434 491,-1434 491,-1415 663,-1415 663,-1434"/>
<text text-anchor="middle" x="577" y="-1422" font-family="Helvetica,sans-Serif" font-size="10.00">components::DumpConfigurator</text>
</a>
</g>
</g>
<!-- Node1&#45;&gt;Node17 -->
<g id="edge15_Node000001_Node000017" class="edge">
<title>Node1&#45;&gt;Node17</title>
<g id="a_edge15_Node000001_Node000017"><a xlink:title=" ">
<path fill="none" stroke="#63b8ff" d="M330.88,-972.2C329.79,-1043.03 336.26,-1286.84 470,-1405.5 476.15,-1410.96 483.32,-1415.1 490.98,-1418.22"/>
<polygon fill="#63b8ff" stroke="#63b8ff" points="334.38,-972.11 331.11,-962.03 327.38,-971.95 334.38,-972.11"/>
</a>
</g>
</g>
<!-- Node18 -->
<g id="Node000018" class="node">
<title>Node18</title>
<g id="a_Node000018"><a xlink:href="../../d8/d1f/classcomponents_1_1DynamicConfigClient.html" target="_top" xlink:title="Component that starts a clients::dynamic_config::Client client.">
<polygon fill="white" stroke="#666666" points="655.5,-1396.5 498.5,-1396.5 498.5,-1366.5 655.5,-1366.5 655.5,-1396.5"/>
<text text-anchor="start" x="506.5" y="-1384.5" font-family="Helvetica,sans-Serif" font-size="10.00">components::DynamicConfig</text>
<text text-anchor="middle" x="577" y="-1373.5" font-family="Helvetica,sans-Serif" font-size="10.00">Client</text>
</a>
</g>
</g>
<!-- Node1&#45;&gt;Node18 -->
<g id="edge16_Node000001_Node000018" class="edge">
<title>Node1&#45;&gt;Node18</title>
<g id="a_edge16_Node000001_Node000018"><a xlink:title=" ">
<path fill="none" stroke="#63b8ff" d="M331.89,-972.47C334.3,-1038.4 351.37,-1250.91 470,-1357.5 478.14,-1364.81 488.03,-1370.05 498.47,-1373.76"/>
<polygon fill="#63b8ff" stroke="#63b8ff" points="335.38,-972.13 331.59,-962.24 328.38,-972.34 335.38,-972.13"/>
</a>
</g>
</g>
<!-- Node19 -->
<g id="Node000019" class="node">
<title>Node19</title>
<g id="a_Node000019"><a xlink:href="../../d8/d9c/classcomponents_1_1DynamicConfigFallbacks.html" target="_top" xlink:title="Component that setup runtime configs based on fallbacks from file.">
<polygon fill="white" stroke="#666666" points="655.5,-1348.5 498.5,-1348.5 498.5,-1318.5 655.5,-1318.5 655.5,-1348.5"/>
<text text-anchor="start" x="506.5" y="-1336.5" font-family="Helvetica,sans-Serif" font-size="10.00">components::DynamicConfig</text>
<text text-anchor="middle" x="577" y="-1325.5" font-family="Helvetica,sans-Serif" font-size="10.00">Fallbacks</text>
</a>
</g>
</g>
<!-- Node1&#45;&gt;Node19 -->
<g id="edge17_Node000001_Node000019" class="edge">
<title>Node1&#45;&gt;Node19</title>
<g id="a_edge17_Node000001_Node000019"><a xlink:title=" ">
<path fill="none" stroke="#63b8ff" d="M332.89,-972.08C338.26,-1032.48 363.11,-1217.31 470,-1309.5 478.22,-1316.59 488.09,-1321.7 498.46,-1325.37"/>
<polygon fill="#63b8ff" stroke="#63b8ff" points="336.37,-971.7 332.07,-962.02 329.39,-972.27 336.37,-971.7"/>
</a>
</g>
</g>
<!-- Node20 -->
<g id="Node000020" class="node">
<title>Node20</title>
<g id="a_Node000020"><a xlink:href="../../d9/d43/classcomponents_1_1DynamicConfigUpdatesSinkBase.html" target="_top" xlink:title="Base class for components acting as dynamic config updates sinks.">
<polygon fill="#fff0f0" stroke="red" points="655.5,-1300.5 498.5,-1300.5 498.5,-1270.5 655.5,-1270.5 655.5,-1300.5"/>
<text text-anchor="start" x="506.5" y="-1288.5" font-family="Helvetica,sans-Serif" font-size="10.00">components::DynamicConfig</text>
<text text-anchor="middle" x="577" y="-1277.5" font-family="Helvetica,sans-Serif" font-size="10.00">UpdatesSinkBase</text>
</a>
</g>
</g>
<!-- Node1&#45;&gt;Node20 -->
<g id="edge18_Node000001_Node000020" class="edge">
<title>Node1&#45;&gt;Node20</title>
<g id="a_edge18_Node000001_Node000020"><a xlink:title=" ">
<path fill="none" stroke="#63b8ff" d="M334.28,-972.22C343.09,-1027.08 375.64,-1182.64 470,-1260.5 478.31,-1267.36 488.18,-1272.4 498.49,-1276.1"/>
<polygon fill="#63b8ff" stroke="#63b8ff" points="337.7,-971.46 332.74,-962.1 330.78,-972.51 337.7,-971.46"/>
</a>
</g>
</g>
<!-- Node22 -->
<g id="Node000022" class="node">
<title>Node22</title>
<g id="a_Node000022"><a xlink:href="../../da/dd3/classcomponents_1_1FsCache.html" target="_top" xlink:title="Component for storing files in memory.">
<polygon fill="white" stroke="#666666" points="639,-1252 515,-1252 515,-1233 639,-1233 639,-1252"/>
<text text-anchor="middle" x="577" y="-1240" font-family="Helvetica,sans-Serif" font-size="10.00">components::FsCache</text>
</a>
</g>
</g>
<!-- Node1&#45;&gt;Node22 -->
<g id="edge19_Node000001_Node000022" class="edge">
<title>Node1&#45;&gt;Node22</title>
<g id="a_edge19_Node000001_Node000022"><a xlink:title=" ">
<path fill="none" stroke="#63b8ff" d="M335.29,-972.11C346.19,-1022.8 382.59,-1158.71 470,-1223.5 482.92,-1233.07 499.12,-1238.36 514.94,-1241.16"/>
<polygon fill="#63b8ff" stroke="#63b8ff" points="338.68,-971.23 333.25,-962.14 331.83,-972.64 338.68,-971.23"/>
</a>
</g>
</g>
<!-- Node23 -->
<g id="Node000023" class="node">
<title>Node23</title>
<g id="a_Node000023"><a xlink:href="../../d4/df0/classcomponents_1_1HeadersPropagatorComponent.html" target="_top" xlink:title="Headers Propagator Component can scrape configured headers and then enrich HttpClient request with th...">
<polygon fill="white" stroke="#666666" points="665,-1214.5 489,-1214.5 489,-1184.5 665,-1184.5 665,-1214.5"/>
<text text-anchor="start" x="497" y="-1202.5" font-family="Helvetica,sans-Serif" font-size="10.00">components::HeadersPropagator</text>
<text text-anchor="middle" x="577" y="-1191.5" font-family="Helvetica,sans-Serif" font-size="10.00">Component</text>
</a>
</g>
</g>
<!-- Node1&#45;&gt;Node23 -->
<g id="edge20_Node000001_Node000023" class="edge">
<title>Node1&#45;&gt;Node23</title>
<g id="a_edge20_Node000001_Node000023"><a xlink:title=" ">
<path fill="none" stroke="#63b8ff" d="M337.87,-972.09C353.15,-1015.78 396.16,-1121.53 470,-1174.5 475.76,-1178.63 482.11,-1182.09 488.75,-1184.98"/>
<polygon fill="#63b8ff" stroke="#63b8ff" points="341.11,-970.73 334.59,-962.39 334.48,-972.98 341.11,-970.73"/>
</a>
</g>
</g>
<!-- Node24 -->
<g id="Node000024" class="node">
<title>Node24</title>
<g id="a_Node000024"><a xlink:href="../../dd/d5a/classcomponents_1_1HttpClient.html" target="_top" xlink:title="Component that manages clients::http::Client.">
<polygon fill="white" stroke="#666666" points="643,-1166 511,-1166 511,-1147 643,-1147 643,-1166"/>
<text text-anchor="middle" x="577" y="-1154" font-family="Helvetica,sans-Serif" font-size="10.00">components::HttpClient</text>
</a>
</g>
</g>
<!-- Node1&#45;&gt;Node24 -->
<g id="edge21_Node000001_Node000024" class="edge">
<title>Node1&#45;&gt;Node24</title>
<g id="a_edge21_Node000001_Node000024"><a xlink:title=" ">
<path fill="none" stroke="#63b8ff" d="M339.83,-971.65C357.62,-1010.05 403.21,-1096.29 470,-1137.5 482.25,-1145.06 496.72,-1149.79 510.97,-1152.71"/>
<polygon fill="#63b8ff" stroke="#63b8ff" points="342.86,-969.84 335.56,-962.16 336.48,-972.72 342.86,-969.84"/>
</a>
</g>
</g>
<!-- Node25 -->
<g id="Node000025" class="node">
<title>Node25</title>
<g id="a_Node000025"><a xlink:href="../../d0/dda/classcomponents_1_1Mongo.html" target="_top" xlink:title="MongoDB client component.">
<polygon fill="white" stroke="#666666" points="635,-1129 519,-1129 519,-1110 635,-1110 635,-1129"/>
<text text-anchor="middle" x="577" y="-1117" font-family="Helvetica,sans-Serif" font-size="10.00">components::Mongo</text>
</a>
</g>
</g>
<!-- Node1&#45;&gt;Node25 -->
<g id="edge22_Node000001_Node000025" class="edge">
<title>Node1&#45;&gt;Node25</title>
<g id="a_edge22_Node000001_Node000025"><a xlink:title=" ">
<path fill="none" stroke="#63b8ff" d="M342.85,-970.87C363.72,-1002.92 411.44,-1068.66 470,-1100.5 484.78,-1108.54 502.27,-1113.27 518.74,-1116.03"/>
<polygon fill="#63b8ff" stroke="#63b8ff" points="345.58,-968.64 337.26,-962.08 339.67,-972.4 345.58,-968.64"/>
</a>
</g>
</g>
<!-- Node26 -->
<g id="Node000026" class="node">
<title>Node26</title>
<g id="a_Node000026"><a xlink:href="../../d2/d4a/classcomponents_1_1MultiMongo.html" target="_top" xlink:title="Dynamically configurable MongoDB client component.">
<polygon fill="white" stroke="#666666" points="647,-1092 507,-1092 507,-1073 647,-1073 647,-1092"/>
<text text-anchor="middle" x="577" y="-1080" font-family="Helvetica,sans-Serif" font-size="10.00">components::MultiMongo</text>
</a>
</g>
</g>
<!-- Node1&#45;&gt;Node26 -->
<g id="edge23_Node000001_Node000026" class="edge">
<title>Node1&#45;&gt;Node26</title>
<g id="a_edge23_Node000001_Node000026"><a xlink:title=" ">
<path fill="none" stroke="#63b8ff" d="M346.98,-969.41C370.81,-994.3 419.12,-1040.38 470,-1063.5 481.49,-1068.72 494.29,-1072.51 506.91,-1075.26"/>
<polygon fill="#63b8ff" stroke="#63b8ff" points="349.52,-967.01 340.12,-962.12 344.43,-971.8 349.52,-967.01"/>
</a>
</g>
</g>
<!-- Node27 -->
<g id="Node000027" class="node">
<title>Node27</title>
<g id="a_Node000027"><a xlink:href="../../d1/d92/classcomponents_1_1Postgres.html" target="_top" xlink:title="PosgreSQL client component.">
<polygon fill="white" stroke="#666666" points="639.5,-1055 514.5,-1055 514.5,-1036 639.5,-1036 639.5,-1055"/>
<text text-anchor="middle" x="577" y="-1043" font-family="Helvetica,sans-Serif" font-size="10.00">components::Postgres</text>
</a>
</g>
</g>
<!-- Node1&#45;&gt;Node27 -->
<g id="edge24_Node000001_Node000027" class="edge">
<title>Node1&#45;&gt;Node27</title>
<g id="a_edge24_Node000001_Node000027"><a xlink:title=" ">
<path fill="none" stroke="#63b8ff" d="M354.35,-967.62C381,-984.54 426.92,-1011.55 470,-1026.5 484.04,-1031.37 499.58,-1035.05 514.34,-1037.81"/>
<polygon fill="#63b8ff" stroke="#63b8ff" points="356.07,-964.56 345.76,-962.09 352.28,-970.44 356.07,-964.56"/>
</a>
</g>
</g>
<!-- Node28 -->
<g id="Node000028" class="node">
<title>Node28</title>
<g id="a_Node000028"><a xlink:href="../../d6/d8c/classcomponents_1_1ProcessStarter.html" target="_top" xlink:title="Component for getting the engine::subprocess::ProcessStarter.">
<polygon fill="white" stroke="#666666" points="653.5,-1018 500.5,-1018 500.5,-999 653.5,-999 653.5,-1018"/>
<text text-anchor="middle" x="577" y="-1006" font-family="Helvetica,sans-Serif" font-size="10.00">components::ProcessStarter</text>
</a>
</g>
</g>
<!-- Node1&#45;&gt;Node28 -->
<g id="edge25_Node000001_Node000028" class="edge">
<title>Node1&#45;&gt;Node28</title>
<g id="a_edge25_Node000001_Node000028"><a xlink:title=" ">
<path fill="none" stroke="#63b8ff" d="M373.68,-964.75C401.01,-972.44 437.44,-982.25 470,-989.5 485.42,-992.94 502.21,-996.17 517.78,-998.97"/>
<polygon fill="#63b8ff" stroke="#63b8ff" points="374.63,-961.38 364.05,-962.02 372.72,-968.12 374.63,-961.38"/>
</a>
</g>
</g>
<!-- Node29 -->
<g id="Node000029" class="node">
<title>Node29</title>
<g id="a_Node000029"><a xlink:href="../../d5/d23/classcomponents_1_1RabbitMQ.html" target="_top" xlink:title="RabbitMQ (AMQP 0.9.1) client component.">
<polygon fill="white" stroke="#666666" points="642.5,-981 511.5,-981 511.5,-962 642.5,-962 642.5,-981"/>
<text text-anchor="middle" x="577" y="-969" font-family="Helvetica,sans-Serif" font-size="10.00">components::RabbitMQ</text>
</a>
</g>
</g>
<!-- Node1&#45;&gt;Node29 -->
<g id="edge26_Node000001_Node000029" class="edge">
<title>Node1&#45;&gt;Node29</title>
<g id="a_edge26_Node000001_Node000029"><a xlink:title=" ">
<path fill="none" stroke="#63b8ff" d="M444.29,-961.26C467.26,-963.05 490.68,-964.87 511.28,-966.47"/>
<polygon fill="#63b8ff" stroke="#63b8ff" points="444.37,-957.76 434.13,-960.48 443.83,-964.74 444.37,-957.76"/>
</a>
</g>
</g>
<!-- Node30 -->
<g id="Node000030" class="node">
<title>Node30</title>
<g id="a_Node000030"><a xlink:href="../../d6/dd0/classcomponents_1_1Redis.html" target="_top" xlink:title="Redis client component.">
<polygon fill="white" stroke="#666666" points="632,-944 522,-944 522,-925 632,-925 632,-944"/>
<text text-anchor="middle" x="577" y="-932" font-family="Helvetica,sans-Serif" font-size="10.00">components::Redis</text>
</a>
</g>
</g>
<!-- Node1&#45;&gt;Node30 -->
<g id="edge27_Node000001_Node000030" class="edge">
<title>Node1&#45;&gt;Node30</title>
<g id="a_edge27_Node000001_Node000030"><a xlink:title=" ">
<path fill="none" stroke="#63b8ff" d="M444.44,-944.19C471.45,-942.2 499.07,-940.16 521.98,-938.48"/>
<polygon fill="#63b8ff" stroke="#63b8ff" points="443.84,-940.72 434.13,-944.94 444.36,-947.7 443.84,-940.72"/>
</a>
</g>
</g>
<!-- Node31 -->
<g id="Node000031" class="node">
<title>Node31</title>
<g id="a_Node000031"><a xlink:href="../../da/dc7/classcomponents_1_1Secdist.html" target="_top" xlink:title="Component that stores security related data (keys, passwords, ...).">
<polygon fill="white" stroke="#666666" points="636,-907 518,-907 518,-888 636,-888 636,-907"/>
<text text-anchor="middle" x="577" y="-895" font-family="Helvetica,sans-Serif" font-size="10.00">components::Secdist</text>
</a>
</g>
</g>
<!-- Node1&#45;&gt;Node31 -->
<g id="edge28_Node000001_Node000031" class="edge">
<title>Node1&#45;&gt;Node31</title>
<g id="a_edge28_Node000001_Node000031"><a xlink:title=" ">
<path fill="none" stroke="#63b8ff" d="M373.39,-940.22C400.73,-932.48 437.3,-922.63 470,-915.5 485.41,-912.14 502.2,-909.04 517.77,-906.39"/>
<polygon fill="#63b8ff" stroke="#63b8ff" points="372.41,-936.86 363.75,-942.97 374.33,-943.59 372.41,-936.86"/>
</a>
</g>
</g>
<!-- Node32 -->
<g id="Node000032" class="node">
<title>Node32</title>
<g id="a_Node000032"><a xlink:href="../../d0/d0b/classcomponents_1_1Server.html" target="_top" xlink:title="Component that listens for incoming requests, manages incoming connections and passes the requests to...">
<polygon fill="white" stroke="#666666" points="634,-870 520,-870 520,-851 634,-851 634,-870"/>
<text text-anchor="middle" x="577" y="-858" font-family="Helvetica,sans-Serif" font-size="10.00">components::Server</text>
</a>
</g>
</g>
<!-- Node1&#45;&gt;Node32 -->
<g id="edge29_Node000001_Node000032" class="edge">
<title>Node1&#45;&gt;Node32</title>
<g id="a_edge29_Node000001_Node000032"><a xlink:title=" ">
<path fill="none" stroke="#63b8ff" d="M354.33,-937.31C380.96,-920.32 426.85,-893.25 470,-878.5 485.81,-873.1 503.52,-869.27 519.87,-866.58"/>
<polygon fill="#63b8ff" stroke="#63b8ff" points="352.24,-934.49 345.75,-942.86 356.04,-940.37 352.24,-934.49"/>
</a>
</g>
</g>
<!-- Node33 -->
<g id="Node000033" class="node">
<title>Node33</title>
<g id="a_Node000033"><a xlink:href="../../d4/dfa/classcomponents_1_1SingleThreadedTaskProcessors.html" target="_top" xlink:title="Component that starts multiple single threaded task processors.">
<polygon fill="white" stroke="#666666" points="656,-832.5 498,-832.5 498,-802.5 656,-802.5 656,-832.5"/>
<text text-anchor="start" x="506" y="-820.5" font-family="Helvetica,sans-Serif" font-size="10.00">components::SingleThreaded</text>
<text text-anchor="middle" x="577" y="-809.5" font-family="Helvetica,sans-Serif" font-size="10.00">TaskProcessors</text>
</a>
</g>
</g>
<!-- Node1&#45;&gt;Node33 -->
<g id="edge30_Node000001_Node000033" class="edge">
<title>Node1&#45;&gt;Node33</title>
<g id="a_edge30_Node000001_Node000033"><a xlink:title=" ">
<path fill="none" stroke="#63b8ff" d="M347.47,-935.52C371.61,-910.91 419.9,-865.65 470,-841.5 478.75,-837.28 488.28,-833.79 497.9,-830.9"/>
<polygon fill="#63b8ff" stroke="#63b8ff" points="344.94,-933.1 340.51,-942.73 349.98,-937.97 344.94,-933.1"/>
</a>
</g>
</g>
<!-- Node34 -->
<g id="Node000034" class="node">
<title>Node34</title>
<g id="a_Node000034"><a xlink:href="../../df/df4/classcomponents_1_1SystemStatisticsCollector.html" target="_top" xlink:title="Component for system resource usage statistics collection.">
<polygon fill="white" stroke="#666666" points="659,-784.5 495,-784.5 495,-754.5 659,-754.5 659,-784.5"/>
<text text-anchor="start" x="503" y="-772.5" font-family="Helvetica,sans-Serif" font-size="10.00">components::SystemStatistics</text>
<text text-anchor="middle" x="577" y="-761.5" font-family="Helvetica,sans-Serif" font-size="10.00">Collector</text>
</a>
</g>
</g>
<!-- Node1&#45;&gt;Node34 -->
<g id="edge31_Node000001_Node000034" class="edge">
<title>Node1&#45;&gt;Node34</title>
<g id="a_edge31_Node000001_Node000034"><a xlink:title=" ">
<path fill="none" stroke="#63b8ff" d="M342.1,-933.96C362.35,-900.31 409.93,-829.38 470,-793.5 477.69,-788.9 486.18,-785.19 494.91,-782.18"/>
<polygon fill="#63b8ff" stroke="#63b8ff" points="338.97,-932.37 336.92,-942.76 345.01,-935.92 338.97,-932.37"/>
</a>
</g>
</g>
<!-- Node35 -->
<g id="Node000035" class="node">
<title>Node35</title>
<g id="a_Node000035"><a xlink:href="../../d1/dbc/classcomponents_1_1TcpAcceptorBase.html" target="_top" xlink:title="Component for accepting incoming TCP connections.">
<polygon fill="white" stroke="#666666" points="659.5,-736 494.5,-736 494.5,-717 659.5,-717 659.5,-736"/>
<text text-anchor="middle" x="577" y="-724" font-family="Helvetica,sans-Serif" font-size="10.00">components::TcpAcceptorBase</text>
</a>
</g>
</g>
<!-- Node1&#45;&gt;Node35 -->
<g id="edge32_Node000001_Node000035" class="edge">
<title>Node1&#45;&gt;Node35</title>
<g id="a_edge32_Node000001_Node000035"><a xlink:title=" ">
<path fill="none" stroke="#63b8ff" d="M338.4,-933.1C354.37,-891.26 398.1,-792.53 470,-745.5 477.43,-740.64 485.76,-736.93 494.38,-734.11"/>
<polygon fill="#63b8ff" stroke="#63b8ff" points="335.05,-932.07 334.86,-942.66 341.62,-934.5 335.05,-932.07"/>
</a>
</g>
</g>
<!-- Node36 -->
<g id="Node000036" class="node">
<title>Node36</title>
<g id="a_Node000036"><a xlink:href="../../de/dac/classcongestion__control_1_1Component.html" target="_top" xlink:title="Component to limit too active requests, also known as CC.">
<polygon fill="white" stroke="#666666" points="631.5,-698.5 522.5,-698.5 522.5,-668.5 631.5,-668.5 631.5,-698.5"/>
<text text-anchor="start" x="530.5" y="-686.5" font-family="Helvetica,sans-Serif" font-size="10.00">congestion_control</text>
<text text-anchor="middle" x="577" y="-675.5" font-family="Helvetica,sans-Serif" font-size="10.00">::Component</text>
</a>
</g>
</g>
<!-- Node1&#45;&gt;Node36 -->
<g id="edge33_Node000001_Node000036" class="edge">
<title>Node1&#45;&gt;Node36</title>
<g id="a_edge33_Node000001_Node000036"><a xlink:title=" ">
<path fill="none" stroke="#63b8ff" d="M336.58,-933.1C349.87,-886.31 390.33,-766.75 470,-707.5 485.06,-696.3 504.43,-690.18 522.48,-686.88"/>
<polygon fill="#63b8ff" stroke="#63b8ff" points="333.16,-932.31 333.9,-942.88 339.91,-934.16 333.16,-932.31"/>
</a>
</g>
</g>
<!-- Node37 -->
<g id="Node000037" class="node">
<title>Node37</title>
<g id="a_Node000037"><a xlink:href="../../d5/d0e/classengine_1_1TaskProcessorsLoadMonitor.html" target="_top" xlink:title="Component to monitor CPU usage for every TaskProcessor present in the service, and dump per&#45;thread st...">
<polygon fill="white" stroke="#666666" points="653.5,-650.5 500.5,-650.5 500.5,-620.5 653.5,-620.5 653.5,-650.5"/>
<text text-anchor="start" x="508.5" y="-638.5" font-family="Helvetica,sans-Serif" font-size="10.00">engine::TaskProcessorsLoad</text>
<text text-anchor="middle" x="577" y="-627.5" font-family="Helvetica,sans-Serif" font-size="10.00">Monitor</text>
</a>
</g>
</g>
<!-- Node1&#45;&gt;Node37 -->
<g id="edge34_Node000001_Node000037" class="edge">
<title>Node1&#45;&gt;Node37</title>
<g id="a_edge34_Node000001_Node000037"><a xlink:title=" ">
<path fill="none" stroke="#63b8ff" d="M334.75,-932.64C344.57,-879.38 379.01,-732.47 470,-659.5 478.83,-652.42 489.35,-647.34 500.27,-643.71"/>
<polygon fill="#63b8ff" stroke="#63b8ff" points="331.25,-932.33 332.98,-942.78 338.15,-933.54 331.25,-932.33"/>
</a>
</g>
</g>
<!-- Node38 -->
<g id="Node000038" class="node">
<title>Node38</title>
<g id="a_Node000038"><a xlink:href="../../d1/ddc/classserver_1_1handlers_1_1HandlerBase.html" target="_top" xlink:title="Base class for the request handlers.">
<polygon fill="#fff0f0" stroke="red" points="659,-602 495,-602 495,-583 659,-583 659,-602"/>
<text text-anchor="middle" x="577" y="-590" font-family="Helvetica,sans-Serif" font-size="10.00">server::handlers::HandlerBase</text>
</a>
</g>
</g>
<!-- Node1&#45;&gt;Node38 -->
<g id="edge35_Node000001_Node000038" class="edge">
<title>Node1&#45;&gt;Node38</title>
<g id="a_edge35_Node000001_Node000038"><a xlink:title=" ">
<path fill="none" stroke="#63b8ff" d="M333.09,-932.81C338.99,-873.68 365.06,-696.56 470,-611.5 477.33,-605.55 485.9,-601.22 494.93,-598.08"/>
<polygon fill="#63b8ff" stroke="#63b8ff" points="329.58,-932.72 332.16,-943 336.56,-933.35 329.58,-932.72"/>
</a>
</g>
</g>
<!-- Node53 -->
<g id="Node000053" class="node">
<title>Node53</title>
<g id="a_Node000053"><a xlink:href="../../d2/d38/classserver_1_1handlers_1_1auth_1_1digest_1_1AuthCheckerSettingsComponent.html" target="_top" xlink:title="Component that loads digest auth configuration settings from a static_config.yaml.">
<polygon fill="#fff0f0" stroke="red" points="657,-565 497,-565 497,-524 657,-524 657,-565"/>
<text text-anchor="start" x="505" y="-553" font-family="Helvetica,sans-Serif" font-size="10.00">server::handlers::auth</text>
<text text-anchor="start" x="505" y="-542" font-family="Helvetica,sans-Serif" font-size="10.00">::digest::AuthCheckerSettings</text>
<text text-anchor="middle" x="577" y="-531" font-family="Helvetica,sans-Serif" font-size="10.00">Component</text>
</a>
</g>
</g>
<!-- Node1&#45;&gt;Node53 -->
<g id="edge36_Node000001_Node000053" class="edge">
<title>Node1&#45;&gt;Node53</title>
<g id="a_edge36_Node000001_Node000053"><a xlink:title=" ">
<path fill="none" stroke="#63b8ff" d="M332.6,-932.77C337.18,-870.23 360.07,-674.63 470,-573.5 477.72,-566.4 487.02,-561 496.86,-556.92"/>
<polygon fill="#63b8ff" stroke="#63b8ff" points="329.1,-932.63 331.94,-942.84 336.09,-933.09 329.1,-932.63"/>
</a>
</g>
</g>
<!-- Node55 -->
<g id="Node000055" class="node">
<title>Node55</title>
<g id="a_Node000055"><a xlink:href="../../db/df7/classstorages_1_1mongo_1_1DistLockComponentBase.html" target="_top" xlink:title="Base class for mongo&#45;based distlock worker components.">
<polygon fill="white" stroke="#666666" points="650,-505.5 504,-505.5 504,-475.5 650,-475.5 650,-505.5"/>
<text text-anchor="start" x="512" y="-493.5" font-family="Helvetica,sans-Serif" font-size="10.00">storages::mongo::DistLock</text>
<text text-anchor="middle" x="577" y="-482.5" font-family="Helvetica,sans-Serif" font-size="10.00">ComponentBase</text>
</a>
</g>
</g>
<!-- Node1&#45;&gt;Node55 -->
<g id="edge37_Node000001_Node000055" class="edge">
<title>Node1&#45;&gt;Node55</title>
<g id="a_edge37_Node000001_Node000055"><a xlink:title=" ">
<path fill="none" stroke="#63b8ff" d="M331.3,-932.31C331.78,-862.77 343.2,-631.12 470,-514.5 479.44,-505.81 491.35,-500.05 503.74,-496.27"/>
<polygon fill="#63b8ff" stroke="#63b8ff" points="327.8,-932.7 331.31,-942.69 334.8,-932.69 327.8,-932.7"/>
</a>
</g>
</g>
<!-- Node56 -->
<g id="Node000056" class="node">
<title>Node56</title>
<g id="a_Node000056"><a xlink:href="../../d5/d20/classstorages_1_1mysql_1_1Component.html" target="_top" xlink:title="MySQL/MariaDB client component.">
<polygon fill="white" stroke="#666666" points="655.5,-457 498.5,-457 498.5,-438 655.5,-438 655.5,-457"/>
<text text-anchor="middle" x="577" y="-445" font-family="Helvetica,sans-Serif" font-size="10.00">storages::mysql::Component</text>
</a>
</g>
</g>
<!-- Node1&#45;&gt;Node56 -->
<g id="edge38_Node000001_Node000056" class="edge">
<title>Node1&#45;&gt;Node56</title>
<g id="a_edge38_Node000001_Node000056"><a xlink:title=" ">
<path fill="none" stroke="#63b8ff" d="M334.35,-932.58C346.64,-849.49 397.76,-531.84 470,-466.5 478.04,-459.23 487.88,-454.27 498.29,-450.96"/>
<polygon fill="#63b8ff" stroke="#63b8ff" points="330.85,-932.3 332.87,-942.7 337.78,-933.3 330.85,-932.3"/>
</a>
</g>
</g>
<!-- Node57 -->
<g id="Node000057" class="node">
<title>Node57</title>
<g id="a_Node000057"><a xlink:href="../../d2/d55/classstorages_1_1postgres_1_1DistLockComponentBase.html" target="_top" xlink:title="Base class for postgres&#45;based distlock worker components.">
<polygon fill="white" stroke="#666666" points="649.5,-419.5 504.5,-419.5 504.5,-389.5 649.5,-389.5 649.5,-419.5"/>
<text text-anchor="start" x="512.5" y="-407.5" font-family="Helvetica,sans-Serif" font-size="10.00">storages::postgres</text>
<text text-anchor="middle" x="577" y="-396.5" font-family="Helvetica,sans-Serif" font-size="10.00">::DistLockComponentBase</text>
</a>
</g>
</g>
<!-- Node1&#45;&gt;Node57 -->
<g id="edge39_Node000001_Node000057" class="edge">
<title>Node1&#45;&gt;Node57</title>
<g id="a_edge39_Node000001_Node000057"><a xlink:title=" ">
<path fill="none" stroke="#63b8ff" d="M333.98,-932.8C345.24,-846.33 394.34,-501.5 470,-428.5 479.5,-419.33 491.74,-413.38 504.49,-409.57"/>
<polygon fill="#63b8ff" stroke="#63b8ff" points="330.49,-932.47 332.69,-942.84 337.43,-933.36 330.49,-932.47"/>
</a>
</g>
</g>
<!-- Node58 -->
<g id="Node000058" class="node">
<title>Node58</title>
<g id="a_Node000058"><a xlink:href="../../da/d25/classtracing_1_1DefaultTracingManagerLocator.html" target="_top" xlink:title="Locator component that provides access to the actual TracingManager that will be used in handlers and...">
<polygon fill="white" stroke="#666666" points="662,-371.5 492,-371.5 492,-341.5 662,-341.5 662,-371.5"/>
<text text-anchor="start" x="500" y="-359.5" font-family="Helvetica,sans-Serif" font-size="10.00">tracing::DefaultTracingManager</text>
<text text-anchor="middle" x="577" y="-348.5" font-family="Helvetica,sans-Serif" font-size="10.00">Locator</text>
</a>
</g>
</g>
<!-- Node1&#45;&gt;Node58 -->
<g id="edge40_Node000001_Node000058" class="edge">
<title>Node1&#45;&gt;Node58</title>
<g id="a_edge40_Node000001_Node000058"><a xlink:title=" ">
<path fill="none" stroke="#63b8ff" d="M333.51,-932.77C343.23,-841.49 388.16,-461.13 470,-380.5 476.25,-374.34 483.73,-369.63 491.78,-366.04"/>
<polygon fill="#63b8ff" stroke="#63b8ff" points="330.02,-932.54 332.46,-942.85 336.98,-933.27 330.02,-932.54"/>
</a>
</g>
</g>
<!-- Node59 -->
<g id="Node000059" class="node">
<title>Node59</title>
<g id="a_Node000059"><a xlink:href="../../d4/d9a/classtracing_1_1TracingManagerComponentBase.html" target="_top" xlink:title="Base component for implementing TracingManager component.">
<polygon fill="white" stroke="#666666" points="684,-323 470,-323 470,-304 684,-304 684,-323"/>
<text text-anchor="middle" x="577" y="-311" font-family="Helvetica,sans-Serif" font-size="10.00">tracing::TracingManagerComponentBase</text>
</a>
</g>
</g>
<!-- Node1&#45;&gt;Node59 -->
<g id="edge41_Node000001_Node000059" class="edge">
<title>Node1&#45;&gt;Node59</title>
<g id="a_edge41_Node000001_Node000059"><a xlink:title=" ">
<path fill="none" stroke="#63b8ff" d="M333.02,-932.89C340.87,-837.02 379.9,-418.85 470,-332.5 473.78,-328.88 478,-325.82 482.52,-323.25"/>
<polygon fill="#63b8ff" stroke="#63b8ff" points="329.53,-932.69 332.22,-942.94 336.5,-933.25 329.53,-932.69"/>
</a>
</g>
</g>
<!-- Node60 -->
<g id="Node000060" class="node">
<title>Node60</title>
<g id="a_Node000060"><a xlink:href="../../db/d02/classugrpc_1_1client_1_1ClientFactoryComponent.html" target="_top" xlink:title="Provides a ClientFactory in the component system.">
<polygon fill="white" stroke="#666666" points="650,-285.5 504,-285.5 504,-255.5 650,-255.5 650,-285.5"/>
<text text-anchor="start" x="512" y="-273.5" font-family="Helvetica,sans-Serif" font-size="10.00">ugrpc::client::ClientFactory</text>
<text text-anchor="middle" x="577" y="-262.5" font-family="Helvetica,sans-Serif" font-size="10.00">Component</text>
</a>
</g>
</g>
<!-- Node1&#45;&gt;Node60 -->
<g id="edge42_Node000001_Node000060" class="edge">
<title>Node1&#45;&gt;Node60</title>
<g id="a_edge42_Node000001_Node000060"><a xlink:title=" ">
<path fill="none" stroke="#63b8ff" d="M332.85,-932.73C340.03,-833.3 377.02,-388.91 470,-294.5 479.2,-285.16 491.22,-279.12 503.85,-275.28"/>
<polygon fill="#63b8ff" stroke="#63b8ff" points="329.35,-932.65 332.13,-942.88 336.33,-933.15 329.35,-932.65"/>
</a>
</g>
</g>
<!-- Node61 -->
<g id="Node000061" class="node">
<title>Node61</title>
<g id="a_Node000061"><a xlink:href="../../da/d1b/classugrpc_1_1client_1_1MiddlewareComponentBase.html" target="_top" xlink:title="Base class for client middleware component.">
<polygon fill="#fff0f0" stroke="red" points="647,-237.5 507,-237.5 507,-207.5 647,-207.5 647,-237.5"/>
<text text-anchor="start" x="515" y="-225.5" font-family="Helvetica,sans-Serif" font-size="10.00">ugrpc::client::Middleware</text>
<text text-anchor="middle" x="577" y="-214.5" font-family="Helvetica,sans-Serif" font-size="10.00">ComponentBase</text>
</a>
</g>
</g>
<!-- Node1&#45;&gt;Node61 -->
<g id="edge43_Node000001_Node000061" class="edge">
<title>Node1&#45;&gt;Node61</title>
<g id="a_edge43_Node000001_Node000061"><a xlink:title=" ">
<path fill="none" stroke="#63b8ff" d="M332.55,-932.61C338.45,-828.66 370.8,-348.61 470,-246.5 479.86,-236.35 493.04,-230.09 506.75,-226.3"/>
<polygon fill="#63b8ff" stroke="#63b8ff" points="329.05,-932.5 332,-942.68 336.04,-932.89 329.05,-932.5"/>
</a>
</g>
</g>
<!-- Node65 -->
<g id="Node000065" class="node">
<title>Node65</title>
<g id="a_Node000065"><a xlink:title=" ">
<polygon fill="white" stroke="orangered" points="657,-189.5 497,-189.5 497,-159.5 657,-159.5 657,-189.5"/>
<text text-anchor="start" x="505" y="-177.5" font-family="Helvetica,sans-Serif" font-size="10.00">ugrpc::client::impl</text>
<text text-anchor="middle" x="577" y="-166.5" font-family="Helvetica,sans-Serif" font-size="10.00">::SimpleClientComponentAny</text>
</a>
</g>
</g>
<!-- Node1&#45;&gt;Node65 -->
<g id="edge44_Node000001_Node000065" class="edge">
<title>Node1&#45;&gt;Node65</title>
<g id="a_edge44_Node000001_Node000065"><a xlink:title=" ">
<path fill="none" stroke="#63b8ff" d="M332.28,-932.65C336.94,-824.62 364.52,-308.4 470,-198.5 477.45,-190.74 486.83,-185.25 496.93,-181.39"/>
<polygon fill="#63b8ff" stroke="#63b8ff" points="328.78,-932.65 331.86,-942.79 335.77,-932.94 328.78,-932.65"/>
</a>
</g>
</g>
<!-- Node67 -->
<g id="Node000067" class="node">
<title>Node67</title>
<g id="a_Node000067"><a xlink:href="../../dd/d32/classugrpc_1_1server_1_1MiddlewareComponentBase.html" target="_top" xlink:title="Base class for middleware component.">
<polygon fill="#fff0f0" stroke="red" points="648.5,-141.5 505.5,-141.5 505.5,-111.5 648.5,-111.5 648.5,-141.5"/>
<text text-anchor="start" x="513.5" y="-129.5" font-family="Helvetica,sans-Serif" font-size="10.00">ugrpc::server::Middleware</text>
<text text-anchor="middle" x="577" y="-118.5" font-family="Helvetica,sans-Serif" font-size="10.00">ComponentBase</text>
</a>
</g>
</g>
<!-- Node1&#45;&gt;Node67 -->
<g id="edge45_Node000001_Node000067" class="edge">
<title>Node1&#45;&gt;Node67</title>
<g id="a_edge45_Node000001_Node000067"><a xlink:title=" ">
<path fill="none" stroke="#63b8ff" d="M332.04,-932.81C335.5,-821.15 358.17,-268.26 470,-150.5 479.48,-140.51 492.18,-134.27 505.48,-130.45"/>
<polygon fill="#63b8ff" stroke="#63b8ff" points="328.54,-932.87 331.74,-942.97 335.53,-933.08 328.54,-932.87"/>
</a>
</g>
</g>
<!-- Node72 -->
<g id="Node000072" class="node">
<title>Node72</title>
<g id="a_Node000072"><a xlink:href="../../d7/d9a/classugrpc_1_1server_1_1ServerComponent.html" target="_top" xlink:title="Component that configures and manages the gRPC server.">
<polygon fill="white" stroke="#666666" points="664,-93 490,-93 490,-74 664,-74 664,-93"/>
<text text-anchor="middle" x="577" y="-81" font-family="Helvetica,sans-Serif" font-size="10.00">ugrpc::server::ServerComponent</text>
</a>
</g>
</g>
<!-- Node1&#45;&gt;Node72 -->
<g id="edge46_Node000001_Node000072" class="edge">
<title>Node1&#45;&gt;Node72</title>
<g id="a_edge46_Node000001_Node000072"><a xlink:title=" ">
<path fill="none" stroke="#63b8ff" d="M331.75,-932.66C333.63,-816.48 349.08,-225.35 470,-102.5 475.71,-96.7 482.53,-92.33 489.93,-89.06"/>
<polygon fill="#63b8ff" stroke="#63b8ff" points="328.25,-932.86 331.6,-942.91 335.24,-932.96 328.25,-932.86"/>
</a>
</g>
</g>
<!-- Node73 -->
<g id="Node000073" class="node">
<title>Node73</title>
<g id="a_Node000073"><a xlink:href="../../df/d19/classugrpc_1_1server_1_1ServiceComponentBase.html" target="_top" xlink:title="Base class for all the gRPC service components.">
<polygon fill="white" stroke="#666666" points="678.5,-56 475.5,-56 475.5,-37 678.5,-37 678.5,-56"/>
<text text-anchor="middle" x="577" y="-44" font-family="Helvetica,sans-Serif" font-size="10.00">ugrpc::server::ServiceComponentBase</text>
</a>
</g>
</g>
<!-- Node1&#45;&gt;Node73 -->
<g id="edge47_Node000001_Node000073" class="edge">
<title>Node1&#45;&gt;Node73</title>
<g id="a_edge47_Node000001_Node000073"><a xlink:title=" ">
<path fill="none" stroke="#63b8ff" d="M331.58,-932.51C332.5,-812.89 343.4,-192.82 470,-64.5 473.15,-61.31 476.63,-58.56 480.37,-56.2"/>
<polygon fill="#63b8ff" stroke="#63b8ff" points="328.08,-932.73 331.52,-942.75 335.08,-932.78 328.08,-932.73"/>
</a>
</g>
</g>
<!-- Node74 -->
<g id="Node000074" class="node">
<title>Node74</title>
<g id="a_Node000074"><a xlink:href="../../d8/d65/classurabbitmq_1_1ConsumerComponentBase.html" target="_top" xlink:title="Base component for your consumers. Basically a ConsumerBase but in a nice component&#45;ish way.">
<polygon fill="white" stroke="#666666" points="678.5,-19 475.5,-19 475.5,0 678.5,0 678.5,-19"/>
<text text-anchor="middle" x="577" y="-7" font-family="Helvetica,sans-Serif" font-size="10.00">urabbitmq::ConsumerComponentBase</text>
</a>
</g>
</g>
<!-- Node1&#45;&gt;Node74 -->
<g id="edge48_Node000001_Node000074" class="edge">
<title>Node1&#45;&gt;Node74</title>
<g id="a_edge48_Node000001_Node000074"><a xlink:title=" ">
<path fill="none" stroke="#63b8ff" d="M331.45,-932.83C331.54,-811.14 338.25,-161.86 470,-27.5 473.14,-24.3 476.62,-21.54 480.35,-19.17"/>
<polygon fill="#63b8ff" stroke="#63b8ff" points="327.95,-932.92 331.45,-942.92 334.95,-932.92 327.95,-932.92"/>
</a>
</g>
</g>
<!-- Node2 -->
<g id="Node000002" class="node">
<title>Node2</title>
<g id="a_Node000002"><a xlink:title=" ">
<polygon fill="white" stroke="#666666" points="191,-962 0,-962 0,-943 191,-943 191,-962"/>
<text text-anchor="middle" x="95.5" y="-950" font-family="Helvetica,sans-Serif" font-size="10.00">components::impl::ComponentBase</text>
</a>
</g>
</g>
<!-- Node2&#45;&gt;Node1 -->
<g id="edge1_Node000001_Node000002" class="edge">
<title>Node2&#45;&gt;Node1</title>
<g id="a_edge1_Node000001_Node000002"><a xlink:title=" ">
<path fill="none" stroke="#63b8ff" d="M201.5,-952.5C209.92,-952.5 218.43,-952.5 226.84,-952.5"/>
<polygon fill="#63b8ff" stroke="#63b8ff" points="201.27,-949 191.27,-952.5 201.27,-956 201.27,-949"/>
</a>
</g>
</g>
<!-- Node4 -->
<g id="Node000004" class="node">
<title>Node4</title>
<g id="a_Node000004"><a xlink:href="../../d3/da0/classcomponents_1_1DynamicConfigClientUpdater.html" target="_top" xlink:title="Component that does a periodic update of runtime configs.">
<polygon fill="white" stroke="#666666" points="878.5,-1885.5 721.5,-1885.5 721.5,-1855.5 878.5,-1855.5 878.5,-1885.5"/>
<text text-anchor="start" x="729.5" y="-1873.5" font-family="Helvetica,sans-Serif" font-size="10.00">components::DynamicConfig</text>
<text text-anchor="middle" x="800" y="-1862.5" font-family="Helvetica,sans-Serif" font-size="10.00">ClientUpdater</text>
</a>
</g>
</g>
<!-- Node3&#45;&gt;Node4 -->
<g id="edge3_Node000003_Node000004" class="edge">
<title>Node3&#45;&gt;Node4</title>
<g id="a_edge3_Node000003_Node000004"><a xlink:title=" ">
<path fill="none" stroke="#63b8ff" d="M683.04,-1870.5C695.99,-1870.5 709.05,-1870.5 721.49,-1870.5"/>
<polygon fill="#63b8ff" stroke="#63b8ff" points="682.69,-1867 672.69,-1870.5 682.69,-1874 682.69,-1867"/>
</a>
</g>
</g>
<!-- Node6 -->
<g id="Node000006" class="node">
<title>Node6</title>
<g id="a_Node000006"><a xlink:href="../../d2/d39/classcomponents_1_1MongoCache.html" target="_top" xlink:title="Base class for all caches polling mongo collection">
<polygon fill="white" stroke="#666666" points="873,-1831.5 727,-1831.5 727,-1801.5 873,-1801.5 873,-1831.5"/>
<text text-anchor="start" x="735" y="-1819.5" font-family="Helvetica,sans-Serif" font-size="10.00">components::MongoCache</text>
<text text-anchor="middle" x="800" y="-1808.5" font-family="Helvetica,sans-Serif" font-size="10.00">&lt; MongoCacheTraits &gt;</text>
</a>
</g>
</g>
<!-- Node5&#45;&gt;Node6 -->
<g id="edge5_Node000005_Node000006" class="edge">
<title>Node5&#45;&gt;Node6</title>
<g id="a_edge5_Node000005_Node000006"><a xlink:title=" ">
<path fill="none" stroke="#63b8ff" d="M676.73,-1816.5C693.58,-1816.5 710.79,-1816.5 726.79,-1816.5"/>
<polygon fill="#63b8ff" stroke="#63b8ff" points="676.3,-1813 666.3,-1816.5 676.3,-1820 676.3,-1813"/>
</a>
</g>
</g>
<!-- Node11 -->
<g id="Node000011" class="node">
<title>Node11</title>
<g id="a_Node000011"><a xlink:href="../../d7/dfb/classclients_1_1http_1_1plugins_1_1yandex__tracing_1_1Component.html" target="_top" xlink:title=" ">
<polygon fill="white" stroke="#bfbfbf" points="880,-1654.5 720,-1654.5 720,-1624.5 880,-1624.5 880,-1654.5"/>
<text text-anchor="start" x="728" y="-1642.5" font-family="Helvetica,sans-Serif" font-size="10.00">clients::http::plugins</text>
<text text-anchor="middle" x="800" y="-1631.5" font-family="Helvetica,sans-Serif" font-size="10.00">::yandex_tracing::Component</text>
</a>
</g>
</g>
<!-- Node10&#45;&gt;Node11 -->
<g id="edge10_Node000010_Node000011" class="edge">
<title>Node10&#45;&gt;Node11</title>
<g id="a_edge10_Node000010_Node000011"><a xlink:title=" ">
<path fill="none" stroke="#63b8ff" d="M642.19,-1639.5C666.38,-1639.5 694.18,-1639.5 719.6,-1639.5"/>
<polygon fill="#63b8ff" stroke="#63b8ff" points="642.06,-1636 632.06,-1639.5 642.06,-1643 642.06,-1636"/>
</a>
</g>
</g>
</g>
</svg>
