<?xml version="1.0" encoding="UTF-8" standalone="no"?>
<!DOCTYPE svg PUBLIC "-//W3C//DTD SVG 1.1//EN"
 "http://www.w3.org/Graphics/SVG/1.1/DTD/svg11.dtd">
<!-- Generated by graphviz version 2.43.0 (0)
 -->
<!-- Title: userver/storages/postgres/query.hpp Pages: 1 -->
<svg width="331pt" height="302pt"
 viewBox="0.00 0.00 331.15 302.00" xmlns="http://www.w3.org/2000/svg" xmlns:xlink="http://www.w3.org/1999/xlink">
<g id="graph0" class="graph" transform="scale(1 1) rotate(0) translate(4 298)">
<title>userver/storages/postgres/query.hpp</title>
<!-- Node1 -->
<g id="Node000001" class="node">
<title>Node1</title>
<g id="a_Node000001"><a xlink:title="Holds a query, its name and logging mode.">
<polygon fill="#999999" stroke="#666666" points="191.15,-294 48.15,-294 48.15,-264 191.15,-264 191.15,-294"/>
<text text-anchor="start" x="56.15" y="-282" font-family="Helvetica,sans-Serif" font-size="10.00">userver/storages/postgres</text>
<text text-anchor="middle" x="119.65" y="-271" font-family="Helvetica,sans-Serif" font-size="10.00">/query.hpp</text>
</a>
</g>
</g>
<!-- Node2 -->
<g id="Node000002" class="node">
<title>Node2</title>
<g id="a_Node000002"><a xlink:href="../../de/dd3/postgresql_2include_2userver_2storages_2postgres_2cluster_8hpp.html" target="_top" xlink:title="Interface for executing queries on a cluster of PostgreSQL servers.">
<polygon fill="white" stroke="#666666" points="166.15,-96 23.15,-96 23.15,-66 166.15,-66 166.15,-96"/>
<text text-anchor="start" x="31.15" y="-84" font-family="Helvetica,sans-Serif" font-size="10.00">userver/storages/postgres</text>
<text text-anchor="middle" x="94.65" y="-73" font-family="Helvetica,sans-Serif" font-size="10.00">/cluster.hpp</text>
</a>
</g>
</g>
<!-- Node1&#45;&gt;Node2 -->
<g id="edge1_Node000001_Node000002" class="edge">
<title>Node1&#45;&gt;Node2</title>
<g id="a_edge1_Node000001_Node000002"><a xlink:title=" ">
<path fill="none" stroke="#63b8ff" d="M89.33,-258.11C61.36,-237.77 21.67,-203.35 4.65,-162 -0.43,-149.67 -2.11,-143.49 4.65,-132 14.44,-115.36 31.99,-103.86 49,-96.13"/>
<polygon fill="#63b8ff" stroke="#63b8ff" points="87.41,-261.04 97.59,-263.96 91.45,-255.33 87.41,-261.04"/>
</a>
</g>
</g>
<!-- Node5 -->
<g id="Node000005" class="node">
<title>Node5</title>
<g id="a_Node000005"><a xlink:href="../../d4/dd3/non__transaction_8hpp_source.html" target="_top" xlink:title=" ">
<polygon fill="white" stroke="#666666" points="162.15,-162 13.15,-162 13.15,-132 162.15,-132 162.15,-162"/>
<text text-anchor="start" x="21.15" y="-150" font-family="Helvetica,sans-Serif" font-size="10.00">userver/storages/postgres</text>
<text text-anchor="middle" x="87.65" y="-139" font-family="Helvetica,sans-Serif" font-size="10.00">/detail/non_transaction.hpp</text>
</a>
</g>
</g>
<!-- Node1&#45;&gt;Node5 -->
<g id="edge4_Node000001_Node000005" class="edge">
<title>Node1&#45;&gt;Node5</title>
<g id="a_edge4_Node000001_Node000005"><a xlink:title=" ">
<path fill="none" stroke="#63b8ff" d="M102.53,-255.1C97.4,-246.96 92.4,-237.46 89.65,-228 83.18,-205.72 84.3,-178.46 85.86,-162.21"/>
<polygon fill="#63b8ff" stroke="#63b8ff" points="99.79,-257.29 108.28,-263.63 105.6,-253.38 99.79,-257.29"/>
</a>
</g>
</g>
<!-- Node6 -->
<g id="Node000006" class="node">
<title>Node6</title>
<g id="a_Node000006"><a xlink:href="../../d2/de3/portal_8hpp_source.html" target="_top" xlink:title=" ">
<polygon fill="white" stroke="#666666" points="241.15,-228 98.15,-228 98.15,-198 241.15,-198 241.15,-228"/>
<text text-anchor="start" x="106.15" y="-216" font-family="Helvetica,sans-Serif" font-size="10.00">userver/storages/postgres</text>
<text text-anchor="middle" x="169.65" y="-205" font-family="Helvetica,sans-Serif" font-size="10.00">/portal.hpp</text>
</a>
</g>
</g>
<!-- Node1&#45;&gt;Node6 -->
<g id="edge6_Node000001_Node000006" class="edge">
<title>Node1&#45;&gt;Node6</title>
<g id="a_edge6_Node000001_Node000006"><a xlink:title=" ">
<path fill="none" stroke="#63b8ff" d="M136.99,-255.81C144.15,-246.64 152.25,-236.28 158.58,-228.16"/>
<polygon fill="#63b8ff" stroke="#63b8ff" points="134.14,-253.76 130.75,-263.8 139.66,-258.07 134.14,-253.76"/>
</a>
</g>
</g>
<!-- Node7 -->
<g id="Node000007" class="node">
<title>Node7</title>
<g id="a_Node000007"><a xlink:href="../../da/deb/postgresql_2include_2userver_2storages_2postgres_2transaction_8hpp.html" target="_top" xlink:title="Transactions.">
<polygon fill="white" stroke="#666666" points="323.15,-162 180.15,-162 180.15,-132 323.15,-132 323.15,-162"/>
<text text-anchor="start" x="188.15" y="-150" font-family="Helvetica,sans-Serif" font-size="10.00">userver/storages/postgres</text>
<text text-anchor="middle" x="251.65" y="-139" font-family="Helvetica,sans-Serif" font-size="10.00">/transaction.hpp</text>
</a>
</g>
</g>
<!-- Node1&#45;&gt;Node7 -->
<g id="edge10_Node000001_Node000007" class="edge">
<title>Node1&#45;&gt;Node7</title>
<g id="a_edge10_Node000001_Node000007"><a xlink:title=" ">
<path fill="none" stroke="#63b8ff" d="M201.01,-263.61C220.35,-256.2 238.8,-244.98 250.65,-228 264.24,-208.52 260.12,-179.37 255.89,-162.16"/>
<polygon fill="#63b8ff" stroke="#63b8ff" points="199.75,-260.34 191.47,-266.95 202.06,-266.95 199.75,-260.34"/>
</a>
</g>
</g>
<!-- Node3 -->
<g id="Node000003" class="node">
<title>Node3</title>
<g id="a_Node000003"><a xlink:href="../../dc/df7/base__postgres__cache_8hpp.html" target="_top" xlink:title="Caching component for PostgreSQL. See Caching Component for PostgreSQL.">
<polygon fill="white" stroke="#666666" points="154.15,-30 35.15,-30 35.15,0 154.15,0 154.15,-30"/>
<text text-anchor="start" x="43.15" y="-18" font-family="Helvetica,sans-Serif" font-size="10.00">userver/cache/base</text>
<text text-anchor="middle" x="94.65" y="-7" font-family="Helvetica,sans-Serif" font-size="10.00">_postgres_cache.hpp</text>
</a>
</g>
</g>
<!-- Node2&#45;&gt;Node3 -->
<g id="edge2_Node000002_Node000003" class="edge">
<title>Node2&#45;&gt;Node3</title>
<g id="a_edge2_Node000002_Node000003"><a xlink:title=" ">
<path fill="none" stroke="#63b8ff" d="M94.65,-55.54C94.65,-46.96 94.65,-37.61 94.65,-30.16"/>
<polygon fill="#63b8ff" stroke="#63b8ff" points="91.15,-55.8 94.65,-65.8 98.15,-55.8 91.15,-55.8"/>
</a>
</g>
</g>
<!-- Node4 -->
<g id="Node000004" class="node">
<title>Node4</title>
<g id="a_Node000004"><a xlink:href="../../df/d02/postgres_8hpp.html" target="_top" xlink:title=" ">
<polygon fill="white" stroke="#666666" points="319.15,-30 176.15,-30 176.15,0 319.15,0 319.15,-30"/>
<text text-anchor="start" x="184.15" y="-18" font-family="Helvetica,sans-Serif" font-size="10.00">userver/storages/postgres</text>
<text text-anchor="middle" x="247.65" y="-7" font-family="Helvetica,sans-Serif" font-size="10.00">/postgres.hpp</text>
</a>
</g>
</g>
<!-- Node2&#45;&gt;Node4 -->
<g id="edge3_Node000002_Node000004" class="edge">
<title>Node2&#45;&gt;Node4</title>
<g id="a_edge3_Node000002_Node000004"><a xlink:title=" ">
<path fill="none" stroke="#63b8ff" d="M137.55,-62.05C161.79,-51.91 191.65,-39.43 214.15,-30.01"/>
<polygon fill="#63b8ff" stroke="#63b8ff" points="136.1,-58.87 128.23,-65.95 138.8,-65.32 136.1,-58.87"/>
</a>
</g>
</g>
<!-- Node5&#45;&gt;Node2 -->
<g id="edge5_Node000005_Node000002" class="edge">
<title>Node5&#45;&gt;Node2</title>
<g id="a_edge5_Node000005_Node000002"><a xlink:title=" ">
<path fill="none" stroke="#63b8ff" d="M90.29,-121.83C91.24,-113.17 92.28,-103.7 93.1,-96.16"/>
<polygon fill="#63b8ff" stroke="#63b8ff" points="86.81,-121.48 89.2,-131.8 93.77,-122.24 86.81,-121.48"/>
</a>
</g>
</g>
<!-- Node6&#45;&gt;Node7 -->
<g id="edge7_Node000006_Node000007" class="edge">
<title>Node6&#45;&gt;Node7</title>
<g id="a_edge7_Node000006_Node000007"><a xlink:title=" ">
<path fill="none" stroke="#63b8ff" d="M195.94,-191.48C208.2,-181.91 222.47,-170.77 233.5,-162.16"/>
<polygon fill="#63b8ff" stroke="#63b8ff" points="193.58,-188.88 187.85,-197.8 197.88,-194.4 193.58,-188.88"/>
</a>
</g>
</g>
<!-- Node7&#45;&gt;Node2 -->
<g id="edge8_Node000007_Node000002" class="edge">
<title>Node7&#45;&gt;Node2</title>
<g id="a_edge8_Node000007_Node000002"><a xlink:title=" ">
<path fill="none" stroke="#63b8ff" d="M207.63,-128.05C182.75,-117.91 152.12,-105.43 129.02,-96.01"/>
<polygon fill="#63b8ff" stroke="#63b8ff" points="206.61,-131.42 217.2,-131.95 209.26,-124.94 206.61,-131.42"/>
</a>
</g>
</g>
<!-- Node7&#45;&gt;Node4 -->
<g id="edge9_Node000007_Node000004" class="edge">
<title>Node7&#45;&gt;Node4</title>
<g id="a_edge9_Node000007_Node000004"><a xlink:title=" ">
<path fill="none" stroke="#63b8ff" d="M250.9,-121.68C250.07,-94.7 248.76,-52.11 248.08,-30.14"/>
<polygon fill="#63b8ff" stroke="#63b8ff" points="247.41,-121.95 251.21,-131.84 254.4,-121.74 247.41,-121.95"/>
</a>
</g>
</g>
</g>
</svg>
