<?xml version="1.0" encoding="UTF-8" standalone="no"?>
<!DOCTYPE svg PUBLIC "-//W3C//DTD SVG 1.1//EN"
 "http://www.w3.org/Graphics/SVG/1.1/DTD/svg11.dtd">
<!-- Generated by graphviz version 2.43.0 (0)
 -->
<!-- Title: userver/congestion_control/component.hpp Pages: 1 -->
<svg width="1475pt" height="434pt"
 viewBox="0.00 0.00 1474.73 434.00" xmlns="http://www.w3.org/2000/svg" xmlns:xlink="http://www.w3.org/1999/xlink">
<g id="graph0" class="graph" transform="scale(1 1) rotate(0) translate(4 430)">
<title>userver/congestion_control/component.hpp</title>
<!-- Node1 -->
<g id="Node000001" class="node">
<title>Node1</title>
<g id="a_Node000001"><a xlink:title="Component to limit too active requests, also known as CC.">
<polygon fill="#999999" stroke="#666666" points="435.23,-426 301.23,-426 301.23,-396 435.23,-396 435.23,-426"/>
<text text-anchor="start" x="309.23" y="-414" font-family="Helvetica,sans-Serif" font-size="10.00">userver/congestion</text>
<text text-anchor="middle" x="368.23" y="-403" font-family="Helvetica,sans-Serif" font-size="10.00">_control/component.hpp</text>
</a>
</g>
</g>
<!-- Node2 -->
<g id="Node000002" class="node">
<title>Node2</title>
<g id="a_Node000002"><a xlink:href="../../da/d11/loggable__component__base_8hpp.html" target="_top" xlink:title="Contains components::LoggableComponentBase declaration and forward declarations of components::Compon...">
<polygon fill="white" stroke="#666666" points="429.23,-360 307.23,-360 307.23,-319 429.23,-319 429.23,-360"/>
<text text-anchor="start" x="315.23" y="-348" font-family="Helvetica,sans-Serif" font-size="10.00">userver/components</text>
<text text-anchor="start" x="315.23" y="-337" font-family="Helvetica,sans-Serif" font-size="10.00">/loggable_component</text>
<text text-anchor="middle" x="368.23" y="-326" font-family="Helvetica,sans-Serif" font-size="10.00">_base.hpp</text>
</a>
</g>
</g>
<!-- Node1&#45;&gt;Node2 -->
<g id="edge1_Node000001_Node000002" class="edge">
<title>Node1&#45;&gt;Node2</title>
<g id="a_edge1_Node000001_Node000002"><a xlink:title=" ">
<path fill="none" stroke="#63b8ff" d="M368.23,-395.94C368.23,-388.52 368.23,-379.14 368.23,-370.2"/>
<polygon fill="#63b8ff" stroke="#63b8ff" points="371.73,-370.07 368.23,-360.07 364.73,-370.07 371.73,-370.07"/>
</a>
</g>
</g>
<!-- Node6 -->
<g id="Node000006" class="node">
<title>Node6</title>
<g id="a_Node000006"><a xlink:href="../../df/d22/snapshot_8hpp.html" target="_top" xlink:title="The storage for a snapshot of configs.">
<polygon fill="white" stroke="#666666" points="161.73,-283 28.73,-283 28.73,-253 161.73,-253 161.73,-283"/>
<text text-anchor="start" x="36.73" y="-271" font-family="Helvetica,sans-Serif" font-size="10.00">userver/dynamic_config</text>
<text text-anchor="middle" x="95.23" y="-260" font-family="Helvetica,sans-Serif" font-size="10.00">/snapshot.hpp</text>
</a>
</g>
</g>
<!-- Node1&#45;&gt;Node6 -->
<g id="edge5_Node000001_Node000006" class="edge">
<title>Node1&#45;&gt;Node6</title>
<g id="a_edge5_Node000001_Node000006"><a xlink:title=" ">
<path fill="none" stroke="#63b8ff" d="M300.89,-402.34C262.22,-395.61 213.99,-383.1 176.23,-360 147.94,-342.69 123.92,-312.45 109.55,-291.61"/>
<polygon fill="#63b8ff" stroke="#63b8ff" points="112.29,-289.41 103.82,-283.04 106.48,-293.3 112.29,-289.41"/>
</a>
</g>
</g>
<!-- Node17 -->
<g id="Node000017" class="node">
<title>Node17</title>
<g id="a_Node000017"><a xlink:href="../../d5/d02/fast__pimpl_8hpp.html" target="_top" xlink:title="Implements pimpl idiom without dynamic memory allocation.">
<polygon fill="white" stroke="#666666" points="903.73,-85 804.73,-85 804.73,-55 903.73,-55 903.73,-85"/>
<text text-anchor="start" x="812.73" y="-73" font-family="Helvetica,sans-Serif" font-size="10.00">userver/utils/fast</text>
<text text-anchor="middle" x="854.23" y="-62" font-family="Helvetica,sans-Serif" font-size="10.00">_pimpl.hpp</text>
</a>
</g>
</g>
<!-- Node1&#45;&gt;Node17 -->
<g id="edge52_Node000001_Node000017" class="edge">
<title>Node1&#45;&gt;Node17</title>
<g id="a_edge52_Node000001_Node000017"><a xlink:title=" ">
<path fill="none" stroke="#63b8ff" d="M333.73,-395.97C274.24,-369.78 162.95,-310.86 209.23,-253 254.77,-196.08 299.57,-238.45 369.23,-217 403.94,-206.32 411.09,-199.37 445.23,-187 493.2,-169.63 509.15,-174.89 554.23,-151 573.55,-140.76 573.23,-129.84 593.23,-121 673.8,-85.41 703.88,-102.27 794.82,-84.94"/>
<polygon fill="#63b8ff" stroke="#63b8ff" points="795.58,-88.36 804.7,-82.97 794.21,-81.49 795.58,-88.36"/>
</a>
</g>
</g>
<!-- Node20 -->
<g id="Node000020" class="node">
<title>Node20</title>
<g id="a_Node000020"><a xlink:href="../../d3/d1a/server_2congestion__control_2limiter_8hpp_source.html" target="_top" xlink:title=" ">
<polygon fill="white" stroke="#666666" points="751.73,-354.5 608.73,-354.5 608.73,-324.5 751.73,-324.5 751.73,-354.5"/>
<text text-anchor="start" x="616.73" y="-342.5" font-family="Helvetica,sans-Serif" font-size="10.00">userver/server/congestion</text>
<text text-anchor="middle" x="680.23" y="-331.5" font-family="Helvetica,sans-Serif" font-size="10.00">_control/limiter.hpp</text>
</a>
</g>
</g>
<!-- Node1&#45;&gt;Node20 -->
<g id="edge22_Node000001_Node000020" class="edge">
<title>Node1&#45;&gt;Node20</title>
<g id="a_edge22_Node000001_Node000020"><a xlink:title=" ">
<path fill="none" stroke="#63b8ff" d="M431.37,-395.94C482.22,-384.61 553.78,-368.67 607.11,-356.79"/>
<polygon fill="#63b8ff" stroke="#63b8ff" points="608.19,-360.13 617.19,-354.54 606.67,-353.3 608.19,-360.13"/>
</a>
</g>
</g>
<!-- Node37 -->
<g id="Node000037" class="node">
<title>Node37</title>
<g id="a_Node000037"><a xlink:href="../../d4/ddc/entry_8hpp.html" target="_top" xlink:title="Header with all the types required in component header to use statistics (includes utils::statistics:...">
<polygon fill="white" stroke="#666666" points="1197.73,-217 1072.73,-217 1072.73,-187 1197.73,-187 1197.73,-217"/>
<text text-anchor="start" x="1080.73" y="-205" font-family="Helvetica,sans-Serif" font-size="10.00">userver/utils/statistics</text>
<text text-anchor="middle" x="1135.23" y="-194" font-family="Helvetica,sans-Serif" font-size="10.00">/entry.hpp</text>
</a>
</g>
</g>
<!-- Node1&#45;&gt;Node37 -->
<g id="edge53_Node000001_Node000037" class="edge">
<title>Node1&#45;&gt;Node37</title>
<g id="a_edge53_Node000001_Node000037"><a xlink:title=" ">
<path fill="none" stroke="#63b8ff" d="M435.35,-406.99C514.45,-402.18 649.29,-390.02 761.23,-360 890.89,-325.23 1034.83,-255.19 1099.89,-221.68"/>
<polygon fill="#63b8ff" stroke="#63b8ff" points="1101.63,-224.72 1108.9,-217.01 1098.41,-218.51 1101.63,-224.72"/>
</a>
</g>
</g>
<!-- Node3 -->
<g id="Node000003" class="node">
<title>Node3</title>
<g id="a_Node000003"><a xlink:href="../../d7/d47/component__fwd_8hpp.html" target="_top" xlink:title="Forward declarations for components::ComponentContext and components::ComponentConfig; function compo...">
<polygon fill="white" stroke="#666666" points="503.23,-283 385.23,-283 385.23,-253 503.23,-253 503.23,-283"/>
<text text-anchor="start" x="393.23" y="-271" font-family="Helvetica,sans-Serif" font-size="10.00">userver/components</text>
<text text-anchor="middle" x="444.23" y="-260" font-family="Helvetica,sans-Serif" font-size="10.00">/component_fwd.hpp</text>
</a>
</g>
</g>
<!-- Node2&#45;&gt;Node3 -->
<g id="edge2_Node000002_Node000003" class="edge">
<title>Node2&#45;&gt;Node3</title>
<g id="a_edge2_Node000002_Node000003"><a xlink:title=" ">
<path fill="none" stroke="#63b8ff" d="M389.81,-318.77C399.64,-309.78 411.29,-299.12 421.29,-289.98"/>
<polygon fill="#63b8ff" stroke="#63b8ff" points="423.86,-292.37 428.88,-283.04 419.14,-287.2 423.86,-292.37"/>
</a>
</g>
</g>
<!-- Node5 -->
<g id="Node000005" class="node">
<title>Node5</title>
<g id="a_Node000005"><a xlink:href="../../d2/d61/component__base_8hpp_source.html" target="_top" xlink:title=" ">
<polygon fill="white" stroke="#666666" points="366.73,-283 217.73,-283 217.73,-253 366.73,-253 366.73,-283"/>
<text text-anchor="start" x="225.73" y="-271" font-family="Helvetica,sans-Serif" font-size="10.00">userver/components</text>
<text text-anchor="middle" x="292.23" y="-260" font-family="Helvetica,sans-Serif" font-size="10.00">/impl/component_base.hpp</text>
</a>
</g>
</g>
<!-- Node2&#45;&gt;Node5 -->
<g id="edge4_Node000002_Node000005" class="edge">
<title>Node2&#45;&gt;Node5</title>
<g id="a_edge4_Node000002_Node000005"><a xlink:title=" ">
<path fill="none" stroke="#63b8ff" d="M346.66,-318.77C336.82,-309.78 325.17,-299.12 315.18,-289.98"/>
<polygon fill="#63b8ff" stroke="#63b8ff" points="317.33,-287.2 307.58,-283.04 312.6,-292.37 317.33,-287.2"/>
</a>
</g>
</g>
<!-- Node4 -->
<g id="Node000004" class="node">
<title>Node4</title>
<g id="a_Node000004"><a xlink:title=" ">
<polygon fill="#e0e0e0" stroke="#999999" points="498.23,-211.5 454.23,-211.5 454.23,-192.5 498.23,-192.5 498.23,-211.5"/>
<text text-anchor="middle" x="476.23" y="-199.5" font-family="Helvetica,sans-Serif" font-size="10.00">string</text>
</a>
</g>
</g>
<!-- Node3&#45;&gt;Node4 -->
<g id="edge3_Node000003_Node000004" class="edge">
<title>Node3&#45;&gt;Node4</title>
<g id="a_edge3_Node000003_Node000004"><a xlink:title=" ">
<path fill="none" stroke="#63b8ff" d="M451.33,-252.8C456.03,-243.41 462.22,-231.02 467.26,-220.95"/>
<polygon fill="#63b8ff" stroke="#63b8ff" points="470.47,-222.35 471.81,-211.84 464.21,-219.22 470.47,-222.35"/>
</a>
</g>
</g>
<!-- Node7 -->
<g id="Node000007" class="node">
<title>Node7</title>
<g id="a_Node000007"><a xlink:title=" ">
<polygon fill="#e0e0e0" stroke="#999999" points="605.23,-211.5 549.23,-211.5 549.23,-192.5 605.23,-192.5 605.23,-211.5"/>
<text text-anchor="middle" x="577.23" y="-199.5" font-family="Helvetica,sans-Serif" font-size="10.00">optional</text>
</a>
</g>
</g>
<!-- Node6&#45;&gt;Node7 -->
<g id="edge6_Node000006_Node000007" class="edge">
<title>Node6&#45;&gt;Node7</title>
<g id="a_edge6_Node000006_Node000007"><a xlink:title=" ">
<path fill="none" stroke="#63b8ff" d="M161.84,-258.8C177.39,-256.89 193.89,-254.87 209.23,-253 341.66,-236.87 375.5,-238.1 507.23,-217 517.6,-215.34 528.78,-213.24 539.09,-211.18"/>
<polygon fill="#63b8ff" stroke="#63b8ff" points="539.95,-214.58 549.05,-209.15 538.56,-207.72 539.95,-214.58"/>
</a>
</g>
</g>
<!-- Node8 -->
<g id="Node000008" class="node">
<title>Node8</title>
<g id="a_Node000008"><a xlink:title=" ">
<polygon fill="#e0e0e0" stroke="#999999" points="856.73,-19 787.73,-19 787.73,0 856.73,0 856.73,-19"/>
<text text-anchor="middle" x="822.23" y="-7" font-family="Helvetica,sans-Serif" font-size="10.00">type_traits</text>
</a>
</g>
</g>
<!-- Node6&#45;&gt;Node8 -->
<g id="edge7_Node000006_Node000008" class="edge">
<title>Node6&#45;&gt;Node8</title>
<g id="a_edge7_Node000006_Node000008"><a xlink:title=" ">
<path fill="none" stroke="#63b8ff" d="M66.12,-252.86C51.85,-244.42 35.73,-232.34 26.23,-217 3.62,-180.49 -12.58,-153.72 15.23,-121 121.45,3.98 583.21,-37.09 746.23,-19 756.33,-17.88 767.18,-16.67 777.43,-15.52"/>
<polygon fill="#63b8ff" stroke="#63b8ff" points="777.88,-19 787.43,-14.41 777.1,-12.04 777.88,-19"/>
</a>
</g>
</g>
<!-- Node9 -->
<g id="Node000009" class="node">
<title>Node9</title>
<g id="a_Node000009"><a xlink:href="../../d8/d20/impl_2snapshot_8hpp_source.html" target="_top" xlink:title=" ">
<polygon fill="white" stroke="#666666" points="359.73,-217 226.73,-217 226.73,-187 359.73,-187 359.73,-217"/>
<text text-anchor="start" x="234.73" y="-205" font-family="Helvetica,sans-Serif" font-size="10.00">userver/dynamic_config</text>
<text text-anchor="middle" x="293.23" y="-194" font-family="Helvetica,sans-Serif" font-size="10.00">/impl/snapshot.hpp</text>
</a>
</g>
</g>
<!-- Node6&#45;&gt;Node9 -->
<g id="edge8_Node000006_Node000009" class="edge">
<title>Node6&#45;&gt;Node9</title>
<g id="a_edge8_Node000006_Node000009"><a xlink:title=" ">
<path fill="none" stroke="#63b8ff" d="M138.68,-252.95C168.6,-243.28 208.53,-230.38 240.3,-220.11"/>
<polygon fill="#63b8ff" stroke="#63b8ff" points="241.44,-223.42 249.88,-217.01 239.29,-216.76 241.44,-223.42"/>
</a>
</g>
</g>
<!-- Node6&#45;&gt;Node17 -->
<g id="edge17_Node000006_Node000017" class="edge">
<title>Node6&#45;&gt;Node17</title>
<g id="a_edge17_Node000006_Node000017"><a xlink:title=" ">
<path fill="none" stroke="#63b8ff" d="M79.72,-252.73C50.61,-224.32 -6.02,-160.05 31.23,-121 59.3,-91.58 694.86,-90.93 794.4,-84.41"/>
<polygon fill="#63b8ff" stroke="#63b8ff" points="794.82,-87.89 804.46,-83.5 794.19,-80.92 794.82,-87.89"/>
</a>
</g>
</g>
<!-- Node9&#45;&gt;Node8 -->
<g id="edge12_Node000009_Node000008" class="edge">
<title>Node9&#45;&gt;Node8</title>
<g id="a_edge12_Node000009_Node000008"><a xlink:title=" ">
<path fill="none" stroke="#63b8ff" d="M292.57,-186.97C292.53,-169.06 295.35,-138.34 313.23,-121 346.87,-88.39 659.63,-36.16 777.54,-17.45"/>
<polygon fill="#63b8ff" stroke="#63b8ff" points="778.34,-20.87 787.67,-15.85 777.25,-13.95 778.34,-20.87"/>
</a>
</g>
</g>
<!-- Node10 -->
<g id="Node000010" class="node">
<title>Node10</title>
<g id="a_Node000010"><a xlink:title=" ">
<polygon fill="#e0e0e0" stroke="#999999" points="226.73,-145.5 191.73,-145.5 191.73,-126.5 226.73,-126.5 226.73,-145.5"/>
<text text-anchor="middle" x="209.23" y="-133.5" font-family="Helvetica,sans-Serif" font-size="10.00">any</text>
</a>
</g>
</g>
<!-- Node9&#45;&gt;Node10 -->
<g id="edge9_Node000009_Node000010" class="edge">
<title>Node9&#45;&gt;Node10</title>
<g id="a_edge9_Node000009_Node000010"><a xlink:title=" ">
<path fill="none" stroke="#63b8ff" d="M274.59,-186.8C261.11,-176.53 242.92,-162.67 229.15,-152.18"/>
<polygon fill="#63b8ff" stroke="#63b8ff" points="230.92,-149.12 220.84,-145.84 226.67,-154.69 230.92,-149.12"/>
</a>
</g>
</g>
<!-- Node11 -->
<g id="Node000011" class="node">
<title>Node11</title>
<g id="a_Node000011"><a xlink:title=" ">
<polygon fill="#e0e0e0" stroke="#999999" points="736.73,-19 683.73,-19 683.73,0 736.73,0 736.73,-19"/>
<text text-anchor="middle" x="710.23" y="-7" font-family="Helvetica,sans-Serif" font-size="10.00">cstddef</text>
</a>
</g>
</g>
<!-- Node9&#45;&gt;Node11 -->
<g id="edge10_Node000009_Node000011" class="edge">
<title>Node9&#45;&gt;Node11</title>
<g id="a_edge10_Node000009_Node000011"><a xlink:title=" ">
<path fill="none" stroke="#63b8ff" d="M285.78,-186.81C271.77,-157.95 245.8,-92.06 279.23,-55 305.45,-25.93 574.01,-14.71 673.46,-11.54"/>
<polygon fill="#63b8ff" stroke="#63b8ff" points="673.75,-15.03 683.64,-11.22 673.53,-8.03 673.75,-15.03"/>
</a>
</g>
</g>
<!-- Node12 -->
<g id="Node000012" class="node">
<title>Node12</title>
<g id="a_Node000012"><a xlink:title=" ">
<polygon fill="#e0e0e0" stroke="#999999" points="386.73,-145.5 321.73,-145.5 321.73,-126.5 386.73,-126.5 386.73,-145.5"/>
<text text-anchor="middle" x="354.23" y="-133.5" font-family="Helvetica,sans-Serif" font-size="10.00">exception</text>
</a>
</g>
</g>
<!-- Node9&#45;&gt;Node12 -->
<g id="edge11_Node000009_Node000012" class="edge">
<title>Node9&#45;&gt;Node12</title>
<g id="a_edge11_Node000009_Node000012"><a xlink:title=" ">
<path fill="none" stroke="#63b8ff" d="M306.77,-186.8C316.28,-176.82 329.02,-163.46 338.9,-153.09"/>
<polygon fill="#63b8ff" stroke="#63b8ff" points="341.44,-155.5 345.8,-145.84 336.37,-150.67 341.44,-155.5"/>
</a>
</g>
</g>
<!-- Node13 -->
<g id="Node000013" class="node">
<title>Node13</title>
<g id="a_Node000013"><a xlink:title=" ">
<polygon fill="#e0e0e0" stroke="#999999" points="469.73,-145.5 404.73,-145.5 404.73,-126.5 469.73,-126.5 469.73,-145.5"/>
<text text-anchor="middle" x="437.23" y="-133.5" font-family="Helvetica,sans-Serif" font-size="10.00">typeindex</text>
</a>
</g>
</g>
<!-- Node9&#45;&gt;Node13 -->
<g id="edge13_Node000009_Node000013" class="edge">
<title>Node9&#45;&gt;Node13</title>
<g id="a_edge13_Node000009_Node000013"><a xlink:title=" ">
<path fill="none" stroke="#63b8ff" d="M324.83,-186.95C349.87,-175.83 384.53,-160.42 408.72,-149.67"/>
<polygon fill="#63b8ff" stroke="#63b8ff" points="410.35,-152.78 418.07,-145.52 407.51,-146.38 410.35,-152.78"/>
</a>
</g>
</g>
<!-- Node14 -->
<g id="Node000014" class="node">
<title>Node14</title>
<g id="a_Node000014"><a xlink:title=" ">
<polygon fill="#e0e0e0" stroke="#999999" points="544.73,-145.5 487.73,-145.5 487.73,-126.5 544.73,-126.5 544.73,-145.5"/>
<text text-anchor="middle" x="516.23" y="-133.5" font-family="Helvetica,sans-Serif" font-size="10.00">typeinfo</text>
</a>
</g>
</g>
<!-- Node9&#45;&gt;Node14 -->
<g id="edge14_Node000009_Node000014" class="edge">
<title>Node9&#45;&gt;Node14</title>
<g id="a_edge14_Node000009_Node000014"><a xlink:title=" ">
<path fill="none" stroke="#63b8ff" d="M351.48,-186.92C388.36,-177.62 436.91,-164.66 479.23,-151 481.14,-150.38 483.1,-149.72 485.07,-149.04"/>
<polygon fill="#63b8ff" stroke="#63b8ff" points="486.63,-152.2 494.84,-145.51 484.24,-145.62 486.63,-152.2"/>
</a>
</g>
</g>
<!-- Node15 -->
<g id="Node000015" class="node">
<title>Node15</title>
<g id="a_Node000015"><a xlink:title=" ">
<polygon fill="#e0e0e0" stroke="#999999" points="648.73,-145.5 601.73,-145.5 601.73,-126.5 648.73,-126.5 648.73,-145.5"/>
<text text-anchor="middle" x="625.23" y="-133.5" font-family="Helvetica,sans-Serif" font-size="10.00">vector</text>
</a>
</g>
</g>
<!-- Node9&#45;&gt;Node15 -->
<g id="edge15_Node000009_Node000015" class="edge">
<title>Node9&#45;&gt;Node15</title>
<g id="a_edge15_Node000009_Node000015"><a xlink:title=" ">
<path fill="none" stroke="#63b8ff" d="M359.76,-188.36C412.52,-178.31 488.11,-163.85 554.23,-151 566.44,-148.63 579.83,-146 591.65,-143.66"/>
<polygon fill="#63b8ff" stroke="#63b8ff" points="592.44,-147.07 601.57,-141.7 591.08,-140.2 592.44,-147.07"/>
</a>
</g>
</g>
<!-- Node16 -->
<g id="Node000016" class="node">
<title>Node16</title>
<g id="a_Node000016"><a xlink:href="../../df/d7e/core_2include_2userver_2dynamic__config_2fwd_8hpp.html" target="_top" xlink:title="Forward declarations of dynamic_config classes.">
<polygon fill="white" stroke="#666666" points="173.73,-151 40.73,-151 40.73,-121 173.73,-121 173.73,-151"/>
<text text-anchor="start" x="48.73" y="-139" font-family="Helvetica,sans-Serif" font-size="10.00">userver/dynamic_config</text>
<text text-anchor="middle" x="107.23" y="-128" font-family="Helvetica,sans-Serif" font-size="10.00">/fwd.hpp</text>
</a>
</g>
</g>
<!-- Node9&#45;&gt;Node16 -->
<g id="edge16_Node000009_Node000016" class="edge">
<title>Node9&#45;&gt;Node16</title>
<g id="a_edge16_Node000009_Node000016"><a xlink:title=" ">
<path fill="none" stroke="#63b8ff" d="M252.41,-186.95C224.55,-177.37 187.45,-164.6 157.73,-154.37"/>
<polygon fill="#63b8ff" stroke="#63b8ff" points="158.55,-150.96 147.96,-151.01 156.27,-157.58 158.55,-150.96"/>
</a>
</g>
</g>
<!-- Node17&#45;&gt;Node8 -->
<g id="edge20_Node000017_Node000008" class="edge">
<title>Node17&#45;&gt;Node8</title>
<g id="a_edge20_Node000017_Node000008"><a xlink:title=" ">
<path fill="none" stroke="#63b8ff" d="M846.49,-54.84C842.08,-46.78 836.52,-36.62 831.84,-28.06"/>
<polygon fill="#63b8ff" stroke="#63b8ff" points="834.9,-26.36 827.03,-19.27 828.76,-29.72 834.9,-26.36"/>
</a>
</g>
</g>
<!-- Node17&#45;&gt;Node11 -->
<g id="edge18_Node000017_Node000011" class="edge">
<title>Node17&#45;&gt;Node11</title>
<g id="a_edge18_Node000017_Node000011"><a xlink:title=" ">
<path fill="none" stroke="#63b8ff" d="M819.74,-54.99C795.72,-45.23 763.96,-32.33 740.83,-22.93"/>
<polygon fill="#63b8ff" stroke="#63b8ff" points="742.08,-19.66 731.5,-19.14 739.45,-26.15 742.08,-19.66"/>
</a>
</g>
</g>
<!-- Node18 -->
<g id="Node000018" class="node">
<title>Node18</title>
<g id="a_Node000018"><a xlink:title=" ">
<polygon fill="#e0e0e0" stroke="#999999" points="911.73,-19 874.73,-19 874.73,0 911.73,0 911.73,-19"/>
<text text-anchor="middle" x="893.23" y="-7" font-family="Helvetica,sans-Serif" font-size="10.00">new</text>
</a>
</g>
</g>
<!-- Node17&#45;&gt;Node18 -->
<g id="edge19_Node000017_Node000018" class="edge">
<title>Node17&#45;&gt;Node18</title>
<g id="a_edge19_Node000017_Node000018"><a xlink:title=" ">
<path fill="none" stroke="#63b8ff" d="M863.67,-54.84C869.1,-46.69 875.97,-36.4 881.71,-27.78"/>
<polygon fill="#63b8ff" stroke="#63b8ff" points="884.75,-29.53 887.39,-19.27 878.93,-25.65 884.75,-29.53"/>
</a>
</g>
</g>
<!-- Node19 -->
<g id="Node000019" class="node">
<title>Node19</title>
<g id="a_Node000019"><a xlink:title=" ">
<polygon fill="#e0e0e0" stroke="#999999" points="1007.73,-19 962.73,-19 962.73,0 1007.73,0 1007.73,-19"/>
<text text-anchor="middle" x="985.23" y="-7" font-family="Helvetica,sans-Serif" font-size="10.00">utility</text>
</a>
</g>
</g>
<!-- Node17&#45;&gt;Node19 -->
<g id="edge21_Node000017_Node000019" class="edge">
<title>Node17&#45;&gt;Node19</title>
<g id="a_edge21_Node000017_Node000019"><a xlink:title=" ">
<path fill="none" stroke="#63b8ff" d="M885.61,-54.99C907.17,-45.36 935.58,-32.67 956.54,-23.31"/>
<polygon fill="#63b8ff" stroke="#63b8ff" points="958.18,-26.41 965.89,-19.14 955.33,-20.02 958.18,-26.41"/>
</a>
</g>
</g>
<!-- Node20&#45;&gt;Node7 -->
<g id="edge23_Node000020_Node000007" class="edge">
<title>Node20&#45;&gt;Node7</title>
<g id="a_edge23_Node000020_Node000007"><a xlink:title=" ">
<path fill="none" stroke="#63b8ff" d="M676.32,-324.33C670.85,-306.37 659.61,-275.08 642.23,-253 630.93,-238.64 614.62,-226.11 601.16,-217.18"/>
<polygon fill="#63b8ff" stroke="#63b8ff" points="602.72,-214.02 592.4,-211.6 598.96,-219.92 602.72,-214.02"/>
</a>
</g>
</g>
<!-- Node20&#45;&gt;Node15 -->
<g id="edge24_Node000020_Node000015" class="edge">
<title>Node20&#45;&gt;Node15</title>
<g id="a_edge24_Node000020_Node000015"><a xlink:title=" ">
<path fill="none" stroke="#63b8ff" d="M678.22,-324.45C675.63,-307.4 670.7,-277.84 664.23,-253 663.6,-250.55 642.32,-187.53 631.47,-155.43"/>
<polygon fill="#63b8ff" stroke="#63b8ff" points="634.75,-154.21 628.23,-145.86 628.12,-156.46 634.75,-154.21"/>
</a>
</g>
</g>
<!-- Node21 -->
<g id="Node000021" class="node">
<title>Node21</title>
<g id="a_Node000021"><a xlink:href="../../da/d0e/variable_8hpp_source.html" target="_top" xlink:title=" ">
<polygon fill="white" stroke="#666666" points="835.23,-283 727.23,-283 727.23,-253 835.23,-253 835.23,-283"/>
<text text-anchor="start" x="735.23" y="-271" font-family="Helvetica,sans-Serif" font-size="10.00">userver/concurrent</text>
<text text-anchor="middle" x="781.23" y="-260" font-family="Helvetica,sans-Serif" font-size="10.00">/variable.hpp</text>
</a>
</g>
</g>
<!-- Node20&#45;&gt;Node21 -->
<g id="edge25_Node000020_Node000021" class="edge">
<title>Node20&#45;&gt;Node21</title>
<g id="a_edge25_Node000020_Node000021"><a xlink:title=" ">
<path fill="none" stroke="#63b8ff" d="M700.67,-324.44C715.59,-314.17 736.02,-300.11 752.57,-288.72"/>
<polygon fill="#63b8ff" stroke="#63b8ff" points="754.57,-291.6 760.82,-283.04 750.6,-285.83 754.57,-291.6"/>
</a>
</g>
</g>
<!-- Node33 -->
<g id="Node000033" class="node">
<title>Node33</title>
<g id="a_Node000033"><a xlink:href="../../d3/d39/congestion__control_2limiter_8hpp_source.html" target="_top" xlink:title=" ">
<polygon fill="white" stroke="#666666" points="632.73,-283 521.73,-283 521.73,-253 632.73,-253 632.73,-283"/>
<text text-anchor="start" x="529.73" y="-271" font-family="Helvetica,sans-Serif" font-size="10.00">userver/congestion</text>
<text text-anchor="middle" x="577.23" y="-260" font-family="Helvetica,sans-Serif" font-size="10.00">_control/limiter.hpp</text>
</a>
</g>
</g>
<!-- Node20&#45;&gt;Node33 -->
<g id="edge43_Node000020_Node000033" class="edge">
<title>Node20&#45;&gt;Node33</title>
<g id="a_edge43_Node000020_Node000033"><a xlink:title=" ">
<path fill="none" stroke="#63b8ff" d="M659.39,-324.44C644.17,-314.17 623.34,-300.11 606.46,-288.72"/>
<polygon fill="#63b8ff" stroke="#63b8ff" points="608.29,-285.74 598.05,-283.04 604.38,-291.54 608.29,-285.74"/>
</a>
</g>
</g>
<!-- Node34 -->
<g id="Node000034" class="node">
<title>Node34</title>
<g id="a_Node000034"><a xlink:href="../../d1/dc9/not__null_8hpp.html" target="_top" xlink:title="Restricts a pointer or smart pointer to only hold non&#45;null values.">
<polygon fill="white" stroke="#666666" points="1323.23,-145.5 1183.23,-145.5 1183.23,-126.5 1323.23,-126.5 1323.23,-145.5"/>
<text text-anchor="middle" x="1253.23" y="-133.5" font-family="Helvetica,sans-Serif" font-size="10.00">userver/utils/not_null.hpp</text>
</a>
</g>
</g>
<!-- Node20&#45;&gt;Node34 -->
<g id="edge46_Node000020_Node000034" class="edge">
<title>Node20&#45;&gt;Node34</title>
<g id="a_edge46_Node000020_Node000034"><a xlink:title=" ">
<path fill="none" stroke="#63b8ff" d="M722.8,-324.4C755.96,-313.34 803.11,-297.45 844.23,-283 925.01,-254.61 950.2,-258.25 1025.23,-217 1044.4,-206.46 1044.61,-196.65 1064.23,-187 1088.61,-175.01 1156.43,-158.46 1203.81,-147.74"/>
<polygon fill="#63b8ff" stroke="#63b8ff" points="1204.6,-151.15 1213.59,-145.55 1203.06,-144.32 1204.6,-151.15"/>
</a>
</g>
</g>
<!-- Node21&#45;&gt;Node7 -->
<g id="edge28_Node000021_Node000007" class="edge">
<title>Node21&#45;&gt;Node7</title>
<g id="a_edge28_Node000021_Node000007"><a xlink:title=" ">
<path fill="none" stroke="#63b8ff" d="M736.46,-252.95C699.74,-241.43 648.39,-225.32 614.03,-214.54"/>
<polygon fill="#63b8ff" stroke="#63b8ff" points="614.97,-211.17 604.38,-211.52 612.88,-217.85 614.97,-211.17"/>
</a>
</g>
</g>
<!-- Node22 -->
<g id="Node000022" class="node">
<title>Node22</title>
<g id="a_Node000022"><a xlink:title=" ">
<polygon fill="#e0e0e0" stroke="#999999" points="852.73,-211.5 803.73,-211.5 803.73,-192.5 852.73,-192.5 852.73,-211.5"/>
<text text-anchor="middle" x="828.23" y="-199.5" font-family="Helvetica,sans-Serif" font-size="10.00">cstdlib</text>
</a>
</g>
</g>
<!-- Node21&#45;&gt;Node22 -->
<g id="edge26_Node000021_Node000022" class="edge">
<title>Node21&#45;&gt;Node22</title>
<g id="a_edge26_Node000021_Node000022"><a xlink:title=" ">
<path fill="none" stroke="#63b8ff" d="M791.66,-252.8C798.78,-243.11 808.23,-230.24 815.74,-220.01"/>
<polygon fill="#63b8ff" stroke="#63b8ff" points="818.64,-221.98 821.74,-211.84 813,-217.83 818.64,-221.98"/>
</a>
</g>
</g>
<!-- Node23 -->
<g id="Node000023" class="node">
<title>Node23</title>
<g id="a_Node000023"><a xlink:title=" ">
<polygon fill="#e0e0e0" stroke="#999999" points="715.23,-145.5 667.23,-145.5 667.23,-126.5 715.23,-126.5 715.23,-145.5"/>
<text text-anchor="middle" x="691.23" y="-133.5" font-family="Helvetica,sans-Serif" font-size="10.00">mutex</text>
</a>
</g>
</g>
<!-- Node21&#45;&gt;Node23 -->
<g id="edge27_Node000021_Node000023" class="edge">
<title>Node21&#45;&gt;Node23</title>
<g id="a_edge27_Node000021_Node000023"><a xlink:title=" ">
<path fill="none" stroke="#63b8ff" d="M779.45,-252.85C776.76,-235.91 770.38,-207.29 756.23,-187 745.91,-172.2 729.87,-159.8 716.31,-151.05"/>
<polygon fill="#63b8ff" stroke="#63b8ff" points="717.78,-147.84 707.42,-145.59 714.11,-153.8 717.78,-147.84"/>
</a>
</g>
</g>
<!-- Node24 -->
<g id="Node000024" class="node">
<title>Node24</title>
<g id="a_Node000024"><a xlink:title=" ">
<polygon fill="#e0e0e0" stroke="#999999" points="747.23,-211.5 661.23,-211.5 661.23,-192.5 747.23,-192.5 747.23,-211.5"/>
<text text-anchor="middle" x="704.23" y="-199.5" font-family="Helvetica,sans-Serif" font-size="10.00">shared_mutex</text>
</a>
</g>
</g>
<!-- Node21&#45;&gt;Node24 -->
<g id="edge29_Node000021_Node000024" class="edge">
<title>Node21&#45;&gt;Node24</title>
<g id="a_edge29_Node000021_Node000024"><a xlink:title=" ">
<path fill="none" stroke="#63b8ff" d="M764.14,-252.8C751.9,-242.62 735.43,-228.93 722.86,-218.48"/>
<polygon fill="#63b8ff" stroke="#63b8ff" points="724.8,-215.54 714.87,-211.84 720.33,-220.93 724.8,-215.54"/>
</a>
</g>
</g>
<!-- Node25 -->
<g id="Node000025" class="node">
<title>Node25</title>
<g id="a_Node000025"><a xlink:href="../../d8/da6/mutex_8hpp.html" target="_top" xlink:title="std::mutex replacement for asynchronous tasks">
<polygon fill="white" stroke="#666666" points="1015.73,-211.5 870.73,-211.5 870.73,-192.5 1015.73,-192.5 1015.73,-211.5"/>
<text text-anchor="middle" x="943.23" y="-199.5" font-family="Helvetica,sans-Serif" font-size="10.00">userver/engine/mutex.hpp</text>
</a>
</g>
</g>
<!-- Node21&#45;&gt;Node25 -->
<g id="edge30_Node000021_Node000025" class="edge">
<title>Node21&#45;&gt;Node25</title>
<g id="a_edge30_Node000021_Node000025"><a xlink:title=" ">
<path fill="none" stroke="#63b8ff" d="M816.78,-252.95C845.32,-241.68 884.98,-226.01 912.24,-215.25"/>
<polygon fill="#63b8ff" stroke="#63b8ff" points="913.66,-218.45 921.67,-211.52 911.09,-211.94 913.66,-218.45"/>
</a>
</g>
</g>
<!-- Node25&#45;&gt;Node23 -->
<g id="edge33_Node000025_Node000023" class="edge">
<title>Node25&#45;&gt;Node23</title>
<g id="a_edge33_Node000025_Node000023"><a xlink:title=" ">
<path fill="none" stroke="#63b8ff" d="M894.72,-192.48C849.9,-184.01 781.75,-169.6 724.23,-151 722.6,-150.47 720.94,-149.9 719.28,-149.29"/>
<polygon fill="#63b8ff" stroke="#63b8ff" points="720.45,-145.99 709.86,-145.58 717.88,-152.5 720.45,-145.99"/>
</a>
</g>
</g>
<!-- Node26 -->
<g id="Node000026" class="node">
<title>Node26</title>
<g id="a_Node000026"><a xlink:title=" ">
<polygon fill="#e0e0e0" stroke="#999999" points="783.23,-145.5 733.23,-145.5 733.23,-126.5 783.23,-126.5 783.23,-145.5"/>
<text text-anchor="middle" x="758.23" y="-133.5" font-family="Helvetica,sans-Serif" font-size="10.00">atomic</text>
</a>
</g>
</g>
<!-- Node25&#45;&gt;Node26 -->
<g id="edge31_Node000025_Node000026" class="edge">
<title>Node25&#45;&gt;Node26</title>
<g id="a_edge31_Node000025_Node000026"><a xlink:title=" ">
<path fill="none" stroke="#63b8ff" d="M915.47,-192.46C885.03,-182.94 834.82,-166.8 792.23,-151 790.81,-150.47 789.36,-149.92 787.9,-149.36"/>
<polygon fill="#63b8ff" stroke="#63b8ff" points="788.86,-145.97 778.28,-145.53 786.27,-152.48 788.86,-145.97"/>
</a>
</g>
</g>
<!-- Node27 -->
<g id="Node000027" class="node">
<title>Node27</title>
<g id="a_Node000027"><a xlink:title=" ">
<polygon fill="#e0e0e0" stroke="#999999" points="972.23,-79.5 922.23,-79.5 922.23,-60.5 972.23,-60.5 972.23,-79.5"/>
<text text-anchor="middle" x="947.23" y="-67.5" font-family="Helvetica,sans-Serif" font-size="10.00">chrono</text>
</a>
</g>
</g>
<!-- Node25&#45;&gt;Node27 -->
<g id="edge32_Node000025_Node000027" class="edge">
<title>Node25&#45;&gt;Node27</title>
<g id="a_edge32_Node000025_Node000027"><a xlink:title=" ">
<path fill="none" stroke="#63b8ff" d="M943.5,-192.47C944.13,-171.82 945.76,-118.72 946.65,-90.04"/>
<polygon fill="#63b8ff" stroke="#63b8ff" points="950.15,-89.83 946.96,-79.73 943.16,-89.62 950.15,-89.83"/>
</a>
</g>
</g>
<!-- Node28 -->
<g id="Node000028" class="node">
<title>Node28</title>
<g id="a_Node000028"><a xlink:href="../../d2/d22/deadline_8hpp.html" target="_top" xlink:title="Internal representation of a deadline time point.">
<polygon fill="white" stroke="#666666" points="1164.73,-145.5 1009.73,-145.5 1009.73,-126.5 1164.73,-126.5 1164.73,-145.5"/>
<text text-anchor="middle" x="1087.23" y="-133.5" font-family="Helvetica,sans-Serif" font-size="10.00">userver/engine/deadline.hpp</text>
</a>
</g>
</g>
<!-- Node25&#45;&gt;Node28 -->
<g id="edge34_Node000025_Node000028" class="edge">
<title>Node25&#45;&gt;Node28</title>
<g id="a_edge34_Node000025_Node000028"><a xlink:title=" ">
<path fill="none" stroke="#63b8ff" d="M962.65,-192.37C987.24,-181.44 1029.81,-162.52 1058.24,-149.88"/>
<polygon fill="#63b8ff" stroke="#63b8ff" points="1059.94,-152.96 1067.66,-145.7 1057.1,-146.56 1059.94,-152.96"/>
</a>
</g>
</g>
<!-- Node31 -->
<g id="Node000031" class="node">
<title>Node31</title>
<g id="a_Node000031"><a xlink:href="../../d9/db5/wait__list__fwd_8hpp_source.html" target="_top" xlink:title=" ">
<polygon fill="white" stroke="#666666" points="915.23,-151 801.23,-151 801.23,-121 915.23,-121 915.23,-151"/>
<text text-anchor="start" x="809.23" y="-139" font-family="Helvetica,sans-Serif" font-size="10.00">userver/engine/impl</text>
<text text-anchor="middle" x="858.23" y="-128" font-family="Helvetica,sans-Serif" font-size="10.00">/wait_list_fwd.hpp</text>
</a>
</g>
</g>
<!-- Node25&#45;&gt;Node31 -->
<g id="edge39_Node000025_Node000031" class="edge">
<title>Node25&#45;&gt;Node31</title>
<g id="a_edge39_Node000025_Node000031"><a xlink:title=" ">
<path fill="none" stroke="#63b8ff" d="M931.77,-192.37C919.92,-183.44 900.98,-169.19 885.3,-157.38"/>
<polygon fill="#63b8ff" stroke="#63b8ff" points="887.07,-154.33 876.98,-151.12 882.86,-159.93 887.07,-154.33"/>
</a>
</g>
</g>
<!-- Node28&#45;&gt;Node8 -->
<g id="edge36_Node000028_Node000008" class="edge">
<title>Node28&#45;&gt;Node8</title>
<g id="a_edge36_Node000028_Node000008"><a xlink:title=" ">
<path fill="none" stroke="#63b8ff" d="M1075.33,-126.2C1061.91,-116.25 1039.44,-99.55 1020.23,-85 1002.8,-71.79 1000.79,-64.79 981.23,-55 961.21,-44.97 906.39,-30.61 866.71,-20.93"/>
<polygon fill="#63b8ff" stroke="#63b8ff" points="867.53,-17.53 856.98,-18.58 865.88,-24.33 867.53,-17.53"/>
</a>
</g>
</g>
<!-- Node28&#45;&gt;Node27 -->
<g id="edge35_Node000028_Node000027" class="edge">
<title>Node28&#45;&gt;Node27</title>
<g id="a_edge35_Node000028_Node000027"><a xlink:title=" ">
<path fill="none" stroke="#63b8ff" d="M1068.35,-126.37C1044.45,-115.44 1003.06,-96.52 975.42,-83.88"/>
<polygon fill="#63b8ff" stroke="#63b8ff" points="976.81,-80.67 966.26,-79.7 973.9,-87.04 976.81,-80.67"/>
</a>
</g>
</g>
<!-- Node29 -->
<g id="Node000029" class="node">
<title>Node29</title>
<g id="a_Node000029"><a xlink:href="../../d2/d54/assert_8hpp.html" target="_top" xlink:title="Assertion macros UASSERT, UASSERT_MSG, UINVARIANT.">
<polygon fill="white" stroke="#666666" points="1159.73,-79.5 1028.73,-79.5 1028.73,-60.5 1159.73,-60.5 1159.73,-79.5"/>
<text text-anchor="middle" x="1094.23" y="-67.5" font-family="Helvetica,sans-Serif" font-size="10.00">userver/utils/assert.hpp</text>
</a>
</g>
</g>
<!-- Node28&#45;&gt;Node29 -->
<g id="edge37_Node000028_Node000029" class="edge">
<title>Node28&#45;&gt;Node29</title>
<g id="a_edge37_Node000028_Node000029"><a xlink:title=" ">
<path fill="none" stroke="#63b8ff" d="M1088.18,-126.37C1089.19,-117.07 1090.84,-101.98 1092.17,-89.9"/>
<polygon fill="#63b8ff" stroke="#63b8ff" points="1095.65,-90.23 1093.26,-79.91 1088.69,-89.47 1095.65,-90.23"/>
</a>
</g>
</g>
<!-- Node30 -->
<g id="Node000030" class="node">
<title>Node30</title>
<g id="a_Node000030"><a xlink:title=" ">
<polygon fill="#e0e0e0" stroke="#999999" points="1130.73,-19 1057.73,-19 1057.73,0 1130.73,0 1130.73,-19"/>
<text text-anchor="middle" x="1094.23" y="-7" font-family="Helvetica,sans-Serif" font-size="10.00">string_view</text>
</a>
</g>
</g>
<!-- Node29&#45;&gt;Node30 -->
<g id="edge38_Node000029_Node000030" class="edge">
<title>Node29&#45;&gt;Node30</title>
<g id="a_edge38_Node000029_Node000030"><a xlink:title=" ">
<path fill="none" stroke="#63b8ff" d="M1094.23,-60.37C1094.23,-52.25 1094.23,-39.81 1094.23,-29.39"/>
<polygon fill="#63b8ff" stroke="#63b8ff" points="1097.73,-29.17 1094.23,-19.17 1090.73,-29.17 1097.73,-29.17"/>
</a>
</g>
</g>
<!-- Node31&#45;&gt;Node17 -->
<g id="edge42_Node000031_Node000017" class="edge">
<title>Node31&#45;&gt;Node17</title>
<g id="a_edge42_Node000031_Node000017"><a xlink:title=" ">
<path fill="none" stroke="#63b8ff" d="M857.34,-120.8C856.88,-113.34 856.29,-103.99 855.76,-95.41"/>
<polygon fill="#63b8ff" stroke="#63b8ff" points="859.23,-94.93 855.12,-85.16 852.25,-95.36 859.23,-94.93"/>
</a>
</g>
</g>
<!-- Node32 -->
<g id="Node000032" class="node">
<title>Node32</title>
<g id="a_Node000032"><a xlink:href="../../d2/d84/select_8hpp.html" target="_top" xlink:title="Utilities for selection of platform specific values.">
<polygon fill="white" stroke="#666666" points="786.23,-79.5 634.23,-79.5 634.23,-60.5 786.23,-60.5 786.23,-79.5"/>
<text text-anchor="middle" x="710.23" y="-67.5" font-family="Helvetica,sans-Serif" font-size="10.00">userver/compiler/select.hpp</text>
</a>
</g>
</g>
<!-- Node31&#45;&gt;Node32 -->
<g id="edge40_Node000031_Node000032" class="edge">
<title>Node31&#45;&gt;Node32</title>
<g id="a_edge40_Node000031_Node000032"><a xlink:title=" ">
<path fill="none" stroke="#63b8ff" d="M825.75,-120.95C799.91,-109.78 764.08,-94.29 739.21,-83.53"/>
<polygon fill="#63b8ff" stroke="#63b8ff" points="740.5,-80.27 729.93,-79.52 737.72,-86.7 740.5,-80.27"/>
</a>
</g>
</g>
<!-- Node32&#45;&gt;Node11 -->
<g id="edge41_Node000032_Node000011" class="edge">
<title>Node32&#45;&gt;Node11</title>
<g id="a_edge41_Node000032_Node000011"><a xlink:title=" ">
<path fill="none" stroke="#63b8ff" d="M710.23,-60.37C710.23,-52.25 710.23,-39.81 710.23,-29.39"/>
<polygon fill="#63b8ff" stroke="#63b8ff" points="713.73,-29.17 710.23,-19.17 706.73,-29.17 713.73,-29.17"/>
</a>
</g>
</g>
<!-- Node33&#45;&gt;Node4 -->
<g id="edge45_Node000033_Node000004" class="edge">
<title>Node33&#45;&gt;Node4</title>
<g id="a_edge45_Node000033_Node000004"><a xlink:title=" ">
<path fill="none" stroke="#63b8ff" d="M554.82,-252.8C538.05,-242.17 515.22,-227.7 498.49,-217.1"/>
<polygon fill="#63b8ff" stroke="#63b8ff" points="500.22,-214.05 489.9,-211.66 496.47,-219.97 500.22,-214.05"/>
</a>
</g>
</g>
<!-- Node33&#45;&gt;Node7 -->
<g id="edge44_Node000033_Node000007" class="edge">
<title>Node33&#45;&gt;Node7</title>
<g id="a_edge44_Node000033_Node000007"><a xlink:title=" ">
<path fill="none" stroke="#63b8ff" d="M577.23,-252.8C577.23,-243.7 577.23,-231.79 577.23,-221.9"/>
<polygon fill="#63b8ff" stroke="#63b8ff" points="580.73,-221.84 577.23,-211.84 573.73,-221.84 580.73,-221.84"/>
</a>
</g>
</g>
<!-- Node34&#45;&gt;Node8 -->
<g id="edge49_Node000034_Node000008" class="edge">
<title>Node34&#45;&gt;Node8</title>
<g id="a_edge49_Node000034_Node000008"><a xlink:title=" ">
<path fill="none" stroke="#63b8ff" d="M1244.52,-126.41C1223.97,-106.2 1173.86,-57.17 1169.23,-55 1049.39,1.37 1002.44,-37.93 866.71,-18.89"/>
<polygon fill="#63b8ff" stroke="#63b8ff" points="867.18,-15.43 856.78,-17.42 866.16,-22.35 867.18,-15.43"/>
</a>
</g>
</g>
<!-- Node34&#45;&gt;Node19 -->
<g id="edge50_Node000034_Node000019" class="edge">
<title>Node34&#45;&gt;Node19</title>
<g id="a_edge50_Node000034_Node000019"><a xlink:title=" ">
<path fill="none" stroke="#63b8ff" d="M1250.34,-126.38C1244.27,-109.72 1228.56,-73.12 1202.23,-55 1187.17,-44.63 1074.75,-25.11 1017.92,-15.76"/>
<polygon fill="#63b8ff" stroke="#63b8ff" points="1018.42,-12.3 1007.99,-14.14 1017.29,-19.2 1018.42,-12.3"/>
</a>
</g>
</g>
<!-- Node34&#45;&gt;Node29 -->
<g id="edge51_Node000034_Node000029" class="edge">
<title>Node34&#45;&gt;Node29</title>
<g id="a_edge51_Node000034_Node000029"><a xlink:title=" ">
<path fill="none" stroke="#63b8ff" d="M1231.79,-126.37C1204.33,-115.32 1156.55,-96.08 1125.16,-83.45"/>
<polygon fill="#63b8ff" stroke="#63b8ff" points="1126.17,-80.08 1115.59,-79.6 1123.56,-86.58 1126.17,-80.08"/>
</a>
</g>
</g>
<!-- Node35 -->
<g id="Node000035" class="node">
<title>Node35</title>
<g id="a_Node000035"><a xlink:title=" ">
<polygon fill="#e0e0e0" stroke="#999999" points="1319.73,-79.5 1254.73,-79.5 1254.73,-60.5 1319.73,-60.5 1319.73,-79.5"/>
<text text-anchor="middle" x="1287.23" y="-67.5" font-family="Helvetica,sans-Serif" font-size="10.00">functional</text>
</a>
</g>
</g>
<!-- Node34&#45;&gt;Node35 -->
<g id="edge47_Node000034_Node000035" class="edge">
<title>Node34&#45;&gt;Node35</title>
<g id="a_edge47_Node000034_Node000035"><a xlink:title=" ">
<path fill="none" stroke="#63b8ff" d="M1257.82,-126.37C1262.91,-116.78 1271.27,-101.05 1277.78,-88.8"/>
<polygon fill="#63b8ff" stroke="#63b8ff" points="1280.9,-90.38 1282.5,-79.91 1274.72,-87.09 1280.9,-90.38"/>
</a>
</g>
</g>
<!-- Node36 -->
<g id="Node000036" class="node">
<title>Node36</title>
<g id="a_Node000036"><a xlink:title=" ">
<polygon fill="#e0e0e0" stroke="#999999" points="1416.23,-79.5 1358.23,-79.5 1358.23,-60.5 1416.23,-60.5 1416.23,-79.5"/>
<text text-anchor="middle" x="1387.23" y="-67.5" font-family="Helvetica,sans-Serif" font-size="10.00">memory</text>
</a>
</g>
</g>
<!-- Node34&#45;&gt;Node36 -->
<g id="edge48_Node000034_Node000036" class="edge">
<title>Node34&#45;&gt;Node36</title>
<g id="a_edge48_Node000034_Node000036"><a xlink:title=" ">
<path fill="none" stroke="#63b8ff" d="M1271.3,-126.37C1294.08,-115.49 1333.45,-96.69 1359.91,-84.05"/>
<polygon fill="#63b8ff" stroke="#63b8ff" points="1361.5,-87.17 1369.02,-79.7 1358.49,-80.85 1361.5,-87.17"/>
</a>
</g>
</g>
<!-- Node37&#45;&gt;Node17 -->
<g id="edge54_Node000037_Node000017" class="edge">
<title>Node37&#45;&gt;Node17</title>
<g id="a_edge54_Node000037_Node000017"><a xlink:title=" ">
<path fill="none" stroke="#63b8ff" d="M1092.97,-186.95C1066.28,-177.66 1031.28,-164.7 1001.23,-151 960.68,-132.51 915.94,-107.45 886.6,-90.34"/>
<polygon fill="#63b8ff" stroke="#63b8ff" points="888.03,-87.12 877.64,-85.08 884.49,-93.16 888.03,-87.12"/>
</a>
</g>
</g>
<!-- Node38 -->
<g id="Node000038" class="node">
<title>Node38</title>
<g id="a_Node000038"><a xlink:href="../../d7/def/core_2include_2userver_2utils_2statistics_2fwd_8hpp.html" target="_top" xlink:title="Forward declarations for statistics entities.">
<polygon fill="white" stroke="#666666" points="1466.73,-151 1341.73,-151 1341.73,-121 1466.73,-121 1466.73,-151"/>
<text text-anchor="start" x="1349.73" y="-139" font-family="Helvetica,sans-Serif" font-size="10.00">userver/utils/statistics</text>
<text text-anchor="middle" x="1404.23" y="-128" font-family="Helvetica,sans-Serif" font-size="10.00">/fwd.hpp</text>
</a>
</g>
</g>
<!-- Node37&#45;&gt;Node38 -->
<g id="edge55_Node000037_Node000038" class="edge">
<title>Node37&#45;&gt;Node38</title>
<g id="a_edge55_Node000037_Node000038"><a xlink:title=" ">
<path fill="none" stroke="#63b8ff" d="M1194.27,-186.95C1235.88,-177.06 1291.73,-163.77 1335.37,-153.38"/>
<polygon fill="#63b8ff" stroke="#63b8ff" points="1336.42,-156.73 1345.34,-151.01 1334.8,-149.92 1336.42,-156.73"/>
</a>
</g>
</g>
<!-- Node38&#45;&gt;Node36 -->
<g id="edge56_Node000038_Node000036" class="edge">
<title>Node38&#45;&gt;Node36</title>
<g id="a_edge56_Node000038_Node000036"><a xlink:title=" ">
<path fill="none" stroke="#63b8ff" d="M1400.46,-120.8C1398.02,-111.6 1394.81,-99.53 1392.17,-89.58"/>
<polygon fill="#63b8ff" stroke="#63b8ff" points="1395.53,-88.61 1389.58,-79.84 1388.77,-90.41 1395.53,-88.61"/>
</a>
</g>
</g>
</g>
</svg>
