<?xml version="1.0" encoding="UTF-8" standalone="no"?>
<!DOCTYPE svg PUBLIC "-//W3C//DTD SVG 1.1//EN"
 "http://www.w3.org/Graphics/SVG/1.1/DTD/svg11.dtd">
<!-- Generated by graphviz version 2.43.0 (0)
 -->
<!-- Title: storages::postgres::LogicError Pages: 1 -->
<svg width="900pt" height="1334pt"
 viewBox="0.00 0.00 900.00 1334.00" xmlns="http://www.w3.org/2000/svg" xmlns:xlink="http://www.w3.org/1999/xlink">
<g id="graph0" class="graph" transform="scale(1 1) rotate(0) translate(4 1330)">
<title>storages::postgres::LogicError</title>
<!-- Node1 -->
<g id="Node000001" class="node">
<title>Node1</title>
<g id="a_Node000001"><a xlink:title="Base Postgres logic error. Reports errors that are consequences of erroneous driver usage,...">
<polygon fill="#999999" stroke="#666666" points="512,-966 405,-966 405,-936 512,-936 512,-966"/>
<text text-anchor="start" x="413" y="-954" font-family="Helvetica,sans-Serif" font-size="10.00">storages::postgres</text>
<text text-anchor="middle" x="458.5" y="-943" font-family="Helvetica,sans-Serif" font-size="10.00">::LogicError</text>
</a>
</g>
</g>
<!-- Node5 -->
<g id="Node000005" class="node">
<title>Node5</title>
<g id="a_Node000005"><a xlink:href="../../d6/d1b/classstorages_1_1postgres_1_1ArrayError.html" target="_top" xlink:title="Base error when working with array types.">
<polygon fill="white" stroke="#666666" points="662.5,-1278 555.5,-1278 555.5,-1248 662.5,-1248 662.5,-1278"/>
<text text-anchor="start" x="563.5" y="-1266" font-family="Helvetica,sans-Serif" font-size="10.00">storages::postgres</text>
<text text-anchor="middle" x="609" y="-1255" font-family="Helvetica,sans-Serif" font-size="10.00">::ArrayError</text>
</a>
</g>
</g>
<!-- Node1&#45;&gt;Node5 -->
<g id="edge4_Node000001_Node000005" class="edge">
<title>Node1&#45;&gt;Node5</title>
<g id="a_edge4_Node000001_Node000005"><a xlink:title=" ">
<path fill="none" stroke="#63b8ff" d="M465.65,-975.89C477.41,-1020.88 505.73,-1117.85 548,-1191 560.46,-1212.55 579.46,-1234.06 592.73,-1247.88"/>
<polygon fill="#63b8ff" stroke="#63b8ff" points="469.02,-974.93 463.14,-966.11 462.24,-976.66 469.02,-974.93"/>
</a>
</g>
</g>
<!-- Node8 -->
<g id="Node000008" class="node">
<title>Node8</title>
<g id="a_Node000008"><a xlink:href="../../dc/d02/classstorages_1_1postgres_1_1BitStringError.html" target="_top" xlink:title="Base error when working with bit string types.">
<polygon fill="white" stroke="#666666" points="662.5,-1182 555.5,-1182 555.5,-1152 662.5,-1152 662.5,-1182"/>
<text text-anchor="start" x="563.5" y="-1170" font-family="Helvetica,sans-Serif" font-size="10.00">storages::postgres</text>
<text text-anchor="middle" x="609" y="-1159" font-family="Helvetica,sans-Serif" font-size="10.00">::BitStringError</text>
</a>
</g>
</g>
<!-- Node1&#45;&gt;Node8 -->
<g id="edge7_Node000001_Node000008" class="edge">
<title>Node1&#45;&gt;Node8</title>
<g id="a_edge7_Node000001_Node000008"><a xlink:title=" ">
<path fill="none" stroke="#63b8ff" d="M464.72,-976.04C474.36,-1016.42 498.65,-1096.13 548,-1143 551.58,-1146.4 555.7,-1149.34 560.07,-1151.88"/>
<polygon fill="#63b8ff" stroke="#63b8ff" points="468.11,-975.18 462.48,-966.21 461.29,-976.74 468.11,-975.18"/>
</a>
</g>
</g>
<!-- Node11 -->
<g id="Node000011" class="node">
<title>Node11</title>
<g id="a_Node000011"><a xlink:href="../../d5/d44/classstorages_1_1postgres_1_1BoundedRangeError.html" target="_top" xlink:title="PostgreSQL range type has at least one end unbound.">
<polygon fill="white" stroke="#666666" points="668.5,-1134 549.5,-1134 549.5,-1104 668.5,-1104 668.5,-1134"/>
<text text-anchor="start" x="557.5" y="-1122" font-family="Helvetica,sans-Serif" font-size="10.00">storages::postgres</text>
<text text-anchor="middle" x="609" y="-1111" font-family="Helvetica,sans-Serif" font-size="10.00">::BoundedRangeError</text>
</a>
</g>
</g>
<!-- Node1&#45;&gt;Node11 -->
<g id="edge10_Node000001_Node000011" class="edge">
<title>Node1&#45;&gt;Node11</title>
<g id="a_edge10_Node000001_Node000011"><a xlink:title=" ">
<path fill="none" stroke="#63b8ff" d="M468.87,-975.65C482.05,-1007.3 508.92,-1062.07 548,-1095 552.03,-1098.4 556.61,-1101.36 561.39,-1103.92"/>
<polygon fill="#63b8ff" stroke="#63b8ff" points="472.06,-974.2 465.07,-966.24 465.57,-976.82 472.06,-974.2"/>
</a>
</g>
</g>
<!-- Node12 -->
<g id="Node000012" class="node">
<title>Node12</title>
<g id="a_Node000012"><a xlink:href="../../d8/d70/classstorages_1_1postgres_1_1EnumerationError.html" target="_top" xlink:title=" ">
<polygon fill="white" stroke="#bfbfbf" points="663,-1086 555,-1086 555,-1056 663,-1056 663,-1086"/>
<text text-anchor="start" x="563" y="-1074" font-family="Helvetica,sans-Serif" font-size="10.00">storages::postgres</text>
<text text-anchor="middle" x="609" y="-1063" font-family="Helvetica,sans-Serif" font-size="10.00">::EnumerationError</text>
</a>
</g>
</g>
<!-- Node1&#45;&gt;Node12 -->
<g id="edge11_Node000001_Node000012" class="edge">
<title>Node1&#45;&gt;Node12</title>
<g id="a_edge11_Node000001_Node000012"><a xlink:title=" ">
<path fill="none" stroke="#63b8ff" d="M476.27,-974.5C492.53,-995.85 518.96,-1026.99 548,-1047 552.8,-1050.31 558.13,-1053.27 563.57,-1055.87"/>
<polygon fill="#63b8ff" stroke="#63b8ff" points="478.93,-972.21 470.14,-966.28 473.31,-976.39 478.93,-972.21"/>
</a>
</g>
</g>
<!-- Node15 -->
<g id="Node000015" class="node">
<title>Node15</title>
<g id="a_Node000015"><a xlink:href="../../d9/d89/classstorages_1_1postgres_1_1InvalidInputFormat.html" target="_top" xlink:title="Invalid format for input data.">
<polygon fill="white" stroke="#666666" points="666.5,-1038 551.5,-1038 551.5,-1008 666.5,-1008 666.5,-1038"/>
<text text-anchor="start" x="559.5" y="-1026" font-family="Helvetica,sans-Serif" font-size="10.00">storages::postgres</text>
<text text-anchor="middle" x="609" y="-1015" font-family="Helvetica,sans-Serif" font-size="10.00">::InvalidInputFormat</text>
</a>
</g>
</g>
<!-- Node1&#45;&gt;Node15 -->
<g id="edge14_Node000001_Node000015" class="edge">
<title>Node1&#45;&gt;Node15</title>
<g id="a_edge14_Node000001_Node000015"><a xlink:title=" ">
<path fill="none" stroke="#63b8ff" d="M494.46,-971.18C510.55,-980.15 530.01,-990.56 548,-999 554.5,-1002.05 561.5,-1005.08 568.34,-1007.9"/>
<polygon fill="#63b8ff" stroke="#63b8ff" points="495.85,-967.95 485.42,-966.1 492.42,-974.05 495.85,-967.95"/>
</a>
</g>
</g>
<!-- Node16 -->
<g id="Node000016" class="node">
<title>Node16</title>
<g id="a_Node000016"><a xlink:href="../../d6/d97/classstorages_1_1postgres_1_1IpAddressError.html" target="_top" xlink:title=" ">
<polygon fill="white" stroke="#bfbfbf" points="662.5,-990 555.5,-990 555.5,-960 662.5,-960 662.5,-990"/>
<text text-anchor="start" x="563.5" y="-978" font-family="Helvetica,sans-Serif" font-size="10.00">storages::postgres</text>
<text text-anchor="middle" x="609" y="-967" font-family="Helvetica,sans-Serif" font-size="10.00">::IpAddressError</text>
</a>
</g>
</g>
<!-- Node1&#45;&gt;Node16 -->
<g id="edge15_Node000001_Node000016" class="edge">
<title>Node1&#45;&gt;Node16</title>
<g id="a_edge15_Node000001_Node000016"><a xlink:title=" ">
<path fill="none" stroke="#63b8ff" d="M522.28,-961.15C533.31,-962.93 544.68,-964.77 555.4,-966.5"/>
<polygon fill="#63b8ff" stroke="#63b8ff" points="522.7,-957.67 512.27,-959.53 521.59,-964.58 522.7,-957.67"/>
</a>
</g>
</g>
<!-- Node18 -->
<g id="Node000018" class="node">
<title>Node18</title>
<g id="a_Node000018"><a xlink:href="../../d2/d9d/classstorages_1_1postgres_1_1NotImplemented.html" target="_top" xlink:title=" ">
<polygon fill="white" stroke="#bfbfbf" points="662.5,-942 555.5,-942 555.5,-912 662.5,-912 662.5,-942"/>
<text text-anchor="start" x="563.5" y="-930" font-family="Helvetica,sans-Serif" font-size="10.00">storages::postgres</text>
<text text-anchor="middle" x="609" y="-919" font-family="Helvetica,sans-Serif" font-size="10.00">::NotImplemented</text>
</a>
</g>
</g>
<!-- Node1&#45;&gt;Node18 -->
<g id="edge17_Node000001_Node000018" class="edge">
<title>Node1&#45;&gt;Node18</title>
<g id="a_edge17_Node000001_Node000018"><a xlink:title=" ">
<path fill="none" stroke="#63b8ff" d="M522.28,-940.85C533.31,-939.07 544.68,-937.23 555.4,-935.5"/>
<polygon fill="#63b8ff" stroke="#63b8ff" points="521.59,-937.42 512.27,-942.47 522.7,-944.33 521.59,-937.42"/>
</a>
</g>
</g>
<!-- Node19 -->
<g id="Node000019" class="node">
<title>Node19</title>
<g id="a_Node000019"><a xlink:href="../../d2/d86/classstorages_1_1postgres_1_1NumericError.html" target="_top" xlink:title=" ">
<polygon fill="white" stroke="#bfbfbf" points="662.5,-894 555.5,-894 555.5,-864 662.5,-864 662.5,-894"/>
<text text-anchor="start" x="563.5" y="-882" font-family="Helvetica,sans-Serif" font-size="10.00">storages::postgres</text>
<text text-anchor="middle" x="609" y="-871" font-family="Helvetica,sans-Serif" font-size="10.00">::NumericError</text>
</a>
</g>
</g>
<!-- Node1&#45;&gt;Node19 -->
<g id="edge18_Node000001_Node000019" class="edge">
<title>Node1&#45;&gt;Node19</title>
<g id="a_edge18_Node000001_Node000019"><a xlink:title=" ">
<path fill="none" stroke="#63b8ff" d="M494.46,-930.82C510.55,-921.85 530.01,-911.44 548,-903 554.5,-899.95 561.5,-896.92 568.34,-894.1"/>
<polygon fill="#63b8ff" stroke="#63b8ff" points="492.42,-927.95 485.42,-935.9 495.85,-934.05 492.42,-927.95"/>
</a>
</g>
</g>
<!-- Node23 -->
<g id="Node000023" class="node">
<title>Node23</title>
<g id="a_Node000023"><a xlink:href="../../d5/d9d/classstorages_1_1postgres_1_1ResultSetError.html" target="_top" xlink:title=" ">
<polygon fill="white" stroke="#bfbfbf" points="662.5,-558 555.5,-558 555.5,-528 662.5,-528 662.5,-558"/>
<text text-anchor="start" x="563.5" y="-546" font-family="Helvetica,sans-Serif" font-size="10.00">storages::postgres</text>
<text text-anchor="middle" x="609" y="-535" font-family="Helvetica,sans-Serif" font-size="10.00">::ResultSetError</text>
</a>
</g>
</g>
<!-- Node1&#45;&gt;Node23 -->
<g id="edge22_Node000001_Node000023" class="edge">
<title>Node1&#45;&gt;Node23</title>
<g id="a_edge22_Node000001_Node000023"><a xlink:title=" ">
<path fill="none" stroke="#63b8ff" d="M468.5,-926.28C496.27,-849.96 580.16,-619.49 602.49,-558.14"/>
<polygon fill="#63b8ff" stroke="#63b8ff" points="465.09,-925.4 464.96,-936 471.67,-927.8 465.09,-925.4"/>
</a>
</g>
</g>
<!-- Node38 -->
<g id="Node000038" class="node">
<title>Node38</title>
<g id="a_Node000038"><a xlink:href="../../da/d65/classstorages_1_1postgres_1_1TransactionError.html" target="_top" xlink:title=" ">
<polygon fill="white" stroke="#bfbfbf" points="662.5,-342 555.5,-342 555.5,-312 662.5,-312 662.5,-342"/>
<text text-anchor="start" x="563.5" y="-330" font-family="Helvetica,sans-Serif" font-size="10.00">storages::postgres</text>
<text text-anchor="middle" x="609" y="-319" font-family="Helvetica,sans-Serif" font-size="10.00">::TransactionError</text>
</a>
</g>
</g>
<!-- Node1&#45;&gt;Node38 -->
<g id="edge37_Node000001_Node000038" class="edge">
<title>Node1&#45;&gt;Node38</title>
<g id="a_edge37_Node000001_Node000038"><a xlink:title=" ">
<path fill="none" stroke="#63b8ff" d="M463.72,-925.97C475.14,-859.29 508.51,-672.08 548,-519 565.19,-452.38 591.45,-374.6 602.65,-342.28"/>
<polygon fill="#63b8ff" stroke="#63b8ff" points="460.24,-925.51 462.02,-935.95 467.15,-926.68 460.24,-925.51"/>
</a>
</g>
</g>
<!-- Node41 -->
<g id="Node000041" class="node">
<title>Node41</title>
<g id="a_Node000041"><a xlink:href="../../d3/db3/classstorages_1_1postgres_1_1UnsupportedInterval.html" target="_top" xlink:title=" ">
<polygon fill="white" stroke="#666666" points="670,-294 548,-294 548,-264 670,-264 670,-294"/>
<text text-anchor="start" x="556" y="-282" font-family="Helvetica,sans-Serif" font-size="10.00">storages::postgres</text>
<text text-anchor="middle" x="609" y="-271" font-family="Helvetica,sans-Serif" font-size="10.00">::UnsupportedInterval</text>
</a>
</g>
</g>
<!-- Node1&#45;&gt;Node41 -->
<g id="edge40_Node000001_Node000041" class="edge">
<title>Node1&#45;&gt;Node41</title>
<g id="a_edge40_Node000001_Node000041"><a xlink:title=" ">
<path fill="none" stroke="#63b8ff" d="M459.66,-925.56C460.81,-818.11 470.29,-402.5 548,-303 550.69,-299.55 553.96,-296.6 557.56,-294.07"/>
<polygon fill="#63b8ff" stroke="#63b8ff" points="456.16,-925.75 459.56,-935.78 463.16,-925.81 456.16,-925.75"/>
</a>
</g>
</g>
<!-- Node42 -->
<g id="Node000042" class="node">
<title>Node42</title>
<g id="a_Node000042"><a xlink:href="../../d8/d1c/classstorages_1_1postgres_1_1UserTypeError.html" target="_top" xlink:title="Base error when working with mapped types.">
<polygon fill="white" stroke="#666666" points="662.5,-78 555.5,-78 555.5,-48 662.5,-48 662.5,-78"/>
<text text-anchor="start" x="563.5" y="-66" font-family="Helvetica,sans-Serif" font-size="10.00">storages::postgres</text>
<text text-anchor="middle" x="609" y="-55" font-family="Helvetica,sans-Serif" font-size="10.00">::UserTypeError</text>
</a>
</g>
</g>
<!-- Node1&#45;&gt;Node42 -->
<g id="edge41_Node000001_Node000042" class="edge">
<title>Node1&#45;&gt;Node42</title>
<g id="a_edge41_Node000001_Node000042"><a xlink:title=" ">
<path fill="none" stroke="#63b8ff" d="M461.1,-925.66C467.22,-834.28 491.65,-513.46 548,-255 562.66,-187.78 590.29,-110.32 602.24,-78.18"/>
<polygon fill="#63b8ff" stroke="#63b8ff" points="457.61,-925.44 460.45,-935.65 464.59,-925.9 457.61,-925.44"/>
</a>
</g>
</g>
<!-- Node2 -->
<g id="Node000002" class="node">
<title>Node2</title>
<g id="a_Node000002"><a xlink:href="../../df/d3d/classstorages_1_1postgres_1_1Error.html" target="_top" xlink:title="Base class for all exceptions that may be thrown by the driver.">
<polygon fill="white" stroke="#666666" points="369,-966 262,-966 262,-936 369,-936 369,-966"/>
<text text-anchor="start" x="270" y="-954" font-family="Helvetica,sans-Serif" font-size="10.00">storages::postgres</text>
<text text-anchor="middle" x="315.5" y="-943" font-family="Helvetica,sans-Serif" font-size="10.00">::Error</text>
</a>
</g>
</g>
<!-- Node2&#45;&gt;Node1 -->
<g id="edge1_Node000001_Node000002" class="edge">
<title>Node2&#45;&gt;Node1</title>
<g id="a_edge1_Node000001_Node000002"><a xlink:title=" ">
<path fill="none" stroke="#63b8ff" d="M379.05,-951C387.7,-951 396.51,-951 404.95,-951"/>
<polygon fill="#63b8ff" stroke="#63b8ff" points="379,-947.5 369,-951 379,-954.5 379,-947.5"/>
</a>
</g>
</g>
<!-- Node3 -->
<g id="Node000003" class="node">
<title>Node3</title>
<g id="a_Node000003"><a xlink:title=" ">
<polygon fill="white" stroke="#666666" points="226,-960.5 122,-960.5 122,-941.5 226,-941.5 226,-960.5"/>
<text text-anchor="middle" x="174" y="-948.5" font-family="Helvetica,sans-Serif" font-size="10.00">std::runtime_error</text>
</a>
</g>
</g>
<!-- Node3&#45;&gt;Node2 -->
<g id="edge2_Node000002_Node000003" class="edge">
<title>Node3&#45;&gt;Node2</title>
<g id="a_edge2_Node000002_Node000003"><a xlink:title=" ">
<path fill="none" stroke="#63b8ff" d="M236.42,-951C244.93,-951 253.62,-951 261.95,-951"/>
<polygon fill="#63b8ff" stroke="#63b8ff" points="236.15,-947.5 226.15,-951 236.15,-954.5 236.15,-947.5"/>
</a>
</g>
</g>
<!-- Node4 -->
<g id="Node000004" class="node">
<title>Node4</title>
<g id="a_Node000004"><a xlink:title=" ">
<polygon fill="white" stroke="#666666" points="86,-960.5 0,-960.5 0,-941.5 86,-941.5 86,-960.5"/>
<text text-anchor="middle" x="43" y="-948.5" font-family="Helvetica,sans-Serif" font-size="10.00">std::exception</text>
</a>
</g>
</g>
<!-- Node4&#45;&gt;Node3 -->
<g id="edge3_Node000003_Node000004" class="edge">
<title>Node4&#45;&gt;Node3</title>
<g id="a_edge3_Node000003_Node000004"><a xlink:title=" ">
<path fill="none" stroke="#63b8ff" d="M96.27,-951C104.65,-951 113.31,-951 121.66,-951"/>
<polygon fill="#63b8ff" stroke="#63b8ff" points="96.24,-947.5 86.24,-951 96.24,-954.5 96.24,-947.5"/>
</a>
</g>
</g>
<!-- Node6 -->
<g id="Node000006" class="node">
<title>Node6</title>
<g id="a_Node000006"><a xlink:href="../../d7/d98/classstorages_1_1postgres_1_1DimensionMismatch.html" target="_top" xlink:title="Array received from postgres has different dimensions from those of C++ container.">
<polygon fill="white" stroke="#666666" points="860.5,-1326 737.5,-1326 737.5,-1296 860.5,-1296 860.5,-1326"/>
<text text-anchor="start" x="745.5" y="-1314" font-family="Helvetica,sans-Serif" font-size="10.00">storages::postgres</text>
<text text-anchor="middle" x="799" y="-1303" font-family="Helvetica,sans-Serif" font-size="10.00">::DimensionMismatch</text>
</a>
</g>
</g>
<!-- Node5&#45;&gt;Node6 -->
<g id="edge5_Node000005_Node000006" class="edge">
<title>Node5&#45;&gt;Node6</title>
<g id="a_edge5_Node000005_Node000006"><a xlink:title=" ">
<path fill="none" stroke="#63b8ff" d="M672.31,-1278.91C693.83,-1284.4 717.87,-1290.54 739.11,-1295.96"/>
<polygon fill="#63b8ff" stroke="#63b8ff" points="673.17,-1275.52 662.62,-1276.43 671.44,-1282.3 673.17,-1275.52"/>
</a>
</g>
</g>
<!-- Node7 -->
<g id="Node000007" class="node">
<title>Node7</title>
<g id="a_Node000007"><a xlink:href="../../da/d07/classstorages_1_1postgres_1_1InvalidDimensions.html" target="_top" xlink:title=" ">
<polygon fill="white" stroke="#bfbfbf" points="855.5,-1278 742.5,-1278 742.5,-1248 855.5,-1248 855.5,-1278"/>
<text text-anchor="start" x="750.5" y="-1266" font-family="Helvetica,sans-Serif" font-size="10.00">storages::postgres</text>
<text text-anchor="middle" x="799" y="-1255" font-family="Helvetica,sans-Serif" font-size="10.00">::InvalidDimensions</text>
</a>
</g>
</g>
<!-- Node5&#45;&gt;Node7 -->
<g id="edge6_Node000005_Node000007" class="edge">
<title>Node5&#45;&gt;Node7</title>
<g id="a_edge6_Node000005_Node000007"><a xlink:title=" ">
<path fill="none" stroke="#63b8ff" d="M672.76,-1263C695.31,-1263 720.55,-1263 742.44,-1263"/>
<polygon fill="#63b8ff" stroke="#63b8ff" points="672.62,-1259.5 662.62,-1263 672.62,-1266.5 672.62,-1259.5"/>
</a>
</g>
</g>
<!-- Node9 -->
<g id="Node000009" class="node">
<title>Node9</title>
<g id="a_Node000009"><a xlink:href="../../da/d9a/classstorages_1_1postgres_1_1BitStringOverflow.html" target="_top" xlink:title="Value in PostgreSQL binary buffer cannot be represented by a given C++ type.">
<polygon fill="white" stroke="#666666" points="853,-1230 745,-1230 745,-1200 853,-1200 853,-1230"/>
<text text-anchor="start" x="753" y="-1218" font-family="Helvetica,sans-Serif" font-size="10.00">storages::postgres</text>
<text text-anchor="middle" x="799" y="-1207" font-family="Helvetica,sans-Serif" font-size="10.00">::BitStringOverflow</text>
</a>
</g>
</g>
<!-- Node8&#45;&gt;Node9 -->
<g id="edge8_Node000008_Node000009" class="edge">
<title>Node8&#45;&gt;Node9</title>
<g id="a_edge8_Node000008_Node000009"><a xlink:title=" ">
<path fill="none" stroke="#63b8ff" d="M672.45,-1182.95C695.87,-1188.92 722.24,-1195.66 744.74,-1201.4"/>
<polygon fill="#63b8ff" stroke="#63b8ff" points="673.17,-1179.52 662.62,-1180.43 671.44,-1186.3 673.17,-1179.52"/>
</a>
</g>
</g>
<!-- Node10 -->
<g id="Node000010" class="node">
<title>Node10</title>
<g id="a_Node000010"><a xlink:href="../../d5/d1b/classstorages_1_1postgres_1_1InvalidBitStringRepresentation.html" target="_top" xlink:title="Value in PostgreSQL binary buffer cannot be represented as bit string type.">
<polygon fill="white" stroke="#666666" points="885,-1182 713,-1182 713,-1152 885,-1152 885,-1182"/>
<text text-anchor="start" x="721" y="-1170" font-family="Helvetica,sans-Serif" font-size="10.00">storages::postgres</text>
<text text-anchor="middle" x="799" y="-1159" font-family="Helvetica,sans-Serif" font-size="10.00">::InvalidBitStringRepresentation</text>
</a>
</g>
</g>
<!-- Node8&#45;&gt;Node10 -->
<g id="edge9_Node000008_Node000010" class="edge">
<title>Node8&#45;&gt;Node10</title>
<g id="a_edge9_Node000008_Node000010"><a xlink:title=" ">
<path fill="none" stroke="#63b8ff" d="M672.75,-1167C685.65,-1167 699.43,-1167 712.96,-1167"/>
<polygon fill="#63b8ff" stroke="#63b8ff" points="672.62,-1163.5 662.62,-1167 672.62,-1170.5 672.62,-1163.5"/>
</a>
</g>
</g>
<!-- Node13 -->
<g id="Node000013" class="node">
<title>Node13</title>
<g id="a_Node000013"><a xlink:href="../../d0/d05/classstorages_1_1postgres_1_1InvalidEnumerationLiteral.html" target="_top" xlink:title=" ">
<polygon fill="white" stroke="#bfbfbf" points="873.5,-1134 724.5,-1134 724.5,-1104 873.5,-1104 873.5,-1134"/>
<text text-anchor="start" x="732.5" y="-1122" font-family="Helvetica,sans-Serif" font-size="10.00">storages::postgres</text>
<text text-anchor="middle" x="799" y="-1111" font-family="Helvetica,sans-Serif" font-size="10.00">::InvalidEnumerationLiteral</text>
</a>
</g>
</g>
<!-- Node12&#45;&gt;Node13 -->
<g id="edge12_Node000012_Node000013" class="edge">
<title>Node12&#45;&gt;Node13</title>
<g id="a_edge12_Node000012_Node000013"><a xlink:title=" ">
<path fill="none" stroke="#63b8ff" d="M673.05,-1087.1C694.37,-1092.54 718.08,-1098.59 739.07,-1103.95"/>
<polygon fill="#63b8ff" stroke="#63b8ff" points="673.67,-1083.65 663.12,-1084.56 671.94,-1090.43 673.67,-1083.65"/>
</a>
</g>
</g>
<!-- Node14 -->
<g id="Node000014" class="node">
<title>Node14</title>
<g id="a_Node000014"><a xlink:href="../../da/dc8/classstorages_1_1postgres_1_1InvalidEnumerationValue.html" target="_top" xlink:title=" ">
<polygon fill="white" stroke="#bfbfbf" points="871.5,-1086 726.5,-1086 726.5,-1056 871.5,-1056 871.5,-1086"/>
<text text-anchor="start" x="734.5" y="-1074" font-family="Helvetica,sans-Serif" font-size="10.00">storages::postgres</text>
<text text-anchor="middle" x="799" y="-1063" font-family="Helvetica,sans-Serif" font-size="10.00">::InvalidEnumerationValue</text>
</a>
</g>
</g>
<!-- Node12&#45;&gt;Node14 -->
<g id="edge13_Node000012_Node000014" class="edge">
<title>Node12&#45;&gt;Node14</title>
<g id="a_edge13_Node000012_Node000014"><a xlink:title=" ">
<path fill="none" stroke="#63b8ff" d="M673.49,-1071C690.5,-1071 709,-1071 726.41,-1071"/>
<polygon fill="#63b8ff" stroke="#63b8ff" points="673.12,-1067.5 663.12,-1071 673.12,-1074.5 673.12,-1067.5"/>
</a>
</g>
</g>
<!-- Node17 -->
<g id="Node000017" class="node">
<title>Node17</title>
<g id="a_Node000017"><a xlink:href="../../de/dc0/classstorages_1_1postgres_1_1IpAddressInvalidFormat.html" target="_top" xlink:title=" ">
<polygon fill="white" stroke="#bfbfbf" points="868,-1038 730,-1038 730,-1008 868,-1008 868,-1038"/>
<text text-anchor="start" x="738" y="-1026" font-family="Helvetica,sans-Serif" font-size="10.00">storages::postgres</text>
<text text-anchor="middle" x="799" y="-1015" font-family="Helvetica,sans-Serif" font-size="10.00">::IpAddressInvalidFormat</text>
</a>
</g>
</g>
<!-- Node16&#45;&gt;Node17 -->
<g id="edge16_Node000016_Node000017" class="edge">
<title>Node16&#45;&gt;Node17</title>
<g id="a_edge16_Node000016_Node000017"><a xlink:title=" ">
<path fill="none" stroke="#63b8ff" d="M672.31,-990.91C693.83,-996.4 717.87,-1002.54 739.11,-1007.96"/>
<polygon fill="#63b8ff" stroke="#63b8ff" points="673.17,-987.52 662.62,-988.43 671.44,-994.3 673.17,-987.52"/>
</a>
</g>
</g>
<!-- Node20 -->
<g id="Node000020" class="node">
<title>Node20</title>
<g id="a_Node000020"><a xlink:href="../../da/d3b/classstorages_1_1postgres_1_1InvalidRepresentation.html" target="_top" xlink:title="Integral representation for a numeric contains invalid data.">
<polygon fill="white" stroke="#666666" points="864,-990 734,-990 734,-960 864,-960 864,-990"/>
<text text-anchor="start" x="742" y="-978" font-family="Helvetica,sans-Serif" font-size="10.00">storages::postgres</text>
<text text-anchor="middle" x="799" y="-967" font-family="Helvetica,sans-Serif" font-size="10.00">::InvalidRepresentation</text>
</a>
</g>
</g>
<!-- Node19&#45;&gt;Node20 -->
<g id="edge19_Node000019_Node000020" class="edge">
<title>Node19&#45;&gt;Node20</title>
<g id="a_edge19_Node000019_Node000020"><a xlink:title=" ">
<path fill="none" stroke="#63b8ff" d="M664.45,-899.12C666.37,-900.35 668.23,-901.64 670,-903 691.17,-919.22 683.86,-936.14 706,-951 714.36,-956.61 723.96,-960.91 733.73,-964.21"/>
<polygon fill="#63b8ff" stroke="#63b8ff" points="666.11,-896.04 655.69,-894.14 662.65,-902.13 666.11,-896.04"/>
</a>
</g>
</g>
<!-- Node21 -->
<g id="Node000021" class="node">
<title>Node21</title>
<g id="a_Node000021"><a xlink:href="../../d0/d40/classstorages_1_1postgres_1_1NumericOverflow.html" target="_top" xlink:title="Value in PostgreSQL binary buffer cannot be represented by a given C++ type.">
<polygon fill="white" stroke="#666666" points="852.5,-942 745.5,-942 745.5,-912 852.5,-912 852.5,-942"/>
<text text-anchor="start" x="753.5" y="-930" font-family="Helvetica,sans-Serif" font-size="10.00">storages::postgres</text>
<text text-anchor="middle" x="799" y="-919" font-family="Helvetica,sans-Serif" font-size="10.00">::NumericOverflow</text>
</a>
</g>
</g>
<!-- Node19&#45;&gt;Node21 -->
<g id="edge20_Node000019_Node000021" class="edge">
<title>Node19&#45;&gt;Node21</title>
<g id="a_edge20_Node000019_Node000021"><a xlink:title=" ">
<path fill="none" stroke="#63b8ff" d="M672.54,-894.97C696.16,-901 722.77,-907.79 745.39,-913.57"/>
<polygon fill="#63b8ff" stroke="#63b8ff" points="673.17,-891.52 662.62,-892.43 671.44,-898.3 673.17,-891.52"/>
</a>
</g>
</g>
<!-- Node22 -->
<g id="Node000022" class="node">
<title>Node22</title>
<g id="a_Node000022"><a xlink:href="../../d0/dee/classstorages_1_1postgres_1_1ValueIsNaN.html" target="_top" xlink:title=" ">
<polygon fill="white" stroke="#666666" points="852.5,-894 745.5,-894 745.5,-864 852.5,-864 852.5,-894"/>
<text text-anchor="start" x="753.5" y="-882" font-family="Helvetica,sans-Serif" font-size="10.00">storages::postgres</text>
<text text-anchor="middle" x="799" y="-871" font-family="Helvetica,sans-Serif" font-size="10.00">::ValueIsNaN</text>
</a>
</g>
</g>
<!-- Node19&#45;&gt;Node22 -->
<g id="edge21_Node000019_Node000022" class="edge">
<title>Node19&#45;&gt;Node22</title>
<g id="a_edge21_Node000019_Node000022"><a xlink:title=" ">
<path fill="none" stroke="#63b8ff" d="M672.85,-879C696.4,-879 722.88,-879 745.39,-879"/>
<polygon fill="#63b8ff" stroke="#63b8ff" points="672.62,-875.5 662.62,-879 672.62,-882.5 672.62,-875.5"/>
</a>
</g>
</g>
<!-- Node24 -->
<g id="Node000024" class="node">
<title>Node24</title>
<g id="a_Node000024"><a xlink:href="../../d3/d1e/classstorages_1_1postgres_1_1FieldIndexOutOfBounds.html" target="_top" xlink:title="Result set has less columns that the requested index.">
<polygon fill="white" stroke="#666666" points="867.5,-846 730.5,-846 730.5,-816 867.5,-816 867.5,-846"/>
<text text-anchor="start" x="738.5" y="-834" font-family="Helvetica,sans-Serif" font-size="10.00">storages::postgres</text>
<text text-anchor="middle" x="799" y="-823" font-family="Helvetica,sans-Serif" font-size="10.00">::FieldIndexOutOfBounds</text>
</a>
</g>
</g>
<!-- Node23&#45;&gt;Node24 -->
<g id="edge23_Node000023_Node000024" class="edge">
<title>Node23&#45;&gt;Node24</title>
<g id="a_edge23_Node000023_Node000024"><a xlink:title=" ">
<path fill="none" stroke="#63b8ff" d="M611.63,-568.31C616.41,-620.86 634.96,-742.32 706,-807 712.96,-813.33 721.38,-818.04 730.26,-821.52"/>
<polygon fill="#63b8ff" stroke="#63b8ff" points="615.1,-567.86 610.8,-558.18 608.13,-568.43 615.1,-567.86"/>
</a>
</g>
</g>
<!-- Node25 -->
<g id="Node000025" class="node">
<title>Node25</title>
<g id="a_Node000025"><a xlink:href="../../d5/db8/classstorages_1_1postgres_1_1FieldNameDoesntExist.html" target="_top" xlink:title="Result set doesn&#39;t have field with the requested name.">
<polygon fill="white" stroke="#666666" points="866,-798 732,-798 732,-768 866,-768 866,-798"/>
<text text-anchor="start" x="740" y="-786" font-family="Helvetica,sans-Serif" font-size="10.00">storages::postgres</text>
<text text-anchor="middle" x="799" y="-775" font-family="Helvetica,sans-Serif" font-size="10.00">::FieldNameDoesntExist</text>
</a>
</g>
</g>
<!-- Node23&#45;&gt;Node25 -->
<g id="edge24_Node000023_Node000025" class="edge">
<title>Node23&#45;&gt;Node25</title>
<g id="a_edge24_Node000023_Node000025"><a xlink:title=" ">
<path fill="none" stroke="#63b8ff" d="M613.91,-568.1C622.29,-613.29 646.34,-708.35 706,-759 713.42,-765.3 722.31,-769.98 731.6,-773.43"/>
<polygon fill="#63b8ff" stroke="#63b8ff" points="617.35,-567.49 612.18,-558.24 610.46,-568.69 617.35,-567.49"/>
</a>
</g>
</g>
<!-- Node26 -->
<g id="Node000026" class="node">
<title>Node26</title>
<g id="a_Node000026"><a xlink:href="../../d9/de9/classstorages_1_1postgres_1_1FieldTupleMismatch.html" target="_top" xlink:title="A row was requested to be parsed based on field names/indexed, the count of names/indexes doesn&#39;t mat...">
<polygon fill="white" stroke="#666666" points="858.5,-750 739.5,-750 739.5,-720 858.5,-720 858.5,-750"/>
<text text-anchor="start" x="747.5" y="-738" font-family="Helvetica,sans-Serif" font-size="10.00">storages::postgres</text>
<text text-anchor="middle" x="799" y="-727" font-family="Helvetica,sans-Serif" font-size="10.00">::FieldTupleMismatch</text>
</a>
</g>
</g>
<!-- Node23&#45;&gt;Node26 -->
<g id="edge25_Node000023_Node000026" class="edge">
<title>Node23&#45;&gt;Node26</title>
<g id="a_edge25_Node000023_Node000026"><a xlink:title=" ">
<path fill="none" stroke="#63b8ff" d="M617.44,-568.22C629.68,-605.27 657.69,-674.01 706,-711 715.7,-718.43 727.48,-723.56 739.32,-727.12"/>
<polygon fill="#63b8ff" stroke="#63b8ff" points="620.63,-566.7 614.26,-558.23 613.96,-568.82 620.63,-566.7"/>
</a>
</g>
</g>
<!-- Node27 -->
<g id="Node000027" class="node">
<title>Node27</title>
<g id="a_Node000027"><a xlink:href="../../d8/d2e/classstorages_1_1postgres_1_1FieldValueIsNull.html" target="_top" xlink:title="Data extraction from a null field value to a non&#45;nullable type requested.">
<polygon fill="white" stroke="#666666" points="852.5,-702 745.5,-702 745.5,-672 852.5,-672 852.5,-702"/>
<text text-anchor="start" x="753.5" y="-690" font-family="Helvetica,sans-Serif" font-size="10.00">storages::postgres</text>
<text text-anchor="middle" x="799" y="-679" font-family="Helvetica,sans-Serif" font-size="10.00">::FieldValueIsNull</text>
</a>
</g>
</g>
<!-- Node23&#45;&gt;Node27 -->
<g id="edge26_Node000023_Node000027" class="edge">
<title>Node23&#45;&gt;Node27</title>
<g id="a_edge26_Node000023_Node000027"><a xlink:title=" ">
<path fill="none" stroke="#63b8ff" d="M622.86,-567.06C638.75,-594.46 668.36,-638.58 706,-663 717.77,-670.64 731.87,-675.85 745.45,-679.4"/>
<polygon fill="#63b8ff" stroke="#63b8ff" points="625.78,-565.11 617.82,-558.12 619.68,-568.55 625.78,-565.11"/>
</a>
</g>
</g>
<!-- Node28 -->
<g id="Node000028" class="node">
<title>Node28</title>
<g id="a_Node000028"><a xlink:href="../../df/dd8/classstorages_1_1postgres_1_1InvalidBinaryBuffer.html" target="_top" xlink:title="Binary buffer contains invalid data. Can occur when parsing binary buffers containing multiple fields...">
<polygon fill="white" stroke="#666666" points="857,-654 741,-654 741,-624 857,-624 857,-654"/>
<text text-anchor="start" x="749" y="-642" font-family="Helvetica,sans-Serif" font-size="10.00">storages::postgres</text>
<text text-anchor="middle" x="799" y="-631" font-family="Helvetica,sans-Serif" font-size="10.00">::InvalidBinaryBuffer</text>
</a>
</g>
</g>
<!-- Node23&#45;&gt;Node28 -->
<g id="edge27_Node000023_Node000028" class="edge">
<title>Node23&#45;&gt;Node28</title>
<g id="a_edge27_Node000023_Node000028"><a xlink:title=" ">
<path fill="none" stroke="#63b8ff" d="M633.63,-564.89C652.08,-580.9 679.03,-601.99 706,-615 716.85,-620.23 729,-624.43 740.82,-627.77"/>
<polygon fill="#63b8ff" stroke="#63b8ff" points="635.84,-562.17 626.03,-558.17 631.2,-567.41 635.84,-562.17"/>
</a>
</g>
</g>
<!-- Node29 -->
<g id="Node000029" class="node">
<title>Node29</title>
<g id="a_Node000029"><a xlink:href="../../da/d14/classstorages_1_1postgres_1_1InvalidInputBufferSize.html" target="_top" xlink:title="Buffer size is invalid for a fixed&#45;size type. Can occur when a wrong field type is requested for repl...">
<polygon fill="white" stroke="#666666" points="864,-606 734,-606 734,-576 864,-576 864,-606"/>
<text text-anchor="start" x="742" y="-594" font-family="Helvetica,sans-Serif" font-size="10.00">storages::postgres</text>
<text text-anchor="middle" x="799" y="-583" font-family="Helvetica,sans-Serif" font-size="10.00">::InvalidInputBufferSize</text>
</a>
</g>
</g>
<!-- Node23&#45;&gt;Node29 -->
<g id="edge28_Node000023_Node000029" class="edge">
<title>Node23&#45;&gt;Node29</title>
<g id="a_edge28_Node000023_Node000029"><a xlink:title=" ">
<path fill="none" stroke="#63b8ff" d="M672.31,-558.91C693.83,-564.4 717.87,-570.54 739.11,-575.96"/>
<polygon fill="#63b8ff" stroke="#63b8ff" points="673.17,-555.52 662.62,-556.43 671.44,-562.3 673.17,-555.52"/>
</a>
</g>
</g>
<!-- Node30 -->
<g id="Node000030" class="node">
<title>Node30</title>
<g id="a_Node000030"><a xlink:href="../../d5/d0d/classstorages_1_1postgres_1_1InvalidParserCategory.html" target="_top" xlink:title="Field buffer contains different category of data than expected by data parser.">
<polygon fill="white" stroke="#666666" points="864,-558 734,-558 734,-528 864,-528 864,-558"/>
<text text-anchor="start" x="742" y="-546" font-family="Helvetica,sans-Serif" font-size="10.00">storages::postgres</text>
<text text-anchor="middle" x="799" y="-535" font-family="Helvetica,sans-Serif" font-size="10.00">::InvalidParserCategory</text>
</a>
</g>
</g>
<!-- Node23&#45;&gt;Node30 -->
<g id="edge29_Node000023_Node000030" class="edge">
<title>Node23&#45;&gt;Node30</title>
<g id="a_edge29_Node000023_Node000030"><a xlink:title=" ">
<path fill="none" stroke="#63b8ff" d="M672.67,-543C692.28,-543 713.96,-543 733.68,-543"/>
<polygon fill="#63b8ff" stroke="#63b8ff" points="672.62,-539.5 662.62,-543 672.62,-546.5 672.62,-539.5"/>
</a>
</g>
</g>
<!-- Node31 -->
<g id="Node000031" class="node">
<title>Node31</title>
<g id="a_Node000031"><a xlink:href="../../da/d37/classstorages_1_1postgres_1_1InvalidTupleSizeRequested.html" target="_top" xlink:title="A tuple was requested to be parsed out of a row that doesn&#39;t have enough fields.">
<polygon fill="white" stroke="#666666" points="875.5,-510 722.5,-510 722.5,-480 875.5,-480 875.5,-510"/>
<text text-anchor="start" x="730.5" y="-498" font-family="Helvetica,sans-Serif" font-size="10.00">storages::postgres</text>
<text text-anchor="middle" x="799" y="-487" font-family="Helvetica,sans-Serif" font-size="10.00">::InvalidTupleSizeRequested</text>
</a>
</g>
</g>
<!-- Node23&#45;&gt;Node31 -->
<g id="edge30_Node000023_Node000031" class="edge">
<title>Node23&#45;&gt;Node31</title>
<g id="a_edge30_Node000023_Node000031"><a xlink:title=" ">
<path fill="none" stroke="#63b8ff" d="M672.31,-527.09C693.83,-521.6 717.87,-515.46 739.11,-510.04"/>
<polygon fill="#63b8ff" stroke="#63b8ff" points="671.44,-523.7 662.62,-529.57 673.17,-530.48 671.44,-523.7"/>
</a>
</g>
</g>
<!-- Node32 -->
<g id="Node000032" class="node">
<title>Node32</title>
<g id="a_Node000032"><a xlink:href="../../dd/d9a/classstorages_1_1postgres_1_1NoBinaryParser.html" target="_top" xlink:title="A field in a result set doesn&#39;t have a binary parser.">
<polygon fill="white" stroke="#666666" points="852.5,-462 745.5,-462 745.5,-432 852.5,-432 852.5,-462"/>
<text text-anchor="start" x="753.5" y="-450" font-family="Helvetica,sans-Serif" font-size="10.00">storages::postgres</text>
<text text-anchor="middle" x="799" y="-439" font-family="Helvetica,sans-Serif" font-size="10.00">::NoBinaryParser</text>
</a>
</g>
</g>
<!-- Node23&#45;&gt;Node32 -->
<g id="edge31_Node000023_Node000032" class="edge">
<title>Node23&#45;&gt;Node32</title>
<g id="a_edge31_Node000023_Node000032"><a xlink:title=" ">
<path fill="none" stroke="#63b8ff" d="M633.63,-521.11C652.08,-505.1 679.03,-484.01 706,-471 718.19,-465.12 732.01,-460.55 745.17,-457.04"/>
<polygon fill="#63b8ff" stroke="#63b8ff" points="631.2,-518.59 626.03,-527.83 635.84,-523.83 631.2,-518.59"/>
</a>
</g>
</g>
<!-- Node33 -->
<g id="Node000033" class="node">
<title>Node33</title>
<g id="a_Node000033"><a xlink:href="../../d1/d0b/classstorages_1_1postgres_1_1NonSingleColumnResultSet.html" target="_top" xlink:title="A row or result set requested to be treated as a single column, but contains more than one column.">
<polygon fill="white" stroke="#666666" points="877,-414 721,-414 721,-384 877,-384 877,-414"/>
<text text-anchor="start" x="729" y="-402" font-family="Helvetica,sans-Serif" font-size="10.00">storages::postgres</text>
<text text-anchor="middle" x="799" y="-391" font-family="Helvetica,sans-Serif" font-size="10.00">::NonSingleColumnResultSet</text>
</a>
</g>
</g>
<!-- Node23&#45;&gt;Node33 -->
<g id="edge32_Node000023_Node000033" class="edge">
<title>Node23&#45;&gt;Node33</title>
<g id="a_edge32_Node000023_Node000033"><a xlink:title=" ">
<path fill="none" stroke="#63b8ff" d="M622.86,-518.94C638.75,-491.54 668.36,-447.42 706,-423 711.26,-419.59 716.99,-416.66 722.93,-414.14"/>
<polygon fill="#63b8ff" stroke="#63b8ff" points="619.68,-517.45 617.82,-527.88 625.78,-520.89 619.68,-517.45"/>
</a>
</g>
</g>
<!-- Node34 -->
<g id="Node000034" class="node">
<title>Node34</title>
<g id="a_Node000034"><a xlink:href="../../da/d2a/classstorages_1_1postgres_1_1NonSingleRowResultSet.html" target="_top" xlink:title="A result set containing a single row was expected.">
<polygon fill="white" stroke="#666666" points="869,-366 729,-366 729,-336 869,-336 869,-366"/>
<text text-anchor="start" x="737" y="-354" font-family="Helvetica,sans-Serif" font-size="10.00">storages::postgres</text>
<text text-anchor="middle" x="799" y="-343" font-family="Helvetica,sans-Serif" font-size="10.00">::NonSingleRowResultSet</text>
</a>
</g>
</g>
<!-- Node23&#45;&gt;Node34 -->
<g id="edge33_Node000023_Node000034" class="edge">
<title>Node23&#45;&gt;Node34</title>
<g id="a_edge33_Node000023_Node000034"><a xlink:title=" ">
<path fill="none" stroke="#63b8ff" d="M617.44,-517.78C629.68,-480.73 657.69,-411.99 706,-375 712.82,-369.78 720.66,-365.69 728.83,-362.49"/>
<polygon fill="#63b8ff" stroke="#63b8ff" points="613.96,-517.18 614.26,-527.77 620.63,-519.3 613.96,-517.18"/>
</a>
</g>
</g>
<!-- Node35 -->
<g id="Node000035" class="node">
<title>Node35</title>
<g id="a_Node000035"><a xlink:href="../../db/dea/classstorages_1_1postgres_1_1RowIndexOutOfBounds.html" target="_top" xlink:title="Result set has less rows than the requested row index.">
<polygon fill="white" stroke="#666666" points="866.5,-318 731.5,-318 731.5,-288 866.5,-288 866.5,-318"/>
<text text-anchor="start" x="739.5" y="-306" font-family="Helvetica,sans-Serif" font-size="10.00">storages::postgres</text>
<text text-anchor="middle" x="799" y="-295" font-family="Helvetica,sans-Serif" font-size="10.00">::RowIndexOutOfBounds</text>
</a>
</g>
</g>
<!-- Node23&#45;&gt;Node35 -->
<g id="edge34_Node000023_Node000035" class="edge">
<title>Node23&#45;&gt;Node35</title>
<g id="a_edge34_Node000023_Node000035"><a xlink:title=" ">
<path fill="none" stroke="#63b8ff" d="M613.91,-517.9C622.29,-472.71 646.34,-377.65 706,-327 713.3,-320.8 722.01,-316.18 731.13,-312.74"/>
<polygon fill="#63b8ff" stroke="#63b8ff" points="610.46,-517.31 612.18,-527.76 617.35,-518.51 610.46,-517.31"/>
</a>
</g>
</g>
<!-- Node36 -->
<g id="Node000036" class="node">
<title>Node36</title>
<g id="a_Node000036"><a xlink:href="../../d7/df0/classstorages_1_1postgres_1_1TypeCannotBeNull.html" target="_top" xlink:title="A value of a non&#45;nullable type requested to be set null. Can occur if io::traits::IsNullable for the ...">
<polygon fill="white" stroke="#666666" points="855,-270 743,-270 743,-240 855,-240 855,-270"/>
<text text-anchor="start" x="751" y="-258" font-family="Helvetica,sans-Serif" font-size="10.00">storages::postgres</text>
<text text-anchor="middle" x="799" y="-247" font-family="Helvetica,sans-Serif" font-size="10.00">::TypeCannotBeNull</text>
</a>
</g>
</g>
<!-- Node23&#45;&gt;Node36 -->
<g id="edge35_Node000023_Node000036" class="edge">
<title>Node23&#45;&gt;Node36</title>
<g id="a_edge35_Node000023_Node000036"><a xlink:title=" ">
<path fill="none" stroke="#63b8ff" d="M617.67,-517.87C637.01,-455.2 687.51,-295.84 706,-279 716.13,-269.78 729.36,-264.01 742.62,-260.43"/>
<polygon fill="#63b8ff" stroke="#63b8ff" points="614.24,-517.14 614.64,-527.73 620.93,-519.2 614.24,-517.14"/>
</a>
</g>
</g>
<!-- Node37 -->
<g id="Node000037" class="node">
<title>Node37</title>
<g id="a_Node000037"><a xlink:href="../../dc/dd7/classstorages_1_1postgres_1_1UnknownBufferCategory.html" target="_top" xlink:title="While checking result set types, failed to determine the buffer category for a type oid....">
<polygon fill="white" stroke="#666666" points="870,-222 728,-222 728,-192 870,-192 870,-222"/>
<text text-anchor="start" x="736" y="-210" font-family="Helvetica,sans-Serif" font-size="10.00">storages::postgres</text>
<text text-anchor="middle" x="799" y="-199" font-family="Helvetica,sans-Serif" font-size="10.00">::UnknownBufferCategory</text>
</a>
</g>
</g>
<!-- Node23&#45;&gt;Node37 -->
<g id="edge36_Node000023_Node000037" class="edge">
<title>Node23&#45;&gt;Node37</title>
<g id="a_edge36_Node000023_Node000037"><a xlink:title=" ">
<path fill="none" stroke="#63b8ff" d="M617.99,-517.75C629.58,-481.06 651.66,-410.87 670,-351 686.3,-297.76 665.92,-269.65 706,-231 712.18,-225.04 719.64,-220.51 727.62,-217.08"/>
<polygon fill="#63b8ff" stroke="#63b8ff" points="614.56,-517 614.88,-527.59 621.23,-519.11 614.56,-517"/>
</a>
</g>
</g>
<!-- Node39 -->
<g id="Node000039" class="node">
<title>Node39</title>
<g id="a_Node000039"><a xlink:href="../../dd/d03/classstorages_1_1postgres_1_1AlreadyInTransaction.html" target="_top" xlink:title=" ">
<polygon fill="white" stroke="#bfbfbf" points="861.5,-174 736.5,-174 736.5,-144 861.5,-144 861.5,-174"/>
<text text-anchor="start" x="744.5" y="-162" font-family="Helvetica,sans-Serif" font-size="10.00">storages::postgres</text>
<text text-anchor="middle" x="799" y="-151" font-family="Helvetica,sans-Serif" font-size="10.00">::AlreadyInTransaction</text>
</a>
</g>
</g>
<!-- Node38&#45;&gt;Node39 -->
<g id="edge38_Node000038_Node000039" class="edge">
<title>Node38&#45;&gt;Node39</title>
<g id="a_edge38_Node000038_Node000039"><a xlink:title=" ">
<path fill="none" stroke="#63b8ff" d="M667.26,-305.75C668.21,-304.87 669.13,-303.95 670,-303 707.58,-261.91 665.92,-221.65 706,-183 714.32,-174.98 724.96,-169.55 736.05,-165.9"/>
<polygon fill="#63b8ff" stroke="#63b8ff" points="665.13,-302.98 659.31,-311.83 669.38,-308.54 665.13,-302.98"/>
</a>
</g>
</g>
<!-- Node40 -->
<g id="Node000040" class="node">
<title>Node40</title>
<g id="a_Node000040"><a xlink:href="../../d8/dcd/classstorages_1_1postgres_1_1NotInTransaction.html" target="_top" xlink:title=" ">
<polygon fill="white" stroke="#bfbfbf" points="852.5,-126 745.5,-126 745.5,-96 852.5,-96 852.5,-126"/>
<text text-anchor="start" x="753.5" y="-114" font-family="Helvetica,sans-Serif" font-size="10.00">storages::postgres</text>
<text text-anchor="middle" x="799" y="-103" font-family="Helvetica,sans-Serif" font-size="10.00">::NotInTransaction</text>
</a>
</g>
</g>
<!-- Node38&#45;&gt;Node40 -->
<g id="edge39_Node000038_Node000040" class="edge">
<title>Node38&#45;&gt;Node40</title>
<g id="a_edge39_Node000038_Node000040"><a xlink:title=" ">
<path fill="none" stroke="#63b8ff" d="M667.73,-305.48C668.52,-304.68 669.28,-303.86 670,-303 719.23,-244.63 653.21,-190.17 706,-135 716.27,-124.27 730.69,-118.11 745.07,-114.65"/>
<polygon fill="#63b8ff" stroke="#63b8ff" points="665.41,-302.86 659.88,-311.9 669.84,-308.28 665.41,-302.86"/>
</a>
</g>
</g>
<!-- Node43 -->
<g id="Node000043" class="node">
<title>Node43</title>
<g id="a_Node000043"><a xlink:href="../../d4/dcf/classstorages_1_1postgres_1_1CompositeMemberTypeMismatch.html" target="_top" xlink:title="PostgreSQL composite type has different member type that the C++ mapping suggests.">
<polygon fill="white" stroke="#666666" points="892,-78 706,-78 706,-48 892,-48 892,-78"/>
<text text-anchor="start" x="714" y="-66" font-family="Helvetica,sans-Serif" font-size="10.00">storages::postgres</text>
<text text-anchor="middle" x="799" y="-55" font-family="Helvetica,sans-Serif" font-size="10.00">::CompositeMemberTypeMismatch</text>
</a>
</g>
</g>
<!-- Node42&#45;&gt;Node43 -->
<g id="edge42_Node000042_Node000043" class="edge">
<title>Node42&#45;&gt;Node43</title>
<g id="a_edge42_Node000042_Node000043"><a xlink:title=" ">
<path fill="none" stroke="#63b8ff" d="M672.63,-63C683.3,-63 694.57,-63 705.8,-63"/>
<polygon fill="#63b8ff" stroke="#63b8ff" points="672.62,-59.5 662.62,-63 672.62,-66.5 672.62,-59.5"/>
</a>
</g>
</g>
<!-- Node44 -->
<g id="Node000044" class="node">
<title>Node44</title>
<g id="a_Node000044"><a xlink:href="../../de/dee/classstorages_1_1postgres_1_1CompositeSizeMismatch.html" target="_top" xlink:title="PostgreSQL composite type has different count of members from the C++ counterpart.">
<polygon fill="white" stroke="#666666" points="870.5,-30 727.5,-30 727.5,0 870.5,0 870.5,-30"/>
<text text-anchor="start" x="735.5" y="-18" font-family="Helvetica,sans-Serif" font-size="10.00">storages::postgres</text>
<text text-anchor="middle" x="799" y="-7" font-family="Helvetica,sans-Serif" font-size="10.00">::CompositeSizeMismatch</text>
</a>
</g>
</g>
<!-- Node42&#45;&gt;Node44 -->
<g id="edge43_Node000042_Node000044" class="edge">
<title>Node42&#45;&gt;Node44</title>
<g id="a_edge43_Node000042_Node000044"><a xlink:title=" ">
<path fill="none" stroke="#63b8ff" d="M672.31,-47.09C693.83,-41.6 717.87,-35.46 739.11,-30.04"/>
<polygon fill="#63b8ff" stroke="#63b8ff" points="671.44,-43.7 662.62,-49.57 673.17,-50.48 671.44,-43.7"/>
</a>
</g>
</g>
</g>
</svg>
