<?xml version="1.0" encoding="UTF-8" standalone="no"?>
<!DOCTYPE svg PUBLIC "-//W3C//DTD SVG 1.1//EN"
 "http://www.w3.org/Graphics/SVG/1.1/DTD/svg11.dtd">
<!-- Generated by graphviz version 2.43.0 (0)
 -->
<!-- Title: userver/storages/clickhouse/io/columns/base_column.hpp Pages: 1 -->
<svg width="2489pt" height="621pt"
 viewBox="0.00 0.00 2489.00 621.00" xmlns="http://www.w3.org/2000/svg" xmlns:xlink="http://www.w3.org/1999/xlink">
<g id="graph0" class="graph" transform="scale(1 1) rotate(0) translate(4 617)">
<title>userver/storages/clickhouse/io/columns/base_column.hpp</title>
<!-- Node1 -->
<g id="Node000001" class="node">
<title>Node1</title>
<g id="a_Node000001"><a xlink:title="Base class for every typed ClickHouse column. To add new columns one should derive from this class,...">
<polygon fill="#999999" stroke="#666666" points="2029.5,-613 1868.5,-613 1868.5,-583 2029.5,-583 2029.5,-613"/>
<text text-anchor="start" x="1876.5" y="-601" font-family="Helvetica,sans-Serif" font-size="10.00">userver/storages/clickhouse</text>
<text text-anchor="middle" x="1949" y="-590" font-family="Helvetica,sans-Serif" font-size="10.00">/io/columns/base_column.hpp</text>
</a>
</g>
</g>
<!-- Node2 -->
<g id="Node000002" class="node">
<title>Node2</title>
<g id="a_Node000002"><a xlink:href="../../df/d5f/column__includes_8hpp.html" target="_top" xlink:title=" ">
<polygon fill="white" stroke="#666666" points="1506.5,-547 1327.5,-547 1327.5,-517 1506.5,-517 1506.5,-547"/>
<text text-anchor="start" x="1335.5" y="-535" font-family="Helvetica,sans-Serif" font-size="10.00">userver/storages/clickhouse</text>
<text text-anchor="middle" x="1417" y="-524" font-family="Helvetica,sans-Serif" font-size="10.00">/io/columns/column_includes.hpp</text>
</a>
</g>
</g>
<!-- Node1&#45;&gt;Node2 -->
<g id="edge1_Node000001_Node000002" class="edge">
<title>Node1&#45;&gt;Node2</title>
<g id="a_edge1_Node000001_Node000002"><a xlink:title=" ">
<path fill="none" stroke="#63b8ff" d="M1858.29,-586.09C1760.09,-574.27 1604.46,-555.55 1506.68,-543.79"/>
<polygon fill="#63b8ff" stroke="#63b8ff" points="1858.14,-589.6 1868.49,-587.31 1858.98,-582.65 1858.14,-589.6"/>
</a>
</g>
</g>
<!-- Node9 -->
<g id="Node000009" class="node">
<title>Node9</title>
<g id="a_Node000009"><a xlink:href="../../dc/d3f/validate_8hpp_source.html" target="_top" xlink:title=" ">
<polygon fill="white" stroke="#666666" points="1530.5,-283 1377.5,-283 1377.5,-253 1530.5,-253 1530.5,-283"/>
<text text-anchor="start" x="1385.5" y="-271" font-family="Helvetica,sans-Serif" font-size="10.00">userver/storages/clickhouse</text>
<text text-anchor="middle" x="1454" y="-260" font-family="Helvetica,sans-Serif" font-size="10.00">/io/impl/validate.hpp</text>
</a>
</g>
</g>
<!-- Node1&#45;&gt;Node9 -->
<g id="edge46_Node000001_Node000009" class="edge">
<title>Node1&#45;&gt;Node9</title>
<g id="a_edge46_Node000001_Node000009"><a xlink:title=" ">
<path fill="none" stroke="#63b8ff" d="M2039.76,-593.38C2191.68,-584.83 2481,-556.75 2481,-467 2481,-467 2481,-467 2481,-399 2481,-303.24 1769.2,-276.82 1530.77,-270.66"/>
<polygon fill="#63b8ff" stroke="#63b8ff" points="2039.3,-589.9 2029.51,-593.94 2039.69,-596.89 2039.3,-589.9"/>
</a>
</g>
</g>
<!-- Node3 -->
<g id="Node000003" class="node">
<title>Node3</title>
<g id="a_Node000003"><a xlink:href="../../d0/dbe/datetime64__column_8hpp.html" target="_top" xlink:title="DateTime64 columns support.">
<polygon fill="white" stroke="#666666" points="194,-481 0,-481 0,-451 194,-451 194,-481"/>
<text text-anchor="start" x="8" y="-469" font-family="Helvetica,sans-Serif" font-size="10.00">userver/storages/clickhouse</text>
<text text-anchor="middle" x="97" y="-458" font-family="Helvetica,sans-Serif" font-size="10.00">/io/columns/datetime64_column.hpp</text>
</a>
</g>
</g>
<!-- Node2&#45;&gt;Node3 -->
<g id="edge2_Node000002_Node000003" class="edge">
<title>Node2&#45;&gt;Node3</title>
<g id="a_edge2_Node000002_Node000003"><a xlink:title=" ">
<path fill="none" stroke="#63b8ff" d="M1316.98,-529.98C1109.01,-527.16 614.88,-516.95 202,-481 199.44,-480.78 196.84,-480.54 194.22,-480.28"/>
<polygon fill="#63b8ff" stroke="#63b8ff" points="1317.22,-533.48 1327.27,-530.11 1317.32,-526.48 1317.22,-533.48"/>
</a>
</g>
</g>
<!-- Node8 -->
<g id="Node000008" class="node">
<title>Node8</title>
<g id="a_Node000008"><a xlink:href="../../d3/d11/nullable__column_8hpp.html" target="_top" xlink:title="Nullable column support.">
<polygon fill="white" stroke="#666666" points="1542.5,-349 1365.5,-349 1365.5,-319 1542.5,-319 1542.5,-349"/>
<text text-anchor="start" x="1373.5" y="-337" font-family="Helvetica,sans-Serif" font-size="10.00">userver/storages/clickhouse</text>
<text text-anchor="middle" x="1454" y="-326" font-family="Helvetica,sans-Serif" font-size="10.00">/io/columns/nullable_column.hpp</text>
</a>
</g>
</g>
<!-- Node2&#45;&gt;Node8 -->
<g id="edge33_Node000002_Node000008" class="edge">
<title>Node2&#45;&gt;Node8</title>
<g id="a_edge33_Node000002_Node000008"><a xlink:title=" ">
<path fill="none" stroke="#63b8ff" d="M1516.72,-529.71C1764.98,-526.03 2393.06,-513.52 2424,-481 2548.22,-350.46 1804.2,-335.97 1542.53,-334.87"/>
<polygon fill="#63b8ff" stroke="#63b8ff" points="1516.57,-526.22 1506.62,-529.86 1516.67,-533.22 1516.57,-526.22"/>
</a>
</g>
</g>
<!-- Node15 -->
<g id="Node000015" class="node">
<title>Node15</title>
<g id="a_Node000015"><a xlink:href="../../dd/d64/datetime__column_8hpp.html" target="_top" xlink:title="DateTime column support.">
<polygon fill="white" stroke="#666666" points="1313,-481 1131,-481 1131,-451 1313,-451 1313,-481"/>
<text text-anchor="start" x="1139" y="-469" font-family="Helvetica,sans-Serif" font-size="10.00">userver/storages/clickhouse</text>
<text text-anchor="middle" x="1222" y="-458" font-family="Helvetica,sans-Serif" font-size="10.00">/io/columns/datetime_column.hpp</text>
</a>
</g>
</g>
<!-- Node2&#45;&gt;Node15 -->
<g id="edge21_Node000002_Node000015" class="edge">
<title>Node2&#45;&gt;Node15</title>
<g id="a_edge21_Node000002_Node000015"><a xlink:title=" ">
<path fill="none" stroke="#63b8ff" d="M1364.36,-513.72C1333.11,-503.47 1294.01,-490.63 1264.69,-481.01"/>
<polygon fill="#63b8ff" stroke="#63b8ff" points="1363.61,-517.16 1374.21,-516.95 1365.8,-510.51 1363.61,-517.16"/>
</a>
</g>
</g>
<!-- Node16 -->
<g id="Node000016" class="node">
<title>Node16</title>
<g id="a_Node000016"><a xlink:href="../../d5/d0f/float32__column_8hpp.html" target="_top" xlink:title="Float32 column support.">
<polygon fill="white" stroke="#666666" points="1503,-481 1331,-481 1331,-451 1503,-451 1503,-481"/>
<text text-anchor="start" x="1339" y="-469" font-family="Helvetica,sans-Serif" font-size="10.00">userver/storages/clickhouse</text>
<text text-anchor="middle" x="1417" y="-458" font-family="Helvetica,sans-Serif" font-size="10.00">/io/columns/float32_column.hpp</text>
</a>
</g>
</g>
<!-- Node2&#45;&gt;Node16 -->
<g id="edge23_Node000002_Node000016" class="edge">
<title>Node2&#45;&gt;Node16</title>
<g id="a_edge23_Node000002_Node000016"><a xlink:title=" ">
<path fill="none" stroke="#63b8ff" d="M1417,-506.54C1417,-497.96 1417,-488.61 1417,-481.16"/>
<polygon fill="#63b8ff" stroke="#63b8ff" points="1413.5,-506.8 1417,-516.8 1420.5,-506.8 1413.5,-506.8"/>
</a>
</g>
</g>
<!-- Node17 -->
<g id="Node000017" class="node">
<title>Node17</title>
<g id="a_Node000017"><a xlink:href="../../d5/d1e/float64__column_8hpp.html" target="_top" xlink:title="Float64 column support.">
<polygon fill="white" stroke="#666666" points="1693,-481 1521,-481 1521,-451 1693,-451 1693,-481"/>
<text text-anchor="start" x="1529" y="-469" font-family="Helvetica,sans-Serif" font-size="10.00">userver/storages/clickhouse</text>
<text text-anchor="middle" x="1607" y="-458" font-family="Helvetica,sans-Serif" font-size="10.00">/io/columns/float64_column.hpp</text>
</a>
</g>
</g>
<!-- Node2&#45;&gt;Node17 -->
<g id="edge25_Node000002_Node000017" class="edge">
<title>Node2&#45;&gt;Node17</title>
<g id="a_edge25_Node000002_Node000017"><a xlink:title=" ">
<path fill="none" stroke="#63b8ff" d="M1468.29,-513.72C1498.73,-503.47 1536.84,-490.63 1565.4,-481.01"/>
<polygon fill="#63b8ff" stroke="#63b8ff" points="1467.06,-510.45 1458.7,-516.95 1469.29,-517.08 1467.06,-510.45"/>
</a>
</g>
</g>
<!-- Node18 -->
<g id="Node000018" class="node">
<title>Node18</title>
<g id="a_Node000018"><a xlink:href="../../d6/d6e/int32__column_8hpp.html" target="_top" xlink:title="Int32 column support.">
<polygon fill="white" stroke="#666666" points="1874.5,-481 1711.5,-481 1711.5,-451 1874.5,-451 1874.5,-481"/>
<text text-anchor="start" x="1719.5" y="-469" font-family="Helvetica,sans-Serif" font-size="10.00">userver/storages/clickhouse</text>
<text text-anchor="middle" x="1793" y="-458" font-family="Helvetica,sans-Serif" font-size="10.00">/io/columns/int32_column.hpp</text>
</a>
</g>
</g>
<!-- Node2&#45;&gt;Node18 -->
<g id="edge27_Node000002_Node000018" class="edge">
<title>Node2&#45;&gt;Node18</title>
<g id="a_edge27_Node000002_Node000018"><a xlink:title=" ">
<path fill="none" stroke="#63b8ff" d="M1509.65,-515.23C1571.45,-504.71 1651.93,-491.01 1711.32,-480.9"/>
<polygon fill="#63b8ff" stroke="#63b8ff" points="1508.79,-511.83 1499.51,-516.95 1509.96,-518.73 1508.79,-511.83"/>
</a>
</g>
</g>
<!-- Node19 -->
<g id="Node000019" class="node">
<title>Node19</title>
<g id="a_Node000019"><a xlink:href="../../d5/d88/int64__column_8hpp.html" target="_top" xlink:title="Int64 column support.">
<polygon fill="white" stroke="#666666" points="2055.5,-481 1892.5,-481 1892.5,-451 2055.5,-451 2055.5,-481"/>
<text text-anchor="start" x="1900.5" y="-469" font-family="Helvetica,sans-Serif" font-size="10.00">userver/storages/clickhouse</text>
<text text-anchor="middle" x="1974" y="-458" font-family="Helvetica,sans-Serif" font-size="10.00">/io/columns/int64_column.hpp</text>
</a>
</g>
</g>
<!-- Node2&#45;&gt;Node19 -->
<g id="edge29_Node000002_Node000019" class="edge">
<title>Node2&#45;&gt;Node19</title>
<g id="a_edge29_Node000002_Node000019"><a xlink:title=" ">
<path fill="none" stroke="#63b8ff" d="M1516.82,-521.7C1611.48,-512.56 1757.63,-497.58 1884,-481 1886.67,-480.65 1889.37,-480.29 1892.11,-479.91"/>
<polygon fill="#63b8ff" stroke="#63b8ff" points="1516.3,-518.24 1506.68,-522.68 1516.97,-525.2 1516.3,-518.24"/>
</a>
</g>
</g>
<!-- Node20 -->
<g id="Node000020" class="node">
<title>Node20</title>
<g id="a_Node000020"><a xlink:href="../../de/dff/int8__column_8hpp.html" target="_top" xlink:title="Int8 column support.">
<polygon fill="white" stroke="#666666" points="2230.5,-481 2073.5,-481 2073.5,-451 2230.5,-451 2230.5,-481"/>
<text text-anchor="start" x="2081.5" y="-469" font-family="Helvetica,sans-Serif" font-size="10.00">userver/storages/clickhouse</text>
<text text-anchor="middle" x="2152" y="-458" font-family="Helvetica,sans-Serif" font-size="10.00">/io/columns/int8_column.hpp</text>
</a>
</g>
</g>
<!-- Node2&#45;&gt;Node20 -->
<g id="edge31_Node000002_Node000020" class="edge">
<title>Node2&#45;&gt;Node20</title>
<g id="a_edge31_Node000002_Node000020"><a xlink:title=" ">
<path fill="none" stroke="#63b8ff" d="M1516.72,-525.87C1644.17,-518.72 1871.5,-503.99 2065,-481 2067.73,-480.68 2070.51,-480.33 2073.32,-479.96"/>
<polygon fill="#63b8ff" stroke="#63b8ff" points="1516.38,-522.38 1506.59,-526.43 1516.77,-529.37 1516.38,-522.38"/>
</a>
</g>
</g>
<!-- Node21 -->
<g id="Node000021" class="node">
<title>Node21</title>
<g id="a_Node000021"><a xlink:href="../../d2/d33/string__column_8hpp.html" target="_top" xlink:title="String column support.">
<polygon fill="white" stroke="#666666" points="2415,-481 2249,-481 2249,-451 2415,-451 2415,-481"/>
<text text-anchor="start" x="2257" y="-469" font-family="Helvetica,sans-Serif" font-size="10.00">userver/storages/clickhouse</text>
<text text-anchor="middle" x="2332" y="-458" font-family="Helvetica,sans-Serif" font-size="10.00">/io/columns/string_column.hpp</text>
</a>
</g>
</g>
<!-- Node2&#45;&gt;Node21 -->
<g id="edge34_Node000002_Node000021" class="edge">
<title>Node2&#45;&gt;Node21</title>
<g id="a_edge34_Node000002_Node000021"><a xlink:title=" ">
<path fill="none" stroke="#63b8ff" d="M1517.18,-527.83C1672.38,-522.27 1980.14,-508.61 2240,-481 2242.89,-480.69 2245.83,-480.36 2248.8,-480.01"/>
<polygon fill="#63b8ff" stroke="#63b8ff" points="1516.6,-524.35 1506.73,-528.2 1516.85,-531.35 1516.6,-524.35"/>
</a>
</g>
</g>
<!-- Node22 -->
<g id="Node000022" class="node">
<title>Node22</title>
<g id="a_Node000022"><a xlink:href="../../d3/d31/uint16__column_8hpp.html" target="_top" xlink:title="UInt16 column support.">
<polygon fill="white" stroke="#666666" points="380.5,-481 211.5,-481 211.5,-451 380.5,-451 380.5,-481"/>
<text text-anchor="start" x="219.5" y="-469" font-family="Helvetica,sans-Serif" font-size="10.00">userver/storages/clickhouse</text>
<text text-anchor="middle" x="296" y="-458" font-family="Helvetica,sans-Serif" font-size="10.00">/io/columns/uint16_column.hpp</text>
</a>
</g>
</g>
<!-- Node2&#45;&gt;Node22 -->
<g id="edge36_Node000002_Node000022" class="edge">
<title>Node2&#45;&gt;Node22</title>
<g id="a_edge36_Node000002_Node000022"><a xlink:title=" ">
<path fill="none" stroke="#63b8ff" d="M1317.2,-529.49C1133.24,-525.95 728.42,-514.72 389,-481 386.24,-480.73 383.43,-480.43 380.6,-480.11"/>
<polygon fill="#63b8ff" stroke="#63b8ff" points="1317.33,-532.99 1327.4,-529.68 1317.47,-525.99 1317.33,-532.99"/>
</a>
</g>
</g>
<!-- Node23 -->
<g id="Node000023" class="node">
<title>Node23</title>
<g id="a_Node000023"><a xlink:href="../../d8/d18/uint32__column_8hpp.html" target="_top" xlink:title="UInt32 column support.">
<polygon fill="white" stroke="#666666" points="567.5,-481 398.5,-481 398.5,-451 567.5,-451 567.5,-481"/>
<text text-anchor="start" x="406.5" y="-469" font-family="Helvetica,sans-Serif" font-size="10.00">userver/storages/clickhouse</text>
<text text-anchor="middle" x="483" y="-458" font-family="Helvetica,sans-Serif" font-size="10.00">/io/columns/uint32_column.hpp</text>
</a>
</g>
</g>
<!-- Node2&#45;&gt;Node23 -->
<g id="edge38_Node000002_Node000023" class="edge">
<title>Node2&#45;&gt;Node23</title>
<g id="a_edge38_Node000002_Node000023"><a xlink:title=" ">
<path fill="none" stroke="#63b8ff" d="M1317.32,-527.98C1159.62,-522.55 843.07,-508.98 576,-481 573.24,-480.71 570.44,-480.4 567.61,-480.07"/>
<polygon fill="#63b8ff" stroke="#63b8ff" points="1317.36,-531.48 1327.48,-528.33 1317.6,-524.49 1317.36,-531.48"/>
</a>
</g>
</g>
<!-- Node24 -->
<g id="Node000024" class="node">
<title>Node24</title>
<g id="a_Node000024"><a xlink:href="../../d8/d6c/uint64__column_8hpp.html" target="_top" xlink:title="UInt64 column support.">
<polygon fill="white" stroke="#666666" points="754.5,-481 585.5,-481 585.5,-451 754.5,-451 754.5,-481"/>
<text text-anchor="start" x="593.5" y="-469" font-family="Helvetica,sans-Serif" font-size="10.00">userver/storages/clickhouse</text>
<text text-anchor="middle" x="670" y="-458" font-family="Helvetica,sans-Serif" font-size="10.00">/io/columns/uint64_column.hpp</text>
</a>
</g>
</g>
<!-- Node2&#45;&gt;Node24 -->
<g id="edge40_Node000002_Node000024" class="edge">
<title>Node2&#45;&gt;Node24</title>
<g id="a_edge40_Node000002_Node000024"><a xlink:title=" ">
<path fill="none" stroke="#63b8ff" d="M1317.21,-525.65C1188.77,-518.23 958.82,-503.19 763,-481 760.24,-480.69 757.44,-480.35 754.61,-480.01"/>
<polygon fill="#63b8ff" stroke="#63b8ff" points="1317.23,-529.15 1327.42,-526.23 1317.63,-522.16 1317.23,-529.15"/>
</a>
</g>
</g>
<!-- Node25 -->
<g id="Node000025" class="node">
<title>Node25</title>
<g id="a_Node000025"><a xlink:href="../../d3/d2d/uint8__column_8hpp.html" target="_top" xlink:title="UInt8 column support.">
<polygon fill="white" stroke="#666666" points="935.5,-481 772.5,-481 772.5,-451 935.5,-451 935.5,-481"/>
<text text-anchor="start" x="780.5" y="-469" font-family="Helvetica,sans-Serif" font-size="10.00">userver/storages/clickhouse</text>
<text text-anchor="middle" x="854" y="-458" font-family="Helvetica,sans-Serif" font-size="10.00">/io/columns/uint8_column.hpp</text>
</a>
</g>
</g>
<!-- Node2&#45;&gt;Node25 -->
<g id="edge42_Node000002_Node000025" class="edge">
<title>Node2&#45;&gt;Node25</title>
<g id="a_edge42_Node000002_Node000025"><a xlink:title=" ">
<path fill="none" stroke="#63b8ff" d="M1317,-521.79C1221.35,-512.65 1073.12,-497.63 945,-481 941.99,-480.61 938.92,-480.2 935.83,-479.77"/>
<polygon fill="#63b8ff" stroke="#63b8ff" points="1316.96,-525.3 1327.24,-522.76 1317.62,-518.33 1316.96,-525.3"/>
</a>
</g>
</g>
<!-- Node26 -->
<g id="Node000026" class="node">
<title>Node26</title>
<g id="a_Node000026"><a xlink:href="../../d6/dca/uuid__column_8hpp.html" target="_top" xlink:title="UUID column support.">
<polygon fill="white" stroke="#666666" points="1112.5,-481 953.5,-481 953.5,-451 1112.5,-451 1112.5,-481"/>
<text text-anchor="start" x="961.5" y="-469" font-family="Helvetica,sans-Serif" font-size="10.00">userver/storages/clickhouse</text>
<text text-anchor="middle" x="1033" y="-458" font-family="Helvetica,sans-Serif" font-size="10.00">/io/columns/uuid_column.hpp</text>
</a>
</g>
</g>
<!-- Node2&#45;&gt;Node26 -->
<g id="edge44_Node000002_Node000026" class="edge">
<title>Node2&#45;&gt;Node26</title>
<g id="a_edge44_Node000002_Node000026"><a xlink:title=" ">
<path fill="none" stroke="#63b8ff" d="M1322.57,-515.26C1258.18,-504.53 1173.84,-490.47 1112.81,-480.3"/>
<polygon fill="#63b8ff" stroke="#63b8ff" points="1322.29,-518.76 1332.73,-516.95 1323.44,-511.86 1322.29,-518.76"/>
</a>
</g>
</g>
<!-- Node4 -->
<g id="Node000004" class="node">
<title>Node4</title>
<g id="a_Node000004"><a xlink:href="../../d3/d25/common__columns_8hpp.html" target="_top" xlink:title=" ">
<polygon fill="white" stroke="#666666" points="1412,-415 1226,-415 1226,-385 1412,-385 1412,-415"/>
<text text-anchor="start" x="1234" y="-403" font-family="Helvetica,sans-Serif" font-size="10.00">userver/storages/clickhouse</text>
<text text-anchor="middle" x="1319" y="-392" font-family="Helvetica,sans-Serif" font-size="10.00">/io/columns/common_columns.hpp</text>
</a>
</g>
</g>
<!-- Node3&#45;&gt;Node4 -->
<g id="edge3_Node000003_Node000004" class="edge">
<title>Node3&#45;&gt;Node4</title>
<g id="a_edge3_Node000003_Node000004"><a xlink:title=" ">
<path fill="none" stroke="#63b8ff" d="M204.42,-450.83C588.68,-417.14 1035.52,-405.89 1225.77,-402.41"/>
<polygon fill="#63b8ff" stroke="#63b8ff" points="203.87,-447.37 194.22,-451.73 204.49,-454.34 203.87,-447.37"/>
</a>
</g>
</g>
<!-- Node12 -->
<g id="Node000012" class="node">
<title>Node12</title>
<g id="a_Node000012"><a xlink:href="../../de/dab/clickhouse_2include_2userver_2storages_2clickhouse_2io_2typedefs_8hpp.html" target="_top" xlink:title=" ">
<polygon fill="white" stroke="#666666" points="739.5,-415 586.5,-415 586.5,-385 739.5,-385 739.5,-415"/>
<text text-anchor="start" x="594.5" y="-403" font-family="Helvetica,sans-Serif" font-size="10.00">userver/storages/clickhouse</text>
<text text-anchor="middle" x="663" y="-392" font-family="Helvetica,sans-Serif" font-size="10.00">/io/typedefs.hpp</text>
</a>
</g>
</g>
<!-- Node3&#45;&gt;Node12 -->
<g id="edge16_Node000003_Node000012" class="edge">
<title>Node3&#45;&gt;Node12</title>
<g id="a_edge16_Node000003_Node000012"><a xlink:title=" ">
<path fill="none" stroke="#63b8ff" d="M204.31,-450.74C344.42,-433.9 496.86,-417.89 586.26,-408.74"/>
<polygon fill="#63b8ff" stroke="#63b8ff" points="203.75,-447.28 194.24,-451.95 204.59,-454.23 203.75,-447.28"/>
</a>
</g>
</g>
<!-- Node5 -->
<g id="Node000005" class="node">
<title>Node5</title>
<g id="a_Node000005"><a xlink:href="../../dd/d84/insertion__request_8hpp_source.html" target="_top" xlink:title=" ">
<polygon fill="white" stroke="#666666" points="1376.5,-217 1223.5,-217 1223.5,-187 1376.5,-187 1376.5,-217"/>
<text text-anchor="start" x="1231.5" y="-205" font-family="Helvetica,sans-Serif" font-size="10.00">userver/storages/clickhouse</text>
<text text-anchor="middle" x="1300" y="-194" font-family="Helvetica,sans-Serif" font-size="10.00">/impl/insertion_request.hpp</text>
</a>
</g>
</g>
<!-- Node4&#45;&gt;Node5 -->
<g id="edge4_Node000004_Node000005" class="edge">
<title>Node4&#45;&gt;Node5</title>
<g id="a_edge4_Node000004_Node000005"><a xlink:title=" ">
<path fill="none" stroke="#63b8ff" d="M1316.66,-374.89C1312.66,-333.58 1304.6,-250.48 1301.38,-217.23"/>
<polygon fill="#63b8ff" stroke="#63b8ff" points="1313.18,-375.29 1317.63,-384.9 1320.15,-374.61 1313.18,-375.29"/>
</a>
</g>
</g>
<!-- Node4&#45;&gt;Node8 -->
<g id="edge7_Node000004_Node000008" class="edge">
<title>Node4&#45;&gt;Node8</title>
<g id="a_edge7_Node000004_Node000008"><a xlink:title=" ">
<path fill="none" stroke="#63b8ff" d="M1357.71,-380.65C1378.94,-370.58 1404.85,-358.3 1424.44,-349.01"/>
<polygon fill="#63b8ff" stroke="#63b8ff" points="1356.16,-377.51 1348.63,-384.95 1359.16,-383.83 1356.16,-377.51"/>
</a>
</g>
</g>
<!-- Node4&#45;&gt;Node9 -->
<g id="edge15_Node000004_Node000009" class="edge">
<title>Node4&#45;&gt;Node9</title>
<g id="a_edge15_Node000004_Node000009"><a xlink:title=" ">
<path fill="none" stroke="#63b8ff" d="M1325.81,-375.03C1331.72,-357.73 1341.77,-334.74 1357,-319 1372.42,-303.07 1394,-291.26 1412.9,-283.13"/>
<polygon fill="#63b8ff" stroke="#63b8ff" points="1322.35,-374.36 1322.65,-384.95 1329.02,-376.48 1322.35,-374.36"/>
</a>
</g>
</g>
<!-- Node6 -->
<g id="Node000006" class="node">
<title>Node6</title>
<g id="a_Node000006"><a xlink:href="../../da/de8/clickhouse_2include_2userver_2storages_2clickhouse_2cluster_8hpp.html" target="_top" xlink:title="Interface for executing queries on a cluster of ClickHouse servers.">
<polygon fill="white" stroke="#666666" points="1357.5,-85 1204.5,-85 1204.5,-55 1357.5,-55 1357.5,-85"/>
<text text-anchor="start" x="1212.5" y="-73" font-family="Helvetica,sans-Serif" font-size="10.00">userver/storages/clickhouse</text>
<text text-anchor="middle" x="1281" y="-62" font-family="Helvetica,sans-Serif" font-size="10.00">/cluster.hpp</text>
</a>
</g>
</g>
<!-- Node5&#45;&gt;Node6 -->
<g id="edge5_Node000005_Node000006" class="edge">
<title>Node5&#45;&gt;Node6</title>
<g id="a_edge5_Node000005_Node000006"><a xlink:title=" ">
<path fill="none" stroke="#63b8ff" d="M1296.45,-176.68C1292.5,-149.7 1286.28,-107.11 1283.07,-85.14"/>
<polygon fill="#63b8ff" stroke="#63b8ff" points="1293.02,-177.45 1297.93,-186.84 1299.95,-176.44 1293.02,-177.45"/>
</a>
</g>
</g>
<!-- Node7 -->
<g id="Node000007" class="node">
<title>Node7</title>
<g id="a_Node000007"><a xlink:href="../../d7/d29/clickhouse_8hpp.html" target="_top" xlink:title=" ">
<polygon fill="white" stroke="#666666" points="1368,-19 1194,-19 1194,0 1368,0 1368,-19"/>
<text text-anchor="middle" x="1281" y="-7" font-family="Helvetica,sans-Serif" font-size="10.00">userver/storages/clickhouse.hpp</text>
</a>
</g>
</g>
<!-- Node6&#45;&gt;Node7 -->
<g id="edge6_Node000006_Node000007" class="edge">
<title>Node6&#45;&gt;Node7</title>
<g id="a_edge6_Node000006_Node000007"><a xlink:title=" ">
<path fill="none" stroke="#63b8ff" d="M1281,-44.75C1281,-35.72 1281,-26.03 1281,-19.27"/>
<polygon fill="#63b8ff" stroke="#63b8ff" points="1277.5,-44.84 1281,-54.84 1284.5,-44.84 1277.5,-44.84"/>
</a>
</g>
</g>
<!-- Node8&#45;&gt;Node5 -->
<g id="edge8_Node000008_Node000005" class="edge">
<title>Node8&#45;&gt;Node5</title>
<g id="a_edge8_Node000008_Node000005"><a xlink:title=" ">
<path fill="none" stroke="#63b8ff" d="M1415.71,-313.99C1400.43,-305.53 1383.15,-294.81 1369,-283 1345.06,-263.02 1322.49,-234.3 1310.02,-217.26"/>
<polygon fill="#63b8ff" stroke="#63b8ff" points="1414.45,-317.28 1424.92,-318.95 1417.77,-311.12 1414.45,-317.28"/>
</a>
</g>
</g>
<!-- Node8&#45;&gt;Node9 -->
<g id="edge9_Node000008_Node000009" class="edge">
<title>Node8&#45;&gt;Node9</title>
<g id="a_edge9_Node000008_Node000009"><a xlink:title=" ">
<path fill="none" stroke="#63b8ff" d="M1454,-308.54C1454,-299.96 1454,-290.61 1454,-283.16"/>
<polygon fill="#63b8ff" stroke="#63b8ff" points="1450.5,-308.8 1454,-318.8 1457.5,-308.8 1450.5,-308.8"/>
</a>
</g>
</g>
<!-- Node9&#45;&gt;Node5 -->
<g id="edge14_Node000009_Node000005" class="edge">
<title>Node9&#45;&gt;Node5</title>
<g id="a_edge14_Node000009_Node000005"><a xlink:title=" ">
<path fill="none" stroke="#63b8ff" d="M1410.82,-249.05C1386.42,-238.91 1356.37,-226.43 1333.72,-217.01"/>
<polygon fill="#63b8ff" stroke="#63b8ff" points="1409.63,-252.35 1420.2,-252.95 1412.31,-245.89 1409.63,-252.35"/>
</a>
</g>
</g>
<!-- Node10 -->
<g id="Node000010" class="node">
<title>Node10</title>
<g id="a_Node000010"><a xlink:href="../../db/d1b/clickhouse_2include_2userver_2storages_2clickhouse_2execution__result_8hpp.html" target="_top" xlink:title="Result accessor.">
<polygon fill="white" stroke="#666666" points="1547.5,-217 1394.5,-217 1394.5,-187 1547.5,-187 1547.5,-217"/>
<text text-anchor="start" x="1402.5" y="-205" font-family="Helvetica,sans-Serif" font-size="10.00">userver/storages/clickhouse</text>
<text text-anchor="middle" x="1471" y="-194" font-family="Helvetica,sans-Serif" font-size="10.00">/execution_result.hpp</text>
</a>
</g>
</g>
<!-- Node9&#45;&gt;Node10 -->
<g id="edge10_Node000009_Node000010" class="edge">
<title>Node9&#45;&gt;Node10</title>
<g id="a_edge10_Node000009_Node000010"><a xlink:title=" ">
<path fill="none" stroke="#63b8ff" d="M1460.35,-243.11C1462.67,-234.38 1465.21,-224.78 1467.24,-217.16"/>
<polygon fill="#63b8ff" stroke="#63b8ff" points="1456.96,-242.23 1457.77,-252.8 1463.72,-244.03 1456.96,-242.23"/>
</a>
</g>
</g>
<!-- Node10&#45;&gt;Node7 -->
<g id="edge11_Node000010_Node000007" class="edge">
<title>Node10&#45;&gt;Node7</title>
<g id="a_edge11_Node000010_Node000007"><a xlink:title=" ">
<path fill="none" stroke="#63b8ff" d="M1477.26,-176.9C1480.23,-160.18 1481.37,-137.95 1472,-121 1439.58,-62.32 1362.23,-32.23 1316.53,-19.06"/>
<polygon fill="#63b8ff" stroke="#63b8ff" points="1473.77,-176.47 1475.13,-186.98 1480.62,-177.92 1473.77,-176.47"/>
</a>
</g>
</g>
<!-- Node11 -->
<g id="Node000011" class="node">
<title>Node11</title>
<g id="a_Node000011"><a xlink:href="../../d3/de4/clickhouse_2include_2userver_2storages_2clickhouse_2impl_2pool_8hpp_source.html" target="_top" xlink:title=" ">
<polygon fill="white" stroke="#666666" points="1462.5,-151 1309.5,-151 1309.5,-121 1462.5,-121 1462.5,-151"/>
<text text-anchor="start" x="1317.5" y="-139" font-family="Helvetica,sans-Serif" font-size="10.00">userver/storages/clickhouse</text>
<text text-anchor="middle" x="1386" y="-128" font-family="Helvetica,sans-Serif" font-size="10.00">/impl/pool.hpp</text>
</a>
</g>
</g>
<!-- Node10&#45;&gt;Node11 -->
<g id="edge12_Node000010_Node000011" class="edge">
<title>Node10&#45;&gt;Node11</title>
<g id="a_edge12_Node000010_Node000011"><a xlink:title=" ">
<path fill="none" stroke="#63b8ff" d="M1444.11,-180.75C1431.33,-171.13 1416.36,-159.86 1404.81,-151.16"/>
<polygon fill="#63b8ff" stroke="#63b8ff" points="1442.04,-183.58 1452.14,-186.8 1446.25,-177.99 1442.04,-183.58"/>
</a>
</g>
</g>
<!-- Node11&#45;&gt;Node6 -->
<g id="edge13_Node000011_Node000006" class="edge">
<title>Node11&#45;&gt;Node6</title>
<g id="a_edge13_Node000011_Node000006"><a xlink:title=" ">
<path fill="none" stroke="#63b8ff" d="M1354.33,-115.69C1338.12,-105.82 1318.75,-94.01 1303.99,-85.01"/>
<polygon fill="#63b8ff" stroke="#63b8ff" points="1352.6,-118.74 1362.96,-120.95 1356.24,-112.76 1352.6,-118.74"/>
</a>
</g>
</g>
<!-- Node13 -->
<g id="Node000013" class="node">
<title>Node13</title>
<g id="a_Node000013"><a xlink:href="../../d3/d92/escape_8hpp_source.html" target="_top" xlink:title=" ">
<polygon fill="white" stroke="#666666" points="1015.5,-349 862.5,-349 862.5,-319 1015.5,-319 1015.5,-349"/>
<text text-anchor="start" x="870.5" y="-337" font-family="Helvetica,sans-Serif" font-size="10.00">userver/storages/clickhouse</text>
<text text-anchor="middle" x="939" y="-326" font-family="Helvetica,sans-Serif" font-size="10.00">/io/impl/escape.hpp</text>
</a>
</g>
</g>
<!-- Node12&#45;&gt;Node13 -->
<g id="edge17_Node000012_Node000013" class="edge">
<title>Node12&#45;&gt;Node13</title>
<g id="a_edge17_Node000012_Node000013"><a xlink:title=" ">
<path fill="none" stroke="#63b8ff" d="M733.52,-382.65C778.36,-372.25 835.82,-358.93 878.57,-349.01"/>
<polygon fill="#63b8ff" stroke="#63b8ff" points="732.52,-379.29 723.57,-384.95 734.1,-386.11 732.52,-379.29"/>
</a>
</g>
</g>
<!-- Node14 -->
<g id="Node000014" class="node">
<title>Node14</title>
<g id="a_Node000014"><a xlink:href="../../d7/de9/clickhouse_2include_2userver_2storages_2clickhouse_2query_8hpp.html" target="_top" xlink:title="Holds a query and its name. In case query is expected to be executed with parameters,...">
<polygon fill="white" stroke="#666666" points="1252.5,-151 1099.5,-151 1099.5,-121 1252.5,-121 1252.5,-151"/>
<text text-anchor="start" x="1107.5" y="-139" font-family="Helvetica,sans-Serif" font-size="10.00">userver/storages/clickhouse</text>
<text text-anchor="middle" x="1176" y="-128" font-family="Helvetica,sans-Serif" font-size="10.00">/query.hpp</text>
</a>
</g>
</g>
<!-- Node13&#45;&gt;Node14 -->
<g id="edge18_Node000013_Node000014" class="edge">
<title>Node13&#45;&gt;Node14</title>
<g id="a_edge18_Node000013_Node000014"><a xlink:title=" ">
<path fill="none" stroke="#63b8ff" d="M963.82,-312.47C1012.07,-272.57 1117.39,-185.47 1158.79,-151.23"/>
<polygon fill="#63b8ff" stroke="#63b8ff" points="961.52,-309.83 956.04,-318.9 965.98,-315.23 961.52,-309.83"/>
</a>
</g>
</g>
<!-- Node14&#45;&gt;Node6 -->
<g id="edge20_Node000014_Node000006" class="edge">
<title>Node14&#45;&gt;Node6</title>
<g id="a_edge20_Node000014_Node000006"><a xlink:title=" ">
<path fill="none" stroke="#63b8ff" d="M1207.67,-115.69C1223.88,-105.82 1243.25,-94.01 1258.01,-85.01"/>
<polygon fill="#63b8ff" stroke="#63b8ff" points="1205.76,-112.76 1199.04,-120.95 1209.4,-118.74 1205.76,-112.76"/>
</a>
</g>
</g>
<!-- Node14&#45;&gt;Node7 -->
<g id="edge19_Node000014_Node000007" class="edge">
<title>Node14&#45;&gt;Node7</title>
<g id="a_edge19_Node000014_Node000007"><a xlink:title=" ">
<path fill="none" stroke="#63b8ff" d="M1176.95,-110.41C1178.77,-93.29 1183.58,-70.78 1196,-55 1209.91,-37.33 1232.78,-25.92 1251.3,-19.08"/>
<polygon fill="#63b8ff" stroke="#63b8ff" points="1173.43,-110.52 1176.14,-120.76 1180.41,-111.06 1173.43,-110.52"/>
</a>
</g>
</g>
<!-- Node15&#45;&gt;Node4 -->
<g id="edge22_Node000015_Node000004" class="edge">
<title>Node15&#45;&gt;Node4</title>
<g id="a_edge22_Node000015_Node000004"><a xlink:title=" ">
<path fill="none" stroke="#63b8ff" d="M1252.27,-445.03C1266.95,-435.34 1284.23,-423.94 1297.53,-415.16"/>
<polygon fill="#63b8ff" stroke="#63b8ff" points="1249.95,-442.37 1243.53,-450.8 1253.8,-448.21 1249.95,-442.37"/>
</a>
</g>
</g>
<!-- Node16&#45;&gt;Node4 -->
<g id="edge24_Node000016_Node000004" class="edge">
<title>Node16&#45;&gt;Node4</title>
<g id="a_edge24_Node000016_Node000004"><a xlink:title=" ">
<path fill="none" stroke="#63b8ff" d="M1386.84,-445.3C1371.92,-435.56 1354.25,-424.02 1340.69,-415.16"/>
<polygon fill="#63b8ff" stroke="#63b8ff" points="1384.96,-448.26 1395.25,-450.8 1388.79,-442.4 1384.96,-448.26"/>
</a>
</g>
</g>
<!-- Node17&#45;&gt;Node4 -->
<g id="edge26_Node000017_Node000004" class="edge">
<title>Node17&#45;&gt;Node4</title>
<g id="a_edge26_Node000017_Node000004"><a xlink:title=" ">
<path fill="none" stroke="#63b8ff" d="M1534.01,-448.78C1487.13,-438.36 1426.85,-424.97 1382.06,-415.01"/>
<polygon fill="#63b8ff" stroke="#63b8ff" points="1533.28,-452.2 1543.8,-450.95 1534.79,-445.37 1533.28,-452.2"/>
</a>
</g>
</g>
<!-- Node18&#45;&gt;Node4 -->
<g id="edge28_Node000018_Node000004" class="edge">
<title>Node18&#45;&gt;Node4</title>
<g id="a_edge28_Node000018_Node000004"><a xlink:title=" ">
<path fill="none" stroke="#63b8ff" d="M1701.03,-450.88C1596.2,-436.05 1487.52,-422.05 1412.34,-412.58"/>
<polygon fill="#63b8ff" stroke="#63b8ff" points="1700.77,-454.38 1711.16,-452.32 1701.75,-447.45 1700.77,-454.38"/>
</a>
</g>
</g>
<!-- Node19&#45;&gt;Node4 -->
<g id="edge30_Node000019_Node000004" class="edge">
<title>Node19&#45;&gt;Node4</title>
<g id="a_edge30_Node000019_Node000004"><a xlink:title=" ">
<path fill="none" stroke="#63b8ff" d="M1882.17,-450.82C1710.96,-430.22 1522.21,-415.28 1412.18,-407.35"/>
<polygon fill="#63b8ff" stroke="#63b8ff" points="1881.77,-454.3 1892.12,-452.03 1882.61,-447.35 1881.77,-454.3"/>
</a>
</g>
</g>
<!-- Node20&#45;&gt;Node4 -->
<g id="edge32_Node000020_Node000004" class="edge">
<title>Node20&#45;&gt;Node4</title>
<g id="a_edge32_Node000020_Node000004"><a xlink:title=" ">
<path fill="none" stroke="#63b8ff" d="M2063.36,-450.88C1823.36,-424 1551.84,-410.29 1412.29,-404.48"/>
<polygon fill="#63b8ff" stroke="#63b8ff" points="2062.99,-454.36 2073.32,-452 2063.78,-447.4 2062.99,-454.36"/>
</a>
</g>
</g>
<!-- Node21&#45;&gt;Node4 -->
<g id="edge35_Node000021_Node000004" class="edge">
<title>Node21&#45;&gt;Node4</title>
<g id="a_edge35_Node000021_Node000004"><a xlink:title=" ">
<path fill="none" stroke="#63b8ff" d="M2238.77,-450.94C1930.44,-419.65 1576.73,-407.41 1412.05,-403.08"/>
<polygon fill="#63b8ff" stroke="#63b8ff" points="2238.5,-454.43 2248.8,-451.97 2239.21,-447.47 2238.5,-454.43"/>
</a>
</g>
</g>
<!-- Node22&#45;&gt;Node4 -->
<g id="edge37_Node000022_Node000004" class="edge">
<title>Node22&#45;&gt;Node4</title>
<g id="a_edge37_Node000022_Node000004"><a xlink:title=" ">
<path fill="none" stroke="#63b8ff" d="M390.73,-450.89C702.02,-419.63 1059.72,-407.38 1225.71,-403.06"/>
<polygon fill="#63b8ff" stroke="#63b8ff" points="390.2,-447.42 380.6,-451.91 390.91,-454.39 390.2,-447.42"/>
</a>
</g>
</g>
<!-- Node23&#45;&gt;Node4 -->
<g id="edge39_Node000023_Node000004" class="edge">
<title>Node23&#45;&gt;Node4</title>
<g id="a_edge39_Node000023_Node000004"><a xlink:title=" ">
<path fill="none" stroke="#63b8ff" d="M577.89,-450.85C816.9,-425.24 1086.87,-411.03 1225.83,-404.81"/>
<polygon fill="#63b8ff" stroke="#63b8ff" points="577.17,-447.41 567.61,-451.96 577.93,-454.37 577.17,-447.41"/>
</a>
</g>
</g>
<!-- Node24&#45;&gt;Node4 -->
<g id="edge41_Node000024_Node000004" class="edge">
<title>Node24&#45;&gt;Node4</title>
<g id="a_edge41_Node000024_Node000004"><a xlink:title=" ">
<path fill="none" stroke="#63b8ff" d="M764.64,-450.84C932.77,-430.89 1117.44,-415.82 1225.86,-407.67"/>
<polygon fill="#63b8ff" stroke="#63b8ff" points="764.13,-447.38 754.62,-452.04 764.96,-454.33 764.13,-447.38"/>
</a>
</g>
</g>
<!-- Node25&#45;&gt;Node4 -->
<g id="edge43_Node000025_Node000004" class="edge">
<title>Node25&#45;&gt;Node4</title>
<g id="a_edge43_Node000025_Node000004"><a xlink:title=" ">
<path fill="none" stroke="#63b8ff" d="M945.99,-450.88C1047.67,-436.32 1152.67,-422.43 1225.94,-412.92"/>
<polygon fill="#63b8ff" stroke="#63b8ff" points="945.24,-447.45 935.84,-452.33 946.24,-454.37 945.24,-447.45"/>
</a>
</g>
</g>
<!-- Node26&#45;&gt;Node4 -->
<g id="edge45_Node000026_Node000004" class="edge">
<title>Node26&#45;&gt;Node4</title>
<g id="a_edge45_Node000026_Node000004"><a xlink:title=" ">
<path fill="none" stroke="#63b8ff" d="M1105.78,-448.71C1152.29,-438.31 1211.99,-424.95 1256.38,-415.01"/>
<polygon fill="#63b8ff" stroke="#63b8ff" points="1104.76,-445.36 1095.76,-450.95 1106.29,-452.19 1104.76,-445.36"/>
</a>
</g>
</g>
</g>
</svg>
