<?xml version="1.0" encoding="UTF-8" standalone="no"?>
<!DOCTYPE svg PUBLIC "-//W3C//DTD SVG 1.1//EN"
 "http://www.w3.org/Graphics/SVG/1.1/DTD/svg11.dtd">
<!-- Generated by graphviz version 2.43.0 (0)
 -->
<!-- Title: userver/utils/any_movable.hpp Pages: 1 -->
<svg width="1992pt" height="445pt"
 viewBox="0.00 0.00 1992.00 445.00" xmlns="http://www.w3.org/2000/svg" xmlns:xlink="http://www.w3.org/1999/xlink">
<g id="graph0" class="graph" transform="scale(1 1) rotate(0) translate(4 441)">
<title>userver/utils/any_movable.hpp</title>
<!-- Node1 -->
<g id="Node000001" class="node">
<title>Node1</title>
<g id="a_Node000001"><a xlink:title="Replacement for std::any that is not copyable. It allows to store non&#45;copyable and even non&#45;movable t...">
<polygon fill="#999999" stroke="#666666" points="759.5,-437 592.5,-437 592.5,-418 759.5,-418 759.5,-437"/>
<text text-anchor="middle" x="676" y="-425" font-family="Helvetica,sans-Serif" font-size="10.00">userver/utils/any_movable.hpp</text>
</a>
</g>
</g>
<!-- Node2 -->
<g id="Node000002" class="node">
<title>Node2</title>
<g id="a_Node000002"><a xlink:href="../../dc/dbf/request__context_8hpp.html" target="_top" xlink:title="Stores request&#45;specific data during request processing.">
<polygon fill="white" stroke="#666666" points="739.5,-382 612.5,-382 612.5,-352 739.5,-352 739.5,-382"/>
<text text-anchor="start" x="620.5" y="-370" font-family="Helvetica,sans-Serif" font-size="10.00">userver/server/request</text>
<text text-anchor="middle" x="676" y="-359" font-family="Helvetica,sans-Serif" font-size="10.00">/request_context.hpp</text>
</a>
</g>
</g>
<!-- Node1&#45;&gt;Node2 -->
<g id="edge1_Node000001_Node000002" class="edge">
<title>Node1&#45;&gt;Node2</title>
<g id="a_edge1_Node000001_Node000002"><a xlink:title=" ">
<path fill="none" stroke="#63b8ff" d="M676,-407.65C676,-399.36 676,-389.78 676,-382.11"/>
<polygon fill="#63b8ff" stroke="#63b8ff" points="672.5,-407.87 676,-417.87 679.5,-407.87 672.5,-407.87"/>
</a>
</g>
</g>
<!-- Node3 -->
<g id="Node000003" class="node">
<title>Node3</title>
<g id="a_Node000003"><a xlink:href="../../d8/d40/user__auth__info_8hpp_source.html" target="_top" xlink:title=" ">
<polygon fill="white" stroke="#666666" points="647.5,-316 534.5,-316 534.5,-286 647.5,-286 647.5,-316"/>
<text text-anchor="start" x="542.5" y="-304" font-family="Helvetica,sans-Serif" font-size="10.00">userver/server/auth</text>
<text text-anchor="middle" x="591" y="-293" font-family="Helvetica,sans-Serif" font-size="10.00">/user_auth_info.hpp</text>
</a>
</g>
</g>
<!-- Node2&#45;&gt;Node3 -->
<g id="edge2_Node000002_Node000003" class="edge">
<title>Node2&#45;&gt;Node3</title>
<g id="a_edge2_Node000002_Node000003"><a xlink:title=" ">
<path fill="none" stroke="#63b8ff" d="M649.11,-345.75C636.33,-336.13 621.36,-324.86 609.81,-316.16"/>
<polygon fill="#63b8ff" stroke="#63b8ff" points="647.04,-348.58 657.14,-351.8 651.25,-342.99 647.04,-348.58"/>
</a>
</g>
</g>
<!-- Node4 -->
<g id="Node000004" class="node">
<title>Node4</title>
<g id="a_Node000004"><a xlink:href="../../da/dff/auth__checker__base_8hpp_source.html" target="_top" xlink:title=" ">
<polygon fill="white" stroke="#666666" points="686,-250 528,-250 528,-220 686,-220 686,-250"/>
<text text-anchor="start" x="536" y="-238" font-family="Helvetica,sans-Serif" font-size="10.00">userver/server/handlers</text>
<text text-anchor="middle" x="607" y="-227" font-family="Helvetica,sans-Serif" font-size="10.00">/auth/auth_checker_base.hpp</text>
</a>
</g>
</g>
<!-- Node2&#45;&gt;Node4 -->
<g id="edge23_Node000002_Node000004" class="edge">
<title>Node2&#45;&gt;Node4</title>
<g id="a_edge23_Node000002_Node000004"><a xlink:title=" ">
<path fill="none" stroke="#63b8ff" d="M673.35,-341.89C670.75,-325.34 665.69,-303.32 656,-286 648.28,-272.21 635.77,-259.53 625.32,-250.39"/>
<polygon fill="#63b8ff" stroke="#63b8ff" points="669.9,-342.45 674.73,-351.88 676.83,-341.49 669.9,-342.45"/>
</a>
</g>
</g>
<!-- Node6 -->
<g id="Node000006" class="node">
<title>Node6</title>
<g id="a_Node000006"><a xlink:href="../../de/d82/digest_2auth__checker__base_8hpp.html" target="_top" xlink:title="Base class for digest authentication checkers. Implements a digest&#45;authentication logic.">
<polygon fill="white" stroke="#666666" points="749,-184 607,-184 607,-143 749,-143 749,-184"/>
<text text-anchor="start" x="615" y="-172" font-family="Helvetica,sans-Serif" font-size="10.00">userver/server/handlers</text>
<text text-anchor="start" x="615" y="-161" font-family="Helvetica,sans-Serif" font-size="10.00">/auth/digest/auth_checker</text>
<text text-anchor="middle" x="678" y="-150" font-family="Helvetica,sans-Serif" font-size="10.00">_base.hpp</text>
</a>
</g>
</g>
<!-- Node2&#45;&gt;Node6 -->
<g id="edge24_Node000002_Node000006" class="edge">
<title>Node2&#45;&gt;Node6</title>
<g id="a_edge24_Node000002_Node000006"><a xlink:title=" ">
<path fill="none" stroke="#63b8ff" d="M683.16,-342.25C690.93,-313.32 701.44,-263 695,-220 693.18,-207.84 689.23,-194.67 685.6,-184.21"/>
<polygon fill="#63b8ff" stroke="#63b8ff" points="679.78,-341.31 680.45,-351.88 686.52,-343.2 679.78,-341.31"/>
</a>
</g>
</g>
<!-- Node7 -->
<g id="Node000007" class="node">
<title>Node7</title>
<g id="a_Node000007"><a xlink:href="../../db/df0/standalone__checker_8hpp.html" target="_top" xlink:title="Class for digest authentication checker. Implements a stand&#45;alone digest&#45;authentication logic.">
<polygon fill="white" stroke="#666666" points="132,-107 0,-107 0,-66 132,-66 132,-107"/>
<text text-anchor="start" x="8" y="-95" font-family="Helvetica,sans-Serif" font-size="10.00">userver/server/handlers</text>
<text text-anchor="start" x="8" y="-84" font-family="Helvetica,sans-Serif" font-size="10.00">/auth/digest/standalone</text>
<text text-anchor="middle" x="66" y="-73" font-family="Helvetica,sans-Serif" font-size="10.00">_checker.hpp</text>
</a>
</g>
</g>
<!-- Node2&#45;&gt;Node7 -->
<g id="edge25_Node000002_Node000007" class="edge">
<title>Node2&#45;&gt;Node7</title>
<g id="a_edge25_Node000002_Node000007"><a xlink:title=" ">
<path fill="none" stroke="#63b8ff" d="M617.99,-348.92C589.61,-340.02 555.15,-328.42 525,-316 362.04,-248.86 176.58,-148.89 100.91,-107.03"/>
<polygon fill="#63b8ff" stroke="#63b8ff" points="617.17,-352.33 627.76,-351.95 619.25,-345.64 617.17,-352.33"/>
</a>
</g>
</g>
<!-- Node24 -->
<g id="Node000024" class="node">
<title>Node24</title>
<g id="a_Node000024"><a xlink:href="../../df/dd5/handler__base_8hpp.html" target="_top" xlink:title="Base class for the request handlers.">
<polygon fill="white" stroke="#666666" points="946,-250 814,-250 814,-220 946,-220 946,-250"/>
<text text-anchor="start" x="822" y="-238" font-family="Helvetica,sans-Serif" font-size="10.00">userver/server/handlers</text>
<text text-anchor="middle" x="880" y="-227" font-family="Helvetica,sans-Serif" font-size="10.00">/handler_base.hpp</text>
</a>
</g>
</g>
<!-- Node2&#45;&gt;Node24 -->
<g id="edge26_Node000002_Node000024" class="edge">
<title>Node2&#45;&gt;Node24</title>
<g id="a_edge26_Node000002_Node000024"><a xlink:title=" ">
<path fill="none" stroke="#63b8ff" d="M706.83,-346.35C748.36,-319.89 821.27,-273.43 857.81,-250.14"/>
<polygon fill="#63b8ff" stroke="#63b8ff" points="704.77,-343.51 698.22,-351.84 708.53,-349.42 704.77,-343.51"/>
</a>
</g>
</g>
<!-- Node3&#45;&gt;Node4 -->
<g id="edge3_Node000003_Node000004" class="edge">
<title>Node3&#45;&gt;Node4</title>
<g id="a_edge3_Node000003_Node000004"><a xlink:title=" ">
<path fill="none" stroke="#63b8ff" d="M597.04,-275.83C599.21,-267.17 601.58,-257.7 603.46,-250.16"/>
<polygon fill="#63b8ff" stroke="#63b8ff" points="593.58,-275.25 594.55,-285.8 600.37,-276.94 593.58,-275.25"/>
</a>
</g>
</g>
<!-- Node5 -->
<g id="Node000005" class="node">
<title>Node5</title>
<g id="a_Node000005"><a xlink:href="../../db/ddd/auth__checker__factory_8hpp.html" target="_top" xlink:title="Authorization factory registration and base classes.">
<polygon fill="white" stroke="#666666" points="589,-178.5 421,-178.5 421,-148.5 589,-148.5 589,-178.5"/>
<text text-anchor="start" x="429" y="-166.5" font-family="Helvetica,sans-Serif" font-size="10.00">userver/server/handlers</text>
<text text-anchor="middle" x="505" y="-155.5" font-family="Helvetica,sans-Serif" font-size="10.00">/auth/auth_checker_factory.hpp</text>
</a>
</g>
</g>
<!-- Node4&#45;&gt;Node5 -->
<g id="edge4_Node000004_Node000005" class="edge">
<title>Node4&#45;&gt;Node5</title>
<g id="a_edge4_Node000004_Node000005"><a xlink:title=" ">
<path fill="none" stroke="#63b8ff" d="M578.02,-214.25C561.3,-202.86 540.67,-188.81 525.61,-178.54"/>
<polygon fill="#63b8ff" stroke="#63b8ff" points="576.12,-217.2 586.36,-219.94 580.07,-211.41 576.12,-217.2"/>
</a>
</g>
</g>
<!-- Node4&#45;&gt;Node6 -->
<g id="edge5_Node000004_Node000006" class="edge">
<title>Node4&#45;&gt;Node6</title>
<g id="a_edge5_Node000004_Node000006"><a xlink:title=" ">
<path fill="none" stroke="#63b8ff" d="M628.77,-212.69C638.09,-203.57 648.89,-192.99 658,-184.07"/>
<polygon fill="#63b8ff" stroke="#63b8ff" points="626.07,-210.44 621.37,-219.94 630.96,-215.44 626.07,-210.44"/>
</a>
</g>
</g>
<!-- Node8 -->
<g id="Node000008" class="node">
<title>Node8</title>
<g id="a_Node000008"><a xlink:href="../../d4/df6/http__handler__base_8hpp.html" target="_top" xlink:title="Base class for all the Userver HTTP Handlers.">
<polygon fill="white" stroke="#666666" points="983,-178.5 851,-178.5 851,-148.5 983,-148.5 983,-178.5"/>
<text text-anchor="start" x="859" y="-166.5" font-family="Helvetica,sans-Serif" font-size="10.00">userver/server/handlers</text>
<text text-anchor="middle" x="917" y="-155.5" font-family="Helvetica,sans-Serif" font-size="10.00">/http_handler_base.hpp</text>
</a>
</g>
</g>
<!-- Node4&#45;&gt;Node8 -->
<g id="edge7_Node000004_Node000008" class="edge">
<title>Node4&#45;&gt;Node8</title>
<g id="a_edge7_Node000004_Node000008"><a xlink:title=" ">
<path fill="none" stroke="#63b8ff" d="M679.75,-217.69C732.77,-205.8 803.86,-189.87 854.36,-178.54"/>
<polygon fill="#63b8ff" stroke="#63b8ff" points="678.73,-214.33 669.73,-219.94 680.26,-221.16 678.73,-214.33"/>
</a>
</g>
</g>
<!-- Node6&#45;&gt;Node7 -->
<g id="edge6_Node000006_Node000007" class="edge">
<title>Node6&#45;&gt;Node7</title>
<g id="a_edge6_Node000006_Node000007"><a xlink:title=" ">
<path fill="none" stroke="#63b8ff" d="M596.57,-142.91C395.02,-111.72 338.69,-140.22 141,-107 138.08,-106.51 135.11,-105.96 132.12,-105.36"/>
<polygon fill="#63b8ff" stroke="#63b8ff" points="596.16,-146.39 606.59,-144.49 597.25,-139.48 596.16,-146.39"/>
</a>
</g>
</g>
<!-- Node9 -->
<g id="Node000009" class="node">
<title>Node9</title>
<g id="a_Node000009"><a xlink:href="../../d6/d0d/dns__client__control_8hpp.html" target="_top" xlink:title="Handlers that controls the DNS client.">
<polygon fill="white" stroke="#666666" points="1678,-101.5 1546,-101.5 1546,-71.5 1678,-71.5 1678,-101.5"/>
<text text-anchor="start" x="1554" y="-89.5" font-family="Helvetica,sans-Serif" font-size="10.00">userver/server/handlers</text>
<text text-anchor="middle" x="1612" y="-78.5" font-family="Helvetica,sans-Serif" font-size="10.00">/dns_client_control.hpp</text>
</a>
</g>
</g>
<!-- Node8&#45;&gt;Node9 -->
<g id="edge8_Node000008_Node000009" class="edge">
<title>Node8&#45;&gt;Node9</title>
<g id="a_edge8_Node000008_Node000009"><a xlink:title=" ">
<path fill="none" stroke="#63b8ff" d="M993.41,-159.72C1110.96,-154.53 1342.94,-140.68 1537,-107 1545.35,-105.55 1554.13,-103.63 1562.63,-101.57"/>
<polygon fill="#63b8ff" stroke="#63b8ff" points="992.92,-156.24 983.08,-160.17 993.22,-163.23 992.92,-156.24"/>
</a>
</g>
</g>
<!-- Node10 -->
<g id="Node000010" class="node">
<title>Node10</title>
<g id="a_Node000010"><a xlink:href="../../d6/dc0/dynamic__debug__log_8hpp.html" target="_top" xlink:title="HTTP Handler to show/hide logs at the specific file:line.">
<polygon fill="white" stroke="#666666" points="1834,-101.5 1696,-101.5 1696,-71.5 1834,-71.5 1834,-101.5"/>
<text text-anchor="start" x="1704" y="-89.5" font-family="Helvetica,sans-Serif" font-size="10.00">userver/server/handlers</text>
<text text-anchor="middle" x="1765" y="-78.5" font-family="Helvetica,sans-Serif" font-size="10.00">/dynamic_debug_log.hpp</text>
</a>
</g>
</g>
<!-- Node8&#45;&gt;Node10 -->
<g id="edge9_Node000008_Node000010" class="edge">
<title>Node8&#45;&gt;Node10</title>
<g id="a_edge9_Node000008_Node000010"><a xlink:title=" ">
<path fill="none" stroke="#63b8ff" d="M993.22,-161.37C1132.04,-158.33 1435.06,-147.26 1687,-107 1695.82,-105.59 1705.11,-103.67 1714.07,-101.57"/>
<polygon fill="#63b8ff" stroke="#63b8ff" points="993.03,-157.87 983.11,-161.58 993.18,-164.87 993.03,-157.87"/>
</a>
</g>
</g>
<!-- Node11 -->
<g id="Node000011" class="node">
<title>Node11</title>
<g id="a_Node000011"><a xlink:href="../../d5/d4d/http__handler__flatbuf__base_8hpp.html" target="_top" xlink:title="Convenient base for handlers that accept requests with body in Flatbuffer format and respond with bod...">
<polygon fill="white" stroke="#666666" points="1984,-107 1852,-107 1852,-66 1984,-66 1984,-107"/>
<text text-anchor="start" x="1860" y="-95" font-family="Helvetica,sans-Serif" font-size="10.00">userver/server/handlers</text>
<text text-anchor="start" x="1860" y="-84" font-family="Helvetica,sans-Serif" font-size="10.00">/http_handler_flatbuf</text>
<text text-anchor="middle" x="1918" y="-73" font-family="Helvetica,sans-Serif" font-size="10.00">_base.hpp</text>
</a>
</g>
</g>
<!-- Node8&#45;&gt;Node11 -->
<g id="edge10_Node000008_Node000011" class="edge">
<title>Node8&#45;&gt;Node11</title>
<g id="a_edge10_Node000008_Node000011"><a xlink:title=" ">
<path fill="none" stroke="#63b8ff" d="M993.31,-162.92C1152.37,-162.71 1530.53,-156.5 1843,-107 1845.92,-106.54 1848.9,-106.01 1851.89,-105.43"/>
<polygon fill="#63b8ff" stroke="#63b8ff" points="993.15,-159.42 983.16,-162.93 993.16,-166.42 993.15,-159.42"/>
</a>
</g>
</g>
<!-- Node12 -->
<g id="Node000012" class="node">
<title>Node12</title>
<g id="a_Node000012"><a xlink:href="../../d1/d58/http__handler__json__base_8hpp.html" target="_top" xlink:title="Convenient base for handlers that accept requests with body in JSON format and respond with body in J...">
<polygon fill="white" stroke="#666666" points="306,-101.5 150,-101.5 150,-71.5 306,-71.5 306,-101.5"/>
<text text-anchor="start" x="158" y="-89.5" font-family="Helvetica,sans-Serif" font-size="10.00">userver/server/handlers</text>
<text text-anchor="middle" x="228" y="-78.5" font-family="Helvetica,sans-Serif" font-size="10.00">/http_handler_json_base.hpp</text>
</a>
</g>
</g>
<!-- Node8&#45;&gt;Node12 -->
<g id="edge11_Node000008_Node000012" class="edge">
<title>Node8&#45;&gt;Node12</title>
<g id="a_edge11_Node000008_Node000012"><a xlink:title=" ">
<path fill="none" stroke="#63b8ff" d="M840.69,-152.5C814.5,-149.24 784.99,-145.75 758,-143 561.48,-122.97 510.3,-136.67 315,-107 305.36,-105.54 295.19,-103.61 285.35,-101.54"/>
<polygon fill="#63b8ff" stroke="#63b8ff" points="840.57,-156.01 850.93,-153.78 841.44,-149.06 840.57,-156.01"/>
</a>
</g>
</g>
<!-- Node15 -->
<g id="Node000015" class="node">
<title>Node15</title>
<g id="a_Node000015"><a xlink:href="../../dd/db6/http__handler__static_8hpp.html" target="_top" xlink:title="Handler that returns HTTP 200 if file exist and returns file data with mapped content/type.">
<polygon fill="white" stroke="#666666" points="458,-101.5 324,-101.5 324,-71.5 458,-71.5 458,-101.5"/>
<text text-anchor="start" x="332" y="-89.5" font-family="Helvetica,sans-Serif" font-size="10.00">userver/server/handlers</text>
<text text-anchor="middle" x="391" y="-78.5" font-family="Helvetica,sans-Serif" font-size="10.00">/http_handler_static.hpp</text>
</a>
</g>
</g>
<!-- Node8&#45;&gt;Node15 -->
<g id="edge14_Node000008_Node000015" class="edge">
<title>Node8&#45;&gt;Node15</title>
<g id="a_edge14_Node000008_Node000015"><a xlink:title=" ">
<path fill="none" stroke="#63b8ff" d="M840.41,-153.08C712.55,-137.36 469.28,-107.43 467,-107 458.84,-105.46 450.25,-103.54 441.9,-101.52"/>
<polygon fill="#63b8ff" stroke="#63b8ff" points="840.18,-156.58 850.53,-154.33 841.03,-149.64 840.18,-156.58"/>
</a>
</g>
</g>
<!-- Node16 -->
<g id="Node000016" class="node">
<title>Node16</title>
<g id="a_Node000016"><a xlink:href="../../d5/d86/jemalloc_8hpp.html" target="_top" xlink:title="Handler that controls the jemalloc allocator.">
<polygon fill="white" stroke="#666666" points="608,-101.5 476,-101.5 476,-71.5 608,-71.5 608,-101.5"/>
<text text-anchor="start" x="484" y="-89.5" font-family="Helvetica,sans-Serif" font-size="10.00">userver/server/handlers</text>
<text text-anchor="middle" x="542" y="-78.5" font-family="Helvetica,sans-Serif" font-size="10.00">/jemalloc.hpp</text>
</a>
</g>
</g>
<!-- Node8&#45;&gt;Node16 -->
<g id="edge15_Node000008_Node000016" class="edge">
<title>Node8&#45;&gt;Node16</title>
<g id="a_edge15_Node000008_Node000016"><a xlink:title=" ">
<path fill="none" stroke="#63b8ff" d="M840.98,-149.98C780.15,-139.59 692.8,-123.84 617,-107 609.51,-105.34 601.64,-103.45 593.93,-101.51"/>
<polygon fill="#63b8ff" stroke="#63b8ff" points="840.44,-153.44 850.89,-151.67 841.61,-146.54 840.44,-153.44"/>
</a>
</g>
</g>
<!-- Node17 -->
<g id="Node000017" class="node">
<title>Node17</title>
<g id="a_Node000017"><a xlink:href="../../d0/d01/log__level_8hpp.html" target="_top" xlink:title="Handler that controls logging levels of all the loggers.">
<polygon fill="white" stroke="#666666" points="758,-101.5 626,-101.5 626,-71.5 758,-71.5 758,-101.5"/>
<text text-anchor="start" x="634" y="-89.5" font-family="Helvetica,sans-Serif" font-size="10.00">userver/server/handlers</text>
<text text-anchor="middle" x="692" y="-78.5" font-family="Helvetica,sans-Serif" font-size="10.00">/log_level.hpp</text>
</a>
</g>
</g>
<!-- Node8&#45;&gt;Node17 -->
<g id="edge16_Node000008_Node000017" class="edge">
<title>Node8&#45;&gt;Node17</title>
<g id="a_edge16_Node000008_Node000017"><a xlink:title=" ">
<path fill="none" stroke="#63b8ff" d="M865.43,-145.31C825.68,-132.06 771.42,-113.97 734.23,-101.58"/>
<polygon fill="#63b8ff" stroke="#63b8ff" points="864.35,-148.64 874.94,-148.48 866.56,-142 864.35,-148.64"/>
</a>
</g>
</g>
<!-- Node18 -->
<g id="Node000018" class="node">
<title>Node18</title>
<g id="a_Node000018"><a xlink:href="../../d7/d72/on__log__rotate_8hpp.html" target="_top" xlink:title="Handler that controls logging levels of all the loggers.">
<polygon fill="white" stroke="#666666" points="908,-101.5 776,-101.5 776,-71.5 908,-71.5 908,-101.5"/>
<text text-anchor="start" x="784" y="-89.5" font-family="Helvetica,sans-Serif" font-size="10.00">userver/server/handlers</text>
<text text-anchor="middle" x="842" y="-78.5" font-family="Helvetica,sans-Serif" font-size="10.00">/on_log_rotate.hpp</text>
</a>
</g>
</g>
<!-- Node8&#45;&gt;Node18 -->
<g id="edge17_Node000008_Node000018" class="edge">
<title>Node8&#45;&gt;Node18</title>
<g id="a_edge17_Node000008_Node000018"><a xlink:title=" ">
<path fill="none" stroke="#63b8ff" d="M895.82,-141.32C883.08,-128.58 867.24,-112.74 856.04,-101.54"/>
<polygon fill="#63b8ff" stroke="#63b8ff" points="893.35,-143.8 902.89,-148.39 898.3,-138.85 893.35,-143.8"/>
</a>
</g>
</g>
<!-- Node19 -->
<g id="Node000019" class="node">
<title>Node19</title>
<g id="a_Node000019"><a xlink:href="../../d8/d39/ping_8hpp.html" target="_top" xlink:title="Handler that returns HTTP 200 if the service is OK and able to process requests.">
<polygon fill="white" stroke="#666666" points="1058,-101.5 926,-101.5 926,-71.5 1058,-71.5 1058,-101.5"/>
<text text-anchor="start" x="934" y="-89.5" font-family="Helvetica,sans-Serif" font-size="10.00">userver/server/handlers</text>
<text text-anchor="middle" x="992" y="-78.5" font-family="Helvetica,sans-Serif" font-size="10.00">/ping.hpp</text>
</a>
</g>
</g>
<!-- Node8&#45;&gt;Node19 -->
<g id="edge18_Node000008_Node000019" class="edge">
<title>Node8&#45;&gt;Node19</title>
<g id="a_edge18_Node000008_Node000019"><a xlink:title=" ">
<path fill="none" stroke="#63b8ff" d="M938.18,-141.32C950.92,-128.58 966.76,-112.74 977.96,-101.54"/>
<polygon fill="#63b8ff" stroke="#63b8ff" points="935.7,-138.85 931.11,-148.39 940.65,-143.8 935.7,-138.85"/>
</a>
</g>
</g>
<!-- Node20 -->
<g id="Node000020" class="node">
<title>Node20</title>
<g id="a_Node000020"><a xlink:href="../../de/d18/server__monitor_8hpp.html" target="_top" xlink:title="Handler that returns statistics data.">
<polygon fill="white" stroke="#666666" points="1208,-101.5 1076,-101.5 1076,-71.5 1208,-71.5 1208,-101.5"/>
<text text-anchor="start" x="1084" y="-89.5" font-family="Helvetica,sans-Serif" font-size="10.00">userver/server/handlers</text>
<text text-anchor="middle" x="1142" y="-78.5" font-family="Helvetica,sans-Serif" font-size="10.00">/server_monitor.hpp</text>
</a>
</g>
</g>
<!-- Node8&#45;&gt;Node20 -->
<g id="edge19_Node000008_Node000020" class="edge">
<title>Node8&#45;&gt;Node20</title>
<g id="a_edge19_Node000008_Node000020"><a xlink:title=" ">
<path fill="none" stroke="#63b8ff" d="M968.57,-145.31C1008.32,-132.06 1062.58,-113.97 1099.77,-101.58"/>
<polygon fill="#63b8ff" stroke="#63b8ff" points="967.44,-142 959.06,-148.48 969.65,-148.64 967.44,-142"/>
</a>
</g>
</g>
<!-- Node21 -->
<g id="Node000021" class="node">
<title>Node21</title>
<g id="a_Node000021"><a xlink:href="../../d8/d82/core_2include_2userver_2server_2server_8hpp_source.html" target="_top" xlink:title=" ">
<polygon fill="white" stroke="#666666" points="1367.5,-96 1226.5,-96 1226.5,-77 1367.5,-77 1367.5,-96"/>
<text text-anchor="middle" x="1297" y="-84" font-family="Helvetica,sans-Serif" font-size="10.00">userver/server/server.hpp</text>
</a>
</g>
</g>
<!-- Node8&#45;&gt;Node21 -->
<g id="edge20_Node000008_Node000021" class="edge">
<title>Node8&#45;&gt;Node21</title>
<g id="a_edge20_Node000008_Node000021"><a xlink:title=" ">
<path fill="none" stroke="#63b8ff" d="M992.95,-149.66C1053.74,-139.1 1141.08,-123.26 1217,-107 1232.38,-103.71 1249.31,-99.64 1263.62,-96.08"/>
<polygon fill="#63b8ff" stroke="#63b8ff" points="992.31,-146.22 983.05,-151.38 993.5,-153.12 992.31,-146.22"/>
</a>
</g>
</g>
<!-- Node23 -->
<g id="Node000023" class="node">
<title>Node23</title>
<g id="a_Node000023"><a xlink:href="../../d4/d64/websocket__handler_8hpp.html" target="_top" xlink:title=" ">
<polygon fill="white" stroke="#666666" points="1528,-101.5 1386,-101.5 1386,-71.5 1528,-71.5 1528,-101.5"/>
<text text-anchor="start" x="1394" y="-89.5" font-family="Helvetica,sans-Serif" font-size="10.00">userver/server/websocket</text>
<text text-anchor="middle" x="1457" y="-78.5" font-family="Helvetica,sans-Serif" font-size="10.00">/websocket_handler.hpp</text>
</a>
</g>
</g>
<!-- Node8&#45;&gt;Node23 -->
<g id="edge22_Node000008_Node000023" class="edge">
<title>Node8&#45;&gt;Node23</title>
<g id="a_edge22_Node000008_Node000023"><a xlink:title=" ">
<path fill="none" stroke="#63b8ff" d="M993.28,-156.1C1084.87,-147.77 1242.93,-131.34 1377,-107 1385.44,-105.47 1394.32,-103.58 1402.96,-101.59"/>
<polygon fill="#63b8ff" stroke="#63b8ff" points="992.91,-152.62 983.26,-157 993.54,-159.59 992.91,-152.62"/>
</a>
</g>
</g>
<!-- Node13 -->
<g id="Node000013" class="node">
<title>Node13</title>
<g id="a_Node000013"><a xlink:href="../../d7/d79/inspect__requests_8hpp.html" target="_top" xlink:title="Handler that returns information about all in&#45;flight requests.">
<polygon fill="white" stroke="#666666" points="369,-30 237,-30 237,0 369,0 369,-30"/>
<text text-anchor="start" x="245" y="-18" font-family="Helvetica,sans-Serif" font-size="10.00">userver/server/handlers</text>
<text text-anchor="middle" x="303" y="-7" font-family="Helvetica,sans-Serif" font-size="10.00">/inspect_requests.hpp</text>
</a>
</g>
</g>
<!-- Node12&#45;&gt;Node13 -->
<g id="edge12_Node000012_Node000013" class="edge">
<title>Node12&#45;&gt;Node13</title>
<g id="a_edge12_Node000012_Node000013"><a xlink:title=" ">
<path fill="none" stroke="#63b8ff" d="M250.67,-64.49C262.71,-53.34 277.18,-39.93 287.85,-30.04"/>
<polygon fill="#63b8ff" stroke="#63b8ff" points="248.13,-62.07 243.18,-71.44 252.89,-67.21 248.13,-62.07"/>
</a>
</g>
</g>
<!-- Node14 -->
<g id="Node000014" class="node">
<title>Node14</title>
<g id="a_Node000014"><a xlink:href="../../d6/d43/tests__control_8hpp.html" target="_top" xlink:title="Handler that allows to control the behavior of server from tests, and functional tests with testsuite...">
<polygon fill="white" stroke="#666666" points="219,-30 87,-30 87,0 219,0 219,-30"/>
<text text-anchor="start" x="95" y="-18" font-family="Helvetica,sans-Serif" font-size="10.00">userver/server/handlers</text>
<text text-anchor="middle" x="153" y="-7" font-family="Helvetica,sans-Serif" font-size="10.00">/tests_control.hpp</text>
</a>
</g>
</g>
<!-- Node12&#45;&gt;Node14 -->
<g id="edge13_Node000012_Node000014" class="edge">
<title>Node12&#45;&gt;Node14</title>
<g id="a_edge13_Node000012_Node000014"><a xlink:title=" ">
<path fill="none" stroke="#63b8ff" d="M205.33,-64.49C193.29,-53.34 178.82,-39.93 168.15,-30.04"/>
<polygon fill="#63b8ff" stroke="#63b8ff" points="203.11,-67.21 212.82,-71.44 207.87,-62.07 203.11,-67.21"/>
</a>
</g>
</g>
<!-- Node22 -->
<g id="Node000022" class="node">
<title>Node22</title>
<g id="a_Node000022"><a xlink:href="../../d3/ddd/core_2include_2userver_2server_2component_8hpp.html" target="_top" xlink:title="Component that listens for incoming requests, manages incoming connections and passes the requests to...">
<polygon fill="white" stroke="#666666" points="1380,-24.5 1214,-24.5 1214,-5.5 1380,-5.5 1380,-24.5"/>
<text text-anchor="middle" x="1297" y="-12.5" font-family="Helvetica,sans-Serif" font-size="10.00">userver/server/component.hpp</text>
</a>
</g>
</g>
<!-- Node21&#45;&gt;Node22 -->
<g id="edge21_Node000021_Node000022" class="edge">
<title>Node21&#45;&gt;Node22</title>
<g id="a_edge21_Node000021_Node000022"><a xlink:title=" ">
<path fill="none" stroke="#63b8ff" d="M1297,-66.71C1297,-53 1297,-35.05 1297,-24.59"/>
<polygon fill="#63b8ff" stroke="#63b8ff" points="1293.5,-66.98 1297,-76.98 1300.5,-66.98 1293.5,-66.98"/>
</a>
</g>
</g>
<!-- Node24&#45;&gt;Node8 -->
<g id="edge27_Node000024_Node000008" class="edge">
<title>Node24&#45;&gt;Node8</title>
<g id="a_edge27_Node000024_Node000008"><a xlink:title=" ">
<path fill="none" stroke="#63b8ff" d="M892.21,-211.06C897.93,-200.32 904.56,-187.86 909.52,-178.54"/>
<polygon fill="#63b8ff" stroke="#63b8ff" points="889.1,-209.46 887.49,-219.94 895.28,-212.75 889.1,-209.46"/>
</a>
</g>
</g>
</g>
</svg>
