<?xml version="1.0" encoding="UTF-8" standalone="no"?>
<!DOCTYPE svg PUBLIC "-//W3C//DTD SVG 1.1//EN"
 "http://www.w3.org/Graphics/SVG/1.1/DTD/svg11.dtd">
<!-- Generated by graphviz version 2.43.0 (0)
 -->
<!-- Title: server::handlers::HttpHandlerBase Pages: 1 -->
<svg width="1302pt" height="475pt"
 viewBox="0.00 0.00 1302.00 475.00" xmlns="http://www.w3.org/2000/svg" xmlns:xlink="http://www.w3.org/1999/xlink">
<g id="graph0" class="graph" transform="scale(1 1) rotate(0) translate(4 471)">
<title>server::handlers::HttpHandlerBase</title>
<!-- Node1 -->
<g id="Node000001" class="node">
<title>Node1</title>
<g id="a_Node000001"><a xlink:title="Base class for all the Userver HTTP Handlers.">
<polygon fill="#999999" stroke="#666666" points="855,-226.5 670,-226.5 670,-207.5 855,-207.5 855,-226.5"/>
<text text-anchor="middle" x="762.5" y="-214.5" font-family="Helvetica,sans-Serif" font-size="10.00">server::handlers::HttpHandlerBase</text>
</a>
</g>
</g>
<!-- Node5 -->
<g id="Node000005" class="node">
<title>Node5</title>
<g id="a_Node000005"><a xlink:href="../../d1/d48/classserver_1_1handlers_1_1DnsClientControl.html" target="_top" xlink:title="Handlers that controls the DNS client.">
<polygon fill="white" stroke="#666666" points="1068.5,-467 919.5,-467 919.5,-437 1068.5,-437 1068.5,-467"/>
<text text-anchor="start" x="927.5" y="-455" font-family="Helvetica,sans-Serif" font-size="10.00">server::handlers::DnsClient</text>
<text text-anchor="middle" x="994" y="-444" font-family="Helvetica,sans-Serif" font-size="10.00">Control</text>
</a>
</g>
</g>
<!-- Node1&#45;&gt;Node5 -->
<g id="edge4_Node000001_Node000005" class="edge">
<title>Node1&#45;&gt;Node5</title>
<g id="a_edge4_Node000001_Node000005"><a xlink:title=" ">
<path fill="none" stroke="#63b8ff" d="M769.47,-236.46C783.41,-278.48 822.24,-377.95 891,-428 899.46,-434.16 909.26,-438.76 919.38,-442.19"/>
<polygon fill="#63b8ff" stroke="#63b8ff" points="772.78,-235.31 766.39,-226.86 766.11,-237.45 772.78,-235.31"/>
</a>
</g>
</g>
<!-- Node6 -->
<g id="Node000006" class="node">
<title>Node6</title>
<g id="a_Node000006"><a xlink:href="../../dd/dea/classserver_1_1handlers_1_1DynamicDebugLog.html" target="_top" xlink:title="Handler for forcing specific lines logging. Feature also known as dynamic debug logging.">
<polygon fill="white" stroke="#666666" points="1066.5,-419 921.5,-419 921.5,-389 1066.5,-389 1066.5,-419"/>
<text text-anchor="start" x="929.5" y="-407" font-family="Helvetica,sans-Serif" font-size="10.00">server::handlers::Dynamic</text>
<text text-anchor="middle" x="994" y="-396" font-family="Helvetica,sans-Serif" font-size="10.00">DebugLog</text>
</a>
</g>
</g>
<!-- Node1&#45;&gt;Node6 -->
<g id="edge5_Node000001_Node000006" class="edge">
<title>Node1&#45;&gt;Node6</title>
<g id="a_edge5_Node000001_Node000006"><a xlink:title=" ">
<path fill="none" stroke="#63b8ff" d="M772.74,-235.92C790.57,-270.32 833.13,-342.98 891,-380 900.2,-385.88 910.68,-390.32 921.35,-393.68"/>
<polygon fill="#63b8ff" stroke="#63b8ff" points="775.65,-233.9 768.01,-226.55 769.4,-237.06 775.65,-233.9"/>
</a>
</g>
</g>
<!-- Node7 -->
<g id="Node000007" class="node">
<title>Node7</title>
<g id="a_Node000007"><a xlink:href="../../d8/dfe/classserver_1_1handlers_1_1HttpHandlerFlatbufBase.html" target="_top" xlink:title="Convenient base for handlers that accept requests with body in Flatbuffer format and respond with bod...">
<polygon fill="white" stroke="#666666" points="1097,-371 891,-371 891,-341 1097,-341 1097,-371"/>
<text text-anchor="start" x="899" y="-359" font-family="Helvetica,sans-Serif" font-size="10.00">server::handlers::HttpHandler</text>
<text text-anchor="middle" x="994" y="-348" font-family="Helvetica,sans-Serif" font-size="10.00">FlatbufBase&lt; InputType, ReturnType &gt;</text>
</a>
</g>
</g>
<!-- Node1&#45;&gt;Node7 -->
<g id="edge6_Node000001_Node000007" class="edge">
<title>Node1&#45;&gt;Node7</title>
<g id="a_edge6_Node000001_Node000007"><a xlink:title=" ">
<path fill="none" stroke="#63b8ff" d="M777.76,-234.56C799.46,-260.06 843.31,-307.02 891,-332 897.61,-335.46 904.71,-338.43 911.99,-340.97"/>
<polygon fill="#63b8ff" stroke="#63b8ff" points="780.37,-232.23 771.28,-226.79 775,-236.71 780.37,-232.23"/>
</a>
</g>
</g>
<!-- Node8 -->
<g id="Node000008" class="node">
<title>Node8</title>
<g id="a_Node000008"><a xlink:href="../../da/dbe/classserver_1_1handlers_1_1HttpHandlerJsonBase.html" target="_top" xlink:title="Convenient base for handlers that accept requests with body in JSON format and respond with body in J...">
<polygon fill="white" stroke="#666666" points="1074.5,-323 913.5,-323 913.5,-293 1074.5,-293 1074.5,-323"/>
<text text-anchor="start" x="921.5" y="-311" font-family="Helvetica,sans-Serif" font-size="10.00">server::handlers::HttpHandler</text>
<text text-anchor="middle" x="994" y="-300" font-family="Helvetica,sans-Serif" font-size="10.00">JsonBase</text>
</a>
</g>
</g>
<!-- Node1&#45;&gt;Node8 -->
<g id="edge7_Node000001_Node000008" class="edge">
<title>Node1&#45;&gt;Node8</title>
<g id="a_edge7_Node000001_Node000008"><a xlink:title=" ">
<path fill="none" stroke="#63b8ff" d="M787.38,-231.91C812.39,-246.94 853.2,-269.88 891,-284 899.95,-287.34 909.51,-290.32 919.07,-292.95"/>
<polygon fill="#63b8ff" stroke="#63b8ff" points="788.98,-228.78 778.61,-226.57 785.34,-234.76 788.98,-228.78"/>
</a>
</g>
</g>
<!-- Node11 -->
<g id="Node000011" class="node">
<title>Node11</title>
<g id="a_Node000011"><a xlink:href="../../dd/d88/classserver_1_1handlers_1_1HttpHandlerStatic.html" target="_top" xlink:title="Handler that returns HTTP 200 if file exist and returns file data with mapped content/type.">
<polygon fill="white" stroke="#666666" points="1074.5,-275 913.5,-275 913.5,-245 1074.5,-245 1074.5,-275"/>
<text text-anchor="start" x="921.5" y="-263" font-family="Helvetica,sans-Serif" font-size="10.00">server::handlers::HttpHandler</text>
<text text-anchor="middle" x="994" y="-252" font-family="Helvetica,sans-Serif" font-size="10.00">Static</text>
</a>
</g>
</g>
<!-- Node1&#45;&gt;Node11 -->
<g id="edge10_Node000001_Node000011" class="edge">
<title>Node1&#45;&gt;Node11</title>
<g id="a_edge10_Node000001_Node000011"><a xlink:title=" ">
<path fill="none" stroke="#63b8ff" d="M824.6,-228.45C851.83,-233.55 884.26,-239.63 913.36,-245.08"/>
<polygon fill="#63b8ff" stroke="#63b8ff" points="824.91,-224.94 814.43,-226.54 823.62,-231.82 824.91,-224.94"/>
</a>
</g>
</g>
<!-- Node12 -->
<g id="Node000012" class="node">
<title>Node12</title>
<g id="a_Node000012"><a xlink:href="../../d2/d34/classserver_1_1handlers_1_1Jemalloc.html" target="_top" xlink:title="Handler that controls the jemalloc allocator.">
<polygon fill="white" stroke="#666666" points="1065.5,-226.5 922.5,-226.5 922.5,-207.5 1065.5,-207.5 1065.5,-226.5"/>
<text text-anchor="middle" x="994" y="-214.5" font-family="Helvetica,sans-Serif" font-size="10.00">server::handlers::Jemalloc</text>
</a>
</g>
</g>
<!-- Node1&#45;&gt;Node12 -->
<g id="edge11_Node000001_Node000012" class="edge">
<title>Node1&#45;&gt;Node12</title>
<g id="a_edge11_Node000001_Node000012"><a xlink:title=" ">
<path fill="none" stroke="#63b8ff" d="M865.21,-217C884.49,-217 904.26,-217 922.31,-217"/>
<polygon fill="#63b8ff" stroke="#63b8ff" points="865.19,-213.5 855.19,-217 865.19,-220.5 865.19,-213.5"/>
</a>
</g>
</g>
<!-- Node13 -->
<g id="Node000013" class="node">
<title>Node13</title>
<g id="a_Node000013"><a xlink:href="../../da/da0/classserver_1_1handlers_1_1LogLevel.html" target="_top" xlink:title="Handler that controls logging levels of all the loggers.">
<polygon fill="white" stroke="#666666" points="1066.5,-189.5 921.5,-189.5 921.5,-170.5 1066.5,-170.5 1066.5,-189.5"/>
<text text-anchor="middle" x="994" y="-177.5" font-family="Helvetica,sans-Serif" font-size="10.00">server::handlers::LogLevel</text>
</a>
</g>
</g>
<!-- Node1&#45;&gt;Node13 -->
<g id="edge12_Node000001_Node000013" class="edge">
<title>Node1&#45;&gt;Node13</title>
<g id="a_edge12_Node000001_Node000013"><a xlink:title=" ">
<path fill="none" stroke="#63b8ff" d="M832.83,-205.82C865.01,-200.63 902.87,-194.53 933.7,-189.56"/>
<polygon fill="#63b8ff" stroke="#63b8ff" points="831.92,-202.42 822.6,-207.47 833.03,-209.34 831.92,-202.42"/>
</a>
</g>
</g>
<!-- Node14 -->
<g id="Node000014" class="node">
<title>Node14</title>
<g id="a_Node000014"><a xlink:href="../../dc/dde/classserver_1_1handlers_1_1OnLogRotate.html" target="_top" xlink:title="Handler that controls logging levels of all the loggers.">
<polygon fill="white" stroke="#666666" points="1076,-152.5 912,-152.5 912,-133.5 1076,-133.5 1076,-152.5"/>
<text text-anchor="middle" x="994" y="-140.5" font-family="Helvetica,sans-Serif" font-size="10.00">server::handlers::OnLogRotate</text>
</a>
</g>
</g>
<!-- Node1&#45;&gt;Node14 -->
<g id="edge13_Node000001_Node000014" class="edge">
<title>Node1&#45;&gt;Node14</title>
<g id="a_edge13_Node000001_Node000014"><a xlink:title=" ">
<path fill="none" stroke="#63b8ff" d="M790.55,-202.85C815.87,-190.15 855.1,-171.88 891,-161 902.1,-157.64 914.08,-154.82 925.8,-152.5"/>
<polygon fill="#63b8ff" stroke="#63b8ff" points="788.88,-199.76 781.55,-207.41 792.06,-206 788.88,-199.76"/>
</a>
</g>
</g>
<!-- Node15 -->
<g id="Node000015" class="node">
<title>Node15</title>
<g id="a_Node000015"><a xlink:href="../../d7/d6d/classserver_1_1handlers_1_1Ping.html" target="_top" xlink:title="Handler that returns HTTP 200 if the service is OK and able to process requests.">
<polygon fill="white" stroke="#666666" points="1055,-115.5 933,-115.5 933,-96.5 1055,-96.5 1055,-115.5"/>
<text text-anchor="middle" x="994" y="-103.5" font-family="Helvetica,sans-Serif" font-size="10.00">server::handlers::Ping</text>
</a>
</g>
</g>
<!-- Node1&#45;&gt;Node15 -->
<g id="edge14_Node000001_Node000015" class="edge">
<title>Node1&#45;&gt;Node15</title>
<g id="a_edge14_Node000001_Node000015"><a xlink:title=" ">
<path fill="none" stroke="#63b8ff" d="M780.69,-200.39C803.78,-179.11 847.03,-142.72 891,-124 904.07,-118.44 918.79,-114.59 932.89,-111.94"/>
<polygon fill="#63b8ff" stroke="#63b8ff" points="778.29,-197.84 773.39,-207.24 783.08,-202.95 778.29,-197.84"/>
</a>
</g>
</g>
<!-- Node16 -->
<g id="Node000016" class="node">
<title>Node16</title>
<g id="a_Node000016"><a xlink:href="../../dc/d10/classserver_1_1handlers_1_1ServerMonitor.html" target="_top" xlink:title="Handler that returns statistics data.">
<polygon fill="white" stroke="#666666" points="1060.5,-78 927.5,-78 927.5,-48 1060.5,-48 1060.5,-78"/>
<text text-anchor="start" x="935.5" y="-66" font-family="Helvetica,sans-Serif" font-size="10.00">server::handlers::Server</text>
<text text-anchor="middle" x="994" y="-55" font-family="Helvetica,sans-Serif" font-size="10.00">Monitor</text>
</a>
</g>
</g>
<!-- Node1&#45;&gt;Node16 -->
<g id="edge15_Node000001_Node000016" class="edge">
<title>Node1&#45;&gt;Node16</title>
<g id="a_edge15_Node000001_Node000016"><a xlink:title=" ">
<path fill="none" stroke="#63b8ff" d="M775.73,-199.16C796.16,-170.8 840.05,-115.71 891,-87 902.09,-80.75 914.75,-76.12 927.28,-72.7"/>
<polygon fill="#63b8ff" stroke="#63b8ff" points="772.85,-197.18 769.94,-207.37 778.57,-201.21 772.85,-197.18"/>
</a>
</g>
</g>
<!-- Node17 -->
<g id="Node000017" class="node">
<title>Node17</title>
<g id="a_Node000017"><a xlink:href="../../d3/dc5/classserver_1_1websocket_1_1WebsocketHandlerBase.html" target="_top" xlink:title="Base class for WebSocket handler.">
<polygon fill="white" stroke="#666666" points="1059.5,-30 928.5,-30 928.5,0 1059.5,0 1059.5,-30"/>
<text text-anchor="start" x="936.5" y="-18" font-family="Helvetica,sans-Serif" font-size="10.00">server::websocket::</text>
<text text-anchor="middle" x="994" y="-7" font-family="Helvetica,sans-Serif" font-size="10.00">WebsocketHandlerBase</text>
</a>
</g>
</g>
<!-- Node1&#45;&gt;Node17 -->
<g id="edge16_Node000001_Node000017" class="edge">
<title>Node1&#45;&gt;Node17</title>
<g id="a_edge16_Node000001_Node000017"><a xlink:title=" ">
<path fill="none" stroke="#63b8ff" d="M771.57,-197.88C788.16,-160.99 829.77,-80.01 891,-39 902.11,-31.56 915.25,-26.41 928.33,-22.86"/>
<polygon fill="#63b8ff" stroke="#63b8ff" points="768.19,-196.87 767.39,-207.43 774.6,-199.67 768.19,-196.87"/>
</a>
</g>
</g>
<!-- Node2 -->
<g id="Node000002" class="node">
<title>Node2</title>
<g id="a_Node000002"><a xlink:href="../../d1/ddc/classserver_1_1handlers_1_1HandlerBase.html" target="_top" xlink:title="Base class for the request handlers.">
<polygon fill="white" stroke="#666666" points="634,-226.5 470,-226.5 470,-207.5 634,-207.5 634,-226.5"/>
<text text-anchor="middle" x="552" y="-214.5" font-family="Helvetica,sans-Serif" font-size="10.00">server::handlers::HandlerBase</text>
</a>
</g>
</g>
<!-- Node2&#45;&gt;Node1 -->
<g id="edge1_Node000001_Node000002" class="edge">
<title>Node2&#45;&gt;Node1</title>
<g id="a_edge1_Node000001_Node000002"><a xlink:title=" ">
<path fill="none" stroke="#63b8ff" d="M644.41,-217C652.83,-217 661.36,-217 669.79,-217"/>
<polygon fill="#63b8ff" stroke="#63b8ff" points="644.21,-213.5 634.21,-217 644.21,-220.5 644.21,-213.5"/>
</a>
</g>
</g>
<!-- Node3 -->
<g id="Node000003" class="node">
<title>Node3</title>
<g id="a_Node000003"><a xlink:href="../../d5/d69/classcomponents_1_1LoggableComponentBase.html" target="_top" xlink:title="Base class for all application components, it depends on components::Logger and components::Tracer.">
<polygon fill="white" stroke="#666666" points="434,-226.5 227,-226.5 227,-207.5 434,-207.5 434,-226.5"/>
<text text-anchor="middle" x="330.5" y="-214.5" font-family="Helvetica,sans-Serif" font-size="10.00">components::LoggableComponentBase</text>
</a>
</g>
</g>
<!-- Node3&#45;&gt;Node2 -->
<g id="edge2_Node000002_Node000003" class="edge">
<title>Node3&#45;&gt;Node2</title>
<g id="a_edge2_Node000002_Node000003"><a xlink:title=" ">
<path fill="none" stroke="#63b8ff" d="M444.27,-217C452.86,-217 461.43,-217 469.76,-217"/>
<polygon fill="#63b8ff" stroke="#63b8ff" points="444.18,-213.5 434.18,-217 444.18,-220.5 444.18,-213.5"/>
</a>
</g>
</g>
<!-- Node4 -->
<g id="Node000004" class="node">
<title>Node4</title>
<g id="a_Node000004"><a xlink:title=" ">
<polygon fill="white" stroke="#666666" points="191,-226.5 0,-226.5 0,-207.5 191,-207.5 191,-226.5"/>
<text text-anchor="middle" x="95.5" y="-214.5" font-family="Helvetica,sans-Serif" font-size="10.00">components::impl::ComponentBase</text>
</a>
</g>
</g>
<!-- Node4&#45;&gt;Node3 -->
<g id="edge3_Node000003_Node000004" class="edge">
<title>Node4&#45;&gt;Node3</title>
<g id="a_edge3_Node000003_Node000004"><a xlink:title=" ">
<path fill="none" stroke="#63b8ff" d="M201.5,-217C209.92,-217 218.43,-217 226.84,-217"/>
<polygon fill="#63b8ff" stroke="#63b8ff" points="201.27,-213.5 191.27,-217 201.27,-220.5 201.27,-213.5"/>
</a>
</g>
</g>
<!-- Node9 -->
<g id="Node000009" class="node">
<title>Node9</title>
<g id="a_Node000009"><a xlink:href="../../d8/d67/classserver_1_1handlers_1_1InspectRequests.html" target="_top" xlink:title="Handler that returns information about all in&#45;flight requests.">
<polygon fill="white" stroke="#666666" points="1282,-344 1145,-344 1145,-314 1282,-314 1282,-344"/>
<text text-anchor="start" x="1153" y="-332" font-family="Helvetica,sans-Serif" font-size="10.00">server::handlers::Inspect</text>
<text text-anchor="middle" x="1213.5" y="-321" font-family="Helvetica,sans-Serif" font-size="10.00">Requests</text>
</a>
</g>
</g>
<!-- Node8&#45;&gt;Node9 -->
<g id="edge8_Node000008_Node000009" class="edge">
<title>Node8&#45;&gt;Node9</title>
<g id="a_edge8_Node000008_Node000009"><a xlink:title=" ">
<path fill="none" stroke="#63b8ff" d="M1084.85,-316.67C1104.93,-318.61 1125.91,-320.64 1144.92,-322.47"/>
<polygon fill="#63b8ff" stroke="#63b8ff" points="1085.04,-313.18 1074.75,-315.7 1084.37,-320.15 1085.04,-313.18"/>
</a>
</g>
</g>
<!-- Node10 -->
<g id="Node000010" class="node">
<title>Node10</title>
<g id="a_Node000010"><a xlink:href="../../d5/ded/classserver_1_1handlers_1_1TestsControl.html" target="_top" xlink:title="Handler that allows to control the behavior of server from tests, and functional tests with testsuite...">
<polygon fill="white" stroke="#666666" points="1294,-295.5 1133,-295.5 1133,-276.5 1294,-276.5 1294,-295.5"/>
<text text-anchor="middle" x="1213.5" y="-283.5" font-family="Helvetica,sans-Serif" font-size="10.00">server::handlers::TestsControl</text>
</a>
</g>
</g>
<!-- Node8&#45;&gt;Node10 -->
<g id="edge9_Node000008_Node000010" class="edge">
<title>Node8&#45;&gt;Node10</title>
<g id="a_edge9_Node000008_Node000010"><a xlink:title=" ">
<path fill="none" stroke="#63b8ff" d="M1085.06,-298.89C1100.88,-297.29 1117.24,-295.64 1132.76,-294.07"/>
<polygon fill="#63b8ff" stroke="#63b8ff" points="1084.35,-295.44 1074.75,-299.93 1085.06,-302.41 1084.35,-295.44"/>
</a>
</g>
</g>
</g>
</svg>
