<?xml version="1.0" encoding="UTF-8" standalone="no"?>
<!DOCTYPE svg PUBLIC "-//W3C//DTD SVG 1.1//EN"
 "http://www.w3.org/Graphics/SVG/1.1/DTD/svg11.dtd">
<!-- Generated by graphviz version 2.43.0 (0)
 -->
<!-- Title: server::handlers::HttpHandlerJsonBase Pages: 1 -->
<svg width="324pt" height="324pt"
 viewBox="0.00 0.00 324.00 324.00" xmlns="http://www.w3.org/2000/svg" xmlns:xlink="http://www.w3.org/1999/xlink">
<g id="graph0" class="graph" transform="scale(1 1) rotate(0) translate(4 320)">
<title>server::handlers::HttpHandlerJsonBase</title>
<!-- Node1 -->
<g id="Node000001" class="node">
<title>Node1</title>
<g id="a_Node000001"><a xlink:title="Convenient base for handlers that accept requests with body in JSON format and respond with body in J...">
<polygon fill="#999999" stroke="#666666" points="232,-96 71,-96 71,-66 232,-66 232,-96"/>
<text text-anchor="start" x="79" y="-84" font-family="Helvetica,sans-Serif" font-size="10.00">server::handlers::HttpHandler</text>
<text text-anchor="middle" x="151.5" y="-73" font-family="Helvetica,sans-Serif" font-size="10.00">JsonBase</text>
</a>
</g>
</g>
<!-- Node6 -->
<g id="Node000006" class="node">
<title>Node6</title>
<g id="a_Node000006"><a xlink:href="../../d8/d67/classserver_1_1handlers_1_1InspectRequests.html" target="_top" xlink:title="Handler that returns information about all in&#45;flight requests.">
<polygon fill="white" stroke="#666666" points="137,-30 0,-30 0,0 137,0 137,-30"/>
<text text-anchor="start" x="8" y="-18" font-family="Helvetica,sans-Serif" font-size="10.00">server::handlers::Inspect</text>
<text text-anchor="middle" x="68.5" y="-7" font-family="Helvetica,sans-Serif" font-size="10.00">Requests</text>
</a>
</g>
</g>
<!-- Node1&#45;&gt;Node6 -->
<g id="edge5_Node000001_Node000006" class="edge">
<title>Node1&#45;&gt;Node6</title>
<g id="a_edge5_Node000001_Node000006"><a xlink:title=" ">
<path fill="none" stroke="#63b8ff" d="M124.89,-59.48C112.48,-49.91 98.03,-38.77 86.87,-30.16"/>
<polygon fill="#63b8ff" stroke="#63b8ff" points="123.02,-62.46 133.08,-65.8 127.3,-56.92 123.02,-62.46"/>
</a>
</g>
</g>
<!-- Node7 -->
<g id="Node000007" class="node">
<title>Node7</title>
<g id="a_Node000007"><a xlink:href="../../d5/ded/classserver_1_1handlers_1_1TestsControl.html" target="_top" xlink:title="Handler that allows to control the behavior of server from tests, and functional tests with testsuite...">
<polygon fill="white" stroke="#666666" points="316,-24.5 155,-24.5 155,-5.5 316,-5.5 316,-24.5"/>
<text text-anchor="middle" x="235.5" y="-12.5" font-family="Helvetica,sans-Serif" font-size="10.00">server::handlers::TestsControl</text>
</a>
</g>
</g>
<!-- Node1&#45;&gt;Node7 -->
<g id="edge6_Node000001_Node000007" class="edge">
<title>Node1&#45;&gt;Node7</title>
<g id="a_edge6_Node000001_Node000007"><a xlink:title=" ">
<path fill="none" stroke="#63b8ff" d="M178.29,-59.58C193.66,-47.87 212.17,-33.77 223.89,-24.84"/>
<polygon fill="#63b8ff" stroke="#63b8ff" points="175.98,-56.95 170.14,-65.8 180.22,-62.52 175.98,-56.95"/>
</a>
</g>
</g>
<!-- Node2 -->
<g id="Node000002" class="node">
<title>Node2</title>
<g id="a_Node000002"><a xlink:href="../../d6/d36/classserver_1_1handlers_1_1HttpHandlerBase.html" target="_top" xlink:title="Base class for all the Userver HTTP Handlers.">
<polygon fill="white" stroke="#666666" points="244,-151 59,-151 59,-132 244,-132 244,-151"/>
<text text-anchor="middle" x="151.5" y="-139" font-family="Helvetica,sans-Serif" font-size="10.00">server::handlers::HttpHandlerBase</text>
</a>
</g>
</g>
<!-- Node2&#45;&gt;Node1 -->
<g id="edge1_Node000001_Node000002" class="edge">
<title>Node2&#45;&gt;Node1</title>
<g id="a_edge1_Node000001_Node000002"><a xlink:title=" ">
<path fill="none" stroke="#63b8ff" d="M151.5,-121.65C151.5,-113.36 151.5,-103.78 151.5,-96.11"/>
<polygon fill="#63b8ff" stroke="#63b8ff" points="148,-121.87 151.5,-131.87 155,-121.87 148,-121.87"/>
</a>
</g>
</g>
<!-- Node3 -->
<g id="Node000003" class="node">
<title>Node3</title>
<g id="a_Node000003"><a xlink:href="../../d1/ddc/classserver_1_1handlers_1_1HandlerBase.html" target="_top" xlink:title="Base class for the request handlers.">
<polygon fill="white" stroke="#666666" points="233.5,-206 69.5,-206 69.5,-187 233.5,-187 233.5,-206"/>
<text text-anchor="middle" x="151.5" y="-194" font-family="Helvetica,sans-Serif" font-size="10.00">server::handlers::HandlerBase</text>
</a>
</g>
</g>
<!-- Node3&#45;&gt;Node2 -->
<g id="edge2_Node000002_Node000003" class="edge">
<title>Node3&#45;&gt;Node2</title>
<g id="a_edge2_Node000002_Node000003"><a xlink:title=" ">
<path fill="none" stroke="#63b8ff" d="M151.5,-176.66C151.5,-167.93 151.5,-157.99 151.5,-151.09"/>
<polygon fill="#63b8ff" stroke="#63b8ff" points="148,-176.75 151.5,-186.75 155,-176.75 148,-176.75"/>
</a>
</g>
</g>
<!-- Node4 -->
<g id="Node000004" class="node">
<title>Node4</title>
<g id="a_Node000004"><a xlink:href="../../d5/d69/classcomponents_1_1LoggableComponentBase.html" target="_top" xlink:title="Base class for all application components, it depends on components::Logger and components::Tracer.">
<polygon fill="white" stroke="#666666" points="255,-261 48,-261 48,-242 255,-242 255,-261"/>
<text text-anchor="middle" x="151.5" y="-249" font-family="Helvetica,sans-Serif" font-size="10.00">components::LoggableComponentBase</text>
</a>
</g>
</g>
<!-- Node4&#45;&gt;Node3 -->
<g id="edge3_Node000003_Node000004" class="edge">
<title>Node4&#45;&gt;Node3</title>
<g id="a_edge3_Node000003_Node000004"><a xlink:title=" ">
<path fill="none" stroke="#63b8ff" d="M151.5,-231.66C151.5,-222.93 151.5,-212.99 151.5,-206.09"/>
<polygon fill="#63b8ff" stroke="#63b8ff" points="148,-231.75 151.5,-241.75 155,-231.75 148,-231.75"/>
</a>
</g>
</g>
<!-- Node5 -->
<g id="Node000005" class="node">
<title>Node5</title>
<g id="a_Node000005"><a xlink:title=" ">
<polygon fill="white" stroke="#666666" points="247,-316 56,-316 56,-297 247,-297 247,-316"/>
<text text-anchor="middle" x="151.5" y="-304" font-family="Helvetica,sans-Serif" font-size="10.00">components::impl::ComponentBase</text>
</a>
</g>
</g>
<!-- Node5&#45;&gt;Node4 -->
<g id="edge4_Node000004_Node000005" class="edge">
<title>Node5&#45;&gt;Node4</title>
<g id="a_edge4_Node000004_Node000005"><a xlink:title=" ">
<path fill="none" stroke="#63b8ff" d="M151.5,-286.66C151.5,-277.93 151.5,-267.99 151.5,-261.09"/>
<polygon fill="#63b8ff" stroke="#63b8ff" points="148,-286.75 151.5,-296.75 155,-286.75 148,-286.75"/>
</a>
</g>
</g>
</g>
</svg>
