<?xml version="1.0" encoding="UTF-8" standalone="no"?>
<!DOCTYPE svg PUBLIC "-//W3C//DTD SVG 1.1//EN"
 "http://www.w3.org/Graphics/SVG/1.1/DTD/svg11.dtd">
<!-- Generated by graphviz version 2.43.0 (0)
 -->
<!-- Title: userver/crypto/private_key.hpp Pages: 1 -->
<svg width="729pt" height="346pt"
 viewBox="0.00 0.00 729.00 346.00" xmlns="http://www.w3.org/2000/svg" xmlns:xlink="http://www.w3.org/1999/xlink">
<g id="graph0" class="graph" transform="scale(1 1) rotate(0) translate(4 342)">
<title>userver/crypto/private_key.hpp</title>
<!-- Node1 -->
<g id="Node000001" class="node">
<title>Node1</title>
<g id="a_Node000001"><a xlink:title=" ">
<polygon fill="#999999" stroke="#666666" points="556.5,-338 431.5,-338 431.5,-308 556.5,-308 556.5,-338"/>
<text text-anchor="start" x="439.5" y="-326" font-family="Helvetica,sans-Serif" font-size="10.00">userver/crypto/private</text>
<text text-anchor="middle" x="494" y="-315" font-family="Helvetica,sans-Serif" font-size="10.00">_key.hpp</text>
</a>
</g>
</g>
<!-- Node2 -->
<g id="Node000002" class="node">
<title>Node2</title>
<g id="a_Node000002"><a xlink:title=" ">
<polygon fill="#e0e0e0" stroke="#999999" points="417,-145.5 359,-145.5 359,-126.5 417,-126.5 417,-145.5"/>
<text text-anchor="middle" x="388" y="-133.5" font-family="Helvetica,sans-Serif" font-size="10.00">memory</text>
</a>
</g>
</g>
<!-- Node1&#45;&gt;Node2 -->
<g id="edge1_Node000001_Node000002" class="edge">
<title>Node1&#45;&gt;Node2</title>
<g id="a_edge1_Node000001_Node000002"><a xlink:title=" ">
<path fill="none" stroke="#63b8ff" d="M467.92,-307.94C454.01,-299.24 437.61,-286.9 427,-272 401.49,-236.18 392.57,-183.88 389.52,-156.06"/>
<polygon fill="#63b8ff" stroke="#63b8ff" points="392.97,-155.38 388.55,-145.75 386.01,-156.04 392.97,-155.38"/>
</a>
</g>
</g>
<!-- Node3 -->
<g id="Node000003" class="node">
<title>Node3</title>
<g id="a_Node000003"><a xlink:title=" ">
<polygon fill="#e0e0e0" stroke="#999999" points="643.5,-266.5 570.5,-266.5 570.5,-247.5 643.5,-247.5 643.5,-266.5"/>
<text text-anchor="middle" x="607" y="-254.5" font-family="Helvetica,sans-Serif" font-size="10.00">string_view</text>
</a>
</g>
</g>
<!-- Node1&#45;&gt;Node3 -->
<g id="edge2_Node000001_Node000003" class="edge">
<title>Node1&#45;&gt;Node3</title>
<g id="a_edge2_Node000001_Node000003"><a xlink:title=" ">
<path fill="none" stroke="#63b8ff" d="M518.8,-307.95C537.92,-297.13 564.2,-282.24 583.09,-271.54"/>
<polygon fill="#63b8ff" stroke="#63b8ff" points="584.99,-274.49 591.96,-266.52 581.54,-268.4 584.99,-274.49"/>
</a>
</g>
</g>
<!-- Node4 -->
<g id="Node000004" class="node">
<title>Node4</title>
<g id="a_Node000004"><a xlink:href="../../d0/df9/basic__types_8hpp.html" target="_top" xlink:title="Common types for crypto module.">
<polygon fill="white" stroke="#666666" points="552,-272 436,-272 436,-242 552,-242 552,-272"/>
<text text-anchor="start" x="444" y="-260" font-family="Helvetica,sans-Serif" font-size="10.00">userver/crypto/basic</text>
<text text-anchor="middle" x="494" y="-249" font-family="Helvetica,sans-Serif" font-size="10.00">_types.hpp</text>
</a>
</g>
</g>
<!-- Node1&#45;&gt;Node4 -->
<g id="edge3_Node000001_Node000004" class="edge">
<title>Node1&#45;&gt;Node4</title>
<g id="a_edge3_Node000001_Node000004"><a xlink:title=" ">
<path fill="none" stroke="#63b8ff" d="M494,-307.8C494,-300.34 494,-290.99 494,-282.41"/>
<polygon fill="#63b8ff" stroke="#63b8ff" points="497.5,-282.16 494,-272.16 490.5,-282.16 497.5,-282.16"/>
</a>
</g>
</g>
<!-- Node5 -->
<g id="Node000005" class="node">
<title>Node5</title>
<g id="a_Node000005"><a xlink:title=" ">
<polygon fill="#e0e0e0" stroke="#999999" points="721,-79.5 677,-79.5 677,-60.5 721,-60.5 721,-79.5"/>
<text text-anchor="middle" x="699" y="-67.5" font-family="Helvetica,sans-Serif" font-size="10.00">string</text>
</a>
</g>
</g>
<!-- Node4&#45;&gt;Node5 -->
<g id="edge4_Node000004_Node000005" class="edge">
<title>Node4&#45;&gt;Node5</title>
<g id="a_edge4_Node000004_Node000005"><a xlink:title=" ">
<path fill="none" stroke="#63b8ff" d="M524.92,-241.99C542.85,-233.07 565.32,-220.49 583,-206 627.05,-169.91 667.79,-115.83 687.16,-88.36"/>
<polygon fill="#63b8ff" stroke="#63b8ff" points="690.26,-90.03 693.09,-79.82 684.51,-86.04 690.26,-90.03"/>
</a>
</g>
</g>
<!-- Node6 -->
<g id="Node000006" class="node">
<title>Node6</title>
<g id="a_Node000006"><a xlink:href="../../df/db8/universal_2include_2userver_2crypto_2exception_8hpp.html" target="_top" xlink:title="Exception classes for crypto module.">
<polygon fill="white" stroke="#666666" points="573.5,-206 414.5,-206 414.5,-187 573.5,-187 573.5,-206"/>
<text text-anchor="middle" x="494" y="-194" font-family="Helvetica,sans-Serif" font-size="10.00">userver/crypto/exception.hpp</text>
</a>
</g>
</g>
<!-- Node4&#45;&gt;Node6 -->
<g id="edge5_Node000004_Node000006" class="edge">
<title>Node4&#45;&gt;Node6</title>
<g id="a_edge5_Node000004_Node000006"><a xlink:title=" ">
<path fill="none" stroke="#63b8ff" d="M494,-241.84C494,-234.21 494,-224.7 494,-216.45"/>
<polygon fill="#63b8ff" stroke="#63b8ff" points="497.5,-216.27 494,-206.27 490.5,-216.27 497.5,-216.27"/>
</a>
</g>
</g>
<!-- Node6&#45;&gt;Node2 -->
<g id="edge6_Node000006_Node000002" class="edge">
<title>Node6&#45;&gt;Node2</title>
<g id="a_edge6_Node000006_Node000002"><a xlink:title=" ">
<path fill="none" stroke="#63b8ff" d="M478.36,-186.87C461.06,-177.32 432.95,-161.81 412.67,-150.62"/>
<polygon fill="#63b8ff" stroke="#63b8ff" points="414.15,-147.43 403.7,-145.67 410.77,-153.56 414.15,-147.43"/>
</a>
</g>
</g>
<!-- Node7 -->
<g id="Node000007" class="node">
<title>Node7</title>
<g id="a_Node000007"><a xlink:href="../../da/de0/traceful__exception_8hpp.html" target="_top" xlink:title="Exception that remembers the backtrace at the point of its construction.">
<polygon fill="white" stroke="#666666" points="553,-151 435,-151 435,-121 553,-121 553,-151"/>
<text text-anchor="start" x="443" y="-139" font-family="Helvetica,sans-Serif" font-size="10.00">userver/utils/traceful</text>
<text text-anchor="middle" x="494" y="-128" font-family="Helvetica,sans-Serif" font-size="10.00">_exception.hpp</text>
</a>
</g>
</g>
<!-- Node6&#45;&gt;Node7 -->
<g id="edge7_Node000006_Node000007" class="edge">
<title>Node6&#45;&gt;Node7</title>
<g id="a_edge7_Node000006_Node000007"><a xlink:title=" ">
<path fill="none" stroke="#63b8ff" d="M494,-186.87C494,-180.11 494,-170.35 494,-161.26"/>
<polygon fill="#63b8ff" stroke="#63b8ff" points="497.5,-161.11 494,-151.11 490.5,-161.11 497.5,-161.11"/>
</a>
</g>
</g>
<!-- Node7&#45;&gt;Node5 -->
<g id="edge9_Node000007_Node000005" class="edge">
<title>Node7&#45;&gt;Node5</title>
<g id="a_edge9_Node000007_Node000005"><a xlink:title=" ">
<path fill="none" stroke="#63b8ff" d="M545.75,-120.9C579.38,-111.43 624.06,-98.31 663,-85 664.66,-84.43 666.35,-83.84 668.06,-83.22"/>
<polygon fill="#63b8ff" stroke="#63b8ff" points="669.65,-86.37 677.79,-79.59 667.2,-79.81 669.65,-86.37"/>
</a>
</g>
</g>
<!-- Node8 -->
<g id="Node000008" class="node">
<title>Node8</title>
<g id="a_Node000008"><a xlink:title=" ">
<polygon fill="#e0e0e0" stroke="#999999" points="620.5,-79.5 555.5,-79.5 555.5,-60.5 620.5,-60.5 620.5,-79.5"/>
<text text-anchor="middle" x="588" y="-67.5" font-family="Helvetica,sans-Serif" font-size="10.00">exception</text>
</a>
</g>
</g>
<!-- Node7&#45;&gt;Node8 -->
<g id="edge8_Node000007_Node000008" class="edge">
<title>Node7&#45;&gt;Node8</title>
<g id="a_edge8_Node000007_Node000008"><a xlink:title=" ">
<path fill="none" stroke="#63b8ff" d="M514.86,-120.8C530.32,-110.27 551.32,-95.97 566.85,-85.4"/>
<polygon fill="#63b8ff" stroke="#63b8ff" points="568.99,-88.18 575.28,-79.66 565.05,-82.39 568.99,-88.18"/>
</a>
</g>
</g>
<!-- Node9 -->
<g id="Node000009" class="node">
<title>Node9</title>
<g id="a_Node000009"><a xlink:title=" ">
<polygon fill="#e0e0e0" stroke="#999999" points="533.5,-19 464.5,-19 464.5,0 533.5,0 533.5,-19"/>
<text text-anchor="middle" x="499" y="-7" font-family="Helvetica,sans-Serif" font-size="10.00">type_traits</text>
</a>
</g>
</g>
<!-- Node7&#45;&gt;Node9 -->
<g id="edge10_Node000007_Node000009" class="edge">
<title>Node7&#45;&gt;Node9</title>
<g id="a_edge10_Node000007_Node000009"><a xlink:title=" ">
<path fill="none" stroke="#63b8ff" d="M553.04,-128.78C581.25,-122.5 612.58,-109.96 630,-85 655.18,-48.92 590.75,-28.09 543.58,-18.05"/>
<polygon fill="#63b8ff" stroke="#63b8ff" points="544.01,-14.57 533.51,-16.01 542.62,-21.43 544.01,-14.57"/>
</a>
</g>
</g>
<!-- Node10 -->
<g id="Node000010" class="node">
<title>Node10</title>
<g id="a_Node000010"><a xlink:title=" ">
<polygon fill="#e0e0e0" stroke="#999999" points="366.5,-79.5 287.5,-79.5 287.5,-60.5 366.5,-60.5 366.5,-79.5"/>
<text text-anchor="middle" x="327" y="-67.5" font-family="Helvetica,sans-Serif" font-size="10.00">fmt/format.h</text>
</a>
</g>
</g>
<!-- Node7&#45;&gt;Node10 -->
<g id="edge11_Node000007_Node000010" class="edge">
<title>Node7&#45;&gt;Node10</title>
<g id="a_edge11_Node000007_Node000010"><a xlink:title=" ">
<path fill="none" stroke="#63b8ff" d="M457.35,-120.95C427.81,-109.63 386.69,-93.88 358.58,-83.1"/>
<polygon fill="#63b8ff" stroke="#63b8ff" points="359.82,-79.83 349.22,-79.52 357.31,-86.36 359.82,-79.83"/>
</a>
</g>
</g>
<!-- Node11 -->
<g id="Node000011" class="node">
<title>Node11</title>
<g id="a_Node000011"><a xlink:title=" ">
<polygon fill="#e0e0e0" stroke="#999999" points="537,-85 385,-85 385,-55 537,-55 537,-85"/>
<text text-anchor="start" x="393" y="-73" font-family="Helvetica,sans-Serif" font-size="10.00">boost/stacktrace/stacktrace</text>
<text text-anchor="middle" x="461" y="-62" font-family="Helvetica,sans-Serif" font-size="10.00">_fwd.hpp</text>
</a>
</g>
</g>
<!-- Node7&#45;&gt;Node11 -->
<g id="edge12_Node000007_Node000011" class="edge">
<title>Node7&#45;&gt;Node11</title>
<g id="a_edge12_Node000007_Node000011"><a xlink:title=" ">
<path fill="none" stroke="#63b8ff" d="M486.68,-120.8C482.66,-113.01 477.58,-103.16 473,-94.28"/>
<polygon fill="#63b8ff" stroke="#63b8ff" points="476,-92.45 468.3,-85.16 469.78,-95.66 476,-92.45"/>
</a>
</g>
</g>
<!-- Node12 -->
<g id="Node000012" class="node">
<title>Node12</title>
<g id="a_Node000012"><a xlink:href="../../d2/d84/select_8hpp.html" target="_top" xlink:title="Utilities for selection of platform specific values.">
<polygon fill="white" stroke="#666666" points="152,-79.5 0,-79.5 0,-60.5 152,-60.5 152,-79.5"/>
<text text-anchor="middle" x="76" y="-67.5" font-family="Helvetica,sans-Serif" font-size="10.00">userver/compiler/select.hpp</text>
</a>
</g>
</g>
<!-- Node7&#45;&gt;Node12 -->
<g id="edge13_Node000007_Node000012" class="edge">
<title>Node7&#45;&gt;Node12</title>
<g id="a_edge13_Node000007_Node000012"><a xlink:title=" ">
<path fill="none" stroke="#63b8ff" d="M434.71,-122.55C431.77,-122.01 428.85,-121.49 426,-121 309.27,-101.05 279.12,-102.52 162,-85 153.92,-83.79 145.41,-82.47 137.03,-81.13"/>
<polygon fill="#63b8ff" stroke="#63b8ff" points="137.33,-77.64 126.9,-79.51 136.22,-84.55 137.33,-77.64"/>
</a>
</g>
</g>
<!-- Node14 -->
<g id="Node000014" class="node">
<title>Node14</title>
<g id="a_Node000014"><a xlink:href="../../d5/d02/fast__pimpl_8hpp.html" target="_top" xlink:title="Implements pimpl idiom without dynamic memory allocation.">
<polygon fill="white" stroke="#666666" points="269.5,-85 170.5,-85 170.5,-55 269.5,-55 269.5,-85"/>
<text text-anchor="start" x="178.5" y="-73" font-family="Helvetica,sans-Serif" font-size="10.00">userver/utils/fast</text>
<text text-anchor="middle" x="220" y="-62" font-family="Helvetica,sans-Serif" font-size="10.00">_pimpl.hpp</text>
</a>
</g>
</g>
<!-- Node7&#45;&gt;Node14 -->
<g id="edge15_Node000007_Node000014" class="edge">
<title>Node7&#45;&gt;Node14</title>
<g id="a_edge15_Node000007_Node000014"><a xlink:title=" ">
<path fill="none" stroke="#63b8ff" d="M434.67,-121.28C393.76,-111.8 337.87,-98.81 279.36,-85.08"/>
<polygon fill="#63b8ff" stroke="#63b8ff" points="280.11,-81.66 269.57,-82.78 278.51,-88.47 280.11,-81.66"/>
</a>
</g>
</g>
<!-- Node13 -->
<g id="Node000013" class="node">
<title>Node13</title>
<g id="a_Node000013"><a xlink:title=" ">
<polygon fill="#e0e0e0" stroke="#999999" points="140.5,-19 87.5,-19 87.5,0 140.5,0 140.5,-19"/>
<text text-anchor="middle" x="114" y="-7" font-family="Helvetica,sans-Serif" font-size="10.00">cstddef</text>
</a>
</g>
</g>
<!-- Node12&#45;&gt;Node13 -->
<g id="edge14_Node000012_Node000013" class="edge">
<title>Node12&#45;&gt;Node13</title>
<g id="a_edge14_Node000012_Node000013"><a xlink:title=" ">
<path fill="none" stroke="#63b8ff" d="M81.61,-60.37C87.16,-51.81 95.83,-38.47 102.8,-27.74"/>
<polygon fill="#63b8ff" stroke="#63b8ff" points="105.86,-29.46 108.37,-19.17 99.99,-25.65 105.86,-29.46"/>
</a>
</g>
</g>
<!-- Node14&#45;&gt;Node9 -->
<g id="edge18_Node000014_Node000009" class="edge">
<title>Node14&#45;&gt;Node9</title>
<g id="a_edge18_Node000014_Node000009"><a xlink:title=" ">
<path fill="none" stroke="#63b8ff" d="M269.55,-57.12C272.74,-56.39 275.92,-55.68 279,-55 339.56,-41.69 409.82,-27.74 454.33,-19.08"/>
<polygon fill="#63b8ff" stroke="#63b8ff" points="455.1,-22.5 464.25,-17.16 453.77,-15.63 455.1,-22.5"/>
</a>
</g>
</g>
<!-- Node14&#45;&gt;Node13 -->
<g id="edge16_Node000014_Node000013" class="edge">
<title>Node14&#45;&gt;Node13</title>
<g id="a_edge16_Node000014_Node000013"><a xlink:title=" ">
<path fill="none" stroke="#63b8ff" d="M194.61,-54.99C177.71,-45.66 155.62,-33.47 138.84,-24.21"/>
<polygon fill="#63b8ff" stroke="#63b8ff" points="140.1,-20.91 129.65,-19.14 136.72,-27.04 140.1,-20.91"/>
</a>
</g>
</g>
<!-- Node15 -->
<g id="Node000015" class="node">
<title>Node15</title>
<g id="a_Node000015"><a xlink:title=" ">
<polygon fill="#e0e0e0" stroke="#999999" points="267.5,-19 230.5,-19 230.5,0 267.5,0 267.5,-19"/>
<text text-anchor="middle" x="249" y="-7" font-family="Helvetica,sans-Serif" font-size="10.00">new</text>
</a>
</g>
</g>
<!-- Node14&#45;&gt;Node15 -->
<g id="edge17_Node000014_Node000015" class="edge">
<title>Node14&#45;&gt;Node15</title>
<g id="a_edge17_Node000014_Node000015"><a xlink:title=" ">
<path fill="none" stroke="#63b8ff" d="M227.02,-54.84C230.97,-46.87 235.94,-36.84 240.16,-28.33"/>
<polygon fill="#63b8ff" stroke="#63b8ff" points="243.35,-29.78 244.65,-19.27 237.08,-26.67 243.35,-29.78"/>
</a>
</g>
</g>
<!-- Node16 -->
<g id="Node000016" class="node">
<title>Node16</title>
<g id="a_Node000016"><a xlink:title=" ">
<polygon fill="#e0e0e0" stroke="#999999" points="212.5,-19 167.5,-19 167.5,0 212.5,0 212.5,-19"/>
<text text-anchor="middle" x="190" y="-7" font-family="Helvetica,sans-Serif" font-size="10.00">utility</text>
</a>
</g>
</g>
<!-- Node14&#45;&gt;Node16 -->
<g id="edge19_Node000014_Node000016" class="edge">
<title>Node14&#45;&gt;Node16</title>
<g id="a_edge19_Node000014_Node000016"><a xlink:title=" ">
<path fill="none" stroke="#63b8ff" d="M212.74,-54.84C208.65,-46.87 203.51,-36.84 199.14,-28.33"/>
<polygon fill="#63b8ff" stroke="#63b8ff" points="202.17,-26.57 194.5,-19.27 195.94,-29.76 202.17,-26.57"/>
</a>
</g>
</g>
</g>
</svg>
