<?xml version="1.0" encoding="UTF-8" standalone="no"?>
<!DOCTYPE svg PUBLIC "-//W3C//DTD SVG 1.1//EN"
 "http://www.w3.org/Graphics/SVG/1.1/DTD/svg11.dtd">
<!-- Generated by graphviz version 2.43.0 (0)
 -->
<!-- Title: userver/formats/bson/iterator.hpp Pages: 1 -->
<svg width="1198pt" height="632pt"
 viewBox="0.00 0.00 1198.36 632.00" xmlns="http://www.w3.org/2000/svg" xmlns:xlink="http://www.w3.org/1999/xlink">
<g id="graph0" class="graph" transform="scale(1 1) rotate(0) translate(4 628)">
<title>userver/formats/bson/iterator.hpp</title>
<!-- Node1 -->
<g id="Node000001" class="node">
<title>Node1</title>
<g id="a_Node000001"><a xlink:title="Iterator for BSON values.">
<polygon fill="#999999" stroke="#666666" points="146.36,-624 25.36,-624 25.36,-594 146.36,-594 146.36,-624"/>
<text text-anchor="start" x="33.36" y="-612" font-family="Helvetica,sans-Serif" font-size="10.00">userver/formats/bson</text>
<text text-anchor="middle" x="85.86" y="-601" font-family="Helvetica,sans-Serif" font-size="10.00">/iterator.hpp</text>
</a>
</g>
</g>
<!-- Node2 -->
<g id="Node000002" class="node">
<title>Node2</title>
<g id="a_Node000002"><a xlink:href="../../d3/d9f/bson_8hpp.html" target="_top" xlink:title="Include&#45;all header for BSON support.">
<polygon fill="white" stroke="#666666" points="267.86,-354.5 125.86,-354.5 125.86,-335.5 267.86,-335.5 267.86,-354.5"/>
<text text-anchor="middle" x="196.86" y="-342.5" font-family="Helvetica,sans-Serif" font-size="10.00">userver/formats/bson.hpp</text>
</a>
</g>
</g>
<!-- Node1&#45;&gt;Node2 -->
<g id="edge1_Node000001_Node000002" class="edge">
<title>Node1&#45;&gt;Node2</title>
<g id="a_edge1_Node000001_Node000002"><a xlink:title=" ">
<path fill="none" stroke="#63b8ff" d="M66.61,-586.14C32.86,-545.1 -29.27,-455.29 15.86,-396 30.72,-376.48 90.66,-362.63 137.55,-354.53"/>
<polygon fill="#63b8ff" stroke="#63b8ff" points="64.02,-588.5 73.13,-593.9 69.38,-584 64.02,-588.5"/>
</a>
</g>
</g>
<!-- Node3 -->
<g id="Node000003" class="node">
<title>Node3</title>
<g id="a_Node000003"><a xlink:href="../../d5/d70/mongo_2include_2userver_2formats_2bson_2value_8hpp.html" target="_top" xlink:title="Non&#45;mutable BSON value representation.">
<polygon fill="white" stroke="#666666" points="687.36,-558 566.36,-558 566.36,-528 687.36,-528 687.36,-558"/>
<text text-anchor="start" x="574.36" y="-546" font-family="Helvetica,sans-Serif" font-size="10.00">userver/formats/bson</text>
<text text-anchor="middle" x="626.86" y="-535" font-family="Helvetica,sans-Serif" font-size="10.00">/value.hpp</text>
</a>
</g>
</g>
<!-- Node1&#45;&gt;Node3 -->
<g id="edge2_Node000001_Node000003" class="edge">
<title>Node1&#45;&gt;Node3</title>
<g id="a_edge2_Node000001_Node000003"><a xlink:title=" ">
<path fill="none" stroke="#63b8ff" d="M156.67,-599.62C263.77,-586.95 465.12,-563.13 566.01,-551.2"/>
<polygon fill="#63b8ff" stroke="#63b8ff" points="156.13,-596.16 146.61,-600.81 156.95,-603.11 156.13,-596.16"/>
</a>
</g>
</g>
<!-- Node21 -->
<g id="Node000021" class="node">
<title>Node21</title>
<g id="a_Node000021"><a xlink:href="../../dc/d8c/mongo_2include_2userver_2formats_2bson_2value__builder_8hpp.html" target="_top" xlink:title="Builder for BSON.">
<polygon fill="white" stroke="#666666" points="146.36,-426 25.36,-426 25.36,-396 146.36,-396 146.36,-426"/>
<text text-anchor="start" x="33.36" y="-414" font-family="Helvetica,sans-Serif" font-size="10.00">userver/formats/bson</text>
<text text-anchor="middle" x="85.86" y="-403" font-family="Helvetica,sans-Serif" font-size="10.00">/value_builder.hpp</text>
</a>
</g>
</g>
<!-- Node1&#45;&gt;Node21 -->
<g id="edge56_Node000001_Node000021" class="edge">
<title>Node1&#45;&gt;Node21</title>
<g id="a_edge56_Node000001_Node000021"><a xlink:title=" ">
<path fill="none" stroke="#63b8ff" d="M85.86,-583.89C85.86,-542.58 85.86,-459.48 85.86,-426.23"/>
<polygon fill="#63b8ff" stroke="#63b8ff" points="82.36,-583.9 85.86,-593.9 89.36,-583.9 82.36,-583.9"/>
</a>
</g>
</g>
<!-- Node3&#45;&gt;Node2 -->
<g id="edge3_Node000003_Node000002" class="edge">
<title>Node3&#45;&gt;Node2</title>
<g id="a_edge3_Node000003_Node000002"><a xlink:title=" ">
<path fill="none" stroke="#63b8ff" d="M555.9,-533.81C444.22,-519.25 235.78,-484.74 193.86,-426 178.44,-404.39 187.7,-370.49 193.4,-354.67"/>
<polygon fill="#63b8ff" stroke="#63b8ff" points="555.7,-537.31 566.07,-535.12 556.6,-530.37 555.7,-537.31"/>
</a>
</g>
</g>
<!-- Node4 -->
<g id="Node000004" class="node">
<title>Node4</title>
<g id="a_Node000004"><a xlink:href="../../d9/d03/bson__builder_8hpp.html" target="_top" xlink:title="Internal helpers for inline document build.">
<polygon fill="white" stroke="#666666" points="598.36,-492 477.36,-492 477.36,-462 598.36,-462 598.36,-492"/>
<text text-anchor="start" x="485.36" y="-480" font-family="Helvetica,sans-Serif" font-size="10.00">userver/formats/bson</text>
<text text-anchor="middle" x="537.86" y="-469" font-family="Helvetica,sans-Serif" font-size="10.00">/bson_builder.hpp</text>
</a>
</g>
</g>
<!-- Node3&#45;&gt;Node4 -->
<g id="edge4_Node000003_Node000004" class="edge">
<title>Node3&#45;&gt;Node4</title>
<g id="a_edge4_Node000003_Node000004"><a xlink:title=" ">
<path fill="none" stroke="#63b8ff" d="M598.7,-521.75C585.32,-512.13 569.64,-500.86 557.56,-492.16"/>
<polygon fill="#63b8ff" stroke="#63b8ff" points="596.95,-524.8 607.11,-527.8 601.03,-519.12 596.95,-524.8"/>
</a>
</g>
</g>
<!-- Node5 -->
<g id="Node000005" class="node">
<title>Node5</title>
<g id="a_Node000005"><a xlink:href="../../d1/d71/mongo_2include_2userver_2formats_2bson_2inline_8hpp.html" target="_top" xlink:title="Inline value builders.">
<polygon fill="white" stroke="#666666" points="324.36,-426 203.36,-426 203.36,-396 324.36,-396 324.36,-426"/>
<text text-anchor="start" x="211.36" y="-414" font-family="Helvetica,sans-Serif" font-size="10.00">userver/formats/bson</text>
<text text-anchor="middle" x="263.86" y="-403" font-family="Helvetica,sans-Serif" font-size="10.00">/inline.hpp</text>
</a>
</g>
</g>
<!-- Node3&#45;&gt;Node5 -->
<g id="edge49_Node000003_Node000005" class="edge">
<title>Node3&#45;&gt;Node5</title>
<g id="a_edge49_Node000003_Node000005"><a xlink:title=" ">
<path fill="none" stroke="#63b8ff" d="M569.66,-524.89C539.51,-515.62 502.01,-503.7 468.86,-492 408.16,-470.58 338.55,-442.7 298.06,-426.14"/>
<polygon fill="#63b8ff" stroke="#63b8ff" points="568.99,-528.35 579.58,-527.92 571.04,-521.65 568.99,-528.35"/>
</a>
</g>
</g>
<!-- Node7 -->
<g id="Node000007" class="node">
<title>Node7</title>
<g id="a_Node000007"><a xlink:href="../../d2/d54/mongo_2include_2userver_2storages_2mongo_2options_8hpp.html" target="_top" xlink:title="Query options.">
<polygon fill="white" stroke="#666666" points="694.36,-426 559.36,-426 559.36,-396 694.36,-396 694.36,-426"/>
<text text-anchor="start" x="567.36" y="-414" font-family="Helvetica,sans-Serif" font-size="10.00">userver/storages/mongo</text>
<text text-anchor="middle" x="626.86" y="-403" font-family="Helvetica,sans-Serif" font-size="10.00">/options.hpp</text>
</a>
</g>
</g>
<!-- Node3&#45;&gt;Node7 -->
<g id="edge54_Node000003_Node000007" class="edge">
<title>Node3&#45;&gt;Node7</title>
<g id="a_edge54_Node000003_Node000007"><a xlink:title=" ">
<path fill="none" stroke="#63b8ff" d="M626.86,-517.68C626.86,-490.7 626.86,-448.11 626.86,-426.14"/>
<polygon fill="#63b8ff" stroke="#63b8ff" points="623.36,-517.84 626.86,-527.84 630.36,-517.84 623.36,-517.84"/>
</a>
</g>
</g>
<!-- Node10 -->
<g id="Node000010" class="node">
<title>Node10</title>
<g id="a_Node000010"><a xlink:href="../../d4/db6/collection_8hpp.html" target="_top" xlink:title="MongoDB collection handle, the main way to operate with MongoDB.">
<polygon fill="white" stroke="#666666" points="866.36,-228 731.36,-228 731.36,-198 866.36,-198 866.36,-228"/>
<text text-anchor="start" x="739.36" y="-216" font-family="Helvetica,sans-Serif" font-size="10.00">userver/storages/mongo</text>
<text text-anchor="middle" x="798.86" y="-205" font-family="Helvetica,sans-Serif" font-size="10.00">/collection.hpp</text>
</a>
</g>
</g>
<!-- Node3&#45;&gt;Node10 -->
<g id="edge52_Node000003_Node000010" class="edge">
<title>Node3&#45;&gt;Node10</title>
<g id="a_edge52_Node000003_Node000010"><a xlink:title=" ">
<path fill="none" stroke="#63b8ff" d="M697.5,-538.41C835.78,-529.44 1128.86,-500.05 1128.86,-412 1128.86,-412 1128.86,-412 1128.86,-344 1128.86,-288.12 962.98,-246.13 866.44,-226.42"/>
<polygon fill="#63b8ff" stroke="#63b8ff" points="697.17,-534.92 687.41,-539.04 697.61,-541.91 697.17,-534.92"/>
</a>
</g>
</g>
<!-- Node17 -->
<g id="Node000017" class="node">
<title>Node17</title>
<g id="a_Node000017"><a xlink:href="../../de/d6b/mongo_2include_2userver_2storages_2mongo_2operations_8hpp.html" target="_top" xlink:title="Collection operation models.">
<polygon fill="white" stroke="#666666" points="770.36,-360 635.36,-360 635.36,-330 770.36,-330 770.36,-360"/>
<text text-anchor="start" x="643.36" y="-348" font-family="Helvetica,sans-Serif" font-size="10.00">userver/storages/mongo</text>
<text text-anchor="middle" x="702.86" y="-337" font-family="Helvetica,sans-Serif" font-size="10.00">/operations.hpp</text>
</a>
</g>
</g>
<!-- Node3&#45;&gt;Node17 -->
<g id="edge53_Node000003_Node000017" class="edge">
<title>Node3&#45;&gt;Node17</title>
<g id="a_edge53_Node000003_Node000017"><a xlink:title=" ">
<path fill="none" stroke="#63b8ff" d="M697.5,-532.4C803.22,-516.38 994.45,-480.51 1033.86,-426 1041.67,-415.2 1042.56,-406.11 1033.86,-396 1000.6,-357.34 857.38,-348.19 770.6,-346.25"/>
<polygon fill="#63b8ff" stroke="#63b8ff" points="696.92,-528.94 687.54,-533.88 697.95,-535.87 696.92,-528.94"/>
</a>
</g>
</g>
<!-- Node18 -->
<g id="Node000018" class="node">
<title>Node18</title>
<g id="a_Node000018"><a xlink:href="../../dd/d39/document_8hpp.html" target="_top" xlink:title="BSON document.">
<polygon fill="white" stroke="#666666" points="776.36,-492 655.36,-492 655.36,-462 776.36,-462 776.36,-492"/>
<text text-anchor="start" x="663.36" y="-480" font-family="Helvetica,sans-Serif" font-size="10.00">userver/formats/bson</text>
<text text-anchor="middle" x="715.86" y="-469" font-family="Helvetica,sans-Serif" font-size="10.00">/document.hpp</text>
</a>
</g>
</g>
<!-- Node3&#45;&gt;Node18 -->
<g id="edge29_Node000003_Node000018" class="edge">
<title>Node3&#45;&gt;Node18</title>
<g id="a_edge29_Node000003_Node000018"><a xlink:title=" ">
<path fill="none" stroke="#63b8ff" d="M655.02,-521.75C668.4,-512.13 684.08,-500.86 696.16,-492.16"/>
<polygon fill="#63b8ff" stroke="#63b8ff" points="652.69,-519.12 646.61,-527.8 656.77,-524.8 652.69,-519.12"/>
</a>
</g>
</g>
<!-- Node20 -->
<g id="Node000020" class="node">
<title>Node20</title>
<g id="a_Node000020"><a xlink:href="../../d6/de5/mongo_2include_2userver_2formats_2bson_2serialize_8hpp.html" target="_top" xlink:title="Textual serialization helpers.">
<polygon fill="white" stroke="#666666" points="1024.36,-426 903.36,-426 903.36,-396 1024.36,-396 1024.36,-426"/>
<text text-anchor="start" x="911.36" y="-414" font-family="Helvetica,sans-Serif" font-size="10.00">userver/formats/bson</text>
<text text-anchor="middle" x="963.86" y="-403" font-family="Helvetica,sans-Serif" font-size="10.00">/serialize.hpp</text>
</a>
</g>
</g>
<!-- Node3&#45;&gt;Node20 -->
<g id="edge50_Node000003_Node000020" class="edge">
<title>Node3&#45;&gt;Node20</title>
<g id="a_edge50_Node000003_Node000020"><a xlink:title=" ">
<path fill="none" stroke="#63b8ff" d="M686.71,-525C716.75,-516.01 753.54,-504.29 785.86,-492 839.69,-471.52 900.52,-442.96 935.32,-426.09"/>
<polygon fill="#63b8ff" stroke="#63b8ff" points="685.38,-521.74 676.79,-527.94 687.38,-528.45 685.38,-521.74"/>
</a>
</g>
</g>
<!-- Node3&#45;&gt;Node21 -->
<g id="edge51_Node000003_Node000021" class="edge">
<title>Node3&#45;&gt;Node21</title>
<g id="a_edge51_Node000003_Node000021"><a xlink:title=" ">
<path fill="none" stroke="#63b8ff" d="M556.04,-540.38C443.21,-536.81 228.48,-525.69 160.86,-492 130.87,-477.06 106.67,-444.85 94.47,-426.18"/>
<polygon fill="#63b8ff" stroke="#63b8ff" points="556.2,-543.89 566.3,-540.69 556.41,-536.89 556.2,-543.89"/>
</a>
</g>
</g>
<!-- Node23 -->
<g id="Node000023" class="node">
<title>Node23</title>
<g id="a_Node000023"><a xlink:href="../../d7/d6e/write__result_8hpp_source.html" target="_top" xlink:title=" ">
<polygon fill="white" stroke="#666666" points="1000.36,-294 865.36,-294 865.36,-264 1000.36,-264 1000.36,-294"/>
<text text-anchor="start" x="873.36" y="-282" font-family="Helvetica,sans-Serif" font-size="10.00">userver/storages/mongo</text>
<text text-anchor="middle" x="932.86" y="-271" font-family="Helvetica,sans-Serif" font-size="10.00">/write_result.hpp</text>
</a>
</g>
</g>
<!-- Node3&#45;&gt;Node23 -->
<g id="edge55_Node000003_Node000023" class="edge">
<title>Node3&#45;&gt;Node23</title>
<g id="a_edge55_Node000003_Node000023"><a xlink:title=" ">
<path fill="none" stroke="#63b8ff" d="M697.42,-539.78C764.59,-535.68 867.52,-524.16 950.86,-492 1000.54,-472.83 1025.62,-472.89 1050.86,-426 1079.9,-372.05 1002.65,-318.6 959.56,-294.01"/>
<polygon fill="#63b8ff" stroke="#63b8ff" points="697.15,-536.29 687.36,-540.35 697.55,-543.28 697.15,-536.29"/>
</a>
</g>
</g>
<!-- Node4&#45;&gt;Node5 -->
<g id="edge5_Node000004_Node000005" class="edge">
<title>Node4&#45;&gt;Node5</title>
<g id="a_edge5_Node000004_Node000005"><a xlink:title=" ">
<path fill="none" stroke="#63b8ff" d="M467.85,-459.65C423.33,-449.25 366.29,-435.93 323.85,-426.01"/>
<polygon fill="#63b8ff" stroke="#63b8ff" points="467.2,-463.09 477.73,-461.95 468.79,-456.27 467.2,-463.09"/>
</a>
</g>
</g>
<!-- Node4&#45;&gt;Node7 -->
<g id="edge8_Node000004_Node000007" class="edge">
<title>Node4&#45;&gt;Node7</title>
<g id="a_edge8_Node000004_Node000007"><a xlink:title=" ">
<path fill="none" stroke="#63b8ff" d="M566.02,-455.75C579.4,-446.13 595.08,-434.86 607.16,-426.16"/>
<polygon fill="#63b8ff" stroke="#63b8ff" points="563.69,-453.12 557.61,-461.8 567.77,-458.8 563.69,-453.12"/>
</a>
</g>
</g>
<!-- Node5&#45;&gt;Node2 -->
<g id="edge7_Node000005_Node000002" class="edge">
<title>Node5&#45;&gt;Node2</title>
<g id="a_edge7_Node000005_Node000002"><a xlink:title=" ">
<path fill="none" stroke="#63b8ff" d="M241.46,-388.6C229.41,-377.1 215.21,-363.52 206.12,-354.84"/>
<polygon fill="#63b8ff" stroke="#63b8ff" points="239.34,-391.42 248.99,-395.8 244.18,-386.36 239.34,-391.42"/>
</a>
</g>
</g>
<!-- Node6 -->
<g id="Node000006" class="node">
<title>Node6</title>
<g id="a_Node000006"><a xlink:href="../../dd/d6c/base__mongo__cache_8hpp.html" target="_top" xlink:title="Base class for all caches polling mongo collection">
<polygon fill="white" stroke="#666666" points="422.36,-162 311.36,-162 311.36,-132 422.36,-132 422.36,-162"/>
<text text-anchor="start" x="319.36" y="-150" font-family="Helvetica,sans-Serif" font-size="10.00">userver/cache/base</text>
<text text-anchor="middle" x="366.86" y="-139" font-family="Helvetica,sans-Serif" font-size="10.00">_mongo_cache.hpp</text>
</a>
</g>
</g>
<!-- Node5&#45;&gt;Node6 -->
<g id="edge6_Node000005_Node000006" class="edge">
<title>Node5&#45;&gt;Node6</title>
<g id="a_edge6_Node000005_Node000006"><a xlink:title=" ">
<path fill="none" stroke="#63b8ff" d="M270.23,-386.24C284.19,-334.5 316.92,-214.93 325.86,-198 332.88,-184.7 343.79,-171.62 352.58,-162.18"/>
<polygon fill="#63b8ff" stroke="#63b8ff" points="266.85,-385.34 267.63,-395.91 273.61,-387.16 266.85,-385.34"/>
</a>
</g>
</g>
<!-- Node7&#45;&gt;Node6 -->
<g id="edge9_Node000007_Node000006" class="edge">
<title>Node7&#45;&gt;Node6</title>
<g id="a_edge9_Node000007_Node000006"><a xlink:title=" ">
<path fill="none" stroke="#63b8ff" d="M549.24,-394.89C486.28,-382.29 407.11,-365.55 401.86,-360 348.78,-303.92 358.66,-199.92 364.38,-162.16"/>
<polygon fill="#63b8ff" stroke="#63b8ff" points="548.7,-398.35 559.19,-396.87 550.07,-391.48 548.7,-398.35"/>
</a>
</g>
</g>
<!-- Node8 -->
<g id="Node000008" class="node">
<title>Node8</title>
<g id="a_Node000008"><a xlink:href="../../d2/d86/mongo_8hpp.html" target="_top" xlink:title="Include&#45;all header for MongoDB client.">
<polygon fill="white" stroke="#666666" points="784.86,-90.5 628.86,-90.5 628.86,-71.5 784.86,-71.5 784.86,-90.5"/>
<text text-anchor="middle" x="706.86" y="-78.5" font-family="Helvetica,sans-Serif" font-size="10.00">userver/storages/mongo.hpp</text>
</a>
</g>
</g>
<!-- Node7&#45;&gt;Node8 -->
<g id="edge10_Node000007_Node000008" class="edge">
<title>Node7&#45;&gt;Node8</title>
<g id="a_edge10_Node000007_Node000008"><a xlink:title=" ">
<path fill="none" stroke="#63b8ff" d="M549.36,-395.39C512.74,-386.75 474.68,-374.64 463.86,-360 452.13,-344.14 463.1,-282.54 473.86,-264 526.19,-173.89 642.04,-112.25 687.76,-90.59"/>
<polygon fill="#63b8ff" stroke="#63b8ff" points="548.59,-398.81 559.12,-397.62 550.15,-391.98 548.59,-398.81"/>
</a>
</g>
</g>
<!-- Node9 -->
<g id="Node000009" class="node">
<title>Node9</title>
<g id="a_Node000009"><a xlink:href="../../d5/d0f/bulk_8hpp.html" target="_top" xlink:title="Bulk collection operation model.">
<polygon fill="white" stroke="#666666" points="617.36,-294 482.36,-294 482.36,-264 617.36,-264 617.36,-294"/>
<text text-anchor="start" x="490.36" y="-282" font-family="Helvetica,sans-Serif" font-size="10.00">userver/storages/mongo</text>
<text text-anchor="middle" x="549.86" y="-271" font-family="Helvetica,sans-Serif" font-size="10.00">/bulk.hpp</text>
</a>
</g>
</g>
<!-- Node7&#45;&gt;Node9 -->
<g id="edge11_Node000007_Node000009" class="edge">
<title>Node7&#45;&gt;Node9</title>
<g id="a_edge11_Node000007_Node000009"><a xlink:title=" ">
<path fill="none" stroke="#63b8ff" d="M549.36,-393.58C516.47,-384.9 483.49,-373.28 473.86,-360 466.03,-349.21 467.53,-341.74 473.86,-330 482.55,-313.87 498.97,-302.1 514.33,-294.04"/>
<polygon fill="#63b8ff" stroke="#63b8ff" points="548.51,-396.98 559.07,-396.07 550.25,-390.2 548.51,-396.98"/>
</a>
</g>
</g>
<!-- Node16 -->
<g id="Node000016" class="node">
<title>Node16</title>
<g id="a_Node000016"><a xlink:href="../../d3/df1/bulk__ops_8hpp.html" target="_top" xlink:title="Bulk sub&#45;operation models.">
<polygon fill="white" stroke="#666666" points="617.36,-360 482.36,-360 482.36,-330 617.36,-330 617.36,-360"/>
<text text-anchor="start" x="490.36" y="-348" font-family="Helvetica,sans-Serif" font-size="10.00">userver/storages/mongo</text>
<text text-anchor="middle" x="549.86" y="-337" font-family="Helvetica,sans-Serif" font-size="10.00">/bulk_ops.hpp</text>
</a>
</g>
</g>
<!-- Node7&#45;&gt;Node16 -->
<g id="edge24_Node000007_Node000016" class="edge">
<title>Node7&#45;&gt;Node16</title>
<g id="a_edge24_Node000007_Node000016"><a xlink:title=" ">
<path fill="none" stroke="#63b8ff" d="M601.84,-389.2C590.41,-379.7 577.16,-368.69 566.9,-360.16"/>
<polygon fill="#63b8ff" stroke="#63b8ff" points="599.84,-392.1 609.77,-395.8 604.32,-386.71 599.84,-392.1"/>
</a>
</g>
</g>
<!-- Node7&#45;&gt;Node17 -->
<g id="edge26_Node000007_Node000017" class="edge">
<title>Node7&#45;&gt;Node17</title>
<g id="a_edge26_Node000007_Node000017"><a xlink:title=" ">
<path fill="none" stroke="#63b8ff" d="M651.56,-389.2C662.84,-379.7 675.92,-368.69 686.04,-360.16"/>
<polygon fill="#63b8ff" stroke="#63b8ff" points="649.12,-386.68 643.73,-395.8 653.63,-392.03 649.12,-386.68"/>
</a>
</g>
</g>
<!-- Node9&#45;&gt;Node8 -->
<g id="edge12_Node000009_Node000008" class="edge">
<title>Node9&#45;&gt;Node8</title>
<g id="a_edge12_Node000009_Node000008"><a xlink:title=" ">
<path fill="none" stroke="#63b8ff" d="M567.47,-256.02C601.87,-213.07 676.69,-119.67 699.87,-90.73"/>
<polygon fill="#63b8ff" stroke="#63b8ff" points="564.67,-253.91 561.15,-263.9 570.13,-258.29 564.67,-253.91"/>
</a>
</g>
</g>
<!-- Node9&#45;&gt;Node10 -->
<g id="edge13_Node000009_Node000010" class="edge">
<title>Node9&#45;&gt;Node10</title>
<g id="a_edge13_Node000009_Node000010"><a xlink:title=" ">
<path fill="none" stroke="#63b8ff" d="M614.24,-261.45C654.59,-251.08 706.02,-237.86 744.34,-228.01"/>
<polygon fill="#63b8ff" stroke="#63b8ff" points="613.32,-258.08 604.5,-263.95 615.06,-264.86 613.32,-258.08"/>
</a>
</g>
</g>
<!-- Node10&#45;&gt;Node6 -->
<g id="edge14_Node000010_Node000006" class="edge">
<title>Node10&#45;&gt;Node6</title>
<g id="a_edge14_Node000010_Node000006"><a xlink:title=" ">
<path fill="none" stroke="#63b8ff" d="M720.9,-200.45C634.8,-187.69 498.33,-167.48 422.43,-156.23"/>
<polygon fill="#63b8ff" stroke="#63b8ff" points="720.48,-203.93 730.89,-201.93 721.51,-197 720.48,-203.93"/>
</a>
</g>
</g>
<!-- Node10&#45;&gt;Node8 -->
<g id="edge15_Node000010_Node000008" class="edge">
<title>Node10&#45;&gt;Node8</title>
<g id="a_edge15_Node000010_Node000008"><a xlink:title=" ">
<path fill="none" stroke="#63b8ff" d="M782.93,-189.49C762.27,-160.29 727.2,-110.74 713.05,-90.75"/>
<polygon fill="#63b8ff" stroke="#63b8ff" points="780.21,-191.7 788.84,-197.84 785.92,-187.66 780.21,-191.7"/>
</a>
</g>
</g>
<!-- Node11 -->
<g id="Node000011" class="node">
<title>Node11</title>
<g id="a_Node000011"><a xlink:href="../../d5/d93/mongo_2include_2userver_2storages_2mongo_2dist__lock__component__base_8hpp.html" target="_top" xlink:title="Base class for mongo&#45;based distlock worker components.">
<polygon fill="white" stroke="#666666" points="1190.36,-96 1017.36,-96 1017.36,-66 1190.36,-66 1190.36,-96"/>
<text text-anchor="start" x="1025.36" y="-84" font-family="Helvetica,sans-Serif" font-size="10.00">userver/storages/mongo</text>
<text text-anchor="middle" x="1103.86" y="-73" font-family="Helvetica,sans-Serif" font-size="10.00">/dist_lock_component_base.hpp</text>
</a>
</g>
</g>
<!-- Node10&#45;&gt;Node11 -->
<g id="edge16_Node000010_Node000011" class="edge">
<title>Node10&#45;&gt;Node11</title>
<g id="a_edge16_Node000010_Node000011"><a xlink:title=" ">
<path fill="none" stroke="#63b8ff" d="M876.55,-210.36C957.37,-206.82 1076.11,-195.83 1104.86,-162 1120.42,-143.69 1114.49,-113.59 1109.01,-96"/>
<polygon fill="#63b8ff" stroke="#63b8ff" points="876.24,-206.87 866.39,-210.78 876.53,-213.87 876.24,-206.87"/>
</a>
</g>
</g>
<!-- Node12 -->
<g id="Node000012" class="node">
<title>Node12</title>
<g id="a_Node000012"><a xlink:href="../../d6/d83/mongo_2include_2userver_2storages_2mongo_2dist__lock__strategy_8hpp_source.html" target="_top" xlink:title=" ">
<polygon fill="white" stroke="#666666" points="1095.36,-162 960.36,-162 960.36,-132 1095.36,-132 1095.36,-162"/>
<text text-anchor="start" x="968.36" y="-150" font-family="Helvetica,sans-Serif" font-size="10.00">userver/storages/mongo</text>
<text text-anchor="middle" x="1027.86" y="-139" font-family="Helvetica,sans-Serif" font-size="10.00">/dist_lock_strategy.hpp</text>
</a>
</g>
</g>
<!-- Node10&#45;&gt;Node12 -->
<g id="edge17_Node000010_Node000012" class="edge">
<title>Node10&#45;&gt;Node12</title>
<g id="a_edge17_Node000010_Node000012"><a xlink:title=" ">
<path fill="none" stroke="#63b8ff" d="M858.78,-195.25C895.78,-184.91 942.7,-171.8 977.72,-162.01"/>
<polygon fill="#63b8ff" stroke="#63b8ff" points="857.8,-191.89 849.12,-197.95 859.69,-198.63 857.8,-191.89"/>
</a>
</g>
</g>
<!-- Node13 -->
<g id="Node000013" class="node">
<title>Node13</title>
<g id="a_Node000013"><a xlink:href="../../d8/d62/mongo_2include_2userver_2storages_2mongo_2pool_8hpp.html" target="_top" xlink:title="MongoDB client pool.">
<polygon fill="white" stroke="#666666" points="942.36,-162 807.36,-162 807.36,-132 942.36,-132 942.36,-162"/>
<text text-anchor="start" x="815.36" y="-150" font-family="Helvetica,sans-Serif" font-size="10.00">userver/storages/mongo</text>
<text text-anchor="middle" x="874.86" y="-139" font-family="Helvetica,sans-Serif" font-size="10.00">/pool.hpp</text>
</a>
</g>
</g>
<!-- Node10&#45;&gt;Node13 -->
<g id="edge19_Node000010_Node000013" class="edge">
<title>Node10&#45;&gt;Node13</title>
<g id="a_edge19_Node000010_Node000013"><a xlink:title=" ">
<path fill="none" stroke="#63b8ff" d="M823.56,-191.2C834.84,-181.7 847.92,-170.69 858.04,-162.16"/>
<polygon fill="#63b8ff" stroke="#63b8ff" points="821.12,-188.68 815.73,-197.8 825.63,-194.03 821.12,-188.68"/>
</a>
</g>
</g>
<!-- Node12&#45;&gt;Node11 -->
<g id="edge18_Node000012_Node000011" class="edge">
<title>Node12&#45;&gt;Node11</title>
<g id="a_edge18_Node000012_Node000011"><a xlink:title=" ">
<path fill="none" stroke="#63b8ff" d="M1052.56,-125.2C1063.84,-115.7 1076.92,-104.69 1087.04,-96.16"/>
<polygon fill="#63b8ff" stroke="#63b8ff" points="1050.12,-122.68 1044.73,-131.8 1054.63,-128.03 1050.12,-122.68"/>
</a>
</g>
</g>
<!-- Node13&#45;&gt;Node8 -->
<g id="edge20_Node000013_Node000008" class="edge">
<title>Node13&#45;&gt;Node8</title>
<g id="a_edge20_Node000013_Node000008"><a xlink:title=" ">
<path fill="none" stroke="#63b8ff" d="M828.29,-128.26C795.98,-115.95 754.39,-100.11 729.22,-90.52"/>
<polygon fill="#63b8ff" stroke="#63b8ff" points="827.4,-131.67 837.99,-131.95 829.89,-125.12 827.4,-131.67"/>
</a>
</g>
</g>
<!-- Node14 -->
<g id="Node000014" class="node">
<title>Node14</title>
<g id="a_Node000014"><a xlink:href="../../d1/dd7/mongo_2include_2userver_2storages_2mongo_2component_8hpp.html" target="_top" xlink:title="MongoDB client component.">
<polygon fill="white" stroke="#666666" points="988.36,-30 853.36,-30 853.36,0 988.36,0 988.36,-30"/>
<text text-anchor="start" x="861.36" y="-18" font-family="Helvetica,sans-Serif" font-size="10.00">userver/storages/mongo</text>
<text text-anchor="middle" x="920.86" y="-7" font-family="Helvetica,sans-Serif" font-size="10.00">/component.hpp</text>
</a>
</g>
</g>
<!-- Node13&#45;&gt;Node14 -->
<g id="edge21_Node000013_Node000014" class="edge">
<title>Node13&#45;&gt;Node14</title>
<g id="a_edge21_Node000013_Node000014"><a xlink:title=" ">
<path fill="none" stroke="#63b8ff" d="M918.87,-126.69C931.13,-119.01 942.97,-108.88 949.86,-96 961.57,-74.12 945.42,-46.5 932.94,-30.1"/>
<polygon fill="#63b8ff" stroke="#63b8ff" points="916.84,-123.82 909.93,-131.85 920.34,-129.88 916.84,-123.82"/>
</a>
</g>
</g>
<!-- Node15 -->
<g id="Node000015" class="node">
<title>Node15</title>
<g id="a_Node000015"><a xlink:href="../../d2/de5/multi__mongo_8hpp_source.html" target="_top" xlink:title=" ">
<polygon fill="white" stroke="#666666" points="940.36,-96 805.36,-96 805.36,-66 940.36,-66 940.36,-96"/>
<text text-anchor="start" x="813.36" y="-84" font-family="Helvetica,sans-Serif" font-size="10.00">userver/storages/mongo</text>
<text text-anchor="middle" x="872.86" y="-73" font-family="Helvetica,sans-Serif" font-size="10.00">/multi_mongo.hpp</text>
</a>
</g>
</g>
<!-- Node13&#45;&gt;Node15 -->
<g id="edge22_Node000013_Node000015" class="edge">
<title>Node13&#45;&gt;Node15</title>
<g id="a_edge22_Node000013_Node000015"><a xlink:title=" ">
<path fill="none" stroke="#63b8ff" d="M874.1,-121.54C873.83,-112.96 873.54,-103.61 873.3,-96.16"/>
<polygon fill="#63b8ff" stroke="#63b8ff" points="870.61,-121.91 874.42,-131.8 877.6,-121.69 870.61,-121.91"/>
</a>
</g>
</g>
<!-- Node15&#45;&gt;Node14 -->
<g id="edge23_Node000015_Node000014" class="edge">
<title>Node15&#45;&gt;Node14</title>
<g id="a_edge23_Node000015_Node000014"><a xlink:title=" ">
<path fill="none" stroke="#63b8ff" d="M889.72,-57.53C896.54,-48.43 904.21,-38.19 910.24,-30.16"/>
<polygon fill="#63b8ff" stroke="#63b8ff" points="886.71,-55.7 883.51,-65.8 892.31,-59.9 886.71,-55.7"/>
</a>
</g>
</g>
<!-- Node16&#45;&gt;Node9 -->
<g id="edge25_Node000016_Node000009" class="edge">
<title>Node16&#45;&gt;Node9</title>
<g id="a_edge25_Node000016_Node000009"><a xlink:title=" ">
<path fill="none" stroke="#63b8ff" d="M549.86,-319.54C549.86,-310.96 549.86,-301.61 549.86,-294.16"/>
<polygon fill="#63b8ff" stroke="#63b8ff" points="546.36,-319.8 549.86,-329.8 553.36,-319.8 546.36,-319.8"/>
</a>
</g>
</g>
<!-- Node17&#45;&gt;Node6 -->
<g id="edge27_Node000017_Node000006" class="edge">
<title>Node17&#45;&gt;Node6</title>
<g id="a_edge27_Node000017_Node000006"><a xlink:title=" ">
<path fill="none" stroke="#63b8ff" d="M625.02,-328.37C561.22,-315.34 480.4,-298.25 473.86,-294 447.25,-276.69 396.02,-195.8 375.58,-162.44"/>
<polygon fill="#63b8ff" stroke="#63b8ff" points="624.6,-331.85 635.1,-330.42 626,-325 624.6,-331.85"/>
</a>
</g>
</g>
<!-- Node17&#45;&gt;Node10 -->
<g id="edge28_Node000017_Node000010" class="edge">
<title>Node17&#45;&gt;Node10</title>
<g id="a_edge28_Node000017_Node000010"><a xlink:title=" ">
<path fill="none" stroke="#63b8ff" d="M744.56,-324.84C757.6,-316.98 770.91,-306.7 779.86,-294 793.92,-274.05 797.68,-245.06 798.62,-228"/>
<polygon fill="#63b8ff" stroke="#63b8ff" points="742.61,-321.92 735.63,-329.9 746.06,-328.02 742.61,-321.92"/>
</a>
</g>
</g>
<!-- Node18&#45;&gt;Node2 -->
<g id="edge31_Node000018_Node000002" class="edge">
<title>Node18&#45;&gt;Node2</title>
<g id="a_edge31_Node000018_Node000002"><a xlink:title=" ">
<path fill="none" stroke="#63b8ff" d="M645.24,-466.67C548.26,-453.71 384.33,-431.27 371.86,-426 351.72,-417.48 352.01,-406.56 332.86,-396 298.94,-377.29 256.61,-363 228.27,-354.58"/>
<polygon fill="#63b8ff" stroke="#63b8ff" points="644.91,-470.15 655.28,-468 645.83,-463.21 644.91,-470.15"/>
</a>
</g>
</g>
<!-- Node18&#45;&gt;Node5 -->
<g id="edge34_Node000018_Node000005" class="edge">
<title>Node18&#45;&gt;Node5</title>
<g id="a_edge34_Node000018_Node000005"><a xlink:title=" ">
<path fill="none" stroke="#63b8ff" d="M644.99,-466.81C544.2,-453.7 368.33,-430.7 338.86,-426 334.15,-425.25 329.28,-424.43 324.4,-423.58"/>
<polygon fill="#63b8ff" stroke="#63b8ff" points="644.74,-470.3 655.1,-468.12 645.64,-463.36 644.74,-470.3"/>
</a>
</g>
</g>
<!-- Node18&#45;&gt;Node6 -->
<g id="edge30_Node000018_Node000006" class="edge">
<title>Node18&#45;&gt;Node6</title>
<g id="a_edge30_Node000018_Node000006"><a xlink:title=" ">
<path fill="none" stroke="#63b8ff" d="M645.06,-460.56C615.04,-452.51 580.28,-441.13 550.86,-426 531.41,-416 531.46,-405.71 511.86,-396 456.99,-368.81 422.8,-402.65 378.86,-360 323.97,-306.73 350.18,-200.53 362.08,-162.21"/>
<polygon fill="#63b8ff" stroke="#63b8ff" points="644.48,-464.03 655.04,-463.17 646.25,-457.26 644.48,-464.03"/>
</a>
</g>
</g>
<!-- Node18&#45;&gt;Node7 -->
<g id="edge45_Node000018_Node000007" class="edge">
<title>Node18&#45;&gt;Node7</title>
<g id="a_edge45_Node000018_Node000007"><a xlink:title=" ">
<path fill="none" stroke="#63b8ff" d="M687.7,-455.75C674.32,-446.13 658.64,-434.86 646.56,-426.16"/>
<polygon fill="#63b8ff" stroke="#63b8ff" points="685.95,-458.8 696.11,-461.8 690.03,-453.12 685.95,-458.8"/>
</a>
</g>
</g>
<!-- Node18&#45;&gt;Node10 -->
<g id="edge40_Node000018_Node000010" class="edge">
<title>Node18&#45;&gt;Node10</title>
<g id="a_edge40_Node000018_Node000010"><a xlink:title=" ">
<path fill="none" stroke="#63b8ff" d="M752.45,-456.46C764.16,-448.5 776.09,-438.24 783.86,-426 824.5,-361.98 809.56,-264.13 802.08,-228.02"/>
<polygon fill="#63b8ff" stroke="#63b8ff" points="750.56,-453.52 744.03,-461.86 754.34,-459.41 750.56,-453.52"/>
</a>
</g>
</g>
<!-- Node18&#45;&gt;Node16 -->
<g id="edge39_Node000018_Node000016" class="edge">
<title>Node18&#45;&gt;Node16</title>
<g id="a_edge39_Node000018_Node000016"><a xlink:title=" ">
<path fill="none" stroke="#63b8ff" d="M718.51,-451.75C719.05,-434.31 716.79,-411.26 703.86,-396 691.96,-381.95 651.91,-369.19 615.64,-360.07"/>
<polygon fill="#63b8ff" stroke="#63b8ff" points="715.01,-451.57 717.88,-461.77 722,-452 715.01,-451.57"/>
</a>
</g>
</g>
<!-- Node18&#45;&gt;Node17 -->
<g id="edge44_Node000018_Node000017" class="edge">
<title>Node18&#45;&gt;Node17</title>
<g id="a_edge44_Node000018_Node000017"><a xlink:title=" ">
<path fill="none" stroke="#63b8ff" d="M728.93,-452.56C736.18,-436.54 742.67,-414.87 736.86,-396 732.72,-382.56 723.6,-369.49 715.85,-360.08"/>
<polygon fill="#63b8ff" stroke="#63b8ff" points="725.69,-451.22 724.42,-461.74 731.98,-454.31 725.69,-451.22"/>
</a>
</g>
</g>
<!-- Node19 -->
<g id="Node000019" class="node">
<title>Node19</title>
<g id="a_Node000019"><a xlink:href="../../db/d2e/binary_8hpp.html" target="_top" xlink:title="Binary representation helpers.">
<polygon fill="white" stroke="#666666" points="502.36,-426 381.36,-426 381.36,-396 502.36,-396 502.36,-426"/>
<text text-anchor="start" x="389.36" y="-414" font-family="Helvetica,sans-Serif" font-size="10.00">userver/formats/bson</text>
<text text-anchor="middle" x="441.86" y="-403" font-family="Helvetica,sans-Serif" font-size="10.00">/binary.hpp</text>
</a>
</g>
</g>
<!-- Node18&#45;&gt;Node19 -->
<g id="edge32_Node000018_Node000019" class="edge">
<title>Node18&#45;&gt;Node19</title>
<g id="a_edge32_Node000018_Node000019"><a xlink:title=" ">
<path fill="none" stroke="#63b8ff" d="M645.85,-459.65C601.33,-449.25 544.29,-435.93 501.85,-426.01"/>
<polygon fill="#63b8ff" stroke="#63b8ff" points="645.2,-463.09 655.73,-461.95 646.79,-456.27 645.2,-463.09"/>
</a>
</g>
</g>
<!-- Node18&#45;&gt;Node20 -->
<g id="edge35_Node000018_Node000020" class="edge">
<title>Node18&#45;&gt;Node20</title>
<g id="a_edge35_Node000018_Node000020"><a xlink:title=" ">
<path fill="none" stroke="#63b8ff" d="M779.99,-459.45C820.17,-449.08 871.39,-435.86 909.56,-426.01"/>
<polygon fill="#63b8ff" stroke="#63b8ff" points="779.09,-456.07 770.28,-461.95 780.84,-462.85 779.09,-456.07"/>
</a>
</g>
</g>
<!-- Node18&#45;&gt;Node21 -->
<g id="edge36_Node000018_Node000021" class="edge">
<title>Node18&#45;&gt;Node21</title>
<g id="a_edge36_Node000018_Node000021"><a xlink:title=" ">
<path fill="none" stroke="#63b8ff" d="M644.85,-466.36C632.52,-464.81 619.83,-463.3 607.86,-462 424.24,-442.12 377.48,-445.88 193.86,-426 178.54,-424.34 162.03,-422.32 146.64,-420.34"/>
<polygon fill="#63b8ff" stroke="#63b8ff" points="644.72,-469.87 655.08,-467.66 645.61,-462.93 644.72,-469.87"/>
</a>
</g>
</g>
<!-- Node22 -->
<g id="Node000022" class="node">
<title>Node22</title>
<g id="a_Node000022"><a xlink:href="../../d7/dfb/cursor_8hpp.html" target="_top" xlink:title="Interface for MongoDB query cursors.">
<polygon fill="white" stroke="#666666" points="770.36,-294 635.36,-294 635.36,-264 770.36,-264 770.36,-294"/>
<text text-anchor="start" x="643.36" y="-282" font-family="Helvetica,sans-Serif" font-size="10.00">userver/storages/mongo</text>
<text text-anchor="middle" x="702.86" y="-271" font-family="Helvetica,sans-Serif" font-size="10.00">/cursor.hpp</text>
</a>
</g>
</g>
<!-- Node18&#45;&gt;Node22 -->
<g id="edge41_Node000018_Node000022" class="edge">
<title>Node18&#45;&gt;Node22</title>
<g id="a_edge41_Node000018_Node000022"><a xlink:title=" ">
<path fill="none" stroke="#63b8ff" d="M737.74,-454.43C764.36,-425.46 803.04,-372.68 779.86,-330 771.11,-313.89 754.69,-302.17 739.25,-294.14"/>
<polygon fill="#63b8ff" stroke="#63b8ff" points="734.96,-452.28 730.61,-461.94 740.04,-457.1 734.96,-452.28"/>
</a>
</g>
</g>
<!-- Node18&#45;&gt;Node23 -->
<g id="edge46_Node000018_Node000023" class="edge">
<title>Node18&#45;&gt;Node23</title>
<g id="a_edge46_Node000018_Node000023"><a xlink:title=" ">
<path fill="none" stroke="#63b8ff" d="M785.98,-460.35C808.52,-452.77 832.4,-441.77 850.86,-426 894.19,-388.99 919.24,-323.07 928.6,-294.2"/>
<polygon fill="#63b8ff" stroke="#63b8ff" points="784.89,-457.02 776.43,-463.39 787.02,-463.69 784.89,-457.02"/>
</a>
</g>
</g>
<!-- Node19&#45;&gt;Node2 -->
<g id="edge33_Node000019_Node000002" class="edge">
<title>Node19&#45;&gt;Node2</title>
<g id="a_edge33_Node000019_Node000002"><a xlink:title=" ">
<path fill="none" stroke="#63b8ff" d="M378.17,-393.36C330.51,-380.91 267.28,-364.4 229.47,-354.52"/>
<polygon fill="#63b8ff" stroke="#63b8ff" points="377.53,-396.81 388.09,-395.95 379.3,-390.04 377.53,-396.81"/>
</a>
</g>
</g>
<!-- Node21&#45;&gt;Node2 -->
<g id="edge38_Node000021_Node000002" class="edge">
<title>Node21&#45;&gt;Node2</title>
<g id="a_edge38_Node000021_Node000002"><a xlink:title=" ">
<path fill="none" stroke="#63b8ff" d="M119.14,-390.81C140.09,-378.73 166.1,-363.73 182.09,-354.52"/>
<polygon fill="#63b8ff" stroke="#63b8ff" points="117.13,-387.93 110.22,-395.95 120.63,-393.99 117.13,-387.93"/>
</a>
</g>
</g>
<!-- Node21&#45;&gt;Node6 -->
<g id="edge37_Node000021_Node000006" class="edge">
<title>Node21&#45;&gt;Node6</title>
<g id="a_edge37_Node000021_Node000006"><a xlink:title=" ">
<path fill="none" stroke="#63b8ff" d="M91.28,-386.07C95.98,-369.16 104.08,-346.62 116.86,-330 178.88,-249.36 286.07,-188.38 337.57,-162.14"/>
<polygon fill="#63b8ff" stroke="#63b8ff" points="87.88,-385.22 88.78,-395.78 94.66,-386.97 87.88,-385.22"/>
</a>
</g>
</g>
<!-- Node22&#45;&gt;Node8 -->
<g id="edge42_Node000022_Node000008" class="edge">
<title>Node22&#45;&gt;Node8</title>
<g id="a_edge42_Node000022_Node000008"><a xlink:title=" ">
<path fill="none" stroke="#63b8ff" d="M703.35,-253.83C704.25,-209.97 706.1,-119.18 706.68,-90.73"/>
<polygon fill="#63b8ff" stroke="#63b8ff" points="699.85,-253.83 703.15,-263.9 706.85,-253.98 699.85,-253.83"/>
</a>
</g>
</g>
<!-- Node22&#45;&gt;Node10 -->
<g id="edge43_Node000022_Node000010" class="edge">
<title>Node22&#45;&gt;Node10</title>
<g id="a_edge43_Node000022_Node000010"><a xlink:title=" ">
<path fill="none" stroke="#63b8ff" d="M732.82,-258.03C747.35,-248.34 764.45,-236.94 777.61,-228.16"/>
<polygon fill="#63b8ff" stroke="#63b8ff" points="730.54,-255.34 724.17,-263.8 734.43,-261.16 730.54,-255.34"/>
</a>
</g>
</g>
<!-- Node23&#45;&gt;Node8 -->
<g id="edge47_Node000023_Node000008" class="edge">
<title>Node23&#45;&gt;Node8</title>
<g id="a_edge47_Node000023_Node000008"><a xlink:title=" ">
<path fill="none" stroke="#63b8ff" d="M920.75,-254.89C910.65,-237.43 894.88,-213.84 875.86,-198 846.83,-173.82 830.46,-182.71 798.86,-162 782.01,-150.95 780.05,-145.25 764.86,-132 748.23,-117.49 728.78,-100.78 717.16,-90.82"/>
<polygon fill="#63b8ff" stroke="#63b8ff" points="917.83,-256.85 925.76,-263.88 923.94,-253.44 917.83,-256.85"/>
</a>
</g>
</g>
<!-- Node23&#45;&gt;Node10 -->
<g id="edge48_Node000023_Node000010" class="edge">
<title>Node23&#45;&gt;Node10</title>
<g id="a_edge48_Node000023_Node000010"><a xlink:title=" ">
<path fill="none" stroke="#63b8ff" d="M894.15,-259.51C873.13,-249.47 847.56,-237.26 828.2,-228.01"/>
<polygon fill="#63b8ff" stroke="#63b8ff" points="892.92,-262.8 903.45,-263.95 895.94,-256.49 892.92,-262.8"/>
</a>
</g>
</g>
</g>
</svg>
