<?xml version="1.0" encoding="UTF-8" standalone="no"?>
<!DOCTYPE svg PUBLIC "-//W3C//DTD SVG 1.1//EN"
 "http://www.w3.org/Graphics/SVG/1.1/DTD/svg11.dtd">
<!-- Generated by graphviz version 2.43.0 (0)
 -->
<!-- Title: userver/utils/statistics/fmt.hpp Pages: 1 -->
<svg width="885pt" height="236pt"
 viewBox="0.00 0.00 885.00 236.00" xmlns="http://www.w3.org/2000/svg" xmlns:xlink="http://www.w3.org/1999/xlink">
<g id="graph0" class="graph" transform="scale(1 1) rotate(0) translate(4 232)">
<title>userver/utils/statistics/fmt.hpp</title>
<!-- Node1 -->
<g id="Node000001" class="node">
<title>Node1</title>
<g id="a_Node000001"><a xlink:title="fmt formatters for various statistics types">
<polygon fill="#999999" stroke="#666666" points="560,-228 435,-228 435,-198 560,-198 560,-228"/>
<text text-anchor="start" x="443" y="-216" font-family="Helvetica,sans-Serif" font-size="10.00">userver/utils/statistics</text>
<text text-anchor="middle" x="497.5" y="-205" font-family="Helvetica,sans-Serif" font-size="10.00">/fmt.hpp</text>
</a>
</g>
</g>
<!-- Node2 -->
<g id="Node000002" class="node">
<title>Node2</title>
<g id="a_Node000002"><a xlink:title=" ">
<polygon fill="#e0e0e0" stroke="#999999" points="647,-90.5 596,-90.5 596,-71.5 647,-71.5 647,-90.5"/>
<text text-anchor="middle" x="621.5" y="-78.5" font-family="Helvetica,sans-Serif" font-size="10.00">variant</text>
</a>
</g>
</g>
<!-- Node1&#45;&gt;Node2 -->
<g id="edge1_Node000001_Node000002" class="edge">
<title>Node1&#45;&gt;Node2</title>
<g id="a_edge1_Node000001_Node000002"><a xlink:title=" ">
<path fill="none" stroke="#63b8ff" d="M532.69,-197.92C550.05,-189.57 570.27,-177.55 584.5,-162 600.84,-144.15 611.11,-117.81 616.58,-100.3"/>
<polygon fill="#63b8ff" stroke="#63b8ff" points="619.94,-101.26 619.37,-90.68 613.22,-99.31 619.94,-101.26"/>
</a>
</g>
</g>
<!-- Node3 -->
<g id="Node000003" class="node">
<title>Node3</title>
<g id="a_Node000003"><a xlink:title=" ">
<polygon fill="#e0e0e0" stroke="#999999" points="258,-156.5 179,-156.5 179,-137.5 258,-137.5 258,-156.5"/>
<text text-anchor="middle" x="218.5" y="-144.5" font-family="Helvetica,sans-Serif" font-size="10.00">fmt/format.h</text>
</a>
</g>
</g>
<!-- Node1&#45;&gt;Node3 -->
<g id="edge2_Node000001_Node000003" class="edge">
<title>Node1&#45;&gt;Node3</title>
<g id="a_edge2_Node000001_Node000003"><a xlink:title=" ">
<path fill="none" stroke="#63b8ff" d="M434.77,-199.5C388.39,-189.98 323.78,-176.14 267.5,-162 264.09,-161.14 260.56,-160.22 257.03,-159.26"/>
<polygon fill="#63b8ff" stroke="#63b8ff" points="257.75,-155.83 247.18,-156.53 255.88,-162.57 257.75,-155.83"/>
</a>
</g>
</g>
<!-- Node4 -->
<g id="Node000004" class="node">
<title>Node4</title>
<g id="a_Node000004"><a xlink:href="../../d3/d6c/fmt__compat_8hpp_source.html" target="_top" xlink:title=" ">
<polygon fill="white" stroke="#666666" points="161,-156.5 0,-156.5 0,-137.5 161,-137.5 161,-156.5"/>
<text text-anchor="middle" x="80.5" y="-144.5" font-family="Helvetica,sans-Serif" font-size="10.00">userver/utils/fmt_compat.hpp</text>
</a>
</g>
</g>
<!-- Node1&#45;&gt;Node4 -->
<g id="edge3_Node000001_Node000004" class="edge">
<title>Node1&#45;&gt;Node4</title>
<g id="a_edge3_Node000001_Node000004"><a xlink:title=" ">
<path fill="none" stroke="#63b8ff" d="M434.91,-202.55C368.9,-192.56 261.86,-176.3 169.5,-162 161.48,-160.76 153.05,-159.44 144.71,-158.14"/>
<polygon fill="#63b8ff" stroke="#63b8ff" points="145.04,-154.65 134.62,-156.56 143.96,-161.56 145.04,-154.65"/>
</a>
</g>
</g>
<!-- Node6 -->
<g id="Node000006" class="node">
<title>Node6</title>
<g id="a_Node000006"><a xlink:href="../../da/df1/overloaded_8hpp.html" target="_top" xlink:title="Utility to define std::variant visitors in a simple way.">
<polygon fill="white" stroke="#666666" points="575.5,-156.5 419.5,-156.5 419.5,-137.5 575.5,-137.5 575.5,-156.5"/>
<text text-anchor="middle" x="497.5" y="-144.5" font-family="Helvetica,sans-Serif" font-size="10.00">userver/utils/overloaded.hpp</text>
</a>
</g>
</g>
<!-- Node1&#45;&gt;Node6 -->
<g id="edge5_Node000001_Node000006" class="edge">
<title>Node1&#45;&gt;Node6</title>
<g id="a_edge5_Node000001_Node000006"><a xlink:title=" ">
<path fill="none" stroke="#63b8ff" d="M497.5,-197.8C497.5,-188.7 497.5,-176.79 497.5,-166.9"/>
<polygon fill="#63b8ff" stroke="#63b8ff" points="501,-166.84 497.5,-156.84 494,-166.84 501,-166.84"/>
</a>
</g>
</g>
<!-- Node7 -->
<g id="Node000007" class="node">
<title>Node7</title>
<g id="a_Node000007"><a xlink:href="../../d1/d0e/labels_8hpp.html" target="_top" xlink:title="Owning and non owning labels representations.">
<polygon fill="white" stroke="#666666" points="401,-162 276,-162 276,-132 401,-132 401,-162"/>
<text text-anchor="start" x="284" y="-150" font-family="Helvetica,sans-Serif" font-size="10.00">userver/utils/statistics</text>
<text text-anchor="middle" x="338.5" y="-139" font-family="Helvetica,sans-Serif" font-size="10.00">/labels.hpp</text>
</a>
</g>
</g>
<!-- Node1&#45;&gt;Node7 -->
<g id="edge6_Node000001_Node000007" class="edge">
<title>Node1&#45;&gt;Node7</title>
<g id="a_edge6_Node000001_Node000007"><a xlink:title=" ">
<path fill="none" stroke="#63b8ff" d="M462.61,-197.95C439.1,-188.49 407.9,-175.93 382.66,-165.78"/>
<polygon fill="#63b8ff" stroke="#63b8ff" points="383.9,-162.5 373.31,-162.01 381.28,-168.99 383.9,-162.5"/>
</a>
</g>
</g>
<!-- Node11 -->
<g id="Node000011" class="node">
<title>Node11</title>
<g id="a_Node000011"><a xlink:href="../../da/d8a/metric__value_8hpp.html" target="_top" xlink:title="The value of a metric. Only integer and floating&#45;point metrics are allowed.">
<polygon fill="white" stroke="#666666" points="757,-162 632,-162 632,-132 757,-132 757,-162"/>
<text text-anchor="start" x="640" y="-150" font-family="Helvetica,sans-Serif" font-size="10.00">userver/utils/statistics</text>
<text text-anchor="middle" x="694.5" y="-139" font-family="Helvetica,sans-Serif" font-size="10.00">/metric_value.hpp</text>
</a>
</g>
</g>
<!-- Node1&#45;&gt;Node11 -->
<g id="edge10_Node000001_Node000011" class="edge">
<title>Node1&#45;&gt;Node11</title>
<g id="a_edge10_Node000001_Node000011"><a xlink:title=" ">
<path fill="none" stroke="#63b8ff" d="M540.73,-197.95C570.5,-188.28 610.22,-175.38 641.84,-165.11"/>
<polygon fill="#63b8ff" stroke="#63b8ff" points="642.94,-168.43 651.37,-162.01 640.78,-161.77 642.94,-168.43"/>
</a>
</g>
</g>
<!-- Node13 -->
<g id="Node000013" class="node">
<title>Node13</title>
<g id="a_Node000013"><a xlink:href="../../d6/dab/rate_8hpp.html" target="_top" xlink:title=" ">
<polygon fill="white" stroke="#666666" points="848,-96 723,-96 723,-66 848,-66 848,-96"/>
<text text-anchor="start" x="731" y="-84" font-family="Helvetica,sans-Serif" font-size="10.00">userver/utils/statistics</text>
<text text-anchor="middle" x="785.5" y="-73" font-family="Helvetica,sans-Serif" font-size="10.00">/rate.hpp</text>
</a>
</g>
</g>
<!-- Node1&#45;&gt;Node13 -->
<g id="edge16_Node000001_Node000013" class="edge">
<title>Node1&#45;&gt;Node13</title>
<g id="a_edge16_Node000001_Node000013"><a xlink:title=" ">
<path fill="none" stroke="#63b8ff" d="M560.14,-208.14C630.14,-202.52 737.51,-189.59 766.5,-162 781.47,-147.75 785.58,-124.03 786.33,-106.11"/>
<polygon fill="#63b8ff" stroke="#63b8ff" points="789.83,-106.13 786.44,-96.09 782.83,-106.06 789.83,-106.13"/>
</a>
</g>
</g>
<!-- Node5 -->
<g id="Node000005" class="node">
<title>Node5</title>
<g id="a_Node000005"><a xlink:title=" ">
<polygon fill="#e0e0e0" stroke="#999999" points="114,-90.5 47,-90.5 47,-71.5 114,-71.5 114,-90.5"/>
<text text-anchor="middle" x="80.5" y="-78.5" font-family="Helvetica,sans-Serif" font-size="10.00">fmt/core.h</text>
</a>
</g>
</g>
<!-- Node4&#45;&gt;Node5 -->
<g id="edge4_Node000004_Node000005" class="edge">
<title>Node4&#45;&gt;Node5</title>
<g id="a_edge4_Node000004_Node000005"><a xlink:title=" ">
<path fill="none" stroke="#63b8ff" d="M80.5,-137.37C80.5,-128.16 80.5,-113.29 80.5,-101.27"/>
<polygon fill="#63b8ff" stroke="#63b8ff" points="84,-100.91 80.5,-90.91 77,-100.91 84,-100.91"/>
</a>
</g>
</g>
<!-- Node8 -->
<g id="Node000008" class="node">
<title>Node8</title>
<g id="a_Node000008"><a xlink:title=" ">
<polygon fill="#e0e0e0" stroke="#999999" points="435.5,-90.5 391.5,-90.5 391.5,-71.5 435.5,-71.5 435.5,-90.5"/>
<text text-anchor="middle" x="413.5" y="-78.5" font-family="Helvetica,sans-Serif" font-size="10.00">string</text>
</a>
</g>
</g>
<!-- Node7&#45;&gt;Node8 -->
<g id="edge7_Node000007_Node000008" class="edge">
<title>Node7&#45;&gt;Node8</title>
<g id="a_edge7_Node000007_Node000008"><a xlink:title=" ">
<path fill="none" stroke="#63b8ff" d="M355.14,-131.8C367.07,-121.62 383.11,-107.93 395.36,-97.48"/>
<polygon fill="#63b8ff" stroke="#63b8ff" points="397.8,-100 403.14,-90.84 393.26,-94.67 397.8,-100"/>
</a>
</g>
</g>
<!-- Node9 -->
<g id="Node000009" class="node">
<title>Node9</title>
<g id="a_Node000009"><a xlink:title=" ">
<polygon fill="#e0e0e0" stroke="#999999" points="286,-90.5 213,-90.5 213,-71.5 286,-71.5 286,-90.5"/>
<text text-anchor="middle" x="249.5" y="-78.5" font-family="Helvetica,sans-Serif" font-size="10.00">string_view</text>
</a>
</g>
</g>
<!-- Node7&#45;&gt;Node9 -->
<g id="edge8_Node000007_Node000009" class="edge">
<title>Node7&#45;&gt;Node9</title>
<g id="a_edge8_Node000007_Node000009"><a xlink:title=" ">
<path fill="none" stroke="#63b8ff" d="M318.75,-131.8C304.24,-121.37 284.6,-107.24 269.94,-96.69"/>
<polygon fill="#63b8ff" stroke="#63b8ff" points="271.7,-93.66 261.54,-90.66 267.62,-99.34 271.7,-93.66"/>
</a>
</g>
</g>
<!-- Node10 -->
<g id="Node000010" class="node">
<title>Node10</title>
<g id="a_Node000010"><a xlink:title=" ">
<polygon fill="#e0e0e0" stroke="#999999" points="373,-90.5 304,-90.5 304,-71.5 373,-71.5 373,-90.5"/>
<text text-anchor="middle" x="338.5" y="-78.5" font-family="Helvetica,sans-Serif" font-size="10.00">type_traits</text>
</a>
</g>
</g>
<!-- Node7&#45;&gt;Node10 -->
<g id="edge9_Node000007_Node000010" class="edge">
<title>Node7&#45;&gt;Node10</title>
<g id="a_edge9_Node000007_Node000010"><a xlink:title=" ">
<path fill="none" stroke="#63b8ff" d="M338.5,-131.8C338.5,-122.7 338.5,-110.79 338.5,-100.9"/>
<polygon fill="#63b8ff" stroke="#63b8ff" points="342,-100.84 338.5,-90.84 335,-100.84 342,-100.84"/>
</a>
</g>
</g>
<!-- Node11&#45;&gt;Node2 -->
<g id="edge12_Node000011_Node000002" class="edge">
<title>Node11&#45;&gt;Node2</title>
<g id="a_edge12_Node000011_Node000002"><a xlink:title=" ">
<path fill="none" stroke="#63b8ff" d="M678.3,-131.8C666.7,-121.62 651.08,-107.93 639.16,-97.48"/>
<polygon fill="#63b8ff" stroke="#63b8ff" points="641.41,-94.8 631.59,-90.84 636.8,-100.07 641.41,-94.8"/>
</a>
</g>
</g>
<!-- Node12 -->
<g id="Node000012" class="node">
<title>Node12</title>
<g id="a_Node000012"><a xlink:title=" ">
<polygon fill="#e0e0e0" stroke="#999999" points="719.5,-24.5 669.5,-24.5 669.5,-5.5 719.5,-5.5 719.5,-24.5"/>
<text text-anchor="middle" x="694.5" y="-12.5" font-family="Helvetica,sans-Serif" font-size="10.00">cstdint</text>
</a>
</g>
</g>
<!-- Node11&#45;&gt;Node12 -->
<g id="edge11_Node000011_Node000012" class="edge">
<title>Node11&#45;&gt;Node12</title>
<g id="a_edge11_Node000011_Node000012"><a xlink:title=" ">
<path fill="none" stroke="#63b8ff" d="M694.5,-131.84C694.5,-108.34 694.5,-61.26 694.5,-34.93"/>
<polygon fill="#63b8ff" stroke="#63b8ff" points="698,-34.75 694.5,-24.75 691,-34.75 698,-34.75"/>
</a>
</g>
</g>
<!-- Node11&#45;&gt;Node13 -->
<g id="edge13_Node000011_Node000013" class="edge">
<title>Node11&#45;&gt;Node13</title>
<g id="a_edge13_Node000011_Node000013"><a xlink:title=" ">
<path fill="none" stroke="#63b8ff" d="M714.7,-131.8C727.18,-123.01 743.4,-111.61 757.16,-101.93"/>
<polygon fill="#63b8ff" stroke="#63b8ff" points="759.19,-104.78 765.36,-96.16 755.17,-99.05 759.19,-104.78"/>
</a>
</g>
</g>
<!-- Node13&#45;&gt;Node12 -->
<g id="edge14_Node000013_Node000012" class="edge">
<title>Node13&#45;&gt;Node12</title>
<g id="a_edge14_Node000013_Node000012"><a xlink:title=" ">
<path fill="none" stroke="#63b8ff" d="M765.3,-65.8C750.47,-55.37 730.39,-41.24 715.39,-30.69"/>
<polygon fill="#63b8ff" stroke="#63b8ff" points="717,-27.55 706.81,-24.66 712.98,-33.27 717,-27.55"/>
</a>
</g>
</g>
<!-- Node14 -->
<g id="Node000014" class="node">
<title>Node14</title>
<g id="a_Node000014"><a xlink:href="../../d6/d8e/universal_2include_2userver_2formats_2serialize_2to_8hpp.html" target="_top" xlink:title="Helper for serializers.">
<polygon fill="white" stroke="#666666" points="877,-30 738,-30 738,0 877,0 877,-30"/>
<text text-anchor="start" x="746" y="-18" font-family="Helvetica,sans-Serif" font-size="10.00">userver/formats/serialize</text>
<text text-anchor="middle" x="807.5" y="-7" font-family="Helvetica,sans-Serif" font-size="10.00">/to.hpp</text>
</a>
</g>
</g>
<!-- Node13&#45;&gt;Node14 -->
<g id="edge15_Node000013_Node000014" class="edge">
<title>Node13&#45;&gt;Node14</title>
<g id="a_edge15_Node000013_Node000014"><a xlink:title=" ">
<path fill="none" stroke="#63b8ff" d="M790.38,-65.8C793,-58.17 796.3,-48.57 799.3,-39.84"/>
<polygon fill="#63b8ff" stroke="#63b8ff" points="802.69,-40.76 802.63,-30.16 796.07,-38.48 802.69,-40.76"/>
</a>
</g>
</g>
</g>
</svg>
