<?xml version="1.0" encoding="UTF-8" standalone="no"?>
<!DOCTYPE svg PUBLIC "-//W3C//DTD SVG 1.1//EN"
 "http://www.w3.org/Graphics/SVG/1.1/DTD/svg11.dtd">
<!-- Generated by graphviz version 2.43.0 (0)
 -->
<!-- Title: userver/formats/parse/common.hpp Pages: 1 -->
<svg width="1287pt" height="291pt"
 viewBox="0.00 0.00 1287.44 291.00" xmlns="http://www.w3.org/2000/svg" xmlns:xlink="http://www.w3.org/1999/xlink">
<g id="graph0" class="graph" transform="scale(1 1) rotate(0) translate(4 287)">
<title>userver/formats/parse/common.hpp</title>
<!-- Node1 -->
<g id="Node000001" class="node">
<title>Node1</title>
<g id="a_Node000001"><a xlink:title="Parsers and converters for std::chrono::seconds, std::chrono::system_clock::time_point and integral t...">
<polygon fill="#999999" stroke="#666666" points="596.44,-283 471.44,-283 471.44,-253 596.44,-253 596.44,-283"/>
<text text-anchor="start" x="479.44" y="-271" font-family="Helvetica,sans-Serif" font-size="10.00">userver/formats/parse</text>
<text text-anchor="middle" x="533.94" y="-260" font-family="Helvetica,sans-Serif" font-size="10.00">/common.hpp</text>
</a>
</g>
</g>
<!-- Node2 -->
<g id="Node000002" class="node">
<title>Node2</title>
<g id="a_Node000002"><a xlink:title=" ">
<polygon fill="#e0e0e0" stroke="#999999" points="159.94,-145.5 109.94,-145.5 109.94,-126.5 159.94,-126.5 159.94,-145.5"/>
<text text-anchor="middle" x="134.94" y="-133.5" font-family="Helvetica,sans-Serif" font-size="10.00">chrono</text>
</a>
</g>
</g>
<!-- Node1&#45;&gt;Node2 -->
<g id="edge1_Node000001_Node000002" class="edge">
<title>Node1&#45;&gt;Node2</title>
<g id="a_edge1_Node000001_Node000002"><a xlink:title=" ">
<path fill="none" stroke="#63b8ff" d="M471.38,-265.68C338.7,-262.22 38.6,-250.72 7.94,-217 -23.67,-182.25 52.21,-156.77 99.87,-144.74"/>
<polygon fill="#63b8ff" stroke="#63b8ff" points="100.97,-148.07 109.86,-142.31 99.31,-141.27 100.97,-148.07"/>
</a>
</g>
</g>
<!-- Node3 -->
<g id="Node000003" class="node">
<title>Node3</title>
<g id="a_Node000003"><a xlink:title=" ">
<polygon fill="#e0e0e0" stroke="#999999" points="526.94,-211.5 476.94,-211.5 476.94,-192.5 526.94,-192.5 526.94,-211.5"/>
<text text-anchor="middle" x="501.94" y="-199.5" font-family="Helvetica,sans-Serif" font-size="10.00">cstdint</text>
</a>
</g>
</g>
<!-- Node1&#45;&gt;Node3 -->
<g id="edge2_Node000001_Node000003" class="edge">
<title>Node1&#45;&gt;Node3</title>
<g id="a_edge2_Node000001_Node000003"><a xlink:title=" ">
<path fill="none" stroke="#63b8ff" d="M526.83,-252.8C522.14,-243.41 515.94,-231.02 510.91,-220.95"/>
<polygon fill="#63b8ff" stroke="#63b8ff" points="513.96,-219.22 506.36,-211.84 507.7,-222.35 513.96,-219.22"/>
</a>
</g>
</g>
<!-- Node4 -->
<g id="Node000004" class="node">
<title>Node4</title>
<g id="a_Node000004"><a xlink:title=" ">
<polygon fill="#e0e0e0" stroke="#999999" points="588.94,-211.5 544.94,-211.5 544.94,-192.5 588.94,-192.5 588.94,-211.5"/>
<text text-anchor="middle" x="566.94" y="-199.5" font-family="Helvetica,sans-Serif" font-size="10.00">limits</text>
</a>
</g>
</g>
<!-- Node1&#45;&gt;Node4 -->
<g id="edge3_Node000001_Node000004" class="edge">
<title>Node1&#45;&gt;Node4</title>
<g id="a_edge3_Node000001_Node000004"><a xlink:title=" ">
<path fill="none" stroke="#63b8ff" d="M541.26,-252.8C546.1,-243.41 552.49,-231.02 557.68,-220.95"/>
<polygon fill="#63b8ff" stroke="#63b8ff" points="560.9,-222.34 562.38,-211.84 554.68,-219.13 560.9,-222.34"/>
</a>
</g>
</g>
<!-- Node5 -->
<g id="Node000005" class="node">
<title>Node5</title>
<g id="a_Node000005"><a xlink:title=" ">
<polygon fill="#e0e0e0" stroke="#999999" points="686.44,-211.5 607.44,-211.5 607.44,-192.5 686.44,-192.5 686.44,-211.5"/>
<text text-anchor="middle" x="646.94" y="-199.5" font-family="Helvetica,sans-Serif" font-size="10.00">fmt/format.h</text>
</a>
</g>
</g>
<!-- Node1&#45;&gt;Node5 -->
<g id="edge4_Node000001_Node000005" class="edge">
<title>Node1&#45;&gt;Node5</title>
<g id="a_edge4_Node000001_Node000005"><a xlink:title=" ">
<path fill="none" stroke="#63b8ff" d="M558.73,-252.95C577.85,-242.13 604.13,-227.24 623.02,-216.54"/>
<polygon fill="#63b8ff" stroke="#63b8ff" points="624.92,-219.49 631.9,-211.52 621.47,-213.4 624.92,-219.49"/>
</a>
</g>
</g>
<!-- Node6 -->
<g id="Node000006" class="node">
<title>Node6</title>
<g id="a_Node000006"><a xlink:href="../../da/d00/universal_2include_2userver_2formats_2common_2meta_8hpp.html" target="_top" xlink:title="Metaprogramming helpers for converters detection.">
<polygon fill="white" stroke="#666666" points="1097.94,-217 957.94,-217 957.94,-187 1097.94,-187 1097.94,-217"/>
<text text-anchor="start" x="965.94" y="-205" font-family="Helvetica,sans-Serif" font-size="10.00">userver/formats/common</text>
<text text-anchor="middle" x="1027.94" y="-194" font-family="Helvetica,sans-Serif" font-size="10.00">/meta.hpp</text>
</a>
</g>
</g>
<!-- Node1&#45;&gt;Node6 -->
<g id="edge5_Node000001_Node000006" class="edge">
<title>Node1&#45;&gt;Node6</title>
<g id="a_edge5_Node000001_Node000006"><a xlink:title=" ">
<path fill="none" stroke="#63b8ff" d="M596.5,-258.89C685.77,-247.33 849.71,-226.09 947.77,-213.39"/>
<polygon fill="#63b8ff" stroke="#63b8ff" points="948.46,-216.83 957.93,-212.07 947.56,-209.88 948.46,-216.83"/>
</a>
</g>
</g>
<!-- Node8 -->
<g id="Node000008" class="node">
<title>Node8</title>
<g id="a_Node000008"><a xlink:href="../../d2/dc8/universal_2include_2userver_2formats_2parse_2to_8hpp.html" target="_top" xlink:title="Helper for parsers.">
<polygon fill="white" stroke="#666666" points="1279.44,-151 1154.44,-151 1154.44,-121 1279.44,-121 1279.44,-151"/>
<text text-anchor="start" x="1162.44" y="-139" font-family="Helvetica,sans-Serif" font-size="10.00">userver/formats/parse</text>
<text text-anchor="middle" x="1216.94" y="-128" font-family="Helvetica,sans-Serif" font-size="10.00">/to.hpp</text>
</a>
</g>
</g>
<!-- Node1&#45;&gt;Node8 -->
<g id="edge13_Node000001_Node000008" class="edge">
<title>Node1&#45;&gt;Node8</title>
<g id="a_edge13_Node000001_Node000008"><a xlink:title=" ">
<path fill="none" stroke="#63b8ff" d="M596.53,-265.75C725.15,-262.49 1014.81,-251.46 1106.94,-217 1141.45,-204.09 1174.76,-177.19 1195.51,-158.15"/>
<polygon fill="#63b8ff" stroke="#63b8ff" points="1197.93,-160.69 1202.83,-151.29 1193.14,-155.58 1197.93,-160.69"/>
</a>
</g>
</g>
<!-- Node12 -->
<g id="Node000012" class="node">
<title>Node12</title>
<g id="a_Node000012"><a xlink:href="../../d7/d4a/datetime_8hpp.html" target="_top" xlink:title="Date and Time related converters.">
<polygon fill="white" stroke="#666666" points="458.94,-211.5 312.94,-211.5 312.94,-192.5 458.94,-192.5 458.94,-211.5"/>
<text text-anchor="middle" x="385.94" y="-199.5" font-family="Helvetica,sans-Serif" font-size="10.00">userver/utils/datetime.hpp</text>
</a>
</g>
</g>
<!-- Node1&#45;&gt;Node12 -->
<g id="edge14_Node000001_Node000012" class="edge">
<title>Node1&#45;&gt;Node12</title>
<g id="a_edge14_Node000001_Node000012"><a xlink:title=" ">
<path fill="none" stroke="#63b8ff" d="M501.46,-252.95C475.62,-241.78 439.79,-226.29 414.91,-215.53"/>
<polygon fill="#63b8ff" stroke="#63b8ff" points="416.2,-212.27 405.63,-211.52 413.42,-218.7 416.2,-212.27"/>
</a>
</g>
</g>
<!-- Node16 -->
<g id="Node000016" class="node">
<title>Node16</title>
<g id="a_Node000016"><a xlink:href="../../dd/d10/from__string__saturating_8hpp.html" target="_top" xlink:title="Saturating converters from strings to time points.">
<polygon fill="white" stroke="#666666" points="168.94,-217 16.94,-217 16.94,-187 168.94,-187 168.94,-217"/>
<text text-anchor="start" x="24.94" y="-205" font-family="Helvetica,sans-Serif" font-size="10.00">userver/utils/datetime</text>
<text text-anchor="middle" x="92.94" y="-194" font-family="Helvetica,sans-Serif" font-size="10.00">/from_string_saturating.hpp</text>
</a>
</g>
</g>
<!-- Node1&#45;&gt;Node16 -->
<g id="edge19_Node000001_Node000016" class="edge">
<title>Node1&#45;&gt;Node16</title>
<g id="a_edge19_Node000001_Node000016"><a xlink:title=" ">
<path fill="none" stroke="#63b8ff" d="M471.17,-258.64C402.15,-249.35 287.7,-233.64 179.49,-217.22"/>
<polygon fill="#63b8ff" stroke="#63b8ff" points="179.79,-213.72 169.38,-215.68 178.74,-220.64 179.79,-213.72"/>
</a>
</g>
</g>
<!-- Node17 -->
<g id="Node000017" class="node">
<title>Node17</title>
<g id="a_Node000017"><a xlink:href="../../d0/d03/universal_2include_2userver_2utils_2meta_8hpp.html" target="_top" xlink:title="Metaprogramming, template variables and concepts.">
<polygon fill="white" stroke="#666666" points="831.44,-211.5 704.44,-211.5 704.44,-192.5 831.44,-192.5 831.44,-211.5"/>
<text text-anchor="middle" x="767.94" y="-199.5" font-family="Helvetica,sans-Serif" font-size="10.00">userver/utils/meta.hpp</text>
</a>
</g>
</g>
<!-- Node1&#45;&gt;Node17 -->
<g id="edge22_Node000001_Node000017" class="edge">
<title>Node1&#45;&gt;Node17</title>
<g id="a_edge22_Node000001_Node000017"><a xlink:title=" ">
<path fill="none" stroke="#63b8ff" d="M585.29,-252.95C627.86,-241.31 687.58,-224.98 726.99,-214.2"/>
<polygon fill="#63b8ff" stroke="#63b8ff" points="728.07,-217.53 736.79,-211.52 726.23,-210.78 728.07,-217.53"/>
</a>
</g>
</g>
<!-- Node22 -->
<g id="Node000022" class="node">
<title>Node22</title>
<g id="a_Node000022"><a xlink:href="../../dc/dff/string__to__duration_8hpp.html" target="_top" xlink:title="Converts strings like &quot;10s&quot;, &quot;5d&quot;, &quot;1h&quot; to durations.">
<polygon fill="white" stroke="#666666" points="294.94,-217 186.94,-217 186.94,-187 294.94,-187 294.94,-217"/>
<text text-anchor="start" x="194.94" y="-205" font-family="Helvetica,sans-Serif" font-size="10.00">userver/utils/string</text>
<text text-anchor="middle" x="240.94" y="-194" font-family="Helvetica,sans-Serif" font-size="10.00">_to_duration.hpp</text>
</a>
</g>
</g>
<!-- Node1&#45;&gt;Node22 -->
<g id="edge29_Node000001_Node000022" class="edge">
<title>Node1&#45;&gt;Node22</title>
<g id="a_edge29_Node000001_Node000022"><a xlink:title=" ">
<path fill="none" stroke="#63b8ff" d="M470.95,-253.39C427.07,-243.89 366.89,-230.82 305.15,-217.26"/>
<polygon fill="#63b8ff" stroke="#63b8ff" points="305.75,-213.81 295.23,-215.08 304.24,-220.65 305.75,-213.81"/>
</a>
</g>
</g>
<!-- Node7 -->
<g id="Node000007" class="node">
<title>Node7</title>
<g id="a_Node000007"><a xlink:title=" ">
<polygon fill="#e0e0e0" stroke="#999999" points="926.44,-19 857.44,-19 857.44,0 926.44,0 926.44,-19"/>
<text text-anchor="middle" x="891.94" y="-7" font-family="Helvetica,sans-Serif" font-size="10.00">type_traits</text>
</a>
</g>
</g>
<!-- Node6&#45;&gt;Node7 -->
<g id="edge6_Node000006_Node000007" class="edge">
<title>Node6&#45;&gt;Node7</title>
<g id="a_edge6_Node000006_Node000007"><a xlink:title=" ">
<path fill="none" stroke="#63b8ff" d="M1065.65,-186.88C1081.37,-178.9 1098.01,-167.21 1106.94,-151 1113.37,-139.32 1113.88,-132.38 1106.94,-121 1069.94,-60.38 987.91,-31.62 936.55,-19.09"/>
<polygon fill="#63b8ff" stroke="#63b8ff" points="937.24,-15.66 926.71,-16.79 935.65,-22.47 937.24,-15.66"/>
</a>
</g>
</g>
<!-- Node6&#45;&gt;Node8 -->
<g id="edge7_Node000006_Node000008" class="edge">
<title>Node6&#45;&gt;Node8</title>
<g id="a_edge7_Node000006_Node000008"><a xlink:title=" ">
<path fill="none" stroke="#63b8ff" d="M1069.41,-186.95C1097.85,-177.33 1135.75,-164.49 1166.02,-154.24"/>
<polygon fill="#63b8ff" stroke="#63b8ff" points="1167.21,-157.53 1175.56,-151.01 1164.96,-150.9 1167.21,-157.53"/>
</a>
</g>
</g>
<!-- Node9 -->
<g id="Node000009" class="node">
<title>Node9</title>
<g id="a_Node000009"><a xlink:href="../../d6/d8e/universal_2include_2userver_2formats_2serialize_2to_8hpp.html" target="_top" xlink:title="Helper for serializers.">
<polygon fill="white" stroke="#666666" points="1097.44,-151 958.44,-151 958.44,-121 1097.44,-121 1097.44,-151"/>
<text text-anchor="start" x="966.44" y="-139" font-family="Helvetica,sans-Serif" font-size="10.00">userver/formats/serialize</text>
<text text-anchor="middle" x="1027.94" y="-128" font-family="Helvetica,sans-Serif" font-size="10.00">/to.hpp</text>
</a>
</g>
</g>
<!-- Node6&#45;&gt;Node9 -->
<g id="edge8_Node000006_Node000009" class="edge">
<title>Node6&#45;&gt;Node9</title>
<g id="a_edge8_Node000006_Node000009"><a xlink:title=" ">
<path fill="none" stroke="#63b8ff" d="M1027.94,-186.8C1027.94,-179.34 1027.94,-169.99 1027.94,-161.41"/>
<polygon fill="#63b8ff" stroke="#63b8ff" points="1031.44,-161.16 1027.94,-151.16 1024.44,-161.16 1031.44,-161.16"/>
</a>
</g>
</g>
<!-- Node10 -->
<g id="Node000010" class="node">
<title>Node10</title>
<g id="a_Node000010"><a xlink:href="../../d3/da0/meta__light_8hpp.html" target="_top" xlink:title="Lightweight concepts.">
<polygon fill="white" stroke="#666666" points="939.94,-151 833.94,-151 833.94,-121 939.94,-121 939.94,-151"/>
<text text-anchor="start" x="841.94" y="-139" font-family="Helvetica,sans-Serif" font-size="10.00">userver/utils/meta</text>
<text text-anchor="middle" x="886.94" y="-128" font-family="Helvetica,sans-Serif" font-size="10.00">_light.hpp</text>
</a>
</g>
</g>
<!-- Node6&#45;&gt;Node10 -->
<g id="edge9_Node000006_Node000010" class="edge">
<title>Node6&#45;&gt;Node10</title>
<g id="a_edge9_Node000006_Node000010"><a xlink:title=" ">
<path fill="none" stroke="#63b8ff" d="M996.99,-186.95C976.42,-177.62 949.21,-165.27 926.99,-155.18"/>
<polygon fill="#63b8ff" stroke="#63b8ff" points="928.36,-151.96 917.81,-151.01 925.47,-158.33 928.36,-151.96"/>
</a>
</g>
</g>
<!-- Node10&#45;&gt;Node7 -->
<g id="edge10_Node000010_Node000007" class="edge">
<title>Node10&#45;&gt;Node7</title>
<g id="a_edge10_Node000010_Node000007"><a xlink:title=" ">
<path fill="none" stroke="#63b8ff" d="M896.64,-120.86C902.64,-111.23 909.78,-97.93 912.94,-85 916.1,-72.05 915.85,-68.01 912.94,-55 910.86,-45.74 906.63,-36.14 902.51,-28.23"/>
<polygon fill="#63b8ff" stroke="#63b8ff" points="905.44,-26.31 897.51,-19.28 899.33,-29.72 905.44,-26.31"/>
</a>
</g>
</g>
<!-- Node11 -->
<g id="Node000011" class="node">
<title>Node11</title>
<g id="a_Node000011"><a xlink:href="../../d9/dce/void__t_8hpp.html" target="_top" xlink:title="std::void_t implementation with workarounds for compiler bugs">
<polygon fill="white" stroke="#666666" points="903.44,-85 802.44,-85 802.44,-55 903.44,-55 903.44,-85"/>
<text text-anchor="start" x="810.44" y="-73" font-family="Helvetica,sans-Serif" font-size="10.00">userver/utils/void</text>
<text text-anchor="middle" x="852.94" y="-62" font-family="Helvetica,sans-Serif" font-size="10.00">_t.hpp</text>
</a>
</g>
</g>
<!-- Node10&#45;&gt;Node11 -->
<g id="edge11_Node000010_Node000011" class="edge">
<title>Node10&#45;&gt;Node11</title>
<g id="a_edge11_Node000010_Node000011"><a xlink:title=" ">
<path fill="none" stroke="#63b8ff" d="M879.39,-120.8C875.25,-113.01 870.02,-103.16 865.3,-94.28"/>
<polygon fill="#63b8ff" stroke="#63b8ff" points="868.24,-92.35 860.46,-85.16 862.06,-95.64 868.24,-92.35"/>
</a>
</g>
</g>
<!-- Node11&#45;&gt;Node7 -->
<g id="edge12_Node000011_Node000007" class="edge">
<title>Node11&#45;&gt;Node7</title>
<g id="a_edge12_Node000011_Node000007"><a xlink:title=" ">
<path fill="none" stroke="#63b8ff" d="M862.38,-54.84C867.81,-46.69 874.67,-36.4 880.42,-27.78"/>
<polygon fill="#63b8ff" stroke="#63b8ff" points="883.46,-29.53 886.09,-19.27 877.63,-25.65 883.46,-29.53"/>
</a>
</g>
</g>
<!-- Node12&#45;&gt;Node2 -->
<g id="edge15_Node000012_Node000002" class="edge">
<title>Node12&#45;&gt;Node2</title>
<g id="a_edge15_Node000012_Node000002"><a xlink:title=" ">
<path fill="none" stroke="#63b8ff" d="M352.35,-192.44C304.8,-180.31 218.31,-158.26 169.99,-145.94"/>
<polygon fill="#63b8ff" stroke="#63b8ff" points="170.55,-142.47 160,-143.39 168.82,-149.25 170.55,-142.47"/>
</a>
</g>
</g>
<!-- Node13 -->
<g id="Node000013" class="node">
<title>Node13</title>
<g id="a_Node000013"><a xlink:title=" ">
<polygon fill="#e0e0e0" stroke="#999999" points="492.44,-145.5 427.44,-145.5 427.44,-126.5 492.44,-126.5 492.44,-145.5"/>
<text text-anchor="middle" x="459.94" y="-133.5" font-family="Helvetica,sans-Serif" font-size="10.00">stdexcept</text>
</a>
</g>
</g>
<!-- Node12&#45;&gt;Node13 -->
<g id="edge16_Node000012_Node000013" class="edge">
<title>Node12&#45;&gt;Node13</title>
<g id="a_edge16_Node000012_Node000013"><a xlink:title=" ">
<path fill="none" stroke="#63b8ff" d="M395.92,-192.37C407.66,-182.21 427.38,-165.16 441.83,-152.65"/>
<polygon fill="#63b8ff" stroke="#63b8ff" points="444.36,-155.09 449.64,-145.91 439.79,-149.8 444.36,-155.09"/>
</a>
</g>
</g>
<!-- Node14 -->
<g id="Node000014" class="node">
<title>Node14</title>
<g id="a_Node000014"><a xlink:title=" ">
<polygon fill="#e0e0e0" stroke="#999999" points="262.94,-145.5 218.94,-145.5 218.94,-126.5 262.94,-126.5 262.94,-145.5"/>
<text text-anchor="middle" x="240.94" y="-133.5" font-family="Helvetica,sans-Serif" font-size="10.00">string</text>
</a>
</g>
</g>
<!-- Node12&#45;&gt;Node14 -->
<g id="edge17_Node000012_Node000014" class="edge">
<title>Node12&#45;&gt;Node14</title>
<g id="a_edge17_Node000012_Node000014"><a xlink:title=" ">
<path fill="none" stroke="#63b8ff" d="M366.38,-192.37C341.62,-181.44 298.76,-162.52 270.13,-149.88"/>
<polygon fill="#63b8ff" stroke="#63b8ff" points="271.21,-146.54 260.64,-145.7 268.38,-152.94 271.21,-146.54"/>
</a>
</g>
</g>
<!-- Node15 -->
<g id="Node000015" class="node">
<title>Node15</title>
<g id="a_Node000015"><a xlink:title=" ">
<polygon fill="#e0e0e0" stroke="#999999" points="408.94,-145.5 312.94,-145.5 312.94,-126.5 408.94,-126.5 408.94,-145.5"/>
<text text-anchor="middle" x="360.94" y="-133.5" font-family="Helvetica,sans-Serif" font-size="10.00">cctz/civil_time.h</text>
</a>
</g>
</g>
<!-- Node12&#45;&gt;Node15 -->
<g id="edge18_Node000012_Node000015" class="edge">
<title>Node12&#45;&gt;Node15</title>
<g id="a_edge18_Node000012_Node000015"><a xlink:title=" ">
<path fill="none" stroke="#63b8ff" d="M382.56,-192.37C378.89,-182.97 372.92,-167.67 368.17,-155.53"/>
<polygon fill="#63b8ff" stroke="#63b8ff" points="371.31,-153.95 364.41,-145.91 364.79,-156.49 371.31,-153.95"/>
</a>
</g>
</g>
<!-- Node16&#45;&gt;Node2 -->
<g id="edge20_Node000016_Node000002" class="edge">
<title>Node16&#45;&gt;Node2</title>
<g id="a_edge20_Node000016_Node000002"><a xlink:title=" ">
<path fill="none" stroke="#63b8ff" d="M102.26,-186.8C108.55,-177.21 116.89,-164.5 123.57,-154.32"/>
<polygon fill="#63b8ff" stroke="#63b8ff" points="126.57,-156.13 129.13,-145.84 120.72,-152.28 126.57,-156.13"/>
</a>
</g>
</g>
<!-- Node16&#45;&gt;Node14 -->
<g id="edge21_Node000016_Node000014" class="edge">
<title>Node16&#45;&gt;Node14</title>
<g id="a_edge21_Node000016_Node000014"><a xlink:title=" ">
<path fill="none" stroke="#63b8ff" d="M125.41,-186.95C151.26,-175.78 187.08,-160.29 211.96,-149.53"/>
<polygon fill="#63b8ff" stroke="#63b8ff" points="213.45,-152.7 221.24,-145.52 210.67,-146.27 213.45,-152.7"/>
</a>
</g>
</g>
<!-- Node17&#45;&gt;Node7 -->
<g id="edge26_Node000017_Node000007" class="edge">
<title>Node17&#45;&gt;Node7</title>
<g id="a_edge26_Node000017_Node000007"><a xlink:title=" ">
<path fill="none" stroke="#63b8ff" d="M765.86,-192.21C763.64,-182.28 760.24,-165.58 758.94,-151 754.9,-105.77 760.85,-86.11 793.94,-55 809.82,-40.07 831.57,-29.5 850.56,-22.43"/>
<polygon fill="#63b8ff" stroke="#63b8ff" points="851.91,-25.66 860.18,-19.04 849.59,-19.06 851.91,-25.66"/>
</a>
</g>
</g>
<!-- Node17&#45;&gt;Node10 -->
<g id="edge28_Node000017_Node000010" class="edge">
<title>Node17&#45;&gt;Node10</title>
<g id="a_edge28_Node000017_Node000010"><a xlink:title=" ">
<path fill="none" stroke="#63b8ff" d="M783.98,-192.37C801.27,-183.07 829.31,-167.99 851.77,-155.91"/>
<polygon fill="#63b8ff" stroke="#63b8ff" points="853.54,-158.93 860.69,-151.12 850.22,-152.77 853.54,-158.93"/>
</a>
</g>
</g>
<!-- Node18 -->
<g id="Node000018" class="node">
<title>Node18</title>
<g id="a_Node000018"><a xlink:title=" ">
<polygon fill="#e0e0e0" stroke="#999999" points="815.94,-145.5 767.94,-145.5 767.94,-126.5 815.94,-126.5 815.94,-145.5"/>
<text text-anchor="middle" x="791.94" y="-133.5" font-family="Helvetica,sans-Serif" font-size="10.00">iosfwd</text>
</a>
</g>
</g>
<!-- Node17&#45;&gt;Node18 -->
<g id="edge23_Node000017_Node000018" class="edge">
<title>Node17&#45;&gt;Node18</title>
<g id="a_edge23_Node000017_Node000018"><a xlink:title=" ">
<path fill="none" stroke="#63b8ff" d="M771.17,-192.37C774.7,-182.97 780.43,-167.67 784.99,-155.53"/>
<polygon fill="#63b8ff" stroke="#63b8ff" points="788.36,-156.5 788.6,-145.91 781.81,-154.04 788.36,-156.5"/>
</a>
</g>
</g>
<!-- Node19 -->
<g id="Node000019" class="node">
<title>Node19</title>
<g id="a_Node000019"><a xlink:title=" ">
<polygon fill="#e0e0e0" stroke="#999999" points="571.44,-145.5 518.44,-145.5 518.44,-126.5 571.44,-126.5 571.44,-145.5"/>
<text text-anchor="middle" x="544.94" y="-133.5" font-family="Helvetica,sans-Serif" font-size="10.00">iterator</text>
</a>
</g>
</g>
<!-- Node17&#45;&gt;Node19 -->
<g id="edge24_Node000017_Node000019" class="edge">
<title>Node17&#45;&gt;Node19</title>
<g id="a_edge24_Node000017_Node000019"><a xlink:title=" ">
<path fill="none" stroke="#63b8ff" d="M731.39,-192.49C693.44,-183.35 632.52,-167.87 580.94,-151 579.07,-150.39 577.16,-149.74 575.25,-149.06"/>
<polygon fill="#63b8ff" stroke="#63b8ff" points="576.33,-145.73 565.74,-145.53 573.9,-152.29 576.33,-145.73"/>
</a>
</g>
</g>
<!-- Node20 -->
<g id="Node000020" class="node">
<title>Node20</title>
<g id="a_Node000020"><a xlink:title=" ">
<polygon fill="#e0e0e0" stroke="#999999" points="645.94,-145.5 589.94,-145.5 589.94,-126.5 645.94,-126.5 645.94,-145.5"/>
<text text-anchor="middle" x="617.94" y="-133.5" font-family="Helvetica,sans-Serif" font-size="10.00">optional</text>
</a>
</g>
</g>
<!-- Node17&#45;&gt;Node20 -->
<g id="edge25_Node000017_Node000020" class="edge">
<title>Node17&#45;&gt;Node20</title>
<g id="a_edge25_Node000017_Node000020"><a xlink:title=" ">
<path fill="none" stroke="#63b8ff" d="M747.71,-192.37C721.99,-181.39 677.37,-162.36 647.75,-149.72"/>
<polygon fill="#63b8ff" stroke="#63b8ff" points="648.9,-146.4 638.32,-145.7 646.15,-152.84 648.9,-146.4"/>
</a>
</g>
</g>
<!-- Node21 -->
<g id="Node000021" class="node">
<title>Node21</title>
<g id="a_Node000021"><a xlink:title=" ">
<polygon fill="#e0e0e0" stroke="#999999" points="711.44,-145.5 664.44,-145.5 664.44,-126.5 711.44,-126.5 711.44,-145.5"/>
<text text-anchor="middle" x="687.94" y="-133.5" font-family="Helvetica,sans-Serif" font-size="10.00">vector</text>
</a>
</g>
</g>
<!-- Node17&#45;&gt;Node21 -->
<g id="edge27_Node000017_Node000021" class="edge">
<title>Node17&#45;&gt;Node21</title>
<g id="a_edge27_Node000017_Node000021"><a xlink:title=" ">
<path fill="none" stroke="#63b8ff" d="M757.15,-192.37C744.26,-182.06 722.49,-164.65 706.8,-152.09"/>
<polygon fill="#63b8ff" stroke="#63b8ff" points="708.8,-149.21 698.81,-145.7 704.43,-154.68 708.8,-149.21"/>
</a>
</g>
</g>
<!-- Node22&#45;&gt;Node2 -->
<g id="edge30_Node000022_Node000002" class="edge">
<title>Node22&#45;&gt;Node2</title>
<g id="a_edge30_Node000022_Node000002"><a xlink:title=" ">
<path fill="none" stroke="#63b8ff" d="M217.67,-186.95C199.82,-176.18 175.31,-161.38 157.61,-150.69"/>
<polygon fill="#63b8ff" stroke="#63b8ff" points="159.41,-147.69 149.04,-145.52 155.79,-153.68 159.41,-147.69"/>
</a>
</g>
</g>
<!-- Node22&#45;&gt;Node14 -->
<g id="edge31_Node000022_Node000014" class="edge">
<title>Node22&#45;&gt;Node14</title>
<g id="a_edge31_Node000022_Node000014"><a xlink:title=" ">
<path fill="none" stroke="#63b8ff" d="M240.94,-186.8C240.94,-177.7 240.94,-165.79 240.94,-155.9"/>
<polygon fill="#63b8ff" stroke="#63b8ff" points="244.44,-155.84 240.94,-145.84 237.44,-155.84 244.44,-155.84"/>
</a>
</g>
</g>
</g>
</svg>
