<?xml version="1.0" encoding="UTF-8" standalone="no"?>
<!DOCTYPE svg PUBLIC "-//W3C//DTD SVG 1.1//EN"
 "http://www.w3.org/Graphics/SVG/1.1/DTD/svg11.dtd">
<!-- Generated by graphviz version 2.42.4 (0)
 -->
<!-- Title: userver/utils/expected.hpp Pages: 1 -->
<svg width="403pt" height="181pt"
 viewBox="0.00 0.00 403.00 181.00" xmlns="http://www.w3.org/2000/svg" xmlns:xlink="http://www.w3.org/1999/xlink">
<g id="graph0" class="graph" transform="scale(1 1) rotate(0) translate(4 177)">
<title>userver/utils/expected.hpp</title>
<!-- Node1 -->
<g id="Node000001" class="node">
<title>Node1</title>
<g id="a_Node000001"><a xlink:title="For holding a value or an error.">
<polygon fill="#999999" stroke="#666666" points="246.5,-173 100.5,-173 100.5,-154 246.5,-154 246.5,-173"/>
<text text-anchor="middle" x="173.5" y="-161" font-family="Helvetica,sans-Serif" font-size="10.00">userver/utils/expected.hpp</text>
</a>
</g>
</g>
<!-- Node2 -->
<g id="Node000002" class="node">
<title>Node2</title>
<g id="a_Node000002"><a xlink:href="../../d3/df3/opentelemetry_8hpp_source.html" target="_top" xlink:title=" ">
<polygon fill="white" stroke="#666666" points="185,-112.5 0,-112.5 0,-93.5 185,-93.5 185,-112.5"/>
<text text-anchor="middle" x="92.5" y="-100.5" font-family="Helvetica,sans-Serif" font-size="10.00">userver/tracing/opentelemetry.hpp</text>
</a>
</g>
</g>
<!-- Node1&#45;&gt;Node2 -->
<g id="edge1_Node000001_Node000002" class="edge">
<title>Node1&#45;&gt;Node2</title>
<g id="a_edge1_Node000001_Node000002"><a xlink:title=" ">
<path fill="none" stroke="#63b8ff" d="M153.21,-147.85C137.87,-136.77 117.32,-121.93 104.5,-112.67"/>
<polygon fill="#63b8ff" stroke="#63b8ff" points="151.39,-150.85 161.55,-153.87 155.49,-145.18 151.39,-150.85"/>
</a>
</g>
</g>
<!-- Node3 -->
<g id="Node000003" class="node">
<title>Node3</title>
<g id="a_Node000003"><a xlink:href="../../d5/d39/from__string_8hpp.html" target="_top" xlink:title="Extract the number contained in the string. No space characters or other extra characters allowed....">
<polygon fill="white" stroke="#666666" points="307.5,-118 203.5,-118 203.5,-88 307.5,-88 307.5,-118"/>
<text text-anchor="start" x="211.5" y="-106" font-family="Helvetica,sans-Serif" font-size="10.00">userver/utils/from</text>
<text text-anchor="middle" x="255.5" y="-95" font-family="Helvetica,sans-Serif" font-size="10.00">_string.hpp</text>
</a>
</g>
</g>
<!-- Node1&#45;&gt;Node3 -->
<g id="edge2_Node000001_Node000003" class="edge">
<title>Node1&#45;&gt;Node3</title>
<g id="a_edge2_Node000001_Node000003"><a xlink:title=" ">
<path fill="none" stroke="#63b8ff" d="M193.78,-148.03C206.58,-138.9 223.02,-127.17 235.72,-118.11"/>
<polygon fill="#63b8ff" stroke="#63b8ff" points="191.71,-145.21 185.6,-153.87 195.77,-150.91 191.71,-145.21"/>
</a>
</g>
</g>
<!-- Node4 -->
<g id="Node000004" class="node">
<title>Node4</title>
<g id="a_Node000004"><a xlink:href="../../d9/d3b/wrapper__to__json__test_8cpp_source.html" target="_top" xlink:title=" ">
<polygon fill="white" stroke="#666666" points="244,-52 119,-52 119,0 244,0 244,-52"/>
<text text-anchor="start" x="127" y="-40" font-family="Helvetica,sans-Serif" font-size="10.00">/data/code/userver</text>
<text text-anchor="start" x="127" y="-29" font-family="Helvetica,sans-Serif" font-size="10.00">/libraries/protobuf</text>
<text text-anchor="start" x="127" y="-18" font-family="Helvetica,sans-Serif" font-size="10.00">/tests/json/wrapper_to</text>
<text text-anchor="middle" x="181.5" y="-7" font-family="Helvetica,sans-Serif" font-size="10.00">_json_test.cpp</text>
</a>
</g>
</g>
<!-- Node3&#45;&gt;Node4 -->
<g id="edge3_Node000003_Node000004" class="edge">
<title>Node3&#45;&gt;Node4</title>
<g id="a_edge3_Node000003_Node000004"><a xlink:title=" ">
<path fill="none" stroke="#63b8ff" d="M234.37,-80.58C225.66,-71.76 215.51,-61.47 206.44,-52.28"/>
<polygon fill="#63b8ff" stroke="#63b8ff" points="232.07,-83.23 241.58,-87.89 237.05,-78.32 232.07,-83.23"/>
</a>
</g>
</g>
<!-- Node5 -->
<g id="Node000005" class="node">
<title>Node5</title>
<g id="a_Node000005"><a xlink:href="../../d0/d9f/responses_8cpp_source.html" target="_top" xlink:title=" ">
<polygon fill="white" stroke="#666666" points="395,-52 262,-52 262,0 395,0 395,-52"/>
<text text-anchor="start" x="270" y="-40" font-family="Helvetica,sans-Serif" font-size="10.00">/data/code/userver</text>
<text text-anchor="start" x="270" y="-29" font-family="Helvetica,sans-Serif" font-size="10.00">/libraries/s3api/src</text>
<text text-anchor="start" x="270" y="-18" font-family="Helvetica,sans-Serif" font-size="10.00">/s3api/models/multipart</text>
<text text-anchor="middle" x="328.5" y="-7" font-family="Helvetica,sans-Serif" font-size="10.00">_upload/responses.cpp</text>
</a>
</g>
</g>
<!-- Node3&#45;&gt;Node5 -->
<g id="edge4_Node000003_Node000005" class="edge">
<title>Node3&#45;&gt;Node5</title>
<g id="a_edge4_Node000003_Node000005"><a xlink:title=" ">
<path fill="none" stroke="#63b8ff" d="M276.35,-80.58C284.94,-71.76 294.95,-61.47 303.9,-52.28"/>
<polygon fill="#63b8ff" stroke="#63b8ff" points="273.7,-78.29 269.23,-87.89 278.71,-83.17 273.7,-78.29"/>
</a>
</g>
</g>
</g>
</svg>
