<?xml version="1.0" encoding="UTF-8" standalone="no"?>
<!DOCTYPE svg PUBLIC "-//W3C//DTD SVG 1.1//EN"
 "http://www.w3.org/Graphics/SVG/1.1/DTD/svg11.dtd">
<!-- Generated by graphviz version 2.43.0 (0)
 -->
<!-- Title: storages::postgres::TransactionError Pages: 1 -->
<svg width="258pt" height="346pt"
 viewBox="0.00 0.00 258.00 346.00" xmlns="http://www.w3.org/2000/svg" xmlns:xlink="http://www.w3.org/1999/xlink">
<g id="graph0" class="graph" transform="scale(1 1) rotate(0) translate(4 342)">
<title>storages::postgres::TransactionError</title>
<!-- Node1 -->
<g id="Node000001" class="node">
<title>Node1</title>
<g id="a_Node000001"><a xlink:title=" ">
<polygon fill="#999999" stroke="#666666" points="183,-96 76,-96 76,-66 183,-66 183,-96"/>
<text text-anchor="start" x="84" y="-84" font-family="Helvetica,sans-Serif" font-size="10.00">storages::postgres</text>
<text text-anchor="middle" x="129.5" y="-73" font-family="Helvetica,sans-Serif" font-size="10.00">::TransactionError</text>
</a>
</g>
</g>
<!-- Node6 -->
<g id="Node000006" class="node">
<title>Node6</title>
<g id="a_Node000006"><a xlink:href="../../dd/d03/classstorages_1_1postgres_1_1AlreadyInTransaction.html" target="_top" xlink:title=" ">
<polygon fill="white" stroke="#bfbfbf" points="125,-30 0,-30 0,0 125,0 125,-30"/>
<text text-anchor="start" x="8" y="-18" font-family="Helvetica,sans-Serif" font-size="10.00">storages::postgres</text>
<text text-anchor="middle" x="62.5" y="-7" font-family="Helvetica,sans-Serif" font-size="10.00">::AlreadyInTransaction</text>
</a>
</g>
</g>
<!-- Node1&#45;&gt;Node6 -->
<g id="edge5_Node000001_Node000006" class="edge">
<title>Node1&#45;&gt;Node6</title>
<g id="a_edge5_Node000001_Node000006"><a xlink:title=" ">
<path fill="none" stroke="#63b8ff" d="M107.15,-58.65C97.33,-49.27 86.08,-38.53 77.33,-30.16"/>
<polygon fill="#63b8ff" stroke="#63b8ff" points="104.98,-61.42 114.63,-65.8 109.82,-56.36 104.98,-61.42"/>
</a>
</g>
</g>
<!-- Node7 -->
<g id="Node000007" class="node">
<title>Node7</title>
<g id="a_Node000007"><a xlink:href="../../d8/dcd/classstorages_1_1postgres_1_1NotInTransaction.html" target="_top" xlink:title=" ">
<polygon fill="white" stroke="#bfbfbf" points="250,-30 143,-30 143,0 250,0 250,-30"/>
<text text-anchor="start" x="151" y="-18" font-family="Helvetica,sans-Serif" font-size="10.00">storages::postgres</text>
<text text-anchor="middle" x="196.5" y="-7" font-family="Helvetica,sans-Serif" font-size="10.00">::NotInTransaction</text>
</a>
</g>
</g>
<!-- Node1&#45;&gt;Node7 -->
<g id="edge6_Node000001_Node000007" class="edge">
<title>Node1&#45;&gt;Node7</title>
<g id="a_edge6_Node000001_Node000007"><a xlink:title=" ">
<path fill="none" stroke="#63b8ff" d="M151.85,-58.65C161.67,-49.27 172.92,-38.53 181.67,-30.16"/>
<polygon fill="#63b8ff" stroke="#63b8ff" points="149.18,-56.36 144.37,-65.8 154.02,-61.42 149.18,-56.36"/>
</a>
</g>
</g>
<!-- Node2 -->
<g id="Node000002" class="node">
<title>Node2</title>
<g id="a_Node000002"><a xlink:href="../../d4/d74/classstorages_1_1postgres_1_1LogicError.html" target="_top" xlink:title="Base Postgres logic error. Reports errors that are consequences of erroneous driver usage,...">
<polygon fill="white" stroke="#666666" points="183,-162 76,-162 76,-132 183,-132 183,-162"/>
<text text-anchor="start" x="84" y="-150" font-family="Helvetica,sans-Serif" font-size="10.00">storages::postgres</text>
<text text-anchor="middle" x="129.5" y="-139" font-family="Helvetica,sans-Serif" font-size="10.00">::LogicError</text>
</a>
</g>
</g>
<!-- Node2&#45;&gt;Node1 -->
<g id="edge1_Node000001_Node000002" class="edge">
<title>Node2&#45;&gt;Node1</title>
<g id="a_edge1_Node000001_Node000002"><a xlink:title=" ">
<path fill="none" stroke="#63b8ff" d="M129.5,-121.54C129.5,-112.96 129.5,-103.61 129.5,-96.16"/>
<polygon fill="#63b8ff" stroke="#63b8ff" points="126,-121.8 129.5,-131.8 133,-121.8 126,-121.8"/>
</a>
</g>
</g>
<!-- Node3 -->
<g id="Node000003" class="node">
<title>Node3</title>
<g id="a_Node000003"><a xlink:href="../../df/d3d/classstorages_1_1postgres_1_1Error.html" target="_top" xlink:title="Base class for all exceptions that may be thrown by the driver.">
<polygon fill="white" stroke="#666666" points="183,-228 76,-228 76,-198 183,-198 183,-228"/>
<text text-anchor="start" x="84" y="-216" font-family="Helvetica,sans-Serif" font-size="10.00">storages::postgres</text>
<text text-anchor="middle" x="129.5" y="-205" font-family="Helvetica,sans-Serif" font-size="10.00">::Error</text>
</a>
</g>
</g>
<!-- Node3&#45;&gt;Node2 -->
<g id="edge2_Node000002_Node000003" class="edge">
<title>Node3&#45;&gt;Node2</title>
<g id="a_edge2_Node000002_Node000003"><a xlink:title=" ">
<path fill="none" stroke="#63b8ff" d="M129.5,-187.54C129.5,-178.96 129.5,-169.61 129.5,-162.16"/>
<polygon fill="#63b8ff" stroke="#63b8ff" points="126,-187.8 129.5,-197.8 133,-187.8 126,-187.8"/>
</a>
</g>
</g>
<!-- Node4 -->
<g id="Node000004" class="node">
<title>Node4</title>
<g id="a_Node000004"><a xlink:title=" ">
<polygon fill="white" stroke="#666666" points="181.5,-283 77.5,-283 77.5,-264 181.5,-264 181.5,-283"/>
<text text-anchor="middle" x="129.5" y="-271" font-family="Helvetica,sans-Serif" font-size="10.00">std::runtime_error</text>
</a>
</g>
</g>
<!-- Node4&#45;&gt;Node3 -->
<g id="edge3_Node000003_Node000004" class="edge">
<title>Node4&#45;&gt;Node3</title>
<g id="a_edge3_Node000003_Node000004"><a xlink:title=" ">
<path fill="none" stroke="#63b8ff" d="M129.5,-253.65C129.5,-245.36 129.5,-235.78 129.5,-228.11"/>
<polygon fill="#63b8ff" stroke="#63b8ff" points="126,-253.87 129.5,-263.87 133,-253.87 126,-253.87"/>
</a>
</g>
</g>
<!-- Node5 -->
<g id="Node000005" class="node">
<title>Node5</title>
<g id="a_Node000005"><a xlink:title=" ">
<polygon fill="white" stroke="#666666" points="172.5,-338 86.5,-338 86.5,-319 172.5,-319 172.5,-338"/>
<text text-anchor="middle" x="129.5" y="-326" font-family="Helvetica,sans-Serif" font-size="10.00">std::exception</text>
</a>
</g>
</g>
<!-- Node5&#45;&gt;Node4 -->
<g id="edge4_Node000004_Node000005" class="edge">
<title>Node5&#45;&gt;Node4</title>
<g id="a_edge4_Node000004_Node000005"><a xlink:title=" ">
<path fill="none" stroke="#63b8ff" d="M129.5,-308.66C129.5,-299.93 129.5,-289.99 129.5,-283.09"/>
<polygon fill="#63b8ff" stroke="#63b8ff" points="126,-308.75 129.5,-318.75 133,-308.75 126,-308.75"/>
</a>
</g>
</g>
</g>
</svg>
