<?xml version="1.0" encoding="UTF-8" standalone="no"?>
<!DOCTYPE svg PUBLIC "-//W3C//DTD SVG 1.1//EN"
 "http://www.w3.org/Graphics/SVG/1.1/DTD/svg11.dtd">
<!-- Generated by graphviz version 2.43.0 (0)
 -->
<!-- Title: userver/formats/bson/exception.hpp Pages: 1 -->
<svg width="1135pt" height="632pt"
 viewBox="0.00 0.00 1135.07 632.00" xmlns="http://www.w3.org/2000/svg" xmlns:xlink="http://www.w3.org/1999/xlink">
<g id="graph0" class="graph" transform="scale(1 1) rotate(0) translate(4 628)">
<title>userver/formats/bson/exception.hpp</title>
<!-- Node1 -->
<g id="Node000001" class="node">
<title>Node1</title>
<g id="a_Node000001"><a xlink:title="BSON&#45;specific exceptions.">
<polygon fill="#999999" stroke="#666666" points="332.07,-624 211.07,-624 211.07,-594 332.07,-594 332.07,-624"/>
<text text-anchor="start" x="219.07" y="-612" font-family="Helvetica,sans-Serif" font-size="10.00">userver/formats/bson</text>
<text text-anchor="middle" x="271.57" y="-601" font-family="Helvetica,sans-Serif" font-size="10.00">/exception.hpp</text>
</a>
</g>
</g>
<!-- Node2 -->
<g id="Node000002" class="node">
<title>Node2</title>
<g id="a_Node000002"><a xlink:href="../../d3/d9f/bson_8hpp.html" target="_top" xlink:title="Include&#45;all header for BSON support.">
<polygon fill="white" stroke="#666666" points="254.57,-354.5 112.57,-354.5 112.57,-335.5 254.57,-335.5 254.57,-354.5"/>
<text text-anchor="middle" x="183.57" y="-342.5" font-family="Helvetica,sans-Serif" font-size="10.00">userver/formats/bson.hpp</text>
</a>
</g>
</g>
<!-- Node1&#45;&gt;Node2 -->
<g id="edge1_Node000001_Node000002" class="edge">
<title>Node1&#45;&gt;Node2</title>
<g id="a_edge1_Node000001_Node000002"><a xlink:title=" ">
<path fill="none" stroke="#63b8ff" d="M214.32,-590.55C146.94,-566.3 39.66,-515.05 3.57,-426 -16.34,-376.87 53.85,-357.91 112.33,-350.59"/>
<polygon fill="#63b8ff" stroke="#63b8ff" points="213.36,-593.92 223.96,-593.93 215.68,-587.31 213.36,-593.92"/>
</a>
</g>
</g>
<!-- Node3 -->
<g id="Node000003" class="node">
<title>Node3</title>
<g id="a_Node000003"><a xlink:href="../../d5/d70/mongo_2include_2userver_2formats_2bson_2value_8hpp.html" target="_top" xlink:title="Non&#45;mutable BSON value representation.">
<polygon fill="white" stroke="#666666" points="647.07,-558 526.07,-558 526.07,-528 647.07,-528 647.07,-558"/>
<text text-anchor="start" x="534.07" y="-546" font-family="Helvetica,sans-Serif" font-size="10.00">userver/formats/bson</text>
<text text-anchor="middle" x="586.57" y="-535" font-family="Helvetica,sans-Serif" font-size="10.00">/value.hpp</text>
</a>
</g>
</g>
<!-- Node1&#45;&gt;Node3 -->
<g id="edge2_Node000001_Node000003" class="edge">
<title>Node1&#45;&gt;Node3</title>
<g id="a_edge2_Node000001_Node000003"><a xlink:title=" ">
<path fill="none" stroke="#63b8ff" d="M342.37,-593.61C397.63,-582.39 473.56,-566.96 526.02,-556.3"/>
<polygon fill="#63b8ff" stroke="#63b8ff" points="341.41,-590.24 332.3,-595.66 342.8,-597.1 341.41,-590.24"/>
</a>
</g>
</g>
<!-- Node3&#45;&gt;Node2 -->
<g id="edge3_Node000003_Node000002" class="edge">
<title>Node3&#45;&gt;Node2</title>
<g id="a_edge3_Node000003_Node000002"><a xlink:title=" ">
<path fill="none" stroke="#63b8ff" d="M515.74,-538.69C376.52,-530.53 75.45,-504.04 14.57,-426 -16.88,-385.69 54.34,-364.7 113.8,-354.51"/>
<polygon fill="#63b8ff" stroke="#63b8ff" points="515.7,-542.2 525.88,-539.27 516.1,-535.21 515.7,-542.2"/>
</a>
</g>
</g>
<!-- Node4 -->
<g id="Node000004" class="node">
<title>Node4</title>
<g id="a_Node000004"><a xlink:href="../../d9/d03/bson__builder_8hpp.html" target="_top" xlink:title="Internal helpers for inline document build.">
<polygon fill="white" stroke="#666666" points="520.07,-492 399.07,-492 399.07,-462 520.07,-462 520.07,-492"/>
<text text-anchor="start" x="407.07" y="-480" font-family="Helvetica,sans-Serif" font-size="10.00">userver/formats/bson</text>
<text text-anchor="middle" x="459.57" y="-469" font-family="Helvetica,sans-Serif" font-size="10.00">/bson_builder.hpp</text>
</a>
</g>
</g>
<!-- Node3&#45;&gt;Node4 -->
<g id="edge4_Node000003_Node000004" class="edge">
<title>Node3&#45;&gt;Node4</title>
<g id="a_edge4_Node000003_Node000004"><a xlink:title=" ">
<path fill="none" stroke="#63b8ff" d="M549.62,-523.38C529.74,-513.36 505.64,-501.22 487.37,-492.01"/>
<polygon fill="#63b8ff" stroke="#63b8ff" points="548.19,-526.58 558.7,-527.95 551.34,-520.33 548.19,-526.58"/>
</a>
</g>
</g>
<!-- Node5 -->
<g id="Node000005" class="node">
<title>Node5</title>
<g id="a_Node000005"><a xlink:href="../../d1/d71/mongo_2include_2userver_2formats_2bson_2inline_8hpp.html" target="_top" xlink:title="Inline value builders.">
<polygon fill="white" stroke="#666666" points="145.07,-426 24.07,-426 24.07,-396 145.07,-396 145.07,-426"/>
<text text-anchor="start" x="32.07" y="-414" font-family="Helvetica,sans-Serif" font-size="10.00">userver/formats/bson</text>
<text text-anchor="middle" x="84.57" y="-403" font-family="Helvetica,sans-Serif" font-size="10.00">/inline.hpp</text>
</a>
</g>
</g>
<!-- Node3&#45;&gt;Node5 -->
<g id="edge49_Node000003_Node000005" class="edge">
<title>Node3&#45;&gt;Node5</title>
<g id="a_edge49_Node000003_Node000005"><a xlink:title=" ">
<path fill="none" stroke="#63b8ff" d="M521.26,-525.44C483.13,-515.75 434.11,-503.25 390.57,-492 301.91,-469.1 198.92,-442.09 137.89,-426.04"/>
<polygon fill="#63b8ff" stroke="#63b8ff" points="520.66,-528.9 531.21,-527.97 522.38,-522.12 520.66,-528.9"/>
</a>
</g>
</g>
<!-- Node7 -->
<g id="Node000007" class="node">
<title>Node7</title>
<g id="a_Node000007"><a xlink:href="../../d2/d54/mongo_2include_2userver_2storages_2mongo_2options_8hpp.html" target="_top" xlink:title="Query options.">
<polygon fill="white" stroke="#666666" points="654.07,-426 519.07,-426 519.07,-396 654.07,-396 654.07,-426"/>
<text text-anchor="start" x="527.07" y="-414" font-family="Helvetica,sans-Serif" font-size="10.00">userver/storages/mongo</text>
<text text-anchor="middle" x="586.57" y="-403" font-family="Helvetica,sans-Serif" font-size="10.00">/options.hpp</text>
</a>
</g>
</g>
<!-- Node3&#45;&gt;Node7 -->
<g id="edge54_Node000003_Node000007" class="edge">
<title>Node3&#45;&gt;Node7</title>
<g id="a_edge54_Node000003_Node000007"><a xlink:title=" ">
<path fill="none" stroke="#63b8ff" d="M586.57,-517.68C586.57,-490.7 586.57,-448.11 586.57,-426.14"/>
<polygon fill="#63b8ff" stroke="#63b8ff" points="583.07,-517.84 586.57,-527.84 590.07,-517.84 583.07,-517.84"/>
</a>
</g>
</g>
<!-- Node10 -->
<g id="Node000010" class="node">
<title>Node10</title>
<g id="a_Node000010"><a xlink:href="../../d4/db6/collection_8hpp.html" target="_top" xlink:title="MongoDB collection handle, the main way to operate with MongoDB.">
<polygon fill="white" stroke="#666666" points="866.07,-228 731.07,-228 731.07,-198 866.07,-198 866.07,-228"/>
<text text-anchor="start" x="739.07" y="-216" font-family="Helvetica,sans-Serif" font-size="10.00">userver/storages/mongo</text>
<text text-anchor="middle" x="798.57" y="-205" font-family="Helvetica,sans-Serif" font-size="10.00">/collection.hpp</text>
</a>
</g>
</g>
<!-- Node3&#45;&gt;Node10 -->
<g id="edge52_Node000003_Node000010" class="edge">
<title>Node3&#45;&gt;Node10</title>
<g id="a_edge52_Node000003_Node000010"><a xlink:title=" ">
<path fill="none" stroke="#63b8ff" d="M657.49,-539.13C800.41,-531.41 1109.57,-504.08 1109.57,-412 1109.57,-412 1109.57,-412 1109.57,-344 1109.57,-239.39 957.94,-217.49 866.44,-213.79"/>
<polygon fill="#63b8ff" stroke="#63b8ff" points="656.88,-535.66 647.07,-539.68 657.24,-542.65 656.88,-535.66"/>
</a>
</g>
</g>
<!-- Node17 -->
<g id="Node000017" class="node">
<title>Node17</title>
<g id="a_Node000017"><a xlink:href="../../de/d6b/mongo_2include_2userver_2storages_2mongo_2operations_8hpp.html" target="_top" xlink:title="Collection operation models.">
<polygon fill="white" stroke="#666666" points="751.07,-360 616.07,-360 616.07,-330 751.07,-330 751.07,-360"/>
<text text-anchor="start" x="624.07" y="-348" font-family="Helvetica,sans-Serif" font-size="10.00">userver/storages/mongo</text>
<text text-anchor="middle" x="683.57" y="-337" font-family="Helvetica,sans-Serif" font-size="10.00">/operations.hpp</text>
</a>
</g>
</g>
<!-- Node3&#45;&gt;Node17 -->
<g id="edge53_Node000003_Node000017" class="edge">
<title>Node3&#45;&gt;Node17</title>
<g id="a_edge53_Node000003_Node000017"><a xlink:title=" ">
<path fill="none" stroke="#63b8ff" d="M657.33,-533.38C767.59,-518.31 972.17,-483.21 1014.57,-426 1022.51,-415.29 1023.26,-406.11 1014.57,-396 981.31,-357.34 838.09,-348.19 751.31,-346.25"/>
<polygon fill="#63b8ff" stroke="#63b8ff" points="656.73,-529.93 647.29,-534.73 657.67,-536.86 656.73,-529.93"/>
</a>
</g>
</g>
<!-- Node18 -->
<g id="Node000018" class="node">
<title>Node18</title>
<g id="a_Node000018"><a xlink:href="../../dd/d39/document_8hpp.html" target="_top" xlink:title="BSON document.">
<polygon fill="white" stroke="#666666" points="736.07,-492 615.07,-492 615.07,-462 736.07,-462 736.07,-492"/>
<text text-anchor="start" x="623.07" y="-480" font-family="Helvetica,sans-Serif" font-size="10.00">userver/formats/bson</text>
<text text-anchor="middle" x="675.57" y="-469" font-family="Helvetica,sans-Serif" font-size="10.00">/document.hpp</text>
</a>
</g>
</g>
<!-- Node3&#45;&gt;Node18 -->
<g id="edge29_Node000003_Node000018" class="edge">
<title>Node3&#45;&gt;Node18</title>
<g id="a_edge29_Node000003_Node000018"><a xlink:title=" ">
<path fill="none" stroke="#63b8ff" d="M614.72,-521.75C628.11,-512.13 643.78,-500.86 655.87,-492.16"/>
<polygon fill="#63b8ff" stroke="#63b8ff" points="612.4,-519.12 606.32,-527.8 616.48,-524.8 612.4,-519.12"/>
</a>
</g>
</g>
<!-- Node20 -->
<g id="Node000020" class="node">
<title>Node20</title>
<g id="a_Node000020"><a xlink:href="../../d6/de5/mongo_2include_2userver_2formats_2bson_2serialize_8hpp.html" target="_top" xlink:title="Textual serialization helpers.">
<polygon fill="white" stroke="#666666" points="1005.07,-426 884.07,-426 884.07,-396 1005.07,-396 1005.07,-426"/>
<text text-anchor="start" x="892.07" y="-414" font-family="Helvetica,sans-Serif" font-size="10.00">userver/formats/bson</text>
<text text-anchor="middle" x="944.57" y="-403" font-family="Helvetica,sans-Serif" font-size="10.00">/serialize.hpp</text>
</a>
</g>
</g>
<!-- Node3&#45;&gt;Node20 -->
<g id="edge50_Node000003_Node000020" class="edge">
<title>Node3&#45;&gt;Node20</title>
<g id="a_edge50_Node000003_Node000020"><a xlink:title=" ">
<path fill="none" stroke="#63b8ff" d="M644.13,-525.08C674.49,-515.85 712.26,-503.91 745.57,-492 804.82,-470.81 872.57,-442.73 911.77,-426.1"/>
<polygon fill="#63b8ff" stroke="#63b8ff" points="643.11,-521.73 634.55,-527.97 645.13,-528.43 643.11,-521.73"/>
</a>
</g>
</g>
<!-- Node21 -->
<g id="Node000021" class="node">
<title>Node21</title>
<g id="a_Node000021"><a xlink:href="../../dc/d8c/mongo_2include_2userver_2formats_2bson_2value__builder_8hpp.html" target="_top" xlink:title="Builder for BSON.">
<polygon fill="white" stroke="#666666" points="284.07,-426 163.07,-426 163.07,-396 284.07,-396 284.07,-426"/>
<text text-anchor="start" x="171.07" y="-414" font-family="Helvetica,sans-Serif" font-size="10.00">userver/formats/bson</text>
<text text-anchor="middle" x="223.57" y="-403" font-family="Helvetica,sans-Serif" font-size="10.00">/value_builder.hpp</text>
</a>
</g>
</g>
<!-- Node3&#45;&gt;Node21 -->
<g id="edge51_Node000003_Node000021" class="edge">
<title>Node3&#45;&gt;Node21</title>
<g id="a_edge51_Node000003_Node000021"><a xlink:title=" ">
<path fill="none" stroke="#63b8ff" d="M576.23,-518.51C566.81,-500.04 551.09,-475.29 529.57,-462 441.16,-407.41 400.98,-443.54 298.57,-426 293.87,-425.2 289.01,-424.34 284.12,-423.46"/>
<polygon fill="#63b8ff" stroke="#63b8ff" points="573.19,-520.27 580.69,-527.75 579.49,-517.22 573.19,-520.27"/>
</a>
</g>
</g>
<!-- Node23 -->
<g id="Node000023" class="node">
<title>Node23</title>
<g id="a_Node000023"><a xlink:href="../../d7/d6e/write__result_8hpp_source.html" target="_top" xlink:title=" ">
<polygon fill="white" stroke="#666666" points="944.07,-294 809.07,-294 809.07,-264 944.07,-264 944.07,-294"/>
<text text-anchor="start" x="817.07" y="-282" font-family="Helvetica,sans-Serif" font-size="10.00">userver/storages/mongo</text>
<text text-anchor="middle" x="876.57" y="-271" font-family="Helvetica,sans-Serif" font-size="10.00">/write_result.hpp</text>
</a>
</g>
</g>
<!-- Node3&#45;&gt;Node23 -->
<g id="edge55_Node000003_Node000023" class="edge">
<title>Node3&#45;&gt;Node23</title>
<g id="a_edge55_Node000003_Node000023"><a xlink:title=" ">
<path fill="none" stroke="#63b8ff" d="M657.54,-540.98C729.36,-537.85 842.49,-527.1 933.57,-492 982.57,-473.11 1006.9,-472.36 1031.57,-426 1063.44,-366.12 969.98,-317.07 914.49,-294.09"/>
<polygon fill="#63b8ff" stroke="#63b8ff" points="657.1,-537.49 647.25,-541.39 657.38,-544.49 657.1,-537.49"/>
</a>
</g>
</g>
<!-- Node4&#45;&gt;Node5 -->
<g id="edge5_Node000004_Node000005" class="edge">
<title>Node4&#45;&gt;Node5</title>
<g id="a_edge5_Node000004_Node000005"><a xlink:title=" ">
<path fill="none" stroke="#63b8ff" d="M388.99,-465.25C326.88,-455.61 234.07,-440.74 153.57,-426 150.8,-425.49 147.98,-424.97 145.13,-424.42"/>
<polygon fill="#63b8ff" stroke="#63b8ff" points="388.65,-468.74 399.07,-466.81 389.72,-461.82 388.65,-468.74"/>
</a>
</g>
</g>
<!-- Node4&#45;&gt;Node7 -->
<g id="edge8_Node000004_Node000007" class="edge">
<title>Node4&#45;&gt;Node7</title>
<g id="a_edge8_Node000004_Node000007"><a xlink:title=" ">
<path fill="none" stroke="#63b8ff" d="M496.52,-457.38C516.4,-447.36 540.5,-435.22 558.76,-426.01"/>
<polygon fill="#63b8ff" stroke="#63b8ff" points="494.79,-454.33 487.44,-461.95 497.95,-460.58 494.79,-454.33"/>
</a>
</g>
</g>
<!-- Node5&#45;&gt;Node2 -->
<g id="edge7_Node000005_Node000002" class="edge">
<title>Node5&#45;&gt;Node2</title>
<g id="a_edge7_Node000005_Node000002"><a xlink:title=" ">
<path fill="none" stroke="#63b8ff" d="M114.95,-390.36C133.42,-378.42 156.08,-363.77 170.18,-354.66"/>
<polygon fill="#63b8ff" stroke="#63b8ff" points="113.04,-387.43 106.54,-395.8 116.84,-393.31 113.04,-387.43"/>
</a>
</g>
</g>
<!-- Node6 -->
<g id="Node000006" class="node">
<title>Node6</title>
<g id="a_Node000006"><a xlink:href="../../dd/d6c/base__mongo__cache_8hpp.html" target="_top" xlink:title="Base class for all caches polling mongo collection">
<polygon fill="white" stroke="#666666" points="368.07,-162 257.07,-162 257.07,-132 368.07,-132 368.07,-162"/>
<text text-anchor="start" x="265.07" y="-150" font-family="Helvetica,sans-Serif" font-size="10.00">userver/cache/base</text>
<text text-anchor="middle" x="312.57" y="-139" font-family="Helvetica,sans-Serif" font-size="10.00">_mongo_cache.hpp</text>
</a>
</g>
</g>
<!-- Node5&#45;&gt;Node6 -->
<g id="edge6_Node000005_Node000006" class="edge">
<title>Node5&#45;&gt;Node6</title>
<g id="a_edge6_Node000005_Node000006"><a xlink:title=" ">
<path fill="none" stroke="#63b8ff" d="M86.43,-385.65C88.61,-368.99 93.33,-346.94 103.57,-330 151.11,-251.36 244.05,-188.75 288.18,-162.03"/>
<polygon fill="#63b8ff" stroke="#63b8ff" points="82.94,-385.39 85.34,-395.71 89.9,-386.15 82.94,-385.39"/>
</a>
</g>
</g>
<!-- Node7&#45;&gt;Node6 -->
<g id="edge9_Node000007_Node000006" class="edge">
<title>Node7&#45;&gt;Node6</title>
<g id="a_edge9_Node000007_Node000006"><a xlink:title=" ">
<path fill="none" stroke="#63b8ff" d="M509.09,-394.87C455.46,-383.75 392.07,-369.06 382.57,-360 328.22,-308.18 360.41,-268.51 334.57,-198 330.07,-185.71 324.02,-172.14 319.41,-162.24"/>
<polygon fill="#63b8ff" stroke="#63b8ff" points="508.47,-398.32 518.97,-396.91 509.88,-391.46 508.47,-398.32"/>
</a>
</g>
</g>
<!-- Node8 -->
<g id="Node000008" class="node">
<title>Node8</title>
<g id="a_Node000008"><a xlink:href="../../d2/d86/mongo_8hpp.html" target="_top" xlink:title="Include&#45;all header for MongoDB client.">
<polygon fill="white" stroke="#666666" points="723.57,-90.5 567.57,-90.5 567.57,-71.5 723.57,-71.5 723.57,-90.5"/>
<text text-anchor="middle" x="645.57" y="-78.5" font-family="Helvetica,sans-Serif" font-size="10.00">userver/storages/mongo.hpp</text>
</a>
</g>
</g>
<!-- Node7&#45;&gt;Node8 -->
<g id="edge10_Node000007_Node000008" class="edge">
<title>Node7&#45;&gt;Node8</title>
<g id="a_edge10_Node000007_Node000008"><a xlink:title=" ">
<path fill="none" stroke="#63b8ff" d="M509.26,-393.01C487.07,-385.51 463.94,-374.88 445.57,-360 413.17,-333.75 396.57,-321.69 396.57,-280 396.57,-280 396.57,-280 396.57,-212 396.57,-133.73 494.44,-102.5 567.47,-90.1"/>
<polygon fill="#63b8ff" stroke="#63b8ff" points="508.44,-396.43 519.03,-396.15 510.57,-389.76 508.44,-396.43"/>
</a>
</g>
</g>
<!-- Node9 -->
<g id="Node000009" class="node">
<title>Node9</title>
<g id="a_Node000009"><a xlink:href="../../d5/d0f/bulk_8hpp.html" target="_top" xlink:title="Bulk collection operation model.">
<polygon fill="white" stroke="#666666" points="560.07,-294 425.07,-294 425.07,-264 560.07,-264 560.07,-294"/>
<text text-anchor="start" x="433.07" y="-282" font-family="Helvetica,sans-Serif" font-size="10.00">userver/storages/mongo</text>
<text text-anchor="middle" x="492.57" y="-271" font-family="Helvetica,sans-Serif" font-size="10.00">/bulk.hpp</text>
</a>
</g>
</g>
<!-- Node7&#45;&gt;Node9 -->
<g id="edge11_Node000007_Node000009" class="edge">
<title>Node7&#45;&gt;Node9</title>
<g id="a_edge11_Node000007_Node000009"><a xlink:title=" ">
<path fill="none" stroke="#63b8ff" d="M509.18,-397.55C488,-390.21 467.37,-378.54 454.57,-360 439.8,-338.62 461.09,-310.6 477.27,-294.03"/>
<polygon fill="#63b8ff" stroke="#63b8ff" points="508.33,-400.96 518.92,-400.63 510.44,-394.28 508.33,-400.96"/>
</a>
</g>
</g>
<!-- Node16 -->
<g id="Node000016" class="node">
<title>Node16</title>
<g id="a_Node000016"><a xlink:href="../../d3/df1/bulk__ops_8hpp.html" target="_top" xlink:title="Bulk sub&#45;operation models.">
<polygon fill="white" stroke="#666666" points="598.07,-360 463.07,-360 463.07,-330 598.07,-330 598.07,-360"/>
<text text-anchor="start" x="471.07" y="-348" font-family="Helvetica,sans-Serif" font-size="10.00">userver/storages/mongo</text>
<text text-anchor="middle" x="530.57" y="-337" font-family="Helvetica,sans-Serif" font-size="10.00">/bulk_ops.hpp</text>
</a>
</g>
</g>
<!-- Node7&#45;&gt;Node16 -->
<g id="edge24_Node000007_Node000016" class="edge">
<title>Node7&#45;&gt;Node16</title>
<g id="a_edge24_Node000007_Node000016"><a xlink:title=" ">
<path fill="none" stroke="#63b8ff" d="M567.4,-388.09C559.31,-378.85 550.13,-368.36 542.96,-360.16"/>
<polygon fill="#63b8ff" stroke="#63b8ff" points="564.92,-390.58 574.14,-395.8 570.19,-385.97 564.92,-390.58"/>
</a>
</g>
</g>
<!-- Node7&#45;&gt;Node17 -->
<g id="edge26_Node000007_Node000017" class="edge">
<title>Node7&#45;&gt;Node17</title>
<g id="a_edge26_Node000007_Node000017"><a xlink:title=" ">
<path fill="none" stroke="#63b8ff" d="M616.84,-390.03C631.52,-380.34 648.8,-368.94 662.1,-360.16"/>
<polygon fill="#63b8ff" stroke="#63b8ff" points="614.52,-387.37 608.1,-395.8 618.37,-393.21 614.52,-387.37"/>
</a>
</g>
</g>
<!-- Node9&#45;&gt;Node8 -->
<g id="edge12_Node000009_Node000008" class="edge">
<title>Node9&#45;&gt;Node8</title>
<g id="a_edge12_Node000009_Node000008"><a xlink:title=" ">
<path fill="none" stroke="#63b8ff" d="M509.73,-256.02C543.25,-213.07 616.17,-119.67 638.76,-90.73"/>
<polygon fill="#63b8ff" stroke="#63b8ff" points="506.97,-253.87 503.57,-263.9 512.48,-258.18 506.97,-253.87"/>
</a>
</g>
</g>
<!-- Node9&#45;&gt;Node10 -->
<g id="edge13_Node000009_Node000010" class="edge">
<title>Node9&#45;&gt;Node10</title>
<g id="a_edge13_Node000009_Node000010"><a xlink:title=" ">
<path fill="none" stroke="#63b8ff" d="M569.81,-261.84C619.67,-251.42 683.88,-237.99 731.57,-228.01"/>
<polygon fill="#63b8ff" stroke="#63b8ff" points="568.79,-258.48 559.72,-263.95 570.23,-265.33 568.79,-258.48"/>
</a>
</g>
</g>
<!-- Node10&#45;&gt;Node6 -->
<g id="edge14_Node000010_Node000006" class="edge">
<title>Node10&#45;&gt;Node6</title>
<g id="a_edge14_Node000010_Node000006"><a xlink:title=" ">
<path fill="none" stroke="#63b8ff" d="M720.8,-201.76C622.28,-188.79 454.93,-166.75 368.28,-155.34"/>
<polygon fill="#63b8ff" stroke="#63b8ff" points="720.62,-205.27 730.99,-203.1 721.54,-198.33 720.62,-205.27"/>
</a>
</g>
</g>
<!-- Node10&#45;&gt;Node8 -->
<g id="edge15_Node000010_Node000008" class="edge">
<title>Node10&#45;&gt;Node8</title>
<g id="a_edge15_Node000010_Node000008"><a xlink:title=" ">
<path fill="none" stroke="#63b8ff" d="M765.62,-192.58C751.82,-183.88 735.92,-173.09 722.57,-162 694.4,-138.6 665.63,-105.86 652.67,-90.54"/>
<polygon fill="#63b8ff" stroke="#63b8ff" points="763.99,-195.68 774.33,-197.97 767.67,-189.73 763.99,-195.68"/>
</a>
</g>
</g>
<!-- Node11 -->
<g id="Node000011" class="node">
<title>Node11</title>
<g id="a_Node000011"><a xlink:href="../../d5/d93/mongo_2include_2userver_2storages_2mongo_2dist__lock__component__base_8hpp.html" target="_top" xlink:title="Base class for mongo&#45;based distlock worker components.">
<polygon fill="white" stroke="#666666" points="1127.07,-96 954.07,-96 954.07,-66 1127.07,-66 1127.07,-96"/>
<text text-anchor="start" x="962.07" y="-84" font-family="Helvetica,sans-Serif" font-size="10.00">userver/storages/mongo</text>
<text text-anchor="middle" x="1040.57" y="-73" font-family="Helvetica,sans-Serif" font-size="10.00">/dist_lock_component_base.hpp</text>
</a>
</g>
</g>
<!-- Node10&#45;&gt;Node11 -->
<g id="edge16_Node000010_Node000011" class="edge">
<title>Node10&#45;&gt;Node11</title>
<g id="a_edge16_Node000010_Node000011"><a xlink:title=" ">
<path fill="none" stroke="#63b8ff" d="M876.15,-204.55C934.55,-197.28 1007.94,-184.02 1028.57,-162 1045.18,-144.27 1044.82,-113.97 1042.84,-96.18"/>
<polygon fill="#63b8ff" stroke="#63b8ff" points="875.68,-201.08 866.17,-205.75 876.52,-208.03 875.68,-201.08"/>
</a>
</g>
</g>
<!-- Node12 -->
<g id="Node000012" class="node">
<title>Node12</title>
<g id="a_Node000012"><a xlink:href="../../d6/d83/mongo_2include_2userver_2storages_2mongo_2dist__lock__strategy_8hpp_source.html" target="_top" xlink:title=" ">
<polygon fill="white" stroke="#666666" points="1019.07,-162 884.07,-162 884.07,-132 1019.07,-132 1019.07,-162"/>
<text text-anchor="start" x="892.07" y="-150" font-family="Helvetica,sans-Serif" font-size="10.00">userver/storages/mongo</text>
<text text-anchor="middle" x="951.57" y="-139" font-family="Helvetica,sans-Serif" font-size="10.00">/dist_lock_strategy.hpp</text>
</a>
</g>
</g>
<!-- Node10&#45;&gt;Node12 -->
<g id="edge17_Node000010_Node000012" class="edge">
<title>Node10&#45;&gt;Node12</title>
<g id="a_edge17_Node000010_Node000012"><a xlink:title=" ">
<path fill="none" stroke="#63b8ff" d="M841.47,-194.05C865.71,-183.91 895.57,-171.43 918.07,-162.01"/>
<polygon fill="#63b8ff" stroke="#63b8ff" points="840.02,-190.87 832.15,-197.95 842.72,-197.32 840.02,-190.87"/>
</a>
</g>
</g>
<!-- Node13 -->
<g id="Node000013" class="node">
<title>Node13</title>
<g id="a_Node000013"><a xlink:href="../../d8/d62/mongo_2include_2userver_2storages_2mongo_2pool_8hpp.html" target="_top" xlink:title="MongoDB client pool.">
<polygon fill="white" stroke="#666666" points="866.07,-162 731.07,-162 731.07,-132 866.07,-132 866.07,-162"/>
<text text-anchor="start" x="739.07" y="-150" font-family="Helvetica,sans-Serif" font-size="10.00">userver/storages/mongo</text>
<text text-anchor="middle" x="798.57" y="-139" font-family="Helvetica,sans-Serif" font-size="10.00">/pool.hpp</text>
</a>
</g>
</g>
<!-- Node10&#45;&gt;Node13 -->
<g id="edge19_Node000010_Node000013" class="edge">
<title>Node10&#45;&gt;Node13</title>
<g id="a_edge19_Node000010_Node000013"><a xlink:title=" ">
<path fill="none" stroke="#63b8ff" d="M798.57,-187.54C798.57,-178.96 798.57,-169.61 798.57,-162.16"/>
<polygon fill="#63b8ff" stroke="#63b8ff" points="795.07,-187.8 798.57,-197.8 802.07,-187.8 795.07,-187.8"/>
</a>
</g>
</g>
<!-- Node12&#45;&gt;Node11 -->
<g id="edge18_Node000012_Node000011" class="edge">
<title>Node12&#45;&gt;Node11</title>
<g id="a_edge18_Node000012_Node000011"><a xlink:title=" ">
<path fill="none" stroke="#63b8ff" d="M979.72,-125.75C993.11,-116.13 1008.78,-104.86 1020.87,-96.16"/>
<polygon fill="#63b8ff" stroke="#63b8ff" points="977.4,-123.12 971.32,-131.8 981.48,-128.8 977.4,-123.12"/>
</a>
</g>
</g>
<!-- Node13&#45;&gt;Node8 -->
<g id="edge20_Node000013_Node000008" class="edge">
<title>Node13&#45;&gt;Node8</title>
<g id="a_edge20_Node000013_Node000008"><a xlink:title=" ">
<path fill="none" stroke="#63b8ff" d="M755.4,-127.94C726.08,-115.68 688.66,-100.02 665.93,-90.52"/>
<polygon fill="#63b8ff" stroke="#63b8ff" points="754.42,-131.32 764.99,-131.95 757.12,-124.87 754.42,-131.32"/>
</a>
</g>
</g>
<!-- Node14 -->
<g id="Node000014" class="node">
<title>Node14</title>
<g id="a_Node000014"><a xlink:href="../../d1/dd7/mongo_2include_2userver_2storages_2mongo_2component_8hpp.html" target="_top" xlink:title="MongoDB client component.">
<polygon fill="white" stroke="#666666" points="881.07,-30 746.07,-30 746.07,0 881.07,0 881.07,-30"/>
<text text-anchor="start" x="754.07" y="-18" font-family="Helvetica,sans-Serif" font-size="10.00">userver/storages/mongo</text>
<text text-anchor="middle" x="813.57" y="-7" font-family="Helvetica,sans-Serif" font-size="10.00">/component.hpp</text>
</a>
</g>
</g>
<!-- Node13&#45;&gt;Node14 -->
<g id="edge21_Node000013_Node000014" class="edge">
<title>Node13&#45;&gt;Node14</title>
<g id="a_edge21_Node000013_Node000014"><a xlink:title=" ">
<path fill="none" stroke="#63b8ff" d="M789.6,-122.3C784.77,-106.25 780.7,-84.65 785.57,-66 788.99,-52.91 796.67,-39.61 803.13,-30.03"/>
<polygon fill="#63b8ff" stroke="#63b8ff" points="786.33,-123.57 792.8,-131.96 792.98,-121.37 786.33,-123.57"/>
</a>
</g>
</g>
<!-- Node15 -->
<g id="Node000015" class="node">
<title>Node15</title>
<g id="a_Node000015"><a xlink:href="../../d2/de5/multi__mongo_8hpp_source.html" target="_top" xlink:title=" ">
<polygon fill="white" stroke="#666666" points="929.07,-96 794.07,-96 794.07,-66 929.07,-66 929.07,-96"/>
<text text-anchor="start" x="802.07" y="-84" font-family="Helvetica,sans-Serif" font-size="10.00">userver/storages/mongo</text>
<text text-anchor="middle" x="861.57" y="-73" font-family="Helvetica,sans-Serif" font-size="10.00">/multi_mongo.hpp</text>
</a>
</g>
</g>
<!-- Node13&#45;&gt;Node15 -->
<g id="edge22_Node000013_Node000015" class="edge">
<title>Node13&#45;&gt;Node15</title>
<g id="a_edge22_Node000013_Node000015"><a xlink:title=" ">
<path fill="none" stroke="#63b8ff" d="M819.59,-124.65C828.82,-115.27 839.4,-104.53 847.63,-96.16"/>
<polygon fill="#63b8ff" stroke="#63b8ff" points="817.07,-122.21 812.55,-131.8 822.06,-127.13 817.07,-122.21"/>
</a>
</g>
</g>
<!-- Node15&#45;&gt;Node14 -->
<g id="edge23_Node000015_Node000014" class="edge">
<title>Node15&#45;&gt;Node14</title>
<g id="a_edge23_Node000015_Node000014"><a xlink:title=" ">
<path fill="none" stroke="#63b8ff" d="M844.71,-57.53C837.89,-48.43 830.21,-38.19 824.19,-30.16"/>
<polygon fill="#63b8ff" stroke="#63b8ff" points="842.12,-59.9 850.92,-65.8 847.72,-55.7 842.12,-59.9"/>
</a>
</g>
</g>
<!-- Node16&#45;&gt;Node9 -->
<g id="edge25_Node000016_Node000009" class="edge">
<title>Node16&#45;&gt;Node9</title>
<g id="a_edge25_Node000016_Node000009"><a xlink:title=" ">
<path fill="none" stroke="#63b8ff" d="M516.89,-320.96C511.57,-312 505.65,-302.03 500.98,-294.16"/>
<polygon fill="#63b8ff" stroke="#63b8ff" points="514.02,-322.98 522.14,-329.8 520.04,-319.41 514.02,-322.98"/>
</a>
</g>
</g>
<!-- Node17&#45;&gt;Node6 -->
<g id="edge27_Node000017_Node000006" class="edge">
<title>Node17&#45;&gt;Node6</title>
<g id="a_edge27_Node000017_Node000006"><a xlink:title=" ">
<path fill="none" stroke="#63b8ff" d="M653.04,-324.32C639.3,-315.29 622.97,-304.32 608.57,-294 590.79,-281.26 588.33,-275.24 569.57,-264 495.87,-219.84 402.44,-181.71 350.96,-162.1"/>
<polygon fill="#63b8ff" stroke="#63b8ff" points="651.36,-327.4 661.64,-329.94 655.19,-321.54 651.36,-327.4"/>
</a>
</g>
</g>
<!-- Node17&#45;&gt;Node10 -->
<g id="edge28_Node000017_Node000010" class="edge">
<title>Node17&#45;&gt;Node10</title>
<g id="a_edge28_Node000017_Node000010"><a xlink:title=" ">
<path fill="none" stroke="#63b8ff" d="M722.7,-324.85C736.3,-316.76 750.82,-306.33 761.57,-294 778.76,-274.28 789.5,-245.21 794.73,-228.08"/>
<polygon fill="#63b8ff" stroke="#63b8ff" points="720.91,-321.84 713.94,-329.82 724.37,-327.92 720.91,-321.84"/>
</a>
</g>
</g>
<!-- Node18&#45;&gt;Node2 -->
<g id="edge31_Node000018_Node000002" class="edge">
<title>Node18&#45;&gt;Node2</title>
<g id="a_edge31_Node000018_Node000002"><a xlink:title=" ">
<path fill="none" stroke="#63b8ff" d="M604.56,-467.55C511.49,-456.18 357.14,-436.22 332.57,-426 312.05,-417.47 311.67,-407.36 292.57,-396 263.94,-378.97 228.52,-363.69 205.98,-354.63"/>
<polygon fill="#63b8ff" stroke="#63b8ff" points="604.4,-471.06 614.75,-468.79 605.25,-464.11 604.4,-471.06"/>
</a>
</g>
</g>
<!-- Node18&#45;&gt;Node5 -->
<g id="edge34_Node000018_Node000005" class="edge">
<title>Node18&#45;&gt;Node5</title>
<g id="a_edge34_Node000018_Node000005"><a xlink:title=" ">
<path fill="none" stroke="#63b8ff" d="M604.79,-469.21C580.9,-466.92 554.08,-464.35 529.57,-462 362.46,-445.99 319.61,-450.72 153.57,-426 150.79,-425.59 147.95,-425.13 145.09,-424.65"/>
<polygon fill="#63b8ff" stroke="#63b8ff" points="604.55,-472.7 614.84,-470.17 605.21,-465.74 604.55,-472.7"/>
</a>
</g>
</g>
<!-- Node18&#45;&gt;Node6 -->
<g id="edge30_Node000018_Node000006" class="edge">
<title>Node18&#45;&gt;Node6</title>
<g id="a_edge30_Node000018_Node000006"><a xlink:title=" ">
<path fill="none" stroke="#63b8ff" d="M604.77,-460.56C574.75,-452.51 539.99,-441.13 510.57,-426 491.12,-416 491,-406.04 471.57,-396 423.24,-371.02 391.01,-400.4 354.57,-360 302.67,-302.47 307.17,-199.81 310.85,-162.26"/>
<polygon fill="#63b8ff" stroke="#63b8ff" points="604.19,-464.03 614.75,-463.17 605.96,-457.26 604.19,-464.03"/>
</a>
</g>
</g>
<!-- Node18&#45;&gt;Node7 -->
<g id="edge45_Node000018_Node000007" class="edge">
<title>Node18&#45;&gt;Node7</title>
<g id="a_edge45_Node000018_Node000007"><a xlink:title=" ">
<path fill="none" stroke="#63b8ff" d="M647.41,-455.75C634.03,-446.13 618.35,-434.86 606.27,-426.16"/>
<polygon fill="#63b8ff" stroke="#63b8ff" points="645.65,-458.8 655.82,-461.8 649.74,-453.12 645.65,-458.8"/>
</a>
</g>
</g>
<!-- Node18&#45;&gt;Node10 -->
<g id="edge40_Node000018_Node000010" class="edge">
<title>Node18&#45;&gt;Node10</title>
<g id="a_edge40_Node000018_Node000010"><a xlink:title=" ">
<path fill="none" stroke="#63b8ff" d="M731.83,-458.51C799.36,-434.06 909.07,-382.4 953.57,-294 974.06,-253.29 916.89,-232.8 866.29,-222.82"/>
<polygon fill="#63b8ff" stroke="#63b8ff" points="730.44,-455.29 722.18,-461.93 732.78,-461.89 730.44,-455.29"/>
</a>
</g>
</g>
<!-- Node18&#45;&gt;Node16 -->
<g id="edge39_Node000018_Node000016" class="edge">
<title>Node18&#45;&gt;Node16</title>
<g id="a_edge39_Node000018_Node000016"><a xlink:title=" ">
<path fill="none" stroke="#63b8ff" d="M678.02,-451.43C678.4,-434.13 676.03,-411.41 663.57,-396 653.02,-382.96 616.14,-369.66 583.89,-360.06"/>
<polygon fill="#63b8ff" stroke="#63b8ff" points="674.5,-451.7 677.45,-461.88 681.49,-452.08 674.5,-451.7"/>
</a>
</g>
</g>
<!-- Node18&#45;&gt;Node17 -->
<g id="edge44_Node000018_Node000017" class="edge">
<title>Node18&#45;&gt;Node17</title>
<g id="a_edge44_Node000018_Node000017"><a xlink:title=" ">
<path fill="none" stroke="#63b8ff" d="M687.76,-452.38C691.34,-444.24 694.77,-434.92 696.57,-426 701.18,-403.1 694.35,-376.26 688.97,-360.22"/>
<polygon fill="#63b8ff" stroke="#63b8ff" points="684.5,-451.08 683.42,-461.61 690.84,-454.05 684.5,-451.08"/>
</a>
</g>
</g>
<!-- Node19 -->
<g id="Node000019" class="node">
<title>Node19</title>
<g id="a_Node000019"><a xlink:href="../../db/d2e/binary_8hpp.html" target="_top" xlink:title="Binary representation helpers.">
<polygon fill="white" stroke="#666666" points="462.07,-426 341.07,-426 341.07,-396 462.07,-396 462.07,-426"/>
<text text-anchor="start" x="349.07" y="-414" font-family="Helvetica,sans-Serif" font-size="10.00">userver/formats/bson</text>
<text text-anchor="middle" x="401.57" y="-403" font-family="Helvetica,sans-Serif" font-size="10.00">/binary.hpp</text>
</a>
</g>
</g>
<!-- Node18&#45;&gt;Node19 -->
<g id="edge32_Node000018_Node000019" class="edge">
<title>Node18&#45;&gt;Node19</title>
<g id="a_edge32_Node000018_Node000019"><a xlink:title=" ">
<path fill="none" stroke="#63b8ff" d="M605.56,-459.65C561.04,-449.25 504,-435.93 461.56,-426.01"/>
<polygon fill="#63b8ff" stroke="#63b8ff" points="604.9,-463.09 615.44,-461.95 606.5,-456.27 604.9,-463.09"/>
</a>
</g>
</g>
<!-- Node18&#45;&gt;Node20 -->
<g id="edge35_Node000018_Node000020" class="edge">
<title>Node18&#45;&gt;Node20</title>
<g id="a_edge35_Node000018_Node000020"><a xlink:title=" ">
<path fill="none" stroke="#63b8ff" d="M744.57,-459.58C788.24,-449.19 844.1,-435.9 885.67,-426.01"/>
<polygon fill="#63b8ff" stroke="#63b8ff" points="743.52,-456.24 734.6,-461.95 745.14,-463.05 743.52,-456.24"/>
</a>
</g>
</g>
<!-- Node18&#45;&gt;Node21 -->
<g id="edge36_Node000018_Node000021" class="edge">
<title>Node18&#45;&gt;Node21</title>
<g id="a_edge36_Node000018_Node000021"><a xlink:title=" ">
<path fill="none" stroke="#63b8ff" d="M604.79,-467.07C512.45,-455.33 355.91,-435.15 298.57,-426 293.86,-425.25 288.99,-424.43 284.1,-423.58"/>
<polygon fill="#63b8ff" stroke="#63b8ff" points="604.54,-470.56 614.9,-468.35 605.42,-463.62 604.54,-470.56"/>
</a>
</g>
</g>
<!-- Node22 -->
<g id="Node000022" class="node">
<title>Node22</title>
<g id="a_Node000022"><a xlink:href="../../d7/dfb/cursor_8hpp.html" target="_top" xlink:title="Interface for MongoDB query cursors.">
<polygon fill="white" stroke="#666666" points="752.07,-294 617.07,-294 617.07,-264 752.07,-264 752.07,-294"/>
<text text-anchor="start" x="625.07" y="-282" font-family="Helvetica,sans-Serif" font-size="10.00">userver/storages/mongo</text>
<text text-anchor="middle" x="684.57" y="-271" font-family="Helvetica,sans-Serif" font-size="10.00">/cursor.hpp</text>
</a>
</g>
</g>
<!-- Node18&#45;&gt;Node22 -->
<g id="edge41_Node000018_Node000022" class="edge">
<title>Node18&#45;&gt;Node22</title>
<g id="a_edge41_Node000018_Node000022"><a xlink:title=" ">
<path fill="none" stroke="#63b8ff" d="M698.15,-454.35C718.93,-432.73 748.33,-397.41 760.57,-360 764.72,-347.33 766.9,-341.74 760.57,-330 751.88,-313.87 735.46,-302.1 720.1,-294.04"/>
<polygon fill="#63b8ff" stroke="#63b8ff" points="695.46,-452.1 690.93,-461.68 700.44,-457.01 695.46,-452.1"/>
</a>
</g>
</g>
<!-- Node18&#45;&gt;Node23 -->
<g id="edge46_Node000018_Node000023" class="edge">
<title>Node18&#45;&gt;Node23</title>
<g id="a_edge46_Node000018_Node000023"><a xlink:title=" ">
<path fill="none" stroke="#63b8ff" d="M706.83,-456.27C719.65,-447.6 734.32,-436.93 746.57,-426 795.45,-382.4 844.52,-321.56 865.71,-294.25"/>
<polygon fill="#63b8ff" stroke="#63b8ff" points="704.7,-453.48 698.3,-461.92 708.57,-459.31 704.7,-453.48"/>
</a>
</g>
</g>
<!-- Node19&#45;&gt;Node2 -->
<g id="edge33_Node000019_Node000002" class="edge">
<title>Node19&#45;&gt;Node2</title>
<g id="a_edge33_Node000019_Node000002"><a xlink:title=" ">
<path fill="none" stroke="#63b8ff" d="M344.1,-393.13C301.79,-380.71 246.02,-364.33 212.58,-354.52"/>
<polygon fill="#63b8ff" stroke="#63b8ff" points="343.15,-396.5 353.73,-395.95 345.12,-389.78 343.15,-396.5"/>
</a>
</g>
</g>
<!-- Node21&#45;&gt;Node2 -->
<g id="edge38_Node000021_Node000002" class="edge">
<title>Node21&#45;&gt;Node2</title>
<g id="a_edge38_Node000021_Node000002"><a xlink:title=" ">
<path fill="none" stroke="#63b8ff" d="M209.37,-387.28C202.36,-376.07 194.31,-363.19 189.1,-354.84"/>
<polygon fill="#63b8ff" stroke="#63b8ff" points="206.42,-389.17 214.69,-395.8 212.36,-385.46 206.42,-389.17"/>
</a>
</g>
</g>
<!-- Node21&#45;&gt;Node6 -->
<g id="edge37_Node000021_Node000006" class="edge">
<title>Node21&#45;&gt;Node6</title>
<g id="a_edge37_Node000021_Node000006"><a xlink:title=" ">
<path fill="none" stroke="#63b8ff" d="M244.53,-388.2C251.49,-379.92 258.7,-370.06 263.57,-360 280.94,-324.13 302.96,-203.37 310.17,-162.02"/>
<polygon fill="#63b8ff" stroke="#63b8ff" points="241.73,-386.08 237.74,-395.89 246.98,-390.71 241.73,-386.08"/>
</a>
</g>
</g>
<!-- Node22&#45;&gt;Node8 -->
<g id="edge42_Node000022_Node000008" class="edge">
<title>Node22&#45;&gt;Node8</title>
<g id="a_edge42_Node000022_Node000008"><a xlink:title=" ">
<path fill="none" stroke="#63b8ff" d="M665.61,-255.91C659.66,-247.68 653.81,-237.92 650.57,-228 634.27,-178.1 641.06,-113.44 644.26,-90.51"/>
<polygon fill="#63b8ff" stroke="#63b8ff" points="662.87,-258.08 671.74,-263.87 668.41,-253.81 662.87,-258.08"/>
</a>
</g>
</g>
<!-- Node22&#45;&gt;Node10 -->
<g id="edge43_Node000022_Node000010" class="edge">
<title>Node22&#45;&gt;Node10</title>
<g id="a_edge43_Node000022_Node000010"><a xlink:title=" ">
<path fill="none" stroke="#63b8ff" d="M718.47,-258.97C736.16,-249.03 757.44,-237.09 773.61,-228.01"/>
<polygon fill="#63b8ff" stroke="#63b8ff" points="716.59,-256.01 709.59,-263.95 720.02,-262.11 716.59,-256.01"/>
</a>
</g>
</g>
<!-- Node23&#45;&gt;Node8 -->
<g id="edge47_Node000023_Node000008" class="edge">
<title>Node23&#45;&gt;Node8</title>
<g id="a_edge47_Node000023_Node000008"><a xlink:title=" ">
<path fill="none" stroke="#63b8ff" d="M798.96,-264.97C772.54,-257.55 744.24,-245.99 722.57,-228 676.26,-189.57 654.11,-115.94 647.65,-90.73"/>
<polygon fill="#63b8ff" stroke="#63b8ff" points="798.41,-268.45 808.98,-267.61 800.2,-261.68 798.41,-268.45"/>
</a>
</g>
</g>
<!-- Node23&#45;&gt;Node10 -->
<g id="edge48_Node000023_Node000010" class="edge">
<title>Node23&#45;&gt;Node10</title>
<g id="a_edge48_Node000023_Node000010"><a xlink:title=" ">
<path fill="none" stroke="#63b8ff" d="M851.22,-257.2C839.64,-247.7 826.22,-236.69 815.83,-228.16"/>
<polygon fill="#63b8ff" stroke="#63b8ff" points="849.31,-260.16 859.26,-263.8 853.75,-254.75 849.31,-260.16"/>
</a>
</g>
</g>
</g>
</svg>
