<?xml version="1.0" encoding="UTF-8" standalone="no"?>
<!DOCTYPE svg PUBLIC "-//W3C//DTD SVG 1.1//EN"
 "http://www.w3.org/Graphics/SVG/1.1/DTD/svg11.dtd">
<!-- Generated by graphviz version 2.43.0 (0)
 -->
<!-- Title: userver/logging/log_helper_fwd.hpp Pages: 1 -->
<svg width="2120pt" height="390pt"
 viewBox="0.00 0.00 2119.50 390.00" xmlns="http://www.w3.org/2000/svg" xmlns:xlink="http://www.w3.org/1999/xlink">
<g id="graph0" class="graph" transform="scale(1 1) rotate(0) translate(4 386)">
<title>userver/logging/log_helper_fwd.hpp</title>
<!-- Node1 -->
<g id="Node000001" class="node">
<title>Node1</title>
<g id="a_Node000001"><a xlink:title=" ">
<polygon fill="#999999" stroke="#666666" points="1192.5,-382 1082.5,-382 1082.5,-352 1192.5,-352 1192.5,-382"/>
<text text-anchor="start" x="1090.5" y="-370" font-family="Helvetica,sans-Serif" font-size="10.00">userver/logging/log</text>
<text text-anchor="middle" x="1137.5" y="-359" font-family="Helvetica,sans-Serif" font-size="10.00">_helper_fwd.hpp</text>
</a>
</g>
</g>
<!-- Node2 -->
<g id="Node000002" class="node">
<title>Node2</title>
<g id="a_Node000002"><a xlink:href="../../d7/d1b/sockaddr_8hpp.html" target="_top" xlink:title="Native socket address wrapper.">
<polygon fill="white" stroke="#666666" points="456.5,-310.5 288.5,-310.5 288.5,-291.5 456.5,-291.5 456.5,-310.5"/>
<text text-anchor="middle" x="372.5" y="-298.5" font-family="Helvetica,sans-Serif" font-size="10.00">userver/engine/io/sockaddr.hpp</text>
</a>
</g>
</g>
<!-- Node1&#45;&gt;Node2 -->
<g id="edge1_Node000001_Node000002" class="edge">
<title>Node1&#45;&gt;Node2</title>
<g id="a_edge1_Node000001_Node000002"><a xlink:title=" ">
<path fill="none" stroke="#63b8ff" d="M1072.44,-360.56C934.03,-348.98 610.45,-321.91 456.61,-309.04"/>
<polygon fill="#63b8ff" stroke="#63b8ff" points="1072.23,-364.05 1082.48,-361.4 1072.81,-357.08 1072.23,-364.05"/>
</a>
</g>
</g>
<!-- Node14 -->
<g id="Node000014" class="node">
<title>Node14</title>
<g id="a_Node000014"><a xlink:href="../../d6/de5/mongo_2include_2userver_2formats_2bson_2serialize_8hpp.html" target="_top" xlink:title="Textual serialization helpers.">
<polygon fill="white" stroke="#666666" points="1332,-316 1211,-316 1211,-286 1332,-286 1332,-316"/>
<text text-anchor="start" x="1219" y="-304" font-family="Helvetica,sans-Serif" font-size="10.00">userver/formats/bson</text>
<text text-anchor="middle" x="1271.5" y="-293" font-family="Helvetica,sans-Serif" font-size="10.00">/serialize.hpp</text>
</a>
</g>
</g>
<!-- Node1&#45;&gt;Node14 -->
<g id="edge15_Node000001_Node000014" class="edge">
<title>Node1&#45;&gt;Node14</title>
<g id="a_edge15_Node000001_Node000014"><a xlink:title=" ">
<path fill="none" stroke="#63b8ff" d="M1176.21,-347.51C1197.23,-337.47 1222.8,-325.26 1242.16,-316.01"/>
<polygon fill="#63b8ff" stroke="#63b8ff" points="1174.42,-344.49 1166.91,-351.95 1177.44,-350.8 1174.42,-344.49"/>
</a>
</g>
</g>
<!-- Node15 -->
<g id="Node000015" class="node">
<title>Node15</title>
<g id="a_Node000015"><a xlink:href="../../d2/d45/http__request_8hpp.html" target="_top" xlink:title="HTTP Request data.">
<polygon fill="white" stroke="#666666" points="1192.5,-316 1082.5,-316 1082.5,-286 1192.5,-286 1192.5,-316"/>
<text text-anchor="start" x="1090.5" y="-304" font-family="Helvetica,sans-Serif" font-size="10.00">userver/server/http</text>
<text text-anchor="middle" x="1137.5" y="-293" font-family="Helvetica,sans-Serif" font-size="10.00">/http_request.hpp</text>
</a>
</g>
</g>
<!-- Node1&#45;&gt;Node15 -->
<g id="edge16_Node000001_Node000015" class="edge">
<title>Node1&#45;&gt;Node15</title>
<g id="a_edge16_Node000001_Node000015"><a xlink:title=" ">
<path fill="none" stroke="#63b8ff" d="M1137.5,-341.54C1137.5,-332.96 1137.5,-323.61 1137.5,-316.16"/>
<polygon fill="#63b8ff" stroke="#63b8ff" points="1134,-341.8 1137.5,-351.8 1141,-341.8 1134,-341.8"/>
</a>
</g>
</g>
<!-- Node3 -->
<g id="Node000003" class="node">
<title>Node3</title>
<g id="a_Node000003"><a xlink:href="../../d4/dc3/core_2include_2userver_2clients_2dns_2common_8hpp.html" target="_top" xlink:title="Common DNS client declarations.">
<polygon fill="white" stroke="#666666" points="306,-250 197,-250 197,-220 306,-220 306,-250"/>
<text text-anchor="start" x="205" y="-238" font-family="Helvetica,sans-Serif" font-size="10.00">userver/clients/dns</text>
<text text-anchor="middle" x="251.5" y="-227" font-family="Helvetica,sans-Serif" font-size="10.00">/common.hpp</text>
</a>
</g>
</g>
<!-- Node2&#45;&gt;Node3 -->
<g id="edge2_Node000002_Node000003" class="edge">
<title>Node2&#45;&gt;Node3</title>
<g id="a_edge2_Node000002_Node000003"><a xlink:title=" ">
<path fill="none" stroke="#63b8ff" d="M347.25,-286.64C327.04,-275.95 298.77,-261 278.19,-250.12"/>
<polygon fill="#63b8ff" stroke="#63b8ff" points="345.71,-289.79 356.18,-291.37 348.98,-283.6 345.71,-289.79"/>
</a>
</g>
</g>
<!-- Node4 -->
<g id="Node000004" class="node">
<title>Node4</title>
<g id="a_Node000004"><a xlink:href="../../dc/da6/resolver_8hpp.html" target="_top" xlink:title="Caching DNS resolver implementation.">
<polygon fill="white" stroke="#666666" points="285,-178.5 176,-178.5 176,-148.5 285,-148.5 285,-178.5"/>
<text text-anchor="start" x="184" y="-166.5" font-family="Helvetica,sans-Serif" font-size="10.00">userver/clients/dns</text>
<text text-anchor="middle" x="230.5" y="-155.5" font-family="Helvetica,sans-Serif" font-size="10.00">/resolver.hpp</text>
</a>
</g>
</g>
<!-- Node2&#45;&gt;Node4 -->
<g id="edge5_Node000002_Node000004" class="edge">
<title>Node2&#45;&gt;Node4</title>
<g id="a_edge5_Node000002_Node000004"><a xlink:title=" ">
<path fill="none" stroke="#63b8ff" d="M362.28,-282.32C351.77,-265.1 334.18,-238.84 314.5,-220 297.2,-203.44 274.36,-188.71 256.87,-178.59"/>
<polygon fill="#63b8ff" stroke="#63b8ff" points="359.5,-284.48 367.62,-291.28 365.51,-280.9 359.5,-284.48"/>
</a>
</g>
</g>
<!-- Node6 -->
<g id="Node000006" class="node">
<title>Node6</title>
<g id="a_Node000006"><a xlink:href="../../d2/dc6/io_8hpp.html" target="_top" xlink:title="Include&#45;all header for low&#45;level asynchronous I/O interfaces.">
<polygon fill="white" stroke="#666666" points="425.5,-173 303.5,-173 303.5,-154 425.5,-154 425.5,-173"/>
<text text-anchor="middle" x="364.5" y="-161" font-family="Helvetica,sans-Serif" font-size="10.00">userver/engine/io.hpp</text>
</a>
</g>
</g>
<!-- Node2&#45;&gt;Node6 -->
<g id="edge6_Node000002_Node000006" class="edge">
<title>Node2&#45;&gt;Node6</title>
<g id="a_edge6_Node000002_Node000006"><a xlink:title=" ">
<path fill="none" stroke="#63b8ff" d="M371.37,-280.78C369.61,-250.98 366.29,-194.82 365.02,-173.25"/>
<polygon fill="#63b8ff" stroke="#63b8ff" points="367.89,-281.33 371.98,-291.11 374.88,-280.92 367.89,-281.33"/>
</a>
</g>
</g>
<!-- Node7 -->
<g id="Node000007" class="node">
<title>Node7</title>
<g id="a_Node000007"><a xlink:href="../../da/dfc/socket_8hpp.html" target="_top" xlink:title="Socket representation.">
<polygon fill="white" stroke="#666666" points="573,-244.5 416,-244.5 416,-225.5 573,-225.5 573,-244.5"/>
<text text-anchor="middle" x="494.5" y="-232.5" font-family="Helvetica,sans-Serif" font-size="10.00">userver/engine/io/socket.hpp</text>
</a>
</g>
</g>
<!-- Node2&#45;&gt;Node7 -->
<g id="edge7_Node000002_Node000007" class="edge">
<title>Node2&#45;&gt;Node7</title>
<g id="a_edge7_Node000002_Node000007"><a xlink:title=" ">
<path fill="none" stroke="#63b8ff" d="M397.86,-286.69C421.9,-274.09 457.3,-255.51 477.92,-244.7"/>
<polygon fill="#63b8ff" stroke="#63b8ff" points="396.18,-283.62 388.95,-291.37 399.43,-289.82 396.18,-283.62"/>
</a>
</g>
</g>
<!-- Node12 -->
<g id="Node000012" class="node">
<title>Node12</title>
<g id="a_Node000012"><a xlink:href="../../d8/d8f/get__addr__info_8hpp.html" target="_top" xlink:title="Blocking Functions for getaddrinfo.">
<polygon fill="white" stroke="#666666" points="707.5,-250 591.5,-250 591.5,-220 707.5,-220 707.5,-250"/>
<text text-anchor="start" x="599.5" y="-238" font-family="Helvetica,sans-Serif" font-size="10.00">userver/net/blocking</text>
<text text-anchor="middle" x="649.5" y="-227" font-family="Helvetica,sans-Serif" font-size="10.00">/get_addr_info.hpp</text>
</a>
</g>
</g>
<!-- Node2&#45;&gt;Node12 -->
<g id="edge13_Node000002_Node000012" class="edge">
<title>Node2&#45;&gt;Node12</title>
<g id="a_edge13_Node000002_Node000012"><a xlink:title=" ">
<path fill="none" stroke="#63b8ff" d="M419.58,-289.12C467.04,-278.16 540.38,-261.21 591.42,-249.42"/>
<polygon fill="#63b8ff" stroke="#63b8ff" points="418.53,-285.77 409.57,-291.44 420.1,-292.59 418.53,-285.77"/>
</a>
</g>
</g>
<!-- Node13 -->
<g id="Node000013" class="node">
<title>Node13</title>
<g id="a_Node000013"><a xlink:href="../../d2/d63/dns__server__mock_8hpp_source.html" target="_top" xlink:title=" ">
<polygon fill="white" stroke="#666666" points="179,-250 42,-250 42,-220 179,-220 179,-250"/>
<text text-anchor="start" x="50" y="-238" font-family="Helvetica,sans-Serif" font-size="10.00">userver/utest/dns_server</text>
<text text-anchor="middle" x="110.5" y="-227" font-family="Helvetica,sans-Serif" font-size="10.00">_mock.hpp</text>
</a>
</g>
</g>
<!-- Node2&#45;&gt;Node13 -->
<g id="edge14_Node000002_Node000013" class="edge">
<title>Node2&#45;&gt;Node13</title>
<g id="a_edge14_Node000002_Node000013"><a xlink:title=" ">
<path fill="none" stroke="#63b8ff" d="M327.57,-289.02C283.44,-278.24 215.92,-261.75 167.91,-250.02"/>
<polygon fill="#63b8ff" stroke="#63b8ff" points="326.89,-292.46 337.44,-291.44 328.55,-285.66 326.89,-292.46"/>
</a>
</g>
</g>
<!-- Node3&#45;&gt;Node4 -->
<g id="edge3_Node000003_Node000004" class="edge">
<title>Node3&#45;&gt;Node4</title>
<g id="a_edge3_Node000003_Node000004"><a xlink:title=" ">
<path fill="none" stroke="#63b8ff" d="M244.27,-210.08C241.09,-199.56 237.47,-187.58 234.74,-178.54"/>
<polygon fill="#63b8ff" stroke="#63b8ff" points="241.01,-211.38 247.25,-219.94 247.71,-209.35 241.01,-211.38"/>
</a>
</g>
</g>
<!-- Node5 -->
<g id="Node000005" class="node">
<title>Node5</title>
<g id="a_Node000005"><a xlink:href="../../d6/dbb/core_2include_2userver_2clients_2dns_2component_8hpp.html" target="_top" xlink:title="Caching DNS resolver component.">
<polygon fill="white" stroke="#666666" points="109,-101.5 0,-101.5 0,-71.5 109,-71.5 109,-101.5"/>
<text text-anchor="start" x="8" y="-89.5" font-family="Helvetica,sans-Serif" font-size="10.00">userver/clients/dns</text>
<text text-anchor="middle" x="54.5" y="-78.5" font-family="Helvetica,sans-Serif" font-size="10.00">/component.hpp</text>
</a>
</g>
</g>
<!-- Node4&#45;&gt;Node5 -->
<g id="edge4_Node000004_Node000005" class="edge">
<title>Node4&#45;&gt;Node5</title>
<g id="a_edge4_Node000004_Node000005"><a xlink:title=" ">
<path fill="none" stroke="#63b8ff" d="M188.16,-144.46C157.24,-131.28 115.93,-113.68 87.46,-101.54"/>
<polygon fill="#63b8ff" stroke="#63b8ff" points="186.82,-147.69 197.4,-148.39 189.57,-141.25 186.82,-147.69"/>
</a>
</g>
</g>
<!-- Node7&#45;&gt;Node6 -->
<g id="edge9_Node000007_Node000006" class="edge">
<title>Node7&#45;&gt;Node6</title>
<g id="a_edge9_Node000007_Node000006"><a xlink:title=" ">
<path fill="none" stroke="#63b8ff" d="M469.61,-220.69C443.38,-206.67 402.86,-185.01 380.57,-173.09"/>
<polygon fill="#63b8ff" stroke="#63b8ff" points="468.09,-223.85 478.56,-225.48 471.39,-217.68 468.09,-223.85"/>
</a>
</g>
</g>
<!-- Node8 -->
<g id="Node000008" class="node">
<title>Node8</title>
<g id="a_Node000008"><a xlink:href="../../d2/d41/tcp__acceptor__base_8hpp.html" target="_top" xlink:title="Component for accepting incoming TCP connections.">
<polygon fill="white" stroke="#666666" points="709,-178.5 578,-178.5 578,-148.5 709,-148.5 709,-178.5"/>
<text text-anchor="start" x="586" y="-166.5" font-family="Helvetica,sans-Serif" font-size="10.00">userver/components</text>
<text text-anchor="middle" x="643.5" y="-155.5" font-family="Helvetica,sans-Serif" font-size="10.00">/tcp_acceptor_base.hpp</text>
</a>
</g>
</g>
<!-- Node7&#45;&gt;Node8 -->
<g id="edge8_Node000007_Node000008" class="edge">
<title>Node7&#45;&gt;Node8</title>
<g id="a_edge8_Node000007_Node000008"><a xlink:title=" ">
<path fill="none" stroke="#63b8ff" d="M522.03,-221.16C547.97,-209.06 586.74,-190.97 613.47,-178.51"/>
<polygon fill="#63b8ff" stroke="#63b8ff" points="520.35,-218.08 512.77,-225.48 523.31,-224.42 520.35,-218.08"/>
</a>
</g>
</g>
<!-- Node9 -->
<g id="Node000009" class="node">
<title>Node9</title>
<g id="a_Node000009"><a xlink:href="../../d2/d28/tls__wrapper_8hpp.html" target="_top" xlink:title="TLS socket wrappers.">
<polygon fill="white" stroke="#666666" points="559.5,-178.5 443.5,-178.5 443.5,-148.5 559.5,-148.5 559.5,-178.5"/>
<text text-anchor="start" x="451.5" y="-166.5" font-family="Helvetica,sans-Serif" font-size="10.00">userver/engine/io/tls</text>
<text text-anchor="middle" x="501.5" y="-155.5" font-family="Helvetica,sans-Serif" font-size="10.00">_wrapper.hpp</text>
</a>
</g>
</g>
<!-- Node7&#45;&gt;Node9 -->
<g id="edge10_Node000007_Node000009" class="edge">
<title>Node7&#45;&gt;Node9</title>
<g id="a_edge10_Node000007_Node000009"><a xlink:title=" ">
<path fill="none" stroke="#63b8ff" d="M496.39,-215.21C497.55,-203.69 499.01,-189.18 500.08,-178.64"/>
<polygon fill="#63b8ff" stroke="#63b8ff" points="492.88,-215.18 495.36,-225.48 499.84,-215.88 492.88,-215.18"/>
</a>
</g>
</g>
<!-- Node10 -->
<g id="Node000010" class="node">
<title>Node10</title>
<g id="a_Node000010"><a xlink:href="../../de/d4e/core_2include_2userver_2server_2websocket_2server_8hpp.html" target="_top" xlink:title=" ">
<polygon fill="white" stroke="#666666" points="869.5,-178.5 727.5,-178.5 727.5,-148.5 869.5,-148.5 869.5,-178.5"/>
<text text-anchor="start" x="735.5" y="-166.5" font-family="Helvetica,sans-Serif" font-size="10.00">userver/server/websocket</text>
<text text-anchor="middle" x="798.5" y="-155.5" font-family="Helvetica,sans-Serif" font-size="10.00">/server.hpp</text>
</a>
</g>
</g>
<!-- Node7&#45;&gt;Node10 -->
<g id="edge11_Node000007_Node000010" class="edge">
<title>Node7&#45;&gt;Node10</title>
<g id="a_edge11_Node000007_Node000010"><a xlink:title=" ">
<path fill="none" stroke="#63b8ff" d="M543.45,-223.26C588.67,-213.28 657.68,-197.91 717.5,-184 724.97,-182.26 732.81,-180.41 740.56,-178.56"/>
<polygon fill="#63b8ff" stroke="#63b8ff" points="542.63,-219.85 533.62,-225.42 544.14,-226.69 542.63,-219.85"/>
</a>
</g>
</g>
<!-- Node11 -->
<g id="Node000011" class="node">
<title>Node11</title>
<g id="a_Node000011"><a xlink:href="../../d4/d64/websocket__handler_8hpp.html" target="_top" xlink:title=" ">
<polygon fill="white" stroke="#666666" points="269.5,-101.5 127.5,-101.5 127.5,-71.5 269.5,-71.5 269.5,-101.5"/>
<text text-anchor="start" x="135.5" y="-89.5" font-family="Helvetica,sans-Serif" font-size="10.00">userver/server/websocket</text>
<text text-anchor="middle" x="198.5" y="-78.5" font-family="Helvetica,sans-Serif" font-size="10.00">/websocket_handler.hpp</text>
</a>
</g>
</g>
<!-- Node10&#45;&gt;Node11 -->
<g id="edge12_Node000010_Node000011" class="edge">
<title>Node10&#45;&gt;Node11</title>
<g id="a_edge12_Node000010_Node000011"><a xlink:title=" ">
<path fill="none" stroke="#63b8ff" d="M735.17,-146.27C729.22,-145.04 723.26,-143.92 717.5,-143 524.2,-112 471.75,-138.28 278.5,-107 269.61,-105.56 260.25,-103.65 251.19,-101.58"/>
<polygon fill="#63b8ff" stroke="#63b8ff" points="734.63,-149.73 745.14,-148.42 736.11,-142.89 734.63,-149.73"/>
</a>
</g>
</g>
<!-- Node15&#45;&gt;Node10 -->
<g id="edge40_Node000015_Node000010" class="edge">
<title>Node15&#45;&gt;Node10</title>
<g id="a_edge40_Node000015_Node000010"><a xlink:title=" ">
<path fill="none" stroke="#63b8ff" d="M1092.56,-282.04C1024.26,-254.74 895.75,-203.37 833.74,-178.59"/>
<polygon fill="#63b8ff" stroke="#63b8ff" points="1091.6,-285.42 1102.18,-285.88 1094.19,-278.92 1091.6,-285.42"/>
</a>
</g>
</g>
<!-- Node16 -->
<g id="Node000016" class="node">
<title>Node16</title>
<g id="a_Node000016"><a xlink:href="../../da/dff/auth__checker__base_8hpp_source.html" target="_top" xlink:title=" ">
<polygon fill="white" stroke="#666666" points="1285.5,-250 1127.5,-250 1127.5,-220 1285.5,-220 1285.5,-250"/>
<text text-anchor="start" x="1135.5" y="-238" font-family="Helvetica,sans-Serif" font-size="10.00">userver/server/handlers</text>
<text text-anchor="middle" x="1206.5" y="-227" font-family="Helvetica,sans-Serif" font-size="10.00">/auth/auth_checker_base.hpp</text>
</a>
</g>
</g>
<!-- Node15&#45;&gt;Node16 -->
<g id="edge17_Node000015_Node000016" class="edge">
<title>Node15&#45;&gt;Node16</title>
<g id="a_edge17_Node000015_Node000016"><a xlink:title=" ">
<path fill="none" stroke="#63b8ff" d="M1160.22,-278.92C1170.4,-269.49 1182.13,-258.61 1191.23,-250.16"/>
<polygon fill="#63b8ff" stroke="#63b8ff" points="1157.76,-276.43 1152.81,-285.8 1162.53,-281.56 1157.76,-276.43"/>
</a>
</g>
</g>
<!-- Node18 -->
<g id="Node000018" class="node">
<title>Node18</title>
<g id="a_Node000018"><a xlink:href="../../de/d82/digest_2auth__checker__base_8hpp.html" target="_top" xlink:title="Base class for digest authentication checkers. Implements a digest&#45;authentication logic.">
<polygon fill="white" stroke="#666666" points="1466.5,-184 1324.5,-184 1324.5,-143 1466.5,-143 1466.5,-184"/>
<text text-anchor="start" x="1332.5" y="-172" font-family="Helvetica,sans-Serif" font-size="10.00">userver/server/handlers</text>
<text text-anchor="start" x="1332.5" y="-161" font-family="Helvetica,sans-Serif" font-size="10.00">/auth/digest/auth_checker</text>
<text text-anchor="middle" x="1395.5" y="-150" font-family="Helvetica,sans-Serif" font-size="10.00">_base.hpp</text>
</a>
</g>
</g>
<!-- Node15&#45;&gt;Node18 -->
<g id="edge37_Node000015_Node000018" class="edge">
<title>Node15&#45;&gt;Node18</title>
<g id="a_edge37_Node000015_Node000018"><a xlink:title=" ">
<path fill="none" stroke="#63b8ff" d="M1202.41,-285.51C1231.65,-277.45 1265.94,-265.8 1294.5,-250 1326.66,-232.2 1358.08,-203.25 1377.11,-184.04"/>
<polygon fill="#63b8ff" stroke="#63b8ff" points="1201.46,-282.14 1192.71,-288.11 1203.27,-288.9 1201.46,-282.14"/>
</a>
</g>
</g>
<!-- Node19 -->
<g id="Node000019" class="node">
<title>Node19</title>
<g id="a_Node000019"><a xlink:href="../../db/df0/standalone__checker_8hpp.html" target="_top" xlink:title="Class for digest authentication checker. Implements a stand&#45;alone digest&#45;authentication logic.">
<polygon fill="white" stroke="#666666" points="2111.5,-107 1979.5,-107 1979.5,-66 2111.5,-66 2111.5,-107"/>
<text text-anchor="start" x="1987.5" y="-95" font-family="Helvetica,sans-Serif" font-size="10.00">userver/server/handlers</text>
<text text-anchor="start" x="1987.5" y="-84" font-family="Helvetica,sans-Serif" font-size="10.00">/auth/digest/standalone</text>
<text text-anchor="middle" x="2045.5" y="-73" font-family="Helvetica,sans-Serif" font-size="10.00">_checker.hpp</text>
</a>
</g>
</g>
<!-- Node15&#45;&gt;Node19 -->
<g id="edge38_Node000015_Node000019" class="edge">
<title>Node15&#45;&gt;Node19</title>
<g id="a_edge38_Node000015_Node000019"><a xlink:title=" ">
<path fill="none" stroke="#63b8ff" d="M1202.87,-285.48C1343.55,-254.09 1685.36,-177.09 1970.5,-107 1973.37,-106.29 1976.31,-105.56 1979.27,-104.82"/>
<polygon fill="#63b8ff" stroke="#63b8ff" points="1201.69,-282.15 1192.69,-287.75 1203.21,-288.99 1201.69,-282.15"/>
</a>
</g>
</g>
<!-- Node20 -->
<g id="Node000020" class="node">
<title>Node20</title>
<g id="a_Node000020"><a xlink:href="../../d4/df6/http__handler__base_8hpp.html" target="_top" xlink:title="Base class for all the Userver HTTP Handlers.">
<polygon fill="white" stroke="#666666" points="1120.5,-178.5 988.5,-178.5 988.5,-148.5 1120.5,-148.5 1120.5,-178.5"/>
<text text-anchor="start" x="996.5" y="-166.5" font-family="Helvetica,sans-Serif" font-size="10.00">userver/server/handlers</text>
<text text-anchor="middle" x="1054.5" y="-155.5" font-family="Helvetica,sans-Serif" font-size="10.00">/http_handler_base.hpp</text>
</a>
</g>
</g>
<!-- Node15&#45;&gt;Node20 -->
<g id="edge39_Node000015_Node000020" class="edge">
<title>Node15&#45;&gt;Node20</title>
<g id="a_edge39_Node000015_Node000020"><a xlink:title=" ">
<path fill="none" stroke="#63b8ff" d="M1123.39,-276.97C1106.11,-248.76 1077.39,-201.87 1063.11,-178.55"/>
<polygon fill="#63b8ff" stroke="#63b8ff" points="1120.57,-279.06 1128.77,-285.76 1126.54,-275.4 1120.57,-279.06"/>
</a>
</g>
</g>
<!-- Node17 -->
<g id="Node000017" class="node">
<title>Node17</title>
<g id="a_Node000017"><a xlink:href="../../db/ddd/auth__checker__factory_8hpp.html" target="_top" xlink:title="Authorization factory registration and base classes.">
<polygon fill="white" stroke="#666666" points="1306.5,-178.5 1138.5,-178.5 1138.5,-148.5 1306.5,-148.5 1306.5,-178.5"/>
<text text-anchor="start" x="1146.5" y="-166.5" font-family="Helvetica,sans-Serif" font-size="10.00">userver/server/handlers</text>
<text text-anchor="middle" x="1222.5" y="-155.5" font-family="Helvetica,sans-Serif" font-size="10.00">/auth/auth_checker_factory.hpp</text>
</a>
</g>
</g>
<!-- Node16&#45;&gt;Node17 -->
<g id="edge18_Node000016_Node000017" class="edge">
<title>Node16&#45;&gt;Node17</title>
<g id="a_edge18_Node000016_Node000017"><a xlink:title=" ">
<path fill="none" stroke="#63b8ff" d="M1212.01,-210.08C1214.43,-199.56 1217.19,-187.58 1219.27,-178.54"/>
<polygon fill="#63b8ff" stroke="#63b8ff" points="1208.57,-209.41 1209.74,-219.94 1215.39,-210.98 1208.57,-209.41"/>
</a>
</g>
</g>
<!-- Node16&#45;&gt;Node18 -->
<g id="edge19_Node000016_Node000018" class="edge">
<title>Node16&#45;&gt;Node18</title>
<g id="a_edge19_Node000016_Node000018"><a xlink:title=" ">
<path fill="none" stroke="#63b8ff" d="M1254.3,-216.42C1281.11,-206.56 1314.62,-194.24 1342.27,-184.07"/>
<polygon fill="#63b8ff" stroke="#63b8ff" points="1252.92,-213.2 1244.75,-219.94 1255.34,-219.77 1252.92,-213.2"/>
</a>
</g>
</g>
<!-- Node16&#45;&gt;Node20 -->
<g id="edge21_Node000016_Node000020" class="edge">
<title>Node16&#45;&gt;Node20</title>
<g id="a_edge21_Node000016_Node000020"><a xlink:title=" ">
<path fill="none" stroke="#63b8ff" d="M1166.37,-215.65C1140.95,-204.03 1108.59,-189.23 1085.21,-178.54"/>
<polygon fill="#63b8ff" stroke="#63b8ff" points="1165.19,-218.96 1175.74,-219.94 1168.1,-212.59 1165.19,-218.96"/>
</a>
</g>
</g>
<!-- Node18&#45;&gt;Node19 -->
<g id="edge20_Node000018_Node000019" class="edge">
<title>Node18&#45;&gt;Node19</title>
<g id="a_edge20_Node000018_Node000019"><a xlink:title=" ">
<path fill="none" stroke="#63b8ff" d="M1477.01,-158.7C1588.94,-152.55 1796.21,-137.87 1970.5,-107 1973.41,-106.48 1976.38,-105.91 1979.37,-105.3"/>
<polygon fill="#63b8ff" stroke="#63b8ff" points="1476.6,-155.21 1466.81,-159.25 1476.98,-162.2 1476.6,-155.21"/>
</a>
</g>
</g>
<!-- Node20&#45;&gt;Node11 -->
<g id="edge36_Node000020_Node000011" class="edge">
<title>Node20&#45;&gt;Node11</title>
<g id="a_edge36_Node000020_Node000011"><a xlink:title=" ">
<path fill="none" stroke="#63b8ff" d="M977.88,-153.16C947.04,-149.62 911.11,-145.78 878.5,-143 612.32,-120.28 542.67,-146.79 278.5,-107 269.31,-105.62 259.63,-103.68 250.3,-101.56"/>
<polygon fill="#63b8ff" stroke="#63b8ff" points="977.8,-156.68 988.14,-154.35 978.6,-149.72 977.8,-156.68"/>
</a>
</g>
</g>
<!-- Node21 -->
<g id="Node000021" class="node">
<title>Node21</title>
<g id="a_Node000021"><a xlink:href="../../d6/d0d/dns__client__control_8hpp.html" target="_top" xlink:title="Handlers that controls the DNS client.">
<polygon fill="white" stroke="#666666" points="1805.5,-101.5 1673.5,-101.5 1673.5,-71.5 1805.5,-71.5 1805.5,-101.5"/>
<text text-anchor="start" x="1681.5" y="-89.5" font-family="Helvetica,sans-Serif" font-size="10.00">userver/server/handlers</text>
<text text-anchor="middle" x="1739.5" y="-78.5" font-family="Helvetica,sans-Serif" font-size="10.00">/dns_client_control.hpp</text>
</a>
</g>
</g>
<!-- Node20&#45;&gt;Node21 -->
<g id="edge22_Node000020_Node000021" class="edge">
<title>Node20&#45;&gt;Node21</title>
<g id="a_edge22_Node000020_Node000021"><a xlink:title=" ">
<path fill="none" stroke="#63b8ff" d="M1112.98,-146.18C1118.53,-144.96 1124.1,-143.87 1129.5,-143 1364.74,-104.85 1429.26,-145.15 1664.5,-107 1673.13,-105.6 1682.22,-103.65 1690.97,-101.53"/>
<polygon fill="#63b8ff" stroke="#63b8ff" points="1111.99,-142.81 1103.03,-148.47 1113.57,-149.63 1111.99,-142.81"/>
</a>
</g>
</g>
<!-- Node22 -->
<g id="Node000022" class="node">
<title>Node22</title>
<g id="a_Node000022"><a xlink:href="../../d6/dc0/dynamic__debug__log_8hpp.html" target="_top" xlink:title="HTTP Handler to show/hide logs at the specific file:line.">
<polygon fill="white" stroke="#666666" points="1961.5,-101.5 1823.5,-101.5 1823.5,-71.5 1961.5,-71.5 1961.5,-101.5"/>
<text text-anchor="start" x="1831.5" y="-89.5" font-family="Helvetica,sans-Serif" font-size="10.00">userver/server/handlers</text>
<text text-anchor="middle" x="1892.5" y="-78.5" font-family="Helvetica,sans-Serif" font-size="10.00">/dynamic_debug_log.hpp</text>
</a>
</g>
</g>
<!-- Node20&#45;&gt;Node22 -->
<g id="edge23_Node000020_Node000022" class="edge">
<title>Node20&#45;&gt;Node22</title>
<g id="a_edge23_Node000020_Node000022"><a xlink:title=" ">
<path fill="none" stroke="#63b8ff" d="M1112.71,-146.15C1118.35,-144.93 1124.02,-143.85 1129.5,-143 1430.78,-96.41 1513,-152.18 1814.5,-107 1823.61,-105.63 1833.21,-103.68 1842.44,-101.52"/>
<polygon fill="#63b8ff" stroke="#63b8ff" points="1111.58,-142.81 1102.61,-148.46 1113.14,-149.64 1111.58,-142.81"/>
</a>
</g>
</g>
<!-- Node23 -->
<g id="Node000023" class="node">
<title>Node23</title>
<g id="a_Node000023"><a xlink:href="../../d5/d4d/http__handler__flatbuf__base_8hpp.html" target="_top" xlink:title="Convenient base for handlers that accept requests with body in Flatbuffer format and respond with bod...">
<polygon fill="white" stroke="#666666" points="419.5,-107 287.5,-107 287.5,-66 419.5,-66 419.5,-107"/>
<text text-anchor="start" x="295.5" y="-95" font-family="Helvetica,sans-Serif" font-size="10.00">userver/server/handlers</text>
<text text-anchor="start" x="295.5" y="-84" font-family="Helvetica,sans-Serif" font-size="10.00">/http_handler_flatbuf</text>
<text text-anchor="middle" x="353.5" y="-73" font-family="Helvetica,sans-Serif" font-size="10.00">_base.hpp</text>
</a>
</g>
</g>
<!-- Node20&#45;&gt;Node23 -->
<g id="edge24_Node000020_Node000023" class="edge">
<title>Node20&#45;&gt;Node23</title>
<g id="a_edge24_Node000020_Node000023"><a xlink:title=" ">
<path fill="none" stroke="#63b8ff" d="M977.85,-153.49C947,-150 911.08,-146.11 878.5,-143 678.77,-123.95 626.34,-140.37 428.5,-107 425.58,-106.51 422.61,-105.96 419.62,-105.36"/>
<polygon fill="#63b8ff" stroke="#63b8ff" points="977.78,-157.01 988.11,-154.66 978.57,-150.05 977.78,-157.01"/>
</a>
</g>
</g>
<!-- Node24 -->
<g id="Node000024" class="node">
<title>Node24</title>
<g id="a_Node000024"><a xlink:href="../../d1/d58/http__handler__json__base_8hpp.html" target="_top" xlink:title="Convenient base for handlers that accept requests with body in JSON format and respond with body in J...">
<polygon fill="white" stroke="#666666" points="593.5,-101.5 437.5,-101.5 437.5,-71.5 593.5,-71.5 593.5,-101.5"/>
<text text-anchor="start" x="445.5" y="-89.5" font-family="Helvetica,sans-Serif" font-size="10.00">userver/server/handlers</text>
<text text-anchor="middle" x="515.5" y="-78.5" font-family="Helvetica,sans-Serif" font-size="10.00">/http_handler_json_base.hpp</text>
</a>
</g>
</g>
<!-- Node20&#45;&gt;Node24 -->
<g id="edge25_Node000020_Node000024" class="edge">
<title>Node20&#45;&gt;Node24</title>
<g id="a_edge25_Node000020_Node000024"><a xlink:title=" ">
<path fill="none" stroke="#63b8ff" d="M978.29,-154.06C868.92,-141.79 672.85,-119.17 602.5,-107 593.35,-105.42 583.71,-103.5 574.31,-101.5"/>
<polygon fill="#63b8ff" stroke="#63b8ff" points="977.95,-157.55 988.28,-155.18 978.73,-150.59 977.95,-157.55"/>
</a>
</g>
</g>
<!-- Node27 -->
<g id="Node000027" class="node">
<title>Node27</title>
<g id="a_Node000027"><a xlink:href="../../dd/db6/http__handler__static_8hpp.html" target="_top" xlink:title="Handler that returns HTTP 200 if file exist and returns file data with mapped content/type.">
<polygon fill="white" stroke="#666666" points="745.5,-101.5 611.5,-101.5 611.5,-71.5 745.5,-71.5 745.5,-101.5"/>
<text text-anchor="start" x="619.5" y="-89.5" font-family="Helvetica,sans-Serif" font-size="10.00">userver/server/handlers</text>
<text text-anchor="middle" x="678.5" y="-78.5" font-family="Helvetica,sans-Serif" font-size="10.00">/http_handler_static.hpp</text>
</a>
</g>
</g>
<!-- Node20&#45;&gt;Node27 -->
<g id="edge28_Node000020_Node000027" class="edge">
<title>Node20&#45;&gt;Node27</title>
<g id="a_edge28_Node000020_Node000027"><a xlink:title=" ">
<path fill="none" stroke="#63b8ff" d="M978.5,-149.92C917.68,-139.49 830.32,-123.72 754.5,-107 747.05,-105.36 739.22,-103.5 731.54,-101.6"/>
<polygon fill="#63b8ff" stroke="#63b8ff" points="977.95,-153.37 988.4,-151.61 979.13,-146.47 977.95,-153.37"/>
</a>
</g>
</g>
<!-- Node28 -->
<g id="Node000028" class="node">
<title>Node28</title>
<g id="a_Node000028"><a xlink:href="../../d5/d86/jemalloc_8hpp.html" target="_top" xlink:title="Handler that controls the jemalloc allocator.">
<polygon fill="white" stroke="#666666" points="895.5,-101.5 763.5,-101.5 763.5,-71.5 895.5,-71.5 895.5,-101.5"/>
<text text-anchor="start" x="771.5" y="-89.5" font-family="Helvetica,sans-Serif" font-size="10.00">userver/server/handlers</text>
<text text-anchor="middle" x="829.5" y="-78.5" font-family="Helvetica,sans-Serif" font-size="10.00">/jemalloc.hpp</text>
</a>
</g>
</g>
<!-- Node20&#45;&gt;Node28 -->
<g id="edge29_Node000020_Node000028" class="edge">
<title>Node20&#45;&gt;Node28</title>
<g id="a_edge29_Node000020_Node000028"><a xlink:title=" ">
<path fill="none" stroke="#63b8ff" d="M1002.93,-145.31C963.18,-132.06 908.92,-113.97 871.73,-101.58"/>
<polygon fill="#63b8ff" stroke="#63b8ff" points="1001.85,-148.64 1012.44,-148.48 1004.06,-142 1001.85,-148.64"/>
</a>
</g>
</g>
<!-- Node29 -->
<g id="Node000029" class="node">
<title>Node29</title>
<g id="a_Node000029"><a xlink:href="../../d0/d01/log__level_8hpp.html" target="_top" xlink:title="Handler that controls logging levels of all the loggers.">
<polygon fill="white" stroke="#666666" points="1045.5,-101.5 913.5,-101.5 913.5,-71.5 1045.5,-71.5 1045.5,-101.5"/>
<text text-anchor="start" x="921.5" y="-89.5" font-family="Helvetica,sans-Serif" font-size="10.00">userver/server/handlers</text>
<text text-anchor="middle" x="979.5" y="-78.5" font-family="Helvetica,sans-Serif" font-size="10.00">/log_level.hpp</text>
</a>
</g>
</g>
<!-- Node20&#45;&gt;Node29 -->
<g id="edge30_Node000020_Node000029" class="edge">
<title>Node20&#45;&gt;Node29</title>
<g id="a_edge30_Node000020_Node000029"><a xlink:title=" ">
<path fill="none" stroke="#63b8ff" d="M1033.32,-141.32C1020.58,-128.58 1004.74,-112.74 993.54,-101.54"/>
<polygon fill="#63b8ff" stroke="#63b8ff" points="1030.85,-143.8 1040.39,-148.39 1035.8,-138.85 1030.85,-143.8"/>
</a>
</g>
</g>
<!-- Node30 -->
<g id="Node000030" class="node">
<title>Node30</title>
<g id="a_Node000030"><a xlink:href="../../d7/d72/on__log__rotate_8hpp.html" target="_top" xlink:title="Handler that controls logging levels of all the loggers.">
<polygon fill="white" stroke="#666666" points="1195.5,-101.5 1063.5,-101.5 1063.5,-71.5 1195.5,-71.5 1195.5,-101.5"/>
<text text-anchor="start" x="1071.5" y="-89.5" font-family="Helvetica,sans-Serif" font-size="10.00">userver/server/handlers</text>
<text text-anchor="middle" x="1129.5" y="-78.5" font-family="Helvetica,sans-Serif" font-size="10.00">/on_log_rotate.hpp</text>
</a>
</g>
</g>
<!-- Node20&#45;&gt;Node30 -->
<g id="edge31_Node000020_Node000030" class="edge">
<title>Node20&#45;&gt;Node30</title>
<g id="a_edge31_Node000020_Node000030"><a xlink:title=" ">
<path fill="none" stroke="#63b8ff" d="M1075.68,-141.32C1088.42,-128.58 1104.26,-112.74 1115.46,-101.54"/>
<polygon fill="#63b8ff" stroke="#63b8ff" points="1073.2,-138.85 1068.61,-148.39 1078.15,-143.8 1073.2,-138.85"/>
</a>
</g>
</g>
<!-- Node31 -->
<g id="Node000031" class="node">
<title>Node31</title>
<g id="a_Node000031"><a xlink:href="../../d8/d39/ping_8hpp.html" target="_top" xlink:title="Handler that returns HTTP 200 if the service is OK and able to process requests.">
<polygon fill="white" stroke="#666666" points="1345.5,-101.5 1213.5,-101.5 1213.5,-71.5 1345.5,-71.5 1345.5,-101.5"/>
<text text-anchor="start" x="1221.5" y="-89.5" font-family="Helvetica,sans-Serif" font-size="10.00">userver/server/handlers</text>
<text text-anchor="middle" x="1279.5" y="-78.5" font-family="Helvetica,sans-Serif" font-size="10.00">/ping.hpp</text>
</a>
</g>
</g>
<!-- Node20&#45;&gt;Node31 -->
<g id="edge32_Node000020_Node000031" class="edge">
<title>Node20&#45;&gt;Node31</title>
<g id="a_edge32_Node000020_Node000031"><a xlink:title=" ">
<path fill="none" stroke="#63b8ff" d="M1106.07,-145.31C1145.82,-132.06 1200.08,-113.97 1237.27,-101.58"/>
<polygon fill="#63b8ff" stroke="#63b8ff" points="1104.94,-142 1096.56,-148.48 1107.15,-148.64 1104.94,-142"/>
</a>
</g>
</g>
<!-- Node32 -->
<g id="Node000032" class="node">
<title>Node32</title>
<g id="a_Node000032"><a xlink:href="../../de/d18/server__monitor_8hpp.html" target="_top" xlink:title="Handler that returns statistics data.">
<polygon fill="white" stroke="#666666" points="1495.5,-101.5 1363.5,-101.5 1363.5,-71.5 1495.5,-71.5 1495.5,-101.5"/>
<text text-anchor="start" x="1371.5" y="-89.5" font-family="Helvetica,sans-Serif" font-size="10.00">userver/server/handlers</text>
<text text-anchor="middle" x="1429.5" y="-78.5" font-family="Helvetica,sans-Serif" font-size="10.00">/server_monitor.hpp</text>
</a>
</g>
</g>
<!-- Node20&#45;&gt;Node32 -->
<g id="edge33_Node000020_Node000032" class="edge">
<title>Node20&#45;&gt;Node32</title>
<g id="a_edge33_Node000020_Node000032"><a xlink:title=" ">
<path fill="none" stroke="#63b8ff" d="M1115.97,-146.01C1120.54,-144.94 1125.08,-143.93 1129.5,-143 1228.62,-122.23 1255.38,-127.77 1354.5,-107 1362.14,-105.4 1370.16,-103.52 1378.01,-101.58"/>
<polygon fill="#63b8ff" stroke="#63b8ff" points="1114.89,-142.67 1105.99,-148.42 1116.53,-149.48 1114.89,-142.67"/>
</a>
</g>
</g>
<!-- Node33 -->
<g id="Node000033" class="node">
<title>Node33</title>
<g id="a_Node000033"><a xlink:href="../../d8/d82/core_2include_2userver_2server_2server_8hpp_source.html" target="_top" xlink:title=" ">
<polygon fill="white" stroke="#666666" points="1655,-96 1514,-96 1514,-77 1655,-77 1655,-96"/>
<text text-anchor="middle" x="1584.5" y="-84" font-family="Helvetica,sans-Serif" font-size="10.00">userver/server/server.hpp</text>
</a>
</g>
</g>
<!-- Node20&#45;&gt;Node33 -->
<g id="edge34_Node000020_Node000033" class="edge">
<title>Node20&#45;&gt;Node33</title>
<g id="a_edge34_Node000020_Node000033"><a xlink:title=" ">
<path fill="none" stroke="#63b8ff" d="M1113.92,-146.13C1119.17,-144.97 1124.41,-143.9 1129.5,-143 1294.37,-113.84 1339.41,-134.9 1504.5,-107 1520.99,-104.21 1539.12,-99.9 1553.94,-96.04"/>
<polygon fill="#63b8ff" stroke="#63b8ff" points="1112.82,-142.8 1103.88,-148.48 1114.41,-149.61 1112.82,-142.8"/>
</a>
</g>
</g>
<!-- Node25 -->
<g id="Node000025" class="node">
<title>Node25</title>
<g id="a_Node000025"><a xlink:href="../../d7/d79/inspect__requests_8hpp.html" target="_top" xlink:title="Handler that returns information about all in&#45;flight requests.">
<polygon fill="white" stroke="#666666" points="656.5,-30 524.5,-30 524.5,0 656.5,0 656.5,-30"/>
<text text-anchor="start" x="532.5" y="-18" font-family="Helvetica,sans-Serif" font-size="10.00">userver/server/handlers</text>
<text text-anchor="middle" x="590.5" y="-7" font-family="Helvetica,sans-Serif" font-size="10.00">/inspect_requests.hpp</text>
</a>
</g>
</g>
<!-- Node24&#45;&gt;Node25 -->
<g id="edge26_Node000024_Node000025" class="edge">
<title>Node24&#45;&gt;Node25</title>
<g id="a_edge26_Node000024_Node000025"><a xlink:title=" ">
<path fill="none" stroke="#63b8ff" d="M538.17,-64.49C550.21,-53.34 564.68,-39.93 575.35,-30.04"/>
<polygon fill="#63b8ff" stroke="#63b8ff" points="535.63,-62.07 530.68,-71.44 540.39,-67.21 535.63,-62.07"/>
</a>
</g>
</g>
<!-- Node26 -->
<g id="Node000026" class="node">
<title>Node26</title>
<g id="a_Node000026"><a xlink:href="../../d6/d43/tests__control_8hpp.html" target="_top" xlink:title="Handler that allows to control the behavior of server from tests, and functional tests with testsuite...">
<polygon fill="white" stroke="#666666" points="506.5,-30 374.5,-30 374.5,0 506.5,0 506.5,-30"/>
<text text-anchor="start" x="382.5" y="-18" font-family="Helvetica,sans-Serif" font-size="10.00">userver/server/handlers</text>
<text text-anchor="middle" x="440.5" y="-7" font-family="Helvetica,sans-Serif" font-size="10.00">/tests_control.hpp</text>
</a>
</g>
</g>
<!-- Node24&#45;&gt;Node26 -->
<g id="edge27_Node000024_Node000026" class="edge">
<title>Node24&#45;&gt;Node26</title>
<g id="a_edge27_Node000024_Node000026"><a xlink:title=" ">
<path fill="none" stroke="#63b8ff" d="M492.83,-64.49C480.79,-53.34 466.32,-39.93 455.65,-30.04"/>
<polygon fill="#63b8ff" stroke="#63b8ff" points="490.61,-67.21 500.32,-71.44 495.37,-62.07 490.61,-67.21"/>
</a>
</g>
</g>
<!-- Node34 -->
<g id="Node000034" class="node">
<title>Node34</title>
<g id="a_Node000034"><a xlink:href="../../d3/ddd/core_2include_2userver_2server_2component_8hpp.html" target="_top" xlink:title="Component that listens for incoming requests, manages incoming connections and passes the requests to...">
<polygon fill="white" stroke="#666666" points="1667.5,-24.5 1501.5,-24.5 1501.5,-5.5 1667.5,-5.5 1667.5,-24.5"/>
<text text-anchor="middle" x="1584.5" y="-12.5" font-family="Helvetica,sans-Serif" font-size="10.00">userver/server/component.hpp</text>
</a>
</g>
</g>
<!-- Node33&#45;&gt;Node34 -->
<g id="edge35_Node000033_Node000034" class="edge">
<title>Node33&#45;&gt;Node34</title>
<g id="a_edge35_Node000033_Node000034"><a xlink:title=" ">
<path fill="none" stroke="#63b8ff" d="M1584.5,-66.71C1584.5,-53 1584.5,-35.05 1584.5,-24.59"/>
<polygon fill="#63b8ff" stroke="#63b8ff" points="1581,-66.98 1584.5,-76.98 1588,-66.98 1581,-66.98"/>
</a>
</g>
</g>
</g>
</svg>
