<?xml version="1.0" encoding="UTF-8" standalone="no"?>
<!DOCTYPE svg PUBLIC "-//W3C//DTD SVG 1.1//EN"
 "http://www.w3.org/Graphics/SVG/1.1/DTD/svg11.dtd">
<!-- Generated by graphviz version 2.43.0 (0)
 -->
<!-- Title: Parsers Pages: 1 -->
<svg width="373pt" height="141pt"
 viewBox="0.00 0.00 373.00 140.70" xmlns="http://www.w3.org/2000/svg" xmlns:xlink="http://www.w3.org/1999/xlink">
<g id="graph0" class="graph" transform="scale(1 1) rotate(0) translate(4 136.7)">
<title>Parsers</title>
<!-- Node2 -->
<g id="Node000002" class="node">
<title>Node2</title>
<g id="a_Node000002"><a xlink:href="../../d3/dcb/group__userver__formats.html" target="_top" xlink:title="Different containers that share the same interface and manipulate tree&#45;like formats.">
<polygon fill="white" stroke="#666666" points="56,-85.2 0,-85.2 0,-66.2 56,-66.2 56,-85.2"/>
<text text-anchor="middle" x="28" y="-73.2" font-family="Helvetica,sans-Serif" font-size="10.00">Formats</text>
</a>
</g>
</g>
<!-- Node1 -->
<g id="Node000001" class="node">
<title>Node1</title>
<g id="a_Node000001"><a xlink:title="Files with parsers from formats.">
<polygon fill="#999999" stroke="#666666" points="145,-85.2 93,-85.2 93,-66.2 145,-66.2 145,-85.2"/>
<text text-anchor="middle" x="119" y="-73.2" font-family="Helvetica,sans-Serif" font-size="10.00">Parsers</text>
</a>
</g>
</g>
<!-- Node2&#45;&gt;Node1 -->
<g id="edge1" class="edge">
<title>Node2&#45;&gt;Node1</title>
<path fill="none" stroke="black" d="M66.38,-75.7C75.29,-75.7 84.59,-75.7 92.8,-75.7"/>
<polygon fill="black" stroke="black" points="66.19,-72.2 56.19,-75.7 66.19,-79.2 66.19,-72.2"/>
</g>
<!-- Node3 -->
<g id="Node000003" class="node">
<title>Node3</title>
<g id="a_Node000003"><a xlink:href="../../d7/d67/group__userver__universal.html" target="_top" xlink:title="Functions and classes that could be used with or without coroutine environment.">
<polygon fill="white" stroke="#666666" points="365,-85.2 302,-85.2 302,-66.2 365,-66.2 365,-85.2"/>
<text text-anchor="middle" x="333.5" y="-73.2" font-family="Helvetica,sans-Serif" font-size="10.00">Universal</text>
</a>
</g>
</g>
<!-- Node1&#45;&gt;Node3 -->
<g id="edge2" class="edge">
<title>Node1&#45;&gt;Node3</title>
<path fill="none" stroke="orange" stroke-dasharray="5,2" d="M128.45,-85.3C136.41,-93.56 149.16,-104.88 163,-109.7 213.8,-127.35 232.72,-125.88 284,-109.7 299.1,-104.93 313.59,-93.59 322.73,-85.32"/>
<text text-anchor="middle" x="223.5" y="-124.7" font-family="Helvetica,sans-Serif" font-size="10.00">formats::parse::To</text>
</g>
<!-- Node1&#45;&gt;Node3 -->
<g id="edge3" class="edge">
<title>Node1&#45;&gt;Node3</title>
<path fill="none" stroke="darkgreen" stroke-dasharray="5,2" d="M123.79,-66.08C129.78,-52.39 142.85,-27.84 163,-17.7 211.03,6.49 235.28,5.07 284,-17.7 305.4,-27.7 320.69,-52.31 327.87,-66.04"/>
<text text-anchor="middle" x="223.5" y="-97.7" font-family="Helvetica,sans-Serif" font-size="10.00">boost_optional.hpp</text>
<text text-anchor="middle" x="223.5" y="-86.7" font-family="Helvetica,sans-Serif" font-size="10.00">boost_uuid.hpp</text>
<text text-anchor="middle" x="223.5" y="-75.7" font-family="Helvetica,sans-Serif" font-size="10.00">boost_variant.hpp</text>
<text text-anchor="middle" x="223.5" y="-64.7" font-family="Helvetica,sans-Serif" font-size="10.00">common.hpp</text>
<text text-anchor="middle" x="223.5" y="-53.7" font-family="Helvetica,sans-Serif" font-size="10.00">common_containers.hpp</text>
<text text-anchor="middle" x="223.5" y="-42.7" font-family="Helvetica,sans-Serif" font-size="10.00">time_of_day.hpp</text>
<text text-anchor="middle" x="223.5" y="-31.7" font-family="Helvetica,sans-Serif" font-size="10.00">to.hpp</text>
<text text-anchor="middle" x="223.5" y="-20.7" font-family="Helvetica,sans-Serif" font-size="10.00">variant.hpp</text>
</g>
</g>
</svg>
