<?xml version="1.0" encoding="UTF-8" standalone="no"?>
<!DOCTYPE svg PUBLIC "-//W3C//DTD SVG 1.1//EN"
 "http://www.w3.org/Graphics/SVG/1.1/DTD/svg11.dtd">
<!-- Generated by graphviz version 2.43.0 (0)
 -->
<!-- Title: dynamic_config::Client::Reply Pages: 1 -->
<svg width="255pt" height="171pt"
 viewBox="0.00 0.00 255.00 171.00" xmlns="http://www.w3.org/2000/svg" xmlns:xlink="http://www.w3.org/1999/xlink">
<g id="graph0" class="graph" transform="scale(1 1) rotate(0) translate(4 167)">
<title>dynamic_config::Client::Reply</title>
<!-- Node1 -->
<g id="Node000001" class="node">
<title>Node1</title>
<g id="a_Node000001"><a xlink:title=" ">
<polygon fill="#999999" stroke="#666666" points="174,-30 46,-30 46,0 174,0 174,-30"/>
<text text-anchor="start" x="54" y="-18" font-family="Helvetica,sans-Serif" font-size="10.00">dynamic_config::Client</text>
<text text-anchor="middle" x="110" y="-7" font-family="Helvetica,sans-Serif" font-size="10.00">::Reply</text>
</a>
</g>
</g>
<!-- Node2 -->
<g id="Node000002" class="node">
<title>Node2</title>
<g id="a_Node000002"><a xlink:href="../../d0/d0a/classdynamic__config_1_1DocsMap.html" target="_top" xlink:title=" ">
<polygon fill="white" stroke="#bfbfbf" points="144,-96 0,-96 0,-77 144,-77 144,-96"/>
<text text-anchor="middle" x="72" y="-84" font-family="Helvetica,sans-Serif" font-size="10.00">dynamic_config::DocsMap</text>
</a>
</g>
</g>
<!-- Node2&#45;&gt;Node1 -->
<g id="edge1_Node000001_Node000002" class="edge">
<title>Node2&#45;&gt;Node1</title>
<g id="a_edge1_Node000001_Node000002"><a xlink:title=" ">
<path fill="none" stroke="#9a32cd" stroke-dasharray="5,2" d="M81.49,-68.14C87.91,-56.41 96.26,-41.12 102.27,-30.14"/>
<polygon fill="#9a32cd" stroke="#9a32cd" points="78.39,-66.52 76.66,-76.98 84.53,-69.88 78.39,-66.52"/>
</a>
</g>
<text text-anchor="middle" x="119.5" y="-51" font-family="Helvetica,sans-Serif" font-size="10.00" fill="grey"> docs_map</text>
</g>
<!-- Node3 -->
<g id="Node000003" class="node">
<title>Node3</title>
<g id="a_Node000003"><a xlink:title=" ">
<polygon fill="white" stroke="#666666" points="227.5,-96 162.5,-96 162.5,-77 227.5,-77 227.5,-96"/>
<text text-anchor="middle" x="195" y="-84" font-family="Helvetica,sans-Serif" font-size="10.00">std::string</text>
</a>
</g>
</g>
<!-- Node3&#45;&gt;Node1 -->
<g id="edge2_Node000001_Node000003" class="edge">
<title>Node3&#45;&gt;Node1</title>
<g id="a_edge2_Node000001_Node000003"><a xlink:title=" ">
<path fill="none" stroke="#9a32cd" stroke-dasharray="5,2" d="M176.71,-70.54C162.06,-58.57 141.66,-41.89 127.29,-30.14"/>
<polygon fill="#9a32cd" stroke="#9a32cd" points="174.62,-73.36 184.58,-76.98 179.05,-67.94 174.62,-73.36"/>
</a>
</g>
<text text-anchor="middle" x="188.5" y="-51" font-family="Helvetica,sans-Serif" font-size="10.00" fill="grey"> timestamp</text>
</g>
<!-- Node4 -->
<g id="Node000004" class="node">
<title>Node4</title>
<g id="a_Node000004"><a xlink:title=" ">
<polygon fill="white" stroke="#666666" points="247,-163 143,-163 143,-133 247,-133 247,-163"/>
<text text-anchor="start" x="151" y="-151" font-family="Helvetica,sans-Serif" font-size="10.00">std::basic_string&lt;</text>
<text text-anchor="middle" x="195" y="-140" font-family="Helvetica,sans-Serif" font-size="10.00"> Char &gt;</text>
</a>
</g>
</g>
<!-- Node4&#45;&gt;Node3 -->
<g id="edge3_Node000003_Node000004" class="edge">
<title>Node4&#45;&gt;Node3</title>
<g id="a_edge3_Node000003_Node000004"><a xlink:title=" ">
<path fill="none" stroke="#63b8ff" d="M195,-122.79C195,-113.36 195,-103.15 195,-96.16"/>
<polygon fill="#63b8ff" stroke="#63b8ff" points="191.5,-122.9 195,-132.9 198.5,-122.9 191.5,-122.9"/>
</a>
</g>
</g>
</g>
</svg>
