<?xml version="1.0" encoding="UTF-8" standalone="no"?>
<!DOCTYPE svg PUBLIC "-//W3C//DTD SVG 1.1//EN"
 "http://www.w3.org/Graphics/SVG/1.1/DTD/svg11.dtd">
<!-- Generated by graphviz version 2.43.0 (0)
 -->
<!-- Title: storages::postgres::TransactionRollback Pages: 1 -->
<svg width="120pt" height="335pt"
 viewBox="0.00 0.00 120.00 335.00" xmlns="http://www.w3.org/2000/svg" xmlns:xlink="http://www.w3.org/1999/xlink">
<g id="graph0" class="graph" transform="scale(1 1) rotate(0) translate(4 331)">
<title>storages::postgres::TransactionRollback</title>
<!-- Node1 -->
<g id="Node000001" class="node">
<title>Node1</title>
<g id="a_Node000001"><a xlink:title=" ">
<polygon fill="#999999" stroke="#666666" points="112,-30 0,-30 0,0 112,0 112,-30"/>
<text text-anchor="start" x="8" y="-18" font-family="Helvetica,sans-Serif" font-size="10.00">storages::postgres</text>
<text text-anchor="middle" x="56" y="-7" font-family="Helvetica,sans-Serif" font-size="10.00">::TransactionRollback</text>
</a>
</g>
</g>
<!-- Node2 -->
<g id="Node000002" class="node">
<title>Node2</title>
<g id="a_Node000002"><a xlink:href="../../da/d34/classstorages_1_1postgres_1_1ServerError.html" target="_top" xlink:title=" ">
<polygon fill="white" stroke="#666666" points="107.5,-85 4.5,-85 4.5,-66 107.5,-66 107.5,-85"/>
<text text-anchor="middle" x="56" y="-73" font-family="Helvetica,sans-Serif" font-size="10.00">ServerRuntimeError</text>
</a>
</g>
</g>
<!-- Node2&#45;&gt;Node1 -->
<g id="edge1_Node000001_Node000002" class="edge">
<title>Node2&#45;&gt;Node1</title>
<g id="a_edge1_Node000001_Node000002"><a xlink:title=" ">
<path fill="none" stroke="#63b8ff" d="M56,-55.65C56,-47.36 56,-37.78 56,-30.11"/>
<polygon fill="#63b8ff" stroke="#63b8ff" points="52.5,-55.87 56,-65.87 59.5,-55.87 52.5,-55.87"/>
</a>
</g>
</g>
<!-- Node3 -->
<g id="Node000003" class="node">
<title>Node3</title>
<g id="a_Node000003"><a xlink:href="../../d6/d97/classstorages_1_1postgres_1_1RuntimeError.html" target="_top" xlink:title="Base Postgres runtime error. Reports errors that are consequences of erroneous data,...">
<polygon fill="white" stroke="#666666" points="105,-151 7,-151 7,-121 105,-121 105,-151"/>
<text text-anchor="start" x="15" y="-139" font-family="Helvetica,sans-Serif" font-size="10.00">storages::postgres</text>
<text text-anchor="middle" x="56" y="-128" font-family="Helvetica,sans-Serif" font-size="10.00">::RuntimeError</text>
</a>
</g>
</g>
<!-- Node3&#45;&gt;Node2 -->
<g id="edge2_Node000002_Node000003" class="edge">
<title>Node3&#45;&gt;Node2</title>
<g id="a_edge2_Node000002_Node000003"><a xlink:title=" ">
<path fill="none" stroke="#63b8ff" d="M56,-110.75C56,-101.72 56,-92.03 56,-85.27"/>
<polygon fill="#63b8ff" stroke="#63b8ff" points="52.5,-110.84 56,-120.84 59.5,-110.84 52.5,-110.84"/>
</a>
</g>
</g>
<!-- Node4 -->
<g id="Node000004" class="node">
<title>Node4</title>
<g id="a_Node000004"><a xlink:href="../../df/d3d/classstorages_1_1postgres_1_1Error.html" target="_top" xlink:title="Base class for all exceptions that may be thrown by the driver.">
<polygon fill="white" stroke="#666666" points="105,-217 7,-217 7,-187 105,-187 105,-217"/>
<text text-anchor="start" x="15" y="-205" font-family="Helvetica,sans-Serif" font-size="10.00">storages::postgres</text>
<text text-anchor="middle" x="56" y="-194" font-family="Helvetica,sans-Serif" font-size="10.00">::Error</text>
</a>
</g>
</g>
<!-- Node4&#45;&gt;Node3 -->
<g id="edge3_Node000003_Node000004" class="edge">
<title>Node4&#45;&gt;Node3</title>
<g id="a_edge3_Node000003_Node000004"><a xlink:title=" ">
<path fill="none" stroke="#63b8ff" d="M56,-176.54C56,-167.96 56,-158.61 56,-151.16"/>
<polygon fill="#63b8ff" stroke="#63b8ff" points="52.5,-176.8 56,-186.8 59.5,-176.8 52.5,-176.8"/>
</a>
</g>
</g>
<!-- Node5 -->
<g id="Node000005" class="node">
<title>Node5</title>
<g id="a_Node000005"><a xlink:title=" ">
<polygon fill="white" stroke="#666666" points="102.5,-272 9.5,-272 9.5,-253 102.5,-253 102.5,-272"/>
<text text-anchor="middle" x="56" y="-260" font-family="Helvetica,sans-Serif" font-size="10.00">std::runtime_error</text>
</a>
</g>
</g>
<!-- Node5&#45;&gt;Node4 -->
<g id="edge4_Node000004_Node000005" class="edge">
<title>Node5&#45;&gt;Node4</title>
<g id="a_edge4_Node000004_Node000005"><a xlink:title=" ">
<path fill="none" stroke="#63b8ff" d="M56,-242.65C56,-234.36 56,-224.78 56,-217.11"/>
<polygon fill="#63b8ff" stroke="#63b8ff" points="52.5,-242.87 56,-252.87 59.5,-242.87 52.5,-242.87"/>
</a>
</g>
</g>
<!-- Node6 -->
<g id="Node000006" class="node">
<title>Node6</title>
<g id="a_Node000006"><a xlink:title=" ">
<polygon fill="white" stroke="#666666" points="95,-327 17,-327 17,-308 95,-308 95,-327"/>
<text text-anchor="middle" x="56" y="-315" font-family="Helvetica,sans-Serif" font-size="10.00">std::exception</text>
</a>
</g>
</g>
<!-- Node6&#45;&gt;Node5 -->
<g id="edge5_Node000005_Node000006" class="edge">
<title>Node6&#45;&gt;Node5</title>
<g id="a_edge5_Node000005_Node000006"><a xlink:title=" ">
<path fill="none" stroke="#63b8ff" d="M56,-297.66C56,-288.93 56,-278.99 56,-272.09"/>
<polygon fill="#63b8ff" stroke="#63b8ff" points="52.5,-297.75 56,-307.75 59.5,-297.75 52.5,-297.75"/>
</a>
</g>
</g>
</g>
</svg>
