<?xml version="1.0" encoding="UTF-8" standalone="no"?>
<!DOCTYPE svg PUBLIC "-//W3C//DTD SVG 1.1//EN"
 "http://www.w3.org/Graphics/SVG/1.1/DTD/svg11.dtd">
<!-- Generated by graphviz version 2.43.0 (0)
 -->
<!-- Title: userver/utils/function_ref.hpp Pages: 1 -->
<svg width="1689pt" height="390pt"
 viewBox="0.00 0.00 1688.50 390.00" xmlns="http://www.w3.org/2000/svg" xmlns:xlink="http://www.w3.org/1999/xlink">
<g id="graph0" class="graph" transform="scale(1 1) rotate(0) translate(4 386)">
<title>userver/utils/function_ref.hpp</title>
<!-- Node1 -->
<g id="Node000001" class="node">
<title>Node1</title>
<g id="a_Node000001"><a xlink:title="A backport of std::function_ref from C++26.">
<polygon fill="#999999" stroke="#666666" points="556,-382 436,-382 436,-352 556,-352 556,-382"/>
<text text-anchor="start" x="444" y="-370" font-family="Helvetica,sans-Serif" font-size="10.00">userver/utils/function</text>
<text text-anchor="middle" x="496" y="-359" font-family="Helvetica,sans-Serif" font-size="10.00">_ref.hpp</text>
</a>
</g>
</g>
<!-- Node2 -->
<g id="Node000002" class="node">
<title>Node2</title>
<g id="a_Node000002"><a xlink:href="../../d0/d92/buffered_8hpp.html" target="_top" xlink:title="Buffered I/O wrappers.">
<polygon fill="white" stroke="#666666" points="216,-310.5 50,-310.5 50,-291.5 216,-291.5 216,-310.5"/>
<text text-anchor="middle" x="133" y="-298.5" font-family="Helvetica,sans-Serif" font-size="10.00">userver/engine/io/buffered.hpp</text>
</a>
</g>
</g>
<!-- Node1&#45;&gt;Node2 -->
<g id="edge1_Node000001_Node000002" class="edge">
<title>Node1&#45;&gt;Node2</title>
<g id="a_edge1_Node000001_Node000002"><a xlink:title=" ">
<path fill="none" stroke="#63b8ff" d="M425.76,-353.62C353.84,-340.94 243.98,-321.57 181.29,-310.51"/>
<polygon fill="#63b8ff" stroke="#63b8ff" points="425.19,-357.07 435.65,-355.36 426.41,-350.18 425.19,-357.07"/>
</a>
</g>
</g>
<!-- Node4 -->
<g id="Node000004" class="node">
<title>Node4</title>
<g id="a_Node000004"><a xlink:href="../../d4/d8a/run__in__coro_8hpp.html" target="_top" xlink:title=" ">
<polygon fill="white" stroke="#666666" points="342,-316 234,-316 234,-286 342,-286 342,-316"/>
<text text-anchor="start" x="242" y="-304" font-family="Helvetica,sans-Serif" font-size="10.00">userver/engine/run</text>
<text text-anchor="middle" x="288" y="-293" font-family="Helvetica,sans-Serif" font-size="10.00">_in_coro.hpp</text>
</a>
</g>
</g>
<!-- Node1&#45;&gt;Node4 -->
<g id="edge3_Node000001_Node000004" class="edge">
<title>Node1&#45;&gt;Node4</title>
<g id="a_edge3_Node000001_Node000004"><a xlink:title=" ">
<path fill="none" stroke="#63b8ff" d="M440.71,-348.99C407.25,-338.69 365.08,-325.72 333.54,-316.01"/>
<polygon fill="#63b8ff" stroke="#63b8ff" points="439.77,-352.36 450.35,-351.95 441.83,-345.67 439.77,-352.36"/>
</a>
</g>
</g>
<!-- Node7 -->
<g id="Node000007" class="node">
<title>Node7</title>
<g id="a_Node000007"><a xlink:href="../../df/dc0/run__standalone_8hpp.html" target="_top" xlink:title="Runs a payload in a temporary coroutine engine instance.">
<polygon fill="white" stroke="#666666" points="468,-316 360,-316 360,-286 468,-286 468,-316"/>
<text text-anchor="start" x="368" y="-304" font-family="Helvetica,sans-Serif" font-size="10.00">userver/engine/run</text>
<text text-anchor="middle" x="414" y="-293" font-family="Helvetica,sans-Serif" font-size="10.00">_standalone.hpp</text>
</a>
</g>
</g>
<!-- Node1&#45;&gt;Node7 -->
<g id="edge6_Node000001_Node000007" class="edge">
<title>Node1&#45;&gt;Node7</title>
<g id="a_edge6_Node000001_Node000007"><a xlink:title=" ">
<path fill="none" stroke="#63b8ff" d="M469.71,-345.48C457.45,-335.91 443.18,-324.77 432.15,-316.16"/>
<polygon fill="#63b8ff" stroke="#63b8ff" points="467.76,-348.4 477.8,-351.8 472.07,-342.88 467.76,-348.4"/>
</a>
</g>
</g>
<!-- Node8 -->
<g id="Node000008" class="node">
<title>Node8</title>
<g id="a_Node000008"><a xlink:href="../../d3/d3e/grpc_2include_2userver_2ugrpc_2client_2middlewares_2base_8hpp_source.html" target="_top" xlink:title=" ">
<polygon fill="white" stroke="#666666" points="528,-244.5 398,-244.5 398,-214.5 528,-214.5 528,-244.5"/>
<text text-anchor="start" x="406" y="-232.5" font-family="Helvetica,sans-Serif" font-size="10.00">userver/ugrpc/client</text>
<text text-anchor="middle" x="463" y="-221.5" font-family="Helvetica,sans-Serif" font-size="10.00">/middlewares/base.hpp</text>
</a>
</g>
</g>
<!-- Node1&#45;&gt;Node8 -->
<g id="edge7_Node000001_Node000008" class="edge">
<title>Node1&#45;&gt;Node8</title>
<g id="a_edge7_Node000001_Node000008"><a xlink:title=" ">
<path fill="none" stroke="#63b8ff" d="M490.34,-341.78C486.61,-325.9 481.58,-304.7 477,-286 473.55,-271.91 469.48,-255.84 466.62,-244.63"/>
<polygon fill="#63b8ff" stroke="#63b8ff" points="487,-342.89 492.7,-351.82 493.82,-341.29 487,-342.89"/>
</a>
</g>
</g>
<!-- Node15 -->
<g id="Node000015" class="node">
<title>Node15</title>
<g id="a_Node000015"><a xlink:href="../../db/df8/client_2rpc_8hpp.html" target="_top" xlink:title="Classes representing an outgoing RPC.">
<polygon fill="white" stroke="#666666" points="637.5,-316 524.5,-316 524.5,-286 637.5,-286 637.5,-316"/>
<text text-anchor="start" x="532.5" y="-304" font-family="Helvetica,sans-Serif" font-size="10.00">userver/ugrpc/client</text>
<text text-anchor="middle" x="581" y="-293" font-family="Helvetica,sans-Serif" font-size="10.00">/rpc.hpp</text>
</a>
</g>
</g>
<!-- Node1&#45;&gt;Node15 -->
<g id="edge14_Node000001_Node000015" class="edge">
<title>Node1&#45;&gt;Node15</title>
<g id="a_edge14_Node000001_Node000015"><a xlink:title=" ">
<path fill="none" stroke="#63b8ff" d="M522.89,-345.75C535.67,-336.13 550.64,-324.86 562.19,-316.16"/>
<polygon fill="#63b8ff" stroke="#63b8ff" points="520.75,-342.99 514.86,-351.8 524.96,-348.58 520.75,-342.99"/>
</a>
</g>
</g>
<!-- Node17 -->
<g id="Node000017" class="node">
<title>Node17</title>
<g id="a_Node000017"><a xlink:href="../../d4/d4f/grpc_2include_2userver_2ugrpc_2server_2middlewares_2base_8hpp_source.html" target="_top" xlink:title=" ">
<polygon fill="white" stroke="#666666" points="1077,-316 947,-316 947,-286 1077,-286 1077,-316"/>
<text text-anchor="start" x="955" y="-304" font-family="Helvetica,sans-Serif" font-size="10.00">userver/ugrpc/server</text>
<text text-anchor="middle" x="1012" y="-293" font-family="Helvetica,sans-Serif" font-size="10.00">/middlewares/base.hpp</text>
</a>
</g>
</g>
<!-- Node1&#45;&gt;Node17 -->
<g id="edge17_Node000001_Node000017" class="edge">
<title>Node1&#45;&gt;Node17</title>
<g id="a_edge17_Node000001_Node000017"><a xlink:title=" ">
<path fill="none" stroke="#63b8ff" d="M566.24,-357.29C666.57,-344.84 849.52,-322.15 946.92,-310.07"/>
<polygon fill="#63b8ff" stroke="#63b8ff" points="565.69,-353.83 556.2,-358.53 566.56,-360.78 565.69,-353.83"/>
</a>
</g>
</g>
<!-- Node24 -->
<g id="Node000024" class="node">
<title>Node24</title>
<g id="a_Node000024"><a xlink:href="../../d4/d79/grpc_2include_2userver_2ugrpc_2server_2server_8hpp.html" target="_top" xlink:title="Manages the gRPC server.">
<polygon fill="white" stroke="#666666" points="1480.5,-316 1363.5,-316 1363.5,-286 1480.5,-286 1480.5,-316"/>
<text text-anchor="start" x="1371.5" y="-304" font-family="Helvetica,sans-Serif" font-size="10.00">userver/ugrpc/server</text>
<text text-anchor="middle" x="1422" y="-293" font-family="Helvetica,sans-Serif" font-size="10.00">/server.hpp</text>
</a>
</g>
</g>
<!-- Node1&#45;&gt;Node24 -->
<g id="edge24_Node000001_Node000024" class="edge">
<title>Node1&#45;&gt;Node24</title>
<g id="a_edge24_Node000001_Node000024"><a xlink:title=" ">
<path fill="none" stroke="#63b8ff" d="M566.23,-361.15C742.33,-348.98 1200.24,-317.33 1363.29,-306.06"/>
<polygon fill="#63b8ff" stroke="#63b8ff" points="565.78,-357.67 556.04,-361.85 566.26,-364.65 565.78,-357.67"/>
</a>
</g>
</g>
<!-- Node3 -->
<g id="Node000003" class="node">
<title>Node3</title>
<g id="a_Node000003"><a xlink:href="../../d2/dc6/io_8hpp.html" target="_top" xlink:title="Include&#45;all header for low&#45;level asynchronous I/O interfaces.">
<polygon fill="white" stroke="#666666" points="194,-239 72,-239 72,-220 194,-220 194,-239"/>
<text text-anchor="middle" x="133" y="-227" font-family="Helvetica,sans-Serif" font-size="10.00">userver/engine/io.hpp</text>
</a>
</g>
</g>
<!-- Node2&#45;&gt;Node3 -->
<g id="edge2_Node000002_Node000003" class="edge">
<title>Node2&#45;&gt;Node3</title>
<g id="a_edge2_Node000002_Node000003"><a xlink:title=" ">
<path fill="none" stroke="#63b8ff" d="M133,-281.21C133,-267.5 133,-249.55 133,-239.09"/>
<polygon fill="#63b8ff" stroke="#63b8ff" points="129.5,-281.48 133,-291.48 136.5,-281.48 129.5,-281.48"/>
</a>
</g>
</g>
<!-- Node5 -->
<g id="Node000005" class="node">
<title>Node5</title>
<g id="a_Node000005"><a xlink:href="../../dc/dc9/utest_8hpp.html" target="_top" xlink:title="Versions of gtest macros that run tests in a coroutine environment.">
<polygon fill="white" stroke="#666666" points="347,-239 217,-239 217,-220 347,-220 347,-239"/>
<text text-anchor="middle" x="282" y="-227" font-family="Helvetica,sans-Serif" font-size="10.00">userver/utest/utest.hpp</text>
</a>
</g>
</g>
<!-- Node4&#45;&gt;Node5 -->
<g id="edge4_Node000004_Node000005" class="edge">
<title>Node4&#45;&gt;Node5</title>
<g id="a_edge4_Node000004_Node000005"><a xlink:title=" ">
<path fill="none" stroke="#63b8ff" d="M285.92,-275.94C284.83,-263.24 283.55,-248.44 282.76,-239.27"/>
<polygon fill="#63b8ff" stroke="#63b8ff" points="282.44,-276.27 286.79,-285.94 289.41,-275.67 282.44,-276.27"/>
</a>
</g>
</g>
<!-- Node6 -->
<g id="Node000006" class="node">
<title>Node6</title>
<g id="a_Node000006"><a xlink:href="../../d7/d7c/testing_2include_2userver_2dump_2test__helpers_8hpp_source.html" target="_top" xlink:title=" ">
<polygon fill="white" stroke="#666666" points="168,-162 0,-162 0,-143 168,-143 168,-162"/>
<text text-anchor="middle" x="84" y="-150" font-family="Helvetica,sans-Serif" font-size="10.00">userver/dump/test_helpers.hpp</text>
</a>
</g>
</g>
<!-- Node5&#45;&gt;Node6 -->
<g id="edge5_Node000005_Node000006" class="edge">
<title>Node5&#45;&gt;Node6</title>
<g id="a_edge5_Node000005_Node000006"><a xlink:title=" ">
<path fill="none" stroke="#63b8ff" d="M249.92,-216.35C209.64,-201.09 141.57,-175.31 106.45,-162"/>
<polygon fill="#63b8ff" stroke="#63b8ff" points="248.7,-219.63 259.29,-219.9 251.18,-213.08 248.7,-219.63"/>
</a>
</g>
</g>
<!-- Node9 -->
<g id="Node000009" class="node">
<title>Node9</title>
<g id="a_Node000009"><a xlink:href="../../d0/d98/client__factory_8hpp.html" target="_top" xlink:title="Creates generated gRPC clients. Has a minimal built&#45;in channel cache: as long as a channel to the sam...">
<polygon fill="white" stroke="#666666" points="299.5,-167.5 186.5,-167.5 186.5,-137.5 299.5,-137.5 299.5,-167.5"/>
<text text-anchor="start" x="194.5" y="-155.5" font-family="Helvetica,sans-Serif" font-size="10.00">userver/ugrpc/client</text>
<text text-anchor="middle" x="243" y="-144.5" font-family="Helvetica,sans-Serif" font-size="10.00">/client_factory.hpp</text>
</a>
</g>
</g>
<!-- Node8&#45;&gt;Node9 -->
<g id="edge8_Node000008_Node000009" class="edge">
<title>Node8&#45;&gt;Node9</title>
<g id="a_edge8_Node000008_Node000009"><a xlink:title=" ">
<path fill="none" stroke="#63b8ff" d="M412.33,-211.22C373.49,-197.99 320.58,-179.95 284.29,-167.58"/>
<polygon fill="#63b8ff" stroke="#63b8ff" points="411.28,-214.57 421.88,-214.48 413.54,-207.94 411.28,-214.57"/>
</a>
</g>
</g>
<!-- Node12 -->
<g id="Node000012" class="node">
<title>Node12</title>
<g id="a_Node000012"><a xlink:href="../../d4/d96/grpc_2include_2userver_2ugrpc_2client_2middlewares_2baggage_2component_8hpp_source.html" target="_top" xlink:title=" ">
<polygon fill="white" stroke="#666666" points="446,-173 318,-173 318,-132 446,-132 446,-173"/>
<text text-anchor="start" x="326" y="-161" font-family="Helvetica,sans-Serif" font-size="10.00">userver/ugrpc/client</text>
<text text-anchor="start" x="326" y="-150" font-family="Helvetica,sans-Serif" font-size="10.00">/middlewares/baggage</text>
<text text-anchor="middle" x="382" y="-139" font-family="Helvetica,sans-Serif" font-size="10.00">/component.hpp</text>
</a>
</g>
</g>
<!-- Node8&#45;&gt;Node12 -->
<g id="edge11_Node000008_Node000012" class="edge">
<title>Node8&#45;&gt;Node12</title>
<g id="a_edge11_Node000008_Node000012"><a xlink:title=" ">
<path fill="none" stroke="#63b8ff" d="M440.19,-207.38C428.62,-196.66 414.64,-183.72 403.28,-173.2"/>
<polygon fill="#63b8ff" stroke="#63b8ff" points="438.05,-210.17 447.76,-214.39 442.8,-205.03 438.05,-210.17"/>
</a>
</g>
</g>
<!-- Node13 -->
<g id="Node000013" class="node">
<title>Node13</title>
<g id="a_Node000013"><a xlink:href="../../d6/d04/grpc_2include_2userver_2ugrpc_2client_2middlewares_2deadline__propagation_2component_8hpp.html" target="_top" xlink:title="ugrpc::client::middlewares::deadline_propagation::Component">
<polygon fill="white" stroke="#666666" points="623.5,-173 464.5,-173 464.5,-132 623.5,-132 623.5,-173"/>
<text text-anchor="start" x="472.5" y="-161" font-family="Helvetica,sans-Serif" font-size="10.00">userver/ugrpc/client</text>
<text text-anchor="start" x="472.5" y="-150" font-family="Helvetica,sans-Serif" font-size="10.00">/middlewares/deadline</text>
<text text-anchor="middle" x="544" y="-139" font-family="Helvetica,sans-Serif" font-size="10.00">_propagation/component.hpp</text>
</a>
</g>
</g>
<!-- Node8&#45;&gt;Node13 -->
<g id="edge12_Node000008_Node000013" class="edge">
<title>Node8&#45;&gt;Node13</title>
<g id="a_edge12_Node000008_Node000013"><a xlink:title=" ">
<path fill="none" stroke="#63b8ff" d="M485.81,-207.38C497.38,-196.66 511.36,-183.72 522.72,-173.2"/>
<polygon fill="#63b8ff" stroke="#63b8ff" points="483.2,-205.03 478.24,-214.39 487.95,-210.17 483.2,-205.03"/>
</a>
</g>
</g>
<!-- Node14 -->
<g id="Node000014" class="node">
<title>Node14</title>
<g id="a_Node000014"><a xlink:href="../../d1/de5/grpc_2include_2userver_2ugrpc_2client_2middlewares_2log_2component_8hpp_source.html" target="_top" xlink:title=" ">
<polygon fill="white" stroke="#666666" points="820.5,-167.5 641.5,-167.5 641.5,-137.5 820.5,-137.5 820.5,-167.5"/>
<text text-anchor="start" x="649.5" y="-155.5" font-family="Helvetica,sans-Serif" font-size="10.00">userver/ugrpc/client</text>
<text text-anchor="middle" x="731" y="-144.5" font-family="Helvetica,sans-Serif" font-size="10.00">/middlewares/log/component.hpp</text>
</a>
</g>
</g>
<!-- Node8&#45;&gt;Node14 -->
<g id="edge13_Node000008_Node000014" class="edge">
<title>Node8&#45;&gt;Node14</title>
<g id="a_edge13_Node000008_Node000014"><a xlink:title=" ">
<path fill="none" stroke="#63b8ff" d="M522.93,-211.73C570.4,-198.44 635.94,-180.1 680.7,-167.58"/>
<polygon fill="#63b8ff" stroke="#63b8ff" points="521.78,-208.42 513.09,-214.48 523.67,-215.16 521.78,-208.42"/>
</a>
</g>
</g>
<!-- Node10 -->
<g id="Node000010" class="node">
<title>Node10</title>
<g id="a_Node000010"><a xlink:href="../../da/dd3/client__factory__component_8hpp.html" target="_top" xlink:title="Provides a ClientFactory in the component system.">
<polygon fill="white" stroke="#666666" points="326.5,-96 159.5,-96 159.5,-66 326.5,-66 326.5,-96"/>
<text text-anchor="start" x="167.5" y="-84" font-family="Helvetica,sans-Serif" font-size="10.00">userver/ugrpc/client</text>
<text text-anchor="middle" x="243" y="-73" font-family="Helvetica,sans-Serif" font-size="10.00">/client_factory_component.hpp</text>
</a>
</g>
</g>
<!-- Node9&#45;&gt;Node10 -->
<g id="edge9_Node000009_Node000010" class="edge">
<title>Node9&#45;&gt;Node10</title>
<g id="a_edge9_Node000009_Node000010"><a xlink:title=" ">
<path fill="none" stroke="#63b8ff" d="M243,-127.25C243,-116.81 243,-104.99 243,-96.04"/>
<polygon fill="#63b8ff" stroke="#63b8ff" points="239.5,-127.44 243,-137.44 246.5,-127.44 239.5,-127.44"/>
</a>
</g>
</g>
<!-- Node11 -->
<g id="Node000011" class="node">
<title>Node11</title>
<g id="a_Node000011"><a xlink:href="../../d8/d98/simple__client__component_8hpp.html" target="_top" xlink:title="Template class for a simple gRPC client.">
<polygon fill="white" stroke="#666666" points="326,-30 160,-30 160,0 326,0 326,-30"/>
<text text-anchor="start" x="168" y="-18" font-family="Helvetica,sans-Serif" font-size="10.00">userver/ugrpc/client</text>
<text text-anchor="middle" x="243" y="-7" font-family="Helvetica,sans-Serif" font-size="10.00">/simple_client_component.hpp</text>
</a>
</g>
</g>
<!-- Node10&#45;&gt;Node11 -->
<g id="edge10_Node000010_Node000011" class="edge">
<title>Node10&#45;&gt;Node11</title>
<g id="a_edge10_Node000010_Node000011"><a xlink:title=" ">
<path fill="none" stroke="#63b8ff" d="M243,-55.54C243,-46.96 243,-37.61 243,-30.16"/>
<polygon fill="#63b8ff" stroke="#63b8ff" points="239.5,-55.8 243,-65.8 246.5,-55.8 239.5,-55.8"/>
</a>
</g>
</g>
<!-- Node15&#45;&gt;Node8 -->
<g id="edge16_Node000015_Node000008" class="edge">
<title>Node15&#45;&gt;Node8</title>
<g id="a_edge16_Node000015_Node000008"><a xlink:title=" ">
<path fill="none" stroke="#63b8ff" d="M548.27,-280.72C528.79,-269.25 504.51,-254.95 486.84,-244.54"/>
<polygon fill="#63b8ff" stroke="#63b8ff" points="546.73,-283.88 557.12,-285.94 550.28,-277.84 546.73,-283.88"/>
</a>
</g>
</g>
<!-- Node16 -->
<g id="Node000016" class="node">
<title>Node16</title>
<g id="a_Node000016"><a xlink:href="../../d8/d5f/client_2impl_2codegen__declarations_8hpp_source.html" target="_top" xlink:title=" ">
<polygon fill="white" stroke="#666666" points="718,-244.5 546,-244.5 546,-214.5 718,-214.5 718,-244.5"/>
<text text-anchor="start" x="554" y="-232.5" font-family="Helvetica,sans-Serif" font-size="10.00">userver/ugrpc/client</text>
<text text-anchor="middle" x="632" y="-221.5" font-family="Helvetica,sans-Serif" font-size="10.00">/impl/codegen_declarations.hpp</text>
</a>
</g>
</g>
<!-- Node15&#45;&gt;Node16 -->
<g id="edge15_Node000015_Node000016" class="edge">
<title>Node15&#45;&gt;Node16</title>
<g id="a_edge15_Node000015_Node000016"><a xlink:title=" ">
<path fill="none" stroke="#63b8ff" d="M597.36,-277.71C605.35,-266.82 614.72,-254.05 621.69,-244.54"/>
<polygon fill="#63b8ff" stroke="#63b8ff" points="594.42,-275.8 591.32,-285.94 600.06,-279.94 594.42,-275.8"/>
</a>
</g>
</g>
<!-- Node18 -->
<g id="Node000018" class="node">
<title>Node18</title>
<g id="a_Node000018"><a xlink:href="../../db/d93/service__worker__impl_8hpp_source.html" target="_top" xlink:title=" ">
<polygon fill="white" stroke="#666666" points="854,-250 736,-250 736,-209 854,-209 854,-250"/>
<text text-anchor="start" x="744" y="-238" font-family="Helvetica,sans-Serif" font-size="10.00">userver/ugrpc/server</text>
<text text-anchor="start" x="744" y="-227" font-family="Helvetica,sans-Serif" font-size="10.00">/impl/service_worker</text>
<text text-anchor="middle" x="795" y="-216" font-family="Helvetica,sans-Serif" font-size="10.00">_impl.hpp</text>
</a>
</g>
</g>
<!-- Node17&#45;&gt;Node18 -->
<g id="edge18_Node000017_Node000018" class="edge">
<title>Node17&#45;&gt;Node18</title>
<g id="a_edge18_Node000017_Node000018"><a xlink:title=" ">
<path fill="none" stroke="#63b8ff" d="M958.55,-282.88C926.87,-272.74 886.68,-259.86 854.07,-249.42"/>
<polygon fill="#63b8ff" stroke="#63b8ff" points="957.5,-286.22 968.09,-285.94 959.63,-279.55 957.5,-286.22"/>
</a>
</g>
</g>
<!-- Node20 -->
<g id="Node000020" class="node">
<title>Node20</title>
<g id="a_Node000020"><a xlink:href="../../d0/d46/grpc_2include_2userver_2ugrpc_2server_2middlewares_2baggage_2component_8hpp.html" target="_top" xlink:title="ugrpc::server::middlewares::baggage::Component">
<polygon fill="white" stroke="#666666" points="1000,-250 872,-250 872,-209 1000,-209 1000,-250"/>
<text text-anchor="start" x="880" y="-238" font-family="Helvetica,sans-Serif" font-size="10.00">userver/ugrpc/server</text>
<text text-anchor="start" x="880" y="-227" font-family="Helvetica,sans-Serif" font-size="10.00">/middlewares/baggage</text>
<text text-anchor="middle" x="936" y="-216" font-family="Helvetica,sans-Serif" font-size="10.00">/component.hpp</text>
</a>
</g>
</g>
<!-- Node17&#45;&gt;Node20 -->
<g id="edge20_Node000017_Node000020" class="edge">
<title>Node17&#45;&gt;Node20</title>
<g id="a_edge20_Node000017_Node000020"><a xlink:title=" ">
<path fill="none" stroke="#63b8ff" d="M988.99,-278.96C978.95,-269.78 967.25,-259.08 957.4,-250.07"/>
<polygon fill="#63b8ff" stroke="#63b8ff" points="986.88,-281.77 996.62,-285.94 991.6,-276.6 986.88,-281.77"/>
</a>
</g>
</g>
<!-- Node21 -->
<g id="Node000021" class="node">
<title>Node21</title>
<g id="a_Node000021"><a xlink:href="../../d7/d59/grpc_2include_2userver_2ugrpc_2server_2middlewares_2congestion__control_2component_8hpp.html" target="_top" xlink:title="ugrpc::server::middlewares::congestion_control::Component">
<polygon fill="white" stroke="#666666" points="1157.5,-250 1018.5,-250 1018.5,-209 1157.5,-209 1157.5,-250"/>
<text text-anchor="start" x="1026.5" y="-238" font-family="Helvetica,sans-Serif" font-size="10.00">userver/ugrpc/server</text>
<text text-anchor="start" x="1026.5" y="-227" font-family="Helvetica,sans-Serif" font-size="10.00">/middlewares/congestion</text>
<text text-anchor="middle" x="1088" y="-216" font-family="Helvetica,sans-Serif" font-size="10.00">_control/component.hpp</text>
</a>
</g>
</g>
<!-- Node17&#45;&gt;Node21 -->
<g id="edge21_Node000017_Node000021" class="edge">
<title>Node17&#45;&gt;Node21</title>
<g id="a_edge21_Node000017_Node000021"><a xlink:title=" ">
<path fill="none" stroke="#63b8ff" d="M1035.01,-278.96C1045.05,-269.78 1056.75,-259.08 1066.6,-250.07"/>
<polygon fill="#63b8ff" stroke="#63b8ff" points="1032.4,-276.6 1027.38,-285.94 1037.12,-281.77 1032.4,-276.6"/>
</a>
</g>
</g>
<!-- Node22 -->
<g id="Node000022" class="node">
<title>Node22</title>
<g id="a_Node000022"><a xlink:href="../../dc/dbf/grpc_2include_2userver_2ugrpc_2server_2middlewares_2deadline__propagation_2component_8hpp.html" target="_top" xlink:title="ugrpc::server::middlewares::deadline_propagation::Component">
<polygon fill="white" stroke="#666666" points="1334.5,-250 1175.5,-250 1175.5,-209 1334.5,-209 1334.5,-250"/>
<text text-anchor="start" x="1183.5" y="-238" font-family="Helvetica,sans-Serif" font-size="10.00">userver/ugrpc/server</text>
<text text-anchor="start" x="1183.5" y="-227" font-family="Helvetica,sans-Serif" font-size="10.00">/middlewares/deadline</text>
<text text-anchor="middle" x="1255" y="-216" font-family="Helvetica,sans-Serif" font-size="10.00">_propagation/component.hpp</text>
</a>
</g>
</g>
<!-- Node17&#45;&gt;Node22 -->
<g id="edge22_Node000017_Node000022" class="edge">
<title>Node17&#45;&gt;Node22</title>
<g id="a_edge22_Node000017_Node000022"><a xlink:title=" ">
<path fill="none" stroke="#63b8ff" d="M1071.2,-283.07C1106.04,-273.11 1150.24,-260.46 1186.56,-250.07"/>
<polygon fill="#63b8ff" stroke="#63b8ff" points="1069.83,-279.82 1061.17,-285.94 1071.75,-286.55 1069.83,-279.82"/>
</a>
</g>
</g>
<!-- Node23 -->
<g id="Node000023" class="node">
<title>Node23</title>
<g id="a_Node000023"><a xlink:href="../../dd/d14/grpc_2include_2userver_2ugrpc_2server_2middlewares_2log_2component_8hpp_source.html" target="_top" xlink:title=" ">
<polygon fill="white" stroke="#666666" points="1531.5,-244.5 1352.5,-244.5 1352.5,-214.5 1531.5,-214.5 1531.5,-244.5"/>
<text text-anchor="start" x="1360.5" y="-232.5" font-family="Helvetica,sans-Serif" font-size="10.00">userver/ugrpc/server</text>
<text text-anchor="middle" x="1442" y="-221.5" font-family="Helvetica,sans-Serif" font-size="10.00">/middlewares/log/component.hpp</text>
</a>
</g>
</g>
<!-- Node17&#45;&gt;Node23 -->
<g id="edge23_Node000017_Node000023" class="edge">
<title>Node17&#45;&gt;Node23</title>
<g id="a_edge23_Node000017_Node000023"><a xlink:title=" ">
<path fill="none" stroke="#63b8ff" d="M1087.22,-289.61C1154.41,-280.1 1255.45,-265.23 1343,-250 1352.66,-248.32 1362.84,-246.44 1372.84,-244.53"/>
<polygon fill="#63b8ff" stroke="#63b8ff" points="1086.56,-286.17 1077.14,-291.03 1087.53,-293.1 1086.56,-286.17"/>
</a>
</g>
</g>
<!-- Node19 -->
<g id="Node000019" class="node">
<title>Node19</title>
<g id="a_Node000019"><a xlink:href="../../d1/dac/server_2impl_2codegen__definitions_8hpp_source.html" target="_top" xlink:title=" ">
<polygon fill="white" stroke="#666666" points="1001.5,-167.5 838.5,-167.5 838.5,-137.5 1001.5,-137.5 1001.5,-167.5"/>
<text text-anchor="start" x="846.5" y="-155.5" font-family="Helvetica,sans-Serif" font-size="10.00">userver/ugrpc/server</text>
<text text-anchor="middle" x="920" y="-144.5" font-family="Helvetica,sans-Serif" font-size="10.00">/impl/codegen_definitions.hpp</text>
</a>
</g>
</g>
<!-- Node18&#45;&gt;Node19 -->
<g id="edge19_Node000018_Node000019" class="edge">
<title>Node18&#45;&gt;Node19</title>
<g id="a_edge19_Node000018_Node000019"><a xlink:title=" ">
<path fill="none" stroke="#63b8ff" d="M836.13,-203.82C856.1,-191.84 879.38,-177.87 896.33,-167.7"/>
<polygon fill="#63b8ff" stroke="#63b8ff" points="834.29,-200.84 827.52,-208.99 837.89,-206.85 834.29,-200.84"/>
</a>
</g>
</g>
<!-- Node25 -->
<g id="Node000025" class="node">
<title>Node25</title>
<g id="a_Node000025"><a xlink:href="../../db/d7e/server__component_8hpp.html" target="_top" xlink:title="Component that configures and manages the gRPC server.">
<polygon fill="white" stroke="#666666" points="1680.5,-244.5 1549.5,-244.5 1549.5,-214.5 1680.5,-214.5 1680.5,-244.5"/>
<text text-anchor="start" x="1557.5" y="-232.5" font-family="Helvetica,sans-Serif" font-size="10.00">userver/ugrpc/server</text>
<text text-anchor="middle" x="1615" y="-221.5" font-family="Helvetica,sans-Serif" font-size="10.00">/server_component.hpp</text>
</a>
</g>
</g>
<!-- Node24&#45;&gt;Node25 -->
<g id="edge25_Node000024_Node000025" class="edge">
<title>Node24&#45;&gt;Node25</title>
<g id="a_edge25_Node000024_Node000025"><a xlink:title=" ">
<path fill="none" stroke="#63b8ff" d="M1470.83,-282.42C1503.41,-270.68 1545.67,-255.47 1576,-244.54"/>
<polygon fill="#63b8ff" stroke="#63b8ff" points="1469.28,-279.25 1461.06,-285.94 1471.65,-285.84 1469.28,-279.25"/>
</a>
</g>
</g>
</g>
</svg>
