<?xml version="1.0" encoding="UTF-8" standalone="no"?>
<!DOCTYPE svg PUBLIC "-//W3C//DTD SVG 1.1//EN"
 "http://www.w3.org/Graphics/SVG/1.1/DTD/svg11.dtd">
<!-- Generated by graphviz version 2.43.0 (0)
 -->
<!-- Title: userver/testsuite/component_control.hpp Pages: 1 -->
<svg width="966pt" height="302pt"
 viewBox="0.00 0.00 965.50 302.00" xmlns="http://www.w3.org/2000/svg" xmlns:xlink="http://www.w3.org/1999/xlink">
<g id="graph0" class="graph" transform="scale(1 1) rotate(0) translate(4 298)">
<title>userver/testsuite/component_control.hpp</title>
<!-- Node1 -->
<g id="Node000001" class="node">
<title>Node1</title>
<g id="a_Node000001"><a xlink:title="Component control interface for testsuite.">
<polygon fill="#999999" stroke="#666666" points="376.5,-294 219.5,-294 219.5,-264 376.5,-264 376.5,-294"/>
<text text-anchor="start" x="227.5" y="-282" font-family="Helvetica,sans-Serif" font-size="10.00">userver/testsuite/component</text>
<text text-anchor="middle" x="298" y="-271" font-family="Helvetica,sans-Serif" font-size="10.00">_control.hpp</text>
</a>
</g>
</g>
<!-- Node2 -->
<g id="Node000002" class="node">
<title>Node2</title>
<g id="a_Node000002"><a xlink:title=" ">
<polygon fill="#e0e0e0" stroke="#999999" points="219.5,-217 154.5,-217 154.5,-198 219.5,-198 219.5,-217"/>
<text text-anchor="middle" x="187" y="-205" font-family="Helvetica,sans-Serif" font-size="10.00">functional</text>
</a>
</g>
</g>
<!-- Node1&#45;&gt;Node2 -->
<g id="edge1_Node000001_Node000002" class="edge">
<title>Node1&#45;&gt;Node2</title>
<g id="a_edge1_Node000001_Node000002"><a xlink:title=" ">
<path fill="none" stroke="#63b8ff" d="M275.54,-263.94C256.27,-251.87 228.64,-234.57 209.39,-222.52"/>
<polygon fill="#63b8ff" stroke="#63b8ff" points="211.02,-219.41 200.68,-217.07 207.3,-225.34 211.02,-219.41"/>
</a>
</g>
</g>
<!-- Node3 -->
<g id="Node000003" class="node">
<title>Node3</title>
<g id="a_Node000003"><a xlink:title=" ">
<polygon fill="#e0e0e0" stroke="#999999" points="270,-217 238,-217 238,-198 270,-198 270,-217"/>
<text text-anchor="middle" x="254" y="-205" font-family="Helvetica,sans-Serif" font-size="10.00">list</text>
</a>
</g>
</g>
<!-- Node1&#45;&gt;Node3 -->
<g id="edge2_Node000001_Node000003" class="edge">
<title>Node1&#45;&gt;Node3</title>
<g id="a_edge2_Node000001_Node000003"><a xlink:title=" ">
<path fill="none" stroke="#63b8ff" d="M289.1,-263.94C282.12,-252.92 272.39,-237.54 264.94,-225.78"/>
<polygon fill="#63b8ff" stroke="#63b8ff" points="267.86,-223.84 259.55,-217.27 261.94,-227.59 267.86,-223.84"/>
</a>
</g>
</g>
<!-- Node4 -->
<g id="Node000004" class="node">
<title>Node4</title>
<g id="a_Node000004"><a xlink:title=" ">
<polygon fill="#e0e0e0" stroke="#999999" points="332.5,-19 263.5,-19 263.5,0 332.5,0 332.5,-19"/>
<text text-anchor="middle" x="298" y="-7" font-family="Helvetica,sans-Serif" font-size="10.00">type_traits</text>
</a>
</g>
</g>
<!-- Node1&#45;&gt;Node4 -->
<g id="edge3_Node000001_Node000004" class="edge">
<title>Node1&#45;&gt;Node4</title>
<g id="a_edge3_Node000001_Node000004"><a xlink:title=" ">
<path fill="none" stroke="#63b8ff" d="M298,-263.99C298,-219.31 298,-80.13 298,-29.31"/>
<polygon fill="#63b8ff" stroke="#63b8ff" points="301.5,-29.13 298,-19.13 294.5,-29.13 301.5,-29.13"/>
</a>
</g>
</g>
<!-- Node5 -->
<g id="Node000005" class="node">
<title>Node5</title>
<g id="a_Node000005"><a xlink:href="../../da/d11/loggable__component__base_8hpp.html" target="_top" xlink:title="Contains components::LoggableComponentBase declaration and forward declarations of components::Compon...">
<polygon fill="white" stroke="#666666" points="792,-228 670,-228 670,-187 792,-187 792,-228"/>
<text text-anchor="start" x="678" y="-216" font-family="Helvetica,sans-Serif" font-size="10.00">userver/components</text>
<text text-anchor="start" x="678" y="-205" font-family="Helvetica,sans-Serif" font-size="10.00">/loggable_component</text>
<text text-anchor="middle" x="731" y="-194" font-family="Helvetica,sans-Serif" font-size="10.00">_base.hpp</text>
</a>
</g>
</g>
<!-- Node1&#45;&gt;Node5 -->
<g id="edge4_Node000001_Node000005" class="edge">
<title>Node1&#45;&gt;Node5</title>
<g id="a_edge4_Node000001_Node000005"><a xlink:title=" ">
<path fill="none" stroke="#63b8ff" d="M376.66,-265.37C457.28,-252.43 581.56,-232.49 659.47,-219.98"/>
<polygon fill="#63b8ff" stroke="#63b8ff" points="660.36,-223.38 669.68,-218.34 659.25,-216.47 660.36,-223.38"/>
</a>
</g>
</g>
<!-- Node9 -->
<g id="Node000009" class="node">
<title>Node9</title>
<g id="a_Node000009"><a xlink:href="../../d8/da6/mutex_8hpp.html" target="_top" xlink:title="std::mutex replacement for asynchronous tasks">
<polygon fill="white" stroke="#666666" points="473.5,-217 328.5,-217 328.5,-198 473.5,-198 473.5,-217"/>
<text text-anchor="middle" x="401" y="-205" font-family="Helvetica,sans-Serif" font-size="10.00">userver/engine/mutex.hpp</text>
</a>
</g>
</g>
<!-- Node1&#45;&gt;Node9 -->
<g id="edge8_Node000001_Node000009" class="edge">
<title>Node1&#45;&gt;Node9</title>
<g id="a_edge8_Node000001_Node000009"><a xlink:title=" ">
<path fill="none" stroke="#63b8ff" d="M318.84,-263.94C336.56,-251.98 361.9,-234.88 379.74,-222.85"/>
<polygon fill="#63b8ff" stroke="#63b8ff" points="381.97,-225.56 388.3,-217.07 378.06,-219.76 381.97,-225.56"/>
</a>
</g>
</g>
<!-- Node6 -->
<g id="Node000006" class="node">
<title>Node6</title>
<g id="a_Node000006"><a xlink:href="../../d7/d47/component__fwd_8hpp.html" target="_top" xlink:title="Forward declarations for components::ComponentContext and components::ComponentConfig; function compo...">
<polygon fill="white" stroke="#666666" points="790,-151 672,-151 672,-121 790,-121 790,-151"/>
<text text-anchor="start" x="680" y="-139" font-family="Helvetica,sans-Serif" font-size="10.00">userver/components</text>
<text text-anchor="middle" x="731" y="-128" font-family="Helvetica,sans-Serif" font-size="10.00">/component_fwd.hpp</text>
</a>
</g>
</g>
<!-- Node5&#45;&gt;Node6 -->
<g id="edge5_Node000005_Node000006" class="edge">
<title>Node5&#45;&gt;Node6</title>
<g id="a_edge5_Node000005_Node000006"><a xlink:title=" ">
<path fill="none" stroke="#63b8ff" d="M731,-186.77C731,-178.85 731,-169.63 731,-161.3"/>
<polygon fill="#63b8ff" stroke="#63b8ff" points="734.5,-161.04 731,-151.04 727.5,-161.04 734.5,-161.04"/>
</a>
</g>
</g>
<!-- Node8 -->
<g id="Node000008" class="node">
<title>Node8</title>
<g id="a_Node000008"><a xlink:href="../../d2/d61/component__base_8hpp_source.html" target="_top" xlink:title=" ">
<polygon fill="white" stroke="#666666" points="957.5,-151 808.5,-151 808.5,-121 957.5,-121 957.5,-151"/>
<text text-anchor="start" x="816.5" y="-139" font-family="Helvetica,sans-Serif" font-size="10.00">userver/components</text>
<text text-anchor="middle" x="883" y="-128" font-family="Helvetica,sans-Serif" font-size="10.00">/impl/component_base.hpp</text>
</a>
</g>
</g>
<!-- Node5&#45;&gt;Node8 -->
<g id="edge7_Node000005_Node000008" class="edge">
<title>Node5&#45;&gt;Node8</title>
<g id="a_edge7_Node000005_Node000008"><a xlink:title=" ">
<path fill="none" stroke="#63b8ff" d="M773.74,-186.96C795.47,-177.02 821.71,-165.03 843.02,-155.28"/>
<polygon fill="#63b8ff" stroke="#63b8ff" points="844.5,-158.45 852.13,-151.11 841.58,-152.09 844.5,-158.45"/>
</a>
</g>
</g>
<!-- Node7 -->
<g id="Node000007" class="node">
<title>Node7</title>
<g id="a_Node000007"><a xlink:title=" ">
<polygon fill="#e0e0e0" stroke="#999999" points="753,-79.5 709,-79.5 709,-60.5 753,-60.5 753,-79.5"/>
<text text-anchor="middle" x="731" y="-67.5" font-family="Helvetica,sans-Serif" font-size="10.00">string</text>
</a>
</g>
</g>
<!-- Node6&#45;&gt;Node7 -->
<g id="edge6_Node000006_Node000007" class="edge">
<title>Node6&#45;&gt;Node7</title>
<g id="a_edge6_Node000006_Node000007"><a xlink:title=" ">
<path fill="none" stroke="#63b8ff" d="M731,-120.8C731,-111.7 731,-99.79 731,-89.9"/>
<polygon fill="#63b8ff" stroke="#63b8ff" points="734.5,-89.84 731,-79.84 727.5,-89.84 734.5,-89.84"/>
</a>
</g>
</g>
<!-- Node10 -->
<g id="Node000010" class="node">
<title>Node10</title>
<g id="a_Node000010"><a xlink:title=" ">
<polygon fill="#e0e0e0" stroke="#999999" points="654,-145.5 604,-145.5 604,-126.5 654,-126.5 654,-145.5"/>
<text text-anchor="middle" x="629" y="-133.5" font-family="Helvetica,sans-Serif" font-size="10.00">atomic</text>
</a>
</g>
</g>
<!-- Node9&#45;&gt;Node10 -->
<g id="edge9_Node000009_Node000010" class="edge">
<title>Node9&#45;&gt;Node10</title>
<g id="a_edge9_Node000009_Node000010"><a xlink:title=" ">
<path fill="none" stroke="#63b8ff" d="M435.35,-197.92C474.41,-187.87 539.91,-170.16 595,-151 596.62,-150.44 598.27,-149.84 599.93,-149.22"/>
<polygon fill="#63b8ff" stroke="#63b8ff" points="601.33,-152.43 609.37,-145.52 598.78,-145.91 601.33,-152.43"/>
</a>
</g>
</g>
<!-- Node11 -->
<g id="Node000011" class="node">
<title>Node11</title>
<g id="a_Node000011"><a xlink:title=" ">
<polygon fill="#e0e0e0" stroke="#999999" points="427,-79.5 377,-79.5 377,-60.5 427,-60.5 427,-79.5"/>
<text text-anchor="middle" x="402" y="-67.5" font-family="Helvetica,sans-Serif" font-size="10.00">chrono</text>
</a>
</g>
</g>
<!-- Node9&#45;&gt;Node11 -->
<g id="edge10_Node000009_Node000011" class="edge">
<title>Node9&#45;&gt;Node11</title>
<g id="a_edge10_Node000009_Node000011"><a xlink:title=" ">
<path fill="none" stroke="#63b8ff" d="M401.07,-197.61C401.23,-175.88 401.64,-119.71 401.86,-90.02"/>
<polygon fill="#63b8ff" stroke="#63b8ff" points="405.36,-89.77 401.94,-79.75 398.36,-89.72 405.36,-89.77"/>
</a>
</g>
</g>
<!-- Node12 -->
<g id="Node000012" class="node">
<title>Node12</title>
<g id="a_Node000012"><a xlink:title=" ">
<polygon fill="#e0e0e0" stroke="#999999" points="374,-145.5 326,-145.5 326,-126.5 374,-126.5 374,-145.5"/>
<text text-anchor="middle" x="350" y="-133.5" font-family="Helvetica,sans-Serif" font-size="10.00">mutex</text>
</a>
</g>
</g>
<!-- Node9&#45;&gt;Node12 -->
<g id="edge11_Node000009_Node000012" class="edge">
<title>Node9&#45;&gt;Node12</title>
<g id="a_edge11_Node000009_Node000012"><a xlink:title=" ">
<path fill="none" stroke="#63b8ff" d="M394.75,-197.98C386.72,-187.04 372.6,-167.8 362.37,-153.85"/>
<polygon fill="#63b8ff" stroke="#63b8ff" points="365.04,-151.58 356.3,-145.59 359.4,-155.72 365.04,-151.58"/>
</a>
</g>
</g>
<!-- Node13 -->
<g id="Node000013" class="node">
<title>Node13</title>
<g id="a_Node000013"><a xlink:href="../../d2/d22/deadline_8hpp.html" target="_top" xlink:title="Internal representation of a deadline time point.">
<polygon fill="white" stroke="#666666" points="585.5,-145.5 430.5,-145.5 430.5,-126.5 585.5,-126.5 585.5,-145.5"/>
<text text-anchor="middle" x="508" y="-133.5" font-family="Helvetica,sans-Serif" font-size="10.00">userver/engine/deadline.hpp</text>
</a>
</g>
</g>
<!-- Node9&#45;&gt;Node13 -->
<g id="edge12_Node000009_Node000013" class="edge">
<title>Node9&#45;&gt;Node13</title>
<g id="a_edge12_Node000009_Node000013"><a xlink:title=" ">
<path fill="none" stroke="#63b8ff" d="M414.12,-197.98C432.09,-186.31 464.59,-165.2 486.23,-151.14"/>
<polygon fill="#63b8ff" stroke="#63b8ff" points="488.29,-153.97 494.77,-145.59 484.48,-148.1 488.29,-153.97"/>
</a>
</g>
</g>
<!-- Node16 -->
<g id="Node000016" class="node">
<title>Node16</title>
<g id="a_Node000016"><a xlink:href="../../d9/db5/wait__list__fwd_8hpp_source.html" target="_top" xlink:title=" ">
<polygon fill="white" stroke="#666666" points="270,-151 156,-151 156,-121 270,-121 270,-151"/>
<text text-anchor="start" x="164" y="-139" font-family="Helvetica,sans-Serif" font-size="10.00">userver/engine/impl</text>
<text text-anchor="middle" x="213" y="-128" font-family="Helvetica,sans-Serif" font-size="10.00">/wait_list_fwd.hpp</text>
</a>
</g>
</g>
<!-- Node9&#45;&gt;Node16 -->
<g id="edge17_Node000009_Node000016" class="edge">
<title>Node9&#45;&gt;Node16</title>
<g id="a_edge17_Node000009_Node000016"><a xlink:title=" ">
<path fill="none" stroke="#63b8ff" d="M377.95,-197.98C348.88,-187.23 298.16,-168.48 260.61,-154.6"/>
<polygon fill="#63b8ff" stroke="#63b8ff" points="261.48,-151.19 250.89,-151.01 259.06,-157.76 261.48,-151.19"/>
</a>
</g>
</g>
<!-- Node13&#45;&gt;Node4 -->
<g id="edge14_Node000013_Node000004" class="edge">
<title>Node13&#45;&gt;Node4</title>
<g id="a_edge14_Node000013_Node000004"><a xlink:title=" ">
<path fill="none" stroke="#63b8ff" d="M502.4,-126.16C491.55,-109.75 466.11,-74.51 436,-55 407.59,-36.59 370.94,-25.24 342.56,-18.62"/>
<polygon fill="#63b8ff" stroke="#63b8ff" points="343.02,-15.14 332.5,-16.39 341.51,-21.97 343.02,-15.14"/>
</a>
</g>
</g>
<!-- Node13&#45;&gt;Node11 -->
<g id="edge13_Node000013_Node000011" class="edge">
<title>Node13&#45;&gt;Node11</title>
<g id="a_edge13_Node000013_Node000011"><a xlink:title=" ">
<path fill="none" stroke="#63b8ff" d="M493.7,-126.37C476.08,-115.73 445.91,-97.51 425.01,-84.89"/>
<polygon fill="#63b8ff" stroke="#63b8ff" points="426.78,-81.87 416.41,-79.7 423.16,-87.86 426.78,-81.87"/>
</a>
</g>
</g>
<!-- Node14 -->
<g id="Node000014" class="node">
<title>Node14</title>
<g id="a_Node000014"><a xlink:href="../../d2/d54/assert_8hpp.html" target="_top" xlink:title="Assertion macros UASSERT, UASSERT_MSG, UINVARIANT.">
<polygon fill="white" stroke="#666666" points="614.5,-79.5 483.5,-79.5 483.5,-60.5 614.5,-60.5 614.5,-79.5"/>
<text text-anchor="middle" x="549" y="-67.5" font-family="Helvetica,sans-Serif" font-size="10.00">userver/utils/assert.hpp</text>
</a>
</g>
</g>
<!-- Node13&#45;&gt;Node14 -->
<g id="edge15_Node000013_Node000014" class="edge">
<title>Node13&#45;&gt;Node14</title>
<g id="a_edge15_Node000013_Node000014"><a xlink:title=" ">
<path fill="none" stroke="#63b8ff" d="M513.53,-126.37C519.73,-116.69 529.95,-100.74 537.83,-88.44"/>
<polygon fill="#63b8ff" stroke="#63b8ff" points="540.85,-90.21 543.3,-79.91 534.95,-86.44 540.85,-90.21"/>
</a>
</g>
</g>
<!-- Node15 -->
<g id="Node000015" class="node">
<title>Node15</title>
<g id="a_Node000015"><a xlink:title=" ">
<polygon fill="#e0e0e0" stroke="#999999" points="585.5,-19 512.5,-19 512.5,0 585.5,0 585.5,-19"/>
<text text-anchor="middle" x="549" y="-7" font-family="Helvetica,sans-Serif" font-size="10.00">string_view</text>
</a>
</g>
</g>
<!-- Node14&#45;&gt;Node15 -->
<g id="edge16_Node000014_Node000015" class="edge">
<title>Node14&#45;&gt;Node15</title>
<g id="a_edge16_Node000014_Node000015"><a xlink:title=" ">
<path fill="none" stroke="#63b8ff" d="M549,-60.37C549,-52.25 549,-39.81 549,-29.39"/>
<polygon fill="#63b8ff" stroke="#63b8ff" points="552.5,-29.17 549,-19.17 545.5,-29.17 552.5,-29.17"/>
</a>
</g>
</g>
<!-- Node17 -->
<g id="Node000017" class="node">
<title>Node17</title>
<g id="a_Node000017"><a xlink:href="../../d2/d84/select_8hpp.html" target="_top" xlink:title="Utilities for selection of platform specific values.">
<polygon fill="white" stroke="#666666" points="152,-79.5 0,-79.5 0,-60.5 152,-60.5 152,-79.5"/>
<text text-anchor="middle" x="76" y="-67.5" font-family="Helvetica,sans-Serif" font-size="10.00">userver/compiler/select.hpp</text>
</a>
</g>
</g>
<!-- Node16&#45;&gt;Node17 -->
<g id="edge18_Node000016_Node000017" class="edge">
<title>Node16&#45;&gt;Node17</title>
<g id="a_edge18_Node000016_Node000017"><a xlink:title=" ">
<path fill="none" stroke="#63b8ff" d="M182.93,-120.95C159.23,-109.88 126.44,-94.56 103.44,-83.82"/>
<polygon fill="#63b8ff" stroke="#63b8ff" points="104.77,-80.58 94.23,-79.52 101.81,-86.92 104.77,-80.58"/>
</a>
</g>
</g>
<!-- Node19 -->
<g id="Node000019" class="node">
<title>Node19</title>
<g id="a_Node000019"><a xlink:href="../../d5/d02/fast__pimpl_8hpp.html" target="_top" xlink:title="Implements pimpl idiom without dynamic memory allocation.">
<polygon fill="white" stroke="#666666" points="269.5,-85 170.5,-85 170.5,-55 269.5,-55 269.5,-85"/>
<text text-anchor="start" x="178.5" y="-73" font-family="Helvetica,sans-Serif" font-size="10.00">userver/utils/fast</text>
<text text-anchor="middle" x="220" y="-62" font-family="Helvetica,sans-Serif" font-size="10.00">_pimpl.hpp</text>
</a>
</g>
</g>
<!-- Node16&#45;&gt;Node19 -->
<g id="edge20_Node000016_Node000019" class="edge">
<title>Node16&#45;&gt;Node19</title>
<g id="a_edge20_Node000016_Node000019"><a xlink:title=" ">
<path fill="none" stroke="#63b8ff" d="M214.55,-120.8C215.38,-113.26 216.41,-103.78 217.36,-95.13"/>
<polygon fill="#63b8ff" stroke="#63b8ff" points="220.84,-95.49 218.45,-85.16 213.88,-94.72 220.84,-95.49"/>
</a>
</g>
</g>
<!-- Node18 -->
<g id="Node000018" class="node">
<title>Node18</title>
<g id="a_Node000018"><a xlink:title=" ">
<polygon fill="#e0e0e0" stroke="#999999" points="114.5,-19 61.5,-19 61.5,0 114.5,0 114.5,-19"/>
<text text-anchor="middle" x="88" y="-7" font-family="Helvetica,sans-Serif" font-size="10.00">cstddef</text>
</a>
</g>
</g>
<!-- Node17&#45;&gt;Node18 -->
<g id="edge19_Node000017_Node000018" class="edge">
<title>Node17&#45;&gt;Node18</title>
<g id="a_edge19_Node000017_Node000018"><a xlink:title=" ">
<path fill="none" stroke="#63b8ff" d="M77.77,-60.37C79.45,-52.16 82.04,-39.54 84.19,-29.05"/>
<polygon fill="#63b8ff" stroke="#63b8ff" points="87.64,-29.67 86.22,-19.17 80.78,-28.26 87.64,-29.67"/>
</a>
</g>
</g>
<!-- Node19&#45;&gt;Node4 -->
<g id="edge23_Node000019_Node000004" class="edge">
<title>Node19&#45;&gt;Node4</title>
<g id="a_edge23_Node000019_Node000004"><a xlink:title=" ">
<path fill="none" stroke="#63b8ff" d="M238.88,-54.84C250.78,-45.91 266.12,-34.41 278.2,-25.35"/>
<polygon fill="#63b8ff" stroke="#63b8ff" points="280.41,-28.07 286.31,-19.27 276.21,-22.47 280.41,-28.07"/>
</a>
</g>
</g>
<!-- Node19&#45;&gt;Node18 -->
<g id="edge21_Node000019_Node000018" class="edge">
<title>Node19&#45;&gt;Node18</title>
<g id="a_edge21_Node000019_Node000018"><a xlink:title=" ">
<path fill="none" stroke="#63b8ff" d="M188.38,-54.99C166.65,-45.36 138.03,-32.67 116.91,-23.31"/>
<polygon fill="#63b8ff" stroke="#63b8ff" points="118.05,-19.99 107.49,-19.14 115.22,-26.39 118.05,-19.99"/>
</a>
</g>
</g>
<!-- Node20 -->
<g id="Node000020" class="node">
<title>Node20</title>
<g id="a_Node000020"><a xlink:title=" ">
<polygon fill="#e0e0e0" stroke="#999999" points="241.5,-19 204.5,-19 204.5,0 241.5,0 241.5,-19"/>
<text text-anchor="middle" x="223" y="-7" font-family="Helvetica,sans-Serif" font-size="10.00">new</text>
</a>
</g>
</g>
<!-- Node19&#45;&gt;Node20 -->
<g id="edge22_Node000019_Node000020" class="edge">
<title>Node19&#45;&gt;Node20</title>
<g id="a_edge22_Node000019_Node000020"><a xlink:title=" ">
<path fill="none" stroke="#63b8ff" d="M220.73,-54.84C221.12,-47.21 221.6,-37.7 222.03,-29.45"/>
<polygon fill="#63b8ff" stroke="#63b8ff" points="225.53,-29.43 222.55,-19.27 218.54,-29.07 225.53,-29.43"/>
</a>
</g>
</g>
<!-- Node21 -->
<g id="Node000021" class="node">
<title>Node21</title>
<g id="a_Node000021"><a xlink:title=" ">
<polygon fill="#e0e0e0" stroke="#999999" points="186.5,-19 141.5,-19 141.5,0 186.5,0 186.5,-19"/>
<text text-anchor="middle" x="164" y="-7" font-family="Helvetica,sans-Serif" font-size="10.00">utility</text>
</a>
</g>
</g>
<!-- Node19&#45;&gt;Node21 -->
<g id="edge24_Node000019_Node000021" class="edge">
<title>Node19&#45;&gt;Node21</title>
<g id="a_edge24_Node000019_Node000021"><a xlink:title=" ">
<path fill="none" stroke="#63b8ff" d="M206.44,-54.84C198.32,-46.35 187.95,-35.52 179.5,-26.69"/>
<polygon fill="#63b8ff" stroke="#63b8ff" points="181.83,-24.07 172.39,-19.27 176.78,-28.91 181.83,-24.07"/>
</a>
</g>
</g>
</g>
</svg>
