<?xml version="1.0" encoding="UTF-8" standalone="no"?>
<!DOCTYPE svg PUBLIC "-//W3C//DTD SVG 1.1//EN"
 "http://www.w3.org/Graphics/SVG/1.1/DTD/svg11.dtd">
<!-- Generated by graphviz version 2.43.0 (0)
 -->
<!-- Title: /home/antonyzhilin/arcadia/taxi/uservices/userver/libraries/proto&#45;structs/include/userver/proto&#45;structs/type_mapping.hpp Pages: 1 -->
<svg width="463pt" height="357pt"
 viewBox="0.00 0.00 463.00 357.00" xmlns="http://www.w3.org/2000/svg" xmlns:xlink="http://www.w3.org/1999/xlink">
<g id="graph0" class="graph" transform="scale(1 1) rotate(0) translate(4 353)">
<title>/home/antonyzhilin/arcadia/taxi/uservices/userver/libraries/proto&#45;structs/include/userver/proto&#45;structs/type_mapping.hpp</title>
<!-- Node1 -->
<g id="Node000001" class="node">
<title>Node1</title>
<g id="a_Node000001"><a xlink:title="Concepts and traits for checking struct and protobuf message compatability.">
<polygon fill="#999999" stroke="#666666" points="282.5,-349 125.5,-349 125.5,-286 282.5,-286 282.5,-349"/>
<text text-anchor="start" x="133.5" y="-337" font-family="Helvetica,sans-Serif" font-size="10.00">/home/antonyzhilin</text>
<text text-anchor="start" x="133.5" y="-326" font-family="Helvetica,sans-Serif" font-size="10.00">/arcadia/taxi/uservices</text>
<text text-anchor="start" x="133.5" y="-315" font-family="Helvetica,sans-Serif" font-size="10.00">/userver/libraries/proto</text>
<text text-anchor="start" x="133.5" y="-304" font-family="Helvetica,sans-Serif" font-size="10.00">&#45;structs/include/userver</text>
<text text-anchor="middle" x="204" y="-293" font-family="Helvetica,sans-Serif" font-size="10.00">/proto&#45;structs/type_mapping.hpp</text>
</a>
</g>
</g>
<!-- Node2 -->
<g id="Node000002" class="node">
<title>Node2</title>
<g id="a_Node000002"><a xlink:href="../../d2/d62/any_8hpp.html" target="_top" xlink:title="Class to access google.protobuf.Any stored message as a struct.">
<polygon fill="white" stroke="#666666" points="126.5,-151 7.5,-151 7.5,-88 126.5,-88 126.5,-151"/>
<text text-anchor="start" x="15.5" y="-139" font-family="Helvetica,sans-Serif" font-size="10.00">/home/antonyzhilin</text>
<text text-anchor="start" x="15.5" y="-128" font-family="Helvetica,sans-Serif" font-size="10.00">/arcadia/taxi/uservices</text>
<text text-anchor="start" x="15.5" y="-117" font-family="Helvetica,sans-Serif" font-size="10.00">/userver/libraries/proto</text>
<text text-anchor="start" x="15.5" y="-106" font-family="Helvetica,sans-Serif" font-size="10.00">&#45;structs/include/userver</text>
<text text-anchor="middle" x="67" y="-95" font-family="Helvetica,sans-Serif" font-size="10.00">/proto&#45;structs/any.hpp</text>
</a>
</g>
</g>
<!-- Node1&#45;&gt;Node2 -->
<g id="edge1_Node000001_Node000002" class="edge">
<title>Node1&#45;&gt;Node2</title>
<g id="a_edge1_Node000001_Node000002"><a xlink:title=" ">
<path fill="none" stroke="#63b8ff" d="M157.41,-278.89C147.99,-270.01 138.65,-260.16 131,-250 107.77,-219.15 89.33,-178.55 78.32,-151.1"/>
<polygon fill="#63b8ff" stroke="#63b8ff" points="155.2,-281.61 164.95,-285.78 159.93,-276.45 155.2,-281.61"/>
</a>
</g>
</g>
<!-- Node4 -->
<g id="Node000004" class="node">
<title>Node4</title>
<g id="a_Node000004"><a xlink:href="../../d2/d34/libraries_2proto-structs_2include_2userver_2proto-structs_2convert_8hpp.html" target="_top" xlink:title="Functions for protobuf message to/from struct conversion.">
<polygon fill="white" stroke="#666666" points="268,-250 140,-250 140,-187 268,-187 268,-250"/>
<text text-anchor="start" x="148" y="-238" font-family="Helvetica,sans-Serif" font-size="10.00">/home/antonyzhilin</text>
<text text-anchor="start" x="148" y="-227" font-family="Helvetica,sans-Serif" font-size="10.00">/arcadia/taxi/uservices</text>
<text text-anchor="start" x="148" y="-216" font-family="Helvetica,sans-Serif" font-size="10.00">/userver/libraries/proto</text>
<text text-anchor="start" x="148" y="-205" font-family="Helvetica,sans-Serif" font-size="10.00">&#45;structs/include/userver</text>
<text text-anchor="middle" x="204" y="-194" font-family="Helvetica,sans-Serif" font-size="10.00">/proto&#45;structs/convert.hpp</text>
</a>
</g>
</g>
<!-- Node1&#45;&gt;Node4 -->
<g id="edge3_Node000001_Node000004" class="edge">
<title>Node1&#45;&gt;Node4</title>
<g id="a_edge3_Node000001_Node000004"><a xlink:title=" ">
<path fill="none" stroke="#63b8ff" d="M204,-275.69C204,-267.2 204,-258.38 204,-250.32"/>
<polygon fill="#63b8ff" stroke="#63b8ff" points="200.5,-275.81 204,-285.81 207.5,-275.81 200.5,-275.81"/>
</a>
</g>
</g>
<!-- Node6 -->
<g id="Node000006" class="node">
<title>Node6</title>
<g id="a_Node000006"><a xlink:href="../../d9/d0a/oneof_8hpp.html" target="_top" xlink:title="Contains type to represent oneof protobuf message fields in a struct.">
<polygon fill="white" stroke="#666666" points="425,-250 305,-250 305,-187 425,-187 425,-250"/>
<text text-anchor="start" x="313" y="-238" font-family="Helvetica,sans-Serif" font-size="10.00">/home/antonyzhilin</text>
<text text-anchor="start" x="313" y="-227" font-family="Helvetica,sans-Serif" font-size="10.00">/arcadia/taxi/uservices</text>
<text text-anchor="start" x="313" y="-216" font-family="Helvetica,sans-Serif" font-size="10.00">/userver/libraries/proto</text>
<text text-anchor="start" x="313" y="-205" font-family="Helvetica,sans-Serif" font-size="10.00">&#45;structs/include/userver</text>
<text text-anchor="middle" x="365" y="-194" font-family="Helvetica,sans-Serif" font-size="10.00">/proto&#45;structs/oneof.hpp</text>
</a>
</g>
</g>
<!-- Node1&#45;&gt;Node6 -->
<g id="edge6_Node000001_Node000006" class="edge">
<title>Node1&#45;&gt;Node6</title>
<g id="a_edge6_Node000001_Node000006"><a xlink:title=" ">
<path fill="none" stroke="#63b8ff" d="M263.96,-280.38C280.45,-270.44 298.18,-259.76 314.11,-250.16"/>
<polygon fill="#63b8ff" stroke="#63b8ff" points="261.7,-277.65 254.94,-285.81 265.31,-283.65 261.7,-277.65"/>
</a>
</g>
</g>
<!-- Node3 -->
<g id="Node000003" class="node">
<title>Node3</title>
<g id="a_Node000003"><a xlink:href="../../d0/df3/any__test_8cpp_source.html" target="_top" xlink:title=" ">
<polygon fill="white" stroke="#666666" points="134,-52 0,-52 0,0 134,0 134,-52"/>
<text text-anchor="start" x="8" y="-40" font-family="Helvetica,sans-Serif" font-size="10.00">/home/antonyzhilin</text>
<text text-anchor="start" x="8" y="-29" font-family="Helvetica,sans-Serif" font-size="10.00">/arcadia/taxi/uservices</text>
<text text-anchor="start" x="8" y="-18" font-family="Helvetica,sans-Serif" font-size="10.00">/userver/libraries/proto</text>
<text text-anchor="middle" x="67" y="-7" font-family="Helvetica,sans-Serif" font-size="10.00">&#45;structs/tests/any_test.cpp</text>
</a>
</g>
</g>
<!-- Node2&#45;&gt;Node3 -->
<g id="edge2_Node000002_Node000003" class="edge">
<title>Node2&#45;&gt;Node3</title>
<g id="a_edge2_Node000002_Node000003"><a xlink:title=" ">
<path fill="none" stroke="#63b8ff" d="M67,-77.7C67,-68.95 67,-59.96 67,-52.02"/>
<polygon fill="#63b8ff" stroke="#63b8ff" points="63.5,-77.78 67,-87.78 70.5,-77.78 63.5,-77.78"/>
</a>
</g>
</g>
<!-- Node4&#45;&gt;Node2 -->
<g id="edge4_Node000004_Node000002" class="edge">
<title>Node4&#45;&gt;Node2</title>
<g id="a_edge4_Node000004_Node000002"><a xlink:title=" ">
<path fill="none" stroke="#63b8ff" d="M152.24,-180.85C138.5,-171.12 123.79,-160.71 110.54,-151.32"/>
<polygon fill="#63b8ff" stroke="#63b8ff" points="150.47,-183.89 160.65,-186.81 154.51,-178.17 150.47,-183.89"/>
</a>
</g>
</g>
<!-- Node5 -->
<g id="Node000005" class="node">
<title>Node5</title>
<g id="a_Node000005"><a xlink:href="../../d5/d30/convert__test_8cpp_source.html" target="_top" xlink:title=" ">
<polygon fill="white" stroke="#666666" points="295,-145.5 145,-145.5 145,-93.5 295,-93.5 295,-145.5"/>
<text text-anchor="start" x="153" y="-133.5" font-family="Helvetica,sans-Serif" font-size="10.00">/home/antonyzhilin</text>
<text text-anchor="start" x="153" y="-122.5" font-family="Helvetica,sans-Serif" font-size="10.00">/arcadia/taxi/uservices</text>
<text text-anchor="start" x="153" y="-111.5" font-family="Helvetica,sans-Serif" font-size="10.00">/userver/libraries/proto</text>
<text text-anchor="middle" x="220" y="-100.5" font-family="Helvetica,sans-Serif" font-size="10.00">&#45;structs/tests/convert_test.cpp</text>
</a>
</g>
</g>
<!-- Node4&#45;&gt;Node5 -->
<g id="edge5_Node000004_Node000005" class="edge">
<title>Node4&#45;&gt;Node5</title>
<g id="a_edge5_Node000004_Node000005"><a xlink:title=" ">
<path fill="none" stroke="#63b8ff" d="M210.69,-176.92C212.43,-166.37 214.26,-155.3 215.83,-145.8"/>
<polygon fill="#63b8ff" stroke="#63b8ff" points="207.24,-176.37 209.06,-186.81 214.14,-177.51 207.24,-176.37"/>
</a>
</g>
</g>
<!-- Node7 -->
<g id="Node000007" class="node">
<title>Node7</title>
<g id="a_Node000007"><a xlink:href="../../dd/df3/oneof__test_8cpp_source.html" target="_top" xlink:title=" ">
<polygon fill="white" stroke="#666666" points="455,-145.5 313,-145.5 313,-93.5 455,-93.5 455,-145.5"/>
<text text-anchor="start" x="321" y="-133.5" font-family="Helvetica,sans-Serif" font-size="10.00">/home/antonyzhilin</text>
<text text-anchor="start" x="321" y="-122.5" font-family="Helvetica,sans-Serif" font-size="10.00">/arcadia/taxi/uservices</text>
<text text-anchor="start" x="321" y="-111.5" font-family="Helvetica,sans-Serif" font-size="10.00">/userver/libraries/proto</text>
<text text-anchor="middle" x="384" y="-100.5" font-family="Helvetica,sans-Serif" font-size="10.00">&#45;structs/tests/oneof_test.cpp</text>
</a>
</g>
</g>
<!-- Node6&#45;&gt;Node7 -->
<g id="edge7_Node000006_Node000007" class="edge">
<title>Node6&#45;&gt;Node7</title>
<g id="a_edge7_Node000006_Node000007"><a xlink:title=" ">
<path fill="none" stroke="#63b8ff" d="M372.95,-176.92C375.02,-166.37 377.18,-155.3 379.05,-145.8"/>
<polygon fill="#63b8ff" stroke="#63b8ff" points="369.5,-176.32 371.01,-186.81 376.37,-177.67 369.5,-176.32"/>
</a>
</g>
</g>
</g>
</svg>
