<?xml version="1.0" encoding="UTF-8" standalone="no"?>
<!DOCTYPE svg PUBLIC "-//W3C//DTD SVG 1.1//EN"
 "http://www.w3.org/Graphics/SVG/1.1/DTD/svg11.dtd">
<!-- Generated by graphviz version 2.43.0 (0)
 -->
<!-- Title: storages::postgres::io::BufferParser&lt; ::utils::StrongTypedef&lt; Tag, T, Ops, Enable &gt; &gt; Pages: 1 -->
<svg width="570pt" height="71pt"
 viewBox="0.00 0.00 570.00 71.00" xmlns="http://www.w3.org/2000/svg" xmlns:xlink="http://www.w3.org/1999/xlink">
<g id="graph0" class="graph" transform="scale(1 1) rotate(0) translate(4 67)">
<title>storages::postgres::io::BufferParser&lt; ::utils::StrongTypedef&lt; Tag, T, Ops, Enable &gt; &gt;</title>
<!-- Node1 -->
<g id="Node000001" class="node">
<title>Node1</title>
<g id="a_Node000001"><a xlink:title=" ">
<polygon fill="#999999" stroke="#666666" points="562,-57.5 419,-57.5 419,-5.5 562,-5.5 562,-57.5"/>
<text text-anchor="start" x="427" y="-45.5" font-family="Helvetica,sans-Serif" font-size="10.00">storages::postgres</text>
<text text-anchor="start" x="427" y="-34.5" font-family="Helvetica,sans-Serif" font-size="10.00">::io::BufferParser&lt;</text>
<text text-anchor="start" x="427" y="-23.5" font-family="Helvetica,sans-Serif" font-size="10.00"> ::utils::StrongTypedef</text>
<text text-anchor="middle" x="490.5" y="-12.5" font-family="Helvetica,sans-Serif" font-size="10.00">&lt; Tag, T, Ops, Enable &gt; &gt;</text>
</a>
</g>
</g>
<!-- Node2 -->
<g id="Node000002" class="node">
<title>Node2</title>
<g id="a_Node000002"><a xlink:title=" ">
<polygon fill="white" stroke="#bfbfbf" points="383,-63 167,-63 167,0 383,0 383,-63"/>
<text text-anchor="start" x="175" y="-51" font-family="Helvetica,sans-Serif" font-size="10.00">storages::postgres</text>
<text text-anchor="start" x="175" y="-40" font-family="Helvetica,sans-Serif" font-size="10.00">::io::detail::StrongTypedef</text>
<text text-anchor="start" x="175" y="-29" font-family="Helvetica,sans-Serif" font-size="10.00">Parser&lt; ::utils::StrongTypedef</text>
<text text-anchor="start" x="175" y="-18" font-family="Helvetica,sans-Serif" font-size="10.00">&lt; Tag, T, Ops, Enable &gt;, detail</text>
<text text-anchor="middle" x="275" y="-7" font-family="Helvetica,sans-Serif" font-size="10.00">::kParserRequiresTypeCategories&lt; T &gt; &gt;</text>
</a>
</g>
</g>
<!-- Node2&#45;&gt;Node1 -->
<g id="edge1_Node000001_Node000002" class="edge">
<title>Node2&#45;&gt;Node1</title>
<g id="a_edge1_Node000001_Node000002"><a xlink:title=" ">
<path fill="none" stroke="#63b8ff" d="M393.32,-31.5C402.03,-31.5 410.65,-31.5 418.93,-31.5"/>
<polygon fill="#63b8ff" stroke="#63b8ff" points="393.06,-28 383.06,-31.5 393.06,-35 393.06,-28"/>
</a>
</g>
</g>
<!-- Node3 -->
<g id="Node000003" class="node">
<title>Node3</title>
<g id="a_Node000003"><a xlink:title=" ">
<polygon fill="white" stroke="#bfbfbf" points="131,-52 0,-52 0,-11 131,-11 131,-52"/>
<text text-anchor="start" x="8" y="-40" font-family="Helvetica,sans-Serif" font-size="10.00">storages::postgres</text>
<text text-anchor="start" x="8" y="-29" font-family="Helvetica,sans-Serif" font-size="10.00">::io::detail::BufferParser</text>
<text text-anchor="middle" x="65.5" y="-18" font-family="Helvetica,sans-Serif" font-size="10.00">Base&lt; T &gt;</text>
</a>
</g>
</g>
<!-- Node3&#45;&gt;Node2 -->
<g id="edge2_Node000002_Node000003" class="edge">
<title>Node3&#45;&gt;Node2</title>
<g id="a_edge2_Node000002_Node000003"><a xlink:title=" ">
<path fill="none" stroke="#63b8ff" d="M141.09,-31.5C149.48,-31.5 158.14,-31.5 166.83,-31.5"/>
<polygon fill="#63b8ff" stroke="#63b8ff" points="141.02,-28 131.02,-31.5 141.02,-35 141.02,-28"/>
</a>
</g>
</g>
</g>
</svg>
