<?xml version="1.0" encoding="UTF-8" standalone="no"?>
<!DOCTYPE svg PUBLIC "-//W3C//DTD SVG 1.1//EN"
 "http://www.w3.org/Graphics/SVG/1.1/DTD/svg11.dtd">
<!-- Generated by graphviz version 2.43.0 (0)
 -->
<!-- Title: userver/tracing/span_builder.hpp Pages: 1 -->
<svg width="2195pt" height="478pt"
 viewBox="0.00 0.00 2195.21 478.00" xmlns="http://www.w3.org/2000/svg" xmlns:xlink="http://www.w3.org/1999/xlink">
<g id="graph0" class="graph" transform="scale(1 1) rotate(0) translate(4 474)">
<title>userver/tracing/span_builder.hpp</title>
<!-- Node1 -->
<g id="Node000001" class="node">
<title>Node1</title>
<g id="a_Node000001"><a xlink:title="Provides interface for editing Span, before final building.">
<polygon fill="#999999" stroke="#666666" points="933.55,-470 817.55,-470 817.55,-440 933.55,-440 933.55,-470"/>
<text text-anchor="start" x="825.55" y="-458" font-family="Helvetica,sans-Serif" font-size="10.00">userver/tracing/span</text>
<text text-anchor="middle" x="875.55" y="-447" font-family="Helvetica,sans-Serif" font-size="10.00">_builder.hpp</text>
</a>
</g>
</g>
<!-- Node2 -->
<g id="Node000002" class="node">
<title>Node2</title>
<g id="a_Node000002"><a xlink:title=" ">
<polygon fill="#e0e0e0" stroke="#999999" points="677.55,-145.5 633.55,-145.5 633.55,-126.5 677.55,-126.5 677.55,-145.5"/>
<text text-anchor="middle" x="655.55" y="-133.5" font-family="Helvetica,sans-Serif" font-size="10.00">string</text>
</a>
</g>
</g>
<!-- Node1&#45;&gt;Node2 -->
<g id="edge1_Node000001_Node000002" class="edge">
<title>Node1&#45;&gt;Node2</title>
<g id="a_edge1_Node000001_Node000002"><a xlink:title=" ">
<path fill="none" stroke="#63b8ff" d="M817.26,-445C723.49,-428.86 549.55,-391.33 549.55,-335 549.55,-335 549.55,-335 549.55,-267 549.55,-230.46 546.69,-216.29 568.55,-187 576.43,-176.43 605.41,-160.88 627.78,-149.93"/>
<polygon fill="#63b8ff" stroke="#63b8ff" points="629.39,-153.04 636.88,-145.55 626.35,-146.74 629.39,-153.04"/>
</a>
</g>
</g>
<!-- Node3 -->
<g id="Node000003" class="node">
<title>Node3</title>
<g id="a_Node000003"><a xlink:href="../../d2/d68/core_2include_2userver_2tracing_2span_8hpp.html" target="_top" xlink:title="Measures the execution time of the current code block, links it with the parent tracing::Spans and st...">
<polygon fill="white" stroke="#666666" points="944.05,-404 807.05,-404 807.05,-385 944.05,-385 944.05,-404"/>
<text text-anchor="middle" x="875.55" y="-392" font-family="Helvetica,sans-Serif" font-size="10.00">userver/tracing/span.hpp</text>
</a>
</g>
</g>
<!-- Node1&#45;&gt;Node3 -->
<g id="edge2_Node000001_Node000003" class="edge">
<title>Node1&#45;&gt;Node3</title>
<g id="a_edge2_Node000001_Node000003"><a xlink:title=" ">
<path fill="none" stroke="#63b8ff" d="M875.55,-439.84C875.55,-432.21 875.55,-422.7 875.55,-414.45"/>
<polygon fill="#63b8ff" stroke="#63b8ff" points="879.05,-414.27 875.55,-404.27 872.05,-414.27 879.05,-414.27"/>
</a>
</g>
</g>
<!-- Node32 -->
<g id="Node000032" class="node">
<title>Node32</title>
<g id="a_Node000032"><a xlink:href="../../df/dd4/source__location_8hpp_source.html" target="_top" xlink:title=" ">
<polygon fill="white" stroke="#666666" points="2112.05,-217 1995.05,-217 1995.05,-187 2112.05,-187 2112.05,-217"/>
<text text-anchor="start" x="2003.05" y="-205" font-family="Helvetica,sans-Serif" font-size="10.00">userver/utils/impl</text>
<text text-anchor="middle" x="2053.55" y="-194" font-family="Helvetica,sans-Serif" font-size="10.00">/source_location.hpp</text>
</a>
</g>
</g>
<!-- Node1&#45;&gt;Node32 -->
<g id="edge71_Node000001_Node000032" class="edge">
<title>Node1&#45;&gt;Node32</title>
<g id="a_edge71_Node000001_Node000032"><a xlink:title=" ">
<path fill="none" stroke="#63b8ff" d="M933.83,-453.96C1133.9,-452.98 1790.55,-442.56 1975.55,-349 2010.66,-331.24 2016.33,-317.88 2034.55,-283 2043.71,-265.46 2048.52,-243.45 2051,-226.97"/>
<polygon fill="#63b8ff" stroke="#63b8ff" points="2054.48,-227.4 2052.32,-217.03 2047.54,-226.48 2054.48,-227.4"/>
</a>
</g>
</g>
<!-- Node4 -->
<g id="Node000004" class="node">
<title>Node4</title>
<g id="a_Node000004"><a xlink:title=" ">
<polygon fill="#e0e0e0" stroke="#999999" points="1071.55,-145.5 1015.55,-145.5 1015.55,-126.5 1071.55,-126.5 1071.55,-145.5"/>
<text text-anchor="middle" x="1043.55" y="-133.5" font-family="Helvetica,sans-Serif" font-size="10.00">optional</text>
</a>
</g>
</g>
<!-- Node3&#45;&gt;Node4 -->
<g id="edge3_Node000003_Node000004" class="edge">
<title>Node3&#45;&gt;Node4</title>
<g id="a_edge3_Node000003_Node000004"><a xlink:title=" ">
<path fill="none" stroke="#63b8ff" d="M932.79,-384.99C955.97,-378.73 981.09,-367.86 997.55,-349 1046.78,-292.57 1047.28,-195.9 1045.05,-155.55"/>
<polygon fill="#63b8ff" stroke="#63b8ff" points="1048.54,-155.28 1044.37,-145.54 1041.56,-155.75 1048.54,-155.28"/>
</a>
</g>
</g>
<!-- Node5 -->
<g id="Node000005" class="node">
<title>Node5</title>
<g id="a_Node000005"><a xlink:title=" ">
<polygon fill="#e0e0e0" stroke="#999999" points="2020.05,-79.5 1947.05,-79.5 1947.05,-60.5 2020.05,-60.5 2020.05,-79.5"/>
<text text-anchor="middle" x="1983.55" y="-67.5" font-family="Helvetica,sans-Serif" font-size="10.00">string_view</text>
</a>
</g>
</g>
<!-- Node3&#45;&gt;Node5 -->
<g id="edge4_Node000003_Node000005" class="edge">
<title>Node3&#45;&gt;Node5</title>
<g id="a_edge4_Node000003_Node000005"><a xlink:title=" ">
<path fill="none" stroke="#63b8ff" d="M944.23,-392.62C1178.03,-388.72 1928.55,-368.46 1928.55,-269 1928.55,-269 1928.55,-269 1928.55,-201 1928.55,-164.46 1932.36,-154.24 1947.55,-121 1953.07,-108.91 1961.72,-96.77 1969.15,-87.49"/>
<polygon fill="#63b8ff" stroke="#63b8ff" points="1972.05,-89.47 1975.76,-79.55 1966.67,-84.99 1972.05,-89.47"/>
</a>
</g>
</g>
<!-- Node6 -->
<g id="Node000006" class="node">
<title>Node6</title>
<g id="a_Node000006"><a xlink:href="../../dd/de6/universal_2include_2userver_2logging_2log_8hpp.html" target="_top" xlink:title="Logging helpers.">
<polygon fill="white" stroke="#666666" points="988.05,-343.5 857.05,-343.5 857.05,-324.5 988.05,-324.5 988.05,-343.5"/>
<text text-anchor="middle" x="922.55" y="-331.5" font-family="Helvetica,sans-Serif" font-size="10.00">userver/logging/log.hpp</text>
</a>
</g>
</g>
<!-- Node3&#45;&gt;Node6 -->
<g id="edge5_Node000003_Node000006" class="edge">
<title>Node3&#45;&gt;Node6</title>
<g id="a_edge5_Node000003_Node000006"><a xlink:title=" ">
<path fill="none" stroke="#63b8ff" d="M882.48,-384.87C889.49,-376.14 900.51,-362.43 909.21,-351.59"/>
<polygon fill="#63b8ff" stroke="#63b8ff" points="912.05,-353.66 915.58,-343.67 906.59,-349.27 912.05,-353.66"/>
</a>
</g>
</g>
<!-- Node25 -->
<g id="Node000025" class="node">
<title>Node25</title>
<g id="a_Node000025"><a xlink:href="../../d6/def/log__extra_8hpp.html" target="_top" xlink:title="Extra tskv fields storage.">
<polygon fill="white" stroke="#666666" points="483.55,-217 373.55,-217 373.55,-187 483.55,-187 483.55,-217"/>
<text text-anchor="start" x="381.55" y="-205" font-family="Helvetica,sans-Serif" font-size="10.00">userver/logging/log</text>
<text text-anchor="middle" x="428.55" y="-194" font-family="Helvetica,sans-Serif" font-size="10.00">_extra.hpp</text>
</a>
</g>
</g>
<!-- Node3&#45;&gt;Node25 -->
<g id="edge61_Node000003_Node000025" class="edge">
<title>Node3&#45;&gt;Node25</title>
<g id="a_edge61_Node000003_Node000025"><a xlink:title=" ">
<path fill="none" stroke="#63b8ff" d="M806.84,-388.65C757.58,-383.31 690.51,-372.16 635.55,-349 561.32,-317.72 487.35,-256.47 451.26,-224.14"/>
<polygon fill="#63b8ff" stroke="#63b8ff" points="453.5,-221.45 443.74,-217.33 448.8,-226.64 453.5,-221.45"/>
</a>
</g>
</g>
<!-- Node3&#45;&gt;Node32 -->
<g id="edge69_Node000003_Node000032" class="edge">
<title>Node3&#45;&gt;Node32</title>
<g id="a_edge69_Node000003_Node000032"><a xlink:title=" ">
<path fill="none" stroke="#63b8ff" d="M944.4,-394C1166.48,-395.16 1854.52,-394.97 1942.55,-349 1993.67,-322.31 2028.01,-260.3 2043.73,-226.31"/>
<polygon fill="#63b8ff" stroke="#63b8ff" points="2046.95,-227.69 2047.84,-217.13 2040.56,-224.83 2046.95,-227.69"/>
</a>
</g>
</g>
<!-- Node36 -->
<g id="Node000036" class="node">
<title>Node36</title>
<g id="a_Node000036"><a xlink:href="../../d4/d54/scope__time_8hpp.html" target="_top" xlink:title="Type to measure execution time of a scope.">
<polygon fill="white" stroke="#666666" points="699.55,-283 577.55,-283 577.55,-253 699.55,-253 699.55,-283"/>
<text text-anchor="start" x="585.55" y="-271" font-family="Helvetica,sans-Serif" font-size="10.00">userver/tracing/scope</text>
<text text-anchor="middle" x="638.55" y="-260" font-family="Helvetica,sans-Serif" font-size="10.00">_time.hpp</text>
</a>
</g>
</g>
<!-- Node3&#45;&gt;Node36 -->
<g id="edge62_Node000003_Node000036" class="edge">
<title>Node3&#45;&gt;Node36</title>
<g id="a_edge62_Node000003_Node000036"><a xlink:title=" ">
<path fill="none" stroke="#63b8ff" d="M863.7,-385C836.56,-365.52 772.16,-319.33 771.55,-319 747.15,-305.97 718.61,-294.76 694.24,-286.28"/>
<polygon fill="#63b8ff" stroke="#63b8ff" points="695.37,-282.97 684.77,-283.05 693.11,-289.59 695.37,-282.97"/>
</a>
</g>
</g>
<!-- Node38 -->
<g id="Node000038" class="node">
<title>Node38</title>
<g id="a_Node000038"><a xlink:href="../../dc/d90/tracer__fwd_8hpp_source.html" target="_top" xlink:title=" ">
<polygon fill="white" stroke="#666666" points="839.55,-283 717.55,-283 717.55,-253 839.55,-253 839.55,-283"/>
<text text-anchor="start" x="725.55" y="-271" font-family="Helvetica,sans-Serif" font-size="10.00">userver/tracing/tracer</text>
<text text-anchor="middle" x="778.55" y="-260" font-family="Helvetica,sans-Serif" font-size="10.00">_fwd.hpp</text>
</a>
</g>
</g>
<!-- Node3&#45;&gt;Node38 -->
<g id="edge67_Node000003_Node000038" class="edge">
<title>Node3&#45;&gt;Node38</title>
<g id="a_edge67_Node000003_Node000038"><a xlink:title=" ">
<path fill="none" stroke="#63b8ff" d="M868.88,-384.94C853.98,-365.82 817.6,-319.13 795.83,-291.18"/>
<polygon fill="#63b8ff" stroke="#63b8ff" points="798.49,-288.9 789.58,-283.16 792.96,-293.2 798.49,-288.9"/>
</a>
</g>
</g>
<!-- Node39 -->
<g id="Node000039" class="node">
<title>Node39</title>
<g id="a_Node000039"><a xlink:href="../../d7/d2e/core_2include_2userver_2utils_2internal__tag__fwd_8hpp.html" target="_top" xlink:title=" ">
<polygon fill="white" stroke="#666666" points="762.55,-349 644.55,-349 644.55,-319 762.55,-319 762.55,-349"/>
<text text-anchor="start" x="652.55" y="-337" font-family="Helvetica,sans-Serif" font-size="10.00">userver/utils/internal</text>
<text text-anchor="middle" x="703.55" y="-326" font-family="Helvetica,sans-Serif" font-size="10.00">_tag_fwd.hpp</text>
</a>
</g>
</g>
<!-- Node3&#45;&gt;Node39 -->
<g id="edge70_Node000003_Node000039" class="edge">
<title>Node3&#45;&gt;Node39</title>
<g id="a_edge70_Node000003_Node000039"><a xlink:title=" ">
<path fill="none" stroke="#63b8ff" d="M850.54,-384.99C825.46,-376.46 786.12,-363.09 754.46,-352.32"/>
<polygon fill="#63b8ff" stroke="#63b8ff" points="755.49,-348.97 744.9,-349.06 753.24,-355.6 755.49,-348.97"/>
</a>
</g>
</g>
<!-- Node7 -->
<g id="Node000007" class="node">
<title>Node7</title>
<g id="a_Node000007"><a xlink:title=" ">
<polygon fill="#e0e0e0" stroke="#999999" points="771.55,-211.5 721.55,-211.5 721.55,-192.5 771.55,-192.5 771.55,-211.5"/>
<text text-anchor="middle" x="746.55" y="-199.5" font-family="Helvetica,sans-Serif" font-size="10.00">chrono</text>
</a>
</g>
</g>
<!-- Node6&#45;&gt;Node7 -->
<g id="edge6_Node000006_Node000007" class="edge">
<title>Node6&#45;&gt;Node7</title>
<g id="a_edge6_Node000006_Node000007"><a xlink:title=" ">
<path fill="none" stroke="#63b8ff" d="M916.26,-324.32C904.46,-308.49 877.53,-274.58 848.55,-253 827.24,-237.14 800.13,-224.13 779.21,-215.36"/>
<polygon fill="#63b8ff" stroke="#63b8ff" points="780.36,-212.05 769.78,-211.52 777.72,-218.53 780.36,-212.05"/>
</a>
</g>
</g>
<!-- Node8 -->
<g id="Node000008" class="node">
<title>Node8</title>
<g id="a_Node000008"><a xlink:href="../../d2/d84/select_8hpp.html" target="_top" xlink:title="Utilities for selection of platform specific values.">
<polygon fill="white" stroke="#666666" points="615.55,-145.5 463.55,-145.5 463.55,-126.5 615.55,-126.5 615.55,-145.5"/>
<text text-anchor="middle" x="539.55" y="-133.5" font-family="Helvetica,sans-Serif" font-size="10.00">userver/compiler/select.hpp</text>
</a>
</g>
</g>
<!-- Node6&#45;&gt;Node8 -->
<g id="edge7_Node000006_Node000008" class="edge">
<title>Node6&#45;&gt;Node8</title>
<g id="a_edge7_Node000006_Node000008"><a xlink:title=" ">
<path fill="none" stroke="#63b8ff" d="M856.75,-325.69C757.26,-314.35 578.92,-292.81 568.55,-283 533.43,-249.79 534.15,-187.18 537.08,-155.85"/>
<polygon fill="#63b8ff" stroke="#63b8ff" points="540.57,-156.16 538.2,-145.84 533.61,-155.39 540.57,-156.16"/>
</a>
</g>
</g>
<!-- Node10 -->
<g id="Node000010" class="node">
<title>Node10</title>
<g id="a_Node000010"><a xlink:href="../../db/dfb/universal_2include_2userver_2logging_2fwd_8hpp.html" target="_top" xlink:title="Forward declarations for logging types.">
<polygon fill="white" stroke="#666666" points="867.55,-145.5 733.55,-145.5 733.55,-126.5 867.55,-126.5 867.55,-145.5"/>
<text text-anchor="middle" x="800.55" y="-133.5" font-family="Helvetica,sans-Serif" font-size="10.00">userver/logging/fwd.hpp</text>
</a>
</g>
</g>
<!-- Node6&#45;&gt;Node10 -->
<g id="edge9_Node000006_Node000010" class="edge">
<title>Node6&#45;&gt;Node10</title>
<g id="a_edge9_Node000006_Node000010"><a xlink:title=" ">
<path fill="none" stroke="#63b8ff" d="M919.4,-324.38C913.33,-308.65 898.68,-274.9 877.55,-253 856.21,-230.9 836.45,-241.96 818.55,-217 805.55,-198.87 801.72,-172.97 800.7,-155.6"/>
<polygon fill="#63b8ff" stroke="#63b8ff" points="804.2,-155.46 800.37,-145.58 797.2,-155.69 804.2,-155.46"/>
</a>
</g>
</g>
<!-- Node12 -->
<g id="Node000012" class="node">
<title>Node12</title>
<g id="a_Node000012"><a xlink:href="../../d5/d37/level_8hpp.html" target="_top" xlink:title="Log levels.">
<polygon fill="white" stroke="#666666" points="967.55,-211.5 827.55,-211.5 827.55,-192.5 967.55,-192.5 967.55,-211.5"/>
<text text-anchor="middle" x="897.55" y="-199.5" font-family="Helvetica,sans-Serif" font-size="10.00">userver/logging/level.hpp</text>
</a>
</g>
</g>
<!-- Node6&#45;&gt;Node12 -->
<g id="edge11_Node000006_Node000012" class="edge">
<title>Node6&#45;&gt;Node12</title>
<g id="a_edge11_Node000006_Node000012"><a xlink:title=" ">
<path fill="none" stroke="#63b8ff" d="M923.26,-324.46C924.27,-309.67 925.4,-278.47 919.55,-253 916.96,-241.73 911.84,-229.86 907.2,-220.51"/>
<polygon fill="#63b8ff" stroke="#63b8ff" points="910.22,-218.74 902.48,-211.51 904.02,-221.99 910.22,-218.74"/>
</a>
</g>
</g>
<!-- Node13 -->
<g id="Node000013" class="node">
<title>Node13</title>
<g id="a_Node000013"><a xlink:href="../../d4/dc3/log__filepath_8hpp.html" target="_top" xlink:title="Short source path calculator.">
<polygon fill="white" stroke="#666666" points="2066.55,-151 1956.55,-151 1956.55,-121 2066.55,-121 2066.55,-151"/>
<text text-anchor="start" x="1964.55" y="-139" font-family="Helvetica,sans-Serif" font-size="10.00">userver/logging/log</text>
<text text-anchor="middle" x="2011.55" y="-128" font-family="Helvetica,sans-Serif" font-size="10.00">_filepath.hpp</text>
</a>
</g>
</g>
<!-- Node6&#45;&gt;Node13 -->
<g id="edge14_Node000006_Node000013" class="edge">
<title>Node6&#45;&gt;Node13</title>
<g id="a_edge14_Node000006_Node000013"><a xlink:title=" ">
<path fill="none" stroke="#63b8ff" d="M988.34,-329.68C1180.28,-319.28 1736.64,-284.02 1904.55,-217 1938.02,-203.64 1970.27,-177.03 1990.46,-158.17"/>
<polygon fill="#63b8ff" stroke="#63b8ff" points="1993.03,-160.56 1997.84,-151.12 1988.19,-155.5 1993.03,-160.56"/>
</a>
</g>
</g>
<!-- Node14 -->
<g id="Node000014" class="node">
<title>Node14</title>
<g id="a_Node000014"><a xlink:href="../../db/d94/log__helper_8hpp.html" target="_top" xlink:title=" ">
<polygon fill="white" stroke="#666666" points="1237.55,-283 1127.55,-283 1127.55,-253 1237.55,-253 1237.55,-283"/>
<text text-anchor="start" x="1135.55" y="-271" font-family="Helvetica,sans-Serif" font-size="10.00">userver/logging/log</text>
<text text-anchor="middle" x="1182.55" y="-260" font-family="Helvetica,sans-Serif" font-size="10.00">_helper.hpp</text>
</a>
</g>
</g>
<!-- Node6&#45;&gt;Node14 -->
<g id="edge16_Node000006_Node000014" class="edge">
<title>Node6&#45;&gt;Node14</title>
<g id="a_edge16_Node000006_Node000014"><a xlink:title=" ">
<path fill="none" stroke="#63b8ff" d="M957.34,-324.44C998.2,-314.38 1066.85,-297.48 1117.63,-284.98"/>
<polygon fill="#63b8ff" stroke="#63b8ff" points="1118.67,-288.33 1127.54,-282.54 1116.99,-281.53 1118.67,-288.33"/>
</a>
</g>
</g>
<!-- Node9 -->
<g id="Node000009" class="node">
<title>Node9</title>
<g id="a_Node000009"><a xlink:title=" ">
<polygon fill="#e0e0e0" stroke="#999999" points="511.05,-79.5 458.05,-79.5 458.05,-60.5 511.05,-60.5 511.05,-79.5"/>
<text text-anchor="middle" x="484.55" y="-67.5" font-family="Helvetica,sans-Serif" font-size="10.00">cstddef</text>
</a>
</g>
</g>
<!-- Node8&#45;&gt;Node9 -->
<g id="edge8_Node000008_Node000009" class="edge">
<title>Node8&#45;&gt;Node9</title>
<g id="a_edge8_Node000008_Node000009"><a xlink:title=" ">
<path fill="none" stroke="#63b8ff" d="M532.13,-126.37C523.65,-116.5 509.56,-100.11 498.91,-87.72"/>
<polygon fill="#63b8ff" stroke="#63b8ff" points="501.37,-85.21 492.2,-79.91 496.06,-89.77 501.37,-85.21"/>
</a>
</g>
</g>
<!-- Node11 -->
<g id="Node000011" class="node">
<title>Node11</title>
<g id="a_Node000011"><a xlink:title=" ">
<polygon fill="#e0e0e0" stroke="#999999" points="829.55,-79.5 771.55,-79.5 771.55,-60.5 829.55,-60.5 829.55,-79.5"/>
<text text-anchor="middle" x="800.55" y="-67.5" font-family="Helvetica,sans-Serif" font-size="10.00">memory</text>
</a>
</g>
</g>
<!-- Node10&#45;&gt;Node11 -->
<g id="edge10_Node000010_Node000011" class="edge">
<title>Node10&#45;&gt;Node11</title>
<g id="a_edge10_Node000010_Node000011"><a xlink:title=" ">
<path fill="none" stroke="#63b8ff" d="M800.55,-126.37C800.55,-117.16 800.55,-102.29 800.55,-90.27"/>
<polygon fill="#63b8ff" stroke="#63b8ff" points="804.05,-89.91 800.55,-79.91 797.05,-89.91 804.05,-89.91"/>
</a>
</g>
</g>
<!-- Node12&#45;&gt;Node2 -->
<g id="edge13_Node000012_Node000002" class="edge">
<title>Node12&#45;&gt;Node2</title>
<g id="a_edge13_Node000012_Node000002"><a xlink:title=" ">
<path fill="none" stroke="#63b8ff" d="M865.16,-192.44C818.7,-180.15 733.66,-157.66 687.46,-145.44"/>
<polygon fill="#63b8ff" stroke="#63b8ff" points="688.24,-142.03 677.68,-142.85 686.45,-148.79 688.24,-142.03"/>
</a>
</g>
</g>
<!-- Node12&#45;&gt;Node4 -->
<g id="edge12_Node000012_Node000004" class="edge">
<title>Node12&#45;&gt;Node4</title>
<g id="a_edge12_Node000012_Node000004"><a xlink:title=" ">
<path fill="none" stroke="#63b8ff" d="M917.24,-192.37C942.27,-181.39 985.7,-162.36 1014.53,-149.72"/>
<polygon fill="#63b8ff" stroke="#63b8ff" points="1015.95,-152.92 1023.7,-145.7 1013.14,-146.51 1015.95,-152.92"/>
</a>
</g>
</g>
<!-- Node13&#45;&gt;Node5 -->
<g id="edge15_Node000013_Node000005" class="edge">
<title>Node13&#45;&gt;Node5</title>
<g id="a_edge15_Node000013_Node000005"><a xlink:title=" ">
<path fill="none" stroke="#63b8ff" d="M2005.33,-120.8C2001.27,-111.5 1995.92,-99.27 1991.53,-89.26"/>
<polygon fill="#63b8ff" stroke="#63b8ff" points="1994.63,-87.6 1987.41,-79.84 1988.22,-90.41 1994.63,-87.6"/>
</a>
</g>
</g>
<!-- Node14&#45;&gt;Node4 -->
<g id="edge22_Node000014_Node000004" class="edge">
<title>Node14&#45;&gt;Node4</title>
<g id="a_edge22_Node000014_Node000004"><a xlink:title=" ">
<path fill="none" stroke="#63b8ff" d="M1149.94,-252.88C1132.47,-244.24 1111.36,-231.97 1095.55,-217 1076.34,-198.82 1060.86,-172.2 1051.94,-154.74"/>
<polygon fill="#63b8ff" stroke="#63b8ff" points="1055.02,-153.07 1047.46,-145.65 1048.74,-156.16 1055.02,-153.07"/>
</a>
</g>
</g>
<!-- Node14&#45;&gt;Node5 -->
<g id="edge23_Node000014_Node000005" class="edge">
<title>Node14&#45;&gt;Node5</title>
<g id="a_edge23_Node000014_Node000005"><a xlink:title=" ">
<path fill="none" stroke="#63b8ff" d="M1237.75,-265.91C1320.92,-263.09 1472.75,-253.01 1511.55,-217 1543.63,-187.22 1500.87,-150.13 1533.55,-121 1563.25,-94.52 1827.45,-78.65 1936.64,-73.17"/>
<polygon fill="#63b8ff" stroke="#63b8ff" points="1936.9,-76.66 1946.71,-72.67 1936.55,-69.67 1936.9,-76.66"/>
</a>
</g>
</g>
<!-- Node14&#45;&gt;Node7 -->
<g id="edge17_Node000014_Node000007" class="edge">
<title>Node14&#45;&gt;Node7</title>
<g id="a_edge17_Node000014_Node000007"><a xlink:title=" ">
<path fill="none" stroke="#63b8ff" d="M1127.52,-260.41C1056.11,-251.63 927.73,-235.1 818.55,-217 806.5,-215 793.37,-212.54 781.67,-210.23"/>
<polygon fill="#63b8ff" stroke="#63b8ff" points="782.3,-206.79 771.81,-208.27 780.93,-213.66 782.3,-206.79"/>
</a>
</g>
</g>
<!-- Node14&#45;&gt;Node10 -->
<g id="edge34_Node000014_Node000010" class="edge">
<title>Node14&#45;&gt;Node10</title>
<g id="a_edge34_Node000014_Node000010"><a xlink:title=" ">
<path fill="none" stroke="#63b8ff" d="M1149,-252.85C1108.52,-236.05 1038.2,-207.68 976.55,-187 932,-172.06 880.18,-157.69 844.36,-148.23"/>
<polygon fill="#63b8ff" stroke="#63b8ff" points="844.81,-144.72 834.24,-145.57 843.03,-151.49 844.81,-144.72"/>
</a>
</g>
</g>
<!-- Node14&#45;&gt;Node11 -->
<g id="edge21_Node000014_Node000011" class="edge">
<title>Node14&#45;&gt;Node11</title>
<g id="a_edge21_Node000014_Node000011"><a xlink:title=" ">
<path fill="none" stroke="#63b8ff" d="M1177.15,-252.99C1164.94,-223.28 1132.13,-153.98 1080.55,-121 1041.25,-95.88 907.5,-80.61 840.08,-74.33"/>
<polygon fill="#63b8ff" stroke="#63b8ff" points="840.13,-70.82 829.85,-73.4 839.49,-77.79 840.13,-70.82"/>
</a>
</g>
</g>
<!-- Node14&#45;&gt;Node12 -->
<g id="edge35_Node000014_Node000012" class="edge">
<title>Node14&#45;&gt;Node12</title>
<g id="a_edge35_Node000014_Node000012"><a xlink:title=" ">
<path fill="none" stroke="#63b8ff" d="M1127.26,-254.58C1074.56,-242.75 996,-225.11 945.77,-213.83"/>
<polygon fill="#63b8ff" stroke="#63b8ff" points="946.34,-210.37 935.81,-211.59 944.8,-217.2 946.34,-210.37"/>
</a>
</g>
</g>
<!-- Node15 -->
<g id="Node000015" class="node">
<title>Node15</title>
<g id="a_Node000015"><a xlink:title=" ">
<polygon fill="#e0e0e0" stroke="#999999" points="1485.05,-211.5 1420.05,-211.5 1420.05,-192.5 1485.05,-192.5 1485.05,-211.5"/>
<text text-anchor="middle" x="1452.55" y="-199.5" font-family="Helvetica,sans-Serif" font-size="10.00">exception</text>
</a>
</g>
</g>
<!-- Node14&#45;&gt;Node15 -->
<g id="edge18_Node000014_Node000015" class="edge">
<title>Node14&#45;&gt;Node15</title>
<g id="a_edge18_Node000014_Node000015"><a xlink:title=" ">
<path fill="none" stroke="#63b8ff" d="M1237.58,-256.82C1284.23,-247.75 1352.75,-233.4 1411.55,-217 1414.02,-216.31 1416.56,-215.56 1419.11,-214.77"/>
<polygon fill="#63b8ff" stroke="#63b8ff" points="1420.41,-218.02 1428.84,-211.61 1418.25,-211.37 1420.41,-218.02"/>
</a>
</g>
</g>
<!-- Node16 -->
<g id="Node000016" class="node">
<title>Node16</title>
<g id="a_Node000016"><a xlink:title=" ">
<polygon fill="#e0e0e0" stroke="#999999" points="1361.55,-145.5 1313.55,-145.5 1313.55,-126.5 1361.55,-126.5 1361.55,-145.5"/>
<text text-anchor="middle" x="1337.55" y="-133.5" font-family="Helvetica,sans-Serif" font-size="10.00">iosfwd</text>
</a>
</g>
</g>
<!-- Node14&#45;&gt;Node16 -->
<g id="edge19_Node000014_Node000016" class="edge">
<title>Node14&#45;&gt;Node16</title>
<g id="a_edge19_Node000014_Node000016"><a xlink:title=" ">
<path fill="none" stroke="#63b8ff" d="M1237.57,-266.4C1318.13,-264.23 1462.16,-254.99 1494.55,-217 1503.2,-206.85 1502.55,-197.66 1494.55,-187 1460.09,-141.11 1424.61,-170.24 1370.55,-151 1369.12,-150.49 1367.66,-149.95 1366.2,-149.39"/>
<polygon fill="#63b8ff" stroke="#63b8ff" points="1367.17,-146.02 1356.59,-145.53 1364.56,-152.51 1367.17,-146.02"/>
</a>
</g>
</g>
<!-- Node17 -->
<g id="Node000017" class="node">
<title>Node17</title>
<g id="a_Node000017"><a xlink:title=" ">
<polygon fill="#e0e0e0" stroke="#999999" points="1191.05,-145.5 1138.05,-145.5 1138.05,-126.5 1191.05,-126.5 1191.05,-145.5"/>
<text text-anchor="middle" x="1164.55" y="-133.5" font-family="Helvetica,sans-Serif" font-size="10.00">iterator</text>
</a>
</g>
</g>
<!-- Node14&#45;&gt;Node17 -->
<g id="edge20_Node000014_Node000017" class="edge">
<title>Node14&#45;&gt;Node17</title>
<g id="a_edge20_Node000014_Node000017"><a xlink:title=" ">
<path fill="none" stroke="#63b8ff" d="M1177.23,-252.79C1173.79,-242.9 1169.59,-229.34 1167.55,-217 1164.14,-196.48 1163.69,-172.61 1163.91,-156.32"/>
<polygon fill="#63b8ff" stroke="#63b8ff" points="1167.41,-156.03 1164.15,-145.95 1160.41,-155.87 1167.41,-156.03"/>
</a>
</g>
</g>
<!-- Node18 -->
<g id="Node000018" class="node">
<title>Node18</title>
<g id="a_Node000018"><a xlink:title=" ">
<polygon fill="#e0e0e0" stroke="#999999" points="1257.05,-211.5 1176.05,-211.5 1176.05,-192.5 1257.05,-192.5 1257.05,-211.5"/>
<text text-anchor="middle" x="1216.55" y="-199.5" font-family="Helvetica,sans-Serif" font-size="10.00">system_error</text>
</a>
</g>
</g>
<!-- Node14&#45;&gt;Node18 -->
<g id="edge24_Node000014_Node000018" class="edge">
<title>Node14&#45;&gt;Node18</title>
<g id="a_edge24_Node000014_Node000018"><a xlink:title=" ">
<path fill="none" stroke="#63b8ff" d="M1190.09,-252.8C1195.08,-243.41 1201.66,-231.02 1207.01,-220.95"/>
<polygon fill="#63b8ff" stroke="#63b8ff" points="1210.25,-222.32 1211.85,-211.84 1204.06,-219.03 1210.25,-222.32"/>
</a>
</g>
</g>
<!-- Node19 -->
<g id="Node000019" class="node">
<title>Node19</title>
<g id="a_Node000019"><a xlink:title=" ">
<polygon fill="#e0e0e0" stroke="#999999" points="1546.05,-19 1477.05,-19 1477.05,0 1546.05,0 1546.05,-19"/>
<text text-anchor="middle" x="1511.55" y="-7" font-family="Helvetica,sans-Serif" font-size="10.00">type_traits</text>
</a>
</g>
</g>
<!-- Node14&#45;&gt;Node19 -->
<g id="edge25_Node000014_Node000019" class="edge">
<title>Node14&#45;&gt;Node19</title>
<g id="a_edge25_Node000014_Node000019"><a xlink:title=" ">
<path fill="none" stroke="#63b8ff" d="M1237.58,-267.39C1386.06,-267.01 1787.87,-256.16 1850.55,-151 1916.99,-39.51 1663.02,-16.49 1556.5,-11.74"/>
<polygon fill="#63b8ff" stroke="#63b8ff" points="1556.51,-8.23 1546.37,-11.32 1556.22,-15.23 1556.51,-8.23"/>
</a>
</g>
</g>
<!-- Node20 -->
<g id="Node000020" class="node">
<title>Node20</title>
<g id="a_Node000020"><a xlink:href="../../da/d00/universal_2include_2userver_2formats_2common_2meta_8hpp.html" target="_top" xlink:title="Metaprogramming helpers for converters detection.">
<polygon fill="white" stroke="#666666" points="1719.55,-217 1579.55,-217 1579.55,-187 1719.55,-187 1719.55,-217"/>
<text text-anchor="start" x="1587.55" y="-205" font-family="Helvetica,sans-Serif" font-size="10.00">userver/formats/common</text>
<text text-anchor="middle" x="1649.55" y="-194" font-family="Helvetica,sans-Serif" font-size="10.00">/meta.hpp</text>
</a>
</g>
</g>
<!-- Node14&#45;&gt;Node20 -->
<g id="edge26_Node000014_Node000020" class="edge">
<title>Node14&#45;&gt;Node20</title>
<g id="a_edge26_Node000014_Node000020"><a xlink:title=" ">
<path fill="none" stroke="#63b8ff" d="M1237.81,-260.41C1312.34,-251.37 1449.14,-234.29 1565.55,-217 1566.82,-216.81 1568.11,-216.62 1569.4,-216.42"/>
<polygon fill="#63b8ff" stroke="#63b8ff" points="1570.1,-219.86 1579.45,-214.87 1569.03,-212.94 1570.1,-219.86"/>
</a>
</g>
</g>
<!-- Node14&#45;&gt;Node25 -->
<g id="edge36_Node000014_Node000025" class="edge">
<title>Node14&#45;&gt;Node25</title>
<g id="a_edge36_Node000014_Node000025"><a xlink:title=" ">
<path fill="none" stroke="#63b8ff" d="M1127.48,-262.86C1019.97,-254.69 774.65,-235.7 568.55,-217 544.18,-214.79 517.44,-212.17 493.92,-209.79"/>
<polygon fill="#63b8ff" stroke="#63b8ff" points="494.01,-206.28 483.71,-208.75 493.31,-213.25 494.01,-206.28"/>
</a>
</g>
</g>
<!-- Node14&#45;&gt;Node32 -->
<g id="edge49_Node000014_Node000032" class="edge">
<title>Node14&#45;&gt;Node32</title>
<g id="a_edge49_Node000014_Node000032"><a xlink:title=" ">
<path fill="none" stroke="#63b8ff" d="M1237.83,-263.64C1358.79,-256.17 1655.96,-237.28 1904.55,-217 1930.72,-214.86 1959.45,-212.23 1984.64,-209.83"/>
<polygon fill="#63b8ff" stroke="#63b8ff" points="1985.22,-213.29 1994.84,-208.85 1984.55,-206.32 1985.22,-213.29"/>
</a>
</g>
</g>
<!-- Node34 -->
<g id="Node000034" class="node">
<title>Node34</title>
<g id="a_Node000034"><a xlink:href="../../d0/d03/universal_2include_2userver_2utils_2meta_8hpp.html" target="_top" xlink:title="Metaprogramming, template variables and concepts.">
<polygon fill="white" stroke="#666666" points="1402.05,-211.5 1275.05,-211.5 1275.05,-192.5 1402.05,-192.5 1402.05,-211.5"/>
<text text-anchor="middle" x="1338.55" y="-199.5" font-family="Helvetica,sans-Serif" font-size="10.00">userver/utils/meta.hpp</text>
</a>
</g>
</g>
<!-- Node14&#45;&gt;Node34 -->
<g id="edge54_Node000014_Node000034" class="edge">
<title>Node14&#45;&gt;Node34</title>
<g id="a_edge54_Node000014_Node000034"><a xlink:title=" ">
<path fill="none" stroke="#63b8ff" d="M1216.78,-252.95C1244.14,-241.73 1282.12,-226.15 1308.35,-215.39"/>
<polygon fill="#63b8ff" stroke="#63b8ff" points="1309.86,-218.55 1317.78,-211.52 1307.2,-212.07 1309.86,-218.55"/>
</a>
</g>
</g>
<!-- Node20&#45;&gt;Node19 -->
<g id="edge27_Node000020_Node000019" class="edge">
<title>Node20&#45;&gt;Node19</title>
<g id="a_edge27_Node000020_Node000019"><a xlink:title=" ">
<path fill="none" stroke="#63b8ff" d="M1719.62,-195.06C1784.45,-186.64 1866.24,-166.78 1833.55,-121 1769.71,-31.6 1628.84,-13.77 1556.44,-10.71"/>
<polygon fill="#63b8ff" stroke="#63b8ff" points="1556.39,-7.2 1546.27,-10.36 1556.15,-14.2 1556.39,-7.2"/>
</a>
</g>
</g>
<!-- Node21 -->
<g id="Node000021" class="node">
<title>Node21</title>
<g id="a_Node000021"><a xlink:href="../../d2/dc8/universal_2include_2userver_2formats_2parse_2to_8hpp.html" target="_top" xlink:title="Helper for parsers.">
<polygon fill="white" stroke="#666666" points="1667.05,-151 1542.05,-151 1542.05,-121 1667.05,-121 1667.05,-151"/>
<text text-anchor="start" x="1550.05" y="-139" font-family="Helvetica,sans-Serif" font-size="10.00">userver/formats/parse</text>
<text text-anchor="middle" x="1604.55" y="-128" font-family="Helvetica,sans-Serif" font-size="10.00">/to.hpp</text>
</a>
</g>
</g>
<!-- Node20&#45;&gt;Node21 -->
<g id="edge28_Node000020_Node000021" class="edge">
<title>Node20&#45;&gt;Node21</title>
<g id="a_edge28_Node000020_Node000021"><a xlink:title=" ">
<path fill="none" stroke="#63b8ff" d="M1639.56,-186.8C1633.91,-178.76 1626.71,-168.53 1620.32,-159.43"/>
<polygon fill="#63b8ff" stroke="#63b8ff" points="1623.12,-157.33 1614.5,-151.16 1617.39,-161.36 1623.12,-157.33"/>
</a>
</g>
</g>
<!-- Node22 -->
<g id="Node000022" class="node">
<title>Node22</title>
<g id="a_Node000022"><a xlink:href="../../d6/d8e/universal_2include_2userver_2formats_2serialize_2to_8hpp.html" target="_top" xlink:title="Helper for serializers.">
<polygon fill="white" stroke="#666666" points="1824.05,-151 1685.05,-151 1685.05,-121 1824.05,-121 1824.05,-151"/>
<text text-anchor="start" x="1693.05" y="-139" font-family="Helvetica,sans-Serif" font-size="10.00">userver/formats/serialize</text>
<text text-anchor="middle" x="1754.55" y="-128" font-family="Helvetica,sans-Serif" font-size="10.00">/to.hpp</text>
</a>
</g>
</g>
<!-- Node20&#45;&gt;Node22 -->
<g id="edge29_Node000020_Node000022" class="edge">
<title>Node20&#45;&gt;Node22</title>
<g id="a_edge29_Node000020_Node000022"><a xlink:title=" ">
<path fill="none" stroke="#63b8ff" d="M1672.59,-186.95C1687.36,-177.95 1706.73,-166.14 1722.93,-156.27"/>
<polygon fill="#63b8ff" stroke="#63b8ff" points="1724.84,-159.21 1731.56,-151.01 1721.2,-153.23 1724.84,-159.21"/>
</a>
</g>
</g>
<!-- Node23 -->
<g id="Node000023" class="node">
<title>Node23</title>
<g id="a_Node000023"><a xlink:href="../../d3/da0/meta__light_8hpp.html" target="_top" xlink:title="Lightweight concepts.">
<polygon fill="white" stroke="#666666" points="1485.55,-151 1379.55,-151 1379.55,-121 1485.55,-121 1485.55,-151"/>
<text text-anchor="start" x="1387.55" y="-139" font-family="Helvetica,sans-Serif" font-size="10.00">userver/utils/meta</text>
<text text-anchor="middle" x="1432.55" y="-128" font-family="Helvetica,sans-Serif" font-size="10.00">_light.hpp</text>
</a>
</g>
</g>
<!-- Node20&#45;&gt;Node23 -->
<g id="edge30_Node000020_Node000023" class="edge">
<title>Node20&#45;&gt;Node23</title>
<g id="a_edge30_Node000020_Node000023"><a xlink:title=" ">
<path fill="none" stroke="#63b8ff" d="M1601.92,-186.95C1568.85,-177.2 1524.62,-164.16 1489.66,-153.84"/>
<polygon fill="#63b8ff" stroke="#63b8ff" points="1490.64,-150.48 1480.06,-151.01 1488.66,-157.2 1490.64,-150.48"/>
</a>
</g>
</g>
<!-- Node23&#45;&gt;Node19 -->
<g id="edge31_Node000023_Node000019" class="edge">
<title>Node23&#45;&gt;Node19</title>
<g id="a_edge31_Node000023_Node000019"><a xlink:title=" ">
<path fill="none" stroke="#63b8ff" d="M1433.25,-120.85C1434.7,-103.91 1439.11,-75.29 1452.55,-55 1460.9,-42.38 1474.08,-31.95 1485.86,-24.36"/>
<polygon fill="#63b8ff" stroke="#63b8ff" points="1487.76,-27.3 1494.5,-19.12 1484.13,-21.31 1487.76,-27.3"/>
</a>
</g>
</g>
<!-- Node24 -->
<g id="Node000024" class="node">
<title>Node24</title>
<g id="a_Node000024"><a xlink:href="../../d9/dce/void__t_8hpp.html" target="_top" xlink:title="std::void_t implementation with workarounds for compiler bugs">
<polygon fill="white" stroke="#666666" points="1562.05,-85 1461.05,-85 1461.05,-55 1562.05,-55 1562.05,-85"/>
<text text-anchor="start" x="1469.05" y="-73" font-family="Helvetica,sans-Serif" font-size="10.00">userver/utils/void</text>
<text text-anchor="middle" x="1511.55" y="-62" font-family="Helvetica,sans-Serif" font-size="10.00">_t.hpp</text>
</a>
</g>
</g>
<!-- Node23&#45;&gt;Node24 -->
<g id="edge32_Node000023_Node000024" class="edge">
<title>Node23&#45;&gt;Node24</title>
<g id="a_edge32_Node000023_Node000024"><a xlink:title=" ">
<path fill="none" stroke="#63b8ff" d="M1450.08,-120.8C1460.72,-112.18 1474.47,-101.04 1486.27,-91.48"/>
<polygon fill="#63b8ff" stroke="#63b8ff" points="1488.49,-94.18 1494.06,-85.16 1484.09,-88.74 1488.49,-94.18"/>
</a>
</g>
</g>
<!-- Node24&#45;&gt;Node19 -->
<g id="edge33_Node000024_Node000019" class="edge">
<title>Node24&#45;&gt;Node19</title>
<g id="a_edge33_Node000024_Node000019"><a xlink:title=" ">
<path fill="none" stroke="#63b8ff" d="M1511.55,-54.84C1511.55,-47.21 1511.55,-37.7 1511.55,-29.45"/>
<polygon fill="#63b8ff" stroke="#63b8ff" points="1515.05,-29.27 1511.55,-19.27 1508.05,-29.27 1515.05,-29.27"/>
</a>
</g>
</g>
<!-- Node25&#45;&gt;Node2 -->
<g id="edge38_Node000025_Node000002" class="edge">
<title>Node25&#45;&gt;Node2</title>
<g id="a_edge38_Node000025_Node000002"><a xlink:title=" ">
<path fill="none" stroke="#63b8ff" d="M483.8,-189.61C523.49,-180.78 577.98,-167.31 624.55,-151 625.94,-150.51 627.36,-149.99 628.78,-149.43"/>
<polygon fill="#63b8ff" stroke="#63b8ff" points="630.19,-152.64 638.06,-145.54 627.48,-146.18 630.19,-152.64"/>
</a>
</g>
</g>
<!-- Node25&#45;&gt;Node8 -->
<g id="edge42_Node000025_Node000008" class="edge">
<title>Node25&#45;&gt;Node8</title>
<g id="a_edge42_Node000025_Node000008"><a xlink:title=" ">
<path fill="none" stroke="#63b8ff" d="M452.91,-186.95C471.69,-176.13 497.5,-161.24 516.06,-150.54"/>
<polygon fill="#63b8ff" stroke="#63b8ff" points="517.86,-153.54 524.77,-145.52 514.36,-147.48 517.86,-153.54"/>
</a>
</g>
</g>
<!-- Node25&#45;&gt;Node10 -->
<g id="edge43_Node000025_Node000010" class="edge">
<title>Node25&#45;&gt;Node10</title>
<g id="a_edge43_Node000025_Node000010"><a xlink:title=" ">
<path fill="none" stroke="#63b8ff" d="M483.84,-191.49C552.71,-179.64 669.92,-159.47 740.8,-147.28"/>
<polygon fill="#63b8ff" stroke="#63b8ff" points="741.65,-150.68 750.91,-145.54 740.46,-143.79 741.65,-150.68"/>
</a>
</g>
</g>
<!-- Node26 -->
<g id="Node000026" class="node">
<title>Node26</title>
<g id="a_Node000026"><a xlink:title=" ">
<polygon fill="#e0e0e0" stroke="#999999" points="259.05,-145.5 176.05,-145.5 176.05,-126.5 259.05,-126.5 259.05,-145.5"/>
<text text-anchor="middle" x="217.55" y="-133.5" font-family="Helvetica,sans-Serif" font-size="10.00">initializer_list</text>
</a>
</g>
</g>
<!-- Node25&#45;&gt;Node26 -->
<g id="edge37_Node000025_Node000026" class="edge">
<title>Node25&#45;&gt;Node26</title>
<g id="a_edge37_Node000025_Node000026"><a xlink:title=" ">
<path fill="none" stroke="#63b8ff" d="M382.24,-186.95C344.26,-175.43 291.14,-159.32 255.6,-148.54"/>
<polygon fill="#63b8ff" stroke="#63b8ff" points="256.21,-145.07 245.63,-145.52 254.18,-151.77 256.21,-145.07"/>
</a>
</g>
</g>
<!-- Node27 -->
<g id="Node000027" class="node">
<title>Node27</title>
<g id="a_Node000027"><a xlink:title=" ">
<polygon fill="#e0e0e0" stroke="#999999" points="150.05,-79.5 105.05,-79.5 105.05,-60.5 150.05,-60.5 150.05,-79.5"/>
<text text-anchor="middle" x="127.55" y="-67.5" font-family="Helvetica,sans-Serif" font-size="10.00">utility</text>
</a>
</g>
</g>
<!-- Node25&#45;&gt;Node27 -->
<g id="edge39_Node000025_Node000027" class="edge">
<title>Node25&#45;&gt;Node27</title>
<g id="a_edge39_Node000025_Node000027"><a xlink:title=" ">
<path fill="none" stroke="#63b8ff" d="M373.54,-198.47C264.96,-192.91 31.47,-177.93 7.55,-151 -22.6,-117.06 50.13,-91.07 95.15,-78.79"/>
<polygon fill="#63b8ff" stroke="#63b8ff" points="96.05,-82.17 104.83,-76.24 94.27,-75.4 96.05,-82.17"/>
</a>
</g>
</g>
<!-- Node28 -->
<g id="Node000028" class="node">
<title>Node28</title>
<g id="a_Node000028"><a xlink:title=" ">
<polygon fill="#e0e0e0" stroke="#999999" points="445.05,-145.5 394.05,-145.5 394.05,-126.5 445.05,-126.5 445.05,-145.5"/>
<text text-anchor="middle" x="419.55" y="-133.5" font-family="Helvetica,sans-Serif" font-size="10.00">variant</text>
</a>
</g>
</g>
<!-- Node25&#45;&gt;Node28 -->
<g id="edge40_Node000025_Node000028" class="edge">
<title>Node25&#45;&gt;Node28</title>
<g id="a_edge40_Node000025_Node000028"><a xlink:title=" ">
<path fill="none" stroke="#63b8ff" d="M426.55,-186.8C425.27,-177.7 423.59,-165.79 422.2,-155.9"/>
<polygon fill="#63b8ff" stroke="#63b8ff" points="425.65,-155.26 420.79,-145.84 418.72,-156.23 425.65,-155.26"/>
</a>
</g>
</g>
<!-- Node29 -->
<g id="Node000029" class="node">
<title>Node29</title>
<g id="a_Node000029"><a xlink:title=" ">
<polygon fill="#e0e0e0" stroke="#999999" points="158.05,-151 17.05,-151 17.05,-121 158.05,-121 158.05,-151"/>
<text text-anchor="start" x="25.05" y="-139" font-family="Helvetica,sans-Serif" font-size="10.00">boost/container/container</text>
<text text-anchor="middle" x="87.55" y="-128" font-family="Helvetica,sans-Serif" font-size="10.00">_fwd.hpp</text>
</a>
</g>
</g>
<!-- Node25&#45;&gt;Node29 -->
<g id="edge41_Node000025_Node000029" class="edge">
<title>Node25&#45;&gt;Node29</title>
<g id="a_edge41_Node000025_Node000029"><a xlink:title=" ">
<path fill="none" stroke="#63b8ff" d="M373.38,-190.65C317.82,-180.22 231.51,-164.02 168.26,-152.15"/>
<polygon fill="#63b8ff" stroke="#63b8ff" points="168.79,-148.69 158.32,-150.28 167.5,-155.57 168.79,-148.69"/>
</a>
</g>
</g>
<!-- Node30 -->
<g id="Node000030" class="node">
<title>Node30</title>
<g id="a_Node000030"><a xlink:href="../../d5/d02/fast__pimpl_8hpp.html" target="_top" xlink:title="Implements pimpl idiom without dynamic memory allocation.">
<polygon fill="white" stroke="#666666" points="376.05,-151 277.05,-151 277.05,-121 376.05,-121 376.05,-151"/>
<text text-anchor="start" x="285.05" y="-139" font-family="Helvetica,sans-Serif" font-size="10.00">userver/utils/fast</text>
<text text-anchor="middle" x="326.55" y="-128" font-family="Helvetica,sans-Serif" font-size="10.00">_pimpl.hpp</text>
</a>
</g>
</g>
<!-- Node25&#45;&gt;Node30 -->
<g id="edge44_Node000025_Node000030" class="edge">
<title>Node25&#45;&gt;Node30</title>
<g id="a_edge44_Node000025_Node000030"><a xlink:title=" ">
<path fill="none" stroke="#63b8ff" d="M406.16,-186.95C391.94,-178.03 373.34,-166.36 357.69,-156.54"/>
<polygon fill="#63b8ff" stroke="#63b8ff" points="359.21,-153.36 348.88,-151.01 355.49,-159.29 359.21,-153.36"/>
</a>
</g>
</g>
<!-- Node30&#45;&gt;Node9 -->
<g id="edge45_Node000030_Node000009" class="edge">
<title>Node30&#45;&gt;Node9</title>
<g id="a_edge45_Node000030_Node000009"><a xlink:title=" ">
<path fill="none" stroke="#63b8ff" d="M361.22,-120.95C388.93,-109.73 427.39,-94.15 453.96,-83.39"/>
<polygon fill="#63b8ff" stroke="#63b8ff" points="455.56,-86.52 463.52,-79.52 452.94,-80.03 455.56,-86.52"/>
</a>
</g>
</g>
<!-- Node30&#45;&gt;Node19 -->
<g id="edge47_Node000030_Node000019" class="edge">
<title>Node30&#45;&gt;Node19</title>
<g id="a_edge47_Node000030_Node000019"><a xlink:title=" ">
<path fill="none" stroke="#63b8ff" d="M342.04,-120.77C363.88,-101.71 405.87,-68.72 448.55,-55 546.38,-23.54 1277.42,-13.15 1466.83,-10.97"/>
<polygon fill="#63b8ff" stroke="#63b8ff" points="1467.03,-14.47 1476.99,-10.85 1466.95,-7.47 1467.03,-14.47"/>
</a>
</g>
</g>
<!-- Node30&#45;&gt;Node27 -->
<g id="edge48_Node000030_Node000027" class="edge">
<title>Node30&#45;&gt;Node27</title>
<g id="a_edge48_Node000030_Node000027"><a xlink:title=" ">
<path fill="none" stroke="#63b8ff" d="M282.87,-120.95C245.75,-109.02 193.31,-92.15 159.86,-81.39"/>
<polygon fill="#63b8ff" stroke="#63b8ff" points="160.72,-77.99 150.13,-78.26 158.58,-84.66 160.72,-77.99"/>
</a>
</g>
</g>
<!-- Node31 -->
<g id="Node000031" class="node">
<title>Node31</title>
<g id="a_Node000031"><a xlink:title=" ">
<polygon fill="#e0e0e0" stroke="#999999" points="345.05,-79.5 308.05,-79.5 308.05,-60.5 345.05,-60.5 345.05,-79.5"/>
<text text-anchor="middle" x="326.55" y="-67.5" font-family="Helvetica,sans-Serif" font-size="10.00">new</text>
</a>
</g>
</g>
<!-- Node30&#45;&gt;Node31 -->
<g id="edge46_Node000030_Node000031" class="edge">
<title>Node30&#45;&gt;Node31</title>
<g id="a_edge46_Node000030_Node000031"><a xlink:title=" ">
<path fill="none" stroke="#63b8ff" d="M326.55,-120.8C326.55,-111.7 326.55,-99.79 326.55,-89.9"/>
<polygon fill="#63b8ff" stroke="#63b8ff" points="330.05,-89.84 326.55,-79.84 323.05,-89.84 330.05,-89.84"/>
</a>
</g>
</g>
<!-- Node32&#45;&gt;Node5 -->
<g id="edge51_Node000032_Node000005" class="edge">
<title>Node32&#45;&gt;Node5</title>
<g id="a_edge51_Node000032_Node000005"><a xlink:title=" ">
<path fill="none" stroke="#63b8ff" d="M2063.75,-186.81C2074.41,-170.09 2087.99,-141.92 2075.55,-121 2064.78,-102.9 2044.93,-90.95 2026.42,-83.28"/>
<polygon fill="#63b8ff" stroke="#63b8ff" points="2027.5,-79.95 2016.91,-79.65 2025,-86.49 2027.5,-79.95"/>
</a>
</g>
</g>
<!-- Node32&#45;&gt;Node13 -->
<g id="edge53_Node000032_Node000013" class="edge">
<title>Node32&#45;&gt;Node13</title>
<g id="a_edge53_Node000032_Node000013"><a xlink:title=" ">
<path fill="none" stroke="#63b8ff" d="M2044.22,-186.8C2039,-178.84 2032.37,-168.74 2026.45,-159.71"/>
<polygon fill="#63b8ff" stroke="#63b8ff" points="2029.25,-157.6 2020.84,-151.16 2023.4,-161.44 2029.25,-157.6"/>
</a>
</g>
</g>
<!-- Node32&#45;&gt;Node19 -->
<g id="edge52_Node000032_Node000019" class="edge">
<title>Node32&#45;&gt;Node19</title>
<g id="a_edge52_Node000032_Node000019"><a xlink:title=" ">
<path fill="none" stroke="#63b8ff" d="M2112.3,-188.12C2155.46,-175.68 2203.11,-153.87 2181.55,-121 2112.77,-16.16 1695.73,-9.26 1556.65,-9.92"/>
<polygon fill="#63b8ff" stroke="#63b8ff" points="1556.33,-6.42 1546.35,-9.98 1556.37,-13.42 1556.33,-6.42"/>
</a>
</g>
</g>
<!-- Node33 -->
<g id="Node000033" class="node">
<title>Node33</title>
<g id="a_Node000033"><a xlink:title=" ">
<polygon fill="#e0e0e0" stroke="#999999" points="2172.55,-145.5 2122.55,-145.5 2122.55,-126.5 2172.55,-126.5 2172.55,-145.5"/>
<text text-anchor="middle" x="2147.55" y="-133.5" font-family="Helvetica,sans-Serif" font-size="10.00">cstdint</text>
</a>
</g>
</g>
<!-- Node32&#45;&gt;Node33 -->
<g id="edge50_Node000032_Node000033" class="edge">
<title>Node32&#45;&gt;Node33</title>
<g id="a_edge50_Node000032_Node000033"><a xlink:title=" ">
<path fill="none" stroke="#63b8ff" d="M2074.41,-186.8C2089.87,-176.27 2110.87,-161.97 2126.4,-151.4"/>
<polygon fill="#63b8ff" stroke="#63b8ff" points="2128.53,-154.18 2134.83,-145.66 2124.59,-148.39 2128.53,-154.18"/>
</a>
</g>
</g>
<!-- Node34&#45;&gt;Node4 -->
<g id="edge57_Node000034_Node000004" class="edge">
<title>Node34&#45;&gt;Node4</title>
<g id="a_edge57_Node000034_Node000004"><a xlink:title=" ">
<path fill="none" stroke="#63b8ff" d="M1299.07,-192.44C1242.16,-180.09 1137.78,-157.44 1081.65,-145.27"/>
<polygon fill="#63b8ff" stroke="#63b8ff" points="1082.27,-141.82 1071.75,-143.12 1080.78,-148.66 1082.27,-141.82"/>
</a>
</g>
</g>
<!-- Node34&#45;&gt;Node16 -->
<g id="edge55_Node000034_Node000016" class="edge">
<title>Node34&#45;&gt;Node16</title>
<g id="a_edge55_Node000034_Node000016"><a xlink:title=" ">
<path fill="none" stroke="#63b8ff" d="M1338.41,-192.37C1338.27,-183.16 1338.03,-168.29 1337.85,-156.27"/>
<polygon fill="#63b8ff" stroke="#63b8ff" points="1341.34,-155.85 1337.68,-145.91 1334.34,-155.96 1341.34,-155.85"/>
</a>
</g>
</g>
<!-- Node34&#45;&gt;Node17 -->
<g id="edge56_Node000034_Node000017" class="edge">
<title>Node34&#45;&gt;Node17</title>
<g id="a_edge56_Node000034_Node000017"><a xlink:title=" ">
<path fill="none" stroke="#63b8ff" d="M1315.08,-192.37C1284.77,-181.22 1231.84,-161.75 1197.5,-149.12"/>
<polygon fill="#63b8ff" stroke="#63b8ff" points="1198.51,-145.76 1187.92,-145.6 1196.09,-152.33 1198.51,-145.76"/>
</a>
</g>
</g>
<!-- Node34&#45;&gt;Node19 -->
<g id="edge58_Node000034_Node000019" class="edge">
<title>Node34&#45;&gt;Node19</title>
<g id="a_edge58_Node000034_Node000019"><a xlink:title=" ">
<path fill="none" stroke="#63b8ff" d="M1300.74,-192.41C1278.77,-185.26 1252.86,-172.65 1239.55,-151 1232.56,-139.64 1232.1,-132.06 1239.55,-121 1290.64,-45.1 1403.81,-21.31 1466.89,-13.87"/>
<polygon fill="#63b8ff" stroke="#63b8ff" points="1467.38,-17.34 1476.94,-12.77 1466.62,-10.38 1467.38,-17.34"/>
</a>
</g>
</g>
<!-- Node34&#45;&gt;Node23 -->
<g id="edge60_Node000034_Node000023" class="edge">
<title>Node34&#45;&gt;Node23</title>
<g id="a_edge60_Node000034_Node000023"><a xlink:title=" ">
<path fill="none" stroke="#63b8ff" d="M1351.22,-192.37C1364.45,-183.36 1385.66,-168.92 1403.1,-157.05"/>
<polygon fill="#63b8ff" stroke="#63b8ff" points="1405.52,-159.64 1411.81,-151.12 1401.58,-153.85 1405.52,-159.64"/>
</a>
</g>
</g>
<!-- Node35 -->
<g id="Node000035" class="node">
<title>Node35</title>
<g id="a_Node000035"><a xlink:title=" ">
<polygon fill="#e0e0e0" stroke="#999999" points="1295.05,-145.5 1248.05,-145.5 1248.05,-126.5 1295.05,-126.5 1295.05,-145.5"/>
<text text-anchor="middle" x="1271.55" y="-133.5" font-family="Helvetica,sans-Serif" font-size="10.00">vector</text>
</a>
</g>
</g>
<!-- Node34&#45;&gt;Node35 -->
<g id="edge59_Node000034_Node000035" class="edge">
<title>Node34&#45;&gt;Node35</title>
<g id="a_edge59_Node000034_Node000035"><a xlink:title=" ">
<path fill="none" stroke="#63b8ff" d="M1329.51,-192.37C1318.98,-182.31 1301.36,-165.48 1288.3,-153.01"/>
<polygon fill="#63b8ff" stroke="#63b8ff" points="1290.52,-150.28 1280.87,-145.91 1285.68,-155.34 1290.52,-150.28"/>
</a>
</g>
</g>
<!-- Node36&#45;&gt;Node2 -->
<g id="edge65_Node000036_Node000002" class="edge">
<title>Node36&#45;&gt;Node2</title>
<g id="a_edge65_Node000036_Node000002"><a xlink:title=" ">
<path fill="none" stroke="#63b8ff" d="M640.4,-252.84C643.47,-229.34 649.63,-182.26 653.07,-155.93"/>
<polygon fill="#63b8ff" stroke="#63b8ff" points="656.58,-156.12 654.4,-145.75 649.63,-155.21 656.58,-156.12"/>
</a>
</g>
</g>
<!-- Node36&#45;&gt;Node7 -->
<g id="edge64_Node000036_Node000007" class="edge">
<title>Node36&#45;&gt;Node7</title>
<g id="a_edge64_Node000036_Node000007"><a xlink:title=" ">
<path fill="none" stroke="#63b8ff" d="M662.25,-252.95C680.44,-242.18 705.41,-227.38 723.44,-216.69"/>
<polygon fill="#63b8ff" stroke="#63b8ff" points="725.35,-219.63 732.17,-211.52 721.79,-213.6 725.35,-219.63"/>
</a>
</g>
</g>
<!-- Node36&#45;&gt;Node25 -->
<g id="edge66_Node000036_Node000025" class="edge">
<title>Node36&#45;&gt;Node25</title>
<g id="a_edge66_Node000036_Node000025"><a xlink:title=" ">
<path fill="none" stroke="#63b8ff" d="M592.46,-252.95C560.59,-243.24 518.02,-230.27 484.25,-219.98"/>
<polygon fill="#63b8ff" stroke="#63b8ff" points="485.11,-216.58 474.52,-217.01 483.07,-223.28 485.11,-216.58"/>
</a>
</g>
</g>
<!-- Node37 -->
<g id="Node000037" class="node">
<title>Node37</title>
<g id="a_Node000037"><a xlink:title=" ">
<polygon fill="#e0e0e0" stroke="#999999" points="627.55,-211.5 577.55,-211.5 577.55,-192.5 627.55,-192.5 627.55,-211.5"/>
<text text-anchor="middle" x="602.55" y="-199.5" font-family="Helvetica,sans-Serif" font-size="10.00">atomic</text>
</a>
</g>
</g>
<!-- Node36&#45;&gt;Node37 -->
<g id="edge63_Node000036_Node000037" class="edge">
<title>Node36&#45;&gt;Node37</title>
<g id="a_edge63_Node000036_Node000037"><a xlink:title=" ">
<path fill="none" stroke="#63b8ff" d="M630.56,-252.8C625.22,-243.31 618.16,-230.76 612.46,-220.63"/>
<polygon fill="#63b8ff" stroke="#63b8ff" points="615.47,-218.84 607.52,-211.84 609.37,-222.28 615.47,-218.84"/>
</a>
</g>
</g>
<!-- Node38&#45;&gt;Node11 -->
<g id="edge68_Node000038_Node000011" class="edge">
<title>Node38&#45;&gt;Node11</title>
<g id="a_edge68_Node000038_Node000011"><a xlink:title=" ">
<path fill="none" stroke="#63b8ff" d="M749.3,-252.95C735.45,-244.6 720.29,-232.58 712.55,-217 706.61,-205.06 711.35,-200.28 712.55,-187 715.22,-157.31 708.1,-145.87 724.55,-121 735.4,-104.59 753.68,-92.31 769.6,-84.03"/>
<polygon fill="#63b8ff" stroke="#63b8ff" points="771.17,-87.16 778.62,-79.62 768.1,-80.87 771.17,-87.16"/>
</a>
</g>
</g>
</g>
</svg>
