<?xml version="1.0" encoding="UTF-8" standalone="no"?>
<!DOCTYPE svg PUBLIC "-//W3C//DTD SVG 1.1//EN"
 "http://www.w3.org/Graphics/SVG/1.1/DTD/svg11.dtd">
<!-- Generated by graphviz version 2.43.0 (0)
 -->
<!-- Title: crypto::CryptoException Pages: 1 -->
<svg width="395pt" height="192pt"
 viewBox="0.00 0.00 395.00 192.00" xmlns="http://www.w3.org/2000/svg" xmlns:xlink="http://www.w3.org/1999/xlink">
<g id="graph0" class="graph" transform="scale(1 1) rotate(0) translate(4 188)">
<title>crypto::CryptoException</title>
<!-- Node1 -->
<g id="Node000001" class="node">
<title>Node1</title>
<g id="a_Node000001"><a xlink:title="Base exception.">
<polygon fill="#999999" stroke="#666666" points="255.5,-74 121.5,-74 121.5,-55 255.5,-55 255.5,-74"/>
<text text-anchor="middle" x="188.5" y="-62" font-family="Helvetica,sans-Serif" font-size="10.00">crypto::CryptoException</text>
</a>
</g>
</g>
<!-- Node5 -->
<g id="Node000005" class="node">
<title>Node5</title>
<g id="a_Node000005"><a xlink:href="../../da/d49/classcrypto_1_1KeyParseError.html" target="_top" xlink:title="Signing key parse error.">
<polygon fill="white" stroke="#666666" points="121,-19 0,-19 0,0 121,0 121,-19"/>
<text text-anchor="middle" x="60.5" y="-7" font-family="Helvetica,sans-Serif" font-size="10.00">crypto::KeyParseError</text>
</a>
</g>
</g>
<!-- Node1&#45;&gt;Node5 -->
<g id="edge4_Node000001_Node000005" class="edge">
<title>Node1&#45;&gt;Node5</title>
<g id="a_edge4_Node000001_Node000005"><a xlink:title=" ">
<path fill="none" stroke="#63b8ff" d="M158.38,-51.03C134.71,-41.23 102.35,-27.83 81.44,-19.17"/>
<polygon fill="#63b8ff" stroke="#63b8ff" points="157.36,-54.39 167.93,-54.98 160.03,-47.93 157.36,-54.39"/>
</a>
</g>
</g>
<!-- Node6 -->
<g id="Node000006" class="node">
<title>Node6</title>
<g id="a_Node000006"><a xlink:href="../../d2/deb/classcrypto_1_1SignError.html" target="_top" xlink:title="Signature generation error.">
<polygon fill="white" stroke="#666666" points="237.5,-19 139.5,-19 139.5,0 237.5,0 237.5,-19"/>
<text text-anchor="middle" x="188.5" y="-7" font-family="Helvetica,sans-Serif" font-size="10.00">crypto::SignError</text>
</a>
</g>
</g>
<!-- Node1&#45;&gt;Node6 -->
<g id="edge5_Node000001_Node000006" class="edge">
<title>Node1&#45;&gt;Node6</title>
<g id="a_edge5_Node000001_Node000006"><a xlink:title=" ">
<path fill="none" stroke="#63b8ff" d="M188.5,-44.66C188.5,-35.93 188.5,-25.99 188.5,-19.09"/>
<polygon fill="#63b8ff" stroke="#63b8ff" points="185,-44.75 188.5,-54.75 192,-44.75 185,-44.75"/>
</a>
</g>
</g>
<!-- Node7 -->
<g id="Node000007" class="node">
<title>Node7</title>
<g id="a_Node000007"><a xlink:href="../../d0/dc8/classcrypto_1_1VerificationError.html" target="_top" xlink:title="Signature verification error.">
<polygon fill="white" stroke="#666666" points="387,-19 256,-19 256,0 387,0 387,-19"/>
<text text-anchor="middle" x="321.5" y="-7" font-family="Helvetica,sans-Serif" font-size="10.00">crypto::VerificationError</text>
</a>
</g>
</g>
<!-- Node1&#45;&gt;Node7 -->
<g id="edge6_Node000001_Node000007" class="edge">
<title>Node1&#45;&gt;Node7</title>
<g id="a_edge6_Node000001_Node000007"><a xlink:title=" ">
<path fill="none" stroke="#63b8ff" d="M219.47,-51.16C244.09,-41.35 277.91,-27.87 299.74,-19.17"/>
<polygon fill="#63b8ff" stroke="#63b8ff" points="217.86,-48.03 209.87,-54.98 220.45,-54.53 217.86,-48.03"/>
</a>
</g>
</g>
<!-- Node2 -->
<g id="Node000002" class="node">
<title>Node2</title>
<g id="a_Node000002"><a xlink:href="../../df/dae/classutils_1_1TracefulException.html" target="_top" xlink:title="Exception that remembers the backtrace at the point of its construction.">
<polygon fill="white" stroke="#666666" points="253.5,-129 123.5,-129 123.5,-110 253.5,-110 253.5,-129"/>
<text text-anchor="middle" x="188.5" y="-117" font-family="Helvetica,sans-Serif" font-size="10.00">utils::TracefulException</text>
</a>
</g>
</g>
<!-- Node2&#45;&gt;Node1 -->
<g id="edge1_Node000001_Node000002" class="edge">
<title>Node2&#45;&gt;Node1</title>
<g id="a_edge1_Node000001_Node000002"><a xlink:title=" ">
<path fill="none" stroke="#63b8ff" d="M188.5,-99.66C188.5,-90.93 188.5,-80.99 188.5,-74.09"/>
<polygon fill="#63b8ff" stroke="#63b8ff" points="185,-99.75 188.5,-109.75 192,-99.75 185,-99.75"/>
</a>
</g>
</g>
<!-- Node3 -->
<g id="Node000003" class="node">
<title>Node3</title>
<g id="a_Node000003"><a xlink:title=" ">
<polygon fill="white" stroke="#666666" points="162.5,-184 76.5,-184 76.5,-165 162.5,-165 162.5,-184"/>
<text text-anchor="middle" x="119.5" y="-172" font-family="Helvetica,sans-Serif" font-size="10.00">std::exception</text>
</a>
</g>
</g>
<!-- Node3&#45;&gt;Node2 -->
<g id="edge2_Node000002_Node000003" class="edge">
<title>Node3&#45;&gt;Node2</title>
<g id="a_edge2_Node000002_Node000003"><a xlink:title=" ">
<path fill="none" stroke="#63b8ff" d="M138.54,-158.88C150.96,-149.34 166.74,-137.21 177.21,-129.17"/>
<polygon fill="#63b8ff" stroke="#63b8ff" points="136.38,-156.12 130.59,-164.98 140.65,-161.67 136.38,-156.12"/>
</a>
</g>
</g>
<!-- Node4 -->
<g id="Node000004" class="node">
<title>Node4</title>
<g id="a_Node000004"><a xlink:href="../../d9/d28/classutils_1_1TracefulExceptionBase.html" target="_top" xlink:title="Base class implementing backtrace storage and message builder, published only for documentation purpo...">
<polygon fill="white" stroke="#666666" points="334.5,-184 180.5,-184 180.5,-165 334.5,-165 334.5,-184"/>
<text text-anchor="middle" x="257.5" y="-172" font-family="Helvetica,sans-Serif" font-size="10.00">utils::TracefulExceptionBase</text>
</a>
</g>
</g>
<!-- Node4&#45;&gt;Node2 -->
<g id="edge3_Node000002_Node000004" class="edge">
<title>Node4&#45;&gt;Node2</title>
<g id="a_edge3_Node000002_Node000004"><a xlink:title=" ">
<path fill="none" stroke="#63b8ff" d="M238.46,-158.88C226.04,-149.34 210.26,-137.21 199.79,-129.17"/>
<polygon fill="#63b8ff" stroke="#63b8ff" points="236.35,-161.67 246.41,-164.98 240.62,-156.12 236.35,-161.67"/>
</a>
</g>
</g>
</g>
</svg>
