<?xml version="1.0" encoding="UTF-8" standalone="no"?>
<!DOCTYPE svg PUBLIC "-//W3C//DTD SVG 1.1//EN"
 "http://www.w3.org/Graphics/SVG/1.1/DTD/svg11.dtd">
<!-- Generated by graphviz version 2.43.0 (0)
 -->
<!-- Title: userver/server/handlers/auth Pages: 1 -->
<svg width="670pt" height="125pt"
 viewBox="0.00 0.00 670.00 125.00" xmlns="http://www.w3.org/2000/svg" xmlns:xlink="http://www.w3.org/1999/xlink">
<g id="graph0" class="graph" transform="scale(1 1) rotate(0) translate(4 121)">
<title>userver/server/handlers/auth</title>
<g id="clust1" class="cluster">
<title>clusterdir_cbd02b5be4584b4d66ebef73a874b298</title>
<g id="a_clust1"><a xlink:href="dir_cbd02b5be4584b4d66ebef73a874b298.html" target="_top" xlink:title="handlers">
<polygon fill="#feefdf" stroke="#7f7f7f" stroke-dasharray="5,2" points="194.5,-39 194.5,-109 330.5,-109 330.5,-39 194.5,-39"/>
<text text-anchor="middle" x="262.5" y="-97" font-family="Helvetica,sans-Serif" font-size="10.00">handlers</text>
</a>
</g>
</g>
<g id="clust2" class="cluster">
<title>clusterdir_f0867cc1ce4a2ece86f405b085483ee0</title>
<g id="a_clust2"><a xlink:href="dir_f0867cc1ce4a2ece86f405b085483ee0.html" target="_top">
<polygon fill="#feefdf" stroke="#404040" stroke-width="2" points="202.5,-47 202.5,-82 322.5,-82 322.5,-47 202.5,-47"/>
</a>
</g>
</g>
<!-- dir_f0867cc1ce4a2ece86f405b085483ee0 -->
<g id="node1" class="node">
<title>dir_f0867cc1ce4a2ece86f405b085483ee0</title>
<text text-anchor="middle" x="229.5" y="-62" font-family="Helvetica,sans-Serif" font-size="10.00">auth</text>
</g>
<!-- dir_7c8aad318a3904861a0ee81bd37c7629 -->
<g id="node3" class="node">
<title>dir_7c8aad318a3904861a0ee81bd37c7629</title>
<g id="a_node3"><a xlink:href="dir_7c8aad318a3904861a0ee81bd37c7629.html" target="_top" xlink:title="http">
<polygon fill="#feefdf" stroke="#7f7f7f" points="184.5,-19 148.5,-19 148.5,0 184.5,0 184.5,-19"/>
<text text-anchor="middle" x="166.5" y="-7" font-family="Helvetica,sans-Serif" font-size="10.00">http</text>
</a>
</g>
</g>
<!-- dir_f0867cc1ce4a2ece86f405b085483ee0&#45;&gt;dir_7c8aad318a3904861a0ee81bd37c7629 -->
<g id="edge1" class="edge">
<title>dir_f0867cc1ce4a2ece86f405b085483ee0&#45;&gt;dir_7c8aad318a3904861a0ee81bd37c7629</title>
<g id="a_edge1"><a xlink:href="dir_000001_000057.html" target="_top">
<path fill="none" stroke="#63b8ff" d="M219.38,-54.98C210.06,-47.15 196.03,-35.34 184.76,-25.86"/>
<polygon fill="#63b8ff" stroke="#63b8ff" points="186.71,-22.93 176.81,-19.17 182.21,-28.29 186.71,-22.93"/>
</a>
</g>
<g id="a_edge1&#45;headlabel"><a xlink:href="dir_000001_000057.html" target="_top" xlink:title="7">
<text text-anchor="middle" x="191.29" y="-20.57" font-family="Helvetica,sans-Serif" font-size="10.00" fill="#63b8ff">7</text>
</a>
</g>
</g>
<!-- dir_990ca0e4d1092627101070a1c89f24df -->
<g id="node4" class="node">
<title>dir_990ca0e4d1092627101070a1c89f24df</title>
<g id="a_node4"><a xlink:href="dir_990ca0e4d1092627101070a1c89f24df.html" target="_top" xlink:title="request">
<polygon fill="#feefdf" stroke="#7f7f7f" points="256,-19 203,-19 203,0 256,0 256,-19"/>
<text text-anchor="middle" x="229.5" y="-7" font-family="Helvetica,sans-Serif" font-size="10.00">request</text>
</a>
</g>
</g>
<!-- dir_f0867cc1ce4a2ece86f405b085483ee0&#45;&gt;dir_990ca0e4d1092627101070a1c89f24df -->
<g id="edge2" class="edge">
<title>dir_f0867cc1ce4a2ece86f405b085483ee0&#45;&gt;dir_990ca0e4d1092627101070a1c89f24df</title>
<g id="a_edge2"><a xlink:href="dir_000001_000110.html" target="_top">
<path fill="none" stroke="#63b8ff" d="M229.5,-54.75C229.5,-47.8 229.5,-37.85 229.5,-29.13"/>
<polygon fill="#63b8ff" stroke="#63b8ff" points="233,-29.09 229.5,-19.09 226,-29.09 233,-29.09"/>
</a>
</g>
<g id="a_edge2&#45;headlabel"><a xlink:href="dir_000001_000110.html" target="_top" xlink:title="3">
<text text-anchor="middle" x="235.84" y="-30.18" font-family="Helvetica,sans-Serif" font-size="10.00" fill="#63b8ff">3</text>
</a>
</g>
</g>
<!-- dir_994ef2a14b32cb8134d8b7b97f08d542 -->
<g id="node5" class="node">
<title>dir_994ef2a14b32cb8134d8b7b97f08d542</title>
<g id="a_node5"><a xlink:href="dir_994ef2a14b32cb8134d8b7b97f08d542.html" target="_top" xlink:title="components">
<polygon fill="#feefdf" stroke="red" stroke-dasharray="5,2" points="351,-19 274,-19 274,0 351,0 351,-19"/>
<text text-anchor="middle" x="312.5" y="-7" font-family="Helvetica,sans-Serif" font-size="10.00">components</text>
</a>
</g>
</g>
<!-- dir_f0867cc1ce4a2ece86f405b085483ee0&#45;&gt;dir_994ef2a14b32cb8134d8b7b97f08d542 -->
<g id="edge3" class="edge">
<title>dir_f0867cc1ce4a2ece86f405b085483ee0&#45;&gt;dir_994ef2a14b32cb8134d8b7b97f08d542</title>
<g id="a_edge3"><a xlink:href="dir_000001_000021.html" target="_top">
<path fill="none" stroke="#63b8ff" d="M238.38,-54.74C243.67,-49.78 250.67,-43.66 257.5,-39 265.79,-33.35 275.34,-28.03 284.13,-23.56"/>
<polygon fill="#63b8ff" stroke="#63b8ff" points="285.85,-26.61 293.27,-19.06 282.76,-20.33 285.85,-26.61"/>
</a>
</g>
<g id="a_edge3&#45;headlabel"><a xlink:href="dir_000001_000021.html" target="_top" xlink:title="4">
<text text-anchor="middle" x="283.88" y="-28.25" font-family="Helvetica,sans-Serif" font-size="10.00" fill="#63b8ff">4</text>
</a>
</g>
</g>
<!-- dir_a7364e945deb3de9e65ddca50507f79f -->
<g id="node6" class="node">
<title>dir_a7364e945deb3de9e65ddca50507f79f</title>
<g id="a_node6"><a xlink:href="dir_a7364e945deb3de9e65ddca50507f79f.html" target="_top" xlink:title="userver">
<polygon fill="#feefdf" stroke="red" points="130,-19 77,-19 77,0 130,0 130,-19"/>
<text text-anchor="middle" x="103.5" y="-7" font-family="Helvetica,sans-Serif" font-size="10.00">userver</text>
</a>
</g>
</g>
<!-- dir_f0867cc1ce4a2ece86f405b085483ee0&#45;&gt;dir_a7364e945deb3de9e65ddca50507f79f -->
<g id="edge4" class="edge">
<title>dir_f0867cc1ce4a2ece86f405b085483ee0&#45;&gt;dir_a7364e945deb3de9e65ddca50507f79f</title>
<g id="a_edge4"><a xlink:href="dir_000001_000146.html" target="_top">
<path fill="none" stroke="#63b8ff" d="M210.36,-55.45C189.91,-46.85 157.22,-33.1 133.37,-23.07"/>
<polygon fill="#63b8ff" stroke="#63b8ff" points="134.65,-19.81 124.08,-19.15 131.94,-26.26 134.65,-19.81"/>
</a>
</g>
<g id="a_edge4&#45;headlabel"><a xlink:href="dir_000001_000146.html" target="_top" xlink:title="5">
<text text-anchor="middle" x="139.06" y="-16.08" font-family="Helvetica,sans-Serif" font-size="10.00" fill="#63b8ff">5</text>
</a>
</g>
</g>
<!-- dir_b2e5dd734b4dca0bb7544c080eed55d0 -->
<g id="node7" class="node">
<title>dir_b2e5dd734b4dca0bb7544c080eed55d0</title>
<g id="a_node7"><a xlink:href="dir_b2e5dd734b4dca0bb7544c080eed55d0.html" target="_top" xlink:title="storages">
<polygon fill="#feefdf" stroke="red" stroke-dasharray="5,2" points="59,-19 0,-19 0,0 59,0 59,-19"/>
<text text-anchor="middle" x="29.5" y="-7" font-family="Helvetica,sans-Serif" font-size="10.00">storages</text>
</a>
</g>
</g>
<!-- dir_f0867cc1ce4a2ece86f405b085483ee0&#45;&gt;dir_b2e5dd734b4dca0bb7544c080eed55d0 -->
<g id="edge5" class="edge">
<title>dir_f0867cc1ce4a2ece86f405b085483ee0&#45;&gt;dir_b2e5dd734b4dca0bb7544c080eed55d0</title>
<g id="a_edge5"><a xlink:href="dir_000001_000120.html" target="_top">
<path fill="none" stroke="#63b8ff" d="M210.32,-58.42C177.92,-49.83 111.7,-32.28 69.02,-20.97"/>
<polygon fill="#63b8ff" stroke="#63b8ff" points="69.8,-17.56 59.24,-18.38 68.01,-24.32 69.8,-17.56"/>
</a>
</g>
<g id="a_edge5&#45;headlabel"><a xlink:href="dir_000001_000120.html" target="_top" xlink:title="1">
<text text-anchor="middle" x="74" y="-13.23" font-family="Helvetica,sans-Serif" font-size="10.00" fill="#63b8ff">1</text>
</a>
</g>
</g>
<!-- dir_822d95190bbb721a8341ddda411d2e34 -->
<g id="node2" class="node">
<title>dir_822d95190bbb721a8341ddda411d2e34</title>
<g id="a_node2"><a xlink:href="dir_822d95190bbb721a8341ddda411d2e34.html" target="_top" xlink:title="digest">
<polygon fill="#fdaf60" stroke="#404040" points="314,-74 267,-74 267,-55 314,-55 314,-74"/>
<text text-anchor="middle" x="290.5" y="-62" font-family="Helvetica,sans-Serif" font-size="10.00">digest</text>
</a>
</g>
</g>
<!-- dir_822d95190bbb721a8341ddda411d2e34&#45;&gt;dir_7c8aad318a3904861a0ee81bd37c7629 -->
<g id="edge9" class="edge">
<title>dir_822d95190bbb721a8341ddda411d2e34&#45;&gt;dir_7c8aad318a3904861a0ee81bd37c7629</title>
<g id="a_edge9"><a xlink:href="dir_000036_000057.html" target="_top">
<path fill="none" stroke="#63b8ff" d="M280.68,-54.83C274.41,-49.65 265.89,-43.27 257.5,-39 233.43,-26.75 223.78,-27.6 194.32,-19.13"/>
<polygon fill="#63b8ff" stroke="#63b8ff" points="195.09,-15.71 184.51,-16.17 193.07,-22.41 195.09,-15.71"/>
</a>
</g>
<g id="a_edge9&#45;headlabel"><a xlink:href="dir_000036_000057.html" target="_top" xlink:title="6">
<text text-anchor="middle" x="199.35" y="-11.52" font-family="Helvetica,sans-Serif" font-size="10.00" fill="#63b8ff">6</text>
</a>
</g>
</g>
<!-- dir_822d95190bbb721a8341ddda411d2e34&#45;&gt;dir_990ca0e4d1092627101070a1c89f24df -->
<g id="edge10" class="edge">
<title>dir_822d95190bbb721a8341ddda411d2e34&#45;&gt;dir_990ca0e4d1092627101070a1c89f24df</title>
<g id="a_edge10"><a xlink:href="dir_000036_000110.html" target="_top">
<path fill="none" stroke="#63b8ff" d="M280.7,-54.98C271.68,-47.15 258.09,-35.34 247.18,-25.86"/>
<polygon fill="#63b8ff" stroke="#63b8ff" points="249.32,-23.09 239.48,-19.17 244.73,-28.37 249.32,-23.09"/>
</a>
</g>
<g id="a_edge10&#45;headlabel"><a xlink:href="dir_000036_000110.html" target="_top" xlink:title="2">
<text text-anchor="middle" x="253.9" y="-20.8" font-family="Helvetica,sans-Serif" font-size="10.00" fill="#63b8ff">2</text>
</a>
</g>
</g>
<!-- dir_822d95190bbb721a8341ddda411d2e34&#45;&gt;dir_994ef2a14b32cb8134d8b7b97f08d542 -->
<g id="edge11" class="edge">
<title>dir_822d95190bbb721a8341ddda411d2e34&#45;&gt;dir_994ef2a14b32cb8134d8b7b97f08d542</title>
<g id="a_edge11"><a xlink:href="dir_000036_000021.html" target="_top">
<path fill="none" stroke="#63b8ff" d="M294.13,-54.75C297.08,-47.65 301.33,-37.4 305.01,-28.56"/>
<polygon fill="#63b8ff" stroke="#63b8ff" points="308.33,-29.67 308.93,-19.09 301.87,-26.98 308.33,-29.67"/>
</a>
</g>
<g id="a_edge11&#45;headlabel"><a xlink:href="dir_000036_000021.html" target="_top" xlink:title="2">
<text text-anchor="middle" x="309.58" y="-31.58" font-family="Helvetica,sans-Serif" font-size="10.00" fill="#63b8ff">2</text>
</a>
</g>
</g>
<!-- dir_822d95190bbb721a8341ddda411d2e34&#45;&gt;dir_a7364e945deb3de9e65ddca50507f79f -->
<g id="edge12" class="edge">
<title>dir_822d95190bbb721a8341ddda411d2e34&#45;&gt;dir_a7364e945deb3de9e65ddca50507f79f</title>
<g id="a_edge12"><a xlink:href="dir_000036_000146.html" target="_top">
<path fill="none" stroke="#63b8ff" d="M281.43,-54.91C275.18,-49.48 266.43,-42.81 257.5,-39 211.35,-19.31 193.66,-28.37 140.22,-18.92"/>
<polygon fill="#63b8ff" stroke="#63b8ff" points="140.67,-15.44 130.19,-17 139.36,-22.32 140.67,-15.44"/>
</a>
</g>
<g id="a_edge12&#45;headlabel"><a xlink:href="dir_000036_000146.html" target="_top" xlink:title="3">
<text text-anchor="middle" x="144.74" y="-10.82" font-family="Helvetica,sans-Serif" font-size="10.00" fill="#63b8ff">3</text>
</a>
</g>
</g>
<!-- dir_3285f5f33091c25af669261537588667 -->
<g id="node8" class="node">
<title>dir_3285f5f33091c25af669261537588667</title>
<g id="a_node8"><a xlink:href="dir_3285f5f33091c25af669261537588667.html" target="_top" xlink:title="rcu">
<polygon fill="#feefdf" stroke="#7f7f7f" points="487.5,-19 455.5,-19 455.5,0 487.5,0 487.5,-19"/>
<text text-anchor="middle" x="471.5" y="-7" font-family="Helvetica,sans-Serif" font-size="10.00">rcu</text>
</a>
</g>
</g>
<!-- dir_822d95190bbb721a8341ddda411d2e34&#45;&gt;dir_3285f5f33091c25af669261537588667 -->
<g id="edge7" class="edge">
<title>dir_822d95190bbb721a8341ddda411d2e34&#45;&gt;dir_3285f5f33091c25af669261537588667</title>
<g id="a_edge7"><a xlink:href="dir_000036_000107.html" target="_top">
<path fill="none" stroke="#63b8ff" d="M314.13,-57.15C342.99,-49.32 393.49,-35.34 445.65,-19.15"/>
<polygon fill="#63b8ff" stroke="#63b8ff" points="446.9,-22.43 455.4,-16.11 444.81,-15.75 446.9,-22.43"/>
</a>
</g>
<g id="a_edge7&#45;headlabel"><a xlink:href="dir_000036_000107.html" target="_top" xlink:title="2">
<text text-anchor="middle" x="444.31" y="-23.71" font-family="Helvetica,sans-Serif" font-size="10.00" fill="#63b8ff">2</text>
</a>
</g>
</g>
<!-- dir_6fe6ce792de102936b3c02369b7e8bae -->
<g id="node9" class="node">
<title>dir_6fe6ce792de102936b3c02369b7e8bae</title>
<g id="a_node9"><a xlink:href="dir_6fe6ce792de102936b3c02369b7e8bae.html" target="_top" xlink:title="dynamic_config">
<polygon fill="#feefdf" stroke="red" stroke-dasharray="5,2" points="599,-19 506,-19 506,0 599,0 599,-19"/>
<text text-anchor="middle" x="552.5" y="-7" font-family="Helvetica,sans-Serif" font-size="10.00">dynamic_config</text>
</a>
</g>
</g>
<!-- dir_822d95190bbb721a8341ddda411d2e34&#45;&gt;dir_6fe6ce792de102936b3c02369b7e8bae -->
<g id="edge8" class="edge">
<title>dir_822d95190bbb721a8341ddda411d2e34&#45;&gt;dir_6fe6ce792de102936b3c02369b7e8bae</title>
<g id="a_edge8"><a xlink:href="dir_000036_000042.html" target="_top">
<path fill="none" stroke="#63b8ff" d="M314.21,-58.7C356.04,-50.24 443.84,-32.48 500.39,-21.04"/>
<polygon fill="#63b8ff" stroke="#63b8ff" points="501.12,-24.47 510.22,-19.05 499.73,-17.6 501.12,-24.47"/>
</a>
</g>
<g id="a_edge8&#45;headlabel"><a xlink:href="dir_000036_000042.html" target="_top" xlink:title="2">
<text text-anchor="middle" x="498.16" y="-25.46" font-family="Helvetica,sans-Serif" font-size="10.00" fill="#63b8ff">2</text>
</a>
</g>
</g>
<!-- dir_2c6b70c628beb7fc0194b7f508f3ad90 -->
<g id="node10" class="node">
<title>dir_2c6b70c628beb7fc0194b7f508f3ad90</title>
<g id="a_node10"><a xlink:href="dir_2c6b70c628beb7fc0194b7f508f3ad90.html" target="_top" xlink:title="cache">
<polygon fill="#feefdf" stroke="#7f7f7f" points="662,-19 617,-19 617,0 662,0 662,-19"/>
<text text-anchor="middle" x="639.5" y="-7" font-family="Helvetica,sans-Serif" font-size="10.00">cache</text>
</a>
</g>
</g>
<!-- dir_822d95190bbb721a8341ddda411d2e34&#45;&gt;dir_2c6b70c628beb7fc0194b7f508f3ad90 -->
<g id="edge6" class="edge">
<title>dir_822d95190bbb721a8341ddda411d2e34&#45;&gt;dir_2c6b70c628beb7fc0194b7f508f3ad90</title>
<g id="a_edge6"><a xlink:href="dir_000036_000009.html" target="_top">
<path fill="none" stroke="#63b8ff" d="M314.22,-61.24C365.79,-56.09 492.15,-42.27 606.89,-19.11"/>
<polygon fill="#63b8ff" stroke="#63b8ff" points="607.8,-22.5 616.89,-17.06 606.4,-15.64 607.8,-22.5"/>
</a>
</g>
<g id="a_edge6&#45;headlabel"><a xlink:href="dir_000036_000009.html" target="_top" xlink:title="1">
<text text-anchor="middle" x="604.85" y="-23.5" font-family="Helvetica,sans-Serif" font-size="10.00" fill="#63b8ff">1</text>
</a>
</g>
</g>
<!-- dir_e64dfdcbff0f609bc29171eebbcbbcc9 -->
<g id="node11" class="node">
<title>dir_e64dfdcbff0f609bc29171eebbcbbcc9</title>
<g id="a_node11"><a xlink:href="dir_e64dfdcbff0f609bc29171eebbcbbcc9.html" target="_top" xlink:title="concurrent">
<polygon fill="#feefdf" stroke="red" stroke-dasharray="5,2" points="437.5,-19 369.5,-19 369.5,0 437.5,0 437.5,-19"/>
<text text-anchor="middle" x="403.5" y="-7" font-family="Helvetica,sans-Serif" font-size="10.00">concurrent</text>
</a>
</g>
</g>
<!-- dir_822d95190bbb721a8341ddda411d2e34&#45;&gt;dir_e64dfdcbff0f609bc29171eebbcbbcc9 -->
<g id="edge13" class="edge">
<title>dir_822d95190bbb721a8341ddda411d2e34&#45;&gt;dir_e64dfdcbff0f609bc29171eebbcbbcc9</title>
<g id="a_edge13"><a xlink:href="dir_000036_000022.html" target="_top">
<path fill="none" stroke="#63b8ff" d="M308.66,-54.98C326.75,-46.5 354.78,-33.35 375.69,-23.54"/>
<polygon fill="#63b8ff" stroke="#63b8ff" points="377.45,-26.59 385.01,-19.17 374.47,-20.25 377.45,-26.59"/>
</a>
</g>
<g id="a_edge13&#45;headlabel"><a xlink:href="dir_000036_000022.html" target="_top" xlink:title="1">
<text text-anchor="middle" x="375.4" y="-28.18" font-family="Helvetica,sans-Serif" font-size="10.00" fill="#63b8ff">1</text>
</a>
</g>
</g>
</g>
</svg>
