<?xml version="1.0" encoding="UTF-8" standalone="no"?>
<!DOCTYPE svg PUBLIC "-//W3C//DTD SVG 1.1//EN"
 "http://www.w3.org/Graphics/SVG/1.1/DTD/svg11.dtd">
<!-- Generated by graphviz version 2.43.0 (0)
 -->
<!-- Title: userver/utils Pages: 1 -->
<svg width="437pt" height="141pt"
 viewBox="0.00 0.00 436.50 141.00" xmlns="http://www.w3.org/2000/svg" xmlns:xlink="http://www.w3.org/1999/xlink">
<g id="graph0" class="graph" transform="scale(1 1) rotate(0) translate(4 137)">
<title>userver/utils</title>
<g id="clust1" class="cluster">
<title>clusterdir_26f8c63b8c67b2ed6c1b7078f08f1e18</title>
<g id="a_clust1"><a xlink:href="dir_26f8c63b8c67b2ed6c1b7078f08f1e18.html" target="_top" xlink:title="userver">
<polygon fill="#feefdf" stroke="#404040" stroke-dasharray="5,2" points="8,-8 8,-125 365,-125 365,-8 8,-8"/>
<text text-anchor="middle" x="186.5" y="-113" font-family="Helvetica,sans-Serif" font-size="10.00">userver</text>
</a>
</g>
</g>
<g id="clust2" class="cluster">
<title>clusterdir_150bbd271f1504029fbda942e72f1022</title>
<g id="a_clust2"><a xlink:href="dir_150bbd271f1504029fbda942e72f1022.html" target="_top">
<polygon fill="#feefdf" stroke="#404040" stroke-width="2" points="167,-63 167,-98 357,-98 357,-63 167,-63"/>
</a>
</g>
</g>
<!-- dir_0c57938951830d22b3fad77440a122e7 -->
<g id="node1" class="node">
<title>dir_0c57938951830d22b3fad77440a122e7</title>
<g id="a_node1"><a xlink:href="dir_0c57938951830d22b3fad77440a122e7.html" target="_top" xlink:title="tracing">
<polygon fill="#fdaf60" stroke="#404040" points="66,-35 16,-35 16,-16 66,-16 66,-35"/>
<text text-anchor="middle" x="41" y="-23" font-family="Helvetica,sans-Serif" font-size="10.00">tracing</text>
</a>
</g>
</g>
<!-- dir_3285f5f33091c25af669261537588667 -->
<g id="node2" class="node">
<title>dir_3285f5f33091c25af669261537588667</title>
<g id="a_node2"><a xlink:href="dir_3285f5f33091c25af669261537588667.html" target="_top" xlink:title="rcu">
<polygon fill="#fdaf60" stroke="#404040" points="116,-35 84,-35 84,-16 116,-16 116,-35"/>
<text text-anchor="middle" x="100" y="-23" font-family="Helvetica,sans-Serif" font-size="10.00">rcu</text>
</a>
</g>
</g>
<!-- dir_40b88aef89447451c261dfd87412a7c6 -->
<g id="node3" class="node">
<title>dir_40b88aef89447451c261dfd87412a7c6</title>
<g id="a_node3"><a xlink:href="dir_40b88aef89447451c261dfd87412a7c6.html" target="_top" xlink:title="testsuite">
<polygon fill="#fdaf60" stroke="#404040" points="193.5,-35 134.5,-35 134.5,-16 193.5,-16 193.5,-35"/>
<text text-anchor="middle" x="164" y="-23" font-family="Helvetica,sans-Serif" font-size="10.00">testsuite</text>
</a>
</g>
</g>
<!-- dir_486b9402482621fd641691dc37d76b53 -->
<g id="node4" class="node">
<title>dir_486b9402482621fd641691dc37d76b53</title>
<g id="a_node4"><a xlink:href="dir_486b9402482621fd641691dc37d76b53.html" target="_top" xlink:title="engine">
<polygon fill="#fdaf60" stroke="red" points="357,-35 307,-35 307,-16 357,-16 357,-35"/>
<text text-anchor="middle" x="332" y="-23" font-family="Helvetica,sans-Serif" font-size="10.00">engine</text>
</a>
</g>
</g>
<!-- dir_994ef2a14b32cb8134d8b7b97f08d542 -->
<g id="node5" class="node">
<title>dir_994ef2a14b32cb8134d8b7b97f08d542</title>
<g id="a_node5"><a xlink:href="dir_994ef2a14b32cb8134d8b7b97f08d542.html" target="_top" xlink:title="components">
<polygon fill="#fdaf60" stroke="red" points="288.5,-35 211.5,-35 211.5,-16 288.5,-16 288.5,-35"/>
<text text-anchor="middle" x="250" y="-23" font-family="Helvetica,sans-Serif" font-size="10.00">components</text>
</a>
</g>
</g>
<!-- dir_150bbd271f1504029fbda942e72f1022 -->
<g id="node6" class="node">
<title>dir_150bbd271f1504029fbda942e72f1022</title>
<text text-anchor="middle" x="194" y="-78" font-family="Helvetica,sans-Serif" font-size="10.00">utils</text>
</g>
<!-- dir_150bbd271f1504029fbda942e72f1022&#45;&gt;dir_0c57938951830d22b3fad77440a122e7 -->
<g id="edge1" class="edge">
<title>dir_150bbd271f1504029fbda942e72f1022&#45;&gt;dir_0c57938951830d22b3fad77440a122e7</title>
<g id="a_edge1"><a xlink:href="dir_000149_000130.html" target="_top">
<path fill="none" stroke="#63b8ff" d="M174.93,-72.89C149.99,-64.26 105.87,-48.97 75.11,-38.31"/>
<polygon fill="#63b8ff" stroke="#63b8ff" points="76.23,-35 65.63,-35.03 73.93,-41.61 76.23,-35"/>
</a>
</g>
<g id="a_edge1&#45;headlabel"><a xlink:href="dir_000149_000130.html" target="_top" xlink:title="2">
<text text-anchor="middle" x="80.55" y="-30.99" font-family="Helvetica,sans-Serif" font-size="10.00" fill="#63b8ff">2</text>
</a>
</g>
</g>
<!-- dir_150bbd271f1504029fbda942e72f1022&#45;&gt;dir_3285f5f33091c25af669261537588667 -->
<g id="edge2" class="edge">
<title>dir_150bbd271f1504029fbda942e72f1022&#45;&gt;dir_3285f5f33091c25af669261537588667</title>
<g id="a_edge2"><a xlink:href="dir_000149_000107.html" target="_top">
<path fill="none" stroke="#63b8ff" d="M178.9,-70.98C164.18,-62.69 141.58,-49.94 124.33,-40.22"/>
<polygon fill="#63b8ff" stroke="#63b8ff" points="125.81,-37.03 115.38,-35.17 122.37,-43.13 125.81,-37.03"/>
</a>
</g>
<g id="a_edge2&#45;headlabel"><a xlink:href="dir_000149_000107.html" target="_top" xlink:title="1">
<text text-anchor="middle" x="130.33" y="-33.83" font-family="Helvetica,sans-Serif" font-size="10.00" fill="#63b8ff">1</text>
</a>
</g>
</g>
<!-- dir_150bbd271f1504029fbda942e72f1022&#45;&gt;dir_40b88aef89447451c261dfd87412a7c6 -->
<g id="edge3" class="edge">
<title>dir_150bbd271f1504029fbda942e72f1022&#45;&gt;dir_40b88aef89447451c261dfd87412a7c6</title>
<g id="a_edge3"><a xlink:href="dir_000149_000128.html" target="_top">
<path fill="none" stroke="#63b8ff" d="M189.05,-70.75C184.94,-63.49 178.97,-52.95 173.9,-43.98"/>
<polygon fill="#63b8ff" stroke="#63b8ff" points="176.83,-42.07 168.86,-35.09 170.74,-45.52 176.83,-42.07"/>
</a>
</g>
<g id="a_edge3&#45;headlabel"><a xlink:href="dir_000149_000128.html" target="_top" xlink:title="1">
<text text-anchor="middle" x="181.08" y="-41.3" font-family="Helvetica,sans-Serif" font-size="10.00" fill="#63b8ff">1</text>
</a>
</g>
</g>
<!-- dir_150bbd271f1504029fbda942e72f1022&#45;&gt;dir_486b9402482621fd641691dc37d76b53 -->
<g id="edge4" class="edge">
<title>dir_150bbd271f1504029fbda942e72f1022&#45;&gt;dir_486b9402482621fd641691dc37d76b53</title>
<g id="a_edge4"><a xlink:href="dir_000149_000046.html" target="_top">
<path fill="none" stroke="#63b8ff" d="M207.87,-70.88C212.58,-68.16 217.92,-65.27 223,-63 247.07,-52.25 275.31,-42.87 297.02,-36.32"/>
<polygon fill="#63b8ff" stroke="#63b8ff" points="298.21,-39.62 306.8,-33.42 296.22,-32.91 298.21,-39.62"/>
</a>
</g>
<g id="a_edge4&#45;headlabel"><a xlink:href="dir_000149_000046.html" target="_top" xlink:title="9">
<text text-anchor="middle" x="295.57" y="-40.86" font-family="Helvetica,sans-Serif" font-size="10.00" fill="#63b8ff">9</text>
</a>
</g>
</g>
<!-- dir_150bbd271f1504029fbda942e72f1022&#45;&gt;dir_994ef2a14b32cb8134d8b7b97f08d542 -->
<g id="edge5" class="edge">
<title>dir_150bbd271f1504029fbda942e72f1022&#45;&gt;dir_994ef2a14b32cb8134d8b7b97f08d542</title>
<g id="a_edge5"><a xlink:href="dir_000149_000021.html" target="_top">
<path fill="none" stroke="#63b8ff" d="M203,-70.98C211.19,-63.23 223.51,-51.58 233.47,-42.14"/>
<polygon fill="#63b8ff" stroke="#63b8ff" points="235.98,-44.59 240.84,-35.17 231.17,-39.5 235.98,-44.59"/>
</a>
</g>
<g id="a_edge5&#45;headlabel"><a xlink:href="dir_000149_000021.html" target="_top" xlink:title="3">
<text text-anchor="middle" x="235.32" y="-46.62" font-family="Helvetica,sans-Serif" font-size="10.00" fill="#63b8ff">3</text>
</a>
</g>
</g>
<!-- dir_a7364e945deb3de9e65ddca50507f79f -->
<g id="node9" class="node">
<title>dir_a7364e945deb3de9e65ddca50507f79f</title>
<g id="a_node9"><a xlink:href="dir_a7364e945deb3de9e65ddca50507f79f.html" target="_top" xlink:title="userver">
<polygon fill="#feefdf" stroke="red" points="428.5,-35 375.5,-35 375.5,-16 428.5,-16 428.5,-35"/>
<text text-anchor="middle" x="402" y="-23" font-family="Helvetica,sans-Serif" font-size="10.00">userver</text>
</a>
</g>
</g>
<!-- dir_150bbd271f1504029fbda942e72f1022&#45;&gt;dir_a7364e945deb3de9e65ddca50507f79f -->
<g id="edge6" class="edge">
<title>dir_150bbd271f1504029fbda942e72f1022&#45;&gt;dir_a7364e945deb3de9e65ddca50507f79f</title>
<g id="a_edge6"><a xlink:href="dir_000149_000146.html" target="_top">
<path fill="none" stroke="#63b8ff" d="M206.84,-70.99C211.73,-68.08 217.46,-65.04 223,-63 281.96,-41.25 302.52,-48.63 365.36,-35.67"/>
<polygon fill="#63b8ff" stroke="#63b8ff" points="366.34,-39.04 375.38,-33.51 364.87,-32.2 366.34,-39.04"/>
</a>
</g>
<g id="a_edge6&#45;headlabel"><a xlink:href="dir_000149_000146.html" target="_top" xlink:title="30">
<text text-anchor="middle" x="363.43" y="-40.08" font-family="Helvetica,sans-Serif" font-size="10.00" fill="#63b8ff">30</text>
</a>
</g>
</g>
<!-- dir_711ed6bd7af283662f9e60bcc03a54df -->
<g id="node7" class="node">
<title>dir_711ed6bd7af283662f9e60bcc03a54df</title>
<g id="a_node7"><a xlink:href="dir_711ed6bd7af283662f9e60bcc03a54df.html" target="_top" xlink:title="impl">
<polygon fill="#fdaf60" stroke="#404040" points="349,-90 311,-90 311,-71 349,-71 349,-90"/>
<text text-anchor="middle" x="330" y="-78" font-family="Helvetica,sans-Serif" font-size="10.00">impl</text>
</a>
</g>
</g>
<!-- dir_711ed6bd7af283662f9e60bcc03a54df&#45;&gt;dir_486b9402482621fd641691dc37d76b53 -->
<g id="edge7" class="edge">
<title>dir_711ed6bd7af283662f9e60bcc03a54df&#45;&gt;dir_486b9402482621fd641691dc37d76b53</title>
<g id="a_edge7"><a xlink:href="dir_000068_000046.html" target="_top">
<path fill="none" stroke="#63b8ff" d="M330.33,-70.75C330.59,-63.8 330.97,-53.85 331.3,-45.13"/>
<polygon fill="#63b8ff" stroke="#63b8ff" points="334.8,-45.21 331.68,-35.09 327.8,-44.95 334.8,-45.21"/>
</a>
</g>
<g id="a_edge7&#45;headlabel"><a xlink:href="dir_000068_000046.html" target="_top" xlink:title="1">
<text text-anchor="middle" x="337.5" y="-46.41" font-family="Helvetica,sans-Serif" font-size="10.00" fill="#63b8ff">1</text>
</a>
</g>
</g>
<!-- dir_711ed6bd7af283662f9e60bcc03a54df&#45;&gt;dir_a7364e945deb3de9e65ddca50507f79f -->
<g id="edge8" class="edge">
<title>dir_711ed6bd7af283662f9e60bcc03a54df&#45;&gt;dir_a7364e945deb3de9e65ddca50507f79f</title>
<g id="a_edge8"><a xlink:href="dir_000068_000146.html" target="_top">
<path fill="none" stroke="#63b8ff" d="M341.57,-70.98C352.42,-63 368.88,-50.88 381.88,-41.31"/>
<polygon fill="#63b8ff" stroke="#63b8ff" points="384.24,-43.92 390.22,-35.17 380.09,-38.28 384.24,-43.92"/>
</a>
</g>
<g id="a_edge8&#45;headlabel"><a xlink:href="dir_000068_000146.html" target="_top" xlink:title="4">
<text text-anchor="middle" x="383.03" y="-45.83" font-family="Helvetica,sans-Serif" font-size="10.00" fill="#63b8ff">4</text>
</a>
</g>
</g>
<!-- dir_f773d5e1af49522d99f36104aefb07ab -->
<g id="node8" class="node">
<title>dir_f773d5e1af49522d99f36104aefb07ab</title>
<g id="a_node8"><a xlink:href="dir_f773d5e1af49522d99f36104aefb07ab.html" target="_top" xlink:title="statistics">
<polygon fill="#fdaf60" stroke="#404040" points="292.5,-90 231.5,-90 231.5,-71 292.5,-71 292.5,-90"/>
<text text-anchor="middle" x="262" y="-78" font-family="Helvetica,sans-Serif" font-size="10.00">statistics</text>
</a>
</g>
</g>
<!-- dir_f773d5e1af49522d99f36104aefb07ab&#45;&gt;dir_486b9402482621fd641691dc37d76b53 -->
<g id="edge9" class="edge">
<title>dir_f773d5e1af49522d99f36104aefb07ab&#45;&gt;dir_486b9402482621fd641691dc37d76b53</title>
<g id="a_edge9"><a xlink:href="dir_000116_000046.html" target="_top">
<path fill="none" stroke="#63b8ff" d="M273.25,-70.98C283.8,-63 299.8,-50.88 312.44,-41.31"/>
<polygon fill="#63b8ff" stroke="#63b8ff" points="314.69,-44 320.55,-35.17 310.46,-38.42 314.69,-44"/>
</a>
</g>
<g id="a_edge9&#45;headlabel"><a xlink:href="dir_000116_000046.html" target="_top" xlink:title="2">
<text text-anchor="middle" x="313.54" y="-45.93" font-family="Helvetica,sans-Serif" font-size="10.00" fill="#63b8ff">2</text>
</a>
</g>
</g>
<!-- dir_f773d5e1af49522d99f36104aefb07ab&#45;&gt;dir_994ef2a14b32cb8134d8b7b97f08d542 -->
<g id="edge10" class="edge">
<title>dir_f773d5e1af49522d99f36104aefb07ab&#45;&gt;dir_994ef2a14b32cb8134d8b7b97f08d542</title>
<g id="a_edge10"><a xlink:href="dir_000116_000021.html" target="_top">
<path fill="none" stroke="#63b8ff" d="M260.02,-70.75C258.43,-63.72 256.14,-53.62 254.15,-44.84"/>
<polygon fill="#63b8ff" stroke="#63b8ff" points="257.57,-44.07 251.94,-35.09 250.74,-45.62 257.57,-44.07"/>
</a>
</g>
<g id="a_edge10&#45;headlabel"><a xlink:href="dir_000116_000021.html" target="_top" xlink:title="2">
<text text-anchor="middle" x="261.13" y="-44.45" font-family="Helvetica,sans-Serif" font-size="10.00" fill="#63b8ff">2</text>
</a>
</g>
</g>
<!-- dir_f773d5e1af49522d99f36104aefb07ab&#45;&gt;dir_a7364e945deb3de9e65ddca50507f79f -->
<g id="edge11" class="edge">
<title>dir_f773d5e1af49522d99f36104aefb07ab&#45;&gt;dir_a7364e945deb3de9e65ddca50507f79f</title>
<g id="a_edge11"><a xlink:href="dir_000116_000146.html" target="_top">
<path fill="none" stroke="#63b8ff" d="M282.28,-70.94C288.58,-68.34 295.56,-65.5 302,-63 323.86,-54.51 348.61,-45.47 368.03,-38.51"/>
<polygon fill="#63b8ff" stroke="#63b8ff" points="369.41,-41.73 377.65,-35.07 367.05,-35.14 369.41,-41.73"/>
</a>
</g>
<g id="a_edge11&#45;headlabel"><a xlink:href="dir_000116_000146.html" target="_top" xlink:title="20">
<text text-anchor="middle" x="366.98" y="-43.11" font-family="Helvetica,sans-Serif" font-size="10.00" fill="#63b8ff">20</text>
</a>
</g>
</g>
</g>
</svg>
