<?xml version="1.0" encoding="UTF-8" standalone="no"?>
<!DOCTYPE svg PUBLIC "-//W3C//DTD SVG 1.1//EN"
 "http://www.w3.org/Graphics/SVG/1.1/DTD/svg11.dtd">
<!-- Generated by graphviz version 2.43.0 (0)
 -->
<!-- Title: userver Pages: 1 -->
<svg width="542pt" height="279pt"
 viewBox="0.00 0.00 542.00 279.00" xmlns="http://www.w3.org/2000/svg" xmlns:xlink="http://www.w3.org/1999/xlink">
<g id="graph0" class="graph" transform="scale(1 1) rotate(0) translate(4 275)">
<title>userver</title>
<g id="clust1" class="cluster">
<title>clusterdir_a7364e945deb3de9e65ddca50507f79f</title>
<g id="a_clust1"><a xlink:href="dir_a7364e945deb3de9e65ddca50507f79f.html" target="_top">
<polygon fill="#feefdf" stroke="#404040" stroke-width="2" points="8,-8 8,-263 526,-263 526,-8 8,-8"/>
</a>
</g>
</g>
<!-- dir_a7364e945deb3de9e65ddca50507f79f -->
<g id="node1" class="node">
<title>dir_a7364e945deb3de9e65ddca50507f79f</title>
<text text-anchor="middle" x="491" y="-243" font-family="Helvetica,sans-Serif" font-size="10.00">userver</text>
</g>
<!-- dir_5eaae4795133ba5d9ddcce4473c3fc83 -->
<g id="node2" class="node">
<title>dir_5eaae4795133ba5d9ddcce4473c3fc83</title>
<g id="a_node2"><a xlink:href="dir_5eaae4795133ba5d9ddcce4473c3fc83.html" target="_top" xlink:title="cache">
<polygon fill="#fdaf60" stroke="#404040" points="446.5,-255 401.5,-255 401.5,-236 446.5,-236 446.5,-255"/>
<text text-anchor="middle" x="424" y="-243" font-family="Helvetica,sans-Serif" font-size="10.00">cache</text>
</a>
</g>
</g>
<!-- dir_257c7dd21ee5674f3b200d28efeb46c0 -->
<g id="node12" class="node">
<title>dir_257c7dd21ee5674f3b200d28efeb46c0</title>
<g id="a_node12"><a xlink:href="dir_257c7dd21ee5674f3b200d28efeb46c0.html" target="_top" xlink:title="utils">
<polygon fill="#fdaf60" stroke="#404040" points="276,-200 238,-200 238,-181 276,-181 276,-200"/>
<text text-anchor="middle" x="257" y="-188" font-family="Helvetica,sans-Serif" font-size="10.00">utils</text>
</a>
</g>
</g>
<!-- dir_5eaae4795133ba5d9ddcce4473c3fc83&#45;&gt;dir_257c7dd21ee5674f3b200d28efeb46c0 -->
<g id="edge1" class="edge">
<title>dir_5eaae4795133ba5d9ddcce4473c3fc83&#45;&gt;dir_257c7dd21ee5674f3b200d28efeb46c0</title>
<g id="a_edge1"><a xlink:href="dir_000013_000152.html" target="_top">
<path fill="none" stroke="#63b8ff" d="M401.48,-237.35C371.59,-227.87 318.79,-211.11 285.97,-200.69"/>
<polygon fill="#63b8ff" stroke="#63b8ff" points="286.66,-197.24 276.07,-197.55 284.54,-203.91 286.66,-197.24"/>
</a>
</g>
<g id="a_edge1&#45;headlabel"><a xlink:href="dir_000013_000152.html" target="_top" xlink:title="1">
<text text-anchor="middle" x="290.95" y="-193.12" font-family="Helvetica,sans-Serif" font-size="10.00" fill="#63b8ff">1</text>
</a>
</g>
</g>
<!-- dir_43758eace6093c93b1a9e9554aba0822 -->
<g id="node3" class="node">
<title>dir_43758eace6093c93b1a9e9554aba0822</title>
<g id="a_node3"><a xlink:href="dir_43758eace6093c93b1a9e9554aba0822.html" target="_top" xlink:title="compiler">
<polygon fill="#fdaf60" stroke="#404040" points="286.5,-35 227.5,-35 227.5,-16 286.5,-16 286.5,-35"/>
<text text-anchor="middle" x="257" y="-23" font-family="Helvetica,sans-Serif" font-size="10.00">compiler</text>
</a>
</g>
</g>
<!-- dir_739cbd17459db35399ebed8c678cc9c3 -->
<g id="node4" class="node">
<title>dir_739cbd17459db35399ebed8c678cc9c3</title>
<g id="a_node4"><a xlink:href="dir_739cbd17459db35399ebed8c678cc9c3.html" target="_top" xlink:title="crypto">
<polygon fill="#fdaf60" stroke="#404040" points="383.5,-255 336.5,-255 336.5,-236 383.5,-236 383.5,-255"/>
<text text-anchor="middle" x="360" y="-243" font-family="Helvetica,sans-Serif" font-size="10.00">crypto</text>
</a>
</g>
</g>
<!-- dir_739cbd17459db35399ebed8c678cc9c3&#45;&gt;dir_257c7dd21ee5674f3b200d28efeb46c0 -->
<g id="edge2" class="edge">
<title>dir_739cbd17459db35399ebed8c678cc9c3&#45;&gt;dir_257c7dd21ee5674f3b200d28efeb46c0</title>
<g id="a_edge2"><a xlink:href="dir_000028_000152.html" target="_top">
<path fill="none" stroke="#63b8ff" d="M343.45,-235.98C327.11,-227.57 301.87,-214.59 282.87,-204.81"/>
<polygon fill="#63b8ff" stroke="#63b8ff" points="284.34,-201.63 273.85,-200.17 281.14,-207.86 284.34,-201.63"/>
</a>
</g>
<g id="a_edge2&#45;headlabel"><a xlink:href="dir_000028_000152.html" target="_top" xlink:title="4">
<text text-anchor="middle" x="288.84" y="-198.25" font-family="Helvetica,sans-Serif" font-size="10.00" fill="#63b8ff">4</text>
</a>
</g>
</g>
<!-- dir_9ca62777876679989d8f85ab1c35f1f7 -->
<g id="node5" class="node">
<title>dir_9ca62777876679989d8f85ab1c35f1f7</title>
<g id="a_node5"><a xlink:href="dir_9ca62777876679989d8f85ab1c35f1f7.html" target="_top" xlink:title="decimal64">
<polygon fill="#fdaf60" stroke="#404040" points="138,-255 70,-255 70,-236 138,-236 138,-255"/>
<text text-anchor="middle" x="104" y="-243" font-family="Helvetica,sans-Serif" font-size="10.00">decimal64</text>
</a>
</g>
</g>
<!-- dir_e5d739089ab2f029c385362e3cd8d126 -->
<g id="node6" class="node">
<title>dir_e5d739089ab2f029c385362e3cd8d126</title>
<g id="a_node6"><a xlink:href="dir_e5d739089ab2f029c385362e3cd8d126.html" target="_top" xlink:title="formats">
<polygon fill="#fdaf60" stroke="#404040" points="144.5,-90 89.5,-90 89.5,-71 144.5,-71 144.5,-90"/>
<text text-anchor="middle" x="117" y="-78" font-family="Helvetica,sans-Serif" font-size="10.00">formats</text>
</a>
</g>
</g>
<!-- dir_9ca62777876679989d8f85ab1c35f1f7&#45;&gt;dir_e5d739089ab2f029c385362e3cd8d126 -->
<g id="edge4" class="edge">
<title>dir_9ca62777876679989d8f85ab1c35f1f7&#45;&gt;dir_e5d739089ab2f029c385362e3cd8d126</title>
<g id="a_edge4"><a xlink:href="dir_000032_000050.html" target="_top">
<path fill="none" stroke="#63b8ff" d="M104.61,-235.87C106.02,-216.32 109.59,-167.12 113,-126 113.71,-117.49 114.54,-108.07 115.27,-100.09"/>
<polygon fill="#63b8ff" stroke="#63b8ff" points="118.77,-100.31 116.2,-90.03 111.8,-99.66 118.77,-100.31"/>
</a>
</g>
<g id="a_edge4&#45;headlabel"><a xlink:href="dir_000032_000050.html" target="_top" xlink:title="1">
<text text-anchor="middle" x="121.26" y="-101.65" font-family="Helvetica,sans-Serif" font-size="10.00" fill="#63b8ff">1</text>
</a>
</g>
</g>
<!-- dir_9ca62777876679989d8f85ab1c35f1f7&#45;&gt;dir_257c7dd21ee5674f3b200d28efeb46c0 -->
<g id="edge3" class="edge">
<title>dir_9ca62777876679989d8f85ab1c35f1f7&#45;&gt;dir_257c7dd21ee5674f3b200d28efeb46c0</title>
<g id="a_edge3"><a xlink:href="dir_000032_000152.html" target="_top">
<path fill="none" stroke="#63b8ff" d="M128.58,-235.98C155.78,-226.56 199.57,-211.39 228.32,-201.44"/>
<polygon fill="#63b8ff" stroke="#63b8ff" points="229.5,-204.73 237.81,-198.15 227.21,-198.11 229.5,-204.73"/>
</a>
</g>
<g id="a_edge3&#45;headlabel"><a xlink:href="dir_000032_000152.html" target="_top" xlink:title="3">
<text text-anchor="middle" x="227.04" y="-206.09" font-family="Helvetica,sans-Serif" font-size="10.00" fill="#63b8ff">3</text>
</a>
</g>
</g>
<!-- dir_e5d739089ab2f029c385362e3cd8d126&#45;&gt;dir_43758eace6093c93b1a9e9554aba0822 -->
<g id="edge6" class="edge">
<title>dir_e5d739089ab2f029c385362e3cd8d126&#45;&gt;dir_43758eace6093c93b1a9e9554aba0822</title>
<g id="a_edge6"><a xlink:href="dir_000050_000020.html" target="_top">
<path fill="none" stroke="#63b8ff" d="M139.49,-70.98C162.52,-62.27 198.54,-48.63 224.63,-38.75"/>
<polygon fill="#63b8ff" stroke="#63b8ff" points="225.98,-41.98 234.1,-35.17 223.51,-35.44 225.98,-41.98"/>
</a>
</g>
<g id="a_edge6&#45;headlabel"><a xlink:href="dir_000050_000020.html" target="_top" xlink:title="3">
<text text-anchor="middle" x="223.63" y="-43.41" font-family="Helvetica,sans-Serif" font-size="10.00" fill="#63b8ff">3</text>
</a>
</g>
</g>
<!-- dir_e5d739089ab2f029c385362e3cd8d126&#45;&gt;dir_257c7dd21ee5674f3b200d28efeb46c0 -->
<g id="edge5" class="edge">
<title>dir_e5d739089ab2f029c385362e3cd8d126&#45;&gt;dir_257c7dd21ee5674f3b200d28efeb46c0</title>
<g id="a_edge5"><a xlink:href="dir_000050_000152.html" target="_top">
<path fill="none" stroke="#63b8ff" d="M121.45,-90.01C123.41,-103.35 122.79,-129.28 136,-145 158.99,-172.37 199.61,-182.95 227.54,-187.01"/>
<polygon fill="#63b8ff" stroke="#63b8ff" points="227.2,-190.5 237.56,-188.27 228.07,-183.55 227.2,-190.5"/>
</a>
</g>
<g id="a_edge5&#45;headlabel"><a xlink:href="dir_000050_000152.html" target="_top" xlink:title="24">
<text text-anchor="middle" x="223.28" y="-190.36" font-family="Helvetica,sans-Serif" font-size="10.00" fill="#63b8ff">24</text>
</a>
</g>
</g>
<!-- dir_842a4b3f7c8fa9c683a2b1be118ab553 -->
<g id="node7" class="node">
<title>dir_842a4b3f7c8fa9c683a2b1be118ab553</title>
<g id="a_node7"><a xlink:href="dir_842a4b3f7c8fa9c683a2b1be118ab553.html" target="_top" xlink:title="fs">
<polygon fill="#fdaf60" stroke="#404040" points="318.5,-255 289.5,-255 289.5,-236 318.5,-236 318.5,-255"/>
<text text-anchor="middle" x="304" y="-243" font-family="Helvetica,sans-Serif" font-size="10.00">fs</text>
</a>
</g>
</g>
<!-- dir_842a4b3f7c8fa9c683a2b1be118ab553&#45;&gt;dir_257c7dd21ee5674f3b200d28efeb46c0 -->
<g id="edge7" class="edge">
<title>dir_842a4b3f7c8fa9c683a2b1be118ab553&#45;&gt;dir_257c7dd21ee5674f3b200d28efeb46c0</title>
<g id="a_edge7"><a xlink:href="dir_000052_000152.html" target="_top">
<path fill="none" stroke="#63b8ff" d="M296.24,-235.75C289.53,-228.18 279.66,-217.05 271.49,-207.84"/>
<polygon fill="#63b8ff" stroke="#63b8ff" points="273.87,-205.25 264.62,-200.09 268.63,-209.89 273.87,-205.25"/>
</a>
</g>
<g id="a_edge7&#45;headlabel"><a xlink:href="dir_000052_000152.html" target="_top" xlink:title="2">
<text text-anchor="middle" x="278.38" y="-203.55" font-family="Helvetica,sans-Serif" font-size="10.00" fill="#63b8ff">2</text>
</a>
</g>
</g>
<!-- dir_9056ee4a7ea99326e73de66e13be08f8 -->
<g id="node8" class="node">
<title>dir_9056ee4a7ea99326e73de66e13be08f8</title>
<g id="a_node8"><a xlink:href="dir_9056ee4a7ea99326e73de66e13be08f8.html" target="_top" xlink:title="hostinfo">
<polygon fill="#fdaf60" stroke="#404040" points="212,-255 156,-255 156,-236 212,-236 212,-255"/>
<text text-anchor="middle" x="184" y="-243" font-family="Helvetica,sans-Serif" font-size="10.00">hostinfo</text>
</a>
</g>
</g>
<!-- dir_8eac57562c78cd72fde0fc1d80c636cf -->
<g id="node9" class="node">
<title>dir_8eac57562c78cd72fde0fc1d80c636cf</title>
<g id="a_node9"><a xlink:href="dir_8eac57562c78cd72fde0fc1d80c636cf.html" target="_top" xlink:title="http">
<polygon fill="#fdaf60" stroke="#404040" points="52,-255 16,-255 16,-236 52,-236 52,-255"/>
<text text-anchor="middle" x="34" y="-243" font-family="Helvetica,sans-Serif" font-size="10.00">http</text>
</a>
</g>
</g>
<!-- dir_8eac57562c78cd72fde0fc1d80c636cf&#45;&gt;dir_e5d739089ab2f029c385362e3cd8d126 -->
<g id="edge9" class="edge">
<title>dir_8eac57562c78cd72fde0fc1d80c636cf&#45;&gt;dir_e5d739089ab2f029c385362e3cd8d126</title>
<g id="a_edge9"><a xlink:href="dir_000058_000050.html" target="_top">
<path fill="none" stroke="#63b8ff" d="M38.46,-235.74C51.58,-209.98 90.2,-134.13 107.92,-99.33"/>
<polygon fill="#63b8ff" stroke="#63b8ff" points="111.1,-100.81 112.52,-90.31 104.86,-97.63 111.1,-100.81"/>
</a>
</g>
<g id="a_edge9&#45;headlabel"><a xlink:href="dir_000058_000050.html" target="_top" xlink:title="2">
<text text-anchor="middle" x="112" y="-102.8" font-family="Helvetica,sans-Serif" font-size="10.00" fill="#63b8ff">2</text>
</a>
</g>
</g>
<!-- dir_8eac57562c78cd72fde0fc1d80c636cf&#45;&gt;dir_257c7dd21ee5674f3b200d28efeb46c0 -->
<g id="edge8" class="edge">
<title>dir_8eac57562c78cd72fde0fc1d80c636cf&#45;&gt;dir_257c7dd21ee5674f3b200d28efeb46c0</title>
<g id="a_edge8"><a xlink:href="dir_000058_000152.html" target="_top">
<path fill="none" stroke="#63b8ff" d="M52.24,-238.54C55.16,-237.65 58.15,-236.77 61,-236 119.81,-220.1 189.56,-205.19 227.98,-197.31"/>
<polygon fill="#63b8ff" stroke="#63b8ff" points="228.85,-200.71 237.95,-195.28 227.45,-193.85 228.85,-200.71"/>
</a>
</g>
<g id="a_edge8&#45;headlabel"><a xlink:href="dir_000058_000152.html" target="_top" xlink:title="5">
<text text-anchor="middle" x="225.89" y="-201.71" font-family="Helvetica,sans-Serif" font-size="10.00" fill="#63b8ff">5</text>
</a>
</g>
</g>
<!-- dir_c50c586003329c6e30f96d9149b241dd -->
<g id="node10" class="node">
<title>dir_c50c586003329c6e30f96d9149b241dd</title>
<g id="a_node10"><a xlink:href="dir_c50c586003329c6e30f96d9149b241dd.html" target="_top" xlink:title="logging">
<polygon fill="#fdaf60" stroke="#404040" points="283.5,-145 230.5,-145 230.5,-126 283.5,-126 283.5,-145"/>
<text text-anchor="middle" x="257" y="-133" font-family="Helvetica,sans-Serif" font-size="10.00">logging</text>
</a>
</g>
</g>
<!-- dir_c50c586003329c6e30f96d9149b241dd&#45;&gt;dir_43758eace6093c93b1a9e9554aba0822 -->
<g id="edge11" class="edge">
<title>dir_c50c586003329c6e30f96d9149b241dd&#45;&gt;dir_43758eace6093c93b1a9e9554aba0822</title>
<g id="a_edge11"><a xlink:href="dir_000090_000020.html" target="_top">
<path fill="none" stroke="#63b8ff" d="M257,-125.66C257,-108.17 257,-68.8 257,-45.27"/>
<polygon fill="#63b8ff" stroke="#63b8ff" points="260.5,-45.16 257,-35.16 253.5,-45.16 260.5,-45.16"/>
</a>
</g>
<g id="a_edge11&#45;headlabel"><a xlink:href="dir_000090_000020.html" target="_top" xlink:title="2">
<text text-anchor="middle" x="263.34" y="-46.25" font-family="Helvetica,sans-Serif" font-size="10.00" fill="#63b8ff">2</text>
</a>
</g>
</g>
<!-- dir_c50c586003329c6e30f96d9149b241dd&#45;&gt;dir_e5d739089ab2f029c385362e3cd8d126 -->
<g id="edge12" class="edge">
<title>dir_c50c586003329c6e30f96d9149b241dd&#45;&gt;dir_e5d739089ab2f029c385362e3cd8d126</title>
<g id="a_edge12"><a xlink:href="dir_000090_000050.html" target="_top">
<path fill="none" stroke="#63b8ff" d="M234.51,-125.98C211.48,-117.27 175.46,-103.63 149.37,-93.75"/>
<polygon fill="#63b8ff" stroke="#63b8ff" points="150.49,-90.44 139.9,-90.17 148.02,-96.98 150.49,-90.44"/>
</a>
</g>
<g id="a_edge12&#45;headlabel"><a xlink:href="dir_000090_000050.html" target="_top" xlink:title="1">
<text text-anchor="middle" x="154.86" y="-86.55" font-family="Helvetica,sans-Serif" font-size="10.00" fill="#63b8ff">1</text>
</a>
</g>
</g>
<!-- dir_c50c586003329c6e30f96d9149b241dd&#45;&gt;dir_257c7dd21ee5674f3b200d28efeb46c0 -->
<g id="edge10" class="edge">
<title>dir_c50c586003329c6e30f96d9149b241dd&#45;&gt;dir_257c7dd21ee5674f3b200d28efeb46c0</title>
<g id="a_edge10"><a xlink:href="dir_000090_000152.html" target="_top">
<path fill="none" stroke="#63b8ff" d="M262.13,-145.09C263.64,-151.99 264.09,-161.93 263.49,-170.66"/>
<polygon fill="#63b8ff" stroke="#63b8ff" points="260,-170.38 262.17,-180.75 266.94,-171.29 260,-170.38"/>
</a>
</g>
<g id="a_edge10&#45;headlabel"><a xlink:href="dir_000090_000152.html" target="_top" xlink:title="3">
<text text-anchor="middle" x="257.65" y="-163.94" font-family="Helvetica,sans-Serif" font-size="10.00" fill="#63b8ff">3</text>
</a>
</g>
</g>
<!-- dir_706b060b3d3d0eb046e4d1da0b7d82e2 -->
<g id="node11" class="node">
<title>dir_706b060b3d3d0eb046e4d1da0b7d82e2</title>
<g id="a_node11"><a xlink:href="dir_706b060b3d3d0eb046e4d1da0b7d82e2.html" target="_top" xlink:title="utest">
<polygon fill="#fdaf60" stroke="#404040" points="271.5,-255 230.5,-255 230.5,-236 271.5,-236 271.5,-255"/>
<text text-anchor="middle" x="251" y="-243" font-family="Helvetica,sans-Serif" font-size="10.00">utest</text>
</a>
</g>
</g>
<!-- dir_706b060b3d3d0eb046e4d1da0b7d82e2&#45;&gt;dir_257c7dd21ee5674f3b200d28efeb46c0 -->
<g id="edge13" class="edge">
<title>dir_706b060b3d3d0eb046e4d1da0b7d82e2&#45;&gt;dir_257c7dd21ee5674f3b200d28efeb46c0</title>
<g id="a_edge13"><a xlink:href="dir_000148_000152.html" target="_top">
<path fill="none" stroke="#63b8ff" d="M251.99,-235.75C252.78,-228.8 253.9,-218.85 254.89,-210.13"/>
<polygon fill="#63b8ff" stroke="#63b8ff" points="258.38,-210.42 256.03,-200.09 251.42,-209.63 258.38,-210.42"/>
</a>
</g>
<g id="a_edge13&#45;headlabel"><a xlink:href="dir_000148_000152.html" target="_top" xlink:title="2">
<text text-anchor="middle" x="260.8" y="-211.81" font-family="Helvetica,sans-Serif" font-size="10.00" fill="#63b8ff">2</text>
</a>
</g>
</g>
<!-- dir_257c7dd21ee5674f3b200d28efeb46c0&#45;&gt;dir_43758eace6093c93b1a9e9554aba0822 -->
<g id="edge14" class="edge">
<title>dir_257c7dd21ee5674f3b200d28efeb46c0&#45;&gt;dir_43758eace6093c93b1a9e9554aba0822</title>
<g id="a_edge14"><a xlink:href="dir_000152_000020.html" target="_top">
<path fill="none" stroke="#63b8ff" d="M267.16,-180.81C275.9,-172.6 287.9,-159.43 293,-145 305.61,-109.37 283.93,-66.8 269.1,-43.62"/>
<polygon fill="#63b8ff" stroke="#63b8ff" points="271.95,-41.57 263.47,-35.21 266.13,-45.47 271.95,-41.57"/>
</a>
</g>
<g id="a_edge14&#45;headlabel"><a xlink:href="dir_000152_000020.html" target="_top" xlink:title="2">
<text text-anchor="middle" x="276.3" y="-40.48" font-family="Helvetica,sans-Serif" font-size="10.00" fill="#63b8ff">2</text>
</a>
</g>
</g>
<!-- dir_257c7dd21ee5674f3b200d28efeb46c0&#45;&gt;dir_e5d739089ab2f029c385362e3cd8d126 -->
<g id="edge16" class="edge">
<title>dir_257c7dd21ee5674f3b200d28efeb46c0&#45;&gt;dir_e5d739089ab2f029c385362e3cd8d126</title>
<g id="a_edge16"><a xlink:href="dir_000152_000050.html" target="_top">
<path fill="none" stroke="#63b8ff" d="M237.97,-189.17C207.07,-187.72 147.76,-180.44 118,-145 107.58,-132.59 105.76,-113.83 107.78,-99.92"/>
<polygon fill="#63b8ff" stroke="#63b8ff" points="111.23,-100.55 110.14,-90.01 104.42,-98.93 111.23,-100.55"/>
</a>
</g>
<g id="a_edge16&#45;headlabel"><a xlink:href="dir_000152_000050.html" target="_top" xlink:title="5">
<text text-anchor="middle" x="113.16" y="-102.2" font-family="Helvetica,sans-Serif" font-size="10.00" fill="#63b8ff">5</text>
</a>
</g>
</g>
<!-- dir_257c7dd21ee5674f3b200d28efeb46c0&#45;&gt;dir_c50c586003329c6e30f96d9149b241dd -->
<g id="edge15" class="edge">
<title>dir_257c7dd21ee5674f3b200d28efeb46c0&#45;&gt;dir_c50c586003329c6e30f96d9149b241dd</title>
<g id="a_edge15"><a xlink:href="dir_000152_000090.html" target="_top">
<path fill="none" stroke="#63b8ff" d="M251.83,-180.75C250.34,-173.8 249.9,-163.85 250.52,-155.13"/>
<polygon fill="#63b8ff" stroke="#63b8ff" points="254.01,-155.47 251.87,-145.09 247.07,-154.53 254.01,-155.47"/>
</a>
</g>
<g id="a_edge15&#45;headlabel"><a xlink:href="dir_000152_000090.html" target="_top" xlink:title="3">
<text text-anchor="middle" x="256.34" y="-156.91" font-family="Helvetica,sans-Serif" font-size="10.00" fill="#63b8ff">3</text>
</a>
</g>
</g>
<!-- dir_20e1f7ca20350e17d593542b1055925c -->
<g id="node13" class="node">
<title>dir_20e1f7ca20350e17d593542b1055925c</title>
<g id="a_node13"><a xlink:href="dir_20e1f7ca20350e17d593542b1055925c.html" target="_top" xlink:title="yaml_config">
<polygon fill="#fdaf60" stroke="#404040" points="212,-145 136,-145 136,-126 212,-126 212,-145"/>
<text text-anchor="middle" x="174" y="-133" font-family="Helvetica,sans-Serif" font-size="10.00">yaml_config</text>
</a>
</g>
</g>
<!-- dir_20e1f7ca20350e17d593542b1055925c&#45;&gt;dir_e5d739089ab2f029c385362e3cd8d126 -->
<g id="edge17" class="edge">
<title>dir_20e1f7ca20350e17d593542b1055925c&#45;&gt;dir_e5d739089ab2f029c385362e3cd8d126</title>
<g id="a_edge17"><a xlink:href="dir_000155_000050.html" target="_top">
<path fill="none" stroke="#63b8ff" d="M164.84,-125.98C156.5,-118.23 143.97,-106.58 133.82,-97.14"/>
<polygon fill="#63b8ff" stroke="#63b8ff" points="136.03,-94.42 126.32,-90.17 131.26,-99.54 136.03,-94.42"/>
</a>
</g>
<g id="a_edge17&#45;headlabel"><a xlink:href="dir_000155_000050.html" target="_top" xlink:title="7">
<text text-anchor="middle" x="140.6" y="-92.28" font-family="Helvetica,sans-Serif" font-size="10.00" fill="#63b8ff">7</text>
</a>
</g>
</g>
</g>
</svg>
