<?xml version="1.0" encoding="UTF-8" standalone="no"?>
<!DOCTYPE svg PUBLIC "-//W3C//DTD SVG 1.1//EN"
 "http://www.w3.org/Graphics/SVG/1.1/DTD/svg11.dtd">
<!-- Generated by graphviz version 2.43.0 (0)
 -->
<!-- Title: Graphical Class Hierarchy Pages: 1 -->
<svg width="756pt" height="931pt"
 viewBox="0.00 0.00 756.00 931.00" xmlns="http://www.w3.org/2000/svg" xmlns:xlink="http://www.w3.org/1999/xlink">
<g id="graph0" class="graph" transform="scale(1 1) rotate(0) translate(4 927)">
<title>Graphical Class Hierarchy</title>
<!-- Node0 -->
<g id="Node000000" class="node">
<title>Node0</title>
<g id="a_Node000000"><a xlink:title=" ">
<polygon fill="#e0e0e0" stroke="#999999" points="131,-598 0,-598 0,-557 131,-557 131,-598"/>
<text text-anchor="start" x="8" y="-586" font-family="Helvetica,sans-Serif" font-size="10.00">storages::postgres</text>
<text text-anchor="start" x="8" y="-575" font-family="Helvetica,sans-Serif" font-size="10.00">::io::detail::BufferParser</text>
<text text-anchor="middle" x="65.5" y="-564" font-family="Helvetica,sans-Serif" font-size="10.00">Base&lt; T &gt;</text>
</a>
</g>
</g>
<!-- Node1 -->
<g id="Node000001" class="node">
<title>Node1</title>
<g id="a_Node000001"><a xlink:title=" ">
<polygon fill="#e0e0e0" stroke="#999999" points="364.5,-923 228.5,-923 228.5,-882 364.5,-882 364.5,-923"/>
<text text-anchor="start" x="236.5" y="-911" font-family="Helvetica,sans-Serif" font-size="10.00">storages::postgres</text>
<text text-anchor="start" x="236.5" y="-900" font-family="Helvetica,sans-Serif" font-size="10.00">::io::detail::FloatingPoint</text>
<text text-anchor="middle" x="296.5" y="-889" font-family="Helvetica,sans-Serif" font-size="10.00">BinaryParser&lt; double &gt;</text>
</a>
</g>
</g>
<!-- Node0&#45;&gt;Node1 -->
<g id="edge702_Node000000_Node000001" class="edge">
<title>Node0&#45;&gt;Node1</title>
<g id="a_edge702_Node000000_Node000001"><a xlink:title=" ">
<path fill="none" stroke="#63b8ff" d="M67.51,-608.03C71.23,-668.29 88.41,-802.78 167,-873.5 183.75,-888.57 206.63,-896.33 228.45,-900.19"/>
<polygon fill="#63b8ff" stroke="#63b8ff" points="71,-607.81 66.98,-598.01 64.01,-608.19 71,-607.81"/>
</a>
</g>
</g>
<!-- Node3 -->
<g id="Node000003" class="node">
<title>Node3</title>
<g id="a_Node000003"><a xlink:title=" ">
<polygon fill="#e0e0e0" stroke="#999999" points="364.5,-864 228.5,-864 228.5,-823 364.5,-823 364.5,-864"/>
<text text-anchor="start" x="236.5" y="-852" font-family="Helvetica,sans-Serif" font-size="10.00">storages::postgres</text>
<text text-anchor="start" x="236.5" y="-841" font-family="Helvetica,sans-Serif" font-size="10.00">::io::detail::FloatingPoint</text>
<text text-anchor="middle" x="296.5" y="-830" font-family="Helvetica,sans-Serif" font-size="10.00">BinaryParser&lt; float &gt;</text>
</a>
</g>
</g>
<!-- Node0&#45;&gt;Node3 -->
<g id="edge704_Node000000_Node000003" class="edge">
<title>Node0&#45;&gt;Node3</title>
<g id="a_edge704_Node000000_Node000003"><a xlink:title=" ">
<path fill="none" stroke="#63b8ff" d="M70.53,-608.43C78.87,-659.47 102.95,-761.01 167,-814.5 184.11,-828.79 206.83,-836.41 228.4,-840.35"/>
<polygon fill="#63b8ff" stroke="#63b8ff" points="73.95,-607.69 68.97,-598.34 67.03,-608.75 73.95,-607.69"/>
</a>
</g>
</g>
<!-- Node5 -->
<g id="Node000005" class="node">
<title>Node5</title>
<g id="a_Node000005"><a xlink:title=" ">
<polygon fill="#e0e0e0" stroke="#999999" points="366.5,-805 226.5,-805 226.5,-764 366.5,-764 366.5,-805"/>
<text text-anchor="start" x="234.5" y="-793" font-family="Helvetica,sans-Serif" font-size="10.00">storages::postgres</text>
<text text-anchor="start" x="234.5" y="-782" font-family="Helvetica,sans-Serif" font-size="10.00">::io::detail::IntegralBinary</text>
<text text-anchor="middle" x="296.5" y="-771" font-family="Helvetica,sans-Serif" font-size="10.00">Parser&lt; Bigint &gt;</text>
</a>
</g>
</g>
<!-- Node0&#45;&gt;Node5 -->
<g id="edge706_Node000000_Node000005" class="edge">
<title>Node0&#45;&gt;Node5</title>
<g id="a_edge706_Node000000_Node000005"><a xlink:title=" ">
<path fill="none" stroke="#63b8ff" d="M75.19,-608.07C88.27,-648.31 116.96,-718.29 167,-755.5 184.07,-768.19 205.69,-775.49 226.31,-779.64"/>
<polygon fill="#63b8ff" stroke="#63b8ff" points="78.45,-606.77 72.13,-598.28 71.77,-608.87 78.45,-606.77"/>
</a>
</g>
</g>
<!-- Node7 -->
<g id="Node000007" class="node">
<title>Node7</title>
<g id="a_Node000007"><a xlink:title=" ">
<polygon fill="#e0e0e0" stroke="#999999" points="366.5,-746 226.5,-746 226.5,-705 366.5,-705 366.5,-746"/>
<text text-anchor="start" x="234.5" y="-734" font-family="Helvetica,sans-Serif" font-size="10.00">storages::postgres</text>
<text text-anchor="start" x="234.5" y="-723" font-family="Helvetica,sans-Serif" font-size="10.00">::io::detail::IntegralBinary</text>
<text text-anchor="middle" x="296.5" y="-712" font-family="Helvetica,sans-Serif" font-size="10.00">Parser&lt; Integer &gt;</text>
</a>
</g>
</g>
<!-- Node0&#45;&gt;Node7 -->
<g id="edge708_Node000000_Node000007" class="edge">
<title>Node0&#45;&gt;Node7</title>
<g id="a_edge708_Node000000_Node000007"><a xlink:title=" ">
<path fill="none" stroke="#63b8ff" d="M83.61,-607.12C101.05,-634.58 130.66,-674.43 167,-696.5 184.79,-707.3 206.17,-714.09 226.34,-718.35"/>
<polygon fill="#63b8ff" stroke="#63b8ff" points="86.41,-604.99 78.17,-598.32 80.45,-608.67 86.41,-604.99"/>
</a>
</g>
</g>
<!-- Node9 -->
<g id="Node000009" class="node">
<title>Node9</title>
<g id="a_Node000009"><a xlink:title=" ">
<polygon fill="#e0e0e0" stroke="#999999" points="366.5,-687 226.5,-687 226.5,-646 366.5,-646 366.5,-687"/>
<text text-anchor="start" x="234.5" y="-675" font-family="Helvetica,sans-Serif" font-size="10.00">storages::postgres</text>
<text text-anchor="start" x="234.5" y="-664" font-family="Helvetica,sans-Serif" font-size="10.00">::io::detail::IntegralBinary</text>
<text text-anchor="middle" x="296.5" y="-653" font-family="Helvetica,sans-Serif" font-size="10.00">Parser&lt; Smallint &gt;</text>
</a>
</g>
</g>
<!-- Node0&#45;&gt;Node9 -->
<g id="edge710_Node000000_Node000009" class="edge">
<title>Node0&#45;&gt;Node9</title>
<g id="a_edge710_Node000000_Node000009"><a xlink:title=" ">
<path fill="none" stroke="#63b8ff" d="M104.15,-603.86C122.42,-615.61 145.11,-628.75 167,-637.5 185.69,-644.97 206.71,-650.73 226.26,-655.07"/>
<polygon fill="#63b8ff" stroke="#63b8ff" points="105.84,-600.78 95.56,-598.22 102,-606.63 105.84,-600.78"/>
</a>
</g>
</g>
<!-- Node11 -->
<g id="Node000011" class="node">
<title>Node11</title>
<g id="a_Node000011"><a xlink:title=" ">
<polygon fill="#e0e0e0" stroke="#999999" points="366.5,-628 226.5,-628 226.5,-587 366.5,-587 366.5,-628"/>
<text text-anchor="start" x="234.5" y="-616" font-family="Helvetica,sans-Serif" font-size="10.00">storages::postgres</text>
<text text-anchor="start" x="234.5" y="-605" font-family="Helvetica,sans-Serif" font-size="10.00">::io::detail::IpBufferParser</text>
<text text-anchor="middle" x="296.5" y="-594" font-family="Helvetica,sans-Serif" font-size="10.00">Base&lt; InetNetwork &gt;</text>
</a>
</g>
</g>
<!-- Node0&#45;&gt;Node11 -->
<g id="edge712_Node000000_Node000011" class="edge">
<title>Node0&#45;&gt;Node11</title>
<g id="a_edge712_Node000000_Node000011"><a xlink:title=" ">
<path fill="none" stroke="#63b8ff" d="M141.47,-587.32C168.73,-590.89 199.4,-594.91 226.15,-598.42"/>
<polygon fill="#63b8ff" stroke="#63b8ff" points="141.57,-583.81 131.2,-585.98 140.66,-590.75 141.57,-583.81"/>
</a>
</g>
</g>
<!-- Node13 -->
<g id="Node000013" class="node">
<title>Node13</title>
<g id="a_Node000013"><a xlink:title=" ">
<polygon fill="#e0e0e0" stroke="#999999" points="368,-569 225,-569 225,-528 368,-528 368,-569"/>
<text text-anchor="start" x="233" y="-557" font-family="Helvetica,sans-Serif" font-size="10.00">storages::postgres</text>
<text text-anchor="start" x="233" y="-546" font-family="Helvetica,sans-Serif" font-size="10.00">::io::detail::MacaddrBuffer</text>
<text text-anchor="middle" x="296.5" y="-535" font-family="Helvetica,sans-Serif" font-size="10.00">Parser&lt; Macaddr &gt;</text>
</a>
</g>
</g>
<!-- Node0&#45;&gt;Node13 -->
<g id="edge714_Node000000_Node000013" class="edge">
<title>Node0&#45;&gt;Node13</title>
<g id="a_edge714_Node000000_Node000013"><a xlink:title=" ">
<path fill="none" stroke="#63b8ff" d="M141.33,-568.02C168.21,-564.62 198.43,-560.79 224.94,-557.44"/>
<polygon fill="#63b8ff" stroke="#63b8ff" points="140.68,-564.58 131.2,-569.31 141.56,-571.52 140.68,-564.58"/>
</a>
</g>
</g>
<!-- Node15 -->
<g id="Node000015" class="node">
<title>Node15</title>
<g id="a_Node000015"><a xlink:title=" ">
<polygon fill="#e0e0e0" stroke="#999999" points="368,-510 225,-510 225,-469 368,-469 368,-510"/>
<text text-anchor="start" x="233" y="-498" font-family="Helvetica,sans-Serif" font-size="10.00">storages::postgres</text>
<text text-anchor="start" x="233" y="-487" font-family="Helvetica,sans-Serif" font-size="10.00">::io::detail::MacaddrBuffer</text>
<text text-anchor="middle" x="296.5" y="-476" font-family="Helvetica,sans-Serif" font-size="10.00">Parser&lt; Macaddr8 &gt;</text>
</a>
</g>
</g>
<!-- Node0&#45;&gt;Node15 -->
<g id="edge716_Node000000_Node000015" class="edge">
<title>Node0&#45;&gt;Node15</title>
<g id="a_edge716_Node000000_Node000015"><a xlink:title=" ">
<path fill="none" stroke="#63b8ff" d="M105.52,-551.39C123.6,-540.24 145.75,-527.9 167,-519.5 185.22,-512.3 205.6,-506.56 224.67,-502.12"/>
<polygon fill="#63b8ff" stroke="#63b8ff" points="103.6,-548.46 96.99,-556.74 107.32,-554.39 103.6,-548.46"/>
</a>
</g>
</g>
<!-- Node17 -->
<g id="Node000017" class="node">
<title>Node17</title>
<g id="a_Node000017"><a xlink:title=" ">
<polygon fill="#e0e0e0" stroke="#999999" points="426,-447.5 167,-447.5 167,-395.5 426,-395.5 426,-447.5"/>
<text text-anchor="start" x="175" y="-435.5" font-family="Helvetica,sans-Serif" font-size="10.00">storages::postgres</text>
<text text-anchor="start" x="175" y="-424.5" font-family="Helvetica,sans-Serif" font-size="10.00">::io::detail::OptionalValue</text>
<text text-anchor="start" x="175" y="-413.5" font-family="Helvetica,sans-Serif" font-size="10.00">Parser&lt; boost::optional,</text>
<text text-anchor="middle" x="296.5" y="-402.5" font-family="Helvetica,sans-Serif" font-size="10.00"> T, detail::kParserRequiresTypeCategories&lt; T &gt; &gt;</text>
</a>
</g>
</g>
<!-- Node0&#45;&gt;Node17 -->
<g id="edge718_Node000000_Node000017" class="edge">
<title>Node0&#45;&gt;Node17</title>
<g id="a_edge718_Node000000_Node000017"><a xlink:title=" ">
<path fill="none" stroke="#63b8ff" d="M84.7,-548.04C102.56,-521.49 132.14,-483.24 167,-460.5 174.52,-455.6 182.68,-451.29 191.13,-447.5"/>
<polygon fill="#63b8ff" stroke="#63b8ff" points="81.67,-546.28 79.11,-556.56 87.52,-550.12 81.67,-546.28"/>
</a>
</g>
</g>
<!-- Node19 -->
<g id="Node000019" class="node">
<title>Node19</title>
<g id="a_Node000019"><a xlink:title=" ">
<polygon fill="#e0e0e0" stroke="#999999" points="420,-372.5 173,-372.5 173,-320.5 420,-320.5 420,-372.5"/>
<text text-anchor="start" x="181" y="-360.5" font-family="Helvetica,sans-Serif" font-size="10.00">storages::postgres</text>
<text text-anchor="start" x="181" y="-349.5" font-family="Helvetica,sans-Serif" font-size="10.00">::io::detail::OptionalValue</text>
<text text-anchor="start" x="181" y="-338.5" font-family="Helvetica,sans-Serif" font-size="10.00">Parser&lt; std::optional, T,</text>
<text text-anchor="middle" x="296.5" y="-327.5" font-family="Helvetica,sans-Serif" font-size="10.00"> detail::kParserRequiresTypeCategories&lt; T &gt; &gt;</text>
</a>
</g>
</g>
<!-- Node0&#45;&gt;Node19 -->
<g id="edge720_Node000000_Node000019" class="edge">
<title>Node0&#45;&gt;Node19</title>
<g id="a_edge720_Node000000_Node000019"><a xlink:title=" ">
<path fill="none" stroke="#63b8ff" d="M74.46,-547.21C87.08,-505.09 115.65,-429.24 167,-386.5 173.38,-381.19 180.45,-376.59 187.92,-372.6"/>
<polygon fill="#63b8ff" stroke="#63b8ff" points="71.08,-546.32 71.66,-556.9 77.8,-548.26 71.08,-546.32"/>
</a>
</g>
</g>
<!-- Node21 -->
<g id="Node000021" class="node">
<title>Node21</title>
<g id="a_Node000021"><a xlink:title=" ">
<polygon fill="#e0e0e0" stroke="#999999" points="404.5,-298 188.5,-298 188.5,-235 404.5,-235 404.5,-298"/>
<text text-anchor="start" x="196.5" y="-286" font-family="Helvetica,sans-Serif" font-size="10.00">storages::postgres</text>
<text text-anchor="start" x="196.5" y="-275" font-family="Helvetica,sans-Serif" font-size="10.00">::io::detail::StrongTypedef</text>
<text text-anchor="start" x="196.5" y="-264" font-family="Helvetica,sans-Serif" font-size="10.00">Parser&lt; ::utils::StrongTypedef</text>
<text text-anchor="start" x="196.5" y="-253" font-family="Helvetica,sans-Serif" font-size="10.00">&lt; Tag, T, Ops, Enable &gt;, detail</text>
<text text-anchor="middle" x="296.5" y="-242" font-family="Helvetica,sans-Serif" font-size="10.00">::kParserRequiresTypeCategories&lt; T &gt; &gt;</text>
</a>
</g>
</g>
<!-- Node0&#45;&gt;Node21 -->
<g id="edge722_Node000000_Node000021" class="edge">
<title>Node0&#45;&gt;Node21</title>
<g id="a_edge722_Node000000_Node000021"><a xlink:title=" ">
<path fill="none" stroke="#63b8ff" d="M69.73,-546.5C77.06,-491.61 99.93,-376.96 167,-311.5 173.34,-305.31 180.59,-299.97 188.33,-295.36"/>
<polygon fill="#63b8ff" stroke="#63b8ff" points="66.23,-546.29 68.46,-556.65 73.17,-547.16 66.23,-546.29"/>
</a>
</g>
</g>
<!-- Node23 -->
<g id="Node000023" class="node">
<title>Node23</title>
<g id="a_Node000023"><a xlink:title=" ">
<polygon fill="#e0e0e0" stroke="#999999" points="366.5,-159 226.5,-159 226.5,-118 366.5,-118 366.5,-159"/>
<text text-anchor="start" x="234.5" y="-147" font-family="Helvetica,sans-Serif" font-size="10.00">storages::postgres</text>
<text text-anchor="start" x="234.5" y="-136" font-family="Helvetica,sans-Serif" font-size="10.00">::io::detail::IpBufferParser</text>
<text text-anchor="middle" x="296.5" y="-125" font-family="Helvetica,sans-Serif" font-size="10.00">Base&lt; T &gt;</text>
</a>
</g>
</g>
<!-- Node0&#45;&gt;Node23 -->
<g id="edge724_Node000000_Node000023" class="edge">
<title>Node0&#45;&gt;Node23</title>
<g id="a_edge724_Node000000_Node000023"><a xlink:title=" ">
<path fill="none" stroke="#63b8ff" d="M68.38,-546.8C73.73,-481.83 93.79,-328.05 167,-226.5 188.35,-196.89 222.91,-174.04 250.82,-159.05"/>
<polygon fill="#63b8ff" stroke="#63b8ff" points="64.88,-546.57 67.61,-556.8 71.86,-547.1 64.88,-546.57"/>
</a>
</g>
</g>
<!-- Node2 -->
<g id="Node000002" class="node">
<title>Node2</title>
<g id="a_Node000002"><a xlink:href="d1/dca/structstorages_1_1postgres_1_1io_1_1BufferParser_3_01double_01_4.html" target="_top" xlink:title=" ">
<polygon fill="white" stroke="#666666" points="587,-923 480,-923 480,-882 587,-882 587,-923"/>
<text text-anchor="start" x="488" y="-911" font-family="Helvetica,sans-Serif" font-size="10.00">storages::postgres</text>
<text text-anchor="start" x="488" y="-900" font-family="Helvetica,sans-Serif" font-size="10.00">::io::BufferParser&lt;</text>
<text text-anchor="middle" x="533.5" y="-889" font-family="Helvetica,sans-Serif" font-size="10.00"> double &gt;</text>
</a>
</g>
</g>
<!-- Node1&#45;&gt;Node2 -->
<g id="edge703_Node000001_Node000002" class="edge">
<title>Node1&#45;&gt;Node2</title>
<g id="a_edge703_Node000001_Node000002"><a xlink:title=" ">
<path fill="none" stroke="#63b8ff" d="M374.58,-902.5C409.1,-902.5 448.93,-902.5 479.95,-902.5"/>
<polygon fill="#63b8ff" stroke="#63b8ff" points="374.53,-899 364.53,-902.5 374.53,-906 374.53,-899"/>
</a>
</g>
</g>
<!-- Node4 -->
<g id="Node000004" class="node">
<title>Node4</title>
<g id="a_Node000004"><a xlink:href="d0/d43/structstorages_1_1postgres_1_1io_1_1BufferParser_3_01float_01_4.html" target="_top" xlink:title=" ">
<polygon fill="white" stroke="#666666" points="587,-864 480,-864 480,-823 587,-823 587,-864"/>
<text text-anchor="start" x="488" y="-852" font-family="Helvetica,sans-Serif" font-size="10.00">storages::postgres</text>
<text text-anchor="start" x="488" y="-841" font-family="Helvetica,sans-Serif" font-size="10.00">::io::BufferParser&lt;</text>
<text text-anchor="middle" x="533.5" y="-830" font-family="Helvetica,sans-Serif" font-size="10.00"> float &gt;</text>
</a>
</g>
</g>
<!-- Node3&#45;&gt;Node4 -->
<g id="edge705_Node000003_Node000004" class="edge">
<title>Node3&#45;&gt;Node4</title>
<g id="a_edge705_Node000003_Node000004"><a xlink:title=" ">
<path fill="none" stroke="#63b8ff" d="M374.58,-843.5C409.1,-843.5 448.93,-843.5 479.95,-843.5"/>
<polygon fill="#63b8ff" stroke="#63b8ff" points="374.53,-840 364.53,-843.5 374.53,-847 374.53,-840"/>
</a>
</g>
</g>
<!-- Node6 -->
<g id="Node000006" class="node">
<title>Node6</title>
<g id="a_Node000006"><a xlink:href="d4/d17/structstorages_1_1postgres_1_1io_1_1BufferParser_3_01Bigint_01_4.html" target="_top" xlink:title=" ">
<polygon fill="white" stroke="#666666" points="587,-805 480,-805 480,-764 587,-764 587,-805"/>
<text text-anchor="start" x="488" y="-793" font-family="Helvetica,sans-Serif" font-size="10.00">storages::postgres</text>
<text text-anchor="start" x="488" y="-782" font-family="Helvetica,sans-Serif" font-size="10.00">::io::BufferParser&lt;</text>
<text text-anchor="middle" x="533.5" y="-771" font-family="Helvetica,sans-Serif" font-size="10.00"> Bigint &gt;</text>
</a>
</g>
</g>
<!-- Node5&#45;&gt;Node6 -->
<g id="edge707_Node000005_Node000006" class="edge">
<title>Node5&#45;&gt;Node6</title>
<g id="a_edge707_Node000005_Node000006"><a xlink:title=" ">
<path fill="none" stroke="#63b8ff" d="M377.08,-784.5C410.96,-784.5 449.54,-784.5 479.79,-784.5"/>
<polygon fill="#63b8ff" stroke="#63b8ff" points="376.74,-781 366.74,-784.5 376.74,-788 376.74,-781"/>
</a>
</g>
</g>
<!-- Node8 -->
<g id="Node000008" class="node">
<title>Node8</title>
<g id="a_Node000008"><a xlink:href="d4/d84/structstorages_1_1postgres_1_1io_1_1BufferParser_3_01Integer_01_4.html" target="_top" xlink:title=" ">
<polygon fill="white" stroke="#666666" points="587,-746 480,-746 480,-705 587,-705 587,-746"/>
<text text-anchor="start" x="488" y="-734" font-family="Helvetica,sans-Serif" font-size="10.00">storages::postgres</text>
<text text-anchor="start" x="488" y="-723" font-family="Helvetica,sans-Serif" font-size="10.00">::io::BufferParser&lt;</text>
<text text-anchor="middle" x="533.5" y="-712" font-family="Helvetica,sans-Serif" font-size="10.00"> Integer &gt;</text>
</a>
</g>
</g>
<!-- Node7&#45;&gt;Node8 -->
<g id="edge709_Node000007_Node000008" class="edge">
<title>Node7&#45;&gt;Node8</title>
<g id="a_edge709_Node000007_Node000008"><a xlink:title=" ">
<path fill="none" stroke="#63b8ff" d="M377.08,-725.5C410.96,-725.5 449.54,-725.5 479.79,-725.5"/>
<polygon fill="#63b8ff" stroke="#63b8ff" points="376.74,-722 366.74,-725.5 376.74,-729 376.74,-722"/>
</a>
</g>
</g>
<!-- Node10 -->
<g id="Node000010" class="node">
<title>Node10</title>
<g id="a_Node000010"><a xlink:href="d0/deb/structstorages_1_1postgres_1_1io_1_1BufferParser_3_01Smallint_01_4.html" target="_top" xlink:title=" ">
<polygon fill="white" stroke="#666666" points="587,-687 480,-687 480,-646 587,-646 587,-687"/>
<text text-anchor="start" x="488" y="-675" font-family="Helvetica,sans-Serif" font-size="10.00">storages::postgres</text>
<text text-anchor="start" x="488" y="-664" font-family="Helvetica,sans-Serif" font-size="10.00">::io::BufferParser&lt;</text>
<text text-anchor="middle" x="533.5" y="-653" font-family="Helvetica,sans-Serif" font-size="10.00"> Smallint &gt;</text>
</a>
</g>
</g>
<!-- Node9&#45;&gt;Node10 -->
<g id="edge711_Node000009_Node000010" class="edge">
<title>Node9&#45;&gt;Node10</title>
<g id="a_edge711_Node000009_Node000010"><a xlink:title=" ">
<path fill="none" stroke="#63b8ff" d="M377.08,-666.5C410.96,-666.5 449.54,-666.5 479.79,-666.5"/>
<polygon fill="#63b8ff" stroke="#63b8ff" points="376.74,-663 366.74,-666.5 376.74,-670 376.74,-663"/>
</a>
</g>
</g>
<!-- Node12 -->
<g id="Node000012" class="node">
<title>Node12</title>
<g id="a_Node000012"><a xlink:href="dc/dc8/structstorages_1_1postgres_1_1io_1_1BufferParser_3_01InetNetwork_01_4.html" target="_top" xlink:title="Binary parser for utils::ip::InetNetwork.">
<polygon fill="white" stroke="#666666" points="587,-628 480,-628 480,-587 587,-587 587,-628"/>
<text text-anchor="start" x="488" y="-616" font-family="Helvetica,sans-Serif" font-size="10.00">storages::postgres</text>
<text text-anchor="start" x="488" y="-605" font-family="Helvetica,sans-Serif" font-size="10.00">::io::BufferParser&lt;</text>
<text text-anchor="middle" x="533.5" y="-594" font-family="Helvetica,sans-Serif" font-size="10.00"> InetNetwork &gt;</text>
</a>
</g>
</g>
<!-- Node11&#45;&gt;Node12 -->
<g id="edge713_Node000011_Node000012" class="edge">
<title>Node11&#45;&gt;Node12</title>
<g id="a_edge713_Node000011_Node000012"><a xlink:title=" ">
<path fill="none" stroke="#63b8ff" d="M377.08,-607.5C410.96,-607.5 449.54,-607.5 479.79,-607.5"/>
<polygon fill="#63b8ff" stroke="#63b8ff" points="376.74,-604 366.74,-607.5 376.74,-611 376.74,-604"/>
</a>
</g>
</g>
<!-- Node14 -->
<g id="Node000014" class="node">
<title>Node14</title>
<g id="a_Node000014"><a xlink:href="d6/d1d/structstorages_1_1postgres_1_1io_1_1BufferParser_3_01Macaddr_01_4.html" target="_top" xlink:title="Binary parser for utils::macaddr::Macaddr.">
<polygon fill="white" stroke="#666666" points="587,-569 480,-569 480,-528 587,-528 587,-569"/>
<text text-anchor="start" x="488" y="-557" font-family="Helvetica,sans-Serif" font-size="10.00">storages::postgres</text>
<text text-anchor="start" x="488" y="-546" font-family="Helvetica,sans-Serif" font-size="10.00">::io::BufferParser&lt;</text>
<text text-anchor="middle" x="533.5" y="-535" font-family="Helvetica,sans-Serif" font-size="10.00"> Macaddr &gt;</text>
</a>
</g>
</g>
<!-- Node13&#45;&gt;Node14 -->
<g id="edge715_Node000013_Node000014" class="edge">
<title>Node13&#45;&gt;Node14</title>
<g id="a_edge715_Node000013_Node000014"><a xlink:title=" ">
<path fill="none" stroke="#63b8ff" d="M378.29,-548.5C411.94,-548.5 450.06,-548.5 479.98,-548.5"/>
<polygon fill="#63b8ff" stroke="#63b8ff" points="378.01,-545 368.01,-548.5 378.01,-552 378.01,-545"/>
</a>
</g>
</g>
<!-- Node16 -->
<g id="Node000016" class="node">
<title>Node16</title>
<g id="a_Node000016"><a xlink:href="df/d0b/structstorages_1_1postgres_1_1io_1_1BufferParser_3_01Macaddr8_01_4.html" target="_top" xlink:title="Binary parser for utils::macaddr::Macaddr8.">
<polygon fill="white" stroke="#666666" points="587,-510 480,-510 480,-469 587,-469 587,-510"/>
<text text-anchor="start" x="488" y="-498" font-family="Helvetica,sans-Serif" font-size="10.00">storages::postgres</text>
<text text-anchor="start" x="488" y="-487" font-family="Helvetica,sans-Serif" font-size="10.00">::io::BufferParser&lt;</text>
<text text-anchor="middle" x="533.5" y="-476" font-family="Helvetica,sans-Serif" font-size="10.00"> Macaddr8 &gt;</text>
</a>
</g>
</g>
<!-- Node15&#45;&gt;Node16 -->
<g id="edge717_Node000015_Node000016" class="edge">
<title>Node15&#45;&gt;Node16</title>
<g id="a_edge717_Node000015_Node000016"><a xlink:title=" ">
<path fill="none" stroke="#63b8ff" d="M378.29,-489.5C411.94,-489.5 450.06,-489.5 479.98,-489.5"/>
<polygon fill="#63b8ff" stroke="#63b8ff" points="378.01,-486 368.01,-489.5 378.01,-493 378.01,-486"/>
</a>
</g>
</g>
<!-- Node18 -->
<g id="Node000018" class="node">
<title>Node18</title>
<g id="a_Node000018"><a xlink:href="d1/d49/structstorages_1_1postgres_1_1io_1_1BufferParser_3_01boost_1_1optional_3_01T_01_4_00_01std_1_1en5d6cc1f681ac7ae313741632cfc5ea7d.html" target="_top" xlink:title="Parser specialization for boost::optional.">
<polygon fill="white" stroke="#666666" points="600.5,-451 466.5,-451 466.5,-388 600.5,-388 600.5,-451"/>
<text text-anchor="start" x="474.5" y="-439" font-family="Helvetica,sans-Serif" font-size="10.00">storages::postgres</text>
<text text-anchor="start" x="474.5" y="-428" font-family="Helvetica,sans-Serif" font-size="10.00">::io::BufferParser&lt;</text>
<text text-anchor="start" x="474.5" y="-417" font-family="Helvetica,sans-Serif" font-size="10.00"> boost::optional&lt; T &gt;</text>
<text text-anchor="start" x="474.5" y="-406" font-family="Helvetica,sans-Serif" font-size="10.00">, std::enable_if_t&lt; traits</text>
<text text-anchor="middle" x="533.5" y="-395" font-family="Helvetica,sans-Serif" font-size="10.00">::kHasParser&lt; T &gt; &gt; &gt;</text>
</a>
</g>
</g>
<!-- Node17&#45;&gt;Node18 -->
<g id="edge719_Node000017_Node000018" class="edge">
<title>Node17&#45;&gt;Node18</title>
<g id="a_edge719_Node000017_Node000018"><a xlink:title=" ">
<path fill="none" stroke="#63b8ff" d="M436.07,-420.32C446.52,-420.23 456.73,-420.14 466.37,-420.06"/>
<polygon fill="#63b8ff" stroke="#63b8ff" points="435.97,-416.82 426,-420.41 436.03,-423.82 435.97,-416.82"/>
</a>
</g>
</g>
<!-- Node20 -->
<g id="Node000020" class="node">
<title>Node20</title>
<g id="a_Node000020"><a xlink:href="d9/dc5/structstorages_1_1postgres_1_1io_1_1BufferParser_3_01std_1_1optional_3_01T_01_4_00_01std_1_1enabeb3e350cb875d628af69c5ca14509569.html" target="_top" xlink:title="Parser specialization for std::optional.">
<polygon fill="white" stroke="#666666" points="599,-370 468,-370 468,-307 599,-307 599,-370"/>
<text text-anchor="start" x="476" y="-358" font-family="Helvetica,sans-Serif" font-size="10.00">storages::postgres</text>
<text text-anchor="start" x="476" y="-347" font-family="Helvetica,sans-Serif" font-size="10.00">::io::BufferParser&lt;</text>
<text text-anchor="start" x="476" y="-336" font-family="Helvetica,sans-Serif" font-size="10.00"> std::optional&lt; T &gt;,</text>
<text text-anchor="start" x="476" y="-325" font-family="Helvetica,sans-Serif" font-size="10.00"> std::enable_if_t&lt; traits</text>
<text text-anchor="middle" x="533.5" y="-314" font-family="Helvetica,sans-Serif" font-size="10.00">::kHasParser&lt; T &gt; &gt; &gt;</text>
</a>
</g>
</g>
<!-- Node19&#45;&gt;Node20 -->
<g id="edge721_Node000019_Node000020" class="edge">
<title>Node19&#45;&gt;Node20</title>
<g id="a_edge721_Node000019_Node000020"><a xlink:title=" ">
<path fill="none" stroke="#63b8ff" d="M430.17,-341.98C443.21,-341.54 455.99,-341.1 467.87,-340.7"/>
<polygon fill="#63b8ff" stroke="#63b8ff" points="430.04,-338.49 420.16,-342.32 430.28,-345.48 430.04,-338.49"/>
</a>
</g>
</g>
<!-- Node22 -->
<g id="Node000022" class="node">
<title>Node22</title>
<g id="a_Node000022"><a xlink:href="de/d80/structstorages_1_1postgres_1_1io_1_1BufferParser_3_01_1_1utils_1_1StrongTypedef_3_01Tag_00_01T_00_01Ops_00_01Enable_01_4_01_4.html" target="_top" xlink:title=" ">
<polygon fill="white" stroke="#666666" points="605,-288.5 462,-288.5 462,-236.5 605,-236.5 605,-288.5"/>
<text text-anchor="start" x="470" y="-276.5" font-family="Helvetica,sans-Serif" font-size="10.00">storages::postgres</text>
<text text-anchor="start" x="470" y="-265.5" font-family="Helvetica,sans-Serif" font-size="10.00">::io::BufferParser&lt;</text>
<text text-anchor="start" x="470" y="-254.5" font-family="Helvetica,sans-Serif" font-size="10.00"> ::utils::StrongTypedef</text>
<text text-anchor="middle" x="533.5" y="-243.5" font-family="Helvetica,sans-Serif" font-size="10.00">&lt; Tag, T, Ops, Enable &gt; &gt;</text>
</a>
</g>
</g>
<!-- Node21&#45;&gt;Node22 -->
<g id="edge723_Node000021_Node000022" class="edge">
<title>Node21&#45;&gt;Node22</title>
<g id="a_edge723_Node000021_Node000022"><a xlink:title=" ">
<path fill="none" stroke="#63b8ff" d="M414.69,-264.51C430.79,-264.23 446.89,-263.96 461.79,-263.7"/>
<polygon fill="#63b8ff" stroke="#63b8ff" points="414.62,-261.01 404.68,-264.68 414.74,-268 414.62,-261.01"/>
</a>
</g>
</g>
<!-- Node24 -->
<g id="Node000024" class="node">
<title>Node24</title>
<g id="a_Node000024"><a xlink:title=" ">
<polygon fill="#e0e0e0" stroke="#999999" points="603.5,-218 463.5,-218 463.5,-177 603.5,-177 603.5,-218"/>
<text text-anchor="start" x="471.5" y="-206" font-family="Helvetica,sans-Serif" font-size="10.00">storages::postgres</text>
<text text-anchor="start" x="471.5" y="-195" font-family="Helvetica,sans-Serif" font-size="10.00">::io::detail::AddressBuffer</text>
<text text-anchor="middle" x="533.5" y="-184" font-family="Helvetica,sans-Serif" font-size="10.00">Parser&lt; AddressV4 &gt;</text>
</a>
</g>
</g>
<!-- Node23&#45;&gt;Node24 -->
<g id="edge725_Node000023_Node000024" class="edge">
<title>Node23&#45;&gt;Node24</title>
<g id="a_edge725_Node000023_Node000024"><a xlink:title=" ">
<path fill="none" stroke="#63b8ff" d="M376.54,-158.34C404.67,-165.41 436.11,-173.3 463.35,-180.14"/>
<polygon fill="#63b8ff" stroke="#63b8ff" points="377.29,-154.92 366.74,-155.88 375.58,-161.71 377.29,-154.92"/>
</a>
</g>
</g>
<!-- Node26 -->
<g id="Node000026" class="node">
<title>Node26</title>
<g id="a_Node000026"><a xlink:title=" ">
<polygon fill="#e0e0e0" stroke="#999999" points="603.5,-159 463.5,-159 463.5,-118 603.5,-118 603.5,-159"/>
<text text-anchor="start" x="471.5" y="-147" font-family="Helvetica,sans-Serif" font-size="10.00">storages::postgres</text>
<text text-anchor="start" x="471.5" y="-136" font-family="Helvetica,sans-Serif" font-size="10.00">::io::detail::AddressBuffer</text>
<text text-anchor="middle" x="533.5" y="-125" font-family="Helvetica,sans-Serif" font-size="10.00">Parser&lt; AddressV6 &gt;</text>
</a>
</g>
</g>
<!-- Node23&#45;&gt;Node26 -->
<g id="edge727_Node000023_Node000026" class="edge">
<title>Node23&#45;&gt;Node26</title>
<g id="a_edge727_Node000023_Node000026"><a xlink:title=" ">
<path fill="none" stroke="#63b8ff" d="M376.91,-138.5C404.95,-138.5 436.23,-138.5 463.35,-138.5"/>
<polygon fill="#63b8ff" stroke="#63b8ff" points="376.74,-135 366.74,-138.5 376.74,-142 376.74,-135"/>
</a>
</g>
</g>
<!-- Node28 -->
<g id="Node000028" class="node">
<title>Node28</title>
<g id="a_Node000028"><a xlink:title=" ">
<polygon fill="#e0e0e0" stroke="#999999" points="604.5,-100 462.5,-100 462.5,-59 604.5,-59 604.5,-100"/>
<text text-anchor="start" x="470.5" y="-88" font-family="Helvetica,sans-Serif" font-size="10.00">storages::postgres</text>
<text text-anchor="start" x="470.5" y="-77" font-family="Helvetica,sans-Serif" font-size="10.00">::io::detail::NetworkBuffer</text>
<text text-anchor="middle" x="533.5" y="-66" font-family="Helvetica,sans-Serif" font-size="10.00">Parser&lt; NetworkV4 &gt;</text>
</a>
</g>
</g>
<!-- Node23&#45;&gt;Node28 -->
<g id="edge729_Node000023_Node000028" class="edge">
<title>Node23&#45;&gt;Node28</title>
<g id="a_edge729_Node000023_Node000028"><a xlink:title=" ">
<path fill="none" stroke="#63b8ff" d="M376.77,-118.6C404.42,-111.66 435.25,-103.92 462.13,-97.17"/>
<polygon fill="#63b8ff" stroke="#63b8ff" points="375.58,-115.29 366.74,-121.12 377.29,-122.08 375.58,-115.29"/>
</a>
</g>
</g>
<!-- Node30 -->
<g id="Node000030" class="node">
<title>Node30</title>
<g id="a_Node000030"><a xlink:title=" ">
<polygon fill="#e0e0e0" stroke="#999999" points="604.5,-41 462.5,-41 462.5,0 604.5,0 604.5,-41"/>
<text text-anchor="start" x="470.5" y="-29" font-family="Helvetica,sans-Serif" font-size="10.00">storages::postgres</text>
<text text-anchor="start" x="470.5" y="-18" font-family="Helvetica,sans-Serif" font-size="10.00">::io::detail::NetworkBuffer</text>
<text text-anchor="middle" x="533.5" y="-7" font-family="Helvetica,sans-Serif" font-size="10.00">Parser&lt; NetworkV6 &gt;</text>
</a>
</g>
</g>
<!-- Node23&#45;&gt;Node30 -->
<g id="edge731_Node000023_Node000030" class="edge">
<title>Node23&#45;&gt;Node30</title>
<g id="a_edge731_Node000023_Node000030"><a xlink:title=" ">
<path fill="none" stroke="#63b8ff" d="M341.75,-112.91C374.49,-94.38 420.44,-69.22 462,-49.5 467.98,-46.66 474.31,-43.83 480.63,-41.1"/>
<polygon fill="#63b8ff" stroke="#63b8ff" points="339.84,-109.96 332.88,-117.95 343.3,-116.05 339.84,-109.96"/>
</a>
</g>
</g>
<!-- Node25 -->
<g id="Node000025" class="node">
<title>Node25</title>
<g id="a_Node000025"><a xlink:href="d8/d2b/structstorages_1_1postgres_1_1io_1_1BufferParser_3_01AddressV4_01_4.html" target="_top" xlink:title="Binary parser for utils::ip::AddressV4.">
<polygon fill="white" stroke="#666666" points="748,-218 641,-218 641,-177 748,-177 748,-218"/>
<text text-anchor="start" x="649" y="-206" font-family="Helvetica,sans-Serif" font-size="10.00">storages::postgres</text>
<text text-anchor="start" x="649" y="-195" font-family="Helvetica,sans-Serif" font-size="10.00">::io::BufferParser&lt;</text>
<text text-anchor="middle" x="694.5" y="-184" font-family="Helvetica,sans-Serif" font-size="10.00"> AddressV4 &gt;</text>
</a>
</g>
</g>
<!-- Node24&#45;&gt;Node25 -->
<g id="edge726_Node000024_Node000025" class="edge">
<title>Node24&#45;&gt;Node25</title>
<g id="a_edge726_Node000024_Node000025"><a xlink:title=" ">
<path fill="none" stroke="#63b8ff" d="M613.99,-197.5C623.05,-197.5 632.12,-197.5 640.71,-197.5"/>
<polygon fill="#63b8ff" stroke="#63b8ff" points="613.78,-194 603.78,-197.5 613.78,-201 613.78,-194"/>
</a>
</g>
</g>
<!-- Node27 -->
<g id="Node000027" class="node">
<title>Node27</title>
<g id="a_Node000027"><a xlink:href="d8/d71/structstorages_1_1postgres_1_1io_1_1BufferParser_3_01AddressV6_01_4.html" target="_top" xlink:title="Binary parser for utils::ip::AddressV6.">
<polygon fill="white" stroke="#666666" points="748,-159 641,-159 641,-118 748,-118 748,-159"/>
<text text-anchor="start" x="649" y="-147" font-family="Helvetica,sans-Serif" font-size="10.00">storages::postgres</text>
<text text-anchor="start" x="649" y="-136" font-family="Helvetica,sans-Serif" font-size="10.00">::io::BufferParser&lt;</text>
<text text-anchor="middle" x="694.5" y="-125" font-family="Helvetica,sans-Serif" font-size="10.00"> AddressV6 &gt;</text>
</a>
</g>
</g>
<!-- Node26&#45;&gt;Node27 -->
<g id="edge728_Node000026_Node000027" class="edge">
<title>Node26&#45;&gt;Node27</title>
<g id="a_edge728_Node000026_Node000027"><a xlink:title=" ">
<path fill="none" stroke="#63b8ff" d="M613.99,-138.5C623.05,-138.5 632.12,-138.5 640.71,-138.5"/>
<polygon fill="#63b8ff" stroke="#63b8ff" points="613.78,-135 603.78,-138.5 613.78,-142 613.78,-135"/>
</a>
</g>
</g>
<!-- Node29 -->
<g id="Node000029" class="node">
<title>Node29</title>
<g id="a_Node000029"><a xlink:href="d6/de0/structstorages_1_1postgres_1_1io_1_1BufferParser_3_01NetworkV4_01_4.html" target="_top" xlink:title="Binary parser for utils::ip::NetworkV4.">
<polygon fill="white" stroke="#666666" points="748,-100 641,-100 641,-59 748,-59 748,-100"/>
<text text-anchor="start" x="649" y="-88" font-family="Helvetica,sans-Serif" font-size="10.00">storages::postgres</text>
<text text-anchor="start" x="649" y="-77" font-family="Helvetica,sans-Serif" font-size="10.00">::io::BufferParser&lt;</text>
<text text-anchor="middle" x="694.5" y="-66" font-family="Helvetica,sans-Serif" font-size="10.00"> NetworkV4 &gt;</text>
</a>
</g>
</g>
<!-- Node28&#45;&gt;Node29 -->
<g id="edge730_Node000028_Node000029" class="edge">
<title>Node28&#45;&gt;Node29</title>
<g id="a_edge730_Node000028_Node000029"><a xlink:title=" ">
<path fill="none" stroke="#63b8ff" d="M614.71,-79.5C623.59,-79.5 632.45,-79.5 640.87,-79.5"/>
<polygon fill="#63b8ff" stroke="#63b8ff" points="614.7,-76 604.7,-79.5 614.7,-83 614.7,-76"/>
</a>
</g>
</g>
<!-- Node31 -->
<g id="Node000031" class="node">
<title>Node31</title>
<g id="a_Node000031"><a xlink:href="d3/d98/structstorages_1_1postgres_1_1io_1_1BufferParser_3_01NetworkV6_01_4.html" target="_top" xlink:title="Binary parser for utils::ip::NetworkV6.">
<polygon fill="white" stroke="#666666" points="748,-41 641,-41 641,0 748,0 748,-41"/>
<text text-anchor="start" x="649" y="-29" font-family="Helvetica,sans-Serif" font-size="10.00">storages::postgres</text>
<text text-anchor="start" x="649" y="-18" font-family="Helvetica,sans-Serif" font-size="10.00">::io::BufferParser&lt;</text>
<text text-anchor="middle" x="694.5" y="-7" font-family="Helvetica,sans-Serif" font-size="10.00"> NetworkV6 &gt;</text>
</a>
</g>
</g>
<!-- Node30&#45;&gt;Node31 -->
<g id="edge732_Node000030_Node000031" class="edge">
<title>Node30&#45;&gt;Node31</title>
<g id="a_edge732_Node000030_Node000031"><a xlink:title=" ">
<path fill="none" stroke="#63b8ff" d="M614.71,-20.5C623.59,-20.5 632.45,-20.5 640.87,-20.5"/>
<polygon fill="#63b8ff" stroke="#63b8ff" points="614.7,-17 604.7,-20.5 614.7,-24 614.7,-17"/>
</a>
</g>
</g>
</g>
</svg>
