<?xml version="1.0" encoding="UTF-8" standalone="no"?>
<!DOCTYPE svg PUBLIC "-//W3C//DTD SVG 1.1//EN"
 "http://www.w3.org/Graphics/SVG/1.1/DTD/svg11.dtd">
<!-- Generated by graphviz version 2.43.0 (0)
 -->
<!-- Title: userver/formats/yaml_fwd.hpp Pages: 1 -->
<svg width="974pt" height="390pt"
 viewBox="0.00 0.00 974.00 390.00" xmlns="http://www.w3.org/2000/svg" xmlns:xlink="http://www.w3.org/1999/xlink">
<g id="graph0" class="graph" transform="scale(1 1) rotate(0) translate(4 386)">
<title>userver/formats/yaml_fwd.hpp</title>
<!-- Node1 -->
<g id="Node000001" class="node">
<title>Node1</title>
<g id="a_Node000001"><a xlink:title="Forward declarations of formats::yaml types, formats::parse::To and formats::serialize::To.">
<polygon fill="#999999" stroke="#666666" points="470,-382 348,-382 348,-352 470,-352 470,-382"/>
<text text-anchor="start" x="356" y="-370" font-family="Helvetica,sans-Serif" font-size="10.00">userver/formats/yaml</text>
<text text-anchor="middle" x="409" y="-359" font-family="Helvetica,sans-Serif" font-size="10.00">_fwd.hpp</text>
</a>
</g>
</g>
<!-- Node2 -->
<g id="Node000002" class="node">
<title>Node2</title>
<g id="a_Node000002"><a xlink:href="../../d2/d67/schema_8hpp.html" target="_top" xlink:title="JSON Schema&#45;like type definition.">
<polygon fill="white" stroke="#666666" points="467,-316 351,-316 351,-286 467,-286 467,-316"/>
<text text-anchor="start" x="359" y="-304" font-family="Helvetica,sans-Serif" font-size="10.00">userver/yaml_config</text>
<text text-anchor="middle" x="409" y="-293" font-family="Helvetica,sans-Serif" font-size="10.00">/schema.hpp</text>
</a>
</g>
</g>
<!-- Node1&#45;&gt;Node2 -->
<g id="edge1_Node000001_Node000002" class="edge">
<title>Node1&#45;&gt;Node2</title>
<g id="a_edge1_Node000001_Node000002"><a xlink:title=" ">
<path fill="none" stroke="#63b8ff" d="M409,-341.54C409,-332.96 409,-323.61 409,-316.16"/>
<polygon fill="#63b8ff" stroke="#63b8ff" points="405.5,-341.8 409,-351.8 412.5,-341.8 405.5,-341.8"/>
</a>
</g>
</g>
<!-- Node3 -->
<g id="Node000003" class="node">
<title>Node3</title>
<g id="a_Node000003"><a xlink:href="../../df/d56/caching__component__base_8hpp.html" target="_top" xlink:title="Base class for caching components.">
<polygon fill="white" stroke="#666666" points="277,-244.5 151,-244.5 151,-214.5 277,-214.5 277,-244.5"/>
<text text-anchor="start" x="159" y="-232.5" font-family="Helvetica,sans-Serif" font-size="10.00">userver/cache/caching</text>
<text text-anchor="middle" x="214" y="-221.5" font-family="Helvetica,sans-Serif" font-size="10.00">_component_base.hpp</text>
</a>
</g>
</g>
<!-- Node2&#45;&gt;Node3 -->
<g id="edge2_Node000002_Node000003" class="edge">
<title>Node2&#45;&gt;Node3</title>
<g id="a_edge2_Node000002_Node000003"><a xlink:title=" ">
<path fill="none" stroke="#63b8ff" d="M360.09,-282.57C327.11,-270.81 284.18,-255.51 253.4,-244.54"/>
<polygon fill="#63b8ff" stroke="#63b8ff" points="358.94,-285.88 369.54,-285.94 361.29,-279.28 358.94,-285.88"/>
</a>
</g>
</g>
<!-- Node7 -->
<g id="Node000007" class="node">
<title>Node7</title>
<g id="a_Node000007"><a xlink:href="../../d9/daf/lru__cache__component__base_8hpp.html" target="_top" xlink:title="Base class for LRU&#45;cache components.">
<polygon fill="white" stroke="#666666" points="429,-244.5 295,-244.5 295,-214.5 429,-214.5 429,-244.5"/>
<text text-anchor="start" x="303" y="-232.5" font-family="Helvetica,sans-Serif" font-size="10.00">userver/cache/lru_cache</text>
<text text-anchor="middle" x="362" y="-221.5" font-family="Helvetica,sans-Serif" font-size="10.00">_component_base.hpp</text>
</a>
</g>
</g>
<!-- Node2&#45;&gt;Node7 -->
<g id="edge6_Node000002_Node000007" class="edge">
<title>Node2&#45;&gt;Node7</title>
<g id="a_edge6_Node000002_Node000007"><a xlink:title=" ">
<path fill="none" stroke="#63b8ff" d="M393.7,-277.38C386.39,-266.57 377.86,-253.96 371.5,-244.54"/>
<polygon fill="#63b8ff" stroke="#63b8ff" points="390.99,-279.61 399.49,-285.94 396.79,-275.69 390.99,-279.61"/>
</a>
</g>
</g>
<!-- Node8 -->
<g id="Node000008" class="node">
<title>Node8</title>
<g id="a_Node000008"><a xlink:href="../../df/d88/static__config__validator_8hpp_source.html" target="_top" xlink:title=" ">
<polygon fill="white" stroke="#666666" points="602,-173 452,-173 452,-143 602,-143 602,-173"/>
<text text-anchor="start" x="460" y="-161" font-family="Helvetica,sans-Serif" font-size="10.00">userver/components</text>
<text text-anchor="middle" x="527" y="-150" font-family="Helvetica,sans-Serif" font-size="10.00">/static_config_validator.hpp</text>
</a>
</g>
</g>
<!-- Node2&#45;&gt;Node8 -->
<g id="edge7_Node000002_Node000008" class="edge">
<title>Node2&#45;&gt;Node8</title>
<g id="a_edge7_Node000002_Node000008"><a xlink:title=" ">
<path fill="none" stroke="#63b8ff" d="M423.97,-277.62C436.96,-258.72 456.68,-231.25 476,-209 487.06,-196.27 500.76,-182.95 511.18,-173.27"/>
<polygon fill="#63b8ff" stroke="#63b8ff" points="421.07,-275.67 418.33,-285.91 426.85,-279.61 421.07,-275.67"/>
</a>
</g>
</g>
<!-- Node16 -->
<g id="Node000016" class="node">
<title>Node16</title>
<g id="a_Node000016"><a xlink:href="../../d5/d4d/http__handler__flatbuf__base_8hpp.html" target="_top" xlink:title="Convenient base for handlers that accept requests with body in Flatbuffer format and respond with bod...">
<polygon fill="white" stroke="#666666" points="751,-250 619,-250 619,-209 751,-209 751,-250"/>
<text text-anchor="start" x="627" y="-238" font-family="Helvetica,sans-Serif" font-size="10.00">userver/server/handlers</text>
<text text-anchor="start" x="627" y="-227" font-family="Helvetica,sans-Serif" font-size="10.00">/http_handler_flatbuf</text>
<text text-anchor="middle" x="685" y="-216" font-family="Helvetica,sans-Serif" font-size="10.00">_base.hpp</text>
</a>
</g>
</g>
<!-- Node2&#45;&gt;Node16 -->
<g id="edge15_Node000002_Node000016" class="edge">
<title>Node2&#45;&gt;Node16</title>
<g id="a_edge15_Node000002_Node000016"><a xlink:title=" ">
<path fill="none" stroke="#63b8ff" d="M476.41,-283.42C515.46,-273.77 565.53,-261.31 610,-250 612.87,-249.27 615.8,-248.52 618.76,-247.76"/>
<polygon fill="#63b8ff" stroke="#63b8ff" points="475.09,-280.14 466.22,-285.94 476.77,-286.94 475.09,-280.14"/>
</a>
</g>
</g>
<!-- Node17 -->
<g id="Node000017" class="node">
<title>Node17</title>
<g id="a_Node000017"><a xlink:href="../../d2/d80/validate__static__config_8hpp_source.html" target="_top" xlink:title=" ">
<polygon fill="white" stroke="#666666" points="601,-250 485,-250 485,-209 601,-209 601,-250"/>
<text text-anchor="start" x="493" y="-238" font-family="Helvetica,sans-Serif" font-size="10.00">userver/yaml_config</text>
<text text-anchor="start" x="493" y="-227" font-family="Helvetica,sans-Serif" font-size="10.00">/impl/validate_static</text>
<text text-anchor="middle" x="543" y="-216" font-family="Helvetica,sans-Serif" font-size="10.00">_config.hpp</text>
</a>
</g>
</g>
<!-- Node2&#45;&gt;Node17 -->
<g id="edge16_Node000002_Node000017" class="edge">
<title>Node2&#45;&gt;Node17</title>
<g id="a_edge16_Node000002_Node000017"><a xlink:title=" ">
<path fill="none" stroke="#63b8ff" d="M445.16,-281.24C463.77,-271.59 486.43,-259.84 505.26,-250.07"/>
<polygon fill="#63b8ff" stroke="#63b8ff" points="443.38,-278.22 436.12,-285.94 446.61,-284.44 443.38,-278.22"/>
</a>
</g>
</g>
<!-- Node18 -->
<g id="Node000018" class="node">
<title>Node18</title>
<g id="a_Node000018"><a xlink:href="../../dc/d5f/merge__schemas_8hpp.html" target="_top" xlink:title="Merge parent and child components schemas of static configs.">
<polygon fill="white" stroke="#666666" points="132.5,-244.5 11.5,-244.5 11.5,-214.5 132.5,-214.5 132.5,-244.5"/>
<text text-anchor="start" x="19.5" y="-232.5" font-family="Helvetica,sans-Serif" font-size="10.00">userver/yaml_config</text>
<text text-anchor="middle" x="72" y="-221.5" font-family="Helvetica,sans-Serif" font-size="10.00">/merge_schemas.hpp</text>
</a>
</g>
</g>
<!-- Node2&#45;&gt;Node18 -->
<g id="edge18_Node000002_Node000018" class="edge">
<title>Node2&#45;&gt;Node18</title>
<g id="a_edge18_Node000002_Node000018"><a xlink:title=" ">
<path fill="none" stroke="#63b8ff" d="M340.72,-288.89C286.57,-279.68 209.1,-265.6 142,-250 135,-248.37 127.64,-246.5 120.44,-244.58"/>
<polygon fill="#63b8ff" stroke="#63b8ff" points="340.44,-292.39 350.89,-290.61 341.61,-285.49 340.44,-292.39"/>
</a>
</g>
</g>
<!-- Node4 -->
<g id="Node000004" class="node">
<title>Node4</title>
<g id="a_Node000004"><a xlink:href="../../dd/d6c/base__mongo__cache_8hpp.html" target="_top" xlink:title="Base class for all caches polling mongo collection">
<polygon fill="white" stroke="#666666" points="127.5,-173 16.5,-173 16.5,-143 127.5,-143 127.5,-173"/>
<text text-anchor="start" x="24.5" y="-161" font-family="Helvetica,sans-Serif" font-size="10.00">userver/cache/base</text>
<text text-anchor="middle" x="72" y="-150" font-family="Helvetica,sans-Serif" font-size="10.00">_mongo_cache.hpp</text>
</a>
</g>
</g>
<!-- Node3&#45;&gt;Node4 -->
<g id="edge3_Node000003_Node000004" class="edge">
<title>Node3&#45;&gt;Node4</title>
<g id="a_edge3_Node000003_Node000004"><a xlink:title=" ">
<path fill="none" stroke="#63b8ff" d="M176.2,-210C152.5,-198.4 122.43,-183.68 100.69,-173.04"/>
<polygon fill="#63b8ff" stroke="#63b8ff" points="174.74,-213.18 185.26,-214.44 177.82,-206.9 174.74,-213.18"/>
</a>
</g>
</g>
<!-- Node5 -->
<g id="Node000005" class="node">
<title>Node5</title>
<g id="a_Node000005"><a xlink:href="../../dc/df7/base__postgres__cache_8hpp.html" target="_top" xlink:title="Caching component for PostgreSQL. See Caching Component for PostgreSQL.">
<polygon fill="white" stroke="#666666" points="264.5,-173 145.5,-173 145.5,-143 264.5,-143 264.5,-173"/>
<text text-anchor="start" x="153.5" y="-161" font-family="Helvetica,sans-Serif" font-size="10.00">userver/cache/base</text>
<text text-anchor="middle" x="205" y="-150" font-family="Helvetica,sans-Serif" font-size="10.00">_postgres_cache.hpp</text>
</a>
</g>
</g>
<!-- Node3&#45;&gt;Node5 -->
<g id="edge4_Node000003_Node000005" class="edge">
<title>Node3&#45;&gt;Node5</title>
<g id="a_edge4_Node000003_Node000005"><a xlink:title=" ">
<path fill="none" stroke="#63b8ff" d="M210.86,-204.25C209.51,-193.81 207.98,-181.99 206.82,-173.04"/>
<polygon fill="#63b8ff" stroke="#63b8ff" points="207.42,-204.97 212.18,-214.44 214.37,-204.07 207.42,-204.97"/>
</a>
</g>
</g>
<!-- Node6 -->
<g id="Node000006" class="node">
<title>Node6</title>
<g id="a_Node000006"><a xlink:href="../../db/df3/core_2include_2userver_2dynamic__config_2updater_2component_8hpp.html" target="_top" xlink:title="Component that does a periodic update of runtime configs.">
<polygon fill="white" stroke="#666666" points="419,-173 283,-173 283,-143 419,-143 419,-173"/>
<text text-anchor="start" x="291" y="-161" font-family="Helvetica,sans-Serif" font-size="10.00">userver/dynamic_config</text>
<text text-anchor="middle" x="351" y="-150" font-family="Helvetica,sans-Serif" font-size="10.00">/updater/component.hpp</text>
</a>
</g>
</g>
<!-- Node3&#45;&gt;Node6 -->
<g id="edge5_Node000003_Node000006" class="edge">
<title>Node3&#45;&gt;Node6</title>
<g id="a_edge5_Node000003_Node000006"><a xlink:title=" ">
<path fill="none" stroke="#63b8ff" d="M250.78,-209.84C273.59,-198.27 302.44,-183.64 323.32,-173.04"/>
<polygon fill="#63b8ff" stroke="#63b8ff" points="249.06,-206.79 241.72,-214.44 252.23,-213.03 249.06,-206.79"/>
</a>
</g>
</g>
<!-- Node9 -->
<g id="Node000009" class="node">
<title>Node9</title>
<g id="a_Node000009"><a xlink:href="../../d9/d32/component__list_8hpp.html" target="_top" xlink:title="A list to keep a unique list of components to start with components::Run(), utils::DaemonMain() or co...">
<polygon fill="white" stroke="#666666" points="585,-107 469,-107 469,-77 585,-77 585,-107"/>
<text text-anchor="start" x="477" y="-95" font-family="Helvetica,sans-Serif" font-size="10.00">userver/components</text>
<text text-anchor="middle" x="527" y="-84" font-family="Helvetica,sans-Serif" font-size="10.00">/component_list.hpp</text>
</a>
</g>
</g>
<!-- Node8&#45;&gt;Node9 -->
<g id="edge8_Node000008_Node000009" class="edge">
<title>Node8&#45;&gt;Node9</title>
<g id="a_edge8_Node000008_Node000009"><a xlink:title=" ">
<path fill="none" stroke="#63b8ff" d="M527,-132.54C527,-123.96 527,-114.61 527,-107.16"/>
<polygon fill="#63b8ff" stroke="#63b8ff" points="523.5,-132.8 527,-142.8 530.5,-132.8 523.5,-132.8"/>
</a>
</g>
</g>
<!-- Node10 -->
<g id="Node000010" class="node">
<title>Node10</title>
<g id="a_Node000010"><a xlink:href="../../d1/d1c/common__component__list_8hpp.html" target="_top" xlink:title="Returns the most common list of components with runtime config updates and HTTP client.">
<polygon fill="white" stroke="#666666" points="164,-35.5 0,-35.5 0,-5.5 164,-5.5 164,-35.5"/>
<text text-anchor="start" x="8" y="-23.5" font-family="Helvetica,sans-Serif" font-size="10.00">userver/components</text>
<text text-anchor="middle" x="82" y="-12.5" font-family="Helvetica,sans-Serif" font-size="10.00">/common_component_list.hpp</text>
</a>
</g>
</g>
<!-- Node9&#45;&gt;Node10 -->
<g id="edge9_Node000009_Node000010" class="edge">
<title>Node9&#45;&gt;Node10</title>
<g id="a_edge9_Node000009_Node000010"><a xlink:title=" ">
<path fill="none" stroke="#63b8ff" d="M458.64,-82.8C387.17,-73.89 271.88,-58.55 173,-41 163.77,-39.36 154.06,-37.47 144.54,-35.51"/>
<polygon fill="#63b8ff" stroke="#63b8ff" points="458.5,-86.31 468.85,-84.07 459.36,-79.36 458.5,-86.31"/>
</a>
</g>
</g>
<!-- Node11 -->
<g id="Node000011" class="node">
<title>Node11</title>
<g id="a_Node000011"><a xlink:href="../../dc/dec/common__server__component__list_8hpp.html" target="_top" xlink:title="Returns the most common list of components to start a fully functional server.">
<polygon fill="white" stroke="#666666" points="340,-41 182,-41 182,0 340,0 340,-41"/>
<text text-anchor="start" x="190" y="-29" font-family="Helvetica,sans-Serif" font-size="10.00">userver/components</text>
<text text-anchor="start" x="190" y="-18" font-family="Helvetica,sans-Serif" font-size="10.00">/common_server_component</text>
<text text-anchor="middle" x="261" y="-7" font-family="Helvetica,sans-Serif" font-size="10.00">_list.hpp</text>
</a>
</g>
</g>
<!-- Node9&#45;&gt;Node11 -->
<g id="edge10_Node000009_Node000011" class="edge">
<title>Node9&#45;&gt;Node11</title>
<g id="a_edge10_Node000009_Node000011"><a xlink:title=" ">
<path fill="none" stroke="#63b8ff" d="M463.16,-74.32C424.8,-64.3 375.81,-51.5 335.66,-41.01"/>
<polygon fill="#63b8ff" stroke="#63b8ff" points="462.61,-77.79 473.17,-76.94 464.38,-71.02 462.61,-77.79"/>
</a>
</g>
</g>
<!-- Node12 -->
<g id="Node000012" class="node">
<title>Node12</title>
<g id="a_Node000012"><a xlink:href="../../d9/d9e/minimal__component__list_8hpp.html" target="_top" xlink:title="Returns a list of components to do basic logging, component initialization and configuration.">
<polygon fill="white" stroke="#666666" points="519.5,-35.5 358.5,-35.5 358.5,-5.5 519.5,-5.5 519.5,-35.5"/>
<text text-anchor="start" x="366.5" y="-23.5" font-family="Helvetica,sans-Serif" font-size="10.00">userver/components</text>
<text text-anchor="middle" x="439" y="-12.5" font-family="Helvetica,sans-Serif" font-size="10.00">/minimal_component_list.hpp</text>
</a>
</g>
</g>
<!-- Node9&#45;&gt;Node12 -->
<g id="edge11_Node000009_Node000012" class="edge">
<title>Node9&#45;&gt;Node12</title>
<g id="a_edge11_Node000009_Node000012"><a xlink:title=" ">
<path fill="none" stroke="#63b8ff" d="M501.2,-70.63C486.92,-59.35 469.54,-45.62 456.78,-35.54"/>
<polygon fill="#63b8ff" stroke="#63b8ff" points="499.17,-73.48 509.19,-76.94 503.51,-67.99 499.17,-73.48"/>
</a>
</g>
</g>
<!-- Node13 -->
<g id="Node000013" class="node">
<title>Node13</title>
<g id="a_Node000013"><a xlink:href="../../db/dbf/minimal__server__component__list_8hpp.html" target="_top" xlink:title="Returns a list of components to start a basic HTTP server.">
<polygon fill="white" stroke="#666666" points="694,-41 538,-41 538,0 694,0 694,-41"/>
<text text-anchor="start" x="546" y="-29" font-family="Helvetica,sans-Serif" font-size="10.00">userver/components</text>
<text text-anchor="start" x="546" y="-18" font-family="Helvetica,sans-Serif" font-size="10.00">/minimal_server_component</text>
<text text-anchor="middle" x="616" y="-7" font-family="Helvetica,sans-Serif" font-size="10.00">_list.hpp</text>
</a>
</g>
</g>
<!-- Node9&#45;&gt;Node13 -->
<g id="edge12_Node000009_Node000013" class="edge">
<title>Node9&#45;&gt;Node13</title>
<g id="a_edge12_Node000009_Node000013"><a xlink:title=" ">
<path fill="none" stroke="#63b8ff" d="M552.9,-70.77C564.88,-61.42 579.06,-50.35 590.93,-41.07"/>
<polygon fill="#63b8ff" stroke="#63b8ff" points="550.74,-68.02 545.01,-76.94 555.05,-73.54 550.74,-68.02"/>
</a>
</g>
</g>
<!-- Node14 -->
<g id="Node000014" class="node">
<title>Node14</title>
<g id="a_Node000014"><a xlink:href="../../da/d51/run_8hpp.html" target="_top" xlink:title="Functions to start a service or tool with the specified config and components::ComponentList.">
<polygon fill="white" stroke="#666666" points="828,-35.5 712,-35.5 712,-5.5 828,-5.5 828,-35.5"/>
<text text-anchor="start" x="720" y="-23.5" font-family="Helvetica,sans-Serif" font-size="10.00">userver/components</text>
<text text-anchor="middle" x="770" y="-12.5" font-family="Helvetica,sans-Serif" font-size="10.00">/run.hpp</text>
</a>
</g>
</g>
<!-- Node9&#45;&gt;Node14 -->
<g id="edge13_Node000009_Node000014" class="edge">
<title>Node9&#45;&gt;Node14</title>
<g id="a_edge13_Node000009_Node000014"><a xlink:title=" ">
<path fill="none" stroke="#63b8ff" d="M586.52,-74.19C620.63,-64.53 664.24,-52.15 703,-41 709.05,-39.26 715.41,-37.42 721.7,-35.6"/>
<polygon fill="#63b8ff" stroke="#63b8ff" points="585.38,-70.88 576.71,-76.97 587.29,-77.61 585.38,-70.88"/>
</a>
</g>
</g>
<!-- Node15 -->
<g id="Node000015" class="node">
<title>Node15</title>
<g id="a_Node000015"><a xlink:href="../../d7/de0/daemon__run_8hpp.html" target="_top" xlink:title="Functions to start a daemon with specified components list.">
<polygon fill="white" stroke="#666666" points="966,-35.5 846,-35.5 846,-5.5 966,-5.5 966,-35.5"/>
<text text-anchor="start" x="854" y="-23.5" font-family="Helvetica,sans-Serif" font-size="10.00">userver/utils/daemon</text>
<text text-anchor="middle" x="906" y="-12.5" font-family="Helvetica,sans-Serif" font-size="10.00">_run.hpp</text>
</a>
</g>
</g>
<!-- Node9&#45;&gt;Node15 -->
<g id="edge14_Node000009_Node000015" class="edge">
<title>Node9&#45;&gt;Node15</title>
<g id="a_edge14_Node000009_Node000015"><a xlink:title=" ">
<path fill="none" stroke="#63b8ff" d="M595.31,-82.29C658.41,-73.71 754.56,-59.23 837,-41 844.17,-39.41 851.7,-37.52 859.05,-35.55"/>
<polygon fill="#63b8ff" stroke="#63b8ff" points="594.53,-78.87 585.08,-83.67 595.46,-85.8 594.53,-78.87"/>
</a>
</g>
</g>
<!-- Node17&#45;&gt;Node8 -->
<g id="edge17_Node000017_Node000008" class="edge">
<title>Node17&#45;&gt;Node8</title>
<g id="a_edge17_Node000017_Node000008"><a xlink:title=" ">
<path fill="none" stroke="#63b8ff" d="M536.2,-198.95C534.13,-189.96 531.95,-180.5 530.23,-173.04"/>
<polygon fill="#63b8ff" stroke="#63b8ff" points="532.8,-199.81 538.46,-208.77 539.63,-198.24 532.8,-199.81"/>
</a>
</g>
</g>
<!-- Node18&#45;&gt;Node4 -->
<g id="edge19_Node000018_Node000004" class="edge">
<title>Node18&#45;&gt;Node4</title>
<g id="a_edge19_Node000018_Node000004"><a xlink:title=" ">
<path fill="none" stroke="#63b8ff" d="M72,-204.25C72,-193.81 72,-181.99 72,-173.04"/>
<polygon fill="#63b8ff" stroke="#63b8ff" points="68.5,-204.44 72,-214.44 75.5,-204.44 68.5,-204.44"/>
</a>
</g>
</g>
<!-- Node18&#45;&gt;Node5 -->
<g id="edge20_Node000018_Node000005" class="edge">
<title>Node18&#45;&gt;Node5</title>
<g id="a_edge20_Node000018_Node000005"><a xlink:title=" ">
<path fill="none" stroke="#63b8ff" d="M108,-209.69C130.1,-198.14 157.95,-183.59 178.13,-173.04"/>
<polygon fill="#63b8ff" stroke="#63b8ff" points="106.16,-206.7 98.91,-214.44 109.4,-212.91 106.16,-206.7"/>
</a>
</g>
</g>
</g>
</svg>
