<?xml version="1.0" encoding="UTF-8" standalone="no"?>
<!DOCTYPE svg PUBLIC "-//W3C//DTD SVG 1.1//EN"
 "http://www.w3.org/Graphics/SVG/1.1/DTD/svg11.dtd">
<!-- Generated by graphviz version 2.43.0 (0)
 -->
<!-- Title: userver/logging/logger.hpp Pages: 1 -->
<svg width="370pt" height="82pt"
 viewBox="0.00 0.00 369.50 82.00" xmlns="http://www.w3.org/2000/svg" xmlns:xlink="http://www.w3.org/1999/xlink">
<g id="graph0" class="graph" transform="scale(1 1) rotate(0) translate(4 78)">
<title>userver/logging/logger.hpp</title>
<!-- Node1 -->
<g id="Node000001" class="node">
<title>Node1</title>
<g id="a_Node000001"><a xlink:title="Logger definitions and helpers.">
<polygon fill="#999999" stroke="#666666" points="253.5,-74 107.5,-74 107.5,-55 253.5,-55 253.5,-74"/>
<text text-anchor="middle" x="180.5" y="-62" font-family="Helvetica,sans-Serif" font-size="10.00">userver/logging/logger.hpp</text>
</a>
</g>
</g>
<!-- Node2 -->
<g id="Node000002" class="node">
<title>Node2</title>
<g id="a_Node000002"><a xlink:href="../../dc/d2e/core_2include_2userver_2logging_2component_8hpp.html" target="_top" xlink:title="Logging component">
<polygon fill="white" stroke="#666666" points="171,-19 0,-19 0,0 171,0 171,-19"/>
<text text-anchor="middle" x="85.5" y="-7" font-family="Helvetica,sans-Serif" font-size="10.00">userver/logging/component.hpp</text>
</a>
</g>
</g>
<!-- Node1&#45;&gt;Node2 -->
<g id="edge1_Node000001_Node000002" class="edge">
<title>Node1&#45;&gt;Node2</title>
<g id="a_edge1_Node000001_Node000002"><a xlink:title=" ">
<path fill="none" stroke="#63b8ff" d="M156.24,-49.97C138.87,-40.28 116.01,-27.52 101.04,-19.17"/>
<polygon fill="#63b8ff" stroke="#63b8ff" points="154.8,-53.17 165.24,-54.98 158.21,-47.06 154.8,-53.17"/>
</a>
</g>
</g>
<!-- Node3 -->
<g id="Node000003" class="node">
<title>Node3</title>
<g id="a_Node000003"><a xlink:href="../../dc/d04/opentracing_8hpp_source.html" target="_top" xlink:title=" ">
<polygon fill="white" stroke="#666666" points="361.5,-19 189.5,-19 189.5,0 361.5,0 361.5,-19"/>
<text text-anchor="middle" x="275.5" y="-7" font-family="Helvetica,sans-Serif" font-size="10.00">userver/tracing/opentracing.hpp</text>
</a>
</g>
</g>
<!-- Node1&#45;&gt;Node3 -->
<g id="edge2_Node000001_Node000003" class="edge">
<title>Node1&#45;&gt;Node3</title>
<g id="a_edge2_Node000001_Node000003"><a xlink:title=" ">
<path fill="none" stroke="#63b8ff" d="M204.76,-49.97C222.13,-40.28 244.99,-27.52 259.96,-19.17"/>
<polygon fill="#63b8ff" stroke="#63b8ff" points="202.79,-47.06 195.76,-54.98 206.2,-53.17 202.79,-47.06"/>
</a>
</g>
</g>
</g>
</svg>
