<?xml version="1.0" encoding="UTF-8" standalone="no"?>
<!DOCTYPE svg PUBLIC "-//W3C//DTD SVG 1.1//EN"
 "http://www.w3.org/Graphics/SVG/1.1/DTD/svg11.dtd">
<!-- Generated by graphviz version 2.43.0 (0)
 -->
<!-- Title: userver/yaml_config/fwd.hpp Pages: 1 -->
<svg width="2046pt" height="379pt"
 viewBox="0.00 0.00 2045.50 379.00" xmlns="http://www.w3.org/2000/svg" xmlns:xlink="http://www.w3.org/1999/xlink">
<g id="graph0" class="graph" transform="scale(1 1) rotate(0) translate(4 375)">
<title>userver/yaml_config/fwd.hpp</title>
<!-- Node1 -->
<g id="Node000001" class="node">
<title>Node1</title>
<g id="a_Node000001"><a xlink:title="Forward declarations of YamlConfig type and formats::parse::To.">
<polygon fill="#999999" stroke="#666666" points="1346,-371 1230,-371 1230,-341 1346,-341 1346,-371"/>
<text text-anchor="start" x="1238" y="-359" font-family="Helvetica,sans-Serif" font-size="10.00">userver/yaml_config</text>
<text text-anchor="middle" x="1288" y="-348" font-family="Helvetica,sans-Serif" font-size="10.00">/fwd.hpp</text>
</a>
</g>
</g>
<!-- Node2 -->
<g id="Node000002" class="node">
<title>Node2</title>
<g id="a_Node000002"><a xlink:href="../../da/d9b/cache__config_8hpp_source.html" target="_top" xlink:title=" ">
<polygon fill="white" stroke="#666666" points="116,-239 0,-239 0,-209 116,-209 116,-239"/>
<text text-anchor="start" x="8" y="-227" font-family="Helvetica,sans-Serif" font-size="10.00">userver/cache/cache</text>
<text text-anchor="middle" x="58" y="-216" font-family="Helvetica,sans-Serif" font-size="10.00">_config.hpp</text>
</a>
</g>
</g>
<!-- Node1&#45;&gt;Node2 -->
<g id="edge1_Node000001_Node000002" class="edge">
<title>Node1&#45;&gt;Node2</title>
<g id="a_edge1_Node000001_Node000002"><a xlink:title=" ">
<path fill="none" stroke="#63b8ff" d="M1219.6,-353.26C1032.95,-348.19 517.58,-332.1 350,-305 258.42,-290.19 154.32,-257.77 98.49,-239.07"/>
<polygon fill="#63b8ff" stroke="#63b8ff" points="1219.74,-356.76 1229.83,-353.53 1219.93,-349.76 1219.74,-356.76"/>
</a>
</g>
</g>
<!-- Node3 -->
<g id="Node000003" class="node">
<title>Node3</title>
<g id="a_Node000003"><a xlink:href="../../d0/dbc/lru__cache__config_8hpp_source.html" target="_top" xlink:title=" ">
<polygon fill="white" stroke="#666666" points="1011,-239 877,-239 877,-209 1011,-209 1011,-239"/>
<text text-anchor="start" x="885" y="-227" font-family="Helvetica,sans-Serif" font-size="10.00">userver/cache/lru_cache</text>
<text text-anchor="middle" x="944" y="-216" font-family="Helvetica,sans-Serif" font-size="10.00">_config.hpp</text>
</a>
</g>
</g>
<!-- Node1&#45;&gt;Node3 -->
<g id="edge2_Node000001_Node000003" class="edge">
<title>Node1&#45;&gt;Node3</title>
<g id="a_edge2_Node000001_Node000003"><a xlink:title=" ">
<path fill="none" stroke="#63b8ff" d="M1219.68,-351.81C1139.44,-346.75 1012.62,-334.28 976,-305 955.56,-288.65 948.11,-257.27 945.44,-239.05"/>
<polygon fill="#63b8ff" stroke="#63b8ff" points="1219.52,-355.3 1229.71,-352.42 1219.94,-348.32 1219.52,-355.3"/>
</a>
</g>
</g>
<!-- Node7 -->
<g id="Node000007" class="node">
<title>Node7</title>
<g id="a_Node000007"><a xlink:href="../../d9/dc2/update__type_8hpp.html" target="_top" xlink:title="Enums representing periodic update types for CachingComponentBase">
<polygon fill="white" stroke="#666666" points="481,-305 359,-305 359,-275 481,-275 481,-305"/>
<text text-anchor="start" x="367" y="-293" font-family="Helvetica,sans-Serif" font-size="10.00">userver/cache/update</text>
<text text-anchor="middle" x="420" y="-282" font-family="Helvetica,sans-Serif" font-size="10.00">_type.hpp</text>
</a>
</g>
</g>
<!-- Node1&#45;&gt;Node7 -->
<g id="edge7_Node000001_Node000007" class="edge">
<title>Node1&#45;&gt;Node7</title>
<g id="a_edge7_Node000001_Node000007"><a xlink:title=" ">
<path fill="none" stroke="#63b8ff" d="M1219.7,-349.96C1055.06,-337.82 638.33,-307.1 481.21,-295.51"/>
<polygon fill="#63b8ff" stroke="#63b8ff" points="1219.47,-353.46 1229.7,-350.7 1219.98,-346.48 1219.47,-353.46"/>
</a>
</g>
</g>
<!-- Node18 -->
<g id="Node000018" class="node">
<title>Node18</title>
<g id="a_Node000018"><a xlink:href="../../d3/db8/core_2include_2userver_2clients_2http_2client_8hpp.html" target="_top" xlink:title="HTTP client that returns a HTTP request builder from CreateRequest().">
<polygon fill="white" stroke="#666666" points="1348.5,-239 1237.5,-239 1237.5,-209 1348.5,-209 1348.5,-239"/>
<text text-anchor="start" x="1245.5" y="-227" font-family="Helvetica,sans-Serif" font-size="10.00">userver/clients/http</text>
<text text-anchor="middle" x="1293" y="-216" font-family="Helvetica,sans-Serif" font-size="10.00">/client.hpp</text>
</a>
</g>
</g>
<!-- Node1&#45;&gt;Node18 -->
<g id="edge26_Node000001_Node000018" class="edge">
<title>Node1&#45;&gt;Node18</title>
<g id="a_edge26_Node000001_Node000018"><a xlink:title=" ">
<path fill="none" stroke="#63b8ff" d="M1288.94,-330.68C1289.97,-303.7 1291.61,-261.11 1292.46,-239.14"/>
<polygon fill="#63b8ff" stroke="#63b8ff" points="1285.43,-330.71 1288.54,-340.84 1292.43,-330.98 1285.43,-330.71"/>
</a>
</g>
</g>
<!-- Node20 -->
<g id="Node000020" class="node">
<title>Node20</title>
<g id="a_Node000020"><a xlink:href="../../d5/dfc/clients_2http_2impl_2config_8hpp_source.html" target="_top" xlink:title=" ">
<polygon fill="white" stroke="#666666" points="1259.5,-305 1148.5,-305 1148.5,-275 1259.5,-275 1259.5,-305"/>
<text text-anchor="start" x="1156.5" y="-293" font-family="Helvetica,sans-Serif" font-size="10.00">userver/clients/http</text>
<text text-anchor="middle" x="1204" y="-282" font-family="Helvetica,sans-Serif" font-size="10.00">/impl/config.hpp</text>
</a>
</g>
</g>
<!-- Node1&#45;&gt;Node20 -->
<g id="edge28_Node000001_Node000020" class="edge">
<title>Node1&#45;&gt;Node20</title>
<g id="a_edge28_Node000001_Node000020"><a xlink:title=" ">
<path fill="none" stroke="#63b8ff" d="M1261.06,-334.48C1248.51,-324.91 1233.89,-313.77 1222.59,-305.16"/>
<polygon fill="#63b8ff" stroke="#63b8ff" points="1259.28,-337.52 1269.36,-340.8 1263.52,-331.95 1259.28,-337.52"/>
</a>
</g>
</g>
<!-- Node21 -->
<g id="Node000021" class="node">
<title>Node21</title>
<g id="a_Node000021"><a xlink:href="../../d1/d41/fs__cache_8hpp.html" target="_top" xlink:title="Component for storing files in memory.">
<polygon fill="white" stroke="#666666" points="1432,-305 1316,-305 1316,-275 1432,-275 1432,-305"/>
<text text-anchor="start" x="1324" y="-293" font-family="Helvetica,sans-Serif" font-size="10.00">userver/components</text>
<text text-anchor="middle" x="1374" y="-282" font-family="Helvetica,sans-Serif" font-size="10.00">/fs_cache.hpp</text>
</a>
</g>
</g>
<!-- Node1&#45;&gt;Node21 -->
<g id="edge30_Node000001_Node000021" class="edge">
<title>Node1&#45;&gt;Node21</title>
<g id="a_edge30_Node000001_Node000021"><a xlink:title=" ">
<path fill="none" stroke="#63b8ff" d="M1315.21,-334.75C1328.14,-325.13 1343.29,-313.86 1354.97,-305.16"/>
<polygon fill="#63b8ff" stroke="#63b8ff" points="1313.02,-332.02 1307.09,-340.8 1317.2,-337.63 1313.02,-332.02"/>
</a>
</g>
</g>
<!-- Node23 -->
<g id="Node000023" class="node">
<title>Node23</title>
<g id="a_Node000023"><a xlink:href="../../d5/dd9/dumper_8hpp.html" target="_top" xlink:title="Manages dumps of a cache&#45;like component.">
<polygon fill="white" stroke="#666666" points="1130.5,-299.5 985.5,-299.5 985.5,-280.5 1130.5,-280.5 1130.5,-299.5"/>
<text text-anchor="middle" x="1058" y="-287.5" font-family="Helvetica,sans-Serif" font-size="10.00">userver/dump/dumper.hpp</text>
</a>
</g>
</g>
<!-- Node1&#45;&gt;Node23 -->
<g id="edge32_Node000001_Node000023" class="edge">
<title>Node1&#45;&gt;Node23</title>
<g id="a_edge32_Node000001_Node000023"><a xlink:title=" ">
<path fill="none" stroke="#63b8ff" d="M1227.65,-338.21C1182.97,-325.78 1123.96,-309.35 1088.61,-299.52"/>
<polygon fill="#63b8ff" stroke="#63b8ff" points="1226.95,-341.65 1237.53,-340.95 1228.83,-334.9 1226.95,-341.65"/>
</a>
</g>
</g>
<!-- Node26 -->
<g id="Node000026" class="node">
<title>Node26</title>
<g id="a_Node000026"><a xlink:href="../../d2/db3/level__serialization_8hpp.html" target="_top" xlink:title="Serialization of log levels.">
<polygon fill="white" stroke="#666666" points="1569.5,-305 1450.5,-305 1450.5,-275 1569.5,-275 1569.5,-305"/>
<text text-anchor="start" x="1458.5" y="-293" font-family="Helvetica,sans-Serif" font-size="10.00">userver/logging/level</text>
<text text-anchor="middle" x="1510" y="-282" font-family="Helvetica,sans-Serif" font-size="10.00">_serialization.hpp</text>
</a>
</g>
</g>
<!-- Node1&#45;&gt;Node26 -->
<g id="edge39_Node000001_Node000026" class="edge">
<title>Node1&#45;&gt;Node26</title>
<g id="a_edge39_Node000001_Node000026"><a xlink:title=" ">
<path fill="none" stroke="#63b8ff" d="M1346.55,-338.12C1382.34,-327.8 1427.59,-314.76 1461.39,-305.01"/>
<polygon fill="#63b8ff" stroke="#63b8ff" points="1345.36,-334.82 1336.72,-340.95 1347.3,-341.55 1345.36,-334.82"/>
</a>
</g>
</g>
<!-- Node27 -->
<g id="Node000027" class="node">
<title>Node27</title>
<g id="a_Node000027"><a xlink:href="../../de/d4e/core_2include_2userver_2server_2websocket_2server_8hpp.html" target="_top" xlink:title=" ">
<polygon fill="white" stroke="#666666" points="1730,-305 1588,-305 1588,-275 1730,-275 1730,-305"/>
<text text-anchor="start" x="1596" y="-293" font-family="Helvetica,sans-Serif" font-size="10.00">userver/server/websocket</text>
<text text-anchor="middle" x="1659" y="-282" font-family="Helvetica,sans-Serif" font-size="10.00">/server.hpp</text>
</a>
</g>
</g>
<!-- Node1&#45;&gt;Node27 -->
<g id="edge40_Node000001_Node000027" class="edge">
<title>Node1&#45;&gt;Node27</title>
<g id="a_edge40_Node000001_Node000027"><a xlink:title=" ">
<path fill="none" stroke="#63b8ff" d="M1355.96,-343.29C1414.73,-333.16 1501.97,-318.12 1578,-305 1581.23,-304.44 1584.54,-303.87 1587.88,-303.29"/>
<polygon fill="#63b8ff" stroke="#63b8ff" points="1355.31,-339.85 1346.05,-345 1356.5,-346.75 1355.31,-339.85"/>
</a>
</g>
</g>
<!-- Node29 -->
<g id="Node000029" class="node">
<title>Node29</title>
<g id="a_Node000029"><a xlink:href="../../d0/d98/client__factory_8hpp.html" target="_top" xlink:title="Creates generated gRPC clients. Has a minimal built&#45;in channel cache: as long as a channel to the sam...">
<polygon fill="white" stroke="#666666" points="1861.5,-305 1748.5,-305 1748.5,-275 1861.5,-275 1861.5,-305"/>
<text text-anchor="start" x="1756.5" y="-293" font-family="Helvetica,sans-Serif" font-size="10.00">userver/ugrpc/client</text>
<text text-anchor="middle" x="1805" y="-282" font-family="Helvetica,sans-Serif" font-size="10.00">/client_factory.hpp</text>
</a>
</g>
</g>
<!-- Node1&#45;&gt;Node29 -->
<g id="edge42_Node000001_Node000029" class="edge">
<title>Node1&#45;&gt;Node29</title>
<g id="a_edge42_Node000001_Node000029"><a xlink:title=" ">
<path fill="none" stroke="#63b8ff" d="M1356.46,-349.53C1445.08,-341.96 1604.15,-326.72 1739,-305 1742.01,-304.52 1745.08,-303.99 1748.18,-303.42"/>
<polygon fill="#63b8ff" stroke="#63b8ff" points="1355.94,-346.06 1346.27,-350.39 1356.53,-353.03 1355.94,-346.06"/>
</a>
</g>
</g>
<!-- Node32 -->
<g id="Node000032" class="node">
<title>Node32</title>
<g id="a_Node000032"><a xlink:href="../../d4/d79/grpc_2include_2userver_2ugrpc_2server_2server_8hpp.html" target="_top" xlink:title="Manages the gRPC server.">
<polygon fill="white" stroke="#666666" points="2013.5,-305 1896.5,-305 1896.5,-275 2013.5,-275 2013.5,-305"/>
<text text-anchor="start" x="1904.5" y="-293" font-family="Helvetica,sans-Serif" font-size="10.00">userver/ugrpc/server</text>
<text text-anchor="middle" x="1955" y="-282" font-family="Helvetica,sans-Serif" font-size="10.00">/server.hpp</text>
</a>
</g>
</g>
<!-- Node1&#45;&gt;Node32 -->
<g id="edge45_Node000001_Node000032" class="edge">
<title>Node1&#45;&gt;Node32</title>
<g id="a_edge45_Node000001_Node000032"><a xlink:title=" ">
<path fill="none" stroke="#63b8ff" d="M1356.6,-350.84C1465.62,-343.83 1685.02,-328.14 1870,-305 1878.46,-303.94 1887.36,-302.66 1896.1,-301.31"/>
<polygon fill="#63b8ff" stroke="#63b8ff" points="1356.15,-347.36 1346.4,-351.49 1356.6,-354.34 1356.15,-347.36"/>
</a>
</g>
</g>
<!-- Node4 -->
<g id="Node000004" class="node">
<title>Node4</title>
<g id="a_Node000004"><a xlink:href="../../d8/de1/expirable__lru__cache_8hpp.html" target="_top" xlink:title="Class for expirable LRU cache. Use cache::LruMap for not expirable LRU Cache.">
<polygon fill="white" stroke="#666666" points="1201,-173 1067,-173 1067,-143 1201,-143 1201,-173"/>
<text text-anchor="start" x="1075" y="-161" font-family="Helvetica,sans-Serif" font-size="10.00">userver/cache/expirable</text>
<text text-anchor="middle" x="1134" y="-150" font-family="Helvetica,sans-Serif" font-size="10.00">_lru_cache.hpp</text>
</a>
</g>
</g>
<!-- Node3&#45;&gt;Node4 -->
<g id="edge3_Node000003_Node000004" class="edge">
<title>Node3&#45;&gt;Node4</title>
<g id="a_edge3_Node000003_Node000004"><a xlink:title=" ">
<path fill="none" stroke="#63b8ff" d="M995.29,-205.72C1025.73,-195.47 1063.84,-182.63 1092.4,-173.01"/>
<polygon fill="#63b8ff" stroke="#63b8ff" points="994.06,-202.45 985.7,-208.95 996.29,-209.08 994.06,-202.45"/>
</a>
</g>
</g>
<!-- Node5 -->
<g id="Node000005" class="node">
<title>Node5</title>
<g id="a_Node000005"><a xlink:href="../../d9/daf/lru__cache__component__base_8hpp.html" target="_top" xlink:title="Base class for LRU&#45;cache components.">
<polygon fill="white" stroke="#666666" points="1078,-101.5 944,-101.5 944,-71.5 1078,-71.5 1078,-101.5"/>
<text text-anchor="start" x="952" y="-89.5" font-family="Helvetica,sans-Serif" font-size="10.00">userver/cache/lru_cache</text>
<text text-anchor="middle" x="1011" y="-78.5" font-family="Helvetica,sans-Serif" font-size="10.00">_component_base.hpp</text>
</a>
</g>
</g>
<!-- Node3&#45;&gt;Node5 -->
<g id="edge6_Node000003_Node000005" class="edge">
<title>Node3&#45;&gt;Node5</title>
<g id="a_edge6_Node000003_Node000005"><a xlink:title=" ">
<path fill="none" stroke="#63b8ff" d="M955.57,-199.6C969.54,-171.35 992.57,-124.77 1004.05,-101.55"/>
<polygon fill="#63b8ff" stroke="#63b8ff" points="952.34,-198.24 951.04,-208.76 958.61,-201.34 952.34,-198.24"/>
</a>
</g>
</g>
<!-- Node4&#45;&gt;Node5 -->
<g id="edge4_Node000004_Node000005" class="edge">
<title>Node4&#45;&gt;Node5</title>
<g id="a_edge4_Node000004_Node000005"><a xlink:title=" ">
<path fill="none" stroke="#63b8ff" d="M1100.16,-137.88C1079.81,-126.38 1054.35,-111.99 1035.85,-101.54"/>
<polygon fill="#63b8ff" stroke="#63b8ff" points="1098.68,-141.06 1109.11,-142.94 1102.12,-134.97 1098.68,-141.06"/>
</a>
</g>
</g>
<!-- Node6 -->
<g id="Node000006" class="node">
<title>Node6</title>
<g id="a_Node000006"><a xlink:href="../../db/df0/standalone__checker_8hpp.html" target="_top" xlink:title="Class for digest authentication checker. Implements a stand&#45;alone digest&#45;authentication logic.">
<polygon fill="white" stroke="#666666" points="1228,-107 1096,-107 1096,-66 1228,-66 1228,-107"/>
<text text-anchor="start" x="1104" y="-95" font-family="Helvetica,sans-Serif" font-size="10.00">userver/server/handlers</text>
<text text-anchor="start" x="1104" y="-84" font-family="Helvetica,sans-Serif" font-size="10.00">/auth/digest/standalone</text>
<text text-anchor="middle" x="1162" y="-73" font-family="Helvetica,sans-Serif" font-size="10.00">_checker.hpp</text>
</a>
</g>
</g>
<!-- Node4&#45;&gt;Node6 -->
<g id="edge5_Node000004_Node000006" class="edge">
<title>Node4&#45;&gt;Node6</title>
<g id="a_edge5_Node000004_Node000006"><a xlink:title=" ">
<path fill="none" stroke="#63b8ff" d="M1143.48,-133.47C1146.94,-124.89 1150.81,-115.28 1154.11,-107.07"/>
<polygon fill="#63b8ff" stroke="#63b8ff" points="1140.16,-132.35 1139.67,-142.94 1146.65,-134.97 1140.16,-132.35"/>
</a>
</g>
</g>
<!-- Node7&#45;&gt;Node2 -->
<g id="edge8_Node000007_Node000002" class="edge">
<title>Node7&#45;&gt;Node2</title>
<g id="a_edge8_Node000007_Node000002"><a xlink:title=" ">
<path fill="none" stroke="#63b8ff" d="M348.91,-277.18C290.16,-267.3 204.58,-252.68 130,-239 125.49,-238.17 120.83,-237.3 116.14,-236.42"/>
<polygon fill="#63b8ff" stroke="#63b8ff" points="348.39,-280.64 358.83,-278.84 349.55,-273.74 348.39,-280.64"/>
</a>
</g>
</g>
<!-- Node8 -->
<g id="Node000008" class="node">
<title>Node8</title>
<g id="a_Node000008"><a xlink:href="../../d1/d8c/cache__statistics_8hpp.html" target="_top" xlink:title="Statistics collection for components::CachingComponentBase.">
<polygon fill="white" stroke="#666666" points="423,-239 307,-239 307,-209 423,-209 423,-239"/>
<text text-anchor="start" x="315" y="-227" font-family="Helvetica,sans-Serif" font-size="10.00">userver/cache/cache</text>
<text text-anchor="middle" x="365" y="-216" font-family="Helvetica,sans-Serif" font-size="10.00">_statistics.hpp</text>
</a>
</g>
</g>
<!-- Node7&#45;&gt;Node8 -->
<g id="edge9_Node000007_Node000008" class="edge">
<title>Node7&#45;&gt;Node8</title>
<g id="a_edge9_Node000007_Node000008"><a xlink:title=" ">
<path fill="none" stroke="#63b8ff" d="M401.17,-267.09C393.23,-257.85 384.22,-247.36 377.17,-239.16"/>
<polygon fill="#63b8ff" stroke="#63b8ff" points="398.62,-269.49 407.79,-274.8 403.93,-264.93 398.62,-269.49"/>
</a>
</g>
</g>
<!-- Node11 -->
<g id="Node000011" class="node">
<title>Node11</title>
<g id="a_Node000011"><a xlink:href="../../d1/d20/cache__update__trait_8hpp.html" target="_top" xlink:title="Base class for periodically updated caches.">
<polygon fill="white" stroke="#666666" points="288,-173 172,-173 172,-143 288,-143 288,-173"/>
<text text-anchor="start" x="180" y="-161" font-family="Helvetica,sans-Serif" font-size="10.00">userver/cache/cache</text>
<text text-anchor="middle" x="230" y="-150" font-family="Helvetica,sans-Serif" font-size="10.00">_update_trait.hpp</text>
</a>
</g>
</g>
<!-- Node7&#45;&gt;Node11 -->
<g id="edge19_Node000007_Node000011" class="edge">
<title>Node7&#45;&gt;Node11</title>
<g id="a_edge19_Node000007_Node000011"><a xlink:title=" ">
<path fill="none" stroke="#63b8ff" d="M361.39,-271.45C340.25,-263.5 316.96,-252.75 298,-239 272.62,-220.59 250.65,-190.8 238.96,-173.24"/>
<polygon fill="#63b8ff" stroke="#63b8ff" points="360.33,-274.79 370.93,-274.9 362.72,-268.21 360.33,-274.79"/>
</a>
</g>
</g>
<!-- Node13 -->
<g id="Node000013" class="node">
<title>Node13</title>
<g id="a_Node000013"><a xlink:href="../../db/df3/core_2include_2userver_2dynamic__config_2updater_2component_8hpp.html" target="_top" xlink:title="Component that does a periodic update of runtime configs.">
<polygon fill="white" stroke="#666666" points="498,-30 362,-30 362,0 498,0 498,-30"/>
<text text-anchor="start" x="370" y="-18" font-family="Helvetica,sans-Serif" font-size="10.00">userver/dynamic_config</text>
<text text-anchor="middle" x="430" y="-7" font-family="Helvetica,sans-Serif" font-size="10.00">/updater/component.hpp</text>
</a>
</g>
</g>
<!-- Node7&#45;&gt;Node13 -->
<g id="edge23_Node000007_Node000013" class="edge">
<title>Node7&#45;&gt;Node13</title>
<g id="a_edge23_Node000007_Node000013"><a xlink:title=" ">
<path fill="none" stroke="#63b8ff" d="M458.34,-270.05C492.39,-250.84 539.94,-217.6 561,-173 589.65,-112.33 504.59,-55.67 458.11,-30.17"/>
<polygon fill="#63b8ff" stroke="#63b8ff" points="456.64,-266.98 449.56,-274.86 460.01,-273.12 456.64,-266.98"/>
</a>
</g>
</g>
<!-- Node14 -->
<g id="Node000014" class="node">
<title>Node14</title>
<g id="a_Node000014"><a xlink:href="../../dd/dd2/statistics__mock_8hpp.html" target="_top" xlink:title="Allows to test helper functions of CacheUpdateTrait::Update that use UpdateStatisticsScope.">
<polygon fill="white" stroke="#666666" points="552,-173 420,-173 420,-143 552,-143 552,-173"/>
<text text-anchor="start" x="428" y="-161" font-family="Helvetica,sans-Serif" font-size="10.00">userver/cache/statistics</text>
<text text-anchor="middle" x="486" y="-150" font-family="Helvetica,sans-Serif" font-size="10.00">_mock.hpp</text>
</a>
</g>
</g>
<!-- Node7&#45;&gt;Node14 -->
<g id="edge22_Node000007_Node000014" class="edge">
<title>Node7&#45;&gt;Node14</title>
<g id="a_edge22_Node000007_Node000014"><a xlink:title=" ">
<path fill="none" stroke="#63b8ff" d="M431.81,-265.75C445.46,-238.84 467.52,-195.4 478.82,-173.14"/>
<polygon fill="#63b8ff" stroke="#63b8ff" points="428.59,-264.34 427.19,-274.84 434.84,-267.51 428.59,-264.34"/>
</a>
</g>
</g>
<!-- Node15 -->
<g id="Node000015" class="node">
<title>Node15</title>
<g id="a_Node000015"><a xlink:href="../../d4/dd9/mongo__cache__type__traits_8hpp_source.html" target="_top" xlink:title=" ">
<polygon fill="white" stroke="#666666" points="143.5,-101.5 14.5,-101.5 14.5,-71.5 143.5,-71.5 143.5,-101.5"/>
<text text-anchor="start" x="22.5" y="-89.5" font-family="Helvetica,sans-Serif" font-size="10.00">userver/cache/mongo</text>
<text text-anchor="middle" x="79" y="-78.5" font-family="Helvetica,sans-Serif" font-size="10.00">_cache_type_traits.hpp</text>
</a>
</g>
</g>
<!-- Node7&#45;&gt;Node15 -->
<g id="edge20_Node000007_Node000015" class="edge">
<title>Node7&#45;&gt;Node15</title>
<g id="a_edge20_Node000007_Node000015"><a xlink:title=" ">
<path fill="none" stroke="#63b8ff" d="M353.12,-272.11C324.65,-263.8 291.51,-252.63 263,-239 214.95,-216.04 204.11,-206.85 163,-173 135.37,-150.25 106.95,-119.47 91.27,-101.73"/>
<polygon fill="#63b8ff" stroke="#63b8ff" points="352.4,-275.54 362.98,-274.93 354.32,-268.81 352.4,-275.54"/>
</a>
</g>
</g>
<!-- Node16 -->
<g id="Node000016" class="node">
<title>Node16</title>
<g id="a_Node000016"><a xlink:href="../../da/d8f/cache__control_8hpp.html" target="_top" xlink:title="Periodically updated caches control interface for testsuite.">
<polygon fill="white" stroke="#666666" points="710.5,-239 579.5,-239 579.5,-209 710.5,-209 710.5,-239"/>
<text text-anchor="start" x="587.5" y="-227" font-family="Helvetica,sans-Serif" font-size="10.00">userver/testsuite/cache</text>
<text text-anchor="middle" x="645" y="-216" font-family="Helvetica,sans-Serif" font-size="10.00">_control.hpp</text>
</a>
</g>
</g>
<!-- Node7&#45;&gt;Node16 -->
<g id="edge24_Node000007_Node000016" class="edge">
<title>Node7&#45;&gt;Node16</title>
<g id="a_edge24_Node000007_Node000016"><a xlink:title=" ">
<path fill="none" stroke="#63b8ff" d="M479.34,-272.12C515.62,-261.8 561.47,-248.76 595.74,-239.01"/>
<polygon fill="#63b8ff" stroke="#63b8ff" points="478.04,-268.85 469.38,-274.95 479.95,-275.59 478.04,-268.85"/>
</a>
</g>
</g>
<!-- Node9 -->
<g id="Node000009" class="node">
<title>Node9</title>
<g id="a_Node000009"><a xlink:href="../../dd/d6c/base__mongo__cache_8hpp.html" target="_top" xlink:title="Base class for all caches polling mongo collection">
<polygon fill="white" stroke="#666666" points="206.5,-30 95.5,-30 95.5,0 206.5,0 206.5,-30"/>
<text text-anchor="start" x="103.5" y="-18" font-family="Helvetica,sans-Serif" font-size="10.00">userver/cache/base</text>
<text text-anchor="middle" x="151" y="-7" font-family="Helvetica,sans-Serif" font-size="10.00">_mongo_cache.hpp</text>
</a>
</g>
</g>
<!-- Node8&#45;&gt;Node9 -->
<g id="edge10_Node000008_Node000009" class="edge">
<title>Node8&#45;&gt;Node9</title>
<g id="a_edge10_Node000008_Node000009"><a xlink:title=" ">
<path fill="none" stroke="#63b8ff" d="M350.65,-200.15C338.38,-182.31 319.21,-158.09 297,-143 255.85,-115.04 227.67,-140.62 191,-107 168.23,-86.12 157.75,-49.95 153.5,-30.08"/>
<polygon fill="#63b8ff" stroke="#63b8ff" points="347.96,-202.43 356.42,-208.81 353.79,-198.55 347.96,-202.43"/>
</a>
</g>
</g>
<!-- Node10 -->
<g id="Node000010" class="node">
<title>Node10</title>
<g id="a_Node000010"><a xlink:href="../../dc/df7/base__postgres__cache_8hpp.html" target="_top" xlink:title="Caching component for PostgreSQL. See Caching Component for PostgreSQL.">
<polygon fill="white" stroke="#666666" points="343.5,-30 224.5,-30 224.5,0 343.5,0 343.5,-30"/>
<text text-anchor="start" x="232.5" y="-18" font-family="Helvetica,sans-Serif" font-size="10.00">userver/cache/base</text>
<text text-anchor="middle" x="284" y="-7" font-family="Helvetica,sans-Serif" font-size="10.00">_postgres_cache.hpp</text>
</a>
</g>
</g>
<!-- Node8&#45;&gt;Node10 -->
<g id="edge11_Node000008_Node000010" class="edge">
<title>Node8&#45;&gt;Node10</title>
<g id="a_edge11_Node000008_Node000010"><a xlink:title=" ">
<path fill="none" stroke="#63b8ff" d="M364.77,-198.33C363.5,-166.08 357.87,-108.66 335,-66 327.38,-51.79 314.35,-39.12 303.37,-30.09"/>
<polygon fill="#63b8ff" stroke="#63b8ff" points="361.28,-198.73 365.06,-208.63 368.28,-198.54 361.28,-198.73"/>
</a>
</g>
</g>
<!-- Node8&#45;&gt;Node11 -->
<g id="edge12_Node000008_Node000011" class="edge">
<title>Node8&#45;&gt;Node11</title>
<g id="a_edge12_Node000008_Node000011"><a xlink:title=" ">
<path fill="none" stroke="#63b8ff" d="M326.29,-204.65C305.06,-194.58 279.15,-182.3 259.56,-173.01"/>
<polygon fill="#63b8ff" stroke="#63b8ff" points="324.84,-207.83 335.37,-208.95 327.84,-201.51 324.84,-207.83"/>
</a>
</g>
</g>
<!-- Node8&#45;&gt;Node13 -->
<g id="edge18_Node000008_Node000013" class="edge">
<title>Node8&#45;&gt;Node13</title>
<g id="a_edge18_Node000008_Node000013"><a xlink:title=" ">
<path fill="none" stroke="#63b8ff" d="M372.53,-199.03C386.18,-155.54 414.65,-64.89 425.59,-30.05"/>
<polygon fill="#63b8ff" stroke="#63b8ff" points="369.12,-198.18 369.47,-208.77 375.8,-200.28 369.12,-198.18"/>
</a>
</g>
</g>
<!-- Node8&#45;&gt;Node14 -->
<g id="edge17_Node000008_Node000014" class="edge">
<title>Node8&#45;&gt;Node14</title>
<g id="a_edge17_Node000008_Node000014"><a xlink:title=" ">
<path fill="none" stroke="#63b8ff" d="M400.47,-204.24C419.35,-194.25 442.18,-182.18 459.51,-173.01"/>
<polygon fill="#63b8ff" stroke="#63b8ff" points="398.76,-201.19 391.55,-208.95 402.03,-207.37 398.76,-201.19"/>
</a>
</g>
</g>
<!-- Node12 -->
<g id="Node000012" class="node">
<title>Node12</title>
<g id="a_Node000012"><a xlink:href="../../df/d56/caching__component__base_8hpp.html" target="_top" xlink:title="Base class for caching components.">
<polygon fill="white" stroke="#666666" points="326,-101.5 200,-101.5 200,-71.5 326,-71.5 326,-101.5"/>
<text text-anchor="start" x="208" y="-89.5" font-family="Helvetica,sans-Serif" font-size="10.00">userver/cache/caching</text>
<text text-anchor="middle" x="263" y="-78.5" font-family="Helvetica,sans-Serif" font-size="10.00">_component_base.hpp</text>
</a>
</g>
</g>
<!-- Node11&#45;&gt;Node12 -->
<g id="edge13_Node000011_Node000012" class="edge">
<title>Node11&#45;&gt;Node12</title>
<g id="a_edge13_Node000011_Node000012"><a xlink:title=" ">
<path fill="none" stroke="#63b8ff" d="M241.05,-133.73C246.11,-123.06 251.95,-110.77 256.33,-101.54"/>
<polygon fill="#63b8ff" stroke="#63b8ff" points="237.81,-132.4 236.68,-142.94 244.13,-135.4 237.81,-132.4"/>
</a>
</g>
</g>
<!-- Node12&#45;&gt;Node9 -->
<g id="edge14_Node000012_Node000009" class="edge">
<title>Node12&#45;&gt;Node9</title>
<g id="a_edge14_Node000012_Node000009"><a xlink:title=" ">
<path fill="none" stroke="#63b8ff" d="M231.68,-66.07C213.24,-54.62 190.32,-40.4 173.63,-30.04"/>
<polygon fill="#63b8ff" stroke="#63b8ff" points="229.99,-69.14 240.34,-71.44 233.68,-63.19 229.99,-69.14"/>
</a>
</g>
</g>
<!-- Node12&#45;&gt;Node10 -->
<g id="edge15_Node000012_Node000010" class="edge">
<title>Node12&#45;&gt;Node10</title>
<g id="a_edge15_Node000012_Node000010"><a xlink:title=" ">
<path fill="none" stroke="#63b8ff" d="M270.23,-61.58C273.41,-51.06 277.03,-39.08 279.76,-30.04"/>
<polygon fill="#63b8ff" stroke="#63b8ff" points="266.79,-60.85 267.25,-71.44 273.49,-62.88 266.79,-60.85"/>
</a>
</g>
</g>
<!-- Node12&#45;&gt;Node13 -->
<g id="edge16_Node000012_Node000013" class="edge">
<title>Node12&#45;&gt;Node13</title>
<g id="a_edge16_Node000012_Node000013"><a xlink:title=" ">
<path fill="none" stroke="#63b8ff" d="M306.35,-67.46C334.39,-55.79 370.35,-40.82 396.26,-30.04"/>
<polygon fill="#63b8ff" stroke="#63b8ff" points="304.68,-64.36 296.79,-71.44 307.37,-70.82 304.68,-64.36"/>
</a>
</g>
</g>
<!-- Node15&#45;&gt;Node9 -->
<g id="edge21_Node000015_Node000009" class="edge">
<title>Node15&#45;&gt;Node9</title>
<g id="a_edge21_Node000015_Node000009"><a xlink:title=" ">
<path fill="none" stroke="#63b8ff" d="M100.77,-64.49C112.32,-53.34 126.21,-39.93 136.45,-30.04"/>
<polygon fill="#63b8ff" stroke="#63b8ff" points="98.33,-61.97 93.57,-71.44 103.2,-67.01 98.33,-61.97"/>
</a>
</g>
</g>
<!-- Node17 -->
<g id="Node000017" class="node">
<title>Node17</title>
<g id="a_Node000017"><a xlink:href="../../d3/d37/testsuite__support_8hpp.html" target="_top" xlink:title="Testsuite support component.">
<polygon fill="white" stroke="#666666" points="810.5,-173 665.5,-173 665.5,-143 810.5,-143 810.5,-173"/>
<text text-anchor="start" x="673.5" y="-161" font-family="Helvetica,sans-Serif" font-size="10.00">userver/testsuite/testsuite</text>
<text text-anchor="middle" x="738" y="-150" font-family="Helvetica,sans-Serif" font-size="10.00">_support.hpp</text>
</a>
</g>
</g>
<!-- Node16&#45;&gt;Node17 -->
<g id="edge25_Node000016_Node000017" class="edge">
<title>Node16&#45;&gt;Node17</title>
<g id="a_edge25_Node000016_Node000017"><a xlink:title=" ">
<path fill="none" stroke="#63b8ff" d="M674.02,-203.03C688.09,-193.34 704.67,-181.94 717.42,-173.16"/>
<polygon fill="#63b8ff" stroke="#63b8ff" points="671.89,-200.24 665.64,-208.8 675.86,-206.01 671.89,-200.24"/>
</a>
</g>
</g>
<!-- Node19 -->
<g id="Node000019" class="node">
<title>Node19</title>
<g id="a_Node000019"><a xlink:href="../../d7/d98/core_2include_2userver_2clients_2http_2component_8hpp.html" target="_top" xlink:title="Component that manages clients::http::Client.">
<polygon fill="white" stroke="#666666" points="1348.5,-173 1237.5,-173 1237.5,-143 1348.5,-143 1348.5,-173"/>
<text text-anchor="start" x="1245.5" y="-161" font-family="Helvetica,sans-Serif" font-size="10.00">userver/clients/http</text>
<text text-anchor="middle" x="1293" y="-150" font-family="Helvetica,sans-Serif" font-size="10.00">/component.hpp</text>
</a>
</g>
</g>
<!-- Node18&#45;&gt;Node19 -->
<g id="edge27_Node000018_Node000019" class="edge">
<title>Node18&#45;&gt;Node19</title>
<g id="a_edge27_Node000018_Node000019"><a xlink:title=" ">
<path fill="none" stroke="#63b8ff" d="M1293,-198.54C1293,-189.96 1293,-180.61 1293,-173.16"/>
<polygon fill="#63b8ff" stroke="#63b8ff" points="1289.5,-198.8 1293,-208.8 1296.5,-198.8 1289.5,-198.8"/>
</a>
</g>
</g>
<!-- Node20&#45;&gt;Node18 -->
<g id="edge29_Node000020_Node000018" class="edge">
<title>Node20&#45;&gt;Node18</title>
<g id="a_edge29_Node000020_Node000018"><a xlink:title=" ">
<path fill="none" stroke="#63b8ff" d="M1232.16,-268.75C1245.54,-259.13 1261.22,-247.86 1273.3,-239.16"/>
<polygon fill="#63b8ff" stroke="#63b8ff" points="1229.83,-266.12 1223.75,-274.8 1233.91,-271.8 1229.83,-266.12"/>
</a>
</g>
</g>
<!-- Node22 -->
<g id="Node000022" class="node">
<title>Node22</title>
<g id="a_Node000022"><a xlink:href="../../dd/db6/http__handler__static_8hpp.html" target="_top" xlink:title="Handler that returns HTTP 200 if file exist and returns file data with mapped content/type.">
<polygon fill="white" stroke="#666666" points="1501,-239 1367,-239 1367,-209 1501,-209 1501,-239"/>
<text text-anchor="start" x="1375" y="-227" font-family="Helvetica,sans-Serif" font-size="10.00">userver/server/handlers</text>
<text text-anchor="middle" x="1434" y="-216" font-family="Helvetica,sans-Serif" font-size="10.00">/http_handler_static.hpp</text>
</a>
</g>
</g>
<!-- Node21&#45;&gt;Node22 -->
<g id="edge31_Node000021_Node000022" class="edge">
<title>Node21&#45;&gt;Node22</title>
<g id="a_edge31_Node000021_Node000022"><a xlink:title=" ">
<path fill="none" stroke="#63b8ff" d="M1394.28,-267.37C1403.01,-258.06 1412.96,-247.44 1420.72,-239.16"/>
<polygon fill="#63b8ff" stroke="#63b8ff" points="1391.6,-265.11 1387.32,-274.8 1396.71,-269.89 1391.6,-265.11"/>
</a>
</g>
</g>
<!-- Node23&#45;&gt;Node4 -->
<g id="edge33_Node000023_Node000004" class="edge">
<title>Node23&#45;&gt;Node4</title>
<g id="a_edge33_Node000023_Node000004"><a xlink:title=" ">
<path fill="none" stroke="#63b8ff" d="M1103.22,-277.76C1137.24,-268.28 1179.7,-253.91 1190,-239 1205.99,-215.84 1177.7,-189.08 1155.83,-173.12"/>
<polygon fill="#63b8ff" stroke="#63b8ff" points="1102.17,-274.42 1093.43,-280.42 1104,-281.18 1102.17,-274.42"/>
</a>
</g>
</g>
<!-- Node23&#45;&gt;Node5 -->
<g id="edge34_Node000023_Node000005" class="edge">
<title>Node23&#45;&gt;Node5</title>
<g id="a_edge34_Node000023_Node000005"><a xlink:title=" ">
<path fill="none" stroke="#63b8ff" d="M1053.66,-270.38C1044.34,-230.45 1022.62,-137.33 1014.31,-101.71"/>
<polygon fill="#63b8ff" stroke="#63b8ff" points="1050.3,-271.4 1055.98,-280.34 1057.12,-269.81 1050.3,-271.4"/>
</a>
</g>
</g>
<!-- Node24 -->
<g id="Node000024" class="node">
<title>Node24</title>
<g id="a_Node000024"><a xlink:href="../../db/d6e/nway__lru__cache_8hpp_source.html" target="_top" xlink:title=" ">
<polygon fill="white" stroke="#666666" points="1181,-239 1067,-239 1067,-209 1181,-209 1181,-239"/>
<text text-anchor="start" x="1075" y="-227" font-family="Helvetica,sans-Serif" font-size="10.00">userver/cache/nway</text>
<text text-anchor="middle" x="1124" y="-216" font-family="Helvetica,sans-Serif" font-size="10.00">_lru_cache.hpp</text>
</a>
</g>
</g>
<!-- Node23&#45;&gt;Node24 -->
<g id="edge35_Node000023_Node000024" class="edge">
<title>Node23&#45;&gt;Node24</title>
<g id="a_edge35_Node000023_Node000024"><a xlink:title=" ">
<path fill="none" stroke="#63b8ff" d="M1074.39,-273.1C1085.15,-262.68 1099.08,-249.16 1109.44,-239.12"/>
<polygon fill="#63b8ff" stroke="#63b8ff" points="1071.64,-270.89 1066.9,-280.37 1076.52,-275.92 1071.64,-270.89"/>
</a>
</g>
</g>
<!-- Node25 -->
<g id="Node000025" class="node">
<title>Node25</title>
<g id="a_Node000025"><a xlink:href="../../d2/d2b/dump__control_8hpp.html" target="_top" xlink:title="Dumper control interface for testsuite.">
<polygon fill="white" stroke="#666666" points="859,-239 729,-239 729,-209 859,-209 859,-239"/>
<text text-anchor="start" x="737" y="-227" font-family="Helvetica,sans-Serif" font-size="10.00">userver/testsuite/dump</text>
<text text-anchor="middle" x="794" y="-216" font-family="Helvetica,sans-Serif" font-size="10.00">_control.hpp</text>
</a>
</g>
</g>
<!-- Node23&#45;&gt;Node25 -->
<g id="edge37_Node000023_Node000025" class="edge">
<title>Node23&#45;&gt;Node25</title>
<g id="a_edge37_Node000023_Node000025"><a xlink:title=" ">
<path fill="none" stroke="#63b8ff" d="M1012.73,-278.02C968.26,-267.24 900.22,-250.75 851.85,-239.02"/>
<polygon fill="#63b8ff" stroke="#63b8ff" points="1012.13,-281.48 1022.67,-280.44 1013.78,-274.68 1012.13,-281.48"/>
</a>
</g>
</g>
<!-- Node24&#45;&gt;Node4 -->
<g id="edge36_Node000024_Node000004" class="edge">
<title>Node24&#45;&gt;Node4</title>
<g id="a_edge36_Node000024_Node000004"><a xlink:title=" ">
<path fill="none" stroke="#63b8ff" d="M1127.78,-198.83C1129.13,-190.17 1130.61,-180.7 1131.79,-173.16"/>
<polygon fill="#63b8ff" stroke="#63b8ff" points="1124.31,-198.38 1126.22,-208.8 1131.22,-199.46 1124.31,-198.38"/>
</a>
</g>
</g>
<!-- Node25&#45;&gt;Node17 -->
<g id="edge38_Node000025_Node000017" class="edge">
<title>Node25&#45;&gt;Node17</title>
<g id="a_edge38_Node000025_Node000017"><a xlink:title=" ">
<path fill="none" stroke="#63b8ff" d="M774.83,-201.09C766.74,-191.85 757.56,-181.36 750.39,-173.16"/>
<polygon fill="#63b8ff" stroke="#63b8ff" points="772.35,-203.58 781.57,-208.8 777.62,-198.97 772.35,-203.58"/>
</a>
</g>
</g>
<!-- Node28 -->
<g id="Node000028" class="node">
<title>Node28</title>
<g id="a_Node000028"><a xlink:href="../../d4/d64/websocket__handler_8hpp.html" target="_top" xlink:title=" ">
<polygon fill="white" stroke="#666666" points="1703,-239 1561,-239 1561,-209 1703,-209 1703,-239"/>
<text text-anchor="start" x="1569" y="-227" font-family="Helvetica,sans-Serif" font-size="10.00">userver/server/websocket</text>
<text text-anchor="middle" x="1632" y="-216" font-family="Helvetica,sans-Serif" font-size="10.00">/websocket_handler.hpp</text>
</a>
</g>
</g>
<!-- Node27&#45;&gt;Node28 -->
<g id="edge41_Node000027_Node000028" class="edge">
<title>Node27&#45;&gt;Node28</title>
<g id="a_edge41_Node000027_Node000028"><a xlink:title=" ">
<path fill="none" stroke="#63b8ff" d="M1649.04,-265.39C1645.33,-256.59 1641.22,-246.86 1637.98,-239.16"/>
<polygon fill="#63b8ff" stroke="#63b8ff" points="1645.9,-266.94 1653.01,-274.8 1652.35,-264.22 1645.9,-266.94"/>
</a>
</g>
</g>
<!-- Node30 -->
<g id="Node000030" class="node">
<title>Node30</title>
<g id="a_Node000030"><a xlink:href="../../da/dd3/client__factory__component_8hpp.html" target="_top" xlink:title="Provides a ClientFactory in the component system.">
<polygon fill="white" stroke="#666666" points="1888.5,-239 1721.5,-239 1721.5,-209 1888.5,-209 1888.5,-239"/>
<text text-anchor="start" x="1729.5" y="-227" font-family="Helvetica,sans-Serif" font-size="10.00">userver/ugrpc/client</text>
<text text-anchor="middle" x="1805" y="-216" font-family="Helvetica,sans-Serif" font-size="10.00">/client_factory_component.hpp</text>
</a>
</g>
</g>
<!-- Node29&#45;&gt;Node30 -->
<g id="edge43_Node000029_Node000030" class="edge">
<title>Node29&#45;&gt;Node30</title>
<g id="a_edge43_Node000029_Node000030"><a xlink:title=" ">
<path fill="none" stroke="#63b8ff" d="M1805,-264.54C1805,-255.96 1805,-246.61 1805,-239.16"/>
<polygon fill="#63b8ff" stroke="#63b8ff" points="1801.5,-264.8 1805,-274.8 1808.5,-264.8 1801.5,-264.8"/>
</a>
</g>
</g>
<!-- Node31 -->
<g id="Node000031" class="node">
<title>Node31</title>
<g id="a_Node000031"><a xlink:href="../../d8/d98/simple__client__component_8hpp.html" target="_top" xlink:title="Template class for a simple gRPC client.">
<polygon fill="white" stroke="#666666" points="1888,-173 1722,-173 1722,-143 1888,-143 1888,-173"/>
<text text-anchor="start" x="1730" y="-161" font-family="Helvetica,sans-Serif" font-size="10.00">userver/ugrpc/client</text>
<text text-anchor="middle" x="1805" y="-150" font-family="Helvetica,sans-Serif" font-size="10.00">/simple_client_component.hpp</text>
</a>
</g>
</g>
<!-- Node30&#45;&gt;Node31 -->
<g id="edge44_Node000030_Node000031" class="edge">
<title>Node30&#45;&gt;Node31</title>
<g id="a_edge44_Node000030_Node000031"><a xlink:title=" ">
<path fill="none" stroke="#63b8ff" d="M1805,-198.54C1805,-189.96 1805,-180.61 1805,-173.16"/>
<polygon fill="#63b8ff" stroke="#63b8ff" points="1801.5,-198.8 1805,-208.8 1808.5,-198.8 1801.5,-198.8"/>
</a>
</g>
</g>
<!-- Node33 -->
<g id="Node000033" class="node">
<title>Node33</title>
<g id="a_Node000033"><a xlink:href="../../db/d7e/server__component_8hpp.html" target="_top" xlink:title="Component that configures and manages the gRPC server.">
<polygon fill="white" stroke="#666666" points="2037.5,-239 1906.5,-239 1906.5,-209 2037.5,-209 2037.5,-239"/>
<text text-anchor="start" x="1914.5" y="-227" font-family="Helvetica,sans-Serif" font-size="10.00">userver/ugrpc/server</text>
<text text-anchor="middle" x="1972" y="-216" font-family="Helvetica,sans-Serif" font-size="10.00">/server_component.hpp</text>
</a>
</g>
</g>
<!-- Node32&#45;&gt;Node33 -->
<g id="edge46_Node000032_Node000033" class="edge">
<title>Node32&#45;&gt;Node33</title>
<g id="a_edge46_Node000032_Node000033"><a xlink:title=" ">
<path fill="none" stroke="#63b8ff" d="M1961.35,-265.11C1963.67,-256.38 1966.21,-246.78 1968.24,-239.16"/>
<polygon fill="#63b8ff" stroke="#63b8ff" points="1957.96,-264.23 1958.77,-274.8 1964.72,-266.03 1957.96,-264.23"/>
</a>
</g>
</g>
</g>
</svg>
