<?xml version="1.0" encoding="UTF-8" standalone="no"?>
<!DOCTYPE svg PUBLIC "-//W3C//DTD SVG 1.1//EN"
 "http://www.w3.org/Graphics/SVG/1.1/DTD/svg11.dtd">
<!-- Generated by graphviz version 2.43.0 (0)
 -->
<!-- Title: userver/server/http/http_response_cookie.hpp Pages: 1 -->
<svg width="2241pt" height="467pt"
 viewBox="0.00 0.00 2240.50 467.00" xmlns="http://www.w3.org/2000/svg" xmlns:xlink="http://www.w3.org/1999/xlink">
<g id="graph0" class="graph" transform="scale(1 1) rotate(0) translate(4 463)">
<title>userver/server/http/http_response_cookie.hpp</title>
<!-- Node1 -->
<g id="Node000001" class="node">
<title>Node1</title>
<g id="a_Node000001"><a xlink:title="HTTP response cookie.">
<polygon fill="#999999" stroke="#666666" points="490,-459 343,-459 343,-429 490,-429 490,-459"/>
<text text-anchor="start" x="351" y="-447" font-family="Helvetica,sans-Serif" font-size="10.00">userver/server/http</text>
<text text-anchor="middle" x="416.5" y="-436" font-family="Helvetica,sans-Serif" font-size="10.00">/http_response_cookie.hpp</text>
</a>
</g>
</g>
<!-- Node2 -->
<g id="Node000002" class="node">
<title>Node2</title>
<g id="a_Node000002"><a xlink:href="../../db/da4/response_8hpp.html" target="_top" xlink:title="Class that will be returned for successful request.">
<polygon fill="white" stroke="#666666" points="287,-393 176,-393 176,-363 287,-363 287,-393"/>
<text text-anchor="start" x="184" y="-381" font-family="Helvetica,sans-Serif" font-size="10.00">userver/clients/http</text>
<text text-anchor="middle" x="231.5" y="-370" font-family="Helvetica,sans-Serif" font-size="10.00">/response.hpp</text>
</a>
</g>
</g>
<!-- Node1&#45;&gt;Node2 -->
<g id="edge1_Node000001_Node000002" class="edge">
<title>Node1&#45;&gt;Node2</title>
<g id="a_edge1_Node000001_Node000002"><a xlink:title=" ">
<path fill="none" stroke="#63b8ff" d="M366.17,-425.59C336.6,-415.36 299.7,-402.59 272,-393.01"/>
<polygon fill="#63b8ff" stroke="#63b8ff" points="365.31,-428.99 375.9,-428.95 367.59,-422.38 365.31,-428.99"/>
</a>
</g>
</g>
<!-- Node11 -->
<g id="Node000011" class="node">
<title>Node11</title>
<g id="a_Node000011"><a xlink:href="../../db/d6b/http__response_8hpp.html" target="_top" xlink:title="HTTP Response data.">
<polygon fill="white" stroke="#666666" points="813.5,-393 703.5,-393 703.5,-363 813.5,-363 813.5,-393"/>
<text text-anchor="start" x="711.5" y="-381" font-family="Helvetica,sans-Serif" font-size="10.00">userver/server/http</text>
<text text-anchor="middle" x="758.5" y="-370" font-family="Helvetica,sans-Serif" font-size="10.00">/http_response.hpp</text>
</a>
</g>
</g>
<!-- Node1&#45;&gt;Node11 -->
<g id="edge12_Node000001_Node000011" class="edge">
<title>Node1&#45;&gt;Node11</title>
<g id="a_edge12_Node000001_Node000011"><a xlink:title=" ">
<path fill="none" stroke="#63b8ff" d="M500.24,-427.33C563.48,-415.49 648.47,-399.59 703.37,-389.32"/>
<polygon fill="#63b8ff" stroke="#63b8ff" points="499.47,-423.91 490.29,-429.19 500.76,-430.79 499.47,-423.91"/>
</a>
</g>
</g>
<!-- Node3 -->
<g id="Node000003" class="node">
<title>Node3</title>
<g id="a_Node000003"><a xlink:href="../../d1/d57/core_2include_2userver_2clients_2http_2request_8hpp.html" target="_top" xlink:title="Class for creating and performing new http requests.">
<polygon fill="white" stroke="#666666" points="130,-250 19,-250 19,-220 130,-220 130,-250"/>
<text text-anchor="start" x="27" y="-238" font-family="Helvetica,sans-Serif" font-size="10.00">userver/clients/http</text>
<text text-anchor="middle" x="74.5" y="-227" font-family="Helvetica,sans-Serif" font-size="10.00">/request.hpp</text>
</a>
</g>
</g>
<!-- Node2&#45;&gt;Node3 -->
<g id="edge2_Node000002_Node000003" class="edge">
<title>Node2&#45;&gt;Node3</title>
<g id="a_edge2_Node000002_Node000003"><a xlink:title=" ">
<path fill="none" stroke="#63b8ff" d="M165.64,-369.83C112.13,-362.48 42.78,-348.98 25.5,-327 14.24,-312.68 18.61,-302.87 25.5,-286 31.38,-271.6 43.63,-259.1 54.41,-250.2"/>
<polygon fill="#63b8ff" stroke="#63b8ff" points="165.4,-373.33 175.77,-371.17 166.32,-366.39 165.4,-373.33"/>
</a>
</g>
</g>
<!-- Node6 -->
<g id="Node000006" class="node">
<title>Node6</title>
<g id="a_Node000006"><a xlink:href="../../d2/d6c/http__server__mock_8hpp_source.html" target="_top" xlink:title=" ">
<polygon fill="white" stroke="#666666" points="235.5,-178.5 129.5,-178.5 129.5,-148.5 235.5,-148.5 235.5,-178.5"/>
<text text-anchor="start" x="137.5" y="-166.5" font-family="Helvetica,sans-Serif" font-size="10.00">userver/utest/http</text>
<text text-anchor="middle" x="182.5" y="-155.5" font-family="Helvetica,sans-Serif" font-size="10.00">_server_mock.hpp</text>
</a>
</g>
</g>
<!-- Node2&#45;&gt;Node6 -->
<g id="edge11_Node000002_Node000006" class="edge">
<title>Node2&#45;&gt;Node6</title>
<g id="a_edge11_Node000002_Node000006"><a xlink:title=" ">
<path fill="none" stroke="#63b8ff" d="M215.27,-354.57C210.04,-346.28 204.76,-336.57 201.5,-327 183.64,-274.57 181.96,-207.73 182.18,-178.85"/>
<polygon fill="#63b8ff" stroke="#63b8ff" points="212.38,-356.54 220.83,-362.93 218.21,-352.67 212.38,-356.54"/>
</a>
</g>
</g>
<!-- Node7 -->
<g id="Node000007" class="node">
<title>Node7</title>
<g id="a_Node000007"><a xlink:href="../../d2/de8/response__future_8hpp.html" target="_top" xlink:title="Allows to perform a request concurrently with other work without creating an extra coroutine for wait...">
<polygon fill="white" stroke="#666666" points="154,-321.5 35,-321.5 35,-291.5 154,-291.5 154,-321.5"/>
<text text-anchor="start" x="43" y="-309.5" font-family="Helvetica,sans-Serif" font-size="10.00">userver/clients/http</text>
<text text-anchor="middle" x="94.5" y="-298.5" font-family="Helvetica,sans-Serif" font-size="10.00">/response_future.hpp</text>
</a>
</g>
</g>
<!-- Node2&#45;&gt;Node7 -->
<g id="edge6_Node000002_Node000007" class="edge">
<title>Node2&#45;&gt;Node7</title>
<g id="a_edge6_Node000002_Node000007"><a xlink:title=" ">
<path fill="none" stroke="#63b8ff" d="M194.72,-358.34C171.91,-346.77 143.06,-332.14 122.18,-321.54"/>
<polygon fill="#63b8ff" stroke="#63b8ff" points="193.27,-361.53 203.78,-362.94 196.44,-355.29 193.27,-361.53"/>
</a>
</g>
</g>
<!-- Node8 -->
<g id="Node000008" class="node">
<title>Node8</title>
<g id="a_Node000008"><a xlink:href="../../d5/d26/streamed__response_8hpp.html" target="_top" xlink:title="HTTP response for streamed API.">
<polygon fill="white" stroke="#666666" points="348,-321.5 211,-321.5 211,-291.5 348,-291.5 348,-321.5"/>
<text text-anchor="start" x="219" y="-309.5" font-family="Helvetica,sans-Serif" font-size="10.00">userver/clients/http</text>
<text text-anchor="middle" x="279.5" y="-298.5" font-family="Helvetica,sans-Serif" font-size="10.00">/streamed_response.hpp</text>
</a>
</g>
</g>
<!-- Node2&#45;&gt;Node8 -->
<g id="edge8_Node000002_Node000008" class="edge">
<title>Node2&#45;&gt;Node8</title>
<g id="a_edge8_Node000002_Node000008"><a xlink:title=" ">
<path fill="none" stroke="#63b8ff" d="M246.9,-354.71C254.42,-343.82 263.23,-331.05 269.8,-321.54"/>
<polygon fill="#63b8ff" stroke="#63b8ff" points="244.02,-352.72 241.21,-362.94 249.78,-356.7 244.02,-352.72"/>
</a>
</g>
</g>
<!-- Node9 -->
<g id="Node000009" class="node">
<title>Node9</title>
<g id="a_Node000009"><a xlink:href="../../da/d04/manager_8hpp.html" target="_top" xlink:title="Base class for propagating trace context information in headers.">
<polygon fill="white" stroke="#666666" points="523,-316 366,-316 366,-297 523,-297 523,-316"/>
<text text-anchor="middle" x="444.5" y="-304" font-family="Helvetica,sans-Serif" font-size="10.00">userver/tracing/manager.hpp</text>
</a>
</g>
</g>
<!-- Node2&#45;&gt;Node9 -->
<g id="edge9_Node000002_Node000009" class="edge">
<title>Node2&#45;&gt;Node9</title>
<g id="a_edge9_Node000002_Node000009"><a xlink:title=" ">
<path fill="none" stroke="#63b8ff" d="M284.25,-359.79C326.84,-345.89 384.97,-326.92 418.24,-316.07"/>
<polygon fill="#63b8ff" stroke="#63b8ff" points="283.02,-356.51 274.6,-362.94 285.2,-363.16 283.02,-356.51"/>
</a>
</g>
</g>
<!-- Node4 -->
<g id="Node000004" class="node">
<title>Node4</title>
<g id="a_Node000004"><a xlink:href="../../d3/db8/core_2include_2userver_2clients_2http_2client_8hpp.html" target="_top" xlink:title="HTTP client that returns a HTTP request builder from CreateRequest().">
<polygon fill="white" stroke="#666666" points="111,-178.5 0,-178.5 0,-148.5 111,-148.5 111,-178.5"/>
<text text-anchor="start" x="8" y="-166.5" font-family="Helvetica,sans-Serif" font-size="10.00">userver/clients/http</text>
<text text-anchor="middle" x="55.5" y="-155.5" font-family="Helvetica,sans-Serif" font-size="10.00">/client.hpp</text>
</a>
</g>
</g>
<!-- Node3&#45;&gt;Node4 -->
<g id="edge3_Node000003_Node000004" class="edge">
<title>Node3&#45;&gt;Node4</title>
<g id="a_edge3_Node000003_Node000004"><a xlink:title=" ">
<path fill="none" stroke="#63b8ff" d="M67.96,-210.08C65.09,-199.56 61.81,-187.58 59.34,-178.54"/>
<polygon fill="#63b8ff" stroke="#63b8ff" points="64.64,-211.21 70.66,-219.94 71.39,-209.37 64.64,-211.21"/>
</a>
</g>
</g>
<!-- Node3&#45;&gt;Node6 -->
<g id="edge5_Node000003_Node000006" class="edge">
<title>Node3&#45;&gt;Node6</title>
<g id="a_edge5_Node000003_Node000006"><a xlink:title=" ">
<path fill="none" stroke="#63b8ff" d="M105.18,-214.25C122.89,-202.86 144.73,-188.81 160.68,-178.54"/>
<polygon fill="#63b8ff" stroke="#63b8ff" points="102.87,-211.58 96.36,-219.94 106.66,-217.47 102.87,-211.58"/>
</a>
</g>
</g>
<!-- Node5 -->
<g id="Node000005" class="node">
<title>Node5</title>
<g id="a_Node000005"><a xlink:href="../../d7/d98/core_2include_2userver_2clients_2http_2component_8hpp.html" target="_top" xlink:title="Component that manages clients::http::Client.">
<polygon fill="white" stroke="#666666" points="111,-101.5 0,-101.5 0,-71.5 111,-71.5 111,-101.5"/>
<text text-anchor="start" x="8" y="-89.5" font-family="Helvetica,sans-Serif" font-size="10.00">userver/clients/http</text>
<text text-anchor="middle" x="55.5" y="-78.5" font-family="Helvetica,sans-Serif" font-size="10.00">/component.hpp</text>
</a>
</g>
</g>
<!-- Node4&#45;&gt;Node5 -->
<g id="edge4_Node000004_Node000005" class="edge">
<title>Node4&#45;&gt;Node5</title>
<g id="a_edge4_Node000004_Node000005"><a xlink:title=" ">
<path fill="none" stroke="#63b8ff" d="M55.5,-138.04C55.5,-125.95 55.5,-111.79 55.5,-101.54"/>
<polygon fill="#63b8ff" stroke="#63b8ff" points="52,-138.39 55.5,-148.39 59,-138.39 52,-138.39"/>
</a>
</g>
</g>
<!-- Node7&#45;&gt;Node3 -->
<g id="edge7_Node000007_Node000003" class="edge">
<title>Node7&#45;&gt;Node3</title>
<g id="a_edge7_Node000007_Node000003"><a xlink:title=" ">
<path fill="none" stroke="#63b8ff" d="M87.62,-281.58C84.59,-271.06 81.14,-259.08 78.54,-250.04"/>
<polygon fill="#63b8ff" stroke="#63b8ff" points="84.32,-282.79 90.45,-291.44 91.05,-280.86 84.32,-282.79"/>
</a>
</g>
</g>
<!-- Node10 -->
<g id="Node000010" class="node">
<title>Node10</title>
<g id="a_Node000010"><a xlink:href="../../d6/dbd/manager__component_8hpp.html" target="_top" xlink:title="TracingManager base and default components.">
<polygon fill="white" stroke="#666666" points="513,-250 376,-250 376,-220 513,-220 513,-250"/>
<text text-anchor="start" x="384" y="-238" font-family="Helvetica,sans-Serif" font-size="10.00">userver/tracing/manager</text>
<text text-anchor="middle" x="444.5" y="-227" font-family="Helvetica,sans-Serif" font-size="10.00">_component.hpp</text>
</a>
</g>
</g>
<!-- Node9&#45;&gt;Node10 -->
<g id="edge10_Node000009_Node000010" class="edge">
<title>Node9&#45;&gt;Node10</title>
<g id="a_edge10_Node000009_Node000010"><a xlink:title=" ">
<path fill="none" stroke="#63b8ff" d="M444.5,-286.71C444.5,-275.19 444.5,-260.68 444.5,-250.14"/>
<polygon fill="#63b8ff" stroke="#63b8ff" points="441,-286.98 444.5,-296.98 448,-286.98 441,-286.98"/>
</a>
</g>
</g>
<!-- Node12 -->
<g id="Node000012" class="node">
<title>Node12</title>
<g id="a_Node000012"><a xlink:href="../../de/d82/digest_2auth__checker__base_8hpp.html" target="_top" xlink:title="Base class for digest authentication checkers. Implements a digest&#45;authentication logic.">
<polygon fill="white" stroke="#666666" points="721.5,-184 579.5,-184 579.5,-143 721.5,-143 721.5,-184"/>
<text text-anchor="start" x="587.5" y="-172" font-family="Helvetica,sans-Serif" font-size="10.00">userver/server/handlers</text>
<text text-anchor="start" x="587.5" y="-161" font-family="Helvetica,sans-Serif" font-size="10.00">/auth/digest/auth_checker</text>
<text text-anchor="middle" x="650.5" y="-150" font-family="Helvetica,sans-Serif" font-size="10.00">_base.hpp</text>
</a>
</g>
</g>
<!-- Node11&#45;&gt;Node12 -->
<g id="edge13_Node000011_Node000012" class="edge">
<title>Node11&#45;&gt;Node12</title>
<g id="a_edge13_Node000011_Node000012"><a xlink:title=" ">
<path fill="none" stroke="#63b8ff" d="M746.69,-353.77C725.28,-311.64 680.43,-223.39 660.46,-184.1"/>
<polygon fill="#63b8ff" stroke="#63b8ff" points="743.6,-355.4 751.25,-362.73 749.84,-352.23 743.6,-355.4"/>
</a>
</g>
</g>
<!-- Node13 -->
<g id="Node000013" class="node">
<title>Node13</title>
<g id="a_Node000013"><a xlink:href="../../db/df0/standalone__checker_8hpp.html" target="_top" xlink:title="Class for digest authentication checker. Implements a stand&#45;alone digest&#45;authentication logic.">
<polygon fill="white" stroke="#666666" points="380.5,-107 248.5,-107 248.5,-66 380.5,-66 380.5,-107"/>
<text text-anchor="start" x="256.5" y="-95" font-family="Helvetica,sans-Serif" font-size="10.00">userver/server/handlers</text>
<text text-anchor="start" x="256.5" y="-84" font-family="Helvetica,sans-Serif" font-size="10.00">/auth/digest/standalone</text>
<text text-anchor="middle" x="314.5" y="-73" font-family="Helvetica,sans-Serif" font-size="10.00">_checker.hpp</text>
</a>
</g>
</g>
<!-- Node11&#45;&gt;Node13 -->
<g id="edge15_Node000011_Node000013" class="edge">
<title>Node11&#45;&gt;Node13</title>
<g id="a_edge15_Node000011_Node000013"><a xlink:title=" ">
<path fill="none" stroke="#63b8ff" d="M728.97,-357.22C684.23,-327.31 596.53,-268.86 521.5,-220 459.28,-179.48 386.01,-132.83 345.46,-107.1"/>
<polygon fill="#63b8ff" stroke="#63b8ff" points="727.07,-360.16 737.33,-362.81 730.96,-354.35 727.07,-360.16"/>
</a>
</g>
</g>
<!-- Node14 -->
<g id="Node000014" class="node">
<title>Node14</title>
<g id="a_Node000014"><a xlink:href="../../d4/df6/http__handler__base_8hpp.html" target="_top" xlink:title="Base class for all the Userver HTTP Handlers.">
<polygon fill="white" stroke="#666666" points="1227.5,-178.5 1095.5,-178.5 1095.5,-148.5 1227.5,-148.5 1227.5,-178.5"/>
<text text-anchor="start" x="1103.5" y="-166.5" font-family="Helvetica,sans-Serif" font-size="10.00">userver/server/handlers</text>
<text text-anchor="middle" x="1161.5" y="-155.5" font-family="Helvetica,sans-Serif" font-size="10.00">/http_handler_base.hpp</text>
</a>
</g>
</g>
<!-- Node11&#45;&gt;Node14 -->
<g id="edge16_Node000011_Node000014" class="edge">
<title>Node11&#45;&gt;Node14</title>
<g id="a_edge16_Node000011_Node000014"><a xlink:title=" ">
<path fill="none" stroke="#63b8ff" d="M823.85,-374.36C909.87,-367.21 1059.81,-341.47 1142.5,-250 1160.45,-230.15 1162.7,-197.18 1162.35,-178.51"/>
<polygon fill="#63b8ff" stroke="#63b8ff" points="823.39,-370.88 813.69,-375.14 823.93,-377.86 823.39,-370.88"/>
</a>
</g>
</g>
<!-- Node30 -->
<g id="Node000030" class="node">
<title>Node30</title>
<g id="a_Node000030"><a xlink:href="../../d2/d45/http__request_8hpp.html" target="_top" xlink:title="HTTP Request data.">
<polygon fill="white" stroke="#666666" points="862.5,-321.5 752.5,-321.5 752.5,-291.5 862.5,-291.5 862.5,-321.5"/>
<text text-anchor="start" x="760.5" y="-309.5" font-family="Helvetica,sans-Serif" font-size="10.00">userver/server/http</text>
<text text-anchor="middle" x="807.5" y="-298.5" font-family="Helvetica,sans-Serif" font-size="10.00">/http_request.hpp</text>
</a>
</g>
</g>
<!-- Node11&#45;&gt;Node30 -->
<g id="edge32_Node000011_Node000030" class="edge">
<title>Node11&#45;&gt;Node30</title>
<g id="a_edge32_Node000011_Node000030"><a xlink:title=" ">
<path fill="none" stroke="#63b8ff" d="M774.22,-354.71C781.89,-343.82 790.89,-331.05 797.6,-321.54"/>
<polygon fill="#63b8ff" stroke="#63b8ff" points="771.32,-352.75 768.42,-362.94 777.04,-356.78 771.32,-352.75"/>
</a>
</g>
</g>
<!-- Node34 -->
<g id="Node000034" class="node">
<title>Node34</title>
<g id="a_Node000034"><a xlink:href="../../d8/d76/http__response__body__stream_8hpp_source.html" target="_top" xlink:title=" ">
<polygon fill="white" stroke="#666666" points="1307.5,-327 1189.5,-327 1189.5,-286 1307.5,-286 1307.5,-327"/>
<text text-anchor="start" x="1197.5" y="-315" font-family="Helvetica,sans-Serif" font-size="10.00">userver/server/http</text>
<text text-anchor="start" x="1197.5" y="-304" font-family="Helvetica,sans-Serif" font-size="10.00">/http_response_body</text>
<text text-anchor="middle" x="1248.5" y="-293" font-family="Helvetica,sans-Serif" font-size="10.00">_stream.hpp</text>
</a>
</g>
</g>
<!-- Node11&#45;&gt;Node34 -->
<g id="edge42_Node000011_Node000034" class="edge">
<title>Node11&#45;&gt;Node34</title>
<g id="a_edge42_Node000011_Node000034"><a xlink:title=" ">
<path fill="none" stroke="#63b8ff" d="M823.5,-372.08C905.91,-365.18 1052.12,-350.75 1175.5,-327 1180.01,-326.13 1184.65,-325.14 1189.3,-324.07"/>
<polygon fill="#63b8ff" stroke="#63b8ff" points="823.2,-368.59 813.53,-372.9 823.78,-375.57 823.2,-368.59"/>
</a>
</g>
</g>
<!-- Node12&#45;&gt;Node13 -->
<g id="edge14_Node000012_Node000013" class="edge">
<title>Node12&#45;&gt;Node13</title>
<g id="a_edge14_Node000012_Node000013"><a xlink:title=" ">
<path fill="none" stroke="#63b8ff" d="M569.27,-143.82C568.01,-143.55 566.75,-143.27 565.5,-143 487.47,-126.07 467.27,-125.05 389.5,-107 386.62,-106.33 383.68,-105.63 380.71,-104.92"/>
<polygon fill="#63b8ff" stroke="#63b8ff" points="568.59,-147.25 579.11,-145.99 570.1,-140.42 568.59,-147.25"/>
</a>
</g>
</g>
<!-- Node15 -->
<g id="Node000015" class="node">
<title>Node15</title>
<g id="a_Node000015"><a xlink:href="../../d6/d0d/dns__client__control_8hpp.html" target="_top" xlink:title="Handlers that controls the DNS client.">
<polygon fill="white" stroke="#666666" points="840.5,-101.5 708.5,-101.5 708.5,-71.5 840.5,-71.5 840.5,-101.5"/>
<text text-anchor="start" x="716.5" y="-89.5" font-family="Helvetica,sans-Serif" font-size="10.00">userver/server/handlers</text>
<text text-anchor="middle" x="774.5" y="-78.5" font-family="Helvetica,sans-Serif" font-size="10.00">/dns_client_control.hpp</text>
</a>
</g>
</g>
<!-- Node14&#45;&gt;Node15 -->
<g id="edge17_Node000014_Node000015" class="edge">
<title>Node14&#45;&gt;Node15</title>
<g id="a_edge17_Node000014_Node000015"><a xlink:title=" ">
<path fill="none" stroke="#63b8ff" d="M1085.55,-150.7C1022.17,-140.44 929.6,-124.51 849.5,-107 842.01,-105.36 834.13,-103.49 826.42,-101.56"/>
<polygon fill="#63b8ff" stroke="#63b8ff" points="1085.04,-154.16 1095.47,-152.29 1086.15,-147.25 1085.04,-154.16"/>
</a>
</g>
</g>
<!-- Node16 -->
<g id="Node000016" class="node">
<title>Node16</title>
<g id="a_Node000016"><a xlink:href="../../d6/dc0/dynamic__debug__log_8hpp.html" target="_top" xlink:title="HTTP Handler to show/hide logs at the specific file:line.">
<polygon fill="white" stroke="#666666" points="996.5,-101.5 858.5,-101.5 858.5,-71.5 996.5,-71.5 996.5,-101.5"/>
<text text-anchor="start" x="866.5" y="-89.5" font-family="Helvetica,sans-Serif" font-size="10.00">userver/server/handlers</text>
<text text-anchor="middle" x="927.5" y="-78.5" font-family="Helvetica,sans-Serif" font-size="10.00">/dynamic_debug_log.hpp</text>
</a>
</g>
</g>
<!-- Node14&#45;&gt;Node16 -->
<g id="edge18_Node000014_Node000016" class="edge">
<title>Node14&#45;&gt;Node16</title>
<g id="a_edge18_Node000014_Node000016"><a xlink:title=" ">
<path fill="none" stroke="#63b8ff" d="M1108.13,-145.39C1066.77,-132.14 1010.18,-114 971.42,-101.58"/>
<polygon fill="#63b8ff" stroke="#63b8ff" points="1107.17,-148.76 1117.76,-148.48 1109.31,-142.1 1107.17,-148.76"/>
</a>
</g>
</g>
<!-- Node17 -->
<g id="Node000017" class="node">
<title>Node17</title>
<g id="a_Node000017"><a xlink:href="../../d5/d4d/http__handler__flatbuf__base_8hpp.html" target="_top" xlink:title="Convenient base for handlers that accept requests with body in Flatbuffer format and respond with bod...">
<polygon fill="white" stroke="#666666" points="1146.5,-107 1014.5,-107 1014.5,-66 1146.5,-66 1146.5,-107"/>
<text text-anchor="start" x="1022.5" y="-95" font-family="Helvetica,sans-Serif" font-size="10.00">userver/server/handlers</text>
<text text-anchor="start" x="1022.5" y="-84" font-family="Helvetica,sans-Serif" font-size="10.00">/http_handler_flatbuf</text>
<text text-anchor="middle" x="1080.5" y="-73" font-family="Helvetica,sans-Serif" font-size="10.00">_base.hpp</text>
</a>
</g>
</g>
<!-- Node14&#45;&gt;Node17 -->
<g id="edge19_Node000014_Node000017" class="edge">
<title>Node14&#45;&gt;Node17</title>
<g id="a_edge19_Node000014_Node000017"><a xlink:title=" ">
<path fill="none" stroke="#63b8ff" d="M1138.69,-141.38C1127.12,-130.66 1113.14,-117.72 1101.78,-107.2"/>
<polygon fill="#63b8ff" stroke="#63b8ff" points="1136.55,-144.17 1146.26,-148.39 1141.3,-139.03 1136.55,-144.17"/>
</a>
</g>
</g>
<!-- Node18 -->
<g id="Node000018" class="node">
<title>Node18</title>
<g id="a_Node000018"><a xlink:href="../../d1/d58/http__handler__json__base_8hpp.html" target="_top" xlink:title="Convenient base for handlers that accept requests with body in JSON format and respond with body in J...">
<polygon fill="white" stroke="#666666" points="1320.5,-101.5 1164.5,-101.5 1164.5,-71.5 1320.5,-71.5 1320.5,-101.5"/>
<text text-anchor="start" x="1172.5" y="-89.5" font-family="Helvetica,sans-Serif" font-size="10.00">userver/server/handlers</text>
<text text-anchor="middle" x="1242.5" y="-78.5" font-family="Helvetica,sans-Serif" font-size="10.00">/http_handler_json_base.hpp</text>
</a>
</g>
</g>
<!-- Node14&#45;&gt;Node18 -->
<g id="edge20_Node000014_Node000018" class="edge">
<title>Node14&#45;&gt;Node18</title>
<g id="a_edge20_Node000014_Node000018"><a xlink:title=" ">
<path fill="none" stroke="#63b8ff" d="M1184.38,-141.32C1198.13,-128.58 1215.25,-112.74 1227.33,-101.54"/>
<polygon fill="#63b8ff" stroke="#63b8ff" points="1181.7,-139.03 1176.74,-148.39 1186.45,-144.17 1181.7,-139.03"/>
</a>
</g>
</g>
<!-- Node21 -->
<g id="Node000021" class="node">
<title>Node21</title>
<g id="a_Node000021"><a xlink:href="../../dd/db6/http__handler__static_8hpp.html" target="_top" xlink:title="Handler that returns HTTP 200 if file exist and returns file data with mapped content/type.">
<polygon fill="white" stroke="#666666" points="1472.5,-101.5 1338.5,-101.5 1338.5,-71.5 1472.5,-71.5 1472.5,-101.5"/>
<text text-anchor="start" x="1346.5" y="-89.5" font-family="Helvetica,sans-Serif" font-size="10.00">userver/server/handlers</text>
<text text-anchor="middle" x="1405.5" y="-78.5" font-family="Helvetica,sans-Serif" font-size="10.00">/http_handler_static.hpp</text>
</a>
</g>
</g>
<!-- Node14&#45;&gt;Node21 -->
<g id="edge23_Node000014_Node000021" class="edge">
<title>Node14&#45;&gt;Node21</title>
<g id="a_edge23_Node000014_Node000021"><a xlink:title=" ">
<path fill="none" stroke="#63b8ff" d="M1216.88,-145.48C1260.03,-132.21 1319.21,-114.02 1359.7,-101.58"/>
<polygon fill="#63b8ff" stroke="#63b8ff" points="1215.64,-142.2 1207.11,-148.48 1217.7,-148.89 1215.64,-142.2"/>
</a>
</g>
</g>
<!-- Node22 -->
<g id="Node000022" class="node">
<title>Node22</title>
<g id="a_Node000022"><a xlink:href="../../d5/d86/jemalloc_8hpp.html" target="_top" xlink:title="Handler that controls the jemalloc allocator.">
<polygon fill="white" stroke="#666666" points="1622.5,-101.5 1490.5,-101.5 1490.5,-71.5 1622.5,-71.5 1622.5,-101.5"/>
<text text-anchor="start" x="1498.5" y="-89.5" font-family="Helvetica,sans-Serif" font-size="10.00">userver/server/handlers</text>
<text text-anchor="middle" x="1556.5" y="-78.5" font-family="Helvetica,sans-Serif" font-size="10.00">/jemalloc.hpp</text>
</a>
</g>
</g>
<!-- Node14&#45;&gt;Node22 -->
<g id="edge24_Node000014_Node000022" class="edge">
<title>Node14&#45;&gt;Node22</title>
<g id="a_edge24_Node000014_Node000022"><a xlink:title=" ">
<path fill="none" stroke="#63b8ff" d="M1237.86,-151.08C1302.91,-140.91 1398.72,-124.91 1481.5,-107 1489,-105.38 1496.87,-103.51 1504.59,-101.59"/>
<polygon fill="#63b8ff" stroke="#63b8ff" points="1237.03,-147.66 1227.69,-152.66 1238.11,-154.58 1237.03,-147.66"/>
</a>
</g>
</g>
<!-- Node23 -->
<g id="Node000023" class="node">
<title>Node23</title>
<g id="a_Node000023"><a xlink:href="../../d0/d01/log__level_8hpp.html" target="_top" xlink:title="Handler that controls logging levels of all the loggers.">
<polygon fill="white" stroke="#666666" points="1772.5,-101.5 1640.5,-101.5 1640.5,-71.5 1772.5,-71.5 1772.5,-101.5"/>
<text text-anchor="start" x="1648.5" y="-89.5" font-family="Helvetica,sans-Serif" font-size="10.00">userver/server/handlers</text>
<text text-anchor="middle" x="1706.5" y="-78.5" font-family="Helvetica,sans-Serif" font-size="10.00">/log_level.hpp</text>
</a>
</g>
</g>
<!-- Node14&#45;&gt;Node23 -->
<g id="edge25_Node000014_Node000023" class="edge">
<title>Node14&#45;&gt;Node23</title>
<g id="a_edge25_Node000014_Node000023"><a xlink:title=" ">
<path fill="none" stroke="#63b8ff" d="M1237.91,-156.71C1331.32,-148.89 1493.94,-132.88 1631.5,-107 1639.57,-105.48 1648.05,-103.58 1656.28,-101.57"/>
<polygon fill="#63b8ff" stroke="#63b8ff" points="1237.38,-153.24 1227.71,-157.56 1237.96,-160.22 1237.38,-153.24"/>
</a>
</g>
</g>
<!-- Node24 -->
<g id="Node000024" class="node">
<title>Node24</title>
<g id="a_Node000024"><a xlink:href="../../d7/d72/on__log__rotate_8hpp.html" target="_top" xlink:title="Handler that controls logging levels of all the loggers.">
<polygon fill="white" stroke="#666666" points="1922.5,-101.5 1790.5,-101.5 1790.5,-71.5 1922.5,-71.5 1922.5,-101.5"/>
<text text-anchor="start" x="1798.5" y="-89.5" font-family="Helvetica,sans-Serif" font-size="10.00">userver/server/handlers</text>
<text text-anchor="middle" x="1856.5" y="-78.5" font-family="Helvetica,sans-Serif" font-size="10.00">/on_log_rotate.hpp</text>
</a>
</g>
</g>
<!-- Node14&#45;&gt;Node24 -->
<g id="edge26_Node000014_Node000024" class="edge">
<title>Node14&#45;&gt;Node24</title>
<g id="a_edge26_Node000014_Node000024"><a xlink:title=" ">
<path fill="none" stroke="#63b8ff" d="M1237.91,-159.72C1355.46,-154.53 1587.44,-140.68 1781.5,-107 1789.85,-105.55 1798.63,-103.63 1807.13,-101.57"/>
<polygon fill="#63b8ff" stroke="#63b8ff" points="1237.42,-156.24 1227.58,-160.17 1237.72,-163.23 1237.42,-156.24"/>
</a>
</g>
</g>
<!-- Node25 -->
<g id="Node000025" class="node">
<title>Node25</title>
<g id="a_Node000025"><a xlink:href="../../d8/d39/ping_8hpp.html" target="_top" xlink:title="Handler that returns HTTP 200 if the service is OK and able to process requests.">
<polygon fill="white" stroke="#666666" points="2072.5,-101.5 1940.5,-101.5 1940.5,-71.5 2072.5,-71.5 2072.5,-101.5"/>
<text text-anchor="start" x="1948.5" y="-89.5" font-family="Helvetica,sans-Serif" font-size="10.00">userver/server/handlers</text>
<text text-anchor="middle" x="2006.5" y="-78.5" font-family="Helvetica,sans-Serif" font-size="10.00">/ping.hpp</text>
</a>
</g>
</g>
<!-- Node14&#45;&gt;Node25 -->
<g id="edge27_Node000014_Node000025" class="edge">
<title>Node14&#45;&gt;Node25</title>
<g id="a_edge27_Node000014_Node000025"><a xlink:title=" ">
<path fill="none" stroke="#63b8ff" d="M1237.75,-161.6C1376.64,-158.94 1679.75,-148.44 1931.5,-107 1940,-105.6 1948.93,-103.68 1957.56,-101.59"/>
<polygon fill="#63b8ff" stroke="#63b8ff" points="1237.57,-158.1 1227.64,-161.78 1237.7,-165.1 1237.57,-158.1"/>
</a>
</g>
</g>
<!-- Node26 -->
<g id="Node000026" class="node">
<title>Node26</title>
<g id="a_Node000026"><a xlink:href="../../de/d18/server__monitor_8hpp.html" target="_top" xlink:title="Handler that returns statistics data.">
<polygon fill="white" stroke="#666666" points="530.5,-101.5 398.5,-101.5 398.5,-71.5 530.5,-71.5 530.5,-101.5"/>
<text text-anchor="start" x="406.5" y="-89.5" font-family="Helvetica,sans-Serif" font-size="10.00">userver/server/handlers</text>
<text text-anchor="middle" x="464.5" y="-78.5" font-family="Helvetica,sans-Serif" font-size="10.00">/server_monitor.hpp</text>
</a>
</g>
</g>
<!-- Node14&#45;&gt;Node26 -->
<g id="edge28_Node000014_Node000026" class="edge">
<title>Node14&#45;&gt;Node26</title>
<g id="a_edge28_Node000014_Node000026"><a xlink:title=" ">
<path fill="none" stroke="#63b8ff" d="M1085.08,-155.17C1046.02,-151.45 997.73,-146.91 954.5,-143 770.12,-126.32 721.95,-138.4 539.5,-107 531.15,-105.56 522.36,-103.65 513.87,-101.59"/>
<polygon fill="#63b8ff" stroke="#63b8ff" points="1085.04,-158.68 1095.32,-156.14 1085.7,-151.71 1085.04,-158.68"/>
</a>
</g>
</g>
<!-- Node27 -->
<g id="Node000027" class="node">
<title>Node27</title>
<g id="a_Node000027"><a xlink:href="../../d8/d82/core_2include_2userver_2server_2server_8hpp_source.html" target="_top" xlink:title=" ">
<polygon fill="white" stroke="#666666" points="690,-96 549,-96 549,-77 690,-77 690,-96"/>
<text text-anchor="middle" x="619.5" y="-84" font-family="Helvetica,sans-Serif" font-size="10.00">userver/server/server.hpp</text>
</a>
</g>
</g>
<!-- Node14&#45;&gt;Node27 -->
<g id="edge29_Node000014_Node000027" class="edge">
<title>Node14&#45;&gt;Node27</title>
<g id="a_edge29_Node000014_Node000027"><a xlink:title=" ">
<path fill="none" stroke="#63b8ff" d="M1085.28,-156.16C993.35,-147.86 834.35,-131.44 699.5,-107 683.32,-104.07 665.54,-99.83 650.85,-96.06"/>
<polygon fill="#63b8ff" stroke="#63b8ff" points="1085.06,-159.65 1095.33,-157.06 1085.68,-152.68 1085.06,-159.65"/>
</a>
</g>
</g>
<!-- Node29 -->
<g id="Node000029" class="node">
<title>Node29</title>
<g id="a_Node000029"><a xlink:href="../../d4/d64/websocket__handler_8hpp.html" target="_top" xlink:title=" ">
<polygon fill="white" stroke="#666666" points="2232.5,-101.5 2090.5,-101.5 2090.5,-71.5 2232.5,-71.5 2232.5,-101.5"/>
<text text-anchor="start" x="2098.5" y="-89.5" font-family="Helvetica,sans-Serif" font-size="10.00">userver/server/websocket</text>
<text text-anchor="middle" x="2161.5" y="-78.5" font-family="Helvetica,sans-Serif" font-size="10.00">/websocket_handler.hpp</text>
</a>
</g>
</g>
<!-- Node14&#45;&gt;Node29 -->
<g id="edge31_Node000014_Node000029" class="edge">
<title>Node14&#45;&gt;Node29</title>
<g id="a_edge31_Node000014_Node000029"><a xlink:title=" ">
<path fill="none" stroke="#63b8ff" d="M1237.92,-159.65C1428.21,-152.28 1919.53,-131.42 2081.5,-107 2090.69,-105.61 2100.37,-103.68 2109.7,-101.55"/>
<polygon fill="#63b8ff" stroke="#63b8ff" points="1237.59,-156.16 1227.73,-160.05 1237.86,-163.16 1237.59,-156.16"/>
</a>
</g>
</g>
<!-- Node19 -->
<g id="Node000019" class="node">
<title>Node19</title>
<g id="a_Node000019"><a xlink:href="../../d7/d79/inspect__requests_8hpp.html" target="_top" xlink:title="Handler that returns information about all in&#45;flight requests.">
<polygon fill="white" stroke="#666666" points="1383.5,-30 1251.5,-30 1251.5,0 1383.5,0 1383.5,-30"/>
<text text-anchor="start" x="1259.5" y="-18" font-family="Helvetica,sans-Serif" font-size="10.00">userver/server/handlers</text>
<text text-anchor="middle" x="1317.5" y="-7" font-family="Helvetica,sans-Serif" font-size="10.00">/inspect_requests.hpp</text>
</a>
</g>
</g>
<!-- Node18&#45;&gt;Node19 -->
<g id="edge21_Node000018_Node000019" class="edge">
<title>Node18&#45;&gt;Node19</title>
<g id="a_edge21_Node000018_Node000019"><a xlink:title=" ">
<path fill="none" stroke="#63b8ff" d="M1265.17,-64.49C1277.21,-53.34 1291.68,-39.93 1302.35,-30.04"/>
<polygon fill="#63b8ff" stroke="#63b8ff" points="1262.63,-62.07 1257.68,-71.44 1267.39,-67.21 1262.63,-62.07"/>
</a>
</g>
</g>
<!-- Node20 -->
<g id="Node000020" class="node">
<title>Node20</title>
<g id="a_Node000020"><a xlink:href="../../d6/d43/tests__control_8hpp.html" target="_top" xlink:title="Handler that allows to control the behavior of server from tests, and functional tests with testsuite...">
<polygon fill="white" stroke="#666666" points="1233.5,-30 1101.5,-30 1101.5,0 1233.5,0 1233.5,-30"/>
<text text-anchor="start" x="1109.5" y="-18" font-family="Helvetica,sans-Serif" font-size="10.00">userver/server/handlers</text>
<text text-anchor="middle" x="1167.5" y="-7" font-family="Helvetica,sans-Serif" font-size="10.00">/tests_control.hpp</text>
</a>
</g>
</g>
<!-- Node18&#45;&gt;Node20 -->
<g id="edge22_Node000018_Node000020" class="edge">
<title>Node18&#45;&gt;Node20</title>
<g id="a_edge22_Node000018_Node000020"><a xlink:title=" ">
<path fill="none" stroke="#63b8ff" d="M1219.83,-64.49C1207.79,-53.34 1193.32,-39.93 1182.65,-30.04"/>
<polygon fill="#63b8ff" stroke="#63b8ff" points="1217.61,-67.21 1227.32,-71.44 1222.37,-62.07 1217.61,-67.21"/>
</a>
</g>
</g>
<!-- Node28 -->
<g id="Node000028" class="node">
<title>Node28</title>
<g id="a_Node000028"><a xlink:href="../../d3/ddd/core_2include_2userver_2server_2component_8hpp.html" target="_top" xlink:title="Component that listens for incoming requests, manages incoming connections and passes the requests to...">
<polygon fill="white" stroke="#666666" points="702.5,-24.5 536.5,-24.5 536.5,-5.5 702.5,-5.5 702.5,-24.5"/>
<text text-anchor="middle" x="619.5" y="-12.5" font-family="Helvetica,sans-Serif" font-size="10.00">userver/server/component.hpp</text>
</a>
</g>
</g>
<!-- Node27&#45;&gt;Node28 -->
<g id="edge30_Node000027_Node000028" class="edge">
<title>Node27&#45;&gt;Node28</title>
<g id="a_edge30_Node000027_Node000028"><a xlink:title=" ">
<path fill="none" stroke="#63b8ff" d="M619.5,-66.71C619.5,-53 619.5,-35.05 619.5,-24.59"/>
<polygon fill="#63b8ff" stroke="#63b8ff" points="616,-66.98 619.5,-76.98 623,-66.98 616,-66.98"/>
</a>
</g>
</g>
<!-- Node30&#45;&gt;Node12 -->
<g id="edge37_Node000030_Node000012" class="edge">
<title>Node30&#45;&gt;Node12</title>
<g id="a_edge37_Node000030_Node000012"><a xlink:title=" ">
<path fill="none" stroke="#63b8ff" d="M779.61,-285.35C765.98,-275.16 749.52,-262.36 735.5,-250 711.32,-228.68 685.47,-202.07 668.71,-184.25"/>
<polygon fill="#63b8ff" stroke="#63b8ff" points="777.57,-288.19 787.7,-291.33 781.74,-282.57 777.57,-288.19"/>
</a>
</g>
</g>
<!-- Node30&#45;&gt;Node13 -->
<g id="edge38_Node000030_Node000013" class="edge">
<title>Node30&#45;&gt;Node13</title>
<g id="a_edge38_Node000030_Node000013"><a xlink:title=" ">
<path fill="none" stroke="#63b8ff" d="M789.68,-283.12C782.46,-273.34 774.44,-261.49 768.5,-250 745.34,-205.17 770.14,-174.23 730.5,-143 670.65,-95.84 464.47,-120.62 389.5,-107 386.59,-106.47 383.62,-105.89 380.63,-105.27"/>
<polygon fill="#63b8ff" stroke="#63b8ff" points="786.92,-285.27 795.75,-291.12 792.5,-281.04 786.92,-285.27"/>
</a>
</g>
</g>
<!-- Node30&#45;&gt;Node14 -->
<g id="edge39_Node000030_Node000014" class="edge">
<title>Node30&#45;&gt;Node14</title>
<g id="a_edge39_Node000030_Node000014"><a xlink:title=" ">
<path fill="none" stroke="#63b8ff" d="M860.65,-287.97C886.73,-278.38 918.14,-265.33 944.5,-250 963.1,-239.19 963.46,-230.02 982.5,-220 1018.2,-201.21 1061.31,-187.6 1096.28,-178.56"/>
<polygon fill="#63b8ff" stroke="#63b8ff" points="859.15,-284.79 850.93,-291.48 861.53,-291.38 859.15,-284.79"/>
</a>
</g>
</g>
<!-- Node31 -->
<g id="Node000031" class="node">
<title>Node31</title>
<g id="a_Node000031"><a xlink:href="../../da/dff/auth__checker__base_8hpp_source.html" target="_top" xlink:title=" ">
<polygon fill="white" stroke="#666666" points="935.5,-250 777.5,-250 777.5,-220 935.5,-220 935.5,-250"/>
<text text-anchor="start" x="785.5" y="-238" font-family="Helvetica,sans-Serif" font-size="10.00">userver/server/handlers</text>
<text text-anchor="middle" x="856.5" y="-227" font-family="Helvetica,sans-Serif" font-size="10.00">/auth/auth_checker_base.hpp</text>
</a>
</g>
</g>
<!-- Node30&#45;&gt;Node31 -->
<g id="edge33_Node000030_Node000031" class="edge">
<title>Node30&#45;&gt;Node31</title>
<g id="a_edge33_Node000030_Node000031"><a xlink:title=" ">
<path fill="none" stroke="#63b8ff" d="M823.22,-283.21C830.89,-272.32 839.89,-259.55 846.6,-250.04"/>
<polygon fill="#63b8ff" stroke="#63b8ff" points="820.32,-281.25 817.42,-291.44 826.04,-285.28 820.32,-281.25"/>
</a>
</g>
</g>
<!-- Node33 -->
<g id="Node000033" class="node">
<title>Node33</title>
<g id="a_Node000033"><a xlink:href="../../de/d4e/core_2include_2userver_2server_2websocket_2server_8hpp.html" target="_top" xlink:title=" ">
<polygon fill="white" stroke="#666666" points="1133.5,-250 991.5,-250 991.5,-220 1133.5,-220 1133.5,-250"/>
<text text-anchor="start" x="999.5" y="-238" font-family="Helvetica,sans-Serif" font-size="10.00">userver/server/websocket</text>
<text text-anchor="middle" x="1062.5" y="-227" font-family="Helvetica,sans-Serif" font-size="10.00">/server.hpp</text>
</a>
</g>
</g>
<!-- Node30&#45;&gt;Node33 -->
<g id="edge40_Node000030_Node000033" class="edge">
<title>Node30&#45;&gt;Node33</title>
<g id="a_edge40_Node000030_Node000033"><a xlink:title=" ">
<path fill="none" stroke="#63b8ff" d="M868.98,-288.74C912.41,-276.91 969.95,-261.22 1010.97,-250.04"/>
<polygon fill="#63b8ff" stroke="#63b8ff" points="867.83,-285.43 859.1,-291.44 869.67,-292.18 867.83,-285.43"/>
</a>
</g>
</g>
<!-- Node31&#45;&gt;Node12 -->
<g id="edge35_Node000031_Node000012" class="edge">
<title>Node31&#45;&gt;Node12</title>
<g id="a_edge35_Node000031_Node000012"><a xlink:title=" ">
<path fill="none" stroke="#63b8ff" d="M805.17,-216.68C775.82,-206.78 738.91,-194.33 708.52,-184.07"/>
<polygon fill="#63b8ff" stroke="#63b8ff" points="804.22,-220.06 814.81,-219.94 806.46,-213.42 804.22,-220.06"/>
</a>
</g>
</g>
<!-- Node31&#45;&gt;Node14 -->
<g id="edge36_Node000031_Node000014" class="edge">
<title>Node31&#45;&gt;Node14</title>
<g id="a_edge36_Node000031_Node000014"><a xlink:title=" ">
<path fill="none" stroke="#63b8ff" d="M928.07,-217.69C980.24,-205.8 1050.18,-189.87 1099.87,-178.54"/>
<polygon fill="#63b8ff" stroke="#63b8ff" points="927.19,-214.3 918.22,-219.94 928.75,-221.13 927.19,-214.3"/>
</a>
</g>
</g>
<!-- Node32 -->
<g id="Node000032" class="node">
<title>Node32</title>
<g id="a_Node000032"><a xlink:href="../../db/ddd/auth__checker__factory_8hpp.html" target="_top" xlink:title="Authorization factory registration and base classes.">
<polygon fill="white" stroke="#666666" points="945.5,-178.5 777.5,-178.5 777.5,-148.5 945.5,-148.5 945.5,-178.5"/>
<text text-anchor="start" x="785.5" y="-166.5" font-family="Helvetica,sans-Serif" font-size="10.00">userver/server/handlers</text>
<text text-anchor="middle" x="861.5" y="-155.5" font-family="Helvetica,sans-Serif" font-size="10.00">/auth/auth_checker_factory.hpp</text>
</a>
</g>
</g>
<!-- Node31&#45;&gt;Node32 -->
<g id="edge34_Node000031_Node000032" class="edge">
<title>Node31&#45;&gt;Node32</title>
<g id="a_edge34_Node000031_Node000032"><a xlink:title=" ">
<path fill="none" stroke="#63b8ff" d="M858.24,-209.75C859,-199.31 859.85,-187.49 860.49,-178.54"/>
<polygon fill="#63b8ff" stroke="#63b8ff" points="854.74,-209.71 857.51,-219.94 861.72,-210.21 854.74,-209.71"/>
</a>
</g>
</g>
<!-- Node33&#45;&gt;Node29 -->
<g id="edge41_Node000033_Node000029" class="edge">
<title>Node33&#45;&gt;Node29</title>
<g id="a_edge41_Node000033_Node000029"><a xlink:title=" ">
<path fill="none" stroke="#63b8ff" d="M1143.72,-227.08C1316.97,-211.62 1735.29,-170.55 2081.5,-107 2089.94,-105.45 2098.81,-103.56 2107.46,-101.57"/>
<polygon fill="#63b8ff" stroke="#63b8ff" points="1143.31,-223.6 1133.66,-227.97 1143.93,-230.58 1143.31,-223.6"/>
</a>
</g>
</g>
</g>
</svg>
