<?xml version="1.0" encoding="UTF-8" standalone="no"?>
<!DOCTYPE svg PUBLIC "-//W3C//DTD SVG 1.1//EN"
 "http://www.w3.org/Graphics/SVG/1.1/DTD/svg11.dtd">
<!-- Generated by graphviz version 2.43.0 (0)
 -->
<!-- Title: Universal Pages: 1 -->
<svg width="335pt" height="1034pt"
 viewBox="0.00 0.00 335.00 1033.70" xmlns="http://www.w3.org/2000/svg" xmlns:xlink="http://www.w3.org/1999/xlink">
<g id="graph0" class="graph" transform="scale(1 1) rotate(0) translate(4 1029.7)">
<title>Universal</title>
<!-- Node8 -->
<g id="Node000008" class="node">
<title>Node8</title>
<g id="a_Node000008"><a xlink:href="../../da/d0c/group__userver__base__classes.html" target="_top" xlink:title="Base classes that simplify implementation of functionality.">
<polygon fill="white" stroke="#666666" points="322,-1011.2 241,-1011.2 241,-992.2 322,-992.2 322,-1011.2"/>
<text text-anchor="middle" x="281.5" y="-999.2" font-family="Helvetica,sans-Serif" font-size="10.00">Base Classes</text>
</a>
</g>
</g>
<!-- Node7 -->
<g id="Node000007" class="node">
<title>Node7</title>
<g id="a_Node000007"><a xlink:href="../../dc/db7/group__userver__concurrency.html" target="_top" xlink:title="Task construction and synchronization primitives for coroutines.">
<polygon fill="white" stroke="#666666" points="320,-974.2 243,-974.2 243,-955.2 320,-955.2 320,-974.2"/>
<text text-anchor="middle" x="281.5" y="-962.2" font-family="Helvetica,sans-Serif" font-size="10.00">Concurrency</text>
</a>
</g>
</g>
<!-- Node2 -->
<g id="Node000002" class="node">
<title>Node2</title>
<g id="a_Node000002"><a xlink:href="../../df/d2e/group__userver__containers.html" target="_top" xlink:title="Utility containers.">
<polygon fill="white" stroke="#666666" points="316,-478.2 247,-478.2 247,-459.2 316,-459.2 316,-478.2"/>
<text text-anchor="middle" x="281.5" y="-466.2" font-family="Helvetica,sans-Serif" font-size="10.00">Containers</text>
</a>
</g>
</g>
<!-- Node3 -->
<g id="Node000003" class="node">
<title>Node3</title>
<g id="a_Node000003"><a xlink:href="../../d3/dcb/group__userver__formats.html" target="_top" xlink:title="Different containers that share the same interface and manipulate tree&#45;like formats.">
<polygon fill="white" stroke="#666666" points="309.5,-389.2 253.5,-389.2 253.5,-370.2 309.5,-370.2 309.5,-389.2"/>
<text text-anchor="middle" x="281.5" y="-377.2" font-family="Helvetica,sans-Serif" font-size="10.00">Formats</text>
</a>
</g>
</g>
<!-- Node5 -->
<g id="Node000005" class="node">
<title>Node5</title>
<g id="a_Node000005"><a xlink:href="../../da/d5d/group__userver__formats__parse.html" target="_top" xlink:title="Files with parsers from formats.">
<polygon fill="white" stroke="#666666" points="307.5,-298.2 255.5,-298.2 255.5,-279.2 307.5,-279.2 307.5,-298.2"/>
<text text-anchor="middle" x="281.5" y="-286.2" font-family="Helvetica,sans-Serif" font-size="10.00">Parsers</text>
</a>
</g>
</g>
<!-- Node6 -->
<g id="Node000006" class="node">
<title>Node6</title>
<g id="a_Node000006"><a xlink:href="../../df/d0f/group__userver__formats__serialize.html" target="_top" xlink:title="Files with serializers into formats.">
<polygon fill="white" stroke="#666666" points="315.5,-155.2 247.5,-155.2 247.5,-136.2 315.5,-136.2 315.5,-155.2"/>
<text text-anchor="middle" x="281.5" y="-143.2" font-family="Helvetica,sans-Serif" font-size="10.00">Serializers</text>
</a>
</g>
</g>
<!-- Node4 -->
<g id="Node000004" class="node">
<title>Node4</title>
<g id="a_Node000004"><a xlink:href="../../dc/d1a/group__userver__formats__serialize__sax.html" target="_top" xlink:title="Files with SAX serializers into formats.">
<polygon fill="white" stroke="#666666" points="327,-48.2 236,-48.2 236,-29.2 327,-29.2 327,-48.2"/>
<text text-anchor="middle" x="281.5" y="-36.2" font-family="Helvetica,sans-Serif" font-size="10.00">SAX Serializers</text>
</a>
</g>
</g>
<!-- Node1 -->
<g id="Node000001" class="node">
<title>Node1</title>
<g id="a_Node000001"><a xlink:title="Functions and classes that could be used with or without coroutine environment.">
<polygon fill="#999999" stroke="#666666" points="63,-299.2 0,-299.2 0,-280.2 63,-280.2 63,-299.2"/>
<text text-anchor="middle" x="31.5" y="-287.2" font-family="Helvetica,sans-Serif" font-size="10.00">Universal</text>
</a>
</g>
</g>
<!-- Node1&#45;&gt;Node8 -->
<g id="edge7" class="edge">
<title>Node1&#45;&gt;Node8</title>
<path fill="none" stroke="orange" stroke-dasharray="5,2" d="M32.45,-299.43C32.11,-379.55 31.64,-928.34 81,-979.7 121.69,-1022.03 195.24,-1018.17 240.77,-1010.58"/>
<text text-anchor="middle" x="149.5" y="-1017.7" font-family="Helvetica,sans-Serif" font-size="10.00">utils::TracefulException</text>
</g>
<!-- Node1&#45;&gt;Node7 -->
<g id="edge6" class="edge">
<title>Node1&#45;&gt;Node7</title>
<path fill="none" stroke="orange" stroke-dasharray="5,2" d="M32.49,-299.65C32.5,-378.02 34.33,-894.33 81,-942.7 102.59,-965.08 191.07,-966.94 242.66,-966.02"/>
<text text-anchor="middle" x="149.5" y="-968.7" font-family="Helvetica,sans-Serif" font-size="10.00">utils::TokenBucket</text>
</g>
<!-- Node1&#45;&gt;Node2 -->
<g id="edge1" class="edge">
<title>Node1&#45;&gt;Node2</title>
<path fill="none" stroke="orange" stroke-dasharray="5,2" d="M32.22,-299.25C32,-326.79 35.47,-406.84 81,-444.7 105.48,-465.05 196.44,-468.58 246.66,-468.93"/>
<text text-anchor="middle" x="149.5" y="-932.7" font-family="Helvetica,sans-Serif" font-size="10.00">cache::LruMap</text>
<text text-anchor="middle" x="149.5" y="-921.7" font-family="Helvetica,sans-Serif" font-size="10.00">cache::LruSet</text>
<text text-anchor="middle" x="149.5" y="-910.7" font-family="Helvetica,sans-Serif" font-size="10.00">crypto::Certificate</text>
<text text-anchor="middle" x="149.5" y="-899.7" font-family="Helvetica,sans-Serif" font-size="10.00">crypto::PrivateKey</text>
<text text-anchor="middle" x="149.5" y="-888.7" font-family="Helvetica,sans-Serif" font-size="10.00">crypto::PublicKey</text>
<text text-anchor="middle" x="149.5" y="-877.7" font-family="Helvetica,sans-Serif" font-size="10.00">decimal64::Decimal</text>
<text text-anchor="middle" x="149.5" y="-866.7" font-family="Helvetica,sans-Serif" font-size="10.00">formats::json::StringBuilder</text>
<text text-anchor="middle" x="149.5" y="-855.7" font-family="Helvetica,sans-Serif" font-size="10.00">formats::json::Value</text>
<text text-anchor="middle" x="149.5" y="-844.7" font-family="Helvetica,sans-Serif" font-size="10.00">formats::json::ValueBuilder</text>
<text text-anchor="middle" x="149.5" y="-833.7" font-family="Helvetica,sans-Serif" font-size="10.00">formats::yaml::Value</text>
<text text-anchor="middle" x="149.5" y="-822.7" font-family="Helvetica,sans-Serif" font-size="10.00">formats::yaml::ValueBuilder</text>
<text text-anchor="middle" x="149.5" y="-811.7" font-family="Helvetica,sans-Serif" font-size="10.00">fs::blocking::CFile</text>
<text text-anchor="middle" x="149.5" y="-800.7" font-family="Helvetica,sans-Serif" font-size="10.00">fs::blocking::FileDescriptor</text>
<text text-anchor="middle" x="149.5" y="-789.7" font-family="Helvetica,sans-Serif" font-size="10.00">fs::blocking::TempDirectory</text>
<text text-anchor="middle" x="149.5" y="-778.7" font-family="Helvetica,sans-Serif" font-size="10.00">fs::blocking::TempFile</text>
<text text-anchor="middle" x="149.5" y="-767.7" font-family="Helvetica,sans-Serif" font-size="10.00">http::ContentType</text>
<text text-anchor="middle" x="149.5" y="-756.7" font-family="Helvetica,sans-Serif" font-size="10.00">http::headers::HeaderMap</text>
<text text-anchor="start" x="81" y="-745.7" font-family="Helvetica,sans-Serif" font-size="10.00">http::headers::Predefined</text>
<text text-anchor="middle" x="149.5" y="-734.7" font-family="Helvetica,sans-Serif" font-size="10.00">Header</text>
<text text-anchor="middle" x="149.5" y="-723.7" font-family="Helvetica,sans-Serif" font-size="10.00">utils::AnyMovable</text>
<text text-anchor="middle" x="149.5" y="-712.7" font-family="Helvetica,sans-Serif" font-size="10.00">utils::AnyStorage</text>
<text text-anchor="middle" x="149.5" y="-701.7" font-family="Helvetica,sans-Serif" font-size="10.00">utils::CheckedPtr</text>
<text text-anchor="middle" x="149.5" y="-690.7" font-family="Helvetica,sans-Serif" font-size="10.00">utils::datetime::Date</text>
<text text-anchor="middle" x="149.5" y="-679.7" font-family="Helvetica,sans-Serif" font-size="10.00">utils::expected</text>
<text text-anchor="middle" x="149.5" y="-668.7" font-family="Helvetica,sans-Serif" font-size="10.00">utils::FastPimpl</text>
<text text-anchor="middle" x="149.5" y="-657.7" font-family="Helvetica,sans-Serif" font-size="10.00">utils::FastScopeGuard</text>
<text text-anchor="middle" x="149.5" y="-646.7" font-family="Helvetica,sans-Serif" font-size="10.00">utils::FixedArray</text>
<text text-anchor="middle" x="149.5" y="-635.7" font-family="Helvetica,sans-Serif" font-size="10.00">utils::Flags</text>
<text text-anchor="middle" x="149.5" y="-624.7" font-family="Helvetica,sans-Serif" font-size="10.00">utils::AtomicFlags</text>
<text text-anchor="middle" x="149.5" y="-613.7" font-family="Helvetica,sans-Serif" font-size="10.00">utils::NotNull</text>
<text text-anchor="middle" x="149.5" y="-602.7" font-family="Helvetica,sans-Serif" font-size="10.00">utils::OptionalRef</text>
<text text-anchor="middle" x="149.5" y="-591.7" font-family="Helvetica,sans-Serif" font-size="10.00">utils::regex</text>
<text text-anchor="middle" x="149.5" y="-580.7" font-family="Helvetica,sans-Serif" font-size="10.00">utils::ResultStore</text>
<text text-anchor="start" x="81" y="-569.7" font-family="Helvetica,sans-Serif" font-size="10.00">utils::ResultStore</text>
<text text-anchor="middle" x="149.5" y="-558.7" font-family="Helvetica,sans-Serif" font-size="10.00">&lt; void &gt;</text>
<text text-anchor="middle" x="149.5" y="-547.7" font-family="Helvetica,sans-Serif" font-size="10.00">utils::ScopeGuard</text>
<text text-anchor="middle" x="149.5" y="-536.7" font-family="Helvetica,sans-Serif" font-size="10.00">utils::SharedReadablePtr</text>
<text text-anchor="middle" x="149.5" y="-525.7" font-family="Helvetica,sans-Serif" font-size="10.00">utils::SlidingInterval</text>
<text text-anchor="middle" x="149.5" y="-514.7" font-family="Helvetica,sans-Serif" font-size="10.00">utils::SmallString</text>
<text text-anchor="middle" x="149.5" y="-503.7" font-family="Helvetica,sans-Serif" font-size="10.00">utils::StrongTypedef</text>
<text text-anchor="middle" x="149.5" y="-492.7" font-family="Helvetica,sans-Serif" font-size="10.00">utils::datetime::TimeOfDay</text>
<text text-anchor="middle" x="149.5" y="-481.7" font-family="Helvetica,sans-Serif" font-size="10.00">utils::TrivialBiMap</text>
<text text-anchor="middle" x="149.5" y="-470.7" font-family="Helvetica,sans-Serif" font-size="10.00">utils::TrivialSet</text>
</g>
<!-- Node1&#45;&gt;Node3 -->
<g id="edge2" class="edge">
<title>Node1&#45;&gt;Node3</title>
<path fill="none" stroke="orange" stroke-dasharray="5,2" d="M37.2,-299.43C44.49,-313.33 59.89,-338.56 81,-350.7 109.83,-367.27 205.76,-375.22 253.3,-378.21"/>
<text text-anchor="middle" x="149.5" y="-432.7" font-family="Helvetica,sans-Serif" font-size="10.00">formats::json::StringBuilder</text>
<text text-anchor="middle" x="149.5" y="-421.7" font-family="Helvetica,sans-Serif" font-size="10.00">formats::json::Value</text>
<text text-anchor="middle" x="149.5" y="-410.7" font-family="Helvetica,sans-Serif" font-size="10.00">formats::json::ValueBuilder</text>
<text text-anchor="middle" x="149.5" y="-399.7" font-family="Helvetica,sans-Serif" font-size="10.00">formats::yaml::Value</text>
<text text-anchor="middle" x="149.5" y="-388.7" font-family="Helvetica,sans-Serif" font-size="10.00">formats::yaml::ValueBuilder</text>
<text text-anchor="middle" x="149.5" y="-377.7" font-family="Helvetica,sans-Serif" font-size="10.00">yaml_config::YamlConfig</text>
</g>
<!-- Node1&#45;&gt;Node5 -->
<g id="edge4" class="edge">
<title>Node1&#45;&gt;Node5</title>
<path fill="none" stroke="orange" stroke-dasharray="5,2" d="M42.27,-299.32C51.41,-307.6 65.9,-318.93 81,-323.7 139.07,-342.02 159.08,-339.07 218,-323.7 236.77,-318.8 255.87,-306.87 267.93,-298.31"/>
<text text-anchor="middle" x="149.5" y="-338.7" font-family="Helvetica,sans-Serif" font-size="10.00">formats::parse::To</text>
</g>
<!-- Node1&#45;&gt;Node5 -->
<g id="edge9" class="edge">
<title>Node1&#45;&gt;Node5</title>
<path fill="none" stroke="darkgreen" stroke-dasharray="5,2" d="M37.13,-280.04C44.31,-266.31 59.6,-241.7 81,-231.7 136.16,-205.92 161.23,-209.7 218,-231.7 242.65,-241.25 263.53,-265.55 273.76,-279.14"/>
<text text-anchor="middle" x="149.5" y="-311.7" font-family="Helvetica,sans-Serif" font-size="10.00">boost_optional.hpp</text>
<text text-anchor="middle" x="149.5" y="-300.7" font-family="Helvetica,sans-Serif" font-size="10.00">boost_uuid.hpp</text>
<text text-anchor="middle" x="149.5" y="-289.7" font-family="Helvetica,sans-Serif" font-size="10.00">boost_variant.hpp</text>
<text text-anchor="middle" x="149.5" y="-278.7" font-family="Helvetica,sans-Serif" font-size="10.00">common.hpp</text>
<text text-anchor="middle" x="149.5" y="-267.7" font-family="Helvetica,sans-Serif" font-size="10.00">common_containers.hpp</text>
<text text-anchor="middle" x="149.5" y="-256.7" font-family="Helvetica,sans-Serif" font-size="10.00">time_of_day.hpp</text>
<text text-anchor="middle" x="149.5" y="-245.7" font-family="Helvetica,sans-Serif" font-size="10.00">to.hpp</text>
<text text-anchor="middle" x="149.5" y="-234.7" font-family="Helvetica,sans-Serif" font-size="10.00">variant.hpp</text>
</g>
<!-- Node1&#45;&gt;Node6 -->
<g id="edge5" class="edge">
<title>Node1&#45;&gt;Node6</title>
<path fill="none" stroke="orange" stroke-dasharray="5,2" d="M34.71,-279.91C39.52,-261 52.86,-219.55 81,-199.7 131.34,-164.19 159.51,-198.01 218,-178.7 235.24,-173 253.44,-162.86 265.72,-155.32"/>
<text text-anchor="middle" x="149.5" y="-202.7" font-family="Helvetica,sans-Serif" font-size="10.00">formats::serialize::To</text>
</g>
<!-- Node1&#45;&gt;Node6 -->
<g id="edge8" class="edge">
<title>Node1&#45;&gt;Node6</title>
<path fill="none" stroke="darkgreen" stroke-dasharray="5,2" d="M33.27,-280C36.44,-242.96 49.78,-111.34 81,-86.7 104.9,-67.84 189.71,-75.45 218,-86.7 242.96,-96.62 263.72,-121.76 273.84,-135.81"/>
<text text-anchor="middle" x="149.5" y="-166.7" font-family="Helvetica,sans-Serif" font-size="10.00">serialize_boost_variant.hpp</text>
<text text-anchor="middle" x="149.5" y="-155.7" font-family="Helvetica,sans-Serif" font-size="10.00">serialize_duration.hpp</text>
<text text-anchor="middle" x="149.5" y="-144.7" font-family="Helvetica,sans-Serif" font-size="10.00">serialize_variant.hpp</text>
<text text-anchor="middle" x="149.5" y="-133.7" font-family="Helvetica,sans-Serif" font-size="10.00">boost_optional.hpp</text>
<text text-anchor="middle" x="149.5" y="-122.7" font-family="Helvetica,sans-Serif" font-size="10.00">boost_uuid.hpp</text>
<text text-anchor="middle" x="149.5" y="-111.7" font-family="Helvetica,sans-Serif" font-size="10.00">common_containers.hpp</text>
<text text-anchor="middle" x="149.5" y="-100.7" font-family="Helvetica,sans-Serif" font-size="10.00">time_of_day.hpp</text>
<text text-anchor="middle" x="149.5" y="-89.7" font-family="Helvetica,sans-Serif" font-size="10.00">to.hpp</text>
</g>
<!-- Node1&#45;&gt;Node4 -->
<g id="edge3" class="edge">
<title>Node1&#45;&gt;Node4</title>
<path fill="none" stroke="orange" stroke-dasharray="5,2" d="M33.08,-279.94C35.65,-240.04 47.44,-89.97 81,-59.7 103.05,-39.81 184.22,-37.1 235.98,-37.51"/>
<text text-anchor="middle" x="149.5" y="-62.7" font-family="Helvetica,sans-Serif" font-size="10.00">formats::json::StringBuilder</text>
</g>
<!-- Node1&#45;&gt;Node4 -->
<g id="edge10" class="edge">
<title>Node1&#45;&gt;Node4</title>
<path fill="none" stroke="darkgreen" stroke-dasharray="5,2" d="M32.67,-280.07C33.68,-236.18 40.26,-55.72 81,-21.7 133.29,21.98 222.45,-11.19 261.38,-29.14"/>
<text text-anchor="middle" x="149.5" y="-24.7" font-family="Helvetica,sans-Serif" font-size="10.00">write_to_stream.hpp</text>
</g>
</g>
</svg>
