<?xml version="1.0" encoding="UTF-8" standalone="no"?>
<!DOCTYPE svg PUBLIC "-//W3C//DTD SVG 1.1//EN"
 "http://www.w3.org/Graphics/SVG/1.1/DTD/svg11.dtd">
<!-- Generated by graphviz version 2.43.0 (0)
 -->
<!-- Title: tracing::TracingManagerBase Pages: 1 -->
<svg width="410pt" height="82pt"
 viewBox="0.00 0.00 410.00 82.00" xmlns="http://www.w3.org/2000/svg" xmlns:xlink="http://www.w3.org/1999/xlink">
<g id="graph0" class="graph" transform="scale(1 1) rotate(0) translate(4 78)">
<title>tracing::TracingManagerBase</title>
<!-- Node1 -->
<g id="Node000001" class="node">
<title>Node1</title>
<g id="a_Node000001"><a xlink:title="Base class for propagating trace context information in headers.">
<polygon fill="#999999" stroke="#666666" points="269,-74 111,-74 111,-55 269,-55 269,-74"/>
<text text-anchor="middle" x="190" y="-62" font-family="Helvetica,sans-Serif" font-size="10.00">tracing::TracingManagerBase</text>
</a>
</g>
</g>
<!-- Node2 -->
<g id="Node000002" class="node">
<title>Node2</title>
<g id="a_Node000002"><a xlink:href="../../d6/d8b/classtracing_1_1DefaultTracingManager.html" target="_top" xlink:title="Used as default tracing manager. Provides methods for working with usual Yandex.Taxi tracing headers.">
<polygon fill="white" stroke="#666666" points="170,-19 0,-19 0,0 170,0 170,-19"/>
<text text-anchor="middle" x="85" y="-7" font-family="Helvetica,sans-Serif" font-size="10.00">tracing::DefaultTracingManager</text>
</a>
</g>
</g>
<!-- Node1&#45;&gt;Node2 -->
<g id="edge1_Node000001_Node000002" class="edge">
<title>Node1&#45;&gt;Node2</title>
<g id="a_edge1_Node000001_Node000002"><a xlink:title=" ">
<path fill="none" stroke="#63b8ff" d="M163.98,-50.37C144.7,-40.63 118.95,-27.64 102.18,-19.17"/>
<polygon fill="#63b8ff" stroke="#63b8ff" points="162.63,-53.6 173.13,-54.98 165.78,-47.35 162.63,-53.6"/>
</a>
</g>
</g>
<!-- Node3 -->
<g id="Node000003" class="node">
<title>Node3</title>
<g id="a_Node000003"><a xlink:href="../../d4/d9a/classtracing_1_1TracingManagerComponentBase.html" target="_top" xlink:title="Base component for implementing TracingManager component.">
<polygon fill="white" stroke="#666666" points="402,-19 188,-19 188,0 402,0 402,-19"/>
<text text-anchor="middle" x="295" y="-7" font-family="Helvetica,sans-Serif" font-size="10.00">tracing::TracingManagerComponentBase</text>
</a>
</g>
</g>
<!-- Node1&#45;&gt;Node3 -->
<g id="edge2_Node000001_Node000003" class="edge">
<title>Node1&#45;&gt;Node3</title>
<g id="a_edge2_Node000001_Node000003"><a xlink:title=" ">
<path fill="none" stroke="#63b8ff" d="M216.02,-50.37C235.3,-40.63 261.05,-27.64 277.82,-19.17"/>
<polygon fill="#63b8ff" stroke="#63b8ff" points="214.22,-47.35 206.87,-54.98 217.37,-53.6 214.22,-47.35"/>
</a>
</g>
</g>
</g>
</svg>
