<?xml version="1.0" encoding="UTF-8" standalone="no"?>
<!DOCTYPE svg PUBLIC "-//W3C//DTD SVG 1.1//EN"
 "http://www.w3.org/Graphics/SVG/1.1/DTD/svg11.dtd">
<!-- Generated by graphviz version 2.43.0 (0)
 -->
<!-- Title: userver/decimal64/decimal64.hpp Pages: 1 -->
<svg width="1092pt" height="610pt"
 viewBox="0.00 0.00 1092.14 610.00" xmlns="http://www.w3.org/2000/svg" xmlns:xlink="http://www.w3.org/1999/xlink">
<g id="graph0" class="graph" transform="scale(1 1) rotate(0) translate(4 606)">
<title>userver/decimal64/decimal64.hpp</title>
<!-- Node1 -->
<g id="Node000001" class="node">
<title>Node1</title>
<g id="a_Node000001"><a xlink:title="Decimal data type for fixed&#45;point arithmetic.">
<polygon fill="#999999" stroke="#666666" points="575,-602 393,-602 393,-583 575,-583 575,-602"/>
<text text-anchor="middle" x="484" y="-590" font-family="Helvetica,sans-Serif" font-size="10.00">userver/decimal64/decimal64.hpp</text>
</a>
</g>
</g>
<!-- Node2 -->
<g id="Node000002" class="node">
<title>Node2</title>
<g id="a_Node000002"><a xlink:href="../../d8/def/decimal__binder_8hpp_source.html" target="_top" xlink:title=" ">
<polygon fill="white" stroke="#666666" points="477,-547 325,-547 325,-517 477,-517 477,-547"/>
<text text-anchor="start" x="333" y="-535" font-family="Helvetica,sans-Serif" font-size="10.00">userver/storages/mysql</text>
<text text-anchor="middle" x="401" y="-524" font-family="Helvetica,sans-Serif" font-size="10.00">/impl/io/decimal_binder.hpp</text>
</a>
</g>
</g>
<!-- Node1&#45;&gt;Node2 -->
<g id="edge1_Node000001_Node000002" class="edge">
<title>Node1&#45;&gt;Node2</title>
<g id="a_edge1_Node000001_Node000002"><a xlink:title=" ">
<path fill="none" stroke="#63b8ff" d="M463.47,-577.03C450.52,-567.9 433.88,-556.17 421.03,-547.11"/>
<polygon fill="#63b8ff" stroke="#63b8ff" points="461.56,-579.97 471.75,-582.87 465.6,-574.25 461.56,-579.97"/>
</a>
</g>
</g>
<!-- Node14 -->
<g id="Node000014" class="node">
<title>Node14</title>
<g id="a_Node000014"><a xlink:href="../../df/dbe/postgresql_2include_2userver_2storages_2postgres_2io_2decimal64_8hpp.html" target="_top" xlink:title="decimal64::Decimal I/O support">
<polygon fill="white" stroke="#666666" points="640.5,-547 497.5,-547 497.5,-517 640.5,-517 640.5,-547"/>
<text text-anchor="start" x="505.5" y="-535" font-family="Helvetica,sans-Serif" font-size="10.00">userver/storages/postgres</text>
<text text-anchor="middle" x="569" y="-524" font-family="Helvetica,sans-Serif" font-size="10.00">/io/decimal64.hpp</text>
</a>
</g>
</g>
<!-- Node1&#45;&gt;Node14 -->
<g id="edge20_Node000001_Node000014" class="edge">
<title>Node1&#45;&gt;Node14</title>
<g id="a_edge20_Node000001_Node000014"><a xlink:title=" ">
<path fill="none" stroke="#63b8ff" d="M505.02,-577.03C518.29,-567.9 535.33,-556.17 548.49,-547.11"/>
<polygon fill="#63b8ff" stroke="#63b8ff" points="502.8,-574.32 496.54,-582.87 506.76,-580.08 502.8,-574.32"/>
</a>
</g>
</g>
<!-- Node3 -->
<g id="Node000003" class="node">
<title>Node3</title>
<g id="a_Node000003"><a xlink:href="../../d8/d1a/binder__declarations_8hpp_source.html" target="_top" xlink:title=" ">
<polygon fill="white" stroke="#666666" points="482.5,-481 309.5,-481 309.5,-451 482.5,-451 482.5,-481"/>
<text text-anchor="start" x="317.5" y="-469" font-family="Helvetica,sans-Serif" font-size="10.00">userver/storages/mysql</text>
<text text-anchor="middle" x="396" y="-458" font-family="Helvetica,sans-Serif" font-size="10.00">/impl/io/binder_declarations.hpp</text>
</a>
</g>
</g>
<!-- Node2&#45;&gt;Node3 -->
<g id="edge2_Node000002_Node000003" class="edge">
<title>Node2&#45;&gt;Node3</title>
<g id="a_edge2_Node000002_Node000003"><a xlink:title=" ">
<path fill="none" stroke="#63b8ff" d="M399.11,-506.83C398.44,-498.17 397.7,-488.7 397.11,-481.16"/>
<polygon fill="#63b8ff" stroke="#63b8ff" points="395.62,-507.1 399.89,-516.8 402.6,-506.55 395.62,-507.1"/>
</a>
</g>
</g>
<!-- Node4 -->
<g id="Node000004" class="node">
<title>Node4</title>
<g id="a_Node000004"><a xlink:href="../../d6/d2d/insert__binder_8hpp_source.html" target="_top" xlink:title=" ">
<polygon fill="white" stroke="#666666" points="140,-415 0,-415 0,-385 140,-385 140,-415"/>
<text text-anchor="start" x="8" y="-403" font-family="Helvetica,sans-Serif" font-size="10.00">userver/storages/mysql</text>
<text text-anchor="middle" x="70" y="-392" font-family="Helvetica,sans-Serif" font-size="10.00">/impl/io/insert_binder.hpp</text>
</a>
</g>
</g>
<!-- Node3&#45;&gt;Node4 -->
<g id="edge3_Node000003_Node000004" class="edge">
<title>Node3&#45;&gt;Node4</title>
<g id="a_edge3_Node000003_Node000004"><a xlink:title=" ">
<path fill="none" stroke="#63b8ff" d="M314.64,-449.03C261,-438.5 191.47,-424.85 140.25,-414.79"/>
<polygon fill="#63b8ff" stroke="#63b8ff" points="313.97,-452.46 324.46,-450.95 315.32,-445.59 313.97,-452.46"/>
</a>
</g>
</g>
<!-- Node9 -->
<g id="Node000009" class="node">
<title>Node9</title>
<g id="a_Node000009"><a xlink:href="../../da/d3c/params__binder_8hpp_source.html" target="_top" xlink:title=" ">
<polygon fill="white" stroke="#666666" points="307.5,-415 158.5,-415 158.5,-385 307.5,-385 307.5,-415"/>
<text text-anchor="start" x="166.5" y="-403" font-family="Helvetica,sans-Serif" font-size="10.00">userver/storages/mysql</text>
<text text-anchor="middle" x="233" y="-392" font-family="Helvetica,sans-Serif" font-size="10.00">/impl/io/params_binder.hpp</text>
</a>
</g>
</g>
<!-- Node3&#45;&gt;Node9 -->
<g id="edge9_Node000003_Node000009" class="edge">
<title>Node3&#45;&gt;Node9</title>
<g id="a_edge9_Node000003_Node000009"><a xlink:title=" ">
<path fill="none" stroke="#63b8ff" d="M350.64,-447.19C324.75,-437.02 292.77,-424.47 268.69,-415.01"/>
<polygon fill="#63b8ff" stroke="#63b8ff" points="349.64,-450.56 360.23,-450.95 352.2,-444.04 349.64,-450.56"/>
</a>
</g>
</g>
<!-- Node10 -->
<g id="Node000010" class="node">
<title>Node10</title>
<g id="a_Node000010"><a xlink:href="../../d3/d13/result__binder_8hpp_source.html" target="_top" xlink:title=" ">
<polygon fill="white" stroke="#666666" points="466,-415 326,-415 326,-385 466,-385 466,-415"/>
<text text-anchor="start" x="334" y="-403" font-family="Helvetica,sans-Serif" font-size="10.00">userver/storages/mysql</text>
<text text-anchor="middle" x="396" y="-392" font-family="Helvetica,sans-Serif" font-size="10.00">/impl/io/result_binder.hpp</text>
</a>
</g>
</g>
<!-- Node3&#45;&gt;Node10 -->
<g id="edge11_Node000003_Node000010" class="edge">
<title>Node3&#45;&gt;Node10</title>
<g id="a_edge11_Node000003_Node000010"><a xlink:title=" ">
<path fill="none" stroke="#63b8ff" d="M396,-440.54C396,-431.96 396,-422.61 396,-415.16"/>
<polygon fill="#63b8ff" stroke="#63b8ff" points="392.5,-440.8 396,-450.8 399.5,-440.8 392.5,-440.8"/>
</a>
</g>
</g>
<!-- Node5 -->
<g id="Node000005" class="node">
<title>Node5</title>
<g id="a_Node000005"><a xlink:href="../../d7/d43/bind__helper_8hpp_source.html" target="_top" xlink:title=" ">
<polygon fill="white" stroke="#666666" points="186.5,-217 55.5,-217 55.5,-187 186.5,-187 186.5,-217"/>
<text text-anchor="start" x="63.5" y="-205" font-family="Helvetica,sans-Serif" font-size="10.00">userver/storages/mysql</text>
<text text-anchor="middle" x="121" y="-194" font-family="Helvetica,sans-Serif" font-size="10.00">/impl/bind_helper.hpp</text>
</a>
</g>
</g>
<!-- Node4&#45;&gt;Node5 -->
<g id="edge4_Node000004_Node000005" class="edge">
<title>Node4&#45;&gt;Node5</title>
<g id="a_edge4_Node000004_Node000005"><a xlink:title=" ">
<path fill="none" stroke="#63b8ff" d="M76.2,-375.16C86.93,-333.93 108.63,-250.55 117.3,-217.23"/>
<polygon fill="#63b8ff" stroke="#63b8ff" points="72.8,-374.35 73.67,-384.9 79.57,-376.11 72.8,-374.35"/>
</a>
</g>
</g>
<!-- Node6 -->
<g id="Node000006" class="node">
<title>Node6</title>
<g id="a_Node000006"><a xlink:href="../../d0/d3d/mysql_2include_2userver_2storages_2mysql_2cluster_8hpp.html" target="_top" xlink:title="storages::mysql::Cluster">
<polygon fill="white" stroke="#666666" points="374.5,-85 243.5,-85 243.5,-55 374.5,-55 374.5,-85"/>
<text text-anchor="start" x="251.5" y="-73" font-family="Helvetica,sans-Serif" font-size="10.00">userver/storages/mysql</text>
<text text-anchor="middle" x="309" y="-62" font-family="Helvetica,sans-Serif" font-size="10.00">/cluster.hpp</text>
</a>
</g>
</g>
<!-- Node5&#45;&gt;Node6 -->
<g id="edge5_Node000005_Node000006" class="edge">
<title>Node5&#45;&gt;Node6</title>
<g id="a_edge5_Node000005_Node000006"><a xlink:title=" ">
<path fill="none" stroke="#63b8ff" d="M139.3,-178.81C154.48,-161.44 177.33,-137.52 201,-121 222.35,-106.1 248.84,-93.75 270.25,-85.06"/>
<polygon fill="#63b8ff" stroke="#63b8ff" points="136.34,-176.89 132.49,-186.76 141.66,-181.44 136.34,-176.89"/>
</a>
</g>
</g>
<!-- Node8 -->
<g id="Node000008" class="node">
<title>Node8</title>
<g id="a_Node000008"><a xlink:href="../../de/d48/mysql_2include_2userver_2storages_2mysql_2transaction_8hpp.html" target="_top" xlink:title=" ">
<polygon fill="white" stroke="#666666" points="374.5,-151 243.5,-151 243.5,-121 374.5,-121 374.5,-151"/>
<text text-anchor="start" x="251.5" y="-139" font-family="Helvetica,sans-Serif" font-size="10.00">userver/storages/mysql</text>
<text text-anchor="middle" x="309" y="-128" font-family="Helvetica,sans-Serif" font-size="10.00">/transaction.hpp</text>
</a>
</g>
</g>
<!-- Node5&#45;&gt;Node8 -->
<g id="edge7_Node000005_Node000008" class="edge">
<title>Node5&#45;&gt;Node8</title>
<g id="a_edge7_Node000005_Node000008"><a xlink:title=" ">
<path fill="none" stroke="#63b8ff" d="M171.75,-183.72C201.87,-173.47 239.58,-160.63 267.84,-151.01"/>
<polygon fill="#63b8ff" stroke="#63b8ff" points="170.6,-180.42 162.26,-186.95 172.85,-187.05 170.6,-180.42"/>
</a>
</g>
</g>
<!-- Node7 -->
<g id="Node000007" class="node">
<title>Node7</title>
<g id="a_Node000007"><a xlink:href="../../dd/db6/mysql_8hpp.html" target="_top" xlink:title=" ">
<polygon fill="white" stroke="#666666" points="451,-19 299,-19 299,0 451,0 451,-19"/>
<text text-anchor="middle" x="375" y="-7" font-family="Helvetica,sans-Serif" font-size="10.00">userver/storages/mysql.hpp</text>
</a>
</g>
</g>
<!-- Node6&#45;&gt;Node7 -->
<g id="edge6_Node000006_Node000007" class="edge">
<title>Node6&#45;&gt;Node7</title>
<g id="a_edge6_Node000006_Node000007"><a xlink:title=" ">
<path fill="none" stroke="#63b8ff" d="M332.74,-47.96C343.89,-38.07 356.57,-26.83 365.11,-19.27"/>
<polygon fill="#63b8ff" stroke="#63b8ff" points="330.14,-45.59 324.98,-54.84 334.78,-50.82 330.14,-45.59"/>
</a>
</g>
</g>
<!-- Node8&#45;&gt;Node6 -->
<g id="edge8_Node000008_Node000006" class="edge">
<title>Node8&#45;&gt;Node6</title>
<g id="a_edge8_Node000008_Node000006"><a xlink:title=" ">
<path fill="none" stroke="#63b8ff" d="M309,-110.54C309,-101.96 309,-92.61 309,-85.16"/>
<polygon fill="#63b8ff" stroke="#63b8ff" points="305.5,-110.8 309,-120.8 312.5,-110.8 305.5,-110.8"/>
</a>
</g>
</g>
<!-- Node9&#45;&gt;Node5 -->
<g id="edge10_Node000009_Node000005" class="edge">
<title>Node9&#45;&gt;Node5</title>
<g id="a_edge10_Node000009_Node000005"><a xlink:title=" ">
<path fill="none" stroke="#63b8ff" d="M219.97,-376.2C196.63,-335.35 148.34,-250.84 129.13,-217.23"/>
<polygon fill="#63b8ff" stroke="#63b8ff" points="216.94,-377.96 224.95,-384.9 223.02,-374.49 216.94,-377.96"/>
</a>
</g>
</g>
<!-- Node11 -->
<g id="Node000011" class="node">
<title>Node11</title>
<g id="a_Node000011"><a xlink:href="../../d3/d31/extractor_8hpp_source.html" target="_top" xlink:title=" ">
<polygon fill="white" stroke="#666666" points="374.5,-349 243.5,-349 243.5,-319 374.5,-319 374.5,-349"/>
<text text-anchor="start" x="251.5" y="-337" font-family="Helvetica,sans-Serif" font-size="10.00">userver/storages/mysql</text>
<text text-anchor="middle" x="309" y="-326" font-family="Helvetica,sans-Serif" font-size="10.00">/impl/io/extractor.hpp</text>
</a>
</g>
</g>
<!-- Node10&#45;&gt;Node11 -->
<g id="edge12_Node000010_Node000011" class="edge">
<title>Node10&#45;&gt;Node11</title>
<g id="a_edge12_Node000010_Node000011"><a xlink:title=" ">
<path fill="none" stroke="#63b8ff" d="M368.48,-378.75C355.39,-369.13 340.07,-357.86 328.25,-349.16"/>
<polygon fill="#63b8ff" stroke="#63b8ff" points="366.56,-381.69 376.69,-384.8 370.71,-376.05 366.56,-381.69"/>
</a>
</g>
</g>
<!-- Node12 -->
<g id="Node000012" class="node">
<title>Node12</title>
<g id="a_Node000012"><a xlink:href="../../dc/d5a/statement__result__set_8hpp.html" target="_top" xlink:title=" ">
<polygon fill="white" stroke="#666666" points="381,-283 237,-283 237,-253 381,-253 381,-283"/>
<text text-anchor="start" x="245" y="-271" font-family="Helvetica,sans-Serif" font-size="10.00">userver/storages/mysql</text>
<text text-anchor="middle" x="309" y="-260" font-family="Helvetica,sans-Serif" font-size="10.00">/statement_result_set.hpp</text>
</a>
</g>
</g>
<!-- Node11&#45;&gt;Node12 -->
<g id="edge13_Node000011_Node000012" class="edge">
<title>Node11&#45;&gt;Node12</title>
<g id="a_edge13_Node000011_Node000012"><a xlink:title=" ">
<path fill="none" stroke="#63b8ff" d="M309,-308.54C309,-299.96 309,-290.61 309,-283.16"/>
<polygon fill="#63b8ff" stroke="#63b8ff" points="305.5,-308.8 309,-318.8 312.5,-308.8 305.5,-308.8"/>
</a>
</g>
</g>
<!-- Node12&#45;&gt;Node6 -->
<g id="edge14_Node000012_Node000006" class="edge">
<title>Node12&#45;&gt;Node6</title>
<g id="a_edge14_Node000012_Node000006"><a xlink:title=" ">
<path fill="none" stroke="#63b8ff" d="M289.1,-244.93C270.73,-222.94 244.71,-187.3 234,-151 230.23,-138.21 227.71,-132.76 234,-121 242.57,-105 258.77,-93.23 273.93,-85.15"/>
<polygon fill="#63b8ff" stroke="#63b8ff" points="286.56,-247.34 295.72,-252.66 291.88,-242.79 286.56,-247.34"/>
</a>
</g>
</g>
<!-- Node12&#45;&gt;Node8 -->
<g id="edge19_Node000012_Node000008" class="edge">
<title>Node12&#45;&gt;Node8</title>
<g id="a_edge19_Node000012_Node000008"><a xlink:title=" ">
<path fill="none" stroke="#63b8ff" d="M309,-242.68C309,-215.7 309,-173.11 309,-151.14"/>
<polygon fill="#63b8ff" stroke="#63b8ff" points="305.5,-242.84 309,-252.84 312.5,-242.84 305.5,-242.84"/>
</a>
</g>
</g>
<!-- Node13 -->
<g id="Node000013" class="node">
<title>Node13</title>
<g id="a_Node000013"><a xlink:href="../../d6/dc8/cursor__result__set_8hpp.html" target="_top" xlink:title=" ">
<polygon fill="white" stroke="#666666" points="468.5,-217 337.5,-217 337.5,-187 468.5,-187 468.5,-217"/>
<text text-anchor="start" x="345.5" y="-205" font-family="Helvetica,sans-Serif" font-size="10.00">userver/storages/mysql</text>
<text text-anchor="middle" x="403" y="-194" font-family="Helvetica,sans-Serif" font-size="10.00">/cursor_result_set.hpp</text>
</a>
</g>
</g>
<!-- Node12&#45;&gt;Node13 -->
<g id="edge15_Node000012_Node000013" class="edge">
<title>Node12&#45;&gt;Node13</title>
<g id="a_edge15_Node000012_Node000013"><a xlink:title=" ">
<path fill="none" stroke="#63b8ff" d="M338.33,-247.03C352.56,-237.34 369.31,-225.94 382.2,-217.16"/>
<polygon fill="#63b8ff" stroke="#63b8ff" points="336.16,-244.28 329.86,-252.8 340.1,-250.06 336.16,-244.28"/>
</a>
</g>
</g>
<!-- Node13&#45;&gt;Node6 -->
<g id="edge17_Node000013_Node000006" class="edge">
<title>Node13&#45;&gt;Node6</title>
<g id="a_edge17_Node000013_Node000006"><a xlink:title=" ">
<path fill="none" stroke="#63b8ff" d="M401.46,-176.52C399.36,-159.63 394.45,-137.35 383,-121 372.15,-105.5 354.84,-93.42 339.68,-85.02"/>
<polygon fill="#63b8ff" stroke="#63b8ff" points="398,-177.13 402.47,-186.73 404.97,-176.43 398,-177.13"/>
</a>
</g>
</g>
<!-- Node13&#45;&gt;Node7 -->
<g id="edge16_Node000013_Node000007" class="edge">
<title>Node13&#45;&gt;Node7</title>
<g id="a_edge16_Node000013_Node000007"><a xlink:title=" ">
<path fill="none" stroke="#63b8ff" d="M403.58,-176.93C403.75,-168.7 403.92,-159.45 404,-151 404.13,-137.67 405.71,-134.22 404,-121 399,-82.25 384.52,-37.7 378.11,-19.23"/>
<polygon fill="#63b8ff" stroke="#63b8ff" points="400.08,-176.92 403.36,-186.99 407.08,-177.07 400.08,-176.92"/>
</a>
</g>
</g>
<!-- Node13&#45;&gt;Node8 -->
<g id="edge18_Node000013_Node000008" class="edge">
<title>Node13&#45;&gt;Node8</title>
<g id="a_edge18_Node000013_Node000008"><a xlink:title=" ">
<path fill="none" stroke="#63b8ff" d="M373.67,-181.03C359.44,-171.34 342.69,-159.94 329.8,-151.16"/>
<polygon fill="#63b8ff" stroke="#63b8ff" points="371.9,-184.06 382.14,-186.8 375.84,-178.28 371.9,-184.06"/>
</a>
</g>
</g>
<!-- Node15 -->
<g id="Node000015" class="node">
<title>Node15</title>
<g id="a_Node000015"><a xlink:href="../../de/d7f/supported__types_8hpp_source.html" target="_top" xlink:title=" ">
<polygon fill="white" stroke="#666666" points="692.5,-481 549.5,-481 549.5,-451 692.5,-451 692.5,-481"/>
<text text-anchor="start" x="557.5" y="-469" font-family="Helvetica,sans-Serif" font-size="10.00">userver/storages/postgres</text>
<text text-anchor="middle" x="621" y="-458" font-family="Helvetica,sans-Serif" font-size="10.00">/io/supported_types.hpp</text>
</a>
</g>
</g>
<!-- Node14&#45;&gt;Node15 -->
<g id="edge21_Node000014_Node000015" class="edge">
<title>Node14&#45;&gt;Node15</title>
<g id="a_edge21_Node000014_Node000015"><a xlink:title=" ">
<path fill="none" stroke="#63b8ff" d="M587.03,-508.81C594.48,-499.64 602.9,-489.28 609.49,-481.16"/>
<polygon fill="#63b8ff" stroke="#63b8ff" points="584.13,-506.83 580.54,-516.8 589.56,-511.24 584.13,-506.83"/>
</a>
</g>
</g>
<!-- Node16 -->
<g id="Node000016" class="node">
<title>Node16</title>
<g id="a_Node000016"><a xlink:href="../../d2/d3f/query__parameters_8hpp_source.html" target="_top" xlink:title=" ">
<polygon fill="white" stroke="#666666" points="939.5,-415 778.5,-415 778.5,-385 939.5,-385 939.5,-415"/>
<text text-anchor="start" x="786.5" y="-403" font-family="Helvetica,sans-Serif" font-size="10.00">userver/storages/postgres</text>
<text text-anchor="middle" x="859" y="-392" font-family="Helvetica,sans-Serif" font-size="10.00">/detail/query_parameters.hpp</text>
</a>
</g>
</g>
<!-- Node15&#45;&gt;Node16 -->
<g id="edge22_Node000015_Node000016" class="edge">
<title>Node15&#45;&gt;Node16</title>
<g id="a_edge22_Node000015_Node000016"><a xlink:title=" ">
<path fill="none" stroke="#63b8ff" d="M683.28,-448.25C721.73,-437.91 770.49,-424.8 806.89,-415.01"/>
<polygon fill="#63b8ff" stroke="#63b8ff" points="681.98,-444.98 673.23,-450.95 683.8,-451.74 681.98,-444.98"/>
</a>
</g>
</g>
<!-- Node24 -->
<g id="Node000024" class="node">
<title>Node24</title>
<g id="a_Node000024"><a xlink:href="../../de/d1d/result__set_8hpp.html" target="_top" xlink:title="Result accessors.">
<polygon fill="white" stroke="#666666" points="692.5,-415 549.5,-415 549.5,-385 692.5,-385 692.5,-415"/>
<text text-anchor="start" x="557.5" y="-403" font-family="Helvetica,sans-Serif" font-size="10.00">userver/storages/postgres</text>
<text text-anchor="middle" x="621" y="-392" font-family="Helvetica,sans-Serif" font-size="10.00">/result_set.hpp</text>
</a>
</g>
</g>
<!-- Node15&#45;&gt;Node24 -->
<g id="edge35_Node000015_Node000024" class="edge">
<title>Node15&#45;&gt;Node24</title>
<g id="a_edge35_Node000015_Node000024"><a xlink:title=" ">
<path fill="none" stroke="#63b8ff" d="M621,-440.54C621,-431.96 621,-422.61 621,-415.16"/>
<polygon fill="#63b8ff" stroke="#63b8ff" points="617.5,-440.8 621,-450.8 624.5,-440.8 617.5,-440.8"/>
</a>
</g>
</g>
<!-- Node17 -->
<g id="Node000017" class="node">
<title>Node17</title>
<g id="a_Node000017"><a xlink:href="../../d4/dd3/non__transaction_8hpp_source.html" target="_top" xlink:title=" ">
<polygon fill="white" stroke="#666666" points="1052.5,-283 903.5,-283 903.5,-253 1052.5,-253 1052.5,-283"/>
<text text-anchor="start" x="911.5" y="-271" font-family="Helvetica,sans-Serif" font-size="10.00">userver/storages/postgres</text>
<text text-anchor="middle" x="978" y="-260" font-family="Helvetica,sans-Serif" font-size="10.00">/detail/non_transaction.hpp</text>
</a>
</g>
</g>
<!-- Node16&#45;&gt;Node17 -->
<g id="edge23_Node000016_Node000017" class="edge">
<title>Node16&#45;&gt;Node17</title>
<g id="a_edge23_Node000016_Node000017"><a xlink:title=" ">
<path fill="none" stroke="#63b8ff" d="M949.86,-389.65C1002.58,-382.15 1061.72,-369.41 1078,-349 1099.9,-321.53 1056.68,-297.5 1020.37,-283.12"/>
<polygon fill="#63b8ff" stroke="#63b8ff" points="949.19,-386.21 939.76,-391.04 950.14,-393.15 949.19,-386.21"/>
</a>
</g>
</g>
<!-- Node21 -->
<g id="Node000021" class="node">
<title>Node21</title>
<g id="a_Node000021"><a xlink:href="../../db/d6e/parameter__store_8hpp.html" target="_top" xlink:title="Class for dynamic PostgreSQL parameter list construction.">
<polygon fill="white" stroke="#666666" points="1068.5,-349 925.5,-349 925.5,-319 1068.5,-319 1068.5,-349"/>
<text text-anchor="start" x="933.5" y="-337" font-family="Helvetica,sans-Serif" font-size="10.00">userver/storages/postgres</text>
<text text-anchor="middle" x="997" y="-326" font-family="Helvetica,sans-Serif" font-size="10.00">/parameter_store.hpp</text>
</a>
</g>
</g>
<!-- Node16&#45;&gt;Node21 -->
<g id="edge27_Node000016_Node000021" class="edge">
<title>Node16&#45;&gt;Node21</title>
<g id="a_edge27_Node000016_Node000021"><a xlink:title=" ">
<path fill="none" stroke="#63b8ff" d="M898.57,-380.65C920.27,-370.58 946.76,-358.3 966.79,-349.01"/>
<polygon fill="#63b8ff" stroke="#63b8ff" points="896.88,-377.57 889.28,-384.95 899.83,-383.92 896.88,-377.57"/>
</a>
</g>
</g>
<!-- Node22 -->
<g id="Node000022" class="node">
<title>Node22</title>
<g id="a_Node000022"><a xlink:href="../../da/deb/postgresql_2include_2userver_2storages_2postgres_2transaction_8hpp.html" target="_top" xlink:title="Transactions.">
<polygon fill="white" stroke="#666666" points="848.5,-283 705.5,-283 705.5,-253 848.5,-253 848.5,-283"/>
<text text-anchor="start" x="713.5" y="-271" font-family="Helvetica,sans-Serif" font-size="10.00">userver/storages/postgres</text>
<text text-anchor="middle" x="777" y="-260" font-family="Helvetica,sans-Serif" font-size="10.00">/transaction.hpp</text>
</a>
</g>
</g>
<!-- Node16&#45;&gt;Node22 -->
<g id="edge34_Node000016_Node000022" class="edge">
<title>Node16&#45;&gt;Node22</title>
<g id="a_edge34_Node000016_Node000022"><a xlink:title=" ">
<path fill="none" stroke="#63b8ff" d="M857.42,-374.8C855.37,-358.03 850.68,-335.8 840,-319 830.56,-304.15 815.15,-291.81 801.93,-283.1"/>
<polygon fill="#63b8ff" stroke="#63b8ff" points="853.95,-375.31 858.42,-384.91 860.91,-374.62 853.95,-375.31"/>
</a>
</g>
</g>
<!-- Node23 -->
<g id="Node000023" class="node">
<title>Node23</title>
<g id="a_Node000023"><a xlink:href="../../d2/de3/portal_8hpp_source.html" target="_top" xlink:title=" ">
<polygon fill="white" stroke="#666666" points="830.5,-349 687.5,-349 687.5,-319 830.5,-319 830.5,-349"/>
<text text-anchor="start" x="695.5" y="-337" font-family="Helvetica,sans-Serif" font-size="10.00">userver/storages/postgres</text>
<text text-anchor="middle" x="759" y="-326" font-family="Helvetica,sans-Serif" font-size="10.00">/portal.hpp</text>
</a>
</g>
</g>
<!-- Node16&#45;&gt;Node23 -->
<g id="edge32_Node000016_Node000023" class="edge">
<title>Node16&#45;&gt;Node23</title>
<g id="a_edge32_Node000016_Node000023"><a xlink:title=" ">
<path fill="none" stroke="#63b8ff" d="M828.22,-379.3C813,-369.56 794.97,-358.02 781.13,-349.16"/>
<polygon fill="#63b8ff" stroke="#63b8ff" points="826.5,-382.35 836.81,-384.8 830.27,-376.46 826.5,-382.35"/>
</a>
</g>
</g>
<!-- Node18 -->
<g id="Node000018" class="node">
<title>Node18</title>
<g id="a_Node000018"><a xlink:href="../../de/dd3/postgresql_2include_2userver_2storages_2postgres_2cluster_8hpp.html" target="_top" xlink:title="Interface for executing queries on a cluster of PostgreSQL servers.">
<polygon fill="white" stroke="#666666" points="898.5,-217 755.5,-217 755.5,-187 898.5,-187 898.5,-217"/>
<text text-anchor="start" x="763.5" y="-205" font-family="Helvetica,sans-Serif" font-size="10.00">userver/storages/postgres</text>
<text text-anchor="middle" x="827" y="-194" font-family="Helvetica,sans-Serif" font-size="10.00">/cluster.hpp</text>
</a>
</g>
</g>
<!-- Node17&#45;&gt;Node18 -->
<g id="edge24_Node000017_Node000018" class="edge">
<title>Node17&#45;&gt;Node18</title>
<g id="a_edge24_Node000017_Node000018"><a xlink:title=" ">
<path fill="none" stroke="#63b8ff" d="M935.34,-248.92C911.47,-238.8 882.17,-226.38 860.06,-217.01"/>
<polygon fill="#63b8ff" stroke="#63b8ff" points="934.29,-252.28 944.86,-252.95 937.02,-245.83 934.29,-252.28"/>
</a>
</g>
</g>
<!-- Node19 -->
<g id="Node000019" class="node">
<title>Node19</title>
<g id="a_Node000019"><a xlink:href="../../dc/df7/base__postgres__cache_8hpp.html" target="_top" xlink:title="Caching component for PostgreSQL. See Caching Component for PostgreSQL.">
<polygon fill="white" stroke="#666666" points="916.5,-151 797.5,-151 797.5,-121 916.5,-121 916.5,-151"/>
<text text-anchor="start" x="805.5" y="-139" font-family="Helvetica,sans-Serif" font-size="10.00">userver/cache/base</text>
<text text-anchor="middle" x="857" y="-128" font-family="Helvetica,sans-Serif" font-size="10.00">_postgres_cache.hpp</text>
</a>
</g>
</g>
<!-- Node18&#45;&gt;Node19 -->
<g id="edge25_Node000018_Node000019" class="edge">
<title>Node18&#45;&gt;Node19</title>
<g id="a_edge25_Node000018_Node000019"><a xlink:title=" ">
<path fill="none" stroke="#63b8ff" d="M837.93,-177.68C842.1,-168.79 846.71,-158.95 850.36,-151.16"/>
<polygon fill="#63b8ff" stroke="#63b8ff" points="834.73,-176.26 833.66,-186.8 841.07,-179.23 834.73,-176.26"/>
</a>
</g>
</g>
<!-- Node20 -->
<g id="Node000020" class="node">
<title>Node20</title>
<g id="a_Node000020"><a xlink:href="../../df/d02/postgres_8hpp.html" target="_top" xlink:title=" ">
<polygon fill="white" stroke="#666666" points="779.5,-151 636.5,-151 636.5,-121 779.5,-121 779.5,-151"/>
<text text-anchor="start" x="644.5" y="-139" font-family="Helvetica,sans-Serif" font-size="10.00">userver/storages/postgres</text>
<text text-anchor="middle" x="708" y="-128" font-family="Helvetica,sans-Serif" font-size="10.00">/postgres.hpp</text>
</a>
</g>
</g>
<!-- Node18&#45;&gt;Node20 -->
<g id="edge26_Node000018_Node000020" class="edge">
<title>Node18&#45;&gt;Node20</title>
<g id="a_edge26_Node000018_Node000020"><a xlink:title=" ">
<path fill="none" stroke="#63b8ff" d="M791.87,-182.11C773.35,-172.14 751.01,-160.13 734.05,-151.01"/>
<polygon fill="#63b8ff" stroke="#63b8ff" points="790.42,-185.3 800.88,-186.95 793.74,-179.14 790.42,-185.3"/>
</a>
</g>
</g>
<!-- Node21&#45;&gt;Node17 -->
<g id="edge28_Node000021_Node000017" class="edge">
<title>Node21&#45;&gt;Node17</title>
<g id="a_edge28_Node000021_Node000017"><a xlink:title=" ">
<path fill="none" stroke="#63b8ff" d="M989.91,-309.11C987.31,-300.38 984.47,-290.78 982.2,-283.16"/>
<polygon fill="#63b8ff" stroke="#63b8ff" points="986.58,-310.21 992.78,-318.8 993.29,-308.21 986.58,-310.21"/>
</a>
</g>
</g>
<!-- Node21&#45;&gt;Node22 -->
<g id="edge29_Node000021_Node000022" class="edge">
<title>Node21&#45;&gt;Node22</title>
<g id="a_edge29_Node000021_Node000022"><a xlink:title=" ">
<path fill="none" stroke="#63b8ff" d="M938.98,-316.12C903.51,-305.8 858.67,-292.76 825.17,-283.01"/>
<polygon fill="#63b8ff" stroke="#63b8ff" points="938.14,-319.52 948.72,-318.95 940.1,-312.8 938.14,-319.52"/>
</a>
</g>
</g>
<!-- Node22&#45;&gt;Node18 -->
<g id="edge30_Node000022_Node000018" class="edge">
<title>Node22&#45;&gt;Node18</title>
<g id="a_edge30_Node000022_Node000018"><a xlink:title=" ">
<path fill="none" stroke="#63b8ff" d="M794.34,-244.81C801.5,-235.64 809.6,-225.28 815.93,-217.16"/>
<polygon fill="#63b8ff" stroke="#63b8ff" points="791.5,-242.76 788.1,-252.8 797.01,-247.07 791.5,-242.76"/>
</a>
</g>
</g>
<!-- Node22&#45;&gt;Node20 -->
<g id="edge31_Node000022_Node000020" class="edge">
<title>Node22&#45;&gt;Node20</title>
<g id="a_edge31_Node000022_Node000020"><a xlink:title=" ">
<path fill="none" stroke="#63b8ff" d="M762.74,-244.18C757.61,-235.73 751.89,-226.02 747,-217 734.7,-194.32 721.85,-167.18 714.4,-151.06"/>
<polygon fill="#63b8ff" stroke="#63b8ff" points="759.79,-246.06 768,-252.75 765.75,-242.4 759.79,-246.06"/>
</a>
</g>
</g>
<!-- Node23&#45;&gt;Node22 -->
<g id="edge33_Node000023_Node000022" class="edge">
<title>Node23&#45;&gt;Node22</title>
<g id="a_edge33_Node000023_Node000022"><a xlink:title=" ">
<path fill="none" stroke="#63b8ff" d="M765.72,-309.11C768.18,-300.38 770.87,-290.78 773.02,-283.16"/>
<polygon fill="#63b8ff" stroke="#63b8ff" points="762.33,-308.22 762.99,-318.8 769.07,-310.12 762.33,-308.22"/>
</a>
</g>
</g>
<!-- Node24&#45;&gt;Node17 -->
<g id="edge36_Node000024_Node000017" class="edge">
<title>Node24&#45;&gt;Node17</title>
<g id="a_edge36_Node000024_Node000017"><a xlink:title=" ">
<path fill="none" stroke="#63b8ff" d="M702.55,-386.42C744.53,-378.45 795.99,-366.32 840,-349 884.58,-331.46 931.93,-301.09 957.95,-283.24"/>
<polygon fill="#63b8ff" stroke="#63b8ff" points="701.84,-382.99 692.65,-388.26 703.12,-389.88 701.84,-382.99"/>
</a>
</g>
</g>
<!-- Node24&#45;&gt;Node20 -->
<g id="edge41_Node000024_Node000020" class="edge">
<title>Node24&#45;&gt;Node20</title>
<g id="a_edge41_Node000024_Node000020"><a xlink:title=" ">
<path fill="none" stroke="#63b8ff" d="M628.66,-375.24C633.81,-359.31 640.77,-337.88 647,-319 667.68,-256.34 692.86,-181.73 703.21,-151.14"/>
<polygon fill="#63b8ff" stroke="#63b8ff" points="625.31,-374.23 625.56,-384.83 631.97,-376.38 625.31,-374.23"/>
</a>
</g>
</g>
<!-- Node24&#45;&gt;Node22 -->
<g id="edge42_Node000024_Node000022" class="edge">
<title>Node24&#45;&gt;Node22</title>
<g id="a_edge42_Node000024_Node000022"><a xlink:title=" ">
<path fill="none" stroke="#63b8ff" d="M633.75,-375.78C644.16,-358.45 660.19,-335.09 679,-319 696.85,-303.73 720.17,-291.59 739.59,-283.1"/>
<polygon fill="#63b8ff" stroke="#63b8ff" points="630.56,-374.3 628.56,-384.7 636.62,-377.82 630.56,-374.3"/>
</a>
</g>
</g>
<!-- Node24&#45;&gt;Node23 -->
<g id="edge40_Node000024_Node000023" class="edge">
<title>Node24&#45;&gt;Node23</title>
<g id="a_edge40_Node000024_Node000023"><a xlink:title=" ">
<path fill="none" stroke="#63b8ff" d="M660.57,-380.65C682.27,-370.58 708.76,-358.3 728.79,-349.01"/>
<polygon fill="#63b8ff" stroke="#63b8ff" points="658.88,-377.57 651.28,-384.95 661.83,-383.92 658.88,-377.57"/>
</a>
</g>
</g>
<!-- Node25 -->
<g id="Node000025" class="node">
<title>Node25</title>
<g id="a_Node000025"><a xlink:href="../../d7/d52/typed__rows_8hpp_source.html" target="_top" xlink:title=" ">
<polygon fill="white" stroke="#666666" points="592.5,-349 449.5,-349 449.5,-319 592.5,-319 592.5,-349"/>
<text text-anchor="start" x="457.5" y="-337" font-family="Helvetica,sans-Serif" font-size="10.00">userver/storages/postgres</text>
<text text-anchor="middle" x="521" y="-326" font-family="Helvetica,sans-Serif" font-size="10.00">/detail/typed_rows.hpp</text>
</a>
</g>
</g>
<!-- Node24&#45;&gt;Node25 -->
<g id="edge37_Node000024_Node000025" class="edge">
<title>Node24&#45;&gt;Node25</title>
<g id="a_edge37_Node000024_Node000025"><a xlink:title=" ">
<path fill="none" stroke="#63b8ff" d="M590.22,-379.3C575,-369.56 556.97,-358.02 543.13,-349.16"/>
<polygon fill="#63b8ff" stroke="#63b8ff" points="588.5,-382.35 598.81,-384.8 592.27,-376.46 588.5,-382.35"/>
</a>
</g>
</g>
<!-- Node26 -->
<g id="Node000026" class="node">
<title>Node26</title>
<g id="a_Node000026"><a xlink:href="../../d1/dee/typed__result__set_8hpp.html" target="_top" xlink:title="Typed PostgreSQL results.">
<polygon fill="white" stroke="#666666" points="542.5,-283 399.5,-283 399.5,-253 542.5,-253 542.5,-283"/>
<text text-anchor="start" x="407.5" y="-271" font-family="Helvetica,sans-Serif" font-size="10.00">userver/storages/postgres</text>
<text text-anchor="middle" x="471" y="-260" font-family="Helvetica,sans-Serif" font-size="10.00">/typed_result_set.hpp</text>
</a>
</g>
</g>
<!-- Node24&#45;&gt;Node26 -->
<g id="edge43_Node000024_Node000026" class="edge">
<title>Node24&#45;&gt;Node26</title>
<g id="a_edge43_Node000024_Node000026"><a xlink:title=" ">
<path fill="none" stroke="#63b8ff" d="M539.26,-387.8C494,-379.47 444.34,-366.52 431,-349 415.66,-328.85 434.37,-300.18 451.3,-283.2"/>
<polygon fill="#63b8ff" stroke="#63b8ff" points="538.67,-391.25 549.13,-389.56 539.9,-384.36 538.67,-391.25"/>
</a>
</g>
</g>
<!-- Node25&#45;&gt;Node26 -->
<g id="edge38_Node000025_Node000026" class="edge">
<title>Node25&#45;&gt;Node26</title>
<g id="a_edge38_Node000025_Node000026"><a xlink:title=" ">
<path fill="none" stroke="#63b8ff" d="M503.66,-310.81C496.5,-301.64 488.4,-291.28 482.07,-283.16"/>
<polygon fill="#63b8ff" stroke="#63b8ff" points="500.99,-313.07 509.9,-318.8 506.5,-308.76 500.99,-313.07"/>
</a>
</g>
</g>
<!-- Node26&#45;&gt;Node24 -->
<g id="edge39_Node000026_Node000024" class="edge">
<title>Node26&#45;&gt;Node24</title>
<g id="a_edge39_Node000026_Node000024"><a xlink:title=" ">
<path fill="none" stroke="#63b8ff" d="M458.2,-291.94C447.35,-308.93 436.06,-332 449,-349 461.79,-365.8 507.95,-378.39 549.29,-386.74"/>
<polygon fill="#63b8ff" stroke="#63b8ff" points="461.39,-293.46 464.03,-283.2 455.57,-289.58 461.39,-293.46"/>
</a>
</g>
</g>
</g>
</svg>
