<?xml version="1.0" encoding="UTF-8" standalone="no"?>
<!DOCTYPE svg PUBLIC "-//W3C//DTD SVG 1.1//EN"
 "http://www.w3.org/Graphics/SVG/1.1/DTD/svg11.dtd">
<!-- Generated by graphviz version 2.43.0 (0)
 -->
<!-- Title: userver/storages/postgres/io/user_types.hpp Pages: 1 -->
<svg width="1000pt" height="566pt"
 viewBox="0.00 0.00 1000.41 566.00" xmlns="http://www.w3.org/2000/svg" xmlns:xlink="http://www.w3.org/1999/xlink">
<g id="graph0" class="graph" transform="scale(1 1) rotate(0) translate(4 562)">
<title>userver/storages/postgres/io/user_types.hpp</title>
<!-- Node1 -->
<g id="Node000001" class="node">
<title>Node1</title>
<g id="a_Node000001"><a xlink:title="User types I/O support.">
<polygon fill="#999999" stroke="#666666" points="470.41,-558 327.41,-558 327.41,-528 470.41,-528 470.41,-558"/>
<text text-anchor="start" x="335.41" y="-546" font-family="Helvetica,sans-Serif" font-size="10.00">userver/storages/postgres</text>
<text text-anchor="middle" x="398.91" y="-535" font-family="Helvetica,sans-Serif" font-size="10.00">/io/user_types.hpp</text>
</a>
</g>
</g>
<!-- Node2 -->
<g id="Node000002" class="node">
<title>Node2</title>
<g id="a_Node000002"><a xlink:href="../../d4/d90/array__types_8hpp.html" target="_top" xlink:title="I/O support for arrays (std::array, std::set, std::unordered_set, std::vector)">
<polygon fill="white" stroke="#666666" points="171.41,-426 28.41,-426 28.41,-396 171.41,-396 171.41,-426"/>
<text text-anchor="start" x="36.41" y="-414" font-family="Helvetica,sans-Serif" font-size="10.00">userver/storages/postgres</text>
<text text-anchor="middle" x="99.91" y="-403" font-family="Helvetica,sans-Serif" font-size="10.00">/io/array_types.hpp</text>
</a>
</g>
</g>
<!-- Node1&#45;&gt;Node2 -->
<g id="edge1_Node000001_Node000002" class="edge">
<title>Node1&#45;&gt;Node2</title>
<g id="a_edge1_Node000001_Node000002"><a xlink:title=" ">
<path fill="none" stroke="#63b8ff" d="M356.03,-524.02C333.61,-514.57 305.74,-502.75 280.91,-492 228.25,-469.21 167.27,-442.11 131.23,-426.02"/>
<polygon fill="#63b8ff" stroke="#63b8ff" points="354.71,-527.26 365.28,-527.91 357.42,-520.81 354.71,-527.26"/>
</a>
</g>
</g>
<!-- Node3 -->
<g id="Node000003" class="node">
<title>Node3</title>
<g id="a_Node000003"><a xlink:href="../../de/d7f/supported__types_8hpp_source.html" target="_top" xlink:title=" ">
<polygon fill="white" stroke="#666666" points="493.41,-360 350.41,-360 350.41,-330 493.41,-330 493.41,-360"/>
<text text-anchor="start" x="358.41" y="-348" font-family="Helvetica,sans-Serif" font-size="10.00">userver/storages/postgres</text>
<text text-anchor="middle" x="421.91" y="-337" font-family="Helvetica,sans-Serif" font-size="10.00">/io/supported_types.hpp</text>
</a>
</g>
</g>
<!-- Node1&#45;&gt;Node3 -->
<g id="edge34_Node000001_Node000003" class="edge">
<title>Node1&#45;&gt;Node3</title>
<g id="a_edge34_Node000001_Node000003"><a xlink:title=" ">
<path fill="none" stroke="#63b8ff" d="M317.37,-537.88C181.08,-528.14 -69.77,-496.37 18.91,-396 40.44,-371.63 240.26,-356.42 350.2,-349.82"/>
<polygon fill="#63b8ff" stroke="#63b8ff" points="317.16,-541.37 327.38,-538.57 317.64,-534.39 317.16,-541.37"/>
</a>
</g>
</g>
<!-- Node9 -->
<g id="Node000009" class="node">
<title>Node9</title>
<g id="a_Node000009"><a xlink:href="../../db/d6e/parameter__store_8hpp.html" target="_top" xlink:title="Class for dynamic PostgreSQL parameter list construction.">
<polygon fill="white" stroke="#666666" points="754.41,-228 611.41,-228 611.41,-198 754.41,-198 754.41,-228"/>
<text text-anchor="start" x="619.41" y="-216" font-family="Helvetica,sans-Serif" font-size="10.00">userver/storages/postgres</text>
<text text-anchor="middle" x="682.91" y="-205" font-family="Helvetica,sans-Serif" font-size="10.00">/parameter_store.hpp</text>
</a>
</g>
</g>
<!-- Node1&#45;&gt;Node9 -->
<g id="edge39_Node000001_Node000009" class="edge">
<title>Node1&#45;&gt;Node9</title>
<g id="a_edge39_Node000001_Node000009"><a xlink:title=" ">
<path fill="none" stroke="#63b8ff" d="M480.84,-537.56C592.49,-530.65 781.03,-515.63 801.91,-492 875.78,-408.4 745.02,-272.04 698.45,-228.11"/>
<polygon fill="#63b8ff" stroke="#63b8ff" points="480.39,-534.08 470.62,-538.18 480.81,-541.07 480.39,-534.08"/>
</a>
</g>
</g>
<!-- Node15 -->
<g id="Node000015" class="node">
<title>Node15</title>
<g id="a_Node000015"><a xlink:href="../../d4/dda/composite__types_8hpp.html" target="_top" xlink:title="Composite types I/O support.">
<polygon fill="white" stroke="#666666" points="332.41,-426 189.41,-426 189.41,-396 332.41,-396 332.41,-426"/>
<text text-anchor="start" x="197.41" y="-414" font-family="Helvetica,sans-Serif" font-size="10.00">userver/storages/postgres</text>
<text text-anchor="middle" x="260.91" y="-403" font-family="Helvetica,sans-Serif" font-size="10.00">/io/composite_types.hpp</text>
</a>
</g>
</g>
<!-- Node1&#45;&gt;Node15 -->
<g id="edge25_Node000001_Node000015" class="edge">
<title>Node1&#45;&gt;Node15</title>
<g id="a_edge25_Node000001_Node000015"><a xlink:title=" ">
<path fill="none" stroke="#63b8ff" d="M354.99,-523.44C339.24,-515.36 322.12,-504.78 308.91,-492 289,-472.74 274.27,-443.52 266.69,-426.23"/>
<polygon fill="#63b8ff" stroke="#63b8ff" points="353.55,-526.64 364.07,-527.91 356.64,-520.36 353.55,-526.64"/>
</a>
</g>
</g>
<!-- Node16 -->
<g id="Node000016" class="node">
<title>Node16</title>
<g id="a_Node000016"><a xlink:href="../../d5/d23/enum__types_8hpp.html" target="_top" xlink:title="Enum I/O support.">
<polygon fill="white" stroke="#666666" points="493.41,-426 350.41,-426 350.41,-396 493.41,-396 493.41,-426"/>
<text text-anchor="start" x="358.41" y="-414" font-family="Helvetica,sans-Serif" font-size="10.00">userver/storages/postgres</text>
<text text-anchor="middle" x="421.91" y="-403" font-family="Helvetica,sans-Serif" font-size="10.00">/io/enum_types.hpp</text>
</a>
</g>
</g>
<!-- Node1&#45;&gt;Node16 -->
<g id="edge27_Node000001_Node000016" class="edge">
<title>Node1&#45;&gt;Node16</title>
<g id="a_edge27_Node000001_Node000016"><a xlink:title=" ">
<path fill="none" stroke="#63b8ff" d="M351.73,-523.11C338.77,-515.48 326.26,-505.27 318.91,-492 312.44,-480.34 311.83,-473.3 318.91,-462 329.56,-444.98 347.84,-433.61 366.07,-426.08"/>
<polygon fill="#63b8ff" stroke="#63b8ff" points="350.27,-526.3 360.73,-527.99 353.6,-520.15 350.27,-526.3"/>
</a>
</g>
</g>
<!-- Node17 -->
<g id="Node000017" class="node">
<title>Node17</title>
<g id="a_Node000017"><a xlink:href="../../da/d26/geometry__types_8hpp.html" target="_top" xlink:title="Geometry I/O support.">
<polygon fill="white" stroke="#666666" points="992.41,-492 849.41,-492 849.41,-462 992.41,-462 992.41,-492"/>
<text text-anchor="start" x="857.41" y="-480" font-family="Helvetica,sans-Serif" font-size="10.00">userver/storages/postgres</text>
<text text-anchor="middle" x="920.91" y="-469" font-family="Helvetica,sans-Serif" font-size="10.00">/io/geometry_types.hpp</text>
</a>
</g>
</g>
<!-- Node1&#45;&gt;Node17 -->
<g id="edge29_Node000001_Node000017" class="edge">
<title>Node1&#45;&gt;Node17</title>
<g id="a_edge29_Node000001_Node000017"><a xlink:title=" ">
<path fill="none" stroke="#63b8ff" d="M480.95,-533.76C568.69,-524.67 711.86,-509.06 834.91,-492 839.55,-491.36 844.33,-490.66 849.15,-489.94"/>
<polygon fill="#63b8ff" stroke="#63b8ff" points="480.38,-530.3 470.79,-534.81 481.1,-537.26 480.38,-530.3"/>
</a>
</g>
</g>
<!-- Node18 -->
<g id="Node000018" class="node">
<title>Node18</title>
<g id="a_Node000018"><a xlink:href="../../dd/d50/json__types_8hpp.html" target="_top" xlink:title="JSON I/O support.">
<polygon fill="white" stroke="#666666" points="470.41,-492 327.41,-492 327.41,-462 470.41,-462 470.41,-492"/>
<text text-anchor="start" x="335.41" y="-480" font-family="Helvetica,sans-Serif" font-size="10.00">userver/storages/postgres</text>
<text text-anchor="middle" x="398.91" y="-469" font-family="Helvetica,sans-Serif" font-size="10.00">/io/json_types.hpp</text>
</a>
</g>
</g>
<!-- Node1&#45;&gt;Node18 -->
<g id="edge30_Node000001_Node000018" class="edge">
<title>Node1&#45;&gt;Node18</title>
<g id="a_edge30_Node000001_Node000018"><a xlink:title=" ">
<path fill="none" stroke="#63b8ff" d="M398.91,-517.54C398.91,-508.96 398.91,-499.61 398.91,-492.16"/>
<polygon fill="#63b8ff" stroke="#63b8ff" points="395.41,-517.8 398.91,-527.8 402.41,-517.8 395.41,-517.8"/>
</a>
</g>
</g>
<!-- Node19 -->
<g id="Node000019" class="node">
<title>Node19</title>
<g id="a_Node000019"><a xlink:href="../../d5/d60/range__types_8hpp.html" target="_top" xlink:title="Ranges I/O support.">
<polygon fill="white" stroke="#666666" points="631.41,-492 488.41,-492 488.41,-462 631.41,-462 631.41,-492"/>
<text text-anchor="start" x="496.41" y="-480" font-family="Helvetica,sans-Serif" font-size="10.00">userver/storages/postgres</text>
<text text-anchor="middle" x="559.91" y="-469" font-family="Helvetica,sans-Serif" font-size="10.00">/io/range_types.hpp</text>
</a>
</g>
</g>
<!-- Node1&#45;&gt;Node19 -->
<g id="edge32_Node000001_Node000019" class="edge">
<title>Node1&#45;&gt;Node19</title>
<g id="a_edge32_Node000001_Node000019"><a xlink:title=" ">
<path fill="none" stroke="#63b8ff" d="M443.72,-524.19C469.28,-514.02 500.87,-501.47 524.66,-492.01"/>
<polygon fill="#63b8ff" stroke="#63b8ff" points="442.24,-521.01 434.24,-527.95 444.83,-527.51 442.24,-521.01"/>
</a>
</g>
</g>
<!-- Node20 -->
<g id="Node000020" class="node">
<title>Node20</title>
<g id="a_Node000020"><a xlink:href="../../d9/d6e/transform__io_8hpp_source.html" target="_top" xlink:title=" ">
<polygon fill="white" stroke="#666666" points="792.41,-492 649.41,-492 649.41,-462 792.41,-462 792.41,-492"/>
<text text-anchor="start" x="657.41" y="-480" font-family="Helvetica,sans-Serif" font-size="10.00">userver/storages/postgres</text>
<text text-anchor="middle" x="720.91" y="-469" font-family="Helvetica,sans-Serif" font-size="10.00">/io/transform_io.hpp</text>
</a>
</g>
</g>
<!-- Node1&#45;&gt;Node20 -->
<g id="edge35_Node000001_Node000020" class="edge">
<title>Node1&#45;&gt;Node20</title>
<g id="a_edge35_Node000001_Node000020"><a xlink:title=" ">
<path fill="none" stroke="#63b8ff" d="M479.53,-525.98C532.09,-515.53 600.01,-502.03 650.41,-492.01"/>
<polygon fill="#63b8ff" stroke="#63b8ff" points="478.7,-522.57 469.57,-527.95 480.06,-529.44 478.7,-522.57"/>
</a>
</g>
</g>
<!-- Node2&#45;&gt;Node3 -->
<g id="edge2_Node000002_Node000003" class="edge">
<title>Node2&#45;&gt;Node3</title>
<g id="a_edge2_Node000002_Node000003"><a xlink:title=" ">
<path fill="none" stroke="#63b8ff" d="M180.53,-393.98C233.09,-383.53 301.01,-370.03 351.41,-360.01"/>
<polygon fill="#63b8ff" stroke="#63b8ff" points="179.7,-390.57 170.57,-395.95 181.06,-397.44 179.7,-390.57"/>
</a>
</g>
</g>
<!-- Node4 -->
<g id="Node000004" class="node">
<title>Node4</title>
<g id="a_Node000004"><a xlink:href="../../d2/d3f/query__parameters_8hpp_source.html" target="_top" xlink:title=" ">
<polygon fill="white" stroke="#666666" points="663.41,-294 502.41,-294 502.41,-264 663.41,-264 663.41,-294"/>
<text text-anchor="start" x="510.41" y="-282" font-family="Helvetica,sans-Serif" font-size="10.00">userver/storages/postgres</text>
<text text-anchor="middle" x="582.91" y="-271" font-family="Helvetica,sans-Serif" font-size="10.00">/detail/query_parameters.hpp</text>
</a>
</g>
</g>
<!-- Node3&#45;&gt;Node4 -->
<g id="edge3_Node000003_Node000004" class="edge">
<title>Node3&#45;&gt;Node4</title>
<g id="a_edge3_Node000003_Node000004"><a xlink:title=" ">
<path fill="none" stroke="#63b8ff" d="M466.72,-326.19C492.28,-316.02 523.87,-303.47 547.66,-294.01"/>
<polygon fill="#63b8ff" stroke="#63b8ff" points="465.24,-323.01 457.24,-329.95 467.83,-329.51 465.24,-323.01"/>
</a>
</g>
</g>
<!-- Node12 -->
<g id="Node000012" class="node">
<title>Node12</title>
<g id="a_Node000012"><a xlink:href="../../de/d1d/result__set_8hpp.html" target="_top" xlink:title="Result accessors.">
<polygon fill="white" stroke="#666666" points="392.41,-294 249.41,-294 249.41,-264 392.41,-264 392.41,-294"/>
<text text-anchor="start" x="257.41" y="-282" font-family="Helvetica,sans-Serif" font-size="10.00">userver/storages/postgres</text>
<text text-anchor="middle" x="320.91" y="-271" font-family="Helvetica,sans-Serif" font-size="10.00">/result_set.hpp</text>
</a>
</g>
</g>
<!-- Node3&#45;&gt;Node12 -->
<g id="edge16_Node000003_Node000012" class="edge">
<title>Node3&#45;&gt;Node12</title>
<g id="a_edge16_Node000003_Node000012"><a xlink:title=" ">
<path fill="none" stroke="#63b8ff" d="M390.82,-324.3C375.45,-314.56 357.24,-303.02 343.26,-294.16"/>
<polygon fill="#63b8ff" stroke="#63b8ff" points="389.17,-327.4 399.49,-329.8 392.92,-321.49 389.17,-327.4"/>
</a>
</g>
</g>
<!-- Node5 -->
<g id="Node000005" class="node">
<title>Node5</title>
<g id="a_Node000005"><a xlink:href="../../d4/dd3/non__transaction_8hpp_source.html" target="_top" xlink:title=" ">
<polygon fill="white" stroke="#666666" points="757.41,-162 608.41,-162 608.41,-132 757.41,-132 757.41,-162"/>
<text text-anchor="start" x="616.41" y="-150" font-family="Helvetica,sans-Serif" font-size="10.00">userver/storages/postgres</text>
<text text-anchor="middle" x="682.91" y="-139" font-family="Helvetica,sans-Serif" font-size="10.00">/detail/non_transaction.hpp</text>
</a>
</g>
</g>
<!-- Node4&#45;&gt;Node5 -->
<g id="edge4_Node000004_Node000005" class="edge">
<title>Node4&#45;&gt;Node5</title>
<g id="a_edge4_Node000004_Node000005"><a xlink:title=" ">
<path fill="none" stroke="#63b8ff" d="M673.38,-263.52C712.58,-255.22 752.21,-243.36 763.91,-228 771.98,-217.39 770.4,-209.64 763.91,-198 754.81,-181.69 737.96,-170.04 721.98,-162.11"/>
<polygon fill="#63b8ff" stroke="#63b8ff" points="672.53,-260.12 663.44,-265.55 673.94,-266.97 672.53,-260.12"/>
</a>
</g>
</g>
<!-- Node4&#45;&gt;Node9 -->
<g id="edge8_Node000004_Node000009" class="edge">
<title>Node4&#45;&gt;Node9</title>
<g id="a_edge8_Node000004_Node000009"><a xlink:title=" ">
<path fill="none" stroke="#63b8ff" d="M613.69,-258.3C628.91,-248.56 646.94,-237.02 660.78,-228.16"/>
<polygon fill="#63b8ff" stroke="#63b8ff" points="611.64,-255.46 605.1,-263.8 615.41,-261.35 611.64,-255.46"/>
</a>
</g>
</g>
<!-- Node10 -->
<g id="Node000010" class="node">
<title>Node10</title>
<g id="a_Node000010"><a xlink:href="../../da/deb/postgresql_2include_2userver_2storages_2postgres_2transaction_8hpp.html" target="_top" xlink:title="Transactions.">
<polygon fill="white" stroke="#666666" points="590.41,-162 447.41,-162 447.41,-132 590.41,-132 590.41,-162"/>
<text text-anchor="start" x="455.41" y="-150" font-family="Helvetica,sans-Serif" font-size="10.00">userver/storages/postgres</text>
<text text-anchor="middle" x="518.91" y="-139" font-family="Helvetica,sans-Serif" font-size="10.00">/transaction.hpp</text>
</a>
</g>
</g>
<!-- Node4&#45;&gt;Node10 -->
<g id="edge15_Node000004_Node000010" class="edge">
<title>Node4&#45;&gt;Node10</title>
<g id="a_edge15_Node000004_Node000010"><a xlink:title=" ">
<path fill="none" stroke="#63b8ff" d="M571.46,-254.75C558.22,-227.84 536.83,-184.4 525.87,-162.14"/>
<polygon fill="#63b8ff" stroke="#63b8ff" points="568.38,-256.41 575.94,-263.84 574.66,-253.32 568.38,-256.41"/>
</a>
</g>
</g>
<!-- Node11 -->
<g id="Node000011" class="node">
<title>Node11</title>
<g id="a_Node000011"><a xlink:href="../../d2/de3/portal_8hpp_source.html" target="_top" xlink:title=" ">
<polygon fill="white" stroke="#666666" points="516.41,-228 373.41,-228 373.41,-198 516.41,-198 516.41,-228"/>
<text text-anchor="start" x="381.41" y="-216" font-family="Helvetica,sans-Serif" font-size="10.00">userver/storages/postgres</text>
<text text-anchor="middle" x="444.91" y="-205" font-family="Helvetica,sans-Serif" font-size="10.00">/portal.hpp</text>
</a>
</g>
</g>
<!-- Node4&#45;&gt;Node11 -->
<g id="edge13_Node000004_Node000011" class="edge">
<title>Node4&#45;&gt;Node11</title>
<g id="a_edge13_Node000004_Node000011"><a xlink:title=" ">
<path fill="none" stroke="#63b8ff" d="M543.34,-259.65C521.63,-249.58 495.15,-237.3 475.12,-228.01"/>
<polygon fill="#63b8ff" stroke="#63b8ff" points="542.08,-262.92 552.62,-263.95 545.02,-256.57 542.08,-262.92"/>
</a>
</g>
</g>
<!-- Node6 -->
<g id="Node000006" class="node">
<title>Node6</title>
<g id="a_Node000006"><a xlink:href="../../de/dd3/postgresql_2include_2userver_2storages_2postgres_2cluster_8hpp.html" target="_top" xlink:title="Interface for executing queries on a cluster of PostgreSQL servers.">
<polygon fill="white" stroke="#666666" points="747.41,-96 604.41,-96 604.41,-66 747.41,-66 747.41,-96"/>
<text text-anchor="start" x="612.41" y="-84" font-family="Helvetica,sans-Serif" font-size="10.00">userver/storages/postgres</text>
<text text-anchor="middle" x="675.91" y="-73" font-family="Helvetica,sans-Serif" font-size="10.00">/cluster.hpp</text>
</a>
</g>
</g>
<!-- Node5&#45;&gt;Node6 -->
<g id="edge5_Node000005_Node000006" class="edge">
<title>Node5&#45;&gt;Node6</title>
<g id="a_edge5_Node000005_Node000006"><a xlink:title=" ">
<path fill="none" stroke="#63b8ff" d="M680.26,-121.83C679.32,-113.17 678.28,-103.7 677.46,-96.16"/>
<polygon fill="#63b8ff" stroke="#63b8ff" points="676.79,-122.24 681.35,-131.8 683.75,-121.48 676.79,-122.24"/>
</a>
</g>
</g>
<!-- Node7 -->
<g id="Node000007" class="node">
<title>Node7</title>
<g id="a_Node000007"><a xlink:href="../../dc/df7/base__postgres__cache_8hpp.html" target="_top" xlink:title="Caching component for PostgreSQL. See Caching Component for PostgreSQL.">
<polygon fill="white" stroke="#666666" points="807.41,-30 688.41,-30 688.41,0 807.41,0 807.41,-30"/>
<text text-anchor="start" x="696.41" y="-18" font-family="Helvetica,sans-Serif" font-size="10.00">userver/cache/base</text>
<text text-anchor="middle" x="747.91" y="-7" font-family="Helvetica,sans-Serif" font-size="10.00">_postgres_cache.hpp</text>
</a>
</g>
</g>
<!-- Node6&#45;&gt;Node7 -->
<g id="edge6_Node000006_Node000007" class="edge">
<title>Node6&#45;&gt;Node7</title>
<g id="a_edge6_Node000006_Node000007"><a xlink:title=" ">
<path fill="none" stroke="#63b8ff" d="M699.62,-58.92C710.24,-49.49 722.47,-38.61 731.97,-30.16"/>
<polygon fill="#63b8ff" stroke="#63b8ff" points="697.04,-56.54 691.89,-65.8 701.69,-61.77 697.04,-56.54"/>
</a>
</g>
</g>
<!-- Node8 -->
<g id="Node000008" class="node">
<title>Node8</title>
<g id="a_Node000008"><a xlink:href="../../df/d02/postgres_8hpp.html" target="_top" xlink:title=" ">
<polygon fill="white" stroke="#666666" points="590.41,-30 447.41,-30 447.41,0 590.41,0 590.41,-30"/>
<text text-anchor="start" x="455.41" y="-18" font-family="Helvetica,sans-Serif" font-size="10.00">userver/storages/postgres</text>
<text text-anchor="middle" x="518.91" y="-7" font-family="Helvetica,sans-Serif" font-size="10.00">/postgres.hpp</text>
</a>
</g>
</g>
<!-- Node6&#45;&gt;Node8 -->
<g id="edge7_Node000006_Node000008" class="edge">
<title>Node6&#45;&gt;Node8</title>
<g id="a_edge7_Node000006_Node000008"><a xlink:title=" ">
<path fill="none" stroke="#63b8ff" d="M631.88,-62.05C607.01,-51.91 576.37,-39.43 553.28,-30.01"/>
<polygon fill="#63b8ff" stroke="#63b8ff" points="630.87,-65.42 641.45,-65.95 633.51,-58.94 630.87,-65.42"/>
</a>
</g>
</g>
<!-- Node9&#45;&gt;Node5 -->
<g id="edge9_Node000009_Node000005" class="edge">
<title>Node9&#45;&gt;Node5</title>
<g id="a_edge9_Node000009_Node000005"><a xlink:title=" ">
<path fill="none" stroke="#63b8ff" d="M682.91,-187.54C682.91,-178.96 682.91,-169.61 682.91,-162.16"/>
<polygon fill="#63b8ff" stroke="#63b8ff" points="679.41,-187.8 682.91,-197.8 686.41,-187.8 679.41,-187.8"/>
</a>
</g>
</g>
<!-- Node9&#45;&gt;Node10 -->
<g id="edge10_Node000009_Node000010" class="edge">
<title>Node9&#45;&gt;Node10</title>
<g id="a_edge10_Node000009_Node000010"><a xlink:title=" ">
<path fill="none" stroke="#63b8ff" d="M637.27,-194.19C611.22,-184.02 579.04,-171.47 554.81,-162.01"/>
<polygon fill="#63b8ff" stroke="#63b8ff" points="636.33,-197.58 646.92,-197.95 638.87,-191.06 636.33,-197.58"/>
</a>
</g>
</g>
<!-- Node10&#45;&gt;Node6 -->
<g id="edge11_Node000010_Node000006" class="edge">
<title>Node10&#45;&gt;Node6</title>
<g id="a_edge11_Node000010_Node000006"><a xlink:title=" ">
<path fill="none" stroke="#63b8ff" d="M562.93,-128.05C587.81,-117.91 618.44,-105.43 641.53,-96.01"/>
<polygon fill="#63b8ff" stroke="#63b8ff" points="561.3,-124.94 553.36,-131.95 563.94,-131.42 561.3,-124.94"/>
</a>
</g>
</g>
<!-- Node10&#45;&gt;Node8 -->
<g id="edge12_Node000010_Node000008" class="edge">
<title>Node10&#45;&gt;Node8</title>
<g id="a_edge12_Node000010_Node000008"><a xlink:title=" ">
<path fill="none" stroke="#63b8ff" d="M518.91,-121.68C518.91,-94.7 518.91,-52.11 518.91,-30.14"/>
<polygon fill="#63b8ff" stroke="#63b8ff" points="515.41,-121.84 518.91,-131.84 522.41,-121.84 515.41,-121.84"/>
</a>
</g>
</g>
<!-- Node11&#45;&gt;Node10 -->
<g id="edge14_Node000011_Node000010" class="edge">
<title>Node11&#45;&gt;Node10</title>
<g id="a_edge14_Node000011_Node000010"><a xlink:title=" ">
<path fill="none" stroke="#63b8ff" d="M468.96,-191.2C479.94,-181.7 492.67,-170.69 502.53,-162.16"/>
<polygon fill="#63b8ff" stroke="#63b8ff" points="466.61,-188.61 461.33,-197.8 471.18,-193.9 466.61,-188.61"/>
</a>
</g>
</g>
<!-- Node12&#45;&gt;Node5 -->
<g id="edge17_Node000012_Node000005" class="edge">
<title>Node12&#45;&gt;Node5</title>
<g id="a_edge17_Node000012_Node000005"><a xlink:title=" ">
<path fill="none" stroke="#63b8ff" d="M402.82,-262.58C440.87,-254.27 486.34,-242.68 525.91,-228 575.38,-209.65 629.47,-179.7 659.49,-162.12"/>
<polygon fill="#63b8ff" stroke="#63b8ff" points="401.85,-259.21 392.81,-264.73 403.32,-266.06 401.85,-259.21"/>
</a>
</g>
</g>
<!-- Node12&#45;&gt;Node8 -->
<g id="edge22_Node000012_Node000008" class="edge">
<title>Node12&#45;&gt;Node8</title>
<g id="a_edge22_Node000012_Node000008"><a xlink:title=" ">
<path fill="none" stroke="#63b8ff" d="M239.04,-275.79C166.65,-270.28 76.96,-252.66 107.91,-198 176.44,-76.95 348.8,-36.24 447.17,-22.67"/>
<polygon fill="#63b8ff" stroke="#63b8ff" points="238.91,-279.29 249.13,-276.49 239.39,-272.31 238.91,-279.29"/>
</a>
</g>
</g>
<!-- Node12&#45;&gt;Node10 -->
<g id="edge23_Node000012_Node000010" class="edge">
<title>Node12&#45;&gt;Node10</title>
<g id="a_edge23_Node000012_Node000010"><a xlink:title=" ">
<path fill="none" stroke="#63b8ff" d="M328.52,-254.29C335.38,-236.46 347.16,-212.68 364.91,-198 388.2,-178.74 419.08,-166.84 447.08,-159.52"/>
<polygon fill="#63b8ff" stroke="#63b8ff" points="325.21,-253.14 325.12,-263.74 331.8,-255.51 325.21,-253.14"/>
</a>
</g>
</g>
<!-- Node12&#45;&gt;Node11 -->
<g id="edge21_Node000012_Node000011" class="edge">
<title>Node12&#45;&gt;Node11</title>
<g id="a_edge21_Node000012_Node000011"><a xlink:title=" ">
<path fill="none" stroke="#63b8ff" d="M357.25,-259.24C376.6,-249.25 400.01,-237.18 417.76,-228.01"/>
<polygon fill="#63b8ff" stroke="#63b8ff" points="355.4,-256.26 348.12,-263.95 358.61,-262.48 355.4,-256.26"/>
</a>
</g>
</g>
<!-- Node13 -->
<g id="Node000013" class="node">
<title>Node13</title>
<g id="a_Node000013"><a xlink:href="../../d7/d52/typed__rows_8hpp_source.html" target="_top" xlink:title=" ">
<polygon fill="white" stroke="#666666" points="260.41,-228 117.41,-228 117.41,-198 260.41,-198 260.41,-228"/>
<text text-anchor="start" x="125.41" y="-216" font-family="Helvetica,sans-Serif" font-size="10.00">userver/storages/postgres</text>
<text text-anchor="middle" x="188.91" y="-205" font-family="Helvetica,sans-Serif" font-size="10.00">/detail/typed_rows.hpp</text>
</a>
</g>
</g>
<!-- Node12&#45;&gt;Node13 -->
<g id="edge18_Node000012_Node000013" class="edge">
<title>Node12&#45;&gt;Node13</title>
<g id="a_edge18_Node000012_Node000013"><a xlink:title=" ">
<path fill="none" stroke="#63b8ff" d="M282.78,-259.51C262.07,-249.47 236.88,-237.26 217.81,-228.01"/>
<polygon fill="#63b8ff" stroke="#63b8ff" points="281.42,-262.74 291.94,-263.95 284.47,-256.44 281.42,-262.74"/>
</a>
</g>
</g>
<!-- Node14 -->
<g id="Node000014" class="node">
<title>Node14</title>
<g id="a_Node000014"><a xlink:href="../../d1/dee/typed__result__set_8hpp.html" target="_top" xlink:title="Typed PostgreSQL results.">
<polygon fill="white" stroke="#666666" points="369.41,-162 226.41,-162 226.41,-132 369.41,-132 369.41,-162"/>
<text text-anchor="start" x="234.41" y="-150" font-family="Helvetica,sans-Serif" font-size="10.00">userver/storages/postgres</text>
<text text-anchor="middle" x="297.91" y="-139" font-family="Helvetica,sans-Serif" font-size="10.00">/typed_result_set.hpp</text>
</a>
</g>
</g>
<!-- Node12&#45;&gt;Node14 -->
<g id="edge24_Node000012_Node000014" class="edge">
<title>Node12&#45;&gt;Node14</title>
<g id="a_edge24_Node000012_Node000014"><a xlink:title=" ">
<path fill="none" stroke="#63b8ff" d="M311.29,-254.04C304.41,-227.08 297.15,-184.21 296.01,-162.14"/>
<polygon fill="#63b8ff" stroke="#63b8ff" points="307.97,-255.13 314,-263.84 314.71,-253.27 307.97,-255.13"/>
</a>
</g>
</g>
<!-- Node13&#45;&gt;Node14 -->
<g id="edge19_Node000013_Node000014" class="edge">
<title>Node13&#45;&gt;Node14</title>
<g id="a_edge19_Node000013_Node000014"><a xlink:title=" ">
<path fill="none" stroke="#63b8ff" d="M221.79,-192.69C238.61,-182.82 258.72,-171.01 274.04,-162.01"/>
<polygon fill="#63b8ff" stroke="#63b8ff" points="219.68,-189.87 212.83,-197.95 223.22,-195.91 219.68,-189.87"/>
</a>
</g>
</g>
<!-- Node14&#45;&gt;Node12 -->
<g id="edge20_Node000014_Node000012" class="edge">
<title>Node14&#45;&gt;Node12</title>
<g id="a_edge20_Node000014_Node000012"><a xlink:title=" ">
<path fill="none" stroke="#63b8ff" d="M307.52,-171.94C314.4,-198.89 321.66,-241.76 322.8,-263.84"/>
<polygon fill="#63b8ff" stroke="#63b8ff" points="310.85,-170.85 304.81,-162.14 304.1,-172.71 310.85,-170.85"/>
</a>
</g>
</g>
<!-- Node15&#45;&gt;Node3 -->
<g id="edge26_Node000015_Node000003" class="edge">
<title>Node15&#45;&gt;Node3</title>
<g id="a_edge26_Node000015_Node000003"><a xlink:title=" ">
<path fill="none" stroke="#63b8ff" d="M305.72,-392.19C331.28,-382.02 362.87,-369.47 386.66,-360.01"/>
<polygon fill="#63b8ff" stroke="#63b8ff" points="304.24,-389.01 296.24,-395.95 306.83,-395.51 304.24,-389.01"/>
</a>
</g>
</g>
<!-- Node16&#45;&gt;Node3 -->
<g id="edge28_Node000016_Node000003" class="edge">
<title>Node16&#45;&gt;Node3</title>
<g id="a_edge28_Node000016_Node000003"><a xlink:title=" ">
<path fill="none" stroke="#63b8ff" d="M421.91,-385.54C421.91,-376.96 421.91,-367.61 421.91,-360.16"/>
<polygon fill="#63b8ff" stroke="#63b8ff" points="418.41,-385.8 421.91,-395.8 425.41,-385.8 418.41,-385.8"/>
</a>
</g>
</g>
<!-- Node18&#45;&gt;Node3 -->
<g id="edge31_Node000018_Node000003" class="edge">
<title>Node18&#45;&gt;Node3</title>
<g id="a_edge31_Node000018_Node000003"><a xlink:title=" ">
<path fill="none" stroke="#63b8ff" d="M464.95,-457.71C479.94,-450.34 494.03,-440.11 502.91,-426 510.01,-414.71 509.4,-407.64 502.91,-396 493.81,-379.69 476.96,-368.04 460.98,-360.11"/>
<polygon fill="#63b8ff" stroke="#63b8ff" points="463.23,-454.64 455.55,-461.93 466.1,-461.03 463.23,-454.64"/>
</a>
</g>
</g>
<!-- Node19&#45;&gt;Node3 -->
<g id="edge33_Node000019_Node000003" class="edge">
<title>Node19&#45;&gt;Node3</title>
<g id="a_edge33_Node000019_Node000003"><a xlink:title=" ">
<path fill="none" stroke="#63b8ff" d="M552.32,-452.52C545.74,-435.16 534.76,-411.89 518.91,-396 503.12,-380.17 481.28,-368.31 462.32,-360.13"/>
<polygon fill="#63b8ff" stroke="#63b8ff" points="549.03,-453.71 555.69,-461.95 555.62,-451.36 549.03,-453.71"/>
</a>
</g>
</g>
<!-- Node21 -->
<g id="Node000021" class="node">
<title>Node21</title>
<g id="a_Node000021"><a xlink:href="../../d6/db8/chrono_8hpp.html" target="_top" xlink:title="Timestamp (std::chrono::*) I/O support.">
<polygon fill="white" stroke="#666666" points="792.41,-426 649.41,-426 649.41,-396 792.41,-396 792.41,-426"/>
<text text-anchor="start" x="657.41" y="-414" font-family="Helvetica,sans-Serif" font-size="10.00">userver/storages/postgres</text>
<text text-anchor="middle" x="720.91" y="-403" font-family="Helvetica,sans-Serif" font-size="10.00">/io/chrono.hpp</text>
</a>
</g>
</g>
<!-- Node20&#45;&gt;Node21 -->
<g id="edge36_Node000020_Node000021" class="edge">
<title>Node20&#45;&gt;Node21</title>
<g id="a_edge36_Node000020_Node000021"><a xlink:title=" ">
<path fill="none" stroke="#63b8ff" d="M720.91,-451.54C720.91,-442.96 720.91,-433.61 720.91,-426.16"/>
<polygon fill="#63b8ff" stroke="#63b8ff" points="717.41,-451.8 720.91,-461.8 724.41,-451.8 717.41,-451.8"/>
</a>
</g>
</g>
<!-- Node21&#45;&gt;Node3 -->
<g id="edge38_Node000021_Node000003" class="edge">
<title>Node21&#45;&gt;Node3</title>
<g id="a_edge38_Node000021_Node000003"><a xlink:title=" ">
<path fill="none" stroke="#63b8ff" d="M645.43,-393.84C596.72,-383.42 533.98,-369.99 487.37,-360.01"/>
<polygon fill="#63b8ff" stroke="#63b8ff" points="644.78,-397.28 655.29,-395.95 646.25,-390.44 644.78,-397.28"/>
</a>
</g>
</g>
<!-- Node21&#45;&gt;Node7 -->
<g id="edge37_Node000021_Node000007" class="edge">
<title>Node21&#45;&gt;Node7</title>
<g id="a_edge37_Node000021_Node000007"><a xlink:title=" ">
<path fill="none" stroke="#63b8ff" d="M740.96,-387.98C770.15,-353.55 820.91,-283.67 820.91,-214 820.91,-214 820.91,-214 820.91,-146 820.91,-98.63 783.61,-52.56 762.33,-30.13"/>
<polygon fill="#63b8ff" stroke="#63b8ff" points="738.3,-385.71 734.39,-395.56 743.59,-390.29 738.3,-385.71"/>
</a>
</g>
</g>
</g>
</svg>
