<?xml version="1.0" encoding="UTF-8" standalone="no"?>
<!DOCTYPE svg PUBLIC "-//W3C//DTD SVG 1.1//EN"
 "http://www.w3.org/Graphics/SVG/1.1/DTD/svg11.dtd">
<!-- Generated by graphviz version 2.43.0 (0)
 -->
<!-- Title: userver/storages/postgres/options.hpp Pages: 1 -->
<svg width="725pt" height="302pt"
 viewBox="0.00 0.00 725.00 302.00" xmlns="http://www.w3.org/2000/svg" xmlns:xlink="http://www.w3.org/1999/xlink">
<g id="graph0" class="graph" transform="scale(1 1) rotate(0) translate(4 298)">
<title>userver/storages/postgres/options.hpp</title>
<!-- Node1 -->
<g id="Node000001" class="node">
<title>Node1</title>
<g id="a_Node000001"><a xlink:title="Options.">
<polygon fill="#999999" stroke="#666666" points="390,-294 247,-294 247,-264 390,-264 390,-294"/>
<text text-anchor="start" x="255" y="-282" font-family="Helvetica,sans-Serif" font-size="10.00">userver/storages/postgres</text>
<text text-anchor="middle" x="318.5" y="-271" font-family="Helvetica,sans-Serif" font-size="10.00">/options.hpp</text>
</a>
</g>
</g>
<!-- Node2 -->
<g id="Node000002" class="node">
<title>Node2</title>
<g id="a_Node000002"><a xlink:href="../../de/dd3/postgresql_2include_2userver_2storages_2postgres_2cluster_8hpp.html" target="_top" xlink:title="Interface for executing queries on a cluster of PostgreSQL servers.">
<polygon fill="white" stroke="#666666" points="324,-96 181,-96 181,-66 324,-66 324,-96"/>
<text text-anchor="start" x="189" y="-84" font-family="Helvetica,sans-Serif" font-size="10.00">userver/storages/postgres</text>
<text text-anchor="middle" x="252.5" y="-73" font-family="Helvetica,sans-Serif" font-size="10.00">/cluster.hpp</text>
</a>
</g>
</g>
<!-- Node1&#45;&gt;Node2 -->
<g id="edge1_Node000001_Node000002" class="edge">
<title>Node1&#45;&gt;Node2</title>
<g id="a_edge1_Node000001_Node000002"><a xlink:title=" ">
<path fill="none" stroke="#63b8ff" d="M237.25,-265.21C216.34,-257.83 196.19,-246.23 183.5,-228 152.59,-183.59 207.5,-123.16 236.4,-96.11"/>
<polygon fill="#63b8ff" stroke="#63b8ff" points="236.29,-268.58 246.88,-268.31 238.43,-261.91 236.29,-268.58"/>
</a>
</g>
</g>
<!-- Node5 -->
<g id="Node000005" class="node">
<title>Node5</title>
<g id="a_Node000005"><a xlink:href="../../df/da2/database_8hpp.html" target="_top" xlink:title="Object for accessing PostgreSQL database instance (sharded or not)">
<polygon fill="white" stroke="#666666" points="143,-162 0,-162 0,-132 143,-132 143,-162"/>
<text text-anchor="start" x="8" y="-150" font-family="Helvetica,sans-Serif" font-size="10.00">userver/storages/postgres</text>
<text text-anchor="middle" x="71.5" y="-139" font-family="Helvetica,sans-Serif" font-size="10.00">/database.hpp</text>
</a>
</g>
</g>
<!-- Node1&#45;&gt;Node5 -->
<g id="edge4_Node000001_Node000005" class="edge">
<title>Node1&#45;&gt;Node5</title>
<g id="a_edge4_Node000001_Node000005"><a xlink:title=" ">
<path fill="none" stroke="#63b8ff" d="M236.77,-262.15C208.49,-254.48 177.42,-243.47 151.5,-228 122.32,-210.58 96.05,-180.17 82.07,-162.28"/>
<polygon fill="#63b8ff" stroke="#63b8ff" points="236.08,-265.59 246.64,-264.72 237.85,-258.81 236.08,-265.59"/>
</a>
</g>
</g>
<!-- Node7 -->
<g id="Node000007" class="node">
<title>Node7</title>
<g id="a_Node000007"><a xlink:href="../../d4/dd3/non__transaction_8hpp_source.html" target="_top" xlink:title=" ">
<polygon fill="white" stroke="#666666" points="342,-228 193,-228 193,-198 342,-198 342,-228"/>
<text text-anchor="start" x="201" y="-216" font-family="Helvetica,sans-Serif" font-size="10.00">userver/storages/postgres</text>
<text text-anchor="middle" x="267.5" y="-205" font-family="Helvetica,sans-Serif" font-size="10.00">/detail/non_transaction.hpp</text>
</a>
</g>
</g>
<!-- Node1&#45;&gt;Node7 -->
<g id="edge9_Node000001_Node000007" class="edge">
<title>Node1&#45;&gt;Node7</title>
<g id="a_edge9_Node000001_Node000007"><a xlink:title=" ">
<path fill="none" stroke="#63b8ff" d="M300.82,-255.81C293.51,-246.64 285.25,-236.28 278.79,-228.16"/>
<polygon fill="#63b8ff" stroke="#63b8ff" points="298.21,-258.16 307.18,-263.8 303.69,-253.79 298.21,-258.16"/>
</a>
</g>
</g>
<!-- Node8 -->
<g id="Node000008" class="node">
<title>Node8</title>
<g id="a_Node000008"><a xlink:href="../../d9/d02/postgresql_2include_2userver_2storages_2postgres_2dist__lock__strategy_8hpp.html" target="_top" xlink:title="Postgres distributed locking strategy.">
<polygon fill="white" stroke="#666666" points="702,-228 559,-228 559,-198 702,-198 702,-228"/>
<text text-anchor="start" x="567" y="-216" font-family="Helvetica,sans-Serif" font-size="10.00">userver/storages/postgres</text>
<text text-anchor="middle" x="630.5" y="-205" font-family="Helvetica,sans-Serif" font-size="10.00">/dist_lock_strategy.hpp</text>
</a>
</g>
</g>
<!-- Node1&#45;&gt;Node8 -->
<g id="edge11_Node000001_Node000008" class="edge">
<title>Node1&#45;&gt;Node8</title>
<g id="a_edge11_Node000001_Node000008"><a xlink:title=" ">
<path fill="none" stroke="#63b8ff" d="M396.94,-261.91C447.82,-251.47 513.46,-238.01 562.19,-228.01"/>
<polygon fill="#63b8ff" stroke="#63b8ff" points="396.06,-258.52 386.97,-263.95 397.47,-265.37 396.06,-258.52"/>
</a>
</g>
</g>
<!-- Node10 -->
<g id="Node000010" class="node">
<title>Node10</title>
<g id="a_Node000010"><a xlink:href="../../d2/de3/portal_8hpp_source.html" target="_top" xlink:title=" ">
<polygon fill="white" stroke="#666666" points="541,-228 398,-228 398,-198 541,-198 541,-228"/>
<text text-anchor="start" x="406" y="-216" font-family="Helvetica,sans-Serif" font-size="10.00">userver/storages/postgres</text>
<text text-anchor="middle" x="469.5" y="-205" font-family="Helvetica,sans-Serif" font-size="10.00">/portal.hpp</text>
</a>
</g>
</g>
<!-- Node1&#45;&gt;Node10 -->
<g id="edge13_Node000001_Node000010" class="edge">
<title>Node1&#45;&gt;Node10</title>
<g id="a_edge13_Node000001_Node000010"><a xlink:title=" ">
<path fill="none" stroke="#63b8ff" d="M361.16,-259.92C385.03,-249.8 414.33,-237.38 436.44,-228.01"/>
<polygon fill="#63b8ff" stroke="#63b8ff" points="359.48,-256.83 351.64,-263.95 362.21,-263.28 359.48,-256.83"/>
</a>
</g>
</g>
<!-- Node11 -->
<g id="Node000011" class="node">
<title>Node11</title>
<g id="a_Node000011"><a xlink:href="../../da/deb/postgresql_2include_2userver_2storages_2postgres_2transaction_8hpp.html" target="_top" xlink:title="Transactions.">
<polygon fill="white" stroke="#666666" points="440,-162 297,-162 297,-132 440,-132 440,-162"/>
<text text-anchor="start" x="305" y="-150" font-family="Helvetica,sans-Serif" font-size="10.00">userver/storages/postgres</text>
<text text-anchor="middle" x="368.5" y="-139" font-family="Helvetica,sans-Serif" font-size="10.00">/transaction.hpp</text>
</a>
</g>
</g>
<!-- Node1&#45;&gt;Node11 -->
<g id="edge17_Node000001_Node000011" class="edge">
<title>Node1&#45;&gt;Node11</title>
<g id="a_edge17_Node000001_Node000011"><a xlink:title=" ">
<path fill="none" stroke="#63b8ff" d="M335.27,-255.49C340.79,-247.2 346.54,-237.5 350.5,-228 359.71,-205.93 364.58,-178.37 366.85,-162.04"/>
<polygon fill="#63b8ff" stroke="#63b8ff" points="332.28,-253.66 329.44,-263.87 338.03,-257.65 332.28,-253.66"/>
</a>
</g>
</g>
<!-- Node3 -->
<g id="Node000003" class="node">
<title>Node3</title>
<g id="a_Node000003"><a xlink:href="../../dc/df7/base__postgres__cache_8hpp.html" target="_top" xlink:title="Caching component for PostgreSQL. See Caching Component for PostgreSQL.">
<polygon fill="white" stroke="#666666" points="157,-30 38,-30 38,0 157,0 157,-30"/>
<text text-anchor="start" x="46" y="-18" font-family="Helvetica,sans-Serif" font-size="10.00">userver/cache/base</text>
<text text-anchor="middle" x="97.5" y="-7" font-family="Helvetica,sans-Serif" font-size="10.00">_postgres_cache.hpp</text>
</a>
</g>
</g>
<!-- Node2&#45;&gt;Node3 -->
<g id="edge2_Node000002_Node000003" class="edge">
<title>Node2&#45;&gt;Node3</title>
<g id="a_edge2_Node000002_Node000003"><a xlink:title=" ">
<path fill="none" stroke="#63b8ff" d="M209.04,-62.05C184.48,-51.91 154.23,-39.43 131.44,-30.01"/>
<polygon fill="#63b8ff" stroke="#63b8ff" points="207.91,-65.37 218.48,-65.95 210.58,-58.9 207.91,-65.37"/>
</a>
</g>
</g>
<!-- Node4 -->
<g id="Node000004" class="node">
<title>Node4</title>
<g id="a_Node000004"><a xlink:href="../../df/d02/postgres_8hpp.html" target="_top" xlink:title=" ">
<polygon fill="white" stroke="#666666" points="324,-30 181,-30 181,0 324,0 324,-30"/>
<text text-anchor="start" x="189" y="-18" font-family="Helvetica,sans-Serif" font-size="10.00">userver/storages/postgres</text>
<text text-anchor="middle" x="252.5" y="-7" font-family="Helvetica,sans-Serif" font-size="10.00">/postgres.hpp</text>
</a>
</g>
</g>
<!-- Node2&#45;&gt;Node4 -->
<g id="edge3_Node000002_Node000004" class="edge">
<title>Node2&#45;&gt;Node4</title>
<g id="a_edge3_Node000002_Node000004"><a xlink:title=" ">
<path fill="none" stroke="#63b8ff" d="M252.5,-55.54C252.5,-46.96 252.5,-37.61 252.5,-30.16"/>
<polygon fill="#63b8ff" stroke="#63b8ff" points="249,-55.8 252.5,-65.8 256,-55.8 249,-55.8"/>
</a>
</g>
</g>
<!-- Node5&#45;&gt;Node2 -->
<g id="edge5_Node000005_Node000002" class="edge">
<title>Node5&#45;&gt;Node2</title>
<g id="a_edge5_Node000005_Node000002"><a xlink:title=" ">
<path fill="none" stroke="#63b8ff" d="M120.74,-128.59C149.68,-118.36 185.78,-105.59 212.87,-96.01"/>
<polygon fill="#63b8ff" stroke="#63b8ff" points="119.48,-125.32 111.22,-131.95 121.82,-131.92 119.48,-125.32"/>
</a>
</g>
</g>
<!-- Node6 -->
<g id="Node000006" class="node">
<title>Node6</title>
<g id="a_Node000006"><a xlink:href="../../df/d08/postgresql_2include_2userver_2storages_2postgres_2component_8hpp.html" target="_top" xlink:title="PosgreSQL client component.">
<polygon fill="white" stroke="#666666" points="163,-96 20,-96 20,-66 163,-66 163,-96"/>
<text text-anchor="start" x="28" y="-84" font-family="Helvetica,sans-Serif" font-size="10.00">userver/storages/postgres</text>
<text text-anchor="middle" x="91.5" y="-73" font-family="Helvetica,sans-Serif" font-size="10.00">/component.hpp</text>
</a>
</g>
</g>
<!-- Node5&#45;&gt;Node6 -->
<g id="edge6_Node000005_Node000006" class="edge">
<title>Node5&#45;&gt;Node6</title>
<g id="a_edge6_Node000005_Node000006"><a xlink:title=" ">
<path fill="none" stroke="#63b8ff" d="M78.97,-122.11C81.69,-113.38 84.69,-103.78 87.07,-96.16"/>
<polygon fill="#63b8ff" stroke="#63b8ff" points="75.58,-121.21 75.94,-131.8 82.26,-123.3 75.58,-121.21"/>
</a>
</g>
</g>
<!-- Node6&#45;&gt;Node3 -->
<g id="edge7_Node000006_Node000003" class="edge">
<title>Node6&#45;&gt;Node3</title>
<g id="a_edge7_Node000006_Node000003"><a xlink:title=" ">
<path fill="none" stroke="#63b8ff" d="M93.77,-55.83C94.58,-47.17 95.47,-37.7 96.17,-30.16"/>
<polygon fill="#63b8ff" stroke="#63b8ff" points="90.28,-55.51 92.83,-65.8 97.25,-56.17 90.28,-55.51"/>
</a>
</g>
</g>
<!-- Node6&#45;&gt;Node4 -->
<g id="edge8_Node000006_Node000004" class="edge">
<title>Node6&#45;&gt;Node4</title>
<g id="a_edge8_Node000006_Node000004"><a xlink:title=" ">
<path fill="none" stroke="#63b8ff" d="M136.31,-62.19C161.87,-52.02 193.47,-39.47 217.25,-30.01"/>
<polygon fill="#63b8ff" stroke="#63b8ff" points="134.83,-59.01 126.83,-65.95 137.42,-65.51 134.83,-59.01"/>
</a>
</g>
</g>
<!-- Node7&#45;&gt;Node2 -->
<g id="edge10_Node000007_Node000002" class="edge">
<title>Node7&#45;&gt;Node2</title>
<g id="a_edge10_Node000007_Node000002"><a xlink:title=" ">
<path fill="none" stroke="#63b8ff" d="M264.69,-187.68C261.58,-160.7 256.67,-118.11 254.13,-96.14"/>
<polygon fill="#63b8ff" stroke="#63b8ff" points="261.24,-188.31 265.87,-197.84 268.2,-187.5 261.24,-188.31"/>
</a>
</g>
</g>
<!-- Node9 -->
<g id="Node000009" class="node">
<title>Node9</title>
<g id="a_Node000009"><a xlink:href="../../dc/d89/postgresql_2include_2userver_2storages_2postgres_2dist__lock__component__base_8hpp.html" target="_top" xlink:title="Base class for postgres&#45;based distlock worker components.">
<polygon fill="white" stroke="#666666" points="717,-162 544,-162 544,-132 717,-132 717,-162"/>
<text text-anchor="start" x="552" y="-150" font-family="Helvetica,sans-Serif" font-size="10.00">userver/storages/postgres</text>
<text text-anchor="middle" x="630.5" y="-139" font-family="Helvetica,sans-Serif" font-size="10.00">/dist_lock_component_base.hpp</text>
</a>
</g>
</g>
<!-- Node8&#45;&gt;Node9 -->
<g id="edge12_Node000008_Node000009" class="edge">
<title>Node8&#45;&gt;Node9</title>
<g id="a_edge12_Node000008_Node000009"><a xlink:title=" ">
<path fill="none" stroke="#63b8ff" d="M630.5,-187.54C630.5,-178.96 630.5,-169.61 630.5,-162.16"/>
<polygon fill="#63b8ff" stroke="#63b8ff" points="627,-187.8 630.5,-197.8 634,-187.8 627,-187.8"/>
</a>
</g>
</g>
<!-- Node10&#45;&gt;Node11 -->
<g id="edge14_Node000010_Node000011" class="edge">
<title>Node10&#45;&gt;Node11</title>
<g id="a_edge14_Node000010_Node000011"><a xlink:title=" ">
<path fill="none" stroke="#63b8ff" d="M438.41,-192.3C423.04,-182.56 404.83,-171.02 390.85,-162.16"/>
<polygon fill="#63b8ff" stroke="#63b8ff" points="436.76,-195.4 447.08,-197.8 440.51,-189.49 436.76,-195.4"/>
</a>
</g>
</g>
<!-- Node11&#45;&gt;Node2 -->
<g id="edge15_Node000011_Node000002" class="edge">
<title>Node11&#45;&gt;Node2</title>
<g id="a_edge15_Node000011_Node000002"><a xlink:title=" ">
<path fill="none" stroke="#63b8ff" d="M334.01,-126.97C316,-117.03 294.35,-105.09 277.9,-96.01"/>
<polygon fill="#63b8ff" stroke="#63b8ff" points="332.6,-130.19 343.04,-131.95 335.98,-124.06 332.6,-130.19"/>
</a>
</g>
</g>
<!-- Node11&#45;&gt;Node4 -->
<g id="edge16_Node000011_Node000004" class="edge">
<title>Node11&#45;&gt;Node4</title>
<g id="a_edge16_Node000011_Node000004"><a xlink:title=" ">
<path fill="none" stroke="#63b8ff" d="M361.85,-122.09C356.19,-105 346.68,-82.25 332.5,-66 319.25,-50.82 300.27,-38.69 284.12,-30.17"/>
<polygon fill="#63b8ff" stroke="#63b8ff" points="358.59,-123.37 364.89,-131.89 365.27,-121.3 358.59,-123.37"/>
</a>
</g>
</g>
</g>
</svg>
