<?xml version="1.0" encoding="UTF-8" standalone="no"?>
<!DOCTYPE svg PUBLIC "-//W3C//DTD SVG 1.1//EN"
 "http://www.w3.org/Graphics/SVG/1.1/DTD/svg11.dtd">
<!-- Generated by graphviz version 2.43.0 (0)
 -->
<!-- Title: userver/tracing/scope_time.hpp Pages: 1 -->
<svg width="860pt" height="225pt"
 viewBox="0.00 0.00 860.00 225.00" xmlns="http://www.w3.org/2000/svg" xmlns:xlink="http://www.w3.org/1999/xlink">
<g id="graph0" class="graph" transform="scale(1 1) rotate(0) translate(4 221)">
<title>userver/tracing/scope_time.hpp</title>
<!-- Node1 -->
<g id="Node000001" class="node">
<title>Node1</title>
<g id="a_Node000001"><a xlink:title="Type to measure execution time of a scope.">
<polygon fill="#999999" stroke="#666666" points="191,-217 69,-217 69,-187 191,-187 191,-217"/>
<text text-anchor="start" x="77" y="-205" font-family="Helvetica,sans-Serif" font-size="10.00">userver/tracing/scope</text>
<text text-anchor="middle" x="130" y="-194" font-family="Helvetica,sans-Serif" font-size="10.00">_time.hpp</text>
</a>
</g>
</g>
<!-- Node2 -->
<g id="Node000002" class="node">
<title>Node2</title>
<g id="a_Node000002"><a xlink:title=" ">
<polygon fill="#e0e0e0" stroke="#999999" points="61,-145.5 11,-145.5 11,-126.5 61,-126.5 61,-145.5"/>
<text text-anchor="middle" x="36" y="-133.5" font-family="Helvetica,sans-Serif" font-size="10.00">atomic</text>
</a>
</g>
</g>
<!-- Node1&#45;&gt;Node2 -->
<g id="edge1_Node000001_Node000002" class="edge">
<title>Node1&#45;&gt;Node2</title>
<g id="a_edge1_Node000001_Node000002"><a xlink:title=" ">
<path fill="none" stroke="#63b8ff" d="M109.14,-186.8C93.68,-176.27 72.68,-161.97 57.15,-151.4"/>
<polygon fill="#63b8ff" stroke="#63b8ff" points="58.95,-148.39 48.72,-145.66 55.01,-154.18 58.95,-148.39"/>
</a>
</g>
</g>
<!-- Node3 -->
<g id="Node000003" class="node">
<title>Node3</title>
<g id="a_Node000003"><a xlink:title=" ">
<polygon fill="#e0e0e0" stroke="#999999" points="129,-145.5 79,-145.5 79,-126.5 129,-126.5 129,-145.5"/>
<text text-anchor="middle" x="104" y="-133.5" font-family="Helvetica,sans-Serif" font-size="10.00">chrono</text>
</a>
</g>
</g>
<!-- Node1&#45;&gt;Node3 -->
<g id="edge2_Node000001_Node000003" class="edge">
<title>Node1&#45;&gt;Node3</title>
<g id="a_edge2_Node000001_Node000003"><a xlink:title=" ">
<path fill="none" stroke="#63b8ff" d="M124.23,-186.8C120.45,-177.5 115.49,-165.27 111.42,-155.26"/>
<polygon fill="#63b8ff" stroke="#63b8ff" points="114.6,-153.79 107.59,-145.84 108.11,-156.43 114.6,-153.79"/>
</a>
</g>
</g>
<!-- Node4 -->
<g id="Node000004" class="node">
<title>Node4</title>
<g id="a_Node000004"><a xlink:title=" ">
<polygon fill="#e0e0e0" stroke="#999999" points="44,-79.5 0,-79.5 0,-60.5 44,-60.5 44,-79.5"/>
<text text-anchor="middle" x="22" y="-67.5" font-family="Helvetica,sans-Serif" font-size="10.00">string</text>
</a>
</g>
</g>
<!-- Node1&#45;&gt;Node4 -->
<g id="edge3_Node000001_Node000004" class="edge">
<title>Node1&#45;&gt;Node4</title>
<g id="a_edge3_Node000001_Node000004"><a xlink:title=" ">
<path fill="none" stroke="#63b8ff" d="M136.42,-186.98C143.18,-169.91 151.18,-140.9 138,-121 115.34,-86.8 90.59,-101.44 53,-85 52,-84.56 50.98,-84.11 49.95,-83.66"/>
<polygon fill="#63b8ff" stroke="#63b8ff" points="51.21,-80.39 40.66,-79.51 48.36,-86.78 51.21,-80.39"/>
</a>
</g>
</g>
<!-- Node5 -->
<g id="Node000005" class="node">
<title>Node5</title>
<g id="a_Node000005"><a xlink:href="../../d6/def/log__extra_8hpp.html" target="_top" xlink:title="Extra tskv fields storage.">
<polygon fill="white" stroke="#666666" points="430,-151 320,-151 320,-121 430,-121 430,-151"/>
<text text-anchor="start" x="328" y="-139" font-family="Helvetica,sans-Serif" font-size="10.00">userver/logging/log</text>
<text text-anchor="middle" x="375" y="-128" font-family="Helvetica,sans-Serif" font-size="10.00">_extra.hpp</text>
</a>
</g>
</g>
<!-- Node1&#45;&gt;Node5 -->
<g id="edge4_Node000001_Node000005" class="edge">
<title>Node1&#45;&gt;Node5</title>
<g id="a_edge4_Node000001_Node000005"><a xlink:title=" ">
<path fill="none" stroke="#63b8ff" d="M183.77,-186.95C221.42,-177.12 271.89,-163.93 311.53,-153.58"/>
<polygon fill="#63b8ff" stroke="#63b8ff" points="312.57,-156.93 321.36,-151.01 310.8,-150.15 312.57,-156.93"/>
</a>
</g>
</g>
<!-- Node5&#45;&gt;Node4 -->
<g id="edge6_Node000005_Node000004" class="edge">
<title>Node5&#45;&gt;Node4</title>
<g id="a_edge6_Node000005_Node000004"><a xlink:title=" ">
<path fill="none" stroke="#63b8ff" d="M319.88,-130.99C254.96,-125.24 144.37,-112.18 53,-85 51.37,-84.51 49.71,-83.96 48.05,-83.36"/>
<polygon fill="#63b8ff" stroke="#63b8ff" points="49.32,-80.1 38.74,-79.55 46.67,-86.58 49.32,-80.1"/>
</a>
</g>
</g>
<!-- Node6 -->
<g id="Node000006" class="node">
<title>Node6</title>
<g id="a_Node000006"><a xlink:title=" ">
<polygon fill="#e0e0e0" stroke="#999999" points="699.5,-79.5 616.5,-79.5 616.5,-60.5 699.5,-60.5 699.5,-79.5"/>
<text text-anchor="middle" x="658" y="-67.5" font-family="Helvetica,sans-Serif" font-size="10.00">initializer_list</text>
</a>
</g>
</g>
<!-- Node5&#45;&gt;Node6 -->
<g id="edge5_Node000005_Node000006" class="edge">
<title>Node5&#45;&gt;Node6</title>
<g id="a_edge5_Node000005_Node000006"><a xlink:title=" ">
<path fill="none" stroke="#63b8ff" d="M430.14,-123.31C476.17,-113.44 543.47,-98.76 602,-85 606.12,-84.03 610.4,-83 614.67,-81.96"/>
<polygon fill="#63b8ff" stroke="#63b8ff" points="615.7,-85.31 624.58,-79.52 614.03,-78.51 615.7,-85.31"/>
</a>
</g>
</g>
<!-- Node7 -->
<g id="Node000007" class="node">
<title>Node7</title>
<g id="a_Node000007"><a xlink:title=" ">
<polygon fill="#e0e0e0" stroke="#999999" points="506.5,-19 461.5,-19 461.5,0 506.5,0 506.5,-19"/>
<text text-anchor="middle" x="484" y="-7" font-family="Helvetica,sans-Serif" font-size="10.00">utility</text>
</a>
</g>
</g>
<!-- Node5&#45;&gt;Node7 -->
<g id="edge7_Node000005_Node000007" class="edge">
<title>Node5&#45;&gt;Node7</title>
<g id="a_edge7_Node000005_Node000007"><a xlink:title=" ">
<path fill="none" stroke="#63b8ff" d="M430.16,-128.32C481.33,-120.85 552.06,-106.86 569,-85 577.17,-74.46 575.9,-66.41 569,-55 557.6,-36.16 535.29,-24.91 516.39,-18.43"/>
<polygon fill="#63b8ff" stroke="#63b8ff" points="517.21,-15.02 506.62,-15.39 515.13,-21.7 517.21,-15.02"/>
</a>
</g>
</g>
<!-- Node8 -->
<g id="Node000008" class="node">
<title>Node8</title>
<g id="a_Node000008"><a xlink:title=" ">
<polygon fill="#e0e0e0" stroke="#999999" points="400.5,-79.5 349.5,-79.5 349.5,-60.5 400.5,-60.5 400.5,-79.5"/>
<text text-anchor="middle" x="375" y="-67.5" font-family="Helvetica,sans-Serif" font-size="10.00">variant</text>
</a>
</g>
</g>
<!-- Node5&#45;&gt;Node8 -->
<g id="edge8_Node000005_Node000008" class="edge">
<title>Node5&#45;&gt;Node8</title>
<g id="a_edge8_Node000005_Node000008"><a xlink:title=" ">
<path fill="none" stroke="#63b8ff" d="M375,-120.8C375,-111.7 375,-99.79 375,-89.9"/>
<polygon fill="#63b8ff" stroke="#63b8ff" points="378.5,-89.84 375,-79.84 371.5,-89.84 378.5,-89.84"/>
</a>
</g>
</g>
<!-- Node9 -->
<g id="Node000009" class="node">
<title>Node9</title>
<g id="a_Node000009"><a xlink:title=" ">
<polygon fill="#e0e0e0" stroke="#999999" points="559.5,-85 418.5,-85 418.5,-55 559.5,-55 559.5,-85"/>
<text text-anchor="start" x="426.5" y="-73" font-family="Helvetica,sans-Serif" font-size="10.00">boost/container/container</text>
<text text-anchor="middle" x="489" y="-62" font-family="Helvetica,sans-Serif" font-size="10.00">_fwd.hpp</text>
</a>
</g>
</g>
<!-- Node5&#45;&gt;Node9 -->
<g id="edge9_Node000005_Node000009" class="edge">
<title>Node5&#45;&gt;Node9</title>
<g id="a_edge9_Node000005_Node000009"><a xlink:title=" ">
<path fill="none" stroke="#63b8ff" d="M400.02,-120.95C416.2,-111.87 437.48,-99.93 455.16,-90"/>
<polygon fill="#63b8ff" stroke="#63b8ff" points="457.03,-92.96 464.04,-85.01 453.61,-86.86 457.03,-92.96"/>
</a>
</g>
</g>
<!-- Node10 -->
<g id="Node000010" class="node">
<title>Node10</title>
<g id="a_Node000010"><a xlink:href="../../d2/d84/select_8hpp.html" target="_top" xlink:title="Utilities for selection of platform specific values.">
<polygon fill="white" stroke="#666666" points="214,-79.5 62,-79.5 62,-60.5 214,-60.5 214,-79.5"/>
<text text-anchor="middle" x="138" y="-67.5" font-family="Helvetica,sans-Serif" font-size="10.00">userver/compiler/select.hpp</text>
</a>
</g>
</g>
<!-- Node5&#45;&gt;Node10 -->
<g id="edge10_Node000005_Node000010" class="edge">
<title>Node5&#45;&gt;Node10</title>
<g id="a_edge10_Node000005_Node000010"><a xlink:title=" ">
<path fill="none" stroke="#63b8ff" d="M322.99,-120.95C279.78,-109.29 219.13,-92.91 179.22,-82.13"/>
<polygon fill="#63b8ff" stroke="#63b8ff" points="180.11,-78.75 169.54,-79.52 178.28,-85.5 180.11,-78.75"/>
</a>
</g>
</g>
<!-- Node12 -->
<g id="Node000012" class="node">
<title>Node12</title>
<g id="a_Node000012"><a xlink:href="../../db/dfb/universal_2include_2userver_2logging_2fwd_8hpp.html" target="_top" xlink:title="Forward declarations for logging types.">
<polygon fill="white" stroke="#666666" points="852,-79.5 718,-79.5 718,-60.5 852,-60.5 852,-79.5"/>
<text text-anchor="middle" x="785" y="-67.5" font-family="Helvetica,sans-Serif" font-size="10.00">userver/logging/fwd.hpp</text>
</a>
</g>
</g>
<!-- Node5&#45;&gt;Node12 -->
<g id="edge12_Node000005_Node000012" class="edge">
<title>Node5&#45;&gt;Node12</title>
<g id="a_edge12_Node000005_Node000012"><a xlink:title=" ">
<path fill="none" stroke="#63b8ff" d="M430.05,-127.34C496.33,-117.98 610.97,-101.36 709,-85 715.76,-83.87 722.84,-82.64 729.86,-81.38"/>
<polygon fill="#63b8ff" stroke="#63b8ff" points="730.82,-84.77 740.03,-79.54 729.57,-77.88 730.82,-84.77"/>
</a>
</g>
</g>
<!-- Node14 -->
<g id="Node000014" class="node">
<title>Node14</title>
<g id="a_Node000014"><a xlink:href="../../d5/d02/fast__pimpl_8hpp.html" target="_top" xlink:title="Implements pimpl idiom without dynamic memory allocation.">
<polygon fill="white" stroke="#666666" points="331.5,-85 232.5,-85 232.5,-55 331.5,-55 331.5,-85"/>
<text text-anchor="start" x="240.5" y="-73" font-family="Helvetica,sans-Serif" font-size="10.00">userver/utils/fast</text>
<text text-anchor="middle" x="282" y="-62" font-family="Helvetica,sans-Serif" font-size="10.00">_pimpl.hpp</text>
</a>
</g>
</g>
<!-- Node5&#45;&gt;Node14 -->
<g id="edge14_Node000005_Node000014" class="edge">
<title>Node5&#45;&gt;Node14</title>
<g id="a_edge14_Node000005_Node000014"><a xlink:title=" ">
<path fill="none" stroke="#63b8ff" d="M354.36,-120.8C341.6,-112.01 325.02,-100.61 310.96,-90.93"/>
<polygon fill="#63b8ff" stroke="#63b8ff" points="312.8,-87.95 302.58,-85.16 308.84,-93.72 312.8,-87.95"/>
</a>
</g>
</g>
<!-- Node11 -->
<g id="Node000011" class="node">
<title>Node11</title>
<g id="a_Node000011"><a xlink:title=" ">
<polygon fill="#e0e0e0" stroke="#999999" points="181.5,-19 128.5,-19 128.5,0 181.5,0 181.5,-19"/>
<text text-anchor="middle" x="155" y="-7" font-family="Helvetica,sans-Serif" font-size="10.00">cstddef</text>
</a>
</g>
</g>
<!-- Node10&#45;&gt;Node11 -->
<g id="edge11_Node000010_Node000011" class="edge">
<title>Node10&#45;&gt;Node11</title>
<g id="a_edge11_Node000010_Node000011"><a xlink:title=" ">
<path fill="none" stroke="#63b8ff" d="M140.51,-60.37C142.89,-52.16 146.56,-39.54 149.61,-29.05"/>
<polygon fill="#63b8ff" stroke="#63b8ff" points="153.05,-29.75 152.48,-19.17 146.33,-27.79 153.05,-29.75"/>
</a>
</g>
</g>
<!-- Node13 -->
<g id="Node000013" class="node">
<title>Node13</title>
<g id="a_Node000013"><a xlink:title=" ">
<polygon fill="#e0e0e0" stroke="#999999" points="814,-19 756,-19 756,0 814,0 814,-19"/>
<text text-anchor="middle" x="785" y="-7" font-family="Helvetica,sans-Serif" font-size="10.00">memory</text>
</a>
</g>
</g>
<!-- Node12&#45;&gt;Node13 -->
<g id="edge13_Node000012_Node000013" class="edge">
<title>Node12&#45;&gt;Node13</title>
<g id="a_edge13_Node000012_Node000013"><a xlink:title=" ">
<path fill="none" stroke="#63b8ff" d="M785,-60.37C785,-52.25 785,-39.81 785,-29.39"/>
<polygon fill="#63b8ff" stroke="#63b8ff" points="788.5,-29.17 785,-19.17 781.5,-29.17 788.5,-29.17"/>
</a>
</g>
</g>
<!-- Node14&#45;&gt;Node7 -->
<g id="edge18_Node000014_Node000007" class="edge">
<title>Node14&#45;&gt;Node7</title>
<g id="a_edge18_Node000014_Node000007"><a xlink:title=" ">
<path fill="none" stroke="#63b8ff" d="M330.38,-54.99C367.88,-44.13 418.79,-29.38 451.53,-19.9"/>
<polygon fill="#63b8ff" stroke="#63b8ff" points="452.85,-23.17 461.48,-17.02 450.9,-16.44 452.85,-23.17"/>
</a>
</g>
</g>
<!-- Node14&#45;&gt;Node11 -->
<g id="edge15_Node000014_Node000011" class="edge">
<title>Node14&#45;&gt;Node11</title>
<g id="a_edge15_Node000014_Node000011"><a xlink:title=" ">
<path fill="none" stroke="#63b8ff" d="M251.58,-54.99C230.77,-45.4 203.38,-32.79 183.09,-23.44"/>
<polygon fill="#63b8ff" stroke="#63b8ff" points="184.3,-20.14 173.76,-19.14 181.37,-26.5 184.3,-20.14"/>
</a>
</g>
</g>
<!-- Node15 -->
<g id="Node000015" class="node">
<title>Node15</title>
<g id="a_Node000015"><a xlink:title=" ">
<polygon fill="#e0e0e0" stroke="#999999" points="339.5,-19 302.5,-19 302.5,0 339.5,0 339.5,-19"/>
<text text-anchor="middle" x="321" y="-7" font-family="Helvetica,sans-Serif" font-size="10.00">new</text>
</a>
</g>
</g>
<!-- Node14&#45;&gt;Node15 -->
<g id="edge16_Node000014_Node000015" class="edge">
<title>Node14&#45;&gt;Node15</title>
<g id="a_edge16_Node000014_Node000015"><a xlink:title=" ">
<path fill="none" stroke="#63b8ff" d="M291.44,-54.84C296.87,-46.69 303.73,-36.4 309.48,-27.78"/>
<polygon fill="#63b8ff" stroke="#63b8ff" points="312.52,-29.53 315.16,-19.27 306.7,-25.65 312.52,-29.53"/>
</a>
</g>
</g>
<!-- Node16 -->
<g id="Node000016" class="node">
<title>Node16</title>
<g id="a_Node000016"><a xlink:title=" ">
<polygon fill="#e0e0e0" stroke="#999999" points="284.5,-19 215.5,-19 215.5,0 284.5,0 284.5,-19"/>
<text text-anchor="middle" x="250" y="-7" font-family="Helvetica,sans-Serif" font-size="10.00">type_traits</text>
</a>
</g>
</g>
<!-- Node14&#45;&gt;Node16 -->
<g id="edge17_Node000014_Node000016" class="edge">
<title>Node14&#45;&gt;Node16</title>
<g id="a_edge17_Node000014_Node000016"><a xlink:title=" ">
<path fill="none" stroke="#63b8ff" d="M274.25,-54.84C269.85,-46.78 264.29,-36.62 259.6,-28.06"/>
<polygon fill="#63b8ff" stroke="#63b8ff" points="262.66,-26.36 254.8,-19.27 256.52,-29.72 262.66,-26.36"/>
</a>
</g>
</g>
</g>
</svg>
