<?xml version="1.0" encoding="UTF-8" standalone="no"?>
<!DOCTYPE svg PUBLIC "-//W3C//DTD SVG 1.1//EN"
 "http://www.w3.org/Graphics/SVG/1.1/DTD/svg11.dtd">
<!-- Generated by graphviz version 2.43.0 (0)
 -->
<!-- Title: userver/http/common_headers.hpp Pages: 1 -->
<svg width="907pt" height="280pt"
 viewBox="0.00 0.00 906.50 280.00" xmlns="http://www.w3.org/2000/svg" xmlns:xlink="http://www.w3.org/1999/xlink">
<g id="graph0" class="graph" transform="scale(1 1) rotate(0) translate(4 276)">
<title>userver/http/common_headers.hpp</title>
<!-- Node1 -->
<g id="Node000001" class="node">
<title>Node1</title>
<g id="a_Node000001"><a xlink:title="Common HTTP header names.">
<polygon fill="#999999" stroke="#666666" points="467.5,-272 345.5,-272 345.5,-242 467.5,-242 467.5,-272"/>
<text text-anchor="start" x="353.5" y="-260" font-family="Helvetica,sans-Serif" font-size="10.00">userver/http/common</text>
<text text-anchor="middle" x="406.5" y="-249" font-family="Helvetica,sans-Serif" font-size="10.00">_headers.hpp</text>
</a>
</g>
</g>
<!-- Node2 -->
<g id="Node000002" class="node">
<title>Node2</title>
<g id="a_Node000002"><a xlink:href="../../de/dd5/predefined__header_8hpp_source.html" target="_top" xlink:title=" ">
<polygon fill="white" stroke="#666666" points="472,-206 341,-206 341,-176 472,-176 472,-206"/>
<text text-anchor="start" x="349" y="-194" font-family="Helvetica,sans-Serif" font-size="10.00">userver/http/predefined</text>
<text text-anchor="middle" x="406.5" y="-183" font-family="Helvetica,sans-Serif" font-size="10.00">_header.hpp</text>
</a>
</g>
</g>
<!-- Node1&#45;&gt;Node2 -->
<g id="edge1_Node000001_Node000002" class="edge">
<title>Node1&#45;&gt;Node2</title>
<g id="a_edge1_Node000001_Node000002"><a xlink:title=" ">
<path fill="none" stroke="#63b8ff" d="M406.5,-241.8C406.5,-234.34 406.5,-224.99 406.5,-216.41"/>
<polygon fill="#63b8ff" stroke="#63b8ff" points="410,-216.16 406.5,-206.16 403,-216.16 410,-216.16"/>
</a>
</g>
</g>
<!-- Node3 -->
<g id="Node000003" class="node">
<title>Node3</title>
<g id="a_Node000003"><a xlink:title=" ">
<polygon fill="#e0e0e0" stroke="#999999" points="898.5,-19 854.5,-19 854.5,0 898.5,0 898.5,-19"/>
<text text-anchor="middle" x="876.5" y="-7" font-family="Helvetica,sans-Serif" font-size="10.00">string</text>
</a>
</g>
</g>
<!-- Node2&#45;&gt;Node3 -->
<g id="edge2_Node000002_Node000003" class="edge">
<title>Node2&#45;&gt;Node3</title>
<g id="a_edge2_Node000002_Node000003"><a xlink:title=" ">
<path fill="none" stroke="#63b8ff" d="M472.12,-183.66C589.5,-170.81 827.83,-137.39 877.5,-74 887.27,-61.54 885.76,-43.07 882.56,-29.26"/>
<polygon fill="#63b8ff" stroke="#63b8ff" points="885.86,-28.08 879.8,-19.39 879.12,-29.96 885.86,-28.08"/>
</a>
</g>
</g>
<!-- Node4 -->
<g id="Node000004" class="node">
<title>Node4</title>
<g id="a_Node000004"><a xlink:title=" ">
<polygon fill="#e0e0e0" stroke="#999999" points="73,-19 0,-19 0,0 73,0 73,-19"/>
<text text-anchor="middle" x="36.5" y="-7" font-family="Helvetica,sans-Serif" font-size="10.00">string_view</text>
</a>
</g>
</g>
<!-- Node2&#45;&gt;Node4 -->
<g id="edge3_Node000002_Node000004" class="edge">
<title>Node2&#45;&gt;Node4</title>
<g id="a_edge3_Node000002_Node000004"><a xlink:title=" ">
<path fill="none" stroke="#63b8ff" d="M340.95,-190.34C256.13,-186.85 110.82,-166.67 39.5,-74 29.83,-61.44 30.07,-42.99 32.14,-29.21"/>
<polygon fill="#63b8ff" stroke="#63b8ff" points="35.58,-29.84 34.04,-19.36 28.71,-28.52 35.58,-29.84"/>
</a>
</g>
</g>
<!-- Node5 -->
<g id="Node000005" class="node">
<title>Node5</title>
<g id="a_Node000005"><a xlink:title=" ">
<polygon fill="#e0e0e0" stroke="#999999" points="493,-134.5 426,-134.5 426,-115.5 493,-115.5 493,-134.5"/>
<text text-anchor="middle" x="459.5" y="-122.5" font-family="Helvetica,sans-Serif" font-size="10.00">fmt/core.h</text>
</a>
</g>
</g>
<!-- Node2&#45;&gt;Node5 -->
<g id="edge4_Node000002_Node000005" class="edge">
<title>Node2&#45;&gt;Node5</title>
<g id="a_edge4_Node000002_Node000005"><a xlink:title=" ">
<path fill="none" stroke="#63b8ff" d="M418.26,-175.8C426.36,-166.01 437.16,-152.98 445.67,-142.7"/>
<polygon fill="#63b8ff" stroke="#63b8ff" points="448.49,-144.78 452.18,-134.84 443.1,-140.31 448.49,-144.78"/>
</a>
</g>
</g>
<!-- Node6 -->
<g id="Node000006" class="node">
<title>Node6</title>
<g id="a_Node000006"><a xlink:href="../../d7/d32/trivial__map_8hpp.html" target="_top" xlink:title="Bidirectional map|sets over string literals or other trivial types.">
<polygon fill="white" stroke="#666666" points="408,-140 299,-140 299,-110 408,-110 408,-140"/>
<text text-anchor="start" x="307" y="-128" font-family="Helvetica,sans-Serif" font-size="10.00">userver/utils/trivial</text>
<text text-anchor="middle" x="353.5" y="-117" font-family="Helvetica,sans-Serif" font-size="10.00">_map.hpp</text>
</a>
</g>
</g>
<!-- Node2&#45;&gt;Node6 -->
<g id="edge5_Node000002_Node000006" class="edge">
<title>Node2&#45;&gt;Node6</title>
<g id="a_edge5_Node000002_Node000006"><a xlink:title=" ">
<path fill="none" stroke="#63b8ff" d="M394.74,-175.8C387.94,-167.59 379.26,-157.1 371.61,-147.87"/>
<polygon fill="#63b8ff" stroke="#63b8ff" points="374.3,-145.63 365.23,-140.16 368.91,-150.1 374.3,-145.63"/>
</a>
</g>
</g>
<!-- Node6&#45;&gt;Node3 -->
<g id="edge8_Node000006_Node000003" class="edge">
<title>Node6&#45;&gt;Node3</title>
<g id="a_edge8_Node000006_Node000003"><a xlink:title=" ">
<path fill="none" stroke="#63b8ff" d="M408.05,-111.4C410.9,-110.89 413.73,-110.42 416.5,-110 513.72,-95.3 781.09,-135.88 857.5,-74 870.62,-63.37 874.94,-44.06 876.24,-29.51"/>
<polygon fill="#63b8ff" stroke="#63b8ff" points="879.76,-29.28 876.75,-19.13 872.77,-28.94 879.76,-29.28"/>
</a>
</g>
</g>
<!-- Node6&#45;&gt;Node4 -->
<g id="edge9_Node000006_Node000004" class="edge">
<title>Node6&#45;&gt;Node4</title>
<g id="a_edge9_Node000006_Node000004"><a xlink:title=" ">
<path fill="none" stroke="#63b8ff" d="M298.71,-121.6C222.74,-117.17 90.75,-105.11 55.5,-74 42.97,-62.94 38.54,-44 37.06,-29.68"/>
<polygon fill="#63b8ff" stroke="#63b8ff" points="40.53,-29.17 36.4,-19.42 33.55,-29.62 40.53,-29.17"/>
</a>
</g>
</g>
<!-- Node7 -->
<g id="Node000007" class="node">
<title>Node7</title>
<g id="a_Node000007"><a xlink:title=" ">
<polygon fill="#e0e0e0" stroke="#999999" points="118,-74 65,-74 65,-55 118,-55 118,-74"/>
<text text-anchor="middle" x="91.5" y="-62" font-family="Helvetica,sans-Serif" font-size="10.00">cstddef</text>
</a>
</g>
</g>
<!-- Node6&#45;&gt;Node7 -->
<g id="edge6_Node000006_Node000007" class="edge">
<title>Node6&#45;&gt;Node7</title>
<g id="a_edge6_Node000006_Node000007"><a xlink:title=" ">
<path fill="none" stroke="#63b8ff" d="M298.65,-112.09C255.09,-102.58 192.36,-88.78 128.13,-74.12"/>
<polygon fill="#63b8ff" stroke="#63b8ff" points="128.76,-70.67 118.23,-71.85 127.2,-77.5 128.76,-70.67"/>
</a>
</g>
</g>
<!-- Node8 -->
<g id="Node000008" class="node">
<title>Node8</title>
<g id="a_Node000008"><a xlink:title=" ">
<polygon fill="#e0e0e0" stroke="#999999" points="192.5,-74 136.5,-74 136.5,-55 192.5,-55 192.5,-74"/>
<text text-anchor="middle" x="164.5" y="-62" font-family="Helvetica,sans-Serif" font-size="10.00">optional</text>
</a>
</g>
</g>
<!-- Node6&#45;&gt;Node8 -->
<g id="edge7_Node000006_Node000008" class="edge">
<title>Node6&#45;&gt;Node8</title>
<g id="a_edge7_Node000006_Node000008"><a xlink:title=" ">
<path fill="none" stroke="#63b8ff" d="M308.23,-109.99C275.75,-99.94 232.51,-86.55 201.97,-77.1"/>
<polygon fill="#63b8ff" stroke="#63b8ff" points="202.72,-73.67 192.13,-74.05 200.65,-80.35 202.72,-73.67"/>
</a>
</g>
</g>
<!-- Node9 -->
<g id="Node000009" class="node">
<title>Node9</title>
<g id="a_Node000009"><a xlink:title=" ">
<polygon fill="#e0e0e0" stroke="#999999" points="280,-74 211,-74 211,-55 280,-55 280,-74"/>
<text text-anchor="middle" x="245.5" y="-62" font-family="Helvetica,sans-Serif" font-size="10.00">type_traits</text>
</a>
</g>
</g>
<!-- Node6&#45;&gt;Node9 -->
<g id="edge10_Node000006_Node000009" class="edge">
<title>Node6&#45;&gt;Node9</title>
<g id="a_edge10_Node000006_Node000009"><a xlink:title=" ">
<path fill="none" stroke="#63b8ff" d="M327.63,-109.99C310.26,-100.58 287.49,-88.24 270.33,-78.95"/>
<polygon fill="#63b8ff" stroke="#63b8ff" points="271.91,-75.82 261.45,-74.14 268.58,-81.98 271.91,-75.82"/>
</a>
</g>
</g>
<!-- Node10 -->
<g id="Node000010" class="node">
<title>Node10</title>
<g id="a_Node000010"><a xlink:title=" ">
<polygon fill="#e0e0e0" stroke="#999999" points="343,-74 298,-74 298,-55 343,-55 343,-74"/>
<text text-anchor="middle" x="320.5" y="-62" font-family="Helvetica,sans-Serif" font-size="10.00">utility</text>
</a>
</g>
</g>
<!-- Node6&#45;&gt;Node10 -->
<g id="edge11_Node000006_Node000010" class="edge">
<title>Node6&#45;&gt;Node10</title>
<g id="a_edge11_Node000006_Node000010"><a xlink:title=" ">
<path fill="none" stroke="#63b8ff" d="M345.51,-109.84C340.97,-101.78 335.23,-91.62 330.4,-83.06"/>
<polygon fill="#63b8ff" stroke="#63b8ff" points="333.41,-81.26 325.44,-74.27 327.31,-84.7 333.41,-81.26"/>
</a>
</g>
</g>
<!-- Node11 -->
<g id="Node000011" class="node">
<title>Node11</title>
<g id="a_Node000011"><a xlink:title=" ">
<polygon fill="#e0e0e0" stroke="#999999" points="412,-74 361,-74 361,-55 412,-55 412,-74"/>
<text text-anchor="middle" x="386.5" y="-62" font-family="Helvetica,sans-Serif" font-size="10.00">variant</text>
</a>
</g>
</g>
<!-- Node6&#45;&gt;Node11 -->
<g id="edge12_Node000006_Node000011" class="edge">
<title>Node6&#45;&gt;Node11</title>
<g id="a_edge12_Node000006_Node000011"><a xlink:title=" ">
<path fill="none" stroke="#63b8ff" d="M361.49,-109.84C366.03,-101.78 371.77,-91.62 376.6,-83.06"/>
<polygon fill="#63b8ff" stroke="#63b8ff" points="379.69,-84.7 381.56,-74.27 373.59,-81.26 379.69,-84.7"/>
</a>
</g>
</g>
<!-- Node12 -->
<g id="Node000012" class="node">
<title>Node12</title>
<g id="a_Node000012"><a xlink:title=" ">
<polygon fill="#e0e0e0" stroke="#999999" points="509,-74 430,-74 430,-55 509,-55 509,-74"/>
<text text-anchor="middle" x="469.5" y="-62" font-family="Helvetica,sans-Serif" font-size="10.00">fmt/format.h</text>
</a>
</g>
</g>
<!-- Node6&#45;&gt;Node12 -->
<g id="edge13_Node000006_Node000012" class="edge">
<title>Node6&#45;&gt;Node12</title>
<g id="a_edge13_Node000006_Node000012"><a xlink:title=" ">
<path fill="none" stroke="#63b8ff" d="M381.28,-109.99C400.12,-100.49 424.85,-88.02 443.34,-78.69"/>
<polygon fill="#63b8ff" stroke="#63b8ff" points="445.02,-81.77 452.37,-74.14 441.86,-75.52 445.02,-81.77"/>
</a>
</g>
</g>
<!-- Node13 -->
<g id="Node000013" class="node">
<title>Node13</title>
<g id="a_Node000013"><a xlink:href="../../d1/d37/demangle_8hpp.html" target="_top" xlink:title="Returns a human&#45;readable representation of provided type name.">
<polygon fill="white" stroke="#666666" points="848.5,-74 676.5,-74 676.5,-55 848.5,-55 848.5,-74"/>
<text text-anchor="middle" x="762.5" y="-62" font-family="Helvetica,sans-Serif" font-size="10.00">userver/compiler/demangle.hpp</text>
</a>
</g>
</g>
<!-- Node6&#45;&gt;Node13 -->
<g id="edge14_Node000006_Node000013" class="edge">
<title>Node6&#45;&gt;Node13</title>
<g id="a_edge14_Node000006_Node000013"><a xlink:title=" ">
<path fill="none" stroke="#63b8ff" d="M408.08,-111.55C410.92,-111.01 413.74,-110.48 416.5,-110 501.79,-95.07 599.73,-82.94 669.59,-75.13"/>
<polygon fill="#63b8ff" stroke="#63b8ff" points="670.14,-78.59 679.69,-74.01 669.36,-71.64 670.14,-78.59"/>
</a>
</g>
</g>
<!-- Node16 -->
<g id="Node000016" class="node">
<title>Node16</title>
<g id="a_Node000016"><a xlink:href="../../d2/d54/assert_8hpp.html" target="_top" xlink:title="Assertion macros UASSERT, UASSERT_MSG, UINVARIANT.">
<polygon fill="white" stroke="#666666" points="658,-74 527,-74 527,-55 658,-55 658,-74"/>
<text text-anchor="middle" x="592.5" y="-62" font-family="Helvetica,sans-Serif" font-size="10.00">userver/utils/assert.hpp</text>
</a>
</g>
</g>
<!-- Node6&#45;&gt;Node16 -->
<g id="edge18_Node000006_Node000016" class="edge">
<title>Node6&#45;&gt;Node16</title>
<g id="a_edge18_Node000006_Node000016"><a xlink:title=" ">
<path fill="none" stroke="#63b8ff" d="M408.03,-110.65C450.24,-100.32 507.97,-86.19 547.55,-76.5"/>
<polygon fill="#63b8ff" stroke="#63b8ff" points="548.57,-79.86 557.45,-74.08 546.9,-73.06 548.57,-79.86"/>
</a>
</g>
</g>
<!-- Node13&#45;&gt;Node3 -->
<g id="edge16_Node000013_Node000003" class="edge">
<title>Node13&#45;&gt;Node3</title>
<g id="a_edge16_Node000013_Node000003"><a xlink:title=" ">
<path fill="none" stroke="#63b8ff" d="M780.82,-54.98C799.16,-46.46 827.61,-33.23 848.73,-23.41"/>
<polygon fill="#63b8ff" stroke="#63b8ff" points="850.26,-26.56 857.85,-19.17 847.31,-20.21 850.26,-26.56"/>
</a>
</g>
</g>
<!-- Node14 -->
<g id="Node000014" class="node">
<title>Node14</title>
<g id="a_Node000014"><a xlink:title=" ">
<polygon fill="#e0e0e0" stroke="#999999" points="731.5,-19 681.5,-19 681.5,0 731.5,0 731.5,-19"/>
<text text-anchor="middle" x="706.5" y="-7" font-family="Helvetica,sans-Serif" font-size="10.00">chrono</text>
</a>
</g>
</g>
<!-- Node13&#45;&gt;Node14 -->
<g id="edge15_Node000013_Node000014" class="edge">
<title>Node13&#45;&gt;Node14</title>
<g id="a_edge15_Node000013_Node000014"><a xlink:title=" ">
<path fill="none" stroke="#63b8ff" d="M753.5,-54.98C745.31,-47.23 732.99,-35.58 723.03,-26.14"/>
<polygon fill="#63b8ff" stroke="#63b8ff" points="725.33,-23.5 715.66,-19.17 720.52,-28.59 725.33,-23.5"/>
</a>
</g>
</g>
<!-- Node15 -->
<g id="Node000015" class="node">
<title>Node15</title>
<g id="a_Node000015"><a xlink:title=" ">
<polygon fill="#e0e0e0" stroke="#999999" points="815,-19 750,-19 750,0 815,0 815,-19"/>
<text text-anchor="middle" x="782.5" y="-7" font-family="Helvetica,sans-Serif" font-size="10.00">typeindex</text>
</a>
</g>
</g>
<!-- Node13&#45;&gt;Node15 -->
<g id="edge17_Node000013_Node000015" class="edge">
<title>Node13&#45;&gt;Node15</title>
<g id="a_edge17_Node000013_Node000015"><a xlink:title=" ">
<path fill="none" stroke="#63b8ff" d="M765.8,-54.75C768.48,-47.65 772.35,-37.4 775.69,-28.56"/>
<polygon fill="#63b8ff" stroke="#63b8ff" points="779,-29.68 779.26,-19.09 772.45,-27.21 779,-29.68"/>
</a>
</g>
</g>
<!-- Node16&#45;&gt;Node4 -->
<g id="edge19_Node000016_Node000004" class="edge">
<title>Node16&#45;&gt;Node4</title>
<g id="a_edge19_Node000016_Node000004"><a xlink:title=" ">
<path fill="none" stroke="#63b8ff" d="M526.66,-55.96C523.56,-55.63 520.5,-55.31 517.5,-55 358.34,-38.62 169.25,-21.94 83.24,-14.5"/>
<polygon fill="#63b8ff" stroke="#63b8ff" points="83.3,-10.99 73.03,-13.62 82.69,-17.97 83.3,-10.99"/>
</a>
</g>
</g>
</g>
</svg>
