<?xml version="1.0" encoding="UTF-8" standalone="no"?>
<!DOCTYPE svg PUBLIC "-//W3C//DTD SVG 1.1//EN"
 "http://www.w3.org/Graphics/SVG/1.1/DTD/svg11.dtd">
<!-- Generated by graphviz version 2.43.0 (0)
 -->
<!-- Title: userver/dynamic_config/snapshot.hpp Pages: 1 -->
<svg width="785pt" height="170pt"
 viewBox="0.00 0.00 784.50 170.00" xmlns="http://www.w3.org/2000/svg" xmlns:xlink="http://www.w3.org/1999/xlink">
<g id="graph0" class="graph" transform="scale(1 1) rotate(0) translate(4 166)">
<title>userver/dynamic_config/snapshot.hpp</title>
<!-- Node1 -->
<g id="Node000001" class="node">
<title>Node1</title>
<g id="a_Node000001"><a xlink:title="The storage for a snapshot of configs.">
<polygon fill="#999999" stroke="#666666" points="229.5,-162 96.5,-162 96.5,-132 229.5,-132 229.5,-162"/>
<text text-anchor="start" x="104.5" y="-150" font-family="Helvetica,sans-Serif" font-size="10.00">userver/dynamic_config</text>
<text text-anchor="middle" x="163" y="-139" font-family="Helvetica,sans-Serif" font-size="10.00">/snapshot.hpp</text>
</a>
</g>
</g>
<!-- Node2 -->
<g id="Node000002" class="node">
<title>Node2</title>
<g id="a_Node000002"><a xlink:title=" ">
<polygon fill="#e0e0e0" stroke="#999999" points="56,-90.5 0,-90.5 0,-71.5 56,-71.5 56,-90.5"/>
<text text-anchor="middle" x="28" y="-78.5" font-family="Helvetica,sans-Serif" font-size="10.00">optional</text>
</a>
</g>
</g>
<!-- Node1&#45;&gt;Node2 -->
<g id="edge1_Node000001_Node000002" class="edge">
<title>Node1&#45;&gt;Node2</title>
<g id="a_edge1_Node000001_Node000002"><a xlink:title=" ">
<path fill="none" stroke="#63b8ff" d="M133.37,-131.95C110.01,-120.88 77.7,-105.56 55.03,-94.82"/>
<polygon fill="#63b8ff" stroke="#63b8ff" points="56.5,-91.64 45.97,-90.52 53.5,-97.96 56.5,-91.64"/>
</a>
</g>
</g>
<!-- Node3 -->
<g id="Node000003" class="node">
<title>Node3</title>
<g id="a_Node000003"><a xlink:title=" ">
<polygon fill="#e0e0e0" stroke="#999999" points="195.5,-24.5 126.5,-24.5 126.5,-5.5 195.5,-5.5 195.5,-24.5"/>
<text text-anchor="middle" x="161" y="-12.5" font-family="Helvetica,sans-Serif" font-size="10.00">type_traits</text>
</a>
</g>
</g>
<!-- Node1&#45;&gt;Node3 -->
<g id="edge2_Node000001_Node000003" class="edge">
<title>Node1&#45;&gt;Node3</title>
<g id="a_edge2_Node000001_Node000003"><a xlink:title=" ">
<path fill="none" stroke="#63b8ff" d="M170.28,-132C174.94,-122.21 180.56,-108.67 183,-96 185.52,-82.91 185.74,-79.05 183,-66 180.65,-54.82 175.64,-43.1 171,-33.81"/>
<polygon fill="#63b8ff" stroke="#63b8ff" points="174.02,-32.03 166.24,-24.83 167.83,-35.31 174.02,-32.03"/>
</a>
</g>
</g>
<!-- Node4 -->
<g id="Node000004" class="node">
<title>Node4</title>
<g id="a_Node000004"><a xlink:href="../../d8/d20/impl_2snapshot_8hpp_source.html" target="_top" xlink:title=" ">
<polygon fill="white" stroke="#666666" points="436.5,-96 303.5,-96 303.5,-66 436.5,-66 436.5,-96"/>
<text text-anchor="start" x="311.5" y="-84" font-family="Helvetica,sans-Serif" font-size="10.00">userver/dynamic_config</text>
<text text-anchor="middle" x="370" y="-73" font-family="Helvetica,sans-Serif" font-size="10.00">/impl/snapshot.hpp</text>
</a>
</g>
</g>
<!-- Node1&#45;&gt;Node4 -->
<g id="edge3_Node000001_Node000004" class="edge">
<title>Node1&#45;&gt;Node4</title>
<g id="a_edge3_Node000001_Node000004"><a xlink:title=" ">
<path fill="none" stroke="#63b8ff" d="M208.43,-131.95C239.84,-122.24 281.8,-109.27 315.09,-98.98"/>
<polygon fill="#63b8ff" stroke="#63b8ff" points="316.16,-102.31 324.68,-96.01 314.09,-95.62 316.16,-102.31"/>
</a>
</g>
</g>
<!-- Node12 -->
<g id="Node000012" class="node">
<title>Node12</title>
<g id="a_Node000012"><a xlink:href="../../d5/d02/fast__pimpl_8hpp.html" target="_top" xlink:title="Implements pimpl idiom without dynamic memory allocation.">
<polygon fill="white" stroke="#666666" points="173.5,-96 74.5,-96 74.5,-66 173.5,-66 173.5,-96"/>
<text text-anchor="start" x="82.5" y="-84" font-family="Helvetica,sans-Serif" font-size="10.00">userver/utils/fast</text>
<text text-anchor="middle" x="124" y="-73" font-family="Helvetica,sans-Serif" font-size="10.00">_pimpl.hpp</text>
</a>
</g>
</g>
<!-- Node1&#45;&gt;Node12 -->
<g id="edge12_Node000001_Node000012" class="edge">
<title>Node1&#45;&gt;Node12</title>
<g id="a_edge12_Node000001_Node000012"><a xlink:title=" ">
<path fill="none" stroke="#63b8ff" d="M154.34,-131.8C149.5,-123.84 143.34,-113.74 137.84,-104.71"/>
<polygon fill="#63b8ff" stroke="#63b8ff" points="140.82,-102.88 132.63,-96.16 134.85,-106.52 140.82,-102.88"/>
</a>
</g>
</g>
<!-- Node4&#45;&gt;Node3 -->
<g id="edge7_Node000004_Node000003" class="edge">
<title>Node4&#45;&gt;Node3</title>
<g id="a_edge7_Node000004_Node000003"><a xlink:title=" ">
<path fill="none" stroke="#63b8ff" d="M323.01,-65.95C289.96,-56.02 244.73,-42.34 205,-30 202.59,-29.25 200.1,-28.47 197.6,-27.69"/>
<polygon fill="#63b8ff" stroke="#63b8ff" points="198.56,-24.32 187.97,-24.65 196.46,-31 198.56,-24.32"/>
</a>
</g>
</g>
<!-- Node5 -->
<g id="Node000005" class="node">
<title>Node5</title>
<g id="a_Node000005"><a xlink:title=" ">
<polygon fill="#e0e0e0" stroke="#999999" points="319.5,-24.5 284.5,-24.5 284.5,-5.5 319.5,-5.5 319.5,-24.5"/>
<text text-anchor="middle" x="302" y="-12.5" font-family="Helvetica,sans-Serif" font-size="10.00">any</text>
</a>
</g>
</g>
<!-- Node4&#45;&gt;Node5 -->
<g id="edge4_Node000004_Node000005" class="edge">
<title>Node4&#45;&gt;Node5</title>
<g id="a_edge4_Node000004_Node000005"><a xlink:title=" ">
<path fill="none" stroke="#63b8ff" d="M354.91,-65.8C344.2,-55.72 329.83,-42.19 318.77,-31.78"/>
<polygon fill="#63b8ff" stroke="#63b8ff" points="321.08,-29.15 311.4,-24.84 316.28,-34.25 321.08,-29.15"/>
</a>
</g>
</g>
<!-- Node6 -->
<g id="Node000006" class="node">
<title>Node6</title>
<g id="a_Node000006"><a xlink:title=" ">
<polygon fill="#e0e0e0" stroke="#999999" points="266.5,-24.5 213.5,-24.5 213.5,-5.5 266.5,-5.5 266.5,-24.5"/>
<text text-anchor="middle" x="240" y="-12.5" font-family="Helvetica,sans-Serif" font-size="10.00">cstddef</text>
</a>
</g>
</g>
<!-- Node4&#45;&gt;Node6 -->
<g id="edge5_Node000004_Node000006" class="edge">
<title>Node4&#45;&gt;Node6</title>
<g id="a_edge5_Node000004_Node000006"><a xlink:title=" ">
<path fill="none" stroke="#63b8ff" d="M341.47,-65.95C319.07,-54.93 288.14,-39.7 266.33,-28.96"/>
<polygon fill="#63b8ff" stroke="#63b8ff" points="267.82,-25.79 257.3,-24.52 264.73,-32.07 267.82,-25.79"/>
</a>
</g>
</g>
<!-- Node7 -->
<g id="Node000007" class="node">
<title>Node7</title>
<g id="a_Node000007"><a xlink:title=" ">
<polygon fill="#e0e0e0" stroke="#999999" points="402.5,-24.5 337.5,-24.5 337.5,-5.5 402.5,-5.5 402.5,-24.5"/>
<text text-anchor="middle" x="370" y="-12.5" font-family="Helvetica,sans-Serif" font-size="10.00">exception</text>
</a>
</g>
</g>
<!-- Node4&#45;&gt;Node7 -->
<g id="edge6_Node000004_Node000007" class="edge">
<title>Node4&#45;&gt;Node7</title>
<g id="a_edge6_Node000004_Node000007"><a xlink:title=" ">
<path fill="none" stroke="#63b8ff" d="M370,-65.8C370,-56.7 370,-44.79 370,-34.9"/>
<polygon fill="#63b8ff" stroke="#63b8ff" points="373.5,-34.84 370,-24.84 366.5,-34.84 373.5,-34.84"/>
</a>
</g>
</g>
<!-- Node8 -->
<g id="Node000008" class="node">
<title>Node8</title>
<g id="a_Node000008"><a xlink:title=" ">
<polygon fill="#e0e0e0" stroke="#999999" points="485.5,-24.5 420.5,-24.5 420.5,-5.5 485.5,-5.5 485.5,-24.5"/>
<text text-anchor="middle" x="453" y="-12.5" font-family="Helvetica,sans-Serif" font-size="10.00">typeindex</text>
</a>
</g>
</g>
<!-- Node4&#45;&gt;Node8 -->
<g id="edge8_Node000004_Node000008" class="edge">
<title>Node4&#45;&gt;Node8</title>
<g id="a_edge8_Node000004_Node000008"><a xlink:title=" ">
<path fill="none" stroke="#63b8ff" d="M388.42,-65.8C401.74,-55.53 419.71,-41.67 433.31,-31.18"/>
<polygon fill="#63b8ff" stroke="#63b8ff" points="435.75,-33.72 441.53,-24.84 431.47,-28.18 435.75,-33.72"/>
</a>
</g>
</g>
<!-- Node9 -->
<g id="Node000009" class="node">
<title>Node9</title>
<g id="a_Node000009"><a xlink:title=" ">
<polygon fill="#e0e0e0" stroke="#999999" points="560.5,-24.5 503.5,-24.5 503.5,-5.5 560.5,-5.5 560.5,-24.5"/>
<text text-anchor="middle" x="532" y="-12.5" font-family="Helvetica,sans-Serif" font-size="10.00">typeinfo</text>
</a>
</g>
</g>
<!-- Node4&#45;&gt;Node9 -->
<g id="edge9_Node000004_Node000009" class="edge">
<title>Node4&#45;&gt;Node9</title>
<g id="a_edge9_Node000004_Node000009"><a xlink:title=" ">
<path fill="none" stroke="#63b8ff" d="M405.55,-65.95C434.09,-54.68 473.75,-39.01 501,-28.25"/>
<polygon fill="#63b8ff" stroke="#63b8ff" points="502.43,-31.45 510.44,-24.52 499.85,-24.94 502.43,-31.45"/>
</a>
</g>
</g>
<!-- Node10 -->
<g id="Node000010" class="node">
<title>Node10</title>
<g id="a_Node000010"><a xlink:title=" ">
<polygon fill="#e0e0e0" stroke="#999999" points="625.5,-24.5 578.5,-24.5 578.5,-5.5 625.5,-5.5 625.5,-24.5"/>
<text text-anchor="middle" x="602" y="-12.5" font-family="Helvetica,sans-Serif" font-size="10.00">vector</text>
</a>
</g>
</g>
<!-- Node4&#45;&gt;Node10 -->
<g id="edge10_Node000004_Node000010" class="edge">
<title>Node4&#45;&gt;Node10</title>
<g id="a_edge10_Node000004_Node000010"><a xlink:title=" ">
<path fill="none" stroke="#63b8ff" d="M436.56,-66.3C475.86,-57.48 526.3,-44.9 570,-30 571.43,-29.51 572.89,-28.98 574.36,-28.43"/>
<polygon fill="#63b8ff" stroke="#63b8ff" points="575.99,-31.55 583.93,-24.53 573.35,-25.06 575.99,-31.55"/>
</a>
</g>
</g>
<!-- Node11 -->
<g id="Node000011" class="node">
<title>Node11</title>
<g id="a_Node000011"><a xlink:href="../../df/d7e/core_2include_2userver_2dynamic__config_2fwd_8hpp.html" target="_top" xlink:title="Forward declarations of dynamic_config classes.">
<polygon fill="white" stroke="#666666" points="776.5,-30 643.5,-30 643.5,0 776.5,0 776.5,-30"/>
<text text-anchor="start" x="651.5" y="-18" font-family="Helvetica,sans-Serif" font-size="10.00">userver/dynamic_config</text>
<text text-anchor="middle" x="710" y="-7" font-family="Helvetica,sans-Serif" font-size="10.00">/fwd.hpp</text>
</a>
</g>
</g>
<!-- Node4&#45;&gt;Node11 -->
<g id="edge11_Node000004_Node000011" class="edge">
<title>Node4&#45;&gt;Node11</title>
<g id="a_edge11_Node000004_Node000011"><a xlink:title=" ">
<path fill="none" stroke="#63b8ff" d="M436.77,-67.43C493.26,-56.8 574.22,-41.56 633.35,-30.43"/>
<polygon fill="#63b8ff" stroke="#63b8ff" points="634.21,-33.83 643.39,-28.54 632.91,-26.95 634.21,-33.83"/>
</a>
</g>
</g>
<!-- Node12&#45;&gt;Node3 -->
<g id="edge15_Node000012_Node000003" class="edge">
<title>Node12&#45;&gt;Node3</title>
<g id="a_edge15_Node000012_Node000003"><a xlink:title=" ">
<path fill="none" stroke="#63b8ff" d="M132.21,-65.8C137.7,-56.31 144.95,-43.76 150.81,-33.63"/>
<polygon fill="#63b8ff" stroke="#63b8ff" points="153.91,-35.25 155.89,-24.84 147.85,-31.75 153.91,-35.25"/>
</a>
</g>
</g>
<!-- Node12&#45;&gt;Node6 -->
<g id="edge13_Node000012_Node000006" class="edge">
<title>Node12&#45;&gt;Node6</title>
<g id="a_edge13_Node000012_Node000006"><a xlink:title=" ">
<path fill="none" stroke="#63b8ff" d="M149.46,-65.95C169.17,-55.08 196.31,-40.11 215.72,-29.4"/>
<polygon fill="#63b8ff" stroke="#63b8ff" points="217.5,-32.41 224.56,-24.52 214.12,-26.28 217.5,-32.41"/>
</a>
</g>
</g>
<!-- Node13 -->
<g id="Node000013" class="node">
<title>Node13</title>
<g id="a_Node000013"><a xlink:title=" ">
<polygon fill="#e0e0e0" stroke="#999999" points="45.5,-24.5 8.5,-24.5 8.5,-5.5 45.5,-5.5 45.5,-24.5"/>
<text text-anchor="middle" x="27" y="-12.5" font-family="Helvetica,sans-Serif" font-size="10.00">new</text>
</a>
</g>
</g>
<!-- Node12&#45;&gt;Node13 -->
<g id="edge14_Node000012_Node000013" class="edge">
<title>Node12&#45;&gt;Node13</title>
<g id="a_edge14_Node000012_Node000013"><a xlink:title=" ">
<path fill="none" stroke="#63b8ff" d="M102.47,-65.8C86.52,-55.27 64.85,-40.97 48.82,-30.4"/>
<polygon fill="#63b8ff" stroke="#63b8ff" points="50.4,-27.24 40.12,-24.66 46.54,-33.09 50.4,-27.24"/>
</a>
</g>
</g>
<!-- Node14 -->
<g id="Node000014" class="node">
<title>Node14</title>
<g id="a_Node000014"><a xlink:title=" ">
<polygon fill="#e0e0e0" stroke="#999999" points="108.5,-24.5 63.5,-24.5 63.5,-5.5 108.5,-5.5 108.5,-24.5"/>
<text text-anchor="middle" x="86" y="-12.5" font-family="Helvetica,sans-Serif" font-size="10.00">utility</text>
</a>
</g>
</g>
<!-- Node12&#45;&gt;Node14 -->
<g id="edge16_Node000012_Node000014" class="edge">
<title>Node12&#45;&gt;Node14</title>
<g id="a_edge16_Node000012_Node000014"><a xlink:title=" ">
<path fill="none" stroke="#63b8ff" d="M115.57,-65.8C109.93,-56.31 102.48,-43.76 96.47,-33.63"/>
<polygon fill="#63b8ff" stroke="#63b8ff" points="99.37,-31.66 91.25,-24.84 93.35,-35.23 99.37,-31.66"/>
</a>
</g>
</g>
</g>
</svg>
