<?xml version="1.0" encoding="UTF-8" standalone="no"?>
<!DOCTYPE svg PUBLIC "-//W3C//DTD SVG 1.1//EN"
 "http://www.w3.org/Graphics/SVG/1.1/DTD/svg11.dtd">
<!-- Generated by graphviz version 2.43.0 (0)
 -->
<!-- Title: userver/formats/json/serialize.hpp Pages: 1 -->
<svg width="2114pt" height="423pt"
 viewBox="0.00 0.00 2113.50 423.00" xmlns="http://www.w3.org/2000/svg" xmlns:xlink="http://www.w3.org/1999/xlink">
<g id="graph0" class="graph" transform="scale(1 1) rotate(0) translate(4 419)">
<title>userver/formats/json/serialize.hpp</title>
<!-- Node1 -->
<g id="Node000001" class="node">
<title>Node1</title>
<g id="a_Node000001"><a xlink:title="Parsers and serializers to/from string and stream.">
<polygon fill="#999999" stroke="#666666" points="1872,-415 1754,-415 1754,-385 1872,-385 1872,-415"/>
<text text-anchor="start" x="1762" y="-403" font-family="Helvetica,sans-Serif" font-size="10.00">userver/formats/json</text>
<text text-anchor="middle" x="1813" y="-392" font-family="Helvetica,sans-Serif" font-size="10.00">/serialize.hpp</text>
</a>
</g>
</g>
<!-- Node2 -->
<g id="Node000002" class="node">
<title>Node2</title>
<g id="a_Node000002"><a xlink:title=" ">
<polygon fill="#e0e0e0" stroke="#999999" points="1772,-145.5 1724,-145.5 1724,-126.5 1772,-126.5 1772,-145.5"/>
<text text-anchor="middle" x="1748" y="-133.5" font-family="Helvetica,sans-Serif" font-size="10.00">iosfwd</text>
</a>
</g>
</g>
<!-- Node1&#45;&gt;Node2 -->
<g id="edge1_Node000001_Node000002" class="edge">
<title>Node1&#45;&gt;Node2</title>
<g id="a_edge1_Node000001_Node000002"><a xlink:title=" ">
<path fill="none" stroke="#63b8ff" d="M1822.74,-384.83C1846.2,-348.78 1900.91,-251.84 1859,-187 1850.06,-173.17 1810.85,-157.64 1781.55,-147.61"/>
<polygon fill="#63b8ff" stroke="#63b8ff" points="1782.65,-144.29 1772.05,-144.43 1780.42,-150.93 1782.65,-144.29"/>
</a>
</g>
</g>
<!-- Node3 -->
<g id="Node000003" class="node">
<title>Node3</title>
<g id="a_Node000003"><a xlink:title=" ">
<polygon fill="#e0e0e0" stroke="#999999" points="1849.5,-211.5 1776.5,-211.5 1776.5,-192.5 1849.5,-192.5 1849.5,-211.5"/>
<text text-anchor="middle" x="1813" y="-199.5" font-family="Helvetica,sans-Serif" font-size="10.00">string_view</text>
</a>
</g>
</g>
<!-- Node1&#45;&gt;Node3 -->
<g id="edge2_Node000001_Node000003" class="edge">
<title>Node1&#45;&gt;Node3</title>
<g id="a_edge2_Node000001_Node000003"><a xlink:title=" ">
<path fill="none" stroke="#63b8ff" d="M1813,-384.9C1813,-350.31 1813,-261.17 1813,-221.97"/>
<polygon fill="#63b8ff" stroke="#63b8ff" points="1816.5,-221.73 1813,-211.73 1809.5,-221.73 1816.5,-221.73"/>
</a>
</g>
</g>
<!-- Node4 -->
<g id="Node000004" class="node">
<title>Node4</title>
<g id="a_Node000004"><a xlink:title=" ">
<polygon fill="#e0e0e0" stroke="#999999" points="379.5,-211.5 300.5,-211.5 300.5,-192.5 379.5,-192.5 379.5,-211.5"/>
<text text-anchor="middle" x="340" y="-199.5" font-family="Helvetica,sans-Serif" font-size="10.00">fmt/format.h</text>
</a>
</g>
</g>
<!-- Node1&#45;&gt;Node4 -->
<g id="edge3_Node000001_Node000004" class="edge">
<title>Node1&#45;&gt;Node4</title>
<g id="a_edge3_Node000001_Node000004"><a xlink:title=" ">
<path fill="none" stroke="#63b8ff" d="M1753.71,-396.44C1580.92,-388.25 1063.39,-358.73 641,-283 543.8,-265.57 432.09,-232.29 376.05,-214.65"/>
<polygon fill="#63b8ff" stroke="#63b8ff" points="376.84,-211.23 366.24,-211.55 374.72,-217.9 376.84,-211.23"/>
</a>
</g>
</g>
<!-- Node5 -->
<g id="Node000005" class="node">
<title>Node5</title>
<g id="a_Node000005"><a xlink:href="../../d5/d29/universal_2include_2userver_2formats_2json_2value_8hpp.html" target="_top" xlink:title="Non&#45;mutable JSON value representation.">
<polygon fill="white" stroke="#666666" points="1562,-349 1444,-349 1444,-319 1562,-319 1562,-349"/>
<text text-anchor="start" x="1452" y="-337" font-family="Helvetica,sans-Serif" font-size="10.00">userver/formats/json</text>
<text text-anchor="middle" x="1503" y="-326" font-family="Helvetica,sans-Serif" font-size="10.00">/value.hpp</text>
</a>
</g>
</g>
<!-- Node1&#45;&gt;Node5 -->
<g id="edge4_Node000001_Node000005" class="edge">
<title>Node1&#45;&gt;Node5</title>
<g id="a_edge4_Node000001_Node000005"><a xlink:title=" ">
<path fill="none" stroke="#63b8ff" d="M1753.74,-387.85C1701.85,-377.5 1626.54,-362 1571.98,-350.45"/>
<polygon fill="#63b8ff" stroke="#63b8ff" points="1572.55,-347 1562.04,-348.35 1571.1,-353.84 1572.55,-347"/>
</a>
</g>
</g>
<!-- Node35 -->
<g id="Node000035" class="node">
<title>Node35</title>
<g id="a_Node000035"><a xlink:href="../../d5/d02/fast__pimpl_8hpp.html" target="_top" xlink:title="Implements pimpl idiom without dynamic memory allocation.">
<polygon fill="white" stroke="#666666" points="2005.5,-217 1906.5,-217 1906.5,-187 2005.5,-187 2005.5,-217"/>
<text text-anchor="start" x="1914.5" y="-205" font-family="Helvetica,sans-Serif" font-size="10.00">userver/utils/fast</text>
<text text-anchor="middle" x="1956" y="-194" font-family="Helvetica,sans-Serif" font-size="10.00">_pimpl.hpp</text>
</a>
</g>
</g>
<!-- Node1&#45;&gt;Node35 -->
<g id="edge61_Node000001_Node000035" class="edge">
<title>Node1&#45;&gt;Node35</title>
<g id="a_edge61_Node000001_Node000035"><a xlink:title=" ">
<path fill="none" stroke="#63b8ff" d="M1844.28,-384.8C1860.24,-376.28 1878.99,-364.14 1892,-349 1923.3,-312.57 1941.57,-258.44 1950.1,-227.35"/>
<polygon fill="#63b8ff" stroke="#63b8ff" points="1953.56,-227.94 1952.71,-217.38 1946.79,-226.16 1953.56,-227.94"/>
</a>
</g>
</g>
<!-- Node38 -->
<g id="Node000038" class="node">
<title>Node38</title>
<g id="a_Node000038"><a xlink:href="../../d3/d6c/fmt__compat_8hpp_source.html" target="_top" xlink:title=" ">
<polygon fill="white" stroke="#666666" points="2105.5,-343.5 1944.5,-343.5 1944.5,-324.5 2105.5,-324.5 2105.5,-343.5"/>
<text text-anchor="middle" x="2025" y="-331.5" font-family="Helvetica,sans-Serif" font-size="10.00">userver/utils/fmt_compat.hpp</text>
</a>
</g>
</g>
<!-- Node1&#45;&gt;Node38 -->
<g id="edge66_Node000001_Node000038" class="edge">
<title>Node1&#45;&gt;Node38</title>
<g id="a_edge66_Node000001_Node000038"><a xlink:title=" ">
<path fill="none" stroke="#63b8ff" d="M1859.52,-384.95C1897.69,-373.43 1951.05,-357.32 1986.76,-346.54"/>
<polygon fill="#63b8ff" stroke="#63b8ff" points="1988.22,-349.76 1996.79,-343.52 1986.2,-343.06 1988.22,-349.76"/>
</a>
</g>
</g>
<!-- Node5&#45;&gt;Node1 -->
<g id="edge34_Node000005_Node000001" class="edge">
<title>Node5&#45;&gt;Node1</title>
<g id="a_edge34_Node000005_Node000001"><a xlink:title=" ">
<path fill="none" stroke="#63b8ff" d="M1562.2,-346.14C1614.1,-356.49 1689.46,-372.01 1744.05,-383.55"/>
<polygon fill="#63b8ff" stroke="#63b8ff" points="1743.49,-387.01 1753.99,-385.66 1744.94,-380.16 1743.49,-387.01"/>
</a>
</g>
</g>
<!-- Node5&#45;&gt;Node3 -->
<g id="edge5_Node000005_Node000003" class="edge">
<title>Node5&#45;&gt;Node3</title>
<g id="a_edge5_Node000005_Node000003"><a xlink:title=" ">
<path fill="none" stroke="#63b8ff" d="M1562.17,-325.18C1604.33,-318.06 1661.55,-305.16 1708,-283 1742.93,-266.34 1777.47,-236.84 1796.93,-218.7"/>
<polygon fill="#63b8ff" stroke="#63b8ff" points="1799.47,-221.12 1804.31,-211.69 1794.65,-216.04 1799.47,-221.12"/>
</a>
</g>
</g>
<!-- Node6 -->
<g id="Node000006" class="node">
<title>Node6</title>
<g id="a_Node000006"><a xlink:title=" ">
<polygon fill="#e0e0e0" stroke="#999999" points="1071.5,-19 1002.5,-19 1002.5,0 1071.5,0 1071.5,-19"/>
<text text-anchor="middle" x="1037" y="-7" font-family="Helvetica,sans-Serif" font-size="10.00">type_traits</text>
</a>
</g>
</g>
<!-- Node5&#45;&gt;Node6 -->
<g id="edge6_Node000005_Node000006" class="edge">
<title>Node5&#45;&gt;Node6</title>
<g id="a_edge6_Node000005_Node000006"><a xlink:title=" ">
<path fill="none" stroke="#63b8ff" d="M1443.76,-332.66C1196.51,-331 253.85,-322.13 127,-283 63.25,-263.34 0,-269.71 0,-203 0,-203 0,-203 0,-135 0,-33.46 793.9,-14.3 992.42,-11.09"/>
<polygon fill="#63b8ff" stroke="#63b8ff" points="992.55,-14.59 1002.5,-10.93 992.44,-7.59 992.55,-14.59"/>
</a>
</g>
</g>
<!-- Node7 -->
<g id="Node000007" class="node">
<title>Node7</title>
<g id="a_Node000007"><a xlink:href="../../dd/d14/items_8hpp.html" target="_top" xlink:title="Wrapper for handy python&#45;like iteration over a map.">
<polygon fill="white" stroke="#666666" points="1720,-217 1580,-217 1580,-187 1720,-187 1720,-217"/>
<text text-anchor="start" x="1588" y="-205" font-family="Helvetica,sans-Serif" font-size="10.00">userver/formats/common</text>
<text text-anchor="middle" x="1650" y="-194" font-family="Helvetica,sans-Serif" font-size="10.00">/items.hpp</text>
</a>
</g>
</g>
<!-- Node5&#45;&gt;Node7 -->
<g id="edge7_Node000005_Node000007" class="edge">
<title>Node5&#45;&gt;Node7</title>
<g id="a_edge7_Node000005_Node000007"><a xlink:title=" ">
<path fill="none" stroke="#63b8ff" d="M1510.49,-318.83C1520.13,-301.6 1538.26,-272.43 1560,-253 1573.93,-240.55 1591.48,-229.94 1607.37,-221.73"/>
<polygon fill="#63b8ff" stroke="#63b8ff" points="1609.11,-224.77 1616.5,-217.18 1605.99,-218.51 1609.11,-224.77"/>
</a>
</g>
</g>
<!-- Node11 -->
<g id="Node000011" class="node">
<title>Node11</title>
<g id="a_Node000011"><a xlink:href="../../da/d00/universal_2include_2userver_2formats_2common_2meta_8hpp.html" target="_top" xlink:title="Metaprogramming helpers for converters detection.">
<polygon fill="white" stroke="#666666" points="538,-217 398,-217 398,-187 538,-187 538,-217"/>
<text text-anchor="start" x="406" y="-205" font-family="Helvetica,sans-Serif" font-size="10.00">userver/formats/common</text>
<text text-anchor="middle" x="468" y="-194" font-family="Helvetica,sans-Serif" font-size="10.00">/meta.hpp</text>
</a>
</g>
</g>
<!-- Node5&#45;&gt;Node11 -->
<g id="edge12_Node000005_Node000011" class="edge">
<title>Node5&#45;&gt;Node11</title>
<g id="a_edge12_Node000005_Node000011"><a xlink:title=" ">
<path fill="none" stroke="#63b8ff" d="M1443.88,-332.45C1320.48,-330.52 1026.79,-321.86 784,-283 690.78,-268.08 584.86,-238.63 522.38,-219.93"/>
<polygon fill="#63b8ff" stroke="#63b8ff" points="523.32,-216.56 512.74,-217.02 521.3,-223.26 523.32,-216.56"/>
</a>
</g>
</g>
<!-- Node16 -->
<g id="Node000016" class="node">
<title>Node16</title>
<g id="a_Node000016"><a xlink:href="../../d1/dd7/universal_2include_2userver_2formats_2json_2exception_8hpp.html" target="_top" xlink:title="Exception classes for JSON module.">
<polygon fill="white" stroke="#666666" points="1475,-283 1357,-283 1357,-253 1475,-253 1475,-283"/>
<text text-anchor="start" x="1365" y="-271" font-family="Helvetica,sans-Serif" font-size="10.00">userver/formats/json</text>
<text text-anchor="middle" x="1416" y="-260" font-family="Helvetica,sans-Serif" font-size="10.00">/exception.hpp</text>
</a>
</g>
</g>
<!-- Node5&#45;&gt;Node16 -->
<g id="edge20_Node000005_Node000016" class="edge">
<title>Node5&#45;&gt;Node16</title>
<g id="a_edge20_Node000005_Node000016"><a xlink:title=" ">
<path fill="none" stroke="#63b8ff" d="M1483.69,-318.8C1471.87,-310.1 1456.54,-298.82 1443.46,-289.2"/>
<polygon fill="#63b8ff" stroke="#63b8ff" points="1445.38,-286.27 1435.25,-283.16 1441.24,-291.91 1445.38,-286.27"/>
</a>
</g>
</g>
<!-- Node18 -->
<g id="Node000018" class="node">
<title>Node18</title>
<g id="a_Node000018"><a xlink:href="../../d7/d67/universal_2include_2userver_2formats_2json_2impl_2types_8hpp_source.html" target="_top" xlink:title=" ">
<polygon fill="white" stroke="#666666" points="254,-283 136,-283 136,-253 254,-253 254,-283"/>
<text text-anchor="start" x="144" y="-271" font-family="Helvetica,sans-Serif" font-size="10.00">userver/formats/json</text>
<text text-anchor="middle" x="195" y="-260" font-family="Helvetica,sans-Serif" font-size="10.00">/impl/types.hpp</text>
</a>
</g>
</g>
<!-- Node5&#45;&gt;Node18 -->
<g id="edge25_Node000005_Node000018" class="edge">
<title>Node5&#45;&gt;Node18</title>
<g id="a_edge25_Node000005_Node000018"><a xlink:title=" ">
<path fill="none" stroke="#63b8ff" d="M1443.83,-330.1C1229.55,-319.62 494.7,-283.66 264.52,-272.4"/>
<polygon fill="#63b8ff" stroke="#63b8ff" points="264.42,-268.89 254.26,-271.9 264.08,-275.88 264.42,-268.89"/>
</a>
</g>
</g>
<!-- Node21 -->
<g id="Node000021" class="node">
<title>Node21</title>
<g id="a_Node000021"><a xlink:href="../../d5/d8f/universal_2include_2userver_2formats_2json_2iterator_8hpp.html" target="_top" xlink:title="Iterator for formats::json::Value">
<polygon fill="white" stroke="#666666" points="1562,-217 1444,-217 1444,-187 1562,-187 1562,-217"/>
<text text-anchor="start" x="1452" y="-205" font-family="Helvetica,sans-Serif" font-size="10.00">userver/formats/json</text>
<text text-anchor="middle" x="1503" y="-194" font-family="Helvetica,sans-Serif" font-size="10.00">/iterator.hpp</text>
</a>
</g>
</g>
<!-- Node5&#45;&gt;Node21 -->
<g id="edge29_Node000005_Node000021" class="edge">
<title>Node5&#45;&gt;Node21</title>
<g id="a_edge29_Node000005_Node000021"><a xlink:title=" ">
<path fill="none" stroke="#63b8ff" d="M1503,-318.84C1503,-296.86 1503,-254.27 1503,-227.3"/>
<polygon fill="#63b8ff" stroke="#63b8ff" points="1506.5,-227.14 1503,-217.14 1499.5,-227.14 1506.5,-227.14"/>
</a>
</g>
</g>
<!-- Node24 -->
<g id="Node000024" class="node">
<title>Node24</title>
<g id="a_Node000024"><a xlink:href="../../d3/d3f/string__builder__fwd_8hpp.html" target="_top" xlink:title="Forward declaration of formats::json::StringBuilder.">
<polygon fill="white" stroke="#666666" points="1699,-283 1569,-283 1569,-253 1699,-253 1699,-283"/>
<text text-anchor="start" x="1577" y="-271" font-family="Helvetica,sans-Serif" font-size="10.00">userver/formats/json</text>
<text text-anchor="middle" x="1634" y="-260" font-family="Helvetica,sans-Serif" font-size="10.00">/string_builder_fwd.hpp</text>
</a>
</g>
</g>
<!-- Node5&#45;&gt;Node24 -->
<g id="edge35_Node000005_Node000024" class="edge">
<title>Node5&#45;&gt;Node24</title>
<g id="a_edge35_Node000005_Node000024"><a xlink:title=" ">
<path fill="none" stroke="#63b8ff" d="M1531.75,-318.95C1550.69,-309.7 1575.69,-297.49 1596.23,-287.45"/>
<polygon fill="#63b8ff" stroke="#63b8ff" points="1597.87,-290.55 1605.32,-283.01 1594.8,-284.26 1597.87,-290.55"/>
</a>
</g>
</g>
<!-- Node25 -->
<g id="Node000025" class="node">
<title>Node25</title>
<g id="a_Node000025"><a xlink:href="../../d1/deb/universal_2include_2userver_2formats_2parse_2common_8hpp.html" target="_top" xlink:title="Parsers and converters for std::chrono::seconds, std::chrono::system_clock::time_point and integral t...">
<polygon fill="white" stroke="#666666" points="918.5,-283 793.5,-283 793.5,-253 918.5,-253 918.5,-283"/>
<text text-anchor="start" x="801.5" y="-271" font-family="Helvetica,sans-Serif" font-size="10.00">userver/formats/parse</text>
<text text-anchor="middle" x="856" y="-260" font-family="Helvetica,sans-Serif" font-size="10.00">/common.hpp</text>
</a>
</g>
</g>
<!-- Node5&#45;&gt;Node25 -->
<g id="edge36_Node000005_Node000025" class="edge">
<title>Node5&#45;&gt;Node25</title>
<g id="a_edge36_Node000005_Node000025"><a xlink:title=" ">
<path fill="none" stroke="#63b8ff" d="M1443.87,-327.15C1325.11,-315.4 1057.95,-288.98 928.73,-276.19"/>
<polygon fill="#63b8ff" stroke="#63b8ff" points="928.84,-272.69 918.54,-275.19 928.15,-279.65 928.84,-272.69"/>
</a>
</g>
</g>
<!-- Node7&#45;&gt;Node6 -->
<g id="edge11_Node000007_Node000006" class="edge">
<title>Node7&#45;&gt;Node6</title>
<g id="a_edge11_Node000007_Node000006"><a xlink:title=" ">
<path fill="none" stroke="#63b8ff" d="M1655.97,-186.74C1662.27,-169.15 1669.35,-139.34 1654,-121 1580.55,-33.23 1211.28,-15.09 1081.88,-11.42"/>
<polygon fill="#63b8ff" stroke="#63b8ff" points="1081.64,-7.91 1071.55,-11.14 1081.45,-14.91 1081.64,-7.91"/>
</a>
</g>
</g>
<!-- Node8 -->
<g id="Node000008" class="node">
<title>Node8</title>
<g id="a_Node000008"><a xlink:title=" ">
<polygon fill="#e0e0e0" stroke="#999999" points="1861.5,-145.5 1808.5,-145.5 1808.5,-126.5 1861.5,-126.5 1861.5,-145.5"/>
<text text-anchor="middle" x="1835" y="-133.5" font-family="Helvetica,sans-Serif" font-size="10.00">cstddef</text>
</a>
</g>
</g>
<!-- Node7&#45;&gt;Node8 -->
<g id="edge8_Node000007_Node000008" class="edge">
<title>Node7&#45;&gt;Node8</title>
<g id="a_edge8_Node000007_Node000008"><a xlink:title=" ">
<path fill="none" stroke="#63b8ff" d="M1690.6,-186.95C1723.61,-175.53 1769.67,-159.6 1800.82,-148.82"/>
<polygon fill="#63b8ff" stroke="#63b8ff" points="1802.07,-152.09 1810.38,-145.52 1799.78,-145.48 1802.07,-152.09"/>
</a>
</g>
</g>
<!-- Node9 -->
<g id="Node000009" class="node">
<title>Node9</title>
<g id="a_Node000009"><a xlink:title=" ">
<polygon fill="#e0e0e0" stroke="#999999" points="1486.5,-145.5 1433.5,-145.5 1433.5,-126.5 1486.5,-126.5 1486.5,-145.5"/>
<text text-anchor="middle" x="1460" y="-133.5" font-family="Helvetica,sans-Serif" font-size="10.00">iterator</text>
</a>
</g>
</g>
<!-- Node7&#45;&gt;Node9 -->
<g id="edge9_Node000007_Node000009" class="edge">
<title>Node7&#45;&gt;Node9</title>
<g id="a_edge9_Node000007_Node000009"><a xlink:title=" ">
<path fill="none" stroke="#63b8ff" d="M1604.29,-186.91C1573.53,-177.24 1532.14,-163.88 1496,-151 1494.39,-150.43 1492.75,-149.83 1491.09,-149.22"/>
<polygon fill="#63b8ff" stroke="#63b8ff" points="1492.22,-145.9 1481.63,-145.64 1489.74,-152.45 1492.22,-145.9"/>
</a>
</g>
</g>
<!-- Node10 -->
<g id="Node000010" class="node">
<title>Node10</title>
<g id="a_Node000010"><a xlink:title=" ">
<polygon fill="#e0e0e0" stroke="#999999" points="1153,-145.5 1109,-145.5 1109,-126.5 1153,-126.5 1153,-145.5"/>
<text text-anchor="middle" x="1131" y="-133.5" font-family="Helvetica,sans-Serif" font-size="10.00">string</text>
</a>
</g>
</g>
<!-- Node7&#45;&gt;Node10 -->
<g id="edge10_Node000007_Node000010" class="edge">
<title>Node7&#45;&gt;Node10</title>
<g id="a_edge10_Node000007_Node000010"><a xlink:title=" ">
<path fill="none" stroke="#63b8ff" d="M1579.84,-188.24C1576.86,-187.8 1573.9,-187.38 1571,-187 1390.1,-163.06 1338.53,-197.21 1162,-151 1160.31,-150.56 1158.6,-150.03 1156.89,-149.45"/>
<polygon fill="#63b8ff" stroke="#63b8ff" points="1157.94,-146.09 1147.36,-145.62 1155.33,-152.59 1157.94,-146.09"/>
</a>
</g>
</g>
<!-- Node11&#45;&gt;Node6 -->
<g id="edge13_Node000011_Node000006" class="edge">
<title>Node11&#45;&gt;Node6</title>
<g id="a_edge13_Node000011_Node000006"><a xlink:title=" ">
<path fill="none" stroke="#63b8ff" d="M468.46,-186.84C469.84,-168.8 475.04,-137.92 494,-121 568.11,-54.85 876.02,-23.52 992.29,-13.88"/>
<polygon fill="#63b8ff" stroke="#63b8ff" points="992.6,-17.36 1002.28,-13.06 992.03,-10.39 992.6,-17.36"/>
</a>
</g>
</g>
<!-- Node12 -->
<g id="Node000012" class="node">
<title>Node12</title>
<g id="a_Node000012"><a xlink:href="../../d2/dc8/universal_2include_2userver_2formats_2parse_2to_8hpp.html" target="_top" xlink:title="Helper for parsers.">
<polygon fill="white" stroke="#666666" points="628.5,-151 503.5,-151 503.5,-121 628.5,-121 628.5,-151"/>
<text text-anchor="start" x="511.5" y="-139" font-family="Helvetica,sans-Serif" font-size="10.00">userver/formats/parse</text>
<text text-anchor="middle" x="566" y="-128" font-family="Helvetica,sans-Serif" font-size="10.00">/to.hpp</text>
</a>
</g>
</g>
<!-- Node11&#45;&gt;Node12 -->
<g id="edge14_Node000011_Node000012" class="edge">
<title>Node11&#45;&gt;Node12</title>
<g id="a_edge14_Node000011_Node000012"><a xlink:title=" ">
<path fill="none" stroke="#63b8ff" d="M489.75,-186.8C503.33,-177.93 520.99,-166.39 535.9,-156.66"/>
<polygon fill="#63b8ff" stroke="#63b8ff" points="537.85,-159.56 544.31,-151.16 534.02,-153.7 537.85,-159.56"/>
</a>
</g>
</g>
<!-- Node13 -->
<g id="Node000013" class="node">
<title>Node13</title>
<g id="a_Node000013"><a xlink:href="../../d6/d8e/universal_2include_2userver_2formats_2serialize_2to_8hpp.html" target="_top" xlink:title="Helper for serializers.">
<polygon fill="white" stroke="#666666" points="446.5,-151 307.5,-151 307.5,-121 446.5,-121 446.5,-151"/>
<text text-anchor="start" x="315.5" y="-139" font-family="Helvetica,sans-Serif" font-size="10.00">userver/formats/serialize</text>
<text text-anchor="middle" x="377" y="-128" font-family="Helvetica,sans-Serif" font-size="10.00">/to.hpp</text>
</a>
</g>
</g>
<!-- Node11&#45;&gt;Node13 -->
<g id="edge15_Node000011_Node000013" class="edge">
<title>Node11&#45;&gt;Node13</title>
<g id="a_edge15_Node000011_Node000013"><a xlink:title=" ">
<path fill="none" stroke="#63b8ff" d="M447.8,-186.8C435.32,-178.01 419.1,-166.61 405.34,-156.93"/>
<polygon fill="#63b8ff" stroke="#63b8ff" points="407.33,-154.05 397.14,-151.16 403.31,-159.78 407.33,-154.05"/>
</a>
</g>
</g>
<!-- Node14 -->
<g id="Node000014" class="node">
<title>Node14</title>
<g id="a_Node000014"><a xlink:href="../../d3/da0/meta__light_8hpp.html" target="_top" xlink:title="Lightweight concepts.">
<polygon fill="white" stroke="#666666" points="1091,-151 985,-151 985,-121 1091,-121 1091,-151"/>
<text text-anchor="start" x="993" y="-139" font-family="Helvetica,sans-Serif" font-size="10.00">userver/utils/meta</text>
<text text-anchor="middle" x="1038" y="-128" font-family="Helvetica,sans-Serif" font-size="10.00">_light.hpp</text>
</a>
</g>
</g>
<!-- Node11&#45;&gt;Node14 -->
<g id="edge16_Node000011_Node000014" class="edge">
<title>Node11&#45;&gt;Node14</title>
<g id="a_edge16_Node000011_Node000014"><a xlink:title=" ">
<path fill="none" stroke="#63b8ff" d="M538.24,-194.58C660.46,-183.33 905.15,-160.48 974.72,-150.94"/>
<polygon fill="#63b8ff" stroke="#63b8ff" points="975.6,-154.35 984.98,-149.43 974.58,-147.43 975.6,-154.35"/>
</a>
</g>
</g>
<!-- Node14&#45;&gt;Node6 -->
<g id="edge17_Node000014_Node000006" class="edge">
<title>Node14&#45;&gt;Node6</title>
<g id="a_edge17_Node000014_Node000006"><a xlink:title=" ">
<path fill="none" stroke="#63b8ff" d="M1030.15,-120.61C1025.3,-110.88 1019.53,-97.55 1017,-85 1014.37,-71.93 1014.2,-68.04 1017,-55 1018.97,-45.8 1023,-36.2 1026.93,-28.29"/>
<polygon fill="#63b8ff" stroke="#63b8ff" points="1030.09,-29.79 1031.68,-19.32 1023.91,-26.51 1030.09,-29.79"/>
</a>
</g>
</g>
<!-- Node15 -->
<g id="Node000015" class="node">
<title>Node15</title>
<g id="a_Node000015"><a xlink:href="../../d9/dce/void__t_8hpp.html" target="_top" xlink:title="std::void_t implementation with workarounds for compiler bugs">
<polygon fill="white" stroke="#666666" points="1127.5,-85 1026.5,-85 1026.5,-55 1127.5,-55 1127.5,-85"/>
<text text-anchor="start" x="1034.5" y="-73" font-family="Helvetica,sans-Serif" font-size="10.00">userver/utils/void</text>
<text text-anchor="middle" x="1077" y="-62" font-family="Helvetica,sans-Serif" font-size="10.00">_t.hpp</text>
</a>
</g>
</g>
<!-- Node14&#45;&gt;Node15 -->
<g id="edge18_Node000014_Node000015" class="edge">
<title>Node14&#45;&gt;Node15</title>
<g id="a_edge18_Node000014_Node000015"><a xlink:title=" ">
<path fill="none" stroke="#63b8ff" d="M1046.66,-120.8C1051.5,-112.84 1057.66,-102.74 1063.16,-93.71"/>
<polygon fill="#63b8ff" stroke="#63b8ff" points="1066.15,-95.52 1068.37,-85.16 1060.18,-91.88 1066.15,-95.52"/>
</a>
</g>
</g>
<!-- Node15&#45;&gt;Node6 -->
<g id="edge19_Node000015_Node000006" class="edge">
<title>Node15&#45;&gt;Node6</title>
<g id="a_edge19_Node000015_Node000006"><a xlink:title=" ">
<path fill="none" stroke="#63b8ff" d="M1067.32,-54.84C1061.75,-46.69 1054.71,-36.4 1048.82,-27.78"/>
<polygon fill="#63b8ff" stroke="#63b8ff" points="1051.53,-25.55 1042.99,-19.27 1045.75,-29.5 1051.53,-25.55"/>
</a>
</g>
</g>
<!-- Node16&#45;&gt;Node2 -->
<g id="edge21_Node000016_Node000002" class="edge">
<title>Node16&#45;&gt;Node2</title>
<g id="a_edge21_Node000016_Node000002"><a xlink:title=" ">
<path fill="none" stroke="#63b8ff" d="M1475.09,-261.11C1560.6,-252.07 1710.67,-234.01 1729,-217 1745.72,-201.48 1748.97,-174.16 1749.05,-155.82"/>
<polygon fill="#63b8ff" stroke="#63b8ff" points="1752.55,-155.65 1748.78,-145.75 1745.55,-155.84 1752.55,-155.65"/>
</a>
</g>
</g>
<!-- Node16&#45;&gt;Node3 -->
<g id="edge24_Node000016_Node000003" class="edge">
<title>Node16&#45;&gt;Node3</title>
<g id="a_edge24_Node000016_Node000003"><a xlink:title=" ">
<path fill="none" stroke="#63b8ff" d="M1475.16,-260.72C1544.37,-252.85 1662.18,-237.83 1762,-217 1766.1,-216.15 1770.35,-215.15 1774.57,-214.1"/>
<polygon fill="#63b8ff" stroke="#63b8ff" points="1775.5,-217.47 1784.29,-211.55 1773.73,-210.7 1775.5,-217.47"/>
</a>
</g>
</g>
<!-- Node16&#45;&gt;Node10 -->
<g id="edge23_Node000016_Node000010" class="edge">
<title>Node16&#45;&gt;Node10</title>
<g id="a_edge23_Node000016_Node000010"><a xlink:title=" ">
<path fill="none" stroke="#63b8ff" d="M1356.87,-255.79C1323.55,-247.94 1281.94,-235.49 1248,-217 1230.01,-207.2 1229.58,-199.04 1213,-187 1194.5,-173.57 1172.3,-160.18 1155.67,-150.65"/>
<polygon fill="#63b8ff" stroke="#63b8ff" points="1157.01,-147.39 1146.59,-145.51 1153.56,-153.48 1157.01,-147.39"/>
</a>
</g>
</g>
<!-- Node17 -->
<g id="Node000017" class="node">
<title>Node17</title>
<g id="a_Node000017"><a xlink:title=" ">
<polygon fill="#e0e0e0" stroke="#999999" points="1236.5,-145.5 1171.5,-145.5 1171.5,-126.5 1236.5,-126.5 1236.5,-145.5"/>
<text text-anchor="middle" x="1204" y="-133.5" font-family="Helvetica,sans-Serif" font-size="10.00">stdexcept</text>
</a>
</g>
</g>
<!-- Node16&#45;&gt;Node17 -->
<g id="edge22_Node000016_Node000017" class="edge">
<title>Node16&#45;&gt;Node17</title>
<g id="a_edge22_Node000016_Node000017"><a xlink:title=" ">
<path fill="none" stroke="#63b8ff" d="M1368.11,-252.97C1343.4,-244.56 1313.41,-232.48 1289,-217 1260.76,-199.09 1233.61,-171.04 1217.88,-153.35"/>
<polygon fill="#63b8ff" stroke="#63b8ff" points="1220.33,-150.83 1211.12,-145.59 1215.05,-155.43 1220.33,-150.83"/>
</a>
</g>
</g>
<!-- Node18&#45;&gt;Node6 -->
<g id="edge27_Node000018_Node000006" class="edge">
<title>Node18&#45;&gt;Node6</title>
<g id="a_edge27_Node000018_Node000006"><a xlink:title=" ">
<path fill="none" stroke="#63b8ff" d="M135.82,-255.52C87.41,-243.4 30.88,-221.24 57,-187 172.54,-35.56 815.37,-14.06 992.06,-11"/>
<polygon fill="#63b8ff" stroke="#63b8ff" points="992.35,-14.5 1002.29,-10.84 992.24,-7.5 992.35,-14.5"/>
</a>
</g>
</g>
<!-- Node19 -->
<g id="Node000019" class="node">
<title>Node19</title>
<g id="a_Node000019"><a xlink:title=" ">
<polygon fill="#e0e0e0" stroke="#999999" points="282,-211.5 224,-211.5 224,-192.5 282,-192.5 282,-211.5"/>
<text text-anchor="middle" x="253" y="-199.5" font-family="Helvetica,sans-Serif" font-size="10.00">memory</text>
</a>
</g>
</g>
<!-- Node18&#45;&gt;Node19 -->
<g id="edge26_Node000018_Node000019" class="edge">
<title>Node18&#45;&gt;Node19</title>
<g id="a_edge26_Node000018_Node000019"><a xlink:title=" ">
<path fill="none" stroke="#63b8ff" d="M207.87,-252.8C216.83,-242.92 228.79,-229.72 238.14,-219.39"/>
<polygon fill="#63b8ff" stroke="#63b8ff" points="240.86,-221.6 244.98,-211.84 235.68,-216.9 240.86,-221.6"/>
</a>
</g>
</g>
<!-- Node20 -->
<g id="Node000020" class="node">
<title>Node20</title>
<g id="a_Node000020"><a xlink:href="../../da/d72/type_8hpp.html" target="_top" xlink:title="Common enum of types.">
<polygon fill="white" stroke="#666666" points="206,-217 66,-217 66,-187 206,-187 206,-217"/>
<text text-anchor="start" x="74" y="-205" font-family="Helvetica,sans-Serif" font-size="10.00">userver/formats/common</text>
<text text-anchor="middle" x="136" y="-194" font-family="Helvetica,sans-Serif" font-size="10.00">/type.hpp</text>
</a>
</g>
</g>
<!-- Node18&#45;&gt;Node20 -->
<g id="edge28_Node000018_Node000020" class="edge">
<title>Node18&#45;&gt;Node20</title>
<g id="a_edge28_Node000018_Node000020"><a xlink:title=" ">
<path fill="none" stroke="#63b8ff" d="M181.91,-252.8C174.27,-244.51 164.48,-233.89 155.9,-224.59"/>
<polygon fill="#63b8ff" stroke="#63b8ff" points="158.41,-222.14 149.06,-217.16 153.26,-226.89 158.41,-222.14"/>
</a>
</g>
</g>
<!-- Node21&#45;&gt;Node9 -->
<g id="edge30_Node000021_Node000009" class="edge">
<title>Node21&#45;&gt;Node9</title>
<g id="a_edge30_Node000021_Node000009"><a xlink:title=" ">
<path fill="none" stroke="#63b8ff" d="M1493.46,-186.8C1487.02,-177.21 1478.48,-164.5 1471.64,-154.32"/>
<polygon fill="#63b8ff" stroke="#63b8ff" points="1474.42,-152.19 1465.94,-145.84 1468.61,-156.1 1474.42,-152.19"/>
</a>
</g>
</g>
<!-- Node21&#45;&gt;Node10 -->
<g id="edge32_Node000021_Node000010" class="edge">
<title>Node21&#45;&gt;Node10</title>
<g id="a_edge32_Node000021_Node000010"><a xlink:title=" ">
<path fill="none" stroke="#63b8ff" d="M1443.95,-188.74C1440.59,-188.13 1437.25,-187.54 1434,-187 1313.73,-166.86 1279.26,-184.45 1162,-151 1160.36,-150.53 1158.7,-149.99 1157.03,-149.4"/>
<polygon fill="#63b8ff" stroke="#63b8ff" points="1158.3,-146.14 1147.72,-145.62 1155.67,-152.63 1158.3,-146.14"/>
</a>
</g>
</g>
<!-- Node22 -->
<g id="Node000022" class="node">
<title>Node22</title>
<g id="a_Node000022"><a xlink:title=" ">
<polygon fill="#e0e0e0" stroke="#999999" points="1415,-145.5 1359,-145.5 1359,-126.5 1415,-126.5 1415,-145.5"/>
<text text-anchor="middle" x="1387" y="-133.5" font-family="Helvetica,sans-Serif" font-size="10.00">optional</text>
</a>
</g>
</g>
<!-- Node21&#45;&gt;Node22 -->
<g id="edge31_Node000021_Node000022" class="edge">
<title>Node21&#45;&gt;Node22</title>
<g id="a_edge31_Node000021_Node000022"><a xlink:title=" ">
<path fill="none" stroke="#63b8ff" d="M1477.54,-186.95C1457.83,-176.08 1430.69,-161.11 1411.28,-150.4"/>
<polygon fill="#63b8ff" stroke="#63b8ff" points="1412.88,-147.28 1402.44,-145.52 1409.5,-153.41 1412.88,-147.28"/>
</a>
</g>
</g>
<!-- Node23 -->
<g id="Node000023" class="node">
<title>Node23</title>
<g id="a_Node000023"><a xlink:href="../../d0/d62/universal_2include_2userver_2formats_2common_2iterator__direction_8hpp_source.html" target="_top" xlink:title=" ">
<polygon fill="white" stroke="#666666" points="1645,-151 1505,-151 1505,-121 1645,-121 1645,-151"/>
<text text-anchor="start" x="1513" y="-139" font-family="Helvetica,sans-Serif" font-size="10.00">userver/formats/common</text>
<text text-anchor="middle" x="1575" y="-128" font-family="Helvetica,sans-Serif" font-size="10.00">/iterator_direction.hpp</text>
</a>
</g>
</g>
<!-- Node21&#45;&gt;Node23 -->
<g id="edge33_Node000021_Node000023" class="edge">
<title>Node21&#45;&gt;Node23</title>
<g id="a_edge33_Node000021_Node000023"><a xlink:title=" ">
<path fill="none" stroke="#63b8ff" d="M1518.98,-186.8C1528.49,-178.34 1540.73,-167.46 1551.34,-158.03"/>
<polygon fill="#63b8ff" stroke="#63b8ff" points="1553.92,-160.42 1559.07,-151.16 1549.27,-155.19 1553.92,-160.42"/>
</a>
</g>
</g>
<!-- Node25&#45;&gt;Node4 -->
<g id="edge40_Node000025_Node000004" class="edge">
<title>Node25&#45;&gt;Node4</title>
<g id="a_edge40_Node000025_Node000004"><a xlink:title=" ">
<path fill="none" stroke="#63b8ff" d="M793.17,-263.71C703.02,-258.2 532.06,-244.88 389,-217 384.9,-216.2 380.64,-215.22 376.42,-214.15"/>
<polygon fill="#63b8ff" stroke="#63b8ff" points="377.32,-210.77 366.76,-211.54 375.5,-217.53 377.32,-210.77"/>
</a>
</g>
</g>
<!-- Node25&#45;&gt;Node11 -->
<g id="edge41_Node000025_Node000011" class="edge">
<title>Node25&#45;&gt;Node11</title>
<g id="a_edge41_Node000025_Node000011"><a xlink:title=" ">
<path fill="none" stroke="#63b8ff" d="M793.4,-256.74C731.94,-246.66 635.51,-230.83 552,-217 550.73,-216.79 549.45,-216.58 548.15,-216.36"/>
<polygon fill="#63b8ff" stroke="#63b8ff" points="548.56,-212.88 538.12,-214.7 547.42,-219.79 548.56,-212.88"/>
</a>
</g>
</g>
<!-- Node25&#45;&gt;Node12 -->
<g id="edge42_Node000025_Node000012" class="edge">
<title>Node25&#45;&gt;Node12</title>
<g id="a_edge42_Node000025_Node000012"><a xlink:title=" ">
<path fill="none" stroke="#63b8ff" d="M793.24,-260.06C730.84,-252.13 640.44,-237.54 612,-217 592.91,-203.21 580.58,-178.89 573.54,-160.67"/>
<polygon fill="#63b8ff" stroke="#63b8ff" points="576.75,-159.26 570.08,-151.03 570.16,-161.62 576.75,-159.26"/>
</a>
</g>
</g>
<!-- Node26 -->
<g id="Node000026" class="node">
<title>Node26</title>
<g id="a_Node000026"><a xlink:title=" ">
<polygon fill="#e0e0e0" stroke="#999999" points="805,-145.5 755,-145.5 755,-126.5 805,-126.5 805,-145.5"/>
<text text-anchor="middle" x="780" y="-133.5" font-family="Helvetica,sans-Serif" font-size="10.00">chrono</text>
</a>
</g>
</g>
<!-- Node25&#45;&gt;Node26 -->
<g id="edge37_Node000025_Node000026" class="edge">
<title>Node25&#45;&gt;Node26</title>
<g id="a_edge37_Node000025_Node000026"><a xlink:title=" ">
<path fill="none" stroke="#63b8ff" d="M793.35,-262.27C731.77,-256.16 644.06,-243.06 623,-217 586.89,-172.31 688.26,-150.14 744.83,-141.49"/>
<polygon fill="#63b8ff" stroke="#63b8ff" points="745.44,-144.94 754.83,-140.03 744.43,-138.01 745.44,-144.94"/>
</a>
</g>
</g>
<!-- Node27 -->
<g id="Node000027" class="node">
<title>Node27</title>
<g id="a_Node000027"><a xlink:title=" ">
<polygon fill="#e0e0e0" stroke="#999999" points="1142,-211.5 1092,-211.5 1092,-192.5 1142,-192.5 1142,-211.5"/>
<text text-anchor="middle" x="1117" y="-199.5" font-family="Helvetica,sans-Serif" font-size="10.00">cstdint</text>
</a>
</g>
</g>
<!-- Node25&#45;&gt;Node27 -->
<g id="edge38_Node000025_Node000027" class="edge">
<title>Node25&#45;&gt;Node27</title>
<g id="a_edge38_Node000025_Node000027"><a xlink:title=" ">
<path fill="none" stroke="#63b8ff" d="M918.91,-256.19C964.91,-247.55 1028.51,-234.08 1083,-217 1084.68,-216.48 1086.38,-215.9 1088.1,-215.3"/>
<polygon fill="#63b8ff" stroke="#63b8ff" points="1089.7,-218.43 1097.8,-211.59 1087.21,-211.89 1089.7,-218.43"/>
</a>
</g>
</g>
<!-- Node28 -->
<g id="Node000028" class="node">
<title>Node28</title>
<g id="a_Node000028"><a xlink:title=" ">
<polygon fill="#e0e0e0" stroke="#999999" points="1204,-211.5 1160,-211.5 1160,-192.5 1204,-192.5 1204,-211.5"/>
<text text-anchor="middle" x="1182" y="-199.5" font-family="Helvetica,sans-Serif" font-size="10.00">limits</text>
</a>
</g>
</g>
<!-- Node25&#45;&gt;Node28 -->
<g id="edge39_Node000025_Node000028" class="edge">
<title>Node25&#45;&gt;Node28</title>
<g id="a_edge39_Node000025_Node000028"><a xlink:title=" ">
<path fill="none" stroke="#63b8ff" d="M918.66,-261.09C979.12,-254.29 1072.74,-240.87 1151,-217 1152.63,-216.5 1154.29,-215.94 1155.95,-215.33"/>
<polygon fill="#63b8ff" stroke="#63b8ff" points="1157.33,-218.55 1165.25,-211.51 1154.67,-212.07 1157.33,-218.55"/>
</a>
</g>
</g>
<!-- Node29 -->
<g id="Node000029" class="node">
<title>Node29</title>
<g id="a_Node000029"><a xlink:href="../../d7/d4a/datetime_8hpp.html" target="_top" xlink:title="Date and Time related converters.">
<polygon fill="white" stroke="#666666" points="1074,-211.5 928,-211.5 928,-192.5 1074,-192.5 1074,-211.5"/>
<text text-anchor="middle" x="1001" y="-199.5" font-family="Helvetica,sans-Serif" font-size="10.00">userver/utils/datetime.hpp</text>
</a>
</g>
</g>
<!-- Node25&#45;&gt;Node29 -->
<g id="edge43_Node000025_Node000029" class="edge">
<title>Node25&#45;&gt;Node29</title>
<g id="a_edge43_Node000025_Node000029"><a xlink:title=" ">
<path fill="none" stroke="#63b8ff" d="M887.82,-252.95C913.03,-241.83 947.93,-226.42 972.29,-215.67"/>
<polygon fill="#63b8ff" stroke="#63b8ff" points="973.97,-218.76 981.7,-211.52 971.14,-212.35 973.97,-218.76"/>
</a>
</g>
</g>
<!-- Node31 -->
<g id="Node000031" class="node">
<title>Node31</title>
<g id="a_Node000031"><a xlink:href="../../dd/d10/from__string__saturating_8hpp.html" target="_top" xlink:title="Saturating converters from strings to time points.">
<polygon fill="white" stroke="#666666" points="784,-217 632,-217 632,-187 784,-187 784,-217"/>
<text text-anchor="start" x="640" y="-205" font-family="Helvetica,sans-Serif" font-size="10.00">userver/utils/datetime</text>
<text text-anchor="middle" x="708" y="-194" font-family="Helvetica,sans-Serif" font-size="10.00">/from_string_saturating.hpp</text>
</a>
</g>
</g>
<!-- Node25&#45;&gt;Node31 -->
<g id="edge48_Node000025_Node000031" class="edge">
<title>Node25&#45;&gt;Node31</title>
<g id="a_edge48_Node000025_Node000031"><a xlink:title=" ">
<path fill="none" stroke="#63b8ff" d="M823.52,-252.95C801.83,-243.58 773.11,-231.16 749.73,-221.05"/>
<polygon fill="#63b8ff" stroke="#63b8ff" points="750.97,-217.77 740.4,-217.01 748.19,-224.19 750.97,-217.77"/>
</a>
</g>
</g>
<!-- Node32 -->
<g id="Node000032" class="node">
<title>Node32</title>
<g id="a_Node000032"><a xlink:href="../../d0/d03/universal_2include_2userver_2utils_2meta_8hpp.html" target="_top" xlink:title="Metaprogramming, template variables and concepts.">
<polygon fill="white" stroke="#666666" points="1425.5,-211.5 1298.5,-211.5 1298.5,-192.5 1425.5,-192.5 1425.5,-211.5"/>
<text text-anchor="middle" x="1362" y="-199.5" font-family="Helvetica,sans-Serif" font-size="10.00">userver/utils/meta.hpp</text>
</a>
</g>
</g>
<!-- Node25&#45;&gt;Node32 -->
<g id="edge51_Node000025_Node000032" class="edge">
<title>Node25&#45;&gt;Node32</title>
<g id="a_edge51_Node000025_Node000032"><a xlink:title=" ">
<path fill="none" stroke="#63b8ff" d="M918.55,-259.09C1012.24,-247.24 1188.64,-224.93 1288.4,-212.31"/>
<polygon fill="#63b8ff" stroke="#63b8ff" points="1288.91,-215.77 1298.4,-211.04 1288.04,-208.83 1288.91,-215.77"/>
</a>
</g>
</g>
<!-- Node34 -->
<g id="Node000034" class="node">
<title>Node34</title>
<g id="a_Node000034"><a xlink:href="../../dc/dff/string__to__duration_8hpp.html" target="_top" xlink:title="Converts strings like &quot;10s&quot;, &quot;5d&quot;, &quot;1h&quot; to durations.">
<polygon fill="white" stroke="#666666" points="910,-217 802,-217 802,-187 910,-187 910,-217"/>
<text text-anchor="start" x="810" y="-205" font-family="Helvetica,sans-Serif" font-size="10.00">userver/utils/string</text>
<text text-anchor="middle" x="856" y="-194" font-family="Helvetica,sans-Serif" font-size="10.00">_to_duration.hpp</text>
</a>
</g>
</g>
<!-- Node25&#45;&gt;Node34 -->
<g id="edge58_Node000025_Node000034" class="edge">
<title>Node25&#45;&gt;Node34</title>
<g id="a_edge58_Node000025_Node000034"><a xlink:title=" ">
<path fill="none" stroke="#63b8ff" d="M856,-252.8C856,-245.34 856,-235.99 856,-227.41"/>
<polygon fill="#63b8ff" stroke="#63b8ff" points="859.5,-227.16 856,-217.16 852.5,-227.16 859.5,-227.16"/>
</a>
</g>
</g>
<!-- Node29&#45;&gt;Node10 -->
<g id="edge46_Node000029_Node000010" class="edge">
<title>Node29&#45;&gt;Node10</title>
<g id="a_edge46_Node000029_Node000010"><a xlink:title=" ">
<path fill="none" stroke="#63b8ff" d="M1018.53,-192.37C1040.53,-181.54 1078.49,-162.85 1104.15,-150.22"/>
<polygon fill="#63b8ff" stroke="#63b8ff" points="1105.9,-153.26 1113.33,-145.7 1102.81,-146.98 1105.9,-153.26"/>
</a>
</g>
</g>
<!-- Node29&#45;&gt;Node17 -->
<g id="edge45_Node000029_Node000017" class="edge">
<title>Node29&#45;&gt;Node17</title>
<g id="a_edge45_Node000029_Node000017"><a xlink:title=" ">
<path fill="none" stroke="#63b8ff" d="M1029.27,-192.41C1061.46,-182.59 1115.61,-165.93 1162,-151 1164.28,-150.26 1166.64,-149.5 1169,-148.73"/>
<polygon fill="#63b8ff" stroke="#63b8ff" points="1170.31,-151.98 1178.71,-145.52 1168.12,-145.33 1170.31,-151.98"/>
</a>
</g>
</g>
<!-- Node29&#45;&gt;Node26 -->
<g id="edge44_Node000029_Node000026" class="edge">
<title>Node29&#45;&gt;Node26</title>
<g id="a_edge44_Node000029_Node000026"><a xlink:title=" ">
<path fill="none" stroke="#63b8ff" d="M971.19,-192.37C930.62,-180.62 858.12,-159.62 815.01,-147.14"/>
<polygon fill="#63b8ff" stroke="#63b8ff" points="815.82,-143.73 805.24,-144.31 813.87,-150.45 815.82,-143.73"/>
</a>
</g>
</g>
<!-- Node30 -->
<g id="Node000030" class="node">
<title>Node30</title>
<g id="a_Node000030"><a xlink:title=" ">
<polygon fill="#e0e0e0" stroke="#999999" points="967,-145.5 871,-145.5 871,-126.5 967,-126.5 967,-145.5"/>
<text text-anchor="middle" x="919" y="-133.5" font-family="Helvetica,sans-Serif" font-size="10.00">cctz/civil_time.h</text>
</a>
</g>
</g>
<!-- Node29&#45;&gt;Node30 -->
<g id="edge47_Node000029_Node000030" class="edge">
<title>Node29&#45;&gt;Node30</title>
<g id="a_edge47_Node000029_Node000030"><a xlink:title=" ">
<path fill="none" stroke="#63b8ff" d="M989.94,-192.37C976.74,-182.06 954.42,-164.65 938.34,-152.09"/>
<polygon fill="#63b8ff" stroke="#63b8ff" points="940.18,-149.09 930.15,-145.7 935.88,-154.61 940.18,-149.09"/>
</a>
</g>
</g>
<!-- Node31&#45;&gt;Node10 -->
<g id="edge50_Node000031_Node000010" class="edge">
<title>Node31&#45;&gt;Node10</title>
<g id="a_edge50_Node000031_Node000010"><a xlink:title=" ">
<path fill="none" stroke="#63b8ff" d="M784.43,-188.24C787.32,-187.81 790.19,-187.4 793,-187 929.04,-167.83 967.61,-187.7 1100,-151 1101.68,-150.53 1103.39,-149.99 1105.09,-149.39"/>
<polygon fill="#63b8ff" stroke="#63b8ff" points="1106.67,-152.53 1114.62,-145.53 1104.04,-146.04 1106.67,-152.53"/>
</a>
</g>
</g>
<!-- Node31&#45;&gt;Node26 -->
<g id="edge49_Node000031_Node000026" class="edge">
<title>Node31&#45;&gt;Node26</title>
<g id="a_edge49_Node000031_Node000026"><a xlink:title=" ">
<path fill="none" stroke="#63b8ff" d="M723.98,-186.8C735.31,-176.72 750.53,-163.19 762.25,-152.78"/>
<polygon fill="#63b8ff" stroke="#63b8ff" points="764.9,-155.1 770.05,-145.84 760.25,-149.87 764.9,-155.1"/>
</a>
</g>
</g>
<!-- Node32&#45;&gt;Node2 -->
<g id="edge52_Node000032_Node000002" class="edge">
<title>Node32&#45;&gt;Node2</title>
<g id="a_edge52_Node000032_Node000002"><a xlink:title=" ">
<path fill="none" stroke="#63b8ff" d="M1405.19,-192.49C1414.98,-190.62 1425.34,-188.7 1435,-187 1536.03,-169.25 1655.87,-150.84 1713.57,-142.14"/>
<polygon fill="#63b8ff" stroke="#63b8ff" points="1714.24,-145.58 1723.61,-140.63 1713.2,-138.66 1714.24,-145.58"/>
</a>
</g>
</g>
<!-- Node32&#45;&gt;Node6 -->
<g id="edge55_Node000032_Node000006" class="edge">
<title>Node32&#45;&gt;Node6</title>
<g id="a_edge55_Node000032_Node000006"><a xlink:title=" ">
<path fill="none" stroke="#63b8ff" d="M1347.67,-192.33C1331.84,-182.62 1305.71,-166.27 1284,-151 1266.11,-138.42 1263.05,-133.35 1245,-121 1198.26,-89.02 1186.14,-81.32 1136,-55 1113.59,-43.24 1087.45,-31.57 1067.65,-23.13"/>
<polygon fill="#63b8ff" stroke="#63b8ff" points="1068.79,-19.81 1058.21,-19.15 1066.07,-26.26 1068.79,-19.81"/>
</a>
</g>
</g>
<!-- Node32&#45;&gt;Node9 -->
<g id="edge53_Node000032_Node000009" class="edge">
<title>Node32&#45;&gt;Node9</title>
<g id="a_edge53_Node000032_Node000009"><a xlink:title=" ">
<path fill="none" stroke="#63b8ff" d="M1375.22,-192.37C1391.36,-181.82 1418.91,-163.84 1438.21,-151.23"/>
<polygon fill="#63b8ff" stroke="#63b8ff" points="1440.22,-154.1 1446.68,-145.7 1436.39,-148.24 1440.22,-154.1"/>
</a>
</g>
</g>
<!-- Node32&#45;&gt;Node14 -->
<g id="edge57_Node000032_Node000014" class="edge">
<title>Node32&#45;&gt;Node14</title>
<g id="a_edge57_Node000032_Node000014"><a xlink:title=" ">
<path fill="none" stroke="#63b8ff" d="M1314.57,-192.44C1264.07,-183.22 1181.56,-167.84 1100.9,-151.15"/>
<polygon fill="#63b8ff" stroke="#63b8ff" points="1101.58,-147.72 1091.07,-149.11 1100.15,-154.57 1101.58,-147.72"/>
</a>
</g>
</g>
<!-- Node32&#45;&gt;Node22 -->
<g id="edge54_Node000032_Node000022" class="edge">
<title>Node32&#45;&gt;Node22</title>
<g id="a_edge54_Node000032_Node000022"><a xlink:title=" ">
<path fill="none" stroke="#63b8ff" d="M1365.37,-192.37C1369.04,-182.97 1375.02,-167.67 1379.76,-155.53"/>
<polygon fill="#63b8ff" stroke="#63b8ff" points="1383.14,-156.49 1383.52,-145.91 1376.62,-153.95 1383.14,-156.49"/>
</a>
</g>
</g>
<!-- Node33 -->
<g id="Node000033" class="node">
<title>Node33</title>
<g id="a_Node000033"><a xlink:title=" ">
<polygon fill="#e0e0e0" stroke="#999999" points="1340.5,-145.5 1293.5,-145.5 1293.5,-126.5 1340.5,-126.5 1340.5,-145.5"/>
<text text-anchor="middle" x="1317" y="-133.5" font-family="Helvetica,sans-Serif" font-size="10.00">vector</text>
</a>
</g>
</g>
<!-- Node32&#45;&gt;Node33 -->
<g id="edge56_Node000032_Node000033" class="edge">
<title>Node32&#45;&gt;Node33</title>
<g id="a_edge56_Node000032_Node000033"><a xlink:title=" ">
<path fill="none" stroke="#63b8ff" d="M1355.93,-192.37C1349.13,-182.69 1337.91,-166.74 1329.26,-154.44"/>
<polygon fill="#63b8ff" stroke="#63b8ff" points="1331.88,-152.07 1323.26,-145.91 1326.15,-156.1 1331.88,-152.07"/>
</a>
</g>
</g>
<!-- Node34&#45;&gt;Node10 -->
<g id="edge60_Node000034_Node000010" class="edge">
<title>Node34&#45;&gt;Node10</title>
<g id="a_edge60_Node000034_Node000010"><a xlink:title=" ">
<path fill="none" stroke="#63b8ff" d="M910.28,-188.86C913.23,-188.22 916.15,-187.6 919,-187 999.26,-170.1 1021.9,-176.04 1100,-151 1101.44,-150.54 1102.9,-150.03 1104.37,-149.48"/>
<polygon fill="#63b8ff" stroke="#63b8ff" points="1105.98,-152.61 1113.89,-145.56 1103.32,-146.13 1105.98,-152.61"/>
</a>
</g>
</g>
<!-- Node34&#45;&gt;Node26 -->
<g id="edge59_Node000034_Node000026" class="edge">
<title>Node34&#45;&gt;Node26</title>
<g id="a_edge59_Node000034_Node000026"><a xlink:title=" ">
<path fill="none" stroke="#63b8ff" d="M839.13,-186.8C827.05,-176.62 810.79,-162.93 798.38,-152.48"/>
<polygon fill="#63b8ff" stroke="#63b8ff" points="800.41,-149.61 790.5,-145.84 795.9,-154.96 800.41,-149.61"/>
</a>
</g>
</g>
<!-- Node35&#45;&gt;Node6 -->
<g id="edge64_Node000035_Node000006" class="edge">
<title>Node35&#45;&gt;Node6</title>
<g id="a_edge64_Node000035_Node000006"><a xlink:title=" ">
<path fill="none" stroke="#63b8ff" d="M1945.02,-186.71C1930.24,-168.51 1902.18,-137.48 1871,-121 1731.65,-47.36 1234.51,-19.35 1081.89,-12.37"/>
<polygon fill="#63b8ff" stroke="#63b8ff" points="1081.65,-8.86 1071.5,-11.9 1081.34,-15.85 1081.65,-8.86"/>
</a>
</g>
</g>
<!-- Node35&#45;&gt;Node8 -->
<g id="edge62_Node000035_Node000008" class="edge">
<title>Node35&#45;&gt;Node8</title>
<g id="a_edge62_Node000035_Node000008"><a xlink:title=" ">
<path fill="none" stroke="#63b8ff" d="M1929.45,-186.95C1908.79,-176.03 1880.32,-160.97 1860.05,-150.25"/>
<polygon fill="#63b8ff" stroke="#63b8ff" points="1861.58,-147.1 1851.1,-145.52 1858.31,-153.29 1861.58,-147.1"/>
</a>
</g>
</g>
<!-- Node36 -->
<g id="Node000036" class="node">
<title>Node36</title>
<g id="a_Node000036"><a xlink:title=" ">
<polygon fill="#e0e0e0" stroke="#999999" points="1969.5,-145.5 1932.5,-145.5 1932.5,-126.5 1969.5,-126.5 1969.5,-145.5"/>
<text text-anchor="middle" x="1951" y="-133.5" font-family="Helvetica,sans-Serif" font-size="10.00">new</text>
</a>
</g>
</g>
<!-- Node35&#45;&gt;Node36 -->
<g id="edge63_Node000035_Node000036" class="edge">
<title>Node35&#45;&gt;Node36</title>
<g id="a_edge63_Node000035_Node000036"><a xlink:title=" ">
<path fill="none" stroke="#63b8ff" d="M1954.89,-186.8C1954.18,-177.7 1953.25,-165.79 1952.48,-155.9"/>
<polygon fill="#63b8ff" stroke="#63b8ff" points="1955.96,-155.54 1951.69,-145.84 1948.98,-156.09 1955.96,-155.54"/>
</a>
</g>
</g>
<!-- Node37 -->
<g id="Node000037" class="node">
<title>Node37</title>
<g id="a_Node000037"><a xlink:title=" ">
<polygon fill="#e0e0e0" stroke="#999999" points="2032.5,-145.5 1987.5,-145.5 1987.5,-126.5 2032.5,-126.5 2032.5,-145.5"/>
<text text-anchor="middle" x="2010" y="-133.5" font-family="Helvetica,sans-Serif" font-size="10.00">utility</text>
</a>
</g>
</g>
<!-- Node35&#45;&gt;Node37 -->
<g id="edge65_Node000035_Node000037" class="edge">
<title>Node35&#45;&gt;Node37</title>
<g id="a_edge65_Node000035_Node000037"><a xlink:title=" ">
<path fill="none" stroke="#63b8ff" d="M1967.98,-186.8C1976.24,-177.01 1987.24,-163.98 1995.91,-153.7"/>
<polygon fill="#63b8ff" stroke="#63b8ff" points="1998.76,-155.74 2002.54,-145.84 1993.41,-151.23 1998.76,-155.74"/>
</a>
</g>
</g>
<!-- Node39 -->
<g id="Node000039" class="node">
<title>Node39</title>
<g id="a_Node000039"><a xlink:title=" ">
<polygon fill="#e0e0e0" stroke="#999999" points="2058.5,-277.5 1991.5,-277.5 1991.5,-258.5 2058.5,-258.5 2058.5,-277.5"/>
<text text-anchor="middle" x="2025" y="-265.5" font-family="Helvetica,sans-Serif" font-size="10.00">fmt/core.h</text>
</a>
</g>
</g>
<!-- Node38&#45;&gt;Node39 -->
<g id="edge67_Node000038_Node000039" class="edge">
<title>Node38&#45;&gt;Node39</title>
<g id="a_edge67_Node000038_Node000039"><a xlink:title=" ">
<path fill="none" stroke="#63b8ff" d="M2025,-324.37C2025,-315.16 2025,-300.29 2025,-288.27"/>
<polygon fill="#63b8ff" stroke="#63b8ff" points="2028.5,-287.91 2025,-277.91 2021.5,-287.91 2028.5,-287.91"/>
</a>
</g>
</g>
</g>
</svg>
