<?xml version="1.0" encoding="UTF-8" standalone="no"?>
<!DOCTYPE svg PUBLIC "-//W3C//DTD SVG 1.1//EN"
 "http://www.w3.org/Graphics/SVG/1.1/DTD/svg11.dtd">
<!-- Generated by graphviz version 2.43.0 (0)
 -->
<!-- Title: userver/clients/http/response.hpp Pages: 1 -->
<svg width="1722pt" height="346pt"
 viewBox="0.00 0.00 1722.49 346.00" xmlns="http://www.w3.org/2000/svg" xmlns:xlink="http://www.w3.org/1999/xlink">
<g id="graph0" class="graph" transform="scale(1 1) rotate(0) translate(4 342)">
<title>userver/clients/http/response.hpp</title>
<!-- Node1 -->
<g id="Node000001" class="node">
<title>Node1</title>
<g id="a_Node000001"><a xlink:title="Class that will be returned for successful request.">
<polygon fill="#999999" stroke="#666666" points="355,-338 244,-338 244,-308 355,-308 355,-338"/>
<text text-anchor="start" x="252" y="-326" font-family="Helvetica,sans-Serif" font-size="10.00">userver/clients/http</text>
<text text-anchor="middle" x="299.5" y="-315" font-family="Helvetica,sans-Serif" font-size="10.00">/response.hpp</text>
</a>
</g>
</g>
<!-- Node2 -->
<g id="Node000002" class="node">
<title>Node2</title>
<g id="a_Node000002"><a xlink:title=" ">
<polygon fill="#e0e0e0" stroke="#999999" points="48.5,-266.5 0.5,-266.5 0.5,-247.5 48.5,-247.5 48.5,-266.5"/>
<text text-anchor="middle" x="24.5" y="-254.5" font-family="Helvetica,sans-Serif" font-size="10.00">iosfwd</text>
</a>
</g>
</g>
<!-- Node1&#45;&gt;Node2 -->
<g id="edge1_Node000001_Node000002" class="edge">
<title>Node1&#45;&gt;Node2</title>
<g id="a_edge1_Node000001_Node000002"><a xlink:title=" ">
<path fill="none" stroke="#63b8ff" d="M243.87,-312.62C195.48,-303.91 123.72,-289.63 62.5,-272 60.22,-271.34 57.88,-270.62 55.54,-269.85"/>
<polygon fill="#63b8ff" stroke="#63b8ff" points="56.62,-266.52 46.02,-266.55 54.32,-273.13 56.62,-266.52"/>
</a>
</g>
</g>
<!-- Node3 -->
<g id="Node000003" class="node">
<title>Node3</title>
<g id="a_Node000003"><a xlink:title=" ">
<polygon fill="#e0e0e0" stroke="#999999" points="709.5,-19 665.5,-19 665.5,0 709.5,0 709.5,-19"/>
<text text-anchor="middle" x="687.5" y="-7" font-family="Helvetica,sans-Serif" font-size="10.00">string</text>
</a>
</g>
</g>
<!-- Node1&#45;&gt;Node3 -->
<g id="edge2_Node000001_Node000003" class="edge">
<title>Node1&#45;&gt;Node3</title>
<g id="a_edge2_Node000001_Node000003"><a xlink:title=" ">
<path fill="none" stroke="#63b8ff" d="M301.12,-307.92C306.42,-262.9 323.72,-124.5 337.5,-110 386.22,-58.74 424.37,-92.97 492.5,-74 550.75,-57.78 617.53,-35.14 655.89,-21.73"/>
<polygon fill="#63b8ff" stroke="#63b8ff" points="657.19,-24.98 665.46,-18.37 654.87,-18.38 657.19,-24.98"/>
</a>
</g>
</g>
<!-- Node4 -->
<g id="Node000004" class="node">
<title>Node4</title>
<g id="a_Node000004"><a xlink:title=" ">
<polygon fill="#e0e0e0" stroke="#999999" points="93,-74 0,-74 0,-55 93,-55 93,-74"/>
<text text-anchor="middle" x="46.5" y="-62" font-family="Helvetica,sans-Serif" font-size="10.00">unordered_map</text>
</a>
</g>
</g>
<!-- Node1&#45;&gt;Node4 -->
<g id="edge3_Node000001_Node000004" class="edge">
<title>Node1&#45;&gt;Node4</title>
<g id="a_edge3_Node000001_Node000004"><a xlink:title=" ">
<path fill="none" stroke="#63b8ff" d="M280.57,-307.86C242.68,-278.99 155.97,-210.06 95.5,-140 80.07,-122.12 65.62,-99.09 56.47,-83.4"/>
<polygon fill="#63b8ff" stroke="#63b8ff" points="59.26,-81.23 51.27,-74.28 53.18,-84.7 59.26,-81.23"/>
</a>
</g>
</g>
<!-- Node5 -->
<g id="Node000005" class="node">
<title>Node5</title>
<g id="a_Node000005"><a xlink:href="../../d9/d99/error_8hpp_source.html" target="_top" xlink:title=" ">
<polygon fill="white" stroke="#666666" points="618,-206 507,-206 507,-176 618,-176 618,-206"/>
<text text-anchor="start" x="515" y="-194" font-family="Helvetica,sans-Serif" font-size="10.00">userver/clients/http</text>
<text text-anchor="middle" x="562.5" y="-183" font-family="Helvetica,sans-Serif" font-size="10.00">/error.hpp</text>
</a>
</g>
</g>
<!-- Node1&#45;&gt;Node5 -->
<g id="edge4_Node000001_Node000005" class="edge">
<title>Node1&#45;&gt;Node5</title>
<g id="a_edge4_Node000001_Node000005"><a xlink:title=" ">
<path fill="none" stroke="#63b8ff" d="M327.9,-307.96C375.51,-284.43 471.46,-237 524.71,-210.68"/>
<polygon fill="#63b8ff" stroke="#63b8ff" points="526.41,-213.74 533.82,-206.17 523.31,-207.47 526.41,-213.74"/>
</a>
</g>
</g>
<!-- Node9 -->
<g id="Node000009" class="node">
<title>Node9</title>
<g id="a_Node000009"><a xlink:href="../../df/d78/local__stats_8hpp_source.html" target="_top" xlink:title=" ">
<polygon fill="white" stroke="#666666" points="458,-140 347,-140 347,-110 458,-110 458,-140"/>
<text text-anchor="start" x="355" y="-128" font-family="Helvetica,sans-Serif" font-size="10.00">userver/clients/http</text>
<text text-anchor="middle" x="402.5" y="-117" font-family="Helvetica,sans-Serif" font-size="10.00">/local_stats.hpp</text>
</a>
</g>
</g>
<!-- Node1&#45;&gt;Node9 -->
<g id="edge12_Node000001_Node000009" class="edge">
<title>Node1&#45;&gt;Node9</title>
<g id="a_edge12_Node000001_Node000009"><a xlink:title=" ">
<path fill="none" stroke="#63b8ff" d="M309.56,-307.88C316.39,-298.04 325.43,-284.49 332.5,-272 356.29,-229.99 379.66,-178.63 392.47,-149.38"/>
<polygon fill="#63b8ff" stroke="#63b8ff" points="395.77,-150.57 396.55,-140.01 389.35,-147.78 395.77,-150.57"/>
</a>
</g>
</g>
<!-- Node12 -->
<g id="Node000012" class="node">
<title>Node12</title>
<g id="a_Node000012"><a xlink:href="../../d4/d81/header__map_8hpp_source.html" target="_top" xlink:title=" ">
<polygon fill="white" stroke="#666666" points="956,-272 843,-272 843,-242 956,-242 956,-272"/>
<text text-anchor="start" x="851" y="-260" font-family="Helvetica,sans-Serif" font-size="10.00">userver/http/header</text>
<text text-anchor="middle" x="899.5" y="-249" font-family="Helvetica,sans-Serif" font-size="10.00">_map.hpp</text>
</a>
</g>
</g>
<!-- Node1&#45;&gt;Node12 -->
<g id="edge13_Node000001_Node000012" class="edge">
<title>Node1&#45;&gt;Node12</title>
<g id="a_edge13_Node000001_Node000012"><a xlink:title=" ">
<path fill="none" stroke="#63b8ff" d="M355.14,-316.07C465.8,-304.26 713.08,-277.88 832.47,-265.15"/>
<polygon fill="#63b8ff" stroke="#63b8ff" points="833,-268.61 842.58,-264.07 832.26,-261.65 833,-268.61"/>
</a>
</g>
</g>
<!-- Node32 -->
<g id="Node000032" class="node">
<title>Node32</title>
<g id="a_Node000032"><a xlink:href="../../d2/dd7/http__response__cookie_8hpp.html" target="_top" xlink:title="HTTP response cookie.">
<polygon fill="white" stroke="#666666" points="252,-140 105,-140 105,-110 252,-110 252,-140"/>
<text text-anchor="start" x="113" y="-128" font-family="Helvetica,sans-Serif" font-size="10.00">userver/server/http</text>
<text text-anchor="middle" x="178.5" y="-117" font-family="Helvetica,sans-Serif" font-size="10.00">/http_response_cookie.hpp</text>
</a>
</g>
</g>
<!-- Node1&#45;&gt;Node32 -->
<g id="edge46_Node000001_Node000032" class="edge">
<title>Node1&#45;&gt;Node32</title>
<g id="a_edge46_Node000001_Node000032"><a xlink:title=" ">
<path fill="none" stroke="#63b8ff" d="M289.81,-307.66C283.15,-297.72 274.16,-284.14 266.5,-272 239.4,-229.05 209.09,-178.08 192.05,-149.14"/>
<polygon fill="#63b8ff" stroke="#63b8ff" points="194.89,-147.06 186.8,-140.21 188.85,-150.61 194.89,-147.06"/>
</a>
</g>
</g>
<!-- Node34 -->
<g id="Node000034" class="node">
<title>Node34</title>
<g id="a_Node000034"><a xlink:href="../../d1/d46/str__icase_8hpp.html" target="_top" xlink:title="Case insensitive ASCII comparators and hashers.">
<polygon fill="white" stroke="#666666" points="409,-74 264,-74 264,-55 409,-55 409,-74"/>
<text text-anchor="middle" x="336.5" y="-62" font-family="Helvetica,sans-Serif" font-size="10.00">userver/utils/str_icase.hpp</text>
</a>
</g>
</g>
<!-- Node1&#45;&gt;Node34 -->
<g id="edge56_Node000001_Node000034" class="edge">
<title>Node1&#45;&gt;Node34</title>
<g id="a_edge56_Node000001_Node000034"><a xlink:title=" ">
<path fill="none" stroke="#63b8ff" d="M297.04,-307.87C291.57,-273.1 280.68,-181.03 304.5,-110 307.97,-99.66 314.74,-89.67 321.16,-81.78"/>
<polygon fill="#63b8ff" stroke="#63b8ff" points="323.9,-83.96 327.83,-74.12 318.62,-79.37 323.9,-83.96"/>
</a>
</g>
</g>
<!-- Node5&#45;&gt;Node3 -->
<g id="edge6_Node000005_Node000003" class="edge">
<title>Node5&#45;&gt;Node3</title>
<g id="a_edge6_Node000005_Node000003"><a xlink:title=" ">
<path fill="none" stroke="#63b8ff" d="M600.44,-175.95C617.63,-167.83 636.89,-156.01 649.5,-140 675.64,-106.83 683.81,-56.17 686.35,-29.09"/>
<polygon fill="#63b8ff" stroke="#63b8ff" points="689.85,-29.29 687.14,-19.05 682.87,-28.75 689.85,-29.29"/>
</a>
</g>
</g>
<!-- Node6 -->
<g id="Node000006" class="node">
<title>Node6</title>
<g id="a_Node000006"><a xlink:title=" ">
<polygon fill="#e0e0e0" stroke="#999999" points="640,-134.5 575,-134.5 575,-115.5 640,-115.5 640,-134.5"/>
<text text-anchor="middle" x="607.5" y="-122.5" font-family="Helvetica,sans-Serif" font-size="10.00">exception</text>
</a>
</g>
</g>
<!-- Node5&#45;&gt;Node6 -->
<g id="edge5_Node000005_Node000006" class="edge">
<title>Node5&#45;&gt;Node6</title>
<g id="a_edge5_Node000005_Node000006"><a xlink:title=" ">
<path fill="none" stroke="#63b8ff" d="M572.49,-175.8C579.23,-166.21 588.16,-153.5 595.32,-143.32"/>
<polygon fill="#63b8ff" stroke="#63b8ff" points="598.39,-145.04 601.28,-134.84 592.67,-141.01 598.39,-145.04"/>
</a>
</g>
</g>
<!-- Node7 -->
<g id="Node000007" class="node">
<title>Node7</title>
<g id="a_Node000007"><a xlink:title=" ">
<polygon fill="#e0e0e0" stroke="#999999" points="1641,-19 1568,-19 1568,0 1641,0 1641,-19"/>
<text text-anchor="middle" x="1604.5" y="-7" font-family="Helvetica,sans-Serif" font-size="10.00">string_view</text>
</a>
</g>
</g>
<!-- Node5&#45;&gt;Node7 -->
<g id="edge7_Node000005_Node000007" class="edge">
<title>Node5&#45;&gt;Node7</title>
<g id="a_edge7_Node000005_Node000007"><a xlink:title=" ">
<path fill="none" stroke="#63b8ff" d="M618.32,-184.78C649.54,-181.96 689.16,-178.54 724.5,-176 1002.02,-156.02 1074.59,-182.93 1349.5,-140 1465.59,-121.87 1533.53,-166.88 1605.5,-74 1615.2,-61.48 1613.7,-43.03 1610.52,-29.23"/>
<polygon fill="#63b8ff" stroke="#63b8ff" points="1613.83,-28.08 1607.78,-19.37 1607.08,-29.95 1613.83,-28.08"/>
</a>
</g>
</g>
<!-- Node8 -->
<g id="Node000008" class="node">
<title>Node8</title>
<g id="a_Node000008"><a xlink:title=" ">
<polygon fill="#e0e0e0" stroke="#999999" points="557,-134.5 476,-134.5 476,-115.5 557,-115.5 557,-134.5"/>
<text text-anchor="middle" x="516.5" y="-122.5" font-family="Helvetica,sans-Serif" font-size="10.00">system_error</text>
</a>
</g>
</g>
<!-- Node5&#45;&gt;Node8 -->
<g id="edge8_Node000005_Node000008" class="edge">
<title>Node5&#45;&gt;Node8</title>
<g id="a_edge8_Node000005_Node000008"><a xlink:title=" ">
<path fill="none" stroke="#63b8ff" d="M552.29,-175.8C545.33,-166.11 536.08,-153.24 528.73,-143.01"/>
<polygon fill="#63b8ff" stroke="#63b8ff" points="531.54,-140.92 522.86,-134.84 525.85,-145.01 531.54,-140.92"/>
</a>
</g>
</g>
<!-- Node5&#45;&gt;Node9 -->
<g id="edge9_Node000005_Node000009" class="edge">
<title>Node5&#45;&gt;Node9</title>
<g id="a_edge9_Node000005_Node000009"><a xlink:title=" ">
<path fill="none" stroke="#63b8ff" d="M527.39,-175.95C503.73,-166.49 472.34,-153.93 446.94,-143.78"/>
<polygon fill="#63b8ff" stroke="#63b8ff" points="448.12,-140.48 437.53,-140.01 445.52,-146.98 448.12,-140.48"/>
</a>
</g>
</g>
<!-- Node10 -->
<g id="Node000010" class="node">
<title>Node10</title>
<g id="a_Node000010"><a xlink:title=" ">
<polygon fill="#e0e0e0" stroke="#999999" points="536.5,-19 486.5,-19 486.5,0 536.5,0 536.5,-19"/>
<text text-anchor="middle" x="511.5" y="-7" font-family="Helvetica,sans-Serif" font-size="10.00">chrono</text>
</a>
</g>
</g>
<!-- Node9&#45;&gt;Node10 -->
<g id="edge10_Node000009_Node000010" class="edge">
<title>Node9&#45;&gt;Node10</title>
<g id="a_edge10_Node000009_Node000010"><a xlink:title=" ">
<path fill="none" stroke="#63b8ff" d="M442.15,-109.99C459.81,-101.94 479.51,-90.16 492.5,-74 502.75,-61.25 507.48,-43.07 509.65,-29.43"/>
<polygon fill="#63b8ff" stroke="#63b8ff" points="513.16,-29.62 510.94,-19.26 506.21,-28.74 513.16,-29.62"/>
</a>
</g>
</g>
<!-- Node11 -->
<g id="Node000011" class="node">
<title>Node11</title>
<g id="a_Node000011"><a xlink:title=" ">
<polygon fill="#e0e0e0" stroke="#999999" points="788,-74 735,-74 735,-55 788,-55 788,-74"/>
<text text-anchor="middle" x="761.5" y="-62" font-family="Helvetica,sans-Serif" font-size="10.00">cstddef</text>
</a>
</g>
</g>
<!-- Node9&#45;&gt;Node11 -->
<g id="edge11_Node000009_Node000011" class="edge">
<title>Node9&#45;&gt;Node11</title>
<g id="a_edge11_Node000009_Node000011"><a xlink:title=" ">
<path fill="none" stroke="#63b8ff" d="M458.3,-111.57C461.07,-111.02 463.82,-110.5 466.5,-110 559.09,-92.91 668.93,-77.65 724.84,-70.24"/>
<polygon fill="#63b8ff" stroke="#63b8ff" points="725.5,-73.69 734.96,-68.91 724.59,-66.75 725.5,-73.69"/>
</a>
</g>
</g>
<!-- Node12&#45;&gt;Node3 -->
<g id="edge16_Node000012_Node000003" class="edge">
<title>Node12&#45;&gt;Node3</title>
<g id="a_edge16_Node000012_Node000003"><a xlink:title=" ">
<path fill="none" stroke="#63b8ff" d="M842.64,-254.63C803.86,-250.56 754.32,-238.67 724.5,-206 712.59,-192.95 696.07,-75.82 689.93,-29.36"/>
<polygon fill="#63b8ff" stroke="#63b8ff" points="693.37,-28.64 688.6,-19.18 686.42,-29.55 693.37,-28.64"/>
</a>
</g>
</g>
<!-- Node13 -->
<g id="Node000013" class="node">
<title>Node13</title>
<g id="a_Node000013"><a xlink:title=" ">
<polygon fill="#e0e0e0" stroke="#999999" points="816,-200.5 733,-200.5 733,-181.5 816,-181.5 816,-200.5"/>
<text text-anchor="middle" x="774.5" y="-188.5" font-family="Helvetica,sans-Serif" font-size="10.00">initializer_list</text>
</a>
</g>
</g>
<!-- Node12&#45;&gt;Node13 -->
<g id="edge14_Node000012_Node000013" class="edge">
<title>Node12&#45;&gt;Node13</title>
<g id="a_edge14_Node000012_Node000013"><a xlink:title=" ">
<path fill="none" stroke="#63b8ff" d="M872.07,-241.95C850.63,-230.98 821.05,-215.83 800.1,-205.11"/>
<polygon fill="#63b8ff" stroke="#63b8ff" points="801.63,-201.96 791.14,-200.52 798.44,-208.19 801.63,-201.96"/>
</a>
</g>
</g>
<!-- Node14 -->
<g id="Node000014" class="node">
<title>Node14</title>
<g id="a_Node000014"><a xlink:title=" ">
<polygon fill="#e0e0e0" stroke="#999999" points="926,-200.5 873,-200.5 873,-181.5 926,-181.5 926,-200.5"/>
<text text-anchor="middle" x="899.5" y="-188.5" font-family="Helvetica,sans-Serif" font-size="10.00">iterator</text>
</a>
</g>
</g>
<!-- Node12&#45;&gt;Node14 -->
<g id="edge15_Node000012_Node000014" class="edge">
<title>Node12&#45;&gt;Node14</title>
<g id="a_edge15_Node000012_Node000014"><a xlink:title=" ">
<path fill="none" stroke="#63b8ff" d="M899.5,-241.8C899.5,-232.7 899.5,-220.79 899.5,-210.9"/>
<polygon fill="#63b8ff" stroke="#63b8ff" points="903,-210.84 899.5,-200.84 896,-210.84 903,-210.84"/>
</a>
</g>
</g>
<!-- Node15 -->
<g id="Node000015" class="node">
<title>Node15</title>
<g id="a_Node000015"><a xlink:title=" ">
<polygon fill="#e0e0e0" stroke="#999999" points="991,-200.5 944,-200.5 944,-181.5 991,-181.5 991,-200.5"/>
<text text-anchor="middle" x="967.5" y="-188.5" font-family="Helvetica,sans-Serif" font-size="10.00">vector</text>
</a>
</g>
</g>
<!-- Node12&#45;&gt;Node15 -->
<g id="edge17_Node000012_Node000015" class="edge">
<title>Node12&#45;&gt;Node15</title>
<g id="a_edge17_Node000012_Node000015"><a xlink:title=" ">
<path fill="none" stroke="#63b8ff" d="M914.59,-241.8C925.3,-231.72 939.67,-218.19 950.73,-207.78"/>
<polygon fill="#63b8ff" stroke="#63b8ff" points="953.22,-210.25 958.1,-200.84 948.42,-205.15 953.22,-210.25"/>
</a>
</g>
</g>
<!-- Node16 -->
<g id="Node000016" class="node">
<title>Node16</title>
<g id="a_Node000016"><a xlink:href="../../dc/d7d/json__fwd_8hpp.html" target="_top" xlink:title="Forward declarations of formats::json types, formats::parse::To and formats::serialize::To.">
<polygon fill="white" stroke="#666666" points="1165.5,-206 1047.5,-206 1047.5,-176 1165.5,-176 1165.5,-206"/>
<text text-anchor="start" x="1055.5" y="-194" font-family="Helvetica,sans-Serif" font-size="10.00">userver/formats/json</text>
<text text-anchor="middle" x="1106.5" y="-183" font-family="Helvetica,sans-Serif" font-size="10.00">_fwd.hpp</text>
</a>
</g>
</g>
<!-- Node12&#45;&gt;Node16 -->
<g id="edge18_Node000012_Node000016" class="edge">
<title>Node12&#45;&gt;Node16</title>
<g id="a_edge18_Node000012_Node000016"><a xlink:title=" ">
<path fill="none" stroke="#63b8ff" d="M944.93,-241.95C976.34,-232.24 1018.3,-219.27 1051.59,-208.98"/>
<polygon fill="#63b8ff" stroke="#63b8ff" points="1052.66,-212.31 1061.18,-206.01 1050.59,-205.62 1052.66,-212.31"/>
</a>
</g>
</g>
<!-- Node17 -->
<g id="Node000017" class="node">
<title>Node17</title>
<g id="a_Node000017"><a xlink:href="../../d2/dc8/universal_2include_2userver_2formats_2parse_2to_8hpp.html" target="_top" xlink:title="Helper for parsers.">
<polygon fill="white" stroke="#666666" points="1017,-140 892,-140 892,-110 1017,-110 1017,-140"/>
<text text-anchor="start" x="900" y="-128" font-family="Helvetica,sans-Serif" font-size="10.00">userver/formats/parse</text>
<text text-anchor="middle" x="954.5" y="-117" font-family="Helvetica,sans-Serif" font-size="10.00">/to.hpp</text>
</a>
</g>
</g>
<!-- Node12&#45;&gt;Node17 -->
<g id="edge21_Node000012_Node000017" class="edge">
<title>Node12&#45;&gt;Node17</title>
<g id="a_edge21_Node000012_Node000017"><a xlink:title=" ">
<path fill="none" stroke="#63b8ff" d="M953.75,-241.9C971.8,-234.34 989.97,-222.96 1000.5,-206 1012.74,-186.29 996.41,-163.28 979.92,-147.01"/>
<polygon fill="#63b8ff" stroke="#63b8ff" points="982.14,-144.29 972.43,-140.04 977.37,-149.42 982.14,-144.29"/>
</a>
</g>
</g>
<!-- Node19 -->
<g id="Node000019" class="node">
<title>Node19</title>
<g id="a_Node000019"><a xlink:href="../../de/dd5/predefined__header_8hpp_source.html" target="_top" xlink:title=" ">
<polygon fill="white" stroke="#666666" points="1351,-206 1220,-206 1220,-176 1351,-176 1351,-206"/>
<text text-anchor="start" x="1228" y="-194" font-family="Helvetica,sans-Serif" font-size="10.00">userver/http/predefined</text>
<text text-anchor="middle" x="1285.5" y="-183" font-family="Helvetica,sans-Serif" font-size="10.00">_header.hpp</text>
</a>
</g>
</g>
<!-- Node12&#45;&gt;Node19 -->
<g id="edge22_Node000012_Node000019" class="edge">
<title>Node12&#45;&gt;Node19</title>
<g id="a_edge22_Node000012_Node000019"><a xlink:title=" ">
<path fill="none" stroke="#63b8ff" d="M956.04,-246.63C1023.04,-235.52 1134.96,-216.96 1209.49,-204.6"/>
<polygon fill="#63b8ff" stroke="#63b8ff" points="1210.46,-207.99 1219.75,-202.9 1209.32,-201.08 1210.46,-207.99"/>
</a>
</g>
</g>
<!-- Node30 -->
<g id="Node000030" class="node">
<title>Node30</title>
<g id="a_Node000030"><a xlink:href="../../d5/d02/fast__pimpl_8hpp.html" target="_top" xlink:title="Implements pimpl idiom without dynamic memory allocation.">
<polygon fill="white" stroke="#666666" points="874,-140 775,-140 775,-110 874,-110 874,-140"/>
<text text-anchor="start" x="783" y="-128" font-family="Helvetica,sans-Serif" font-size="10.00">userver/utils/fast</text>
<text text-anchor="middle" x="824.5" y="-117" font-family="Helvetica,sans-Serif" font-size="10.00">_pimpl.hpp</text>
</a>
</g>
</g>
<!-- Node12&#45;&gt;Node30 -->
<g id="edge41_Node000012_Node000030" class="edge">
<title>Node12&#45;&gt;Node30</title>
<g id="a_edge41_Node000012_Node000030"><a xlink:title=" ">
<path fill="none" stroke="#63b8ff" d="M888.82,-241.93C881.57,-232.11 871.98,-218.56 864.5,-206 853.51,-187.55 842.72,-165.69 835.12,-149.48"/>
<polygon fill="#63b8ff" stroke="#63b8ff" points="838.21,-147.81 830.83,-140.21 831.85,-150.75 838.21,-147.81"/>
</a>
</g>
</g>
<!-- Node16&#45;&gt;Node17 -->
<g id="edge19_Node000016_Node000017" class="edge">
<title>Node16&#45;&gt;Node17</title>
<g id="a_edge19_Node000016_Node000017"><a xlink:title=" ">
<path fill="none" stroke="#63b8ff" d="M1073.14,-175.95C1050.77,-166.53 1021.11,-154.04 997.04,-143.91"/>
<polygon fill="#63b8ff" stroke="#63b8ff" points="998.35,-140.67 987.78,-140.01 995.64,-147.12 998.35,-140.67"/>
</a>
</g>
</g>
<!-- Node18 -->
<g id="Node000018" class="node">
<title>Node18</title>
<g id="a_Node000018"><a xlink:href="../../d6/d8e/universal_2include_2userver_2formats_2serialize_2to_8hpp.html" target="_top" xlink:title="Helper for serializers.">
<polygon fill="white" stroke="#666666" points="1174,-140 1035,-140 1035,-110 1174,-110 1174,-140"/>
<text text-anchor="start" x="1043" y="-128" font-family="Helvetica,sans-Serif" font-size="10.00">userver/formats/serialize</text>
<text text-anchor="middle" x="1104.5" y="-117" font-family="Helvetica,sans-Serif" font-size="10.00">/to.hpp</text>
</a>
</g>
</g>
<!-- Node16&#45;&gt;Node18 -->
<g id="edge20_Node000016_Node000018" class="edge">
<title>Node16&#45;&gt;Node18</title>
<g id="a_edge20_Node000016_Node000018"><a xlink:title=" ">
<path fill="none" stroke="#63b8ff" d="M1106.06,-175.8C1105.82,-168.34 1105.53,-158.99 1105.26,-150.41"/>
<polygon fill="#63b8ff" stroke="#63b8ff" points="1108.75,-150.05 1104.94,-140.16 1101.76,-150.27 1108.75,-150.05"/>
</a>
</g>
</g>
<!-- Node19&#45;&gt;Node3 -->
<g id="edge23_Node000019_Node000003" class="edge">
<title>Node19&#45;&gt;Node3</title>
<g id="a_edge23_Node000019_Node000003"><a xlink:title=" ">
<path fill="none" stroke="#63b8ff" d="M1267.79,-175.92C1239.23,-153.23 1185.93,-111.01 1183.5,-110 1062.75,-59.82 1016.87,-111.14 891.5,-74 873.01,-68.52 870.56,-61.76 852.5,-55 807.5,-38.14 753.39,-24.8 719.71,-17.28"/>
<polygon fill="#63b8ff" stroke="#63b8ff" points="720.05,-13.77 709.54,-15.04 718.55,-20.61 720.05,-13.77"/>
</a>
</g>
</g>
<!-- Node19&#45;&gt;Node7 -->
<g id="edge24_Node000019_Node000007" class="edge">
<title>Node19&#45;&gt;Node7</title>
<g id="a_edge24_Node000019_Node000007"><a xlink:title=" ">
<path fill="none" stroke="#63b8ff" d="M1351.41,-186.86C1463.52,-180.84 1681.49,-165.92 1704.5,-140 1740.1,-99.9 1668.81,-48.51 1628.92,-24.3"/>
<polygon fill="#63b8ff" stroke="#63b8ff" points="1630.62,-21.24 1620.23,-19.15 1627.05,-27.26 1630.62,-21.24"/>
</a>
</g>
</g>
<!-- Node20 -->
<g id="Node000020" class="node">
<title>Node20</title>
<g id="a_Node000020"><a xlink:title=" ">
<polygon fill="#e0e0e0" stroke="#999999" points="1695,-134.5 1628,-134.5 1628,-115.5 1695,-115.5 1695,-134.5"/>
<text text-anchor="middle" x="1661.5" y="-122.5" font-family="Helvetica,sans-Serif" font-size="10.00">fmt/core.h</text>
</a>
</g>
</g>
<!-- Node19&#45;&gt;Node20 -->
<g id="edge25_Node000019_Node000020" class="edge">
<title>Node19&#45;&gt;Node20</title>
<g id="a_edge25_Node000019_Node000020"><a xlink:title=" ">
<path fill="none" stroke="#63b8ff" d="M1351,-182.61C1417.55,-174.49 1523.37,-159.92 1613.5,-140 1617.15,-139.19 1620.92,-138.26 1624.69,-137.27"/>
<polygon fill="#63b8ff" stroke="#63b8ff" points="1625.8,-140.6 1634.5,-134.55 1623.93,-133.85 1625.8,-140.6"/>
</a>
</g>
</g>
<!-- Node21 -->
<g id="Node000021" class="node">
<title>Node21</title>
<g id="a_Node000021"><a xlink:href="../../d7/d32/trivial__map_8hpp.html" target="_top" xlink:title="Bidirectional map|sets over string literals or other trivial types.">
<polygon fill="white" stroke="#666666" points="1340,-140 1231,-140 1231,-110 1340,-110 1340,-140"/>
<text text-anchor="start" x="1239" y="-128" font-family="Helvetica,sans-Serif" font-size="10.00">userver/utils/trivial</text>
<text text-anchor="middle" x="1285.5" y="-117" font-family="Helvetica,sans-Serif" font-size="10.00">_map.hpp</text>
</a>
</g>
</g>
<!-- Node19&#45;&gt;Node21 -->
<g id="edge26_Node000019_Node000021" class="edge">
<title>Node19&#45;&gt;Node21</title>
<g id="a_edge26_Node000019_Node000021"><a xlink:title=" ">
<path fill="none" stroke="#63b8ff" d="M1285.5,-175.8C1285.5,-168.34 1285.5,-158.99 1285.5,-150.41"/>
<polygon fill="#63b8ff" stroke="#63b8ff" points="1289,-150.16 1285.5,-140.16 1282,-150.16 1289,-150.16"/>
</a>
</g>
</g>
<!-- Node21&#45;&gt;Node3 -->
<g id="edge29_Node000021_Node000003" class="edge">
<title>Node21&#45;&gt;Node3</title>
<g id="a_edge29_Node000021_Node000003"><a xlink:title=" ">
<path fill="none" stroke="#63b8ff" d="M1278.87,-109.73C1270.42,-93.36 1254.13,-67.19 1231.5,-55 1186.44,-30.72 829.96,-15.73 719.81,-11.64"/>
<polygon fill="#63b8ff" stroke="#63b8ff" points="719.77,-8.14 709.65,-11.27 719.51,-15.13 719.77,-8.14"/>
</a>
</g>
</g>
<!-- Node21&#45;&gt;Node7 -->
<g id="edge30_Node000021_Node000007" class="edge">
<title>Node21&#45;&gt;Node7</title>
<g id="a_edge30_Node000021_Node000007"><a xlink:title=" ">
<path fill="none" stroke="#63b8ff" d="M1340.02,-121.69C1416.39,-117.35 1549.9,-105.38 1585.5,-74 1598.03,-62.95 1602.46,-44.01 1603.95,-29.68"/>
<polygon fill="#63b8ff" stroke="#63b8ff" points="1607.46,-29.62 1604.61,-19.42 1600.47,-29.18 1607.46,-29.62"/>
</a>
</g>
</g>
<!-- Node21&#45;&gt;Node11 -->
<g id="edge27_Node000021_Node000011" class="edge">
<title>Node21&#45;&gt;Node11</title>
<g id="a_edge27_Node000021_Node000011"><a xlink:title=" ">
<path fill="none" stroke="#63b8ff" d="M1230.77,-116.04C1215.48,-113.94 1198.86,-111.77 1183.5,-110 1015.59,-90.66 969.28,-101.43 798.26,-73.88"/>
<polygon fill="#63b8ff" stroke="#63b8ff" points="798.59,-70.38 788.15,-72.23 797.46,-77.29 798.59,-70.38"/>
</a>
</g>
</g>
<!-- Node22 -->
<g id="Node000022" class="node">
<title>Node22</title>
<g id="a_Node000022"><a xlink:title=" ">
<polygon fill="#e0e0e0" stroke="#999999" points="483.5,-74 427.5,-74 427.5,-55 483.5,-55 483.5,-74"/>
<text text-anchor="middle" x="455.5" y="-62" font-family="Helvetica,sans-Serif" font-size="10.00">optional</text>
</a>
</g>
</g>
<!-- Node21&#45;&gt;Node22 -->
<g id="edge28_Node000021_Node000022" class="edge">
<title>Node21&#45;&gt;Node22</title>
<g id="a_edge28_Node000021_Node000022"><a xlink:title=" ">
<path fill="none" stroke="#63b8ff" d="M1230.8,-115.72C1215.52,-113.62 1198.89,-111.52 1183.5,-110 920.4,-83.94 602.19,-70.79 493.79,-66.82"/>
<polygon fill="#63b8ff" stroke="#63b8ff" points="493.79,-63.32 483.67,-66.46 493.54,-70.32 493.79,-63.32"/>
</a>
</g>
</g>
<!-- Node23 -->
<g id="Node000023" class="node">
<title>Node23</title>
<g id="a_Node000023"><a xlink:title=" ">
<polygon fill="#e0e0e0" stroke="#999999" points="1032,-74 963,-74 963,-55 1032,-55 1032,-74"/>
<text text-anchor="middle" x="997.5" y="-62" font-family="Helvetica,sans-Serif" font-size="10.00">type_traits</text>
</a>
</g>
</g>
<!-- Node21&#45;&gt;Node23 -->
<g id="edge31_Node000021_Node000023" class="edge">
<title>Node21&#45;&gt;Node23</title>
<g id="a_edge31_Node000021_Node000023"><a xlink:title=" ">
<path fill="none" stroke="#63b8ff" d="M1230.99,-112.93C1176.37,-101.83 1093.3,-84.96 1042.37,-74.61"/>
<polygon fill="#63b8ff" stroke="#63b8ff" points="1042.82,-71.13 1032.32,-72.57 1041.42,-77.99 1042.82,-71.13"/>
</a>
</g>
</g>
<!-- Node24 -->
<g id="Node000024" class="node">
<title>Node24</title>
<g id="a_Node000024"><a xlink:title=" ">
<polygon fill="#e0e0e0" stroke="#999999" points="945,-74 900,-74 900,-55 945,-55 945,-74"/>
<text text-anchor="middle" x="922.5" y="-62" font-family="Helvetica,sans-Serif" font-size="10.00">utility</text>
</a>
</g>
</g>
<!-- Node21&#45;&gt;Node24 -->
<g id="edge32_Node000021_Node000024" class="edge">
<title>Node21&#45;&gt;Node24</title>
<g id="a_edge32_Node000021_Node000024"><a xlink:title=" ">
<path fill="none" stroke="#63b8ff" d="M1230.95,-112.6C1226.07,-111.68 1221.2,-110.8 1216.5,-110 1103.79,-90.84 1071.49,-96.78 955.16,-73.88"/>
<polygon fill="#63b8ff" stroke="#63b8ff" points="955.64,-70.41 945.14,-71.88 954.27,-77.28 955.64,-70.41"/>
</a>
</g>
</g>
<!-- Node25 -->
<g id="Node000025" class="node">
<title>Node25</title>
<g id="a_Node000025"><a xlink:title=" ">
<polygon fill="#e0e0e0" stroke="#999999" points="1330,-74 1279,-74 1279,-55 1330,-55 1330,-74"/>
<text text-anchor="middle" x="1304.5" y="-62" font-family="Helvetica,sans-Serif" font-size="10.00">variant</text>
</a>
</g>
</g>
<!-- Node21&#45;&gt;Node25 -->
<g id="edge33_Node000021_Node000025" class="edge">
<title>Node21&#45;&gt;Node25</title>
<g id="a_edge33_Node000021_Node000025"><a xlink:title=" ">
<path fill="none" stroke="#63b8ff" d="M1290.1,-109.84C1292.63,-102.04 1295.81,-92.27 1298.53,-83.89"/>
<polygon fill="#63b8ff" stroke="#63b8ff" points="1301.89,-84.86 1301.65,-74.27 1295.24,-82.7 1301.89,-84.86"/>
</a>
</g>
</g>
<!-- Node26 -->
<g id="Node000026" class="node">
<title>Node26</title>
<g id="a_Node000026"><a xlink:title=" ">
<polygon fill="#e0e0e0" stroke="#999999" points="1427,-74 1348,-74 1348,-55 1427,-55 1427,-74"/>
<text text-anchor="middle" x="1387.5" y="-62" font-family="Helvetica,sans-Serif" font-size="10.00">fmt/format.h</text>
</a>
</g>
</g>
<!-- Node21&#45;&gt;Node26 -->
<g id="edge34_Node000021_Node000026" class="edge">
<title>Node21&#45;&gt;Node26</title>
<g id="a_edge34_Node000021_Node000026"><a xlink:title=" ">
<path fill="none" stroke="#63b8ff" d="M1309.93,-109.99C1326.19,-100.66 1347.45,-88.47 1363.6,-79.21"/>
<polygon fill="#63b8ff" stroke="#63b8ff" points="1365.5,-82.15 1372.44,-74.14 1362.02,-76.08 1365.5,-82.15"/>
</a>
</g>
</g>
<!-- Node27 -->
<g id="Node000027" class="node">
<title>Node27</title>
<g id="a_Node000027"><a xlink:href="../../d1/d37/demangle_8hpp.html" target="_top" xlink:title="Returns a human&#45;readable representation of provided type name.">
<polygon fill="white" stroke="#666666" points="1222.5,-74 1050.5,-74 1050.5,-55 1222.5,-55 1222.5,-74"/>
<text text-anchor="middle" x="1136.5" y="-62" font-family="Helvetica,sans-Serif" font-size="10.00">userver/compiler/demangle.hpp</text>
</a>
</g>
</g>
<!-- Node21&#45;&gt;Node27 -->
<g id="edge35_Node000021_Node000027" class="edge">
<title>Node21&#45;&gt;Node27</title>
<g id="a_edge35_Node000021_Node000027"><a xlink:title=" ">
<path fill="none" stroke="#63b8ff" d="M1249.81,-109.99C1224.84,-100.18 1191.8,-87.21 1167.84,-77.81"/>
<polygon fill="#63b8ff" stroke="#63b8ff" points="1169.09,-74.54 1158.5,-74.14 1166.53,-81.05 1169.09,-74.54"/>
</a>
</g>
</g>
<!-- Node29 -->
<g id="Node000029" class="node">
<title>Node29</title>
<g id="a_Node000029"><a xlink:href="../../d2/d54/assert_8hpp.html" target="_top" xlink:title="Assertion macros UASSERT, UASSERT_MSG, UINVARIANT.">
<polygon fill="white" stroke="#666666" points="1576,-74 1445,-74 1445,-55 1576,-55 1576,-74"/>
<text text-anchor="middle" x="1510.5" y="-62" font-family="Helvetica,sans-Serif" font-size="10.00">userver/utils/assert.hpp</text>
</a>
</g>
</g>
<!-- Node21&#45;&gt;Node29 -->
<g id="edge39_Node000021_Node000029" class="edge">
<title>Node21&#45;&gt;Node29</title>
<g id="a_edge39_Node000021_Node000029"><a xlink:title=" ">
<path fill="none" stroke="#63b8ff" d="M1339.39,-109.99C1378.73,-99.76 1431.32,-86.09 1467.77,-76.61"/>
<polygon fill="#63b8ff" stroke="#63b8ff" points="1468.8,-79.96 1477.6,-74.05 1467.04,-73.18 1468.8,-79.96"/>
</a>
</g>
</g>
<!-- Node27&#45;&gt;Node3 -->
<g id="edge37_Node000027_Node000003" class="edge">
<title>Node27&#45;&gt;Node3</title>
<g id="a_edge37_Node000027_Node000003"><a xlink:title=" ">
<path fill="none" stroke="#63b8ff" d="M1064.36,-54.98C965.33,-43.29 791.4,-22.76 719.75,-14.31"/>
<polygon fill="#63b8ff" stroke="#63b8ff" points="719.89,-10.8 709.55,-13.1 719.07,-17.75 719.89,-10.8"/>
</a>
</g>
</g>
<!-- Node27&#45;&gt;Node10 -->
<g id="edge36_Node000027_Node000010" class="edge">
<title>Node27&#45;&gt;Node10</title>
<g id="a_edge36_Node000027_Node000010"><a xlink:title=" ">
<path fill="none" stroke="#63b8ff" d="M1050.29,-55.77C1047.32,-55.51 1044.39,-55.25 1041.5,-55 855.14,-38.84 631.83,-20.39 546.75,-13.39"/>
<polygon fill="#63b8ff" stroke="#63b8ff" points="546.86,-9.89 536.61,-12.56 546.29,-16.87 546.86,-9.89"/>
</a>
</g>
</g>
<!-- Node28 -->
<g id="Node000028" class="node">
<title>Node28</title>
<g id="a_Node000028"><a xlink:title=" ">
<polygon fill="#e0e0e0" stroke="#999999" points="1169,-19 1104,-19 1104,0 1169,0 1169,-19"/>
<text text-anchor="middle" x="1136.5" y="-7" font-family="Helvetica,sans-Serif" font-size="10.00">typeindex</text>
</a>
</g>
</g>
<!-- Node27&#45;&gt;Node28 -->
<g id="edge38_Node000027_Node000028" class="edge">
<title>Node27&#45;&gt;Node28</title>
<g id="a_edge38_Node000027_Node000028"><a xlink:title=" ">
<path fill="none" stroke="#63b8ff" d="M1136.5,-54.75C1136.5,-47.8 1136.5,-37.85 1136.5,-29.13"/>
<polygon fill="#63b8ff" stroke="#63b8ff" points="1140,-29.09 1136.5,-19.09 1133,-29.09 1140,-29.09"/>
</a>
</g>
</g>
<!-- Node29&#45;&gt;Node7 -->
<g id="edge40_Node000029_Node000007" class="edge">
<title>Node29&#45;&gt;Node7</title>
<g id="a_edge40_Node000029_Node000007"><a xlink:title=" ">
<path fill="none" stroke="#63b8ff" d="M1525.6,-54.98C1540.32,-46.69 1562.92,-33.94 1580.17,-24.22"/>
<polygon fill="#63b8ff" stroke="#63b8ff" points="1582.13,-27.13 1589.12,-19.17 1578.69,-21.03 1582.13,-27.13"/>
</a>
</g>
</g>
<!-- Node30&#45;&gt;Node11 -->
<g id="edge42_Node000030_Node000011" class="edge">
<title>Node30&#45;&gt;Node11</title>
<g id="a_edge42_Node000030_Node000011"><a xlink:title=" ">
<path fill="none" stroke="#63b8ff" d="M809.25,-109.84C799.92,-101.17 787.97,-90.08 778.35,-81.15"/>
<polygon fill="#63b8ff" stroke="#63b8ff" points="780.65,-78.51 770.94,-74.27 775.89,-83.64 780.65,-78.51"/>
</a>
</g>
</g>
<!-- Node30&#45;&gt;Node23 -->
<g id="edge44_Node000030_Node000023" class="edge">
<title>Node30&#45;&gt;Node23</title>
<g id="a_edge44_Node000030_Node000023"><a xlink:title=" ">
<path fill="none" stroke="#63b8ff" d="M865.94,-109.99C895.41,-100.02 934.56,-86.78 962.47,-77.35"/>
<polygon fill="#63b8ff" stroke="#63b8ff" points="963.85,-80.57 972.2,-74.05 961.61,-73.94 963.85,-80.57"/>
</a>
</g>
</g>
<!-- Node30&#45;&gt;Node24 -->
<g id="edge45_Node000030_Node000024" class="edge">
<title>Node30&#45;&gt;Node24</title>
<g id="a_edge45_Node000030_Node000024"><a xlink:title=" ">
<path fill="none" stroke="#63b8ff" d="M848.22,-109.84C863.7,-100.6 883.82,-88.59 899.21,-79.4"/>
<polygon fill="#63b8ff" stroke="#63b8ff" points="901.31,-82.23 908.1,-74.09 897.72,-76.21 901.31,-82.23"/>
</a>
</g>
</g>
<!-- Node31 -->
<g id="Node000031" class="node">
<title>Node31</title>
<g id="a_Node000031"><a xlink:title=" ">
<polygon fill="#e0e0e0" stroke="#999999" points="843,-74 806,-74 806,-55 843,-55 843,-74"/>
<text text-anchor="middle" x="824.5" y="-62" font-family="Helvetica,sans-Serif" font-size="10.00">new</text>
</a>
</g>
</g>
<!-- Node30&#45;&gt;Node31 -->
<g id="edge43_Node000030_Node000031" class="edge">
<title>Node30&#45;&gt;Node31</title>
<g id="a_edge43_Node000030_Node000031"><a xlink:title=" ">
<path fill="none" stroke="#63b8ff" d="M824.5,-109.84C824.5,-102.21 824.5,-92.7 824.5,-84.45"/>
<polygon fill="#63b8ff" stroke="#63b8ff" points="828,-84.27 824.5,-74.27 821,-84.27 828,-84.27"/>
</a>
</g>
</g>
<!-- Node32&#45;&gt;Node3 -->
<g id="edge50_Node000032_Node000003" class="edge">
<title>Node32&#45;&gt;Node3</title>
<g id="a_edge50_Node000032_Node000003"><a xlink:title=" ">
<path fill="none" stroke="#63b8ff" d="M189.34,-109.76C202.69,-93.41 227,-67.27 254.5,-55 290.88,-38.76 561.12,-19.08 655.27,-12.65"/>
<polygon fill="#63b8ff" stroke="#63b8ff" points="655.61,-16.13 665.35,-11.96 655.13,-9.15 655.61,-16.13"/>
</a>
</g>
</g>
<!-- Node32&#45;&gt;Node4 -->
<g id="edge51_Node000032_Node000004" class="edge">
<title>Node32&#45;&gt;Node4</title>
<g id="a_edge51_Node000032_Node000004"><a xlink:title=" ">
<path fill="none" stroke="#63b8ff" d="M146.88,-109.99C125.15,-100.36 96.53,-87.67 75.41,-78.31"/>
<polygon fill="#63b8ff" stroke="#63b8ff" points="76.55,-74.99 65.99,-74.14 73.72,-81.39 76.55,-74.99"/>
</a>
</g>
</g>
<!-- Node32&#45;&gt;Node10 -->
<g id="edge47_Node000032_Node000010" class="edge">
<title>Node32&#45;&gt;Node10</title>
<g id="a_edge47_Node000032_Node000010"><a xlink:title=" ">
<path fill="none" stroke="#63b8ff" d="M161.24,-109.9C145.16,-95.09 125.71,-71.67 140.5,-55 151.6,-42.48 385.81,-21.24 476.28,-13.46"/>
<polygon fill="#63b8ff" stroke="#63b8ff" points="476.66,-16.94 486.32,-12.6 476.06,-9.97 476.66,-16.94"/>
</a>
</g>
</g>
<!-- Node32&#45;&gt;Node22 -->
<g id="edge49_Node000032_Node000022" class="edge">
<title>Node32&#45;&gt;Node22</title>
<g id="a_edge49_Node000032_Node000022"><a xlink:title=" ">
<path fill="none" stroke="#63b8ff" d="M246.8,-109.97C294.63,-100.08 360.01,-86.44 417.5,-74 417.6,-73.98 417.7,-73.96 417.8,-73.94"/>
<polygon fill="#63b8ff" stroke="#63b8ff" points="418.27,-77.42 427.29,-71.86 416.77,-70.58 418.27,-77.42"/>
</a>
</g>
</g>
<!-- Node33 -->
<g id="Node000033" class="node">
<title>Node33</title>
<g id="a_Node000033"><a xlink:title=" ">
<polygon fill="#e0e0e0" stroke="#999999" points="207.5,-74 149.5,-74 149.5,-55 207.5,-55 207.5,-74"/>
<text text-anchor="middle" x="178.5" y="-62" font-family="Helvetica,sans-Serif" font-size="10.00">memory</text>
</a>
</g>
</g>
<!-- Node32&#45;&gt;Node33 -->
<g id="edge48_Node000032_Node000033" class="edge">
<title>Node32&#45;&gt;Node33</title>
<g id="a_edge48_Node000032_Node000033"><a xlink:title=" ">
<path fill="none" stroke="#63b8ff" d="M178.5,-109.84C178.5,-102.21 178.5,-92.7 178.5,-84.45"/>
<polygon fill="#63b8ff" stroke="#63b8ff" points="182,-84.27 178.5,-74.27 175,-84.27 182,-84.27"/>
</a>
</g>
</g>
<!-- Node32&#45;&gt;Node34 -->
<g id="edge52_Node000032_Node000034" class="edge">
<title>Node32&#45;&gt;Node34</title>
<g id="a_edge52_Node000032_Node000034"><a xlink:title=" ">
<path fill="none" stroke="#63b8ff" d="M216.34,-109.99C242.94,-100.14 278.17,-87.1 303.6,-77.68"/>
<polygon fill="#63b8ff" stroke="#63b8ff" points="305,-80.89 313.17,-74.14 302.57,-74.33 305,-80.89"/>
</a>
</g>
</g>
<!-- Node34&#45;&gt;Node3 -->
<g id="edge54_Node000034_Node000003" class="edge">
<title>Node34&#45;&gt;Node3</title>
<g id="a_edge54_Node000034_Node000003"><a xlink:title=" ">
<path fill="none" stroke="#63b8ff" d="M392.89,-54.98C467.3,-43.75 595.78,-24.35 655.4,-15.35"/>
<polygon fill="#63b8ff" stroke="#63b8ff" points="656,-18.8 665.36,-13.84 654.95,-11.88 656,-18.8"/>
</a>
</g>
</g>
<!-- Node34&#45;&gt;Node7 -->
<g id="edge55_Node000034_Node000007" class="edge">
<title>Node34&#45;&gt;Node7</title>
<g id="a_edge55_Node000034_Node000007"><a xlink:title=" ">
<path fill="none" stroke="#63b8ff" d="M409.36,-55.7C412.44,-55.45 415.5,-55.21 418.5,-55 860.53,-23.83 1396.87,-13.63 1557.12,-11.16"/>
<polygon fill="#63b8ff" stroke="#63b8ff" points="1557.62,-14.65 1567.56,-11 1557.51,-7.65 1557.62,-14.65"/>
</a>
</g>
</g>
<!-- Node35 -->
<g id="Node000035" class="node">
<title>Node35</title>
<g id="a_Node000035"><a xlink:title=" ">
<polygon fill="#e0e0e0" stroke="#999999" points="361.5,-19 311.5,-19 311.5,0 361.5,0 361.5,-19"/>
<text text-anchor="middle" x="336.5" y="-7" font-family="Helvetica,sans-Serif" font-size="10.00">cstdint</text>
</a>
</g>
</g>
<!-- Node34&#45;&gt;Node35 -->
<g id="edge53_Node000034_Node000035" class="edge">
<title>Node34&#45;&gt;Node35</title>
<g id="a_edge53_Node000034_Node000035"><a xlink:title=" ">
<path fill="none" stroke="#63b8ff" d="M336.5,-54.75C336.5,-47.8 336.5,-37.85 336.5,-29.13"/>
<polygon fill="#63b8ff" stroke="#63b8ff" points="340,-29.09 336.5,-19.09 333,-29.09 340,-29.09"/>
</a>
</g>
</g>
</g>
</svg>
