<?xml version="1.0" encoding="UTF-8" standalone="no"?>
<!DOCTYPE svg PUBLIC "-//W3C//DTD SVG 1.1//EN"
 "http://www.w3.org/Graphics/SVG/1.1/DTD/svg11.dtd">
<!-- Generated by graphviz version 2.42.4 (0)
 -->
<!-- Title: storages::postgres::QueryCancelled Pages: 1 -->
<svg width="133pt" height="401pt"
 viewBox="0.00 0.00 133.00 401.00" xmlns="http://www.w3.org/2000/svg" xmlns:xlink="http://www.w3.org/1999/xlink">
<g id="graph0" class="graph" transform="scale(1 1) rotate(0) translate(4 397)">
<title>storages::postgres::QueryCancelled</title>
<!-- Node1 -->
<g id="Node000001" class="node">
<title>Node1</title>
<g id="a_Node000001"><a xlink:title=" ">
<polygon fill="#999999" stroke="#666666" points="116,-30 9,-30 9,0 116,0 116,-30"/>
<text text-anchor="start" x="17" y="-18" font-family="Helvetica,sans-Serif" font-size="10.00">storages::postgres</text>
<text text-anchor="middle" x="62.5" y="-7" font-family="Helvetica,sans-Serif" font-size="10.00">::QueryCancelled</text>
</a>
</g>
</g>
<!-- Node2 -->
<g id="Node000002" class="node">
<title>Node2</title>
<g id="a_Node000002"><a xlink:href="../../da/dd5/classstorages_1_1postgres_1_1OperatorIntervention.html" target="_top" xlink:title=" ">
<polygon fill="white" stroke="#bfbfbf" points="125,-96 0,-96 0,-66 125,-66 125,-96"/>
<text text-anchor="start" x="8" y="-84" font-family="Helvetica,sans-Serif" font-size="10.00">storages::postgres</text>
<text text-anchor="middle" x="62.5" y="-73" font-family="Helvetica,sans-Serif" font-size="10.00">::OperatorIntervention</text>
</a>
</g>
</g>
<!-- Node2&#45;&gt;Node1 -->
<g id="edge1_Node000001_Node000002" class="edge">
<title>Node2&#45;&gt;Node1</title>
<g id="a_edge1_Node000001_Node000002"><a xlink:title=" ">
<path fill="none" stroke="#63b8ff" d="M62.5,-55.54C62.5,-46.96 62.5,-37.61 62.5,-30.16"/>
<polygon fill="#63b8ff" stroke="#63b8ff" points="59,-55.8 62.5,-65.8 66,-55.8 59,-55.8"/>
</a>
</g>
</g>
<!-- Node3 -->
<g id="Node000003" class="node">
<title>Node3</title>
<g id="a_Node000003"><a xlink:href="../../da/d34/classstorages_1_1postgres_1_1ServerError.html" target="_top" xlink:title=" ">
<polygon fill="white" stroke="#666666" points="119,-151 6,-151 6,-132 119,-132 119,-151"/>
<text text-anchor="middle" x="62.5" y="-139" font-family="Helvetica,sans-Serif" font-size="10.00">ServerRuntimeError</text>
</a>
</g>
</g>
<!-- Node3&#45;&gt;Node2 -->
<g id="edge2_Node000002_Node000003" class="edge">
<title>Node3&#45;&gt;Node2</title>
<g id="a_edge2_Node000002_Node000003"><a xlink:title=" ">
<path fill="none" stroke="#63b8ff" d="M62.5,-121.65C62.5,-113.36 62.5,-103.78 62.5,-96.11"/>
<polygon fill="#63b8ff" stroke="#63b8ff" points="59,-121.87 62.5,-131.87 66,-121.87 59,-121.87"/>
</a>
</g>
</g>
<!-- Node4 -->
<g id="Node000004" class="node">
<title>Node4</title>
<g id="a_Node000004"><a xlink:href="../../d6/d97/classstorages_1_1postgres_1_1RuntimeError.html" target="_top" xlink:title="Base Postgres runtime error. Reports errors that are consequences of erroneous data,...">
<polygon fill="white" stroke="#666666" points="116,-217 9,-217 9,-187 116,-187 116,-217"/>
<text text-anchor="start" x="17" y="-205" font-family="Helvetica,sans-Serif" font-size="10.00">storages::postgres</text>
<text text-anchor="middle" x="62.5" y="-194" font-family="Helvetica,sans-Serif" font-size="10.00">::RuntimeError</text>
</a>
</g>
</g>
<!-- Node4&#45;&gt;Node3 -->
<g id="edge3_Node000003_Node000004" class="edge">
<title>Node4&#45;&gt;Node3</title>
<g id="a_edge3_Node000003_Node000004"><a xlink:title=" ">
<path fill="none" stroke="#63b8ff" d="M62.5,-176.75C62.5,-167.72 62.5,-158.03 62.5,-151.27"/>
<polygon fill="#63b8ff" stroke="#63b8ff" points="59,-176.84 62.5,-186.84 66,-176.84 59,-176.84"/>
</a>
</g>
</g>
<!-- Node5 -->
<g id="Node000005" class="node">
<title>Node5</title>
<g id="a_Node000005"><a xlink:href="../../df/d3d/classstorages_1_1postgres_1_1Error.html" target="_top" xlink:title="Base class for all exceptions that may be thrown by the driver.">
<polygon fill="white" stroke="#666666" points="116,-283 9,-283 9,-253 116,-253 116,-283"/>
<text text-anchor="start" x="17" y="-271" font-family="Helvetica,sans-Serif" font-size="10.00">storages::postgres</text>
<text text-anchor="middle" x="62.5" y="-260" font-family="Helvetica,sans-Serif" font-size="10.00">::Error</text>
</a>
</g>
</g>
<!-- Node5&#45;&gt;Node4 -->
<g id="edge4_Node000004_Node000005" class="edge">
<title>Node5&#45;&gt;Node4</title>
<g id="a_edge4_Node000004_Node000005"><a xlink:title=" ">
<path fill="none" stroke="#63b8ff" d="M62.5,-242.54C62.5,-233.96 62.5,-224.61 62.5,-217.16"/>
<polygon fill="#63b8ff" stroke="#63b8ff" points="59,-242.8 62.5,-252.8 66,-242.8 59,-242.8"/>
</a>
</g>
</g>
<!-- Node6 -->
<g id="Node000006" class="node">
<title>Node6</title>
<g id="a_Node000006"><a xlink:title=" ">
<polygon fill="white" stroke="#666666" points="114.5,-338 10.5,-338 10.5,-319 114.5,-319 114.5,-338"/>
<text text-anchor="middle" x="62.5" y="-326" font-family="Helvetica,sans-Serif" font-size="10.00">std::runtime_error</text>
</a>
</g>
</g>
<!-- Node6&#45;&gt;Node5 -->
<g id="edge5_Node000005_Node000006" class="edge">
<title>Node6&#45;&gt;Node5</title>
<g id="a_edge5_Node000005_Node000006"><a xlink:title=" ">
<path fill="none" stroke="#63b8ff" d="M62.5,-308.65C62.5,-300.36 62.5,-290.78 62.5,-283.11"/>
<polygon fill="#63b8ff" stroke="#63b8ff" points="59,-308.87 62.5,-318.87 66,-308.87 59,-308.87"/>
</a>
</g>
</g>
<!-- Node7 -->
<g id="Node000007" class="node">
<title>Node7</title>
<g id="a_Node000007"><a xlink:title=" ">
<polygon fill="white" stroke="#666666" points="105.5,-393 19.5,-393 19.5,-374 105.5,-374 105.5,-393"/>
<text text-anchor="middle" x="62.5" y="-381" font-family="Helvetica,sans-Serif" font-size="10.00">std::exception</text>
</a>
</g>
</g>
<!-- Node7&#45;&gt;Node6 -->
<g id="edge6_Node000006_Node000007" class="edge">
<title>Node7&#45;&gt;Node6</title>
<g id="a_edge6_Node000006_Node000007"><a xlink:title=" ">
<path fill="none" stroke="#63b8ff" d="M62.5,-363.66C62.5,-354.93 62.5,-344.99 62.5,-338.09"/>
<polygon fill="#63b8ff" stroke="#63b8ff" points="59,-363.75 62.5,-373.75 66,-363.75 59,-363.75"/>
</a>
</g>
</g>
</g>
</svg>
