<?xml version="1.0" encoding="UTF-8" standalone="no"?>
<!DOCTYPE svg PUBLIC "-//W3C//DTD SVG 1.1//EN"
 "http://www.w3.org/Graphics/SVG/1.1/DTD/svg11.dtd">
<!-- Generated by graphviz version 2.42.4 (0)
 -->
<!-- Title: grpc_proto_structs::server::ReaderWriter&lt; Request, Response &gt; Pages: 1 -->
<svg width="335pt" height="86pt"
 viewBox="0.00 0.00 335.00 86.00" xmlns="http://www.w3.org/2000/svg" xmlns:xlink="http://www.w3.org/1999/xlink">
<g id="graph0" class="graph" transform="scale(1 1) rotate(0) translate(4 82)">
<title>grpc_proto_structs::server::ReaderWriter&lt; Request, Response &gt;</title>
<!-- Node1 -->
<g id="Node000001" class="node">
<title>Node1</title>
<g id="a_Node000001"><a xlink:title="proto&#45;struct based ReaderWriter adapter">
<polygon fill="#999999" stroke="#666666" points="327,-59.5 195,-59.5 195,-18.5 327,-18.5 327,-59.5"/>
<text text-anchor="start" x="203" y="-47.5" font-family="Helvetica,sans-Serif" font-size="10.00">grpc_proto_structs</text>
<text text-anchor="start" x="203" y="-36.5" font-family="Helvetica,sans-Serif" font-size="10.00">::server::ReaderWriter</text>
<text text-anchor="middle" x="261" y="-25.5" font-family="Helvetica,sans-Serif" font-size="10.00">&lt; Request, Response &gt;</text>
</a>
</g>
</g>
<!-- Node2 -->
<g id="Node000002" class="node">
<title>Node2</title>
<g id="a_Node000002"><a xlink:href="../../d0/d74/classgrpc__proto__structs_1_1server_1_1Reader.html" target="_top" xlink:title="proto&#45;struct based Reader adapter">
<polygon fill="white" stroke="#666666" points="157.5,-78 1.5,-78 1.5,-48 157.5,-48 157.5,-78"/>
<text text-anchor="start" x="9.5" y="-66" font-family="Helvetica,sans-Serif" font-size="10.00">grpc_proto_structs</text>
<text text-anchor="middle" x="79.5" y="-55" font-family="Helvetica,sans-Serif" font-size="10.00">::server::Reader&lt; Request &gt;</text>
</a>
</g>
</g>
<!-- Node2&#45;&gt;Node1 -->
<g id="edge1_Node000001_Node000002" class="edge">
<title>Node2&#45;&gt;Node1</title>
<g id="a_edge1_Node000001_Node000002"><a xlink:title=" ">
<path fill="none" stroke="#63b8ff" d="M167.85,-51.32C176.9,-50.11 185.99,-48.9 194.74,-47.73"/>
<polygon fill="#63b8ff" stroke="#63b8ff" points="167.11,-47.89 157.67,-52.68 168.04,-54.83 167.11,-47.89"/>
</a>
</g>
</g>
<!-- Node3 -->
<g id="Node000003" class="node">
<title>Node3</title>
<g id="a_Node000003"><a xlink:href="../../d8/d4b/classgrpc__proto__structs_1_1server_1_1Writer.html" target="_top" xlink:title="proto&#45;struct based Writer adapter">
<polygon fill="white" stroke="#666666" points="159,-30 0,-30 0,0 159,0 159,-30"/>
<text text-anchor="start" x="8" y="-18" font-family="Helvetica,sans-Serif" font-size="10.00">grpc_proto_structs</text>
<text text-anchor="middle" x="79.5" y="-7" font-family="Helvetica,sans-Serif" font-size="10.00">::server::Writer&lt; Response &gt;</text>
</a>
</g>
</g>
<!-- Node3&#45;&gt;Node1 -->
<g id="edge2_Node000001_Node000003" class="edge">
<title>Node3&#45;&gt;Node1</title>
<g id="a_edge2_Node000001_Node000003"><a xlink:title=" ">
<path fill="none" stroke="#63b8ff" d="M169.29,-26.87C177.88,-28.02 186.48,-29.17 194.77,-30.28"/>
<polygon fill="#63b8ff" stroke="#63b8ff" points="169.61,-23.38 159.23,-25.53 168.68,-30.32 169.61,-23.38"/>
</a>
</g>
</g>
</g>
</svg>
