<?xml version="1.0" encoding="UTF-8" standalone="no"?>
<!DOCTYPE svg PUBLIC "-//W3C//DTD SVG 1.1//EN"
 "http://www.w3.org/Graphics/SVG/1.1/DTD/svg11.dtd">
<!-- Generated by graphviz version 2.43.0 (0)
 -->
<!-- Title: userver/server/http/http_status.hpp Pages: 1 -->
<svg width="1992pt" height="467pt"
 viewBox="0.00 0.00 1992.00 467.00" xmlns="http://www.w3.org/2000/svg" xmlns:xlink="http://www.w3.org/1999/xlink">
<g id="graph0" class="graph" transform="scale(1 1) rotate(0) translate(4 463)">
<title>userver/server/http/http_status.hpp</title>
<!-- Node1 -->
<g id="Node000001" class="node">
<title>Node1</title>
<g id="a_Node000001"><a xlink:title="HTTP status codes.">
<polygon fill="#999999" stroke="#666666" points="1469,-459 1359,-459 1359,-429 1469,-429 1469,-459"/>
<text text-anchor="start" x="1367" y="-447" font-family="Helvetica,sans-Serif" font-size="10.00">userver/server/http</text>
<text text-anchor="middle" x="1414" y="-436" font-family="Helvetica,sans-Serif" font-size="10.00">/http_status.hpp</text>
</a>
</g>
</g>
<!-- Node2 -->
<g id="Node000002" class="node">
<title>Node2</title>
<g id="a_Node000002"><a xlink:href="../../de/d82/digest_2auth__checker__base_8hpp.html" target="_top" xlink:title="Base class for digest authentication checkers. Implements a digest&#45;authentication logic.">
<polygon fill="white" stroke="#666666" points="1749,-184 1607,-184 1607,-143 1749,-143 1749,-184"/>
<text text-anchor="start" x="1615" y="-172" font-family="Helvetica,sans-Serif" font-size="10.00">userver/server/handlers</text>
<text text-anchor="start" x="1615" y="-161" font-family="Helvetica,sans-Serif" font-size="10.00">/auth/digest/auth_checker</text>
<text text-anchor="middle" x="1678" y="-150" font-family="Helvetica,sans-Serif" font-size="10.00">_base.hpp</text>
</a>
</g>
</g>
<!-- Node1&#45;&gt;Node2 -->
<g id="edge1_Node000001_Node000002" class="edge">
<title>Node1&#45;&gt;Node2</title>
<g id="a_edge1_Node000001_Node000002"><a xlink:title=" ">
<path fill="none" stroke="#63b8ff" d="M1479.24,-435.69C1530.41,-428.59 1602.79,-415.51 1663,-393 1718.56,-372.23 1749.18,-378.28 1779,-327 1809.48,-274.6 1745.17,-214.32 1705.73,-184.03"/>
<polygon fill="#63b8ff" stroke="#63b8ff" points="1478.74,-432.23 1469.3,-437.03 1479.68,-439.16 1478.74,-432.23"/>
</a>
</g>
</g>
<!-- Node3 -->
<g id="Node000003" class="node">
<title>Node3</title>
<g id="a_Node000003"><a xlink:href="../../db/df0/standalone__checker_8hpp.html" target="_top" xlink:title="Class for digest authentication checker. Implements a stand&#45;alone digest&#45;authentication logic.">
<polygon fill="white" stroke="#666666" points="1984,-107 1852,-107 1852,-66 1984,-66 1984,-107"/>
<text text-anchor="start" x="1860" y="-95" font-family="Helvetica,sans-Serif" font-size="10.00">userver/server/handlers</text>
<text text-anchor="start" x="1860" y="-84" font-family="Helvetica,sans-Serif" font-size="10.00">/auth/digest/standalone</text>
<text text-anchor="middle" x="1918" y="-73" font-family="Helvetica,sans-Serif" font-size="10.00">_checker.hpp</text>
</a>
</g>
</g>
<!-- Node1&#45;&gt;Node3 -->
<g id="edge3_Node000001_Node000003" class="edge">
<title>Node1&#45;&gt;Node3</title>
<g id="a_edge3_Node000001_Node000003"><a xlink:title=" ">
<path fill="none" stroke="#63b8ff" d="M1479.31,-439.04C1615.03,-429.01 1915,-396.74 1915,-307.5 1915,-307.5 1915,-307.5 1915,-234 1915,-188.72 1916.45,-135.58 1917.33,-107.4"/>
<polygon fill="#63b8ff" stroke="#63b8ff" points="1478.77,-435.57 1469.05,-439.78 1479.27,-442.55 1478.77,-435.57"/>
</a>
</g>
</g>
<!-- Node4 -->
<g id="Node000004" class="node">
<title>Node4</title>
<g id="a_Node000004"><a xlink:href="../../d1/dcf/handler__config_8hpp_source.html" target="_top" xlink:title=" ">
<polygon fill="white" stroke="#666666" points="1139,-321.5 1007,-321.5 1007,-291.5 1139,-291.5 1139,-321.5"/>
<text text-anchor="start" x="1015" y="-309.5" font-family="Helvetica,sans-Serif" font-size="10.00">userver/server/handlers</text>
<text text-anchor="middle" x="1073" y="-298.5" font-family="Helvetica,sans-Serif" font-size="10.00">/handler_config.hpp</text>
</a>
</g>
</g>
<!-- Node1&#45;&gt;Node4 -->
<g id="edge4_Node000001_Node000004" class="edge">
<title>Node1&#45;&gt;Node4</title>
<g id="a_edge4_Node000001_Node000004"><a xlink:title=" ">
<path fill="none" stroke="#63b8ff" d="M1348.64,-438.58C1273.19,-432.35 1154.87,-418.75 1119,-393 1094.63,-375.5 1081.91,-341 1076.42,-321.6"/>
<polygon fill="#63b8ff" stroke="#63b8ff" points="1348.74,-442.1 1358.99,-439.41 1349.3,-435.12 1348.74,-442.1"/>
</a>
</g>
</g>
<!-- Node23 -->
<g id="Node000023" class="node">
<title>Node23</title>
<g id="a_Node000023"><a xlink:href="../../db/d08/legacy__json__error__builder_8hpp_source.html" target="_top" xlink:title=" ">
<polygon fill="white" stroke="#666666" points="1496.5,-393 1331.5,-393 1331.5,-363 1496.5,-363 1496.5,-393"/>
<text text-anchor="start" x="1339.5" y="-381" font-family="Helvetica,sans-Serif" font-size="10.00">userver/server/handlers</text>
<text text-anchor="middle" x="1414" y="-370" font-family="Helvetica,sans-Serif" font-size="10.00">/legacy_json_error_builder.hpp</text>
</a>
</g>
</g>
<!-- Node1&#45;&gt;Node23 -->
<g id="edge23_Node000001_Node000023" class="edge">
<title>Node1&#45;&gt;Node23</title>
<g id="a_edge23_Node000001_Node000023"><a xlink:title=" ">
<path fill="none" stroke="#63b8ff" d="M1414,-418.54C1414,-409.96 1414,-400.61 1414,-393.16"/>
<polygon fill="#63b8ff" stroke="#63b8ff" points="1410.5,-418.8 1414,-428.8 1417.5,-418.8 1410.5,-418.8"/>
</a>
</g>
</g>
<!-- Node24 -->
<g id="Node000024" class="node">
<title>Node24</title>
<g id="a_Node000024"><a xlink:href="../../da/dfa/http__error_8hpp.html" target="_top" xlink:title="Get http status code mapped to generic handler error code.">
<polygon fill="white" stroke="#666666" points="951,-321.5 841,-321.5 841,-291.5 951,-291.5 951,-321.5"/>
<text text-anchor="start" x="849" y="-309.5" font-family="Helvetica,sans-Serif" font-size="10.00">userver/server/http</text>
<text text-anchor="middle" x="896" y="-298.5" font-family="Helvetica,sans-Serif" font-size="10.00">/http_error.hpp</text>
</a>
</g>
</g>
<!-- Node1&#45;&gt;Node24 -->
<g id="edge24_Node000001_Node000024" class="edge">
<title>Node1&#45;&gt;Node24</title>
<g id="a_edge24_Node000001_Node000024"><a xlink:title=" ">
<path fill="none" stroke="#63b8ff" d="M1348.67,-438.06C1282.25,-431.85 1176.89,-418.73 1089,-393 1026.57,-374.72 957.93,-340.69 921.7,-321.53"/>
<polygon fill="#63b8ff" stroke="#63b8ff" points="1348.71,-441.57 1358.99,-438.99 1349.34,-434.6 1348.71,-441.57"/>
</a>
</g>
</g>
<!-- Node25 -->
<g id="Node000025" class="node">
<title>Node25</title>
<g id="a_Node000025"><a xlink:href="../../db/d6b/http__response_8hpp.html" target="_top" xlink:title="HTTP Response data.">
<polygon fill="white" stroke="#666666" points="1654,-393 1544,-393 1544,-363 1654,-363 1654,-393"/>
<text text-anchor="start" x="1552" y="-381" font-family="Helvetica,sans-Serif" font-size="10.00">userver/server/http</text>
<text text-anchor="middle" x="1599" y="-370" font-family="Helvetica,sans-Serif" font-size="10.00">/http_response.hpp</text>
</a>
</g>
</g>
<!-- Node1&#45;&gt;Node25 -->
<g id="edge26_Node000001_Node000025" class="edge">
<title>Node1&#45;&gt;Node25</title>
<g id="a_edge26_Node000001_Node000025"><a xlink:title=" ">
<path fill="none" stroke="#63b8ff" d="M1464.33,-425.59C1493.9,-415.36 1530.8,-402.59 1558.5,-393.01"/>
<polygon fill="#63b8ff" stroke="#63b8ff" points="1462.91,-422.38 1454.6,-428.95 1465.19,-428.99 1462.91,-422.38"/>
</a>
</g>
</g>
<!-- Node30 -->
<g id="Node000030" class="node">
<title>Node30</title>
<g id="a_Node000030"><a xlink:href="../../dd/d99/request__config_8hpp_source.html" target="_top" xlink:title=" ">
<polygon fill="white" stroke="#666666" points="1254.5,-393 1127.5,-393 1127.5,-363 1254.5,-363 1254.5,-393"/>
<text text-anchor="start" x="1135.5" y="-381" font-family="Helvetica,sans-Serif" font-size="10.00">userver/server/request</text>
<text text-anchor="middle" x="1191" y="-370" font-family="Helvetica,sans-Serif" font-size="10.00">/request_config.hpp</text>
</a>
</g>
</g>
<!-- Node1&#45;&gt;Node30 -->
<g id="edge41_Node000001_Node000030" class="edge">
<title>Node1&#45;&gt;Node30</title>
<g id="a_edge41_Node000001_Node000030"><a xlink:title=" ">
<path fill="none" stroke="#63b8ff" d="M1355.19,-426.12C1319.23,-415.8 1273.78,-402.76 1239.82,-393.01"/>
<polygon fill="#63b8ff" stroke="#63b8ff" points="1354.48,-429.56 1365.06,-428.95 1356.42,-422.83 1354.48,-429.56"/>
</a>
</g>
</g>
<!-- Node2&#45;&gt;Node3 -->
<g id="edge2_Node000002_Node000003" class="edge">
<title>Node2&#45;&gt;Node3</title>
<g id="a_edge2_Node000002_Node000003"><a xlink:title=" ">
<path fill="none" stroke="#63b8ff" d="M1750.18,-139.94C1783.72,-129.46 1823.22,-117.12 1855.47,-107.04"/>
<polygon fill="#63b8ff" stroke="#63b8ff" points="1748.93,-136.67 1740.43,-142.99 1751.02,-143.35 1748.93,-136.67"/>
</a>
</g>
</g>
<!-- Node5 -->
<g id="Node000005" class="node">
<title>Node5</title>
<g id="a_Node000005"><a xlink:href="../../db/ddd/auth__checker__factory_8hpp.html" target="_top" xlink:title="Authorization factory registration and base classes.">
<polygon fill="white" stroke="#666666" points="1050,-178.5 882,-178.5 882,-148.5 1050,-148.5 1050,-178.5"/>
<text text-anchor="start" x="890" y="-166.5" font-family="Helvetica,sans-Serif" font-size="10.00">userver/server/handlers</text>
<text text-anchor="middle" x="966" y="-155.5" font-family="Helvetica,sans-Serif" font-size="10.00">/auth/auth_checker_factory.hpp</text>
</a>
</g>
</g>
<!-- Node4&#45;&gt;Node5 -->
<g id="edge5_Node000004_Node000005" class="edge">
<title>Node4&#45;&gt;Node5</title>
<g id="a_edge5_Node000004_Node000005"><a xlink:title=" ">
<path fill="none" stroke="#63b8ff" d="M1038.16,-285.85C1024.12,-276.51 1008.74,-264.25 998,-250 981.5,-228.1 972.68,-196.76 968.71,-178.73"/>
<polygon fill="#63b8ff" stroke="#63b8ff" points="1036.36,-288.86 1046.68,-291.29 1040.13,-282.96 1036.36,-288.86"/>
</a>
</g>
</g>
<!-- Node6 -->
<g id="Node000006" class="node">
<title>Node6</title>
<g id="a_Node000006"><a xlink:href="../../df/dd5/handler__base_8hpp.html" target="_top" xlink:title="Base class for the request handlers.">
<polygon fill="white" stroke="#666666" points="1139,-250 1007,-250 1007,-220 1139,-220 1139,-250"/>
<text text-anchor="start" x="1015" y="-238" font-family="Helvetica,sans-Serif" font-size="10.00">userver/server/handlers</text>
<text text-anchor="middle" x="1073" y="-227" font-family="Helvetica,sans-Serif" font-size="10.00">/handler_base.hpp</text>
</a>
</g>
</g>
<!-- Node4&#45;&gt;Node6 -->
<g id="edge6_Node000004_Node000006" class="edge">
<title>Node4&#45;&gt;Node6</title>
<g id="a_edge6_Node000004_Node000006"><a xlink:title=" ">
<path fill="none" stroke="#63b8ff" d="M1073,-281.25C1073,-270.81 1073,-258.99 1073,-250.04"/>
<polygon fill="#63b8ff" stroke="#63b8ff" points="1069.5,-281.44 1073,-291.44 1076.5,-281.44 1069.5,-281.44"/>
</a>
</g>
</g>
<!-- Node7 -->
<g id="Node000007" class="node">
<title>Node7</title>
<g id="a_Node000007"><a xlink:href="../../d4/df6/http__handler__base_8hpp.html" target="_top" xlink:title="Base class for all the Userver HTTP Handlers.">
<polygon fill="white" stroke="#666666" points="1200,-178.5 1068,-178.5 1068,-148.5 1200,-148.5 1200,-178.5"/>
<text text-anchor="start" x="1076" y="-166.5" font-family="Helvetica,sans-Serif" font-size="10.00">userver/server/handlers</text>
<text text-anchor="middle" x="1134" y="-155.5" font-family="Helvetica,sans-Serif" font-size="10.00">/http_handler_base.hpp</text>
</a>
</g>
</g>
<!-- Node6&#45;&gt;Node7 -->
<g id="edge7_Node000006_Node000007" class="edge">
<title>Node6&#45;&gt;Node7</title>
<g id="a_edge7_Node000006_Node000007"><a xlink:title=" ">
<path fill="none" stroke="#63b8ff" d="M1092,-212.35C1101.68,-201.33 1113.16,-188.24 1121.67,-178.54"/>
<polygon fill="#63b8ff" stroke="#63b8ff" points="1089.31,-210.11 1085.34,-219.94 1094.57,-214.73 1089.31,-210.11"/>
</a>
</g>
</g>
<!-- Node8 -->
<g id="Node000008" class="node">
<title>Node8</title>
<g id="a_Node000008"><a xlink:href="../../d6/d0d/dns__client__control_8hpp.html" target="_top" xlink:title="Handlers that controls the DNS client.">
<polygon fill="white" stroke="#666666" points="1042,-101.5 910,-101.5 910,-71.5 1042,-71.5 1042,-101.5"/>
<text text-anchor="start" x="918" y="-89.5" font-family="Helvetica,sans-Serif" font-size="10.00">userver/server/handlers</text>
<text text-anchor="middle" x="976" y="-78.5" font-family="Helvetica,sans-Serif" font-size="10.00">/dns_client_control.hpp</text>
</a>
</g>
</g>
<!-- Node7&#45;&gt;Node8 -->
<g id="edge8_Node000007_Node000008" class="edge">
<title>Node7&#45;&gt;Node8</title>
<g id="a_edge8_Node000007_Node000008"><a xlink:title=" ">
<path fill="none" stroke="#63b8ff" d="M1094.91,-143.94C1067.28,-130.83 1030.81,-113.52 1005.59,-101.54"/>
<polygon fill="#63b8ff" stroke="#63b8ff" points="1093.75,-147.27 1104.28,-148.39 1096.75,-140.94 1093.75,-147.27"/>
</a>
</g>
</g>
<!-- Node9 -->
<g id="Node000009" class="node">
<title>Node9</title>
<g id="a_Node000009"><a xlink:href="../../d6/dc0/dynamic__debug__log_8hpp.html" target="_top" xlink:title="HTTP Handler to show/hide logs at the specific file:line.">
<polygon fill="white" stroke="#666666" points="1198,-101.5 1060,-101.5 1060,-71.5 1198,-71.5 1198,-101.5"/>
<text text-anchor="start" x="1068" y="-89.5" font-family="Helvetica,sans-Serif" font-size="10.00">userver/server/handlers</text>
<text text-anchor="middle" x="1129" y="-78.5" font-family="Helvetica,sans-Serif" font-size="10.00">/dynamic_debug_log.hpp</text>
</a>
</g>
</g>
<!-- Node7&#45;&gt;Node9 -->
<g id="edge9_Node000007_Node000009" class="edge">
<title>Node7&#45;&gt;Node9</title>
<g id="a_edge9_Node000007_Node000009"><a xlink:title=" ">
<path fill="none" stroke="#63b8ff" d="M1132.39,-138.41C1131.58,-126.24 1130.63,-111.9 1129.94,-101.54"/>
<polygon fill="#63b8ff" stroke="#63b8ff" points="1128.9,-138.65 1133.06,-148.39 1135.89,-138.18 1128.9,-138.65"/>
</a>
</g>
</g>
<!-- Node10 -->
<g id="Node000010" class="node">
<title>Node10</title>
<g id="a_Node000010"><a xlink:href="../../d5/d4d/http__handler__flatbuf__base_8hpp.html" target="_top" xlink:title="Convenient base for handlers that accept requests with body in Flatbuffer format and respond with bod...">
<polygon fill="white" stroke="#666666" points="132,-107 0,-107 0,-66 132,-66 132,-107"/>
<text text-anchor="start" x="8" y="-95" font-family="Helvetica,sans-Serif" font-size="10.00">userver/server/handlers</text>
<text text-anchor="start" x="8" y="-84" font-family="Helvetica,sans-Serif" font-size="10.00">/http_handler_flatbuf</text>
<text text-anchor="middle" x="66" y="-73" font-family="Helvetica,sans-Serif" font-size="10.00">_base.hpp</text>
</a>
</g>
</g>
<!-- Node7&#45;&gt;Node10 -->
<g id="edge10_Node000007_Node000010" class="edge">
<title>Node7&#45;&gt;Node10</title>
<g id="a_edge10_Node000007_Node000010"><a xlink:title=" ">
<path fill="none" stroke="#63b8ff" d="M1076.49,-146.22C1070.62,-144.95 1064.71,-143.84 1059,-143 655.08,-83.28 544.92,-166.72 141,-107 138.07,-106.57 135.09,-106.06 132.09,-105.51"/>
<polygon fill="#63b8ff" stroke="#63b8ff" points="1075.77,-149.64 1086.3,-148.46 1077.34,-142.82 1075.77,-149.64"/>
</a>
</g>
</g>
<!-- Node11 -->
<g id="Node000011" class="node">
<title>Node11</title>
<g id="a_Node000011"><a xlink:href="../../d1/d58/http__handler__json__base_8hpp.html" target="_top" xlink:title="Convenient base for handlers that accept requests with body in JSON format and respond with body in J...">
<polygon fill="white" stroke="#666666" points="1372,-101.5 1216,-101.5 1216,-71.5 1372,-71.5 1372,-101.5"/>
<text text-anchor="start" x="1224" y="-89.5" font-family="Helvetica,sans-Serif" font-size="10.00">userver/server/handlers</text>
<text text-anchor="middle" x="1294" y="-78.5" font-family="Helvetica,sans-Serif" font-size="10.00">/http_handler_json_base.hpp</text>
</a>
</g>
</g>
<!-- Node7&#45;&gt;Node11 -->
<g id="edge11_Node000007_Node000011" class="edge">
<title>Node7&#45;&gt;Node11</title>
<g id="a_edge11_Node000007_Node000011"><a xlink:title=" ">
<path fill="none" stroke="#63b8ff" d="M1173.22,-144.12C1201.24,-130.98 1238.38,-113.57 1264.04,-101.54"/>
<polygon fill="#63b8ff" stroke="#63b8ff" points="1171.66,-140.98 1164.09,-148.39 1174.63,-147.32 1171.66,-140.98"/>
</a>
</g>
</g>
<!-- Node14 -->
<g id="Node000014" class="node">
<title>Node14</title>
<g id="a_Node000014"><a xlink:href="../../dd/db6/http__handler__static_8hpp.html" target="_top" xlink:title="Handler that returns HTTP 200 if file exist and returns file data with mapped content/type.">
<polygon fill="white" stroke="#666666" points="1524,-101.5 1390,-101.5 1390,-71.5 1524,-71.5 1524,-101.5"/>
<text text-anchor="start" x="1398" y="-89.5" font-family="Helvetica,sans-Serif" font-size="10.00">userver/server/handlers</text>
<text text-anchor="middle" x="1457" y="-78.5" font-family="Helvetica,sans-Serif" font-size="10.00">/http_handler_static.hpp</text>
</a>
</g>
</g>
<!-- Node7&#45;&gt;Node14 -->
<g id="edge14_Node000007_Node000014" class="edge">
<title>Node7&#45;&gt;Node14</title>
<g id="a_edge14_Node000007_Node000014"><a xlink:title=" ">
<path fill="none" stroke="#63b8ff" d="M1208.77,-146.31C1257.82,-135.54 1323.33,-120.87 1381,-107 1388.15,-105.28 1395.67,-103.42 1403.08,-101.55"/>
<polygon fill="#63b8ff" stroke="#63b8ff" points="1207.89,-142.92 1198.87,-148.48 1209.39,-149.76 1207.89,-142.92"/>
</a>
</g>
</g>
<!-- Node15 -->
<g id="Node000015" class="node">
<title>Node15</title>
<g id="a_Node000015"><a xlink:href="../../d5/d86/jemalloc_8hpp.html" target="_top" xlink:title="Handler that controls the jemalloc allocator.">
<polygon fill="white" stroke="#666666" points="1674,-101.5 1542,-101.5 1542,-71.5 1674,-71.5 1674,-101.5"/>
<text text-anchor="start" x="1550" y="-89.5" font-family="Helvetica,sans-Serif" font-size="10.00">userver/server/handlers</text>
<text text-anchor="middle" x="1608" y="-78.5" font-family="Helvetica,sans-Serif" font-size="10.00">/jemalloc.hpp</text>
</a>
</g>
</g>
<!-- Node7&#45;&gt;Node15 -->
<g id="edge15_Node000007_Node000015" class="edge">
<title>Node7&#45;&gt;Node15</title>
<g id="a_edge15_Node000007_Node000015"><a xlink:title=" ">
<path fill="none" stroke="#63b8ff" d="M1210.12,-154.58C1290.73,-145.56 1421.5,-129.17 1533,-107 1540.92,-105.43 1549.24,-103.52 1557.35,-101.52"/>
<polygon fill="#63b8ff" stroke="#63b8ff" points="1209.61,-151.11 1200.05,-155.69 1210.38,-158.07 1209.61,-151.11"/>
</a>
</g>
</g>
<!-- Node16 -->
<g id="Node000016" class="node">
<title>Node16</title>
<g id="a_Node000016"><a xlink:href="../../d0/d01/log__level_8hpp.html" target="_top" xlink:title="Handler that controls logging levels of all the loggers.">
<polygon fill="white" stroke="#666666" points="282,-101.5 150,-101.5 150,-71.5 282,-71.5 282,-101.5"/>
<text text-anchor="start" x="158" y="-89.5" font-family="Helvetica,sans-Serif" font-size="10.00">userver/server/handlers</text>
<text text-anchor="middle" x="216" y="-78.5" font-family="Helvetica,sans-Serif" font-size="10.00">/log_level.hpp</text>
</a>
</g>
</g>
<!-- Node7&#45;&gt;Node16 -->
<g id="edge16_Node000007_Node000016" class="edge">
<title>Node7&#45;&gt;Node16</title>
<g id="a_edge16_Node000007_Node000016"><a xlink:title=" ">
<path fill="none" stroke="#63b8ff" d="M1075.8,-146.11C1070.15,-144.9 1064.49,-143.83 1059,-143 721.16,-91.73 628.84,-158.27 291,-107 282.22,-105.67 272.98,-103.73 264.11,-101.58"/>
<polygon fill="#63b8ff" stroke="#63b8ff" points="1075.36,-149.6 1085.89,-148.42 1076.92,-142.78 1075.36,-149.6"/>
</a>
</g>
</g>
<!-- Node17 -->
<g id="Node000017" class="node">
<title>Node17</title>
<g id="a_Node000017"><a xlink:href="../../d7/d72/on__log__rotate_8hpp.html" target="_top" xlink:title="Handler that controls logging levels of all the loggers.">
<polygon fill="white" stroke="#666666" points="432,-101.5 300,-101.5 300,-71.5 432,-71.5 432,-101.5"/>
<text text-anchor="start" x="308" y="-89.5" font-family="Helvetica,sans-Serif" font-size="10.00">userver/server/handlers</text>
<text text-anchor="middle" x="366" y="-78.5" font-family="Helvetica,sans-Serif" font-size="10.00">/on_log_rotate.hpp</text>
</a>
</g>
</g>
<!-- Node7&#45;&gt;Node17 -->
<g id="edge17_Node000007_Node000017" class="edge">
<title>Node7&#45;&gt;Node17</title>
<g id="a_edge17_Node000007_Node000017"><a xlink:title=" ">
<path fill="none" stroke="#63b8ff" d="M1075.53,-146.12C1069.97,-144.92 1064.4,-143.85 1059,-143 787.22,-100.18 712.78,-149.82 441,-107 432.36,-105.64 423.27,-103.71 414.52,-101.59"/>
<polygon fill="#63b8ff" stroke="#63b8ff" points="1074.95,-149.58 1085.48,-148.41 1076.51,-142.76 1074.95,-149.58"/>
</a>
</g>
</g>
<!-- Node18 -->
<g id="Node000018" class="node">
<title>Node18</title>
<g id="a_Node000018"><a xlink:href="../../d8/d39/ping_8hpp.html" target="_top" xlink:title="Handler that returns HTTP 200 if the service is OK and able to process requests.">
<polygon fill="white" stroke="#666666" points="582,-101.5 450,-101.5 450,-71.5 582,-71.5 582,-101.5"/>
<text text-anchor="start" x="458" y="-89.5" font-family="Helvetica,sans-Serif" font-size="10.00">userver/server/handlers</text>
<text text-anchor="middle" x="516" y="-78.5" font-family="Helvetica,sans-Serif" font-size="10.00">/ping.hpp</text>
</a>
</g>
</g>
<!-- Node7&#45;&gt;Node18 -->
<g id="edge18_Node000007_Node000018" class="edge">
<title>Node7&#45;&gt;Node18</title>
<g id="a_edge18_Node000007_Node000018"><a xlink:title=" ">
<path fill="none" stroke="#63b8ff" d="M1075.26,-146.17C1069.79,-144.97 1064.31,-143.89 1059,-143 853.24,-108.62 796.76,-141.38 591,-107 582.51,-105.58 573.57,-103.65 564.95,-101.56"/>
<polygon fill="#63b8ff" stroke="#63b8ff" points="1074.52,-149.6 1085.05,-148.44 1076.1,-142.78 1074.52,-149.6"/>
</a>
</g>
</g>
<!-- Node19 -->
<g id="Node000019" class="node">
<title>Node19</title>
<g id="a_Node000019"><a xlink:href="../../de/d18/server__monitor_8hpp.html" target="_top" xlink:title="Handler that returns statistics data.">
<polygon fill="white" stroke="#666666" points="732,-101.5 600,-101.5 600,-71.5 732,-71.5 732,-101.5"/>
<text text-anchor="start" x="608" y="-89.5" font-family="Helvetica,sans-Serif" font-size="10.00">userver/server/handlers</text>
<text text-anchor="middle" x="666" y="-78.5" font-family="Helvetica,sans-Serif" font-size="10.00">/server_monitor.hpp</text>
</a>
</g>
</g>
<!-- Node7&#45;&gt;Node19 -->
<g id="edge19_Node000007_Node000019" class="edge">
<title>Node7&#45;&gt;Node19</title>
<g id="a_edge19_Node000007_Node000019"><a xlink:title=" ">
<path fill="none" stroke="#63b8ff" d="M1073.67,-146.03C1068.73,-144.92 1063.79,-143.89 1059,-143 919.15,-117.04 880.85,-132.96 741,-107 732.93,-105.5 724.45,-103.61 716.21,-101.6"/>
<polygon fill="#63b8ff" stroke="#63b8ff" points="1073.26,-149.52 1083.79,-148.4 1074.85,-142.71 1073.26,-149.52"/>
</a>
</g>
</g>
<!-- Node20 -->
<g id="Node000020" class="node">
<title>Node20</title>
<g id="a_Node000020"><a xlink:href="../../d8/d82/core_2include_2userver_2server_2server_8hpp_source.html" target="_top" xlink:title=" ">
<polygon fill="white" stroke="#666666" points="891.5,-96 750.5,-96 750.5,-77 891.5,-77 891.5,-96"/>
<text text-anchor="middle" x="821" y="-84" font-family="Helvetica,sans-Serif" font-size="10.00">userver/server/server.hpp</text>
</a>
</g>
</g>
<!-- Node7&#45;&gt;Node20 -->
<g id="edge20_Node000007_Node000020" class="edge">
<title>Node7&#45;&gt;Node20</title>
<g id="a_edge20_Node000007_Node000020"><a xlink:title=" ">
<path fill="none" stroke="#63b8ff" d="M1070.83,-145.93C1066.83,-144.92 1062.86,-143.94 1059,-143 989.03,-125.94 971.1,-123.53 901,-107 886.11,-103.49 869.69,-99.51 855.63,-96.06"/>
<polygon fill="#63b8ff" stroke="#63b8ff" points="1070.23,-149.39 1080.79,-148.45 1071.95,-142.6 1070.23,-149.39"/>
</a>
</g>
</g>
<!-- Node22 -->
<g id="Node000022" class="node">
<title>Node22</title>
<g id="a_Node000022"><a xlink:href="../../d4/d64/websocket__handler_8hpp.html" target="_top" xlink:title=" ">
<polygon fill="white" stroke="#666666" points="1834,-101.5 1692,-101.5 1692,-71.5 1834,-71.5 1834,-101.5"/>
<text text-anchor="start" x="1700" y="-89.5" font-family="Helvetica,sans-Serif" font-size="10.00">userver/server/websocket</text>
<text text-anchor="middle" x="1763" y="-78.5" font-family="Helvetica,sans-Serif" font-size="10.00">/websocket_handler.hpp</text>
</a>
</g>
</g>
<!-- Node7&#45;&gt;Node22 -->
<g id="edge22_Node000007_Node000022" class="edge">
<title>Node7&#45;&gt;Node22</title>
<g id="a_edge22_Node000007_Node000022"><a xlink:title=" ">
<path fill="none" stroke="#63b8ff" d="M1210.32,-158.13C1316.78,-151.28 1515.61,-135.72 1683,-107 1691.74,-105.5 1700.93,-103.58 1709.85,-101.54"/>
<polygon fill="#63b8ff" stroke="#63b8ff" points="1210.07,-154.64 1200.31,-158.77 1210.52,-161.63 1210.07,-154.64"/>
</a>
</g>
</g>
<!-- Node12 -->
<g id="Node000012" class="node">
<title>Node12</title>
<g id="a_Node000012"><a xlink:href="../../d7/d79/inspect__requests_8hpp.html" target="_top" xlink:title="Handler that returns information about all in&#45;flight requests.">
<polygon fill="white" stroke="#666666" points="1285,-30 1153,-30 1153,0 1285,0 1285,-30"/>
<text text-anchor="start" x="1161" y="-18" font-family="Helvetica,sans-Serif" font-size="10.00">userver/server/handlers</text>
<text text-anchor="middle" x="1219" y="-7" font-family="Helvetica,sans-Serif" font-size="10.00">/inspect_requests.hpp</text>
</a>
</g>
</g>
<!-- Node11&#45;&gt;Node12 -->
<g id="edge12_Node000011_Node000012" class="edge">
<title>Node11&#45;&gt;Node12</title>
<g id="a_edge12_Node000011_Node000012"><a xlink:title=" ">
<path fill="none" stroke="#63b8ff" d="M1271.33,-64.49C1259.29,-53.34 1244.82,-39.93 1234.15,-30.04"/>
<polygon fill="#63b8ff" stroke="#63b8ff" points="1269.11,-67.21 1278.82,-71.44 1273.87,-62.07 1269.11,-67.21"/>
</a>
</g>
</g>
<!-- Node13 -->
<g id="Node000013" class="node">
<title>Node13</title>
<g id="a_Node000013"><a xlink:href="../../d6/d43/tests__control_8hpp.html" target="_top" xlink:title="Handler that allows to control the behavior of server from tests, and functional tests with testsuite...">
<polygon fill="white" stroke="#666666" points="1435,-30 1303,-30 1303,0 1435,0 1435,-30"/>
<text text-anchor="start" x="1311" y="-18" font-family="Helvetica,sans-Serif" font-size="10.00">userver/server/handlers</text>
<text text-anchor="middle" x="1369" y="-7" font-family="Helvetica,sans-Serif" font-size="10.00">/tests_control.hpp</text>
</a>
</g>
</g>
<!-- Node11&#45;&gt;Node13 -->
<g id="edge13_Node000011_Node000013" class="edge">
<title>Node11&#45;&gt;Node13</title>
<g id="a_edge13_Node000011_Node000013"><a xlink:title=" ">
<path fill="none" stroke="#63b8ff" d="M1316.67,-64.49C1328.71,-53.34 1343.18,-39.93 1353.85,-30.04"/>
<polygon fill="#63b8ff" stroke="#63b8ff" points="1314.13,-62.07 1309.18,-71.44 1318.89,-67.21 1314.13,-62.07"/>
</a>
</g>
</g>
<!-- Node21 -->
<g id="Node000021" class="node">
<title>Node21</title>
<g id="a_Node000021"><a xlink:href="../../d3/ddd/core_2include_2userver_2server_2component_8hpp.html" target="_top" xlink:title="Component that listens for incoming requests, manages incoming connections and passes the requests to...">
<polygon fill="white" stroke="#666666" points="904,-24.5 738,-24.5 738,-5.5 904,-5.5 904,-24.5"/>
<text text-anchor="middle" x="821" y="-12.5" font-family="Helvetica,sans-Serif" font-size="10.00">userver/server/component.hpp</text>
</a>
</g>
</g>
<!-- Node20&#45;&gt;Node21 -->
<g id="edge21_Node000020_Node000021" class="edge">
<title>Node20&#45;&gt;Node21</title>
<g id="a_edge21_Node000020_Node000021"><a xlink:title=" ">
<path fill="none" stroke="#63b8ff" d="M821,-66.71C821,-53 821,-35.05 821,-24.59"/>
<polygon fill="#63b8ff" stroke="#63b8ff" points="817.5,-66.98 821,-76.98 824.5,-66.98 817.5,-66.98"/>
</a>
</g>
</g>
<!-- Node24&#45;&gt;Node10 -->
<g id="edge25_Node000024_Node000010" class="edge">
<title>Node24&#45;&gt;Node10</title>
<g id="a_edge25_Node000024_Node000010"><a xlink:title=" ">
<path fill="none" stroke="#63b8ff" d="M832.74,-288.89C679.31,-248.59 288.55,-145.95 132.17,-104.88"/>
<polygon fill="#63b8ff" stroke="#63b8ff" points="831.94,-292.29 842.5,-291.45 833.72,-285.52 831.94,-292.29"/>
</a>
</g>
</g>
<!-- Node25&#45;&gt;Node2 -->
<g id="edge27_Node000025_Node000002" class="edge">
<title>Node25&#45;&gt;Node2</title>
<g id="a_edge27_Node000025_Node000002"><a xlink:title=" ">
<path fill="none" stroke="#63b8ff" d="M1607.84,-353.23C1623.57,-310.9 1656.17,-223.23 1670.71,-184.1"/>
<polygon fill="#63b8ff" stroke="#63b8ff" points="1604.51,-352.13 1604.31,-362.73 1611.07,-354.57 1604.51,-352.13"/>
</a>
</g>
</g>
<!-- Node25&#45;&gt;Node3 -->
<g id="edge28_Node000025_Node000003" class="edge">
<title>Node25&#45;&gt;Node3</title>
<g id="a_edge28_Node000025_Node000003"><a xlink:title=" ">
<path fill="none" stroke="#63b8ff" d="M1664.39,-361.39C1711.95,-349.6 1769.6,-334.27 1779,-327 1855.84,-267.62 1897.96,-152.83 1912.31,-107.05"/>
<polygon fill="#63b8ff" stroke="#63b8ff" points="1663.29,-358.05 1654.42,-363.84 1664.97,-364.85 1663.29,-358.05"/>
</a>
</g>
</g>
<!-- Node25&#45;&gt;Node7 -->
<g id="edge29_Node000025_Node000007" class="edge">
<title>Node25&#45;&gt;Node7</title>
<g id="a_edge29_Node000025_Node000007"><a xlink:title=" ">
<path fill="none" stroke="#63b8ff" d="M1534.1,-362.98C1432.24,-340.01 1240.78,-292.64 1186,-250 1161.73,-231.11 1146.16,-197.47 1138.87,-178.51"/>
<polygon fill="#63b8ff" stroke="#63b8ff" points="1533.44,-366.42 1543.97,-365.19 1534.97,-359.59 1533.44,-366.42"/>
</a>
</g>
</g>
<!-- Node26 -->
<g id="Node000026" class="node">
<title>Node26</title>
<g id="a_Node000026"><a xlink:href="../../d2/d45/http__request_8hpp.html" target="_top" xlink:title="HTTP Request data.">
<polygon fill="white" stroke="#666666" points="1565,-321.5 1455,-321.5 1455,-291.5 1565,-291.5 1565,-321.5"/>
<text text-anchor="start" x="1463" y="-309.5" font-family="Helvetica,sans-Serif" font-size="10.00">userver/server/http</text>
<text text-anchor="middle" x="1510" y="-298.5" font-family="Helvetica,sans-Serif" font-size="10.00">/http_request.hpp</text>
</a>
</g>
</g>
<!-- Node25&#45;&gt;Node26 -->
<g id="edge30_Node000025_Node000026" class="edge">
<title>Node25&#45;&gt;Node26</title>
<g id="a_edge30_Node000025_Node000026"><a xlink:title=" ">
<path fill="none" stroke="#63b8ff" d="M1572.91,-356.63C1558.47,-345.35 1540.89,-331.62 1527.98,-321.54"/>
<polygon fill="#63b8ff" stroke="#63b8ff" points="1570.95,-359.54 1580.99,-362.94 1575.26,-354.02 1570.95,-359.54"/>
</a>
</g>
</g>
<!-- Node29 -->
<g id="Node000029" class="node">
<title>Node29</title>
<g id="a_Node000029"><a xlink:href="../../d8/d76/http__response__body__stream_8hpp_source.html" target="_top" xlink:title=" ">
<polygon fill="white" stroke="#666666" points="1770,-327 1652,-327 1652,-286 1770,-286 1770,-327"/>
<text text-anchor="start" x="1660" y="-315" font-family="Helvetica,sans-Serif" font-size="10.00">userver/server/http</text>
<text text-anchor="start" x="1660" y="-304" font-family="Helvetica,sans-Serif" font-size="10.00">/http_response_body</text>
<text text-anchor="middle" x="1711" y="-293" font-family="Helvetica,sans-Serif" font-size="10.00">_stream.hpp</text>
</a>
</g>
</g>
<!-- Node25&#45;&gt;Node29 -->
<g id="edge40_Node000025_Node000029" class="edge">
<title>Node25&#45;&gt;Node29</title>
<g id="a_edge40_Node000025_Node000029"><a xlink:title=" ">
<path fill="none" stroke="#63b8ff" d="M1630.3,-357.58C1645.64,-348.06 1664.08,-336.62 1679.46,-327.07"/>
<polygon fill="#63b8ff" stroke="#63b8ff" points="1628.32,-354.69 1621.66,-362.94 1632.01,-360.64 1628.32,-354.69"/>
</a>
</g>
</g>
<!-- Node26&#45;&gt;Node2 -->
<g id="edge35_Node000026_Node000002" class="edge">
<title>Node26&#45;&gt;Node2</title>
<g id="a_edge35_Node000026_Node000002"><a xlink:title=" ">
<path fill="none" stroke="#63b8ff" d="M1542.64,-285.81C1558.38,-275.78 1577.23,-262.99 1593,-250 1618.05,-229.38 1643.92,-202.38 1660.44,-184.29"/>
<polygon fill="#63b8ff" stroke="#63b8ff" points="1540.39,-283.09 1533.78,-291.37 1544.11,-289.02 1540.39,-283.09"/>
</a>
</g>
</g>
<!-- Node26&#45;&gt;Node3 -->
<g id="edge36_Node000026_Node000003" class="edge">
<title>Node26&#45;&gt;Node3</title>
<g id="a_edge36_Node000026_Node000003"><a xlink:title=" ">
<path fill="none" stroke="#63b8ff" d="M1533,-284.02C1542.35,-274.33 1552.67,-262.31 1560,-250 1585.83,-206.64 1559.01,-175.03 1598,-143 1640.52,-108.07 1789.07,-117.94 1843,-107 1845.9,-106.41 1848.86,-105.78 1851.84,-105.12"/>
<polygon fill="#63b8ff" stroke="#63b8ff" points="1530.36,-281.7 1525.77,-291.25 1535.31,-286.65 1530.36,-281.7"/>
</a>
</g>
</g>
<!-- Node26&#45;&gt;Node7 -->
<g id="edge37_Node000026_Node000007" class="edge">
<title>Node26&#45;&gt;Node7</title>
<g id="a_edge37_Node000026_Node000007"><a xlink:title=" ">
<path fill="none" stroke="#63b8ff" d="M1468.46,-286.97C1447.39,-276.98 1421.74,-263.87 1400,-250 1381.86,-238.43 1381.34,-229.43 1362,-220 1310.64,-194.97 1247.12,-180.7 1200.18,-172.92"/>
<polygon fill="#63b8ff" stroke="#63b8ff" points="1467.24,-290.27 1477.78,-291.34 1470.21,-283.93 1467.24,-290.27"/>
</a>
</g>
</g>
<!-- Node27 -->
<g id="Node000027" class="node">
<title>Node27</title>
<g id="a_Node000027"><a xlink:href="../../da/dff/auth__checker__base_8hpp_source.html" target="_top" xlink:title=" ">
<polygon fill="white" stroke="#666666" points="1353,-250 1195,-250 1195,-220 1353,-220 1353,-250"/>
<text text-anchor="start" x="1203" y="-238" font-family="Helvetica,sans-Serif" font-size="10.00">userver/server/handlers</text>
<text text-anchor="middle" x="1274" y="-227" font-family="Helvetica,sans-Serif" font-size="10.00">/auth/auth_checker_base.hpp</text>
</a>
</g>
</g>
<!-- Node26&#45;&gt;Node27 -->
<g id="edge31_Node000026_Node000027" class="edge">
<title>Node26&#45;&gt;Node27</title>
<g id="a_edge31_Node000026_Node000027"><a xlink:title=" ">
<path fill="none" stroke="#63b8ff" d="M1452.59,-288.59C1412.46,-276.78 1359.49,-261.18 1321.69,-250.04"/>
<polygon fill="#63b8ff" stroke="#63b8ff" points="1451.66,-291.97 1462.24,-291.44 1453.64,-285.25 1451.66,-291.97"/>
</a>
</g>
</g>
<!-- Node28 -->
<g id="Node000028" class="node">
<title>Node28</title>
<g id="a_Node000028"><a xlink:href="../../de/d4e/core_2include_2userver_2server_2websocket_2server_8hpp.html" target="_top" xlink:title=" ">
<polygon fill="white" stroke="#666666" points="1551,-250 1409,-250 1409,-220 1551,-220 1551,-250"/>
<text text-anchor="start" x="1417" y="-238" font-family="Helvetica,sans-Serif" font-size="10.00">userver/server/websocket</text>
<text text-anchor="middle" x="1480" y="-227" font-family="Helvetica,sans-Serif" font-size="10.00">/server.hpp</text>
</a>
</g>
</g>
<!-- Node26&#45;&gt;Node28 -->
<g id="edge38_Node000026_Node000028" class="edge">
<title>Node26&#45;&gt;Node28</title>
<g id="a_edge38_Node000026_Node000028"><a xlink:title=" ">
<path fill="none" stroke="#63b8ff" d="M1499.96,-282.23C1495.35,-271.56 1490.04,-259.27 1486.06,-250.04"/>
<polygon fill="#63b8ff" stroke="#63b8ff" points="1496.75,-283.64 1503.93,-291.44 1503.18,-280.87 1496.75,-283.64"/>
</a>
</g>
</g>
<!-- Node27&#45;&gt;Node2 -->
<g id="edge33_Node000027_Node000002" class="edge">
<title>Node27&#45;&gt;Node2</title>
<g id="a_edge33_Node000027_Node000002"><a xlink:title=" ">
<path fill="none" stroke="#63b8ff" d="M1363.48,-218.61C1436.81,-205.99 1539.17,-188.38 1606.96,-176.72"/>
<polygon fill="#63b8ff" stroke="#63b8ff" points="1362.6,-215.21 1353.34,-220.35 1363.78,-222.11 1362.6,-215.21"/>
</a>
</g>
</g>
<!-- Node27&#45;&gt;Node5 -->
<g id="edge32_Node000027_Node000005" class="edge">
<title>Node27&#45;&gt;Node5</title>
<g id="a_edge32_Node000027_Node000005"><a xlink:title=" ">
<path fill="none" stroke="#63b8ff" d="M1201.72,-217.69C1149.05,-205.8 1078.41,-189.87 1028.24,-178.54"/>
<polygon fill="#63b8ff" stroke="#63b8ff" points="1201.15,-221.15 1211.67,-219.94 1202.69,-214.32 1201.15,-221.15"/>
</a>
</g>
</g>
<!-- Node27&#45;&gt;Node7 -->
<g id="edge34_Node000027_Node000007" class="edge">
<title>Node27&#45;&gt;Node7</title>
<g id="a_edge34_Node000027_Node000007"><a xlink:title=" ">
<path fill="none" stroke="#63b8ff" d="M1236.42,-215.34C1213.1,-203.77 1183.63,-189.14 1162.29,-178.54"/>
<polygon fill="#63b8ff" stroke="#63b8ff" points="1235.16,-218.62 1245.67,-219.94 1238.27,-212.35 1235.16,-218.62"/>
</a>
</g>
</g>
<!-- Node28&#45;&gt;Node22 -->
<g id="edge39_Node000028_Node000022" class="edge">
<title>Node28&#45;&gt;Node22</title>
<g id="a_edge39_Node000028_Node000022"><a xlink:title=" ">
<path fill="none" stroke="#63b8ff" d="M1495.4,-211.46C1510.72,-190.72 1536.07,-160.59 1565,-143 1577.32,-135.51 1652.89,-115.38 1707.01,-101.54"/>
<polygon fill="#63b8ff" stroke="#63b8ff" points="1492.47,-209.55 1489.47,-219.71 1498.15,-213.64 1492.47,-209.55"/>
</a>
</g>
</g>
<!-- Node30&#45;&gt;Node4 -->
<g id="edge42_Node000030_Node000004" class="edge">
<title>Node30&#45;&gt;Node4</title>
<g id="a_edge42_Node000030_Node000004"><a xlink:title=" ">
<path fill="none" stroke="#63b8ff" d="M1158.27,-357.72C1138.79,-346.25 1114.51,-331.95 1096.84,-321.54"/>
<polygon fill="#63b8ff" stroke="#63b8ff" points="1156.73,-360.88 1167.12,-362.94 1160.28,-354.84 1156.73,-360.88"/>
</a>
</g>
</g>
</g>
</svg>
