<?xml version="1.0" encoding="UTF-8" standalone="no"?>
<!DOCTYPE svg PUBLIC "-//W3C//DTD SVG 1.1//EN"
 "http://www.w3.org/Graphics/SVG/1.1/DTD/svg11.dtd">
<!-- Generated by graphviz version 2.43.0 (0)
 -->
<!-- Title: userver/crypto/signers.hpp Pages: 1 -->
<svg width="936pt" height="401pt"
 viewBox="0.00 0.00 935.50 401.00" xmlns="http://www.w3.org/2000/svg" xmlns:xlink="http://www.w3.org/1999/xlink">
<g id="graph0" class="graph" transform="scale(1 1) rotate(0) translate(4 397)">
<title>userver/crypto/signers.hpp</title>
<!-- Node1 -->
<g id="Node000001" class="node">
<title>Node1</title>
<g id="a_Node000001"><a xlink:title="Digital signature generators.">
<polygon fill="#999999" stroke="#666666" points="580.5,-393 434.5,-393 434.5,-374 580.5,-374 580.5,-393"/>
<text text-anchor="middle" x="507.5" y="-381" font-family="Helvetica,sans-Serif" font-size="10.00">userver/crypto/signers.hpp</text>
</a>
</g>
</g>
<!-- Node2 -->
<g id="Node000002" class="node">
<title>Node2</title>
<g id="a_Node000002"><a xlink:title=" ">
<polygon fill="#e0e0e0" stroke="#999999" points="83,-266.5 0,-266.5 0,-247.5 83,-247.5 83,-266.5"/>
<text text-anchor="middle" x="41.5" y="-254.5" font-family="Helvetica,sans-Serif" font-size="10.00">initializer_list</text>
</a>
</g>
</g>
<!-- Node1&#45;&gt;Node2 -->
<g id="edge1_Node000001_Node000002" class="edge">
<title>Node1&#45;&gt;Node2</title>
<g id="a_edge1_Node000001_Node000002"><a xlink:title=" ">
<path fill="none" stroke="#63b8ff" d="M434.14,-382.87C328.47,-382.07 139.98,-375.25 84.5,-338 63.16,-323.67 51.56,-295.16 45.95,-276.33"/>
<polygon fill="#63b8ff" stroke="#63b8ff" points="49.3,-275.29 43.31,-266.54 42.54,-277.11 49.3,-275.29"/>
</a>
</g>
</g>
<!-- Node3 -->
<g id="Node000003" class="node">
<title>Node3</title>
<g id="a_Node000003"><a xlink:title=" ">
<polygon fill="#e0e0e0" stroke="#999999" points="555.5,-145.5 497.5,-145.5 497.5,-126.5 555.5,-126.5 555.5,-145.5"/>
<text text-anchor="middle" x="526.5" y="-133.5" font-family="Helvetica,sans-Serif" font-size="10.00">memory</text>
</a>
</g>
</g>
<!-- Node1&#45;&gt;Node3 -->
<g id="edge2_Node000001_Node000003" class="edge">
<title>Node1&#45;&gt;Node3</title>
<g id="a_edge2_Node000001_Node000003"><a xlink:title=" ">
<path fill="none" stroke="#63b8ff" d="M507.36,-373.77C507.19,-359.85 507.09,-331.76 508.5,-308 511.79,-252.51 519.82,-187.27 523.95,-155.82"/>
<polygon fill="#63b8ff" stroke="#63b8ff" points="527.47,-155.89 525.32,-145.52 520.53,-154.97 527.47,-155.89"/>
</a>
</g>
</g>
<!-- Node4 -->
<g id="Node000004" class="node">
<title>Node4</title>
<g id="a_Node000004"><a xlink:title=" ">
<polygon fill="#e0e0e0" stroke="#999999" points="927.5,-79.5 883.5,-79.5 883.5,-60.5 927.5,-60.5 927.5,-79.5"/>
<text text-anchor="middle" x="905.5" y="-67.5" font-family="Helvetica,sans-Serif" font-size="10.00">string</text>
</a>
</g>
</g>
<!-- Node1&#45;&gt;Node4 -->
<g id="edge3_Node000001_Node000004" class="edge">
<title>Node1&#45;&gt;Node4</title>
<g id="a_edge3_Node000001_Node000004"><a xlink:title=" ">
<path fill="none" stroke="#63b8ff" d="M580.61,-381.31C671.48,-378.49 820.04,-369.11 864.5,-338 897.23,-315.09 905.5,-297.95 905.5,-258 905.5,-258 905.5,-258 905.5,-195.5 905.5,-157.99 905.5,-114.13 905.5,-89.76"/>
<polygon fill="#63b8ff" stroke="#63b8ff" points="909,-89.75 905.5,-79.75 902,-89.75 909,-89.75"/>
</a>
</g>
</g>
<!-- Node5 -->
<g id="Node000005" class="node">
<title>Node5</title>
<g id="a_Node000005"><a xlink:title=" ">
<polygon fill="#e0e0e0" stroke="#999999" points="813,-266.5 740,-266.5 740,-247.5 813,-247.5 813,-266.5"/>
<text text-anchor="middle" x="776.5" y="-254.5" font-family="Helvetica,sans-Serif" font-size="10.00">string_view</text>
</a>
</g>
</g>
<!-- Node1&#45;&gt;Node5 -->
<g id="edge4_Node000001_Node000005" class="edge">
<title>Node1&#45;&gt;Node5</title>
<g id="a_edge4_Node000001_Node000005"><a xlink:title=" ">
<path fill="none" stroke="#63b8ff" d="M580.7,-378.02C675.61,-371.45 831.12,-357.8 848.5,-338 869.21,-314.41 831.73,-287.33 803.51,-271.5"/>
<polygon fill="#63b8ff" stroke="#63b8ff" points="804.86,-268.25 794.4,-266.58 801.54,-274.41 804.86,-268.25"/>
</a>
</g>
</g>
<!-- Node6 -->
<g id="Node000006" class="node">
<title>Node6</title>
<g id="a_Node000006"><a xlink:href="../../db/db5/flags_8hpp.html" target="_top" xlink:title="Types that provide flags interface to enums.">
<polygon fill="white" stroke="#666666" points="219,-332.5 94,-332.5 94,-313.5 219,-313.5 219,-332.5"/>
<text text-anchor="middle" x="156.5" y="-320.5" font-family="Helvetica,sans-Serif" font-size="10.00">userver/utils/flags.hpp</text>
</a>
</g>
</g>
<!-- Node1&#45;&gt;Node6 -->
<g id="edge5_Node000001_Node000006" class="edge">
<title>Node1&#45;&gt;Node6</title>
<g id="a_edge5_Node000001_Node000006"><a xlink:title=" ">
<path fill="none" stroke="#63b8ff" d="M456.46,-373.99C393.16,-363.44 285.36,-345.48 217.69,-334.2"/>
<polygon fill="#63b8ff" stroke="#63b8ff" points="218.04,-330.71 207.6,-332.52 216.89,-337.61 218.04,-330.71"/>
</a>
</g>
</g>
<!-- Node9 -->
<g id="Node000009" class="node">
<title>Node9</title>
<g id="a_Node000009"><a xlink:href="../../d0/df9/basic__types_8hpp.html" target="_top" xlink:title="Common types for crypto module.">
<polygon fill="white" stroke="#666666" points="676.5,-272 560.5,-272 560.5,-242 676.5,-242 676.5,-272"/>
<text text-anchor="start" x="568.5" y="-260" font-family="Helvetica,sans-Serif" font-size="10.00">userver/crypto/basic</text>
<text text-anchor="middle" x="618.5" y="-249" font-family="Helvetica,sans-Serif" font-size="10.00">_types.hpp</text>
</a>
</g>
</g>
<!-- Node1&#45;&gt;Node9 -->
<g id="edge9_Node000001_Node000009" class="edge">
<title>Node1&#45;&gt;Node9</title>
<g id="a_edge9_Node000001_Node000009"><a xlink:title=" ">
<path fill="none" stroke="#63b8ff" d="M507.55,-373.71C508.07,-358.7 511.09,-327.8 526.5,-308 536.95,-294.58 552.05,-284.28 567.01,-276.63"/>
<polygon fill="#63b8ff" stroke="#63b8ff" points="568.75,-279.67 576.26,-272.2 565.73,-273.36 568.75,-279.67"/>
</a>
</g>
</g>
<!-- Node10 -->
<g id="Node000010" class="node">
<title>Node10</title>
<g id="a_Node000010"><a xlink:href="../../df/db8/universal_2include_2userver_2crypto_2exception_8hpp.html" target="_top" xlink:title="Exception classes for crypto module.">
<polygon fill="white" stroke="#666666" points="467,-206 308,-206 308,-187 467,-187 467,-206"/>
<text text-anchor="middle" x="387.5" y="-194" font-family="Helvetica,sans-Serif" font-size="10.00">userver/crypto/exception.hpp</text>
</a>
</g>
</g>
<!-- Node1&#45;&gt;Node10 -->
<g id="edge30_Node000001_Node000010" class="edge">
<title>Node1&#45;&gt;Node10</title>
<g id="a_edge30_Node000001_Node000010"><a xlink:title=" ">
<path fill="none" stroke="#63b8ff" d="M494.63,-373.84C483.22,-365.65 466.67,-352.49 455.5,-338 425.26,-298.78 403.54,-243.96 393.59,-215.8"/>
<polygon fill="#63b8ff" stroke="#63b8ff" points="396.81,-214.41 390.26,-206.09 390.19,-216.68 396.81,-214.41"/>
</a>
</g>
</g>
<!-- Node20 -->
<g id="Node000020" class="node">
<title>Node20</title>
<g id="a_Node000020"><a xlink:href="../../d1/dab/certificate_8hpp.html" target="_top" xlink:title=" ">
<polygon fill="white" stroke="#666666" points="695.5,-332.5 535.5,-332.5 535.5,-313.5 695.5,-313.5 695.5,-332.5"/>
<text text-anchor="middle" x="615.5" y="-320.5" font-family="Helvetica,sans-Serif" font-size="10.00">userver/crypto/certificate.hpp</text>
</a>
</g>
</g>
<!-- Node1&#45;&gt;Node20 -->
<g id="edge26_Node000001_Node000020" class="edge">
<title>Node1&#45;&gt;Node20</title>
<g id="a_edge26_Node000001_Node000020"><a xlink:title=" ">
<path fill="none" stroke="#63b8ff" d="M523.44,-373.87C541.14,-364.28 569.96,-348.67 590.64,-337.47"/>
<polygon fill="#63b8ff" stroke="#63b8ff" points="592.37,-340.51 599.5,-332.67 589.04,-334.35 592.37,-340.51"/>
</a>
</g>
</g>
<!-- Node21 -->
<g id="Node000021" class="node">
<title>Node21</title>
<g id="a_Node000021"><a xlink:href="../../d4/d2b/private__key_8hpp.html" target="_top" xlink:title=" ">
<polygon fill="white" stroke="#666666" points="839,-338 714,-338 714,-308 839,-308 839,-338"/>
<text text-anchor="start" x="722" y="-326" font-family="Helvetica,sans-Serif" font-size="10.00">userver/crypto/private</text>
<text text-anchor="middle" x="776.5" y="-315" font-family="Helvetica,sans-Serif" font-size="10.00">_key.hpp</text>
</a>
</g>
</g>
<!-- Node1&#45;&gt;Node21 -->
<g id="edge31_Node000001_Node000021" class="edge">
<title>Node1&#45;&gt;Node21</title>
<g id="a_edge31_Node000001_Node000021"><a xlink:title=" ">
<path fill="none" stroke="#63b8ff" d="M546.61,-373.99C587.73,-365.05 653.36,-350.78 703.99,-339.77"/>
<polygon fill="#63b8ff" stroke="#63b8ff" points="704.87,-343.16 713.9,-337.61 703.38,-336.32 704.87,-343.16"/>
</a>
</g>
</g>
<!-- Node6&#45;&gt;Node2 -->
<g id="edge7_Node000006_Node000002" class="edge">
<title>Node6&#45;&gt;Node2</title>
<g id="a_edge7_Node000006_Node000002"><a xlink:title=" ">
<path fill="none" stroke="#63b8ff" d="M140.99,-313.37C121.79,-302.68 88.84,-284.35 66.15,-271.72"/>
<polygon fill="#63b8ff" stroke="#63b8ff" points="67.57,-268.5 57.13,-266.7 64.17,-274.62 67.57,-268.5"/>
</a>
</g>
</g>
<!-- Node7 -->
<g id="Node000007" class="node">
<title>Node7</title>
<g id="a_Node000007"><a xlink:title=" ">
<polygon fill="#e0e0e0" stroke="#999999" points="151.5,-266.5 101.5,-266.5 101.5,-247.5 151.5,-247.5 151.5,-266.5"/>
<text text-anchor="middle" x="126.5" y="-254.5" font-family="Helvetica,sans-Serif" font-size="10.00">atomic</text>
</a>
</g>
</g>
<!-- Node6&#45;&gt;Node7 -->
<g id="edge6_Node000006_Node000007" class="edge">
<title>Node6&#45;&gt;Node7</title>
<g id="a_edge6_Node000006_Node000007"><a xlink:title=" ">
<path fill="none" stroke="#63b8ff" d="M152.45,-313.37C148.01,-303.88 140.73,-288.36 135.01,-276.16"/>
<polygon fill="#63b8ff" stroke="#63b8ff" points="138.09,-274.47 130.67,-266.91 131.75,-277.45 138.09,-274.47"/>
</a>
</g>
</g>
<!-- Node8 -->
<g id="Node000008" class="node">
<title>Node8</title>
<g id="a_Node000008"><a xlink:title=" ">
<polygon fill="#e0e0e0" stroke="#999999" points="252,-19 183,-19 183,0 252,0 252,-19"/>
<text text-anchor="middle" x="217.5" y="-7" font-family="Helvetica,sans-Serif" font-size="10.00">type_traits</text>
</a>
</g>
</g>
<!-- Node6&#45;&gt;Node8 -->
<g id="edge8_Node000006_Node000008" class="edge">
<title>Node6&#45;&gt;Node8</title>
<g id="a_edge8_Node000006_Node000008"><a xlink:title=" ">
<path fill="none" stroke="#63b8ff" d="M159.23,-313.35C165.32,-293.23 179.5,-241.68 179.5,-197.5 179.5,-197.5 179.5,-197.5 179.5,-135 179.5,-95.63 197.1,-52.18 208.34,-28.45"/>
<polygon fill="#63b8ff" stroke="#63b8ff" points="211.58,-29.8 212.84,-19.28 205.29,-26.71 211.58,-29.8"/>
</a>
</g>
</g>
<!-- Node9&#45;&gt;Node4 -->
<g id="edge10_Node000009_Node000004" class="edge">
<title>Node9&#45;&gt;Node4</title>
<g id="a_edge10_Node000009_Node000004"><a xlink:title=" ">
<path fill="none" stroke="#63b8ff" d="M640.54,-241.79C694.04,-207.31 830.24,-119.51 883.59,-85.12"/>
<polygon fill="#63b8ff" stroke="#63b8ff" points="885.76,-87.89 892.27,-79.53 881.97,-82.01 885.76,-87.89"/>
</a>
</g>
</g>
<!-- Node9&#45;&gt;Node10 -->
<g id="edge11_Node000009_Node000010" class="edge">
<title>Node9&#45;&gt;Node10</title>
<g id="a_edge11_Node000009_Node000010"><a xlink:title=" ">
<path fill="none" stroke="#63b8ff" d="M563.17,-241.99C522.79,-231.76 468.79,-218.09 431.37,-208.61"/>
<polygon fill="#63b8ff" stroke="#63b8ff" points="431.83,-205.12 421.28,-206.05 430.11,-211.9 431.83,-205.12"/>
</a>
</g>
</g>
<!-- Node10&#45;&gt;Node3 -->
<g id="edge12_Node000010_Node000003" class="edge">
<title>Node10&#45;&gt;Node3</title>
<g id="a_edge12_Node000010_Node000003"><a xlink:title=" ">
<path fill="none" stroke="#63b8ff" d="M407.71,-186.99C431.18,-177.12 470.11,-160.73 496.96,-149.43"/>
<polygon fill="#63b8ff" stroke="#63b8ff" points="498.4,-152.62 506.26,-145.52 495.69,-146.17 498.4,-152.62"/>
</a>
</g>
</g>
<!-- Node11 -->
<g id="Node000011" class="node">
<title>Node11</title>
<g id="a_Node000011"><a xlink:href="../../da/de0/traceful__exception_8hpp.html" target="_top" xlink:title="Exception that remembers the backtrace at the point of its construction.">
<polygon fill="white" stroke="#666666" points="460.5,-151 342.5,-151 342.5,-121 460.5,-121 460.5,-151"/>
<text text-anchor="start" x="350.5" y="-139" font-family="Helvetica,sans-Serif" font-size="10.00">userver/utils/traceful</text>
<text text-anchor="middle" x="401.5" y="-128" font-family="Helvetica,sans-Serif" font-size="10.00">_exception.hpp</text>
</a>
</g>
</g>
<!-- Node10&#45;&gt;Node11 -->
<g id="edge13_Node000010_Node000011" class="edge">
<title>Node10&#45;&gt;Node11</title>
<g id="a_edge13_Node000010_Node000011"><a xlink:title=" ">
<path fill="none" stroke="#63b8ff" d="M389.57,-186.87C391.2,-180.03 393.57,-170.14 395.76,-160.97"/>
<polygon fill="#63b8ff" stroke="#63b8ff" points="399.2,-161.65 398.12,-151.11 392.39,-160.03 399.2,-161.65"/>
</a>
</g>
</g>
<!-- Node11&#45;&gt;Node4 -->
<g id="edge15_Node000011_Node000004" class="edge">
<title>Node11&#45;&gt;Node4</title>
<g id="a_edge15_Node000011_Node000004"><a xlink:title=" ">
<path fill="none" stroke="#63b8ff" d="M460.86,-124.91C470.1,-123.49 479.55,-122.14 488.5,-121 659.43,-99.3 707.93,-129.06 874.5,-85 876.19,-84.55 877.9,-84.02 879.61,-83.44"/>
<polygon fill="#63b8ff" stroke="#63b8ff" points="881.17,-86.58 889.14,-79.6 878.56,-80.09 881.17,-86.58"/>
</a>
</g>
</g>
<!-- Node11&#45;&gt;Node8 -->
<g id="edge16_Node000011_Node000008" class="edge">
<title>Node11&#45;&gt;Node8</title>
<g id="a_edge16_Node000011_Node000008"><a xlink:title=" ">
<path fill="none" stroke="#63b8ff" d="M342.49,-131.33C307.15,-126.05 263.91,-113.66 236.5,-85 222.26,-70.11 218.28,-46.09 217.37,-29.36"/>
<polygon fill="#63b8ff" stroke="#63b8ff" points="220.87,-29.07 217.14,-19.15 213.87,-29.22 220.87,-29.07"/>
</a>
</g>
</g>
<!-- Node12 -->
<g id="Node000012" class="node">
<title>Node12</title>
<g id="a_Node000012"><a xlink:title=" ">
<polygon fill="#e0e0e0" stroke="#999999" points="428,-79.5 363,-79.5 363,-60.5 428,-60.5 428,-79.5"/>
<text text-anchor="middle" x="395.5" y="-67.5" font-family="Helvetica,sans-Serif" font-size="10.00">exception</text>
</a>
</g>
</g>
<!-- Node11&#45;&gt;Node12 -->
<g id="edge14_Node000011_Node000012" class="edge">
<title>Node11&#45;&gt;Node12</title>
<g id="a_edge14_Node000011_Node000012"><a xlink:title=" ">
<path fill="none" stroke="#63b8ff" d="M400.17,-120.8C399.32,-111.7 398.2,-99.79 397.27,-89.9"/>
<polygon fill="#63b8ff" stroke="#63b8ff" points="400.75,-89.47 396.33,-79.84 393.78,-90.13 400.75,-89.47"/>
</a>
</g>
</g>
<!-- Node13 -->
<g id="Node000013" class="node">
<title>Node13</title>
<g id="a_Node000013"><a xlink:title=" ">
<polygon fill="#e0e0e0" stroke="#999999" points="525,-79.5 446,-79.5 446,-60.5 525,-60.5 525,-79.5"/>
<text text-anchor="middle" x="485.5" y="-67.5" font-family="Helvetica,sans-Serif" font-size="10.00">fmt/format.h</text>
</a>
</g>
</g>
<!-- Node11&#45;&gt;Node13 -->
<g id="edge17_Node000011_Node000013" class="edge">
<title>Node11&#45;&gt;Node13</title>
<g id="a_edge17_Node000011_Node000013"><a xlink:title=" ">
<path fill="none" stroke="#63b8ff" d="M420.14,-120.8C433.62,-110.53 451.81,-96.67 465.58,-86.18"/>
<polygon fill="#63b8ff" stroke="#63b8ff" points="468.06,-88.69 473.89,-79.84 463.82,-83.12 468.06,-88.69"/>
</a>
</g>
</g>
<!-- Node14 -->
<g id="Node000014" class="node">
<title>Node14</title>
<g id="a_Node000014"><a xlink:title=" ">
<polygon fill="#e0e0e0" stroke="#999999" points="695.5,-85 543.5,-85 543.5,-55 695.5,-55 695.5,-85"/>
<text text-anchor="start" x="551.5" y="-73" font-family="Helvetica,sans-Serif" font-size="10.00">boost/stacktrace/stacktrace</text>
<text text-anchor="middle" x="619.5" y="-62" font-family="Helvetica,sans-Serif" font-size="10.00">_fwd.hpp</text>
</a>
</g>
</g>
<!-- Node11&#45;&gt;Node14 -->
<g id="edge18_Node000011_Node000014" class="edge">
<title>Node11&#45;&gt;Node14</title>
<g id="a_edge18_Node000011_Node000014"><a xlink:title=" ">
<path fill="none" stroke="#63b8ff" d="M449.34,-120.95C482.56,-111.2 527,-98.16 562.13,-87.84"/>
<polygon fill="#63b8ff" stroke="#63b8ff" points="563.16,-91.19 571.77,-85.01 561.19,-84.47 563.16,-91.19"/>
</a>
</g>
</g>
<!-- Node15 -->
<g id="Node000015" class="node">
<title>Node15</title>
<g id="a_Node000015"><a xlink:href="../../d2/d84/select_8hpp.html" target="_top" xlink:title="Utilities for selection of platform specific values.">
<polygon fill="white" stroke="#666666" points="865.5,-79.5 713.5,-79.5 713.5,-60.5 865.5,-60.5 865.5,-79.5"/>
<text text-anchor="middle" x="789.5" y="-67.5" font-family="Helvetica,sans-Serif" font-size="10.00">userver/compiler/select.hpp</text>
</a>
</g>
</g>
<!-- Node11&#45;&gt;Node15 -->
<g id="edge19_Node000011_Node000015" class="edge">
<title>Node11&#45;&gt;Node15</title>
<g id="a_edge19_Node000011_Node000015"><a xlink:title=" ">
<path fill="none" stroke="#63b8ff" d="M460.85,-125.21C533.13,-113.29 654.62,-93.25 727.9,-81.16"/>
<polygon fill="#63b8ff" stroke="#63b8ff" points="728.61,-84.59 737.91,-79.51 727.48,-77.68 728.61,-84.59"/>
</a>
</g>
</g>
<!-- Node17 -->
<g id="Node000017" class="node">
<title>Node17</title>
<g id="a_Node000017"><a xlink:href="../../d5/d02/fast__pimpl_8hpp.html" target="_top" xlink:title="Implements pimpl idiom without dynamic memory allocation.">
<polygon fill="white" stroke="#666666" points="345,-85 246,-85 246,-55 345,-55 345,-85"/>
<text text-anchor="start" x="254" y="-73" font-family="Helvetica,sans-Serif" font-size="10.00">userver/utils/fast</text>
<text text-anchor="middle" x="295.5" y="-62" font-family="Helvetica,sans-Serif" font-size="10.00">_pimpl.hpp</text>
</a>
</g>
</g>
<!-- Node11&#45;&gt;Node17 -->
<g id="edge21_Node000011_Node000017" class="edge">
<title>Node11&#45;&gt;Node17</title>
<g id="a_edge21_Node000011_Node000017"><a xlink:title=" ">
<path fill="none" stroke="#63b8ff" d="M378.24,-120.95C363.33,-111.95 343.77,-100.14 327.41,-90.27"/>
<polygon fill="#63b8ff" stroke="#63b8ff" points="329.08,-87.18 318.71,-85.01 325.46,-93.18 329.08,-87.18"/>
</a>
</g>
</g>
<!-- Node16 -->
<g id="Node000016" class="node">
<title>Node16</title>
<g id="a_Node000016"><a xlink:title=" ">
<polygon fill="#e0e0e0" stroke="#999999" points="630,-19 577,-19 577,0 630,0 630,-19"/>
<text text-anchor="middle" x="603.5" y="-7" font-family="Helvetica,sans-Serif" font-size="10.00">cstddef</text>
</a>
</g>
</g>
<!-- Node15&#45;&gt;Node16 -->
<g id="edge20_Node000015_Node000016" class="edge">
<title>Node15&#45;&gt;Node16</title>
<g id="a_edge20_Node000015_Node000016"><a xlink:title=" ">
<path fill="none" stroke="#63b8ff" d="M762.45,-60.49C730.13,-50.33 675.9,-33.27 639.91,-21.95"/>
<polygon fill="#63b8ff" stroke="#63b8ff" points="640.87,-18.58 630.28,-18.92 638.77,-25.26 640.87,-18.58"/>
</a>
</g>
</g>
<!-- Node17&#45;&gt;Node8 -->
<g id="edge24_Node000017_Node000008" class="edge">
<title>Node17&#45;&gt;Node8</title>
<g id="a_edge24_Node000017_Node000008"><a xlink:title=" ">
<path fill="none" stroke="#63b8ff" d="M276.62,-54.84C264.72,-45.91 249.38,-34.41 237.3,-25.35"/>
<polygon fill="#63b8ff" stroke="#63b8ff" points="239.29,-22.47 229.19,-19.27 235.09,-28.07 239.29,-22.47"/>
</a>
</g>
</g>
<!-- Node17&#45;&gt;Node16 -->
<g id="edge22_Node000017_Node000016" class="edge">
<title>Node17&#45;&gt;Node16</title>
<g id="a_edge22_Node000017_Node000016"><a xlink:title=" ">
<path fill="none" stroke="#63b8ff" d="M345.03,-57.03C348.23,-56.33 351.41,-55.64 354.5,-55 429.61,-39.39 518.15,-24.36 566.82,-16.39"/>
<polygon fill="#63b8ff" stroke="#63b8ff" points="567.57,-19.82 576.87,-14.75 566.44,-12.91 567.57,-19.82"/>
</a>
</g>
</g>
<!-- Node18 -->
<g id="Node000018" class="node">
<title>Node18</title>
<g id="a_Node000018"><a xlink:title=" ">
<polygon fill="#e0e0e0" stroke="#999999" points="310,-19 273,-19 273,0 310,0 310,-19"/>
<text text-anchor="middle" x="291.5" y="-7" font-family="Helvetica,sans-Serif" font-size="10.00">new</text>
</a>
</g>
</g>
<!-- Node17&#45;&gt;Node18 -->
<g id="edge23_Node000017_Node000018" class="edge">
<title>Node17&#45;&gt;Node18</title>
<g id="a_edge23_Node000017_Node000018"><a xlink:title=" ">
<path fill="none" stroke="#63b8ff" d="M294.53,-54.84C294.01,-47.21 293.36,-37.7 292.8,-29.45"/>
<polygon fill="#63b8ff" stroke="#63b8ff" points="296.27,-29 292.1,-19.27 289.29,-29.48 296.27,-29"/>
</a>
</g>
</g>
<!-- Node19 -->
<g id="Node000019" class="node">
<title>Node19</title>
<g id="a_Node000019"><a xlink:title=" ">
<polygon fill="#e0e0e0" stroke="#999999" points="373,-19 328,-19 328,0 373,0 373,-19"/>
<text text-anchor="middle" x="350.5" y="-7" font-family="Helvetica,sans-Serif" font-size="10.00">utility</text>
</a>
</g>
</g>
<!-- Node17&#45;&gt;Node19 -->
<g id="edge25_Node000017_Node000019" class="edge">
<title>Node17&#45;&gt;Node19</title>
<g id="a_edge25_Node000017_Node000019"><a xlink:title=" ">
<path fill="none" stroke="#63b8ff" d="M308.81,-54.84C316.8,-46.35 326.98,-35.52 335.28,-26.69"/>
<polygon fill="#63b8ff" stroke="#63b8ff" points="337.96,-28.95 342.26,-19.27 332.86,-24.15 337.96,-28.95"/>
</a>
</g>
</g>
<!-- Node20&#45;&gt;Node3 -->
<g id="edge27_Node000020_Node000003" class="edge">
<title>Node20&#45;&gt;Node3</title>
<g id="a_edge27_Node000020_Node000003"><a xlink:title=" ">
<path fill="none" stroke="#63b8ff" d="M598.48,-313.35C583.64,-304.89 562.76,-290.56 551.5,-272 529.21,-235.27 525.92,-183.33 525.92,-155.82"/>
<polygon fill="#63b8ff" stroke="#63b8ff" points="529.42,-155.69 526.07,-145.63 522.42,-155.58 529.42,-155.69"/>
</a>
</g>
</g>
<!-- Node20&#45;&gt;Node5 -->
<g id="edge28_Node000020_Node000005" class="edge">
<title>Node20&#45;&gt;Node5</title>
<g id="a_edge28_Node000020_Node000005"><a xlink:title=" ">
<path fill="none" stroke="#63b8ff" d="M637.21,-313.37C665.02,-302.32 713.4,-283.08 745.18,-270.45"/>
<polygon fill="#63b8ff" stroke="#63b8ff" points="746.87,-273.54 754.87,-266.6 744.29,-267.04 746.87,-273.54"/>
</a>
</g>
</g>
<!-- Node20&#45;&gt;Node9 -->
<g id="edge29_Node000020_Node000009" class="edge">
<title>Node20&#45;&gt;Node9</title>
<g id="a_edge29_Node000020_Node000009"><a xlink:title=" ">
<path fill="none" stroke="#63b8ff" d="M615.9,-313.37C616.27,-305.49 616.84,-293.45 617.35,-282.6"/>
<polygon fill="#63b8ff" stroke="#63b8ff" points="620.85,-282.51 617.83,-272.36 613.86,-282.19 620.85,-282.51"/>
</a>
</g>
</g>
<!-- Node21&#45;&gt;Node3 -->
<g id="edge32_Node000021_Node000003" class="edge">
<title>Node21&#45;&gt;Node3</title>
<g id="a_edge32_Node000021_Node000003"><a xlink:title=" ">
<path fill="none" stroke="#63b8ff" d="M761.59,-307.75C744,-291.2 713.58,-263.45 685.5,-242 639.29,-206.69 581.56,-170.36 549.92,-151.06"/>
<polygon fill="#63b8ff" stroke="#63b8ff" points="551.35,-147.83 540.99,-145.64 547.72,-153.82 551.35,-147.83"/>
</a>
</g>
</g>
<!-- Node21&#45;&gt;Node5 -->
<g id="edge33_Node000021_Node000005" class="edge">
<title>Node21&#45;&gt;Node5</title>
<g id="a_edge33_Node000021_Node000005"><a xlink:title=" ">
<path fill="none" stroke="#63b8ff" d="M776.5,-307.8C776.5,-298.7 776.5,-286.79 776.5,-276.9"/>
<polygon fill="#63b8ff" stroke="#63b8ff" points="780,-276.84 776.5,-266.84 773,-276.84 780,-276.84"/>
</a>
</g>
</g>
<!-- Node21&#45;&gt;Node9 -->
<g id="edge34_Node000021_Node000009" class="edge">
<title>Node21&#45;&gt;Node9</title>
<g id="a_edge34_Node000021_Node000009"><a xlink:title=" ">
<path fill="none" stroke="#63b8ff" d="M741.83,-307.95C718.47,-298.49 687.46,-285.93 662.39,-275.78"/>
<polygon fill="#63b8ff" stroke="#63b8ff" points="663.68,-272.52 653.09,-272.01 661.05,-279.01 663.68,-272.52"/>
</a>
</g>
</g>
</g>
</svg>
