<?xml version="1.0" encoding="UTF-8" standalone="no"?>
<!DOCTYPE svg PUBLIC "-//W3C//DTD SVG 1.1//EN"
 "http://www.w3.org/Graphics/SVG/1.1/DTD/svg11.dtd">
<!-- Generated by graphviz version 2.43.0 (0)
 -->
<!-- Title: userver/congestion_control/config.hpp Pages: 1 -->
<svg width="776pt" height="236pt"
 viewBox="0.00 0.00 776.00 236.00" xmlns="http://www.w3.org/2000/svg" xmlns:xlink="http://www.w3.org/1999/xlink">
<g id="graph0" class="graph" transform="scale(1 1) rotate(0) translate(4 232)">
<title>userver/congestion_control/config.hpp</title>
<!-- Node1 -->
<g id="Node000001" class="node">
<title>Node1</title>
<g id="a_Node000001"><a xlink:title="Congestion Control config structures.">
<polygon fill="#999999" stroke="#666666" points="308.5,-228 198.5,-228 198.5,-198 308.5,-198 308.5,-228"/>
<text text-anchor="start" x="206.5" y="-216" font-family="Helvetica,sans-Serif" font-size="10.00">userver/congestion</text>
<text text-anchor="middle" x="253.5" y="-205" font-family="Helvetica,sans-Serif" font-size="10.00">_control/config.hpp</text>
</a>
</g>
</g>
<!-- Node2 -->
<g id="Node000002" class="node">
<title>Node2</title>
<g id="a_Node000002"><a xlink:title=" ">
<polygon fill="#e0e0e0" stroke="#999999" points="108,-24.5 55,-24.5 55,-5.5 108,-5.5 108,-24.5"/>
<text text-anchor="middle" x="81.5" y="-12.5" font-family="Helvetica,sans-Serif" font-size="10.00">cstddef</text>
</a>
</g>
</g>
<!-- Node1&#45;&gt;Node2 -->
<g id="edge1_Node000001_Node000002" class="edge">
<title>Node1&#45;&gt;Node2</title>
<g id="a_edge1_Node000001_Node000002"><a xlink:title=" ">
<path fill="none" stroke="#63b8ff" d="M217.18,-197.88C177.83,-180.44 116.88,-146.73 88.5,-96 77.99,-77.22 77.61,-52 78.97,-34.93"/>
<polygon fill="#63b8ff" stroke="#63b8ff" points="82.49,-34.92 80.08,-24.6 75.53,-34.17 82.49,-34.92"/>
</a>
</g>
</g>
<!-- Node3 -->
<g id="Node000003" class="node">
<title>Node3</title>
<g id="a_Node000003"><a xlink:href="../../df/d22/snapshot_8hpp.html" target="_top" xlink:title="The storage for a snapshot of configs.">
<polygon fill="white" stroke="#666666" points="320,-162 187,-162 187,-132 320,-132 320,-162"/>
<text text-anchor="start" x="195" y="-150" font-family="Helvetica,sans-Serif" font-size="10.00">userver/dynamic_config</text>
<text text-anchor="middle" x="253.5" y="-139" font-family="Helvetica,sans-Serif" font-size="10.00">/snapshot.hpp</text>
</a>
</g>
</g>
<!-- Node1&#45;&gt;Node3 -->
<g id="edge2_Node000001_Node000003" class="edge">
<title>Node1&#45;&gt;Node3</title>
<g id="a_edge2_Node000001_Node000003"><a xlink:title=" ">
<path fill="none" stroke="#63b8ff" d="M253.5,-197.8C253.5,-190.34 253.5,-180.99 253.5,-172.41"/>
<polygon fill="#63b8ff" stroke="#63b8ff" points="257,-172.16 253.5,-162.16 250,-172.16 257,-172.16"/>
</a>
</g>
</g>
<!-- Node16 -->
<g id="Node000016" class="node">
<title>Node16</title>
<g id="a_Node000016"><a xlink:href="../../dc/d7d/json__fwd_8hpp.html" target="_top" xlink:title="Forward declarations of formats::json types, formats::parse::To and formats::serialize::To.">
<polygon fill="white" stroke="#666666" points="607.5,-162 489.5,-162 489.5,-132 607.5,-132 607.5,-162"/>
<text text-anchor="start" x="497.5" y="-150" font-family="Helvetica,sans-Serif" font-size="10.00">userver/formats/json</text>
<text text-anchor="middle" x="548.5" y="-139" font-family="Helvetica,sans-Serif" font-size="10.00">_fwd.hpp</text>
</a>
</g>
</g>
<!-- Node1&#45;&gt;Node16 -->
<g id="edge19_Node000001_Node000016" class="edge">
<title>Node1&#45;&gt;Node16</title>
<g id="a_edge19_Node000001_Node000016"><a xlink:title=" ">
<path fill="none" stroke="#63b8ff" d="M308.64,-200.04C356.97,-189.55 427.44,-174.26 479.5,-162.97"/>
<polygon fill="#63b8ff" stroke="#63b8ff" points="480.3,-166.38 489.33,-160.84 478.81,-159.54 480.3,-166.38"/>
</a>
</g>
</g>
<!-- Node4 -->
<g id="Node000004" class="node">
<title>Node4</title>
<g id="a_Node000004"><a xlink:title=" ">
<polygon fill="#e0e0e0" stroke="#999999" points="309.5,-90.5 253.5,-90.5 253.5,-71.5 309.5,-71.5 309.5,-90.5"/>
<text text-anchor="middle" x="281.5" y="-78.5" font-family="Helvetica,sans-Serif" font-size="10.00">optional</text>
</a>
</g>
</g>
<!-- Node3&#45;&gt;Node4 -->
<g id="edge3_Node000003_Node000004" class="edge">
<title>Node3&#45;&gt;Node4</title>
<g id="a_edge3_Node000003_Node000004"><a xlink:title=" ">
<path fill="none" stroke="#63b8ff" d="M259.71,-131.8C263.78,-122.5 269.13,-110.27 273.51,-100.26"/>
<polygon fill="#63b8ff" stroke="#63b8ff" points="276.83,-101.41 277.63,-90.84 270.42,-98.6 276.83,-101.41"/>
</a>
</g>
</g>
<!-- Node5 -->
<g id="Node000005" class="node">
<title>Node5</title>
<g id="a_Node000005"><a xlink:title=" ">
<polygon fill="#e0e0e0" stroke="#999999" points="258,-24.5 189,-24.5 189,-5.5 258,-5.5 258,-24.5"/>
<text text-anchor="middle" x="223.5" y="-12.5" font-family="Helvetica,sans-Serif" font-size="10.00">type_traits</text>
</a>
</g>
</g>
<!-- Node3&#45;&gt;Node5 -->
<g id="edge4_Node000003_Node000005" class="edge">
<title>Node3&#45;&gt;Node5</title>
<g id="a_edge4_Node000003_Node000005"><a xlink:title=" ">
<path fill="none" stroke="#63b8ff" d="M250.23,-131.84C244.78,-108.23 233.85,-60.83 227.79,-34.58"/>
<polygon fill="#63b8ff" stroke="#63b8ff" points="231.18,-33.71 225.52,-24.75 224.36,-35.28 231.18,-33.71"/>
</a>
</g>
</g>
<!-- Node6 -->
<g id="Node000006" class="node">
<title>Node6</title>
<g id="a_Node000006"><a xlink:href="../../d8/d20/impl_2snapshot_8hpp_source.html" target="_top" xlink:title=" ">
<polygon fill="white" stroke="#666666" points="461,-96 328,-96 328,-66 461,-66 461,-96"/>
<text text-anchor="start" x="336" y="-84" font-family="Helvetica,sans-Serif" font-size="10.00">userver/dynamic_config</text>
<text text-anchor="middle" x="394.5" y="-73" font-family="Helvetica,sans-Serif" font-size="10.00">/impl/snapshot.hpp</text>
</a>
</g>
</g>
<!-- Node3&#45;&gt;Node6 -->
<g id="edge5_Node000003_Node000006" class="edge">
<title>Node3&#45;&gt;Node6</title>
<g id="a_edge5_Node000003_Node000006"><a xlink:title=" ">
<path fill="none" stroke="#63b8ff" d="M284.44,-131.95C305.01,-122.62 332.23,-110.27 354.45,-100.18"/>
<polygon fill="#63b8ff" stroke="#63b8ff" points="355.97,-103.33 363.63,-96.01 353.08,-96.96 355.97,-103.33"/>
</a>
</g>
</g>
<!-- Node13 -->
<g id="Node000013" class="node">
<title>Node13</title>
<g id="a_Node000013"><a xlink:href="../../d5/d02/fast__pimpl_8hpp.html" target="_top" xlink:title="Implements pimpl idiom without dynamic memory allocation.">
<polygon fill="white" stroke="#666666" points="197,-96 98,-96 98,-66 197,-66 197,-96"/>
<text text-anchor="start" x="106" y="-84" font-family="Helvetica,sans-Serif" font-size="10.00">userver/utils/fast</text>
<text text-anchor="middle" x="147.5" y="-73" font-family="Helvetica,sans-Serif" font-size="10.00">_pimpl.hpp</text>
</a>
</g>
</g>
<!-- Node3&#45;&gt;Node13 -->
<g id="edge14_Node000003_Node000013" class="edge">
<title>Node3&#45;&gt;Node13</title>
<g id="a_edge14_Node000003_Node000013"><a xlink:title=" ">
<path fill="none" stroke="#63b8ff" d="M230.24,-131.95C215.33,-122.95 195.77,-111.14 179.41,-101.27"/>
<polygon fill="#63b8ff" stroke="#63b8ff" points="181.08,-98.18 170.71,-96.01 177.46,-104.18 181.08,-98.18"/>
</a>
</g>
</g>
<!-- Node6&#45;&gt;Node2 -->
<g id="edge7_Node000006_Node000002" class="edge">
<title>Node6&#45;&gt;Node2</title>
<g id="a_edge7_Node000006_Node000002"><a xlink:title=" ">
<path fill="none" stroke="#63b8ff" d="M327.78,-67.69C324.64,-67.11 321.54,-66.55 318.5,-66 228.77,-49.74 204.18,-55.06 116.5,-30 114.57,-29.45 112.59,-28.82 110.61,-28.16"/>
<polygon fill="#63b8ff" stroke="#63b8ff" points="111.47,-24.74 100.88,-24.57 109.05,-31.31 111.47,-24.74"/>
</a>
</g>
</g>
<!-- Node6&#45;&gt;Node5 -->
<g id="edge9_Node000006_Node000005" class="edge">
<title>Node6&#45;&gt;Node5</title>
<g id="a_edge9_Node000006_Node000005"><a xlink:title=" ">
<path fill="none" stroke="#63b8ff" d="M356.97,-65.95C326.72,-54.63 284.62,-38.88 255.84,-28.1"/>
<polygon fill="#63b8ff" stroke="#63b8ff" points="256.85,-24.74 246.26,-24.52 254.4,-31.3 256.85,-24.74"/>
</a>
</g>
</g>
<!-- Node7 -->
<g id="Node000007" class="node">
<title>Node7</title>
<g id="a_Node000007"><a xlink:title=" ">
<polygon fill="#e0e0e0" stroke="#999999" points="768,-24.5 733,-24.5 733,-5.5 768,-5.5 768,-24.5"/>
<text text-anchor="middle" x="750.5" y="-12.5" font-family="Helvetica,sans-Serif" font-size="10.00">any</text>
</a>
</g>
</g>
<!-- Node6&#45;&gt;Node7 -->
<g id="edge6_Node000006_Node000007" class="edge">
<title>Node6&#45;&gt;Node7</title>
<g id="a_edge6_Node000006_Node000007"><a xlink:title=" ">
<path fill="none" stroke="#63b8ff" d="M461.13,-67.4C463.96,-66.92 466.75,-66.45 469.5,-66 582.45,-47.49 615.75,-65.69 724.5,-30 725.55,-29.66 726.6,-29.27 727.66,-28.86"/>
<polygon fill="#63b8ff" stroke="#63b8ff" points="729.32,-31.94 736.87,-24.5 726.34,-25.61 729.32,-31.94"/>
</a>
</g>
</g>
<!-- Node8 -->
<g id="Node000008" class="node">
<title>Node8</title>
<g id="a_Node000008"><a xlink:title=" ">
<polygon fill="#e0e0e0" stroke="#999999" points="341,-24.5 276,-24.5 276,-5.5 341,-5.5 341,-24.5"/>
<text text-anchor="middle" x="308.5" y="-12.5" font-family="Helvetica,sans-Serif" font-size="10.00">exception</text>
</a>
</g>
</g>
<!-- Node6&#45;&gt;Node8 -->
<g id="edge8_Node000006_Node000008" class="edge">
<title>Node6&#45;&gt;Node8</title>
<g id="a_edge8_Node000006_Node000008"><a xlink:title=" ">
<path fill="none" stroke="#63b8ff" d="M375.41,-65.8C361.48,-55.43 342.64,-41.4 328.5,-30.88"/>
<polygon fill="#63b8ff" stroke="#63b8ff" points="330.5,-28.01 320.38,-24.84 326.32,-33.62 330.5,-28.01"/>
</a>
</g>
</g>
<!-- Node9 -->
<g id="Node000009" class="node">
<title>Node9</title>
<g id="a_Node000009"><a xlink:title=" ">
<polygon fill="#e0e0e0" stroke="#999999" points="424,-24.5 359,-24.5 359,-5.5 424,-5.5 424,-24.5"/>
<text text-anchor="middle" x="391.5" y="-12.5" font-family="Helvetica,sans-Serif" font-size="10.00">typeindex</text>
</a>
</g>
</g>
<!-- Node6&#45;&gt;Node9 -->
<g id="edge10_Node000006_Node000009" class="edge">
<title>Node6&#45;&gt;Node9</title>
<g id="a_edge10_Node000006_Node000009"><a xlink:title=" ">
<path fill="none" stroke="#63b8ff" d="M393.83,-65.8C393.41,-56.7 392.85,-44.79 392.39,-34.9"/>
<polygon fill="#63b8ff" stroke="#63b8ff" points="395.88,-34.67 391.91,-24.84 388.89,-35 395.88,-34.67"/>
</a>
</g>
</g>
<!-- Node10 -->
<g id="Node000010" class="node">
<title>Node10</title>
<g id="a_Node000010"><a xlink:title=" ">
<polygon fill="#e0e0e0" stroke="#999999" points="499,-24.5 442,-24.5 442,-5.5 499,-5.5 499,-24.5"/>
<text text-anchor="middle" x="470.5" y="-12.5" font-family="Helvetica,sans-Serif" font-size="10.00">typeinfo</text>
</a>
</g>
</g>
<!-- Node6&#45;&gt;Node10 -->
<g id="edge11_Node000006_Node000010" class="edge">
<title>Node6&#45;&gt;Node10</title>
<g id="a_edge11_Node000006_Node000010"><a xlink:title=" ">
<path fill="none" stroke="#63b8ff" d="M411.37,-65.8C423.45,-55.62 439.71,-41.93 452.12,-31.48"/>
<polygon fill="#63b8ff" stroke="#63b8ff" points="454.6,-33.96 460,-24.84 450.09,-28.61 454.6,-33.96"/>
</a>
</g>
</g>
<!-- Node11 -->
<g id="Node000011" class="node">
<title>Node11</title>
<g id="a_Node000011"><a xlink:title=" ">
<polygon fill="#e0e0e0" stroke="#999999" points="564,-24.5 517,-24.5 517,-5.5 564,-5.5 564,-24.5"/>
<text text-anchor="middle" x="540.5" y="-12.5" font-family="Helvetica,sans-Serif" font-size="10.00">vector</text>
</a>
</g>
</g>
<!-- Node6&#45;&gt;Node11 -->
<g id="edge12_Node000006_Node000011" class="edge">
<title>Node6&#45;&gt;Node11</title>
<g id="a_edge12_Node000006_Node000011"><a xlink:title=" ">
<path fill="none" stroke="#63b8ff" d="M426.54,-65.95C451.92,-54.83 487.06,-39.42 511.59,-28.67"/>
<polygon fill="#63b8ff" stroke="#63b8ff" points="513.32,-31.74 521.07,-24.52 510.51,-25.33 513.32,-31.74"/>
</a>
</g>
</g>
<!-- Node12 -->
<g id="Node000012" class="node">
<title>Node12</title>
<g id="a_Node000012"><a xlink:href="../../df/d7e/core_2include_2userver_2dynamic__config_2fwd_8hpp.html" target="_top" xlink:title="Forward declarations of dynamic_config classes.">
<polygon fill="white" stroke="#666666" points="715,-30 582,-30 582,0 715,0 715,-30"/>
<text text-anchor="start" x="590" y="-18" font-family="Helvetica,sans-Serif" font-size="10.00">userver/dynamic_config</text>
<text text-anchor="middle" x="648.5" y="-7" font-family="Helvetica,sans-Serif" font-size="10.00">/fwd.hpp</text>
</a>
</g>
</g>
<!-- Node6&#45;&gt;Node12 -->
<g id="edge13_Node000006_Node000012" class="edge">
<title>Node6&#45;&gt;Node12</title>
<g id="a_edge13_Node000006_Node000012"><a xlink:title=" ">
<path fill="none" stroke="#63b8ff" d="M450.24,-65.95C489.37,-56.1 541.83,-42.88 582.96,-32.51"/>
<polygon fill="#63b8ff" stroke="#63b8ff" points="584.05,-35.85 592.89,-30.01 582.34,-29.06 584.05,-35.85"/>
</a>
</g>
</g>
<!-- Node13&#45;&gt;Node2 -->
<g id="edge15_Node000013_Node000002" class="edge">
<title>Node13&#45;&gt;Node2</title>
<g id="a_edge15_Node000013_Node000002"><a xlink:title=" ">
<path fill="none" stroke="#63b8ff" d="M132.85,-65.8C122.56,-55.82 108.78,-42.46 98.09,-32.09"/>
<polygon fill="#63b8ff" stroke="#63b8ff" points="100.24,-29.29 90.62,-24.84 95.36,-34.32 100.24,-29.29"/>
</a>
</g>
</g>
<!-- Node13&#45;&gt;Node5 -->
<g id="edge17_Node000013_Node000005" class="edge">
<title>Node13&#45;&gt;Node5</title>
<g id="a_edge17_Node000013_Node000005"><a xlink:title=" ">
<path fill="none" stroke="#63b8ff" d="M164.37,-65.8C176.45,-55.62 192.71,-41.93 205.12,-31.48"/>
<polygon fill="#63b8ff" stroke="#63b8ff" points="207.6,-33.96 213,-24.84 203.09,-28.61 207.6,-33.96"/>
</a>
</g>
</g>
<!-- Node14 -->
<g id="Node000014" class="node">
<title>Node14</title>
<g id="a_Node000014"><a xlink:title=" ">
<polygon fill="#e0e0e0" stroke="#999999" points="37,-24.5 0,-24.5 0,-5.5 37,-5.5 37,-24.5"/>
<text text-anchor="middle" x="18.5" y="-12.5" font-family="Helvetica,sans-Serif" font-size="10.00">new</text>
</a>
</g>
</g>
<!-- Node13&#45;&gt;Node14 -->
<g id="edge16_Node000013_Node000014" class="edge">
<title>Node13&#45;&gt;Node14</title>
<g id="a_edge16_Node000013_Node000014"><a xlink:title=" ">
<path fill="none" stroke="#63b8ff" d="M118.4,-65.95C97.94,-56.02 69.98,-42.34 45.5,-30 45.08,-29.79 44.65,-29.57 44.22,-29.35"/>
<polygon fill="#63b8ff" stroke="#63b8ff" points="45.53,-26.09 35.03,-24.65 42.34,-32.32 45.53,-26.09"/>
</a>
</g>
</g>
<!-- Node15 -->
<g id="Node000015" class="node">
<title>Node15</title>
<g id="a_Node000015"><a xlink:title=" ">
<polygon fill="#e0e0e0" stroke="#999999" points="171,-24.5 126,-24.5 126,-5.5 171,-5.5 171,-24.5"/>
<text text-anchor="middle" x="148.5" y="-12.5" font-family="Helvetica,sans-Serif" font-size="10.00">utility</text>
</a>
</g>
</g>
<!-- Node13&#45;&gt;Node15 -->
<g id="edge18_Node000013_Node000015" class="edge">
<title>Node13&#45;&gt;Node15</title>
<g id="a_edge18_Node000013_Node000015"><a xlink:title=" ">
<path fill="none" stroke="#63b8ff" d="M147.72,-65.8C147.86,-56.7 148.05,-44.79 148.2,-34.9"/>
<polygon fill="#63b8ff" stroke="#63b8ff" points="151.71,-34.9 148.36,-24.84 144.71,-34.79 151.71,-34.9"/>
</a>
</g>
</g>
<!-- Node17 -->
<g id="Node000017" class="node">
<title>Node17</title>
<g id="a_Node000017"><a xlink:href="../../d2/dc8/universal_2include_2userver_2formats_2parse_2to_8hpp.html" target="_top" xlink:title="Helper for parsers.">
<polygon fill="white" stroke="#666666" points="761,-96 636,-96 636,-66 761,-66 761,-96"/>
<text text-anchor="start" x="644" y="-84" font-family="Helvetica,sans-Serif" font-size="10.00">userver/formats/parse</text>
<text text-anchor="middle" x="698.5" y="-73" font-family="Helvetica,sans-Serif" font-size="10.00">/to.hpp</text>
</a>
</g>
</g>
<!-- Node16&#45;&gt;Node17 -->
<g id="edge20_Node000016_Node000017" class="edge">
<title>Node16&#45;&gt;Node17</title>
<g id="a_edge20_Node000016_Node000017"><a xlink:title=" ">
<path fill="none" stroke="#63b8ff" d="M581.42,-131.95C603.4,-122.58 632.51,-110.16 656.21,-100.05"/>
<polygon fill="#63b8ff" stroke="#63b8ff" points="657.83,-103.16 665.66,-96.01 655.09,-96.72 657.83,-103.16"/>
</a>
</g>
</g>
<!-- Node18 -->
<g id="Node000018" class="node">
<title>Node18</title>
<g id="a_Node000018"><a xlink:href="../../d6/d8e/universal_2include_2userver_2formats_2serialize_2to_8hpp.html" target="_top" xlink:title="Helper for serializers.">
<polygon fill="white" stroke="#666666" points="618,-96 479,-96 479,-66 618,-66 618,-96"/>
<text text-anchor="start" x="487" y="-84" font-family="Helvetica,sans-Serif" font-size="10.00">userver/formats/serialize</text>
<text text-anchor="middle" x="548.5" y="-73" font-family="Helvetica,sans-Serif" font-size="10.00">/to.hpp</text>
</a>
</g>
</g>
<!-- Node16&#45;&gt;Node18 -->
<g id="edge21_Node000016_Node000018" class="edge">
<title>Node16&#45;&gt;Node18</title>
<g id="a_edge21_Node000016_Node000018"><a xlink:title=" ">
<path fill="none" stroke="#63b8ff" d="M548.5,-131.8C548.5,-124.34 548.5,-114.99 548.5,-106.41"/>
<polygon fill="#63b8ff" stroke="#63b8ff" points="552,-106.16 548.5,-96.16 545,-106.16 552,-106.16"/>
</a>
</g>
</g>
</g>
</svg>
