<?xml version="1.0" encoding="UTF-8" standalone="no"?>
<!DOCTYPE svg PUBLIC "-//W3C//DTD SVG 1.1//EN"
 "http://www.w3.org/Graphics/SVG/1.1/DTD/svg11.dtd">
<!-- Generated by graphviz version 2.43.0 (0)
 -->
<!-- Title: userver/dynamic_config/storage_mock.hpp Pages: 1 -->
<svg width="191pt" height="236pt"
 viewBox="0.00 0.00 191.00 236.00" xmlns="http://www.w3.org/2000/svg" xmlns:xlink="http://www.w3.org/1999/xlink">
<g id="graph0" class="graph" transform="scale(1 1) rotate(0) translate(4 232)">
<title>userver/dynamic_config/storage_mock.hpp</title>
<!-- Node1 -->
<g id="Node000001" class="node">
<title>Node1</title>
<g id="a_Node000001"><a xlink:title="Backing storage for dynamic_config::Source in tests and benchmarks.">
<polygon fill="#999999" stroke="#666666" points="135,-228 2,-228 2,-198 135,-198 135,-228"/>
<text text-anchor="start" x="10" y="-216" font-family="Helvetica,sans-Serif" font-size="10.00">userver/dynamic_config</text>
<text text-anchor="middle" x="68.5" y="-205" font-family="Helvetica,sans-Serif" font-size="10.00">/storage_mock.hpp</text>
</a>
</g>
</g>
<!-- Node2 -->
<g id="Node000002" class="node">
<title>Node2</title>
<g id="a_Node000002"><a xlink:href="../../d6/dc6/benchmark__helpers_8hpp_source.html" target="_top" xlink:title=" ">
<polygon fill="white" stroke="#666666" points="137,-96 0,-96 0,-66 137,-66 137,-96"/>
<text text-anchor="start" x="8" y="-84" font-family="Helvetica,sans-Serif" font-size="10.00">userver/dynamic_config</text>
<text text-anchor="middle" x="68.5" y="-73" font-family="Helvetica,sans-Serif" font-size="10.00">/benchmark_helpers.hpp</text>
</a>
</g>
</g>
<!-- Node1&#45;&gt;Node2 -->
<g id="edge1_Node000001_Node000002" class="edge">
<title>Node1&#45;&gt;Node2</title>
<g id="a_edge1_Node000001_Node000002"><a xlink:title=" ">
<path fill="none" stroke="#63b8ff" d="M52.6,-189.36C47.72,-181.13 42.98,-171.51 40.5,-162 37.13,-149.1 37.13,-144.9 40.5,-132 43.92,-118.91 51.61,-105.61 58.06,-96.03"/>
<polygon fill="#63b8ff" stroke="#63b8ff" points="49.75,-191.4 58.06,-197.97 55.66,-187.65 49.75,-191.4"/>
</a>
</g>
</g>
<!-- Node4 -->
<g id="Node000004" class="node">
<title>Node4</title>
<g id="a_Node000004"><a xlink:href="../../d5/d18/include_2userver_2dynamic__config_2impl_2test__helpers_8hpp_source.html" target="_top" xlink:title=" ">
<polygon fill="white" stroke="#666666" points="183,-162 50,-162 50,-132 183,-132 183,-162"/>
<text text-anchor="start" x="58" y="-150" font-family="Helvetica,sans-Serif" font-size="10.00">userver/dynamic_config</text>
<text text-anchor="middle" x="116.5" y="-139" font-family="Helvetica,sans-Serif" font-size="10.00">/impl/test_helpers.hpp</text>
</a>
</g>
</g>
<!-- Node1&#45;&gt;Node4 -->
<g id="edge3_Node000001_Node000004" class="edge">
<title>Node1&#45;&gt;Node4</title>
<g id="a_edge3_Node000001_Node000004"><a xlink:title=" ">
<path fill="none" stroke="#63b8ff" d="M85.36,-189.53C92.18,-180.43 99.85,-170.19 105.88,-162.16"/>
<polygon fill="#63b8ff" stroke="#63b8ff" points="82.35,-187.7 79.15,-197.8 87.95,-191.9 82.35,-187.7"/>
</a>
</g>
</g>
<!-- Node3 -->
<g id="Node000003" class="node">
<title>Node3</title>
<g id="a_Node000003"><a xlink:href="../../d6/dd0/testing_2include_2userver_2dynamic__config_2test__helpers_8hpp.html" target="_top" xlink:title="Contains getters for dynamic config defaults for tests.">
<polygon fill="white" stroke="#666666" points="135,-30 2,-30 2,0 135,0 135,-30"/>
<text text-anchor="start" x="10" y="-18" font-family="Helvetica,sans-Serif" font-size="10.00">userver/dynamic_config</text>
<text text-anchor="middle" x="68.5" y="-7" font-family="Helvetica,sans-Serif" font-size="10.00">/test_helpers.hpp</text>
</a>
</g>
</g>
<!-- Node2&#45;&gt;Node3 -->
<g id="edge2_Node000002_Node000003" class="edge">
<title>Node2&#45;&gt;Node3</title>
<g id="a_edge2_Node000002_Node000003"><a xlink:title=" ">
<path fill="none" stroke="#63b8ff" d="M68.5,-55.54C68.5,-46.96 68.5,-37.61 68.5,-30.16"/>
<polygon fill="#63b8ff" stroke="#63b8ff" points="65,-55.8 68.5,-65.8 72,-55.8 65,-55.8"/>
</a>
</g>
</g>
<!-- Node4&#45;&gt;Node2 -->
<g id="edge4_Node000004_Node000002" class="edge">
<title>Node4&#45;&gt;Node2</title>
<g id="a_edge4_Node000004_Node000002"><a xlink:title=" ">
<path fill="none" stroke="#63b8ff" d="M99.64,-123.53C92.82,-114.43 85.15,-104.19 79.12,-96.16"/>
<polygon fill="#63b8ff" stroke="#63b8ff" points="97.05,-125.9 105.85,-131.8 102.65,-121.7 97.05,-125.9"/>
</a>
</g>
</g>
</g>
</svg>
