<?xml version="1.0" encoding="UTF-8" standalone="no"?>
<!DOCTYPE svg PUBLIC "-//W3C//DTD SVG 1.1//EN"
 "http://www.w3.org/Graphics/SVG/1.1/DTD/svg11.dtd">
<!-- Generated by graphviz version 2.43.0 (0)
 -->
<!-- Title: storages::redis::Config Pages: 1 -->
<svg width="523pt" height="416pt"
 viewBox="0.00 0.00 523.00 416.00" xmlns="http://www.w3.org/2000/svg" xmlns:xlink="http://www.w3.org/1999/xlink">
<g id="graph0" class="graph" transform="scale(1 1) rotate(0) translate(4 412)">
<title>storages::redis::Config</title>
<!-- Node1 -->
<g id="Node000001" class="node">
<title>Node1</title>
<g id="a_Node000001"><a xlink:title=" ">
<polygon fill="#999999" stroke="#666666" points="515,-204.5 390,-204.5 390,-185.5 515,-185.5 515,-204.5"/>
<text text-anchor="middle" x="452.5" y="-192.5" font-family="Helvetica,sans-Serif" font-size="10.00">storages::redis::Config</text>
</a>
</g>
</g>
<!-- Node2 -->
<g id="Node000002" class="node">
<title>Node2</title>
<g id="a_Node000002"><a xlink:href="../../db/df1/classdynamic__config_1_1Value.html" target="_top" xlink:title=" ">
<polygon fill="white" stroke="#bfbfbf" points="182,-378 27,-378 27,-348 182,-348 182,-378"/>
<text text-anchor="start" x="35" y="-366" font-family="Helvetica,sans-Serif" font-size="10.00">dynamic_config::Value</text>
<text text-anchor="middle" x="104.5" y="-355" font-family="Helvetica,sans-Serif" font-size="10.00">&lt; redis::CommandControl &gt;</text>
</a>
</g>
</g>
<!-- Node2&#45;&gt;Node1 -->
<g id="edge1_Node000001_Node000002" class="edge">
<title>Node2&#45;&gt;Node1</title>
<g id="a_edge1_Node000001_Node000002"><a xlink:title=" ">
<path fill="none" stroke="#9a32cd" stroke-dasharray="5,2" d="M192.22,-374.93C247.89,-378.09 319.35,-373.35 372,-339 421.75,-306.54 443.14,-231.77 449.41,-204.87"/>
<polygon fill="#9a32cd" stroke="#9a32cd" points="192.23,-371.42 182.02,-374.25 191.77,-378.4 192.23,-371.42"/>
</a>
</g>
<text text-anchor="middle" x="299.5" y="-400" font-family="Helvetica,sans-Serif" font-size="10.00" fill="grey"> default_command_control</text>
<text text-anchor="start" x="227" y="-389" font-family="Helvetica,sans-Serif" font-size="10.00" fill="grey">subscriber_default_command</text>
<text text-anchor="middle" x="299.5" y="-378" font-family="Helvetica,sans-Serif" font-size="10.00" fill="grey">_control</text>
</g>
<!-- Node3 -->
<g id="Node000003" class="node">
<title>Node3</title>
<g id="a_Node000003"><a xlink:href="../../db/df1/classdynamic__config_1_1Value.html" target="_top" xlink:title=" ">
<polygon fill="white" stroke="#bfbfbf" points="167.5,-330 41.5,-330 41.5,-300 167.5,-300 167.5,-330"/>
<text text-anchor="start" x="49.5" y="-318" font-family="Helvetica,sans-Serif" font-size="10.00">dynamic_config::Value</text>
<text text-anchor="middle" x="104.5" y="-307" font-family="Helvetica,sans-Serif" font-size="10.00">&lt; size_t &gt;</text>
</a>
</g>
</g>
<!-- Node3&#45;&gt;Node1 -->
<g id="edge2_Node000001_Node000003" class="edge">
<title>Node3&#45;&gt;Node1</title>
<g id="a_edge2_Node000001_Node000003"><a xlink:title=" ">
<path fill="none" stroke="#9a32cd" stroke-dasharray="5,2" d="M177.75,-316.7C233.6,-315.19 311.36,-306.8 372,-276 405.55,-258.95 433.29,-222.26 445.22,-204.72"/>
<polygon fill="#9a32cd" stroke="#9a32cd" points="177.51,-313.2 167.59,-316.9 177.65,-320.2 177.51,-313.2"/>
</a>
</g>
<text text-anchor="start" x="239" y="-327" font-family="Helvetica,sans-Serif" font-size="10.00" fill="grey"> subscriptions_rebalance</text>
<text text-anchor="middle" x="299.5" y="-316" font-family="Helvetica,sans-Serif" font-size="10.00" fill="grey">_min_interval_seconds</text>
</g>
<!-- Node4 -->
<g id="Node000004" class="node">
<title>Node4</title>
<g id="a_Node000004"><a xlink:href="../../db/df1/classdynamic__config_1_1Value.html" target="_top" xlink:title=" ">
<polygon fill="white" stroke="#bfbfbf" points="189.5,-282 19.5,-282 19.5,-252 189.5,-252 189.5,-282"/>
<text text-anchor="start" x="27.5" y="-270" font-family="Helvetica,sans-Serif" font-size="10.00">dynamic_config::Value</text>
<text text-anchor="middle" x="104.5" y="-259" font-family="Helvetica,sans-Serif" font-size="10.00">&lt; redis::RedisWaitConnected &gt;</text>
</a>
</g>
</g>
<!-- Node4&#45;&gt;Node1 -->
<g id="edge3_Node000001_Node000004" class="edge">
<title>Node4&#45;&gt;Node1</title>
<g id="a_edge3_Node000001_Node000004"><a xlink:title=" ">
<path fill="none" stroke="#9a32cd" stroke-dasharray="5,2" d="M199.78,-264.29C251.54,-260.76 316.34,-252.97 372,-236 396.06,-228.66 421.51,-214.19 436.95,-204.56"/>
<polygon fill="#9a32cd" stroke="#9a32cd" points="199.36,-260.81 189.61,-264.94 199.81,-267.79 199.36,-260.81"/>
</a>
</g>
<text text-anchor="middle" x="299.5" y="-264" font-family="Helvetica,sans-Serif" font-size="10.00" fill="grey"> redis_wait_connected</text>
</g>
<!-- Node5 -->
<g id="Node000005" class="node">
<title>Node5</title>
<g id="a_Node000005"><a xlink:href="../../db/df1/classdynamic__config_1_1Value.html" target="_top" xlink:title=" ">
<polygon fill="white" stroke="#bfbfbf" points="209,-234 0,-234 0,-204 209,-204 209,-234"/>
<text text-anchor="start" x="8" y="-222" font-family="Helvetica,sans-Serif" font-size="10.00">dynamic_config::Value</text>
<text text-anchor="middle" x="104.5" y="-211" font-family="Helvetica,sans-Serif" font-size="10.00">&lt; redis::CommandsBufferingSettings &gt;</text>
</a>
</g>
</g>
<!-- Node5&#45;&gt;Node1 -->
<g id="edge4_Node000001_Node000005" class="edge">
<title>Node5&#45;&gt;Node1</title>
<g id="a_edge4_Node000001_Node000005"><a xlink:title=" ">
<path fill="none" stroke="#9a32cd" stroke-dasharray="5,2" d="M219.42,-211.1C276.17,-207.16 342.56,-202.56 389.76,-199.28"/>
<polygon fill="#9a32cd" stroke="#9a32cd" points="219.05,-207.62 209.31,-211.8 219.53,-214.6 219.05,-207.62"/>
</a>
</g>
<text text-anchor="start" x="246.5" y="-224" font-family="Helvetica,sans-Serif" font-size="10.00" fill="grey"> commands_buffering</text>
<text text-anchor="middle" x="299.5" y="-213" font-family="Helvetica,sans-Serif" font-size="10.00" fill="grey">_settings</text>
</g>
<!-- Node6 -->
<g id="Node000006" class="node">
<title>Node6</title>
<g id="a_Node000006"><a xlink:href="../../db/df1/classdynamic__config_1_1Value.html" target="_top" xlink:title=" ">
<polygon fill="white" stroke="#bfbfbf" points="177,-186 32,-186 32,-156 177,-156 177,-186"/>
<text text-anchor="start" x="40" y="-174" font-family="Helvetica,sans-Serif" font-size="10.00">dynamic_config::Value</text>
<text text-anchor="middle" x="104.5" y="-163" font-family="Helvetica,sans-Serif" font-size="10.00">&lt; redis::MetricsSettings &gt;</text>
</a>
</g>
</g>
<!-- Node6&#45;&gt;Node1 -->
<g id="edge5_Node000001_Node000006" class="edge">
<title>Node6&#45;&gt;Node1</title>
<g id="a_edge5_Node000001_Node000006"><a xlink:title=" ">
<path fill="none" stroke="#9a32cd" stroke-dasharray="5,2" d="M187.46,-173.76C240.22,-175.93 310.24,-179.5 372,-185 377.82,-185.52 383.87,-186.14 389.92,-186.81"/>
<polygon fill="#9a32cd" stroke="#9a32cd" points="187.27,-170.25 177.14,-173.35 186.99,-177.25 187.27,-170.25"/>
</a>
</g>
<text text-anchor="middle" x="299.5" y="-188" font-family="Helvetica,sans-Serif" font-size="10.00" fill="grey"> metrics_settings</text>
</g>
<!-- Node7 -->
<g id="Node000007" class="node">
<title>Node7</title>
<g id="a_Node000007"><a xlink:href="../../db/df1/classdynamic__config_1_1Value.html" target="_top" xlink:title=" ">
<polygon fill="white" stroke="#bfbfbf" points="194.5,-138 14.5,-138 14.5,-108 194.5,-108 194.5,-138"/>
<text text-anchor="start" x="22.5" y="-126" font-family="Helvetica,sans-Serif" font-size="10.00">dynamic_config::Value</text>
<text text-anchor="middle" x="104.5" y="-115" font-family="Helvetica,sans-Serif" font-size="10.00">&lt; redis::PubsubMetricsSettings &gt;</text>
</a>
</g>
</g>
<!-- Node7&#45;&gt;Node1 -->
<g id="edge6_Node000001_Node000007" class="edge">
<title>Node7&#45;&gt;Node1</title>
<g id="a_edge6_Node000001_Node000007"><a xlink:title=" ">
<path fill="none" stroke="#9a32cd" stroke-dasharray="5,2" d="M204.68,-130.19C255.42,-135.51 317.76,-144.62 372,-160 394.05,-166.25 417.94,-177.42 433.72,-185.46"/>
<polygon fill="#9a32cd" stroke="#9a32cd" points="204.99,-126.7 194.69,-129.17 204.29,-133.67 204.99,-126.7"/>
</a>
</g>
<text text-anchor="middle" x="299.5" y="-163" font-family="Helvetica,sans-Serif" font-size="10.00" fill="grey"> pubsub_metrics_settings</text>
</g>
<!-- Node8 -->
<g id="Node000008" class="node">
<title>Node8</title>
<g id="a_Node000008"><a xlink:href="../../d3/d47/classdynamic__config_1_1ValueDict.html" target="_top" xlink:title=" ">
<polygon fill="white" stroke="#bfbfbf" points="187,-89.5 22,-89.5 22,-48.5 187,-48.5 187,-89.5"/>
<text text-anchor="start" x="30" y="-77.5" font-family="Helvetica,sans-Serif" font-size="10.00">dynamic_config::ValueDict</text>
<text text-anchor="start" x="30" y="-66.5" font-family="Helvetica,sans-Serif" font-size="10.00">&lt; redis::ReplicationMonitoring</text>
<text text-anchor="middle" x="104.5" y="-55.5" font-family="Helvetica,sans-Serif" font-size="10.00">Settings &gt;</text>
</a>
</g>
</g>
<!-- Node8&#45;&gt;Node1 -->
<g id="edge7_Node000001_Node000008" class="edge">
<title>Node8&#45;&gt;Node1</title>
<g id="a_edge7_Node000001_Node000008"><a xlink:title=" ">
<path fill="none" stroke="#9a32cd" stroke-dasharray="5,2" d="M197.42,-66.33C251.15,-68.42 318.66,-77.56 372,-106 407.65,-125.01 435.12,-166.7 446.18,-185.49"/>
<polygon fill="#9a32cd" stroke="#9a32cd" points="197.32,-62.83 187.21,-66.01 197.1,-69.82 197.32,-62.83"/>
</a>
</g>
<text text-anchor="start" x="242.5" y="-120" font-family="Helvetica,sans-Serif" font-size="10.00" fill="grey"> replication_monitoring</text>
<text text-anchor="middle" x="299.5" y="-109" font-family="Helvetica,sans-Serif" font-size="10.00" fill="grey">_settings</text>
</g>
<!-- Node9 -->
<g id="Node000009" class="node">
<title>Node9</title>
<g id="a_Node000009"><a xlink:href="../../db/df1/classdynamic__config_1_1Value.html" target="_top" xlink:title=" ">
<polygon fill="white" stroke="#bfbfbf" points="167.5,-30 41.5,-30 41.5,0 167.5,0 167.5,-30"/>
<text text-anchor="start" x="49.5" y="-18" font-family="Helvetica,sans-Serif" font-size="10.00">dynamic_config::Value</text>
<text text-anchor="middle" x="104.5" y="-7" font-family="Helvetica,sans-Serif" font-size="10.00">&lt; bool &gt;</text>
</a>
</g>
</g>
<!-- Node9&#45;&gt;Node1 -->
<g id="edge8_Node000001_Node000009" class="edge">
<title>Node9&#45;&gt;Node1</title>
<g id="a_edge8_Node000001_Node000009"><a xlink:title=" ">
<path fill="none" stroke="#9a32cd" stroke-dasharray="5,2" d="M177.79,-4.69C235.27,-0.38 315.19,-3.44 372,-42 424.01,-77.3 444.19,-157.64 449.76,-185.37"/>
<polygon fill="#9a32cd" stroke="#9a32cd" points="177.36,-1.22 167.69,-5.54 177.95,-8.19 177.36,-1.22"/>
</a>
</g>
<text text-anchor="start" x="231.5" y="-56" font-family="Helvetica,sans-Serif" font-size="10.00" fill="grey"> redis_cluster_autotopology</text>
<text text-anchor="middle" x="299.5" y="-45" font-family="Helvetica,sans-Serif" font-size="10.00" fill="grey">_enabled</text>
</g>
</g>
</svg>
