<?xml version="1.0" encoding="UTF-8" standalone="no"?>
<!DOCTYPE svg PUBLIC "-//W3C//DTD SVG 1.1//EN"
 "http://www.w3.org/Graphics/SVG/1.1/DTD/svg11.dtd">
<!-- Generated by graphviz version 2.43.0 (0)
 -->
<!-- Title: userver/storages/postgres/io/chrono.hpp Pages: 1 -->
<svg width="735pt" height="434pt"
 viewBox="0.00 0.00 735.30 434.00" xmlns="http://www.w3.org/2000/svg" xmlns:xlink="http://www.w3.org/1999/xlink">
<g id="graph0" class="graph" transform="scale(1 1) rotate(0) translate(4 430)">
<title>userver/storages/postgres/io/chrono.hpp</title>
<!-- Node1 -->
<g id="Node000001" class="node">
<title>Node1</title>
<g id="a_Node000001"><a xlink:title="Timestamp (std::chrono::*) I/O support.">
<polygon fill="#999999" stroke="#666666" points="143,-426 0,-426 0,-396 143,-396 143,-426"/>
<text text-anchor="start" x="8" y="-414" font-family="Helvetica,sans-Serif" font-size="10.00">userver/storages/postgres</text>
<text text-anchor="middle" x="71.5" y="-403" font-family="Helvetica,sans-Serif" font-size="10.00">/io/chrono.hpp</text>
</a>
</g>
</g>
<!-- Node2 -->
<g id="Node000002" class="node">
<title>Node2</title>
<g id="a_Node000002"><a xlink:href="../../dc/df7/base__postgres__cache_8hpp.html" target="_top" xlink:title="Caching component for PostgreSQL. See Caching Component for PostgreSQL.">
<polygon fill="white" stroke="#666666" points="139,-30 20,-30 20,0 139,0 139,-30"/>
<text text-anchor="start" x="28" y="-18" font-family="Helvetica,sans-Serif" font-size="10.00">userver/cache/base</text>
<text text-anchor="middle" x="79.5" y="-7" font-family="Helvetica,sans-Serif" font-size="10.00">_postgres_cache.hpp</text>
</a>
</g>
</g>
<!-- Node1&#45;&gt;Node2 -->
<g id="edge1_Node000001_Node000002" class="edge">
<title>Node1&#45;&gt;Node2</title>
<g id="a_edge1_Node000001_Node000002"><a xlink:title=" ">
<path fill="none" stroke="#63b8ff" d="M51.32,-388.12C30.96,-363.68 2.5,-322.01 2.5,-280 2.5,-280 2.5,-280 2.5,-146 2.5,-98.26 41.42,-52.69 63.92,-30.34"/>
<polygon fill="#63b8ff" stroke="#63b8ff" points="48.69,-390.43 57.87,-395.72 54,-385.86 48.69,-390.43"/>
</a>
</g>
</g>
<!-- Node3 -->
<g id="Node000003" class="node">
<title>Node3</title>
<g id="a_Node000003"><a xlink:href="../../de/d7f/supported__types_8hpp_source.html" target="_top" xlink:title=" ">
<polygon fill="white" stroke="#666666" points="262,-360 119,-360 119,-330 262,-330 262,-360"/>
<text text-anchor="start" x="127" y="-348" font-family="Helvetica,sans-Serif" font-size="10.00">userver/storages/postgres</text>
<text text-anchor="middle" x="190.5" y="-337" font-family="Helvetica,sans-Serif" font-size="10.00">/io/supported_types.hpp</text>
</a>
</g>
</g>
<!-- Node1&#45;&gt;Node3 -->
<g id="edge2_Node000001_Node000003" class="edge">
<title>Node1&#45;&gt;Node3</title>
<g id="a_edge2_Node000001_Node000003"><a xlink:title=" ">
<path fill="none" stroke="#63b8ff" d="M106.63,-391.11C125.15,-381.14 147.49,-369.13 164.45,-360.01"/>
<polygon fill="#63b8ff" stroke="#63b8ff" points="104.76,-388.14 97.62,-395.95 108.08,-394.3 104.76,-388.14"/>
</a>
</g>
</g>
<!-- Node4 -->
<g id="Node000004" class="node">
<title>Node4</title>
<g id="a_Node000004"><a xlink:href="../../d2/d3f/query__parameters_8hpp_source.html" target="_top" xlink:title=" ">
<polygon fill="white" stroke="#666666" points="271,-294 110,-294 110,-264 271,-264 271,-294"/>
<text text-anchor="start" x="118" y="-282" font-family="Helvetica,sans-Serif" font-size="10.00">userver/storages/postgres</text>
<text text-anchor="middle" x="190.5" y="-271" font-family="Helvetica,sans-Serif" font-size="10.00">/detail/query_parameters.hpp</text>
</a>
</g>
</g>
<!-- Node3&#45;&gt;Node4 -->
<g id="edge3_Node000003_Node000004" class="edge">
<title>Node3&#45;&gt;Node4</title>
<g id="a_edge3_Node000003_Node000004"><a xlink:title=" ">
<path fill="none" stroke="#63b8ff" d="M190.5,-319.54C190.5,-310.96 190.5,-301.61 190.5,-294.16"/>
<polygon fill="#63b8ff" stroke="#63b8ff" points="187,-319.8 190.5,-329.8 194,-319.8 187,-319.8"/>
</a>
</g>
</g>
<!-- Node11 -->
<g id="Node000011" class="node">
<title>Node11</title>
<g id="a_Node000011"><a xlink:href="../../de/d1d/result__set_8hpp.html" target="_top" xlink:title="Result accessors.">
<polygon fill="white" stroke="#666666" points="600,-294 457,-294 457,-264 600,-264 600,-294"/>
<text text-anchor="start" x="465" y="-282" font-family="Helvetica,sans-Serif" font-size="10.00">userver/storages/postgres</text>
<text text-anchor="middle" x="528.5" y="-271" font-family="Helvetica,sans-Serif" font-size="10.00">/result_set.hpp</text>
</a>
</g>
</g>
<!-- Node3&#45;&gt;Node11 -->
<g id="edge16_Node000003_Node000011" class="edge">
<title>Node3&#45;&gt;Node11</title>
<g id="a_edge16_Node000003_Node000011"><a xlink:title=" ">
<path fill="none" stroke="#63b8ff" d="M272.14,-328.54C328.54,-317.86 402.84,-303.79 456.92,-293.55"/>
<polygon fill="#63b8ff" stroke="#63b8ff" points="271.36,-325.13 262.18,-330.43 272.66,-332.01 271.36,-325.13"/>
</a>
</g>
</g>
<!-- Node5 -->
<g id="Node000005" class="node">
<title>Node5</title>
<g id="a_Node000005"><a xlink:href="../../d4/dd3/non__transaction_8hpp_source.html" target="_top" xlink:title=" ">
<polygon fill="white" stroke="#666666" points="215,-162 66,-162 66,-132 215,-132 215,-162"/>
<text text-anchor="start" x="74" y="-150" font-family="Helvetica,sans-Serif" font-size="10.00">userver/storages/postgres</text>
<text text-anchor="middle" x="140.5" y="-139" font-family="Helvetica,sans-Serif" font-size="10.00">/detail/non_transaction.hpp</text>
</a>
</g>
</g>
<!-- Node4&#45;&gt;Node5 -->
<g id="edge4_Node000004_Node000005" class="edge">
<title>Node4&#45;&gt;Node5</title>
<g id="a_edge4_Node000004_Node000005"><a xlink:title=" ">
<path fill="none" stroke="#63b8ff" d="M100.37,-260.11C84.28,-252.79 69.48,-242.5 59.5,-228 51.94,-217.02 53,-209.64 59.5,-198 68.6,-181.69 85.45,-170.04 101.43,-162.11"/>
<polygon fill="#63b8ff" stroke="#63b8ff" points="99.39,-263.49 109.97,-264.08 102.07,-257.02 99.39,-263.49"/>
</a>
</g>
</g>
<!-- Node8 -->
<g id="Node000008" class="node">
<title>Node8</title>
<g id="a_Node000008"><a xlink:href="../../db/d6e/parameter__store_8hpp.html" target="_top" xlink:title="Class for dynamic PostgreSQL parameter list construction.">
<polygon fill="white" stroke="#666666" points="212,-228 69,-228 69,-198 212,-198 212,-228"/>
<text text-anchor="start" x="77" y="-216" font-family="Helvetica,sans-Serif" font-size="10.00">userver/storages/postgres</text>
<text text-anchor="middle" x="140.5" y="-205" font-family="Helvetica,sans-Serif" font-size="10.00">/parameter_store.hpp</text>
</a>
</g>
</g>
<!-- Node4&#45;&gt;Node8 -->
<g id="edge8_Node000004_Node000008" class="edge">
<title>Node4&#45;&gt;Node8</title>
<g id="a_edge8_Node000004_Node000008"><a xlink:title=" ">
<path fill="none" stroke="#63b8ff" d="M173.16,-255.81C166,-246.64 157.9,-236.28 151.57,-228.16"/>
<polygon fill="#63b8ff" stroke="#63b8ff" points="170.49,-258.07 179.4,-263.8 176,-253.76 170.49,-258.07"/>
</a>
</g>
</g>
<!-- Node9 -->
<g id="Node000009" class="node">
<title>Node9</title>
<g id="a_Node000009"><a xlink:href="../../da/deb/postgresql_2include_2userver_2storages_2postgres_2transaction_8hpp.html" target="_top" xlink:title="Transactions.">
<polygon fill="white" stroke="#666666" points="376,-162 233,-162 233,-132 376,-132 376,-162"/>
<text text-anchor="start" x="241" y="-150" font-family="Helvetica,sans-Serif" font-size="10.00">userver/storages/postgres</text>
<text text-anchor="middle" x="304.5" y="-139" font-family="Helvetica,sans-Serif" font-size="10.00">/transaction.hpp</text>
</a>
</g>
</g>
<!-- Node4&#45;&gt;Node9 -->
<g id="edge15_Node000004_Node000009" class="edge">
<title>Node4&#45;&gt;Node9</title>
<g id="a_edge15_Node000004_Node000009"><a xlink:title=" ">
<path fill="none" stroke="#63b8ff" d="M209.69,-256.04C223.75,-239.96 243.29,-217.61 260.5,-198 271.02,-186.01 282.99,-172.41 291.78,-162.43"/>
<polygon fill="#63b8ff" stroke="#63b8ff" points="206.82,-253.99 202.88,-263.83 212.1,-258.6 206.82,-253.99"/>
</a>
</g>
</g>
<!-- Node10 -->
<g id="Node000010" class="node">
<title>Node10</title>
<g id="a_Node000010"><a xlink:href="../../d2/de3/portal_8hpp_source.html" target="_top" xlink:title=" ">
<polygon fill="white" stroke="#666666" points="412,-228 269,-228 269,-198 412,-198 412,-228"/>
<text text-anchor="start" x="277" y="-216" font-family="Helvetica,sans-Serif" font-size="10.00">userver/storages/postgres</text>
<text text-anchor="middle" x="340.5" y="-205" font-family="Helvetica,sans-Serif" font-size="10.00">/portal.hpp</text>
</a>
</g>
</g>
<!-- Node4&#45;&gt;Node10 -->
<g id="edge13_Node000004_Node000010" class="edge">
<title>Node4&#45;&gt;Node10</title>
<g id="a_edge13_Node000004_Node000010"><a xlink:title=" ">
<path fill="none" stroke="#63b8ff" d="M232.88,-259.92C256.58,-249.8 285.69,-237.38 307.66,-228.01"/>
<polygon fill="#63b8ff" stroke="#63b8ff" points="231.24,-256.81 223.42,-263.95 233.99,-263.25 231.24,-256.81"/>
</a>
</g>
</g>
<!-- Node6 -->
<g id="Node000006" class="node">
<title>Node6</title>
<g id="a_Node000006"><a xlink:href="../../de/dd3/postgresql_2include_2userver_2storages_2postgres_2cluster_8hpp.html" target="_top" xlink:title="Interface for executing queries on a cluster of PostgreSQL servers.">
<polygon fill="white" stroke="#666666" points="252,-96 109,-96 109,-66 252,-66 252,-96"/>
<text text-anchor="start" x="117" y="-84" font-family="Helvetica,sans-Serif" font-size="10.00">userver/storages/postgres</text>
<text text-anchor="middle" x="180.5" y="-73" font-family="Helvetica,sans-Serif" font-size="10.00">/cluster.hpp</text>
</a>
</g>
</g>
<!-- Node5&#45;&gt;Node6 -->
<g id="edge5_Node000005_Node000006" class="edge">
<title>Node5&#45;&gt;Node6</title>
<g id="a_edge5_Node000005_Node000006"><a xlink:title=" ">
<path fill="none" stroke="#63b8ff" d="M154.72,-123.24C160.37,-114.21 166.68,-104.11 171.65,-96.16"/>
<polygon fill="#63b8ff" stroke="#63b8ff" points="151.71,-121.46 149.38,-131.8 157.65,-125.17 151.71,-121.46"/>
</a>
</g>
</g>
<!-- Node6&#45;&gt;Node2 -->
<g id="edge6_Node000006_Node000002" class="edge">
<title>Node6&#45;&gt;Node2</title>
<g id="a_edge6_Node000006_Node000002"><a xlink:title=" ">
<path fill="none" stroke="#63b8ff" d="M149.41,-60.3C134.04,-50.56 115.83,-39.02 101.85,-30.16"/>
<polygon fill="#63b8ff" stroke="#63b8ff" points="147.76,-63.4 158.08,-65.8 151.51,-57.49 147.76,-63.4"/>
</a>
</g>
</g>
<!-- Node7 -->
<g id="Node000007" class="node">
<title>Node7</title>
<g id="a_Node000007"><a xlink:href="../../df/d02/postgres_8hpp.html" target="_top" xlink:title=" ">
<polygon fill="white" stroke="#666666" points="376,-30 233,-30 233,0 376,0 376,-30"/>
<text text-anchor="start" x="241" y="-18" font-family="Helvetica,sans-Serif" font-size="10.00">userver/storages/postgres</text>
<text text-anchor="middle" x="304.5" y="-7" font-family="Helvetica,sans-Serif" font-size="10.00">/postgres.hpp</text>
</a>
</g>
</g>
<!-- Node6&#45;&gt;Node7 -->
<g id="edge7_Node000006_Node000007" class="edge">
<title>Node6&#45;&gt;Node7</title>
<g id="a_edge7_Node000006_Node000007"><a xlink:title=" ">
<path fill="none" stroke="#63b8ff" d="M216.84,-61.24C236.2,-51.25 259.6,-39.18 277.35,-30.01"/>
<polygon fill="#63b8ff" stroke="#63b8ff" points="214.99,-58.26 207.71,-65.95 218.2,-64.48 214.99,-58.26"/>
</a>
</g>
</g>
<!-- Node8&#45;&gt;Node5 -->
<g id="edge9_Node000008_Node000005" class="edge">
<title>Node8&#45;&gt;Node5</title>
<g id="a_edge9_Node000008_Node000005"><a xlink:title=" ">
<path fill="none" stroke="#63b8ff" d="M140.5,-187.54C140.5,-178.96 140.5,-169.61 140.5,-162.16"/>
<polygon fill="#63b8ff" stroke="#63b8ff" points="137,-187.8 140.5,-197.8 144,-187.8 137,-187.8"/>
</a>
</g>
</g>
<!-- Node8&#45;&gt;Node9 -->
<g id="edge10_Node000008_Node000009" class="edge">
<title>Node8&#45;&gt;Node9</title>
<g id="a_edge10_Node000008_Node000009"><a xlink:title=" ">
<path fill="none" stroke="#63b8ff" d="M186.14,-194.19C212.19,-184.02 244.37,-171.47 268.59,-162.01"/>
<polygon fill="#63b8ff" stroke="#63b8ff" points="184.53,-191.06 176.49,-197.95 187.08,-197.58 184.53,-191.06"/>
</a>
</g>
</g>
<!-- Node9&#45;&gt;Node6 -->
<g id="edge11_Node000009_Node000006" class="edge">
<title>Node9&#45;&gt;Node6</title>
<g id="a_edge11_Node000009_Node000006"><a xlink:title=" ">
<path fill="none" stroke="#63b8ff" d="M268.16,-127.24C248.8,-117.25 225.4,-105.18 207.65,-96.01"/>
<polygon fill="#63b8ff" stroke="#63b8ff" points="266.8,-130.48 277.29,-131.95 270.01,-124.26 266.8,-130.48"/>
</a>
</g>
</g>
<!-- Node9&#45;&gt;Node7 -->
<g id="edge12_Node000009_Node000007" class="edge">
<title>Node9&#45;&gt;Node7</title>
<g id="a_edge12_Node000009_Node000007"><a xlink:title=" ">
<path fill="none" stroke="#63b8ff" d="M304.5,-121.68C304.5,-94.7 304.5,-52.11 304.5,-30.14"/>
<polygon fill="#63b8ff" stroke="#63b8ff" points="301,-121.84 304.5,-131.84 308,-121.84 301,-121.84"/>
</a>
</g>
</g>
<!-- Node10&#45;&gt;Node9 -->
<g id="edge14_Node000010_Node000009" class="edge">
<title>Node10&#45;&gt;Node9</title>
<g id="a_edge14_Node000010_Node000009"><a xlink:title=" ">
<path fill="none" stroke="#63b8ff" d="M327.54,-188.96C322.5,-180 316.89,-170.03 312.47,-162.16"/>
<polygon fill="#63b8ff" stroke="#63b8ff" points="324.56,-190.8 332.51,-197.8 330.66,-187.36 324.56,-190.8"/>
</a>
</g>
</g>
<!-- Node11&#45;&gt;Node5 -->
<g id="edge17_Node000011_Node000005" class="edge">
<title>Node11&#45;&gt;Node5</title>
<g id="a_edge17_Node000011_Node000005"><a xlink:title=" ">
<path fill="none" stroke="#63b8ff" d="M497.4,-258.42C483.9,-249.56 468.1,-238.69 454.5,-228 438.91,-215.75 439.29,-206.75 421.5,-198 416.82,-195.7 296.92,-174.83 215.27,-160.79"/>
<polygon fill="#63b8ff" stroke="#63b8ff" points="495.6,-261.42 505.89,-263.93 499.41,-255.55 495.6,-261.42"/>
</a>
</g>
</g>
<!-- Node11&#45;&gt;Node7 -->
<g id="edge22_Node000011_Node000007" class="edge">
<title>Node11&#45;&gt;Node7</title>
<g id="a_edge22_Node000011_Node000007"><a xlink:title=" ">
<path fill="none" stroke="#63b8ff" d="M610.22,-265.19C636.31,-257.82 663.76,-246.23 684.5,-228 718.18,-198.4 742.56,-167.75 715.5,-132 674.62,-77.98 482.66,-41.97 376.15,-25.79"/>
<polygon fill="#63b8ff" stroke="#63b8ff" points="609.08,-261.87 600.31,-267.81 610.87,-268.64 609.08,-261.87"/>
</a>
</g>
</g>
<!-- Node11&#45;&gt;Node9 -->
<g id="edge23_Node000011_Node000009" class="edge">
<title>Node11&#45;&gt;Node9</title>
<g id="a_edge23_Node000011_Node000009"><a xlink:title=" ">
<path fill="none" stroke="#63b8ff" d="M512.85,-255.65C499.28,-237.77 478.13,-213.25 454.5,-198 428.9,-181.48 397.3,-169.89 369.71,-162.05"/>
<polygon fill="#63b8ff" stroke="#63b8ff" points="510.13,-257.85 518.88,-263.82 515.76,-253.7 510.13,-257.85"/>
</a>
</g>
</g>
<!-- Node11&#45;&gt;Node10 -->
<g id="edge21_Node000011_Node000010" class="edge">
<title>Node11&#45;&gt;Node10</title>
<g id="a_edge21_Node000011_Node000010"><a xlink:title=" ">
<path fill="none" stroke="#63b8ff" d="M477.75,-260.72C447.63,-250.47 409.92,-237.63 381.66,-228.01"/>
<polygon fill="#63b8ff" stroke="#63b8ff" points="476.65,-264.05 487.24,-263.95 478.9,-257.42 476.65,-264.05"/>
</a>
</g>
</g>
<!-- Node12 -->
<g id="Node000012" class="node">
<title>Node12</title>
<g id="a_Node000012"><a xlink:href="../../d7/d52/typed__rows_8hpp_source.html" target="_top" xlink:title=" ">
<polygon fill="white" stroke="#666666" points="650,-228 507,-228 507,-198 650,-198 650,-228"/>
<text text-anchor="start" x="515" y="-216" font-family="Helvetica,sans-Serif" font-size="10.00">userver/storages/postgres</text>
<text text-anchor="middle" x="578.5" y="-205" font-family="Helvetica,sans-Serif" font-size="10.00">/detail/typed_rows.hpp</text>
</a>
</g>
</g>
<!-- Node11&#45;&gt;Node12 -->
<g id="edge18_Node000011_Node000012" class="edge">
<title>Node11&#45;&gt;Node12</title>
<g id="a_edge18_Node000011_Node000012"><a xlink:title=" ">
<path fill="none" stroke="#63b8ff" d="M545.84,-255.81C553,-246.64 561.1,-236.28 567.43,-228.16"/>
<polygon fill="#63b8ff" stroke="#63b8ff" points="543,-253.76 539.6,-263.8 548.51,-258.07 543,-253.76"/>
</a>
</g>
</g>
<!-- Node13 -->
<g id="Node000013" class="node">
<title>Node13</title>
<g id="a_Node000013"><a xlink:href="../../d1/dee/typed__result__set_8hpp.html" target="_top" xlink:title="Typed PostgreSQL results.">
<polygon fill="white" stroke="#666666" points="706,-162 563,-162 563,-132 706,-132 706,-162"/>
<text text-anchor="start" x="571" y="-150" font-family="Helvetica,sans-Serif" font-size="10.00">userver/storages/postgres</text>
<text text-anchor="middle" x="634.5" y="-139" font-family="Helvetica,sans-Serif" font-size="10.00">/typed_result_set.hpp</text>
</a>
</g>
</g>
<!-- Node11&#45;&gt;Node13 -->
<g id="edge24_Node000011_Node000013" class="edge">
<title>Node11&#45;&gt;Node13</title>
<g id="a_edge24_Node000011_Node000013"><a xlink:title=" ">
<path fill="none" stroke="#63b8ff" d="M609.56,-260.23C625.55,-252.91 640.46,-242.58 650.5,-228 664.53,-207.63 648.9,-179.03 639.45,-162.12"/>
<polygon fill="#63b8ff" stroke="#63b8ff" points="607.92,-257.12 600.04,-264.2 610.62,-263.58 607.92,-257.12"/>
</a>
</g>
</g>
<!-- Node12&#45;&gt;Node13 -->
<g id="edge19_Node000012_Node000013" class="edge">
<title>Node12&#45;&gt;Node13</title>
<g id="a_edge19_Node000012_Node000013"><a xlink:title=" ">
<path fill="none" stroke="#63b8ff" d="M597.67,-190.09C605.76,-180.85 614.94,-170.36 622.11,-162.16"/>
<polygon fill="#63b8ff" stroke="#63b8ff" points="594.88,-187.97 590.93,-197.8 600.15,-192.58 594.88,-187.97"/>
</a>
</g>
</g>
<!-- Node13&#45;&gt;Node11 -->
<g id="edge20_Node000013_Node000011" class="edge">
<title>Node13&#45;&gt;Node11</title>
<g id="a_edge20_Node000013_Node000011"><a xlink:title=" ">
<path fill="none" stroke="#63b8ff" d="M658.7,-170.36C670.89,-187.34 680.45,-210.65 668.5,-228 653.1,-250.35 626.27,-262.72 600.14,-269.56"/>
<polygon fill="#63b8ff" stroke="#63b8ff" points="661.13,-167.79 652.18,-162.12 655.64,-172.14 661.13,-167.79"/>
</a>
</g>
</g>
</g>
</svg>
