<?xml version="1.0" encoding="UTF-8" standalone="no"?>
<!DOCTYPE svg PUBLIC "-//W3C//DTD SVG 1.1//EN"
 "http://www.w3.org/Graphics/SVG/1.1/DTD/svg11.dtd">
<!-- Generated by graphviz version 2.43.0 (0)
 -->
<!-- Title: userver/server/handlers/auth/digest/auth_checker_settings_component.hpp Pages: 1 -->
<svg width="1271pt" height="324pt"
 viewBox="0.00 0.00 1271.48 324.00" xmlns="http://www.w3.org/2000/svg" xmlns:xlink="http://www.w3.org/1999/xlink">
<g id="graph0" class="graph" transform="scale(1 1) rotate(0) translate(4 320)">
<title>userver/server/handlers/auth/digest/auth_checker_settings_component.hpp</title>
<!-- Node1 -->
<g id="Node000001" class="node">
<title>Node1</title>
<g id="a_Node000001"><a xlink:title="server::handlers::auth::digest::AuthCheckerSettingsComponent">
<polygon fill="#999999" stroke="#666666" points="536.98,-316 394.98,-316 394.98,-275 536.98,-275 536.98,-316"/>
<text text-anchor="start" x="402.98" y="-304" font-family="Helvetica,sans-Serif" font-size="10.00">userver/server/handlers</text>
<text text-anchor="start" x="402.98" y="-293" font-family="Helvetica,sans-Serif" font-size="10.00">/auth/digest/auth_checker</text>
<text text-anchor="middle" x="465.98" y="-282" font-family="Helvetica,sans-Serif" font-size="10.00">_settings_component.hpp</text>
</a>
</g>
</g>
<!-- Node2 -->
<g id="Node000002" class="node">
<title>Node2</title>
<g id="a_Node000002"><a xlink:title=" ">
<polygon fill="#e0e0e0" stroke="#999999" points="440.98,-90.5 390.98,-90.5 390.98,-71.5 440.98,-71.5 440.98,-90.5"/>
<text text-anchor="middle" x="415.98" y="-78.5" font-family="Helvetica,sans-Serif" font-size="10.00">chrono</text>
</a>
</g>
</g>
<!-- Node1&#45;&gt;Node2 -->
<g id="edge1_Node000001_Node000002" class="edge">
<title>Node1&#45;&gt;Node2</title>
<g id="a_edge1_Node000001_Node000002"><a xlink:title=" ">
<path fill="none" stroke="#63b8ff" d="M472.27,-274.92C481.28,-243.26 494.54,-179.59 472.98,-132 466.2,-117.04 452.5,-104.79 440.23,-96.16"/>
<polygon fill="#63b8ff" stroke="#63b8ff" points="441.94,-93.1 431.66,-90.53 438.1,-98.95 441.94,-93.1"/>
</a>
</g>
</g>
<!-- Node3 -->
<g id="Node000003" class="node">
<title>Node3</title>
<g id="a_Node000003"><a xlink:title=" ">
<polygon fill="#e0e0e0" stroke="#999999" points="532.98,-90.5 476.98,-90.5 476.98,-71.5 532.98,-71.5 532.98,-90.5"/>
<text text-anchor="middle" x="504.98" y="-78.5" font-family="Helvetica,sans-Serif" font-size="10.00">optional</text>
</a>
</g>
</g>
<!-- Node1&#45;&gt;Node3 -->
<g id="edge2_Node000001_Node000003" class="edge">
<title>Node1&#45;&gt;Node3</title>
<g id="a_edge2_Node000001_Node000003"><a xlink:title=" ">
<path fill="none" stroke="#63b8ff" d="M484.78,-274.88C492.99,-264.95 501.71,-252.22 505.98,-239 521.42,-191.16 514.09,-130.76 508.79,-100.73"/>
<polygon fill="#63b8ff" stroke="#63b8ff" points="512.21,-99.97 506.91,-90.8 505.33,-101.28 512.21,-99.97"/>
</a>
</g>
</g>
<!-- Node4 -->
<g id="Node000004" class="node">
<title>Node4</title>
<g id="a_Node000004"><a xlink:title=" ">
<polygon fill="#e0e0e0" stroke="#999999" points="94.98,-90.5 50.98,-90.5 50.98,-71.5 94.98,-71.5 94.98,-90.5"/>
<text text-anchor="middle" x="72.98" y="-78.5" font-family="Helvetica,sans-Serif" font-size="10.00">string</text>
</a>
</g>
</g>
<!-- Node1&#45;&gt;Node4 -->
<g id="edge3_Node000001_Node000004" class="edge">
<title>Node1&#45;&gt;Node4</title>
<g id="a_edge3_Node000001_Node000004"><a xlink:title=" ">
<path fill="none" stroke="#63b8ff" d="M394.7,-287.88C330.67,-280.51 234.75,-265.92 154.98,-239 83.98,-215.04 44.04,-225.95 4.98,-162 -1.97,-150.62 -1.04,-143.9 4.98,-132 13.12,-115.91 29.14,-103.74 43.59,-95.43"/>
<polygon fill="#63b8ff" stroke="#63b8ff" points="45.59,-98.33 52.76,-90.53 42.29,-92.16 45.59,-98.33"/>
</a>
</g>
</g>
<!-- Node5 -->
<g id="Node000005" class="node">
<title>Node5</title>
<g id="a_Node000005"><a xlink:href="../../da/d11/loggable__component__base_8hpp.html" target="_top" xlink:title="Contains components::LoggableComponentBase declaration and forward declarations of components::Compon...">
<polygon fill="white" stroke="#666666" points="285.98,-239 163.98,-239 163.98,-198 285.98,-198 285.98,-239"/>
<text text-anchor="start" x="171.98" y="-227" font-family="Helvetica,sans-Serif" font-size="10.00">userver/components</text>
<text text-anchor="start" x="171.98" y="-216" font-family="Helvetica,sans-Serif" font-size="10.00">/loggable_component</text>
<text text-anchor="middle" x="224.98" y="-205" font-family="Helvetica,sans-Serif" font-size="10.00">_base.hpp</text>
</a>
</g>
</g>
<!-- Node1&#45;&gt;Node5 -->
<g id="edge4_Node000001_Node000005" class="edge">
<title>Node1&#45;&gt;Node5</title>
<g id="a_edge4_Node000001_Node000005"><a xlink:title=" ">
<path fill="none" stroke="#63b8ff" d="M403.29,-274.99C370.41,-264.76 330.01,-252.19 295.98,-241.6"/>
<polygon fill="#63b8ff" stroke="#63b8ff" points="296.7,-238.15 286.11,-238.52 294.62,-244.84 296.7,-238.15"/>
</a>
</g>
</g>
<!-- Node8 -->
<g id="Node000008" class="node">
<title>Node8</title>
<g id="a_Node000008"><a xlink:href="../../d2/d2e/source_8hpp.html" target="_top" xlink:title="A client for easy dynamic config fetching in components.">
<polygon fill="white" stroke="#666666" points="1034.48,-233.5 901.48,-233.5 901.48,-203.5 1034.48,-203.5 1034.48,-233.5"/>
<text text-anchor="start" x="909.48" y="-221.5" font-family="Helvetica,sans-Serif" font-size="10.00">userver/dynamic_config</text>
<text text-anchor="middle" x="967.98" y="-210.5" font-family="Helvetica,sans-Serif" font-size="10.00">/source.hpp</text>
</a>
</g>
</g>
<!-- Node1&#45;&gt;Node8 -->
<g id="edge8_Node000001_Node000008" class="edge">
<title>Node1&#45;&gt;Node8</title>
<g id="a_edge8_Node000001_Node000008"><a xlink:title=" ">
<path fill="none" stroke="#63b8ff" d="M537.1,-283.87C630.76,-269.88 794.79,-245.37 891.19,-230.97"/>
<polygon fill="#63b8ff" stroke="#63b8ff" points="891.79,-234.42 901.16,-229.48 890.76,-227.5 891.79,-234.42"/>
</a>
</g>
</g>
<!-- Node27 -->
<g id="Node000027" class="node">
<title>Node27</title>
<g id="a_Node000027"><a xlink:href="../../d3/d2b/digest_2auth__checker__settings_8hpp_source.html" target="_top" xlink:title=" ">
<polygon fill="white" stroke="#666666" points="463.98,-156.5 317.98,-156.5 317.98,-137.5 463.98,-137.5 463.98,-156.5"/>
<text text-anchor="middle" x="390.98" y="-144.5" font-family="Helvetica,sans-Serif" font-size="10.00">auth_checker_settings.hpp</text>
</a>
</g>
</g>
<!-- Node1&#45;&gt;Node27 -->
<g id="edge37_Node000001_Node000027" class="edge">
<title>Node1&#45;&gt;Node27</title>
<g id="a_edge37_Node000001_Node000027"><a xlink:title=" ">
<path fill="none" stroke="#63b8ff" d="M455.86,-274.74C441.19,-246.07 414.2,-193.36 400.1,-165.82"/>
<polygon fill="#63b8ff" stroke="#63b8ff" points="403.05,-163.91 395.38,-156.6 396.82,-167.1 403.05,-163.91"/>
</a>
</g>
</g>
<!-- Node6 -->
<g id="Node000006" class="node">
<title>Node6</title>
<g id="a_Node000006"><a xlink:href="../../d7/d47/component__fwd_8hpp.html" target="_top" xlink:title="Forward declarations for components::ComponentContext and components::ComponentConfig; function compo...">
<polygon fill="white" stroke="#666666" points="131.98,-162 13.98,-162 13.98,-132 131.98,-132 131.98,-162"/>
<text text-anchor="start" x="21.98" y="-150" font-family="Helvetica,sans-Serif" font-size="10.00">userver/components</text>
<text text-anchor="middle" x="72.98" y="-139" font-family="Helvetica,sans-Serif" font-size="10.00">/component_fwd.hpp</text>
</a>
</g>
</g>
<!-- Node5&#45;&gt;Node6 -->
<g id="edge5_Node000005_Node000006" class="edge">
<title>Node5&#45;&gt;Node6</title>
<g id="a_edge5_Node000005_Node000006"><a xlink:title=" ">
<path fill="none" stroke="#63b8ff" d="M182.23,-197.96C160.51,-188.02 134.27,-176.03 112.96,-166.28"/>
<polygon fill="#63b8ff" stroke="#63b8ff" points="114.39,-163.09 103.84,-162.11 111.48,-169.45 114.39,-163.09"/>
</a>
</g>
</g>
<!-- Node7 -->
<g id="Node000007" class="node">
<title>Node7</title>
<g id="a_Node000007"><a xlink:href="../../d2/d61/component__base_8hpp_source.html" target="_top" xlink:title=" ">
<polygon fill="white" stroke="#666666" points="299.48,-162 150.48,-162 150.48,-132 299.48,-132 299.48,-162"/>
<text text-anchor="start" x="158.48" y="-150" font-family="Helvetica,sans-Serif" font-size="10.00">userver/components</text>
<text text-anchor="middle" x="224.98" y="-139" font-family="Helvetica,sans-Serif" font-size="10.00">/impl/component_base.hpp</text>
</a>
</g>
</g>
<!-- Node5&#45;&gt;Node7 -->
<g id="edge7_Node000005_Node000007" class="edge">
<title>Node5&#45;&gt;Node7</title>
<g id="a_edge7_Node000005_Node000007"><a xlink:title=" ">
<path fill="none" stroke="#63b8ff" d="M224.98,-197.77C224.98,-189.85 224.98,-180.63 224.98,-172.3"/>
<polygon fill="#63b8ff" stroke="#63b8ff" points="228.48,-172.04 224.98,-162.04 221.48,-172.04 228.48,-172.04"/>
</a>
</g>
</g>
<!-- Node6&#45;&gt;Node4 -->
<g id="edge6_Node000006_Node000004" class="edge">
<title>Node6&#45;&gt;Node4</title>
<g id="a_edge6_Node000006_Node000004"><a xlink:title=" ">
<path fill="none" stroke="#63b8ff" d="M72.98,-131.8C72.98,-122.7 72.98,-110.79 72.98,-100.9"/>
<polygon fill="#63b8ff" stroke="#63b8ff" points="76.48,-100.84 72.98,-90.84 69.48,-100.84 76.48,-100.84"/>
</a>
</g>
</g>
<!-- Node9 -->
<g id="Node000009" class="node">
<title>Node9</title>
<g id="a_Node000009"><a xlink:title=" ">
<polygon fill="#e0e0e0" stroke="#999999" points="1167.48,-90.5 1094.48,-90.5 1094.48,-71.5 1167.48,-71.5 1167.48,-90.5"/>
<text text-anchor="middle" x="1130.98" y="-78.5" font-family="Helvetica,sans-Serif" font-size="10.00">string_view</text>
</a>
</g>
</g>
<!-- Node8&#45;&gt;Node9 -->
<g id="edge9_Node000008_Node000009" class="edge">
<title>Node8&#45;&gt;Node9</title>
<g id="a_edge9_Node000008_Node000009"><a xlink:title=" ">
<path fill="none" stroke="#63b8ff" d="M1009.01,-203.45C1031.75,-194.22 1059.47,-180.41 1079.98,-162 1099.65,-144.34 1114.7,-117.38 1123.19,-99.72"/>
<polygon fill="#63b8ff" stroke="#63b8ff" points="1126.42,-101.09 1127.42,-90.54 1120.06,-98.16 1126.42,-101.09"/>
</a>
</g>
</g>
<!-- Node10 -->
<g id="Node000010" class="node">
<title>Node10</title>
<g id="a_Node000010"><a xlink:title=" ">
<polygon fill="#e0e0e0" stroke="#999999" points="879.48,-156.5 838.48,-156.5 838.48,-137.5 879.48,-137.5 879.48,-156.5"/>
<text text-anchor="middle" x="858.98" y="-144.5" font-family="Helvetica,sans-Serif" font-size="10.00">tuple</text>
</a>
</g>
</g>
<!-- Node8&#45;&gt;Node10 -->
<g id="edge10_Node000008_Node000010" class="edge">
<title>Node8&#45;&gt;Node10</title>
<g id="a_edge10_Node000008_Node000010"><a xlink:title=" ">
<path fill="none" stroke="#63b8ff" d="M945.92,-203.44C927,-191.37 899.87,-174.07 880.96,-162.02"/>
<polygon fill="#63b8ff" stroke="#63b8ff" points="882.73,-158.99 872.42,-156.57 878.97,-164.9 882.73,-158.99"/>
</a>
</g>
</g>
<!-- Node11 -->
<g id="Node000011" class="node">
<title>Node11</title>
<g id="a_Node000011"><a xlink:title=" ">
<polygon fill="#e0e0e0" stroke="#999999" points="1051.48,-24.5 1006.48,-24.5 1006.48,-5.5 1051.48,-5.5 1051.48,-24.5"/>
<text text-anchor="middle" x="1028.98" y="-12.5" font-family="Helvetica,sans-Serif" font-size="10.00">utility</text>
</a>
</g>
</g>
<!-- Node8&#45;&gt;Node11 -->
<g id="edge11_Node000008_Node000011" class="edge">
<title>Node8&#45;&gt;Node11</title>
<g id="a_edge11_Node000008_Node000011"><a xlink:title=" ">
<path fill="none" stroke="#63b8ff" d="M1001.28,-203.38C1018.26,-194.26 1037.32,-180.59 1046.98,-162 1068.79,-120.02 1049.61,-62.34 1037.34,-33.67"/>
<polygon fill="#63b8ff" stroke="#63b8ff" points="1040.51,-32.19 1033.22,-24.5 1034.13,-35.06 1040.51,-32.19"/>
</a>
</g>
</g>
<!-- Node12 -->
<g id="Node000012" class="node">
<title>Node12</title>
<g id="a_Node000012"><a xlink:href="../../d4/de4/async__event__source_8hpp.html" target="_top" xlink:title="The read&#45;only side of an event channel. Events are delivered to listeners in a strict FIFO order,...">
<polygon fill="white" stroke="#666666" points="1037.98,-162 897.98,-162 897.98,-132 1037.98,-132 1037.98,-162"/>
<text text-anchor="start" x="905.98" y="-150" font-family="Helvetica,sans-Serif" font-size="10.00">userver/concurrent</text>
<text text-anchor="middle" x="967.98" y="-139" font-family="Helvetica,sans-Serif" font-size="10.00">/async_event_source.hpp</text>
</a>
</g>
</g>
<!-- Node8&#45;&gt;Node12 -->
<g id="edge12_Node000008_Node000012" class="edge">
<title>Node8&#45;&gt;Node12</title>
<g id="a_edge12_Node000008_Node000012"><a xlink:title=" ">
<path fill="none" stroke="#63b8ff" d="M967.98,-203.44C967.98,-194.49 967.98,-182.66 967.98,-172.23"/>
<polygon fill="#63b8ff" stroke="#63b8ff" points="971.48,-172.04 967.98,-162.04 964.48,-172.04 971.48,-172.04"/>
</a>
</g>
</g>
<!-- Node16 -->
<g id="Node000016" class="node">
<title>Node16</title>
<g id="a_Node000016"><a xlink:href="../../df/d22/snapshot_8hpp.html" target="_top" xlink:title="The storage for a snapshot of configs.">
<polygon fill="white" stroke="#666666" points="779.48,-162 646.48,-162 646.48,-132 779.48,-132 779.48,-162"/>
<text text-anchor="start" x="654.48" y="-150" font-family="Helvetica,sans-Serif" font-size="10.00">userver/dynamic_config</text>
<text text-anchor="middle" x="712.98" y="-139" font-family="Helvetica,sans-Serif" font-size="10.00">/snapshot.hpp</text>
</a>
</g>
</g>
<!-- Node8&#45;&gt;Node16 -->
<g id="edge18_Node000008_Node000016" class="edge">
<title>Node8&#45;&gt;Node16</title>
<g id="a_edge18_Node000008_Node000016"><a xlink:title=" ">
<path fill="none" stroke="#63b8ff" d="M916.38,-203.44C875.33,-192.25 817.79,-176.57 774.38,-164.73"/>
<polygon fill="#63b8ff" stroke="#63b8ff" points="775.07,-161.3 764.51,-162.04 773.23,-168.05 775.07,-161.3"/>
</a>
</g>
</g>
<!-- Node26 -->
<g id="Node000026" class="node">
<title>Node26</title>
<g id="a_Node000026"><a xlink:href="../../d2/d54/assert_8hpp.html" target="_top" xlink:title="Assertion macros UASSERT, UASSERT_MSG, UINVARIANT.">
<polygon fill="white" stroke="#666666" points="1263.48,-156.5 1132.48,-156.5 1132.48,-137.5 1263.48,-137.5 1263.48,-156.5"/>
<text text-anchor="middle" x="1197.98" y="-144.5" font-family="Helvetica,sans-Serif" font-size="10.00">userver/utils/assert.hpp</text>
</a>
</g>
</g>
<!-- Node8&#45;&gt;Node26 -->
<g id="edge35_Node000008_Node000026" class="edge">
<title>Node8&#45;&gt;Node26</title>
<g id="a_edge35_Node000008_Node000026"><a xlink:title=" ">
<path fill="none" stroke="#63b8ff" d="M1014.52,-203.44C1057.36,-190.49 1120.12,-171.53 1160,-159.47"/>
<polygon fill="#63b8ff" stroke="#63b8ff" points="1161.07,-162.81 1169.63,-156.57 1159.04,-156.11 1161.07,-162.81"/>
</a>
</g>
</g>
<!-- Node12&#45;&gt;Node9 -->
<g id="edge15_Node000012_Node000009" class="edge">
<title>Node12&#45;&gt;Node9</title>
<g id="a_edge15_Node000012_Node000009"><a xlink:title=" ">
<path fill="none" stroke="#63b8ff" d="M1003.75,-131.95C1032.46,-120.68 1072.37,-105.01 1099.79,-94.25"/>
<polygon fill="#63b8ff" stroke="#63b8ff" points="1101.26,-97.43 1109.29,-90.52 1098.7,-90.91 1101.26,-97.43"/>
</a>
</g>
</g>
<!-- Node12&#45;&gt;Node11 -->
<g id="edge17_Node000012_Node000011" class="edge">
<title>Node12&#45;&gt;Node11</title>
<g id="a_edge17_Node000012_Node000011"><a xlink:title=" ">
<path fill="none" stroke="#63b8ff" d="M974.62,-131.84C985.8,-108.02 1008.34,-59.99 1020.59,-33.88"/>
<polygon fill="#63b8ff" stroke="#63b8ff" points="1023.8,-35.29 1024.87,-24.75 1017.46,-32.31 1023.8,-35.29"/>
</a>
</g>
</g>
<!-- Node13 -->
<g id="Node000013" class="node">
<title>Node13</title>
<g id="a_Node000013"><a xlink:title=" ">
<polygon fill="#e0e0e0" stroke="#999999" points="933.48,-24.5 880.48,-24.5 880.48,-5.5 933.48,-5.5 933.48,-24.5"/>
<text text-anchor="middle" x="906.98" y="-12.5" font-family="Helvetica,sans-Serif" font-size="10.00">cstddef</text>
</a>
</g>
</g>
<!-- Node12&#45;&gt;Node13 -->
<g id="edge13_Node000012_Node000013" class="edge">
<title>Node12&#45;&gt;Node13</title>
<g id="a_edge13_Node000012_Node000013"><a xlink:title=" ">
<path fill="none" stroke="#63b8ff" d="M972.35,-131.88C976.67,-115.21 981.28,-87.11 970.98,-66 963.27,-50.2 947.89,-37.93 934.14,-29.5"/>
<polygon fill="#63b8ff" stroke="#63b8ff" points="935.85,-26.45 925.43,-24.51 932.37,-32.52 935.85,-26.45"/>
</a>
</g>
</g>
<!-- Node14 -->
<g id="Node000014" class="node">
<title>Node14</title>
<g id="a_Node000014"><a xlink:title=" ">
<polygon fill="#e0e0e0" stroke="#999999" points="961.48,-90.5 896.48,-90.5 896.48,-71.5 961.48,-71.5 961.48,-90.5"/>
<text text-anchor="middle" x="928.98" y="-78.5" font-family="Helvetica,sans-Serif" font-size="10.00">functional</text>
</a>
</g>
</g>
<!-- Node12&#45;&gt;Node14 -->
<g id="edge14_Node000012_Node000014" class="edge">
<title>Node12&#45;&gt;Node14</title>
<g id="a_edge14_Node000012_Node000014"><a xlink:title=" ">
<path fill="none" stroke="#63b8ff" d="M959.32,-131.8C953.54,-122.31 945.89,-109.76 939.72,-99.63"/>
<polygon fill="#63b8ff" stroke="#63b8ff" points="942.56,-97.56 934.37,-90.84 936.58,-101.21 942.56,-97.56"/>
</a>
</g>
</g>
<!-- Node15 -->
<g id="Node000015" class="node">
<title>Node15</title>
<g id="a_Node000015"><a xlink:title=" ">
<polygon fill="#e0e0e0" stroke="#999999" points="775.48,-24.5 718.48,-24.5 718.48,-5.5 775.48,-5.5 775.48,-24.5"/>
<text text-anchor="middle" x="746.98" y="-12.5" font-family="Helvetica,sans-Serif" font-size="10.00">typeinfo</text>
</a>
</g>
</g>
<!-- Node12&#45;&gt;Node15 -->
<g id="edge16_Node000012_Node000015" class="edge">
<title>Node12&#45;&gt;Node15</title>
<g id="a_edge16_Node000012_Node000015"><a xlink:title=" ">
<path fill="none" stroke="#63b8ff" d="M899.01,-131.98C846.09,-120.64 780.5,-105.12 770.98,-96 754.33,-80.05 749.1,-53.05 747.53,-34.88"/>
<polygon fill="#63b8ff" stroke="#63b8ff" points="751.03,-34.67 746.96,-24.89 744.04,-35.07 751.03,-34.67"/>
</a>
</g>
</g>
<!-- Node16&#45;&gt;Node3 -->
<g id="edge19_Node000016_Node000003" class="edge">
<title>Node16&#45;&gt;Node3</title>
<g id="a_edge19_Node000016_Node000003"><a xlink:title=" ">
<path fill="none" stroke="#63b8ff" d="M661.75,-131.9C627.86,-122.33 582.55,-109.09 542.98,-96 541.08,-95.37 539.13,-94.71 537.16,-94.03"/>
<polygon fill="#63b8ff" stroke="#63b8ff" points="537.99,-90.61 527.4,-90.54 535.64,-97.2 537.99,-90.61"/>
</a>
</g>
</g>
<!-- Node17 -->
<g id="Node000017" class="node">
<title>Node17</title>
<g id="a_Node000017"><a xlink:title=" ">
<polygon fill="#e0e0e0" stroke="#999999" points="862.48,-24.5 793.48,-24.5 793.48,-5.5 862.48,-5.5 862.48,-24.5"/>
<text text-anchor="middle" x="827.98" y="-12.5" font-family="Helvetica,sans-Serif" font-size="10.00">type_traits</text>
</a>
</g>
</g>
<!-- Node16&#45;&gt;Node17 -->
<g id="edge20_Node000016_Node000017" class="edge">
<title>Node16&#45;&gt;Node17</title>
<g id="a_edge20_Node000016_Node000017"><a xlink:title=" ">
<path fill="none" stroke="#63b8ff" d="M721.76,-131.99C732.43,-115.43 751.45,-87.43 770.98,-66 782.57,-53.28 797.18,-40.52 808.71,-31.07"/>
<polygon fill="#63b8ff" stroke="#63b8ff" points="811.22,-33.54 816.82,-24.55 806.83,-28.09 811.22,-33.54"/>
</a>
</g>
</g>
<!-- Node18 -->
<g id="Node000018" class="node">
<title>Node18</title>
<g id="a_Node000018"><a xlink:href="../../d8/d20/impl_2snapshot_8hpp_source.html" target="_top" xlink:title=" ">
<polygon fill="white" stroke="#666666" points="684.48,-96 551.48,-96 551.48,-66 684.48,-66 684.48,-96"/>
<text text-anchor="start" x="559.48" y="-84" font-family="Helvetica,sans-Serif" font-size="10.00">userver/dynamic_config</text>
<text text-anchor="middle" x="617.98" y="-73" font-family="Helvetica,sans-Serif" font-size="10.00">/impl/snapshot.hpp</text>
</a>
</g>
</g>
<!-- Node16&#45;&gt;Node18 -->
<g id="edge21_Node000016_Node000018" class="edge">
<title>Node16&#45;&gt;Node18</title>
<g id="a_edge21_Node000016_Node000018"><a xlink:title=" ">
<path fill="none" stroke="#63b8ff" d="M691.9,-131.8C678.86,-123.01 661.93,-111.61 647.56,-101.93"/>
<polygon fill="#63b8ff" stroke="#63b8ff" points="649.25,-98.85 639,-96.16 645.34,-104.65 649.25,-98.85"/>
</a>
</g>
</g>
<!-- Node24 -->
<g id="Node000024" class="node">
<title>Node24</title>
<g id="a_Node000024"><a xlink:href="../../d5/d02/fast__pimpl_8hpp.html" target="_top" xlink:title="Implements pimpl idiom without dynamic memory allocation.">
<polygon fill="white" stroke="#666666" points="878.48,-96 779.48,-96 779.48,-66 878.48,-66 878.48,-96"/>
<text text-anchor="start" x="787.48" y="-84" font-family="Helvetica,sans-Serif" font-size="10.00">userver/utils/fast</text>
<text text-anchor="middle" x="828.98" y="-73" font-family="Helvetica,sans-Serif" font-size="10.00">_pimpl.hpp</text>
</a>
</g>
</g>
<!-- Node16&#45;&gt;Node24 -->
<g id="edge30_Node000016_Node000024" class="edge">
<title>Node16&#45;&gt;Node24</title>
<g id="a_edge30_Node000016_Node000024"><a xlink:title=" ">
<path fill="none" stroke="#63b8ff" d="M738.44,-131.95C754.91,-122.87 776.55,-110.93 794.55,-101"/>
<polygon fill="#63b8ff" stroke="#63b8ff" points="796.52,-103.91 803.58,-96.01 793.14,-97.78 796.52,-103.91"/>
</a>
</g>
</g>
<!-- Node18&#45;&gt;Node13 -->
<g id="edge23_Node000018_Node000013" class="edge">
<title>Node18&#45;&gt;Node13</title>
<g id="a_edge23_Node000018_Node000013"><a xlink:title=" ">
<path fill="none" stroke="#63b8ff" d="M684.58,-70.37C736.3,-62.06 809.49,-48.47 871.98,-30 873.91,-29.43 875.88,-28.79 877.86,-28.12"/>
<polygon fill="#63b8ff" stroke="#63b8ff" points="879.43,-31.27 887.58,-24.5 876.99,-24.7 879.43,-31.27"/>
</a>
</g>
</g>
<!-- Node18&#45;&gt;Node15 -->
<g id="edge27_Node000018_Node000015" class="edge">
<title>Node18&#45;&gt;Node15</title>
<g id="a_edge27_Node000018_Node000015"><a xlink:title=" ">
<path fill="none" stroke="#63b8ff" d="M646.29,-65.95C668.41,-54.98 698.94,-39.83 720.56,-29.11"/>
<polygon fill="#63b8ff" stroke="#63b8ff" points="722.41,-32.1 729.81,-24.52 719.3,-25.83 722.41,-32.1"/>
</a>
</g>
</g>
<!-- Node18&#45;&gt;Node17 -->
<g id="edge25_Node000018_Node000017" class="edge">
<title>Node18&#45;&gt;Node17</title>
<g id="a_edge25_Node000018_Node000017"><a xlink:title=" ">
<path fill="none" stroke="#63b8ff" d="M665.94,-65.97C699.37,-56.11 744.97,-42.5 784.98,-30 787.41,-29.24 789.91,-28.45 792.42,-27.65"/>
<polygon fill="#63b8ff" stroke="#63b8ff" points="793.64,-30.93 802.09,-24.54 791.5,-24.27 793.64,-30.93"/>
</a>
</g>
</g>
<!-- Node19 -->
<g id="Node000019" class="node">
<title>Node19</title>
<g id="a_Node000019"><a xlink:title=" ">
<polygon fill="#e0e0e0" stroke="#999999" points="383.48,-24.5 348.48,-24.5 348.48,-5.5 383.48,-5.5 383.48,-24.5"/>
<text text-anchor="middle" x="365.98" y="-12.5" font-family="Helvetica,sans-Serif" font-size="10.00">any</text>
</a>
</g>
</g>
<!-- Node18&#45;&gt;Node19 -->
<g id="edge22_Node000018_Node000019" class="edge">
<title>Node18&#45;&gt;Node19</title>
<g id="a_edge22_Node000018_Node000019"><a xlink:title=" ">
<path fill="none" stroke="#63b8ff" d="M551.45,-67.2C496.01,-56.17 421.66,-40.42 392.98,-30 391.96,-29.63 390.93,-29.23 389.91,-28.81"/>
<polygon fill="#63b8ff" stroke="#63b8ff" points="391.35,-25.62 380.8,-24.56 388.39,-31.96 391.35,-25.62"/>
</a>
</g>
</g>
<!-- Node20 -->
<g id="Node000020" class="node">
<title>Node20</title>
<g id="a_Node000020"><a xlink:title=" ">
<polygon fill="#e0e0e0" stroke="#999999" points="466.48,-24.5 401.48,-24.5 401.48,-5.5 466.48,-5.5 466.48,-24.5"/>
<text text-anchor="middle" x="433.98" y="-12.5" font-family="Helvetica,sans-Serif" font-size="10.00">exception</text>
</a>
</g>
</g>
<!-- Node18&#45;&gt;Node20 -->
<g id="edge24_Node000018_Node000020" class="edge">
<title>Node18&#45;&gt;Node20</title>
<g id="a_edge24_Node000018_Node000020"><a xlink:title=" ">
<path fill="none" stroke="#63b8ff" d="M577.6,-65.95C544.76,-54.53 498.95,-38.6 467.97,-27.82"/>
<polygon fill="#63b8ff" stroke="#63b8ff" points="469.06,-24.5 458.47,-24.52 466.76,-31.11 469.06,-24.5"/>
</a>
</g>
</g>
<!-- Node21 -->
<g id="Node000021" class="node">
<title>Node21</title>
<g id="a_Node000021"><a xlink:title=" ">
<polygon fill="#e0e0e0" stroke="#999999" points="549.48,-24.5 484.48,-24.5 484.48,-5.5 549.48,-5.5 549.48,-24.5"/>
<text text-anchor="middle" x="516.98" y="-12.5" font-family="Helvetica,sans-Serif" font-size="10.00">typeindex</text>
</a>
</g>
</g>
<!-- Node18&#45;&gt;Node21 -->
<g id="edge26_Node000018_Node000021" class="edge">
<title>Node18&#45;&gt;Node21</title>
<g id="a_edge26_Node000018_Node000021"><a xlink:title=" ">
<path fill="none" stroke="#63b8ff" d="M595.56,-65.8C578.79,-55.17 555.97,-40.7 539.23,-30.1"/>
<polygon fill="#63b8ff" stroke="#63b8ff" points="540.96,-27.05 530.64,-24.66 537.22,-32.97 540.96,-27.05"/>
</a>
</g>
</g>
<!-- Node22 -->
<g id="Node000022" class="node">
<title>Node22</title>
<g id="a_Node000022"><a xlink:title=" ">
<polygon fill="#e0e0e0" stroke="#999999" points="330.48,-24.5 283.48,-24.5 283.48,-5.5 330.48,-5.5 330.48,-24.5"/>
<text text-anchor="middle" x="306.98" y="-12.5" font-family="Helvetica,sans-Serif" font-size="10.00">vector</text>
</a>
</g>
</g>
<!-- Node18&#45;&gt;Node22 -->
<g id="edge28_Node000018_Node000022" class="edge">
<title>Node18&#45;&gt;Node22</title>
<g id="a_edge28_Node000018_Node000022"><a xlink:title=" ">
<path fill="none" stroke="#63b8ff" d="M551.26,-67.69C548.12,-67.11 545.02,-66.55 541.98,-66 452.25,-49.74 427.4,-55.97 339.98,-30 338.3,-29.5 336.59,-28.94 334.87,-28.34"/>
<polygon fill="#63b8ff" stroke="#63b8ff" points="335.8,-24.95 325.21,-24.6 333.27,-31.47 335.8,-24.95"/>
</a>
</g>
</g>
<!-- Node23 -->
<g id="Node000023" class="node">
<title>Node23</title>
<g id="a_Node000023"><a xlink:href="../../df/d7e/core_2include_2userver_2dynamic__config_2fwd_8hpp.html" target="_top" xlink:title="Forward declarations of dynamic_config classes.">
<polygon fill="white" stroke="#666666" points="700.48,-30 567.48,-30 567.48,0 700.48,0 700.48,-30"/>
<text text-anchor="start" x="575.48" y="-18" font-family="Helvetica,sans-Serif" font-size="10.00">userver/dynamic_config</text>
<text text-anchor="middle" x="633.98" y="-7" font-family="Helvetica,sans-Serif" font-size="10.00">/fwd.hpp</text>
</a>
</g>
</g>
<!-- Node18&#45;&gt;Node23 -->
<g id="edge29_Node000018_Node000023" class="edge">
<title>Node18&#45;&gt;Node23</title>
<g id="a_edge29_Node000018_Node000023"><a xlink:title=" ">
<path fill="none" stroke="#63b8ff" d="M621.53,-65.8C623.42,-58.26 625.78,-48.78 627.95,-40.13"/>
<polygon fill="#63b8ff" stroke="#63b8ff" points="631.41,-40.71 630.44,-30.16 624.62,-39.02 631.41,-40.71"/>
</a>
</g>
</g>
<!-- Node24&#45;&gt;Node11 -->
<g id="edge34_Node000024_Node000011" class="edge">
<title>Node24&#45;&gt;Node11</title>
<g id="a_edge34_Node000024_Node000011"><a xlink:title=" ">
<path fill="none" stroke="#63b8ff" d="M878.74,-67.2C912.72,-58 958.54,-44.66 997.98,-30 999.19,-29.55 1000.43,-29.07 1001.67,-28.58"/>
<polygon fill="#63b8ff" stroke="#63b8ff" points="1003.28,-31.69 1011.12,-24.57 1000.55,-25.25 1003.28,-31.69"/>
</a>
</g>
</g>
<!-- Node24&#45;&gt;Node13 -->
<g id="edge31_Node000024_Node000013" class="edge">
<title>Node24&#45;&gt;Node13</title>
<g id="a_edge31_Node000024_Node000013"><a xlink:title=" ">
<path fill="none" stroke="#63b8ff" d="M846.29,-65.8C858.69,-55.62 875.38,-41.93 888.11,-31.48"/>
<polygon fill="#63b8ff" stroke="#63b8ff" points="890.69,-33.89 896.2,-24.84 886.25,-28.48 890.69,-33.89"/>
</a>
</g>
</g>
<!-- Node24&#45;&gt;Node17 -->
<g id="edge33_Node000024_Node000017" class="edge">
<title>Node24&#45;&gt;Node17</title>
<g id="a_edge33_Node000024_Node000017"><a xlink:title=" ">
<path fill="none" stroke="#63b8ff" d="M828.76,-65.8C828.62,-56.7 828.43,-44.79 828.27,-34.9"/>
<polygon fill="#63b8ff" stroke="#63b8ff" points="831.77,-34.79 828.12,-24.84 824.77,-34.9 831.77,-34.79"/>
</a>
</g>
</g>
<!-- Node25 -->
<g id="Node000025" class="node">
<title>Node25</title>
<g id="a_Node000025"><a xlink:title=" ">
<polygon fill="#e0e0e0" stroke="#999999" points="988.48,-24.5 951.48,-24.5 951.48,-5.5 988.48,-5.5 988.48,-24.5"/>
<text text-anchor="middle" x="969.98" y="-12.5" font-family="Helvetica,sans-Serif" font-size="10.00">new</text>
</a>
</g>
</g>
<!-- Node24&#45;&gt;Node25 -->
<g id="edge32_Node000024_Node000025" class="edge">
<title>Node24&#45;&gt;Node25</title>
<g id="a_edge32_Node000024_Node000025"><a xlink:title=" ">
<path fill="none" stroke="#63b8ff" d="M862.66,-65.91C885.5,-56.19 916.27,-42.77 942.98,-30 943.53,-29.74 944.09,-29.47 944.65,-29.2"/>
<polygon fill="#63b8ff" stroke="#63b8ff" points="946.42,-32.22 953.79,-24.61 943.28,-25.97 946.42,-32.22"/>
</a>
</g>
</g>
<!-- Node26&#45;&gt;Node9 -->
<g id="edge36_Node000026_Node000009" class="edge">
<title>Node26&#45;&gt;Node9</title>
<g id="a_edge36_Node000026_Node000009"><a xlink:title=" ">
<path fill="none" stroke="#63b8ff" d="M1188.94,-137.37C1178.41,-127.31 1160.79,-110.48 1147.74,-98.01"/>
<polygon fill="#63b8ff" stroke="#63b8ff" points="1149.95,-95.28 1140.3,-90.91 1145.12,-100.34 1149.95,-95.28"/>
</a>
</g>
</g>
<!-- Node27&#45;&gt;Node2 -->
<g id="edge38_Node000027_Node000002" class="edge">
<title>Node27&#45;&gt;Node2</title>
<g id="a_edge38_Node000027_Node000002"><a xlink:title=" ">
<path fill="none" stroke="#63b8ff" d="M394.35,-137.37C398.02,-127.97 404,-112.67 408.74,-100.53"/>
<polygon fill="#63b8ff" stroke="#63b8ff" points="412.12,-101.49 412.5,-90.91 405.6,-98.95 412.12,-101.49"/>
</a>
</g>
</g>
<!-- Node27&#45;&gt;Node3 -->
<g id="edge39_Node000027_Node000003" class="edge">
<title>Node27&#45;&gt;Node3</title>
<g id="a_edge39_Node000027_Node000003"><a xlink:title=" ">
<path fill="none" stroke="#63b8ff" d="M406.35,-137.37C425.39,-126.68 458.05,-108.35 480.54,-95.72"/>
<polygon fill="#63b8ff" stroke="#63b8ff" points="482.48,-98.65 489.48,-90.7 479.05,-92.54 482.48,-98.65"/>
</a>
</g>
</g>
<!-- Node27&#45;&gt;Node4 -->
<g id="edge40_Node000027_Node000004" class="edge">
<title>Node27&#45;&gt;Node4</title>
<g id="a_edge40_Node000027_Node000004"><a xlink:title=" ">
<path fill="none" stroke="#63b8ff" d="M348.42,-137.44C283.9,-124.45 162.73,-100.06 105.06,-88.46"/>
<polygon fill="#63b8ff" stroke="#63b8ff" points="105.55,-84.99 95.06,-86.44 104.17,-91.85 105.55,-84.99"/>
</a>
</g>
</g>
<!-- Node27&#45;&gt;Node22 -->
<g id="edge41_Node000027_Node000022" class="edge">
<title>Node27&#45;&gt;Node22</title>
<g id="a_edge41_Node000027_Node000022"><a xlink:title=" ">
<path fill="none" stroke="#63b8ff" d="M385.47,-137.47C371.83,-116.36 336.28,-61.34 318.07,-33.17"/>
<polygon fill="#63b8ff" stroke="#63b8ff" points="320.99,-31.23 312.62,-24.73 315.11,-35.03 320.99,-31.23"/>
</a>
</g>
</g>
</g>
</svg>
