<?xml version="1.0" encoding="UTF-8" standalone="no"?>
<!DOCTYPE svg PUBLIC "-//W3C//DTD SVG 1.1//EN"
 "http://www.w3.org/Graphics/SVG/1.1/DTD/svg11.dtd">
<!-- Generated by graphviz version 2.43.0 (0)
 -->
<!-- Title: userver/utils/time_of_day.hpp Pages: 1 -->
<svg width="747pt" height="500pt"
 viewBox="0.00 0.00 746.75 500.00" xmlns="http://www.w3.org/2000/svg" xmlns:xlink="http://www.w3.org/1999/xlink">
<g id="graph0" class="graph" transform="scale(1 1) rotate(0) translate(4 496)">
<title>userver/utils/time_of_day.hpp</title>
<!-- Node1 -->
<g id="Node000001" class="node">
<title>Node1</title>
<g id="a_Node000001"><a xlink:title="A simple implementation of a &quot;time since midnight&quot; datatype.">
<polygon fill="#999999" stroke="#666666" points="264,-492 161,-492 161,-462 264,-462 264,-492"/>
<text text-anchor="start" x="169" y="-480" font-family="Helvetica,sans-Serif" font-size="10.00">userver/utils/time</text>
<text text-anchor="middle" x="212.5" y="-469" font-family="Helvetica,sans-Serif" font-size="10.00">_of_day.hpp</text>
</a>
</g>
</g>
<!-- Node2 -->
<g id="Node000002" class="node">
<title>Node2</title>
<g id="a_Node000002"><a xlink:href="../../db/dfa/universal_2include_2userver_2formats_2parse_2time__of__day_8hpp.html" target="_top" xlink:title="utils::datetime::TimeOfDay parser for any format">
<polygon fill="white" stroke="#666666" points="125,-426 0,-426 0,-396 125,-396 125,-426"/>
<text text-anchor="start" x="8" y="-414" font-family="Helvetica,sans-Serif" font-size="10.00">userver/formats/parse</text>
<text text-anchor="middle" x="62.5" y="-403" font-family="Helvetica,sans-Serif" font-size="10.00">/time_of_day.hpp</text>
</a>
</g>
</g>
<!-- Node1&#45;&gt;Node2 -->
<g id="edge1_Node000001_Node000002" class="edge">
<title>Node1&#45;&gt;Node2</title>
<g id="a_edge1_Node000001_Node000002"><a xlink:title=" ">
<path fill="none" stroke="#63b8ff" d="M170.12,-457.92C146.42,-447.8 117.31,-435.38 95.34,-426.01"/>
<polygon fill="#63b8ff" stroke="#63b8ff" points="169.01,-461.25 179.58,-461.95 171.76,-454.81 169.01,-461.25"/>
</a>
</g>
</g>
<!-- Node3 -->
<g id="Node000003" class="node">
<title>Node3</title>
<g id="a_Node000003"><a xlink:href="../../df/d95/universal_2include_2userver_2formats_2serialize_2time__of__day_8hpp.html" target="_top" xlink:title="utils::datetime::TimeOfDay to any format">
<polygon fill="white" stroke="#666666" points="282,-426 143,-426 143,-396 282,-396 282,-426"/>
<text text-anchor="start" x="151" y="-414" font-family="Helvetica,sans-Serif" font-size="10.00">userver/formats/serialize</text>
<text text-anchor="middle" x="212.5" y="-403" font-family="Helvetica,sans-Serif" font-size="10.00">/time_of_day.hpp</text>
</a>
</g>
</g>
<!-- Node1&#45;&gt;Node3 -->
<g id="edge2_Node000001_Node000003" class="edge">
<title>Node1&#45;&gt;Node3</title>
<g id="a_edge2_Node000001_Node000003"><a xlink:title=" ">
<path fill="none" stroke="#63b8ff" d="M212.5,-451.54C212.5,-442.96 212.5,-433.61 212.5,-426.16"/>
<polygon fill="#63b8ff" stroke="#63b8ff" points="209,-451.8 212.5,-461.8 216,-451.8 209,-451.8"/>
</a>
</g>
</g>
<!-- Node4 -->
<g id="Node000004" class="node">
<title>Node4</title>
<g id="a_Node000004"><a xlink:href="../../d5/d8e/postgresql_2include_2userver_2storages_2postgres_2io_2time__of__day_8hpp.html" target="_top" xlink:title="utils::datetime::TimeOfDay I/O support">
<polygon fill="white" stroke="#666666" points="443,-426 300,-426 300,-396 443,-396 443,-426"/>
<text text-anchor="start" x="308" y="-414" font-family="Helvetica,sans-Serif" font-size="10.00">userver/storages/postgres</text>
<text text-anchor="middle" x="371.5" y="-403" font-family="Helvetica,sans-Serif" font-size="10.00">/io/time_of_day.hpp</text>
</a>
</g>
</g>
<!-- Node1&#45;&gt;Node4 -->
<g id="edge3_Node000001_Node000004" class="edge">
<title>Node1&#45;&gt;Node4</title>
<g id="a_edge3_Node000001_Node000004"><a xlink:title=" ">
<path fill="none" stroke="#63b8ff" d="M256.75,-458.19C282,-448.02 313.2,-435.47 336.69,-426.01"/>
<polygon fill="#63b8ff" stroke="#63b8ff" points="255.36,-454.97 247.39,-461.95 257.98,-461.47 255.36,-454.97"/>
</a>
</g>
</g>
<!-- Node5 -->
<g id="Node000005" class="node">
<title>Node5</title>
<g id="a_Node000005"><a xlink:href="../../de/d7f/supported__types_8hpp_source.html" target="_top" xlink:title=" ">
<polygon fill="white" stroke="#666666" points="443,-360 300,-360 300,-330 443,-330 443,-360"/>
<text text-anchor="start" x="308" y="-348" font-family="Helvetica,sans-Serif" font-size="10.00">userver/storages/postgres</text>
<text text-anchor="middle" x="371.5" y="-337" font-family="Helvetica,sans-Serif" font-size="10.00">/io/supported_types.hpp</text>
</a>
</g>
</g>
<!-- Node4&#45;&gt;Node5 -->
<g id="edge4_Node000004_Node000005" class="edge">
<title>Node4&#45;&gt;Node5</title>
<g id="a_edge4_Node000004_Node000005"><a xlink:title=" ">
<path fill="none" stroke="#63b8ff" d="M371.5,-385.54C371.5,-376.96 371.5,-367.61 371.5,-360.16"/>
<polygon fill="#63b8ff" stroke="#63b8ff" points="368,-385.8 371.5,-395.8 375,-385.8 368,-385.8"/>
</a>
</g>
</g>
<!-- Node6 -->
<g id="Node000006" class="node">
<title>Node6</title>
<g id="a_Node000006"><a xlink:href="../../d2/d3f/query__parameters_8hpp_source.html" target="_top" xlink:title=" ">
<polygon fill="white" stroke="#666666" points="333,-294 172,-294 172,-264 333,-264 333,-294"/>
<text text-anchor="start" x="180" y="-282" font-family="Helvetica,sans-Serif" font-size="10.00">userver/storages/postgres</text>
<text text-anchor="middle" x="252.5" y="-271" font-family="Helvetica,sans-Serif" font-size="10.00">/detail/query_parameters.hpp</text>
</a>
</g>
</g>
<!-- Node5&#45;&gt;Node6 -->
<g id="edge5_Node000005_Node000006" class="edge">
<title>Node5&#45;&gt;Node6</title>
<g id="a_edge5_Node000005_Node000006"><a xlink:title=" ">
<path fill="none" stroke="#63b8ff" d="M336.37,-325.11C317.85,-315.14 295.51,-303.13 278.55,-294.01"/>
<polygon fill="#63b8ff" stroke="#63b8ff" points="334.92,-328.3 345.38,-329.95 338.24,-322.14 334.92,-328.3"/>
</a>
</g>
</g>
<!-- Node14 -->
<g id="Node000014" class="node">
<title>Node14</title>
<g id="a_Node000014"><a xlink:href="../../de/d1d/result__set_8hpp.html" target="_top" xlink:title="Result accessors.">
<polygon fill="white" stroke="#666666" points="612,-294 469,-294 469,-264 612,-264 612,-294"/>
<text text-anchor="start" x="477" y="-282" font-family="Helvetica,sans-Serif" font-size="10.00">userver/storages/postgres</text>
<text text-anchor="middle" x="540.5" y="-271" font-family="Helvetica,sans-Serif" font-size="10.00">/result_set.hpp</text>
</a>
</g>
</g>
<!-- Node5&#45;&gt;Node14 -->
<g id="edge18_Node000005_Node000014" class="edge">
<title>Node5&#45;&gt;Node14</title>
<g id="a_edge18_Node000005_Node000014"><a xlink:title=" ">
<path fill="none" stroke="#63b8ff" d="M418.18,-326.32C445.08,-316.14 478.42,-303.51 503.5,-294.01"/>
<polygon fill="#63b8ff" stroke="#63b8ff" points="416.7,-323.14 408.59,-329.95 419.18,-329.69 416.7,-323.14"/>
</a>
</g>
</g>
<!-- Node7 -->
<g id="Node000007" class="node">
<title>Node7</title>
<g id="a_Node000007"><a xlink:href="../../d4/dd3/non__transaction_8hpp_source.html" target="_top" xlink:title=" ">
<polygon fill="white" stroke="#666666" points="236,-162 87,-162 87,-132 236,-132 236,-162"/>
<text text-anchor="start" x="95" y="-150" font-family="Helvetica,sans-Serif" font-size="10.00">userver/storages/postgres</text>
<text text-anchor="middle" x="161.5" y="-139" font-family="Helvetica,sans-Serif" font-size="10.00">/detail/non_transaction.hpp</text>
</a>
</g>
</g>
<!-- Node6&#45;&gt;Node7 -->
<g id="edge6_Node000006_Node000007" class="edge">
<title>Node6&#45;&gt;Node7</title>
<g id="a_edge6_Node000006_Node000007"><a xlink:title=" ">
<path fill="none" stroke="#63b8ff" d="M162.03,-263.52C122.82,-255.22 83.2,-243.36 71.5,-228 63.42,-217.39 64.74,-209.49 71.5,-198 81.29,-181.36 98.84,-169.86 115.85,-162.13"/>
<polygon fill="#63b8ff" stroke="#63b8ff" points="161.47,-266.97 171.97,-265.55 162.88,-260.12 161.47,-266.97"/>
</a>
</g>
</g>
<!-- Node11 -->
<g id="Node000011" class="node">
<title>Node11</title>
<g id="a_Node000011"><a xlink:href="../../db/d6e/parameter__store_8hpp.html" target="_top" xlink:title="Class for dynamic PostgreSQL parameter list construction.">
<polygon fill="white" stroke="#666666" points="224,-228 81,-228 81,-198 224,-198 224,-228"/>
<text text-anchor="start" x="89" y="-216" font-family="Helvetica,sans-Serif" font-size="10.00">userver/storages/postgres</text>
<text text-anchor="middle" x="152.5" y="-205" font-family="Helvetica,sans-Serif" font-size="10.00">/parameter_store.hpp</text>
</a>
</g>
</g>
<!-- Node6&#45;&gt;Node11 -->
<g id="edge10_Node000006_Node000011" class="edge">
<title>Node6&#45;&gt;Node11</title>
<g id="a_edge10_Node000006_Node000011"><a xlink:title=" ">
<path fill="none" stroke="#63b8ff" d="M221.72,-258.3C206.5,-248.56 188.47,-237.02 174.63,-228.16"/>
<polygon fill="#63b8ff" stroke="#63b8ff" points="220,-261.35 230.31,-263.8 223.77,-255.46 220,-261.35"/>
</a>
</g>
</g>
<!-- Node12 -->
<g id="Node000012" class="node">
<title>Node12</title>
<g id="a_Node000012"><a xlink:href="../../da/deb/postgresql_2include_2userver_2storages_2postgres_2transaction_8hpp.html" target="_top" xlink:title="Transactions.">
<polygon fill="white" stroke="#666666" points="406,-162 263,-162 263,-132 406,-132 406,-162"/>
<text text-anchor="start" x="271" y="-150" font-family="Helvetica,sans-Serif" font-size="10.00">userver/storages/postgres</text>
<text text-anchor="middle" x="334.5" y="-139" font-family="Helvetica,sans-Serif" font-size="10.00">/transaction.hpp</text>
</a>
</g>
</g>
<!-- Node6&#45;&gt;Node12 -->
<g id="edge17_Node000006_Node000012" class="edge">
<title>Node6&#45;&gt;Node12</title>
<g id="a_edge17_Node000006_Node000012"><a xlink:title=" ">
<path fill="none" stroke="#63b8ff" d="M254.08,-253.8C256.13,-237.03 260.82,-214.8 271.5,-198 280.94,-183.15 296.35,-170.81 309.57,-162.1"/>
<polygon fill="#63b8ff" stroke="#63b8ff" points="250.59,-253.62 253.08,-263.91 257.55,-254.31 250.59,-253.62"/>
</a>
</g>
</g>
<!-- Node13 -->
<g id="Node000013" class="node">
<title>Node13</title>
<g id="a_Node000013"><a xlink:href="../../d2/de3/portal_8hpp_source.html" target="_top" xlink:title=" ">
<polygon fill="white" stroke="#666666" points="424,-228 281,-228 281,-198 424,-198 424,-228"/>
<text text-anchor="start" x="289" y="-216" font-family="Helvetica,sans-Serif" font-size="10.00">userver/storages/postgres</text>
<text text-anchor="middle" x="352.5" y="-205" font-family="Helvetica,sans-Serif" font-size="10.00">/portal.hpp</text>
</a>
</g>
</g>
<!-- Node6&#45;&gt;Node13 -->
<g id="edge15_Node000006_Node000013" class="edge">
<title>Node6&#45;&gt;Node13</title>
<g id="a_edge15_Node000006_Node000013"><a xlink:title=" ">
<path fill="none" stroke="#63b8ff" d="M283.28,-258.3C298.5,-248.56 316.53,-237.02 330.37,-228.16"/>
<polygon fill="#63b8ff" stroke="#63b8ff" points="281.23,-255.46 274.69,-263.8 285,-261.35 281.23,-255.46"/>
</a>
</g>
</g>
<!-- Node8 -->
<g id="Node000008" class="node">
<title>Node8</title>
<g id="a_Node000008"><a xlink:href="../../de/dd3/postgresql_2include_2userver_2storages_2postgres_2cluster_8hpp.html" target="_top" xlink:title="Interface for executing queries on a cluster of PostgreSQL servers.">
<polygon fill="white" stroke="#666666" points="350,-96 207,-96 207,-66 350,-66 350,-96"/>
<text text-anchor="start" x="215" y="-84" font-family="Helvetica,sans-Serif" font-size="10.00">userver/storages/postgres</text>
<text text-anchor="middle" x="278.5" y="-73" font-family="Helvetica,sans-Serif" font-size="10.00">/cluster.hpp</text>
</a>
</g>
</g>
<!-- Node7&#45;&gt;Node8 -->
<g id="edge7_Node000007_Node000008" class="edge">
<title>Node7&#45;&gt;Node8</title>
<g id="a_edge7_Node000007_Node000008"><a xlink:title=" ">
<path fill="none" stroke="#63b8ff" d="M196.29,-126.97C214.45,-117.03 236.28,-105.09 252.88,-96.01"/>
<polygon fill="#63b8ff" stroke="#63b8ff" points="194.27,-124.09 187.18,-131.95 197.63,-130.23 194.27,-124.09"/>
</a>
</g>
</g>
<!-- Node9 -->
<g id="Node000009" class="node">
<title>Node9</title>
<g id="a_Node000009"><a xlink:href="../../dc/df7/base__postgres__cache_8hpp.html" target="_top" xlink:title="Caching component for PostgreSQL. See Caching Component for PostgreSQL.">
<polygon fill="white" stroke="#666666" points="314,-30 195,-30 195,0 314,0 314,-30"/>
<text text-anchor="start" x="203" y="-18" font-family="Helvetica,sans-Serif" font-size="10.00">userver/cache/base</text>
<text text-anchor="middle" x="254.5" y="-7" font-family="Helvetica,sans-Serif" font-size="10.00">_postgres_cache.hpp</text>
</a>
</g>
</g>
<!-- Node8&#45;&gt;Node9 -->
<g id="edge8_Node000008_Node000009" class="edge">
<title>Node8&#45;&gt;Node9</title>
<g id="a_edge8_Node000008_Node000009"><a xlink:title=" ">
<path fill="none" stroke="#63b8ff" d="M269.65,-56.39C266.34,-47.59 262.7,-37.86 259.81,-30.16"/>
<polygon fill="#63b8ff" stroke="#63b8ff" points="266.39,-57.66 273.17,-65.8 272.94,-55.2 266.39,-57.66"/>
</a>
</g>
</g>
<!-- Node10 -->
<g id="Node000010" class="node">
<title>Node10</title>
<g id="a_Node000010"><a xlink:href="../../df/d02/postgres_8hpp.html" target="_top" xlink:title=" ">
<polygon fill="white" stroke="#666666" points="475,-30 332,-30 332,0 475,0 475,-30"/>
<text text-anchor="start" x="340" y="-18" font-family="Helvetica,sans-Serif" font-size="10.00">userver/storages/postgres</text>
<text text-anchor="middle" x="403.5" y="-7" font-family="Helvetica,sans-Serif" font-size="10.00">/postgres.hpp</text>
</a>
</g>
</g>
<!-- Node8&#45;&gt;Node10 -->
<g id="edge9_Node000008_Node000010" class="edge">
<title>Node8&#45;&gt;Node10</title>
<g id="a_edge9_Node000008_Node000010"><a xlink:title=" ">
<path fill="none" stroke="#63b8ff" d="M314.87,-61.38C334.43,-51.36 358.15,-39.22 376.13,-30.01"/>
<polygon fill="#63b8ff" stroke="#63b8ff" points="313.24,-58.28 305.93,-65.95 316.43,-64.51 313.24,-58.28"/>
</a>
</g>
</g>
<!-- Node11&#45;&gt;Node7 -->
<g id="edge11_Node000011_Node000007" class="edge">
<title>Node11&#45;&gt;Node7</title>
<g id="a_edge11_Node000011_Node000007"><a xlink:title=" ">
<path fill="none" stroke="#63b8ff" d="M155.9,-187.83C157.12,-179.17 158.45,-169.7 159.51,-162.16"/>
<polygon fill="#63b8ff" stroke="#63b8ff" points="152.42,-187.41 154.5,-197.8 159.36,-188.38 152.42,-187.41"/>
</a>
</g>
</g>
<!-- Node11&#45;&gt;Node12 -->
<g id="edge12_Node000011_Node000012" class="edge">
<title>Node11&#45;&gt;Node12</title>
<g id="a_edge12_Node000011_Node000012"><a xlink:title=" ">
<path fill="none" stroke="#63b8ff" d="M202.01,-194.59C231.11,-184.36 267.41,-171.59 294.65,-162.01"/>
<polygon fill="#63b8ff" stroke="#63b8ff" points="200.71,-191.34 192.44,-197.95 203.04,-197.94 200.71,-191.34"/>
</a>
</g>
</g>
<!-- Node12&#45;&gt;Node8 -->
<g id="edge13_Node000012_Node000008" class="edge">
<title>Node12&#45;&gt;Node8</title>
<g id="a_edge13_Node000012_Node000008"><a xlink:title=" ">
<path fill="none" stroke="#63b8ff" d="M315.33,-124.09C307.24,-114.85 298.06,-104.36 290.89,-96.16"/>
<polygon fill="#63b8ff" stroke="#63b8ff" points="312.85,-126.58 322.07,-131.8 318.12,-121.97 312.85,-126.58"/>
</a>
</g>
</g>
<!-- Node12&#45;&gt;Node10 -->
<g id="edge14_Node000012_Node000010" class="edge">
<title>Node12&#45;&gt;Node10</title>
<g id="a_edge14_Node000012_Node000010"><a xlink:title=" ">
<path fill="none" stroke="#63b8ff" d="M346.84,-122.75C361.12,-95.84 384.18,-52.4 395.99,-30.14"/>
<polygon fill="#63b8ff" stroke="#63b8ff" points="343.61,-121.37 342.02,-131.84 349.8,-124.65 343.61,-121.37"/>
</a>
</g>
</g>
<!-- Node13&#45;&gt;Node12 -->
<g id="edge16_Node000013_Node000012" class="edge">
<title>Node13&#45;&gt;Node12</title>
<g id="a_edge16_Node000013_Node000012"><a xlink:title=" ">
<path fill="none" stroke="#63b8ff" d="M345.78,-188.11C343.32,-179.38 340.63,-169.78 338.48,-162.16"/>
<polygon fill="#63b8ff" stroke="#63b8ff" points="342.43,-189.12 348.51,-197.8 349.17,-187.22 342.43,-189.12"/>
</a>
</g>
</g>
<!-- Node14&#45;&gt;Node7 -->
<g id="edge19_Node000014_Node000007" class="edge">
<title>Node14&#45;&gt;Node7</title>
<g id="a_edge19_Node000014_Node000007"><a xlink:title=" ">
<path fill="none" stroke="#63b8ff" d="M509.48,-258.32C495.99,-249.44 480.18,-238.59 466.5,-228 450.56,-215.67 450.62,-206.81 432.5,-198 414.99,-189.49 310.22,-171.59 236.21,-159.68"/>
<polygon fill="#63b8ff" stroke="#63b8ff" points="507.67,-261.32 517.96,-263.85 511.49,-255.46 507.67,-261.32"/>
</a>
</g>
</g>
<!-- Node14&#45;&gt;Node10 -->
<g id="edge24_Node000014_Node000010" class="edge">
<title>Node14&#45;&gt;Node10</title>
<g id="a_edge24_Node000014_Node000010"><a xlink:title=" ">
<path fill="none" stroke="#63b8ff" d="M622.22,-265.19C648.31,-257.82 675.76,-246.23 696.5,-228 730.18,-198.4 753.31,-168.66 727.5,-132 670.57,-51.15 551.84,-26.36 475,-18.93"/>
<polygon fill="#63b8ff" stroke="#63b8ff" points="621.08,-261.87 612.31,-267.81 622.87,-268.64 621.08,-261.87"/>
</a>
</g>
</g>
<!-- Node14&#45;&gt;Node12 -->
<g id="edge25_Node000014_Node000012" class="edge">
<title>Node14&#45;&gt;Node12</title>
<g id="a_edge25_Node000014_Node000012"><a xlink:title=" ">
<path fill="none" stroke="#63b8ff" d="M524.68,-255.9C511.01,-238.17 489.82,-213.72 466.5,-198 442.73,-181.97 413.11,-170.15 387.96,-162.04"/>
<polygon fill="#63b8ff" stroke="#63b8ff" points="521.96,-258.1 530.77,-263.99 527.56,-253.9 521.96,-258.1"/>
</a>
</g>
</g>
<!-- Node14&#45;&gt;Node13 -->
<g id="edge23_Node000014_Node000013" class="edge">
<title>Node14&#45;&gt;Node13</title>
<g id="a_edge23_Node000014_Node000013"><a xlink:title=" ">
<path fill="none" stroke="#63b8ff" d="M489.75,-260.72C459.63,-250.47 421.92,-237.63 393.66,-228.01"/>
<polygon fill="#63b8ff" stroke="#63b8ff" points="488.65,-264.05 499.24,-263.95 490.9,-257.42 488.65,-264.05"/>
</a>
</g>
</g>
<!-- Node15 -->
<g id="Node000015" class="node">
<title>Node15</title>
<g id="a_Node000015"><a xlink:href="../../d7/d52/typed__rows_8hpp_source.html" target="_top" xlink:title=" ">
<polygon fill="white" stroke="#666666" points="662,-228 519,-228 519,-198 662,-198 662,-228"/>
<text text-anchor="start" x="527" y="-216" font-family="Helvetica,sans-Serif" font-size="10.00">userver/storages/postgres</text>
<text text-anchor="middle" x="590.5" y="-205" font-family="Helvetica,sans-Serif" font-size="10.00">/detail/typed_rows.hpp</text>
</a>
</g>
</g>
<!-- Node14&#45;&gt;Node15 -->
<g id="edge20_Node000014_Node000015" class="edge">
<title>Node14&#45;&gt;Node15</title>
<g id="a_edge20_Node000014_Node000015"><a xlink:title=" ">
<path fill="none" stroke="#63b8ff" d="M557.84,-255.81C565,-246.64 573.1,-236.28 579.43,-228.16"/>
<polygon fill="#63b8ff" stroke="#63b8ff" points="555,-253.76 551.6,-263.8 560.51,-258.07 555,-253.76"/>
</a>
</g>
</g>
<!-- Node16 -->
<g id="Node000016" class="node">
<title>Node16</title>
<g id="a_Node000016"><a xlink:href="../../d1/dee/typed__result__set_8hpp.html" target="_top" xlink:title="Typed PostgreSQL results.">
<polygon fill="white" stroke="#666666" points="718,-162 575,-162 575,-132 718,-132 718,-162"/>
<text text-anchor="start" x="583" y="-150" font-family="Helvetica,sans-Serif" font-size="10.00">userver/storages/postgres</text>
<text text-anchor="middle" x="646.5" y="-139" font-family="Helvetica,sans-Serif" font-size="10.00">/typed_result_set.hpp</text>
</a>
</g>
</g>
<!-- Node14&#45;&gt;Node16 -->
<g id="edge26_Node000014_Node000016" class="edge">
<title>Node14&#45;&gt;Node16</title>
<g id="a_edge26_Node000014_Node000016"><a xlink:title=" ">
<path fill="none" stroke="#63b8ff" d="M621.56,-260.23C637.55,-252.91 652.46,-242.58 662.5,-228 676.53,-207.63 660.9,-179.03 651.45,-162.12"/>
<polygon fill="#63b8ff" stroke="#63b8ff" points="619.92,-257.12 612.04,-264.2 622.62,-263.58 619.92,-257.12"/>
</a>
</g>
</g>
<!-- Node15&#45;&gt;Node16 -->
<g id="edge21_Node000015_Node000016" class="edge">
<title>Node15&#45;&gt;Node16</title>
<g id="a_edge21_Node000015_Node000016"><a xlink:title=" ">
<path fill="none" stroke="#63b8ff" d="M609.67,-190.09C617.76,-180.85 626.94,-170.36 634.11,-162.16"/>
<polygon fill="#63b8ff" stroke="#63b8ff" points="606.88,-187.97 602.93,-197.8 612.15,-192.58 606.88,-187.97"/>
</a>
</g>
</g>
<!-- Node16&#45;&gt;Node14 -->
<g id="edge22_Node000016_Node000014" class="edge">
<title>Node16&#45;&gt;Node14</title>
<g id="a_edge22_Node000016_Node000014"><a xlink:title=" ">
<path fill="none" stroke="#63b8ff" d="M670.7,-170.36C682.89,-187.34 692.45,-210.65 680.5,-228 665.1,-250.35 638.27,-262.72 612.14,-269.56"/>
<polygon fill="#63b8ff" stroke="#63b8ff" points="673.13,-167.79 664.18,-162.12 667.64,-172.14 673.13,-167.79"/>
</a>
</g>
</g>
</g>
</svg>
