<?xml version="1.0" encoding="UTF-8" standalone="no"?>
<!DOCTYPE svg PUBLIC "-//W3C//DTD SVG 1.1//EN"
 "http://www.w3.org/Graphics/SVG/1.1/DTD/svg11.dtd">
<!-- Generated by graphviz version 2.43.0 (0)
 -->
<!-- Title: userver/storages/postgres/io/integral_types.hpp Pages: 1 -->
<svg width="1098pt" height="632pt"
 viewBox="0.00 0.00 1098.00 632.00" xmlns="http://www.w3.org/2000/svg" xmlns:xlink="http://www.w3.org/1999/xlink">
<g id="graph0" class="graph" transform="scale(1 1) rotate(0) translate(4 628)">
<title>userver/storages/postgres/io/integral_types.hpp</title>
<!-- Node1 -->
<g id="Node000001" class="node">
<title>Node1</title>
<g id="a_Node000001"><a xlink:title="Integral types I/O support.">
<polygon fill="#999999" stroke="#666666" points="656,-624 513,-624 513,-594 656,-594 656,-624"/>
<text text-anchor="start" x="521" y="-612" font-family="Helvetica,sans-Serif" font-size="10.00">userver/storages/postgres</text>
<text text-anchor="middle" x="584.5" y="-601" font-family="Helvetica,sans-Serif" font-size="10.00">/io/integral_types.hpp</text>
</a>
</g>
</g>
<!-- Node2 -->
<g id="Node000002" class="node">
<title>Node2</title>
<g id="a_Node000002"><a xlink:href="../../d5/d3a/postgresql_2include_2userver_2storages_2postgres_2io_2date_8hpp.html" target="_top" xlink:title="utils::datetime::Date I/O support">
<polygon fill="white" stroke="#666666" points="143,-558 0,-558 0,-528 143,-528 143,-558"/>
<text text-anchor="start" x="8" y="-546" font-family="Helvetica,sans-Serif" font-size="10.00">userver/storages/postgres</text>
<text text-anchor="middle" x="71.5" y="-535" font-family="Helvetica,sans-Serif" font-size="10.00">/io/date.hpp</text>
</a>
</g>
</g>
<!-- Node1&#45;&gt;Node2 -->
<g id="edge1_Node000001_Node000002" class="edge">
<title>Node1&#45;&gt;Node2</title>
<g id="a_edge1_Node000001_Node000002"><a xlink:title=" ">
<path fill="none" stroke="#63b8ff" d="M503.02,-599.56C416.99,-590.39 277.49,-574.78 157.5,-558 152.86,-557.35 148.08,-556.65 143.26,-555.93"/>
<polygon fill="#63b8ff" stroke="#63b8ff" points="502.66,-603.04 512.98,-600.62 503.4,-596.08 502.66,-603.04"/>
</a>
</g>
</g>
<!-- Node3 -->
<g id="Node000003" class="node">
<title>Node3</title>
<g id="a_Node000003"><a xlink:href="../../da/d98/field__buffer_8hpp_source.html" target="_top" xlink:title=" ">
<polygon fill="white" stroke="#666666" points="550,-558 407,-558 407,-528 550,-528 550,-558"/>
<text text-anchor="start" x="415" y="-546" font-family="Helvetica,sans-Serif" font-size="10.00">userver/storages/postgres</text>
<text text-anchor="middle" x="478.5" y="-535" font-family="Helvetica,sans-Serif" font-size="10.00">/io/field_buffer.hpp</text>
</a>
</g>
</g>
<!-- Node1&#45;&gt;Node3 -->
<g id="edge2_Node000001_Node000003" class="edge">
<title>Node1&#45;&gt;Node3</title>
<g id="a_edge2_Node000001_Node000003"><a xlink:title=" ">
<path fill="none" stroke="#63b8ff" d="M552.53,-588.69C536.16,-578.82 516.61,-567.01 501.71,-558.01"/>
<polygon fill="#63b8ff" stroke="#63b8ff" points="550.87,-591.78 561.24,-593.95 554.49,-585.79 550.87,-591.78"/>
</a>
</g>
</g>
<!-- Node5 -->
<g id="Node000005" class="node">
<title>Node5</title>
<g id="a_Node000005"><a xlink:href="../../de/d7f/supported__types_8hpp_source.html" target="_top" xlink:title=" ">
<polygon fill="white" stroke="#666666" points="604,-360 461,-360 461,-330 604,-330 604,-360"/>
<text text-anchor="start" x="469" y="-348" font-family="Helvetica,sans-Serif" font-size="10.00">userver/storages/postgres</text>
<text text-anchor="middle" x="532.5" y="-337" font-family="Helvetica,sans-Serif" font-size="10.00">/io/supported_types.hpp</text>
</a>
</g>
</g>
<!-- Node1&#45;&gt;Node5 -->
<g id="edge44_Node000001_Node000005" class="edge">
<title>Node1&#45;&gt;Node5</title>
<g id="a_edge44_Node000001_Node000005"><a xlink:title=" ">
<path fill="none" stroke="#63b8ff" d="M502.96,-600.02C404.55,-585.24 245.43,-543.46 190.5,-426 184.85,-413.92 181.78,-406.09 190.5,-396 224.74,-356.39 371.21,-347.55 460.99,-345.93"/>
<polygon fill="#63b8ff" stroke="#63b8ff" points="502.48,-603.48 512.88,-601.44 503.48,-596.55 502.48,-603.48"/>
</a>
</g>
</g>
<!-- Node23 -->
<g id="Node000023" class="node">
<title>Node23</title>
<g id="a_Node000023"><a xlink:href="../../d8/ddf/floating__point__types_8hpp.html" target="_top" xlink:title="Floating point I/O support.">
<polygon fill="white" stroke="#666666" points="767.5,-558 615.5,-558 615.5,-528 767.5,-528 767.5,-558"/>
<text text-anchor="start" x="623.5" y="-546" font-family="Helvetica,sans-Serif" font-size="10.00">userver/storages/postgres</text>
<text text-anchor="middle" x="691.5" y="-535" font-family="Helvetica,sans-Serif" font-size="10.00">/io/floating_point_types.hpp</text>
</a>
</g>
</g>
<!-- Node1&#45;&gt;Node23 -->
<g id="edge38_Node000001_Node000023" class="edge">
<title>Node1&#45;&gt;Node23</title>
<g id="a_edge38_Node000001_Node000023"><a xlink:title=" ">
<path fill="none" stroke="#63b8ff" d="M616.78,-588.69C633.29,-578.82 653.03,-567.01 668.07,-558.01"/>
<polygon fill="#63b8ff" stroke="#63b8ff" points="614.77,-585.82 607.98,-593.95 618.36,-591.83 614.77,-585.82"/>
</a>
</g>
</g>
<!-- Node24 -->
<g id="Node000024" class="node">
<title>Node24</title>
<g id="a_Node000024"><a xlink:href="../../dc/de2/interval_8hpp.html" target="_top" xlink:title="Time intervals I/O support.">
<polygon fill="white" stroke="#666666" points="929,-558 786,-558 786,-528 929,-528 929,-558"/>
<text text-anchor="start" x="794" y="-546" font-family="Helvetica,sans-Serif" font-size="10.00">userver/storages/postgres</text>
<text text-anchor="middle" x="857.5" y="-535" font-family="Helvetica,sans-Serif" font-size="10.00">/io/interval.hpp</text>
</a>
</g>
</g>
<!-- Node1&#45;&gt;Node24 -->
<g id="edge41_Node000001_Node000024" class="edge">
<title>Node1&#45;&gt;Node24</title>
<g id="a_edge41_Node000001_Node000024"><a xlink:title=" ">
<path fill="none" stroke="#63b8ff" d="M654.25,-591.65C698.61,-581.25 755.44,-567.93 797.73,-558.01"/>
<polygon fill="#63b8ff" stroke="#63b8ff" points="653.35,-588.26 644.41,-593.95 654.95,-595.08 653.35,-588.26"/>
</a>
</g>
</g>
<!-- Node25 -->
<g id="Node000025" class="node">
<title>Node25</title>
<g id="a_Node000025"><a xlink:href="../../d1/dd2/postgresql_2include_2userver_2storages_2postgres_2io_2ip_8hpp_source.html" target="_top" xlink:title=" ">
<polygon fill="white" stroke="#666666" points="1090,-558 947,-558 947,-528 1090,-528 1090,-558"/>
<text text-anchor="start" x="955" y="-546" font-family="Helvetica,sans-Serif" font-size="10.00">userver/storages/postgres</text>
<text text-anchor="middle" x="1018.5" y="-535" font-family="Helvetica,sans-Serif" font-size="10.00">/io/ip.hpp</text>
</a>
</g>
</g>
<!-- Node1&#45;&gt;Node25 -->
<g id="edge43_Node000001_Node000025" class="edge">
<title>Node1&#45;&gt;Node25</title>
<g id="a_edge43_Node000001_Node000025"><a xlink:title=" ">
<path fill="none" stroke="#63b8ff" d="M666.47,-597.2C738.29,-587.55 845.44,-572.71 938.5,-558 941.29,-557.56 944.12,-557.1 946.99,-556.63"/>
<polygon fill="#63b8ff" stroke="#63b8ff" points="665.58,-593.79 656.13,-598.59 666.51,-600.73 665.58,-593.79"/>
</a>
</g>
</g>
<!-- Node4 -->
<g id="Node000004" class="node">
<title>Node4</title>
<g id="a_Node000004"><a xlink:href="../../d4/d90/array__types_8hpp.html" target="_top" xlink:title="I/O support for arrays (std::array, std::set, std::unordered_set, std::vector)">
<polygon fill="white" stroke="#666666" points="704,-426 561,-426 561,-396 704,-396 704,-426"/>
<text text-anchor="start" x="569" y="-414" font-family="Helvetica,sans-Serif" font-size="10.00">userver/storages/postgres</text>
<text text-anchor="middle" x="632.5" y="-403" font-family="Helvetica,sans-Serif" font-size="10.00">/io/array_types.hpp</text>
</a>
</g>
</g>
<!-- Node3&#45;&gt;Node4 -->
<g id="edge3_Node000003_Node000004" class="edge">
<title>Node3&#45;&gt;Node4</title>
<g id="a_edge3_Node000003_Node000004"><a xlink:title=" ">
<path fill="none" stroke="#63b8ff" d="M478.44,-517.73C479.66,-500.27 484.02,-477.22 497.5,-462 513.9,-443.47 537.81,-431.8 560.96,-424.45"/>
<polygon fill="#63b8ff" stroke="#63b8ff" points="474.94,-517.62 478.04,-527.75 481.94,-517.9 474.94,-517.62"/>
</a>
</g>
</g>
<!-- Node17 -->
<g id="Node000017" class="node">
<title>Node17</title>
<g id="a_Node000017"><a xlink:href="../../d4/dda/composite__types_8hpp.html" target="_top" xlink:title="Composite types I/O support.">
<polygon fill="white" stroke="#666666" points="343,-426 200,-426 200,-396 343,-396 343,-426"/>
<text text-anchor="start" x="208" y="-414" font-family="Helvetica,sans-Serif" font-size="10.00">userver/storages/postgres</text>
<text text-anchor="middle" x="271.5" y="-403" font-family="Helvetica,sans-Serif" font-size="10.00">/io/composite_types.hpp</text>
</a>
</g>
</g>
<!-- Node3&#45;&gt;Node17 -->
<g id="edge27_Node000003_Node000017" class="edge">
<title>Node3&#45;&gt;Node17</title>
<g id="a_edge27_Node000003_Node000017"><a xlink:title=" ">
<path fill="none" stroke="#63b8ff" d="M396.75,-529.44C352.09,-520.93 302.83,-508.26 287.5,-492 270.69,-474.17 269.29,-443.91 270.15,-426.15"/>
<polygon fill="#63b8ff" stroke="#63b8ff" points="396.31,-532.92 406.78,-531.3 397.59,-526.04 396.31,-532.92"/>
</a>
</g>
</g>
<!-- Node18 -->
<g id="Node000018" class="node">
<title>Node18</title>
<g id="a_Node000018"><a xlink:href="../../da/d26/geometry__types_8hpp.html" target="_top" xlink:title="Geometry I/O support.">
<polygon fill="white" stroke="#666666" points="811,-492 668,-492 668,-462 811,-462 811,-492"/>
<text text-anchor="start" x="676" y="-480" font-family="Helvetica,sans-Serif" font-size="10.00">userver/storages/postgres</text>
<text text-anchor="middle" x="739.5" y="-469" font-family="Helvetica,sans-Serif" font-size="10.00">/io/geometry_types.hpp</text>
</a>
</g>
</g>
<!-- Node3&#45;&gt;Node18 -->
<g id="edge29_Node000003_Node000018" class="edge">
<title>Node3&#45;&gt;Node18</title>
<g id="a_edge29_Node000003_Node000018"><a xlink:title=" ">
<path fill="none" stroke="#63b8ff" d="M545.72,-525.52C588.05,-515.14 642.1,-501.88 682.36,-492.01"/>
<polygon fill="#63b8ff" stroke="#63b8ff" points="544.66,-522.17 535.78,-527.95 546.32,-528.97 544.66,-522.17"/>
</a>
</g>
</g>
<!-- Node19 -->
<g id="Node000019" class="node">
<title>Node19</title>
<g id="a_Node000019"><a xlink:href="../../dd/d50/json__types_8hpp.html" target="_top" xlink:title="JSON I/O support.">
<polygon fill="white" stroke="#666666" points="504,-426 361,-426 361,-396 504,-396 504,-426"/>
<text text-anchor="start" x="369" y="-414" font-family="Helvetica,sans-Serif" font-size="10.00">userver/storages/postgres</text>
<text text-anchor="middle" x="432.5" y="-403" font-family="Helvetica,sans-Serif" font-size="10.00">/io/json_types.hpp</text>
</a>
</g>
</g>
<!-- Node3&#45;&gt;Node19 -->
<g id="edge30_Node000003_Node000019" class="edge">
<title>Node3&#45;&gt;Node19</title>
<g id="a_edge30_Node000003_Node000019"><a xlink:title=" ">
<path fill="none" stroke="#63b8ff" d="M396.78,-529.31C354.89,-520.96 310.07,-508.51 297.5,-492 273.41,-460.35 320.71,-438.78 365.8,-426.09"/>
<polygon fill="#63b8ff" stroke="#63b8ff" points="396.3,-532.78 406.78,-531.24 397.63,-525.91 396.3,-532.78"/>
</a>
</g>
</g>
<!-- Node20 -->
<g id="Node000020" class="node">
<title>Node20</title>
<g id="a_Node000020"><a xlink:href="../../d5/d60/range__types_8hpp.html" target="_top" xlink:title="Ranges I/O support.">
<polygon fill="white" stroke="#666666" points="450,-492 307,-492 307,-462 450,-462 450,-492"/>
<text text-anchor="start" x="315" y="-480" font-family="Helvetica,sans-Serif" font-size="10.00">userver/storages/postgres</text>
<text text-anchor="middle" x="378.5" y="-469" font-family="Helvetica,sans-Serif" font-size="10.00">/io/range_types.hpp</text>
</a>
</g>
</g>
<!-- Node3&#45;&gt;Node20 -->
<g id="edge32_Node000003_Node000020" class="edge">
<title>Node3&#45;&gt;Node20</title>
<g id="a_edge32_Node000003_Node000020"><a xlink:title=" ">
<path fill="none" stroke="#63b8ff" d="M447.72,-522.3C432.5,-512.56 414.47,-501.02 400.63,-492.16"/>
<polygon fill="#63b8ff" stroke="#63b8ff" points="446,-525.35 456.31,-527.8 449.77,-519.46 446,-525.35"/>
</a>
</g>
</g>
<!-- Node21 -->
<g id="Node000021" class="node">
<title>Node21</title>
<g id="a_Node000021"><a xlink:href="../../d9/d6e/transform__io_8hpp_source.html" target="_top" xlink:title=" ">
<polygon fill="white" stroke="#666666" points="650,-492 507,-492 507,-462 650,-462 650,-492"/>
<text text-anchor="start" x="515" y="-480" font-family="Helvetica,sans-Serif" font-size="10.00">userver/storages/postgres</text>
<text text-anchor="middle" x="578.5" y="-469" font-family="Helvetica,sans-Serif" font-size="10.00">/io/transform_io.hpp</text>
</a>
</g>
</g>
<!-- Node3&#45;&gt;Node21 -->
<g id="edge34_Node000003_Node000021" class="edge">
<title>Node3&#45;&gt;Node21</title>
<g id="a_edge34_Node000003_Node000021"><a xlink:title=" ">
<path fill="none" stroke="#63b8ff" d="M509.28,-522.3C524.5,-512.56 542.53,-501.02 556.37,-492.16"/>
<polygon fill="#63b8ff" stroke="#63b8ff" points="507.23,-519.46 500.69,-527.8 511,-525.35 507.23,-519.46"/>
</a>
</g>
</g>
<!-- Node4&#45;&gt;Node5 -->
<g id="edge4_Node000004_Node000005" class="edge">
<title>Node4&#45;&gt;Node5</title>
<g id="a_edge4_Node000004_Node000005"><a xlink:title=" ">
<path fill="none" stroke="#63b8ff" d="M601.72,-390.3C586.5,-380.56 568.47,-369.02 554.63,-360.16"/>
<polygon fill="#63b8ff" stroke="#63b8ff" points="600,-393.35 610.31,-395.8 603.77,-387.46 600,-393.35"/>
</a>
</g>
</g>
<!-- Node6 -->
<g id="Node000006" class="node">
<title>Node6</title>
<g id="a_Node000006"><a xlink:href="../../d2/d3f/query__parameters_8hpp_source.html" target="_top" xlink:title=" ">
<polygon fill="white" stroke="#666666" points="766,-294 605,-294 605,-264 766,-264 766,-294"/>
<text text-anchor="start" x="613" y="-282" font-family="Helvetica,sans-Serif" font-size="10.00">userver/storages/postgres</text>
<text text-anchor="middle" x="685.5" y="-271" font-family="Helvetica,sans-Serif" font-size="10.00">/detail/query_parameters.hpp</text>
</a>
</g>
</g>
<!-- Node5&#45;&gt;Node6 -->
<g id="edge5_Node000005_Node000006" class="edge">
<title>Node5&#45;&gt;Node6</title>
<g id="a_edge5_Node000005_Node000006"><a xlink:title=" ">
<path fill="none" stroke="#63b8ff" d="M575.4,-326.05C599.64,-315.91 629.5,-303.43 652,-294.01"/>
<polygon fill="#63b8ff" stroke="#63b8ff" points="573.95,-322.87 566.08,-329.95 576.65,-329.32 573.95,-322.87"/>
</a>
</g>
</g>
<!-- Node14 -->
<g id="Node000014" class="node">
<title>Node14</title>
<g id="a_Node000014"><a xlink:href="../../de/d1d/result__set_8hpp.html" target="_top" xlink:title="Result accessors.">
<polygon fill="white" stroke="#666666" points="496,-294 353,-294 353,-264 496,-264 496,-294"/>
<text text-anchor="start" x="361" y="-282" font-family="Helvetica,sans-Serif" font-size="10.00">userver/storages/postgres</text>
<text text-anchor="middle" x="424.5" y="-271" font-family="Helvetica,sans-Serif" font-size="10.00">/result_set.hpp</text>
</a>
</g>
</g>
<!-- Node5&#45;&gt;Node14 -->
<g id="edge18_Node000005_Node000014" class="edge">
<title>Node5&#45;&gt;Node14</title>
<g id="a_edge18_Node000005_Node000014"><a xlink:title=" ">
<path fill="none" stroke="#63b8ff" d="M499.92,-324.69C483.25,-314.82 463.33,-303.01 448.15,-294.01"/>
<polygon fill="#63b8ff" stroke="#63b8ff" points="498.41,-327.87 508.8,-329.95 501.98,-321.85 498.41,-327.87"/>
</a>
</g>
</g>
<!-- Node7 -->
<g id="Node000007" class="node">
<title>Node7</title>
<g id="a_Node000007"><a xlink:href="../../d4/dd3/non__transaction_8hpp_source.html" target="_top" xlink:title=" ">
<polygon fill="white" stroke="#666666" points="860,-162 711,-162 711,-132 860,-132 860,-162"/>
<text text-anchor="start" x="719" y="-150" font-family="Helvetica,sans-Serif" font-size="10.00">userver/storages/postgres</text>
<text text-anchor="middle" x="785.5" y="-139" font-family="Helvetica,sans-Serif" font-size="10.00">/detail/non_transaction.hpp</text>
</a>
</g>
</g>
<!-- Node6&#45;&gt;Node7 -->
<g id="edge6_Node000006_Node000007" class="edge">
<title>Node6&#45;&gt;Node7</title>
<g id="a_edge6_Node000006_Node000007"><a xlink:title=" ">
<path fill="none" stroke="#63b8ff" d="M775.97,-263.52C815.18,-255.22 854.8,-243.36 866.5,-228 874.58,-217.39 873,-209.64 866.5,-198 857.4,-181.69 840.55,-170.04 824.57,-162.11"/>
<polygon fill="#63b8ff" stroke="#63b8ff" points="775.12,-260.12 766.03,-265.55 776.53,-266.97 775.12,-260.12"/>
</a>
</g>
</g>
<!-- Node11 -->
<g id="Node000011" class="node">
<title>Node11</title>
<g id="a_Node000011"><a xlink:href="../../db/d6e/parameter__store_8hpp.html" target="_top" xlink:title="Class for dynamic PostgreSQL parameter list construction.">
<polygon fill="white" stroke="#666666" points="857,-228 714,-228 714,-198 857,-198 857,-228"/>
<text text-anchor="start" x="722" y="-216" font-family="Helvetica,sans-Serif" font-size="10.00">userver/storages/postgres</text>
<text text-anchor="middle" x="785.5" y="-205" font-family="Helvetica,sans-Serif" font-size="10.00">/parameter_store.hpp</text>
</a>
</g>
</g>
<!-- Node6&#45;&gt;Node11 -->
<g id="edge10_Node000006_Node000011" class="edge">
<title>Node6&#45;&gt;Node11</title>
<g id="a_edge10_Node000006_Node000011"><a xlink:title=" ">
<path fill="none" stroke="#63b8ff" d="M716.28,-258.3C731.5,-248.56 749.53,-237.02 763.37,-228.16"/>
<polygon fill="#63b8ff" stroke="#63b8ff" points="714.23,-255.46 707.69,-263.8 718,-261.35 714.23,-255.46"/>
</a>
</g>
</g>
<!-- Node12 -->
<g id="Node000012" class="node">
<title>Node12</title>
<g id="a_Node000012"><a xlink:href="../../da/deb/postgresql_2include_2userver_2storages_2postgres_2transaction_8hpp.html" target="_top" xlink:title="Transactions.">
<polygon fill="white" stroke="#666666" points="693,-162 550,-162 550,-132 693,-132 693,-162"/>
<text text-anchor="start" x="558" y="-150" font-family="Helvetica,sans-Serif" font-size="10.00">userver/storages/postgres</text>
<text text-anchor="middle" x="621.5" y="-139" font-family="Helvetica,sans-Serif" font-size="10.00">/transaction.hpp</text>
</a>
</g>
</g>
<!-- Node6&#45;&gt;Node12 -->
<g id="edge17_Node000006_Node000012" class="edge">
<title>Node6&#45;&gt;Node12</title>
<g id="a_edge17_Node000006_Node000012"><a xlink:title=" ">
<path fill="none" stroke="#63b8ff" d="M682.56,-254.05C679.82,-237.57 674.72,-215.57 665.5,-198 658.41,-184.49 646.93,-171.61 637.48,-162.32"/>
<polygon fill="#63b8ff" stroke="#63b8ff" points="679.1,-254.61 684.04,-263.98 686.03,-253.58 679.1,-254.61"/>
</a>
</g>
</g>
<!-- Node13 -->
<g id="Node000013" class="node">
<title>Node13</title>
<g id="a_Node000013"><a xlink:href="../../d2/de3/portal_8hpp_source.html" target="_top" xlink:title=" ">
<polygon fill="white" stroke="#666666" points="657,-228 514,-228 514,-198 657,-198 657,-228"/>
<text text-anchor="start" x="522" y="-216" font-family="Helvetica,sans-Serif" font-size="10.00">userver/storages/postgres</text>
<text text-anchor="middle" x="585.5" y="-205" font-family="Helvetica,sans-Serif" font-size="10.00">/portal.hpp</text>
</a>
</g>
</g>
<!-- Node6&#45;&gt;Node13 -->
<g id="edge15_Node000006_Node000013" class="edge">
<title>Node6&#45;&gt;Node13</title>
<g id="a_edge15_Node000006_Node000013"><a xlink:title=" ">
<path fill="none" stroke="#63b8ff" d="M654.72,-258.3C639.5,-248.56 621.47,-237.02 607.63,-228.16"/>
<polygon fill="#63b8ff" stroke="#63b8ff" points="653,-261.35 663.31,-263.8 656.77,-255.46 653,-261.35"/>
</a>
</g>
</g>
<!-- Node8 -->
<g id="Node000008" class="node">
<title>Node8</title>
<g id="a_Node000008"><a xlink:href="../../de/dd3/postgresql_2include_2userver_2storages_2postgres_2cluster_8hpp.html" target="_top" xlink:title="Interface for executing queries on a cluster of PostgreSQL servers.">
<polygon fill="white" stroke="#666666" points="850,-96 707,-96 707,-66 850,-66 850,-96"/>
<text text-anchor="start" x="715" y="-84" font-family="Helvetica,sans-Serif" font-size="10.00">userver/storages/postgres</text>
<text text-anchor="middle" x="778.5" y="-73" font-family="Helvetica,sans-Serif" font-size="10.00">/cluster.hpp</text>
</a>
</g>
</g>
<!-- Node7&#45;&gt;Node8 -->
<g id="edge7_Node000007_Node000008" class="edge">
<title>Node7&#45;&gt;Node8</title>
<g id="a_edge7_Node000007_Node000008"><a xlink:title=" ">
<path fill="none" stroke="#63b8ff" d="M782.86,-121.83C781.91,-113.17 780.87,-103.7 780.05,-96.16"/>
<polygon fill="#63b8ff" stroke="#63b8ff" points="779.38,-122.24 783.95,-131.8 786.34,-121.48 779.38,-122.24"/>
</a>
</g>
</g>
<!-- Node9 -->
<g id="Node000009" class="node">
<title>Node9</title>
<g id="a_Node000009"><a xlink:href="../../dc/df7/base__postgres__cache_8hpp.html" target="_top" xlink:title="Caching component for PostgreSQL. See Caching Component for PostgreSQL.">
<polygon fill="white" stroke="#666666" points="910,-30 791,-30 791,0 910,0 910,-30"/>
<text text-anchor="start" x="799" y="-18" font-family="Helvetica,sans-Serif" font-size="10.00">userver/cache/base</text>
<text text-anchor="middle" x="850.5" y="-7" font-family="Helvetica,sans-Serif" font-size="10.00">_postgres_cache.hpp</text>
</a>
</g>
</g>
<!-- Node8&#45;&gt;Node9 -->
<g id="edge8_Node000008_Node000009" class="edge">
<title>Node8&#45;&gt;Node9</title>
<g id="a_edge8_Node000008_Node000009"><a xlink:title=" ">
<path fill="none" stroke="#63b8ff" d="M802.21,-58.92C812.83,-49.49 825.07,-38.61 834.57,-30.16"/>
<polygon fill="#63b8ff" stroke="#63b8ff" points="799.63,-56.54 794.48,-65.8 804.28,-61.77 799.63,-56.54"/>
</a>
</g>
</g>
<!-- Node10 -->
<g id="Node000010" class="node">
<title>Node10</title>
<g id="a_Node000010"><a xlink:href="../../df/d02/postgres_8hpp.html" target="_top" xlink:title=" ">
<polygon fill="white" stroke="#666666" points="693,-30 550,-30 550,0 693,0 693,-30"/>
<text text-anchor="start" x="558" y="-18" font-family="Helvetica,sans-Serif" font-size="10.00">userver/storages/postgres</text>
<text text-anchor="middle" x="621.5" y="-7" font-family="Helvetica,sans-Serif" font-size="10.00">/postgres.hpp</text>
</a>
</g>
</g>
<!-- Node8&#45;&gt;Node10 -->
<g id="edge9_Node000008_Node000010" class="edge">
<title>Node8&#45;&gt;Node10</title>
<g id="a_edge9_Node000008_Node000010"><a xlink:title=" ">
<path fill="none" stroke="#63b8ff" d="M734.48,-62.05C709.6,-51.91 678.97,-39.43 655.87,-30.01"/>
<polygon fill="#63b8ff" stroke="#63b8ff" points="733.46,-65.42 744.05,-65.95 736.11,-58.94 733.46,-65.42"/>
</a>
</g>
</g>
<!-- Node11&#45;&gt;Node7 -->
<g id="edge11_Node000011_Node000007" class="edge">
<title>Node11&#45;&gt;Node7</title>
<g id="a_edge11_Node000011_Node000007"><a xlink:title=" ">
<path fill="none" stroke="#63b8ff" d="M785.5,-187.54C785.5,-178.96 785.5,-169.61 785.5,-162.16"/>
<polygon fill="#63b8ff" stroke="#63b8ff" points="782,-187.8 785.5,-197.8 789,-187.8 782,-187.8"/>
</a>
</g>
</g>
<!-- Node11&#45;&gt;Node12 -->
<g id="edge12_Node000011_Node000012" class="edge">
<title>Node11&#45;&gt;Node12</title>
<g id="a_edge12_Node000011_Node000012"><a xlink:title=" ">
<path fill="none" stroke="#63b8ff" d="M739.86,-194.19C713.81,-184.02 681.63,-171.47 657.41,-162.01"/>
<polygon fill="#63b8ff" stroke="#63b8ff" points="738.92,-197.58 749.51,-197.95 741.47,-191.06 738.92,-197.58"/>
</a>
</g>
</g>
<!-- Node12&#45;&gt;Node8 -->
<g id="edge13_Node000012_Node000008" class="edge">
<title>Node12&#45;&gt;Node8</title>
<g id="a_edge13_Node000012_Node000008"><a xlink:title=" ">
<path fill="none" stroke="#63b8ff" d="M665.52,-128.05C690.4,-117.91 721.03,-105.43 744.13,-96.01"/>
<polygon fill="#63b8ff" stroke="#63b8ff" points="663.89,-124.94 655.95,-131.95 666.54,-131.42 663.89,-124.94"/>
</a>
</g>
</g>
<!-- Node12&#45;&gt;Node10 -->
<g id="edge14_Node000012_Node000010" class="edge">
<title>Node12&#45;&gt;Node10</title>
<g id="a_edge14_Node000012_Node000010"><a xlink:title=" ">
<path fill="none" stroke="#63b8ff" d="M621.5,-121.68C621.5,-94.7 621.5,-52.11 621.5,-30.14"/>
<polygon fill="#63b8ff" stroke="#63b8ff" points="618,-121.84 621.5,-131.84 625,-121.84 618,-121.84"/>
</a>
</g>
</g>
<!-- Node13&#45;&gt;Node12 -->
<g id="edge16_Node000013_Node000012" class="edge">
<title>Node13&#45;&gt;Node12</title>
<g id="a_edge16_Node000013_Node000012"><a xlink:title=" ">
<path fill="none" stroke="#63b8ff" d="M598.46,-188.96C603.5,-180 609.11,-170.03 613.53,-162.16"/>
<polygon fill="#63b8ff" stroke="#63b8ff" points="595.34,-187.36 593.49,-197.8 601.44,-190.8 595.34,-187.36"/>
</a>
</g>
</g>
<!-- Node14&#45;&gt;Node7 -->
<g id="edge19_Node000014_Node000007" class="edge">
<title>Node14&#45;&gt;Node7</title>
<g id="a_edge19_Node000014_Node000007"><a xlink:title=" ">
<path fill="none" stroke="#63b8ff" d="M444.73,-256.48C465.97,-234.09 497.29,-201.76 504.5,-198 509.12,-195.59 629.04,-174.75 710.72,-160.75"/>
<polygon fill="#63b8ff" stroke="#63b8ff" points="442.02,-254.25 437.69,-263.92 447.1,-259.06 442.02,-254.25"/>
</a>
</g>
</g>
<!-- Node14&#45;&gt;Node10 -->
<g id="edge24_Node000014_Node000010" class="edge">
<title>Node14&#45;&gt;Node10</title>
<g id="a_edge24_Node000014_Node000010"><a xlink:title=" ">
<path fill="none" stroke="#63b8ff" d="M342.63,-275.94C269.88,-270.55 179.49,-253.03 210.5,-198 278.79,-76.82 451.24,-36.15 549.69,-22.63"/>
<polygon fill="#63b8ff" stroke="#63b8ff" points="342.55,-279.44 352.76,-276.62 343.02,-272.46 342.55,-279.44"/>
</a>
</g>
</g>
<!-- Node14&#45;&gt;Node12 -->
<g id="edge25_Node000014_Node000012" class="edge">
<title>Node14&#45;&gt;Node12</title>
<g id="a_edge25_Node000014_Node000012"><a xlink:title=" ">
<path fill="none" stroke="#63b8ff" d="M433.06,-254.32C440.63,-236.51 453.31,-212.73 471.5,-198 493.9,-179.86 523.16,-168.19 549.88,-160.73"/>
<polygon fill="#63b8ff" stroke="#63b8ff" points="429.75,-253.17 429.29,-263.76 436.25,-255.77 429.75,-253.17"/>
</a>
</g>
</g>
<!-- Node14&#45;&gt;Node13 -->
<g id="edge23_Node000014_Node000013" class="edge">
<title>Node14&#45;&gt;Node13</title>
<g id="a_edge23_Node000014_Node000013"><a xlink:title=" ">
<path fill="none" stroke="#63b8ff" d="M469.31,-260.19C494.87,-250.02 526.47,-237.47 550.25,-228.01"/>
<polygon fill="#63b8ff" stroke="#63b8ff" points="467.83,-257.01 459.83,-263.95 470.42,-263.51 467.83,-257.01"/>
</a>
</g>
</g>
<!-- Node15 -->
<g id="Node000015" class="node">
<title>Node15</title>
<g id="a_Node000015"><a xlink:href="../../d7/d52/typed__rows_8hpp_source.html" target="_top" xlink:title=" ">
<polygon fill="white" stroke="#666666" points="363,-228 220,-228 220,-198 363,-198 363,-228"/>
<text text-anchor="start" x="228" y="-216" font-family="Helvetica,sans-Serif" font-size="10.00">userver/storages/postgres</text>
<text text-anchor="middle" x="291.5" y="-205" font-family="Helvetica,sans-Serif" font-size="10.00">/detail/typed_rows.hpp</text>
</a>
</g>
</g>
<!-- Node14&#45;&gt;Node15 -->
<g id="edge20_Node000014_Node000015" class="edge">
<title>Node14&#45;&gt;Node15</title>
<g id="a_edge20_Node000014_Node000015"><a xlink:title=" ">
<path fill="none" stroke="#63b8ff" d="M386.08,-259.51C365.22,-249.47 339.83,-237.26 320.62,-228.01"/>
<polygon fill="#63b8ff" stroke="#63b8ff" points="384.78,-262.77 395.31,-263.95 387.82,-256.46 384.78,-262.77"/>
</a>
</g>
</g>
<!-- Node16 -->
<g id="Node000016" class="node">
<title>Node16</title>
<g id="a_Node000016"><a xlink:href="../../d1/dee/typed__result__set_8hpp.html" target="_top" xlink:title="Typed PostgreSQL results.">
<polygon fill="white" stroke="#666666" points="472,-162 329,-162 329,-132 472,-132 472,-162"/>
<text text-anchor="start" x="337" y="-150" font-family="Helvetica,sans-Serif" font-size="10.00">userver/storages/postgres</text>
<text text-anchor="middle" x="400.5" y="-139" font-family="Helvetica,sans-Serif" font-size="10.00">/typed_result_set.hpp</text>
</a>
</g>
</g>
<!-- Node14&#45;&gt;Node16 -->
<g id="edge26_Node000014_Node000016" class="edge">
<title>Node14&#45;&gt;Node16</title>
<g id="a_edge26_Node000014_Node000016"><a xlink:title=" ">
<path fill="none" stroke="#63b8ff" d="M414.7,-254.04C407.61,-227.08 400.02,-184.21 398.71,-162.14"/>
<polygon fill="#63b8ff" stroke="#63b8ff" points="411.39,-255.18 417.48,-263.84 418.12,-253.26 411.39,-255.18"/>
</a>
</g>
</g>
<!-- Node15&#45;&gt;Node16 -->
<g id="edge21_Node000015_Node000016" class="edge">
<title>Node15&#45;&gt;Node16</title>
<g id="a_edge21_Node000015_Node000016"><a xlink:title=" ">
<path fill="none" stroke="#63b8ff" d="M324.38,-192.69C341.21,-182.82 361.31,-171.01 376.64,-162.01"/>
<polygon fill="#63b8ff" stroke="#63b8ff" points="322.27,-189.87 315.42,-197.95 325.82,-195.91 322.27,-189.87"/>
</a>
</g>
</g>
<!-- Node16&#45;&gt;Node14 -->
<g id="edge22_Node000016_Node000014" class="edge">
<title>Node16&#45;&gt;Node14</title>
<g id="a_edge22_Node000016_Node000014"><a xlink:title=" ">
<path fill="none" stroke="#63b8ff" d="M410.29,-171.94C417.38,-198.89 424.98,-241.76 426.29,-263.84"/>
<polygon fill="#63b8ff" stroke="#63b8ff" points="413.61,-170.81 407.51,-162.14 406.87,-172.72 413.61,-170.81"/>
</a>
</g>
</g>
<!-- Node17&#45;&gt;Node5 -->
<g id="edge28_Node000017_Node000005" class="edge">
<title>Node17&#45;&gt;Node5</title>
<g id="a_edge28_Node000017_Node000005"><a xlink:title=" ">
<path fill="none" stroke="#63b8ff" d="M338.72,-393.52C381.05,-383.14 435.1,-369.88 475.36,-360.01"/>
<polygon fill="#63b8ff" stroke="#63b8ff" points="337.66,-390.17 328.78,-395.95 339.32,-396.97 337.66,-390.17"/>
</a>
</g>
</g>
<!-- Node19&#45;&gt;Node5 -->
<g id="edge31_Node000019_Node000005" class="edge">
<title>Node19&#45;&gt;Node5</title>
<g id="a_edge31_Node000019_Node000005"><a xlink:title=" ">
<path fill="none" stroke="#63b8ff" d="M463.28,-390.3C478.5,-380.56 496.53,-369.02 510.37,-360.16"/>
<polygon fill="#63b8ff" stroke="#63b8ff" points="461.23,-387.46 454.69,-395.8 465,-393.35 461.23,-387.46"/>
</a>
</g>
</g>
<!-- Node20&#45;&gt;Node5 -->
<g id="edge33_Node000020_Node000005" class="edge">
<title>Node20&#45;&gt;Node5</title>
<g id="a_edge33_Node000020_Node000005"><a xlink:title=" ">
<path fill="none" stroke="#63b8ff" d="M459.71,-459.74C479.3,-452.34 498.56,-441.59 512.5,-426 528.91,-407.64 532.3,-377.84 532.75,-360.26"/>
<polygon fill="#63b8ff" stroke="#63b8ff" points="458.37,-456.5 450.09,-463.11 460.69,-463.1 458.37,-456.5"/>
</a>
</g>
</g>
<!-- Node22 -->
<g id="Node000022" class="node">
<title>Node22</title>
<g id="a_Node000022"><a xlink:href="../../d6/db8/chrono_8hpp.html" target="_top" xlink:title="Timestamp (std::chrono::*) I/O support.">
<polygon fill="white" stroke="#666666" points="995,-426 852,-426 852,-396 995,-396 995,-426"/>
<text text-anchor="start" x="860" y="-414" font-family="Helvetica,sans-Serif" font-size="10.00">userver/storages/postgres</text>
<text text-anchor="middle" x="923.5" y="-403" font-family="Helvetica,sans-Serif" font-size="10.00">/io/chrono.hpp</text>
</a>
</g>
</g>
<!-- Node21&#45;&gt;Node22 -->
<g id="edge35_Node000021_Node000022" class="edge">
<title>Node21&#45;&gt;Node22</title>
<g id="a_edge35_Node000021_Node000022"><a xlink:title=" ">
<path fill="none" stroke="#63b8ff" d="M660.32,-460.82C718.6,-450.01 796.18,-435.62 851.99,-425.27"/>
<polygon fill="#63b8ff" stroke="#63b8ff" points="659.6,-457.4 650.4,-462.66 660.87,-464.28 659.6,-457.4"/>
</a>
</g>
</g>
<!-- Node22&#45;&gt;Node5 -->
<g id="edge37_Node000022_Node000005" class="edge">
<title>Node22&#45;&gt;Node5</title>
<g id="a_edge37_Node000022_Node000005"><a xlink:title=" ">
<path fill="none" stroke="#63b8ff" d="M841.65,-396.6C771.41,-385.11 671.19,-368.7 604.09,-357.72"/>
<polygon fill="#63b8ff" stroke="#63b8ff" points="841.35,-400.1 851.78,-398.26 842.48,-393.19 841.35,-400.1"/>
</a>
</g>
</g>
<!-- Node22&#45;&gt;Node9 -->
<g id="edge36_Node000022_Node000009" class="edge">
<title>Node22&#45;&gt;Node9</title>
<g id="a_edge36_Node000022_Node000009"><a xlink:title=" ">
<path fill="none" stroke="#63b8ff" d="M923.5,-385.86C923.5,-359.76 923.5,-316.93 923.5,-280 923.5,-280 923.5,-280 923.5,-146 923.5,-98.63 886.2,-52.56 864.92,-30.13"/>
<polygon fill="#63b8ff" stroke="#63b8ff" points="920,-385.96 923.5,-395.96 927,-385.96 920,-385.96"/>
</a>
</g>
</g>
<!-- Node23&#45;&gt;Node5 -->
<g id="edge40_Node000023_Node000005" class="edge">
<title>Node23&#45;&gt;Node5</title>
<g id="a_edge40_Node000023_Node000005"><a xlink:title=" ">
<path fill="none" stroke="#63b8ff" d="M777.33,-525.17C794.3,-517.8 810.08,-507.22 820.5,-492 828.03,-481 827,-473.64 820.5,-462 778.14,-386.1 674.88,-359.79 604.24,-350.72"/>
<polygon fill="#63b8ff" stroke="#63b8ff" points="775.81,-522 767.8,-528.94 778.38,-528.51 775.81,-522"/>
</a>
</g>
</g>
<!-- Node23&#45;&gt;Node18 -->
<g id="edge39_Node000023_Node000018" class="edge">
<title>Node23&#45;&gt;Node18</title>
<g id="a_edge39_Node000023_Node000018"><a xlink:title=" ">
<path fill="none" stroke="#63b8ff" d="M708.36,-519.53C715.18,-510.43 722.85,-500.19 728.88,-492.16"/>
<polygon fill="#63b8ff" stroke="#63b8ff" points="705.35,-517.7 702.15,-527.8 710.95,-521.9 705.35,-517.7"/>
</a>
</g>
</g>
<!-- Node24&#45;&gt;Node22 -->
<g id="edge42_Node000024_Node000022" class="edge">
<title>Node24&#45;&gt;Node22</title>
<g id="a_edge42_Node000024_Node000022"><a xlink:title=" ">
<path fill="none" stroke="#63b8ff" d="M869.31,-518.75C882.96,-491.84 905.02,-448.4 916.32,-426.14"/>
<polygon fill="#63b8ff" stroke="#63b8ff" points="866.09,-517.34 864.69,-527.84 872.34,-520.51 866.09,-517.34"/>
</a>
</g>
</g>
</g>
</svg>
