<?xml version="1.0" encoding="UTF-8" standalone="no"?>
<!DOCTYPE svg PUBLIC "-//W3C//DTD SVG 1.1//EN"
 "http://www.w3.org/Graphics/SVG/1.1/DTD/svg11.dtd">
<!-- Generated by graphviz version 2.43.0 (0)
 -->
<!-- Title: userver/formats/json/value.hpp Pages: 1 -->
<svg width="2169pt" height="357pt"
 viewBox="0.00 0.00 2169.48 357.00" xmlns="http://www.w3.org/2000/svg" xmlns:xlink="http://www.w3.org/1999/xlink">
<g id="graph0" class="graph" transform="scale(1 1) rotate(0) translate(4 353)">
<title>userver/formats/json/value.hpp</title>
<!-- Node1 -->
<g id="Node000001" class="node">
<title>Node1</title>
<g id="a_Node000001"><a xlink:title="Non&#45;mutable JSON value representation.">
<polygon fill="#999999" stroke="#666666" points="927,-349 809,-349 809,-319 927,-319 927,-349"/>
<text text-anchor="start" x="817" y="-337" font-family="Helvetica,sans-Serif" font-size="10.00">userver/formats/json</text>
<text text-anchor="middle" x="868" y="-326" font-family="Helvetica,sans-Serif" font-size="10.00">/value.hpp</text>
</a>
</g>
</g>
<!-- Node2 -->
<g id="Node000002" class="node">
<title>Node2</title>
<g id="a_Node000002"><a xlink:title=" ">
<polygon fill="#e0e0e0" stroke="#999999" points="1002.5,-211.5 929.5,-211.5 929.5,-192.5 1002.5,-192.5 1002.5,-211.5"/>
<text text-anchor="middle" x="966" y="-199.5" font-family="Helvetica,sans-Serif" font-size="10.00">string_view</text>
</a>
</g>
</g>
<!-- Node1&#45;&gt;Node2 -->
<g id="edge1_Node000001_Node000002" class="edge">
<title>Node1&#45;&gt;Node2</title>
<g id="a_edge1_Node000001_Node000002"><a xlink:title=" ">
<path fill="none" stroke="#63b8ff" d="M894.18,-318.8C908.21,-310.07 924.86,-297.72 936,-283 949.95,-264.56 958.03,-238.92 962.22,-221.68"/>
<polygon fill="#63b8ff" stroke="#63b8ff" points="965.68,-222.25 964.44,-211.73 958.85,-220.73 965.68,-222.25"/>
</a>
</g>
</g>
<!-- Node3 -->
<g id="Node000003" class="node">
<title>Node3</title>
<g id="a_Node000003"><a xlink:title=" ">
<polygon fill="#e0e0e0" stroke="#999999" points="960.5,-19 891.5,-19 891.5,0 960.5,0 960.5,-19"/>
<text text-anchor="middle" x="926" y="-7" font-family="Helvetica,sans-Serif" font-size="10.00">type_traits</text>
</a>
</g>
</g>
<!-- Node1&#45;&gt;Node3 -->
<g id="edge2_Node000001_Node000003" class="edge">
<title>Node1&#45;&gt;Node3</title>
<g id="a_edge2_Node000001_Node000003"><a xlink:title=" ">
<path fill="none" stroke="#63b8ff" d="M808.63,-333.23C693.52,-332.64 432.43,-326.13 218,-283 116.82,-262.65 0,-306.21 0,-203 0,-203 0,-203 0,-135 0,-55.89 82.59,-75.49 159,-55 296.62,-18.09 738.77,-11.79 881.28,-10.72"/>
<polygon fill="#63b8ff" stroke="#63b8ff" points="881.43,-14.22 891.41,-10.65 881.38,-7.22 881.43,-14.22"/>
</a>
</g>
</g>
<!-- Node4 -->
<g id="Node000004" class="node">
<title>Node4</title>
<g id="a_Node000004"><a xlink:href="../../dd/d14/items_8hpp.html" target="_top" xlink:title="Wrapper for handy python&#45;like iteration over a map.">
<polygon fill="white" stroke="#666666" points="168,-217 28,-217 28,-187 168,-187 168,-217"/>
<text text-anchor="start" x="36" y="-205" font-family="Helvetica,sans-Serif" font-size="10.00">userver/formats/common</text>
<text text-anchor="middle" x="98" y="-194" font-family="Helvetica,sans-Serif" font-size="10.00">/items.hpp</text>
</a>
</g>
</g>
<!-- Node1&#45;&gt;Node4 -->
<g id="edge3_Node000001_Node000004" class="edge">
<title>Node1&#45;&gt;Node4</title>
<g id="a_edge3_Node000001_Node000004"><a xlink:title=" ">
<path fill="none" stroke="#63b8ff" d="M808.67,-332.43C707.6,-330.38 496.05,-321.41 322,-283 256.07,-268.45 182.98,-239.85 138.78,-221.09"/>
<polygon fill="#63b8ff" stroke="#63b8ff" points="140.1,-217.84 129.52,-217.12 137.34,-224.28 140.1,-217.84"/>
</a>
</g>
</g>
<!-- Node8 -->
<g id="Node000008" class="node">
<title>Node8</title>
<g id="a_Node000008"><a xlink:href="../../da/d00/universal_2include_2userver_2formats_2common_2meta_8hpp.html" target="_top" xlink:title="Metaprogramming helpers for converters detection.">
<polygon fill="white" stroke="#666666" points="1442,-217 1302,-217 1302,-187 1442,-187 1442,-217"/>
<text text-anchor="start" x="1310" y="-205" font-family="Helvetica,sans-Serif" font-size="10.00">userver/formats/common</text>
<text text-anchor="middle" x="1372" y="-194" font-family="Helvetica,sans-Serif" font-size="10.00">/meta.hpp</text>
</a>
</g>
</g>
<!-- Node1&#45;&gt;Node8 -->
<g id="edge8_Node000001_Node000008" class="edge">
<title>Node1&#45;&gt;Node8</title>
<g id="a_edge8_Node000001_Node000008"><a xlink:title=" ">
<path fill="none" stroke="#63b8ff" d="M927.1,-328.47C977.64,-322.84 1051.28,-310.36 1110,-283 1129.5,-273.91 1128.57,-262.24 1148,-253 1161.2,-246.72 1232.89,-231.21 1291.66,-219.11"/>
<polygon fill="#63b8ff" stroke="#63b8ff" points="1292.62,-222.49 1301.71,-217.05 1291.22,-215.63 1292.62,-222.49"/>
</a>
</g>
</g>
<!-- Node13 -->
<g id="Node000013" class="node">
<title>Node13</title>
<g id="a_Node000013"><a xlink:href="../../d1/dd7/universal_2include_2userver_2formats_2json_2exception_8hpp.html" target="_top" xlink:title="Exception classes for JSON module.">
<polygon fill="white" stroke="#666666" points="1101,-283 983,-283 983,-253 1101,-253 1101,-283"/>
<text text-anchor="start" x="991" y="-271" font-family="Helvetica,sans-Serif" font-size="10.00">userver/formats/json</text>
<text text-anchor="middle" x="1042" y="-260" font-family="Helvetica,sans-Serif" font-size="10.00">/exception.hpp</text>
</a>
</g>
</g>
<!-- Node1&#45;&gt;Node13 -->
<g id="edge16_Node000001_Node000013" class="edge">
<title>Node1&#45;&gt;Node13</title>
<g id="a_edge16_Node000001_Node000013"><a xlink:title=" ">
<path fill="none" stroke="#63b8ff" d="M906.19,-318.95C932.14,-309.41 966.66,-296.71 994.4,-286.51"/>
<polygon fill="#63b8ff" stroke="#63b8ff" points="995.73,-289.75 1003.9,-283.01 993.31,-283.18 995.73,-289.75"/>
</a>
</g>
</g>
<!-- Node16 -->
<g id="Node000016" class="node">
<title>Node16</title>
<g id="a_Node000016"><a xlink:href="../../d7/d67/universal_2include_2userver_2formats_2json_2impl_2types_8hpp_source.html" target="_top" xlink:title=" ">
<polygon fill="white" stroke="#666666" points="522,-283 404,-283 404,-253 522,-253 522,-283"/>
<text text-anchor="start" x="412" y="-271" font-family="Helvetica,sans-Serif" font-size="10.00">userver/formats/json</text>
<text text-anchor="middle" x="463" y="-260" font-family="Helvetica,sans-Serif" font-size="10.00">/impl/types.hpp</text>
</a>
</g>
</g>
<!-- Node1&#45;&gt;Node16 -->
<g id="edge21_Node000001_Node000016" class="edge">
<title>Node1&#45;&gt;Node16</title>
<g id="a_edge21_Node000001_Node000016"><a xlink:title=" ">
<path fill="none" stroke="#63b8ff" d="M808.68,-323.63C735.19,-312.01 610.19,-292.26 532.34,-279.96"/>
<polygon fill="#63b8ff" stroke="#63b8ff" points="532.58,-276.45 522.15,-278.35 531.48,-283.37 532.58,-276.45"/>
</a>
</g>
</g>
<!-- Node19 -->
<g id="Node000019" class="node">
<title>Node19</title>
<g id="a_Node000019"><a xlink:href="../../d5/d8f/universal_2include_2userver_2formats_2json_2iterator_8hpp.html" target="_top" xlink:title="Iterator for formats::json::Value">
<polygon fill="white" stroke="#666666" points="304,-217 186,-217 186,-187 304,-187 304,-217"/>
<text text-anchor="start" x="194" y="-205" font-family="Helvetica,sans-Serif" font-size="10.00">userver/formats/json</text>
<text text-anchor="middle" x="245" y="-194" font-family="Helvetica,sans-Serif" font-size="10.00">/iterator.hpp</text>
</a>
</g>
</g>
<!-- Node1&#45;&gt;Node19 -->
<g id="edge25_Node000001_Node000019" class="edge">
<title>Node1&#45;&gt;Node19</title>
<g id="a_edge25_Node000001_Node000019"><a xlink:title=" ">
<path fill="none" stroke="#63b8ff" d="M808.67,-333.93C717.62,-333.77 538.88,-327.13 395,-283 350,-269.19 302.84,-241.54 273.69,-222.65"/>
<polygon fill="#63b8ff" stroke="#63b8ff" points="275.52,-219.66 265.24,-217.09 271.67,-225.51 275.52,-219.66"/>
</a>
</g>
</g>
<!-- Node22 -->
<g id="Node000022" class="node">
<title>Node22</title>
<g id="a_Node000022"><a xlink:href="../../d5/dfd/universal_2include_2userver_2formats_2json_2serialize_8hpp.html" target="_top" xlink:title="Parsers and serializers to/from string and stream.">
<polygon fill="white" stroke="#666666" points="927,-283 809,-283 809,-253 927,-253 927,-283"/>
<text text-anchor="start" x="817" y="-271" font-family="Helvetica,sans-Serif" font-size="10.00">userver/formats/json</text>
<text text-anchor="middle" x="868" y="-260" font-family="Helvetica,sans-Serif" font-size="10.00">/serialize.hpp</text>
</a>
</g>
</g>
<!-- Node1&#45;&gt;Node22 -->
<g id="edge30_Node000001_Node000022" class="edge">
<title>Node1&#45;&gt;Node22</title>
<g id="a_edge30_Node000001_Node000022"><a xlink:title=" ">
<path fill="none" stroke="#63b8ff" d="M862.28,-318.8C861.3,-311.26 861.02,-301.78 861.43,-293.13"/>
<polygon fill="#63b8ff" stroke="#63b8ff" points="864.92,-293.43 862.29,-283.16 857.95,-292.83 864.92,-293.43"/>
</a>
</g>
</g>
<!-- Node29 -->
<g id="Node000029" class="node">
<title>Node29</title>
<g id="a_Node000029"><a xlink:href="../../d3/d3f/string__builder__fwd_8hpp.html" target="_top" xlink:title="Forward declaration of formats::json::StringBuilder.">
<polygon fill="white" stroke="#666666" points="1287,-283 1157,-283 1157,-253 1287,-253 1287,-283"/>
<text text-anchor="start" x="1165" y="-271" font-family="Helvetica,sans-Serif" font-size="10.00">userver/formats/json</text>
<text text-anchor="middle" x="1222" y="-260" font-family="Helvetica,sans-Serif" font-size="10.00">/string_builder_fwd.hpp</text>
</a>
</g>
</g>
<!-- Node1&#45;&gt;Node29 -->
<g id="edge42_Node000001_Node000029" class="edge">
<title>Node1&#45;&gt;Node29</title>
<g id="a_edge42_Node000001_Node000029"><a xlink:title=" ">
<path fill="none" stroke="#63b8ff" d="M927.25,-322.29C987.63,-311.37 1081.46,-294.41 1146.99,-282.56"/>
<polygon fill="#63b8ff" stroke="#63b8ff" points="1147.63,-286 1156.84,-280.78 1146.38,-279.11 1147.63,-286"/>
</a>
</g>
</g>
<!-- Node30 -->
<g id="Node000030" class="node">
<title>Node30</title>
<g id="a_Node000030"><a xlink:href="../../d1/deb/universal_2include_2userver_2formats_2parse_2common_8hpp.html" target="_top" xlink:title="Parsers and converters for std::chrono::seconds, std::chrono::system_clock::time_point and integral t...">
<polygon fill="white" stroke="#666666" points="1712.5,-283 1587.5,-283 1587.5,-253 1712.5,-253 1712.5,-283"/>
<text text-anchor="start" x="1595.5" y="-271" font-family="Helvetica,sans-Serif" font-size="10.00">userver/formats/parse</text>
<text text-anchor="middle" x="1650" y="-260" font-family="Helvetica,sans-Serif" font-size="10.00">/common.hpp</text>
</a>
</g>
</g>
<!-- Node1&#45;&gt;Node30 -->
<g id="edge43_Node000001_Node000030" class="edge">
<title>Node1&#45;&gt;Node30</title>
<g id="a_edge43_Node000001_Node000030"><a xlink:title=" ">
<path fill="none" stroke="#63b8ff" d="M927.1,-328.16C1067.97,-316.63 1423.22,-287.56 1577.08,-274.97"/>
<polygon fill="#63b8ff" stroke="#63b8ff" points="1577.68,-278.43 1587.36,-274.13 1577.11,-271.45 1577.68,-278.43"/>
</a>
</g>
</g>
<!-- Node4&#45;&gt;Node3 -->
<g id="edge7_Node000004_Node000003" class="edge">
<title>Node4&#45;&gt;Node3</title>
<g id="a_edge7_Node000004_Node000003"><a xlink:title=" ">
<path fill="none" stroke="#63b8ff" d="M83.04,-186.8C66.95,-169.81 45.74,-141.15 62,-121 114.1,-56.46 711.54,-21.38 881.28,-12.67"/>
<polygon fill="#63b8ff" stroke="#63b8ff" points="881.56,-16.16 891.37,-12.16 881.2,-9.17 881.56,-16.16"/>
</a>
</g>
</g>
<!-- Node5 -->
<g id="Node000005" class="node">
<title>Node5</title>
<g id="a_Node000005"><a xlink:title=" ">
<polygon fill="#e0e0e0" stroke="#999999" points="124.5,-145.5 71.5,-145.5 71.5,-126.5 124.5,-126.5 124.5,-145.5"/>
<text text-anchor="middle" x="98" y="-133.5" font-family="Helvetica,sans-Serif" font-size="10.00">cstddef</text>
</a>
</g>
</g>
<!-- Node4&#45;&gt;Node5 -->
<g id="edge4_Node000004_Node000005" class="edge">
<title>Node4&#45;&gt;Node5</title>
<g id="a_edge4_Node000004_Node000005"><a xlink:title=" ">
<path fill="none" stroke="#63b8ff" d="M98,-186.8C98,-177.7 98,-165.79 98,-155.9"/>
<polygon fill="#63b8ff" stroke="#63b8ff" points="101.5,-155.84 98,-145.84 94.5,-155.84 101.5,-155.84"/>
</a>
</g>
</g>
<!-- Node6 -->
<g id="Node000006" class="node">
<title>Node6</title>
<g id="a_Node000006"><a xlink:title=" ">
<polygon fill="#e0e0e0" stroke="#999999" points="195.5,-145.5 142.5,-145.5 142.5,-126.5 195.5,-126.5 195.5,-145.5"/>
<text text-anchor="middle" x="169" y="-133.5" font-family="Helvetica,sans-Serif" font-size="10.00">iterator</text>
</a>
</g>
</g>
<!-- Node4&#45;&gt;Node6 -->
<g id="edge5_Node000004_Node000006" class="edge">
<title>Node4&#45;&gt;Node6</title>
<g id="a_edge5_Node000004_Node000006"><a xlink:title=" ">
<path fill="none" stroke="#63b8ff" d="M113.76,-186.8C124.93,-176.72 139.94,-163.19 151.49,-152.78"/>
<polygon fill="#63b8ff" stroke="#63b8ff" points="154.1,-155.14 159.19,-145.84 149.42,-149.94 154.1,-155.14"/>
</a>
</g>
</g>
<!-- Node7 -->
<g id="Node000007" class="node">
<title>Node7</title>
<g id="a_Node000007"><a xlink:title=" ">
<polygon fill="#e0e0e0" stroke="#999999" points="1666,-145.5 1622,-145.5 1622,-126.5 1666,-126.5 1666,-145.5"/>
<text text-anchor="middle" x="1644" y="-133.5" font-family="Helvetica,sans-Serif" font-size="10.00">string</text>
</a>
</g>
</g>
<!-- Node4&#45;&gt;Node7 -->
<g id="edge6_Node000004_Node000007" class="edge">
<title>Node4&#45;&gt;Node7</title>
<g id="a_edge6_Node000004_Node000007"><a xlink:title=" ">
<path fill="none" stroke="#63b8ff" d="M168.13,-188.01C171.13,-187.63 174.09,-187.29 177,-187 493.06,-155.2 1294.01,-210.71 1606,-151 1609.01,-150.42 1612.1,-149.64 1615.15,-148.73"/>
<polygon fill="#63b8ff" stroke="#63b8ff" points="1616.28,-152.04 1624.63,-145.53 1614.03,-145.41 1616.28,-152.04"/>
</a>
</g>
</g>
<!-- Node8&#45;&gt;Node3 -->
<g id="edge9_Node000008_Node000003" class="edge">
<title>Node8&#45;&gt;Node3</title>
<g id="a_edge9_Node000008_Node000003"><a xlink:title=" ">
<path fill="none" stroke="#63b8ff" d="M1301.81,-188.11C1235.52,-175.7 1143.92,-157.82 1128,-151 1052.31,-118.56 976.07,-55.31 943.03,-26.04"/>
<polygon fill="#63b8ff" stroke="#63b8ff" points="945.02,-23.12 935.24,-19.06 940.35,-28.34 945.02,-23.12"/>
</a>
</g>
</g>
<!-- Node9 -->
<g id="Node000009" class="node">
<title>Node9</title>
<g id="a_Node000009"><a xlink:href="../../d2/dc8/universal_2include_2userver_2formats_2parse_2to_8hpp.html" target="_top" xlink:title="Helper for parsers.">
<polygon fill="white" stroke="#666666" points="1596.5,-151 1471.5,-151 1471.5,-121 1596.5,-121 1596.5,-151"/>
<text text-anchor="start" x="1479.5" y="-139" font-family="Helvetica,sans-Serif" font-size="10.00">userver/formats/parse</text>
<text text-anchor="middle" x="1534" y="-128" font-family="Helvetica,sans-Serif" font-size="10.00">/to.hpp</text>
</a>
</g>
</g>
<!-- Node8&#45;&gt;Node9 -->
<g id="edge10_Node000008_Node000009" class="edge">
<title>Node8&#45;&gt;Node9</title>
<g id="a_edge10_Node000008_Node000009"><a xlink:title=" ">
<path fill="none" stroke="#63b8ff" d="M1407.55,-186.95C1431.5,-177.49 1463.29,-164.93 1489,-154.78"/>
<polygon fill="#63b8ff" stroke="#63b8ff" points="1490.52,-157.94 1498.53,-151.01 1487.94,-151.43 1490.52,-157.94"/>
</a>
</g>
</g>
<!-- Node10 -->
<g id="Node000010" class="node">
<title>Node10</title>
<g id="a_Node000010"><a xlink:href="../../d6/d8e/universal_2include_2userver_2formats_2serialize_2to_8hpp.html" target="_top" xlink:title="Helper for serializers.">
<polygon fill="white" stroke="#666666" points="1441.5,-151 1302.5,-151 1302.5,-121 1441.5,-121 1441.5,-151"/>
<text text-anchor="start" x="1310.5" y="-139" font-family="Helvetica,sans-Serif" font-size="10.00">userver/formats/serialize</text>
<text text-anchor="middle" x="1372" y="-128" font-family="Helvetica,sans-Serif" font-size="10.00">/to.hpp</text>
</a>
</g>
</g>
<!-- Node8&#45;&gt;Node10 -->
<g id="edge11_Node000008_Node000010" class="edge">
<title>Node8&#45;&gt;Node10</title>
<g id="a_edge11_Node000008_Node000010"><a xlink:title=" ">
<path fill="none" stroke="#63b8ff" d="M1372,-186.8C1372,-179.34 1372,-169.99 1372,-161.41"/>
<polygon fill="#63b8ff" stroke="#63b8ff" points="1375.5,-161.16 1372,-151.16 1368.5,-161.16 1375.5,-161.16"/>
</a>
</g>
</g>
<!-- Node11 -->
<g id="Node000011" class="node">
<title>Node11</title>
<g id="a_Node000011"><a xlink:href="../../d3/da0/meta__light_8hpp.html" target="_top" xlink:title="Lightweight concepts.">
<polygon fill="white" stroke="#666666" points="1243,-151 1137,-151 1137,-121 1243,-121 1243,-151"/>
<text text-anchor="start" x="1145" y="-139" font-family="Helvetica,sans-Serif" font-size="10.00">userver/utils/meta</text>
<text text-anchor="middle" x="1190" y="-128" font-family="Helvetica,sans-Serif" font-size="10.00">_light.hpp</text>
</a>
</g>
</g>
<!-- Node8&#45;&gt;Node11 -->
<g id="edge12_Node000008_Node000011" class="edge">
<title>Node8&#45;&gt;Node11</title>
<g id="a_edge12_Node000008_Node000011"><a xlink:title=" ">
<path fill="none" stroke="#63b8ff" d="M1332.06,-186.95C1304.8,-177.37 1268.49,-164.6 1239.41,-154.37"/>
<polygon fill="#63b8ff" stroke="#63b8ff" points="1240.44,-151.03 1229.85,-151.01 1238.12,-157.63 1240.44,-151.03"/>
</a>
</g>
</g>
<!-- Node11&#45;&gt;Node3 -->
<g id="edge13_Node000011_Node000003" class="edge">
<title>Node11&#45;&gt;Node3</title>
<g id="a_edge13_Node000011_Node000003"><a xlink:title=" ">
<path fill="none" stroke="#63b8ff" d="M1173.55,-120.78C1149.65,-100.36 1106.19,-64.16 1088,-55 1050.58,-36.15 1004.15,-24.45 970.6,-17.8"/>
<polygon fill="#63b8ff" stroke="#63b8ff" points="971.11,-14.33 960.63,-15.9 969.8,-21.21 971.11,-14.33"/>
</a>
</g>
</g>
<!-- Node12 -->
<g id="Node000012" class="node">
<title>Node12</title>
<g id="a_Node000012"><a xlink:href="../../d9/dce/void__t_8hpp.html" target="_top" xlink:title="std::void_t implementation with workarounds for compiler bugs">
<polygon fill="white" stroke="#666666" points="1241.5,-85 1140.5,-85 1140.5,-55 1241.5,-55 1241.5,-85"/>
<text text-anchor="start" x="1148.5" y="-73" font-family="Helvetica,sans-Serif" font-size="10.00">userver/utils/void</text>
<text text-anchor="middle" x="1191" y="-62" font-family="Helvetica,sans-Serif" font-size="10.00">_t.hpp</text>
</a>
</g>
</g>
<!-- Node11&#45;&gt;Node12 -->
<g id="edge14_Node000011_Node000012" class="edge">
<title>Node11&#45;&gt;Node12</title>
<g id="a_edge14_Node000011_Node000012"><a xlink:title=" ">
<path fill="none" stroke="#63b8ff" d="M1190.22,-120.8C1190.34,-113.34 1190.48,-103.99 1190.62,-95.41"/>
<polygon fill="#63b8ff" stroke="#63b8ff" points="1194.12,-95.22 1190.78,-85.16 1187.12,-95.11 1194.12,-95.22"/>
</a>
</g>
</g>
<!-- Node12&#45;&gt;Node3 -->
<g id="edge15_Node000012_Node000003" class="edge">
<title>Node12&#45;&gt;Node3</title>
<g id="a_edge15_Node000012_Node000003"><a xlink:title=" ">
<path fill="none" stroke="#63b8ff" d="M1140.22,-57.79C1091.07,-46.94 1017.32,-30.66 970.44,-20.31"/>
<polygon fill="#63b8ff" stroke="#63b8ff" points="971.1,-16.87 960.58,-18.13 969.59,-23.71 971.1,-16.87"/>
</a>
</g>
</g>
<!-- Node13&#45;&gt;Node2 -->
<g id="edge20_Node000013_Node000002" class="edge">
<title>Node13&#45;&gt;Node2</title>
<g id="a_edge20_Node000013_Node000002"><a xlink:title=" ">
<path fill="none" stroke="#63b8ff" d="M1025.13,-252.8C1013.05,-242.62 996.79,-228.93 984.38,-218.48"/>
<polygon fill="#63b8ff" stroke="#63b8ff" points="986.41,-215.61 976.5,-211.84 981.9,-220.96 986.41,-215.61"/>
</a>
</g>
</g>
<!-- Node13&#45;&gt;Node7 -->
<g id="edge19_Node000013_Node000007" class="edge">
<title>Node13&#45;&gt;Node7</title>
<g id="a_edge19_Node000013_Node000007"><a xlink:title=" ">
<path fill="none" stroke="#63b8ff" d="M1101.13,-259.05C1116.39,-257.04 1132.8,-254.91 1148,-253 1282.56,-236.12 1324.26,-265.24 1451,-217 1472.78,-208.71 1473.12,-197.35 1494,-187 1540.85,-163.78 1556.57,-168.04 1606,-151 1608.11,-150.27 1610.27,-149.51 1612.45,-148.74"/>
<polygon fill="#63b8ff" stroke="#63b8ff" points="1613.74,-151.99 1621.95,-145.3 1611.36,-145.41 1613.74,-151.99"/>
</a>
</g>
</g>
<!-- Node14 -->
<g id="Node000014" class="node">
<title>Node14</title>
<g id="a_Node000014"><a xlink:title=" ">
<polygon fill="#e0e0e0" stroke="#999999" points="980,-145.5 932,-145.5 932,-126.5 980,-126.5 980,-145.5"/>
<text text-anchor="middle" x="956" y="-133.5" font-family="Helvetica,sans-Serif" font-size="10.00">iosfwd</text>
</a>
</g>
</g>
<!-- Node13&#45;&gt;Node14 -->
<g id="edge17_Node000013_Node000014" class="edge">
<title>Node13&#45;&gt;Node14</title>
<g id="a_edge17_Node000013_Node000014"><a xlink:title=" ">
<path fill="none" stroke="#63b8ff" d="M1038.87,-252.73C1034.7,-235.92 1026.16,-207.68 1012,-187 1002.61,-173.29 988.68,-160.83 977.07,-151.78"/>
<polygon fill="#63b8ff" stroke="#63b8ff" points="978.85,-148.75 968.75,-145.56 974.66,-154.35 978.85,-148.75"/>
</a>
</g>
</g>
<!-- Node15 -->
<g id="Node000015" class="node">
<title>Node15</title>
<g id="a_Node000015"><a xlink:title=" ">
<polygon fill="#e0e0e0" stroke="#999999" points="1844.5,-145.5 1779.5,-145.5 1779.5,-126.5 1844.5,-126.5 1844.5,-145.5"/>
<text text-anchor="middle" x="1812" y="-133.5" font-family="Helvetica,sans-Serif" font-size="10.00">stdexcept</text>
</a>
</g>
</g>
<!-- Node13&#45;&gt;Node15 -->
<g id="edge18_Node000013_Node000015" class="edge">
<title>Node13&#45;&gt;Node15</title>
<g id="a_edge18_Node000013_Node000015"><a xlink:title=" ">
<path fill="none" stroke="#63b8ff" d="M1101.12,-258.92C1116.38,-256.91 1132.79,-254.81 1148,-253 1298.01,-235.11 1339.06,-252.11 1486,-217 1522.53,-208.27 1528.92,-197.43 1565,-187 1635.44,-166.64 1719.5,-151.51 1769.17,-143.49"/>
<polygon fill="#63b8ff" stroke="#63b8ff" points="1769.9,-146.92 1779.22,-141.89 1768.8,-140 1769.9,-146.92"/>
</a>
</g>
</g>
<!-- Node16&#45;&gt;Node3 -->
<g id="edge23_Node000016_Node000003" class="edge">
<title>Node16&#45;&gt;Node3</title>
<g id="a_edge23_Node000016_Node000003"><a xlink:title=" ">
<path fill="none" stroke="#63b8ff" d="M403.89,-254.59C383.6,-247.2 362.99,-235.49 351,-217 343.74,-205.81 344.06,-198.39 351,-187 407.89,-93.66 756.31,-34.94 881.37,-16.65"/>
<polygon fill="#63b8ff" stroke="#63b8ff" points="881.98,-20.09 891.38,-15.2 880.98,-13.17 881.98,-20.09"/>
</a>
</g>
</g>
<!-- Node17 -->
<g id="Node000017" class="node">
<title>Node17</title>
<g id="a_Node000017"><a xlink:title=" ">
<polygon fill="#e0e0e0" stroke="#999999" points="418,-211.5 360,-211.5 360,-192.5 418,-192.5 418,-211.5"/>
<text text-anchor="middle" x="389" y="-199.5" font-family="Helvetica,sans-Serif" font-size="10.00">memory</text>
</a>
</g>
</g>
<!-- Node16&#45;&gt;Node17 -->
<g id="edge22_Node000016_Node000017" class="edge">
<title>Node16&#45;&gt;Node17</title>
<g id="a_edge22_Node000016_Node000017"><a xlink:title=" ">
<path fill="none" stroke="#63b8ff" d="M446.58,-252.8C434.81,-242.62 418.98,-228.93 406.9,-218.48"/>
<polygon fill="#63b8ff" stroke="#63b8ff" points="409.08,-215.74 399.23,-211.84 404.5,-221.03 409.08,-215.74"/>
</a>
</g>
</g>
<!-- Node18 -->
<g id="Node000018" class="node">
<title>Node18</title>
<g id="a_Node000018"><a xlink:href="../../da/d72/type_8hpp.html" target="_top" xlink:title="Common enum of types.">
<polygon fill="white" stroke="#666666" points="576,-217 436,-217 436,-187 576,-187 576,-217"/>
<text text-anchor="start" x="444" y="-205" font-family="Helvetica,sans-Serif" font-size="10.00">userver/formats/common</text>
<text text-anchor="middle" x="506" y="-194" font-family="Helvetica,sans-Serif" font-size="10.00">/type.hpp</text>
</a>
</g>
</g>
<!-- Node16&#45;&gt;Node18 -->
<g id="edge24_Node000016_Node000018" class="edge">
<title>Node16&#45;&gt;Node18</title>
<g id="a_edge24_Node000016_Node000018"><a xlink:title=" ">
<path fill="none" stroke="#63b8ff" d="M472.54,-252.8C477.89,-244.84 484.68,-234.74 490.74,-225.71"/>
<polygon fill="#63b8ff" stroke="#63b8ff" points="493.81,-227.42 496.48,-217.16 488,-223.51 493.81,-227.42"/>
</a>
</g>
</g>
<!-- Node19&#45;&gt;Node6 -->
<g id="edge26_Node000019_Node000006" class="edge">
<title>Node19&#45;&gt;Node6</title>
<g id="a_edge26_Node000019_Node000006"><a xlink:title=" ">
<path fill="none" stroke="#63b8ff" d="M228.13,-186.8C216.05,-176.62 199.79,-162.93 187.38,-152.48"/>
<polygon fill="#63b8ff" stroke="#63b8ff" points="189.41,-149.61 179.5,-145.84 184.9,-154.96 189.41,-149.61"/>
</a>
</g>
</g>
<!-- Node19&#45;&gt;Node7 -->
<g id="edge28_Node000019_Node000007" class="edge">
<title>Node19&#45;&gt;Node7</title>
<g id="a_edge28_Node000019_Node000007"><a xlink:title=" ">
<path fill="none" stroke="#63b8ff" d="M304.03,-192.11C319.3,-190.11 335.73,-188.22 351,-187 629.11,-164.7 1332.06,-203.92 1606,-151 1609.01,-150.42 1612.1,-149.63 1615.15,-148.72"/>
<polygon fill="#63b8ff" stroke="#63b8ff" points="1616.27,-152.03 1624.62,-145.51 1614.03,-145.4 1616.27,-152.03"/>
</a>
</g>
</g>
<!-- Node20 -->
<g id="Node000020" class="node">
<title>Node20</title>
<g id="a_Node000020"><a xlink:title=" ">
<polygon fill="#e0e0e0" stroke="#999999" points="544,-145.5 488,-145.5 488,-126.5 544,-126.5 544,-145.5"/>
<text text-anchor="middle" x="516" y="-133.5" font-family="Helvetica,sans-Serif" font-size="10.00">optional</text>
</a>
</g>
</g>
<!-- Node19&#45;&gt;Node20 -->
<g id="edge27_Node000019_Node000020" class="edge">
<title>Node19&#45;&gt;Node20</title>
<g id="a_edge27_Node000019_Node000020"><a xlink:title=" ">
<path fill="none" stroke="#63b8ff" d="M304.14,-187.03C356.87,-174.58 432.53,-156.71 477.71,-146.04"/>
<polygon fill="#63b8ff" stroke="#63b8ff" points="478.77,-149.39 487.69,-143.69 477.16,-142.58 478.77,-149.39"/>
</a>
</g>
</g>
<!-- Node21 -->
<g id="Node000021" class="node">
<title>Node21</title>
<g id="a_Node000021"><a xlink:href="../../d0/d62/universal_2include_2userver_2formats_2common_2iterator__direction_8hpp_source.html" target="_top" xlink:title=" ">
<polygon fill="white" stroke="#666666" points="354,-151 214,-151 214,-121 354,-121 354,-151"/>
<text text-anchor="start" x="222" y="-139" font-family="Helvetica,sans-Serif" font-size="10.00">userver/formats/common</text>
<text text-anchor="middle" x="284" y="-128" font-family="Helvetica,sans-Serif" font-size="10.00">/iterator_direction.hpp</text>
</a>
</g>
</g>
<!-- Node19&#45;&gt;Node21 -->
<g id="edge29_Node000019_Node000021" class="edge">
<title>Node19&#45;&gt;Node21</title>
<g id="a_edge29_Node000019_Node000021"><a xlink:title=" ">
<path fill="none" stroke="#63b8ff" d="M253.66,-186.8C258.5,-178.84 264.66,-168.74 270.16,-159.71"/>
<polygon fill="#63b8ff" stroke="#63b8ff" points="273.15,-161.52 275.37,-151.16 267.18,-157.88 273.15,-161.52"/>
</a>
</g>
</g>
<!-- Node22&#45;&gt;Node1 -->
<g id="edge34_Node000022_Node000001" class="edge">
<title>Node22&#45;&gt;Node1</title>
<g id="a_edge34_Node000022_Node000001"><a xlink:title=" ">
<path fill="none" stroke="#63b8ff" d="M873.71,-283.16C874.69,-290.7 874.98,-300.17 874.57,-308.83"/>
<polygon fill="#63b8ff" stroke="#63b8ff" points="871.08,-308.54 873.72,-318.8 878.05,-309.13 871.08,-308.54"/>
</a>
</g>
</g>
<!-- Node22&#45;&gt;Node2 -->
<g id="edge32_Node000022_Node000002" class="edge">
<title>Node22&#45;&gt;Node2</title>
<g id="a_edge32_Node000022_Node000002"><a xlink:title=" ">
<path fill="none" stroke="#63b8ff" d="M889.75,-252.8C905.87,-242.27 927.76,-227.97 943.95,-217.4"/>
<polygon fill="#63b8ff" stroke="#63b8ff" points="946.28,-220.06 952.74,-211.66 942.46,-214.2 946.28,-220.06"/>
</a>
</g>
</g>
<!-- Node22&#45;&gt;Node14 -->
<g id="edge31_Node000022_Node000014" class="edge">
<title>Node22&#45;&gt;Node14</title>
<g id="a_edge31_Node000022_Node000014"><a xlink:title=" ">
<path fill="none" stroke="#63b8ff" d="M877.27,-252.76C887.77,-236.71 905.43,-209.86 921,-187 928.5,-175.98 937.08,-163.72 943.87,-154.1"/>
<polygon fill="#63b8ff" stroke="#63b8ff" points="946.82,-155.99 949.74,-145.8 941.1,-151.95 946.82,-155.99"/>
</a>
</g>
</g>
<!-- Node23 -->
<g id="Node000023" class="node">
<title>Node23</title>
<g id="a_Node000023"><a xlink:title=" ">
<polygon fill="#e0e0e0" stroke="#999999" points="1138.5,-211.5 1059.5,-211.5 1059.5,-192.5 1138.5,-192.5 1138.5,-211.5"/>
<text text-anchor="middle" x="1099" y="-199.5" font-family="Helvetica,sans-Serif" font-size="10.00">fmt/format.h</text>
</a>
</g>
</g>
<!-- Node22&#45;&gt;Node23 -->
<g id="edge33_Node000022_Node000023" class="edge">
<title>Node22&#45;&gt;Node23</title>
<g id="a_edge33_Node000022_Node000023"><a xlink:title=" ">
<path fill="none" stroke="#63b8ff" d="M918.69,-252.95C960.63,-241.34 1019.43,-225.05 1058.33,-214.27"/>
<polygon fill="#63b8ff" stroke="#63b8ff" points="1059.56,-217.56 1068.26,-211.52 1057.69,-210.81 1059.56,-217.56"/>
</a>
</g>
</g>
<!-- Node24 -->
<g id="Node000024" class="node">
<title>Node24</title>
<g id="a_Node000024"><a xlink:href="../../d5/d02/fast__pimpl_8hpp.html" target="_top" xlink:title="Implements pimpl idiom without dynamic memory allocation.">
<polygon fill="white" stroke="#666666" points="872.5,-217 773.5,-217 773.5,-187 872.5,-187 872.5,-217"/>
<text text-anchor="start" x="781.5" y="-205" font-family="Helvetica,sans-Serif" font-size="10.00">userver/utils/fast</text>
<text text-anchor="middle" x="823" y="-194" font-family="Helvetica,sans-Serif" font-size="10.00">_pimpl.hpp</text>
</a>
</g>
</g>
<!-- Node22&#45;&gt;Node24 -->
<g id="edge35_Node000022_Node000024" class="edge">
<title>Node22&#45;&gt;Node24</title>
<g id="a_edge35_Node000022_Node000024"><a xlink:title=" ">
<path fill="none" stroke="#63b8ff" d="M858.01,-252.8C852.36,-244.76 845.17,-234.53 838.77,-225.43"/>
<polygon fill="#63b8ff" stroke="#63b8ff" points="841.57,-223.33 832.96,-217.16 835.85,-227.36 841.57,-223.33"/>
</a>
</g>
</g>
<!-- Node27 -->
<g id="Node000027" class="node">
<title>Node27</title>
<g id="a_Node000027"><a xlink:href="../../d3/d6c/fmt__compat_8hpp_source.html" target="_top" xlink:title=" ">
<polygon fill="white" stroke="#666666" points="755.5,-211.5 594.5,-211.5 594.5,-192.5 755.5,-192.5 755.5,-211.5"/>
<text text-anchor="middle" x="675" y="-199.5" font-family="Helvetica,sans-Serif" font-size="10.00">userver/utils/fmt_compat.hpp</text>
</a>
</g>
</g>
<!-- Node22&#45;&gt;Node27 -->
<g id="edge40_Node000022_Node000027" class="edge">
<title>Node22&#45;&gt;Node27</title>
<g id="a_edge40_Node000022_Node000027"><a xlink:title=" ">
<path fill="none" stroke="#63b8ff" d="M825.65,-252.95C791.05,-241.48 742.74,-225.46 710.23,-214.68"/>
<polygon fill="#63b8ff" stroke="#63b8ff" points="711.28,-211.34 700.69,-211.52 709.08,-217.99 711.28,-211.34"/>
</a>
</g>
</g>
<!-- Node24&#45;&gt;Node3 -->
<g id="edge38_Node000024_Node000003" class="edge">
<title>Node24&#45;&gt;Node3</title>
<g id="a_edge38_Node000024_Node000003"><a xlink:title=" ">
<path fill="none" stroke="#63b8ff" d="M813.76,-186.94C804.26,-170.59 792.13,-143.01 802,-121 822.12,-76.13 870.46,-42 900.5,-24.22"/>
<polygon fill="#63b8ff" stroke="#63b8ff" points="902.61,-27.04 909.55,-19.03 899.13,-20.97 902.61,-27.04"/>
</a>
</g>
</g>
<!-- Node24&#45;&gt;Node5 -->
<g id="edge36_Node000024_Node000005" class="edge">
<title>Node24&#45;&gt;Node5</title>
<g id="a_edge36_Node000024_Node000005"><a xlink:title=" ">
<path fill="none" stroke="#63b8ff" d="M773.44,-188.42C770.6,-187.89 767.77,-187.41 765,-187 486.68,-145.83 407.64,-212.04 133,-151 130.63,-150.47 128.21,-149.8 125.8,-149.05"/>
<polygon fill="#63b8ff" stroke="#63b8ff" points="126.77,-145.67 116.17,-145.56 124.38,-152.25 126.77,-145.67"/>
</a>
</g>
</g>
<!-- Node25 -->
<g id="Node000025" class="node">
<title>Node25</title>
<g id="a_Node000025"><a xlink:title=" ">
<polygon fill="#e0e0e0" stroke="#999999" points="847.5,-145.5 810.5,-145.5 810.5,-126.5 847.5,-126.5 847.5,-145.5"/>
<text text-anchor="middle" x="829" y="-133.5" font-family="Helvetica,sans-Serif" font-size="10.00">new</text>
</a>
</g>
</g>
<!-- Node24&#45;&gt;Node25 -->
<g id="edge37_Node000024_Node000025" class="edge">
<title>Node24&#45;&gt;Node25</title>
<g id="a_edge37_Node000024_Node000025"><a xlink:title=" ">
<path fill="none" stroke="#63b8ff" d="M824.33,-186.8C825.18,-177.7 826.3,-165.79 827.23,-155.9"/>
<polygon fill="#63b8ff" stroke="#63b8ff" points="830.72,-156.13 828.17,-145.84 823.75,-155.47 830.72,-156.13"/>
</a>
</g>
</g>
<!-- Node26 -->
<g id="Node000026" class="node">
<title>Node26</title>
<g id="a_Node000026"><a xlink:title=" ">
<polygon fill="#e0e0e0" stroke="#999999" points="910.5,-145.5 865.5,-145.5 865.5,-126.5 910.5,-126.5 910.5,-145.5"/>
<text text-anchor="middle" x="888" y="-133.5" font-family="Helvetica,sans-Serif" font-size="10.00">utility</text>
</a>
</g>
</g>
<!-- Node24&#45;&gt;Node26 -->
<g id="edge39_Node000024_Node000026" class="edge">
<title>Node24&#45;&gt;Node26</title>
<g id="a_edge39_Node000024_Node000026"><a xlink:title=" ">
<path fill="none" stroke="#63b8ff" d="M837.43,-186.8C847.56,-176.82 861.13,-163.46 871.66,-153.09"/>
<polygon fill="#63b8ff" stroke="#63b8ff" points="874.35,-155.35 879.02,-145.84 869.44,-150.37 874.35,-155.35"/>
</a>
</g>
</g>
<!-- Node28 -->
<g id="Node000028" class="node">
<title>Node28</title>
<g id="a_Node000028"><a xlink:title=" ">
<polygon fill="#e0e0e0" stroke="#999999" points="708.5,-145.5 641.5,-145.5 641.5,-126.5 708.5,-126.5 708.5,-145.5"/>
<text text-anchor="middle" x="675" y="-133.5" font-family="Helvetica,sans-Serif" font-size="10.00">fmt/core.h</text>
</a>
</g>
</g>
<!-- Node27&#45;&gt;Node28 -->
<g id="edge41_Node000027_Node000028" class="edge">
<title>Node27&#45;&gt;Node28</title>
<g id="a_edge41_Node000027_Node000028"><a xlink:title=" ">
<path fill="none" stroke="#63b8ff" d="M675,-192.37C675,-183.16 675,-168.29 675,-156.27"/>
<polygon fill="#63b8ff" stroke="#63b8ff" points="678.5,-155.91 675,-145.91 671.5,-155.91 678.5,-155.91"/>
</a>
</g>
</g>
<!-- Node30&#45;&gt;Node8 -->
<g id="edge48_Node000030_Node000008" class="edge">
<title>Node30&#45;&gt;Node8</title>
<g id="a_edge48_Node000030_Node000008"><a xlink:title=" ">
<path fill="none" stroke="#63b8ff" d="M1588.99,-252.95C1545.9,-243.03 1488.02,-229.71 1442.88,-219.32"/>
<polygon fill="#63b8ff" stroke="#63b8ff" points="1443.4,-215.85 1432.87,-217.01 1441.83,-222.67 1443.4,-215.85"/>
</a>
</g>
</g>
<!-- Node30&#45;&gt;Node9 -->
<g id="edge49_Node000030_Node000009" class="edge">
<title>Node30&#45;&gt;Node9</title>
<g id="a_edge49_Node000030_Node000009"><a xlink:title=" ">
<path fill="none" stroke="#63b8ff" d="M1614.79,-252.91C1597.81,-244.62 1578.3,-232.66 1565,-217 1551.34,-200.93 1543.31,-178.16 1538.86,-161.02"/>
<polygon fill="#63b8ff" stroke="#63b8ff" points="1542.24,-160.11 1536.53,-151.18 1535.43,-161.72 1542.24,-160.11"/>
</a>
</g>
</g>
<!-- Node30&#45;&gt;Node23 -->
<g id="edge47_Node000030_Node000023" class="edge">
<title>Node30&#45;&gt;Node23</title>
<g id="a_edge47_Node000030_Node000023"><a xlink:title=" ">
<path fill="none" stroke="#63b8ff" d="M1587.27,-264.36C1491.73,-259.53 1304.36,-246.87 1148,-217 1143.85,-216.21 1139.53,-215.22 1135.27,-214.14"/>
<polygon fill="#63b8ff" stroke="#63b8ff" points="1136.06,-210.73 1125.49,-211.51 1134.24,-217.49 1136.06,-210.73"/>
</a>
</g>
</g>
<!-- Node31 -->
<g id="Node000031" class="node">
<title>Node31</title>
<g id="a_Node000031"><a xlink:title=" ">
<polygon fill="#e0e0e0" stroke="#999999" points="1980,-145.5 1930,-145.5 1930,-126.5 1980,-126.5 1980,-145.5"/>
<text text-anchor="middle" x="1955" y="-133.5" font-family="Helvetica,sans-Serif" font-size="10.00">chrono</text>
</a>
</g>
</g>
<!-- Node30&#45;&gt;Node31 -->
<g id="edge44_Node000030_Node000031" class="edge">
<title>Node30&#45;&gt;Node31</title>
<g id="a_edge44_Node000030_Node000031"><a xlink:title=" ">
<path fill="none" stroke="#63b8ff" d="M1712.97,-265.4C1841.8,-261.46 2125.83,-249.2 2155,-217 2163.95,-207.12 2163.21,-197.51 2155,-187 2152.43,-183.71 2047.04,-158.58 1990.31,-145.25"/>
<polygon fill="#63b8ff" stroke="#63b8ff" points="1990.86,-141.78 1980.32,-142.9 1989.26,-148.6 1990.86,-141.78"/>
</a>
</g>
</g>
<!-- Node32 -->
<g id="Node000032" class="node">
<title>Node32</title>
<g id="a_Node000032"><a xlink:title=" ">
<polygon fill="#e0e0e0" stroke="#999999" points="1794,-211.5 1744,-211.5 1744,-192.5 1794,-192.5 1794,-211.5"/>
<text text-anchor="middle" x="1769" y="-199.5" font-family="Helvetica,sans-Serif" font-size="10.00">cstdint</text>
</a>
</g>
</g>
<!-- Node30&#45;&gt;Node32 -->
<g id="edge45_Node000030_Node000032" class="edge">
<title>Node30&#45;&gt;Node32</title>
<g id="a_edge45_Node000030_Node000032"><a xlink:title=" ">
<path fill="none" stroke="#63b8ff" d="M1676.12,-252.95C1696.34,-242.08 1724.18,-227.11 1744.09,-216.4"/>
<polygon fill="#63b8ff" stroke="#63b8ff" points="1746.01,-219.34 1753.16,-211.52 1742.7,-213.17 1746.01,-219.34"/>
</a>
</g>
</g>
<!-- Node33 -->
<g id="Node000033" class="node">
<title>Node33</title>
<g id="a_Node000033"><a xlink:title=" ">
<polygon fill="#e0e0e0" stroke="#999999" points="1856,-211.5 1812,-211.5 1812,-192.5 1856,-192.5 1856,-211.5"/>
<text text-anchor="middle" x="1834" y="-199.5" font-family="Helvetica,sans-Serif" font-size="10.00">limits</text>
</a>
</g>
</g>
<!-- Node30&#45;&gt;Node33 -->
<g id="edge46_Node000030_Node000033" class="edge">
<title>Node30&#45;&gt;Node33</title>
<g id="a_edge46_Node000030_Node000033"><a xlink:title=" ">
<path fill="none" stroke="#63b8ff" d="M1697.34,-252.98C1727.8,-243.61 1768.09,-230.54 1803,-217 1804.18,-216.54 1805.37,-216.07 1806.58,-215.57"/>
<polygon fill="#63b8ff" stroke="#63b8ff" points="1807.97,-218.78 1815.78,-211.62 1805.21,-212.35 1807.97,-218.78"/>
</a>
</g>
</g>
<!-- Node34 -->
<g id="Node000034" class="node">
<title>Node34</title>
<g id="a_Node000034"><a xlink:href="../../d7/d4a/datetime_8hpp.html" target="_top" xlink:title="Date and Time related converters.">
<polygon fill="white" stroke="#666666" points="2146,-211.5 2000,-211.5 2000,-192.5 2146,-192.5 2146,-211.5"/>
<text text-anchor="middle" x="2073" y="-199.5" font-family="Helvetica,sans-Serif" font-size="10.00">userver/utils/datetime.hpp</text>
</a>
</g>
</g>
<!-- Node30&#45;&gt;Node34 -->
<g id="edge50_Node000030_Node000034" class="edge">
<title>Node30&#45;&gt;Node34</title>
<g id="a_edge50_Node000030_Node000034"><a xlink:title=" ">
<path fill="none" stroke="#63b8ff" d="M1712.6,-258.27C1781.05,-248.62 1893.94,-232.4 1991,-217 1998.44,-215.82 2006.25,-214.54 2013.97,-213.25"/>
<polygon fill="#63b8ff" stroke="#63b8ff" points="2014.75,-216.67 2024.03,-211.55 2013.59,-209.76 2014.75,-216.67"/>
</a>
</g>
</g>
<!-- Node36 -->
<g id="Node000036" class="node">
<title>Node36</title>
<g id="a_Node000036"><a xlink:href="../../dd/d10/from__string__saturating_8hpp.html" target="_top" xlink:title="Saturating converters from strings to time points.">
<polygon fill="white" stroke="#666666" points="1726,-217 1574,-217 1574,-187 1726,-187 1726,-217"/>
<text text-anchor="start" x="1582" y="-205" font-family="Helvetica,sans-Serif" font-size="10.00">userver/utils/datetime</text>
<text text-anchor="middle" x="1650" y="-194" font-family="Helvetica,sans-Serif" font-size="10.00">/from_string_saturating.hpp</text>
</a>
</g>
</g>
<!-- Node30&#45;&gt;Node36 -->
<g id="edge55_Node000030_Node000036" class="edge">
<title>Node30&#45;&gt;Node36</title>
<g id="a_edge55_Node000030_Node000036"><a xlink:title=" ">
<path fill="none" stroke="#63b8ff" d="M1650,-252.8C1650,-245.34 1650,-235.99 1650,-227.41"/>
<polygon fill="#63b8ff" stroke="#63b8ff" points="1653.5,-227.16 1650,-217.16 1646.5,-227.16 1653.5,-227.16"/>
</a>
</g>
</g>
<!-- Node37 -->
<g id="Node000037" class="node">
<title>Node37</title>
<g id="a_Node000037"><a xlink:href="../../d0/d03/universal_2include_2userver_2utils_2meta_8hpp.html" target="_top" xlink:title="Metaprogramming, template variables and concepts.">
<polygon fill="white" stroke="#666666" points="1283.5,-211.5 1156.5,-211.5 1156.5,-192.5 1283.5,-192.5 1283.5,-211.5"/>
<text text-anchor="middle" x="1220" y="-199.5" font-family="Helvetica,sans-Serif" font-size="10.00">userver/utils/meta.hpp</text>
</a>
</g>
</g>
<!-- Node30&#45;&gt;Node37 -->
<g id="edge58_Node000030_Node000037" class="edge">
<title>Node30&#45;&gt;Node37</title>
<g id="a_edge58_Node000030_Node000037"><a xlink:title=" ">
<path fill="none" stroke="#63b8ff" d="M1587.3,-259.19C1515.89,-250.07 1395.8,-234.05 1293,-217 1286.33,-215.89 1279.33,-214.65 1272.42,-213.38"/>
<polygon fill="#63b8ff" stroke="#63b8ff" points="1272.87,-209.91 1262.4,-211.5 1271.58,-216.79 1272.87,-209.91"/>
</a>
</g>
</g>
<!-- Node39 -->
<g id="Node000039" class="node">
<title>Node39</title>
<g id="a_Node000039"><a xlink:href="../../dc/dff/string__to__duration_8hpp.html" target="_top" xlink:title="Converts strings like &quot;10s&quot;, &quot;5d&quot;, &quot;1h&quot; to durations.">
<polygon fill="white" stroke="#666666" points="1982,-217 1874,-217 1874,-187 1982,-187 1982,-217"/>
<text text-anchor="start" x="1882" y="-205" font-family="Helvetica,sans-Serif" font-size="10.00">userver/utils/string</text>
<text text-anchor="middle" x="1928" y="-194" font-family="Helvetica,sans-Serif" font-size="10.00">_to_duration.hpp</text>
</a>
</g>
</g>
<!-- Node30&#45;&gt;Node39 -->
<g id="edge65_Node000030_Node000039" class="edge">
<title>Node30&#45;&gt;Node39</title>
<g id="a_edge65_Node000030_Node000039"><a xlink:title=" ">
<path fill="none" stroke="#63b8ff" d="M1711.01,-252.95C1756.28,-242.53 1817.86,-228.36 1863.86,-217.77"/>
<polygon fill="#63b8ff" stroke="#63b8ff" points="1864.76,-221.15 1873.72,-215.5 1863.19,-214.33 1864.76,-221.15"/>
</a>
</g>
</g>
<!-- Node34&#45;&gt;Node7 -->
<g id="edge53_Node000034_Node000007" class="edge">
<title>Node34&#45;&gt;Node7</title>
<g id="a_edge53_Node000034_Node000007"><a xlink:title=" ">
<path fill="none" stroke="#63b8ff" d="M2024.47,-192.5C2013.47,-190.63 2001.84,-188.71 1991,-187 1875.58,-168.83 1738.13,-149.8 1676.6,-141.41"/>
<polygon fill="#63b8ff" stroke="#63b8ff" points="1676.74,-137.9 1666.36,-140.02 1675.8,-144.83 1676.74,-137.9"/>
</a>
</g>
</g>
<!-- Node34&#45;&gt;Node15 -->
<g id="edge52_Node000034_Node000015" class="edge">
<title>Node34&#45;&gt;Node15</title>
<g id="a_edge52_Node000034_Node000015"><a xlink:title=" ">
<path fill="none" stroke="#63b8ff" d="M2038.07,-192.44C1990.54,-180.78 1905.56,-159.94 1854.42,-147.4"/>
<polygon fill="#63b8ff" stroke="#63b8ff" points="1855.21,-143.99 1844.67,-145.01 1853.55,-150.79 1855.21,-143.99"/>
</a>
</g>
</g>
<!-- Node34&#45;&gt;Node31 -->
<g id="edge51_Node000034_Node000031" class="edge">
<title>Node34&#45;&gt;Node31</title>
<g id="a_edge51_Node000034_Node000031"><a xlink:title=" ">
<path fill="none" stroke="#63b8ff" d="M2057.09,-192.37C2037.29,-181.63 2003.27,-163.18 1979.99,-150.55"/>
<polygon fill="#63b8ff" stroke="#63b8ff" points="1981.5,-147.39 1971.04,-145.7 1978.16,-153.54 1981.5,-147.39"/>
</a>
</g>
</g>
<!-- Node35 -->
<g id="Node000035" class="node">
<title>Node35</title>
<g id="a_Node000035"><a xlink:title=" ">
<polygon fill="#e0e0e0" stroke="#999999" points="2121,-145.5 2025,-145.5 2025,-126.5 2121,-126.5 2121,-145.5"/>
<text text-anchor="middle" x="2073" y="-133.5" font-family="Helvetica,sans-Serif" font-size="10.00">cctz/civil_time.h</text>
</a>
</g>
</g>
<!-- Node34&#45;&gt;Node35 -->
<g id="edge54_Node000034_Node000035" class="edge">
<title>Node34&#45;&gt;Node35</title>
<g id="a_edge54_Node000034_Node000035"><a xlink:title=" ">
<path fill="none" stroke="#63b8ff" d="M2073,-192.37C2073,-183.16 2073,-168.29 2073,-156.27"/>
<polygon fill="#63b8ff" stroke="#63b8ff" points="2076.5,-155.91 2073,-145.91 2069.5,-155.91 2076.5,-155.91"/>
</a>
</g>
</g>
<!-- Node36&#45;&gt;Node7 -->
<g id="edge57_Node000036_Node000007" class="edge">
<title>Node36&#45;&gt;Node7</title>
<g id="a_edge57_Node000036_Node000007"><a xlink:title=" ">
<path fill="none" stroke="#63b8ff" d="M1648.67,-186.8C1647.82,-177.7 1646.7,-165.79 1645.77,-155.9"/>
<polygon fill="#63b8ff" stroke="#63b8ff" points="1649.25,-155.47 1644.83,-145.84 1642.28,-156.13 1649.25,-155.47"/>
</a>
</g>
</g>
<!-- Node36&#45;&gt;Node31 -->
<g id="edge56_Node000036_Node000031" class="edge">
<title>Node36&#45;&gt;Node31</title>
<g id="a_edge56_Node000036_Node000031"><a xlink:title=" ">
<path fill="none" stroke="#63b8ff" d="M1716.93,-186.95C1779.47,-173.83 1870.39,-154.75 1919.81,-144.38"/>
<polygon fill="#63b8ff" stroke="#63b8ff" points="1920.64,-147.79 1929.71,-142.31 1919.2,-140.94 1920.64,-147.79"/>
</a>
</g>
</g>
<!-- Node37&#45;&gt;Node3 -->
<g id="edge62_Node000037_Node000003" class="edge">
<title>Node37&#45;&gt;Node3</title>
<g id="a_edge62_Node000037_Node000003"><a xlink:title=" ">
<path fill="none" stroke="#63b8ff" d="M1227.88,-192.21C1235.74,-182.79 1247.31,-167.02 1252,-151 1257.29,-132.91 1261.11,-66.42 1251,-55 1214.9,-14.25 1051.49,-9.55 971.03,-9.78"/>
<polygon fill="#63b8ff" stroke="#63b8ff" points="970.69,-6.28 960.71,-9.83 970.73,-13.28 970.69,-6.28"/>
</a>
</g>
</g>
<!-- Node37&#45;&gt;Node6 -->
<g id="edge60_Node000037_Node000006" class="edge">
<title>Node37&#45;&gt;Node6</title>
<g id="a_edge60_Node000037_Node000006"><a xlink:title=" ">
<path fill="none" stroke="#63b8ff" d="M1182.06,-192.49C1171.12,-190.34 1159.13,-188.29 1148,-187 939.68,-162.92 410.34,-193.59 205,-151 202.47,-150.48 199.89,-149.79 197.33,-149.01"/>
<polygon fill="#63b8ff" stroke="#63b8ff" points="198.29,-145.64 187.7,-145.63 195.97,-152.24 198.29,-145.64"/>
</a>
</g>
</g>
<!-- Node37&#45;&gt;Node11 -->
<g id="edge64_Node000037_Node000011" class="edge">
<title>Node37&#45;&gt;Node11</title>
<g id="a_edge64_Node000037_Node000011"><a xlink:title=" ">
<path fill="none" stroke="#63b8ff" d="M1215.95,-192.37C1212.14,-184.24 1206.26,-171.69 1201.06,-160.59"/>
<polygon fill="#63b8ff" stroke="#63b8ff" points="1204.14,-158.93 1196.73,-151.36 1197.81,-161.9 1204.14,-158.93"/>
</a>
</g>
</g>
<!-- Node37&#45;&gt;Node14 -->
<g id="edge59_Node000037_Node000014" class="edge">
<title>Node37&#45;&gt;Node14</title>
<g id="a_edge59_Node000037_Node000014"><a xlink:title=" ">
<path fill="none" stroke="#63b8ff" d="M1176.23,-192.44C1119.62,-181.21 1024.23,-161.68 990,-151 988.32,-150.48 986.62,-149.91 984.9,-149.3"/>
<polygon fill="#63b8ff" stroke="#63b8ff" points="985.79,-145.89 975.2,-145.6 983.29,-152.43 985.79,-145.89"/>
</a>
</g>
</g>
<!-- Node37&#45;&gt;Node20 -->
<g id="edge61_Node000037_Node000020" class="edge">
<title>Node37&#45;&gt;Node20</title>
<g id="a_edge61_Node000037_Node000020"><a xlink:title=" ">
<path fill="none" stroke="#63b8ff" d="M1180.91,-192.5C1170.27,-190.43 1158.73,-188.41 1148,-187 920.52,-157.05 861.42,-172.64 633,-151 606.68,-148.51 577.13,-144.96 554.3,-142.07"/>
<polygon fill="#63b8ff" stroke="#63b8ff" points="554.69,-138.59 544.33,-140.79 553.8,-145.53 554.69,-138.59"/>
</a>
</g>
</g>
<!-- Node38 -->
<g id="Node000038" class="node">
<title>Node38</title>
<g id="a_Node000038"><a xlink:title=" ">
<polygon fill="#e0e0e0" stroke="#999999" points="1045.5,-145.5 998.5,-145.5 998.5,-126.5 1045.5,-126.5 1045.5,-145.5"/>
<text text-anchor="middle" x="1022" y="-133.5" font-family="Helvetica,sans-Serif" font-size="10.00">vector</text>
</a>
</g>
</g>
<!-- Node37&#45;&gt;Node38 -->
<g id="edge63_Node000037_Node000038" class="edge">
<title>Node37&#45;&gt;Node38</title>
<g id="a_edge63_Node000037_Node000038"><a xlink:title=" ">
<path fill="none" stroke="#63b8ff" d="M1191.25,-192.49C1159.11,-182.87 1105.6,-166.51 1060,-151 1058.15,-150.37 1056.26,-149.71 1054.35,-149.04"/>
<polygon fill="#63b8ff" stroke="#63b8ff" points="1055.44,-145.71 1044.84,-145.63 1053.07,-152.3 1055.44,-145.71"/>
</a>
</g>
</g>
<!-- Node39&#45;&gt;Node7 -->
<g id="edge67_Node000039_Node000007" class="edge">
<title>Node39&#45;&gt;Node7</title>
<g id="a_edge67_Node000039_Node000007"><a xlink:title=" ">
<path fill="none" stroke="#63b8ff" d="M1873.91,-188.81C1815.44,-175.63 1724.17,-155.07 1676.1,-144.23"/>
<polygon fill="#63b8ff" stroke="#63b8ff" points="1676.77,-140.8 1666.25,-142.01 1675.24,-147.63 1676.77,-140.8"/>
</a>
</g>
</g>
<!-- Node39&#45;&gt;Node31 -->
<g id="edge66_Node000039_Node000031" class="edge">
<title>Node39&#45;&gt;Node31</title>
<g id="a_edge66_Node000039_Node000031"><a xlink:title=" ">
<path fill="none" stroke="#63b8ff" d="M1933.99,-186.8C1937.91,-177.5 1943.07,-165.27 1947.3,-155.26"/>
<polygon fill="#63b8ff" stroke="#63b8ff" points="1950.61,-156.42 1951.27,-145.84 1944.16,-153.7 1950.61,-156.42"/>
</a>
</g>
</g>
</g>
</svg>
