<?xml version="1.0" encoding="UTF-8" standalone="no"?>
<!DOCTYPE svg PUBLIC "-//W3C//DTD SVG 1.1//EN"
 "http://www.w3.org/Graphics/SVG/1.1/DTD/svg11.dtd">
<!-- Generated by graphviz version 2.43.0 (0)
 -->
<!-- Title: userver/utils/invariant_error.hpp Pages: 1 -->
<svg width="176pt" height="214pt"
 viewBox="0.00 0.00 176.00 214.00" xmlns="http://www.w3.org/2000/svg" xmlns:xlink="http://www.w3.org/1999/xlink">
<g id="graph0" class="graph" transform="scale(1 1) rotate(0) translate(4 210)">
<title>userver/utils/invariant_error.hpp</title>
<!-- Node1 -->
<g id="Node000001" class="node">
<title>Node1</title>
<g id="a_Node000001"><a xlink:title="Exception that is thrown on UINVARIANT violation.">
<polygon fill="#999999" stroke="#666666" points="146,-206 22,-206 22,-176 146,-176 146,-206"/>
<text text-anchor="start" x="30" y="-194" font-family="Helvetica,sans-Serif" font-size="10.00">userver/utils/invariant</text>
<text text-anchor="middle" x="84" y="-183" font-family="Helvetica,sans-Serif" font-size="10.00">_error.hpp</text>
</a>
</g>
</g>
<!-- Node2 -->
<g id="Node000002" class="node">
<title>Node2</title>
<g id="a_Node000002"><a xlink:href="../../d5/d01/assert__macros_8hpp.html" target="_top" xlink:title="Extensions to the gtest macros for printing and testing exceptions that could work even without corou...">
<polygon fill="white" stroke="#666666" points="141,-140 27,-140 27,-110 141,-110 141,-140"/>
<text text-anchor="start" x="35" y="-128" font-family="Helvetica,sans-Serif" font-size="10.00">userver/utest/assert</text>
<text text-anchor="middle" x="84" y="-117" font-family="Helvetica,sans-Serif" font-size="10.00">_macros.hpp</text>
</a>
</g>
</g>
<!-- Node1&#45;&gt;Node2 -->
<g id="edge1_Node000001_Node000002" class="edge">
<title>Node1&#45;&gt;Node2</title>
<g id="a_edge1_Node000001_Node000002"><a xlink:title=" ">
<path fill="none" stroke="#63b8ff" d="M84,-165.54C84,-156.96 84,-147.61 84,-140.16"/>
<polygon fill="#63b8ff" stroke="#63b8ff" points="80.5,-165.8 84,-175.8 87.5,-165.8 80.5,-165.8"/>
</a>
</g>
</g>
<!-- Node3 -->
<g id="Node000003" class="node">
<title>Node3</title>
<g id="a_Node000003"><a xlink:href="../../dc/dc9/utest_8hpp.html" target="_top" xlink:title="Versions of gtest macros that run tests in a coroutine environment.">
<polygon fill="white" stroke="#666666" points="149,-74 19,-74 19,-55 149,-55 149,-74"/>
<text text-anchor="middle" x="84" y="-62" font-family="Helvetica,sans-Serif" font-size="10.00">userver/utest/utest.hpp</text>
</a>
</g>
</g>
<!-- Node2&#45;&gt;Node3 -->
<g id="edge2_Node000002_Node000003" class="edge">
<title>Node2&#45;&gt;Node3</title>
<g id="a_edge2_Node000002_Node000003"><a xlink:title=" ">
<path fill="none" stroke="#63b8ff" d="M84,-99.75C84,-90.72 84,-81.03 84,-74.27"/>
<polygon fill="#63b8ff" stroke="#63b8ff" points="80.5,-99.84 84,-109.84 87.5,-99.84 80.5,-99.84"/>
</a>
</g>
</g>
<!-- Node4 -->
<g id="Node000004" class="node">
<title>Node4</title>
<g id="a_Node000004"><a xlink:href="../../d7/d7c/testing_2include_2userver_2dump_2test__helpers_8hpp_source.html" target="_top" xlink:title=" ">
<polygon fill="white" stroke="#666666" points="168,-19 0,-19 0,0 168,0 168,-19"/>
<text text-anchor="middle" x="84" y="-7" font-family="Helvetica,sans-Serif" font-size="10.00">userver/dump/test_helpers.hpp</text>
</a>
</g>
</g>
<!-- Node3&#45;&gt;Node4 -->
<g id="edge3_Node000003_Node000004" class="edge">
<title>Node3&#45;&gt;Node4</title>
<g id="a_edge3_Node000003_Node000004"><a xlink:title=" ">
<path fill="none" stroke="#63b8ff" d="M84,-44.66C84,-35.93 84,-25.99 84,-19.09"/>
<polygon fill="#63b8ff" stroke="#63b8ff" points="80.5,-44.75 84,-54.75 87.5,-44.75 80.5,-44.75"/>
</a>
</g>
</g>
</g>
</svg>
