<?xml version="1.0" encoding="UTF-8" standalone="no"?>
<!DOCTYPE svg PUBLIC "-//W3C//DTD SVG 1.1//EN"
 "http://www.w3.org/Graphics/SVG/1.1/DTD/svg11.dtd">
<!-- Generated by graphviz version 2.43.0 (0)
 -->
<!-- Title: userver/storages/secdist/secdist.hpp Pages: 1 -->
<svg width="1310pt" height="269pt"
 viewBox="0.00 0.00 1309.50 269.00" xmlns="http://www.w3.org/2000/svg" xmlns:xlink="http://www.w3.org/1999/xlink">
<g id="graph0" class="graph" transform="scale(1 1) rotate(0) translate(4 265)">
<title>userver/storages/secdist/secdist.hpp</title>
<!-- Node1 -->
<g id="Node000001" class="node">
<title>Node1</title>
<g id="a_Node000001"><a xlink:title="Client to retrieve credentials from the components::Secdist.">
<polygon fill="#999999" stroke="#666666" points="709.5,-261 585.5,-261 585.5,-231 709.5,-231 709.5,-261"/>
<text text-anchor="start" x="593.5" y="-249" font-family="Helvetica,sans-Serif" font-size="10.00">userver/storages/secdist</text>
<text text-anchor="middle" x="647.5" y="-238" font-family="Helvetica,sans-Serif" font-size="10.00">/secdist.hpp</text>
</a>
</g>
</g>
<!-- Node2 -->
<g id="Node000002" class="node">
<title>Node2</title>
<g id="a_Node000002"><a xlink:href="../../de/d82/digest_2auth__checker__base_8hpp.html" target="_top" xlink:title="Base class for digest authentication checkers. Implements a digest&#45;authentication logic.">
<polygon fill="white" stroke="#666666" points="273,-195 144,-195 144,-154 273,-154 273,-195"/>
<text text-anchor="start" x="152" y="-183" font-family="Helvetica,sans-Serif" font-size="10.00">userver/server/handlers</text>
<text text-anchor="start" x="152" y="-172" font-family="Helvetica,sans-Serif" font-size="10.00">/auth/digest/auth_checker</text>
<text text-anchor="middle" x="208.5" y="-161" font-family="Helvetica,sans-Serif" font-size="10.00">_base.hpp</text>
</a>
</g>
</g>
<!-- Node1&#45;&gt;Node2 -->
<g id="edge1_Node000001_Node000002" class="edge">
<title>Node1&#45;&gt;Node2</title>
<g id="a_edge1_Node000001_Node000002"><a xlink:title=" ">
<path fill="none" stroke="#63b8ff" d="M575.09,-233.54C491.08,-220.24 353.81,-198.5 273.22,-185.75"/>
<polygon fill="#63b8ff" stroke="#63b8ff" points="574.64,-237.01 585.07,-235.12 575.74,-230.1 574.64,-237.01"/>
</a>
</g>
</g>
<!-- Node4 -->
<g id="Node000004" class="node">
<title>Node4</title>
<g id="a_Node000004"><a xlink:href="../../df/d08/postgresql_2include_2userver_2storages_2postgres_2component_8hpp.html" target="_top" xlink:title="PosgreSQL client component.">
<polygon fill="white" stroke="#666666" points="569.5,-189.5 439.5,-189.5 439.5,-159.5 569.5,-159.5 569.5,-189.5"/>
<text text-anchor="start" x="447.5" y="-177.5" font-family="Helvetica,sans-Serif" font-size="10.00">userver/storages/postgres</text>
<text text-anchor="middle" x="504.5" y="-166.5" font-family="Helvetica,sans-Serif" font-size="10.00">/component.hpp</text>
</a>
</g>
</g>
<!-- Node1&#45;&gt;Node4 -->
<g id="edge3_Node000001_Node000004" class="edge">
<title>Node1&#45;&gt;Node4</title>
<g id="a_edge3_Node000001_Node000004"><a xlink:title=" ">
<path fill="none" stroke="#63b8ff" d="M609.43,-226.5C585.57,-214.9 555.29,-200.18 533.4,-189.54"/>
<polygon fill="#63b8ff" stroke="#63b8ff" points="608.04,-229.71 618.56,-230.94 611.1,-223.42 608.04,-229.71"/>
</a>
</g>
</g>
<!-- Node9 -->
<g id="Node000009" class="node">
<title>Node9</title>
<g id="a_Node000009"><a xlink:href="../../d8/dc6/redis_2include_2userver_2storages_2redis_2component_8hpp.html" target="_top" xlink:title="Valkey and Redis client component.">
<polygon fill="white" stroke="#666666" points="704,-189.5 591,-189.5 591,-159.5 704,-159.5 704,-189.5"/>
<text text-anchor="start" x="599" y="-177.5" font-family="Helvetica,sans-Serif" font-size="10.00">userver/storages/redis</text>
<text text-anchor="middle" x="647.5" y="-166.5" font-family="Helvetica,sans-Serif" font-size="10.00">/component.hpp</text>
</a>
</g>
</g>
<!-- Node1&#45;&gt;Node9 -->
<g id="edge8_Node000001_Node000009" class="edge">
<title>Node1&#45;&gt;Node9</title>
<g id="a_edge8_Node000001_Node000009"><a xlink:title=" ">
<path fill="none" stroke="#63b8ff" d="M647.5,-220.75C647.5,-210.31 647.5,-198.49 647.5,-189.54"/>
<polygon fill="#63b8ff" stroke="#63b8ff" points="644,-220.94 647.5,-230.94 651,-220.94 644,-220.94"/>
</a>
</g>
</g>
<!-- Node10 -->
<g id="Node000010" class="node">
<title>Node10</title>
<g id="a_Node000010"><a xlink:href="../../dd/d60/core_2include_2userver_2storages_2secdist_2component_8hpp.html" target="_top" xlink:title="Component that stores security related data (keys, passwords, ...).">
<polygon fill="white" stroke="#666666" points="1007.5,-189.5 883.5,-189.5 883.5,-159.5 1007.5,-159.5 1007.5,-189.5"/>
<text text-anchor="start" x="891.5" y="-177.5" font-family="Helvetica,sans-Serif" font-size="10.00">userver/storages/secdist</text>
<text text-anchor="middle" x="945.5" y="-166.5" font-family="Helvetica,sans-Serif" font-size="10.00">/component.hpp</text>
</a>
</g>
</g>
<!-- Node1&#45;&gt;Node10 -->
<g id="edge9_Node000001_Node000010" class="edge">
<title>Node1&#45;&gt;Node10</title>
<g id="a_edge9_Node000001_Node000010"><a xlink:title=" ">
<path fill="none" stroke="#63b8ff" d="M717.75,-228.62C768.68,-216.74 836.84,-200.84 885.28,-189.54"/>
<polygon fill="#63b8ff" stroke="#63b8ff" points="716.75,-225.26 707.8,-230.94 718.34,-232.07 716.75,-225.26"/>
</a>
</g>
</g>
<!-- Node16 -->
<g id="Node000016" class="node">
<title>Node16</title>
<g id="a_Node000016"><a xlink:href="../../dd/d8c/provider__component_8hpp_source.html" target="_top" xlink:title=" ">
<polygon fill="white" stroke="#666666" points="850.5,-189.5 724.5,-189.5 724.5,-159.5 850.5,-159.5 850.5,-189.5"/>
<text text-anchor="start" x="732.5" y="-177.5" font-family="Helvetica,sans-Serif" font-size="10.00">userver/storages/secdist</text>
<text text-anchor="middle" x="787.5" y="-166.5" font-family="Helvetica,sans-Serif" font-size="10.00">/provider_component.hpp</text>
</a>
</g>
</g>
<!-- Node1&#45;&gt;Node16 -->
<g id="edge15_Node000001_Node000016" class="edge">
<title>Node1&#45;&gt;Node16</title>
<g id="a_edge15_Node000001_Node000016"><a xlink:title=" ">
<path fill="none" stroke="#63b8ff" d="M685.08,-226.34C708.4,-214.77 737.87,-200.14 759.21,-189.54"/>
<polygon fill="#63b8ff" stroke="#63b8ff" points="683.23,-223.35 675.83,-230.94 686.34,-229.62 683.23,-223.35"/>
</a>
</g>
</g>
<!-- Node3 -->
<g id="Node000003" class="node">
<title>Node3</title>
<g id="a_Node000003"><a xlink:href="../../db/df0/standalone__checker_8hpp.html" target="_top" xlink:title="Class for digest authentication checker. Implements a stand&#45;alone digest&#45;authentication logic.">
<polygon fill="white" stroke="#666666" points="119,-107 0,-107 0,-66 119,-66 119,-107"/>
<text text-anchor="start" x="8" y="-95" font-family="Helvetica,sans-Serif" font-size="10.00">userver/server/handlers</text>
<text text-anchor="start" x="8" y="-84" font-family="Helvetica,sans-Serif" font-size="10.00">/auth/digest/standalone</text>
<text text-anchor="middle" x="59.5" y="-73" font-family="Helvetica,sans-Serif" font-size="10.00">_checker.hpp</text>
</a>
</g>
</g>
<!-- Node2&#45;&gt;Node3 -->
<g id="edge2_Node000002_Node000003" class="edge">
<title>Node2&#45;&gt;Node3</title>
<g id="a_edge2_Node000002_Node000003"><a xlink:title=" ">
<path fill="none" stroke="#63b8ff" d="M165.83,-148.87C142.86,-135.61 114.91,-119.48 93.43,-107.09"/>
<polygon fill="#63b8ff" stroke="#63b8ff" points="164.28,-152.02 174.69,-153.99 167.78,-145.96 164.28,-152.02"/>
</a>
</g>
</g>
<!-- Node5 -->
<g id="Node000005" class="node">
<title>Node5</title>
<g id="a_Node000005"><a xlink:href="../../d1/de1/easy_2samples_26__pg__service__template__no__http__with_2src_2main_8cpp_source.html" target="_top" xlink:title=" ">
<polygon fill="white" stroke="#666666" points="297.5,-118 137.5,-118 137.5,-55 297.5,-55 297.5,-118"/>
<text text-anchor="start" x="145.5" y="-106" font-family="Helvetica,sans-Serif" font-size="10.00">/home/antonyzhilin</text>
<text text-anchor="start" x="145.5" y="-95" font-family="Helvetica,sans-Serif" font-size="10.00">/arcadia/taxi/uservices</text>
<text text-anchor="start" x="145.5" y="-84" font-family="Helvetica,sans-Serif" font-size="10.00">/userver/libraries/easy</text>
<text text-anchor="start" x="145.5" y="-73" font-family="Helvetica,sans-Serif" font-size="10.00">/samples/6_pg_service_template</text>
<text text-anchor="middle" x="217.5" y="-62" font-family="Helvetica,sans-Serif" font-size="10.00">_no_http_with/src/main.cpp</text>
</a>
</g>
</g>
<!-- Node4&#45;&gt;Node5 -->
<g id="edge4_Node000004_Node000005" class="edge">
<title>Node4&#45;&gt;Node5</title>
<g id="a_edge4_Node000004_Node000005"><a xlink:title=" ">
<path fill="none" stroke="#63b8ff" d="M441.66,-156.87C402.6,-146.28 351.44,-131.99 306.5,-118 303.69,-117.13 300.84,-116.22 297.96,-115.3"/>
<polygon fill="#63b8ff" stroke="#63b8ff" points="440.75,-160.25 451.31,-159.47 442.57,-153.49 440.75,-160.25"/>
</a>
</g>
</g>
<!-- Node6 -->
<g id="Node000006" class="node">
<title>Node6</title>
<g id="a_Node000006"><a xlink:href="../../dc/d2e/easy_8cpp_source.html" target="_top" xlink:title=" ">
<polygon fill="white" stroke="#666666" points="431,-112.5 316,-112.5 316,-60.5 431,-60.5 431,-112.5"/>
<text text-anchor="start" x="324" y="-100.5" font-family="Helvetica,sans-Serif" font-size="10.00">/home/antonyzhilin</text>
<text text-anchor="start" x="324" y="-89.5" font-family="Helvetica,sans-Serif" font-size="10.00">/arcadia/taxi/uservices</text>
<text text-anchor="start" x="324" y="-78.5" font-family="Helvetica,sans-Serif" font-size="10.00">/userver/libraries/easy</text>
<text text-anchor="middle" x="373.5" y="-67.5" font-family="Helvetica,sans-Serif" font-size="10.00">/src/easy.cpp</text>
</a>
</g>
</g>
<!-- Node4&#45;&gt;Node6 -->
<g id="edge5_Node000004_Node000006" class="edge">
<title>Node4&#45;&gt;Node6</title>
<g id="a_edge5_Node000004_Node000006"><a xlink:title=" ">
<path fill="none" stroke="#63b8ff" d="M474.75,-153.97C456.09,-141.72 431.85,-125.81 411.76,-112.62"/>
<polygon fill="#63b8ff" stroke="#63b8ff" points="472.88,-156.93 483.16,-159.49 476.72,-151.08 472.88,-156.93"/>
</a>
</g>
</g>
<!-- Node7 -->
<g id="Node000007" class="node">
<title>Node7</title>
<g id="a_Node000007"><a xlink:href="../../dc/df7/base__postgres__cache_8hpp.html" target="_top" xlink:title="Caching component for PostgreSQL. See Caching Component for PostgreSQL.">
<polygon fill="white" stroke="#666666" points="559.5,-101.5 449.5,-101.5 449.5,-71.5 559.5,-71.5 559.5,-101.5"/>
<text text-anchor="start" x="457.5" y="-89.5" font-family="Helvetica,sans-Serif" font-size="10.00">userver/cache/base</text>
<text text-anchor="middle" x="504.5" y="-78.5" font-family="Helvetica,sans-Serif" font-size="10.00">_postgres_cache.hpp</text>
</a>
</g>
</g>
<!-- Node4&#45;&gt;Node7 -->
<g id="edge6_Node000004_Node000007" class="edge">
<title>Node4&#45;&gt;Node7</title>
<g id="a_edge6_Node000004_Node000007"><a xlink:title=" ">
<path fill="none" stroke="#63b8ff" d="M504.5,-148.99C504.5,-133.7 504.5,-114.55 504.5,-101.72"/>
<polygon fill="#63b8ff" stroke="#63b8ff" points="501,-149.3 504.5,-159.3 508,-149.3 501,-149.3"/>
</a>
</g>
</g>
<!-- Node8 -->
<g id="Node000008" class="node">
<title>Node8</title>
<g id="a_Node000008"><a xlink:href="../../df/d02/postgres_8hpp.html" target="_top" xlink:title=" ">
<polygon fill="white" stroke="#666666" points="707.5,-101.5 577.5,-101.5 577.5,-71.5 707.5,-71.5 707.5,-101.5"/>
<text text-anchor="start" x="585.5" y="-89.5" font-family="Helvetica,sans-Serif" font-size="10.00">userver/storages/postgres</text>
<text text-anchor="middle" x="642.5" y="-78.5" font-family="Helvetica,sans-Serif" font-size="10.00">/postgres.hpp</text>
</a>
</g>
</g>
<!-- Node4&#45;&gt;Node8 -->
<g id="edge7_Node000004_Node000008" class="edge">
<title>Node4&#45;&gt;Node8</title>
<g id="a_edge7_Node000004_Node000008"><a xlink:title=" ">
<path fill="none" stroke="#63b8ff" d="M535.6,-154.12C561.27,-138.12 597.08,-115.81 620.03,-101.5"/>
<polygon fill="#63b8ff" stroke="#63b8ff" points="533.61,-151.23 526.98,-159.49 537.32,-157.17 533.61,-151.23"/>
</a>
</g>
</g>
<!-- Node11 -->
<g id="Node000011" class="node">
<title>Node11</title>
<g id="a_Node000011"><a xlink:href="../../db/d29/grpc-reflection_2functional__tests_2golden__path_2main_8cpp_source.html" target="_top" xlink:title=" ">
<polygon fill="white" stroke="#666666" points="857,-118 726,-118 726,-55 857,-55 857,-118"/>
<text text-anchor="start" x="734" y="-106" font-family="Helvetica,sans-Serif" font-size="10.00">/home/antonyzhilin</text>
<text text-anchor="start" x="734" y="-95" font-family="Helvetica,sans-Serif" font-size="10.00">/arcadia/taxi/uservices</text>
<text text-anchor="start" x="734" y="-84" font-family="Helvetica,sans-Serif" font-size="10.00">/userver/libraries/grpc</text>
<text text-anchor="start" x="734" y="-73" font-family="Helvetica,sans-Serif" font-size="10.00">&#45;reflection/functional_tests</text>
<text text-anchor="middle" x="791.5" y="-62" font-family="Helvetica,sans-Serif" font-size="10.00">/golden_path/main.cpp</text>
</a>
</g>
</g>
<!-- Node10&#45;&gt;Node11 -->
<g id="edge10_Node000010_Node000011" class="edge">
<title>Node10&#45;&gt;Node11</title>
<g id="a_edge10_Node000010_Node000011"><a xlink:title=" ">
<path fill="none" stroke="#63b8ff" d="M911.48,-154.5C892.35,-143.82 868.03,-130.24 846.28,-118.09"/>
<polygon fill="#63b8ff" stroke="#63b8ff" points="909.98,-157.67 920.41,-159.49 913.39,-151.56 909.98,-157.67"/>
</a>
</g>
</g>
<!-- Node12 -->
<g id="Node000012" class="node">
<title>Node12</title>
<g id="a_Node000012"><a xlink:href="../../da/db3/auth__checker__settings__component_8hpp.html" target="_top" xlink:title="Component that loads auth configuration settings from a components::Secdist component if the latter w...">
<polygon fill="white" stroke="#666666" points="1015.5,-107 875.5,-107 875.5,-66 1015.5,-66 1015.5,-107"/>
<text text-anchor="start" x="883.5" y="-95" font-family="Helvetica,sans-Serif" font-size="10.00">userver/server/handlers</text>
<text text-anchor="start" x="883.5" y="-84" font-family="Helvetica,sans-Serif" font-size="10.00">/auth/auth_checker_settings</text>
<text text-anchor="middle" x="945.5" y="-73" font-family="Helvetica,sans-Serif" font-size="10.00">_component.hpp</text>
</a>
</g>
</g>
<!-- Node10&#45;&gt;Node12 -->
<g id="edge11_Node000010_Node000012" class="edge">
<title>Node10&#45;&gt;Node12</title>
<g id="a_edge11_Node000010_Node000012"><a xlink:title=" ">
<path fill="none" stroke="#63b8ff" d="M945.5,-149C945.5,-135.75 945.5,-119.61 945.5,-107.19"/>
<polygon fill="#63b8ff" stroke="#63b8ff" points="942,-149.3 945.5,-159.3 949,-149.3 942,-149.3"/>
</a>
</g>
</g>
<!-- Node13 -->
<g id="Node000013" class="node">
<title>Node13</title>
<g id="a_Node000013"><a xlink:href="../../d8/d82/core_2include_2userver_2server_2server_8hpp_source.html" target="_top" xlink:title=" ">
<polygon fill="white" stroke="#666666" points="1161,-96 1034,-96 1034,-77 1161,-77 1161,-96"/>
<text text-anchor="middle" x="1097.5" y="-84" font-family="Helvetica,sans-Serif" font-size="10.00">userver/server/server.hpp</text>
</a>
</g>
</g>
<!-- Node10&#45;&gt;Node13 -->
<g id="edge12_Node000010_Node000013" class="edge">
<title>Node10&#45;&gt;Node13</title>
<g id="a_edge12_Node000010_Node000013"><a xlink:title=" ">
<path fill="none" stroke="#63b8ff" d="M979.34,-154.36C1011.57,-136.12 1058.61,-109.5 1082.45,-96.02"/>
<polygon fill="#63b8ff" stroke="#63b8ff" points="977.24,-151.52 970.26,-159.49 980.69,-157.61 977.24,-151.52"/>
</a>
</g>
</g>
<!-- Node15 -->
<g id="Node000015" class="node">
<title>Node15</title>
<g id="a_Node000015"><a xlink:href="../../d1/dd7/mongo_2include_2userver_2storages_2mongo_2component_8hpp.html" target="_top" xlink:title="MongoDB client component.">
<polygon fill="white" stroke="#666666" points="1301.5,-101.5 1179.5,-101.5 1179.5,-71.5 1301.5,-71.5 1301.5,-101.5"/>
<text text-anchor="start" x="1187.5" y="-89.5" font-family="Helvetica,sans-Serif" font-size="10.00">userver/storages/mongo</text>
<text text-anchor="middle" x="1240.5" y="-78.5" font-family="Helvetica,sans-Serif" font-size="10.00">/component.hpp</text>
</a>
</g>
</g>
<!-- Node10&#45;&gt;Node15 -->
<g id="edge14_Node000010_Node000015" class="edge">
<title>Node10&#45;&gt;Node15</title>
<g id="a_edge14_Node000010_Node000015"><a xlink:title=" ">
<path fill="none" stroke="#63b8ff" d="M1017.78,-158.93C1062.34,-149.15 1120.37,-134.97 1170.5,-118 1184.19,-113.37 1198.91,-107.15 1211.3,-101.54"/>
<polygon fill="#63b8ff" stroke="#63b8ff" points="1016.94,-155.54 1007.91,-161.08 1018.42,-162.38 1016.94,-155.54"/>
</a>
</g>
</g>
<!-- Node14 -->
<g id="Node000014" class="node">
<title>Node14</title>
<g id="a_Node000014"><a xlink:href="../../d3/ddd/core_2include_2userver_2server_2component_8hpp.html" target="_top" xlink:title="Component that listens for incoming requests, manages incoming connections and passes the requests to...">
<polygon fill="white" stroke="#666666" points="1172,-19 1023,-19 1023,0 1172,0 1172,-19"/>
<text text-anchor="middle" x="1097.5" y="-7" font-family="Helvetica,sans-Serif" font-size="10.00">userver/server/component.hpp</text>
</a>
</g>
</g>
<!-- Node13&#45;&gt;Node14 -->
<g id="edge13_Node000013_Node000014" class="edge">
<title>Node13&#45;&gt;Node14</title>
<g id="a_edge13_Node000013_Node000014"><a xlink:title=" ">
<path fill="none" stroke="#63b8ff" d="M1097.5,-66.52C1097.5,-51.24 1097.5,-30.48 1097.5,-19"/>
<polygon fill="#63b8ff" stroke="#63b8ff" points="1094,-66.9 1097.5,-76.9 1101,-66.9 1094,-66.9"/>
</a>
</g>
</g>
<!-- Node16&#45;&gt;Node11 -->
<g id="edge16_Node000016_Node000011" class="edge">
<title>Node16&#45;&gt;Node11</title>
<g id="a_edge16_Node000016_Node000011"><a xlink:title=" ">
<path fill="none" stroke="#63b8ff" d="M788.63,-149.2C789.08,-139.55 789.6,-128.34 790.07,-118.14"/>
<polygon fill="#63b8ff" stroke="#63b8ff" points="785.13,-149.15 788.16,-159.3 792.12,-149.47 785.13,-149.15"/>
</a>
</g>
</g>
</g>
</svg>
