<?xml version="1.0" encoding="UTF-8" standalone="no"?>
<!DOCTYPE svg PUBLIC "-//W3C//DTD SVG 1.1//EN"
 "http://www.w3.org/Graphics/SVG/1.1/DTD/svg11.dtd">
<!-- Generated by graphviz version 2.43.0 (0)
 -->
<!-- Title: userver/storages/postgres/result_set.hpp Pages: 1 -->
<svg width="549pt" height="302pt"
 viewBox="0.00 0.00 548.80 302.00" xmlns="http://www.w3.org/2000/svg" xmlns:xlink="http://www.w3.org/1999/xlink">
<g id="graph0" class="graph" transform="scale(1 1) rotate(0) translate(4 298)">
<title>userver/storages/postgres/result_set.hpp</title>
<!-- Node1 -->
<g id="Node000001" class="node">
<title>Node1</title>
<g id="a_Node000001"><a xlink:title="Result accessors.">
<polygon fill="#999999" stroke="#666666" points="419,-294 276,-294 276,-264 419,-264 419,-294"/>
<text text-anchor="start" x="284" y="-282" font-family="Helvetica,sans-Serif" font-size="10.00">userver/storages/postgres</text>
<text text-anchor="middle" x="347.5" y="-271" font-family="Helvetica,sans-Serif" font-size="10.00">/result_set.hpp</text>
</a>
</g>
</g>
<!-- Node2 -->
<g id="Node000002" class="node">
<title>Node2</title>
<g id="a_Node000002"><a xlink:href="../../d4/dd3/non__transaction_8hpp_source.html" target="_top" xlink:title=" ">
<polygon fill="white" stroke="#666666" points="149,-162 0,-162 0,-132 149,-132 149,-162"/>
<text text-anchor="start" x="8" y="-150" font-family="Helvetica,sans-Serif" font-size="10.00">userver/storages/postgres</text>
<text text-anchor="middle" x="74.5" y="-139" font-family="Helvetica,sans-Serif" font-size="10.00">/detail/non_transaction.hpp</text>
</a>
</g>
</g>
<!-- Node1&#45;&gt;Node2 -->
<g id="edge1_Node000001_Node000002" class="edge">
<title>Node1&#45;&gt;Node2</title>
<g id="a_edge1_Node000001_Node000002"><a xlink:title=" ">
<path fill="none" stroke="#63b8ff" d="M265.61,-268.34C227.98,-261.25 183.94,-249.02 148.5,-228 120.18,-211.21 96.17,-180.29 83.7,-162.2"/>
<polygon fill="#63b8ff" stroke="#63b8ff" points="265.07,-271.8 275.54,-270.12 266.31,-264.91 265.07,-271.8"/>
</a>
</g>
</g>
<!-- Node5 -->
<g id="Node000005" class="node">
<title>Node5</title>
<g id="a_Node000005"><a xlink:href="../../df/d02/postgres_8hpp.html" target="_top" xlink:title=" ">
<polygon fill="white" stroke="#666666" points="379,-30 236,-30 236,0 379,0 379,-30"/>
<text text-anchor="start" x="244" y="-18" font-family="Helvetica,sans-Serif" font-size="10.00">userver/storages/postgres</text>
<text text-anchor="middle" x="307.5" y="-7" font-family="Helvetica,sans-Serif" font-size="10.00">/postgres.hpp</text>
</a>
</g>
</g>
<!-- Node1&#45;&gt;Node5 -->
<g id="edge12_Node000001_Node000005" class="edge">
<title>Node1&#45;&gt;Node5</title>
<g id="a_edge12_Node000001_Node000005"><a xlink:title=" ">
<path fill="none" stroke="#63b8ff" d="M429.5,-273.9C489,-266.79 556.05,-247.86 537.5,-198 504.74,-109.95 399.74,-54.28 343.64,-30.06"/>
<polygon fill="#63b8ff" stroke="#63b8ff" points="428.82,-270.45 419.26,-275.02 429.58,-277.41 428.82,-270.45"/>
</a>
</g>
</g>
<!-- Node6 -->
<g id="Node000006" class="node">
<title>Node6</title>
<g id="a_Node000006"><a xlink:href="../../d7/d52/typed__rows_8hpp_source.html" target="_top" xlink:title=" ">
<polygon fill="white" stroke="#666666" points="528,-228 385,-228 385,-198 528,-198 528,-228"/>
<text text-anchor="start" x="393" y="-216" font-family="Helvetica,sans-Serif" font-size="10.00">userver/storages/postgres</text>
<text text-anchor="middle" x="456.5" y="-205" font-family="Helvetica,sans-Serif" font-size="10.00">/detail/typed_rows.hpp</text>
</a>
</g>
</g>
<!-- Node1&#45;&gt;Node6 -->
<g id="edge5_Node000001_Node000006" class="edge">
<title>Node1&#45;&gt;Node6</title>
<g id="a_edge5_Node000001_Node000006"><a xlink:title=" ">
<path fill="none" stroke="#63b8ff" d="M380.38,-258.69C397.21,-248.82 417.31,-237.01 432.64,-228.01"/>
<polygon fill="#63b8ff" stroke="#63b8ff" points="378.27,-255.87 371.42,-263.95 381.82,-261.91 378.27,-255.87"/>
</a>
</g>
</g>
<!-- Node7 -->
<g id="Node000007" class="node">
<title>Node7</title>
<g id="a_Node000007"><a xlink:href="../../d1/dee/typed__result__set_8hpp.html" target="_top" xlink:title="Typed PostgreSQL results.">
<polygon fill="white" stroke="#666666" points="471,-162 328,-162 328,-132 471,-132 471,-162"/>
<text text-anchor="start" x="336" y="-150" font-family="Helvetica,sans-Serif" font-size="10.00">userver/storages/postgres</text>
<text text-anchor="middle" x="399.5" y="-139" font-family="Helvetica,sans-Serif" font-size="10.00">/typed_result_set.hpp</text>
</a>
</g>
</g>
<!-- Node1&#45;&gt;Node7 -->
<g id="edge14_Node000001_Node000007" class="edge">
<title>Node1&#45;&gt;Node7</title>
<g id="a_edge14_Node000001_Node000007"><a xlink:title=" ">
<path fill="none" stroke="#63b8ff" d="M347.52,-253.83C351.46,-237.82 358.87,-216.45 366.5,-198 371.58,-185.72 378.16,-172.15 384.55,-162.25"/>
<polygon fill="#63b8ff" stroke="#63b8ff" points="344.03,-253.44 345.39,-263.95 350.88,-254.89 344.03,-253.44"/>
</a>
</g>
</g>
<!-- Node8 -->
<g id="Node000008" class="node">
<title>Node8</title>
<g id="a_Node000008"><a xlink:href="../../d2/de3/portal_8hpp_source.html" target="_top" xlink:title=" ">
<polygon fill="white" stroke="#666666" points="310,-228 167,-228 167,-198 310,-198 310,-228"/>
<text text-anchor="start" x="175" y="-216" font-family="Helvetica,sans-Serif" font-size="10.00">userver/storages/postgres</text>
<text text-anchor="middle" x="238.5" y="-205" font-family="Helvetica,sans-Serif" font-size="10.00">/portal.hpp</text>
</a>
</g>
</g>
<!-- Node1&#45;&gt;Node8 -->
<g id="edge8_Node000001_Node000008" class="edge">
<title>Node1&#45;&gt;Node8</title>
<g id="a_edge8_Node000001_Node000008"><a xlink:title=" ">
<path fill="none" stroke="#63b8ff" d="M314.62,-258.69C297.79,-248.82 277.69,-237.01 262.36,-228.01"/>
<polygon fill="#63b8ff" stroke="#63b8ff" points="313.18,-261.91 323.58,-263.95 316.73,-255.87 313.18,-261.91"/>
</a>
</g>
</g>
<!-- Node9 -->
<g id="Node000009" class="node">
<title>Node9</title>
<g id="a_Node000009"><a xlink:href="../../da/deb/postgresql_2include_2userver_2storages_2postgres_2transaction_8hpp.html" target="_top" xlink:title="Transactions.">
<polygon fill="white" stroke="#666666" points="310,-162 167,-162 167,-132 310,-132 310,-162"/>
<text text-anchor="start" x="175" y="-150" font-family="Helvetica,sans-Serif" font-size="10.00">userver/storages/postgres</text>
<text text-anchor="middle" x="238.5" y="-139" font-family="Helvetica,sans-Serif" font-size="10.00">/transaction.hpp</text>
</a>
</g>
</g>
<!-- Node1&#45;&gt;Node9 -->
<g id="edge13_Node000001_Node000009" class="edge">
<title>Node1&#45;&gt;Node9</title>
<g id="a_edge13_Node000001_Node000009"><a xlink:title=" ">
<path fill="none" stroke="#63b8ff" d="M265.68,-266.55C220.64,-258.39 171.15,-245.71 157.5,-228 137.89,-202.56 175.81,-177.18 206.13,-162.04"/>
<polygon fill="#63b8ff" stroke="#63b8ff" points="265.36,-270.05 275.81,-268.33 266.57,-263.15 265.36,-270.05"/>
</a>
</g>
</g>
<!-- Node3 -->
<g id="Node000003" class="node">
<title>Node3</title>
<g id="a_Node000003"><a xlink:href="../../de/dd3/postgresql_2include_2userver_2storages_2postgres_2cluster_8hpp.html" target="_top" xlink:title="Interface for executing queries on a cluster of PostgreSQL servers.">
<polygon fill="white" stroke="#666666" points="254,-96 111,-96 111,-66 254,-66 254,-96"/>
<text text-anchor="start" x="119" y="-84" font-family="Helvetica,sans-Serif" font-size="10.00">userver/storages/postgres</text>
<text text-anchor="middle" x="182.5" y="-73" font-family="Helvetica,sans-Serif" font-size="10.00">/cluster.hpp</text>
</a>
</g>
</g>
<!-- Node2&#45;&gt;Node3 -->
<g id="edge2_Node000002_Node000003" class="edge">
<title>Node2&#45;&gt;Node3</title>
<g id="a_edge2_Node000002_Node000003"><a xlink:title=" ">
<path fill="none" stroke="#63b8ff" d="M107.08,-126.69C123.75,-116.82 143.67,-105.01 158.85,-96.01"/>
<polygon fill="#63b8ff" stroke="#63b8ff" points="105.02,-123.85 98.2,-131.95 108.59,-129.87 105.02,-123.85"/>
</a>
</g>
</g>
<!-- Node4 -->
<g id="Node000004" class="node">
<title>Node4</title>
<g id="a_Node000004"><a xlink:href="../../dc/df7/base__postgres__cache_8hpp.html" target="_top" xlink:title="Caching component for PostgreSQL. See Caching Component for PostgreSQL.">
<polygon fill="white" stroke="#666666" points="218,-30 99,-30 99,0 218,0 218,-30"/>
<text text-anchor="start" x="107" y="-18" font-family="Helvetica,sans-Serif" font-size="10.00">userver/cache/base</text>
<text text-anchor="middle" x="158.5" y="-7" font-family="Helvetica,sans-Serif" font-size="10.00">_postgres_cache.hpp</text>
</a>
</g>
</g>
<!-- Node3&#45;&gt;Node4 -->
<g id="edge3_Node000003_Node000004" class="edge">
<title>Node3&#45;&gt;Node4</title>
<g id="a_edge3_Node000003_Node000004"><a xlink:title=" ">
<path fill="none" stroke="#63b8ff" d="M173.65,-56.39C170.34,-47.59 166.7,-37.86 163.81,-30.16"/>
<polygon fill="#63b8ff" stroke="#63b8ff" points="170.39,-57.66 177.17,-65.8 176.94,-55.2 170.39,-57.66"/>
</a>
</g>
</g>
<!-- Node3&#45;&gt;Node5 -->
<g id="edge4_Node000003_Node000005" class="edge">
<title>Node3&#45;&gt;Node5</title>
<g id="a_edge4_Node000003_Node000005"><a xlink:title=" ">
<path fill="none" stroke="#63b8ff" d="M218.87,-61.38C238.43,-51.36 262.15,-39.22 280.13,-30.01"/>
<polygon fill="#63b8ff" stroke="#63b8ff" points="217.24,-58.28 209.93,-65.95 220.43,-64.51 217.24,-58.28"/>
</a>
</g>
</g>
<!-- Node6&#45;&gt;Node7 -->
<g id="edge6_Node000006_Node000007" class="edge">
<title>Node6&#45;&gt;Node7</title>
<g id="a_edge6_Node000006_Node000007"><a xlink:title=" ">
<path fill="none" stroke="#63b8ff" d="M436.98,-190.09C428.76,-180.85 419.41,-170.36 412.11,-162.16"/>
<polygon fill="#63b8ff" stroke="#63b8ff" points="434.59,-192.66 443.85,-197.8 439.81,-188 434.59,-192.66"/>
</a>
</g>
</g>
<!-- Node7&#45;&gt;Node1 -->
<g id="edge7_Node000007_Node000001" class="edge">
<title>Node7&#45;&gt;Node1</title>
<g id="a_edge7_Node000007_Node000001"><a xlink:title=" ">
<path fill="none" stroke="#63b8ff" d="M395.99,-171.64C392.48,-179.89 388.11,-189.27 384.5,-198 375.11,-220.71 366.06,-247.83 358.4,-263.95"/>
<polygon fill="#63b8ff" stroke="#63b8ff" points="399.28,-172.83 399.73,-162.25 392.77,-170.24 399.28,-172.83"/>
</a>
</g>
</g>
<!-- Node8&#45;&gt;Node9 -->
<g id="edge9_Node000008_Node000009" class="edge">
<title>Node8&#45;&gt;Node9</title>
<g id="a_edge9_Node000008_Node000009"><a xlink:title=" ">
<path fill="none" stroke="#63b8ff" d="M238.5,-187.54C238.5,-178.96 238.5,-169.61 238.5,-162.16"/>
<polygon fill="#63b8ff" stroke="#63b8ff" points="235,-187.8 238.5,-197.8 242,-187.8 235,-187.8"/>
</a>
</g>
</g>
<!-- Node9&#45;&gt;Node3 -->
<g id="edge10_Node000009_Node000003" class="edge">
<title>Node9&#45;&gt;Node3</title>
<g id="a_edge10_Node000009_Node000003"><a xlink:title=" ">
<path fill="none" stroke="#63b8ff" d="M219.33,-124.09C211.24,-114.85 202.06,-104.36 194.89,-96.16"/>
<polygon fill="#63b8ff" stroke="#63b8ff" points="216.85,-126.58 226.07,-131.8 222.12,-121.97 216.85,-126.58"/>
</a>
</g>
</g>
<!-- Node9&#45;&gt;Node5 -->
<g id="edge11_Node000009_Node000005" class="edge">
<title>Node9&#45;&gt;Node5</title>
<g id="a_edge11_Node000009_Node000005"><a xlink:title=" ">
<path fill="none" stroke="#63b8ff" d="M250.84,-122.75C265.12,-95.84 288.18,-52.4 299.99,-30.14"/>
<polygon fill="#63b8ff" stroke="#63b8ff" points="247.61,-121.37 246.02,-131.84 253.8,-124.65 247.61,-121.37"/>
</a>
</g>
</g>
</g>
</svg>
