<?xml version="1.0" encoding="UTF-8" standalone="no"?>
<!DOCTYPE svg PUBLIC "-//W3C//DTD SVG 1.1//EN"
 "http://www.w3.org/Graphics/SVG/1.1/DTD/svg11.dtd">
<!-- Generated by graphviz version 2.43.0 (0)
 -->
<!-- Title: userver/formats/bson/document.hpp Pages: 1 -->
<svg width="1052pt" height="500pt"
 viewBox="0.00 0.00 1051.62 500.00" xmlns="http://www.w3.org/2000/svg" xmlns:xlink="http://www.w3.org/1999/xlink">
<g id="graph0" class="graph" transform="scale(1 1) rotate(0) translate(4 496)">
<title>userver/formats/bson/document.hpp</title>
<!-- Node1 -->
<g id="Node000001" class="node">
<title>Node1</title>
<g id="a_Node000001"><a xlink:title="BSON document.">
<polygon fill="#999999" stroke="#666666" points="576.62,-492 455.62,-492 455.62,-462 576.62,-462 576.62,-492"/>
<text text-anchor="start" x="463.62" y="-480" font-family="Helvetica,sans-Serif" font-size="10.00">userver/formats/bson</text>
<text text-anchor="middle" x="516.12" y="-469" font-family="Helvetica,sans-Serif" font-size="10.00">/document.hpp</text>
</a>
</g>
</g>
<!-- Node2 -->
<g id="Node000002" class="node">
<title>Node2</title>
<g id="a_Node000002"><a xlink:href="../../dd/d6c/base__mongo__cache_8hpp.html" target="_top" xlink:title="Base class for all caches polling mongo collection">
<polygon fill="white" stroke="#666666" points="315.62,-162 204.62,-162 204.62,-132 315.62,-132 315.62,-162"/>
<text text-anchor="start" x="212.62" y="-150" font-family="Helvetica,sans-Serif" font-size="10.00">userver/cache/base</text>
<text text-anchor="middle" x="260.12" y="-139" font-family="Helvetica,sans-Serif" font-size="10.00">_mongo_cache.hpp</text>
</a>
</g>
</g>
<!-- Node1&#45;&gt;Node2 -->
<g id="edge1_Node000001_Node000002" class="edge">
<title>Node1&#45;&gt;Node2</title>
<g id="a_edge1_Node000001_Node000002"><a xlink:title=" ">
<path fill="none" stroke="#63b8ff" d="M445.22,-473.33C315.96,-467.82 52.36,-453.35 21.12,-426 -6.37,-401.93 2.12,-382.54 2.12,-346 2.12,-346 2.12,-346 2.12,-278 2.12,-188.09 128.61,-160.36 204.46,-151.81"/>
<polygon fill="#63b8ff" stroke="#63b8ff" points="445.28,-476.84 455.42,-473.76 445.57,-469.85 445.28,-476.84"/>
</a>
</g>
</g>
<!-- Node3 -->
<g id="Node000003" class="node">
<title>Node3</title>
<g id="a_Node000003"><a xlink:href="../../d3/d9f/bson_8hpp.html" target="_top" xlink:title="Include&#45;all header for BSON support.">
<polygon fill="white" stroke="#666666" points="275.12,-354.5 133.12,-354.5 133.12,-335.5 275.12,-335.5 275.12,-354.5"/>
<text text-anchor="middle" x="204.12" y="-342.5" font-family="Helvetica,sans-Serif" font-size="10.00">userver/formats/bson.hpp</text>
</a>
</g>
</g>
<!-- Node1&#45;&gt;Node3 -->
<g id="edge2_Node000001_Node000003" class="edge">
<title>Node1&#45;&gt;Node3</title>
<g id="a_edge2_Node000001_Node000003"><a xlink:title=" ">
<path fill="none" stroke="#63b8ff" d="M445.24,-475.12C361.66,-472.4 230.14,-462.29 199.12,-426 181.76,-405.69 193.26,-370.84 200.09,-354.69"/>
<polygon fill="#63b8ff" stroke="#63b8ff" points="445.34,-478.62 455.44,-475.42 445.55,-471.63 445.34,-478.62"/>
</a>
</g>
</g>
<!-- Node4 -->
<g id="Node000004" class="node">
<title>Node4</title>
<g id="a_Node000004"><a xlink:href="../../db/d2e/binary_8hpp.html" target="_top" xlink:title="Binary representation helpers.">
<polygon fill="white" stroke="#666666" points="329.62,-426 208.62,-426 208.62,-396 329.62,-396 329.62,-426"/>
<text text-anchor="start" x="216.62" y="-414" font-family="Helvetica,sans-Serif" font-size="10.00">userver/formats/bson</text>
<text text-anchor="middle" x="269.12" y="-403" font-family="Helvetica,sans-Serif" font-size="10.00">/binary.hpp</text>
</a>
</g>
</g>
<!-- Node1&#45;&gt;Node4 -->
<g id="edge3_Node000001_Node000004" class="edge">
<title>Node1&#45;&gt;Node4</title>
<g id="a_edge3_Node000001_Node000004"><a xlink:title=" ">
<path fill="none" stroke="#63b8ff" d="M452,-459.39C412.02,-449.03 361.14,-435.84 323.2,-426.01"/>
<polygon fill="#63b8ff" stroke="#63b8ff" points="451.36,-462.83 461.92,-461.95 453.12,-456.06 451.36,-462.83"/>
</a>
</g>
</g>
<!-- Node5 -->
<g id="Node000005" class="node">
<title>Node5</title>
<g id="a_Node000005"><a xlink:href="../../d1/d71/mongo_2include_2userver_2formats_2bson_2inline_8hpp.html" target="_top" xlink:title="Inline value builders.">
<polygon fill="white" stroke="#666666" points="151.62,-426 30.62,-426 30.62,-396 151.62,-396 151.62,-426"/>
<text text-anchor="start" x="38.62" y="-414" font-family="Helvetica,sans-Serif" font-size="10.00">userver/formats/bson</text>
<text text-anchor="middle" x="91.12" y="-403" font-family="Helvetica,sans-Serif" font-size="10.00">/inline.hpp</text>
</a>
</g>
</g>
<!-- Node1&#45;&gt;Node5 -->
<g id="edge5_Node000001_Node000005" class="edge">
<title>Node1&#45;&gt;Node5</title>
<g id="a_edge5_Node000001_Node000005"><a xlink:title=" ">
<path fill="none" stroke="#63b8ff" d="M445.48,-466.81C374.69,-457.39 262.67,-441.9 166.12,-426 161.42,-425.23 156.55,-424.39 151.67,-423.53"/>
<polygon fill="#63b8ff" stroke="#63b8ff" points="445.24,-470.31 455.62,-468.15 446.16,-463.37 445.24,-470.31"/>
</a>
</g>
</g>
<!-- Node6 -->
<g id="Node000006" class="node">
<title>Node6</title>
<g id="a_Node000006"><a xlink:href="../../d6/de5/mongo_2include_2userver_2formats_2bson_2serialize_8hpp.html" target="_top" xlink:title="Textual serialization helpers.">
<polygon fill="white" stroke="#666666" points="1028.62,-426 907.62,-426 907.62,-396 1028.62,-396 1028.62,-426"/>
<text text-anchor="start" x="915.62" y="-414" font-family="Helvetica,sans-Serif" font-size="10.00">userver/formats/bson</text>
<text text-anchor="middle" x="968.12" y="-403" font-family="Helvetica,sans-Serif" font-size="10.00">/serialize.hpp</text>
</a>
</g>
</g>
<!-- Node1&#45;&gt;Node6 -->
<g id="edge8_Node000001_Node000006" class="edge">
<title>Node1&#45;&gt;Node6</title>
<g id="a_edge8_Node000001_Node000006"><a xlink:title=" ">
<path fill="none" stroke="#63b8ff" d="M587.05,-467.72C662.95,-458.6 786.8,-442.96 893.12,-426 897.83,-425.25 902.7,-424.43 907.59,-423.58"/>
<polygon fill="#63b8ff" stroke="#63b8ff" points="586.18,-464.3 576.66,-468.97 587.01,-471.25 586.18,-464.3"/>
</a>
</g>
</g>
<!-- Node7 -->
<g id="Node000007" class="node">
<title>Node7</title>
<g id="a_Node000007"><a xlink:href="../../dc/d8c/mongo_2include_2userver_2formats_2bson_2value__builder_8hpp.html" target="_top" xlink:title="Builder for BSON.">
<polygon fill="white" stroke="#666666" points="468.62,-426 347.62,-426 347.62,-396 468.62,-396 468.62,-426"/>
<text text-anchor="start" x="355.62" y="-414" font-family="Helvetica,sans-Serif" font-size="10.00">userver/formats/bson</text>
<text text-anchor="middle" x="408.12" y="-403" font-family="Helvetica,sans-Serif" font-size="10.00">/value_builder.hpp</text>
</a>
</g>
</g>
<!-- Node1&#45;&gt;Node7 -->
<g id="edge9_Node000001_Node000007" class="edge">
<title>Node1&#45;&gt;Node7</title>
<g id="a_edge9_Node000001_Node000007"><a xlink:title=" ">
<path fill="none" stroke="#63b8ff" d="M483.55,-456.69C466.87,-446.82 446.95,-435.01 431.77,-426.01"/>
<polygon fill="#63b8ff" stroke="#63b8ff" points="482.04,-459.87 492.42,-461.95 485.6,-453.85 482.04,-459.87"/>
</a>
</g>
</g>
<!-- Node8 -->
<g id="Node000008" class="node">
<title>Node8</title>
<g id="a_Node000008"><a xlink:href="../../d3/df1/bulk__ops_8hpp.html" target="_top" xlink:title="Bulk sub&#45;operation models.">
<polygon fill="white" stroke="#666666" points="812.62,-360 677.62,-360 677.62,-330 812.62,-330 812.62,-360"/>
<text text-anchor="start" x="685.62" y="-348" font-family="Helvetica,sans-Serif" font-size="10.00">userver/storages/mongo</text>
<text text-anchor="middle" x="745.12" y="-337" font-family="Helvetica,sans-Serif" font-size="10.00">/bulk_ops.hpp</text>
</a>
</g>
</g>
<!-- Node1&#45;&gt;Node8 -->
<g id="edge12_Node000001_Node000008" class="edge">
<title>Node1&#45;&gt;Node8</title>
<g id="a_edge12_Node000001_Node000008"><a xlink:title=" ">
<path fill="none" stroke="#63b8ff" d="M586.87,-472.19C626.39,-466.75 674.33,-454.25 708.12,-426 728.55,-408.92 738.3,-378.1 742.46,-360.11"/>
<polygon fill="#63b8ff" stroke="#63b8ff" points="586.25,-468.74 576.76,-473.45 587.12,-475.69 586.25,-468.74"/>
</a>
</g>
</g>
<!-- Node11 -->
<g id="Node000011" class="node">
<title>Node11</title>
<g id="a_Node000011"><a xlink:href="../../d4/db6/collection_8hpp.html" target="_top" xlink:title="MongoDB collection handle, the main way to operate with MongoDB.">
<polygon fill="white" stroke="#666666" points="660.62,-228 525.62,-228 525.62,-198 660.62,-198 660.62,-228"/>
<text text-anchor="start" x="533.62" y="-216" font-family="Helvetica,sans-Serif" font-size="10.00">userver/storages/mongo</text>
<text text-anchor="middle" x="593.12" y="-205" font-family="Helvetica,sans-Serif" font-size="10.00">/collection.hpp</text>
</a>
</g>
</g>
<!-- Node1&#45;&gt;Node11 -->
<g id="edge26_Node000001_Node000011" class="edge">
<title>Node1&#45;&gt;Node11</title>
<g id="a_edge26_Node000001_Node000011"><a xlink:title=" ">
<path fill="none" stroke="#63b8ff" d="M516.94,-451.96C519.08,-411.51 526.87,-327.97 555.12,-264 561.03,-250.64 571.16,-237.56 579.48,-228.14"/>
<polygon fill="#63b8ff" stroke="#63b8ff" points="513.44,-451.81 516.48,-461.96 520.44,-452.13 513.44,-451.81"/>
</a>
</g>
</g>
<!-- Node17 -->
<g id="Node000017" class="node">
<title>Node17</title>
<g id="a_Node000017"><a xlink:href="../../d7/dfb/cursor_8hpp.html" target="_top" xlink:title="Interface for MongoDB query cursors.">
<polygon fill="white" stroke="#666666" points="1043.62,-294 908.62,-294 908.62,-264 1043.62,-264 1043.62,-294"/>
<text text-anchor="start" x="916.62" y="-282" font-family="Helvetica,sans-Serif" font-size="10.00">userver/storages/mongo</text>
<text text-anchor="middle" x="976.12" y="-271" font-family="Helvetica,sans-Serif" font-size="10.00">/cursor.hpp</text>
</a>
</g>
</g>
<!-- Node1&#45;&gt;Node17 -->
<g id="edge27_Node000001_Node000017" class="edge">
<title>Node1&#45;&gt;Node17</title>
<g id="a_edge27_Node000001_Node000017"><a xlink:title=" ">
<path fill="none" stroke="#63b8ff" d="M586.79,-470.85C640.53,-464.96 715.34,-452.44 776.12,-426 853.78,-392.22 930.36,-323.97 961.53,-294.31"/>
<polygon fill="#63b8ff" stroke="#63b8ff" points="586.25,-467.39 576.67,-471.91 586.98,-474.35 586.25,-467.39"/>
</a>
</g>
</g>
<!-- Node18 -->
<g id="Node000018" class="node">
<title>Node18</title>
<g id="a_Node000018"><a xlink:href="../../de/d6b/mongo_2include_2userver_2storages_2mongo_2operations_8hpp.html" target="_top" xlink:title="Collection operation models.">
<polygon fill="white" stroke="#666666" points="506.62,-360 371.62,-360 371.62,-330 506.62,-330 506.62,-360"/>
<text text-anchor="start" x="379.62" y="-348" font-family="Helvetica,sans-Serif" font-size="10.00">userver/storages/mongo</text>
<text text-anchor="middle" x="439.12" y="-337" font-family="Helvetica,sans-Serif" font-size="10.00">/operations.hpp</text>
</a>
</g>
</g>
<!-- Node1&#45;&gt;Node18 -->
<g id="edge30_Node000001_Node000018" class="edge">
<title>Node1&#45;&gt;Node18</title>
<g id="a_edge30_Node000001_Node000018"><a xlink:title=" ">
<path fill="none" stroke="#63b8ff" d="M506.62,-452.58C499.61,-436.25 489.36,-414.2 478.12,-396 470.26,-383.26 459.75,-369.94 451.61,-360.26"/>
<polygon fill="#63b8ff" stroke="#63b8ff" points="503.45,-454.07 510.55,-461.93 509.9,-451.36 503.45,-454.07"/>
</a>
</g>
</g>
<!-- Node19 -->
<g id="Node000019" class="node">
<title>Node19</title>
<g id="a_Node000019"><a xlink:href="../../d2/d54/mongo_2include_2userver_2storages_2mongo_2options_8hpp.html" target="_top" xlink:title="Query options.">
<polygon fill="white" stroke="#666666" points="698.62,-426 563.62,-426 563.62,-396 698.62,-396 698.62,-426"/>
<text text-anchor="start" x="571.62" y="-414" font-family="Helvetica,sans-Serif" font-size="10.00">userver/storages/mongo</text>
<text text-anchor="middle" x="631.12" y="-403" font-family="Helvetica,sans-Serif" font-size="10.00">/options.hpp</text>
</a>
</g>
</g>
<!-- Node1&#45;&gt;Node19 -->
<g id="edge33_Node000001_Node000019" class="edge">
<title>Node1&#45;&gt;Node19</title>
<g id="a_edge33_Node000001_Node000019"><a xlink:title=" ">
<path fill="none" stroke="#63b8ff" d="M550.32,-456.97C568.17,-447.03 589.63,-435.09 605.95,-426.01"/>
<polygon fill="#63b8ff" stroke="#63b8ff" points="548.4,-454.03 541.36,-461.95 551.8,-460.15 548.4,-454.03"/>
</a>
</g>
</g>
<!-- Node20 -->
<g id="Node000020" class="node">
<title>Node20</title>
<g id="a_Node000020"><a xlink:href="../../d7/d6e/write__result_8hpp_source.html" target="_top" xlink:title=" ">
<polygon fill="white" stroke="#666666" points="890.62,-294 755.62,-294 755.62,-264 890.62,-264 890.62,-294"/>
<text text-anchor="start" x="763.62" y="-282" font-family="Helvetica,sans-Serif" font-size="10.00">userver/storages/mongo</text>
<text text-anchor="middle" x="823.12" y="-271" font-family="Helvetica,sans-Serif" font-size="10.00">/write_result.hpp</text>
</a>
</g>
</g>
<!-- Node1&#45;&gt;Node20 -->
<g id="edge39_Node000001_Node000020" class="edge">
<title>Node1&#45;&gt;Node20</title>
<g id="a_edge39_Node000001_Node000020"><a xlink:title=" ">
<path fill="none" stroke="#63b8ff" d="M586.82,-467.04C630.18,-459.77 686.03,-447.14 732.12,-426 777.21,-405.32 799.43,-404.11 822.12,-360 832.87,-339.13 829.86,-310.95 826.58,-294.21"/>
<polygon fill="#63b8ff" stroke="#63b8ff" points="586.23,-463.59 576.92,-468.64 587.35,-470.5 586.23,-463.59"/>
</a>
</g>
</g>
<!-- Node4&#45;&gt;Node3 -->
<g id="edge4_Node000004_Node000003" class="edge">
<title>Node4&#45;&gt;Node3</title>
<g id="a_edge4_Node000004_Node000003"><a xlink:title=" ">
<path fill="none" stroke="#63b8ff" d="M247.39,-388.6C235.7,-377.1 221.92,-363.52 213.11,-354.84"/>
<polygon fill="#63b8ff" stroke="#63b8ff" points="245.12,-391.27 254.7,-395.8 250.03,-386.29 245.12,-391.27"/>
</a>
</g>
</g>
<!-- Node5&#45;&gt;Node2 -->
<g id="edge6_Node000005_Node000002" class="edge">
<title>Node5&#45;&gt;Node2</title>
<g id="a_edge6_Node000005_Node000002"><a xlink:title=" ">
<path fill="none" stroke="#63b8ff" d="M99.19,-386.1C105.12,-369.81 113.9,-348 124.12,-330 162.3,-262.77 221.74,-191.8 247.51,-162.23"/>
<polygon fill="#63b8ff" stroke="#63b8ff" points="95.75,-385.33 95.72,-395.92 102.35,-387.66 95.75,-385.33"/>
</a>
</g>
</g>
<!-- Node5&#45;&gt;Node3 -->
<g id="edge7_Node000005_Node000003" class="edge">
<title>Node5&#45;&gt;Node3</title>
<g id="a_edge7_Node000005_Node000003"><a xlink:title=" ">
<path fill="none" stroke="#63b8ff" d="M124.72,-390.97C146.09,-378.87 172.74,-363.78 189.09,-354.52"/>
<polygon fill="#63b8ff" stroke="#63b8ff" points="122.9,-387.98 115.92,-395.95 126.35,-394.07 122.9,-387.98"/>
</a>
</g>
</g>
<!-- Node7&#45;&gt;Node2 -->
<g id="edge10_Node000007_Node000002" class="edge">
<title>Node7&#45;&gt;Node2</title>
<g id="a_edge10_Node000007_Node000002"><a xlink:title=" ">
<path fill="none" stroke="#63b8ff" d="M386.22,-388.36C378.37,-379.94 369.82,-369.94 363.12,-360 316.51,-290.75 278.78,-197.25 265.38,-162.12"/>
<polygon fill="#63b8ff" stroke="#63b8ff" points="383.71,-390.8 393.16,-395.6 388.77,-385.96 383.71,-390.8"/>
</a>
</g>
</g>
<!-- Node7&#45;&gt;Node3 -->
<g id="edge11_Node000007_Node000003" class="edge">
<title>Node7&#45;&gt;Node3</title>
<g id="a_edge11_Node000007_Node000003"><a xlink:title=" ">
<path fill="none" stroke="#63b8ff" d="M353.6,-392.89C314.09,-380.5 262.36,-364.27 231.27,-354.52"/>
<polygon fill="#63b8ff" stroke="#63b8ff" points="352.77,-396.3 363.36,-395.95 354.86,-389.62 352.77,-396.3"/>
</a>
</g>
</g>
<!-- Node9 -->
<g id="Node000009" class="node">
<title>Node9</title>
<g id="a_Node000009"><a xlink:href="../../d5/d0f/bulk_8hpp.html" target="_top" xlink:title="Bulk collection operation model.">
<polygon fill="white" stroke="#666666" points="698.62,-294 563.62,-294 563.62,-264 698.62,-264 698.62,-294"/>
<text text-anchor="start" x="571.62" y="-282" font-family="Helvetica,sans-Serif" font-size="10.00">userver/storages/mongo</text>
<text text-anchor="middle" x="631.12" y="-271" font-family="Helvetica,sans-Serif" font-size="10.00">/bulk.hpp</text>
</a>
</g>
</g>
<!-- Node8&#45;&gt;Node9 -->
<g id="edge13_Node000008_Node000009" class="edge">
<title>Node8&#45;&gt;Node9</title>
<g id="a_edge13_Node000008_Node000009"><a xlink:title=" ">
<path fill="none" stroke="#63b8ff" d="M711.22,-324.97C693.53,-315.03 672.26,-303.09 656.08,-294.01"/>
<polygon fill="#63b8ff" stroke="#63b8ff" points="709.67,-328.11 720.11,-329.95 713.1,-322.01 709.67,-328.11"/>
</a>
</g>
</g>
<!-- Node10 -->
<g id="Node000010" class="node">
<title>Node10</title>
<g id="a_Node000010"><a xlink:href="../../d2/d86/mongo_8hpp.html" target="_top" xlink:title="Include&#45;all header for MongoDB client.">
<polygon fill="white" stroke="#666666" points="824.12,-90.5 668.12,-90.5 668.12,-71.5 824.12,-71.5 824.12,-90.5"/>
<text text-anchor="middle" x="746.12" y="-78.5" font-family="Helvetica,sans-Serif" font-size="10.00">userver/storages/mongo.hpp</text>
</a>
</g>
</g>
<!-- Node9&#45;&gt;Node10 -->
<g id="edge14_Node000009_Node000010" class="edge">
<title>Node9&#45;&gt;Node10</title>
<g id="a_edge14_Node000009_Node000010"><a xlink:title=" ">
<path fill="none" stroke="#63b8ff" d="M649.89,-255.74C656.63,-247.3 664.05,-237.45 670.12,-228 702.1,-178.24 732.06,-113.49 742.35,-90.53"/>
<polygon fill="#63b8ff" stroke="#63b8ff" points="647.06,-253.68 643.46,-263.64 652.49,-258.1 647.06,-253.68"/>
</a>
</g>
</g>
<!-- Node9&#45;&gt;Node11 -->
<g id="edge15_Node000009_Node000011" class="edge">
<title>Node9&#45;&gt;Node11</title>
<g id="a_edge15_Node000009_Node000011"><a xlink:title=" ">
<path fill="none" stroke="#63b8ff" d="M617.44,-254.96C612.13,-246 606.2,-236.03 601.53,-228.16"/>
<polygon fill="#63b8ff" stroke="#63b8ff" points="614.58,-256.98 622.69,-263.8 620.59,-253.41 614.58,-256.98"/>
</a>
</g>
</g>
<!-- Node11&#45;&gt;Node2 -->
<g id="edge16_Node000011_Node000002" class="edge">
<title>Node11&#45;&gt;Node2</title>
<g id="a_edge16_Node000011_Node000002"><a xlink:title=" ">
<path fill="none" stroke="#63b8ff" d="M515.63,-197.47C463.23,-187.59 392.48,-174.16 330.12,-162 325.5,-161.1 320.71,-160.16 315.9,-159.2"/>
<polygon fill="#63b8ff" stroke="#63b8ff" points="515.05,-200.92 525.52,-199.33 516.34,-194.04 515.05,-200.92"/>
</a>
</g>
</g>
<!-- Node11&#45;&gt;Node10 -->
<g id="edge17_Node000011_Node000010" class="edge">
<title>Node11&#45;&gt;Node10</title>
<g id="a_edge17_Node000011_Node000010"><a xlink:title=" ">
<path fill="none" stroke="#63b8ff" d="M626.88,-192.48C640.79,-183.84 656.75,-173.12 670.12,-162 698.12,-138.73 726.42,-105.94 739.16,-90.57"/>
<polygon fill="#63b8ff" stroke="#63b8ff" points="624.79,-189.65 618.08,-197.85 628.44,-195.63 624.79,-189.65"/>
</a>
</g>
</g>
<!-- Node12 -->
<g id="Node000012" class="node">
<title>Node12</title>
<g id="a_Node000012"><a xlink:href="../../d5/d93/mongo_2include_2userver_2storages_2mongo_2dist__lock__component__base_8hpp.html" target="_top" xlink:title="Base class for mongo&#45;based distlock worker components.">
<polygon fill="white" stroke="#666666" points="452.62,-96 279.62,-96 279.62,-66 452.62,-66 452.62,-96"/>
<text text-anchor="start" x="287.62" y="-84" font-family="Helvetica,sans-Serif" font-size="10.00">userver/storages/mongo</text>
<text text-anchor="middle" x="366.12" y="-73" font-family="Helvetica,sans-Serif" font-size="10.00">/dist_lock_component_base.hpp</text>
</a>
</g>
</g>
<!-- Node11&#45;&gt;Node12 -->
<g id="edge18_Node000011_Node000012" class="edge">
<title>Node11&#45;&gt;Node12</title>
<g id="a_edge18_Node000011_Node000012"><a xlink:title=" ">
<path fill="none" stroke="#63b8ff" d="M515.38,-197.42C450.92,-184.96 369.04,-168.1 364.12,-162 349.14,-143.39 355.19,-113.67 360.78,-96.18"/>
<polygon fill="#63b8ff" stroke="#63b8ff" points="515.08,-200.93 525.57,-199.38 516.41,-194.05 515.08,-200.93"/>
</a>
</g>
</g>
<!-- Node13 -->
<g id="Node000013" class="node">
<title>Node13</title>
<g id="a_Node000013"><a xlink:href="../../d6/d83/mongo_2include_2userver_2storages_2mongo_2dist__lock__strategy_8hpp_source.html" target="_top" xlink:title=" ">
<polygon fill="white" stroke="#666666" points="507.62,-162 372.62,-162 372.62,-132 507.62,-132 507.62,-162"/>
<text text-anchor="start" x="380.62" y="-150" font-family="Helvetica,sans-Serif" font-size="10.00">userver/storages/mongo</text>
<text text-anchor="middle" x="440.12" y="-139" font-family="Helvetica,sans-Serif" font-size="10.00">/dist_lock_strategy.hpp</text>
</a>
</g>
</g>
<!-- Node11&#45;&gt;Node13 -->
<g id="edge19_Node000011_Node000013" class="edge">
<title>Node11&#45;&gt;Node13</title>
<g id="a_edge19_Node000011_Node000013"><a xlink:title=" ">
<path fill="none" stroke="#63b8ff" d="M550.22,-194.05C525.98,-183.91 496.13,-171.43 473.62,-162.01"/>
<polygon fill="#63b8ff" stroke="#63b8ff" points="548.97,-197.32 559.55,-197.95 551.67,-190.87 548.97,-197.32"/>
</a>
</g>
</g>
<!-- Node14 -->
<g id="Node000014" class="node">
<title>Node14</title>
<g id="a_Node000014"><a xlink:href="../../d8/d62/mongo_2include_2userver_2storages_2mongo_2pool_8hpp.html" target="_top" xlink:title="MongoDB client pool.">
<polygon fill="white" stroke="#666666" points="660.62,-162 525.62,-162 525.62,-132 660.62,-132 660.62,-162"/>
<text text-anchor="start" x="533.62" y="-150" font-family="Helvetica,sans-Serif" font-size="10.00">userver/storages/mongo</text>
<text text-anchor="middle" x="593.12" y="-139" font-family="Helvetica,sans-Serif" font-size="10.00">/pool.hpp</text>
</a>
</g>
</g>
<!-- Node11&#45;&gt;Node14 -->
<g id="edge21_Node000011_Node000014" class="edge">
<title>Node11&#45;&gt;Node14</title>
<g id="a_edge21_Node000011_Node000014"><a xlink:title=" ">
<path fill="none" stroke="#63b8ff" d="M593.12,-187.54C593.12,-178.96 593.12,-169.61 593.12,-162.16"/>
<polygon fill="#63b8ff" stroke="#63b8ff" points="589.62,-187.8 593.12,-197.8 596.62,-187.8 589.62,-187.8"/>
</a>
</g>
</g>
<!-- Node13&#45;&gt;Node12 -->
<g id="edge20_Node000013_Node000012" class="edge">
<title>Node13&#45;&gt;Node12</title>
<g id="a_edge20_Node000013_Node000012"><a xlink:title=" ">
<path fill="none" stroke="#63b8ff" d="M416.08,-125.2C405.09,-115.7 392.36,-104.69 382.5,-96.16"/>
<polygon fill="#63b8ff" stroke="#63b8ff" points="413.85,-127.9 423.7,-131.8 418.43,-122.61 413.85,-127.9"/>
</a>
</g>
</g>
<!-- Node14&#45;&gt;Node10 -->
<g id="edge22_Node000014_Node000010" class="edge">
<title>Node14&#45;&gt;Node10</title>
<g id="a_edge22_Node000014_Node000010"><a xlink:title=" ">
<path fill="none" stroke="#63b8ff" d="M636.3,-127.94C665.61,-115.68 703.04,-100.02 725.76,-90.52"/>
<polygon fill="#63b8ff" stroke="#63b8ff" points="634.58,-124.87 626.7,-131.95 637.28,-131.32 634.58,-124.87"/>
</a>
</g>
</g>
<!-- Node15 -->
<g id="Node000015" class="node">
<title>Node15</title>
<g id="a_Node000015"><a xlink:href="../../d1/dd7/mongo_2include_2userver_2storages_2mongo_2component_8hpp.html" target="_top" xlink:title="MongoDB client component.">
<polygon fill="white" stroke="#666666" points="657.62,-30 522.62,-30 522.62,0 657.62,0 657.62,-30"/>
<text text-anchor="start" x="530.62" y="-18" font-family="Helvetica,sans-Serif" font-size="10.00">userver/storages/mongo</text>
<text text-anchor="middle" x="590.12" y="-7" font-family="Helvetica,sans-Serif" font-size="10.00">/component.hpp</text>
</a>
</g>
</g>
<!-- Node14&#45;&gt;Node15 -->
<g id="edge23_Node000014_Node000015" class="edge">
<title>Node14&#45;&gt;Node15</title>
<g id="a_edge23_Node000014_Node000015"><a xlink:title=" ">
<path fill="none" stroke="#63b8ff" d="M607.9,-123.22C612.43,-114.98 616.83,-105.39 619.12,-96 622.29,-83.05 622.59,-78.88 619.12,-66 615.63,-53.01 607.85,-39.92 601.22,-30.4"/>
<polygon fill="#63b8ff" stroke="#63b8ff" points="604.87,-121.47 602.82,-131.86 610.9,-125.01 604.87,-121.47"/>
</a>
</g>
</g>
<!-- Node16 -->
<g id="Node000016" class="node">
<title>Node16</title>
<g id="a_Node000016"><a xlink:href="../../d2/de5/multi__mongo_8hpp_source.html" target="_top" xlink:title=" ">
<polygon fill="white" stroke="#666666" points="609.62,-96 474.62,-96 474.62,-66 609.62,-66 609.62,-96"/>
<text text-anchor="start" x="482.62" y="-84" font-family="Helvetica,sans-Serif" font-size="10.00">userver/storages/mongo</text>
<text text-anchor="middle" x="542.12" y="-73" font-family="Helvetica,sans-Serif" font-size="10.00">/multi_mongo.hpp</text>
</a>
</g>
</g>
<!-- Node14&#45;&gt;Node16 -->
<g id="edge24_Node000014_Node000016" class="edge">
<title>Node14&#45;&gt;Node16</title>
<g id="a_edge24_Node000014_Node000016"><a xlink:title=" ">
<path fill="none" stroke="#63b8ff" d="M575.44,-123.81C568.13,-114.64 559.88,-104.28 553.41,-96.16"/>
<polygon fill="#63b8ff" stroke="#63b8ff" points="572.84,-126.16 581.81,-131.8 578.31,-121.79 572.84,-126.16"/>
</a>
</g>
</g>
<!-- Node16&#45;&gt;Node15 -->
<g id="edge25_Node000016_Node000015" class="edge">
<title>Node16&#45;&gt;Node15</title>
<g id="a_edge25_Node000016_Node000015"><a xlink:title=" ">
<path fill="none" stroke="#63b8ff" d="M558.98,-57.53C565.8,-48.43 573.48,-38.19 579.5,-30.16"/>
<polygon fill="#63b8ff" stroke="#63b8ff" points="555.98,-55.7 552.78,-65.8 561.58,-59.9 555.98,-55.7"/>
</a>
</g>
</g>
<!-- Node17&#45;&gt;Node10 -->
<g id="edge28_Node000017_Node000010" class="edge">
<title>Node17&#45;&gt;Node10</title>
<g id="a_edge28_Node000017_Node000010"><a xlink:title=" ">
<path fill="none" stroke="#63b8ff" d="M951.89,-257.35C902.22,-215.02 790.68,-119.97 756.36,-90.73"/>
<polygon fill="#63b8ff" stroke="#63b8ff" points="949.7,-260.08 959.58,-263.9 954.24,-254.75 949.7,-260.08"/>
</a>
</g>
</g>
<!-- Node17&#45;&gt;Node11 -->
<g id="edge29_Node000017_Node000011" class="edge">
<title>Node17&#45;&gt;Node11</title>
<g id="a_edge29_Node000017_Node000011"><a xlink:title=" ">
<path fill="none" stroke="#63b8ff" d="M898.48,-263.73C810.93,-248.61 720.81,-234.11 660.87,-224.62"/>
<polygon fill="#63b8ff" stroke="#63b8ff" points="898.14,-267.23 908.59,-265.48 899.34,-260.33 898.14,-267.23"/>
</a>
</g>
</g>
<!-- Node18&#45;&gt;Node2 -->
<g id="edge31_Node000018_Node000002" class="edge">
<title>Node18&#45;&gt;Node2</title>
<g id="a_edge31_Node000018_Node000002"><a xlink:title=" ">
<path fill="none" stroke="#63b8ff" d="M428.09,-320.44C412.68,-289.46 382.3,-234.68 344.12,-198 328.7,-183.18 308.11,-170.84 291.18,-162.12"/>
<polygon fill="#63b8ff" stroke="#63b8ff" points="425.03,-322.15 432.55,-329.61 431.32,-319.09 425.03,-322.15"/>
</a>
</g>
</g>
<!-- Node18&#45;&gt;Node11 -->
<g id="edge32_Node000018_Node000011" class="edge">
<title>Node18&#45;&gt;Node11</title>
<g id="a_edge32_Node000018_Node000011"><a xlink:title=" ">
<path fill="none" stroke="#63b8ff" d="M459.38,-322.36C475.45,-305.66 498.85,-282.39 521.12,-264 536.97,-250.92 556.12,-237.73 570.69,-228.19"/>
<polygon fill="#63b8ff" stroke="#63b8ff" points="456.48,-320.32 452.12,-329.97 461.55,-325.15 456.48,-320.32"/>
</a>
</g>
</g>
<!-- Node19&#45;&gt;Node2 -->
<g id="edge34_Node000019_Node000002" class="edge">
<title>Node19&#45;&gt;Node2</title>
<g id="a_edge34_Node000019_Node000002"><a xlink:title=" ">
<path fill="none" stroke="#63b8ff" d="M609.2,-388.87C566.09,-348.12 466.14,-257.45 370.12,-198 347.03,-183.7 319.15,-171.07 297.24,-162.08"/>
<polygon fill="#63b8ff" stroke="#63b8ff" points="606.91,-391.52 616.57,-395.88 611.73,-386.45 606.91,-391.52"/>
</a>
</g>
</g>
<!-- Node19&#45;&gt;Node8 -->
<g id="edge37_Node000019_Node000008" class="edge">
<title>Node19&#45;&gt;Node8</title>
<g id="a_edge37_Node000019_Node000008"><a xlink:title=" ">
<path fill="none" stroke="#63b8ff" d="M665.02,-390.97C682.72,-381.03 703.99,-369.09 720.16,-360.01"/>
<polygon fill="#63b8ff" stroke="#63b8ff" points="663.15,-388.01 656.14,-395.95 666.57,-394.11 663.15,-388.01"/>
</a>
</g>
</g>
<!-- Node19&#45;&gt;Node9 -->
<g id="edge36_Node000019_Node000009" class="edge">
<title>Node19&#45;&gt;Node9</title>
<g id="a_edge36_Node000019_Node000009"><a xlink:title=" ">
<path fill="none" stroke="#63b8ff" d="M631.12,-385.68C631.12,-358.7 631.12,-316.11 631.12,-294.14"/>
<polygon fill="#63b8ff" stroke="#63b8ff" points="627.62,-385.84 631.12,-395.84 634.62,-385.84 627.62,-385.84"/>
</a>
</g>
</g>
<!-- Node19&#45;&gt;Node10 -->
<g id="edge35_Node000019_Node000010" class="edge">
<title>Node19&#45;&gt;Node10</title>
<g id="a_edge35_Node000019_Node000010"><a xlink:title=" ">
<path fill="none" stroke="#63b8ff" d="M639.61,-386.27C646.2,-369.62 656.37,-347.33 669.12,-330 683.11,-311 696.79,-314.69 708.12,-294 746.94,-223.17 747.31,-120.94 746.47,-90.72"/>
<polygon fill="#63b8ff" stroke="#63b8ff" points="636.26,-385.22 635.97,-395.81 642.8,-387.72 636.26,-385.22"/>
</a>
</g>
</g>
<!-- Node19&#45;&gt;Node18 -->
<g id="edge38_Node000019_Node000018" class="edge">
<title>Node19&#45;&gt;Node18</title>
<g id="a_edge38_Node000019_Node000018"><a xlink:title=" ">
<path fill="none" stroke="#63b8ff" d="M579.29,-392.72C548.53,-382.47 510.02,-369.63 481.16,-360.01"/>
<polygon fill="#63b8ff" stroke="#63b8ff" points="578.39,-396.11 588.99,-395.95 580.61,-389.47 578.39,-396.11"/>
</a>
</g>
</g>
<!-- Node20&#45;&gt;Node10 -->
<g id="edge40_Node000020_Node000010" class="edge">
<title>Node20&#45;&gt;Node10</title>
<g id="a_edge40_Node000020_Node000010"><a xlink:title=" ">
<path fill="none" stroke="#63b8ff" d="M818.14,-253.96C811.51,-224.37 798.33,-173 779.12,-132 771.89,-116.55 760.38,-100.38 753.04,-90.75"/>
<polygon fill="#63b8ff" stroke="#63b8ff" points="814.74,-254.79 820.29,-263.82 821.58,-253.3 814.74,-254.79"/>
</a>
</g>
</g>
<!-- Node20&#45;&gt;Node11 -->
<g id="edge41_Node000020_Node000011" class="edge">
<title>Node20&#45;&gt;Node11</title>
<g id="a_edge41_Node000020_Node000011"><a xlink:title=" ">
<path fill="none" stroke="#63b8ff" d="M762.94,-261.25C725.78,-250.91 678.66,-237.8 643.48,-228.01"/>
<polygon fill="#63b8ff" stroke="#63b8ff" points="762.08,-264.65 772.65,-263.95 763.95,-257.9 762.08,-264.65"/>
</a>
</g>
</g>
</g>
</svg>
