<?xml version="1.0" encoding="UTF-8" standalone="no"?>
<!DOCTYPE svg PUBLIC "-//W3C//DTD SVG 1.1//EN"
 "http://www.w3.org/Graphics/SVG/1.1/DTD/svg11.dtd">
<!-- Generated by graphviz version 2.43.0 (0)
 -->
<!-- Title: userver/utils/sliding_interval.hpp Pages: 1 -->
<svg width="1057pt" height="445pt"
 viewBox="0.00 0.00 1056.87 445.00" xmlns="http://www.w3.org/2000/svg" xmlns:xlink="http://www.w3.org/1999/xlink">
<g id="graph0" class="graph" transform="scale(1 1) rotate(0) translate(4 441)">
<title>userver/utils/sliding_interval.hpp</title>
<!-- Node1 -->
<g id="Node000001" class="node">
<title>Node1</title>
<g id="a_Node000001"><a xlink:title="Sliding interval of values that provides functions to compute average, min and max values from the la...">
<polygon fill="#999999" stroke="#666666" points="441,-437 328,-437 328,-407 441,-407 441,-437"/>
<text text-anchor="start" x="336" y="-425" font-family="Helvetica,sans-Serif" font-size="10.00">userver/utils/sliding</text>
<text text-anchor="middle" x="384.5" y="-414" font-family="Helvetica,sans-Serif" font-size="10.00">_interval.hpp</text>
</a>
</g>
</g>
<!-- Node2 -->
<g id="Node000002" class="node">
<title>Node2</title>
<g id="a_Node000002"><a xlink:href="../../d9/d28/linear_8hpp_source.html" target="_top" xlink:title=" ">
<polygon fill="white" stroke="#666666" points="439.5,-371 329.5,-371 329.5,-330 439.5,-330 439.5,-371"/>
<text text-anchor="start" x="337.5" y="-359" font-family="Helvetica,sans-Serif" font-size="10.00">userver/congestion</text>
<text text-anchor="start" x="337.5" y="-348" font-family="Helvetica,sans-Serif" font-size="10.00">_control/controllers</text>
<text text-anchor="middle" x="384.5" y="-337" font-family="Helvetica,sans-Serif" font-size="10.00">/linear.hpp</text>
</a>
</g>
</g>
<!-- Node1&#45;&gt;Node2 -->
<g id="edge1_Node000001_Node000002" class="edge">
<title>Node1&#45;&gt;Node2</title>
<g id="a_edge1_Node000001_Node000002"><a xlink:title=" ">
<path fill="none" stroke="#63b8ff" d="M384.5,-396.91C384.5,-388.47 384.5,-379.1 384.5,-371.07"/>
<polygon fill="#63b8ff" stroke="#63b8ff" points="381,-396.94 384.5,-406.94 388,-396.94 381,-396.94"/>
</a>
</g>
</g>
<!-- Node3 -->
<g id="Node000003" class="node">
<title>Node3</title>
<g id="a_Node000003"><a xlink:href="../../d8/d6c/pool__config_8hpp.html" target="_top" xlink:title="MongoDB connection pool configuration.">
<polygon fill="white" stroke="#666666" points="295,-294 160,-294 160,-264 295,-264 295,-294"/>
<text text-anchor="start" x="168" y="-282" font-family="Helvetica,sans-Serif" font-size="10.00">userver/storages/mongo</text>
<text text-anchor="middle" x="227.5" y="-271" font-family="Helvetica,sans-Serif" font-size="10.00">/pool_config.hpp</text>
</a>
</g>
</g>
<!-- Node2&#45;&gt;Node3 -->
<g id="edge2_Node000002_Node000003" class="edge">
<title>Node2&#45;&gt;Node3</title>
<g id="a_edge2_Node000002_Node000003"><a xlink:title=" ">
<path fill="none" stroke="#63b8ff" d="M331.06,-325.85C307.23,-315.3 279.96,-303.22 259.38,-294.11"/>
<polygon fill="#63b8ff" stroke="#63b8ff" points="329.79,-329.11 340.35,-329.96 332.62,-322.71 329.79,-329.11"/>
</a>
</g>
</g>
<!-- Node8 -->
<g id="Node000008" class="node">
<title>Node8</title>
<g id="a_Node000008"><a xlink:href="../../d7/d18/postgresql_2include_2userver_2storages_2postgres_2options_8hpp.html" target="_top" xlink:title="Options.">
<polygon fill="white" stroke="#666666" points="708,-294 565,-294 565,-264 708,-264 708,-294"/>
<text text-anchor="start" x="573" y="-282" font-family="Helvetica,sans-Serif" font-size="10.00">userver/storages/postgres</text>
<text text-anchor="middle" x="636.5" y="-271" font-family="Helvetica,sans-Serif" font-size="10.00">/options.hpp</text>
</a>
</g>
</g>
<!-- Node2&#45;&gt;Node8 -->
<g id="edge9_Node000002_Node000008" class="edge">
<title>Node2&#45;&gt;Node8</title>
<g id="a_edge9_Node000002_Node000008"><a xlink:title=" ">
<path fill="none" stroke="#63b8ff" d="M449.47,-331.58C491.86,-319.89 546.38,-304.85 585.61,-294.03"/>
<polygon fill="#63b8ff" stroke="#63b8ff" points="448.51,-328.22 439.8,-334.25 450.37,-334.96 448.51,-328.22"/>
</a>
</g>
</g>
<!-- Node19 -->
<g id="Node000019" class="node">
<title>Node19</title>
<g id="a_Node000019"><a xlink:href="../../d1/db6/postgresql_2include_2userver_2storages_2postgres_2statistics_8hpp.html" target="_top" xlink:title="Statistics helpers.">
<polygon fill="white" stroke="#666666" points="456,-294 313,-294 313,-264 456,-264 456,-294"/>
<text text-anchor="start" x="321" y="-282" font-family="Helvetica,sans-Serif" font-size="10.00">userver/storages/postgres</text>
<text text-anchor="middle" x="384.5" y="-271" font-family="Helvetica,sans-Serif" font-size="10.00">/statistics.hpp</text>
</a>
</g>
</g>
<!-- Node2&#45;&gt;Node19 -->
<g id="edge27_Node000002_Node000019" class="edge">
<title>Node2&#45;&gt;Node19</title>
<g id="a_edge27_Node000002_Node000019"><a xlink:title=" ">
<path fill="none" stroke="#63b8ff" d="M384.5,-319.66C384.5,-310.76 384.5,-301.42 384.5,-294.04"/>
<polygon fill="#63b8ff" stroke="#63b8ff" points="381,-319.77 384.5,-329.77 388,-319.77 381,-319.77"/>
</a>
</g>
</g>
<!-- Node4 -->
<g id="Node000004" class="node">
<title>Node4</title>
<g id="a_Node000004"><a xlink:href="../../d2/de5/multi__mongo_8hpp_source.html" target="_top" xlink:title=" ">
<polygon fill="white" stroke="#666666" points="135,-162 0,-162 0,-132 135,-132 135,-162"/>
<text text-anchor="start" x="8" y="-150" font-family="Helvetica,sans-Serif" font-size="10.00">userver/storages/mongo</text>
<text text-anchor="middle" x="67.5" y="-139" font-family="Helvetica,sans-Serif" font-size="10.00">/multi_mongo.hpp</text>
</a>
</g>
</g>
<!-- Node3&#45;&gt;Node4 -->
<g id="edge3_Node000003_Node000004" class="edge">
<title>Node3&#45;&gt;Node4</title>
<g id="a_edge3_Node000003_Node000004"><a xlink:title=" ">
<path fill="none" stroke="#63b8ff" d="M195.57,-258.39C181.93,-249.59 166.07,-238.78 152.5,-228 125.69,-206.69 97.23,-178.65 80.99,-162.06"/>
<polygon fill="#63b8ff" stroke="#63b8ff" points="193.84,-261.44 204.16,-263.86 197.6,-255.54 193.84,-261.44"/>
</a>
</g>
</g>
<!-- Node6 -->
<g id="Node000006" class="node">
<title>Node6</title>
<g id="a_Node000006"><a xlink:href="../../d8/d62/mongo_2include_2userver_2storages_2mongo_2pool_8hpp.html" target="_top" xlink:title="MongoDB client pool.">
<polygon fill="white" stroke="#666666" points="297,-228 162,-228 162,-198 297,-198 297,-228"/>
<text text-anchor="start" x="170" y="-216" font-family="Helvetica,sans-Serif" font-size="10.00">userver/storages/mongo</text>
<text text-anchor="middle" x="229.5" y="-205" font-family="Helvetica,sans-Serif" font-size="10.00">/pool.hpp</text>
</a>
</g>
</g>
<!-- Node3&#45;&gt;Node6 -->
<g id="edge5_Node000003_Node000006" class="edge">
<title>Node3&#45;&gt;Node6</title>
<g id="a_edge5_Node000003_Node000006"><a xlink:title=" ">
<path fill="none" stroke="#63b8ff" d="M228.26,-253.54C228.53,-244.96 228.82,-235.61 229.06,-228.16"/>
<polygon fill="#63b8ff" stroke="#63b8ff" points="224.76,-253.69 227.94,-263.8 231.75,-253.91 224.76,-253.69"/>
</a>
</g>
</g>
<!-- Node5 -->
<g id="Node000005" class="node">
<title>Node5</title>
<g id="a_Node000005"><a xlink:href="../../d1/dd7/mongo_2include_2userver_2storages_2mongo_2component_8hpp.html" target="_top" xlink:title="MongoDB client component.">
<polygon fill="white" stroke="#666666" points="266,-96 131,-96 131,-66 266,-66 266,-96"/>
<text text-anchor="start" x="139" y="-84" font-family="Helvetica,sans-Serif" font-size="10.00">userver/storages/mongo</text>
<text text-anchor="middle" x="198.5" y="-73" font-family="Helvetica,sans-Serif" font-size="10.00">/component.hpp</text>
</a>
</g>
</g>
<!-- Node4&#45;&gt;Node5 -->
<g id="edge4_Node000004_Node000005" class="edge">
<title>Node4&#45;&gt;Node5</title>
<g id="a_edge4_Node000004_Node000005"><a xlink:title=" ">
<path fill="none" stroke="#63b8ff" d="M105.34,-127.51C125.89,-117.47 150.89,-105.26 169.82,-96.01"/>
<polygon fill="#63b8ff" stroke="#63b8ff" points="103.7,-124.42 96.25,-131.95 106.77,-130.71 103.7,-124.42"/>
</a>
</g>
</g>
<!-- Node6&#45;&gt;Node4 -->
<g id="edge8_Node000006_Node000004" class="edge">
<title>Node6&#45;&gt;Node4</title>
<g id="a_edge8_Node000006_Node000004"><a xlink:title=" ">
<path fill="none" stroke="#63b8ff" d="M184.41,-194.19C158.69,-184.02 126.9,-171.47 102.97,-162.01"/>
<polygon fill="#63b8ff" stroke="#63b8ff" points="183.36,-197.54 193.95,-197.95 185.93,-191.03 183.36,-197.54"/>
</a>
</g>
</g>
<!-- Node6&#45;&gt;Node5 -->
<g id="edge7_Node000006_Node000005" class="edge">
<title>Node6&#45;&gt;Node5</title>
<g id="a_edge7_Node000006_Node000005"><a xlink:title=" ">
<path fill="none" stroke="#63b8ff" d="M283.34,-193.41C297.23,-185.9 310.5,-175.68 318.5,-162 325.23,-150.49 325.9,-143.09 318.5,-132 306.42,-113.88 286.39,-102.31 266.13,-94.94"/>
<polygon fill="#63b8ff" stroke="#63b8ff" points="281.58,-190.38 274.18,-197.97 284.7,-196.65 281.58,-190.38"/>
</a>
</g>
</g>
<!-- Node7 -->
<g id="Node000007" class="node">
<title>Node7</title>
<g id="a_Node000007"><a xlink:href="../../d2/d86/mongo_8hpp.html" target="_top" xlink:title="Include&#45;all header for MongoDB client.">
<polygon fill="white" stroke="#666666" points="309.5,-156.5 153.5,-156.5 153.5,-137.5 309.5,-137.5 309.5,-156.5"/>
<text text-anchor="middle" x="231.5" y="-144.5" font-family="Helvetica,sans-Serif" font-size="10.00">userver/storages/mongo.hpp</text>
</a>
</g>
</g>
<!-- Node6&#45;&gt;Node7 -->
<g id="edge6_Node000006_Node000007" class="edge">
<title>Node6&#45;&gt;Node7</title>
<g id="a_edge6_Node000006_Node000007"><a xlink:title=" ">
<path fill="none" stroke="#63b8ff" d="M230.26,-187.6C230.6,-176.8 230.98,-164.78 231.22,-156.84"/>
<polygon fill="#63b8ff" stroke="#63b8ff" points="226.76,-187.69 229.94,-197.8 233.75,-187.91 226.76,-187.69"/>
</a>
</g>
</g>
<!-- Node9 -->
<g id="Node000009" class="node">
<title>Node9</title>
<g id="a_Node000009"><a xlink:href="../../de/dd3/postgresql_2include_2userver_2storages_2postgres_2cluster_8hpp.html" target="_top" xlink:title="Interface for executing queries on a cluster of PostgreSQL servers.">
<polygon fill="white" stroke="#666666" points="708,-96 565,-96 565,-66 708,-66 708,-96"/>
<text text-anchor="start" x="573" y="-84" font-family="Helvetica,sans-Serif" font-size="10.00">userver/storages/postgres</text>
<text text-anchor="middle" x="636.5" y="-73" font-family="Helvetica,sans-Serif" font-size="10.00">/cluster.hpp</text>
</a>
</g>
</g>
<!-- Node8&#45;&gt;Node9 -->
<g id="edge10_Node000008_Node000009" class="edge">
<title>Node8&#45;&gt;Node9</title>
<g id="a_edge10_Node000008_Node000009"><a xlink:title=" ">
<path fill="none" stroke="#63b8ff" d="M586.89,-259.07C573.7,-251.5 561.03,-241.33 553.5,-228 546.94,-216.39 549.43,-210.7 553.5,-198 566.97,-156.03 601.83,-116.34 621.83,-96.06"/>
<polygon fill="#63b8ff" stroke="#63b8ff" points="585.58,-262.34 596.06,-263.91 588.85,-256.15 585.58,-262.34"/>
</a>
</g>
</g>
<!-- Node12 -->
<g id="Node000012" class="node">
<title>Node12</title>
<g id="a_Node000012"><a xlink:href="../../df/da2/database_8hpp.html" target="_top" xlink:title="Object for accessing PostgreSQL database instance (sharded or not)">
<polygon fill="white" stroke="#666666" points="553,-162 410,-162 410,-132 553,-132 553,-162"/>
<text text-anchor="start" x="418" y="-150" font-family="Helvetica,sans-Serif" font-size="10.00">userver/storages/postgres</text>
<text text-anchor="middle" x="481.5" y="-139" font-family="Helvetica,sans-Serif" font-size="10.00">/database.hpp</text>
</a>
</g>
</g>
<!-- Node8&#45;&gt;Node12 -->
<g id="edge13_Node000008_Node000012" class="edge">
<title>Node8&#45;&gt;Node12</title>
<g id="a_edge13_Node000008_Node000012"><a xlink:title=" ">
<path fill="none" stroke="#63b8ff" d="M573.65,-260.29C554.88,-252.68 535.36,-242.18 520.5,-228 501.27,-209.65 490.28,-179.85 485.13,-162.26"/>
<polygon fill="#63b8ff" stroke="#63b8ff" points="572.49,-263.59 583.08,-263.91 575,-257.06 572.49,-263.59"/>
</a>
</g>
</g>
<!-- Node14 -->
<g id="Node000014" class="node">
<title>Node14</title>
<g id="a_Node000014"><a xlink:href="../../d4/dd3/non__transaction_8hpp_source.html" target="_top" xlink:title=" ">
<polygon fill="white" stroke="#666666" points="711,-228 562,-228 562,-198 711,-198 711,-228"/>
<text text-anchor="start" x="570" y="-216" font-family="Helvetica,sans-Serif" font-size="10.00">userver/storages/postgres</text>
<text text-anchor="middle" x="636.5" y="-205" font-family="Helvetica,sans-Serif" font-size="10.00">/detail/non_transaction.hpp</text>
</a>
</g>
</g>
<!-- Node8&#45;&gt;Node14 -->
<g id="edge18_Node000008_Node000014" class="edge">
<title>Node8&#45;&gt;Node14</title>
<g id="a_edge18_Node000008_Node000014"><a xlink:title=" ">
<path fill="none" stroke="#63b8ff" d="M636.5,-253.54C636.5,-244.96 636.5,-235.61 636.5,-228.16"/>
<polygon fill="#63b8ff" stroke="#63b8ff" points="633,-253.8 636.5,-263.8 640,-253.8 633,-253.8"/>
</a>
</g>
</g>
<!-- Node15 -->
<g id="Node000015" class="node">
<title>Node15</title>
<g id="a_Node000015"><a xlink:href="../../d9/d02/postgresql_2include_2userver_2storages_2postgres_2dist__lock__strategy_8hpp.html" target="_top" xlink:title="Postgres distributed locking strategy.">
<polygon fill="white" stroke="#666666" points="872,-228 729,-228 729,-198 872,-198 872,-228"/>
<text text-anchor="start" x="737" y="-216" font-family="Helvetica,sans-Serif" font-size="10.00">userver/storages/postgres</text>
<text text-anchor="middle" x="800.5" y="-205" font-family="Helvetica,sans-Serif" font-size="10.00">/dist_lock_strategy.hpp</text>
</a>
</g>
</g>
<!-- Node8&#45;&gt;Node15 -->
<g id="edge20_Node000008_Node000015" class="edge">
<title>Node8&#45;&gt;Node15</title>
<g id="a_edge20_Node000008_Node000015"><a xlink:title=" ">
<path fill="none" stroke="#63b8ff" d="M682.14,-260.19C708.19,-250.02 740.37,-237.47 764.59,-228.01"/>
<polygon fill="#63b8ff" stroke="#63b8ff" points="680.53,-257.06 672.49,-263.95 683.08,-263.58 680.53,-257.06"/>
</a>
</g>
</g>
<!-- Node17 -->
<g id="Node000017" class="node">
<title>Node17</title>
<g id="a_Node000017"><a xlink:href="../../d2/de3/portal_8hpp_source.html" target="_top" xlink:title=" ">
<polygon fill="white" stroke="#666666" points="1033,-228 890,-228 890,-198 1033,-198 1033,-228"/>
<text text-anchor="start" x="898" y="-216" font-family="Helvetica,sans-Serif" font-size="10.00">userver/storages/postgres</text>
<text text-anchor="middle" x="961.5" y="-205" font-family="Helvetica,sans-Serif" font-size="10.00">/portal.hpp</text>
</a>
</g>
</g>
<!-- Node8&#45;&gt;Node17 -->
<g id="edge22_Node000008_Node000017" class="edge">
<title>Node8&#45;&gt;Node17</title>
<g id="a_edge22_Node000008_Node000017"><a xlink:title=" ">
<path fill="none" stroke="#63b8ff" d="M717.88,-261.98C770.92,-251.53 839.48,-238.03 890.34,-228.01"/>
<polygon fill="#63b8ff" stroke="#63b8ff" points="716.96,-258.59 707.82,-263.95 718.31,-265.46 716.96,-258.59"/>
</a>
</g>
</g>
<!-- Node18 -->
<g id="Node000018" class="node">
<title>Node18</title>
<g id="a_Node000018"><a xlink:href="../../da/deb/postgresql_2include_2userver_2storages_2postgres_2transaction_8hpp.html" target="_top" xlink:title="Transactions.">
<polygon fill="white" stroke="#666666" points="1033,-162 890,-162 890,-132 1033,-132 1033,-162"/>
<text text-anchor="start" x="898" y="-150" font-family="Helvetica,sans-Serif" font-size="10.00">userver/storages/postgres</text>
<text text-anchor="middle" x="961.5" y="-139" font-family="Helvetica,sans-Serif" font-size="10.00">/transaction.hpp</text>
</a>
</g>
</g>
<!-- Node8&#45;&gt;Node18 -->
<g id="edge26_Node000008_Node000018" class="edge">
<title>Node8&#45;&gt;Node18</title>
<g id="a_edge26_Node000008_Node000018"><a xlink:title=" ">
<path fill="none" stroke="#63b8ff" d="M718.59,-273.63C831,-266.79 1021.43,-251.83 1042.5,-228 1064.04,-203.64 1024.45,-177.56 993.4,-162.02"/>
<polygon fill="#63b8ff" stroke="#63b8ff" points="718.07,-270.15 708.29,-274.25 718.48,-277.14 718.07,-270.15"/>
</a>
</g>
</g>
<!-- Node10 -->
<g id="Node000010" class="node">
<title>Node10</title>
<g id="a_Node000010"><a xlink:href="../../dc/df7/base__postgres__cache_8hpp.html" target="_top" xlink:title="Caching component for PostgreSQL. See Caching Component for PostgreSQL.">
<polygon fill="white" stroke="#666666" points="541,-30 422,-30 422,0 541,0 541,-30"/>
<text text-anchor="start" x="430" y="-18" font-family="Helvetica,sans-Serif" font-size="10.00">userver/cache/base</text>
<text text-anchor="middle" x="481.5" y="-7" font-family="Helvetica,sans-Serif" font-size="10.00">_postgres_cache.hpp</text>
</a>
</g>
</g>
<!-- Node9&#45;&gt;Node10 -->
<g id="edge11_Node000009_Node000010" class="edge">
<title>Node9&#45;&gt;Node10</title>
<g id="a_edge11_Node000009_Node000010"><a xlink:title=" ">
<path fill="none" stroke="#63b8ff" d="M593.04,-62.05C568.48,-51.91 538.23,-39.43 515.44,-30.01"/>
<polygon fill="#63b8ff" stroke="#63b8ff" points="591.91,-65.37 602.48,-65.95 594.58,-58.9 591.91,-65.37"/>
</a>
</g>
</g>
<!-- Node11 -->
<g id="Node000011" class="node">
<title>Node11</title>
<g id="a_Node000011"><a xlink:href="../../df/d02/postgres_8hpp.html" target="_top" xlink:title=" ">
<polygon fill="white" stroke="#666666" points="708,-30 565,-30 565,0 708,0 708,-30"/>
<text text-anchor="start" x="573" y="-18" font-family="Helvetica,sans-Serif" font-size="10.00">userver/storages/postgres</text>
<text text-anchor="middle" x="636.5" y="-7" font-family="Helvetica,sans-Serif" font-size="10.00">/postgres.hpp</text>
</a>
</g>
</g>
<!-- Node9&#45;&gt;Node11 -->
<g id="edge12_Node000009_Node000011" class="edge">
<title>Node9&#45;&gt;Node11</title>
<g id="a_edge12_Node000009_Node000011"><a xlink:title=" ">
<path fill="none" stroke="#63b8ff" d="M636.5,-55.54C636.5,-46.96 636.5,-37.61 636.5,-30.16"/>
<polygon fill="#63b8ff" stroke="#63b8ff" points="633,-55.8 636.5,-65.8 640,-55.8 633,-55.8"/>
</a>
</g>
</g>
<!-- Node12&#45;&gt;Node9 -->
<g id="edge14_Node000012_Node000009" class="edge">
<title>Node12&#45;&gt;Node9</title>
<g id="a_edge14_Node000012_Node000009"><a xlink:title=" ">
<path fill="none" stroke="#63b8ff" d="M524.96,-128.05C549.52,-117.91 579.77,-105.43 602.56,-96.01"/>
<polygon fill="#63b8ff" stroke="#63b8ff" points="523.42,-124.9 515.52,-131.95 526.09,-131.37 523.42,-124.9"/>
</a>
</g>
</g>
<!-- Node13 -->
<g id="Node000013" class="node">
<title>Node13</title>
<g id="a_Node000013"><a xlink:href="../../df/d08/postgresql_2include_2userver_2storages_2postgres_2component_8hpp.html" target="_top" xlink:title="PosgreSQL client component.">
<polygon fill="white" stroke="#666666" points="547,-96 404,-96 404,-66 547,-66 547,-96"/>
<text text-anchor="start" x="412" y="-84" font-family="Helvetica,sans-Serif" font-size="10.00">userver/storages/postgres</text>
<text text-anchor="middle" x="475.5" y="-73" font-family="Helvetica,sans-Serif" font-size="10.00">/component.hpp</text>
</a>
</g>
</g>
<!-- Node12&#45;&gt;Node13 -->
<g id="edge15_Node000012_Node000013" class="edge">
<title>Node12&#45;&gt;Node13</title>
<g id="a_edge15_Node000012_Node000013"><a xlink:title=" ">
<path fill="none" stroke="#63b8ff" d="M479.23,-121.83C478.42,-113.17 477.53,-103.7 476.83,-96.16"/>
<polygon fill="#63b8ff" stroke="#63b8ff" points="475.75,-122.17 480.17,-131.8 482.72,-121.51 475.75,-122.17"/>
</a>
</g>
</g>
<!-- Node13&#45;&gt;Node10 -->
<g id="edge16_Node000013_Node000010" class="edge">
<title>Node13&#45;&gt;Node10</title>
<g id="a_edge16_Node000013_Node000010"><a xlink:title=" ">
<path fill="none" stroke="#63b8ff" d="M477.77,-55.83C478.58,-47.17 479.47,-37.7 480.17,-30.16"/>
<polygon fill="#63b8ff" stroke="#63b8ff" points="474.28,-55.51 476.83,-65.8 481.25,-56.17 474.28,-55.51"/>
</a>
</g>
</g>
<!-- Node13&#45;&gt;Node11 -->
<g id="edge17_Node000013_Node000011" class="edge">
<title>Node13&#45;&gt;Node11</title>
<g id="a_edge17_Node000013_Node000011"><a xlink:title=" ">
<path fill="none" stroke="#63b8ff" d="M520.31,-62.19C545.87,-52.02 577.47,-39.47 601.25,-30.01"/>
<polygon fill="#63b8ff" stroke="#63b8ff" points="518.83,-59.01 510.83,-65.95 521.42,-65.51 518.83,-59.01"/>
</a>
</g>
</g>
<!-- Node14&#45;&gt;Node9 -->
<g id="edge19_Node000014_Node000009" class="edge">
<title>Node14&#45;&gt;Node9</title>
<g id="a_edge19_Node000014_Node000009"><a xlink:title=" ">
<path fill="none" stroke="#63b8ff" d="M636.5,-187.68C636.5,-160.7 636.5,-118.11 636.5,-96.14"/>
<polygon fill="#63b8ff" stroke="#63b8ff" points="633,-187.84 636.5,-197.84 640,-187.84 633,-187.84"/>
</a>
</g>
</g>
<!-- Node16 -->
<g id="Node000016" class="node">
<title>Node16</title>
<g id="a_Node000016"><a xlink:href="../../dc/d89/postgresql_2include_2userver_2storages_2postgres_2dist__lock__component__base_8hpp.html" target="_top" xlink:title="Base class for postgres&#45;based distlock worker components.">
<polygon fill="white" stroke="#666666" points="872,-162 699,-162 699,-132 872,-132 872,-162"/>
<text text-anchor="start" x="707" y="-150" font-family="Helvetica,sans-Serif" font-size="10.00">userver/storages/postgres</text>
<text text-anchor="middle" x="785.5" y="-139" font-family="Helvetica,sans-Serif" font-size="10.00">/dist_lock_component_base.hpp</text>
</a>
</g>
</g>
<!-- Node15&#45;&gt;Node16 -->
<g id="edge21_Node000015_Node000016" class="edge">
<title>Node15&#45;&gt;Node16</title>
<g id="a_edge21_Node000015_Node000016"><a xlink:title=" ">
<path fill="none" stroke="#63b8ff" d="M794.83,-187.83C792.81,-179.17 790.59,-169.7 788.82,-162.16"/>
<polygon fill="#63b8ff" stroke="#63b8ff" points="791.48,-188.86 797.17,-197.8 798.3,-187.26 791.48,-188.86"/>
</a>
</g>
</g>
<!-- Node17&#45;&gt;Node18 -->
<g id="edge23_Node000017_Node000018" class="edge">
<title>Node17&#45;&gt;Node18</title>
<g id="a_edge23_Node000017_Node000018"><a xlink:title=" ">
<path fill="none" stroke="#63b8ff" d="M961.5,-187.54C961.5,-178.96 961.5,-169.61 961.5,-162.16"/>
<polygon fill="#63b8ff" stroke="#63b8ff" points="958,-187.8 961.5,-197.8 965,-187.8 958,-187.8"/>
</a>
</g>
</g>
<!-- Node18&#45;&gt;Node9 -->
<g id="edge24_Node000018_Node000009" class="edge">
<title>Node18&#45;&gt;Node9</title>
<g id="a_edge24_Node000018_Node000009"><a xlink:title=" ">
<path fill="none" stroke="#63b8ff" d="M880.12,-129.98C827.08,-119.53 758.52,-106.03 707.66,-96.01"/>
<polygon fill="#63b8ff" stroke="#63b8ff" points="879.69,-133.46 890.18,-131.95 881.04,-126.59 879.69,-133.46"/>
</a>
</g>
</g>
<!-- Node18&#45;&gt;Node11 -->
<g id="edge25_Node000018_Node000011" class="edge">
<title>Node18&#45;&gt;Node11</title>
<g id="a_edge25_Node000018_Node000011"><a xlink:title=" ">
<path fill="none" stroke="#63b8ff" d="M916.81,-128.12C851.55,-102.02 731.5,-54 671.94,-30.17"/>
<polygon fill="#63b8ff" stroke="#63b8ff" points="915.83,-131.5 926.41,-131.96 918.43,-125 915.83,-131.5"/>
</a>
</g>
</g>
<!-- Node19&#45;&gt;Node9 -->
<g id="edge28_Node000019_Node000009" class="edge">
<title>Node19&#45;&gt;Node9</title>
<g id="a_edge28_Node000019_Node000009"><a xlink:title=" ">
<path fill="none" stroke="#63b8ff" d="M379.4,-253.94C374.12,-221.86 370.37,-165.29 400.5,-132 406.14,-125.77 497.47,-107.7 564.83,-95.08"/>
<polygon fill="#63b8ff" stroke="#63b8ff" points="375.96,-254.6 381.2,-263.81 382.85,-253.34 375.96,-254.6"/>
</a>
</g>
</g>
</g>
</svg>
