<?xml version="1.0" encoding="UTF-8" standalone="no"?>
<!DOCTYPE svg PUBLIC "-//W3C//DTD SVG 1.1//EN"
 "http://www.w3.org/Graphics/SVG/1.1/DTD/svg11.dtd">
<!-- Generated by graphviz version 2.43.0 (0)
 -->
<!-- Title: userver/logging/format.hpp Pages: 1 -->
<svg width="532pt" height="148pt"
 viewBox="0.00 0.00 532.00 148.00" xmlns="http://www.w3.org/2000/svg" xmlns:xlink="http://www.w3.org/1999/xlink">
<g id="graph0" class="graph" transform="scale(1 1) rotate(0) translate(4 144)">
<title>userver/logging/format.hpp</title>
<!-- Node1 -->
<g id="Node000001" class="node">
<title>Node1</title>
<g id="a_Node000001"><a xlink:title="Log formats.">
<polygon fill="#999999" stroke="#666666" points="267.5,-140 118.5,-140 118.5,-121 267.5,-121 267.5,-140"/>
<text text-anchor="middle" x="193" y="-128" font-family="Helvetica,sans-Serif" font-size="10.00">userver/logging/format.hpp</text>
</a>
</g>
</g>
<!-- Node2 -->
<g id="Node000002" class="node">
<title>Node2</title>
<g id="a_Node000002"><a xlink:href="../../da/d51/run_8hpp.html" target="_top" xlink:title="Functions to start a service or tool with the specified config and components::ComponentList.">
<polygon fill="white" stroke="#666666" points="116,-85 0,-85 0,-55 116,-55 116,-85"/>
<text text-anchor="start" x="8" y="-73" font-family="Helvetica,sans-Serif" font-size="10.00">userver/components</text>
<text text-anchor="middle" x="58" y="-62" font-family="Helvetica,sans-Serif" font-size="10.00">/run.hpp</text>
</a>
</g>
</g>
<!-- Node1&#45;&gt;Node2 -->
<g id="edge1_Node000001_Node000002" class="edge">
<title>Node1&#45;&gt;Node2</title>
<g id="a_edge1_Node000001_Node000002"><a xlink:title=" ">
<path fill="none" stroke="#63b8ff" d="M164.05,-116.95C142.43,-107.59 112.87,-94.78 90.46,-85.06"/>
<polygon fill="#63b8ff" stroke="#63b8ff" points="162.8,-120.23 173.37,-120.99 165.59,-113.81 162.8,-120.23"/>
</a>
</g>
</g>
<!-- Node3 -->
<g id="Node000003" class="node">
<title>Node3</title>
<g id="a_Node000003"><a xlink:href="../../da/d7c/logger__base_8hpp_source.html" target="_top" xlink:title=" ">
<polygon fill="white" stroke="#666666" points="251.5,-85 134.5,-85 134.5,-55 251.5,-55 251.5,-85"/>
<text text-anchor="start" x="142.5" y="-73" font-family="Helvetica,sans-Serif" font-size="10.00">userver/logging/impl</text>
<text text-anchor="middle" x="193" y="-62" font-family="Helvetica,sans-Serif" font-size="10.00">/logger_base.hpp</text>
</a>
</g>
</g>
<!-- Node1&#45;&gt;Node3 -->
<g id="edge2_Node000001_Node000003" class="edge">
<title>Node1&#45;&gt;Node3</title>
<g id="a_edge2_Node000001_Node000003"><a xlink:title=" ">
<path fill="none" stroke="#63b8ff" d="M193,-110.65C193,-102.36 193,-92.78 193,-85.11"/>
<polygon fill="#63b8ff" stroke="#63b8ff" points="189.5,-110.87 193,-120.87 196.5,-110.87 189.5,-110.87"/>
</a>
</g>
</g>
<!-- Node4 -->
<g id="Node000004" class="node">
<title>Node4</title>
<g id="a_Node000004"><a xlink:href="../../d6/da3/logger_8hpp.html" target="_top" xlink:title="Logger definitions and helpers.">
<polygon fill="white" stroke="#666666" points="416,-79.5 270,-79.5 270,-60.5 416,-60.5 416,-79.5"/>
<text text-anchor="middle" x="343" y="-67.5" font-family="Helvetica,sans-Serif" font-size="10.00">userver/logging/logger.hpp</text>
</a>
</g>
</g>
<!-- Node1&#45;&gt;Node4 -->
<g id="edge3_Node000001_Node000004" class="edge">
<title>Node1&#45;&gt;Node4</title>
<g id="a_edge3_Node000001_Node000004"><a xlink:title=" ">
<path fill="none" stroke="#63b8ff" d="M224.46,-117.23C253.45,-105.92 295.71,-89.44 321.16,-79.52"/>
<polygon fill="#63b8ff" stroke="#63b8ff" points="222.86,-114.1 214.81,-120.99 225.4,-120.62 222.86,-114.1"/>
</a>
</g>
</g>
<!-- Node5 -->
<g id="Node000005" class="node">
<title>Node5</title>
<g id="a_Node000005"><a xlink:href="../../dc/d2e/core_2include_2userver_2logging_2component_8hpp.html" target="_top" xlink:title="Logging component">
<polygon fill="white" stroke="#666666" points="333.5,-19 162.5,-19 162.5,0 333.5,0 333.5,-19"/>
<text text-anchor="middle" x="248" y="-7" font-family="Helvetica,sans-Serif" font-size="10.00">userver/logging/component.hpp</text>
</a>
</g>
</g>
<!-- Node4&#45;&gt;Node5 -->
<g id="edge4_Node000004_Node000005" class="edge">
<title>Node4&#45;&gt;Node5</title>
<g id="a_edge4_Node000004_Node000005"><a xlink:title=" ">
<path fill="none" stroke="#63b8ff" d="M320.21,-54.97C302.12,-43.82 277.39,-28.6 262.08,-19.17"/>
<polygon fill="#63b8ff" stroke="#63b8ff" points="318.63,-58.1 328.98,-60.37 322.3,-52.14 318.63,-58.1"/>
</a>
</g>
</g>
<!-- Node6 -->
<g id="Node000006" class="node">
<title>Node6</title>
<g id="a_Node000006"><a xlink:href="../../dc/d04/opentracing_8hpp_source.html" target="_top" xlink:title=" ">
<polygon fill="white" stroke="#666666" points="524,-19 352,-19 352,0 524,0 524,-19"/>
<text text-anchor="middle" x="438" y="-7" font-family="Helvetica,sans-Serif" font-size="10.00">userver/tracing/opentracing.hpp</text>
</a>
</g>
</g>
<!-- Node4&#45;&gt;Node6 -->
<g id="edge5_Node000004_Node000006" class="edge">
<title>Node4&#45;&gt;Node6</title>
<g id="a_edge5_Node000004_Node000006"><a xlink:title=" ">
<path fill="none" stroke="#63b8ff" d="M365.79,-54.97C383.88,-43.82 408.61,-28.6 423.92,-19.17"/>
<polygon fill="#63b8ff" stroke="#63b8ff" points="363.7,-52.14 357.02,-60.37 367.37,-58.1 363.7,-52.14"/>
</a>
</g>
</g>
</g>
</svg>
