<?xml version="1.0" encoding="UTF-8" standalone="no"?>
<!DOCTYPE svg PUBLIC "-//W3C//DTD SVG 1.1//EN"
 "http://www.w3.org/Graphics/SVG/1.1/DTD/svg11.dtd">
<!-- Generated by graphviz version 2.43.0 (0)
 -->
<!-- Title: userver/formats/serialize/common_containers.hpp Pages: 1 -->
<svg width="850pt" height="368pt"
 viewBox="0.00 0.00 850.00 368.00" xmlns="http://www.w3.org/2000/svg" xmlns:xlink="http://www.w3.org/1999/xlink">
<g id="graph0" class="graph" transform="scale(1 1) rotate(0) translate(4 364)">
<title>userver/formats/serialize/common_containers.hpp</title>
<!-- Node1 -->
<g id="Node000001" class="node">
<title>Node1</title>
<g id="a_Node000001"><a xlink:title="Serializers for standard containers and optional.">
<polygon fill="#999999" stroke="#666666" points="621.5,-360 481.5,-360 481.5,-330 621.5,-330 621.5,-360"/>
<text text-anchor="start" x="489.5" y="-348" font-family="Helvetica,sans-Serif" font-size="10.00">userver/formats/serialize</text>
<text text-anchor="middle" x="551.5" y="-337" font-family="Helvetica,sans-Serif" font-size="10.00">/common_containers.hpp</text>
</a>
</g>
</g>
<!-- Node2 -->
<g id="Node000002" class="node">
<title>Node2</title>
<g id="a_Node000002"><a xlink:href="../../d0/dcf/core_2include_2userver_2dynamic__config_2value_8hpp_source.html" target="_top" xlink:title=" ">
<polygon fill="white" stroke="#666666" points="543,-294 410,-294 410,-264 543,-264 543,-294"/>
<text text-anchor="start" x="418" y="-282" font-family="Helvetica,sans-Serif" font-size="10.00">userver/dynamic_config</text>
<text text-anchor="middle" x="476.5" y="-271" font-family="Helvetica,sans-Serif" font-size="10.00">/value.hpp</text>
</a>
</g>
</g>
<!-- Node1&#45;&gt;Node2 -->
<g id="edge1_Node000001_Node000002" class="edge">
<title>Node1&#45;&gt;Node2</title>
<g id="a_edge1_Node000001_Node000002"><a xlink:title=" ">
<path fill="none" stroke="#63b8ff" d="M527.13,-323.2C515.99,-313.7 503.09,-302.69 493.1,-294.16"/>
<polygon fill="#63b8ff" stroke="#63b8ff" points="524.98,-325.97 534.86,-329.8 529.52,-320.64 524.98,-325.97"/>
</a>
</g>
</g>
<!-- Node15 -->
<g id="Node000015" class="node">
<title>Node15</title>
<g id="a_Node000015"><a xlink:href="../../de/dad/json_2serialize__container_8hpp_source.html" target="_top" xlink:title=" ">
<polygon fill="white" stroke="#666666" points="693.5,-294 561.5,-294 561.5,-264 693.5,-264 693.5,-294"/>
<text text-anchor="start" x="569.5" y="-282" font-family="Helvetica,sans-Serif" font-size="10.00">userver/formats/json</text>
<text text-anchor="middle" x="627.5" y="-271" font-family="Helvetica,sans-Serif" font-size="10.00">/serialize_container.hpp</text>
</a>
</g>
</g>
<!-- Node1&#45;&gt;Node15 -->
<g id="edge15_Node000001_Node000015" class="edge">
<title>Node1&#45;&gt;Node15</title>
<g id="a_edge15_Node000001_Node000015"><a xlink:title=" ">
<path fill="none" stroke="#63b8ff" d="M576.2,-323.2C587.48,-313.7 600.55,-302.69 610.68,-294.16"/>
<polygon fill="#63b8ff" stroke="#63b8ff" points="573.76,-320.68 568.37,-329.8 578.27,-326.03 573.76,-320.68"/>
</a>
</g>
</g>
<!-- Node3 -->
<g id="Node000003" class="node">
<title>Node3</title>
<g id="a_Node000003"><a xlink:href="../../d9/d0d/baggage__settings_8hpp_source.html" target="_top" xlink:title=" ">
<polygon fill="white" stroke="#666666" points="192,-228 49,-228 49,-198 192,-198 192,-228"/>
<text text-anchor="start" x="57" y="-216" font-family="Helvetica,sans-Serif" font-size="10.00">userver/baggage/baggage</text>
<text text-anchor="middle" x="120.5" y="-205" font-family="Helvetica,sans-Serif" font-size="10.00">_settings.hpp</text>
</a>
</g>
</g>
<!-- Node2&#45;&gt;Node3 -->
<g id="edge2_Node000002_Node000003" class="edge">
<title>Node2&#45;&gt;Node3</title>
<g id="a_edge2_Node000002_Node000003"><a xlink:title=" ">
<path fill="none" stroke="#63b8ff" d="M399.91,-264.23C338.33,-253.16 252.46,-237.72 192.22,-226.89"/>
<polygon fill="#63b8ff" stroke="#63b8ff" points="399.5,-267.71 409.96,-266.04 400.73,-260.82 399.5,-267.71"/>
</a>
</g>
</g>
<!-- Node5 -->
<g id="Node000005" class="node">
<title>Node5</title>
<g id="a_Node000005"><a xlink:href="../../d2/d68/core_2include_2userver_2dynamic__config_2client_2client_8hpp.html" target="_top" xlink:title="Client for the configs service.">
<polygon fill="white" stroke="#666666" points="392,-228 259,-228 259,-198 392,-198 392,-228"/>
<text text-anchor="start" x="267" y="-216" font-family="Helvetica,sans-Serif" font-size="10.00">userver/dynamic_config</text>
<text text-anchor="middle" x="325.5" y="-205" font-family="Helvetica,sans-Serif" font-size="10.00">/client/client.hpp</text>
</a>
</g>
</g>
<!-- Node2&#45;&gt;Node5 -->
<g id="edge4_Node000002_Node000005" class="edge">
<title>Node2&#45;&gt;Node5</title>
<g id="a_edge4_Node000002_Node000005"><a xlink:title=" ">
<path fill="none" stroke="#63b8ff" d="M433.84,-259.92C409.97,-249.8 380.67,-237.38 358.56,-228.01"/>
<polygon fill="#63b8ff" stroke="#63b8ff" points="432.79,-263.28 443.36,-263.95 435.52,-256.83 432.79,-263.28"/>
</a>
</g>
</g>
<!-- Node8 -->
<g id="Node000008" class="node">
<title>Node8</title>
<g id="a_Node000008"><a xlink:href="../../df/db4/storage__mock_8hpp.html" target="_top" xlink:title="Backing storage for dynamic_config::Source in tests and benchmarks.">
<polygon fill="white" stroke="#666666" points="543,-228 410,-228 410,-198 543,-198 543,-228"/>
<text text-anchor="start" x="418" y="-216" font-family="Helvetica,sans-Serif" font-size="10.00">userver/dynamic_config</text>
<text text-anchor="middle" x="476.5" y="-205" font-family="Helvetica,sans-Serif" font-size="10.00">/storage_mock.hpp</text>
</a>
</g>
</g>
<!-- Node2&#45;&gt;Node8 -->
<g id="edge7_Node000002_Node000008" class="edge">
<title>Node2&#45;&gt;Node8</title>
<g id="a_edge7_Node000002_Node000008"><a xlink:title=" ">
<path fill="none" stroke="#63b8ff" d="M476.5,-253.54C476.5,-244.96 476.5,-235.61 476.5,-228.16"/>
<polygon fill="#63b8ff" stroke="#63b8ff" points="473,-253.8 476.5,-263.8 480,-253.8 473,-253.8"/>
</a>
</g>
</g>
<!-- Node12 -->
<g id="Node000012" class="node">
<title>Node12</title>
<g id="a_Node000012"><a xlink:href="../../d0/d5e/redis__config_8hpp_source.html" target="_top" xlink:title=" ">
<polygon fill="white" stroke="#666666" points="686,-228 561,-228 561,-198 686,-198 686,-228"/>
<text text-anchor="start" x="569" y="-216" font-family="Helvetica,sans-Serif" font-size="10.00">userver/storages/redis</text>
<text text-anchor="middle" x="623.5" y="-205" font-family="Helvetica,sans-Serif" font-size="10.00">/redis_config.hpp</text>
</a>
</g>
</g>
<!-- Node2&#45;&gt;Node12 -->
<g id="edge12_Node000002_Node000012" class="edge">
<title>Node2&#45;&gt;Node12</title>
<g id="a_edge12_Node000002_Node000012"><a xlink:title=" ">
<path fill="none" stroke="#63b8ff" d="M518.03,-259.92C541.26,-249.8 569.79,-237.38 591.32,-228.01"/>
<polygon fill="#63b8ff" stroke="#63b8ff" points="516.53,-256.75 508.76,-263.95 519.33,-263.17 516.53,-256.75"/>
</a>
</g>
</g>
<!-- Node13 -->
<g id="Node000013" class="node">
<title>Node13</title>
<g id="a_Node000013"><a xlink:href="../../d6/d85/client__qos_8hpp_source.html" target="_top" xlink:title=" ">
<polygon fill="white" stroke="#666666" points="817,-228 704,-228 704,-198 817,-198 817,-228"/>
<text text-anchor="start" x="712" y="-216" font-family="Helvetica,sans-Serif" font-size="10.00">userver/ugrpc/client</text>
<text text-anchor="middle" x="760.5" y="-205" font-family="Helvetica,sans-Serif" font-size="10.00">/client_qos.hpp</text>
</a>
</g>
</g>
<!-- Node2&#45;&gt;Node13 -->
<g id="edge13_Node000002_Node000013" class="edge">
<title>Node2&#45;&gt;Node13</title>
<g id="a_edge13_Node000002_Node000013"><a xlink:title=" ">
<path fill="none" stroke="#63b8ff" d="M548.85,-261.69C596.91,-250.87 659.11,-236.85 703.63,-226.82"/>
<polygon fill="#63b8ff" stroke="#63b8ff" points="547.81,-258.34 538.83,-263.95 549.35,-265.17 547.81,-258.34"/>
</a>
</g>
</g>
<!-- Node4 -->
<g id="Node000004" class="node">
<title>Node4</title>
<g id="a_Node000004"><a xlink:href="../../d4/d44/baggage__manager_8hpp.html" target="_top" xlink:title="Baggage manipulation client and component.">
<polygon fill="white" stroke="#666666" points="143,-162 0,-162 0,-132 143,-132 143,-162"/>
<text text-anchor="start" x="8" y="-150" font-family="Helvetica,sans-Serif" font-size="10.00">userver/baggage/baggage</text>
<text text-anchor="middle" x="71.5" y="-139" font-family="Helvetica,sans-Serif" font-size="10.00">_manager.hpp</text>
</a>
</g>
</g>
<!-- Node3&#45;&gt;Node4 -->
<g id="edge3_Node000003_Node000004" class="edge">
<title>Node3&#45;&gt;Node4</title>
<g id="a_edge3_Node000003_Node000004"><a xlink:title=" ">
<path fill="none" stroke="#63b8ff" d="M103.51,-189.81C96.49,-180.64 88.56,-170.28 82.34,-162.16"/>
<polygon fill="#63b8ff" stroke="#63b8ff" points="100.77,-191.98 109.63,-197.8 106.33,-187.73 100.77,-191.98"/>
</a>
</g>
</g>
<!-- Node6 -->
<g id="Node000006" class="node">
<title>Node6</title>
<g id="a_Node000006"><a xlink:href="../../d7/d00/core_2include_2userver_2dynamic__config_2client_2component_8hpp.html" target="_top" xlink:title="Component that starts a clients::dynamic_config::Client client.">
<polygon fill="white" stroke="#666666" points="294,-162 161,-162 161,-132 294,-132 294,-162"/>
<text text-anchor="start" x="169" y="-150" font-family="Helvetica,sans-Serif" font-size="10.00">userver/dynamic_config</text>
<text text-anchor="middle" x="227.5" y="-139" font-family="Helvetica,sans-Serif" font-size="10.00">/client/component.hpp</text>
</a>
</g>
</g>
<!-- Node5&#45;&gt;Node6 -->
<g id="edge5_Node000005_Node000006" class="edge">
<title>Node5&#45;&gt;Node6</title>
<g id="a_edge5_Node000005_Node000006"><a xlink:title=" ">
<path fill="none" stroke="#63b8ff" d="M295.34,-192.3C280.42,-182.56 262.75,-171.02 249.19,-162.16"/>
<polygon fill="#63b8ff" stroke="#63b8ff" points="293.46,-195.26 303.75,-197.8 297.29,-189.4 293.46,-195.26"/>
</a>
</g>
</g>
<!-- Node7 -->
<g id="Node000007" class="node">
<title>Node7</title>
<g id="a_Node000007"><a xlink:href="../../db/df3/core_2include_2userver_2dynamic__config_2updater_2component_8hpp.html" target="_top" xlink:title="Component that does a periodic update of runtime configs.">
<polygon fill="white" stroke="#666666" points="448.5,-162 312.5,-162 312.5,-132 448.5,-132 448.5,-162"/>
<text text-anchor="start" x="320.5" y="-150" font-family="Helvetica,sans-Serif" font-size="10.00">userver/dynamic_config</text>
<text text-anchor="middle" x="380.5" y="-139" font-family="Helvetica,sans-Serif" font-size="10.00">/updater/component.hpp</text>
</a>
</g>
</g>
<!-- Node5&#45;&gt;Node7 -->
<g id="edge6_Node000005_Node000007" class="edge">
<title>Node5&#45;&gt;Node7</title>
<g id="a_edge6_Node000005_Node000007"><a xlink:title=" ">
<path fill="none" stroke="#63b8ff" d="M344.33,-190.09C352.27,-180.85 361.28,-170.36 368.33,-162.16"/>
<polygon fill="#63b8ff" stroke="#63b8ff" points="341.57,-187.93 337.71,-197.8 346.88,-192.49 341.57,-187.93"/>
</a>
</g>
</g>
<!-- Node9 -->
<g id="Node000009" class="node">
<title>Node9</title>
<g id="a_Node000009"><a xlink:href="../../d6/dc6/benchmark__helpers_8hpp_source.html" target="_top" xlink:title=" ">
<polygon fill="white" stroke="#666666" points="592,-96 455,-96 455,-66 592,-66 592,-96"/>
<text text-anchor="start" x="463" y="-84" font-family="Helvetica,sans-Serif" font-size="10.00">userver/dynamic_config</text>
<text text-anchor="middle" x="523.5" y="-73" font-family="Helvetica,sans-Serif" font-size="10.00">/benchmark_helpers.hpp</text>
</a>
</g>
</g>
<!-- Node8&#45;&gt;Node9 -->
<g id="edge8_Node000008_Node000009" class="edge">
<title>Node8&#45;&gt;Node9</title>
<g id="a_edge8_Node000008_Node000009"><a xlink:title=" ">
<path fill="none" stroke="#63b8ff" d="M480.48,-187.56C483.55,-171.44 488.46,-150.05 495.5,-132 500.42,-119.39 508.01,-106.07 514.05,-96.35"/>
<polygon fill="#63b8ff" stroke="#63b8ff" points="476.97,-187.31 478.65,-197.77 483.86,-188.54 476.97,-187.31"/>
</a>
</g>
</g>
<!-- Node11 -->
<g id="Node000011" class="node">
<title>Node11</title>
<g id="a_Node000011"><a xlink:href="../../d5/d18/include_2userver_2dynamic__config_2impl_2test__helpers_8hpp_source.html" target="_top" xlink:title=" ">
<polygon fill="white" stroke="#666666" points="638,-162 505,-162 505,-132 638,-132 638,-162"/>
<text text-anchor="start" x="513" y="-150" font-family="Helvetica,sans-Serif" font-size="10.00">userver/dynamic_config</text>
<text text-anchor="middle" x="571.5" y="-139" font-family="Helvetica,sans-Serif" font-size="10.00">/impl/test_helpers.hpp</text>
</a>
</g>
</g>
<!-- Node8&#45;&gt;Node11 -->
<g id="edge10_Node000008_Node000011" class="edge">
<title>Node8&#45;&gt;Node11</title>
<g id="a_edge10_Node000008_Node000011"><a xlink:title=" ">
<path fill="none" stroke="#63b8ff" d="M506.15,-192.03C520.52,-182.34 537.45,-170.94 550.48,-162.16"/>
<polygon fill="#63b8ff" stroke="#63b8ff" points="503.92,-189.31 497.58,-197.8 507.83,-195.11 503.92,-189.31"/>
</a>
</g>
</g>
<!-- Node10 -->
<g id="Node000010" class="node">
<title>Node10</title>
<g id="a_Node000010"><a xlink:href="../../d6/dd0/testing_2include_2userver_2dynamic__config_2test__helpers_8hpp.html" target="_top" xlink:title="Contains getters for dynamic config defaults for tests.">
<polygon fill="white" stroke="#666666" points="590,-30 457,-30 457,0 590,0 590,-30"/>
<text text-anchor="start" x="465" y="-18" font-family="Helvetica,sans-Serif" font-size="10.00">userver/dynamic_config</text>
<text text-anchor="middle" x="523.5" y="-7" font-family="Helvetica,sans-Serif" font-size="10.00">/test_helpers.hpp</text>
</a>
</g>
</g>
<!-- Node9&#45;&gt;Node10 -->
<g id="edge9_Node000009_Node000010" class="edge">
<title>Node9&#45;&gt;Node10</title>
<g id="a_edge9_Node000009_Node000010"><a xlink:title=" ">
<path fill="none" stroke="#63b8ff" d="M523.5,-55.54C523.5,-46.96 523.5,-37.61 523.5,-30.16"/>
<polygon fill="#63b8ff" stroke="#63b8ff" points="520,-55.8 523.5,-65.8 527,-55.8 520,-55.8"/>
</a>
</g>
</g>
<!-- Node11&#45;&gt;Node9 -->
<g id="edge11_Node000011_Node000009" class="edge">
<title>Node11&#45;&gt;Node9</title>
<g id="a_edge11_Node000011_Node000009"><a xlink:title=" ">
<path fill="none" stroke="#63b8ff" d="M554.64,-123.53C547.82,-114.43 540.15,-104.19 534.12,-96.16"/>
<polygon fill="#63b8ff" stroke="#63b8ff" points="552.05,-125.9 560.85,-131.8 557.65,-121.7 552.05,-125.9"/>
</a>
</g>
</g>
<!-- Node14 -->
<g id="Node000014" class="node">
<title>Node14</title>
<g id="a_Node000014"><a xlink:href="../../d7/d17/client_2impl_2codegen__definitions_8hpp_source.html" target="_top" xlink:title=" ">
<polygon fill="white" stroke="#666666" points="842,-162 679,-162 679,-132 842,-132 842,-162"/>
<text text-anchor="start" x="687" y="-150" font-family="Helvetica,sans-Serif" font-size="10.00">userver/ugrpc/client</text>
<text text-anchor="middle" x="760.5" y="-139" font-family="Helvetica,sans-Serif" font-size="10.00">/impl/codegen_definitions.hpp</text>
</a>
</g>
</g>
<!-- Node13&#45;&gt;Node14 -->
<g id="edge14_Node000013_Node000014" class="edge">
<title>Node13&#45;&gt;Node14</title>
<g id="a_edge14_Node000013_Node000014"><a xlink:title=" ">
<path fill="none" stroke="#63b8ff" d="M760.5,-187.54C760.5,-178.96 760.5,-169.61 760.5,-162.16"/>
<polygon fill="#63b8ff" stroke="#63b8ff" points="757,-187.8 760.5,-197.8 764,-187.8 757,-187.8"/>
</a>
</g>
</g>
</g>
</svg>
