<?xml version="1.0" encoding="UTF-8" standalone="no"?>
<!DOCTYPE svg PUBLIC "-//W3C//DTD SVG 1.1//EN"
 "http://www.w3.org/Graphics/SVG/1.1/DTD/svg11.dtd">
<!-- Generated by graphviz version 2.43.0 (0)
 -->
<!-- Title: formats::json::Exception Pages: 1 -->
<svg width="620pt" height="340pt"
 viewBox="0.00 0.00 620.00 340.00" xmlns="http://www.w3.org/2000/svg" xmlns:xlink="http://www.w3.org/1999/xlink">
<g id="graph0" class="graph" transform="scale(1 1) rotate(0) translate(4 336)">
<title>formats::json::Exception</title>
<!-- Node1 -->
<g id="Node000001" class="node">
<title>Node1</title>
<g id="a_Node000001"><a xlink:title=" ">
<polygon fill="#999999" stroke="#666666" points="257,-182.5 122,-182.5 122,-163.5 257,-163.5 257,-182.5"/>
<text text-anchor="middle" x="189.5" y="-170.5" font-family="Helvetica,sans-Serif" font-size="10.00">formats::json::Exception</text>
</a>
</g>
</g>
<!-- Node3 -->
<g id="Node000003" class="node">
<title>Node3</title>
<g id="a_Node000003"><a xlink:href="../../d8/d1f/classformats_1_1json_1_1BadStreamException.html" target="_top" xlink:title=" ">
<polygon fill="white" stroke="#bfbfbf" points="446,-332 305,-332 305,-302 446,-302 446,-332"/>
<text text-anchor="start" x="313" y="-320" font-family="Helvetica,sans-Serif" font-size="10.00">formats::json::BadStream</text>
<text text-anchor="middle" x="375.5" y="-309" font-family="Helvetica,sans-Serif" font-size="10.00">Exception</text>
</a>
</g>
</g>
<!-- Node1&#45;&gt;Node3 -->
<g id="edge2_Node000001_Node000003" class="edge">
<title>Node1&#45;&gt;Node3</title>
<g id="a_edge2_Node000001_Node000003"><a xlink:title=" ">
<path fill="none" stroke="#63b8ff" d="M201.32,-191.4C217.79,-217.8 251.64,-266.19 293,-293 298.32,-296.45 304.16,-299.42 310.18,-301.97"/>
<polygon fill="#63b8ff" stroke="#63b8ff" points="204.25,-189.47 196.06,-182.75 198.27,-193.11 204.25,-189.47"/>
</a>
</g>
</g>
<!-- Node4 -->
<g id="Node000004" class="node">
<title>Node4</title>
<g id="a_Node000004"><a xlink:href="../../de/d49/classformats_1_1json_1_1ConversionException.html" target="_top" xlink:title="Conversion error.">
<polygon fill="white" stroke="#666666" points="446.5,-284 304.5,-284 304.5,-254 446.5,-254 446.5,-284"/>
<text text-anchor="start" x="312.5" y="-272" font-family="Helvetica,sans-Serif" font-size="10.00">formats::json::Conversion</text>
<text text-anchor="middle" x="375.5" y="-261" font-family="Helvetica,sans-Serif" font-size="10.00">Exception</text>
</a>
</g>
</g>
<!-- Node1&#45;&gt;Node4 -->
<g id="edge3_Node000001_Node000004" class="edge">
<title>Node1&#45;&gt;Node4</title>
<g id="a_edge3_Node000001_Node000004"><a xlink:title=" ">
<path fill="none" stroke="#63b8ff" d="M209.29,-189.06C228.99,-205.19 261.43,-229.78 293,-245 299.91,-248.33 307.37,-251.3 314.88,-253.92"/>
<polygon fill="#63b8ff" stroke="#63b8ff" points="211.34,-186.22 201.42,-182.51 206.87,-191.6 211.34,-186.22"/>
</a>
</g>
</g>
<!-- Node5 -->
<g id="Node000005" class="node">
<title>Node5</title>
<g id="a_Node000005"><a xlink:href="../../d0/da8/classformats_1_1json_1_1MemberMissingException.html" target="_top" xlink:title=" ">
<polygon fill="white" stroke="#bfbfbf" points="458,-236 293,-236 293,-206 458,-206 458,-236"/>
<text text-anchor="start" x="301" y="-224" font-family="Helvetica,sans-Serif" font-size="10.00">formats::json::MemberMissing</text>
<text text-anchor="middle" x="375.5" y="-213" font-family="Helvetica,sans-Serif" font-size="10.00">Exception</text>
</a>
</g>
</g>
<!-- Node1&#45;&gt;Node5 -->
<g id="edge4_Node000001_Node000005" class="edge">
<title>Node1&#45;&gt;Node5</title>
<g id="a_edge4_Node000001_Node000005"><a xlink:title=" ">
<path fill="none" stroke="#63b8ff" d="M237.28,-185.2C261.46,-191.51 291.17,-199.26 316.76,-205.94"/>
<polygon fill="#63b8ff" stroke="#63b8ff" points="237.85,-181.74 227.29,-182.6 236.09,-188.51 237.85,-181.74"/>
</a>
</g>
</g>
<!-- Node6 -->
<g id="Node000006" class="node">
<title>Node6</title>
<g id="a_Node000006"><a xlink:href="../../de/d4c/classformats_1_1json_1_1OutOfBoundsException.html" target="_top" xlink:title=" ">
<polygon fill="white" stroke="#bfbfbf" points="451.5,-188 299.5,-188 299.5,-158 451.5,-158 451.5,-188"/>
<text text-anchor="start" x="307.5" y="-176" font-family="Helvetica,sans-Serif" font-size="10.00">formats::json::OutOfBounds</text>
<text text-anchor="middle" x="375.5" y="-165" font-family="Helvetica,sans-Serif" font-size="10.00">Exception</text>
</a>
</g>
</g>
<!-- Node1&#45;&gt;Node6 -->
<g id="edge5_Node000001_Node000006" class="edge">
<title>Node1&#45;&gt;Node6</title>
<g id="a_edge5_Node000001_Node000006"><a xlink:title=" ">
<path fill="none" stroke="#63b8ff" d="M267.25,-173C277.85,-173 288.73,-173 299.31,-173"/>
<polygon fill="#63b8ff" stroke="#63b8ff" points="267.19,-169.5 257.19,-173 267.19,-176.5 267.19,-169.5"/>
</a>
</g>
</g>
<!-- Node7 -->
<g id="Node000007" class="node">
<title>Node7</title>
<g id="a_Node000007"><a xlink:href="../../de/dff/classformats_1_1json_1_1ParseException.html" target="_top" xlink:title=" ">
<polygon fill="white" stroke="#bfbfbf" points="456,-139.5 295,-139.5 295,-120.5 456,-120.5 456,-139.5"/>
<text text-anchor="middle" x="375.5" y="-127.5" font-family="Helvetica,sans-Serif" font-size="10.00">formats::json::ParseException</text>
</a>
</g>
</g>
<!-- Node1&#45;&gt;Node7 -->
<g id="edge6_Node000001_Node000007" class="edge">
<title>Node1&#45;&gt;Node7</title>
<g id="a_edge6_Node000001_Node000007"><a xlink:title=" ">
<path fill="none" stroke="#63b8ff" d="M241.38,-161.08C257.85,-157.22 276.2,-152.93 293,-149 306.16,-145.93 320.51,-142.58 333.46,-139.56"/>
<polygon fill="#63b8ff" stroke="#63b8ff" points="240.34,-157.73 231.4,-163.41 241.93,-164.54 240.34,-157.73"/>
</a>
</g>
</g>
<!-- Node8 -->
<g id="Node000008" class="node">
<title>Node8</title>
<g id="a_Node000008"><a xlink:href="../../db/da0/classformats_1_1json_1_1TypeMismatchException.html" target="_top" xlink:title=" ">
<polygon fill="white" stroke="#bfbfbf" points="454.5,-102 296.5,-102 296.5,-72 454.5,-72 454.5,-102"/>
<text text-anchor="start" x="304.5" y="-90" font-family="Helvetica,sans-Serif" font-size="10.00">formats::json::TypeMismatch</text>
<text text-anchor="middle" x="375.5" y="-79" font-family="Helvetica,sans-Serif" font-size="10.00">Exception</text>
</a>
</g>
</g>
<!-- Node1&#45;&gt;Node8 -->
<g id="edge7_Node000001_Node000008" class="edge">
<title>Node1&#45;&gt;Node8</title>
<g id="a_edge7_Node000001_Node000008"><a xlink:title=" ">
<path fill="none" stroke="#63b8ff" d="M212.25,-157.56C232.41,-143.82 263.62,-123.95 293,-111 300.42,-107.73 308.42,-104.75 316.4,-102.1"/>
<polygon fill="#63b8ff" stroke="#63b8ff" points="210.05,-154.83 203.81,-163.4 214.03,-160.59 210.05,-154.83"/>
</a>
</g>
</g>
<!-- Node9 -->
<g id="Node000009" class="node">
<title>Node9</title>
<g id="a_Node000009"><a xlink:href="../../de/d7c/classformats_1_1json_1_1parser_1_1BaseError.html" target="_top" xlink:title=" ">
<polygon fill="white" stroke="#bfbfbf" points="434.5,-54 316.5,-54 316.5,-24 434.5,-24 434.5,-54"/>
<text text-anchor="start" x="324.5" y="-42" font-family="Helvetica,sans-Serif" font-size="10.00">formats::json::parser</text>
<text text-anchor="middle" x="375.5" y="-31" font-family="Helvetica,sans-Serif" font-size="10.00">::BaseError</text>
</a>
</g>
</g>
<!-- Node1&#45;&gt;Node9 -->
<g id="edge8_Node000001_Node000009" class="edge">
<title>Node1&#45;&gt;Node9</title>
<g id="a_edge8_Node000001_Node000009"><a xlink:title=" ">
<path fill="none" stroke="#63b8ff" d="M202.43,-155.12C219.61,-130.74 253.62,-87.34 293,-63 300.15,-58.58 308.16,-54.94 316.29,-51.95"/>
<polygon fill="#63b8ff" stroke="#63b8ff" points="199.48,-153.23 196.69,-163.45 205.25,-157.2 199.48,-153.23"/>
</a>
</g>
</g>
<!-- Node2 -->
<g id="Node000002" class="node">
<title>Node2</title>
<g id="a_Node000002"><a xlink:title=" ">
<polygon fill="white" stroke="#666666" points="86,-182.5 0,-182.5 0,-163.5 86,-163.5 86,-182.5"/>
<text text-anchor="middle" x="43" y="-170.5" font-family="Helvetica,sans-Serif" font-size="10.00">std::exception</text>
</a>
</g>
</g>
<!-- Node2&#45;&gt;Node1 -->
<g id="edge1_Node000001_Node000002" class="edge">
<title>Node2&#45;&gt;Node1</title>
<g id="a_edge1_Node000001_Node000002"><a xlink:title=" ">
<path fill="none" stroke="#63b8ff" d="M96.4,-173C104.65,-173 113.27,-173 121.79,-173"/>
<polygon fill="#63b8ff" stroke="#63b8ff" points="96.18,-169.5 86.18,-173 96.18,-176.5 96.18,-169.5"/>
</a>
</g>
</g>
<!-- Node10 -->
<g id="Node000010" class="node">
<title>Node10</title>
<g id="a_Node000010"><a xlink:href="../../d7/da4/classformats_1_1json_1_1parser_1_1InternalParseError.html" target="_top" xlink:title=" ">
<polygon fill="white" stroke="#bfbfbf" points="612,-78 494,-78 494,-48 612,-48 612,-78"/>
<text text-anchor="start" x="502" y="-66" font-family="Helvetica,sans-Serif" font-size="10.00">formats::json::parser</text>
<text text-anchor="middle" x="553" y="-55" font-family="Helvetica,sans-Serif" font-size="10.00">::InternalParseError</text>
</a>
</g>
</g>
<!-- Node9&#45;&gt;Node10 -->
<g id="edge9_Node000009_Node000010" class="edge">
<title>Node9&#45;&gt;Node10</title>
<g id="a_edge9_Node000009_Node000010"><a xlink:title=" ">
<path fill="none" stroke="#63b8ff" d="M444.87,-48.35C461.04,-50.56 478.14,-52.9 493.82,-55.04"/>
<polygon fill="#63b8ff" stroke="#63b8ff" points="445.32,-44.88 434.94,-46.99 444.37,-51.81 445.32,-44.88"/>
</a>
</g>
</g>
<!-- Node11 -->
<g id="Node000011" class="node">
<title>Node11</title>
<g id="a_Node000011"><a xlink:href="../../d2/d03/classformats_1_1json_1_1parser_1_1ParseError.html" target="_top" xlink:title=" ">
<polygon fill="white" stroke="#bfbfbf" points="612,-30 494,-30 494,0 612,0 612,-30"/>
<text text-anchor="start" x="502" y="-18" font-family="Helvetica,sans-Serif" font-size="10.00">formats::json::parser</text>
<text text-anchor="middle" x="553" y="-7" font-family="Helvetica,sans-Serif" font-size="10.00">::ParseError</text>
</a>
</g>
</g>
<!-- Node9&#45;&gt;Node11 -->
<g id="edge10_Node000009_Node000011" class="edge">
<title>Node9&#45;&gt;Node11</title>
<g id="a_edge10_Node000009_Node000011"><a xlink:title=" ">
<path fill="none" stroke="#63b8ff" d="M444.87,-29.65C461.04,-27.44 478.14,-25.1 493.82,-22.96"/>
<polygon fill="#63b8ff" stroke="#63b8ff" points="444.37,-26.19 434.94,-31.01 445.32,-33.12 444.37,-26.19"/>
</a>
</g>
</g>
</g>
</svg>
