<?xml version="1.0" encoding="UTF-8" standalone="no"?>
<!DOCTYPE svg PUBLIC "-//W3C//DTD SVG 1.1//EN"
 "http://www.w3.org/Graphics/SVG/1.1/DTD/svg11.dtd">
<!-- Generated by graphviz version 2.43.0 (0)
 -->
<!-- Title: ugrpc::server::MiddlewareBase Pages: 1 -->
<svg width="330pt" height="146pt"
 viewBox="0.00 0.00 330.00 145.50" xmlns="http://www.w3.org/2000/svg" xmlns:xlink="http://www.w3.org/1999/xlink">
<g id="graph0" class="graph" transform="scale(1 1) rotate(0) translate(4 141.5)">
<title>ugrpc::server::MiddlewareBase</title>
<!-- Node1 -->
<g id="Node000001" class="node">
<title>Node1</title>
<g id="a_Node000001"><a xlink:title="Base class for server gRPC middleware.">
<polygon fill="#999999" stroke="#666666" points="152,-84 0,-84 0,-65 152,-65 152,-84"/>
<text text-anchor="middle" x="76" y="-72" font-family="Helvetica,sans-Serif" font-size="10.00">ugrpc::server::MiddlewareBase</text>
</a>
</g>
</g>
<!-- Node2 -->
<g id="Node000002" class="node">
<title>Node2</title>
<g id="a_Node000002"><a xlink:href="../../d1/df3/classgrpc__protovalidate_1_1server_1_1Middleware.html" target="_top" xlink:title=" ">
<polygon fill="white" stroke="#bfbfbf" points="307.5,-137.5 202.5,-137.5 202.5,-107.5 307.5,-107.5 307.5,-137.5"/>
<text text-anchor="start" x="210.5" y="-125.5" font-family="Helvetica,sans-Serif" font-size="10.00">grpc_protovalidate</text>
<text text-anchor="middle" x="255" y="-114.5" font-family="Helvetica,sans-Serif" font-size="10.00">::server::Middleware</text>
</a>
</g>
</g>
<!-- Node1&#45;&gt;Node2 -->
<g id="edge1_Node000001_Node000002" class="edge">
<title>Node1&#45;&gt;Node2</title>
<g id="a_edge1_Node000001_Node000002"><a xlink:title=" ">
<path fill="none" stroke="#63b8ff" d="M122.13,-86.74C146.56,-93.36 176.84,-101.58 202.23,-108.46"/>
<polygon fill="#63b8ff" stroke="#63b8ff" points="122.96,-83.34 112.39,-84.1 121.13,-90.09 122.96,-83.34"/>
</a>
</g>
</g>
<!-- Node3 -->
<g id="Node000003" class="node">
<title>Node3</title>
<g id="a_Node000003"><a xlink:href="../../d7/dd9/classugrpc_1_1server_1_1middlewares_1_1baggage_1_1Middleware.html" target="_top" xlink:title=" ">
<polygon fill="white" stroke="#bfbfbf" points="322,-89.5 188,-89.5 188,-59.5 322,-59.5 322,-89.5"/>
<text text-anchor="start" x="196" y="-77.5" font-family="Helvetica,sans-Serif" font-size="10.00">ugrpc::server::middlewares</text>
<text text-anchor="middle" x="255" y="-66.5" font-family="Helvetica,sans-Serif" font-size="10.00">::baggage::Middleware</text>
</a>
</g>
</g>
<!-- Node1&#45;&gt;Node3 -->
<g id="edge2_Node000001_Node000003" class="edge">
<title>Node1&#45;&gt;Node3</title>
<g id="a_edge2_Node000001_Node000003"><a xlink:title=" ">
<path fill="none" stroke="#63b8ff" d="M162.14,-74.5C170.76,-74.5 179.41,-74.5 187.79,-74.5"/>
<polygon fill="#63b8ff" stroke="#63b8ff" points="162.06,-71 152.06,-74.5 162.06,-78 162.06,-71"/>
</a>
</g>
</g>
<!-- Node4 -->
<g id="Node000004" class="node">
<title>Node4</title>
<g id="a_Node000004"><a xlink:href="../../d2/de1/classugrpc_1_1server_1_1middlewares_1_1deadline__propagation_1_1Middleware.html" target="_top" xlink:title=" ">
<polygon fill="white" stroke="#bfbfbf" points="322,-41 188,-41 188,0 322,0 322,-41"/>
<text text-anchor="start" x="196" y="-29" font-family="Helvetica,sans-Serif" font-size="10.00">ugrpc::server::middlewares</text>
<text text-anchor="start" x="196" y="-18" font-family="Helvetica,sans-Serif" font-size="10.00">::deadline_propagation::</text>
<text text-anchor="middle" x="255" y="-7" font-family="Helvetica,sans-Serif" font-size="10.00">Middleware</text>
</a>
</g>
</g>
<!-- Node1&#45;&gt;Node4 -->
<g id="edge3_Node000001_Node000004" class="edge">
<title>Node1&#45;&gt;Node4</title>
<g id="a_edge3_Node000001_Node000004"><a xlink:title=" ">
<path fill="none" stroke="#63b8ff" d="M117.99,-61.99C138.74,-55.66 164.44,-47.82 187.89,-40.67"/>
<polygon fill="#63b8ff" stroke="#63b8ff" points="116.78,-58.7 108.24,-64.97 118.82,-65.4 116.78,-58.7"/>
</a>
</g>
</g>
</g>
</svg>
