<?xml version="1.0" encoding="UTF-8" standalone="no"?>
<!DOCTYPE svg PUBLIC "-//W3C//DTD SVG 1.1//EN"
 "http://www.w3.org/Graphics/SVG/1.1/DTD/svg11.dtd">
<!-- Generated by graphviz version 2.43.0 (0)
 -->
<!-- Title: userver/utils/cpu_relax.hpp Pages: 1 -->
<svg width="876pt" height="280pt"
 viewBox="0.00 0.00 876.31 280.00" xmlns="http://www.w3.org/2000/svg" xmlns:xlink="http://www.w3.org/1999/xlink">
<g id="graph0" class="graph" transform="scale(1 1) rotate(0) translate(4 276)">
<title>userver/utils/cpu_relax.hpp</title>
<!-- Node1 -->
<g id="Node000001" class="node">
<title>Node1</title>
<g id="a_Node000001"><a xlink:title="Helper classes to yield in CPU intensive places.">
<polygon fill="#999999" stroke="#666666" points="347.5,-272 198.5,-272 198.5,-253 347.5,-253 347.5,-272"/>
<text text-anchor="middle" x="273" y="-260" font-family="Helvetica,sans-Serif" font-size="10.00">userver/utils/cpu_relax.hpp</text>
</a>
</g>
</g>
<!-- Node2 -->
<g id="Node000002" class="node">
<title>Node2</title>
<g id="a_Node000002"><a xlink:title=" ">
<polygon fill="#e0e0e0" stroke="#999999" points="193,-145.5 143,-145.5 143,-126.5 193,-126.5 193,-145.5"/>
<text text-anchor="middle" x="168" y="-133.5" font-family="Helvetica,sans-Serif" font-size="10.00">chrono</text>
</a>
</g>
</g>
<!-- Node1&#45;&gt;Node2 -->
<g id="edge1_Node000001_Node000002" class="edge">
<title>Node1&#45;&gt;Node2</title>
<g id="a_edge1_Node000001_Node000002"><a xlink:title=" ">
<path fill="none" stroke="#63b8ff" d="M253.23,-252.91C237.81,-245.36 216.77,-233.07 203,-217 187.54,-198.96 177.9,-173.04 172.74,-155.64"/>
<polygon fill="#63b8ff" stroke="#63b8ff" points="176,-154.32 169.98,-145.6 169.25,-156.17 176,-154.32"/>
</a>
</g>
</g>
<!-- Node3 -->
<g id="Node000003" class="node">
<title>Node3</title>
<g id="a_Node000003"><a xlink:title=" ">
<polygon fill="#e0e0e0" stroke="#999999" points="581.5,-19 528.5,-19 528.5,0 581.5,0 581.5,-19"/>
<text text-anchor="middle" x="555" y="-7" font-family="Helvetica,sans-Serif" font-size="10.00">cstddef</text>
</a>
</g>
</g>
<!-- Node1&#45;&gt;Node3 -->
<g id="edge2_Node000001_Node000003" class="edge">
<title>Node1&#45;&gt;Node3</title>
<g id="a_edge2_Node000001_Node000003"><a xlink:title=" ">
<path fill="none" stroke="#63b8ff" d="M330.71,-253C466.08,-231.75 797.43,-171.76 862,-85 869.96,-74.3 870.73,-65.08 862,-55 844.52,-34.8 669.71,-19.18 591.96,-13.18"/>
<polygon fill="#63b8ff" stroke="#63b8ff" points="591.89,-9.66 581.66,-12.39 591.36,-16.64 591.89,-9.66"/>
</a>
</g>
</g>
<!-- Node4 -->
<g id="Node000004" class="node">
<title>Node4</title>
<g id="a_Node000004"><a xlink:href="../../d4/d54/scope__time_8hpp.html" target="_top" xlink:title="Type to measure execution time of a scope.">
<polygon fill="white" stroke="#666666" points="334,-217 212,-217 212,-187 334,-187 334,-217"/>
<text text-anchor="start" x="220" y="-205" font-family="Helvetica,sans-Serif" font-size="10.00">userver/tracing/scope</text>
<text text-anchor="middle" x="273" y="-194" font-family="Helvetica,sans-Serif" font-size="10.00">_time.hpp</text>
</a>
</g>
</g>
<!-- Node1&#45;&gt;Node4 -->
<g id="edge3_Node000001_Node000004" class="edge">
<title>Node1&#45;&gt;Node4</title>
<g id="a_edge3_Node000001_Node000004"><a xlink:title=" ">
<path fill="none" stroke="#63b8ff" d="M273,-252.87C273,-246.11 273,-236.35 273,-227.26"/>
<polygon fill="#63b8ff" stroke="#63b8ff" points="276.5,-227.11 273,-217.11 269.5,-227.11 276.5,-227.11"/>
</a>
</g>
</g>
<!-- Node4&#45;&gt;Node2 -->
<g id="edge5_Node000004_Node000002" class="edge">
<title>Node4&#45;&gt;Node2</title>
<g id="a_edge5_Node000004_Node000002"><a xlink:title=" ">
<path fill="none" stroke="#63b8ff" d="M249.96,-186.95C232.44,-176.27 208.44,-161.65 190.94,-150.98"/>
<polygon fill="#63b8ff" stroke="#63b8ff" points="192.33,-147.73 181.97,-145.52 188.69,-153.71 192.33,-147.73"/>
</a>
</g>
</g>
<!-- Node5 -->
<g id="Node000005" class="node">
<title>Node5</title>
<g id="a_Node000005"><a xlink:title=" ">
<polygon fill="#e0e0e0" stroke="#999999" points="261,-145.5 211,-145.5 211,-126.5 261,-126.5 261,-145.5"/>
<text text-anchor="middle" x="236" y="-133.5" font-family="Helvetica,sans-Serif" font-size="10.00">atomic</text>
</a>
</g>
</g>
<!-- Node4&#45;&gt;Node5 -->
<g id="edge4_Node000004_Node000005" class="edge">
<title>Node4&#45;&gt;Node5</title>
<g id="a_edge4_Node000004_Node000005"><a xlink:title=" ">
<path fill="none" stroke="#63b8ff" d="M264.79,-186.8C259.3,-177.31 252.05,-164.76 246.19,-154.63"/>
<polygon fill="#63b8ff" stroke="#63b8ff" points="249.15,-152.75 241.11,-145.84 243.09,-156.25 249.15,-152.75"/>
</a>
</g>
</g>
<!-- Node6 -->
<g id="Node000006" class="node">
<title>Node6</title>
<g id="a_Node000006"><a xlink:title=" ">
<polygon fill="#e0e0e0" stroke="#999999" points="44,-79.5 0,-79.5 0,-60.5 44,-60.5 44,-79.5"/>
<text text-anchor="middle" x="22" y="-67.5" font-family="Helvetica,sans-Serif" font-size="10.00">string</text>
</a>
</g>
</g>
<!-- Node4&#45;&gt;Node6 -->
<g id="edge6_Node000004_Node000006" class="edge">
<title>Node4&#45;&gt;Node6</title>
<g id="a_edge6_Node000004_Node000006"><a xlink:title=" ">
<path fill="none" stroke="#63b8ff" d="M277.27,-186.92C281.67,-169.24 285.89,-139.05 270,-121 237.7,-84.31 99.78,-99.18 53,-85 51.37,-84.51 49.71,-83.94 48.05,-83.34"/>
<polygon fill="#63b8ff" stroke="#63b8ff" points="49.33,-80.08 38.75,-79.52 46.67,-86.55 49.33,-80.08"/>
</a>
</g>
</g>
<!-- Node7 -->
<g id="Node000007" class="node">
<title>Node7</title>
<g id="a_Node000007"><a xlink:href="../../d6/def/log__extra_8hpp.html" target="_top" xlink:title="Extra tskv fields storage.">
<polygon fill="white" stroke="#666666" points="427,-151 317,-151 317,-121 427,-121 427,-151"/>
<text text-anchor="start" x="325" y="-139" font-family="Helvetica,sans-Serif" font-size="10.00">userver/logging/log</text>
<text text-anchor="middle" x="372" y="-128" font-family="Helvetica,sans-Serif" font-size="10.00">_extra.hpp</text>
</a>
</g>
</g>
<!-- Node4&#45;&gt;Node7 -->
<g id="edge7_Node000004_Node000007" class="edge">
<title>Node4&#45;&gt;Node7</title>
<g id="a_edge7_Node000004_Node000007"><a xlink:title=" ">
<path fill="none" stroke="#63b8ff" d="M294.97,-186.8C308.69,-177.93 326.53,-166.39 341.6,-156.66"/>
<polygon fill="#63b8ff" stroke="#63b8ff" points="343.59,-159.53 350.09,-151.16 339.79,-153.65 343.59,-159.53"/>
</a>
</g>
</g>
<!-- Node7&#45;&gt;Node6 -->
<g id="edge9_Node000007_Node000006" class="edge">
<title>Node7&#45;&gt;Node6</title>
<g id="a_edge9_Node000007_Node000006"><a xlink:title=" ">
<path fill="none" stroke="#63b8ff" d="M316.69,-123.49C312.07,-122.61 307.46,-121.77 303,-121 192.39,-101.83 160.77,-116.41 53,-85 51.36,-84.52 49.7,-83.98 48.04,-83.38"/>
<polygon fill="#63b8ff" stroke="#63b8ff" points="49.31,-80.12 38.73,-79.59 46.67,-86.6 49.31,-80.12"/>
</a>
</g>
</g>
<!-- Node8 -->
<g id="Node000008" class="node">
<title>Node8</title>
<g id="a_Node000008"><a xlink:title=" ">
<polygon fill="#e0e0e0" stroke="#999999" points="304.5,-79.5 221.5,-79.5 221.5,-60.5 304.5,-60.5 304.5,-79.5"/>
<text text-anchor="middle" x="263" y="-67.5" font-family="Helvetica,sans-Serif" font-size="10.00">initializer_list</text>
</a>
</g>
</g>
<!-- Node7&#45;&gt;Node8 -->
<g id="edge8_Node000007_Node000008" class="edge">
<title>Node7&#45;&gt;Node8</title>
<g id="a_edge8_Node000007_Node000008"><a xlink:title=" ">
<path fill="none" stroke="#63b8ff" d="M348.08,-120.95C329.72,-110.18 304.52,-95.38 286.31,-84.69"/>
<polygon fill="#63b8ff" stroke="#63b8ff" points="287.9,-81.56 277.51,-79.52 284.36,-87.6 287.9,-81.56"/>
</a>
</g>
</g>
<!-- Node9 -->
<g id="Node000009" class="node">
<title>Node9</title>
<g id="a_Node000009"><a xlink:title=" ">
<polygon fill="#e0e0e0" stroke="#999999" points="359.5,-19 314.5,-19 314.5,0 359.5,0 359.5,-19"/>
<text text-anchor="middle" x="337" y="-7" font-family="Helvetica,sans-Serif" font-size="10.00">utility</text>
</a>
</g>
</g>
<!-- Node7&#45;&gt;Node9 -->
<g id="edge10_Node000007_Node000009" class="edge">
<title>Node7&#45;&gt;Node9</title>
<g id="a_edge10_Node000007_Node000009"><a xlink:title=" ">
<path fill="none" stroke="#63b8ff" d="M365.52,-120.8C361.21,-110.93 355.68,-97.36 352,-85 346.48,-66.46 342.36,-44.72 339.85,-29.52"/>
<polygon fill="#63b8ff" stroke="#63b8ff" points="343.26,-28.68 338.25,-19.34 336.34,-29.77 343.26,-28.68"/>
</a>
</g>
</g>
<!-- Node10 -->
<g id="Node000010" class="node">
<title>Node10</title>
<g id="a_Node000010"><a xlink:title=" ">
<polygon fill="#e0e0e0" stroke="#999999" points="700.5,-79.5 649.5,-79.5 649.5,-60.5 700.5,-60.5 700.5,-79.5"/>
<text text-anchor="middle" x="675" y="-67.5" font-family="Helvetica,sans-Serif" font-size="10.00">variant</text>
</a>
</g>
</g>
<!-- Node7&#45;&gt;Node10 -->
<g id="edge11_Node000007_Node000010" class="edge">
<title>Node7&#45;&gt;Node10</title>
<g id="a_edge11_Node000007_Node000010"><a xlink:title=" ">
<path fill="none" stroke="#63b8ff" d="M427.14,-127.94C481.85,-120.18 567.73,-105.98 640,-85 641.93,-84.44 643.91,-83.81 645.88,-83.14"/>
<polygon fill="#63b8ff" stroke="#63b8ff" points="647.45,-86.29 655.62,-79.54 645.02,-79.73 647.45,-86.29"/>
</a>
</g>
</g>
<!-- Node11 -->
<g id="Node000011" class="node">
<title>Node11</title>
<g id="a_Node000011"><a xlink:title=" ">
<polygon fill="#e0e0e0" stroke="#999999" points="203.5,-85 62.5,-85 62.5,-55 203.5,-55 203.5,-85"/>
<text text-anchor="start" x="70.5" y="-73" font-family="Helvetica,sans-Serif" font-size="10.00">boost/container/container</text>
<text text-anchor="middle" x="133" y="-62" font-family="Helvetica,sans-Serif" font-size="10.00">_fwd.hpp</text>
</a>
</g>
</g>
<!-- Node7&#45;&gt;Node11 -->
<g id="edge12_Node000007_Node000011" class="edge">
<title>Node7&#45;&gt;Node11</title>
<g id="a_edge12_Node000007_Node000011"><a xlink:title=" ">
<path fill="none" stroke="#63b8ff" d="M319.55,-120.95C282.97,-111.16 234,-98.05 195.41,-87.71"/>
<polygon fill="#63b8ff" stroke="#63b8ff" points="195.89,-84.22 185.33,-85.01 194.08,-90.98 195.89,-84.22"/>
</a>
</g>
</g>
<!-- Node12 -->
<g id="Node000012" class="node">
<title>Node12</title>
<g id="a_Node000012"><a xlink:href="../../d2/d84/select_8hpp.html" target="_top" xlink:title="Utilities for selection of platform specific values.">
<polygon fill="white" stroke="#666666" points="631,-79.5 479,-79.5 479,-60.5 631,-60.5 631,-79.5"/>
<text text-anchor="middle" x="555" y="-67.5" font-family="Helvetica,sans-Serif" font-size="10.00">userver/compiler/select.hpp</text>
</a>
</g>
</g>
<!-- Node7&#45;&gt;Node12 -->
<g id="edge13_Node000007_Node000012" class="edge">
<title>Node7&#45;&gt;Node12</title>
<g id="a_edge13_Node000007_Node000012"><a xlink:title=" ">
<path fill="none" stroke="#63b8ff" d="M412.16,-120.95C444.82,-109.53 490.38,-93.6 521.19,-82.82"/>
<polygon fill="#63b8ff" stroke="#63b8ff" points="522.36,-86.12 530.65,-79.52 520.05,-79.51 522.36,-86.12"/>
</a>
</g>
</g>
<!-- Node13 -->
<g id="Node000013" class="node">
<title>Node13</title>
<g id="a_Node000013"><a xlink:href="../../db/dfb/universal_2include_2userver_2logging_2fwd_8hpp.html" target="_top" xlink:title="Forward declarations for logging types.">
<polygon fill="white" stroke="#666666" points="853,-79.5 719,-79.5 719,-60.5 853,-60.5 853,-79.5"/>
<text text-anchor="middle" x="786" y="-67.5" font-family="Helvetica,sans-Serif" font-size="10.00">userver/logging/fwd.hpp</text>
</a>
</g>
</g>
<!-- Node7&#45;&gt;Node13 -->
<g id="edge15_Node000007_Node000013" class="edge">
<title>Node7&#45;&gt;Node13</title>
<g id="a_edge15_Node000007_Node000013"><a xlink:title=" ">
<path fill="none" stroke="#63b8ff" d="M427.25,-127.37C494.08,-118 609.94,-101.35 709,-85 715.85,-83.87 723.02,-82.63 730.13,-81.38"/>
<polygon fill="#63b8ff" stroke="#63b8ff" points="731.21,-84.74 740.44,-79.54 729.98,-77.85 731.21,-84.74"/>
</a>
</g>
</g>
<!-- Node15 -->
<g id="Node000015" class="node">
<title>Node15</title>
<g id="a_Node000015"><a xlink:href="../../d5/d02/fast__pimpl_8hpp.html" target="_top" xlink:title="Implements pimpl idiom without dynamic memory allocation.">
<polygon fill="white" stroke="#666666" points="460.5,-85 361.5,-85 361.5,-55 460.5,-55 460.5,-85"/>
<text text-anchor="start" x="369.5" y="-73" font-family="Helvetica,sans-Serif" font-size="10.00">userver/utils/fast</text>
<text text-anchor="middle" x="411" y="-62" font-family="Helvetica,sans-Serif" font-size="10.00">_pimpl.hpp</text>
</a>
</g>
</g>
<!-- Node7&#45;&gt;Node15 -->
<g id="edge17_Node000007_Node000015" class="edge">
<title>Node7&#45;&gt;Node15</title>
<g id="a_edge17_Node000007_Node000015"><a xlink:title=" ">
<path fill="none" stroke="#63b8ff" d="M380.66,-120.8C385.5,-112.84 391.66,-102.74 397.16,-93.71"/>
<polygon fill="#63b8ff" stroke="#63b8ff" points="400.15,-95.52 402.37,-85.16 394.18,-91.88 400.15,-95.52"/>
</a>
</g>
</g>
<!-- Node12&#45;&gt;Node3 -->
<g id="edge14_Node000012_Node000003" class="edge">
<title>Node12&#45;&gt;Node3</title>
<g id="a_edge14_Node000012_Node000003"><a xlink:title=" ">
<path fill="none" stroke="#63b8ff" d="M555,-60.37C555,-52.25 555,-39.81 555,-29.39"/>
<polygon fill="#63b8ff" stroke="#63b8ff" points="558.5,-29.17 555,-19.17 551.5,-29.17 558.5,-29.17"/>
</a>
</g>
</g>
<!-- Node14 -->
<g id="Node000014" class="node">
<title>Node14</title>
<g id="a_Node000014"><a xlink:title=" ">
<polygon fill="#e0e0e0" stroke="#999999" points="815,-19 757,-19 757,0 815,0 815,-19"/>
<text text-anchor="middle" x="786" y="-7" font-family="Helvetica,sans-Serif" font-size="10.00">memory</text>
</a>
</g>
</g>
<!-- Node13&#45;&gt;Node14 -->
<g id="edge16_Node000013_Node000014" class="edge">
<title>Node13&#45;&gt;Node14</title>
<g id="a_edge16_Node000013_Node000014"><a xlink:title=" ">
<path fill="none" stroke="#63b8ff" d="M786,-60.37C786,-52.25 786,-39.81 786,-29.39"/>
<polygon fill="#63b8ff" stroke="#63b8ff" points="789.5,-29.17 786,-19.17 782.5,-29.17 789.5,-29.17"/>
</a>
</g>
</g>
<!-- Node15&#45;&gt;Node3 -->
<g id="edge18_Node000015_Node000003" class="edge">
<title>Node15&#45;&gt;Node3</title>
<g id="a_edge18_Node000015_Node000003"><a xlink:title=" ">
<path fill="none" stroke="#63b8ff" d="M445.49,-54.99C469.52,-45.23 501.27,-32.33 524.4,-22.93"/>
<polygon fill="#63b8ff" stroke="#63b8ff" points="525.79,-26.15 533.73,-19.14 523.15,-19.66 525.79,-26.15"/>
</a>
</g>
</g>
<!-- Node15&#45;&gt;Node9 -->
<g id="edge21_Node000015_Node000009" class="edge">
<title>Node15&#45;&gt;Node9</title>
<g id="a_edge21_Node000015_Node000009"><a xlink:title=" ">
<path fill="none" stroke="#63b8ff" d="M393.09,-54.84C381.91,-46 367.52,-34.63 356.12,-25.62"/>
<polygon fill="#63b8ff" stroke="#63b8ff" points="358.1,-22.72 348.09,-19.27 353.76,-28.21 358.1,-22.72"/>
</a>
</g>
</g>
<!-- Node16 -->
<g id="Node000016" class="node">
<title>Node16</title>
<g id="a_Node000016"><a xlink:title=" ">
<polygon fill="#e0e0e0" stroke="#999999" points="420.5,-19 383.5,-19 383.5,0 420.5,0 420.5,-19"/>
<text text-anchor="middle" x="402" y="-7" font-family="Helvetica,sans-Serif" font-size="10.00">new</text>
</a>
</g>
</g>
<!-- Node15&#45;&gt;Node16 -->
<g id="edge19_Node000015_Node000016" class="edge">
<title>Node15&#45;&gt;Node16</title>
<g id="a_edge19_Node000015_Node000016"><a xlink:title=" ">
<path fill="none" stroke="#63b8ff" d="M408.82,-54.84C407.63,-47.13 406.15,-37.49 404.87,-29.17"/>
<polygon fill="#63b8ff" stroke="#63b8ff" points="408.33,-28.62 403.35,-19.27 401.41,-29.68 408.33,-28.62"/>
</a>
</g>
</g>
<!-- Node17 -->
<g id="Node000017" class="node">
<title>Node17</title>
<g id="a_Node000017"><a xlink:title=" ">
<polygon fill="#e0e0e0" stroke="#999999" points="507.5,-19 438.5,-19 438.5,0 507.5,0 507.5,-19"/>
<text text-anchor="middle" x="473" y="-7" font-family="Helvetica,sans-Serif" font-size="10.00">type_traits</text>
</a>
</g>
</g>
<!-- Node15&#45;&gt;Node17 -->
<g id="edge20_Node000015_Node000017" class="edge">
<title>Node15&#45;&gt;Node17</title>
<g id="a_edge20_Node000015_Node000017"><a xlink:title=" ">
<path fill="none" stroke="#63b8ff" d="M426.01,-54.84C435.19,-46.17 446.95,-35.08 456.41,-26.15"/>
<polygon fill="#63b8ff" stroke="#63b8ff" points="458.84,-28.67 463.71,-19.27 454.03,-23.58 458.84,-28.67"/>
</a>
</g>
</g>
</g>
</svg>
