<?xml version="1.0" encoding="UTF-8" standalone="no"?>
<!DOCTYPE svg PUBLIC "-//W3C//DTD SVG 1.1//EN"
 "http://www.w3.org/Graphics/SVG/1.1/DTD/svg11.dtd">
<!-- Generated by graphviz version 2.43.0 (0)
 -->
<!-- Title: userver/formats/bson/value.hpp Pages: 1 -->
<svg width="1292pt" height="566pt"
 viewBox="0.00 0.00 1292.01 566.00" xmlns="http://www.w3.org/2000/svg" xmlns:xlink="http://www.w3.org/1999/xlink">
<g id="graph0" class="graph" transform="scale(1 1) rotate(0) translate(4 562)">
<title>userver/formats/bson/value.hpp</title>
<!-- Node1 -->
<g id="Node000001" class="node">
<title>Node1</title>
<g id="a_Node000001"><a xlink:title="Non&#45;mutable BSON value representation.">
<polygon fill="#999999" stroke="#666666" points="688.01,-558 567.01,-558 567.01,-528 688.01,-528 688.01,-558"/>
<text text-anchor="start" x="575.01" y="-546" font-family="Helvetica,sans-Serif" font-size="10.00">userver/formats/bson</text>
<text text-anchor="middle" x="627.51" y="-535" font-family="Helvetica,sans-Serif" font-size="10.00">/value.hpp</text>
</a>
</g>
</g>
<!-- Node2 -->
<g id="Node000002" class="node">
<title>Node2</title>
<g id="a_Node000002"><a xlink:href="../../d3/d9f/bson_8hpp.html" target="_top" xlink:title="Include&#45;all header for BSON support.">
<polygon fill="white" stroke="#666666" points="289.51,-354.5 147.51,-354.5 147.51,-335.5 289.51,-335.5 289.51,-354.5"/>
<text text-anchor="middle" x="218.51" y="-342.5" font-family="Helvetica,sans-Serif" font-size="10.00">userver/formats/bson.hpp</text>
</a>
</g>
</g>
<!-- Node1&#45;&gt;Node2 -->
<g id="edge1_Node000001_Node000002" class="edge">
<title>Node1&#45;&gt;Node2</title>
<g id="a_edge1_Node000001_Node000002"><a xlink:title=" ">
<path fill="none" stroke="#63b8ff" d="M556.63,-539.98C408.76,-534.09 75.63,-511.41 9.51,-426 -30.44,-374.39 72.05,-356.06 147.24,-349.56"/>
<polygon fill="#63b8ff" stroke="#63b8ff" points="556.82,-543.49 566.95,-540.38 557.09,-536.5 556.82,-543.49"/>
</a>
</g>
</g>
<!-- Node3 -->
<g id="Node000003" class="node">
<title>Node3</title>
<g id="a_Node000003"><a xlink:href="../../d9/d03/bson__builder_8hpp.html" target="_top" xlink:title="Internal helpers for inline document build.">
<polygon fill="white" stroke="#666666" points="517.01,-492 396.01,-492 396.01,-462 517.01,-462 517.01,-492"/>
<text text-anchor="start" x="404.01" y="-480" font-family="Helvetica,sans-Serif" font-size="10.00">userver/formats/bson</text>
<text text-anchor="middle" x="456.51" y="-469" font-family="Helvetica,sans-Serif" font-size="10.00">/bson_builder.hpp</text>
</a>
</g>
</g>
<!-- Node1&#45;&gt;Node3 -->
<g id="edge2_Node000001_Node000003" class="edge">
<title>Node1&#45;&gt;Node3</title>
<g id="a_edge2_Node000001_Node000003"><a xlink:title=" ">
<path fill="none" stroke="#63b8ff" d="M580.28,-524.32C553.06,-514.14 519.32,-501.51 493.95,-492.01"/>
<polygon fill="#63b8ff" stroke="#63b8ff" points="579.39,-527.73 589.99,-527.95 581.85,-521.17 579.39,-527.73"/>
</a>
</g>
</g>
<!-- Node4 -->
<g id="Node000004" class="node">
<title>Node4</title>
<g id="a_Node000004"><a xlink:href="../../d1/d71/mongo_2include_2userver_2formats_2bson_2inline_8hpp.html" target="_top" xlink:title="Inline value builders.">
<polygon fill="white" stroke="#666666" points="140.01,-426 19.01,-426 19.01,-396 140.01,-396 140.01,-426"/>
<text text-anchor="start" x="27.01" y="-414" font-family="Helvetica,sans-Serif" font-size="10.00">userver/formats/bson</text>
<text text-anchor="middle" x="79.51" y="-403" font-family="Helvetica,sans-Serif" font-size="10.00">/inline.hpp</text>
</a>
</g>
</g>
<!-- Node1&#45;&gt;Node4 -->
<g id="edge47_Node000001_Node000004" class="edge">
<title>Node1&#45;&gt;Node4</title>
<g id="a_edge47_Node000001_Node000004"><a xlink:title=" ">
<path fill="none" stroke="#63b8ff" d="M556.71,-528.19C508.81,-518.62 444.19,-505.26 387.51,-492 296.6,-470.74 191.49,-442.68 130.55,-426.07"/>
<polygon fill="#63b8ff" stroke="#63b8ff" points="556.18,-531.66 566.67,-530.18 557.55,-524.79 556.18,-531.66"/>
</a>
</g>
</g>
<!-- Node6 -->
<g id="Node000006" class="node">
<title>Node6</title>
<g id="a_Node000006"><a xlink:href="../../d2/d54/mongo_2include_2userver_2storages_2mongo_2options_8hpp.html" target="_top" xlink:title="Query options.">
<polygon fill="white" stroke="#666666" points="648.01,-426 513.01,-426 513.01,-396 648.01,-396 648.01,-426"/>
<text text-anchor="start" x="521.01" y="-414" font-family="Helvetica,sans-Serif" font-size="10.00">userver/storages/mongo</text>
<text text-anchor="middle" x="580.51" y="-403" font-family="Helvetica,sans-Serif" font-size="10.00">/options.hpp</text>
</a>
</g>
</g>
<!-- Node1&#45;&gt;Node6 -->
<g id="edge52_Node000001_Node000006" class="edge">
<title>Node1&#45;&gt;Node6</title>
<g id="a_edge52_Node000001_Node000006"><a xlink:title=" ">
<path fill="none" stroke="#63b8ff" d="M615.35,-518.75C611.28,-510.44 606.91,-500.93 603.51,-492 594.93,-469.44 587.75,-442.27 583.81,-426.11"/>
<polygon fill="#63b8ff" stroke="#63b8ff" points="612.31,-520.48 619.93,-527.84 618.56,-517.33 612.31,-520.48"/>
</a>
</g>
</g>
<!-- Node9 -->
<g id="Node000009" class="node">
<title>Node9</title>
<g id="a_Node000009"><a xlink:href="../../d4/db6/collection_8hpp.html" target="_top" xlink:title="MongoDB collection handle, the main way to operate with MongoDB.">
<polygon fill="white" stroke="#666666" points="947.01,-228 812.01,-228 812.01,-198 947.01,-198 947.01,-228"/>
<text text-anchor="start" x="820.01" y="-216" font-family="Helvetica,sans-Serif" font-size="10.00">userver/storages/mongo</text>
<text text-anchor="middle" x="879.51" y="-205" font-family="Helvetica,sans-Serif" font-size="10.00">/collection.hpp</text>
</a>
</g>
</g>
<!-- Node1&#45;&gt;Node9 -->
<g id="edge50_Node000001_Node000009" class="edge">
<title>Node1&#45;&gt;Node9</title>
<g id="a_edge50_Node000001_Node000009"><a xlink:title=" ">
<path fill="none" stroke="#63b8ff" d="M698.33,-536.4C780.91,-528.97 911.72,-514.15 955.51,-492 992.53,-473.27 1005.64,-464.33 1021.51,-426 1043.84,-372.1 1007.32,-303.97 972.51,-264 958.55,-247.96 938.14,-236.19 920,-228.12"/>
<polygon fill="#63b8ff" stroke="#63b8ff" points="697.91,-532.92 688.25,-537.29 698.52,-539.89 697.91,-532.92"/>
</a>
</g>
</g>
<!-- Node16 -->
<g id="Node000016" class="node">
<title>Node16</title>
<g id="a_Node000016"><a xlink:href="../../de/d6b/mongo_2include_2userver_2storages_2mongo_2operations_8hpp.html" target="_top" xlink:title="Collection operation models.">
<polygon fill="white" stroke="#666666" points="871.01,-360 736.01,-360 736.01,-330 871.01,-330 871.01,-360"/>
<text text-anchor="start" x="744.01" y="-348" font-family="Helvetica,sans-Serif" font-size="10.00">userver/storages/mongo</text>
<text text-anchor="middle" x="803.51" y="-337" font-family="Helvetica,sans-Serif" font-size="10.00">/operations.hpp</text>
</a>
</g>
</g>
<!-- Node1&#45;&gt;Node16 -->
<g id="edge51_Node000001_Node000016" class="edge">
<title>Node1&#45;&gt;Node16</title>
<g id="a_edge51_Node000001_Node000016"><a xlink:title=" ">
<path fill="none" stroke="#63b8ff" d="M698.23,-529.37C793.01,-510.84 953.31,-473.3 987.51,-426 1020.88,-379.85 936.57,-360.02 871.29,-351.71"/>
<polygon fill="#63b8ff" stroke="#63b8ff" points="697.3,-525.99 688.14,-531.32 698.63,-532.86 697.3,-525.99"/>
</a>
</g>
</g>
<!-- Node17 -->
<g id="Node000017" class="node">
<title>Node17</title>
<g id="a_Node000017"><a xlink:href="../../dd/d39/document_8hpp.html" target="_top" xlink:title="BSON document.">
<polygon fill="white" stroke="#666666" points="733.01,-492 612.01,-492 612.01,-462 733.01,-462 733.01,-492"/>
<text text-anchor="start" x="620.01" y="-480" font-family="Helvetica,sans-Serif" font-size="10.00">userver/formats/bson</text>
<text text-anchor="middle" x="672.51" y="-469" font-family="Helvetica,sans-Serif" font-size="10.00">/document.hpp</text>
</a>
</g>
</g>
<!-- Node1&#45;&gt;Node17 -->
<g id="edge27_Node000001_Node000017" class="edge">
<title>Node1&#45;&gt;Node17</title>
<g id="a_edge27_Node000001_Node000017"><a xlink:title=" ">
<path fill="none" stroke="#63b8ff" d="M643.31,-519.53C649.71,-510.43 656.91,-500.19 662.55,-492.16"/>
<polygon fill="#63b8ff" stroke="#63b8ff" points="640.39,-517.6 637.5,-527.8 646.11,-521.63 640.39,-517.6"/>
</a>
</g>
</g>
<!-- Node19 -->
<g id="Node000019" class="node">
<title>Node19</title>
<g id="a_Node000019"><a xlink:href="../../d6/de5/mongo_2include_2userver_2formats_2bson_2serialize_8hpp.html" target="_top" xlink:title="Textual serialization helpers.">
<polygon fill="white" stroke="#666666" points="978.01,-426 857.01,-426 857.01,-396 978.01,-396 978.01,-426"/>
<text text-anchor="start" x="865.01" y="-414" font-family="Helvetica,sans-Serif" font-size="10.00">userver/formats/bson</text>
<text text-anchor="middle" x="917.51" y="-403" font-family="Helvetica,sans-Serif" font-size="10.00">/serialize.hpp</text>
</a>
</g>
</g>
<!-- Node1&#45;&gt;Node19 -->
<g id="edge48_Node000001_Node000019" class="edge">
<title>Node1&#45;&gt;Node19</title>
<g id="a_edge48_Node000001_Node000019"><a xlink:title=" ">
<path fill="none" stroke="#63b8ff" d="M669.61,-523.92C691.41,-514.5 718.44,-502.74 742.51,-492 793.46,-469.28 852.41,-442.16 887.24,-426.05"/>
<polygon fill="#63b8ff" stroke="#63b8ff" points="668.09,-520.76 660.3,-527.94 670.87,-527.19 668.09,-520.76"/>
</a>
</g>
</g>
<!-- Node20 -->
<g id="Node000020" class="node">
<title>Node20</title>
<g id="a_Node000020"><a xlink:href="../../dc/d8c/mongo_2include_2userver_2formats_2bson_2value__builder_8hpp.html" target="_top" xlink:title="Builder for BSON.">
<polygon fill="white" stroke="#666666" points="418.01,-426 297.01,-426 297.01,-396 418.01,-396 418.01,-426"/>
<text text-anchor="start" x="305.01" y="-414" font-family="Helvetica,sans-Serif" font-size="10.00">userver/formats/bson</text>
<text text-anchor="middle" x="357.51" y="-403" font-family="Helvetica,sans-Serif" font-size="10.00">/value_builder.hpp</text>
</a>
</g>
</g>
<!-- Node1&#45;&gt;Node20 -->
<g id="edge49_Node000001_Node000020" class="edge">
<title>Node1&#45;&gt;Node20</title>
<g id="a_edge49_Node000001_Node000020"><a xlink:title=" ">
<path fill="none" stroke="#63b8ff" d="M606.01,-520.89C586.66,-502.95 556.7,-477.67 526.51,-462 492.57,-444.38 451.48,-432.05 418.31,-424.04"/>
<polygon fill="#63b8ff" stroke="#63b8ff" points="603.7,-523.53 613.38,-527.85 608.51,-518.44 603.7,-523.53"/>
</a>
</g>
</g>
<!-- Node22 -->
<g id="Node000022" class="node">
<title>Node22</title>
<g id="a_Node000022"><a xlink:href="../../d7/d6e/write__result_8hpp_source.html" target="_top" xlink:title=" ">
<polygon fill="white" stroke="#666666" points="947.01,-294 812.01,-294 812.01,-264 947.01,-264 947.01,-294"/>
<text text-anchor="start" x="820.01" y="-282" font-family="Helvetica,sans-Serif" font-size="10.00">userver/storages/mongo</text>
<text text-anchor="middle" x="879.51" y="-271" font-family="Helvetica,sans-Serif" font-size="10.00">/write_result.hpp</text>
</a>
</g>
</g>
<!-- Node1&#45;&gt;Node22 -->
<g id="edge53_Node000001_Node000022" class="edge">
<title>Node1&#45;&gt;Node22</title>
<g id="a_edge53_Node000001_Node000022"><a xlink:title=" ">
<path fill="none" stroke="#63b8ff" d="M698.45,-537.89C756.94,-532.53 841.11,-520.22 909.51,-492 957.04,-472.39 980.69,-471.56 1004.51,-426 1033.43,-370.71 953.4,-318.29 908.16,-294.05"/>
<polygon fill="#63b8ff" stroke="#63b8ff" points="697.86,-534.42 688.2,-538.78 698.47,-541.4 697.86,-534.42"/>
</a>
</g>
</g>
<!-- Node3&#45;&gt;Node4 -->
<g id="edge3_Node000003_Node000004" class="edge">
<title>Node3&#45;&gt;Node4</title>
<g id="a_edge3_Node000003_Node000004"><a xlink:title=" ">
<path fill="none" stroke="#63b8ff" d="M385.71,-465.21C323.41,-455.54 230.29,-440.65 149.51,-426 146.46,-425.45 143.34,-424.87 140.19,-424.27"/>
<polygon fill="#63b8ff" stroke="#63b8ff" points="385.4,-468.7 395.82,-466.77 386.47,-461.79 385.4,-468.7"/>
</a>
</g>
</g>
<!-- Node3&#45;&gt;Node6 -->
<g id="edge6_Node000003_Node000006" class="edge">
<title>Node3&#45;&gt;Node6</title>
<g id="a_edge6_Node000003_Node000006"><a xlink:title=" ">
<path fill="none" stroke="#63b8ff" d="M492.86,-457.24C512.21,-447.25 535.61,-435.18 553.36,-426.01"/>
<polygon fill="#63b8ff" stroke="#63b8ff" points="491.01,-454.26 483.72,-461.95 494.22,-460.48 491.01,-454.26"/>
</a>
</g>
</g>
<!-- Node4&#45;&gt;Node2 -->
<g id="edge5_Node000004_Node000002" class="edge">
<title>Node4&#45;&gt;Node2</title>
<g id="a_edge5_Node000004_Node000002"><a xlink:title=" ">
<path fill="none" stroke="#63b8ff" d="M119.43,-391.62C145.96,-379.41 179.55,-363.94 200.01,-354.52"/>
<polygon fill="#63b8ff" stroke="#63b8ff" points="117.64,-388.59 110.02,-395.95 120.56,-394.95 117.64,-388.59"/>
</a>
</g>
</g>
<!-- Node5 -->
<g id="Node000005" class="node">
<title>Node5</title>
<g id="a_Node000005"><a xlink:href="../../dd/d6c/base__mongo__cache_8hpp.html" target="_top" xlink:title="Base class for all caches polling mongo collection">
<polygon fill="white" stroke="#666666" points="488.01,-162 377.01,-162 377.01,-132 488.01,-132 488.01,-162"/>
<text text-anchor="start" x="385.01" y="-150" font-family="Helvetica,sans-Serif" font-size="10.00">userver/cache/base</text>
<text text-anchor="middle" x="432.51" y="-139" font-family="Helvetica,sans-Serif" font-size="10.00">_mongo_cache.hpp</text>
</a>
</g>
</g>
<!-- Node4&#45;&gt;Node5 -->
<g id="edge4_Node000004_Node000005" class="edge">
<title>Node4&#45;&gt;Node5</title>
<g id="a_edge4_Node000004_Node000005"><a xlink:title=" ">
<path fill="none" stroke="#63b8ff" d="M93.15,-386.93C103.99,-369.87 120.31,-346.78 138.51,-330 222.81,-252.28 344.98,-189.22 401.58,-162.21"/>
<polygon fill="#63b8ff" stroke="#63b8ff" points="90,-385.37 87.71,-395.71 95.95,-389.05 90,-385.37"/>
</a>
</g>
</g>
<!-- Node6&#45;&gt;Node5 -->
<g id="edge7_Node000006_Node000005" class="edge">
<title>Node6&#45;&gt;Node5</title>
<g id="a_edge7_Node000006_Node000005"><a xlink:title=" ">
<path fill="none" stroke="#63b8ff" d="M539,-390.85C525.72,-382.95 512.01,-372.64 502.51,-360 457.4,-299.97 480.35,-268.51 454.51,-198 450.01,-185.71 443.97,-172.14 439.35,-162.24"/>
<polygon fill="#63b8ff" stroke="#63b8ff" points="537.64,-394.1 548.07,-395.93 541.06,-387.99 537.64,-394.1"/>
</a>
</g>
</g>
<!-- Node7 -->
<g id="Node000007" class="node">
<title>Node7</title>
<g id="a_Node000007"><a xlink:href="../../d2/d86/mongo_8hpp.html" target="_top" xlink:title="Include&#45;all header for MongoDB client.">
<polygon fill="white" stroke="#666666" points="880.51,-90.5 724.51,-90.5 724.51,-71.5 880.51,-71.5 880.51,-90.5"/>
<text text-anchor="middle" x="802.51" y="-78.5" font-family="Helvetica,sans-Serif" font-size="10.00">userver/storages/mongo.hpp</text>
</a>
</g>
</g>
<!-- Node6&#45;&gt;Node7 -->
<g id="edge8_Node000006_Node000007" class="edge">
<title>Node6&#45;&gt;Node7</title>
<g id="a_edge8_Node000006_Node000007"><a xlink:title=" ">
<path fill="none" stroke="#63b8ff" d="M561.86,-387.95C542.97,-363.31 516.51,-321.41 516.51,-280 516.51,-280 516.51,-280 516.51,-212 516.51,-120.37 639.68,-93.02 724.36,-85.04"/>
<polygon fill="#63b8ff" stroke="#63b8ff" points="559.22,-390.25 568.17,-395.92 564.71,-385.91 559.22,-390.25"/>
</a>
</g>
</g>
<!-- Node8 -->
<g id="Node000008" class="node">
<title>Node8</title>
<g id="a_Node000008"><a xlink:href="../../d5/d0f/bulk_8hpp.html" target="_top" xlink:title="Bulk collection operation model.">
<polygon fill="white" stroke="#666666" points="717.01,-294 582.01,-294 582.01,-264 717.01,-264 717.01,-294"/>
<text text-anchor="start" x="590.01" y="-282" font-family="Helvetica,sans-Serif" font-size="10.00">userver/storages/mongo</text>
<text text-anchor="middle" x="649.51" y="-271" font-family="Helvetica,sans-Serif" font-size="10.00">/bulk.hpp</text>
</a>
</g>
</g>
<!-- Node6&#45;&gt;Node8 -->
<g id="edge9_Node000006_Node000008" class="edge">
<title>Node6&#45;&gt;Node8</title>
<g id="a_edge9_Node000006_Node000008"><a xlink:title=" ">
<path fill="none" stroke="#63b8ff" d="M572.14,-385.71C567.92,-369.07 565.4,-347.02 574.51,-330 583.08,-314 599.28,-302.23 614.44,-294.15"/>
<polygon fill="#63b8ff" stroke="#63b8ff" points="568.91,-387.12 575.06,-395.75 575.63,-385.17 568.91,-387.12"/>
</a>
</g>
</g>
<!-- Node15 -->
<g id="Node000015" class="node">
<title>Node15</title>
<g id="a_Node000015"><a xlink:href="../../d3/df1/bulk__ops_8hpp.html" target="_top" xlink:title="Bulk sub&#45;operation models.">
<polygon fill="white" stroke="#666666" points="718.01,-360 583.01,-360 583.01,-330 718.01,-330 718.01,-360"/>
<text text-anchor="start" x="591.01" y="-348" font-family="Helvetica,sans-Serif" font-size="10.00">userver/storages/mongo</text>
<text text-anchor="middle" x="650.51" y="-337" font-family="Helvetica,sans-Serif" font-size="10.00">/bulk_ops.hpp</text>
</a>
</g>
</g>
<!-- Node6&#45;&gt;Node15 -->
<g id="edge22_Node000006_Node000015" class="edge">
<title>Node6&#45;&gt;Node15</title>
<g id="a_edge22_Node000006_Node000015"><a xlink:title=" ">
<path fill="none" stroke="#63b8ff" d="M603.56,-388.92C613.89,-379.49 625.78,-368.61 635.02,-360.16"/>
<polygon fill="#63b8ff" stroke="#63b8ff" points="601.07,-386.47 596.05,-395.8 605.79,-391.63 601.07,-386.47"/>
</a>
</g>
</g>
<!-- Node6&#45;&gt;Node16 -->
<g id="edge24_Node000006_Node000016" class="edge">
<title>Node6&#45;&gt;Node16</title>
<g id="a_edge24_Node000006_Node000016"><a xlink:title=" ">
<path fill="none" stroke="#63b8ff" d="M639.32,-393.12C675.28,-382.8 720.73,-369.76 754.69,-360.01"/>
<polygon fill="#63b8ff" stroke="#63b8ff" points="638.1,-389.83 629.45,-395.95 640.03,-396.56 638.1,-389.83"/>
</a>
</g>
</g>
<!-- Node8&#45;&gt;Node7 -->
<g id="edge10_Node000008_Node000007" class="edge">
<title>Node8&#45;&gt;Node7</title>
<g id="a_edge10_Node000008_Node000007"><a xlink:title=" ">
<path fill="none" stroke="#63b8ff" d="M666.67,-256.02C700.2,-213.07 773.11,-119.67 795.7,-90.73"/>
<polygon fill="#63b8ff" stroke="#63b8ff" points="663.91,-253.87 660.52,-263.9 669.43,-258.18 663.91,-253.87"/>
</a>
</g>
</g>
<!-- Node8&#45;&gt;Node9 -->
<g id="edge11_Node000008_Node000009" class="edge">
<title>Node8&#45;&gt;Node9</title>
<g id="a_edge11_Node000008_Node000009"><a xlink:title=" ">
<path fill="none" stroke="#63b8ff" d="M709.69,-261.25C746.85,-250.91 793.98,-237.8 829.16,-228.01"/>
<polygon fill="#63b8ff" stroke="#63b8ff" points="708.68,-257.9 699.99,-263.95 710.56,-264.65 708.68,-257.9"/>
</a>
</g>
</g>
<!-- Node9&#45;&gt;Node5 -->
<g id="edge12_Node000009_Node000005" class="edge">
<title>Node9&#45;&gt;Node5</title>
<g id="a_edge12_Node000009_Node000005"><a xlink:title=" ">
<path fill="none" stroke="#63b8ff" d="M801.52,-200.83C711.96,-188.01 567.26,-167.29 488.3,-155.99"/>
<polygon fill="#63b8ff" stroke="#63b8ff" points="801.23,-204.33 811.62,-202.28 802.22,-197.4 801.23,-204.33"/>
</a>
</g>
</g>
<!-- Node9&#45;&gt;Node7 -->
<g id="edge13_Node000009_Node000007" class="edge">
<title>Node9&#45;&gt;Node7</title>
<g id="a_edge13_Node000009_Node000007"><a xlink:title=" ">
<path fill="none" stroke="#63b8ff" d="M863.5,-189.53C857.64,-181.03 851.09,-171.19 845.51,-162 830.14,-136.65 814.15,-105.39 806.75,-90.57"/>
<polygon fill="#63b8ff" stroke="#63b8ff" points="860.69,-191.62 869.29,-197.82 866.43,-187.62 860.69,-191.62"/>
</a>
</g>
</g>
<!-- Node10 -->
<g id="Node000010" class="node">
<title>Node10</title>
<g id="a_Node000010"><a xlink:href="../../d5/d93/mongo_2include_2userver_2storages_2mongo_2dist__lock__component__base_8hpp.html" target="_top" xlink:title="Base class for mongo&#45;based distlock worker components.">
<polygon fill="white" stroke="#666666" points="1284.01,-96 1111.01,-96 1111.01,-66 1284.01,-66 1284.01,-96"/>
<text text-anchor="start" x="1119.01" y="-84" font-family="Helvetica,sans-Serif" font-size="10.00">userver/storages/mongo</text>
<text text-anchor="middle" x="1197.51" y="-73" font-family="Helvetica,sans-Serif" font-size="10.00">/dist_lock_component_base.hpp</text>
</a>
</g>
</g>
<!-- Node9&#45;&gt;Node10 -->
<g id="edge14_Node000009_Node000010" class="edge">
<title>Node9&#45;&gt;Node10</title>
<g id="a_edge14_Node000009_Node000010"><a xlink:title=" ">
<path fill="none" stroke="#63b8ff" d="M957.32,-209.46C1037.32,-205.13 1154.46,-193.46 1185.51,-162 1202.68,-144.61 1202.05,-113.9 1199.89,-96.01"/>
<polygon fill="#63b8ff" stroke="#63b8ff" points="957.08,-205.97 947.27,-209.97 957.44,-212.96 957.08,-205.97"/>
</a>
</g>
</g>
<!-- Node11 -->
<g id="Node000011" class="node">
<title>Node11</title>
<g id="a_Node000011"><a xlink:href="../../d6/d83/mongo_2include_2userver_2storages_2mongo_2dist__lock__strategy_8hpp_source.html" target="_top" xlink:title=" ">
<polygon fill="white" stroke="#666666" points="1176.01,-162 1041.01,-162 1041.01,-132 1176.01,-132 1176.01,-162"/>
<text text-anchor="start" x="1049.01" y="-150" font-family="Helvetica,sans-Serif" font-size="10.00">userver/storages/mongo</text>
<text text-anchor="middle" x="1108.51" y="-139" font-family="Helvetica,sans-Serif" font-size="10.00">/dist_lock_strategy.hpp</text>
</a>
</g>
</g>
<!-- Node9&#45;&gt;Node11 -->
<g id="edge15_Node000009_Node000011" class="edge">
<title>Node9&#45;&gt;Node11</title>
<g id="a_edge15_Node000009_Node000011"><a xlink:title=" ">
<path fill="none" stroke="#63b8ff" d="M939.43,-195.25C976.43,-184.91 1023.35,-171.8 1058.37,-162.01"/>
<polygon fill="#63b8ff" stroke="#63b8ff" points="938.46,-191.89 929.77,-197.95 940.34,-198.63 938.46,-191.89"/>
</a>
</g>
</g>
<!-- Node12 -->
<g id="Node000012" class="node">
<title>Node12</title>
<g id="a_Node000012"><a xlink:href="../../d8/d62/mongo_2include_2userver_2storages_2mongo_2pool_8hpp.html" target="_top" xlink:title="MongoDB client pool.">
<polygon fill="white" stroke="#666666" points="1023.01,-162 888.01,-162 888.01,-132 1023.01,-132 1023.01,-162"/>
<text text-anchor="start" x="896.01" y="-150" font-family="Helvetica,sans-Serif" font-size="10.00">userver/storages/mongo</text>
<text text-anchor="middle" x="955.51" y="-139" font-family="Helvetica,sans-Serif" font-size="10.00">/pool.hpp</text>
</a>
</g>
</g>
<!-- Node9&#45;&gt;Node12 -->
<g id="edge17_Node000009_Node000012" class="edge">
<title>Node9&#45;&gt;Node12</title>
<g id="a_edge17_Node000009_Node000012"><a xlink:title=" ">
<path fill="none" stroke="#63b8ff" d="M904.21,-191.2C915.49,-181.7 928.57,-170.69 938.69,-162.16"/>
<polygon fill="#63b8ff" stroke="#63b8ff" points="901.77,-188.68 896.38,-197.8 906.28,-194.03 901.77,-188.68"/>
</a>
</g>
</g>
<!-- Node11&#45;&gt;Node10 -->
<g id="edge16_Node000011_Node000010" class="edge">
<title>Node11&#45;&gt;Node10</title>
<g id="a_edge16_Node000011_Node000010"><a xlink:title=" ">
<path fill="none" stroke="#63b8ff" d="M1136.67,-125.75C1150.05,-116.13 1165.73,-104.86 1177.82,-96.16"/>
<polygon fill="#63b8ff" stroke="#63b8ff" points="1134.34,-123.12 1128.26,-131.8 1138.43,-128.8 1134.34,-123.12"/>
</a>
</g>
</g>
<!-- Node12&#45;&gt;Node7 -->
<g id="edge18_Node000012_Node000007" class="edge">
<title>Node12&#45;&gt;Node7</title>
<g id="a_edge18_Node000012_Node000007"><a xlink:title=" ">
<path fill="none" stroke="#63b8ff" d="M912.34,-127.94C883.03,-115.68 845.6,-100.02 822.87,-90.52"/>
<polygon fill="#63b8ff" stroke="#63b8ff" points="911.36,-131.32 921.94,-131.95 914.06,-124.87 911.36,-131.32"/>
</a>
</g>
</g>
<!-- Node13 -->
<g id="Node000013" class="node">
<title>Node13</title>
<g id="a_Node000013"><a xlink:href="../../d1/dd7/mongo_2include_2userver_2storages_2mongo_2component_8hpp.html" target="_top" xlink:title="MongoDB client component.">
<polygon fill="white" stroke="#666666" points="1038.01,-30 903.01,-30 903.01,0 1038.01,0 1038.01,-30"/>
<text text-anchor="start" x="911.01" y="-18" font-family="Helvetica,sans-Serif" font-size="10.00">userver/storages/mongo</text>
<text text-anchor="middle" x="970.51" y="-7" font-family="Helvetica,sans-Serif" font-size="10.00">/component.hpp</text>
</a>
</g>
</g>
<!-- Node12&#45;&gt;Node13 -->
<g id="edge19_Node000012_Node000013" class="edge">
<title>Node12&#45;&gt;Node13</title>
<g id="a_edge19_Node000012_Node000013"><a xlink:title=" ">
<path fill="none" stroke="#63b8ff" d="M946.54,-122.3C941.71,-106.25 937.64,-84.65 942.51,-66 945.93,-52.91 953.62,-39.61 960.07,-30.03"/>
<polygon fill="#63b8ff" stroke="#63b8ff" points="943.27,-123.57 949.74,-131.96 949.92,-121.37 943.27,-123.57"/>
</a>
</g>
</g>
<!-- Node14 -->
<g id="Node000014" class="node">
<title>Node14</title>
<g id="a_Node000014"><a xlink:href="../../d2/de5/multi__mongo_8hpp_source.html" target="_top" xlink:title=" ">
<polygon fill="white" stroke="#666666" points="1086.01,-96 951.01,-96 951.01,-66 1086.01,-66 1086.01,-96"/>
<text text-anchor="start" x="959.01" y="-84" font-family="Helvetica,sans-Serif" font-size="10.00">userver/storages/mongo</text>
<text text-anchor="middle" x="1018.51" y="-73" font-family="Helvetica,sans-Serif" font-size="10.00">/multi_mongo.hpp</text>
</a>
</g>
</g>
<!-- Node12&#45;&gt;Node14 -->
<g id="edge20_Node000012_Node000014" class="edge">
<title>Node12&#45;&gt;Node14</title>
<g id="a_edge20_Node000012_Node000014"><a xlink:title=" ">
<path fill="none" stroke="#63b8ff" d="M976.53,-124.65C985.76,-115.27 996.34,-104.53 1004.57,-96.16"/>
<polygon fill="#63b8ff" stroke="#63b8ff" points="974.01,-122.21 969.49,-131.8 979,-127.13 974.01,-122.21"/>
</a>
</g>
</g>
<!-- Node14&#45;&gt;Node13 -->
<g id="edge21_Node000014_Node000013" class="edge">
<title>Node14&#45;&gt;Node13</title>
<g id="a_edge21_Node000014_Node000013"><a xlink:title=" ">
<path fill="none" stroke="#63b8ff" d="M1001.66,-57.53C994.83,-48.43 987.16,-38.19 981.13,-30.16"/>
<polygon fill="#63b8ff" stroke="#63b8ff" points="999.06,-59.9 1007.86,-65.8 1004.66,-55.7 999.06,-59.9"/>
</a>
</g>
</g>
<!-- Node15&#45;&gt;Node8 -->
<g id="edge23_Node000015_Node000008" class="edge">
<title>Node15&#45;&gt;Node8</title>
<g id="a_edge23_Node000015_Node000008"><a xlink:title=" ">
<path fill="none" stroke="#63b8ff" d="M650.13,-319.54C650,-310.96 649.85,-301.61 649.73,-294.16"/>
<polygon fill="#63b8ff" stroke="#63b8ff" points="646.63,-319.85 650.29,-329.8 653.63,-319.74 646.63,-319.85"/>
</a>
</g>
</g>
<!-- Node16&#45;&gt;Node5 -->
<g id="edge25_Node000016_Node000005" class="edge">
<title>Node16&#45;&gt;Node5</title>
<g id="a_edge25_Node000016_Node000005"><a xlink:title=" ">
<path fill="none" stroke="#63b8ff" d="M786.56,-321.71C772.19,-304.07 750.19,-279.86 726.51,-264 650.72,-213.24 549.38,-179.48 487.63,-162.06"/>
<polygon fill="#63b8ff" stroke="#63b8ff" points="784.01,-324.13 792.98,-329.77 789.49,-319.77 784.01,-324.13"/>
</a>
</g>
</g>
<!-- Node16&#45;&gt;Node9 -->
<g id="edge26_Node000016_Node000009" class="edge">
<title>Node16&#45;&gt;Node9</title>
<g id="a_edge26_Node000016_Node000009"><a xlink:title=" ">
<path fill="none" stroke="#63b8ff" d="M797.75,-319.66C795.13,-303 794.37,-280.95 803.51,-264 812.21,-247.87 828.63,-236.1 843.98,-228.04"/>
<polygon fill="#63b8ff" stroke="#63b8ff" points="794.36,-320.54 799.65,-329.72 801.23,-319.24 794.36,-320.54"/>
</a>
</g>
</g>
<!-- Node17&#45;&gt;Node2 -->
<g id="edge29_Node000017_Node000002" class="edge">
<title>Node17&#45;&gt;Node2</title>
<g id="a_edge29_Node000017_Node000002"><a xlink:title=" ">
<path fill="none" stroke="#63b8ff" d="M601.93,-465.1C562.14,-457.36 512.22,-444.92 470.51,-426 449.29,-416.37 448.77,-405.54 427.51,-396 380.37,-374.84 323.07,-361.94 280.39,-354.56"/>
<polygon fill="#63b8ff" stroke="#63b8ff" points="601.34,-468.55 611.81,-466.97 602.64,-461.67 601.34,-468.55"/>
</a>
</g>
</g>
<!-- Node17&#45;&gt;Node4 -->
<g id="edge32_Node000017_Node000004" class="edge">
<title>Node17&#45;&gt;Node4</title>
<g id="a_edge32_Node000017_Node000004"><a xlink:title=" ">
<path fill="none" stroke="#63b8ff" d="M601.73,-469.21C577.84,-466.92 551.02,-464.35 526.51,-462 358.96,-445.97 316.03,-450.54 149.51,-426 146.45,-425.55 143.31,-425.05 140.15,-424.52"/>
<polygon fill="#63b8ff" stroke="#63b8ff" points="601.49,-472.7 611.78,-470.17 602.16,-465.73 601.49,-472.7"/>
</a>
</g>
</g>
<!-- Node17&#45;&gt;Node5 -->
<g id="edge28_Node000017_Node000005" class="edge">
<title>Node17&#45;&gt;Node5</title>
<g id="a_edge28_Node000017_Node000005"><a xlink:title=" ">
<path fill="none" stroke="#63b8ff" d="M601.84,-469.43C568.73,-463.04 530.87,-450.51 504.51,-426 426.37,-353.35 428.56,-207.9 431.38,-162.13"/>
<polygon fill="#63b8ff" stroke="#63b8ff" points="601.48,-472.93 611.94,-471.23 602.71,-466.03 601.48,-472.93"/>
</a>
</g>
</g>
<!-- Node17&#45;&gt;Node6 -->
<g id="edge43_Node000017_Node000006" class="edge">
<title>Node17&#45;&gt;Node6</title>
<g id="a_edge43_Node000017_Node000006"><a xlink:title=" ">
<path fill="none" stroke="#63b8ff" d="M643.8,-456.03C629.88,-446.34 613.49,-434.94 600.87,-426.16"/>
<polygon fill="#63b8ff" stroke="#63b8ff" points="641.89,-458.96 652.09,-461.8 645.88,-453.21 641.89,-458.96"/>
</a>
</g>
</g>
<!-- Node17&#45;&gt;Node9 -->
<g id="edge38_Node000017_Node000009" class="edge">
<title>Node17&#45;&gt;Node9</title>
<g id="a_edge38_Node000017_Node000009"><a xlink:title=" ">
<path fill="none" stroke="#63b8ff" d="M715.01,-457.64C733.07,-449.07 753.95,-438.08 771.51,-426 787.84,-414.76 787.63,-406.39 804.51,-396 842.61,-372.55 861.79,-385.55 898.51,-360 930.57,-337.7 942.74,-330.54 956.51,-294 961.21,-281.52 962.87,-275.72 956.51,-264 947.77,-247.89 931.34,-236.17 915.9,-228.14"/>
<polygon fill="#63b8ff" stroke="#63b8ff" points="713.46,-454.51 705.87,-461.9 716.41,-460.85 713.46,-454.51"/>
</a>
</g>
</g>
<!-- Node17&#45;&gt;Node15 -->
<g id="edge37_Node000017_Node000015" class="edge">
<title>Node17&#45;&gt;Node15</title>
<g id="a_edge37_Node000017_Node000015"><a xlink:title=" ">
<path fill="none" stroke="#63b8ff" d="M668.4,-451.68C663.83,-424.7 656.62,-382.11 652.91,-360.14"/>
<polygon fill="#63b8ff" stroke="#63b8ff" points="665,-452.56 670.12,-461.84 671.9,-451.4 665,-452.56"/>
</a>
</g>
</g>
<!-- Node17&#45;&gt;Node16 -->
<g id="edge42_Node000017_Node000016" class="edge">
<title>Node17&#45;&gt;Node16</title>
<g id="a_edge42_Node000017_Node000016"><a xlink:title=" ">
<path fill="none" stroke="#63b8ff" d="M688.67,-453.78C701.34,-437.05 719.88,-414.01 738.51,-396 752.23,-382.74 769.4,-369.66 782.64,-360.21"/>
<polygon fill="#63b8ff" stroke="#63b8ff" points="685.8,-451.78 682.62,-461.89 691.4,-455.97 685.8,-451.78"/>
</a>
</g>
</g>
<!-- Node18 -->
<g id="Node000018" class="node">
<title>Node18</title>
<g id="a_Node000018"><a xlink:href="../../db/d2e/binary_8hpp.html" target="_top" xlink:title="Binary representation helpers.">
<polygon fill="white" stroke="#666666" points="279.01,-426 158.01,-426 158.01,-396 279.01,-396 279.01,-426"/>
<text text-anchor="start" x="166.01" y="-414" font-family="Helvetica,sans-Serif" font-size="10.00">userver/formats/bson</text>
<text text-anchor="middle" x="218.51" y="-403" font-family="Helvetica,sans-Serif" font-size="10.00">/binary.hpp</text>
</a>
</g>
</g>
<!-- Node17&#45;&gt;Node18 -->
<g id="edge30_Node000017_Node000018" class="edge">
<title>Node17&#45;&gt;Node18</title>
<g id="a_edge30_Node000017_Node000018"><a xlink:title=" ">
<path fill="none" stroke="#63b8ff" d="M601.71,-468.24C524.5,-459.44 397.39,-443.95 288.51,-426 285.45,-425.5 282.33,-424.96 279.17,-424.39"/>
<polygon fill="#63b8ff" stroke="#63b8ff" points="601.47,-471.74 611.8,-469.39 602.26,-464.78 601.47,-471.74"/>
</a>
</g>
</g>
<!-- Node17&#45;&gt;Node19 -->
<g id="edge33_Node000017_Node000019" class="edge">
<title>Node17&#45;&gt;Node19</title>
<g id="a_edge33_Node000017_Node000019"><a xlink:title=" ">
<path fill="none" stroke="#63b8ff" d="M736.11,-459.39C775.77,-449.03 826.24,-435.84 863.87,-426.01"/>
<polygon fill="#63b8ff" stroke="#63b8ff" points="735.07,-456.04 726.28,-461.95 736.84,-462.81 735.07,-456.04"/>
</a>
</g>
</g>
<!-- Node17&#45;&gt;Node20 -->
<g id="edge34_Node000017_Node000020" class="edge">
<title>Node17&#45;&gt;Node20</title>
<g id="a_edge34_Node000017_Node000020"><a xlink:title=" ">
<path fill="none" stroke="#63b8ff" d="M601.71,-461.61C546.45,-450.39 470.52,-434.96 418.06,-424.3"/>
<polygon fill="#63b8ff" stroke="#63b8ff" points="601.28,-465.1 611.78,-463.66 602.67,-458.24 601.28,-465.1"/>
</a>
</g>
</g>
<!-- Node21 -->
<g id="Node000021" class="node">
<title>Node21</title>
<g id="a_Node000021"><a xlink:href="../../d7/dfb/cursor_8hpp.html" target="_top" xlink:title="Interface for MongoDB query cursors.">
<polygon fill="white" stroke="#666666" points="1206.01,-294 1071.01,-294 1071.01,-264 1206.01,-264 1206.01,-294"/>
<text text-anchor="start" x="1079.01" y="-282" font-family="Helvetica,sans-Serif" font-size="10.00">userver/storages/mongo</text>
<text text-anchor="middle" x="1138.51" y="-271" font-family="Helvetica,sans-Serif" font-size="10.00">/cursor.hpp</text>
</a>
</g>
</g>
<!-- Node17&#45;&gt;Node21 -->
<g id="edge39_Node000017_Node000021" class="edge">
<title>Node17&#45;&gt;Node21</title>
<g id="a_edge39_Node000017_Node000021"><a xlink:title=" ">
<path fill="none" stroke="#63b8ff" d="M727.11,-458.59C751.39,-450.02 779.97,-438.79 804.51,-426 825.5,-415.07 826.94,-405.74 848.51,-396 907.46,-369.38 929.24,-383.47 989.51,-360 1036.57,-341.67 1087.65,-311.86 1116.11,-294.27"/>
<polygon fill="#63b8ff" stroke="#63b8ff" points="725.65,-455.39 717.34,-461.97 727.94,-462.01 725.65,-455.39"/>
</a>
</g>
</g>
<!-- Node17&#45;&gt;Node22 -->
<g id="edge44_Node000017_Node000022" class="edge">
<title>Node17&#45;&gt;Node22</title>
<g id="a_edge44_Node000017_Node000022"><a xlink:title=" ">
<path fill="none" stroke="#63b8ff" d="M699.63,-455.65C711.59,-446.62 725.79,-435.84 738.51,-426 755.53,-412.84 757.64,-406.33 776.51,-396 819.42,-372.52 852.14,-399.84 880.51,-360 894.29,-340.65 889.21,-311.46 884.33,-294.2"/>
<polygon fill="#63b8ff" stroke="#63b8ff" points="697.24,-453.06 691.36,-461.87 701.46,-458.65 697.24,-453.06"/>
</a>
</g>
</g>
<!-- Node18&#45;&gt;Node2 -->
<g id="edge31_Node000018_Node000002" class="edge">
<title>Node18&#45;&gt;Node2</title>
<g id="a_edge31_Node000018_Node000002"><a xlink:title=" ">
<path fill="none" stroke="#63b8ff" d="M218.51,-385.6C218.51,-374.8 218.51,-362.78 218.51,-354.84"/>
<polygon fill="#63b8ff" stroke="#63b8ff" points="215.01,-385.8 218.51,-395.8 222.01,-385.8 215.01,-385.8"/>
</a>
</g>
</g>
<!-- Node20&#45;&gt;Node2 -->
<g id="edge36_Node000020_Node000002" class="edge">
<title>Node20&#45;&gt;Node2</title>
<g id="a_edge36_Node000020_Node000002"><a xlink:title=" ">
<path fill="none" stroke="#63b8ff" d="M317.59,-391.62C291.07,-379.41 257.48,-363.94 237.01,-354.52"/>
<polygon fill="#63b8ff" stroke="#63b8ff" points="316.46,-394.95 327.01,-395.95 319.39,-388.59 316.46,-394.95"/>
</a>
</g>
</g>
<!-- Node20&#45;&gt;Node5 -->
<g id="edge35_Node000020_Node000005" class="edge">
<title>Node20&#45;&gt;Node5</title>
<g id="a_edge35_Node000020_Node000005"><a xlink:title=" ">
<path fill="none" stroke="#63b8ff" d="M364.3,-386.29C379.56,-332.97 416.22,-204.9 428.46,-162.16"/>
<polygon fill="#63b8ff" stroke="#63b8ff" points="360.93,-385.34 361.54,-395.91 367.66,-387.26 360.93,-385.34"/>
</a>
</g>
</g>
<!-- Node21&#45;&gt;Node7 -->
<g id="edge40_Node000021_Node000007" class="edge">
<title>Node21&#45;&gt;Node7</title>
<g id="a_edge40_Node000021_Node000007"><a xlink:title=" ">
<path fill="none" stroke="#63b8ff" d="M1096.65,-259.75C1025.82,-228.8 889.04,-168.7 879.51,-162 863.9,-151.02 826.38,-109.17 810.17,-90.77"/>
<polygon fill="#63b8ff" stroke="#63b8ff" points="1095.62,-263.12 1106.19,-263.92 1098.43,-256.71 1095.62,-263.12"/>
</a>
</g>
</g>
<!-- Node21&#45;&gt;Node9 -->
<g id="edge41_Node000021_Node000009" class="edge">
<title>Node21&#45;&gt;Node9</title>
<g id="a_edge41_Node000021_Node000009"><a xlink:title=" ">
<path fill="none" stroke="#63b8ff" d="M1071.81,-261.52C1029.8,-251.14 976.17,-237.88 936.22,-228.01"/>
<polygon fill="#63b8ff" stroke="#63b8ff" points="1071.13,-264.95 1081.67,-263.95 1072.8,-258.16 1071.13,-264.95"/>
</a>
</g>
</g>
<!-- Node22&#45;&gt;Node7 -->
<g id="edge45_Node000022_Node000007" class="edge">
<title>Node22&#45;&gt;Node7</title>
<g id="a_edge45_Node000022_Node000007"><a xlink:title=" ">
<path fill="none" stroke="#63b8ff" d="M834.98,-258.78C822.56,-251.11 810.55,-240.95 803.51,-228 778.33,-181.68 793.41,-114.25 799.95,-90.59"/>
<polygon fill="#63b8ff" stroke="#63b8ff" points="833.61,-262.03 844.03,-263.94 837.08,-255.95 833.61,-262.03"/>
</a>
</g>
</g>
<!-- Node22&#45;&gt;Node9 -->
<g id="edge46_Node000022_Node000009" class="edge">
<title>Node22&#45;&gt;Node9</title>
<g id="a_edge46_Node000022_Node000009"><a xlink:title=" ">
<path fill="none" stroke="#63b8ff" d="M879.51,-253.54C879.51,-244.96 879.51,-235.61 879.51,-228.16"/>
<polygon fill="#63b8ff" stroke="#63b8ff" points="876.01,-253.8 879.51,-263.8 883.01,-253.8 876.01,-253.8"/>
</a>
</g>
</g>
</g>
</svg>
