<?xml version="1.0" encoding="UTF-8" standalone="no"?>
<!DOCTYPE svg PUBLIC "-//W3C//DTD SVG 1.1//EN"
 "http://www.w3.org/Graphics/SVG/1.1/DTD/svg11.dtd">
<!-- Generated by graphviz version 2.43.0 (0)
 -->
<!-- Title: userver/http/content_type.hpp Pages: 1 -->
<svg width="1992pt" height="467pt"
 viewBox="0.00 0.00 1992.00 467.00" xmlns="http://www.w3.org/2000/svg" xmlns:xlink="http://www.w3.org/1999/xlink">
<g id="graph0" class="graph" transform="scale(1 1) rotate(0) translate(4 463)">
<title>userver/http/content_type.hpp</title>
<!-- Node1 -->
<g id="Node000001" class="node">
<title>Node1</title>
<g id="a_Node000001"><a xlink:title="Content&#45;Type representation.">
<polygon fill="#999999" stroke="#666666" points="1593,-459 1477,-459 1477,-429 1593,-429 1593,-459"/>
<text text-anchor="start" x="1485" y="-447" font-family="Helvetica,sans-Serif" font-size="10.00">userver/http/content</text>
<text text-anchor="middle" x="1535" y="-436" font-family="Helvetica,sans-Serif" font-size="10.00">_type.hpp</text>
</a>
</g>
</g>
<!-- Node2 -->
<g id="Node000002" class="node">
<title>Node2</title>
<g id="a_Node000002"><a xlink:href="../../de/db6/formatted__error__data_8hpp_source.html" target="_top" xlink:title=" ">
<polygon fill="white" stroke="#666666" points="1253.5,-321.5 1108.5,-321.5 1108.5,-291.5 1253.5,-291.5 1253.5,-321.5"/>
<text text-anchor="start" x="1116.5" y="-309.5" font-family="Helvetica,sans-Serif" font-size="10.00">userver/server/handlers</text>
<text text-anchor="middle" x="1181" y="-298.5" font-family="Helvetica,sans-Serif" font-size="10.00">/formatted_error_data.hpp</text>
</a>
</g>
</g>
<!-- Node1&#45;&gt;Node2 -->
<g id="edge1_Node000001_Node000002" class="edge">
<title>Node1&#45;&gt;Node2</title>
<g id="a_edge1_Node000001_Node000002"><a xlink:title=" ">
<path fill="none" stroke="#63b8ff" d="M1487.99,-425.45C1462.52,-415.91 1430.51,-403.87 1402,-393 1336.65,-368.08 1260.64,-338.55 1216.94,-321.53"/>
<polygon fill="#63b8ff" stroke="#63b8ff" points="1486.82,-428.75 1497.41,-428.98 1489.28,-422.2 1486.82,-428.75"/>
</a>
</g>
</g>
<!-- Node19 -->
<g id="Node000019" class="node">
<title>Node19</title>
<g id="a_Node000019"><a xlink:href="../../d3/d0e/json__error__builder_8hpp_source.html" target="_top" xlink:title=" ">
<polygon fill="white" stroke="#666666" points="1671,-393 1539,-393 1539,-363 1671,-363 1671,-393"/>
<text text-anchor="start" x="1547" y="-381" font-family="Helvetica,sans-Serif" font-size="10.00">userver/server/handlers</text>
<text text-anchor="middle" x="1605" y="-370" font-family="Helvetica,sans-Serif" font-size="10.00">/json_error_builder.hpp</text>
</a>
</g>
</g>
<!-- Node1&#45;&gt;Node19 -->
<g id="edge18_Node000001_Node000019" class="edge">
<title>Node1&#45;&gt;Node19</title>
<g id="a_edge18_Node000001_Node000019"><a xlink:title=" ">
<path fill="none" stroke="#63b8ff" d="M1558.05,-421.92C1568.37,-412.49 1580.27,-401.61 1589.51,-393.16"/>
<polygon fill="#63b8ff" stroke="#63b8ff" points="1555.55,-419.47 1550.54,-428.8 1560.28,-424.63 1555.55,-419.47"/>
</a>
</g>
</g>
<!-- Node20 -->
<g id="Node000020" class="node">
<title>Node20</title>
<g id="a_Node000020"><a xlink:href="../../db/d08/legacy__json__error__builder_8hpp_source.html" target="_top" xlink:title=" ">
<polygon fill="white" stroke="#666666" points="1854.5,-393 1689.5,-393 1689.5,-363 1854.5,-363 1854.5,-393"/>
<text text-anchor="start" x="1697.5" y="-381" font-family="Helvetica,sans-Serif" font-size="10.00">userver/server/handlers</text>
<text text-anchor="middle" x="1772" y="-370" font-family="Helvetica,sans-Serif" font-size="10.00">/legacy_json_error_builder.hpp</text>
</a>
</g>
</g>
<!-- Node1&#45;&gt;Node20 -->
<g id="edge19_Node000001_Node000020" class="edge">
<title>Node1&#45;&gt;Node20</title>
<g id="a_edge19_Node000001_Node000020"><a xlink:title=" ">
<path fill="none" stroke="#63b8ff" d="M1597.01,-426.25C1635.3,-415.91 1683.86,-402.8 1720.11,-393.01"/>
<polygon fill="#63b8ff" stroke="#63b8ff" points="1595.75,-422.97 1587.01,-428.95 1597.58,-429.73 1595.75,-422.97"/>
</a>
</g>
</g>
<!-- Node21 -->
<g id="Node000021" class="node">
<title>Node21</title>
<g id="a_Node000021"><a xlink:href="../../db/d6b/http__response_8hpp.html" target="_top" xlink:title="HTTP Response data.">
<polygon fill="white" stroke="#666666" points="1521,-393 1411,-393 1411,-363 1521,-363 1521,-393"/>
<text text-anchor="start" x="1419" y="-381" font-family="Helvetica,sans-Serif" font-size="10.00">userver/server/http</text>
<text text-anchor="middle" x="1466" y="-370" font-family="Helvetica,sans-Serif" font-size="10.00">/http_response.hpp</text>
</a>
</g>
</g>
<!-- Node1&#45;&gt;Node21 -->
<g id="edge20_Node000001_Node000021" class="edge">
<title>Node1&#45;&gt;Node21</title>
<g id="a_edge20_Node000001_Node000021"><a xlink:title=" ">
<path fill="none" stroke="#63b8ff" d="M1512.28,-421.92C1502.1,-412.49 1490.37,-401.61 1481.27,-393.16"/>
<polygon fill="#63b8ff" stroke="#63b8ff" points="1509.97,-424.56 1519.69,-428.8 1514.74,-419.43 1509.97,-424.56"/>
</a>
</g>
</g>
<!-- Node3 -->
<g id="Node000003" class="node">
<title>Node3</title>
<g id="a_Node000003"><a xlink:href="../../d4/df6/http__handler__base_8hpp.html" target="_top" xlink:title="Base class for all the Userver HTTP Handlers.">
<polygon fill="white" stroke="#666666" points="1199,-178.5 1067,-178.5 1067,-148.5 1199,-148.5 1199,-178.5"/>
<text text-anchor="start" x="1075" y="-166.5" font-family="Helvetica,sans-Serif" font-size="10.00">userver/server/handlers</text>
<text text-anchor="middle" x="1133" y="-155.5" font-family="Helvetica,sans-Serif" font-size="10.00">/http_handler_base.hpp</text>
</a>
</g>
</g>
<!-- Node2&#45;&gt;Node3 -->
<g id="edge2_Node000002_Node000003" class="edge">
<title>Node2&#45;&gt;Node3</title>
<g id="a_edge2_Node000002_Node000003"><a xlink:title=" ">
<path fill="none" stroke="#63b8ff" d="M1172.99,-281.98C1162.99,-252.58 1146.18,-203.2 1137.9,-178.9"/>
<polygon fill="#63b8ff" stroke="#63b8ff" points="1169.69,-283.13 1176.22,-291.46 1176.31,-280.87 1169.69,-283.13"/>
</a>
</g>
</g>
<!-- Node4 -->
<g id="Node000004" class="node">
<title>Node4</title>
<g id="a_Node000004"><a xlink:href="../../d6/d0d/dns__client__control_8hpp.html" target="_top" xlink:title="Handlers that controls the DNS client.">
<polygon fill="white" stroke="#666666" points="892,-101.5 760,-101.5 760,-71.5 892,-71.5 892,-101.5"/>
<text text-anchor="start" x="768" y="-89.5" font-family="Helvetica,sans-Serif" font-size="10.00">userver/server/handlers</text>
<text text-anchor="middle" x="826" y="-78.5" font-family="Helvetica,sans-Serif" font-size="10.00">/dns_client_control.hpp</text>
</a>
</g>
</g>
<!-- Node3&#45;&gt;Node4 -->
<g id="edge3_Node000003_Node000004" class="edge">
<title>Node3&#45;&gt;Node4</title>
<g id="a_edge3_Node000003_Node000004"><a xlink:title=" ">
<path fill="none" stroke="#63b8ff" d="M1062.95,-146.12C1016.88,-135.25 955.28,-120.55 901,-107 894.08,-105.27 886.81,-103.43 879.64,-101.58"/>
<polygon fill="#63b8ff" stroke="#63b8ff" points="1062.3,-149.56 1072.83,-148.45 1063.9,-142.75 1062.3,-149.56"/>
</a>
</g>
</g>
<!-- Node5 -->
<g id="Node000005" class="node">
<title>Node5</title>
<g id="a_Node000005"><a xlink:href="../../d6/dc0/dynamic__debug__log_8hpp.html" target="_top" xlink:title="HTTP Handler to show/hide logs at the specific file:line.">
<polygon fill="white" stroke="#666666" points="1048,-101.5 910,-101.5 910,-71.5 1048,-71.5 1048,-101.5"/>
<text text-anchor="start" x="918" y="-89.5" font-family="Helvetica,sans-Serif" font-size="10.00">userver/server/handlers</text>
<text text-anchor="middle" x="979" y="-78.5" font-family="Helvetica,sans-Serif" font-size="10.00">/dynamic_debug_log.hpp</text>
</a>
</g>
</g>
<!-- Node3&#45;&gt;Node5 -->
<g id="edge4_Node000003_Node000005" class="edge">
<title>Node3&#45;&gt;Node5</title>
<g id="a_edge4_Node000003_Node000005"><a xlink:title=" ">
<path fill="none" stroke="#63b8ff" d="M1094.9,-143.94C1067.97,-130.83 1032.43,-113.52 1007.84,-101.54"/>
<polygon fill="#63b8ff" stroke="#63b8ff" points="1093.51,-147.16 1104.03,-148.39 1096.58,-140.87 1093.51,-147.16"/>
</a>
</g>
</g>
<!-- Node6 -->
<g id="Node000006" class="node">
<title>Node6</title>
<g id="a_Node000006"><a xlink:href="../../d5/d4d/http__handler__flatbuf__base_8hpp.html" target="_top" xlink:title="Convenient base for handlers that accept requests with body in Flatbuffer format and respond with bod...">
<polygon fill="white" stroke="#666666" points="1198,-107 1066,-107 1066,-66 1198,-66 1198,-107"/>
<text text-anchor="start" x="1074" y="-95" font-family="Helvetica,sans-Serif" font-size="10.00">userver/server/handlers</text>
<text text-anchor="start" x="1074" y="-84" font-family="Helvetica,sans-Serif" font-size="10.00">/http_handler_flatbuf</text>
<text text-anchor="middle" x="1132" y="-73" font-family="Helvetica,sans-Serif" font-size="10.00">_base.hpp</text>
</a>
</g>
</g>
<!-- Node3&#45;&gt;Node6 -->
<g id="edge5_Node000003_Node000006" class="edge">
<title>Node3&#45;&gt;Node6</title>
<g id="a_edge5_Node000003_Node000006"><a xlink:title=" ">
<path fill="none" stroke="#63b8ff" d="M1132.68,-138.23C1132.54,-128.2 1132.39,-116.71 1132.26,-107.2"/>
<polygon fill="#63b8ff" stroke="#63b8ff" points="1129.18,-138.44 1132.81,-148.39 1136.18,-138.35 1129.18,-138.44"/>
</a>
</g>
</g>
<!-- Node7 -->
<g id="Node000007" class="node">
<title>Node7</title>
<g id="a_Node000007"><a xlink:href="../../d1/d58/http__handler__json__base_8hpp.html" target="_top" xlink:title="Convenient base for handlers that accept requests with body in JSON format and respond with body in J...">
<polygon fill="white" stroke="#666666" points="1372,-101.5 1216,-101.5 1216,-71.5 1372,-71.5 1372,-101.5"/>
<text text-anchor="start" x="1224" y="-89.5" font-family="Helvetica,sans-Serif" font-size="10.00">userver/server/handlers</text>
<text text-anchor="middle" x="1294" y="-78.5" font-family="Helvetica,sans-Serif" font-size="10.00">/http_handler_json_base.hpp</text>
</a>
</g>
</g>
<!-- Node3&#45;&gt;Node7 -->
<g id="edge6_Node000003_Node000007" class="edge">
<title>Node3&#45;&gt;Node7</title>
<g id="a_edge6_Node000003_Node000007"><a xlink:title=" ">
<path fill="none" stroke="#63b8ff" d="M1172.46,-144.12C1200.66,-130.98 1238.03,-113.57 1263.85,-101.54"/>
<polygon fill="#63b8ff" stroke="#63b8ff" points="1170.87,-141 1163.28,-148.39 1173.83,-147.34 1170.87,-141"/>
</a>
</g>
</g>
<!-- Node10 -->
<g id="Node000010" class="node">
<title>Node10</title>
<g id="a_Node000010"><a xlink:href="../../dd/db6/http__handler__static_8hpp.html" target="_top" xlink:title="Handler that returns HTTP 200 if file exist and returns file data with mapped content/type.">
<polygon fill="white" stroke="#666666" points="1524,-101.5 1390,-101.5 1390,-71.5 1524,-71.5 1524,-101.5"/>
<text text-anchor="start" x="1398" y="-89.5" font-family="Helvetica,sans-Serif" font-size="10.00">userver/server/handlers</text>
<text text-anchor="middle" x="1457" y="-78.5" font-family="Helvetica,sans-Serif" font-size="10.00">/http_handler_static.hpp</text>
</a>
</g>
</g>
<!-- Node3&#45;&gt;Node10 -->
<g id="edge9_Node000003_Node000010" class="edge">
<title>Node3&#45;&gt;Node10</title>
<g id="a_edge9_Node000003_Node000010"><a xlink:title=" ">
<path fill="none" stroke="#63b8ff" d="M1208.33,-146.28C1257.56,-135.52 1323.2,-120.88 1381,-107 1388.15,-105.28 1395.67,-103.42 1403.08,-101.56"/>
<polygon fill="#63b8ff" stroke="#63b8ff" points="1207.42,-142.89 1198.4,-148.44 1208.91,-149.73 1207.42,-142.89"/>
</a>
</g>
</g>
<!-- Node11 -->
<g id="Node000011" class="node">
<title>Node11</title>
<g id="a_Node000011"><a xlink:href="../../d5/d86/jemalloc_8hpp.html" target="_top" xlink:title="Handler that controls the jemalloc allocator.">
<polygon fill="white" stroke="#666666" points="1674,-101.5 1542,-101.5 1542,-71.5 1674,-71.5 1674,-101.5"/>
<text text-anchor="start" x="1550" y="-89.5" font-family="Helvetica,sans-Serif" font-size="10.00">userver/server/handlers</text>
<text text-anchor="middle" x="1608" y="-78.5" font-family="Helvetica,sans-Serif" font-size="10.00">/jemalloc.hpp</text>
</a>
</g>
</g>
<!-- Node3&#45;&gt;Node11 -->
<g id="edge10_Node000003_Node000011" class="edge">
<title>Node3&#45;&gt;Node11</title>
<g id="a_edge10_Node000003_Node000011"><a xlink:title=" ">
<path fill="none" stroke="#63b8ff" d="M1209.31,-154.59C1290.13,-145.59 1421.22,-129.21 1533,-107 1540.92,-105.43 1549.24,-103.52 1557.35,-101.52"/>
<polygon fill="#63b8ff" stroke="#63b8ff" points="1208.78,-151.13 1199.22,-155.7 1209.54,-158.09 1208.78,-151.13"/>
</a>
</g>
</g>
<!-- Node12 -->
<g id="Node000012" class="node">
<title>Node12</title>
<g id="a_Node000012"><a xlink:href="../../d0/d01/log__level_8hpp.html" target="_top" xlink:title="Handler that controls logging levels of all the loggers.">
<polygon fill="white" stroke="#666666" points="132,-101.5 0,-101.5 0,-71.5 132,-71.5 132,-101.5"/>
<text text-anchor="start" x="8" y="-89.5" font-family="Helvetica,sans-Serif" font-size="10.00">userver/server/handlers</text>
<text text-anchor="middle" x="66" y="-78.5" font-family="Helvetica,sans-Serif" font-size="10.00">/log_level.hpp</text>
</a>
</g>
</g>
<!-- Node3&#45;&gt;Node12 -->
<g id="edge11_Node000003_Node000012" class="edge">
<title>Node3&#45;&gt;Node12</title>
<g id="a_edge11_Node000003_Node000012"><a xlink:title=" ">
<path fill="none" stroke="#63b8ff" d="M1056.78,-163.36C889.76,-164.14 479.44,-159.93 141,-107 132.23,-105.63 122.99,-103.67 114.12,-101.51"/>
<polygon fill="#63b8ff" stroke="#63b8ff" points="1056.96,-166.86 1066.94,-163.31 1056.92,-159.86 1056.96,-166.86"/>
</a>
</g>
</g>
<!-- Node13 -->
<g id="Node000013" class="node">
<title>Node13</title>
<g id="a_Node000013"><a xlink:href="../../d7/d72/on__log__rotate_8hpp.html" target="_top" xlink:title="Handler that controls logging levels of all the loggers.">
<polygon fill="white" stroke="#666666" points="282,-101.5 150,-101.5 150,-71.5 282,-71.5 282,-101.5"/>
<text text-anchor="start" x="158" y="-89.5" font-family="Helvetica,sans-Serif" font-size="10.00">userver/server/handlers</text>
<text text-anchor="middle" x="216" y="-78.5" font-family="Helvetica,sans-Serif" font-size="10.00">/on_log_rotate.hpp</text>
</a>
</g>
</g>
<!-- Node3&#45;&gt;Node13 -->
<g id="edge12_Node000003_Node000013" class="edge">
<title>Node3&#45;&gt;Node13</title>
<g id="a_edge12_Node000003_Node000013"><a xlink:title=" ">
<path fill="none" stroke="#63b8ff" d="M1056.38,-162.27C907.78,-160.75 570.47,-152.13 291,-107 282.37,-105.61 273.28,-103.66 264.53,-101.54"/>
<polygon fill="#63b8ff" stroke="#63b8ff" points="1056.72,-165.77 1066.75,-162.36 1056.78,-158.77 1056.72,-165.77"/>
</a>
</g>
</g>
<!-- Node14 -->
<g id="Node000014" class="node">
<title>Node14</title>
<g id="a_Node000014"><a xlink:href="../../d8/d39/ping_8hpp.html" target="_top" xlink:title="Handler that returns HTTP 200 if the service is OK and able to process requests.">
<polygon fill="white" stroke="#666666" points="432,-101.5 300,-101.5 300,-71.5 432,-71.5 432,-101.5"/>
<text text-anchor="start" x="308" y="-89.5" font-family="Helvetica,sans-Serif" font-size="10.00">userver/server/handlers</text>
<text text-anchor="middle" x="366" y="-78.5" font-family="Helvetica,sans-Serif" font-size="10.00">/ping.hpp</text>
</a>
</g>
</g>
<!-- Node3&#45;&gt;Node14 -->
<g id="edge13_Node000003_Node000014" class="edge">
<title>Node3&#45;&gt;Node14</title>
<g id="a_edge13_Node000003_Node000014"><a xlink:title=" ">
<path fill="none" stroke="#63b8ff" d="M1056.59,-160.72C928.47,-156.76 662.59,-144.4 441,-107 432.51,-105.57 423.58,-103.63 414.95,-101.54"/>
<polygon fill="#63b8ff" stroke="#63b8ff" points="1056.59,-164.22 1066.69,-161.02 1056.8,-157.22 1056.59,-164.22"/>
</a>
</g>
</g>
<!-- Node15 -->
<g id="Node000015" class="node">
<title>Node15</title>
<g id="a_Node000015"><a xlink:href="../../de/d18/server__monitor_8hpp.html" target="_top" xlink:title="Handler that returns statistics data.">
<polygon fill="white" stroke="#666666" points="582,-101.5 450,-101.5 450,-71.5 582,-71.5 582,-101.5"/>
<text text-anchor="start" x="458" y="-89.5" font-family="Helvetica,sans-Serif" font-size="10.00">userver/server/handlers</text>
<text text-anchor="middle" x="516" y="-78.5" font-family="Helvetica,sans-Serif" font-size="10.00">/server_monitor.hpp</text>
</a>
</g>
</g>
<!-- Node3&#45;&gt;Node15 -->
<g id="edge14_Node000003_Node000015" class="edge">
<title>Node3&#45;&gt;Node15</title>
<g id="a_edge14_Node000003_Node000015"><a xlink:title=" ">
<path fill="none" stroke="#63b8ff" d="M1056.4,-158.34C950.95,-151.78 755.42,-136.61 591,-107 582.79,-105.52 574.16,-103.62 565.79,-101.58"/>
<polygon fill="#63b8ff" stroke="#63b8ff" points="1056.44,-161.85 1066.63,-158.97 1056.87,-154.86 1056.44,-161.85"/>
</a>
</g>
</g>
<!-- Node16 -->
<g id="Node000016" class="node">
<title>Node16</title>
<g id="a_Node000016"><a xlink:href="../../d8/d82/core_2include_2userver_2server_2server_8hpp_source.html" target="_top" xlink:title=" ">
<polygon fill="white" stroke="#666666" points="741.5,-96 600.5,-96 600.5,-77 741.5,-77 741.5,-96"/>
<text text-anchor="middle" x="671" y="-84" font-family="Helvetica,sans-Serif" font-size="10.00">userver/server/server.hpp</text>
</a>
</g>
</g>
<!-- Node3&#45;&gt;Node16 -->
<g id="edge15_Node000003_Node000016" class="edge">
<title>Node3&#45;&gt;Node16</title>
<g id="a_edge15_Node000003_Node000016"><a xlink:title=" ">
<path fill="none" stroke="#63b8ff" d="M1056.63,-153.57C979.26,-144.01 856.3,-127.44 751,-107 735.14,-103.92 717.7,-99.76 703.15,-96.08"/>
<polygon fill="#63b8ff" stroke="#63b8ff" points="1056.42,-157.07 1066.77,-154.81 1057.27,-150.12 1056.42,-157.07"/>
</a>
</g>
</g>
<!-- Node18 -->
<g id="Node000018" class="node">
<title>Node18</title>
<g id="a_Node000018"><a xlink:href="../../d4/d64/websocket__handler_8hpp.html" target="_top" xlink:title=" ">
<polygon fill="white" stroke="#666666" points="1834,-101.5 1692,-101.5 1692,-71.5 1834,-71.5 1834,-101.5"/>
<text text-anchor="start" x="1700" y="-89.5" font-family="Helvetica,sans-Serif" font-size="10.00">userver/server/websocket</text>
<text text-anchor="middle" x="1763" y="-78.5" font-family="Helvetica,sans-Serif" font-size="10.00">/websocket_handler.hpp</text>
</a>
</g>
</g>
<!-- Node3&#45;&gt;Node18 -->
<g id="edge17_Node000003_Node000018" class="edge">
<title>Node3&#45;&gt;Node18</title>
<g id="a_edge17_Node000003_Node000018"><a xlink:title=" ">
<path fill="none" stroke="#63b8ff" d="M1209.03,-158.17C1315.57,-151.34 1515.08,-135.79 1683,-107 1691.74,-105.5 1700.93,-103.59 1709.85,-101.54"/>
<polygon fill="#63b8ff" stroke="#63b8ff" points="1208.77,-154.68 1199.01,-158.8 1209.21,-161.66 1208.77,-154.68"/>
</a>
</g>
</g>
<!-- Node8 -->
<g id="Node000008" class="node">
<title>Node8</title>
<g id="a_Node000008"><a xlink:href="../../d7/d79/inspect__requests_8hpp.html" target="_top" xlink:title="Handler that returns information about all in&#45;flight requests.">
<polygon fill="white" stroke="#666666" points="1435,-30 1303,-30 1303,0 1435,0 1435,-30"/>
<text text-anchor="start" x="1311" y="-18" font-family="Helvetica,sans-Serif" font-size="10.00">userver/server/handlers</text>
<text text-anchor="middle" x="1369" y="-7" font-family="Helvetica,sans-Serif" font-size="10.00">/inspect_requests.hpp</text>
</a>
</g>
</g>
<!-- Node7&#45;&gt;Node8 -->
<g id="edge7_Node000007_Node000008" class="edge">
<title>Node7&#45;&gt;Node8</title>
<g id="a_edge7_Node000007_Node000008"><a xlink:title=" ">
<path fill="none" stroke="#63b8ff" d="M1316.67,-64.49C1328.71,-53.34 1343.18,-39.93 1353.85,-30.04"/>
<polygon fill="#63b8ff" stroke="#63b8ff" points="1314.13,-62.07 1309.18,-71.44 1318.89,-67.21 1314.13,-62.07"/>
</a>
</g>
</g>
<!-- Node9 -->
<g id="Node000009" class="node">
<title>Node9</title>
<g id="a_Node000009"><a xlink:href="../../d6/d43/tests__control_8hpp.html" target="_top" xlink:title="Handler that allows to control the behavior of server from tests, and functional tests with testsuite...">
<polygon fill="white" stroke="#666666" points="1285,-30 1153,-30 1153,0 1285,0 1285,-30"/>
<text text-anchor="start" x="1161" y="-18" font-family="Helvetica,sans-Serif" font-size="10.00">userver/server/handlers</text>
<text text-anchor="middle" x="1219" y="-7" font-family="Helvetica,sans-Serif" font-size="10.00">/tests_control.hpp</text>
</a>
</g>
</g>
<!-- Node7&#45;&gt;Node9 -->
<g id="edge8_Node000007_Node000009" class="edge">
<title>Node7&#45;&gt;Node9</title>
<g id="a_edge8_Node000007_Node000009"><a xlink:title=" ">
<path fill="none" stroke="#63b8ff" d="M1271.33,-64.49C1259.29,-53.34 1244.82,-39.93 1234.15,-30.04"/>
<polygon fill="#63b8ff" stroke="#63b8ff" points="1269.11,-67.21 1278.82,-71.44 1273.87,-62.07 1269.11,-67.21"/>
</a>
</g>
</g>
<!-- Node17 -->
<g id="Node000017" class="node">
<title>Node17</title>
<g id="a_Node000017"><a xlink:href="../../d3/ddd/core_2include_2userver_2server_2component_8hpp.html" target="_top" xlink:title="Component that listens for incoming requests, manages incoming connections and passes the requests to...">
<polygon fill="white" stroke="#666666" points="754,-24.5 588,-24.5 588,-5.5 754,-5.5 754,-24.5"/>
<text text-anchor="middle" x="671" y="-12.5" font-family="Helvetica,sans-Serif" font-size="10.00">userver/server/component.hpp</text>
</a>
</g>
</g>
<!-- Node16&#45;&gt;Node17 -->
<g id="edge16_Node000016_Node000017" class="edge">
<title>Node16&#45;&gt;Node17</title>
<g id="a_edge16_Node000016_Node000017"><a xlink:title=" ">
<path fill="none" stroke="#63b8ff" d="M671,-66.71C671,-53 671,-35.05 671,-24.59"/>
<polygon fill="#63b8ff" stroke="#63b8ff" points="667.5,-66.98 671,-76.98 674.5,-66.98 667.5,-66.98"/>
</a>
</g>
</g>
<!-- Node21&#45;&gt;Node3 -->
<g id="edge24_Node000021_Node000003" class="edge">
<title>Node21&#45;&gt;Node3</title>
<g id="a_edge24_Node000021_Node000003"><a xlink:title=" ">
<path fill="none" stroke="#63b8ff" d="M1407.11,-359.7C1383.02,-351.44 1355.38,-340.41 1332,-327 1255.01,-282.82 1177.47,-209.13 1146.75,-178.51"/>
<polygon fill="#63b8ff" stroke="#63b8ff" points="1406.25,-363.1 1416.84,-362.95 1408.47,-356.46 1406.25,-363.1"/>
</a>
</g>
</g>
<!-- Node22 -->
<g id="Node000022" class="node">
<title>Node22</title>
<g id="a_Node000022"><a xlink:href="../../de/d82/digest_2auth__checker__base_8hpp.html" target="_top" xlink:title="Base class for digest authentication checkers. Implements a digest&#45;authentication logic.">
<polygon fill="white" stroke="#666666" points="1888,-184 1746,-184 1746,-143 1888,-143 1888,-184"/>
<text text-anchor="start" x="1754" y="-172" font-family="Helvetica,sans-Serif" font-size="10.00">userver/server/handlers</text>
<text text-anchor="start" x="1754" y="-161" font-family="Helvetica,sans-Serif" font-size="10.00">/auth/digest/auth_checker</text>
<text text-anchor="middle" x="1817" y="-150" font-family="Helvetica,sans-Serif" font-size="10.00">_base.hpp</text>
</a>
</g>
</g>
<!-- Node21&#45;&gt;Node22 -->
<g id="edge21_Node000021_Node000022" class="edge">
<title>Node21&#45;&gt;Node22</title>
<g id="a_edge21_Node000021_Node000022"><a xlink:title=" ">
<path fill="none" stroke="#63b8ff" d="M1530.89,-361.94C1595.75,-344.19 1695.31,-309.34 1763,-250 1783.99,-231.6 1799.74,-203.07 1808.66,-184.1"/>
<polygon fill="#63b8ff" stroke="#63b8ff" points="1529.94,-358.57 1521.18,-364.54 1531.75,-365.33 1529.94,-358.57"/>
</a>
</g>
</g>
<!-- Node23 -->
<g id="Node000023" class="node">
<title>Node23</title>
<g id="a_Node000023"><a xlink:href="../../db/df0/standalone__checker_8hpp.html" target="_top" xlink:title="Class for digest authentication checker. Implements a stand&#45;alone digest&#45;authentication logic.">
<polygon fill="white" stroke="#666666" points="1984,-107 1852,-107 1852,-66 1984,-66 1984,-107"/>
<text text-anchor="start" x="1860" y="-95" font-family="Helvetica,sans-Serif" font-size="10.00">userver/server/handlers</text>
<text text-anchor="start" x="1860" y="-84" font-family="Helvetica,sans-Serif" font-size="10.00">/auth/digest/standalone</text>
<text text-anchor="middle" x="1918" y="-73" font-family="Helvetica,sans-Serif" font-size="10.00">_checker.hpp</text>
</a>
</g>
</g>
<!-- Node21&#45;&gt;Node23 -->
<g id="edge23_Node000021_Node000023" class="edge">
<title>Node21&#45;&gt;Node23</title>
<g id="a_edge23_Node000021_Node000023"><a xlink:title=" ">
<path fill="none" stroke="#63b8ff" d="M1531.11,-362.64C1595.29,-348.45 1684.31,-328.61 1688,-327 1791.19,-282.05 1834.15,-277.37 1897,-184 1912.61,-160.82 1916.85,-128.03 1917.88,-107.27"/>
<polygon fill="#63b8ff" stroke="#63b8ff" points="1530.05,-359.29 1521.04,-364.87 1531.56,-366.13 1530.05,-359.29"/>
</a>
</g>
</g>
<!-- Node24 -->
<g id="Node000024" class="node">
<title>Node24</title>
<g id="a_Node000024"><a xlink:href="../../d2/d45/http__request_8hpp.html" target="_top" xlink:title="HTTP Request data.">
<polygon fill="white" stroke="#666666" points="1587,-321.5 1477,-321.5 1477,-291.5 1587,-291.5 1587,-321.5"/>
<text text-anchor="start" x="1485" y="-309.5" font-family="Helvetica,sans-Serif" font-size="10.00">userver/server/http</text>
<text text-anchor="middle" x="1532" y="-298.5" font-family="Helvetica,sans-Serif" font-size="10.00">/http_request.hpp</text>
</a>
</g>
</g>
<!-- Node21&#45;&gt;Node24 -->
<g id="edge25_Node000021_Node000024" class="edge">
<title>Node21&#45;&gt;Node24</title>
<g id="a_edge25_Node000021_Node000024"><a xlink:title=" ">
<path fill="none" stroke="#63b8ff" d="M1486.25,-355.67C1496.79,-344.58 1509.36,-331.34 1518.66,-321.54"/>
<polygon fill="#63b8ff" stroke="#63b8ff" points="1483.7,-353.27 1479.36,-362.94 1488.78,-358.09 1483.7,-353.27"/>
</a>
</g>
</g>
<!-- Node28 -->
<g id="Node000028" class="node">
<title>Node28</title>
<g id="a_Node000028"><a xlink:href="../../d8/d76/http__response__body__stream_8hpp_source.html" target="_top" xlink:title=" ">
<polygon fill="white" stroke="#666666" points="1459,-327 1341,-327 1341,-286 1459,-286 1459,-327"/>
<text text-anchor="start" x="1349" y="-315" font-family="Helvetica,sans-Serif" font-size="10.00">userver/server/http</text>
<text text-anchor="start" x="1349" y="-304" font-family="Helvetica,sans-Serif" font-size="10.00">/http_response_body</text>
<text text-anchor="middle" x="1400" y="-293" font-family="Helvetica,sans-Serif" font-size="10.00">_stream.hpp</text>
</a>
</g>
</g>
<!-- Node21&#45;&gt;Node28 -->
<g id="edge35_Node000021_Node000028" class="edge">
<title>Node21&#45;&gt;Node28</title>
<g id="a_edge35_Node000021_Node000028"><a xlink:title=" ">
<path fill="none" stroke="#63b8ff" d="M1445.5,-355.41C1436.9,-346.36 1426.97,-335.9 1418.59,-327.07"/>
<polygon fill="#63b8ff" stroke="#63b8ff" points="1443.22,-358.09 1452.64,-362.94 1448.3,-353.27 1443.22,-358.09"/>
</a>
</g>
</g>
<!-- Node22&#45;&gt;Node23 -->
<g id="edge22_Node000022_Node000023" class="edge">
<title>Node22&#45;&gt;Node23</title>
<g id="a_edge22_Node000022_Node000023"><a xlink:title=" ">
<path fill="none" stroke="#63b8ff" d="M1851.59,-136.82C1864.65,-127.11 1879.3,-116.24 1891.51,-107.17"/>
<polygon fill="#63b8ff" stroke="#63b8ff" points="1849.21,-134.22 1843.27,-142.99 1853.39,-139.84 1849.21,-134.22"/>
</a>
</g>
</g>
<!-- Node24&#45;&gt;Node3 -->
<g id="edge32_Node000024_Node000003" class="edge">
<title>Node24&#45;&gt;Node3</title>
<g id="a_edge32_Node000024_Node000003"><a xlink:title=" ">
<path fill="none" stroke="#63b8ff" d="M1476.33,-288.42C1424.89,-272.61 1355.96,-251.34 1353,-250 1329.74,-239.47 1327.19,-230.68 1304,-220 1266.29,-202.63 1221.61,-188.33 1187.38,-178.6"/>
<polygon fill="#63b8ff" stroke="#63b8ff" points="1475.45,-291.81 1486.04,-291.4 1477.51,-285.12 1475.45,-291.81"/>
</a>
</g>
</g>
<!-- Node24&#45;&gt;Node22 -->
<g id="edge30_Node000024_Node000022" class="edge">
<title>Node24&#45;&gt;Node22</title>
<g id="a_edge30_Node000024_Node000022"><a xlink:title=" ">
<path fill="none" stroke="#63b8ff" d="M1597.4,-295.73C1637.63,-287.7 1689.13,-273.67 1730,-250 1759.5,-232.91 1786.31,-203.5 1802.14,-184.02"/>
<polygon fill="#63b8ff" stroke="#63b8ff" points="1596.58,-292.32 1587.42,-297.64 1597.9,-299.19 1596.58,-292.32"/>
</a>
</g>
</g>
<!-- Node24&#45;&gt;Node23 -->
<g id="edge31_Node000024_Node000023" class="edge">
<title>Node24&#45;&gt;Node23</title>
<g id="a_edge31_Node000024_Node000023"><a xlink:title=" ">
<path fill="none" stroke="#63b8ff" d="M1526.63,-281.37C1520.28,-245.78 1514.71,-179.52 1551,-143 1597.09,-96.62 1778.78,-119.25 1843,-107 1845.91,-106.45 1848.87,-105.84 1851.85,-105.2"/>
<polygon fill="#63b8ff" stroke="#63b8ff" points="1523.23,-282.21 1528.58,-291.36 1530.1,-280.87 1523.23,-282.21"/>
</a>
</g>
</g>
<!-- Node25 -->
<g id="Node000025" class="node">
<title>Node25</title>
<g id="a_Node000025"><a xlink:href="../../da/dff/auth__checker__base_8hpp_source.html" target="_top" xlink:title=" ">
<polygon fill="white" stroke="#666666" points="1721,-250 1563,-250 1563,-220 1721,-220 1721,-250"/>
<text text-anchor="start" x="1571" y="-238" font-family="Helvetica,sans-Serif" font-size="10.00">userver/server/handlers</text>
<text text-anchor="middle" x="1642" y="-227" font-family="Helvetica,sans-Serif" font-size="10.00">/auth/auth_checker_base.hpp</text>
</a>
</g>
</g>
<!-- Node24&#45;&gt;Node25 -->
<g id="edge26_Node000024_Node000025" class="edge">
<title>Node24&#45;&gt;Node25</title>
<g id="a_edge26_Node000024_Node000025"><a xlink:title=" ">
<path fill="none" stroke="#63b8ff" d="M1562.76,-286.07C1580.87,-274.62 1603.38,-260.4 1619.77,-250.04"/>
<polygon fill="#63b8ff" stroke="#63b8ff" points="1560.84,-283.14 1554.26,-291.44 1564.58,-289.05 1560.84,-283.14"/>
</a>
</g>
</g>
<!-- Node27 -->
<g id="Node000027" class="node">
<title>Node27</title>
<g id="a_Node000027"><a xlink:href="../../de/d4e/core_2include_2userver_2server_2websocket_2server_8hpp.html" target="_top" xlink:title=" ">
<polygon fill="white" stroke="#666666" points="1504,-250 1362,-250 1362,-220 1504,-220 1504,-250"/>
<text text-anchor="start" x="1370" y="-238" font-family="Helvetica,sans-Serif" font-size="10.00">userver/server/websocket</text>
<text text-anchor="middle" x="1433" y="-227" font-family="Helvetica,sans-Serif" font-size="10.00">/server.hpp</text>
</a>
</g>
</g>
<!-- Node24&#45;&gt;Node27 -->
<g id="edge33_Node000024_Node000027" class="edge">
<title>Node24&#45;&gt;Node27</title>
<g id="a_edge33_Node000024_Node000027"><a xlink:title=" ">
<path fill="none" stroke="#63b8ff" d="M1503.43,-285.44C1487.28,-274.1 1467.49,-260.21 1453,-250.04"/>
<polygon fill="#63b8ff" stroke="#63b8ff" points="1501.77,-288.55 1511.97,-291.44 1505.79,-282.83 1501.77,-288.55"/>
</a>
</g>
</g>
<!-- Node25&#45;&gt;Node3 -->
<g id="edge29_Node000025_Node000003" class="edge">
<title>Node25&#45;&gt;Node3</title>
<g id="a_edge29_Node000025_Node000003"><a xlink:title=" ">
<path fill="none" stroke="#63b8ff" d="M1552.56,-221.79C1451.5,-207.99 1289.37,-185.85 1199.1,-173.53"/>
<polygon fill="#63b8ff" stroke="#63b8ff" points="1552.37,-225.29 1562.75,-223.18 1553.31,-218.36 1552.37,-225.29"/>
</a>
</g>
</g>
<!-- Node25&#45;&gt;Node22 -->
<g id="edge28_Node000025_Node000022" class="edge">
<title>Node25&#45;&gt;Node22</title>
<g id="a_edge28_Node000025_Node000022"><a xlink:title=" ">
<path fill="none" stroke="#63b8ff" d="M1686.91,-216.16C1711.63,-206.35 1742.34,-194.15 1767.71,-184.07"/>
<polygon fill="#63b8ff" stroke="#63b8ff" points="1685.42,-212.99 1677.41,-219.94 1688,-219.5 1685.42,-212.99"/>
</a>
</g>
</g>
<!-- Node26 -->
<g id="Node000026" class="node">
<title>Node26</title>
<g id="a_Node000026"><a xlink:href="../../db/ddd/auth__checker__factory_8hpp.html" target="_top" xlink:title="Authorization factory registration and base classes.">
<polygon fill="white" stroke="#666666" points="1728,-178.5 1560,-178.5 1560,-148.5 1728,-148.5 1728,-178.5"/>
<text text-anchor="start" x="1568" y="-166.5" font-family="Helvetica,sans-Serif" font-size="10.00">userver/server/handlers</text>
<text text-anchor="middle" x="1644" y="-155.5" font-family="Helvetica,sans-Serif" font-size="10.00">/auth/auth_checker_factory.hpp</text>
</a>
</g>
</g>
<!-- Node25&#45;&gt;Node26 -->
<g id="edge27_Node000025_Node000026" class="edge">
<title>Node25&#45;&gt;Node26</title>
<g id="a_edge27_Node000025_Node000026"><a xlink:title=" ">
<path fill="none" stroke="#63b8ff" d="M1642.7,-209.75C1643,-199.31 1643.34,-187.49 1643.6,-178.54"/>
<polygon fill="#63b8ff" stroke="#63b8ff" points="1639.19,-209.84 1642.4,-219.94 1646.19,-210.04 1639.19,-209.84"/>
</a>
</g>
</g>
<!-- Node27&#45;&gt;Node18 -->
<g id="edge34_Node000027_Node000018" class="edge">
<title>Node27&#45;&gt;Node18</title>
<g id="a_edge34_Node000027_Node000018"><a xlink:title=" ">
<path fill="none" stroke="#63b8ff" d="M1447.92,-211.43C1463.05,-190.4 1488.4,-159.83 1518,-143 1583.24,-105.89 1609.87,-123.89 1683,-107 1690.52,-105.26 1698.43,-103.39 1706.23,-101.52"/>
<polygon fill="#63b8ff" stroke="#63b8ff" points="1444.94,-209.59 1442.08,-219.79 1450.68,-213.59 1444.94,-209.59"/>
</a>
</g>
</g>
</g>
</svg>
