<?xml version="1.0" encoding="UTF-8" standalone="no"?>
<!DOCTYPE svg PUBLIC "-//W3C//DTD SVG 1.1//EN"
 "http://www.w3.org/Graphics/SVG/1.1/DTD/svg11.dtd">
<!-- Generated by graphviz version 2.43.0 (0)
 -->
<!-- Title: userver/components/component_context.hpp Pages: 1 -->
<svg width="896pt" height="159pt"
 viewBox="0.00 0.00 895.50 159.00" xmlns="http://www.w3.org/2000/svg" xmlns:xlink="http://www.w3.org/1999/xlink">
<g id="graph0" class="graph" transform="scale(1 1) rotate(0) translate(4 155)">
<title>userver/components/component_context.hpp</title>
<!-- Node1 -->
<g id="Node000001" class="node">
<title>Node1</title>
<g id="a_Node000001"><a xlink:title="Class to retrieve other components.">
<polygon fill="#999999" stroke="#666666" points="459,-151 322,-151 322,-121 459,-121 459,-151"/>
<text text-anchor="start" x="330" y="-139" font-family="Helvetica,sans-Serif" font-size="10.00">userver/components</text>
<text text-anchor="middle" x="390.5" y="-128" font-family="Helvetica,sans-Serif" font-size="10.00">/component_context.hpp</text>
</a>
</g>
</g>
<!-- Node2 -->
<g id="Node000002" class="node">
<title>Node2</title>
<g id="a_Node000002"><a xlink:title=" ">
<polygon fill="#e0e0e0" stroke="#999999" points="230,-19 165,-19 165,0 230,0 230,-19"/>
<text text-anchor="middle" x="197.5" y="-7" font-family="Helvetica,sans-Serif" font-size="10.00">functional</text>
</a>
</g>
</g>
<!-- Node1&#45;&gt;Node2 -->
<g id="edge1_Node000001_Node000002" class="edge">
<title>Node1&#45;&gt;Node2</title>
<g id="a_edge1_Node000001_Node000002"><a xlink:title=" ">
<path fill="none" stroke="#63b8ff" d="M378.51,-120.92C363.09,-103.51 334.79,-73.9 305.5,-55 283.78,-40.99 256.91,-29.89 235.41,-22.29"/>
<polygon fill="#63b8ff" stroke="#63b8ff" points="236.54,-18.98 225.94,-19.04 234.26,-25.6 236.54,-18.98"/>
</a>
</g>
</g>
<!-- Node3 -->
<g id="Node000003" class="node">
<title>Node3</title>
<g id="a_Node000003"><a xlink:title=" ">
<polygon fill="#e0e0e0" stroke="#999999" points="213.5,-79.5 155.5,-79.5 155.5,-60.5 213.5,-60.5 213.5,-79.5"/>
<text text-anchor="middle" x="184.5" y="-67.5" font-family="Helvetica,sans-Serif" font-size="10.00">memory</text>
</a>
</g>
</g>
<!-- Node1&#45;&gt;Node3 -->
<g id="edge2_Node000001_Node000003" class="edge">
<title>Node1&#45;&gt;Node3</title>
<g id="a_edge2_Node000001_Node000003"><a xlink:title=" ">
<path fill="none" stroke="#63b8ff" d="M340.25,-120.95C306.73,-111.36 261.77,-98.06 222.5,-85 220.6,-84.37 218.65,-83.7 216.69,-83.02"/>
<polygon fill="#63b8ff" stroke="#63b8ff" points="217.52,-79.6 206.92,-79.53 215.16,-86.19 217.52,-79.6"/>
</a>
</g>
</g>
<!-- Node4 -->
<g id="Node000004" class="node">
<title>Node4</title>
<g id="a_Node000004"><a xlink:title=" ">
<polygon fill="#e0e0e0" stroke="#999999" points="297,-79.5 232,-79.5 232,-60.5 297,-60.5 297,-79.5"/>
<text text-anchor="middle" x="264.5" y="-67.5" font-family="Helvetica,sans-Serif" font-size="10.00">stdexcept</text>
</a>
</g>
</g>
<!-- Node1&#45;&gt;Node4 -->
<g id="edge3_Node000001_Node000004" class="edge">
<title>Node1&#45;&gt;Node4</title>
<g id="a_edge3_Node000001_Node000004"><a xlink:title=" ">
<path fill="none" stroke="#63b8ff" d="M362.85,-120.95C341.24,-109.98 311.42,-94.83 290.3,-84.11"/>
<polygon fill="#63b8ff" stroke="#63b8ff" points="291.77,-80.93 281.27,-79.52 288.6,-87.17 291.77,-80.93"/>
</a>
</g>
</g>
<!-- Node5 -->
<g id="Node000005" class="node">
<title>Node5</title>
<g id="a_Node000005"><a xlink:title=" ">
<polygon fill="#e0e0e0" stroke="#999999" points="631.5,-19 587.5,-19 587.5,0 631.5,0 631.5,-19"/>
<text text-anchor="middle" x="609.5" y="-7" font-family="Helvetica,sans-Serif" font-size="10.00">string</text>
</a>
</g>
</g>
<!-- Node1&#45;&gt;Node5 -->
<g id="edge4_Node000001_Node000005" class="edge">
<title>Node1&#45;&gt;Node5</title>
<g id="a_edge4_Node000001_Node000005"><a xlink:title=" ">
<path fill="none" stroke="#63b8ff" d="M427.29,-120.9C449.21,-111.87 477.21,-99.19 500.5,-85 518.87,-73.8 520.91,-67.4 538.5,-55 554.01,-44.07 572.14,-32.72 586.2,-24.23"/>
<polygon fill="#63b8ff" stroke="#63b8ff" points="588.01,-27.23 594.79,-19.08 584.41,-21.22 588.01,-27.23"/>
</a>
</g>
</g>
<!-- Node6 -->
<g id="Node000006" class="node">
<title>Node6</title>
<g id="a_Node000006"><a xlink:title=" ">
<polygon fill="#e0e0e0" stroke="#999999" points="427,-79.5 354,-79.5 354,-60.5 427,-60.5 427,-79.5"/>
<text text-anchor="middle" x="390.5" y="-67.5" font-family="Helvetica,sans-Serif" font-size="10.00">string_view</text>
</a>
</g>
</g>
<!-- Node1&#45;&gt;Node6 -->
<g id="edge5_Node000001_Node000006" class="edge">
<title>Node1&#45;&gt;Node6</title>
<g id="a_edge5_Node000001_Node000006"><a xlink:title=" ">
<path fill="none" stroke="#63b8ff" d="M390.5,-120.8C390.5,-111.7 390.5,-99.79 390.5,-89.9"/>
<polygon fill="#63b8ff" stroke="#63b8ff" points="394,-89.84 390.5,-79.84 387,-89.84 394,-89.84"/>
</a>
</g>
</g>
<!-- Node7 -->
<g id="Node000007" class="node">
<title>Node7</title>
<g id="a_Node000007"><a xlink:title=" ">
<polygon fill="#e0e0e0" stroke="#999999" points="492,-79.5 445,-79.5 445,-60.5 492,-60.5 492,-79.5"/>
<text text-anchor="middle" x="468.5" y="-67.5" font-family="Helvetica,sans-Serif" font-size="10.00">vector</text>
</a>
</g>
</g>
<!-- Node1&#45;&gt;Node7 -->
<g id="edge6_Node000001_Node000007" class="edge">
<title>Node1&#45;&gt;Node7</title>
<g id="a_edge6_Node000001_Node000007"><a xlink:title=" ">
<path fill="none" stroke="#63b8ff" d="M407.81,-120.8C420.21,-110.62 436.9,-96.93 449.63,-86.48"/>
<polygon fill="#63b8ff" stroke="#63b8ff" points="452.21,-88.89 457.72,-79.84 447.77,-83.48 452.21,-88.89"/>
</a>
</g>
</g>
<!-- Node8 -->
<g id="Node000008" class="node">
<title>Node8</title>
<g id="a_Node000008"><a xlink:href="../../d1/d37/demangle_8hpp.html" target="_top" xlink:title="Returns a human&#45;readable representation of provided type name.">
<polygon fill="white" stroke="#666666" points="887.5,-79.5 715.5,-79.5 715.5,-60.5 887.5,-60.5 887.5,-79.5"/>
<text text-anchor="middle" x="801.5" y="-67.5" font-family="Helvetica,sans-Serif" font-size="10.00">userver/compiler/demangle.hpp</text>
</a>
</g>
</g>
<!-- Node1&#45;&gt;Node8 -->
<g id="edge7_Node000001_Node000008" class="edge">
<title>Node1&#45;&gt;Node8</title>
<g id="a_edge7_Node000001_Node000008"><a xlink:title=" ">
<path fill="none" stroke="#63b8ff" d="M459.29,-124.29C536.44,-112.27 660.65,-92.93 736.3,-81.15"/>
<polygon fill="#63b8ff" stroke="#63b8ff" points="737.3,-84.54 746.64,-79.54 736.22,-77.62 737.3,-84.54"/>
</a>
</g>
</g>
<!-- Node11 -->
<g id="Node000011" class="node">
<title>Node11</title>
<g id="a_Node000011"><a xlink:href="../../d2/d61/component__base_8hpp_source.html" target="_top" xlink:title=" ">
<polygon fill="white" stroke="#666666" points="697,-85 548,-85 548,-55 697,-55 697,-85"/>
<text text-anchor="start" x="556" y="-73" font-family="Helvetica,sans-Serif" font-size="10.00">userver/components</text>
<text text-anchor="middle" x="622.5" y="-62" font-family="Helvetica,sans-Serif" font-size="10.00">/impl/component_base.hpp</text>
</a>
</g>
</g>
<!-- Node1&#45;&gt;Node11 -->
<g id="edge11_Node000001_Node000011" class="edge">
<title>Node1&#45;&gt;Node11</title>
<g id="a_edge11_Node000001_Node000011"><a xlink:title=" ">
<path fill="none" stroke="#63b8ff" d="M441.41,-120.95C476.92,-111.16 524.46,-98.05 561.92,-87.71"/>
<polygon fill="#63b8ff" stroke="#63b8ff" points="563,-91.05 571.71,-85.01 561.13,-84.3 563,-91.05"/>
</a>
</g>
</g>
<!-- Node12 -->
<g id="Node000012" class="node">
<title>Node12</title>
<g id="a_Node000012"><a xlink:href="../../d8/d03/task__processor__fwd_8hpp.html" target="_top" xlink:title=" ">
<polygon fill="white" stroke="#666666" points="137,-85 0,-85 0,-55 137,-55 137,-85"/>
<text text-anchor="start" x="8" y="-73" font-family="Helvetica,sans-Serif" font-size="10.00">userver/engine/task</text>
<text text-anchor="middle" x="68.5" y="-62" font-family="Helvetica,sans-Serif" font-size="10.00">/task_processor_fwd.hpp</text>
</a>
</g>
</g>
<!-- Node1&#45;&gt;Node12 -->
<g id="edge12_Node000001_Node000012" class="edge">
<title>Node1&#45;&gt;Node12</title>
<g id="a_edge12_Node000001_Node000012"><a xlink:title=" ">
<path fill="none" stroke="#63b8ff" d="M321.82,-121.35C270.63,-111.17 200.64,-97.26 147.19,-86.64"/>
<polygon fill="#63b8ff" stroke="#63b8ff" points="147.57,-83.15 137.08,-84.63 146.2,-90.01 147.57,-83.15"/>
</a>
</g>
</g>
<!-- Node8&#45;&gt;Node5 -->
<g id="edge9_Node000008_Node000005" class="edge">
<title>Node8&#45;&gt;Node5</title>
<g id="a_edge9_Node000008_Node000005"><a xlink:title=" ">
<path fill="none" stroke="#63b8ff" d="M773.58,-60.49C738.5,-49.81 678.43,-31.5 641.52,-20.26"/>
<polygon fill="#63b8ff" stroke="#63b8ff" points="642.35,-16.85 631.77,-17.28 640.31,-23.55 642.35,-16.85"/>
</a>
</g>
</g>
<!-- Node9 -->
<g id="Node000009" class="node">
<title>Node9</title>
<g id="a_Node000009"><a xlink:title=" ">
<polygon fill="#e0e0e0" stroke="#999999" points="788.5,-19 738.5,-19 738.5,0 788.5,0 788.5,-19"/>
<text text-anchor="middle" x="763.5" y="-7" font-family="Helvetica,sans-Serif" font-size="10.00">chrono</text>
</a>
</g>
</g>
<!-- Node8&#45;&gt;Node9 -->
<g id="edge8_Node000008_Node000009" class="edge">
<title>Node8&#45;&gt;Node9</title>
<g id="a_edge8_Node000008_Node000009"><a xlink:title=" ">
<path fill="none" stroke="#63b8ff" d="M795.89,-60.37C790.34,-51.81 781.67,-38.47 774.7,-27.74"/>
<polygon fill="#63b8ff" stroke="#63b8ff" points="777.51,-25.65 769.13,-19.17 771.64,-29.46 777.51,-25.65"/>
</a>
</g>
</g>
<!-- Node10 -->
<g id="Node000010" class="node">
<title>Node10</title>
<g id="a_Node000010"><a xlink:title=" ">
<polygon fill="#e0e0e0" stroke="#999999" points="872,-19 807,-19 807,0 872,0 872,-19"/>
<text text-anchor="middle" x="839.5" y="-7" font-family="Helvetica,sans-Serif" font-size="10.00">typeindex</text>
</a>
</g>
</g>
<!-- Node8&#45;&gt;Node10 -->
<g id="edge10_Node000008_Node000010" class="edge">
<title>Node8&#45;&gt;Node10</title>
<g id="a_edge10_Node000008_Node000010"><a xlink:title=" ">
<path fill="none" stroke="#63b8ff" d="M807.11,-60.37C812.66,-51.81 821.33,-38.47 828.3,-27.74"/>
<polygon fill="#63b8ff" stroke="#63b8ff" points="831.36,-29.46 833.87,-19.17 825.49,-25.65 831.36,-29.46"/>
</a>
</g>
</g>
<!-- Node12&#45;&gt;Node2 -->
<g id="edge13_Node000012_Node000002" class="edge">
<title>Node12&#45;&gt;Node2</title>
<g id="a_edge13_Node000012_Node000002"><a xlink:title=" ">
<path fill="none" stroke="#63b8ff" d="M99.4,-54.99C120.63,-45.36 148.61,-32.67 169.25,-23.31"/>
<polygon fill="#63b8ff" stroke="#63b8ff" points="170.79,-26.46 178.45,-19.14 167.9,-20.08 170.79,-26.46"/>
</a>
</g>
</g>
</g>
</svg>
