<?xml version="1.0" encoding="UTF-8" standalone="no"?>
<!DOCTYPE svg PUBLIC "-//W3C//DTD SVG 1.1//EN"
 "http://www.w3.org/Graphics/SVG/1.1/DTD/svg11.dtd">
<!-- Generated by graphviz version 2.43.0 (0)
 -->
<!-- Title: userver/server/handlers/auth/digest/nonce_cache_settings_component.hpp Pages: 1 -->
<svg width="1284pt" height="401pt"
 viewBox="0.00 0.00 1283.61 401.00" xmlns="http://www.w3.org/2000/svg" xmlns:xlink="http://www.w3.org/1999/xlink">
<g id="graph0" class="graph" transform="scale(1 1) rotate(0) translate(4 397)">
<title>userver/server/handlers/auth/digest/nonce_cache_settings_component.hpp</title>
<!-- Node1 -->
<g id="Node000001" class="node">
<title>Node1</title>
<g id="a_Node000001"><a xlink:title="server::handlers::auth::digest::NonceCacheSettingsComponent">
<polygon fill="#999999" stroke="#666666" points="850,-393 708,-393 708,-352 850,-352 850,-393"/>
<text text-anchor="start" x="716" y="-381" font-family="Helvetica,sans-Serif" font-size="10.00">userver/server/handlers</text>
<text text-anchor="start" x="716" y="-370" font-family="Helvetica,sans-Serif" font-size="10.00">/auth/digest/nonce_cache</text>
<text text-anchor="middle" x="779" y="-359" font-family="Helvetica,sans-Serif" font-size="10.00">_settings_component.hpp</text>
</a>
</g>
</g>
<!-- Node2 -->
<g id="Node000002" class="node">
<title>Node2</title>
<g id="a_Node000002"><a xlink:title=" ">
<polygon fill="#e0e0e0" stroke="#999999" points="679,-156.5 629,-156.5 629,-137.5 679,-137.5 679,-156.5"/>
<text text-anchor="middle" x="654" y="-144.5" font-family="Helvetica,sans-Serif" font-size="10.00">chrono</text>
</a>
</g>
</g>
<!-- Node1&#45;&gt;Node2 -->
<g id="edge1_Node000001_Node000002" class="edge">
<title>Node1&#45;&gt;Node2</title>
<g id="a_edge1_Node000001_Node000002"><a xlink:title=" ">
<path fill="none" stroke="#63b8ff" d="M707.93,-357.23C685.57,-349.03 663.27,-336.16 650,-316 619.44,-269.59 636.57,-199.24 647.34,-166.27"/>
<polygon fill="#63b8ff" stroke="#63b8ff" points="650.72,-167.2 650.67,-156.6 644.1,-164.92 650.72,-167.2"/>
</a>
</g>
</g>
<!-- Node3 -->
<g id="Node000003" class="node">
<title>Node3</title>
<g id="a_Node000003"><a xlink:title=" ">
<polygon fill="#e0e0e0" stroke="#999999" points="375.5,-24.5 322.5,-24.5 322.5,-5.5 375.5,-5.5 375.5,-24.5"/>
<text text-anchor="middle" x="349" y="-12.5" font-family="Helvetica,sans-Serif" font-size="10.00">cstddef</text>
</a>
</g>
</g>
<!-- Node1&#45;&gt;Node3 -->
<g id="edge2_Node000001_Node000003" class="edge">
<title>Node1&#45;&gt;Node3</title>
<g id="a_edge2_Node000001_Node000003"><a xlink:title=" ">
<path fill="none" stroke="#63b8ff" d="M707.8,-365.1C515.5,-346.85 0,-291.24 0,-219.5 0,-219.5 0,-219.5 0,-146 0,-8.01 152.79,-57.55 288,-30 295.94,-28.38 304.42,-26.52 312.46,-24.69"/>
<polygon fill="#63b8ff" stroke="#63b8ff" points="313.38,-28.07 322.34,-22.42 311.81,-21.25 313.38,-28.07"/>
</a>
</g>
</g>
<!-- Node4 -->
<g id="Node000004" class="node">
<title>Node4</title>
<g id="a_Node000004"><a xlink:title=" ">
<polygon fill="#e0e0e0" stroke="#999999" points="809,-90.5 753,-90.5 753,-71.5 809,-71.5 809,-90.5"/>
<text text-anchor="middle" x="781" y="-78.5" font-family="Helvetica,sans-Serif" font-size="10.00">optional</text>
</a>
</g>
</g>
<!-- Node1&#45;&gt;Node4 -->
<g id="edge3_Node000001_Node000004" class="edge">
<title>Node1&#45;&gt;Node4</title>
<g id="a_edge3_Node000001_Node000004"><a xlink:title=" ">
<path fill="none" stroke="#63b8ff" d="M803.81,-351.7C831.05,-328.2 873.15,-286.2 890,-239 911.17,-179.69 841.05,-122.03 803.35,-96.17"/>
<polygon fill="#63b8ff" stroke="#63b8ff" points="805.24,-93.22 794.98,-90.58 801.35,-99.05 805.24,-93.22"/>
</a>
</g>
</g>
<!-- Node5 -->
<g id="Node000005" class="node">
<title>Node5</title>
<g id="a_Node000005"><a xlink:title=" ">
<polygon fill="#e0e0e0" stroke="#999999" points="1096,-90.5 1052,-90.5 1052,-71.5 1096,-71.5 1096,-90.5"/>
<text text-anchor="middle" x="1074" y="-78.5" font-family="Helvetica,sans-Serif" font-size="10.00">string</text>
</a>
</g>
</g>
<!-- Node1&#45;&gt;Node5 -->
<g id="edge4_Node000001_Node000005" class="edge">
<title>Node1&#45;&gt;Node5</title>
<g id="a_edge4_Node000001_Node000005"><a xlink:title=" ">
<path fill="none" stroke="#63b8ff" d="M850.03,-365.8C962.82,-352.42 1179.28,-308.03 1269,-162 1306.74,-100.57 1170.88,-86.31 1106.28,-83"/>
<polygon fill="#63b8ff" stroke="#63b8ff" points="1106.35,-79.5 1096.2,-82.54 1106.03,-86.49 1106.35,-79.5"/>
</a>
</g>
</g>
<!-- Node6 -->
<g id="Node000006" class="node">
<title>Node6</title>
<g id="a_Node000006"><a xlink:href="../../da/d11/loggable__component__base_8hpp.html" target="_top" xlink:title="Contains components::LoggableComponentBase declaration and forward declarations of components::Compon...">
<polygon fill="white" stroke="#666666" points="1104,-239 982,-239 982,-198 1104,-198 1104,-239"/>
<text text-anchor="start" x="990" y="-227" font-family="Helvetica,sans-Serif" font-size="10.00">userver/components</text>
<text text-anchor="start" x="990" y="-216" font-family="Helvetica,sans-Serif" font-size="10.00">/loggable_component</text>
<text text-anchor="middle" x="1043" y="-205" font-family="Helvetica,sans-Serif" font-size="10.00">_base.hpp</text>
</a>
</g>
</g>
<!-- Node1&#45;&gt;Node6 -->
<g id="edge5_Node000001_Node000006" class="edge">
<title>Node1&#45;&gt;Node6</title>
<g id="a_edge5_Node000001_Node000006"><a xlink:title=" ">
<path fill="none" stroke="#63b8ff" d="M842.24,-351.91C868.11,-342.69 897.81,-330.51 923,-316 957.34,-296.22 992.15,-266.99 1015.37,-245.89"/>
<polygon fill="#63b8ff" stroke="#63b8ff" points="1017.79,-248.41 1022.78,-239.07 1013.05,-243.26 1017.79,-248.41"/>
</a>
</g>
</g>
<!-- Node9 -->
<g id="Node000009" class="node">
<title>Node9</title>
<g id="a_Node000009"><a xlink:href="../../d2/d2e/source_8hpp.html" target="_top" xlink:title="A client for easy dynamic config fetching in components.">
<polygon fill="white" stroke="#666666" points="444.5,-233.5 311.5,-233.5 311.5,-203.5 444.5,-203.5 444.5,-233.5"/>
<text text-anchor="start" x="319.5" y="-221.5" font-family="Helvetica,sans-Serif" font-size="10.00">userver/dynamic_config</text>
<text text-anchor="middle" x="378" y="-210.5" font-family="Helvetica,sans-Serif" font-size="10.00">/source.hpp</text>
</a>
</g>
</g>
<!-- Node1&#45;&gt;Node9 -->
<g id="edge9_Node000001_Node000009" class="edge">
<title>Node1&#45;&gt;Node9</title>
<g id="a_edge9_Node000001_Node000009"><a xlink:title=" ">
<path fill="none" stroke="#63b8ff" d="M719.48,-351.96C688.74,-341.65 650.71,-328.57 617,-316 547.77,-290.18 468.41,-257.52 420.8,-237.59"/>
<polygon fill="#63b8ff" stroke="#63b8ff" points="422,-234.3 411.42,-233.66 419.29,-240.75 422,-234.3"/>
</a>
</g>
</g>
<!-- Node27 -->
<g id="Node000027" class="node">
<title>Node27</title>
<g id="a_Node000027"><a xlink:href="../../d3/d9e/digest_2auth__checker__settings__component_8hpp.html" target="_top" xlink:title="server::handlers::auth::digest::AuthCheckerSettingsComponent">
<polygon fill="white" stroke="#666666" points="801,-316 659,-316 659,-275 801,-275 801,-316"/>
<text text-anchor="start" x="667" y="-304" font-family="Helvetica,sans-Serif" font-size="10.00">userver/server/handlers</text>
<text text-anchor="start" x="667" y="-293" font-family="Helvetica,sans-Serif" font-size="10.00">/auth/digest/auth_checker</text>
<text text-anchor="middle" x="730" y="-282" font-family="Helvetica,sans-Serif" font-size="10.00">_settings_component.hpp</text>
</a>
</g>
</g>
<!-- Node1&#45;&gt;Node27 -->
<g id="edge38_Node000001_Node000027" class="edge">
<title>Node1&#45;&gt;Node27</title>
<g id="a_edge38_Node000001_Node000027"><a xlink:title=" ">
<path fill="none" stroke="#63b8ff" d="M766.13,-351.79C760.67,-343.44 754.21,-333.55 748.27,-324.47"/>
<polygon fill="#63b8ff" stroke="#63b8ff" points="751.19,-322.53 742.79,-316.07 745.33,-326.36 751.19,-322.53"/>
</a>
</g>
</g>
<!-- Node28 -->
<g id="Node000028" class="node">
<title>Node28</title>
<g id="a_Node000028"><a xlink:href="../../d3/d2b/digest_2auth__checker__settings_8hpp_source.html" target="_top" xlink:title=" ">
<polygon fill="white" stroke="#666666" points="881,-228 735,-228 735,-209 881,-209 881,-228"/>
<text text-anchor="middle" x="808" y="-216" font-family="Helvetica,sans-Serif" font-size="10.00">auth_checker_settings.hpp</text>
</a>
</g>
</g>
<!-- Node1&#45;&gt;Node28 -->
<g id="edge49_Node000001_Node000028" class="edge">
<title>Node1&#45;&gt;Node28</title>
<g id="a_edge49_Node000001_Node000028"><a xlink:title=" ">
<path fill="none" stroke="#63b8ff" d="M793.29,-351.75C799.76,-341.6 806.69,-328.71 810,-316 816.85,-289.7 814.22,-258 811.37,-238.29"/>
<polygon fill="#63b8ff" stroke="#63b8ff" points="814.79,-237.52 809.74,-228.2 807.88,-238.63 814.79,-237.52"/>
</a>
</g>
</g>
<!-- Node7 -->
<g id="Node000007" class="node">
<title>Node7</title>
<g id="a_Node000007"><a xlink:href="../../d7/d47/component__fwd_8hpp.html" target="_top" xlink:title="Forward declarations for components::ComponentContext and components::ComponentConfig; function compo...">
<polygon fill="white" stroke="#666666" points="1260,-162 1142,-162 1142,-132 1260,-132 1260,-162"/>
<text text-anchor="start" x="1150" y="-150" font-family="Helvetica,sans-Serif" font-size="10.00">userver/components</text>
<text text-anchor="middle" x="1201" y="-139" font-family="Helvetica,sans-Serif" font-size="10.00">/component_fwd.hpp</text>
</a>
</g>
</g>
<!-- Node6&#45;&gt;Node7 -->
<g id="edge6_Node000006_Node000007" class="edge">
<title>Node6&#45;&gt;Node7</title>
<g id="a_edge6_Node000006_Node000007"><a xlink:title=" ">
<path fill="none" stroke="#63b8ff" d="M1087.43,-197.96C1110.11,-187.98 1137.53,-175.92 1159.74,-166.15"/>
<polygon fill="#63b8ff" stroke="#63b8ff" points="1161.17,-169.34 1168.92,-162.11 1158.35,-162.94 1161.17,-169.34"/>
</a>
</g>
</g>
<!-- Node8 -->
<g id="Node000008" class="node">
<title>Node8</title>
<g id="a_Node000008"><a xlink:href="../../d2/d61/component__base_8hpp_source.html" target="_top" xlink:title=" ">
<polygon fill="white" stroke="#666666" points="1123.5,-162 974.5,-162 974.5,-132 1123.5,-132 1123.5,-162"/>
<text text-anchor="start" x="982.5" y="-150" font-family="Helvetica,sans-Serif" font-size="10.00">userver/components</text>
<text text-anchor="middle" x="1049" y="-139" font-family="Helvetica,sans-Serif" font-size="10.00">/impl/component_base.hpp</text>
</a>
</g>
</g>
<!-- Node6&#45;&gt;Node8 -->
<g id="edge8_Node000006_Node000008" class="edge">
<title>Node6&#45;&gt;Node8</title>
<g id="a_edge8_Node000006_Node000008"><a xlink:title=" ">
<path fill="none" stroke="#63b8ff" d="M1044.7,-197.77C1045.4,-189.76 1046.2,-180.42 1046.93,-172.02"/>
<polygon fill="#63b8ff" stroke="#63b8ff" points="1050.41,-172.3 1047.79,-162.04 1043.44,-171.7 1050.41,-172.3"/>
</a>
</g>
</g>
<!-- Node7&#45;&gt;Node5 -->
<g id="edge7_Node000007_Node000005" class="edge">
<title>Node7&#45;&gt;Node5</title>
<g id="a_edge7_Node000007_Node000005"><a xlink:title=" ">
<path fill="none" stroke="#63b8ff" d="M1173.13,-131.95C1151.35,-120.98 1121.3,-105.83 1100.01,-95.11"/>
<polygon fill="#63b8ff" stroke="#63b8ff" points="1101.41,-91.89 1090.9,-90.52 1098.26,-98.14 1101.41,-91.89"/>
</a>
</g>
</g>
<!-- Node10 -->
<g id="Node000010" class="node">
<title>Node10</title>
<g id="a_Node000010"><a xlink:title=" ">
<polygon fill="#e0e0e0" stroke="#999999" points="168.5,-90.5 95.5,-90.5 95.5,-71.5 168.5,-71.5 168.5,-90.5"/>
<text text-anchor="middle" x="132" y="-78.5" font-family="Helvetica,sans-Serif" font-size="10.00">string_view</text>
</a>
</g>
</g>
<!-- Node9&#45;&gt;Node10 -->
<g id="edge10_Node000009_Node000010" class="edge">
<title>Node9&#45;&gt;Node10</title>
<g id="a_edge10_Node000009_Node000010"><a xlink:title=" ">
<path fill="none" stroke="#63b8ff" d="M311.5,-215.72C227.17,-211.89 88.87,-199.86 57,-162 36.42,-137.56 75.06,-110.78 104.12,-95.23"/>
<polygon fill="#63b8ff" stroke="#63b8ff" points="105.84,-98.28 113.13,-90.6 102.63,-92.06 105.84,-98.28"/>
</a>
</g>
</g>
<!-- Node11 -->
<g id="Node000011" class="node">
<title>Node11</title>
<g id="a_Node000011"><a xlink:title=" ">
<polygon fill="#e0e0e0" stroke="#999999" points="453.5,-156.5 412.5,-156.5 412.5,-137.5 453.5,-137.5 453.5,-156.5"/>
<text text-anchor="middle" x="433" y="-144.5" font-family="Helvetica,sans-Serif" font-size="10.00">tuple</text>
</a>
</g>
</g>
<!-- Node9&#45;&gt;Node11 -->
<g id="edge11_Node000009_Node000011" class="edge">
<title>Node9&#45;&gt;Node11</title>
<g id="a_edge11_Node000009_Node000011"><a xlink:title=" ">
<path fill="none" stroke="#63b8ff" d="M389.13,-203.44C397.93,-192.31 410.26,-176.74 419.6,-164.93"/>
<polygon fill="#63b8ff" stroke="#63b8ff" points="422.6,-166.78 426.06,-156.77 417.11,-162.44 422.6,-166.78"/>
</a>
</g>
</g>
<!-- Node12 -->
<g id="Node000012" class="node">
<title>Node12</title>
<g id="a_Node000012"><a xlink:title=" ">
<polygon fill="#e0e0e0" stroke="#999999" points="279.5,-24.5 234.5,-24.5 234.5,-5.5 279.5,-5.5 279.5,-24.5"/>
<text text-anchor="middle" x="257" y="-12.5" font-family="Helvetica,sans-Serif" font-size="10.00">utility</text>
</a>
</g>
</g>
<!-- Node9&#45;&gt;Node12 -->
<g id="edge12_Node000009_Node000012" class="edge">
<title>Node9&#45;&gt;Node12</title>
<g id="a_edge12_Node000009_Node000012"><a xlink:title=" ">
<path fill="none" stroke="#63b8ff" d="M311.41,-205.96C286.24,-198 260.05,-184.59 245,-162 218.88,-122.79 236.84,-63.88 248.77,-34.31"/>
<polygon fill="#63b8ff" stroke="#63b8ff" points="252.11,-35.4 252.8,-24.83 245.67,-32.66 252.11,-35.4"/>
</a>
</g>
</g>
<!-- Node13 -->
<g id="Node000013" class="node">
<title>Node13</title>
<g id="a_Node000013"><a xlink:href="../../d4/de4/async__event__source_8hpp.html" target="_top" xlink:title="The read&#45;only side of an event channel. Events are delivered to listeners in a strict FIFO order,...">
<polygon fill="white" stroke="#666666" points="394,-162 254,-162 254,-132 394,-132 394,-162"/>
<text text-anchor="start" x="262" y="-150" font-family="Helvetica,sans-Serif" font-size="10.00">userver/concurrent</text>
<text text-anchor="middle" x="324" y="-139" font-family="Helvetica,sans-Serif" font-size="10.00">/async_event_source.hpp</text>
</a>
</g>
</g>
<!-- Node9&#45;&gt;Node13 -->
<g id="edge13_Node000009_Node000013" class="edge">
<title>Node9&#45;&gt;Node13</title>
<g id="a_edge13_Node000009_Node000013"><a xlink:title=" ">
<path fill="none" stroke="#63b8ff" d="M367.07,-203.44C359.61,-193.83 349.56,-180.9 341.05,-169.95"/>
<polygon fill="#63b8ff" stroke="#63b8ff" points="343.81,-167.79 334.91,-162.04 338.28,-172.09 343.81,-167.79"/>
</a>
</g>
</g>
<!-- Node16 -->
<g id="Node000016" class="node">
<title>Node16</title>
<g id="a_Node000016"><a xlink:href="../../df/d22/snapshot_8hpp.html" target="_top" xlink:title="The storage for a snapshot of configs.">
<polygon fill="white" stroke="#666666" points="604.5,-162 471.5,-162 471.5,-132 604.5,-132 604.5,-162"/>
<text text-anchor="start" x="479.5" y="-150" font-family="Helvetica,sans-Serif" font-size="10.00">userver/dynamic_config</text>
<text text-anchor="middle" x="538" y="-139" font-family="Helvetica,sans-Serif" font-size="10.00">/snapshot.hpp</text>
</a>
</g>
</g>
<!-- Node9&#45;&gt;Node16 -->
<g id="edge19_Node000009_Node000016" class="edge">
<title>Node9&#45;&gt;Node16</title>
<g id="a_edge19_Node000009_Node000016"><a xlink:title=" ">
<path fill="none" stroke="#63b8ff" d="M410.38,-203.44C435.1,-192.7 469.36,-177.81 496.17,-166.17"/>
<polygon fill="#63b8ff" stroke="#63b8ff" points="497.89,-169.24 505.67,-162.04 495.1,-162.82 497.89,-169.24"/>
</a>
</g>
</g>
<!-- Node26 -->
<g id="Node000026" class="node">
<title>Node26</title>
<g id="a_Node000026"><a xlink:href="../../d2/d54/assert_8hpp.html" target="_top" xlink:title="Assertion macros UASSERT, UASSERT_MSG, UINVARIANT.">
<polygon fill="white" stroke="#666666" points="197.5,-156.5 66.5,-156.5 66.5,-137.5 197.5,-137.5 197.5,-156.5"/>
<text text-anchor="middle" x="132" y="-144.5" font-family="Helvetica,sans-Serif" font-size="10.00">userver/utils/assert.hpp</text>
</a>
</g>
</g>
<!-- Node9&#45;&gt;Node26 -->
<g id="edge36_Node000009_Node000026" class="edge">
<title>Node9&#45;&gt;Node26</title>
<g id="a_edge36_Node000009_Node000026"><a xlink:title=" ">
<path fill="none" stroke="#63b8ff" d="M328.22,-203.44C282.21,-190.44 214.7,-171.37 172.08,-159.32"/>
<polygon fill="#63b8ff" stroke="#63b8ff" points="172.9,-155.92 162.33,-156.57 171,-162.65 172.9,-155.92"/>
</a>
</g>
</g>
<!-- Node13&#45;&gt;Node3 -->
<g id="edge14_Node000013_Node000003" class="edge">
<title>Node13&#45;&gt;Node3</title>
<g id="a_edge14_Node000013_Node000003"><a xlink:title=" ">
<path fill="none" stroke="#63b8ff" d="M337.36,-131.98C345.34,-122.61 354.73,-109.54 359,-96 365.49,-75.41 360.53,-50.6 355.56,-34.12"/>
<polygon fill="#63b8ff" stroke="#63b8ff" points="358.88,-33.01 352.42,-24.62 352.24,-35.22 358.88,-33.01"/>
</a>
</g>
</g>
<!-- Node13&#45;&gt;Node10 -->
<g id="edge16_Node000013_Node000010" class="edge">
<title>Node13&#45;&gt;Node10</title>
<g id="a_edge16_Node000013_Node000010"><a xlink:title=" ">
<path fill="none" stroke="#63b8ff" d="M281.86,-131.95C247.45,-120.48 199.38,-104.46 167.05,-93.68"/>
<polygon fill="#63b8ff" stroke="#63b8ff" points="168.15,-90.36 157.55,-90.52 165.93,-97 168.15,-90.36"/>
</a>
</g>
</g>
<!-- Node13&#45;&gt;Node12 -->
<g id="edge18_Node000013_Node000012" class="edge">
<title>Node13&#45;&gt;Node12</title>
<g id="a_edge18_Node000013_Node000012"><a xlink:title=" ">
<path fill="none" stroke="#63b8ff" d="M306.48,-131.99C296.13,-122.8 283.6,-109.95 276,-96 265.56,-76.85 260.82,-52.07 258.69,-35.2"/>
<polygon fill="#63b8ff" stroke="#63b8ff" points="262.13,-34.52 257.59,-24.95 255.17,-35.26 262.13,-34.52"/>
</a>
</g>
</g>
<!-- Node14 -->
<g id="Node000014" class="node">
<title>Node14</title>
<g id="a_Node000014"><a xlink:title=" ">
<polygon fill="#e0e0e0" stroke="#999999" points="350.5,-90.5 285.5,-90.5 285.5,-71.5 350.5,-71.5 350.5,-90.5"/>
<text text-anchor="middle" x="318" y="-78.5" font-family="Helvetica,sans-Serif" font-size="10.00">functional</text>
</a>
</g>
</g>
<!-- Node13&#45;&gt;Node14 -->
<g id="edge15_Node000013_Node000014" class="edge">
<title>Node13&#45;&gt;Node14</title>
<g id="a_edge15_Node000013_Node000014"><a xlink:title=" ">
<path fill="none" stroke="#63b8ff" d="M322.67,-131.8C321.82,-122.7 320.7,-110.79 319.77,-100.9"/>
<polygon fill="#63b8ff" stroke="#63b8ff" points="323.25,-100.47 318.83,-90.84 316.28,-101.13 323.25,-100.47"/>
</a>
</g>
</g>
<!-- Node15 -->
<g id="Node000015" class="node">
<title>Node15</title>
<g id="a_Node000015"><a xlink:title=" ">
<polygon fill="#e0e0e0" stroke="#999999" points="592.5,-24.5 535.5,-24.5 535.5,-5.5 592.5,-5.5 592.5,-24.5"/>
<text text-anchor="middle" x="564" y="-12.5" font-family="Helvetica,sans-Serif" font-size="10.00">typeinfo</text>
</a>
</g>
</g>
<!-- Node13&#45;&gt;Node15 -->
<g id="edge17_Node000013_Node000015" class="edge">
<title>Node13&#45;&gt;Node15</title>
<g id="a_edge17_Node000013_Node000015"><a xlink:title=" ">
<path fill="none" stroke="#63b8ff" d="M394.24,-133.32C440.42,-123.92 495.74,-110.3 515,-96 536.1,-80.34 550.06,-52.64 557.51,-34.3"/>
<polygon fill="#63b8ff" stroke="#63b8ff" points="560.86,-35.34 561.14,-24.75 554.32,-32.85 560.86,-35.34"/>
</a>
</g>
</g>
<!-- Node16&#45;&gt;Node4 -->
<g id="edge20_Node000016_Node000004" class="edge">
<title>Node16&#45;&gt;Node4</title>
<g id="a_edge20_Node000016_Node000004"><a xlink:title=" ">
<path fill="none" stroke="#63b8ff" d="M603.6,-132C644.09,-122.87 696.92,-110.06 743,-96 745.13,-95.35 747.32,-94.65 749.51,-93.91"/>
<polygon fill="#63b8ff" stroke="#63b8ff" points="750.76,-97.18 759.04,-90.57 748.45,-90.58 750.76,-97.18"/>
</a>
</g>
</g>
<!-- Node17 -->
<g id="Node000017" class="node">
<title>Node17</title>
<g id="a_Node000017"><a xlink:title=" ">
<polygon fill="#e0e0e0" stroke="#999999" points="517.5,-24.5 448.5,-24.5 448.5,-5.5 517.5,-5.5 517.5,-24.5"/>
<text text-anchor="middle" x="483" y="-12.5" font-family="Helvetica,sans-Serif" font-size="10.00">type_traits</text>
</a>
</g>
</g>
<!-- Node16&#45;&gt;Node17 -->
<g id="edge21_Node000016_Node000017" class="edge">
<title>Node16&#45;&gt;Node17</title>
<g id="a_edge21_Node000016_Node000017"><a xlink:title=" ">
<path fill="none" stroke="#63b8ff" d="M535.26,-131.98C531.78,-115.66 525,-88.12 515,-66 509.78,-54.45 502.19,-42.46 495.71,-33.11"/>
<polygon fill="#63b8ff" stroke="#63b8ff" points="498.4,-30.86 489.73,-24.76 492.71,-34.93 498.4,-30.86"/>
</a>
</g>
</g>
<!-- Node18 -->
<g id="Node000018" class="node">
<title>Node18</title>
<g id="a_Node000018"><a xlink:href="../../d8/d20/impl_2snapshot_8hpp_source.html" target="_top" xlink:title=" ">
<polygon fill="white" stroke="#666666" points="734.5,-96 601.5,-96 601.5,-66 734.5,-66 734.5,-96"/>
<text text-anchor="start" x="609.5" y="-84" font-family="Helvetica,sans-Serif" font-size="10.00">userver/dynamic_config</text>
<text text-anchor="middle" x="668" y="-73" font-family="Helvetica,sans-Serif" font-size="10.00">/impl/snapshot.hpp</text>
</a>
</g>
</g>
<!-- Node16&#45;&gt;Node18 -->
<g id="edge22_Node000016_Node000018" class="edge">
<title>Node16&#45;&gt;Node18</title>
<g id="a_edge22_Node000016_Node000018"><a xlink:title=" ">
<path fill="none" stroke="#63b8ff" d="M566.53,-131.95C585.33,-122.7 610.14,-110.49 630.52,-100.45"/>
<polygon fill="#63b8ff" stroke="#63b8ff" points="632.11,-103.57 639.54,-96.01 629.02,-97.29 632.11,-103.57"/>
</a>
</g>
</g>
<!-- Node24 -->
<g id="Node000024" class="node">
<title>Node24</title>
<g id="a_Node000024"><a xlink:href="../../d5/d02/fast__pimpl_8hpp.html" target="_top" xlink:title="Implements pimpl idiom without dynamic memory allocation.">
<polygon fill="white" stroke="#666666" points="506.5,-96 407.5,-96 407.5,-66 506.5,-66 506.5,-96"/>
<text text-anchor="start" x="415.5" y="-84" font-family="Helvetica,sans-Serif" font-size="10.00">userver/utils/fast</text>
<text text-anchor="middle" x="457" y="-73" font-family="Helvetica,sans-Serif" font-size="10.00">_pimpl.hpp</text>
</a>
</g>
</g>
<!-- Node16&#45;&gt;Node24 -->
<g id="edge31_Node000016_Node000024" class="edge">
<title>Node16&#45;&gt;Node24</title>
<g id="a_edge31_Node000016_Node000024"><a xlink:title=" ">
<path fill="none" stroke="#63b8ff" d="M520.02,-131.8C509.12,-123.18 495.02,-112.04 482.92,-102.48"/>
<polygon fill="#63b8ff" stroke="#63b8ff" points="484.94,-99.62 474.93,-96.16 480.6,-105.11 484.94,-99.62"/>
</a>
</g>
</g>
<!-- Node18&#45;&gt;Node3 -->
<g id="edge24_Node000018_Node000003" class="edge">
<title>Node18&#45;&gt;Node3</title>
<g id="a_edge24_Node000018_Node000003"><a xlink:title=" ">
<path fill="none" stroke="#63b8ff" d="M601.42,-72.23C543.3,-64.51 457.07,-50.8 384,-30 382.06,-29.45 380.09,-28.83 378.11,-28.16"/>
<polygon fill="#63b8ff" stroke="#63b8ff" points="378.97,-24.75 368.37,-24.57 376.55,-31.32 378.97,-24.75"/>
</a>
</g>
</g>
<!-- Node18&#45;&gt;Node15 -->
<g id="edge28_Node000018_Node000015" class="edge">
<title>Node18&#45;&gt;Node15</title>
<g id="a_edge28_Node000018_Node000015"><a xlink:title=" ">
<path fill="none" stroke="#63b8ff" d="M645.18,-65.95C627.82,-55.27 604.06,-40.65 586.73,-29.98"/>
<polygon fill="#63b8ff" stroke="#63b8ff" points="588.19,-26.78 577.84,-24.52 584.52,-32.74 588.19,-26.78"/>
</a>
</g>
</g>
<!-- Node18&#45;&gt;Node17 -->
<g id="edge26_Node000018_Node000017" class="edge">
<title>Node18&#45;&gt;Node17</title>
<g id="a_edge26_Node000018_Node000017"><a xlink:title=" ">
<path fill="none" stroke="#63b8ff" d="M627.4,-65.95C594.39,-54.53 548.33,-38.6 517.18,-27.82"/>
<polygon fill="#63b8ff" stroke="#63b8ff" points="518.22,-24.48 507.62,-24.52 515.93,-31.09 518.22,-24.48"/>
</a>
</g>
</g>
<!-- Node19 -->
<g id="Node000019" class="node">
<title>Node19</title>
<g id="a_Node000019"><a xlink:title=" ">
<polygon fill="#e0e0e0" stroke="#999999" points="796.5,-24.5 761.5,-24.5 761.5,-5.5 796.5,-5.5 796.5,-24.5"/>
<text text-anchor="middle" x="779" y="-12.5" font-family="Helvetica,sans-Serif" font-size="10.00">any</text>
</a>
</g>
</g>
<!-- Node18&#45;&gt;Node19 -->
<g id="edge23_Node000018_Node000019" class="edge">
<title>Node18&#45;&gt;Node19</title>
<g id="a_edge23_Node000018_Node000019"><a xlink:title=" ">
<path fill="none" stroke="#63b8ff" d="M692.36,-65.95C711.14,-55.13 736.95,-40.24 755.51,-29.54"/>
<polygon fill="#63b8ff" stroke="#63b8ff" points="757.31,-32.54 764.23,-24.52 753.82,-26.48 757.31,-32.54"/>
</a>
</g>
</g>
<!-- Node20 -->
<g id="Node000020" class="node">
<title>Node20</title>
<g id="a_Node000020"><a xlink:title=" ">
<polygon fill="#e0e0e0" stroke="#999999" points="879.5,-24.5 814.5,-24.5 814.5,-5.5 879.5,-5.5 879.5,-24.5"/>
<text text-anchor="middle" x="847" y="-12.5" font-family="Helvetica,sans-Serif" font-size="10.00">exception</text>
</a>
</g>
</g>
<!-- Node18&#45;&gt;Node20 -->
<g id="edge25_Node000018_Node000020" class="edge">
<title>Node18&#45;&gt;Node20</title>
<g id="a_edge25_Node000018_Node000020"><a xlink:title=" ">
<path fill="none" stroke="#63b8ff" d="M707.28,-65.95C739.09,-54.58 783.41,-38.74 813.54,-27.96"/>
<polygon fill="#63b8ff" stroke="#63b8ff" points="814.94,-31.18 823.18,-24.52 812.58,-24.59 814.94,-31.18"/>
</a>
</g>
</g>
<!-- Node21 -->
<g id="Node000021" class="node">
<title>Node21</title>
<g id="a_Node000021"><a xlink:title=" ">
<polygon fill="#e0e0e0" stroke="#999999" points="962.5,-24.5 897.5,-24.5 897.5,-5.5 962.5,-5.5 962.5,-24.5"/>
<text text-anchor="middle" x="930" y="-12.5" font-family="Helvetica,sans-Serif" font-size="10.00">typeindex</text>
</a>
</g>
</g>
<!-- Node18&#45;&gt;Node21 -->
<g id="edge27_Node000018_Node000021" class="edge">
<title>Node18&#45;&gt;Node21</title>
<g id="a_edge27_Node000018_Node000021"><a xlink:title=" ">
<path fill="none" stroke="#63b8ff" d="M734.86,-66.59C778.68,-57.36 837.08,-44.24 888,-30 890.62,-29.27 893.31,-28.47 896.01,-27.64"/>
<polygon fill="#63b8ff" stroke="#63b8ff" points="897.23,-30.93 905.7,-24.55 895.1,-24.26 897.23,-30.93"/>
</a>
</g>
</g>
<!-- Node22 -->
<g id="Node000022" class="node">
<title>Node22</title>
<g id="a_Node000022"><a xlink:title=" ">
<polygon fill="#e0e0e0" stroke="#999999" points="1027.5,-24.5 980.5,-24.5 980.5,-5.5 1027.5,-5.5 1027.5,-24.5"/>
<text text-anchor="middle" x="1004" y="-12.5" font-family="Helvetica,sans-Serif" font-size="10.00">vector</text>
</a>
</g>
</g>
<!-- Node18&#45;&gt;Node22 -->
<g id="edge29_Node000018_Node000022" class="edge">
<title>Node18&#45;&gt;Node22</title>
<g id="a_edge29_Node000018_Node000022"><a xlink:title=" ">
<path fill="none" stroke="#63b8ff" d="M734.71,-67.61C737.85,-67.06 740.96,-66.52 744,-66 844.68,-48.75 872.81,-58.16 971,-30 972.88,-29.46 974.8,-28.84 976.72,-28.17"/>
<polygon fill="#63b8ff" stroke="#63b8ff" points="978.08,-31.4 986.13,-24.52 975.54,-24.87 978.08,-31.4"/>
</a>
</g>
</g>
<!-- Node23 -->
<g id="Node000023" class="node">
<title>Node23</title>
<g id="a_Node000023"><a xlink:href="../../df/d7e/core_2include_2userver_2dynamic__config_2fwd_8hpp.html" target="_top" xlink:title="Forward declarations of dynamic_config classes.">
<polygon fill="white" stroke="#666666" points="743.5,-30 610.5,-30 610.5,0 743.5,0 743.5,-30"/>
<text text-anchor="start" x="618.5" y="-18" font-family="Helvetica,sans-Serif" font-size="10.00">userver/dynamic_config</text>
<text text-anchor="middle" x="677" y="-7" font-family="Helvetica,sans-Serif" font-size="10.00">/fwd.hpp</text>
</a>
</g>
</g>
<!-- Node18&#45;&gt;Node23 -->
<g id="edge30_Node000018_Node000023" class="edge">
<title>Node18&#45;&gt;Node23</title>
<g id="a_edge30_Node000018_Node000023"><a xlink:title=" ">
<path fill="none" stroke="#63b8ff" d="M670,-65.8C671.06,-58.26 672.39,-48.78 673.61,-40.13"/>
<polygon fill="#63b8ff" stroke="#63b8ff" points="677.08,-40.55 675.01,-30.16 670.15,-39.58 677.08,-40.55"/>
</a>
</g>
</g>
<!-- Node24&#45;&gt;Node3 -->
<g id="edge32_Node000024_Node000003" class="edge">
<title>Node24&#45;&gt;Node3</title>
<g id="a_edge32_Node000024_Node000003"><a xlink:title=" ">
<path fill="none" stroke="#63b8ff" d="M433.3,-65.95C415.11,-55.18 390.14,-40.38 372.1,-29.69"/>
<polygon fill="#63b8ff" stroke="#63b8ff" points="373.76,-26.6 363.37,-24.52 370.19,-32.63 373.76,-26.6"/>
</a>
</g>
</g>
<!-- Node24&#45;&gt;Node12 -->
<g id="edge35_Node000024_Node000012" class="edge">
<title>Node24&#45;&gt;Node12</title>
<g id="a_edge35_Node000024_Node000012"><a xlink:title=" ">
<path fill="none" stroke="#63b8ff" d="M413.11,-65.95C375.8,-54.02 323.09,-37.15 289.48,-26.39"/>
<polygon fill="#63b8ff" stroke="#63b8ff" points="290.29,-22.98 279.7,-23.26 288.16,-29.65 290.29,-22.98"/>
</a>
</g>
</g>
<!-- Node24&#45;&gt;Node17 -->
<g id="edge34_Node000024_Node000017" class="edge">
<title>Node24&#45;&gt;Node17</title>
<g id="a_edge34_Node000024_Node000017"><a xlink:title=" ">
<path fill="none" stroke="#63b8ff" d="M462.77,-65.8C466.55,-56.5 471.51,-44.27 475.58,-34.26"/>
<polygon fill="#63b8ff" stroke="#63b8ff" points="478.89,-35.43 479.41,-24.84 472.4,-32.79 478.89,-35.43"/>
</a>
</g>
</g>
<!-- Node25 -->
<g id="Node000025" class="node">
<title>Node25</title>
<g id="a_Node000025"><a xlink:title=" ">
<polygon fill="#e0e0e0" stroke="#999999" points="430.5,-24.5 393.5,-24.5 393.5,-5.5 430.5,-5.5 430.5,-24.5"/>
<text text-anchor="middle" x="412" y="-12.5" font-family="Helvetica,sans-Serif" font-size="10.00">new</text>
</a>
</g>
</g>
<!-- Node24&#45;&gt;Node25 -->
<g id="edge33_Node000024_Node000025" class="edge">
<title>Node24&#45;&gt;Node25</title>
<g id="a_edge33_Node000024_Node000025"><a xlink:title=" ">
<path fill="none" stroke="#63b8ff" d="M447.01,-65.8C440.27,-56.21 431.34,-43.5 424.18,-33.32"/>
<polygon fill="#63b8ff" stroke="#63b8ff" points="426.83,-31.01 418.22,-24.84 421.11,-35.04 426.83,-31.01"/>
</a>
</g>
</g>
<!-- Node26&#45;&gt;Node10 -->
<g id="edge37_Node000026_Node000010" class="edge">
<title>Node26&#45;&gt;Node10</title>
<g id="a_edge37_Node000026_Node000010"><a xlink:title=" ">
<path fill="none" stroke="#63b8ff" d="M132,-137.37C132,-128.16 132,-113.29 132,-101.27"/>
<polygon fill="#63b8ff" stroke="#63b8ff" points="135.5,-100.91 132,-90.91 128.5,-100.91 135.5,-100.91"/>
</a>
</g>
</g>
<!-- Node27&#45;&gt;Node2 -->
<g id="edge39_Node000027_Node000002" class="edge">
<title>Node27&#45;&gt;Node2</title>
<g id="a_edge39_Node000027_Node000002"><a xlink:title=" ">
<path fill="none" stroke="#63b8ff" d="M715.55,-274.75C708.31,-264.39 699.67,-251.32 693,-239 679.8,-214.63 667.75,-184.86 660.65,-166.15"/>
<polygon fill="#63b8ff" stroke="#63b8ff" points="663.92,-164.92 657.15,-156.78 657.37,-167.37 663.92,-164.92"/>
</a>
</g>
</g>
<!-- Node27&#45;&gt;Node4 -->
<g id="edge40_Node000027_Node000004" class="edge">
<title>Node27&#45;&gt;Node4</title>
<g id="a_edge40_Node000027_Node000004"><a xlink:title=" ">
<path fill="none" stroke="#63b8ff" d="M726.19,-274.64C723.11,-254.94 720.15,-224.01 726,-198 734.44,-160.5 756.47,-120.87 769.95,-99.01"/>
<polygon fill="#63b8ff" stroke="#63b8ff" points="772.92,-100.86 775.3,-90.54 767,-97.12 772.92,-100.86"/>
</a>
</g>
</g>
<!-- Node27&#45;&gt;Node5 -->
<g id="edge41_Node000027_Node000005" class="edge">
<title>Node27&#45;&gt;Node5</title>
<g id="a_edge41_Node000027_Node000005"><a xlink:title=" ">
<path fill="none" stroke="#63b8ff" d="M801.12,-279.99C830.65,-271.5 864.01,-258.49 890,-239 936.66,-204 921.14,-169.28 966,-132 988.56,-113.25 1019.32,-99.92 1042.24,-91.76"/>
<polygon fill="#63b8ff" stroke="#63b8ff" points="1043.52,-95.02 1051.85,-88.48 1041.26,-88.4 1043.52,-95.02"/>
</a>
</g>
</g>
<!-- Node27&#45;&gt;Node6 -->
<g id="edge42_Node000027_Node000006" class="edge">
<title>Node27&#45;&gt;Node6</title>
<g id="a_edge42_Node000027_Node000006"><a xlink:title=" ">
<path fill="none" stroke="#63b8ff" d="M801.02,-277.48C852.09,-265.24 920.67,-248.81 971.78,-236.56"/>
<polygon fill="#63b8ff" stroke="#63b8ff" points="972.85,-239.91 981.76,-234.17 971.22,-233.1 972.85,-239.91"/>
</a>
</g>
</g>
<!-- Node27&#45;&gt;Node9 -->
<g id="edge43_Node000027_Node000009" class="edge">
<title>Node27&#45;&gt;Node9</title>
<g id="a_edge43_Node000027_Node000009"><a xlink:title=" ">
<path fill="none" stroke="#63b8ff" d="M658.77,-279.32C599.2,-266.63 514.47,-248.58 453.7,-235.63"/>
<polygon fill="#63b8ff" stroke="#63b8ff" points="454.29,-232.18 443.78,-233.51 452.83,-239.02 454.29,-232.18"/>
</a>
</g>
</g>
<!-- Node27&#45;&gt;Node28 -->
<g id="edge44_Node000027_Node000028" class="edge">
<title>Node27&#45;&gt;Node28</title>
<g id="a_edge44_Node000027_Node000028"><a xlink:title=" ">
<path fill="none" stroke="#63b8ff" d="M750.49,-274.79C763.26,-262.52 779.46,-246.94 791.41,-235.45"/>
<polygon fill="#63b8ff" stroke="#63b8ff" points="794.13,-237.69 798.91,-228.24 789.28,-232.64 794.13,-237.69"/>
</a>
</g>
</g>
<!-- Node28&#45;&gt;Node2 -->
<g id="edge45_Node000028_Node000002" class="edge">
<title>Node28&#45;&gt;Node2</title>
<g id="a_edge45_Node000028_Node000002"><a xlink:title=" ">
<path fill="none" stroke="#63b8ff" d="M789.12,-208.98C762.45,-196.94 713.54,-174.87 682.45,-160.84"/>
<polygon fill="#63b8ff" stroke="#63b8ff" points="683.59,-157.52 673.04,-156.59 680.71,-163.9 683.59,-157.52"/>
</a>
</g>
</g>
<!-- Node28&#45;&gt;Node4 -->
<g id="edge46_Node000028_Node000004" class="edge">
<title>Node28&#45;&gt;Node4</title>
<g id="a_edge46_Node000028_Node000004"><a xlink:title=" ">
<path fill="none" stroke="#63b8ff" d="M806.23,-208.61C801.88,-186.79 790.61,-130.21 784.71,-100.63"/>
<polygon fill="#63b8ff" stroke="#63b8ff" points="788.13,-99.87 782.74,-90.75 781.26,-101.24 788.13,-99.87"/>
</a>
</g>
</g>
<!-- Node28&#45;&gt;Node5 -->
<g id="edge47_Node000028_Node000005" class="edge">
<title>Node28&#45;&gt;Node5</title>
<g id="a_edge47_Node000028_Node000005"><a xlink:title=" ">
<path fill="none" stroke="#63b8ff" d="M818.44,-208.95C839.19,-192.3 887.53,-155.12 933,-132 968.83,-113.78 1012.87,-99.32 1042.09,-90.73"/>
<polygon fill="#63b8ff" stroke="#63b8ff" points="1043.14,-94.07 1051.78,-87.94 1041.2,-87.34 1043.14,-94.07"/>
</a>
</g>
</g>
<!-- Node28&#45;&gt;Node22 -->
<g id="edge48_Node000028_Node000022" class="edge">
<title>Node28&#45;&gt;Node22</title>
<g id="a_edge48_Node000028_Node000022"><a xlink:title=" ">
<path fill="none" stroke="#63b8ff" d="M814.51,-208.94C826.61,-193.19 853.67,-158.77 879,-132 915.04,-93.91 961.05,-53 985.98,-31.41"/>
<polygon fill="#63b8ff" stroke="#63b8ff" points="988.57,-33.79 993.86,-24.61 984,-28.49 988.57,-33.79"/>
</a>
</g>
</g>
</g>
</svg>
