<?xml version="1.0" encoding="UTF-8" standalone="no"?>
<!DOCTYPE svg PUBLIC "-//W3C//DTD SVG 1.1//EN"
 "http://www.w3.org/Graphics/SVG/1.1/DTD/svg11.dtd">
<!-- Generated by graphviz version 2.43.0 (0)
 -->
<!-- Title: userver/formats/bson/types.hpp Pages: 1 -->
<svg width="1419pt" height="698pt"
 viewBox="0.00 0.00 1419.16 698.00" xmlns="http://www.w3.org/2000/svg" xmlns:xlink="http://www.w3.org/1999/xlink">
<g id="graph0" class="graph" transform="scale(1 1) rotate(0) translate(4 694)">
<title>userver/formats/bson/types.hpp</title>
<!-- Node1 -->
<g id="Node000001" class="node">
<title>Node1</title>
<g id="a_Node000001"><a xlink:title="BSON&#45;specific types.">
<polygon fill="#999999" stroke="#666666" points="360.16,-690 239.16,-690 239.16,-660 360.16,-660 360.16,-690"/>
<text text-anchor="start" x="247.16" y="-678" font-family="Helvetica,sans-Serif" font-size="10.00">userver/formats/bson</text>
<text text-anchor="middle" x="299.66" y="-667" font-family="Helvetica,sans-Serif" font-size="10.00">/types.hpp</text>
</a>
</g>
</g>
<!-- Node2 -->
<g id="Node000002" class="node">
<title>Node2</title>
<g id="a_Node000002"><a xlink:href="../../d3/d9f/bson_8hpp.html" target="_top" xlink:title="Include&#45;all header for BSON support.">
<polygon fill="white" stroke="#666666" points="288.66,-354.5 146.66,-354.5 146.66,-335.5 288.66,-335.5 288.66,-354.5"/>
<text text-anchor="middle" x="217.66" y="-342.5" font-family="Helvetica,sans-Serif" font-size="10.00">userver/formats/bson.hpp</text>
</a>
</g>
</g>
<!-- Node1&#45;&gt;Node2 -->
<g id="edge1_Node000001_Node000002" class="edge">
<title>Node1&#45;&gt;Node2</title>
<g id="a_edge1_Node000001_Node000002"><a xlink:title=" ">
<path fill="none" stroke="#63b8ff" d="M228.78,-672.84C140.64,-667.21 1.66,-642.68 1.66,-544 1.66,-544 1.66,-544 1.66,-476 1.66,-439.46 -4.98,-422.04 20.66,-396 39.54,-376.83 105.83,-362.76 156.35,-354.51"/>
<polygon fill="#63b8ff" stroke="#63b8ff" points="228.81,-676.35 239,-673.43 229.21,-669.36 228.81,-676.35"/>
</a>
</g>
</g>
<!-- Node3 -->
<g id="Node000003" class="node">
<title>Node3</title>
<g id="a_Node000003"><a xlink:href="../../db/d2e/binary_8hpp.html" target="_top" xlink:title="Binary representation helpers.">
<polygon fill="white" stroke="#666666" points="367.16,-426 246.16,-426 246.16,-396 367.16,-396 367.16,-426"/>
<text text-anchor="start" x="254.16" y="-414" font-family="Helvetica,sans-Serif" font-size="10.00">userver/formats/bson</text>
<text text-anchor="middle" x="306.66" y="-403" font-family="Helvetica,sans-Serif" font-size="10.00">/binary.hpp</text>
</a>
</g>
</g>
<!-- Node1&#45;&gt;Node3 -->
<g id="edge2_Node000001_Node000003" class="edge">
<title>Node1&#45;&gt;Node3</title>
<g id="a_edge2_Node000001_Node000003"><a xlink:title=" ">
<path fill="none" stroke="#63b8ff" d="M300.11,-649.64C300.85,-610.21 302.5,-529.97 304.66,-462 305.05,-449.84 305.61,-436.03 306.04,-426.01"/>
<polygon fill="#63b8ff" stroke="#63b8ff" points="296.6,-649.79 299.91,-659.86 303.6,-649.92 296.6,-649.79"/>
</a>
</g>
</g>
<!-- Node4 -->
<g id="Node000004" class="node">
<title>Node4</title>
<g id="a_Node000004"><a xlink:href="../../d9/d03/bson__builder_8hpp.html" target="_top" xlink:title="Internal helpers for inline document build.">
<polygon fill="white" stroke="#666666" points="506.16,-492 385.16,-492 385.16,-462 506.16,-462 506.16,-492"/>
<text text-anchor="start" x="393.16" y="-480" font-family="Helvetica,sans-Serif" font-size="10.00">userver/formats/bson</text>
<text text-anchor="middle" x="445.66" y="-469" font-family="Helvetica,sans-Serif" font-size="10.00">/bson_builder.hpp</text>
</a>
</g>
</g>
<!-- Node1&#45;&gt;Node4 -->
<g id="edge4_Node000001_Node000004" class="edge">
<title>Node1&#45;&gt;Node4</title>
<g id="a_edge4_Node000001_Node000004"><a xlink:title=" ">
<path fill="none" stroke="#63b8ff" d="M316.26,-651.71C346.54,-611.07 409.92,-525.98 435.06,-492.23"/>
<polygon fill="#63b8ff" stroke="#63b8ff" points="313.33,-649.79 310.16,-659.9 318.94,-653.98 313.33,-649.79"/>
</a>
</g>
</g>
<!-- Node5 -->
<g id="Node000005" class="node">
<title>Node5</title>
<g id="a_Node000005"><a xlink:href="../../d1/d71/mongo_2include_2userver_2formats_2bson_2inline_8hpp.html" target="_top" xlink:title="Inline value builders.">
<polygon fill="white" stroke="#666666" points="506.16,-426 385.16,-426 385.16,-396 506.16,-396 506.16,-426"/>
<text text-anchor="start" x="393.16" y="-414" font-family="Helvetica,sans-Serif" font-size="10.00">userver/formats/bson</text>
<text text-anchor="middle" x="445.66" y="-403" font-family="Helvetica,sans-Serif" font-size="10.00">/inline.hpp</text>
</a>
</g>
</g>
<!-- Node1&#45;&gt;Node5 -->
<g id="edge48_Node000001_Node000005" class="edge">
<title>Node1&#45;&gt;Node5</title>
<g id="a_edge48_Node000001_Node000005"><a xlink:title=" ">
<path fill="none" stroke="#63b8ff" d="M301.91,-649.67C306.9,-607.47 322.23,-519.69 366.66,-462 378.64,-446.44 396.95,-434.42 412.92,-426.07"/>
<polygon fill="#63b8ff" stroke="#63b8ff" points="298.4,-649.52 300.8,-659.84 305.36,-650.28 298.4,-649.52"/>
</a>
</g>
</g>
<!-- Node18 -->
<g id="Node000018" class="node">
<title>Node18</title>
<g id="a_Node000018"><a xlink:href="../../dd/d39/document_8hpp.html" target="_top" xlink:title="BSON document.">
<polygon fill="white" stroke="#666666" points="785.16,-492 664.16,-492 664.16,-462 785.16,-462 785.16,-492"/>
<text text-anchor="start" x="672.16" y="-480" font-family="Helvetica,sans-Serif" font-size="10.00">userver/formats/bson</text>
<text text-anchor="middle" x="724.66" y="-469" font-family="Helvetica,sans-Serif" font-size="10.00">/document.hpp</text>
</a>
</g>
</g>
<!-- Node1&#45;&gt;Node18 -->
<g id="edge29_Node000001_Node000018" class="edge">
<title>Node1&#45;&gt;Node18</title>
<g id="a_edge29_Node000001_Node000018"><a xlink:title=" ">
<path fill="none" stroke="#63b8ff" d="M356.49,-656.76C383.82,-647.91 416.83,-636.39 445.66,-624 543.09,-582.11 653.08,-519.87 700.64,-492.17"/>
<polygon fill="#63b8ff" stroke="#63b8ff" points="355.16,-653.52 346.7,-659.9 357.29,-660.18 355.16,-653.52"/>
</a>
</g>
</g>
<!-- Node20 -->
<g id="Node000020" class="node">
<title>Node20</title>
<g id="a_Node000020"><a xlink:href="../../dc/d8c/mongo_2include_2userver_2formats_2bson_2value__builder_8hpp.html" target="_top" xlink:title="Builder for BSON.">
<polygon fill="white" stroke="#666666" points="151.16,-426 30.16,-426 30.16,-396 151.16,-396 151.16,-426"/>
<text text-anchor="start" x="38.16" y="-414" font-family="Helvetica,sans-Serif" font-size="10.00">userver/formats/bson</text>
<text text-anchor="middle" x="90.66" y="-403" font-family="Helvetica,sans-Serif" font-size="10.00">/value_builder.hpp</text>
</a>
</g>
</g>
<!-- Node1&#45;&gt;Node20 -->
<g id="edge64_Node000001_Node000020" class="edge">
<title>Node1&#45;&gt;Node20</title>
<g id="a_edge64_Node000001_Node000020"><a xlink:title=" ">
<path fill="none" stroke="#63b8ff" d="M228.89,-663.13C183.63,-654.67 130.68,-641.42 115.66,-624 65.69,-566.03 80.07,-463.64 87.5,-426.21"/>
<polygon fill="#63b8ff" stroke="#63b8ff" points="228.55,-666.63 239.01,-664.97 229.8,-659.74 228.55,-666.63"/>
</a>
</g>
</g>
<!-- Node23 -->
<g id="Node000023" class="node">
<title>Node23</title>
<g id="a_Node000023"><a xlink:href="../../d5/d90/mongo_2include_2userver_2formats_2bson_2iterator_8hpp.html" target="_top" xlink:title="Iterator for BSON values.">
<polygon fill="white" stroke="#666666" points="246.16,-624 125.16,-624 125.16,-594 246.16,-594 246.16,-624"/>
<text text-anchor="start" x="133.16" y="-612" font-family="Helvetica,sans-Serif" font-size="10.00">userver/formats/bson</text>
<text text-anchor="middle" x="185.66" y="-601" font-family="Helvetica,sans-Serif" font-size="10.00">/iterator.hpp</text>
</a>
</g>
</g>
<!-- Node1&#45;&gt;Node23 -->
<g id="edge49_Node000001_Node000023" class="edge">
<title>Node1&#45;&gt;Node23</title>
<g id="a_edge49_Node000001_Node000023"><a xlink:title=" ">
<path fill="none" stroke="#63b8ff" d="M265.76,-654.97C248.06,-645.03 226.79,-633.09 210.62,-624.01"/>
<polygon fill="#63b8ff" stroke="#63b8ff" points="264.21,-658.11 274.64,-659.95 267.64,-652.01 264.21,-658.11"/>
</a>
</g>
</g>
<!-- Node24 -->
<g id="Node000024" class="node">
<title>Node24</title>
<g id="a_Node000024"><a xlink:href="../../d5/d70/mongo_2include_2userver_2formats_2bson_2value_8hpp.html" target="_top" xlink:title="Non&#45;mutable BSON value representation.">
<polygon fill="white" stroke="#666666" points="550.16,-558 429.16,-558 429.16,-528 550.16,-528 550.16,-558"/>
<text text-anchor="start" x="437.16" y="-546" font-family="Helvetica,sans-Serif" font-size="10.00">userver/formats/bson</text>
<text text-anchor="middle" x="489.66" y="-535" font-family="Helvetica,sans-Serif" font-size="10.00">/value.hpp</text>
</a>
</g>
</g>
<!-- Node1&#45;&gt;Node24 -->
<g id="edge63_Node000001_Node000024" class="edge">
<title>Node1&#45;&gt;Node24</title>
<g id="a_edge63_Node000001_Node000024"><a xlink:title=" ">
<path fill="none" stroke="#63b8ff" d="M352.55,-656.25C372.95,-648.1 395.84,-637.26 414.66,-624 441.43,-605.14 466.08,-575.51 479.38,-558.09"/>
<polygon fill="#63b8ff" stroke="#63b8ff" points="351.14,-653.05 343.08,-659.92 353.67,-659.57 351.14,-653.05"/>
</a>
</g>
</g>
<!-- Node3&#45;&gt;Node2 -->
<g id="edge3_Node000003_Node000002" class="edge">
<title>Node3&#45;&gt;Node2</title>
<g id="a_edge3_Node000003_Node000002"><a xlink:title=" ">
<path fill="none" stroke="#63b8ff" d="M278.67,-389.87C262.2,-378.03 242.2,-363.65 229.7,-354.66"/>
<polygon fill="#63b8ff" stroke="#63b8ff" points="276.75,-392.8 286.91,-395.8 280.83,-387.12 276.75,-392.8"/>
</a>
</g>
</g>
<!-- Node4&#45;&gt;Node5 -->
<g id="edge5_Node000004_Node000005" class="edge">
<title>Node4&#45;&gt;Node5</title>
<g id="a_edge5_Node000004_Node000005"><a xlink:title=" ">
<path fill="none" stroke="#63b8ff" d="M445.66,-451.54C445.66,-442.96 445.66,-433.61 445.66,-426.16"/>
<polygon fill="#63b8ff" stroke="#63b8ff" points="442.16,-451.8 445.66,-461.8 449.16,-451.8 442.16,-451.8"/>
</a>
</g>
</g>
<!-- Node7 -->
<g id="Node000007" class="node">
<title>Node7</title>
<g id="a_Node000007"><a xlink:href="../../d2/d54/mongo_2include_2userver_2storages_2mongo_2options_8hpp.html" target="_top" xlink:title="Query options.">
<polygon fill="white" stroke="#666666" points="990.16,-426 855.16,-426 855.16,-396 990.16,-396 990.16,-426"/>
<text text-anchor="start" x="863.16" y="-414" font-family="Helvetica,sans-Serif" font-size="10.00">userver/storages/mongo</text>
<text text-anchor="middle" x="922.66" y="-403" font-family="Helvetica,sans-Serif" font-size="10.00">/options.hpp</text>
</a>
</g>
</g>
<!-- Node4&#45;&gt;Node7 -->
<g id="edge8_Node000004_Node000007" class="edge">
<title>Node4&#45;&gt;Node7</title>
<g id="a_edge8_Node000004_Node000007"><a xlink:title=" ">
<path fill="none" stroke="#63b8ff" d="M516.53,-466.49C607.74,-454.25 765.11,-433.14 854.82,-421.1"/>
<polygon fill="#63b8ff" stroke="#63b8ff" points="516,-463.03 506.56,-467.83 516.93,-469.97 516,-463.03"/>
</a>
</g>
</g>
<!-- Node5&#45;&gt;Node2 -->
<g id="edge7_Node000005_Node000002" class="edge">
<title>Node5&#45;&gt;Node2</title>
<g id="a_edge7_Node000005_Node000002"><a xlink:title=" ">
<path fill="none" stroke="#63b8ff" d="M385.84,-393.21C341.55,-380.78 283.05,-364.35 248,-354.52"/>
<polygon fill="#63b8ff" stroke="#63b8ff" points="385.05,-396.62 395.62,-395.95 386.94,-389.88 385.05,-396.62"/>
</a>
</g>
</g>
<!-- Node6 -->
<g id="Node000006" class="node">
<title>Node6</title>
<g id="a_Node000006"><a xlink:href="../../dd/d6c/base__mongo__cache_8hpp.html" target="_top" xlink:title="Base class for all caches polling mongo collection">
<polygon fill="white" stroke="#666666" points="665.16,-162 554.16,-162 554.16,-132 665.16,-132 665.16,-162"/>
<text text-anchor="start" x="562.16" y="-150" font-family="Helvetica,sans-Serif" font-size="10.00">userver/cache/base</text>
<text text-anchor="middle" x="609.66" y="-139" font-family="Helvetica,sans-Serif" font-size="10.00">_mongo_cache.hpp</text>
</a>
</g>
</g>
<!-- Node5&#45;&gt;Node6 -->
<g id="edge6_Node000005_Node000006" class="edge">
<title>Node5&#45;&gt;Node6</title>
<g id="a_edge6_Node000005_Node000006"><a xlink:title=" ">
<path fill="none" stroke="#63b8ff" d="M459.88,-387.28C492.88,-334.57 573.88,-205.16 600.8,-162.16"/>
<polygon fill="#63b8ff" stroke="#63b8ff" points="456.82,-385.58 454.48,-395.91 462.75,-389.29 456.82,-385.58"/>
</a>
</g>
</g>
<!-- Node7&#45;&gt;Node6 -->
<g id="edge9_Node000007_Node000006" class="edge">
<title>Node7&#45;&gt;Node6</title>
<g id="a_edge9_Node000007_Node000006"><a xlink:title=" ">
<path fill="none" stroke="#63b8ff" d="M898.66,-389.41C854.16,-351.32 755.73,-267.39 671.66,-198 656.84,-185.76 639.83,-172.08 627.38,-162.12"/>
<polygon fill="#63b8ff" stroke="#63b8ff" points="896.45,-392.13 906.32,-395.98 901,-386.82 896.45,-392.13"/>
</a>
</g>
</g>
<!-- Node8 -->
<g id="Node000008" class="node">
<title>Node8</title>
<g id="a_Node000008"><a xlink:href="../../d2/d86/mongo_8hpp.html" target="_top" xlink:title="Include&#45;all header for MongoDB client.">
<polygon fill="white" stroke="#666666" points="1184.66,-90.5 1028.66,-90.5 1028.66,-71.5 1184.66,-71.5 1184.66,-90.5"/>
<text text-anchor="middle" x="1106.66" y="-78.5" font-family="Helvetica,sans-Serif" font-size="10.00">userver/storages/mongo.hpp</text>
</a>
</g>
</g>
<!-- Node7&#45;&gt;Node8 -->
<g id="edge10_Node000007_Node000008" class="edge">
<title>Node7&#45;&gt;Node8</title>
<g id="a_edge10_Node000007_Node000008"><a xlink:title=" ">
<path fill="none" stroke="#63b8ff" d="M914.58,-386.08C905.6,-354.62 895.64,-299.24 922.66,-264 960.18,-215.06 1011.61,-270.11 1056.66,-228 1097.76,-189.58 1105.08,-115.95 1106.38,-90.73"/>
<polygon fill="#63b8ff" stroke="#63b8ff" points="911.27,-387.22 917.54,-395.76 917.97,-385.18 911.27,-387.22"/>
</a>
</g>
</g>
<!-- Node9 -->
<g id="Node000009" class="node">
<title>Node9</title>
<g id="a_Node000009"><a xlink:href="../../d5/d0f/bulk_8hpp.html" target="_top" xlink:title="Bulk collection operation model.">
<polygon fill="white" stroke="#666666" points="1066.16,-294 931.16,-294 931.16,-264 1066.16,-264 1066.16,-294"/>
<text text-anchor="start" x="939.16" y="-282" font-family="Helvetica,sans-Serif" font-size="10.00">userver/storages/mongo</text>
<text text-anchor="middle" x="998.66" y="-271" font-family="Helvetica,sans-Serif" font-size="10.00">/bulk.hpp</text>
</a>
</g>
</g>
<!-- Node7&#45;&gt;Node9 -->
<g id="edge11_Node000007_Node000009" class="edge">
<title>Node7&#45;&gt;Node9</title>
<g id="a_edge11_Node000007_Node000009"><a xlink:title=" ">
<path fill="none" stroke="#63b8ff" d="M932.24,-386.63C939.28,-370.31 949.54,-348.27 960.66,-330 968.37,-317.33 978.61,-304.01 986.52,-294.31"/>
<polygon fill="#63b8ff" stroke="#63b8ff" points="928.96,-385.39 928.28,-395.96 935.41,-388.12 928.96,-385.39"/>
</a>
</g>
</g>
<!-- Node16 -->
<g id="Node000016" class="node">
<title>Node16</title>
<g id="a_Node000016"><a xlink:href="../../d3/df1/bulk__ops_8hpp.html" target="_top" xlink:title="Bulk sub&#45;operation models.">
<polygon fill="white" stroke="#666666" points="1104.16,-360 969.16,-360 969.16,-330 1104.16,-330 1104.16,-360"/>
<text text-anchor="start" x="977.16" y="-348" font-family="Helvetica,sans-Serif" font-size="10.00">userver/storages/mongo</text>
<text text-anchor="middle" x="1036.66" y="-337" font-family="Helvetica,sans-Serif" font-size="10.00">/bulk_ops.hpp</text>
</a>
</g>
</g>
<!-- Node7&#45;&gt;Node16 -->
<g id="edge24_Node000007_Node000016" class="edge">
<title>Node7&#45;&gt;Node16</title>
<g id="a_edge24_Node000007_Node000016"><a xlink:title=" ">
<path fill="none" stroke="#63b8ff" d="M956.56,-390.97C974.26,-381.03 995.53,-369.09 1011.7,-360.01"/>
<polygon fill="#63b8ff" stroke="#63b8ff" points="954.68,-388.01 947.68,-395.95 958.11,-394.11 954.68,-388.01"/>
</a>
</g>
</g>
<!-- Node17 -->
<g id="Node000017" class="node">
<title>Node17</title>
<g id="a_Node000017"><a xlink:href="../../de/d6b/mongo_2include_2userver_2storages_2mongo_2operations_8hpp.html" target="_top" xlink:title="Collection operation models.">
<polygon fill="white" stroke="#666666" points="798.16,-360 663.16,-360 663.16,-330 798.16,-330 798.16,-360"/>
<text text-anchor="start" x="671.16" y="-348" font-family="Helvetica,sans-Serif" font-size="10.00">userver/storages/mongo</text>
<text text-anchor="middle" x="730.66" y="-337" font-family="Helvetica,sans-Serif" font-size="10.00">/operations.hpp</text>
</a>
</g>
</g>
<!-- Node7&#45;&gt;Node17 -->
<g id="edge26_Node000007_Node000017" class="edge">
<title>Node7&#45;&gt;Node17</title>
<g id="a_edge26_Node000007_Node000017"><a xlink:title=" ">
<path fill="none" stroke="#63b8ff" d="M870.83,-392.72C840.07,-382.47 801.56,-369.63 772.7,-360.01"/>
<polygon fill="#63b8ff" stroke="#63b8ff" points="869.93,-396.11 880.53,-395.95 872.15,-389.47 869.93,-396.11"/>
</a>
</g>
</g>
<!-- Node9&#45;&gt;Node8 -->
<g id="edge12_Node000009_Node000008" class="edge">
<title>Node9&#45;&gt;Node8</title>
<g id="a_edge12_Node000009_Node000008"><a xlink:title=" ">
<path fill="none" stroke="#63b8ff" d="M1052.29,-259.23C1066.6,-251.69 1080.58,-241.5 1089.66,-228 1119.29,-183.96 1111.99,-115.1 1108.22,-90.83"/>
<polygon fill="#63b8ff" stroke="#63b8ff" points="1050.35,-256.29 1042.9,-263.82 1053.42,-262.58 1050.35,-256.29"/>
</a>
</g>
</g>
<!-- Node10 -->
<g id="Node000010" class="node">
<title>Node10</title>
<g id="a_Node000010"><a xlink:href="../../d4/db6/collection_8hpp.html" target="_top" xlink:title="MongoDB collection handle, the main way to operate with MongoDB.">
<polygon fill="white" stroke="#666666" points="1047.16,-228 912.16,-228 912.16,-198 1047.16,-198 1047.16,-228"/>
<text text-anchor="start" x="920.16" y="-216" font-family="Helvetica,sans-Serif" font-size="10.00">userver/storages/mongo</text>
<text text-anchor="middle" x="979.66" y="-205" font-family="Helvetica,sans-Serif" font-size="10.00">/collection.hpp</text>
</a>
</g>
</g>
<!-- Node9&#45;&gt;Node10 -->
<g id="edge13_Node000009_Node000010" class="edge">
<title>Node9&#45;&gt;Node10</title>
<g id="a_edge13_Node000009_Node000010"><a xlink:title=" ">
<path fill="none" stroke="#63b8ff" d="M991.57,-254.11C988.98,-245.38 986.13,-235.78 983.87,-228.16"/>
<polygon fill="#63b8ff" stroke="#63b8ff" points="988.24,-255.21 994.44,-263.8 994.95,-253.21 988.24,-255.21"/>
</a>
</g>
</g>
<!-- Node10&#45;&gt;Node6 -->
<g id="edge14_Node000010_Node000006" class="edge">
<title>Node10&#45;&gt;Node6</title>
<g id="a_edge14_Node000010_Node000006"><a xlink:title=" ">
<path fill="none" stroke="#63b8ff" d="M901.93,-200.47C839.96,-191 751.04,-176.77 673.66,-162 670.98,-161.49 668.24,-160.95 665.47,-160.39"/>
<polygon fill="#63b8ff" stroke="#63b8ff" points="901.61,-203.96 912.02,-202.01 902.66,-197.04 901.61,-203.96"/>
</a>
</g>
</g>
<!-- Node10&#45;&gt;Node8 -->
<g id="edge15_Node000010_Node000008" class="edge">
<title>Node10&#45;&gt;Node8</title>
<g id="a_edge15_Node000010_Node000008"><a xlink:title=" ">
<path fill="none" stroke="#63b8ff" d="M1000.56,-190.61C1028.92,-161.58 1078.33,-111 1098.11,-90.75"/>
<polygon fill="#63b8ff" stroke="#63b8ff" points="997.98,-188.24 993.49,-197.84 1002.99,-193.13 997.98,-188.24"/>
</a>
</g>
</g>
<!-- Node11 -->
<g id="Node000011" class="node">
<title>Node11</title>
<g id="a_Node000011"><a xlink:href="../../d5/d93/mongo_2include_2userver_2storages_2mongo_2dist__lock__component__base_8hpp.html" target="_top" xlink:title="Base class for mongo&#45;based distlock worker components.">
<polygon fill="white" stroke="#666666" points="997.16,-96 824.16,-96 824.16,-66 997.16,-66 997.16,-96"/>
<text text-anchor="start" x="832.16" y="-84" font-family="Helvetica,sans-Serif" font-size="10.00">userver/storages/mongo</text>
<text text-anchor="middle" x="910.66" y="-73" font-family="Helvetica,sans-Serif" font-size="10.00">/dist_lock_component_base.hpp</text>
</a>
</g>
</g>
<!-- Node10&#45;&gt;Node11 -->
<g id="edge16_Node000010_Node000011" class="edge">
<title>Node10&#45;&gt;Node11</title>
<g id="a_edge16_Node000010_Node000011"><a xlink:title=" ">
<path fill="none" stroke="#63b8ff" d="M985.65,-187.77C988.45,-171.16 989.47,-149.12 980.66,-132 972.53,-116.2 956.83,-104.28 942.36,-96.06"/>
<polygon fill="#63b8ff" stroke="#63b8ff" points="982.18,-187.3 983.65,-197.79 989.04,-188.67 982.18,-187.3"/>
</a>
</g>
</g>
<!-- Node12 -->
<g id="Node000012" class="node">
<title>Node12</title>
<g id="a_Node000012"><a xlink:href="../../d6/d83/mongo_2include_2userver_2storages_2mongo_2dist__lock__strategy_8hpp_source.html" target="_top" xlink:title=" ">
<polygon fill="white" stroke="#666666" points="971.16,-162 836.16,-162 836.16,-132 971.16,-132 971.16,-162"/>
<text text-anchor="start" x="844.16" y="-150" font-family="Helvetica,sans-Serif" font-size="10.00">userver/storages/mongo</text>
<text text-anchor="middle" x="903.66" y="-139" font-family="Helvetica,sans-Serif" font-size="10.00">/dist_lock_strategy.hpp</text>
</a>
</g>
</g>
<!-- Node10&#45;&gt;Node12 -->
<g id="edge17_Node000010_Node000012" class="edge">
<title>Node10&#45;&gt;Node12</title>
<g id="a_edge17_Node000010_Node000012"><a xlink:title=" ">
<path fill="none" stroke="#63b8ff" d="M954.96,-191.2C943.68,-181.7 930.61,-170.69 920.48,-162.16"/>
<polygon fill="#63b8ff" stroke="#63b8ff" points="952.89,-194.03 962.79,-197.8 957.4,-188.68 952.89,-194.03"/>
</a>
</g>
</g>
<!-- Node13 -->
<g id="Node000013" class="node">
<title>Node13</title>
<g id="a_Node000013"><a xlink:href="../../d8/d62/mongo_2include_2userver_2storages_2mongo_2pool_8hpp.html" target="_top" xlink:title="MongoDB client pool.">
<polygon fill="white" stroke="#666666" points="818.16,-162 683.16,-162 683.16,-132 818.16,-132 818.16,-162"/>
<text text-anchor="start" x="691.16" y="-150" font-family="Helvetica,sans-Serif" font-size="10.00">userver/storages/mongo</text>
<text text-anchor="middle" x="750.66" y="-139" font-family="Helvetica,sans-Serif" font-size="10.00">/pool.hpp</text>
</a>
</g>
</g>
<!-- Node10&#45;&gt;Node13 -->
<g id="edge19_Node000010_Node000013" class="edge">
<title>Node10&#45;&gt;Node13</title>
<g id="a_edge19_Node000010_Node000013"><a xlink:title=" ">
<path fill="none" stroke="#63b8ff" d="M919.74,-195.25C882.74,-184.91 835.82,-171.8 800.8,-162.01"/>
<polygon fill="#63b8ff" stroke="#63b8ff" points="918.83,-198.63 929.41,-197.95 920.72,-191.89 918.83,-198.63"/>
</a>
</g>
</g>
<!-- Node12&#45;&gt;Node11 -->
<g id="edge18_Node000012_Node000011" class="edge">
<title>Node12&#45;&gt;Node11</title>
<g id="a_edge18_Node000012_Node000011"><a xlink:title=" ">
<path fill="none" stroke="#63b8ff" d="M906.3,-121.83C907.25,-113.17 908.29,-103.7 909.11,-96.16"/>
<polygon fill="#63b8ff" stroke="#63b8ff" points="902.82,-121.48 905.21,-131.8 909.78,-122.24 902.82,-121.48"/>
</a>
</g>
</g>
<!-- Node13&#45;&gt;Node8 -->
<g id="edge20_Node000013_Node000008" class="edge">
<title>Node13&#45;&gt;Node8</title>
<g id="a_edge20_Node000013_Node000008"><a xlink:title=" ">
<path fill="none" stroke="#63b8ff" d="M828.35,-131.88C915.73,-116.11 1005.25,-100.1 1058.77,-90.55"/>
<polygon fill="#63b8ff" stroke="#63b8ff" points="827.48,-128.48 818.26,-133.7 828.73,-135.37 827.48,-128.48"/>
</a>
</g>
</g>
<!-- Node14 -->
<g id="Node000014" class="node">
<title>Node14</title>
<g id="a_Node000014"><a xlink:href="../../d1/dd7/mongo_2include_2userver_2storages_2mongo_2component_8hpp.html" target="_top" xlink:title="MongoDB client component.">
<polygon fill="white" stroke="#666666" points="792.16,-30 657.16,-30 657.16,0 792.16,0 792.16,-30"/>
<text text-anchor="start" x="665.16" y="-18" font-family="Helvetica,sans-Serif" font-size="10.00">userver/storages/mongo</text>
<text text-anchor="middle" x="724.66" y="-7" font-family="Helvetica,sans-Serif" font-size="10.00">/component.hpp</text>
</a>
</g>
</g>
<!-- Node13&#45;&gt;Node14 -->
<g id="edge21_Node000013_Node000014" class="edge">
<title>Node13&#45;&gt;Node14</title>
<g id="a_edge21_Node000013_Node000014"><a xlink:title=" ">
<path fill="none" stroke="#63b8ff" d="M755.27,-121.67C757.42,-105.59 758.56,-84.21 753.66,-66 750.17,-53.01 742.39,-39.92 735.76,-30.4"/>
<polygon fill="#63b8ff" stroke="#63b8ff" points="751.77,-121.42 753.68,-131.84 758.68,-122.5 751.77,-121.42"/>
</a>
</g>
</g>
<!-- Node15 -->
<g id="Node000015" class="node">
<title>Node15</title>
<g id="a_Node000015"><a xlink:href="../../d2/de5/multi__mongo_8hpp_source.html" target="_top" xlink:title=" ">
<polygon fill="white" stroke="#666666" points="744.16,-96 609.16,-96 609.16,-66 744.16,-66 744.16,-96"/>
<text text-anchor="start" x="617.16" y="-84" font-family="Helvetica,sans-Serif" font-size="10.00">userver/storages/mongo</text>
<text text-anchor="middle" x="676.66" y="-73" font-family="Helvetica,sans-Serif" font-size="10.00">/multi_mongo.hpp</text>
</a>
</g>
</g>
<!-- Node13&#45;&gt;Node15 -->
<g id="edge22_Node000013_Node000015" class="edge">
<title>Node13&#45;&gt;Node15</title>
<g id="a_edge22_Node000013_Node000015"><a xlink:title=" ">
<path fill="none" stroke="#63b8ff" d="M726.61,-125.2C715.63,-115.7 702.9,-104.69 693.04,-96.16"/>
<polygon fill="#63b8ff" stroke="#63b8ff" points="724.38,-127.9 734.24,-131.8 728.96,-122.61 724.38,-127.9"/>
</a>
</g>
</g>
<!-- Node15&#45;&gt;Node14 -->
<g id="edge23_Node000015_Node000014" class="edge">
<title>Node15&#45;&gt;Node14</title>
<g id="a_edge23_Node000015_Node000014"><a xlink:title=" ">
<path fill="none" stroke="#63b8ff" d="M693.52,-57.53C700.34,-48.43 708.01,-38.19 714.04,-30.16"/>
<polygon fill="#63b8ff" stroke="#63b8ff" points="690.51,-55.7 687.31,-65.8 696.11,-59.9 690.51,-55.7"/>
</a>
</g>
</g>
<!-- Node16&#45;&gt;Node9 -->
<g id="edge25_Node000016_Node000009" class="edge">
<title>Node16&#45;&gt;Node9</title>
<g id="a_edge25_Node000016_Node000009"><a xlink:title=" ">
<path fill="none" stroke="#63b8ff" d="M1022.98,-320.96C1017.66,-312 1011.74,-302.03 1007.07,-294.16"/>
<polygon fill="#63b8ff" stroke="#63b8ff" points="1020.11,-322.98 1028.23,-329.8 1026.13,-319.41 1020.11,-322.98"/>
</a>
</g>
</g>
<!-- Node17&#45;&gt;Node6 -->
<g id="edge27_Node000017_Node000006" class="edge">
<title>Node17&#45;&gt;Node6</title>
<g id="a_edge27_Node000017_Node000006"><a xlink:title=" ">
<path fill="none" stroke="#63b8ff" d="M719.05,-320.86C704.01,-291.53 676.44,-239.75 648.66,-198 640.24,-185.35 629.57,-171.81 621.52,-162.01"/>
<polygon fill="#63b8ff" stroke="#63b8ff" points="715.99,-322.57 723.65,-329.9 722.23,-319.4 715.99,-322.57"/>
</a>
</g>
</g>
<!-- Node17&#45;&gt;Node10 -->
<g id="edge28_Node000017_Node000010" class="edge">
<title>Node17&#45;&gt;Node10</title>
<g id="a_edge28_Node000017_Node000010"><a xlink:title=" ">
<path fill="none" stroke="#63b8ff" d="M747.96,-322C763.21,-304.01 786.95,-279.14 812.66,-264 843.05,-246.12 880.36,-234.15 912.01,-226.43"/>
<polygon fill="#63b8ff" stroke="#63b8ff" points="745.25,-319.79 741.58,-329.73 750.65,-324.25 745.25,-319.79"/>
</a>
</g>
</g>
<!-- Node18&#45;&gt;Node2 -->
<g id="edge31_Node000018_Node000002" class="edge">
<title>Node18&#45;&gt;Node2</title>
<g id="a_edge31_Node000018_Node000002"><a xlink:title=" ">
<path fill="none" stroke="#63b8ff" d="M721.68,-451.79C718.07,-433.44 710.11,-409.2 692.66,-396 661.16,-372.18 413.51,-356.12 288.85,-349.47"/>
<polygon fill="#63b8ff" stroke="#63b8ff" points="718.25,-452.5 723.35,-461.78 725.16,-451.34 718.25,-452.5"/>
</a>
</g>
</g>
<!-- Node18&#45;&gt;Node3 -->
<g id="edge32_Node000018_Node000003" class="edge">
<title>Node18&#45;&gt;Node3</title>
<g id="a_edge32_Node000018_Node000003"><a xlink:title=" ">
<path fill="none" stroke="#63b8ff" d="M653.85,-467.08C583.2,-457.89 471.66,-442.6 375.66,-426 372.89,-425.52 370.06,-425.01 367.21,-424.49"/>
<polygon fill="#63b8ff" stroke="#63b8ff" points="653.6,-470.57 663.97,-468.39 654.5,-463.63 653.6,-470.57"/>
</a>
</g>
</g>
<!-- Node18&#45;&gt;Node5 -->
<g id="edge33_Node000018_Node000005" class="edge">
<title>Node18&#45;&gt;Node5</title>
<g id="a_edge33_Node000018_Node000005"><a xlink:title=" ">
<path fill="none" stroke="#63b8ff" d="M654.32,-459.87C608.79,-449.42 550.1,-435.96 506.56,-425.97"/>
<polygon fill="#63b8ff" stroke="#63b8ff" points="653.59,-463.29 664.12,-462.11 655.16,-456.47 653.59,-463.29"/>
</a>
</g>
</g>
<!-- Node18&#45;&gt;Node6 -->
<g id="edge30_Node000018_Node000006" class="edge">
<title>Node18&#45;&gt;Node6</title>
<g id="a_edge30_Node000018_Node000006"><a xlink:title=" ">
<path fill="none" stroke="#63b8ff" d="M728.18,-451.51C729.33,-434.62 728.2,-412.34 717.66,-396 699.97,-368.57 672.93,-386.34 653.66,-360 608.06,-297.65 607.31,-198.79 608.8,-162.22"/>
<polygon fill="#63b8ff" stroke="#63b8ff" points="724.67,-451.43 727.17,-461.72 731.64,-452.12 724.67,-451.43"/>
</a>
</g>
</g>
<!-- Node18&#45;&gt;Node7 -->
<g id="edge44_Node000018_Node000007" class="edge">
<title>Node18&#45;&gt;Node7</title>
<g id="a_edge44_Node000018_Node000007"><a xlink:title=" ">
<path fill="none" stroke="#63b8ff" d="M777.7,-458.86C809.49,-448.58 849.41,-435.68 879.31,-426.01"/>
<polygon fill="#63b8ff" stroke="#63b8ff" points="776.55,-455.55 768.11,-461.95 778.7,-462.21 776.55,-455.55"/>
</a>
</g>
</g>
<!-- Node18&#45;&gt;Node10 -->
<g id="edge39_Node000018_Node000010" class="edge">
<title>Node18&#45;&gt;Node10</title>
<g id="a_edge39_Node000018_Node000010"><a xlink:title=" ">
<path fill="none" stroke="#63b8ff" d="M750.12,-455.15C759.86,-446.6 770.76,-436.3 779.66,-426 836.4,-360.34 824.6,-322.55 888.66,-264 905.16,-248.92 927.03,-236.72 945.19,-228.14"/>
<polygon fill="#63b8ff" stroke="#63b8ff" points="747.58,-452.71 742.27,-461.88 752.14,-458.02 747.58,-452.71"/>
</a>
</g>
</g>
<!-- Node18&#45;&gt;Node16 -->
<g id="edge38_Node000018_Node000016" class="edge">
<title>Node18&#45;&gt;Node16</title>
<g id="a_edge38_Node000018_Node000016"><a xlink:title=" ">
<path fill="none" stroke="#63b8ff" d="M795.43,-470.52C866.07,-463.78 968.48,-450.13 999.66,-426 1020.84,-409.61 1030.35,-378.24 1034.25,-360.04"/>
<polygon fill="#63b8ff" stroke="#63b8ff" points="794.88,-467.06 785.25,-471.47 795.53,-474.03 794.88,-467.06"/>
</a>
</g>
</g>
<!-- Node18&#45;&gt;Node17 -->
<g id="edge43_Node000018_Node000017" class="edge">
<title>Node18&#45;&gt;Node17</title>
<g id="a_edge43_Node000018_Node000017"><a xlink:title=" ">
<path fill="none" stroke="#63b8ff" d="M747.23,-454.37C754.21,-446.22 761.02,-436.38 764.66,-426 769.07,-413.42 768.58,-408.74 764.66,-396 760.52,-382.56 751.4,-369.49 743.65,-360.08"/>
<polygon fill="#63b8ff" stroke="#63b8ff" points="744.49,-452.18 740.3,-461.92 749.64,-456.91 744.49,-452.18"/>
</a>
</g>
</g>
<!-- Node19 -->
<g id="Node000019" class="node">
<title>Node19</title>
<g id="a_Node000019"><a xlink:href="../../d6/de5/mongo_2include_2userver_2formats_2bson_2serialize_8hpp.html" target="_top" xlink:title="Textual serialization helpers.">
<polygon fill="white" stroke="#666666" points="684.16,-426 563.16,-426 563.16,-396 684.16,-396 684.16,-426"/>
<text text-anchor="start" x="571.16" y="-414" font-family="Helvetica,sans-Serif" font-size="10.00">userver/formats/bson</text>
<text text-anchor="middle" x="623.66" y="-403" font-family="Helvetica,sans-Serif" font-size="10.00">/serialize.hpp</text>
</a>
</g>
</g>
<!-- Node18&#45;&gt;Node19 -->
<g id="edge34_Node000018_Node000019" class="edge">
<title>Node18&#45;&gt;Node19</title>
<g id="a_edge34_Node000018_Node000019"><a xlink:title=" ">
<path fill="none" stroke="#63b8ff" d="M693.57,-456.3C678.2,-446.56 659.99,-435.02 646.01,-426.16"/>
<polygon fill="#63b8ff" stroke="#63b8ff" points="691.92,-459.4 702.25,-461.8 695.67,-453.49 691.92,-459.4"/>
</a>
</g>
</g>
<!-- Node18&#45;&gt;Node20 -->
<g id="edge35_Node000018_Node000020" class="edge">
<title>Node18&#45;&gt;Node20</title>
<g id="a_edge35_Node000018_Node000020"><a xlink:title=" ">
<path fill="none" stroke="#63b8ff" d="M653.9,-468.86C528.45,-456.19 269.18,-430.02 151.33,-418.12"/>
<polygon fill="#63b8ff" stroke="#63b8ff" points="653.86,-472.37 664.16,-469.89 654.56,-465.41 653.86,-472.37"/>
</a>
</g>
</g>
<!-- Node21 -->
<g id="Node000021" class="node">
<title>Node21</title>
<g id="a_Node000021"><a xlink:href="../../d7/dfb/cursor_8hpp.html" target="_top" xlink:title="Interface for MongoDB query cursors.">
<polygon fill="white" stroke="#666666" points="1411.16,-294 1276.16,-294 1276.16,-264 1411.16,-264 1411.16,-294"/>
<text text-anchor="start" x="1284.16" y="-282" font-family="Helvetica,sans-Serif" font-size="10.00">userver/storages/mongo</text>
<text text-anchor="middle" x="1343.66" y="-271" font-family="Helvetica,sans-Serif" font-size="10.00">/cursor.hpp</text>
</a>
</g>
</g>
<!-- Node18&#45;&gt;Node21 -->
<g id="edge40_Node000018_Node000021" class="edge">
<title>Node18&#45;&gt;Node21</title>
<g id="a_edge40_Node000018_Node000021"><a xlink:title=" ">
<path fill="none" stroke="#63b8ff" d="M795.43,-472.44C865.12,-467.35 973.85,-455.12 1063.66,-426 1166.66,-392.61 1277.39,-323.84 1322.61,-294.16"/>
<polygon fill="#63b8ff" stroke="#63b8ff" points="795.17,-468.95 785.44,-473.14 795.66,-475.93 795.17,-468.95"/>
</a>
</g>
</g>
<!-- Node22 -->
<g id="Node000022" class="node">
<title>Node22</title>
<g id="a_Node000022"><a xlink:href="../../d7/d6e/write__result_8hpp_source.html" target="_top" xlink:title=" ">
<polygon fill="white" stroke="#666666" points="1258.16,-294 1123.16,-294 1123.16,-264 1258.16,-264 1258.16,-294"/>
<text text-anchor="start" x="1131.16" y="-282" font-family="Helvetica,sans-Serif" font-size="10.00">userver/storages/mongo</text>
<text text-anchor="middle" x="1190.66" y="-271" font-family="Helvetica,sans-Serif" font-size="10.00">/write_result.hpp</text>
</a>
</g>
</g>
<!-- Node18&#45;&gt;Node22 -->
<g id="edge45_Node000018_Node000022" class="edge">
<title>Node18&#45;&gt;Node22</title>
<g id="a_edge45_Node000018_Node000022"><a xlink:title=" ">
<path fill="none" stroke="#63b8ff" d="M795.47,-473.55C857.97,-469.23 950.43,-457.53 1024.66,-426 1094.96,-396.14 1156.27,-324.48 1180.09,-294.05"/>
<polygon fill="#63b8ff" stroke="#63b8ff" points="795.08,-470.06 785.32,-474.2 795.53,-477.05 795.08,-470.06"/>
</a>
</g>
</g>
<!-- Node20&#45;&gt;Node2 -->
<g id="edge37_Node000020_Node000002" class="edge">
<title>Node20&#45;&gt;Node2</title>
<g id="a_edge37_Node000020_Node000002"><a xlink:title=" ">
<path fill="none" stroke="#63b8ff" d="M127.77,-391.3C151.91,-379.14 182.22,-363.86 200.76,-354.52"/>
<polygon fill="#63b8ff" stroke="#63b8ff" points="125.89,-388.33 118.53,-395.95 129.04,-394.58 125.89,-388.33"/>
</a>
</g>
</g>
<!-- Node20&#45;&gt;Node6 -->
<g id="edge36_Node000020_Node000006" class="edge">
<title>Node20&#45;&gt;Node6</title>
<g id="a_edge36_Node000020_Node000006"><a xlink:title=" ">
<path fill="none" stroke="#63b8ff" d="M99.52,-386.31C107.21,-368.65 119.9,-345.08 137.66,-330 263.54,-223.15 459.09,-175.08 554.09,-157.09"/>
<polygon fill="#63b8ff" stroke="#63b8ff" points="96.14,-385.33 95.58,-395.91 102.62,-387.99 96.14,-385.33"/>
</a>
</g>
</g>
<!-- Node21&#45;&gt;Node8 -->
<g id="edge41_Node000021_Node000008" class="edge">
<title>Node21&#45;&gt;Node8</title>
<g id="a_edge41_Node000021_Node000008"><a xlink:title=" ">
<path fill="none" stroke="#63b8ff" d="M1318.67,-257.33C1267.35,-214.89 1152.01,-119.5 1116.96,-90.51"/>
<polygon fill="#63b8ff" stroke="#63b8ff" points="1316.68,-260.23 1326.62,-263.9 1321.14,-254.83 1316.68,-260.23"/>
</a>
</g>
</g>
<!-- Node21&#45;&gt;Node10 -->
<g id="edge42_Node000021_Node000010" class="edge">
<title>Node21&#45;&gt;Node10</title>
<g id="a_edge42_Node000021_Node000010"><a xlink:title=" ">
<path fill="none" stroke="#63b8ff" d="M1265.79,-263.67C1185.17,-249.29 1103.19,-235.12 1047.2,-225.52"/>
<polygon fill="#63b8ff" stroke="#63b8ff" points="1265.66,-267.21 1276.12,-265.52 1266.89,-260.32 1265.66,-267.21"/>
</a>
</g>
</g>
<!-- Node22&#45;&gt;Node8 -->
<g id="edge46_Node000022_Node000008" class="edge">
<title>Node22&#45;&gt;Node8</title>
<g id="a_edge46_Node000022_Node000008"><a xlink:title=" ">
<path fill="none" stroke="#63b8ff" d="M1180.66,-254.66C1162,-211.13 1122.67,-119.36 1110.4,-90.73"/>
<polygon fill="#63b8ff" stroke="#63b8ff" points="1177.46,-256.09 1184.62,-263.9 1183.9,-253.33 1177.46,-256.09"/>
</a>
</g>
</g>
<!-- Node22&#45;&gt;Node10 -->
<g id="edge47_Node000022_Node000010" class="edge">
<title>Node22&#45;&gt;Node10</title>
<g id="a_edge47_Node000022_Node000010"><a xlink:title=" ">
<path fill="none" stroke="#63b8ff" d="M1134.58,-260.99C1100.63,-250.69 1057.85,-237.72 1025.86,-228.01"/>
<polygon fill="#63b8ff" stroke="#63b8ff" points="1133.77,-264.4 1144.36,-263.95 1135.8,-257.7 1133.77,-264.4"/>
</a>
</g>
</g>
<!-- Node23&#45;&gt;Node2 -->
<g id="edge50_Node000023_Node000002" class="edge">
<title>Node23&#45;&gt;Node2</title>
<g id="a_edge50_Node000023_Node000002"><a xlink:title=" ">
<path fill="none" stroke="#63b8ff" d="M188.61,-583.82C195.47,-527.66 212.23,-390.5 216.6,-354.68"/>
<polygon fill="#63b8ff" stroke="#63b8ff" points="185.12,-583.56 187.38,-593.91 192.07,-584.41 185.12,-583.56"/>
</a>
</g>
</g>
<!-- Node23&#45;&gt;Node20 -->
<g id="edge62_Node000023_Node000020" class="edge">
<title>Node23&#45;&gt;Node20</title>
<g id="a_edge62_Node000023_Node000020"><a xlink:title=" ">
<path fill="none" stroke="#63b8ff" d="M174.36,-584.68C154.47,-543.64 113.78,-459.7 97.56,-426.23"/>
<polygon fill="#63b8ff" stroke="#63b8ff" points="171.32,-586.43 178.83,-593.9 177.62,-583.38 171.32,-586.43"/>
</a>
</g>
</g>
<!-- Node23&#45;&gt;Node24 -->
<g id="edge51_Node000023_Node000024" class="edge">
<title>Node23&#45;&gt;Node24</title>
<g id="a_edge51_Node000023_Node000024"><a xlink:title=" ">
<path fill="none" stroke="#63b8ff" d="M256.33,-593.12C308.65,-582.11 379.2,-567.26 428.98,-556.78"/>
<polygon fill="#63b8ff" stroke="#63b8ff" points="255.51,-589.72 246.45,-595.2 256.96,-596.57 255.51,-589.72"/>
</a>
</g>
</g>
<!-- Node24&#45;&gt;Node2 -->
<g id="edge52_Node000024_Node000002" class="edge">
<title>Node24&#45;&gt;Node2</title>
<g id="a_edge52_Node000024_Node000002"><a xlink:title=" ">
<path fill="none" stroke="#63b8ff" d="M419.14,-528.26C361.23,-513.2 281.67,-483.15 236.66,-426 219.79,-404.58 217.52,-370.59 217.45,-354.71"/>
<polygon fill="#63b8ff" stroke="#63b8ff" points="418.41,-531.68 428.97,-530.72 420.12,-524.89 418.41,-531.68"/>
</a>
</g>
</g>
<!-- Node24&#45;&gt;Node4 -->
<g id="edge53_Node000024_Node000004" class="edge">
<title>Node24&#45;&gt;Node4</title>
<g id="a_edge53_Node000024_Node000004"><a xlink:title=" ">
<path fill="none" stroke="#63b8ff" d="M474.21,-519.53C467.95,-510.43 460.92,-500.19 455.4,-492.16"/>
<polygon fill="#63b8ff" stroke="#63b8ff" points="471.35,-521.54 479.9,-527.8 477.11,-517.57 471.35,-521.54"/>
</a>
</g>
</g>
<!-- Node24&#45;&gt;Node5 -->
<g id="edge55_Node000024_Node000005" class="edge">
<title>Node24&#45;&gt;Node5</title>
<g id="a_edge55_Node000024_Node000005"><a xlink:title=" ">
<path fill="none" stroke="#63b8ff" d="M419.35,-525.85C402.21,-518.43 385.88,-507.65 375.66,-492 368.37,-480.84 369.56,-473.86 375.66,-462 383.79,-446.2 399.49,-434.28 413.96,-426.06"/>
<polygon fill="#63b8ff" stroke="#63b8ff" points="418.33,-529.21 428.92,-529.63 420.91,-522.7 418.33,-529.21"/>
</a>
</g>
</g>
<!-- Node24&#45;&gt;Node7 -->
<g id="edge60_Node000024_Node000007" class="edge">
<title>Node24&#45;&gt;Node7</title>
<g id="a_edge60_Node000024_Node000007"><a xlink:title=" ">
<path fill="none" stroke="#63b8ff" d="M560.47,-538.32C623.63,-533.2 717.73,-521 794.66,-492 837.57,-475.82 881.63,-444.38 905.21,-426.1"/>
<polygon fill="#63b8ff" stroke="#63b8ff" points="559.92,-534.85 550.22,-539.11 560.46,-541.83 559.92,-534.85"/>
</a>
</g>
</g>
<!-- Node24&#45;&gt;Node10 -->
<g id="edge58_Node000024_Node000010" class="edge">
<title>Node24&#45;&gt;Node10</title>
<g id="a_edge58_Node000024_Node000010"><a xlink:title=" ">
<path fill="none" stroke="#63b8ff" d="M560.27,-538.84C666.77,-531.48 872.24,-507.05 1024.66,-426 1068.14,-402.88 1091.52,-403.99 1113.66,-360 1134.29,-319.01 1108.79,-295.76 1075.66,-264 1059.38,-248.39 1037.27,-236.43 1018.37,-228.13"/>
<polygon fill="#63b8ff" stroke="#63b8ff" points="560.03,-535.35 550.28,-539.5 560.49,-542.33 560.03,-535.35"/>
</a>
</g>
</g>
<!-- Node24&#45;&gt;Node17 -->
<g id="edge59_Node000024_Node000017" class="edge">
<title>Node24&#45;&gt;Node17</title>
<g id="a_edge59_Node000024_Node000017"><a xlink:title=" ">
<path fill="none" stroke="#63b8ff" d="M501.84,-518.57C506.05,-510.25 510.69,-500.77 514.66,-492 533.64,-450.04 519.35,-426.72 553.66,-396 583.52,-369.27 626.64,-356.73 662.85,-350.9"/>
<polygon fill="#63b8ff" stroke="#63b8ff" points="498.61,-517.2 497.18,-527.7 504.85,-520.39 498.61,-517.2"/>
</a>
</g>
</g>
<!-- Node24&#45;&gt;Node18 -->
<g id="edge54_Node000024_Node000018" class="edge">
<title>Node24&#45;&gt;Node18</title>
<g id="a_edge54_Node000024_Node000018"><a xlink:title=" ">
<path fill="none" stroke="#63b8ff" d="M551.15,-525.25C589.12,-514.91 637.27,-501.8 673.21,-492.01"/>
<polygon fill="#63b8ff" stroke="#63b8ff" points="549.96,-521.95 541.23,-527.95 551.8,-528.7 549.96,-521.95"/>
</a>
</g>
</g>
<!-- Node24&#45;&gt;Node19 -->
<g id="edge56_Node000024_Node000019" class="edge">
<title>Node24&#45;&gt;Node19</title>
<g id="a_edge56_Node000024_Node000019"><a xlink:title=" ">
<path fill="none" stroke="#63b8ff" d="M515.14,-521.49C525.75,-512.68 538.04,-502.1 548.66,-492 571.84,-469.96 596.89,-442.39 611.38,-426.05"/>
<polygon fill="#63b8ff" stroke="#63b8ff" points="512.91,-518.79 507.41,-527.85 517.36,-524.2 512.91,-518.79"/>
</a>
</g>
</g>
<!-- Node24&#45;&gt;Node20 -->
<g id="edge57_Node000024_Node000020" class="edge">
<title>Node24&#45;&gt;Node20</title>
<g id="a_edge57_Node000024_Node000020"><a xlink:title=" ">
<path fill="none" stroke="#63b8ff" d="M418.87,-538.31C359.46,-533.21 273.38,-521.03 203.66,-492 164.83,-475.83 126.28,-444.38 105.78,-426.1"/>
<polygon fill="#63b8ff" stroke="#63b8ff" points="418.65,-541.81 428.9,-539.13 419.22,-534.83 418.65,-541.81"/>
</a>
</g>
</g>
<!-- Node24&#45;&gt;Node22 -->
<g id="edge61_Node000024_Node000022" class="edge">
<title>Node24&#45;&gt;Node22</title>
<g id="a_edge61_Node000024_Node000022"><a xlink:title=" ">
<path fill="none" stroke="#63b8ff" d="M560.54,-541.34C721.38,-539.17 1103.39,-530.03 1146.66,-492 1205.39,-440.38 1197.73,-332.69 1192.79,-294.12"/>
<polygon fill="#63b8ff" stroke="#63b8ff" points="560.23,-537.84 550.27,-541.47 560.32,-544.84 560.23,-537.84"/>
</a>
</g>
</g>
</g>
</svg>
