<?xml version="1.0" encoding="UTF-8" standalone="no"?>
<!DOCTYPE svg PUBLIC "-//W3C//DTD SVG 1.1//EN"
 "http://www.w3.org/Graphics/SVG/1.1/DTD/svg11.dtd">
<!-- Generated by graphviz version 2.43.0 (0)
 -->
<!-- Title: userver/crypto/verifiers.hpp Pages: 1 -->
<svg width="1818pt" height="412pt"
 viewBox="0.00 0.00 1818.00 412.00" xmlns="http://www.w3.org/2000/svg" xmlns:xlink="http://www.w3.org/1999/xlink">
<g id="graph0" class="graph" transform="scale(1 1) rotate(0) translate(4 408)">
<title>userver/crypto/verifiers.hpp</title>
<!-- Node1 -->
<g id="Node000001" class="node">
<title>Node1</title>
<g id="a_Node000001"><a xlink:title="Digital signature verifiers.">
<polygon fill="#999999" stroke="#666666" points="439.5,-404 288.5,-404 288.5,-385 439.5,-385 439.5,-404"/>
<text text-anchor="middle" x="364" y="-392" font-family="Helvetica,sans-Serif" font-size="10.00">userver/crypto/verifiers.hpp</text>
</a>
</g>
</g>
<!-- Node2 -->
<g id="Node000002" class="node">
<title>Node2</title>
<g id="a_Node000002"><a xlink:title=" ">
<polygon fill="#e0e0e0" stroke="#999999" points="1505.5,-277.5 1422.5,-277.5 1422.5,-258.5 1505.5,-258.5 1505.5,-277.5"/>
<text text-anchor="middle" x="1464" y="-265.5" font-family="Helvetica,sans-Serif" font-size="10.00">initializer_list</text>
</a>
</g>
</g>
<!-- Node1&#45;&gt;Node2 -->
<g id="edge1_Node000001_Node000002" class="edge">
<title>Node1&#45;&gt;Node2</title>
<g id="a_edge1_Node000001_Node000002"><a xlink:title=" ">
<path fill="none" stroke="#63b8ff" d="M439.17,-384.99C648.54,-361.3 1234.55,-294.97 1412.26,-274.86"/>
<polygon fill="#63b8ff" stroke="#63b8ff" points="1412.85,-278.31 1422.39,-273.71 1412.06,-271.36 1412.85,-278.31"/>
</a>
</g>
</g>
<!-- Node3 -->
<g id="Node000003" class="node">
<title>Node3</title>
<g id="a_Node000003"><a xlink:title=" ">
<polygon fill="#e0e0e0" stroke="#999999" points="213,-145.5 155,-145.5 155,-126.5 213,-126.5 213,-145.5"/>
<text text-anchor="middle" x="184" y="-133.5" font-family="Helvetica,sans-Serif" font-size="10.00">memory</text>
</a>
</g>
</g>
<!-- Node1&#45;&gt;Node3 -->
<g id="edge2_Node000001_Node000003" class="edge">
<title>Node1&#45;&gt;Node3</title>
<g id="a_edge2_Node000001_Node000003"><a xlink:title=" ">
<path fill="none" stroke="#63b8ff" d="M288.31,-392.4C213.16,-389.51 105.46,-379.91 79,-349 24.66,-285.52 123,-189.05 165.67,-152.11"/>
<polygon fill="#63b8ff" stroke="#63b8ff" points="168.04,-154.69 173.4,-145.55 163.51,-149.35 168.04,-154.69"/>
</a>
</g>
</g>
<!-- Node4 -->
<g id="Node000004" class="node">
<title>Node4</title>
<g id="a_Node000004"><a xlink:title=" ">
<polygon fill="#e0e0e0" stroke="#999999" points="44,-79.5 0,-79.5 0,-60.5 44,-60.5 44,-79.5"/>
<text text-anchor="middle" x="22" y="-67.5" font-family="Helvetica,sans-Serif" font-size="10.00">string</text>
</a>
</g>
</g>
<!-- Node1&#45;&gt;Node4 -->
<g id="edge3_Node000001_Node000004" class="edge">
<title>Node1&#45;&gt;Node4</title>
<g id="a_edge3_Node000001_Node000004"><a xlink:title=" ">
<path fill="none" stroke="#63b8ff" d="M288.36,-390.36C210.64,-385.76 96.19,-374.74 61,-349 29.07,-325.65 22,-308.56 22,-269 22,-269 22,-269 22,-201 22,-161.45 22,-115.13 22,-89.84"/>
<polygon fill="#63b8ff" stroke="#63b8ff" points="25.5,-89.52 22,-79.52 18.5,-89.52 25.5,-89.52"/>
</a>
</g>
</g>
<!-- Node5 -->
<g id="Node000005" class="node">
<title>Node5</title>
<g id="a_Node000005"><a xlink:title=" ">
<polygon fill="#e0e0e0" stroke="#999999" points="236.5,-277.5 163.5,-277.5 163.5,-258.5 236.5,-258.5 236.5,-277.5"/>
<text text-anchor="middle" x="200" y="-265.5" font-family="Helvetica,sans-Serif" font-size="10.00">string_view</text>
</a>
</g>
</g>
<!-- Node1&#45;&gt;Node5 -->
<g id="edge4_Node000001_Node000005" class="edge">
<title>Node1&#45;&gt;Node5</title>
<g id="a_edge4_Node000001_Node000005"><a xlink:title=" ">
<path fill="none" stroke="#63b8ff" d="M349.64,-384.98C335.43,-376.37 313.23,-362.47 295,-349 266.58,-328 235.61,-301.1 217,-284.46"/>
<polygon fill="#63b8ff" stroke="#63b8ff" points="219.15,-281.68 209.38,-277.59 214.47,-286.89 219.15,-281.68"/>
</a>
</g>
</g>
<!-- Node6 -->
<g id="Node000006" class="node">
<title>Node6</title>
<g id="a_Node000006"><a xlink:href="../../d0/df9/basic__types_8hpp.html" target="_top" xlink:title="Common types for crypto module.">
<polygon fill="white" stroke="#666666" points="422,-283 306,-283 306,-253 422,-253 422,-283"/>
<text text-anchor="start" x="314" y="-271" font-family="Helvetica,sans-Serif" font-size="10.00">userver/crypto/basic</text>
<text text-anchor="middle" x="364" y="-260" font-family="Helvetica,sans-Serif" font-size="10.00">_types.hpp</text>
</a>
</g>
</g>
<!-- Node1&#45;&gt;Node6 -->
<g id="edge5_Node000001_Node000006" class="edge">
<title>Node1&#45;&gt;Node6</title>
<g id="a_edge5_Node000001_Node000006"><a xlink:title=" ">
<path fill="none" stroke="#63b8ff" d="M387.78,-384.92C403.43,-377.89 422.67,-366.25 432,-349 438.34,-337.27 438.02,-330.9 432,-319 425.67,-306.5 414.59,-296.36 403.18,-288.56"/>
<polygon fill="#63b8ff" stroke="#63b8ff" points="404.79,-285.44 394.46,-283.06 401.05,-291.36 404.79,-285.44"/>
</a>
</g>
</g>
<!-- Node7 -->
<g id="Node000007" class="node">
<title>Node7</title>
<g id="a_Node000007"><a xlink:href="../../df/db8/universal_2include_2userver_2crypto_2exception_8hpp.html" target="_top" xlink:title="Exception classes for crypto module.">
<polygon fill="white" stroke="#666666" points="475.5,-211.5 316.5,-211.5 316.5,-192.5 475.5,-192.5 475.5,-211.5"/>
<text text-anchor="middle" x="396" y="-199.5" font-family="Helvetica,sans-Serif" font-size="10.00">userver/crypto/exception.hpp</text>
</a>
</g>
</g>
<!-- Node1&#45;&gt;Node7 -->
<g id="edge26_Node000001_Node000007" class="edge">
<title>Node1&#45;&gt;Node7</title>
<g id="a_edge26_Node000001_Node000007"><a xlink:title=" ">
<path fill="none" stroke="#63b8ff" d="M398.22,-384.93C416.71,-378.37 437.96,-367.24 449,-349 475.19,-305.72 434.54,-247.47 410.94,-219.43"/>
<polygon fill="#63b8ff" stroke="#63b8ff" points="413.46,-217 404.26,-211.75 408.18,-221.59 413.46,-217"/>
</a>
</g>
</g>
<!-- Node18 -->
<g id="Node000018" class="node">
<title>Node18</title>
<g id="a_Node000018"><a xlink:href="../../d1/dab/certificate_8hpp.html" target="_top" xlink:title=" ">
<polygon fill="white" stroke="#666666" points="248,-343.5 88,-343.5 88,-324.5 248,-324.5 248,-343.5"/>
<text text-anchor="middle" x="168" y="-331.5" font-family="Helvetica,sans-Serif" font-size="10.00">userver/crypto/certificate.hpp</text>
</a>
</g>
</g>
<!-- Node1&#45;&gt;Node18 -->
<g id="edge22_Node000001_Node000018" class="edge">
<title>Node1&#45;&gt;Node18</title>
<g id="a_edge22_Node000001_Node000018"><a xlink:title=" ">
<path fill="none" stroke="#63b8ff" d="M335.5,-384.99C301.39,-374.81 244.13,-357.72 206.21,-346.4"/>
<polygon fill="#63b8ff" stroke="#63b8ff" points="207.12,-343.02 196.53,-343.52 205.12,-349.73 207.12,-343.02"/>
</a>
</g>
</g>
<!-- Node19 -->
<g id="Node000019" class="node">
<title>Node19</title>
<g id="a_Node000019"><a xlink:href="../../dc/d0a/public__key_8hpp.html" target="_top" xlink:title=" ">
<polygon fill="white" stroke="#666666" points="423.5,-349 304.5,-349 304.5,-319 423.5,-319 423.5,-349"/>
<text text-anchor="start" x="312.5" y="-337" font-family="Helvetica,sans-Serif" font-size="10.00">userver/crypto/public</text>
<text text-anchor="middle" x="364" y="-326" font-family="Helvetica,sans-Serif" font-size="10.00">_key.hpp</text>
</a>
</g>
</g>
<!-- Node1&#45;&gt;Node19 -->
<g id="edge27_Node000001_Node000019" class="edge">
<title>Node1&#45;&gt;Node19</title>
<g id="a_edge27_Node000001_Node000019"><a xlink:title=" ">
<path fill="none" stroke="#63b8ff" d="M364,-384.87C364,-378.11 364,-368.35 364,-359.26"/>
<polygon fill="#63b8ff" stroke="#63b8ff" points="367.5,-359.11 364,-349.11 360.5,-359.11 367.5,-359.11"/>
</a>
</g>
</g>
<!-- Node36 -->
<g id="Node000036" class="node">
<title>Node36</title>
<g id="a_Node000036"><a xlink:href="../../db/db5/flags_8hpp.html" target="_top" xlink:title="Types that provide flags interface to enums.">
<polygon fill="white" stroke="#666666" points="1561.5,-343.5 1436.5,-343.5 1436.5,-324.5 1561.5,-324.5 1561.5,-343.5"/>
<text text-anchor="middle" x="1499" y="-331.5" font-family="Helvetica,sans-Serif" font-size="10.00">userver/utils/flags.hpp</text>
</a>
</g>
</g>
<!-- Node1&#45;&gt;Node36 -->
<g id="edge58_Node000001_Node000036" class="edge">
<title>Node1&#45;&gt;Node36</title>
<g id="a_edge58_Node000001_Node000036"><a xlink:title=" ">
<path fill="none" stroke="#63b8ff" d="M439.79,-389.59C647.24,-378.9 1222.44,-349.25 1426.25,-338.75"/>
<polygon fill="#63b8ff" stroke="#63b8ff" points="1426.44,-342.24 1436.25,-338.23 1426.08,-335.25 1426.44,-342.24"/>
</a>
</g>
</g>
<!-- Node6&#45;&gt;Node4 -->
<g id="edge6_Node000006_Node000004" class="edge">
<title>Node6&#45;&gt;Node4</title>
<g id="a_edge6_Node000006_Node000004"><a xlink:title=" ">
<path fill="none" stroke="#63b8ff" d="M346.79,-252.88C335.21,-243.15 319.78,-229.72 307,-217 266.61,-176.8 271.23,-149.71 222,-121 155.66,-82.31 125.97,-108.94 53,-85 51.56,-84.53 50.1,-84.01 48.64,-83.46"/>
<polygon fill="#63b8ff" stroke="#63b8ff" points="49.7,-80.11 39.12,-79.52 47.02,-86.58 49.7,-80.11"/>
</a>
</g>
</g>
<!-- Node6&#45;&gt;Node7 -->
<g id="edge7_Node000006_Node000007" class="edge">
<title>Node6&#45;&gt;Node7</title>
<g id="a_edge7_Node000006_Node000007"><a xlink:title=" ">
<path fill="none" stroke="#63b8ff" d="M371.1,-252.8C375.8,-243.41 381.99,-231.02 387.03,-220.95"/>
<polygon fill="#63b8ff" stroke="#63b8ff" points="390.24,-222.35 391.58,-211.84 383.98,-219.22 390.24,-222.35"/>
</a>
</g>
</g>
<!-- Node7&#45;&gt;Node3 -->
<g id="edge8_Node000007_Node000003" class="edge">
<title>Node7&#45;&gt;Node3</title>
<g id="a_edge8_Node000007_Node000003"><a xlink:title=" ">
<path fill="none" stroke="#63b8ff" d="M367.41,-192.37C329.92,-181.05 264.04,-161.16 222.28,-148.56"/>
<polygon fill="#63b8ff" stroke="#63b8ff" points="223.06,-145.14 212.48,-145.6 221.04,-151.84 223.06,-145.14"/>
</a>
</g>
</g>
<!-- Node8 -->
<g id="Node000008" class="node">
<title>Node8</title>
<g id="a_Node000008"><a xlink:href="../../da/de0/traceful__exception_8hpp.html" target="_top" xlink:title="Exception that remembers the backtrace at the point of its construction.">
<polygon fill="white" stroke="#666666" points="453,-151 335,-151 335,-121 453,-121 453,-151"/>
<text text-anchor="start" x="343" y="-139" font-family="Helvetica,sans-Serif" font-size="10.00">userver/utils/traceful</text>
<text text-anchor="middle" x="394" y="-128" font-family="Helvetica,sans-Serif" font-size="10.00">_exception.hpp</text>
</a>
</g>
</g>
<!-- Node7&#45;&gt;Node8 -->
<g id="edge9_Node000007_Node000008" class="edge">
<title>Node7&#45;&gt;Node8</title>
<g id="a_edge9_Node000007_Node000008"><a xlink:title=" ">
<path fill="none" stroke="#63b8ff" d="M395.73,-192.37C395.48,-184.49 395.11,-172.45 394.77,-161.6"/>
<polygon fill="#63b8ff" stroke="#63b8ff" points="398.26,-161.25 394.45,-151.36 391.26,-161.46 398.26,-161.25"/>
</a>
</g>
</g>
<!-- Node8&#45;&gt;Node4 -->
<g id="edge11_Node000008_Node000004" class="edge">
<title>Node8&#45;&gt;Node4</title>
<g id="a_edge11_Node000008_Node000004"><a xlink:title=" ">
<path fill="none" stroke="#63b8ff" d="M334.78,-125.81C324.2,-124.19 313.28,-122.53 303,-121 191.97,-104.47 160.77,-116.41 53,-85 51.36,-84.52 49.7,-83.98 48.04,-83.38"/>
<polygon fill="#63b8ff" stroke="#63b8ff" points="49.31,-80.12 38.73,-79.59 46.67,-86.6 49.31,-80.12"/>
</a>
</g>
</g>
<!-- Node9 -->
<g id="Node000009" class="node">
<title>Node9</title>
<g id="a_Node000009"><a xlink:title=" ">
<polygon fill="#e0e0e0" stroke="#999999" points="127.5,-79.5 62.5,-79.5 62.5,-60.5 127.5,-60.5 127.5,-79.5"/>
<text text-anchor="middle" x="95" y="-67.5" font-family="Helvetica,sans-Serif" font-size="10.00">exception</text>
</a>
</g>
</g>
<!-- Node8&#45;&gt;Node9 -->
<g id="edge10_Node000008_Node000009" class="edge">
<title>Node8&#45;&gt;Node9</title>
<g id="a_edge10_Node000008_Node000009"><a xlink:title=" ">
<path fill="none" stroke="#63b8ff" d="M334.82,-125.73C282.41,-116.99 204.04,-102.62 137,-85 134.21,-84.27 131.34,-83.45 128.47,-82.59"/>
<polygon fill="#63b8ff" stroke="#63b8ff" points="129.42,-79.21 118.83,-79.54 127.31,-85.89 129.42,-79.21"/>
</a>
</g>
</g>
<!-- Node10 -->
<g id="Node000010" class="node">
<title>Node10</title>
<g id="a_Node000010"><a xlink:title=" ">
<polygon fill="#e0e0e0" stroke="#999999" points="1233.5,-19 1164.5,-19 1164.5,0 1233.5,0 1233.5,-19"/>
<text text-anchor="middle" x="1199" y="-7" font-family="Helvetica,sans-Serif" font-size="10.00">type_traits</text>
</a>
</g>
</g>
<!-- Node8&#45;&gt;Node10 -->
<g id="edge12_Node000008_Node000010" class="edge">
<title>Node8&#45;&gt;Node10</title>
<g id="a_edge12_Node000008_Node000010"><a xlink:title=" ">
<path fill="none" stroke="#63b8ff" d="M453.37,-126.83C494.6,-119.6 549.99,-106.73 595,-85 614.69,-75.49 613.59,-62.85 634,-55 728.73,-18.57 1037.73,-11.96 1154.11,-10.76"/>
<polygon fill="#63b8ff" stroke="#63b8ff" points="1154.47,-14.26 1164.43,-10.66 1154.4,-7.26 1154.47,-14.26"/>
</a>
</g>
</g>
<!-- Node11 -->
<g id="Node000011" class="node">
<title>Node11</title>
<g id="a_Node000011"><a xlink:title=" ">
<polygon fill="#e0e0e0" stroke="#999999" points="721.5,-79.5 642.5,-79.5 642.5,-60.5 721.5,-60.5 721.5,-79.5"/>
<text text-anchor="middle" x="682" y="-67.5" font-family="Helvetica,sans-Serif" font-size="10.00">fmt/format.h</text>
</a>
</g>
</g>
<!-- Node8&#45;&gt;Node11 -->
<g id="edge13_Node000008_Node000011" class="edge">
<title>Node8&#45;&gt;Node11</title>
<g id="a_edge13_Node000008_Node000011"><a xlink:title=" ">
<path fill="none" stroke="#63b8ff" d="M453.3,-123.07C500.7,-113.35 568.77,-99 628,-85 631.92,-84.07 635.99,-83.08 640.05,-82.06"/>
<polygon fill="#63b8ff" stroke="#63b8ff" points="641.24,-85.37 650.08,-79.52 639.52,-78.59 641.24,-85.37"/>
</a>
</g>
</g>
<!-- Node12 -->
<g id="Node000012" class="node">
<title>Node12</title>
<g id="a_Node000012"><a xlink:title=" ">
<polygon fill="#e0e0e0" stroke="#999999" points="468,-85 316,-85 316,-55 468,-55 468,-85"/>
<text text-anchor="start" x="324" y="-73" font-family="Helvetica,sans-Serif" font-size="10.00">boost/stacktrace/stacktrace</text>
<text text-anchor="middle" x="392" y="-62" font-family="Helvetica,sans-Serif" font-size="10.00">_fwd.hpp</text>
</a>
</g>
</g>
<!-- Node8&#45;&gt;Node12 -->
<g id="edge14_Node000008_Node000012" class="edge">
<title>Node8&#45;&gt;Node12</title>
<g id="a_edge14_Node000008_Node000012"><a xlink:title=" ">
<path fill="none" stroke="#63b8ff" d="M393.56,-120.8C393.32,-113.34 393.03,-103.99 392.76,-95.41"/>
<polygon fill="#63b8ff" stroke="#63b8ff" points="396.25,-95.05 392.44,-85.16 389.26,-95.27 396.25,-95.05"/>
</a>
</g>
</g>
<!-- Node13 -->
<g id="Node000013" class="node">
<title>Node13</title>
<g id="a_Node000013"><a xlink:href="../../d2/d84/select_8hpp.html" target="_top" xlink:title="Utilities for selection of platform specific values.">
<polygon fill="white" stroke="#666666" points="298,-79.5 146,-79.5 146,-60.5 298,-60.5 298,-79.5"/>
<text text-anchor="middle" x="222" y="-67.5" font-family="Helvetica,sans-Serif" font-size="10.00">userver/compiler/select.hpp</text>
</a>
</g>
</g>
<!-- Node8&#45;&gt;Node13 -->
<g id="edge15_Node000008_Node000013" class="edge">
<title>Node8&#45;&gt;Node13</title>
<g id="a_edge15_Node000008_Node000013"><a xlink:title=" ">
<path fill="none" stroke="#63b8ff" d="M356.25,-120.95C325.82,-109.63 283.48,-93.88 254.53,-83.1"/>
<polygon fill="#63b8ff" stroke="#63b8ff" points="255.48,-79.72 244.89,-79.52 253.04,-86.28 255.48,-79.72"/>
</a>
</g>
</g>
<!-- Node15 -->
<g id="Node000015" class="node">
<title>Node15</title>
<g id="a_Node000015"><a xlink:href="../../d5/d02/fast__pimpl_8hpp.html" target="_top" xlink:title="Implements pimpl idiom without dynamic memory allocation.">
<polygon fill="white" stroke="#666666" points="585.5,-85 486.5,-85 486.5,-55 585.5,-55 585.5,-85"/>
<text text-anchor="start" x="494.5" y="-73" font-family="Helvetica,sans-Serif" font-size="10.00">userver/utils/fast</text>
<text text-anchor="middle" x="536" y="-62" font-family="Helvetica,sans-Serif" font-size="10.00">_pimpl.hpp</text>
</a>
</g>
</g>
<!-- Node8&#45;&gt;Node15 -->
<g id="edge17_Node000008_Node000015" class="edge">
<title>Node8&#45;&gt;Node15</title>
<g id="a_edge17_Node000008_Node000015"><a xlink:title=" ">
<path fill="none" stroke="#63b8ff" d="M425.16,-120.95C445.88,-111.62 473.29,-99.27 495.66,-89.18"/>
<polygon fill="#63b8ff" stroke="#63b8ff" points="497.23,-92.31 504.91,-85.01 494.36,-85.93 497.23,-92.31"/>
</a>
</g>
</g>
<!-- Node14 -->
<g id="Node000014" class="node">
<title>Node14</title>
<g id="a_Node000014"><a xlink:title=" ">
<polygon fill="#e0e0e0" stroke="#999999" points="374.5,-19 321.5,-19 321.5,0 374.5,0 374.5,-19"/>
<text text-anchor="middle" x="348" y="-7" font-family="Helvetica,sans-Serif" font-size="10.00">cstddef</text>
</a>
</g>
</g>
<!-- Node13&#45;&gt;Node14 -->
<g id="edge16_Node000013_Node000014" class="edge">
<title>Node13&#45;&gt;Node14</title>
<g id="a_edge16_Node000013_Node000014"><a xlink:title=" ">
<path fill="none" stroke="#63b8ff" d="M240.32,-60.49C261.41,-50.7 296.26,-34.52 320.58,-23.23"/>
<polygon fill="#63b8ff" stroke="#63b8ff" points="322.06,-26.4 329.66,-19.02 319.11,-20.05 322.06,-26.4"/>
</a>
</g>
</g>
<!-- Node15&#45;&gt;Node10 -->
<g id="edge20_Node000015_Node000010" class="edge">
<title>Node15&#45;&gt;Node10</title>
<g id="a_edge20_Node000015_Node000010"><a xlink:title=" ">
<path fill="none" stroke="#63b8ff" d="M585.84,-57.39C590.61,-56.49 595.39,-55.67 600,-55 805.8,-25 1054.5,-14.73 1154.34,-11.66"/>
<polygon fill="#63b8ff" stroke="#63b8ff" points="1154.48,-15.16 1164.38,-11.36 1154.28,-8.16 1154.48,-15.16"/>
</a>
</g>
</g>
<!-- Node15&#45;&gt;Node14 -->
<g id="edge18_Node000015_Node000014" class="edge">
<title>Node15&#45;&gt;Node14</title>
<g id="a_edge18_Node000015_Node000014"><a xlink:title=" ">
<path fill="none" stroke="#63b8ff" d="M490.97,-54.99C458.37,-44.84 414.87,-31.31 384.45,-21.84"/>
<polygon fill="#63b8ff" stroke="#63b8ff" points="385.26,-18.43 374.67,-18.8 383.18,-25.11 385.26,-18.43"/>
</a>
</g>
</g>
<!-- Node16 -->
<g id="Node000016" class="node">
<title>Node16</title>
<g id="a_Node000016"><a xlink:title=" ">
<polygon fill="#e0e0e0" stroke="#999999" points="554.5,-19 517.5,-19 517.5,0 554.5,0 554.5,-19"/>
<text text-anchor="middle" x="536" y="-7" font-family="Helvetica,sans-Serif" font-size="10.00">new</text>
</a>
</g>
</g>
<!-- Node15&#45;&gt;Node16 -->
<g id="edge19_Node000015_Node000016" class="edge">
<title>Node15&#45;&gt;Node16</title>
<g id="a_edge19_Node000015_Node000016"><a xlink:title=" ">
<path fill="none" stroke="#63b8ff" d="M536,-54.84C536,-47.21 536,-37.7 536,-29.45"/>
<polygon fill="#63b8ff" stroke="#63b8ff" points="539.5,-29.27 536,-19.27 532.5,-29.27 539.5,-29.27"/>
</a>
</g>
</g>
<!-- Node17 -->
<g id="Node000017" class="node">
<title>Node17</title>
<g id="a_Node000017"><a xlink:title=" ">
<polygon fill="#e0e0e0" stroke="#999999" points="695.5,-19 650.5,-19 650.5,0 695.5,0 695.5,-19"/>
<text text-anchor="middle" x="673" y="-7" font-family="Helvetica,sans-Serif" font-size="10.00">utility</text>
</a>
</g>
</g>
<!-- Node15&#45;&gt;Node17 -->
<g id="edge21_Node000015_Node000017" class="edge">
<title>Node15&#45;&gt;Node17</title>
<g id="a_edge21_Node000015_Node000017"><a xlink:title=" ">
<path fill="none" stroke="#63b8ff" d="M568.81,-54.99C591.47,-45.31 621.35,-32.56 643.3,-23.18"/>
<polygon fill="#63b8ff" stroke="#63b8ff" points="644.95,-26.29 652.77,-19.14 642.2,-19.85 644.95,-26.29"/>
</a>
</g>
</g>
<!-- Node18&#45;&gt;Node3 -->
<g id="edge23_Node000018_Node000003" class="edge">
<title>Node18&#45;&gt;Node3</title>
<g id="a_edge23_Node000018_Node000003"><a xlink:title=" ">
<path fill="none" stroke="#63b8ff" d="M164.78,-324.3C161.32,-314.45 156.04,-297.82 154,-283 147.63,-236.6 165.26,-182.84 176.14,-155.31"/>
<polygon fill="#63b8ff" stroke="#63b8ff" points="179.48,-156.4 180.04,-145.82 173,-153.74 179.48,-156.4"/>
</a>
</g>
</g>
<!-- Node18&#45;&gt;Node5 -->
<g id="edge24_Node000018_Node000005" class="edge">
<title>Node18&#45;&gt;Node5</title>
<g id="a_edge24_Node000018_Node000005"><a xlink:title=" ">
<path fill="none" stroke="#63b8ff" d="M172.32,-324.37C177.06,-314.88 184.82,-299.36 190.92,-287.16"/>
<polygon fill="#63b8ff" stroke="#63b8ff" points="194.21,-288.41 195.55,-277.91 187.94,-285.28 194.21,-288.41"/>
</a>
</g>
</g>
<!-- Node18&#45;&gt;Node6 -->
<g id="edge25_Node000018_Node000006" class="edge">
<title>Node18&#45;&gt;Node6</title>
<g id="a_edge25_Node000018_Node000006"><a xlink:title=" ">
<path fill="none" stroke="#63b8ff" d="M194.43,-324.37C224.17,-314.66 273.23,-298.64 310.95,-286.32"/>
<polygon fill="#63b8ff" stroke="#63b8ff" points="312.35,-289.55 320.77,-283.12 310.18,-282.89 312.35,-289.55"/>
</a>
</g>
</g>
<!-- Node19&#45;&gt;Node3 -->
<g id="edge28_Node000019_Node000003" class="edge">
<title>Node19&#45;&gt;Node3</title>
<g id="a_edge28_Node000019_Node000003"><a xlink:title=" ">
<path fill="none" stroke="#63b8ff" d="M342,-318.83C328.32,-309.5 310.77,-296.53 297,-283 254.28,-241.02 213.71,-182.53 194.92,-154"/>
<polygon fill="#63b8ff" stroke="#63b8ff" points="197.8,-152.01 189.41,-145.55 191.94,-155.83 197.8,-152.01"/>
</a>
</g>
</g>
<!-- Node19&#45;&gt;Node5 -->
<g id="edge29_Node000019_Node000005" class="edge">
<title>Node19&#45;&gt;Node5</title>
<g id="a_edge29_Node000019_Node000005"><a xlink:title=" ">
<path fill="none" stroke="#63b8ff" d="M328.01,-318.95C299.12,-307.68 258.97,-292.01 231.38,-281.25"/>
<polygon fill="#63b8ff" stroke="#63b8ff" points="232.41,-277.89 221.83,-277.52 229.87,-284.41 232.41,-277.89"/>
</a>
</g>
</g>
<!-- Node19&#45;&gt;Node6 -->
<g id="edge30_Node000019_Node000006" class="edge">
<title>Node19&#45;&gt;Node6</title>
<g id="a_edge30_Node000019_Node000006"><a xlink:title=" ">
<path fill="none" stroke="#63b8ff" d="M364,-318.8C364,-311.34 364,-301.99 364,-293.41"/>
<polygon fill="#63b8ff" stroke="#63b8ff" points="367.5,-293.16 364,-283.16 360.5,-293.16 367.5,-293.16"/>
</a>
</g>
</g>
<!-- Node20 -->
<g id="Node000020" class="node">
<title>Node20</title>
<g id="a_Node000020"><a xlink:href="../../d5/dfe/universal_2include_2userver_2utils_2strong__typedef_8hpp.html" target="_top" xlink:title="Strong typedef for a type T.">
<polygon fill="white" stroke="#666666" points="1160.5,-283 1049.5,-283 1049.5,-253 1160.5,-253 1160.5,-283"/>
<text text-anchor="start" x="1057.5" y="-271" font-family="Helvetica,sans-Serif" font-size="10.00">userver/utils/strong</text>
<text text-anchor="middle" x="1105" y="-260" font-family="Helvetica,sans-Serif" font-size="10.00">_typedef.hpp</text>
</a>
</g>
</g>
<!-- Node19&#45;&gt;Node20 -->
<g id="edge31_Node000019_Node000020" class="edge">
<title>Node19&#45;&gt;Node20</title>
<g id="a_edge31_Node000019_Node000020"><a xlink:title=" ">
<path fill="none" stroke="#63b8ff" d="M423.7,-327.84C560.62,-316.02 896.42,-287.02 1039.12,-274.69"/>
<polygon fill="#63b8ff" stroke="#63b8ff" points="1039.8,-278.14 1049.46,-273.8 1039.2,-271.17 1039.8,-278.14"/>
</a>
</g>
</g>
<!-- Node20&#45;&gt;Node10 -->
<g id="edge34_Node000020_Node000010" class="edge">
<title>Node20&#45;&gt;Node10</title>
<g id="a_edge34_Node000020_Node000010"><a xlink:title=" ">
<path fill="none" stroke="#63b8ff" d="M1160.52,-264.14C1300.47,-256.67 1657.75,-235.83 1675,-217 1805.16,-74.93 1385.51,-26.11 1243.95,-13.89"/>
<polygon fill="#63b8ff" stroke="#63b8ff" points="1244.12,-10.39 1233.86,-13.04 1243.53,-17.37 1244.12,-10.39"/>
</a>
</g>
</g>
<!-- Node20&#45;&gt;Node11 -->
<g id="edge36_Node000020_Node000011" class="edge">
<title>Node20&#45;&gt;Node11</title>
<g id="a_edge36_Node000020_Node000011"><a xlink:title=" ">
<path fill="none" stroke="#63b8ff" d="M1049.24,-258.36C949.94,-241.83 748.48,-202.71 702,-151 686.86,-134.15 682.79,-107.56 681.9,-89.71"/>
<polygon fill="#63b8ff" stroke="#63b8ff" points="685.39,-89.59 681.68,-79.67 678.4,-89.74 685.39,-89.59"/>
</a>
</g>
</g>
<!-- Node20&#45;&gt;Node17 -->
<g id="edge35_Node000020_Node000017" class="edge">
<title>Node20&#45;&gt;Node17</title>
<g id="a_edge35_Node000020_Node000017"><a xlink:title=" ">
<path fill="none" stroke="#63b8ff" d="M1049.14,-259.56C948.16,-244.81 741.97,-208.23 702,-151 694.37,-140.07 697.57,-133.57 702,-121 708.83,-101.62 724.17,-104.38 731,-85 735.43,-72.43 736.9,-66.96 731,-55 724.51,-41.85 712.07,-31.5 700.36,-24.11"/>
<polygon fill="#63b8ff" stroke="#63b8ff" points="702.07,-21.05 691.67,-19.03 698.54,-27.1 702.07,-21.05"/>
</a>
</g>
</g>
<!-- Node21 -->
<g id="Node000021" class="node">
<title>Node21</title>
<g id="a_Node000021"><a xlink:title=" ">
<polygon fill="#e0e0e0" stroke="#999999" points="1297.5,-211.5 1232.5,-211.5 1232.5,-192.5 1297.5,-192.5 1297.5,-211.5"/>
<text text-anchor="middle" x="1265" y="-199.5" font-family="Helvetica,sans-Serif" font-size="10.00">functional</text>
</a>
</g>
</g>
<!-- Node20&#45;&gt;Node21 -->
<g id="edge32_Node000020_Node000021" class="edge">
<title>Node20&#45;&gt;Node21</title>
<g id="a_edge32_Node000020_Node000021"><a xlink:title=" ">
<path fill="none" stroke="#63b8ff" d="M1140.11,-252.95C1168.3,-241.68 1207.47,-226.01 1234.39,-215.25"/>
<polygon fill="#63b8ff" stroke="#63b8ff" points="1235.72,-218.48 1243.71,-211.52 1233.12,-211.98 1235.72,-218.48"/>
</a>
</g>
</g>
<!-- Node22 -->
<g id="Node000022" class="node">
<title>Node22</title>
<g id="a_Node000022"><a xlink:title=" ">
<polygon fill="#e0e0e0" stroke="#999999" points="1508,-145.5 1460,-145.5 1460,-126.5 1508,-126.5 1508,-145.5"/>
<text text-anchor="middle" x="1484" y="-133.5" font-family="Helvetica,sans-Serif" font-size="10.00">iosfwd</text>
</a>
</g>
</g>
<!-- Node20&#45;&gt;Node22 -->
<g id="edge33_Node000020_Node000022" class="edge">
<title>Node20&#45;&gt;Node22</title>
<g id="a_edge33_Node000020_Node000022"><a xlink:title=" ">
<path fill="none" stroke="#63b8ff" d="M1160.77,-259.73C1202.61,-252.75 1260.44,-239.81 1307,-217 1326.32,-207.53 1326.17,-197.42 1345,-187 1386.7,-163.93 1401.2,-167.24 1446,-151 1447.64,-150.41 1449.31,-149.8 1451,-149.18"/>
<polygon fill="#63b8ff" stroke="#63b8ff" points="1452.52,-152.35 1460.7,-145.63 1450.11,-145.78 1452.52,-152.35"/>
</a>
</g>
</g>
<!-- Node23 -->
<g id="Node000023" class="node">
<title>Node23</title>
<g id="a_Node000023"><a xlink:href="../../d3/d6c/fmt__compat_8hpp_source.html" target="_top" xlink:title=" ">
<polygon fill="white" stroke="#666666" points="1665.5,-211.5 1504.5,-211.5 1504.5,-192.5 1665.5,-192.5 1665.5,-211.5"/>
<text text-anchor="middle" x="1585" y="-199.5" font-family="Helvetica,sans-Serif" font-size="10.00">userver/utils/fmt_compat.hpp</text>
</a>
</g>
</g>
<!-- Node20&#45;&gt;Node23 -->
<g id="edge37_Node000020_Node000023" class="edge">
<title>Node20&#45;&gt;Node23</title>
<g id="a_edge37_Node000020_Node000023"><a xlink:title=" ">
<path fill="none" stroke="#63b8ff" d="M1160.61,-260.35C1236.32,-251.18 1376.05,-233.87 1495,-217 1503.65,-215.77 1512.75,-214.42 1521.71,-213.06"/>
<polygon fill="#63b8ff" stroke="#63b8ff" points="1522.38,-216.5 1531.73,-211.53 1521.32,-209.58 1522.38,-216.5"/>
</a>
</g>
</g>
<!-- Node25 -->
<g id="Node000025" class="node">
<title>Node25</title>
<g id="a_Node000025"><a xlink:title=" ">
<polygon fill="#e0e0e0" stroke="#999999" points="616,-217 494,-217 494,-187 616,-187 616,-217"/>
<text text-anchor="start" x="502" y="-205" font-family="Helvetica,sans-Serif" font-size="10.00">boost/functional/hash</text>
<text text-anchor="middle" x="555" y="-194" font-family="Helvetica,sans-Serif" font-size="10.00">_fwd.hpp</text>
</a>
</g>
</g>
<!-- Node20&#45;&gt;Node25 -->
<g id="edge39_Node000020_Node000025" class="edge">
<title>Node20&#45;&gt;Node25</title>
<g id="a_edge39_Node000020_Node000025"><a xlink:title=" ">
<path fill="none" stroke="#63b8ff" d="M1049.24,-262.58C960.31,-255.21 780.98,-239 630,-217 628.75,-216.82 627.48,-216.63 626.21,-216.44"/>
<polygon fill="#63b8ff" stroke="#63b8ff" points="626.75,-212.98 616.33,-214.86 625.65,-219.89 626.75,-212.98"/>
</a>
</g>
</g>
<!-- Node26 -->
<g id="Node000026" class="node">
<title>Node26</title>
<g id="a_Node000026"><a xlink:href="../../da/d00/universal_2include_2userver_2formats_2common_2meta_8hpp.html" target="_top" xlink:title="Metaprogramming helpers for converters detection.">
<polygon fill="white" stroke="#666666" points="1031,-217 891,-217 891,-187 1031,-187 1031,-217"/>
<text text-anchor="start" x="899" y="-205" font-family="Helvetica,sans-Serif" font-size="10.00">userver/formats/common</text>
<text text-anchor="middle" x="961" y="-194" font-family="Helvetica,sans-Serif" font-size="10.00">/meta.hpp</text>
</a>
</g>
</g>
<!-- Node20&#45;&gt;Node26 -->
<g id="edge40_Node000020_Node000026" class="edge">
<title>Node20&#45;&gt;Node26</title>
<g id="a_edge40_Node000020_Node000026"><a xlink:title=" ">
<path fill="none" stroke="#63b8ff" d="M1073.4,-252.95C1052.39,-243.62 1024.6,-231.27 1001.91,-221.18"/>
<polygon fill="#63b8ff" stroke="#63b8ff" points="1003.09,-217.88 992.53,-217.01 1000.24,-224.27 1003.09,-217.88"/>
</a>
</g>
</g>
<!-- Node30 -->
<g id="Node000030" class="node">
<title>Node30</title>
<g id="a_Node000030"><a xlink:href="../../d9/dce/void__t_8hpp.html" target="_top" xlink:title="std::void_t implementation with workarounds for compiler bugs">
<polygon fill="white" stroke="#666666" points="1170.5,-85 1069.5,-85 1069.5,-55 1170.5,-55 1170.5,-85"/>
<text text-anchor="start" x="1077.5" y="-73" font-family="Helvetica,sans-Serif" font-size="10.00">userver/utils/void</text>
<text text-anchor="middle" x="1120" y="-62" font-family="Helvetica,sans-Serif" font-size="10.00">_t.hpp</text>
</a>
</g>
</g>
<!-- Node20&#45;&gt;Node30 -->
<g id="edge57_Node000020_Node000030" class="edge">
<title>Node20&#45;&gt;Node30</title>
<g id="a_edge57_Node000020_Node000030"><a xlink:title=" ">
<path fill="none" stroke="#63b8ff" d="M1095.36,-252.85C1089.39,-243.21 1082.26,-229.9 1079,-217 1068.55,-175.63 1063.4,-161.09 1078,-121 1081.78,-110.61 1088.78,-100.89 1095.99,-92.82"/>
<polygon fill="#63b8ff" stroke="#63b8ff" points="1098.76,-94.99 1103.16,-85.35 1093.71,-90.14 1098.76,-94.99"/>
</a>
</g>
</g>
<!-- Node31 -->
<g id="Node000031" class="node">
<title>Node31</title>
<g id="a_Node000031"><a xlink:href="../../d0/d03/universal_2include_2userver_2utils_2meta_8hpp.html" target="_top" xlink:title="Metaprogramming, template variables and concepts.">
<polygon fill="white" stroke="#666666" points="1214.5,-211.5 1087.5,-211.5 1087.5,-192.5 1214.5,-192.5 1214.5,-211.5"/>
<text text-anchor="middle" x="1151" y="-199.5" font-family="Helvetica,sans-Serif" font-size="10.00">userver/utils/meta.hpp</text>
</a>
</g>
</g>
<!-- Node20&#45;&gt;Node31 -->
<g id="edge48_Node000020_Node000031" class="edge">
<title>Node20&#45;&gt;Node31</title>
<g id="a_edge48_Node000020_Node000031"><a xlink:title=" ">
<path fill="none" stroke="#63b8ff" d="M1115.21,-252.8C1122.17,-243.11 1131.42,-230.24 1138.77,-220.01"/>
<polygon fill="#63b8ff" stroke="#63b8ff" points="1141.65,-222.01 1144.64,-211.84 1135.96,-217.92 1141.65,-222.01"/>
</a>
</g>
</g>
<!-- Node35 -->
<g id="Node000035" class="node">
<title>Node35</title>
<g id="a_Node000035"><a xlink:href="../../db/d12/underlying__value_8hpp.html" target="_top" xlink:title=" ">
<polygon fill="white" stroke="#666666" points="1486,-217 1354,-217 1354,-187 1486,-187 1486,-217"/>
<text text-anchor="start" x="1362" y="-205" font-family="Helvetica,sans-Serif" font-size="10.00">userver/utils/underlying</text>
<text text-anchor="middle" x="1420" y="-194" font-family="Helvetica,sans-Serif" font-size="10.00">_value.hpp</text>
</a>
</g>
</g>
<!-- Node20&#45;&gt;Node35 -->
<g id="edge55_Node000020_Node000035" class="edge">
<title>Node20&#45;&gt;Node35</title>
<g id="a_edge55_Node000020_Node000035"><a xlink:title=" ">
<path fill="none" stroke="#63b8ff" d="M1160.59,-255.71C1211.49,-245.36 1287.28,-229.97 1343.81,-218.48"/>
<polygon fill="#63b8ff" stroke="#63b8ff" points="1344.67,-221.88 1353.78,-216.45 1343.28,-215.02 1344.67,-221.88"/>
</a>
</g>
</g>
<!-- Node24 -->
<g id="Node000024" class="node">
<title>Node24</title>
<g id="a_Node000024"><a xlink:title=" ">
<polygon fill="#e0e0e0" stroke="#999999" points="1631.5,-145.5 1564.5,-145.5 1564.5,-126.5 1631.5,-126.5 1631.5,-145.5"/>
<text text-anchor="middle" x="1598" y="-133.5" font-family="Helvetica,sans-Serif" font-size="10.00">fmt/core.h</text>
</a>
</g>
</g>
<!-- Node23&#45;&gt;Node24 -->
<g id="edge38_Node000023_Node000024" class="edge">
<title>Node23&#45;&gt;Node24</title>
<g id="a_edge38_Node000023_Node000024"><a xlink:title=" ">
<path fill="none" stroke="#63b8ff" d="M1586.75,-192.37C1588.64,-183.07 1591.71,-167.98 1594.16,-155.9"/>
<polygon fill="#63b8ff" stroke="#63b8ff" points="1597.63,-156.4 1596.19,-145.91 1590.77,-155.01 1597.63,-156.4"/>
</a>
</g>
</g>
<!-- Node26&#45;&gt;Node10 -->
<g id="edge41_Node000026_Node000010" class="edge">
<title>Node26&#45;&gt;Node10</title>
<g id="a_edge41_Node000026_Node000010"><a xlink:title=" ">
<path fill="none" stroke="#63b8ff" d="M973.37,-186.97C981.8,-177.16 993.01,-163.62 1002,-151 1031.06,-110.21 1021.62,-85.94 1061,-55 1088.01,-33.79 1125.42,-22.55 1154.47,-16.67"/>
<polygon fill="#63b8ff" stroke="#63b8ff" points="1155.19,-20.1 1164.37,-14.81 1153.9,-13.22 1155.19,-20.1"/>
</a>
</g>
</g>
<!-- Node27 -->
<g id="Node000027" class="node">
<title>Node27</title>
<g id="a_Node000027"><a xlink:href="../../d2/dc8/universal_2include_2userver_2formats_2parse_2to_8hpp.html" target="_top" xlink:title="Helper for parsers.">
<polygon fill="white" stroke="#666666" points="835.5,-151 710.5,-151 710.5,-121 835.5,-121 835.5,-151"/>
<text text-anchor="start" x="718.5" y="-139" font-family="Helvetica,sans-Serif" font-size="10.00">userver/formats/parse</text>
<text text-anchor="middle" x="773" y="-128" font-family="Helvetica,sans-Serif" font-size="10.00">/to.hpp</text>
</a>
</g>
</g>
<!-- Node26&#45;&gt;Node27 -->
<g id="edge42_Node000026_Node000027" class="edge">
<title>Node26&#45;&gt;Node27</title>
<g id="a_edge42_Node000026_Node000027"><a xlink:title=" ">
<path fill="none" stroke="#63b8ff" d="M919.74,-186.95C891.46,-177.33 853.75,-164.49 823.65,-154.24"/>
<polygon fill="#63b8ff" stroke="#63b8ff" points="824.76,-150.92 814.16,-151.01 822.5,-157.55 824.76,-150.92"/>
</a>
</g>
</g>
<!-- Node28 -->
<g id="Node000028" class="node">
<title>Node28</title>
<g id="a_Node000028"><a xlink:href="../../d6/d8e/universal_2include_2userver_2formats_2serialize_2to_8hpp.html" target="_top" xlink:title="Helper for serializers.">
<polygon fill="white" stroke="#666666" points="992.5,-151 853.5,-151 853.5,-121 992.5,-121 992.5,-151"/>
<text text-anchor="start" x="861.5" y="-139" font-family="Helvetica,sans-Serif" font-size="10.00">userver/formats/serialize</text>
<text text-anchor="middle" x="923" y="-128" font-family="Helvetica,sans-Serif" font-size="10.00">/to.hpp</text>
</a>
</g>
</g>
<!-- Node26&#45;&gt;Node28 -->
<g id="edge43_Node000026_Node000028" class="edge">
<title>Node26&#45;&gt;Node28</title>
<g id="a_edge43_Node000026_Node000028"><a xlink:title=" ">
<path fill="none" stroke="#63b8ff" d="M952.57,-186.8C947.89,-178.92 941.97,-168.95 936.65,-159.99"/>
<polygon fill="#63b8ff" stroke="#63b8ff" points="939.52,-157.98 931.41,-151.16 933.51,-161.55 939.52,-157.98"/>
</a>
</g>
</g>
<!-- Node29 -->
<g id="Node000029" class="node">
<title>Node29</title>
<g id="a_Node000029"><a xlink:href="../../d3/da0/meta__light_8hpp.html" target="_top" xlink:title="Lightweight concepts.">
<polygon fill="white" stroke="#666666" points="1193,-151 1087,-151 1087,-121 1193,-121 1193,-151"/>
<text text-anchor="start" x="1095" y="-139" font-family="Helvetica,sans-Serif" font-size="10.00">userver/utils/meta</text>
<text text-anchor="middle" x="1140" y="-128" font-family="Helvetica,sans-Serif" font-size="10.00">_light.hpp</text>
</a>
</g>
</g>
<!-- Node26&#45;&gt;Node29 -->
<g id="edge44_Node000026_Node000029" class="edge">
<title>Node26&#45;&gt;Node29</title>
<g id="a_edge44_Node000026_Node000029"><a xlink:title=" ">
<path fill="none" stroke="#63b8ff" d="M1000.28,-186.95C1026.98,-177.41 1062.49,-164.71 1091.03,-154.51"/>
<polygon fill="#63b8ff" stroke="#63b8ff" points="1092.57,-157.67 1100.81,-151.01 1090.21,-151.08 1092.57,-157.67"/>
</a>
</g>
</g>
<!-- Node29&#45;&gt;Node10 -->
<g id="edge45_Node000029_Node000010" class="edge">
<title>Node29&#45;&gt;Node10</title>
<g id="a_edge45_Node000029_Node000010"><a xlink:title=" ">
<path fill="none" stroke="#63b8ff" d="M1154.07,-120.84C1162.71,-111.41 1173.36,-98.33 1180,-85 1188.91,-67.12 1193.9,-44.68 1196.5,-29.13"/>
<polygon fill="#63b8ff" stroke="#63b8ff" points="1199.97,-29.59 1198,-19.18 1193.05,-28.55 1199.97,-29.59"/>
</a>
</g>
</g>
<!-- Node29&#45;&gt;Node30 -->
<g id="edge46_Node000029_Node000030" class="edge">
<title>Node29&#45;&gt;Node30</title>
<g id="a_edge46_Node000029_Node000030"><a xlink:title=" ">
<path fill="none" stroke="#63b8ff" d="M1135.56,-120.8C1133.18,-113.17 1130.18,-103.57 1127.45,-94.84"/>
<polygon fill="#63b8ff" stroke="#63b8ff" points="1130.75,-93.66 1124.43,-85.16 1124.07,-95.75 1130.75,-93.66"/>
</a>
</g>
</g>
<!-- Node30&#45;&gt;Node10 -->
<g id="edge47_Node000030_Node000010" class="edge">
<title>Node30&#45;&gt;Node10</title>
<g id="a_edge47_Node000030_Node000010"><a xlink:title=" ">
<path fill="none" stroke="#63b8ff" d="M1139.12,-54.84C1151.18,-45.91 1166.71,-34.41 1178.94,-25.35"/>
<polygon fill="#63b8ff" stroke="#63b8ff" points="1181.21,-28.03 1187.16,-19.27 1177.04,-22.4 1181.21,-28.03"/>
</a>
</g>
</g>
<!-- Node31&#45;&gt;Node10 -->
<g id="edge52_Node000031_Node000010" class="edge">
<title>Node31&#45;&gt;Node10</title>
<g id="a_edge52_Node000031_Node000010"><a xlink:title=" ">
<path fill="none" stroke="#63b8ff" d="M1195.39,-192.48C1204.84,-190.67 1214.75,-188.77 1224,-187 1265.99,-178.97 1385.74,-183.94 1413,-151 1467.17,-85.54 1321.1,-39.5 1243.65,-20.37"/>
<polygon fill="#63b8ff" stroke="#63b8ff" points="1244.2,-16.91 1233.65,-17.96 1242.55,-23.71 1244.2,-16.91"/>
</a>
</g>
</g>
<!-- Node31&#45;&gt;Node22 -->
<g id="edge49_Node000031_Node000022" class="edge">
<title>Node31&#45;&gt;Node22</title>
<g id="a_edge49_Node000031_Node000022"><a xlink:title=" ">
<path fill="none" stroke="#63b8ff" d="M1194.58,-192.43C1204.26,-190.59 1214.47,-188.69 1224,-187 1322.43,-169.58 1349.32,-176.39 1446,-151 1448.44,-150.36 1450.94,-149.62 1453.44,-148.83"/>
<polygon fill="#63b8ff" stroke="#63b8ff" points="1454.6,-152.13 1462.93,-145.58 1452.33,-145.51 1454.6,-152.13"/>
</a>
</g>
</g>
<!-- Node31&#45;&gt;Node29 -->
<g id="edge54_Node000031_Node000029" class="edge">
<title>Node31&#45;&gt;Node29</title>
<g id="a_edge54_Node000031_Node000029"><a xlink:title=" ">
<path fill="none" stroke="#63b8ff" d="M1149.52,-192.37C1148.15,-184.4 1146.05,-172.2 1144.17,-161.27"/>
<polygon fill="#63b8ff" stroke="#63b8ff" points="1147.61,-160.62 1142.47,-151.36 1140.71,-161.81 1147.61,-160.62"/>
</a>
</g>
</g>
<!-- Node32 -->
<g id="Node000032" class="node">
<title>Node32</title>
<g id="a_Node000032"><a xlink:title=" ">
<polygon fill="#e0e0e0" stroke="#999999" points="1329.5,-145.5 1276.5,-145.5 1276.5,-126.5 1329.5,-126.5 1329.5,-145.5"/>
<text text-anchor="middle" x="1303" y="-133.5" font-family="Helvetica,sans-Serif" font-size="10.00">iterator</text>
</a>
</g>
</g>
<!-- Node31&#45;&gt;Node32 -->
<g id="edge50_Node000031_Node000032" class="edge">
<title>Node31&#45;&gt;Node32</title>
<g id="a_edge50_Node000031_Node000032"><a xlink:title=" ">
<path fill="none" stroke="#63b8ff" d="M1171.5,-192.37C1197.56,-181.39 1242.78,-162.36 1272.79,-149.72"/>
<polygon fill="#63b8ff" stroke="#63b8ff" points="1274.48,-152.81 1282.34,-145.7 1271.77,-146.35 1274.48,-152.81"/>
</a>
</g>
</g>
<!-- Node33 -->
<g id="Node000033" class="node">
<title>Node33</title>
<g id="a_Node000033"><a xlink:title=" ">
<polygon fill="#e0e0e0" stroke="#999999" points="1404,-145.5 1348,-145.5 1348,-126.5 1404,-126.5 1404,-145.5"/>
<text text-anchor="middle" x="1376" y="-133.5" font-family="Helvetica,sans-Serif" font-size="10.00">optional</text>
</a>
</g>
</g>
<!-- Node31&#45;&gt;Node33 -->
<g id="edge51_Node000031_Node000033" class="edge">
<title>Node31&#45;&gt;Node33</title>
<g id="a_edge51_Node000031_Node000033"><a xlink:title=" ">
<path fill="none" stroke="#63b8ff" d="M1187.36,-192.5C1225.46,-183.31 1286.91,-167.73 1339,-151 1340.91,-150.39 1342.87,-149.73 1344.84,-149.05"/>
<polygon fill="#63b8ff" stroke="#63b8ff" points="1346.39,-152.21 1354.61,-145.52 1344.01,-145.62 1346.39,-152.21"/>
</a>
</g>
</g>
<!-- Node34 -->
<g id="Node000034" class="node">
<title>Node34</title>
<g id="a_Node000034"><a xlink:title=" ">
<polygon fill="#e0e0e0" stroke="#999999" points="1258.5,-145.5 1211.5,-145.5 1211.5,-126.5 1258.5,-126.5 1258.5,-145.5"/>
<text text-anchor="middle" x="1235" y="-133.5" font-family="Helvetica,sans-Serif" font-size="10.00">vector</text>
</a>
</g>
</g>
<!-- Node31&#45;&gt;Node34 -->
<g id="edge53_Node000031_Node000034" class="edge">
<title>Node31&#45;&gt;Node34</title>
<g id="a_edge53_Node000031_Node000034"><a xlink:title=" ">
<path fill="none" stroke="#63b8ff" d="M1162.33,-192.37C1175.86,-182.06 1198.72,-164.65 1215.19,-152.09"/>
<polygon fill="#63b8ff" stroke="#63b8ff" points="1217.75,-154.54 1223.58,-145.7 1213.51,-148.98 1217.75,-154.54"/>
</a>
</g>
</g>
<!-- Node35&#45;&gt;Node10 -->
<g id="edge56_Node000035_Node000010" class="edge">
<title>Node35&#45;&gt;Node10</title>
<g id="a_edge56_Node000035_Node000010"><a xlink:title=" ">
<path fill="none" stroke="#63b8ff" d="M1470.88,-186.95C1488.64,-179.34 1506.7,-167.91 1517,-151 1523.94,-139.62 1523.88,-132.42 1517,-121 1460.7,-27.61 1317.56,-11.65 1244.06,-9.87"/>
<polygon fill="#63b8ff" stroke="#63b8ff" points="1243.79,-6.36 1233.74,-9.7 1243.68,-13.36 1243.79,-6.36"/>
</a>
</g>
</g>
<!-- Node36&#45;&gt;Node2 -->
<g id="edge60_Node000036_Node000002" class="edge">
<title>Node36&#45;&gt;Node2</title>
<g id="a_edge60_Node000036_Node000002"><a xlink:title=" ">
<path fill="none" stroke="#63b8ff" d="M1494.28,-324.37C1489.04,-314.78 1480.43,-299.05 1473.73,-286.8"/>
<polygon fill="#63b8ff" stroke="#63b8ff" points="1476.74,-285 1468.87,-277.91 1470.6,-288.36 1476.74,-285"/>
</a>
</g>
</g>
<!-- Node36&#45;&gt;Node10 -->
<g id="edge61_Node000036_Node000010" class="edge">
<title>Node36&#45;&gt;Node10</title>
<g id="a_edge61_Node000036_Node000010"><a xlink:title=" ">
<path fill="none" stroke="#63b8ff" d="M1561.75,-325.23C1630.76,-312.77 1732,-281.17 1732,-203 1732,-203 1732,-203 1732,-135 1732,-35.06 1372.19,-15.3 1243.82,-11.43"/>
<polygon fill="#63b8ff" stroke="#63b8ff" points="1243.66,-7.93 1233.56,-11.14 1243.46,-14.92 1243.66,-7.93"/>
</a>
</g>
</g>
<!-- Node37 -->
<g id="Node000037" class="node">
<title>Node37</title>
<g id="a_Node000037"><a xlink:title=" ">
<polygon fill="#e0e0e0" stroke="#999999" points="1810,-277.5 1760,-277.5 1760,-258.5 1810,-258.5 1810,-277.5"/>
<text text-anchor="middle" x="1785" y="-265.5" font-family="Helvetica,sans-Serif" font-size="10.00">atomic</text>
</a>
</g>
</g>
<!-- Node36&#45;&gt;Node37 -->
<g id="edge59_Node000036_Node000037" class="edge">
<title>Node36&#45;&gt;Node37</title>
<g id="a_edge59_Node000036_Node000037"><a xlink:title=" ">
<path fill="none" stroke="#63b8ff" d="M1552.53,-324.47C1602.92,-315.9 1680.26,-301.35 1746,-283 1748.43,-282.32 1750.92,-281.57 1753.41,-280.77"/>
<polygon fill="#63b8ff" stroke="#63b8ff" points="1754.56,-284.08 1762.91,-277.56 1752.31,-277.45 1754.56,-284.08"/>
</a>
</g>
</g>
</g>
</svg>
