<?xml version="1.0" encoding="UTF-8" standalone="no"?>
<!DOCTYPE svg PUBLIC "-//W3C//DTD SVG 1.1//EN"
 "http://www.w3.org/Graphics/SVG/1.1/DTD/svg11.dtd">
<!-- Generated by graphviz version 2.43.0 (0)
 -->
<!-- Title: userver/dynamic_config/source.hpp Pages: 1 -->
<svg width="1015pt" height="236pt"
 viewBox="0.00 0.00 1015.18 236.00" xmlns="http://www.w3.org/2000/svg" xmlns:xlink="http://www.w3.org/1999/xlink">
<g id="graph0" class="graph" transform="scale(1 1) rotate(0) translate(4 232)">
<title>userver/dynamic_config/source.hpp</title>
<!-- Node1 -->
<g id="Node000001" class="node">
<title>Node1</title>
<g id="a_Node000001"><a xlink:title="A client for easy dynamic config fetching in components.">
<polygon fill="#999999" stroke="#666666" points="290.18,-228 157.18,-228 157.18,-198 290.18,-198 290.18,-228"/>
<text text-anchor="start" x="165.18" y="-216" font-family="Helvetica,sans-Serif" font-size="10.00">userver/dynamic_config</text>
<text text-anchor="middle" x="223.68" y="-205" font-family="Helvetica,sans-Serif" font-size="10.00">/source.hpp</text>
</a>
</g>
</g>
<!-- Node2 -->
<g id="Node000002" class="node">
<title>Node2</title>
<g id="a_Node000002"><a xlink:title=" ">
<polygon fill="#e0e0e0" stroke="#999999" points="117.18,-90.5 44.18,-90.5 44.18,-71.5 117.18,-71.5 117.18,-90.5"/>
<text text-anchor="middle" x="80.68" y="-78.5" font-family="Helvetica,sans-Serif" font-size="10.00">string_view</text>
</a>
</g>
</g>
<!-- Node1&#45;&gt;Node2 -->
<g id="edge1_Node000001_Node000002" class="edge">
<title>Node1&#45;&gt;Node2</title>
<g id="a_edge1_Node000001_Node000002"><a xlink:title=" ">
<path fill="none" stroke="#63b8ff" d="M157.14,-205.75C100.15,-198.86 24.4,-185.5 5.68,-162 -14.12,-137.14 23.8,-110.69 52.58,-95.29"/>
<polygon fill="#63b8ff" stroke="#63b8ff" points="54.22,-98.38 61.51,-90.69 51.02,-92.15 54.22,-98.38"/>
</a>
</g>
</g>
<!-- Node3 -->
<g id="Node000003" class="node">
<title>Node3</title>
<g id="a_Node000003"><a xlink:title=" ">
<polygon fill="#e0e0e0" stroke="#999999" points="607.18,-156.5 566.18,-156.5 566.18,-137.5 607.18,-137.5 607.18,-156.5"/>
<text text-anchor="middle" x="586.68" y="-144.5" font-family="Helvetica,sans-Serif" font-size="10.00">tuple</text>
</a>
</g>
</g>
<!-- Node1&#45;&gt;Node3 -->
<g id="edge2_Node000001_Node000003" class="edge">
<title>Node1&#45;&gt;Node3</title>
<g id="a_edge2_Node000001_Node000003"><a xlink:title=" ">
<path fill="none" stroke="#63b8ff" d="M290.27,-207.95C358.63,-202.43 467.48,-189.82 557.68,-162 558.95,-161.61 560.22,-161.17 561.5,-160.7"/>
<polygon fill="#63b8ff" stroke="#63b8ff" points="563.27,-163.75 571.08,-156.59 560.51,-157.32 563.27,-163.75"/>
</a>
</g>
</g>
<!-- Node4 -->
<g id="Node000004" class="node">
<title>Node4</title>
<g id="a_Node000004"><a xlink:title=" ">
<polygon fill="#e0e0e0" stroke="#999999" points="284.18,-24.5 239.18,-24.5 239.18,-5.5 284.18,-5.5 284.18,-24.5"/>
<text text-anchor="middle" x="261.68" y="-12.5" font-family="Helvetica,sans-Serif" font-size="10.00">utility</text>
</a>
</g>
</g>
<!-- Node1&#45;&gt;Node4 -->
<g id="edge3_Node000001_Node000004" class="edge">
<title>Node1&#45;&gt;Node4</title>
<g id="a_edge3_Node000001_Node000004"><a xlink:title=" ">
<path fill="none" stroke="#63b8ff" d="M213.92,-197.91C196.51,-170.88 164.05,-110.5 187.68,-66 196.6,-49.22 213.94,-37.04 229.59,-28.91"/>
<polygon fill="#63b8ff" stroke="#63b8ff" points="231.54,-31.86 239.03,-24.37 228.5,-25.55 231.54,-31.86"/>
</a>
</g>
</g>
<!-- Node5 -->
<g id="Node000005" class="node">
<title>Node5</title>
<g id="a_Node000005"><a xlink:href="../../d4/de4/async__event__source_8hpp.html" target="_top" xlink:title="The read&#45;only side of an event channel. Events are delivered to listeners in a strict FIFO order,...">
<polygon fill="white" stroke="#666666" points="354.68,-162 214.68,-162 214.68,-132 354.68,-132 354.68,-162"/>
<text text-anchor="start" x="222.68" y="-150" font-family="Helvetica,sans-Serif" font-size="10.00">userver/concurrent</text>
<text text-anchor="middle" x="284.68" y="-139" font-family="Helvetica,sans-Serif" font-size="10.00">/async_event_source.hpp</text>
</a>
</g>
</g>
<!-- Node1&#45;&gt;Node5 -->
<g id="edge4_Node000001_Node000005" class="edge">
<title>Node1&#45;&gt;Node5</title>
<g id="a_edge4_Node000001_Node000005"><a xlink:title=" ">
<path fill="none" stroke="#63b8ff" d="M237.22,-197.8C245.12,-189.51 255.24,-178.89 264.11,-169.59"/>
<polygon fill="#63b8ff" stroke="#63b8ff" points="266.82,-171.82 271.18,-162.16 261.75,-166.99 266.82,-171.82"/>
</a>
</g>
</g>
<!-- Node9 -->
<g id="Node000009" class="node">
<title>Node9</title>
<g id="a_Node000009"><a xlink:href="../../df/d22/snapshot_8hpp.html" target="_top" xlink:title="The storage for a snapshot of configs.">
<polygon fill="white" stroke="#666666" points="548.18,-162 415.18,-162 415.18,-132 548.18,-132 548.18,-162"/>
<text text-anchor="start" x="423.18" y="-150" font-family="Helvetica,sans-Serif" font-size="10.00">userver/dynamic_config</text>
<text text-anchor="middle" x="481.68" y="-139" font-family="Helvetica,sans-Serif" font-size="10.00">/snapshot.hpp</text>
</a>
</g>
</g>
<!-- Node1&#45;&gt;Node9 -->
<g id="edge10_Node000001_Node000009" class="edge">
<title>Node1&#45;&gt;Node9</title>
<g id="a_edge10_Node000001_Node000009"><a xlink:title=" ">
<path fill="none" stroke="#63b8ff" d="M280.3,-197.95C320.13,-188.08 373.56,-174.82 415.38,-164.45"/>
<polygon fill="#63b8ff" stroke="#63b8ff" points="416.33,-167.82 425.2,-162.01 414.65,-161.02 416.33,-167.82"/>
</a>
</g>
</g>
<!-- Node20 -->
<g id="Node000020" class="node">
<title>Node20</title>
<g id="a_Node000020"><a xlink:href="../../d2/d54/assert_8hpp.html" target="_top" xlink:title="Assertion macros UASSERT, UASSERT_MSG, UINVARIANT.">
<polygon fill="white" stroke="#666666" points="146.18,-156.5 15.18,-156.5 15.18,-137.5 146.18,-137.5 146.18,-156.5"/>
<text text-anchor="middle" x="80.68" y="-144.5" font-family="Helvetica,sans-Serif" font-size="10.00">userver/utils/assert.hpp</text>
</a>
</g>
</g>
<!-- Node1&#45;&gt;Node20 -->
<g id="edge27_Node000001_Node000020" class="edge">
<title>Node1&#45;&gt;Node20</title>
<g id="a_edge27_Node000001_Node000020"><a xlink:title=" ">
<path fill="none" stroke="#63b8ff" d="M192.3,-197.95C167.44,-186.83 133.02,-171.42 109,-160.67"/>
<polygon fill="#63b8ff" stroke="#63b8ff" points="110.27,-157.41 99.71,-156.52 107.41,-163.8 110.27,-157.41"/>
</a>
</g>
</g>
<!-- Node5&#45;&gt;Node2 -->
<g id="edge7_Node000005_Node000002" class="edge">
<title>Node5&#45;&gt;Node2</title>
<g id="a_edge7_Node000005_Node000002"><a xlink:title=" ">
<path fill="none" stroke="#63b8ff" d="M239.92,-131.95C203.19,-120.43 151.84,-104.32 117.48,-93.54"/>
<polygon fill="#63b8ff" stroke="#63b8ff" points="118.42,-90.17 107.83,-90.52 116.33,-96.85 118.42,-90.17"/>
</a>
</g>
</g>
<!-- Node5&#45;&gt;Node4 -->
<g id="edge9_Node000005_Node000004" class="edge">
<title>Node5&#45;&gt;Node4</title>
<g id="a_edge9_Node000005_Node000004"><a xlink:title=" ">
<path fill="none" stroke="#63b8ff" d="M282.23,-131.83C279.45,-115.84 274.77,-89.05 270.68,-66 268.86,-55.75 266.81,-44.33 265.12,-34.99"/>
<polygon fill="#63b8ff" stroke="#63b8ff" points="268.51,-34.07 263.29,-24.85 261.63,-35.31 268.51,-34.07"/>
</a>
</g>
</g>
<!-- Node6 -->
<g id="Node000006" class="node">
<title>Node6</title>
<g id="a_Node000006"><a xlink:title=" ">
<polygon fill="#e0e0e0" stroke="#999999" points="355.18,-24.5 302.18,-24.5 302.18,-5.5 355.18,-5.5 355.18,-24.5"/>
<text text-anchor="middle" x="328.68" y="-12.5" font-family="Helvetica,sans-Serif" font-size="10.00">cstddef</text>
</a>
</g>
</g>
<!-- Node5&#45;&gt;Node6 -->
<g id="edge5_Node000005_Node000006" class="edge">
<title>Node5&#45;&gt;Node6</title>
<g id="a_edge5_Node000005_Node000006"><a xlink:title=" ">
<path fill="none" stroke="#63b8ff" d="M289.48,-131.84C297.5,-108.13 313.65,-60.41 322.52,-34.23"/>
<polygon fill="#63b8ff" stroke="#63b8ff" points="325.83,-35.34 325.72,-24.75 319.2,-33.1 325.83,-35.34"/>
</a>
</g>
</g>
<!-- Node7 -->
<g id="Node000007" class="node">
<title>Node7</title>
<g id="a_Node000007"><a xlink:title=" ">
<polygon fill="#e0e0e0" stroke="#999999" points="262.18,-90.5 197.18,-90.5 197.18,-71.5 262.18,-71.5 262.18,-90.5"/>
<text text-anchor="middle" x="229.68" y="-78.5" font-family="Helvetica,sans-Serif" font-size="10.00">functional</text>
</a>
</g>
</g>
<!-- Node5&#45;&gt;Node7 -->
<g id="edge6_Node000005_Node000007" class="edge">
<title>Node5&#45;&gt;Node7</title>
<g id="a_edge6_Node000005_Node000007"><a xlink:title=" ">
<path fill="none" stroke="#63b8ff" d="M272.48,-131.8C264.07,-122.01 252.87,-108.98 244.04,-98.7"/>
<polygon fill="#63b8ff" stroke="#63b8ff" points="246.46,-96.15 237.28,-90.84 241.15,-100.71 246.46,-96.15"/>
</a>
</g>
</g>
<!-- Node8 -->
<g id="Node000008" class="node">
<title>Node8</title>
<g id="a_Node000008"><a xlink:title=" ">
<polygon fill="#e0e0e0" stroke="#999999" points="572.18,-24.5 515.18,-24.5 515.18,-5.5 572.18,-5.5 572.18,-24.5"/>
<text text-anchor="middle" x="543.68" y="-12.5" font-family="Helvetica,sans-Serif" font-size="10.00">typeinfo</text>
</a>
</g>
</g>
<!-- Node5&#45;&gt;Node8 -->
<g id="edge8_Node000005_Node000008" class="edge">
<title>Node5&#45;&gt;Node8</title>
<g id="a_edge8_Node000005_Node000008"><a xlink:title=" ">
<path fill="none" stroke="#63b8ff" d="M354.71,-135.6C389.78,-128.24 431.87,-115.99 465.68,-96 492.99,-79.86 517.23,-51.71 531.19,-33.47"/>
<polygon fill="#63b8ff" stroke="#63b8ff" points="534.36,-35.06 537.51,-24.95 528.74,-30.89 534.36,-35.06"/>
</a>
</g>
</g>
<!-- Node10 -->
<g id="Node000010" class="node">
<title>Node10</title>
<g id="a_Node000010"><a xlink:title=" ">
<polygon fill="#e0e0e0" stroke="#999999" points="761.68,-90.5 705.68,-90.5 705.68,-71.5 761.68,-71.5 761.68,-90.5"/>
<text text-anchor="middle" x="733.68" y="-78.5" font-family="Helvetica,sans-Serif" font-size="10.00">optional</text>
</a>
</g>
</g>
<!-- Node9&#45;&gt;Node10 -->
<g id="edge11_Node000009_Node000010" class="edge">
<title>Node9&#45;&gt;Node10</title>
<g id="a_edge11_Node000009_Node000010"><a xlink:title=" ">
<path fill="none" stroke="#63b8ff" d="M548.63,-132.83C591.37,-123.84 647.74,-110.88 696.68,-96 698.61,-95.42 700.57,-94.78 702.55,-94.12"/>
<polygon fill="#63b8ff" stroke="#63b8ff" points="704.08,-97.29 712.33,-90.63 701.73,-90.69 704.08,-97.29"/>
</a>
</g>
</g>
<!-- Node11 -->
<g id="Node000011" class="node">
<title>Node11</title>
<g id="a_Node000011"><a xlink:title=" ">
<polygon fill="#e0e0e0" stroke="#999999" points="497.18,-24.5 428.18,-24.5 428.18,-5.5 497.18,-5.5 497.18,-24.5"/>
<text text-anchor="middle" x="462.68" y="-12.5" font-family="Helvetica,sans-Serif" font-size="10.00">type_traits</text>
</a>
</g>
</g>
<!-- Node9&#45;&gt;Node11 -->
<g id="edge12_Node000009_Node000011" class="edge">
<title>Node9&#45;&gt;Node11</title>
<g id="a_edge12_Node000009_Node000011"><a xlink:title=" ">
<path fill="none" stroke="#63b8ff" d="M479.61,-131.84C476.18,-108.34 469.3,-61.26 465.45,-34.93"/>
<polygon fill="#63b8ff" stroke="#63b8ff" points="468.87,-34.14 463.96,-24.75 461.95,-35.15 468.87,-34.14"/>
</a>
</g>
</g>
<!-- Node12 -->
<g id="Node000012" class="node">
<title>Node12</title>
<g id="a_Node000012"><a xlink:href="../../d8/d20/impl_2snapshot_8hpp_source.html" target="_top" xlink:title=" ">
<polygon fill="white" stroke="#666666" points="687.18,-96 554.18,-96 554.18,-66 687.18,-66 687.18,-96"/>
<text text-anchor="start" x="562.18" y="-84" font-family="Helvetica,sans-Serif" font-size="10.00">userver/dynamic_config</text>
<text text-anchor="middle" x="620.68" y="-73" font-family="Helvetica,sans-Serif" font-size="10.00">/impl/snapshot.hpp</text>
</a>
</g>
</g>
<!-- Node9&#45;&gt;Node12 -->
<g id="edge13_Node000009_Node000012" class="edge">
<title>Node9&#45;&gt;Node12</title>
<g id="a_edge13_Node000009_Node000012"><a xlink:title=" ">
<path fill="none" stroke="#63b8ff" d="M512.19,-131.95C532.38,-122.66 559.05,-110.38 580.9,-100.32"/>
<polygon fill="#63b8ff" stroke="#63b8ff" points="582.63,-103.37 590.25,-96.01 579.7,-97.02 582.63,-103.37"/>
</a>
</g>
</g>
<!-- Node18 -->
<g id="Node000018" class="node">
<title>Node18</title>
<g id="a_Node000018"><a xlink:href="../../d5/d02/fast__pimpl_8hpp.html" target="_top" xlink:title="Implements pimpl idiom without dynamic memory allocation.">
<polygon fill="white" stroke="#666666" points="456.18,-96 357.18,-96 357.18,-66 456.18,-66 456.18,-96"/>
<text text-anchor="start" x="365.18" y="-84" font-family="Helvetica,sans-Serif" font-size="10.00">userver/utils/fast</text>
<text text-anchor="middle" x="406.68" y="-73" font-family="Helvetica,sans-Serif" font-size="10.00">_pimpl.hpp</text>
</a>
</g>
</g>
<!-- Node9&#45;&gt;Node18 -->
<g id="edge22_Node000009_Node000018" class="edge">
<title>Node9&#45;&gt;Node18</title>
<g id="a_edge22_Node000009_Node000018"><a xlink:title=" ">
<path fill="none" stroke="#63b8ff" d="M465.04,-131.8C455.04,-123.26 442.13,-112.25 431.01,-102.75"/>
<polygon fill="#63b8ff" stroke="#63b8ff" points="433.16,-99.99 423.28,-96.16 428.62,-105.32 433.16,-99.99"/>
</a>
</g>
</g>
<!-- Node12&#45;&gt;Node6 -->
<g id="edge15_Node000012_Node000006" class="edge">
<title>Node12&#45;&gt;Node6</title>
<g id="a_edge15_Node000012_Node000006"><a xlink:title=" ">
<path fill="none" stroke="#63b8ff" d="M554.1,-70.58C501.73,-62.32 427.24,-48.71 363.68,-30 361.75,-29.43 359.78,-28.8 357.81,-28.12"/>
<polygon fill="#63b8ff" stroke="#63b8ff" points="358.67,-24.71 348.08,-24.51 356.23,-31.27 358.67,-24.71"/>
</a>
</g>
</g>
<!-- Node12&#45;&gt;Node8 -->
<g id="edge19_Node000012_Node000008" class="edge">
<title>Node12&#45;&gt;Node8</title>
<g id="a_edge19_Node000012_Node000008"><a xlink:title=" ">
<path fill="none" stroke="#63b8ff" d="M603.6,-65.8C591.36,-55.62 574.88,-41.93 562.31,-31.48"/>
<polygon fill="#63b8ff" stroke="#63b8ff" points="564.25,-28.54 554.32,-24.84 559.78,-33.93 564.25,-28.54"/>
</a>
</g>
</g>
<!-- Node12&#45;&gt;Node11 -->
<g id="edge17_Node000012_Node000011" class="edge">
<title>Node12&#45;&gt;Node11</title>
<g id="a_edge17_Node000012_Node000011"><a xlink:title=" ">
<path fill="none" stroke="#63b8ff" d="M586.01,-65.95C558.3,-54.73 519.84,-39.15 493.26,-28.39"/>
<polygon fill="#63b8ff" stroke="#63b8ff" points="494.29,-25.03 483.71,-24.52 491.67,-31.52 494.29,-25.03"/>
</a>
</g>
</g>
<!-- Node13 -->
<g id="Node000013" class="node">
<title>Node13</title>
<g id="a_Node000013"><a xlink:title=" ">
<polygon fill="#e0e0e0" stroke="#999999" points="1007.18,-24.5 972.18,-24.5 972.18,-5.5 1007.18,-5.5 1007.18,-24.5"/>
<text text-anchor="middle" x="989.68" y="-12.5" font-family="Helvetica,sans-Serif" font-size="10.00">any</text>
</a>
</g>
</g>
<!-- Node12&#45;&gt;Node13 -->
<g id="edge14_Node000012_Node000013" class="edge">
<title>Node12&#45;&gt;Node13</title>
<g id="a_edge14_Node000012_Node000013"><a xlink:title=" ">
<path fill="none" stroke="#63b8ff" d="M687.38,-67.53C690.52,-67 693.64,-66.49 696.68,-66 814.93,-47.15 849.8,-66.98 963.68,-30 964.73,-29.66 965.79,-29.28 966.84,-28.86"/>
<polygon fill="#63b8ff" stroke="#63b8ff" points="968.51,-31.95 976.06,-24.52 965.52,-25.62 968.51,-31.95"/>
</a>
</g>
</g>
<!-- Node14 -->
<g id="Node000014" class="node">
<title>Node14</title>
<g id="a_Node000014"><a xlink:title=" ">
<polygon fill="#e0e0e0" stroke="#999999" points="655.18,-24.5 590.18,-24.5 590.18,-5.5 655.18,-5.5 655.18,-24.5"/>
<text text-anchor="middle" x="622.68" y="-12.5" font-family="Helvetica,sans-Serif" font-size="10.00">exception</text>
</a>
</g>
</g>
<!-- Node12&#45;&gt;Node14 -->
<g id="edge16_Node000012_Node000014" class="edge">
<title>Node12&#45;&gt;Node14</title>
<g id="a_edge16_Node000012_Node000014"><a xlink:title=" ">
<path fill="none" stroke="#63b8ff" d="M621.13,-65.8C621.41,-56.7 621.78,-44.79 622.09,-34.9"/>
<polygon fill="#63b8ff" stroke="#63b8ff" points="625.59,-34.95 622.41,-24.84 618.6,-34.73 625.59,-34.95"/>
</a>
</g>
</g>
<!-- Node15 -->
<g id="Node000015" class="node">
<title>Node15</title>
<g id="a_Node000015"><a xlink:title=" ">
<polygon fill="#e0e0e0" stroke="#999999" points="738.18,-24.5 673.18,-24.5 673.18,-5.5 738.18,-5.5 738.18,-24.5"/>
<text text-anchor="middle" x="705.68" y="-12.5" font-family="Helvetica,sans-Serif" font-size="10.00">typeindex</text>
</a>
</g>
</g>
<!-- Node12&#45;&gt;Node15 -->
<g id="edge18_Node000012_Node000015" class="edge">
<title>Node12&#45;&gt;Node15</title>
<g id="a_edge18_Node000012_Node000015"><a xlink:title=" ">
<path fill="none" stroke="#63b8ff" d="M639.55,-65.8C653.32,-55.43 671.94,-41.4 685.92,-30.88"/>
<polygon fill="#63b8ff" stroke="#63b8ff" points="688.05,-33.66 693.94,-24.84 683.84,-28.06 688.05,-33.66"/>
</a>
</g>
</g>
<!-- Node16 -->
<g id="Node000016" class="node">
<title>Node16</title>
<g id="a_Node000016"><a xlink:title=" ">
<polygon fill="#e0e0e0" stroke="#999999" points="803.18,-24.5 756.18,-24.5 756.18,-5.5 803.18,-5.5 803.18,-24.5"/>
<text text-anchor="middle" x="779.68" y="-12.5" font-family="Helvetica,sans-Serif" font-size="10.00">vector</text>
</a>
</g>
</g>
<!-- Node12&#45;&gt;Node16 -->
<g id="edge20_Node000012_Node000016" class="edge">
<title>Node12&#45;&gt;Node16</title>
<g id="a_edge20_Node000012_Node000016"><a xlink:title=" ">
<path fill="none" stroke="#63b8ff" d="M657.51,-65.92C682.94,-56.09 717.49,-42.55 747.68,-30 748.85,-29.52 750.04,-29.02 751.24,-28.51"/>
<polygon fill="#63b8ff" stroke="#63b8ff" points="752.64,-31.72 760.44,-24.56 749.87,-25.29 752.64,-31.72"/>
</a>
</g>
</g>
<!-- Node17 -->
<g id="Node000017" class="node">
<title>Node17</title>
<g id="a_Node000017"><a xlink:href="../../df/d7e/core_2include_2userver_2dynamic__config_2fwd_8hpp.html" target="_top" xlink:title="Forward declarations of dynamic_config classes.">
<polygon fill="white" stroke="#666666" points="954.18,-30 821.18,-30 821.18,0 954.18,0 954.18,-30"/>
<text text-anchor="start" x="829.18" y="-18" font-family="Helvetica,sans-Serif" font-size="10.00">userver/dynamic_config</text>
<text text-anchor="middle" x="887.68" y="-7" font-family="Helvetica,sans-Serif" font-size="10.00">/fwd.hpp</text>
</a>
</g>
</g>
<!-- Node12&#45;&gt;Node17 -->
<g id="edge21_Node000012_Node000017" class="edge">
<title>Node12&#45;&gt;Node17</title>
<g id="a_edge21_Node000012_Node000017"><a xlink:title=" ">
<path fill="none" stroke="#63b8ff" d="M679.28,-65.95C720.58,-56.06 776.02,-42.77 819.34,-32.38"/>
<polygon fill="#63b8ff" stroke="#63b8ff" points="820.32,-35.75 829.23,-30.01 818.69,-28.94 820.32,-35.75"/>
</a>
</g>
</g>
<!-- Node18&#45;&gt;Node4 -->
<g id="edge26_Node000018_Node000004" class="edge">
<title>Node18&#45;&gt;Node4</title>
<g id="a_edge26_Node000018_Node000004"><a xlink:title=" ">
<path fill="none" stroke="#63b8ff" d="M374.21,-65.87C351.38,-55.91 320.13,-42.22 292.68,-30 291.83,-29.62 290.97,-29.24 290.1,-28.85"/>
<polygon fill="#63b8ff" stroke="#63b8ff" points="291.24,-25.52 280.69,-24.62 288.38,-31.91 291.24,-25.52"/>
</a>
</g>
</g>
<!-- Node18&#45;&gt;Node6 -->
<g id="edge23_Node000018_Node000006" class="edge">
<title>Node18&#45;&gt;Node6</title>
<g id="a_edge23_Node000018_Node000006"><a xlink:title=" ">
<path fill="none" stroke="#63b8ff" d="M389.37,-65.8C376.97,-55.62 360.29,-41.93 347.55,-31.48"/>
<polygon fill="#63b8ff" stroke="#63b8ff" points="349.41,-28.48 339.46,-24.84 344.97,-33.89 349.41,-28.48"/>
</a>
</g>
</g>
<!-- Node18&#45;&gt;Node11 -->
<g id="edge25_Node000018_Node000011" class="edge">
<title>Node18&#45;&gt;Node11</title>
<g id="a_edge25_Node000018_Node000011"><a xlink:title=" ">
<path fill="none" stroke="#63b8ff" d="M419.11,-65.8C427.76,-55.92 439.31,-42.72 448.34,-32.39"/>
<polygon fill="#63b8ff" stroke="#63b8ff" points="450.99,-34.67 454.95,-24.84 445.73,-30.07 450.99,-34.67"/>
</a>
</g>
</g>
<!-- Node19 -->
<g id="Node000019" class="node">
<title>Node19</title>
<g id="a_Node000019"><a xlink:title=" ">
<polygon fill="#e0e0e0" stroke="#999999" points="410.18,-24.5 373.18,-24.5 373.18,-5.5 410.18,-5.5 410.18,-24.5"/>
<text text-anchor="middle" x="391.68" y="-12.5" font-family="Helvetica,sans-Serif" font-size="10.00">new</text>
</a>
</g>
</g>
<!-- Node18&#45;&gt;Node19 -->
<g id="edge24_Node000018_Node000019" class="edge">
<title>Node18&#45;&gt;Node19</title>
<g id="a_edge24_Node000018_Node000019"><a xlink:title=" ">
<path fill="none" stroke="#63b8ff" d="M403.35,-65.8C401.22,-56.7 398.43,-44.79 396.11,-34.9"/>
<polygon fill="#63b8ff" stroke="#63b8ff" points="399.45,-33.78 393.76,-24.84 392.63,-35.38 399.45,-33.78"/>
</a>
</g>
</g>
<!-- Node20&#45;&gt;Node2 -->
<g id="edge28_Node000020_Node000002" class="edge">
<title>Node20&#45;&gt;Node2</title>
<g id="a_edge28_Node000020_Node000002"><a xlink:title=" ">
<path fill="none" stroke="#63b8ff" d="M80.68,-137.37C80.68,-128.16 80.68,-113.29 80.68,-101.27"/>
<polygon fill="#63b8ff" stroke="#63b8ff" points="84.18,-100.91 80.68,-90.91 77.18,-100.91 84.18,-100.91"/>
</a>
</g>
</g>
</g>
</svg>
