<?xml version="1.0" encoding="UTF-8" standalone="no"?>
<!DOCTYPE svg PUBLIC "-//W3C//DTD SVG 1.1//EN"
 "http://www.w3.org/Graphics/SVG/1.1/DTD/svg11.dtd">
<!-- Generated by graphviz version 2.43.0 (0)
 -->
<!-- Title: userver/server/handlers/exceptions.hpp Pages: 1 -->
<svg width="2174pt" height="324pt"
 viewBox="0.00 0.00 2173.50 324.00" xmlns="http://www.w3.org/2000/svg" xmlns:xlink="http://www.w3.org/1999/xlink">
<g id="graph0" class="graph" transform="scale(1 1) rotate(0) translate(4 320)">
<title>userver/server/handlers/exceptions.hpp</title>
<!-- Node1 -->
<g id="Node000001" class="node">
<title>Node1</title>
<g id="a_Node000001"><a xlink:title="Helpers for throwing exceptions.">
<polygon fill="#999999" stroke="#666666" points="1452,-316 1320,-316 1320,-286 1452,-286 1452,-316"/>
<text text-anchor="start" x="1328" y="-304" font-family="Helvetica,sans-Serif" font-size="10.00">userver/server/handlers</text>
<text text-anchor="middle" x="1386" y="-293" font-family="Helvetica,sans-Serif" font-size="10.00">/exceptions.hpp</text>
</a>
</g>
</g>
<!-- Node2 -->
<g id="Node000002" class="node">
<title>Node2</title>
<g id="a_Node000002"><a xlink:href="../../da/dff/auth__checker__base_8hpp_source.html" target="_top" xlink:title=" ">
<polygon fill="white" stroke="#666666" points="1084,-250 926,-250 926,-220 1084,-220 1084,-250"/>
<text text-anchor="start" x="934" y="-238" font-family="Helvetica,sans-Serif" font-size="10.00">userver/server/handlers</text>
<text text-anchor="middle" x="1005" y="-227" font-family="Helvetica,sans-Serif" font-size="10.00">/auth/auth_checker_base.hpp</text>
</a>
</g>
</g>
<!-- Node1&#45;&gt;Node2 -->
<g id="edge1_Node000001_Node000002" class="edge">
<title>Node1&#45;&gt;Node2</title>
<g id="a_edge1_Node000001_Node000002"><a xlink:title=" ">
<path fill="none" stroke="#63b8ff" d="M1309.39,-287.13C1243.97,-276.14 1150.24,-260.4 1084.11,-249.29"/>
<polygon fill="#63b8ff" stroke="#63b8ff" points="1309.19,-290.65 1319.63,-288.85 1310.35,-283.74 1309.19,-290.65"/>
</a>
</g>
</g>
<!-- Node6 -->
<g id="Node000006" class="node">
<title>Node6</title>
<g id="a_Node000006"><a xlink:href="../../d4/df6/http__handler__base_8hpp.html" target="_top" xlink:title="Base class for all the Userver HTTP Handlers.">
<polygon fill="white" stroke="#666666" points="1208,-178.5 1076,-178.5 1076,-148.5 1208,-148.5 1208,-178.5"/>
<text text-anchor="start" x="1084" y="-166.5" font-family="Helvetica,sans-Serif" font-size="10.00">userver/server/handlers</text>
<text text-anchor="middle" x="1142" y="-155.5" font-family="Helvetica,sans-Serif" font-size="10.00">/http_handler_base.hpp</text>
</a>
</g>
</g>
<!-- Node1&#45;&gt;Node6 -->
<g id="edge23_Node000001_Node000006" class="edge">
<title>Node1&#45;&gt;Node6</title>
<g id="a_edge23_Node000001_Node000006"><a xlink:title=" ">
<path fill="none" stroke="#63b8ff" d="M1309.87,-291.86C1253.06,-284.23 1181.82,-270.82 1161,-250 1142.08,-231.08 1140.19,-197.76 1140.86,-178.79"/>
<polygon fill="#63b8ff" stroke="#63b8ff" points="1309.56,-295.35 1319.93,-293.18 1310.47,-288.41 1309.56,-295.35"/>
</a>
</g>
</g>
<!-- Node22 -->
<g id="Node000022" class="node">
<title>Node22</title>
<g id="a_Node000022"><a xlink:href="../../df/dd5/handler__base_8hpp.html" target="_top" xlink:title="Base class for the request handlers.">
<polygon fill="white" stroke="#666666" points="1302,-250 1170,-250 1170,-220 1302,-220 1302,-250"/>
<text text-anchor="start" x="1178" y="-238" font-family="Helvetica,sans-Serif" font-size="10.00">userver/server/handlers</text>
<text text-anchor="middle" x="1236" y="-227" font-family="Helvetica,sans-Serif" font-size="10.00">/handler_base.hpp</text>
</a>
</g>
</g>
<!-- Node1&#45;&gt;Node22 -->
<g id="edge21_Node000001_Node000022" class="edge">
<title>Node1&#45;&gt;Node22</title>
<g id="a_edge21_Node000001_Node000022"><a xlink:title=" ">
<path fill="none" stroke="#63b8ff" d="M1343.62,-281.92C1319.92,-271.8 1290.81,-259.38 1268.84,-250.01"/>
<polygon fill="#63b8ff" stroke="#63b8ff" points="1342.51,-285.25 1353.08,-285.95 1345.26,-278.81 1342.51,-285.25"/>
</a>
</g>
</g>
<!-- Node23 -->
<g id="Node000023" class="node">
<title>Node23</title>
<g id="a_Node000023"><a xlink:href="../../d3/d0e/json__error__builder_8hpp_source.html" target="_top" xlink:title=" ">
<polygon fill="white" stroke="#666666" points="1452,-250 1320,-250 1320,-220 1452,-220 1452,-250"/>
<text text-anchor="start" x="1328" y="-238" font-family="Helvetica,sans-Serif" font-size="10.00">userver/server/handlers</text>
<text text-anchor="middle" x="1386" y="-227" font-family="Helvetica,sans-Serif" font-size="10.00">/json_error_builder.hpp</text>
</a>
</g>
</g>
<!-- Node1&#45;&gt;Node23 -->
<g id="edge24_Node000001_Node000023" class="edge">
<title>Node1&#45;&gt;Node23</title>
<g id="a_edge24_Node000001_Node000023"><a xlink:title=" ">
<path fill="none" stroke="#63b8ff" d="M1386,-275.54C1386,-266.96 1386,-257.61 1386,-250.16"/>
<polygon fill="#63b8ff" stroke="#63b8ff" points="1382.5,-275.8 1386,-285.8 1389.5,-275.8 1382.5,-275.8"/>
</a>
</g>
</g>
<!-- Node24 -->
<g id="Node000024" class="node">
<title>Node24</title>
<g id="a_Node000024"><a xlink:href="../../db/d08/legacy__json__error__builder_8hpp_source.html" target="_top" xlink:title=" ">
<polygon fill="white" stroke="#666666" points="1635.5,-250 1470.5,-250 1470.5,-220 1635.5,-220 1635.5,-250"/>
<text text-anchor="start" x="1478.5" y="-238" font-family="Helvetica,sans-Serif" font-size="10.00">userver/server/handlers</text>
<text text-anchor="middle" x="1553" y="-227" font-family="Helvetica,sans-Serif" font-size="10.00">/legacy_json_error_builder.hpp</text>
</a>
</g>
</g>
<!-- Node1&#45;&gt;Node24 -->
<g id="edge25_Node000001_Node000024" class="edge">
<title>Node1&#45;&gt;Node24</title>
<g id="a_edge25_Node000001_Node000024"><a xlink:title=" ">
<path fill="none" stroke="#63b8ff" d="M1432.13,-282.32C1458.71,-272.14 1491.66,-259.51 1516.44,-250.01"/>
<polygon fill="#63b8ff" stroke="#63b8ff" points="1430.73,-279.11 1422.65,-285.95 1433.24,-285.64 1430.73,-279.11"/>
</a>
</g>
</g>
<!-- Node25 -->
<g id="Node000025" class="node">
<title>Node25</title>
<g id="a_Node000025"><a xlink:href="../../da/dfa/http__error_8hpp.html" target="_top" xlink:title="Get http status code mapped to generic handler error code.">
<polygon fill="white" stroke="#666666" points="1886,-178.5 1776,-178.5 1776,-148.5 1886,-148.5 1886,-178.5"/>
<text text-anchor="start" x="1784" y="-166.5" font-family="Helvetica,sans-Serif" font-size="10.00">userver/server/http</text>
<text text-anchor="middle" x="1831" y="-155.5" font-family="Helvetica,sans-Serif" font-size="10.00">/http_error.hpp</text>
</a>
</g>
</g>
<!-- Node1&#45;&gt;Node25 -->
<g id="edge26_Node000001_Node000025" class="edge">
<title>Node1&#45;&gt;Node25</title>
<g id="a_edge26_Node000001_Node000025"><a xlink:title=" ">
<path fill="none" stroke="#63b8ff" d="M1462.17,-290.1C1514.18,-282.16 1584.22,-269.16 1644,-250 1704,-230.77 1770.16,-197.42 1805.46,-178.55"/>
<polygon fill="#63b8ff" stroke="#63b8ff" points="1461.39,-286.68 1452.02,-291.62 1462.43,-293.6 1461.39,-286.68"/>
</a>
</g>
</g>
<!-- Node26 -->
<g id="Node000026" class="node">
<title>Node26</title>
<g id="a_Node000026"><a xlink:href="../../d3/d5f/error__code_8hpp_source.html" target="_top" xlink:title=" ">
<polygon fill="white" stroke="#666666" points="2019.5,-250 1902.5,-250 1902.5,-220 2019.5,-220 2019.5,-250"/>
<text text-anchor="start" x="1910.5" y="-238" font-family="Helvetica,sans-Serif" font-size="10.00">userver/ugrpc/server</text>
<text text-anchor="middle" x="1961" y="-227" font-family="Helvetica,sans-Serif" font-size="10.00">/impl/error_code.hpp</text>
</a>
</g>
</g>
<!-- Node1&#45;&gt;Node26 -->
<g id="edge28_Node000001_Node000026" class="edge">
<title>Node1&#45;&gt;Node26</title>
<g id="a_edge28_Node000001_Node000026"><a xlink:title=" ">
<path fill="none" stroke="#63b8ff" d="M1462.49,-291.49C1578.81,-278.54 1797.68,-254.18 1902.35,-242.53"/>
<polygon fill="#63b8ff" stroke="#63b8ff" points="1461.79,-288.04 1452.24,-292.63 1462.57,-295 1461.79,-288.04"/>
</a>
</g>
</g>
<!-- Node3 -->
<g id="Node000003" class="node">
<title>Node3</title>
<g id="a_Node000003"><a xlink:href="../../db/ddd/auth__checker__factory_8hpp.html" target="_top" xlink:title="Authorization factory registration and base classes.">
<polygon fill="white" stroke="#666666" points="1058,-178.5 890,-178.5 890,-148.5 1058,-148.5 1058,-178.5"/>
<text text-anchor="start" x="898" y="-166.5" font-family="Helvetica,sans-Serif" font-size="10.00">userver/server/handlers</text>
<text text-anchor="middle" x="974" y="-155.5" font-family="Helvetica,sans-Serif" font-size="10.00">/auth/auth_checker_factory.hpp</text>
</a>
</g>
</g>
<!-- Node2&#45;&gt;Node3 -->
<g id="edge2_Node000002_Node000003" class="edge">
<title>Node2&#45;&gt;Node3</title>
<g id="a_edge2_Node000002_Node000003"><a xlink:title=" ">
<path fill="none" stroke="#63b8ff" d="M994.62,-210.73C989.86,-200.06 984.38,-187.77 980.26,-178.54"/>
<polygon fill="#63b8ff" stroke="#63b8ff" points="991.46,-212.23 998.73,-219.94 997.85,-209.38 991.46,-212.23"/>
</a>
</g>
</g>
<!-- Node4 -->
<g id="Node000004" class="node">
<title>Node4</title>
<g id="a_Node000004"><a xlink:href="../../de/d82/digest_2auth__checker__base_8hpp.html" target="_top" xlink:title="Base class for digest authentication checkers. Implements a digest&#45;authentication logic.">
<polygon fill="white" stroke="#666666" points="505,-184 363,-184 363,-143 505,-143 505,-184"/>
<text text-anchor="start" x="371" y="-172" font-family="Helvetica,sans-Serif" font-size="10.00">userver/server/handlers</text>
<text text-anchor="start" x="371" y="-161" font-family="Helvetica,sans-Serif" font-size="10.00">/auth/digest/auth_checker</text>
<text text-anchor="middle" x="434" y="-150" font-family="Helvetica,sans-Serif" font-size="10.00">_base.hpp</text>
</a>
</g>
</g>
<!-- Node2&#45;&gt;Node4 -->
<g id="edge3_Node000002_Node000004" class="edge">
<title>Node2&#45;&gt;Node4</title>
<g id="a_edge3_Node000002_Node000004"><a xlink:title=" ">
<path fill="none" stroke="#63b8ff" d="M915.87,-223.15C802.54,-209.36 609.15,-185.82 505.16,-173.16"/>
<polygon fill="#63b8ff" stroke="#63b8ff" points="915.56,-226.64 925.9,-224.37 916.4,-219.69 915.56,-226.64"/>
</a>
</g>
</g>
<!-- Node2&#45;&gt;Node6 -->
<g id="edge5_Node000002_Node000006" class="edge">
<title>Node2&#45;&gt;Node6</title>
<g id="a_edge5_Node000002_Node000006"><a xlink:title=" ">
<path fill="none" stroke="#63b8ff" d="M1041.78,-215.34C1064.59,-203.77 1093.44,-189.14 1114.32,-178.54"/>
<polygon fill="#63b8ff" stroke="#63b8ff" points="1040.06,-212.29 1032.72,-219.94 1043.23,-218.53 1040.06,-212.29"/>
</a>
</g>
</g>
<!-- Node5 -->
<g id="Node000005" class="node">
<title>Node5</title>
<g id="a_Node000005"><a xlink:href="../../db/df0/standalone__checker_8hpp.html" target="_top" xlink:title="Class for digest authentication checker. Implements a stand&#45;alone digest&#45;authentication logic.">
<polygon fill="white" stroke="#666666" points="132,-107 0,-107 0,-66 132,-66 132,-107"/>
<text text-anchor="start" x="8" y="-95" font-family="Helvetica,sans-Serif" font-size="10.00">userver/server/handlers</text>
<text text-anchor="start" x="8" y="-84" font-family="Helvetica,sans-Serif" font-size="10.00">/auth/digest/standalone</text>
<text text-anchor="middle" x="66" y="-73" font-family="Helvetica,sans-Serif" font-size="10.00">_checker.hpp</text>
</a>
</g>
</g>
<!-- Node4&#45;&gt;Node5 -->
<g id="edge4_Node000004_Node000005" class="edge">
<title>Node4&#45;&gt;Node5</title>
<g id="a_edge4_Node000004_Node000005"><a xlink:title=" ">
<path fill="none" stroke="#63b8ff" d="M352.97,-148.66C293.98,-138.22 212.27,-123 141,-107 138.11,-106.35 135.17,-105.67 132.19,-104.97"/>
<polygon fill="#63b8ff" stroke="#63b8ff" points="352.52,-152.13 362.98,-150.42 353.74,-145.24 352.52,-152.13"/>
</a>
</g>
</g>
<!-- Node7 -->
<g id="Node000007" class="node">
<title>Node7</title>
<g id="a_Node000007"><a xlink:href="../../d6/d0d/dns__client__control_8hpp.html" target="_top" xlink:title="Handlers that controls the DNS client.">
<polygon fill="white" stroke="#666666" points="1678,-101.5 1546,-101.5 1546,-71.5 1678,-71.5 1678,-101.5"/>
<text text-anchor="start" x="1554" y="-89.5" font-family="Helvetica,sans-Serif" font-size="10.00">userver/server/handlers</text>
<text text-anchor="middle" x="1612" y="-78.5" font-family="Helvetica,sans-Serif" font-size="10.00">/dns_client_control.hpp</text>
</a>
</g>
</g>
<!-- Node6&#45;&gt;Node7 -->
<g id="edge6_Node000006_Node000007" class="edge">
<title>Node6&#45;&gt;Node7</title>
<g id="a_edge6_Node000006_Node000007"><a xlink:title=" ">
<path fill="none" stroke="#63b8ff" d="M1218.06,-154.44C1297.92,-145.36 1426.94,-128.96 1537,-107 1544.92,-105.42 1553.24,-103.51 1561.35,-101.51"/>
<polygon fill="#63b8ff" stroke="#63b8ff" points="1217.63,-150.96 1208.09,-155.56 1218.42,-157.92 1217.63,-150.96"/>
</a>
</g>
</g>
<!-- Node8 -->
<g id="Node000008" class="node">
<title>Node8</title>
<g id="a_Node000008"><a xlink:href="../../d6/dc0/dynamic__debug__log_8hpp.html" target="_top" xlink:title="HTTP Handler to show/hide logs at the specific file:line.">
<polygon fill="white" stroke="#666666" points="1834,-101.5 1696,-101.5 1696,-71.5 1834,-71.5 1834,-101.5"/>
<text text-anchor="start" x="1704" y="-89.5" font-family="Helvetica,sans-Serif" font-size="10.00">userver/server/handlers</text>
<text text-anchor="middle" x="1765" y="-78.5" font-family="Helvetica,sans-Serif" font-size="10.00">/dynamic_debug_log.hpp</text>
</a>
</g>
</g>
<!-- Node6&#45;&gt;Node8 -->
<g id="edge7_Node000006_Node000008" class="edge">
<title>Node6&#45;&gt;Node8</title>
<g id="a_edge7_Node000006_Node000008"><a xlink:title=" ">
<path fill="none" stroke="#63b8ff" d="M1218.55,-158.18C1324.43,-151.42 1521.31,-135.99 1687,-107 1695.52,-105.51 1704.5,-103.6 1713.2,-101.55"/>
<polygon fill="#63b8ff" stroke="#63b8ff" points="1218.03,-154.71 1208.27,-158.83 1218.48,-161.69 1218.03,-154.71"/>
</a>
</g>
</g>
<!-- Node9 -->
<g id="Node000009" class="node">
<title>Node9</title>
<g id="a_Node000009"><a xlink:href="../../d5/d4d/http__handler__flatbuf__base_8hpp.html" target="_top" xlink:title="Convenient base for handlers that accept requests with body in Flatbuffer format and respond with bod...">
<polygon fill="white" stroke="#666666" points="1984,-107 1852,-107 1852,-66 1984,-66 1984,-107"/>
<text text-anchor="start" x="1860" y="-95" font-family="Helvetica,sans-Serif" font-size="10.00">userver/server/handlers</text>
<text text-anchor="start" x="1860" y="-84" font-family="Helvetica,sans-Serif" font-size="10.00">/http_handler_flatbuf</text>
<text text-anchor="middle" x="1918" y="-73" font-family="Helvetica,sans-Serif" font-size="10.00">_base.hpp</text>
</a>
</g>
</g>
<!-- Node6&#45;&gt;Node9 -->
<g id="edge8_Node000006_Node000009" class="edge">
<title>Node6&#45;&gt;Node9</title>
<g id="a_edge8_Node000006_Node000009"><a xlink:title=" ">
<path fill="none" stroke="#63b8ff" d="M1218.39,-160.83C1347.78,-157.02 1617.95,-144.87 1843,-107 1845.92,-106.51 1848.89,-105.96 1851.88,-105.36"/>
<polygon fill="#63b8ff" stroke="#63b8ff" points="1218.09,-157.34 1208.19,-161.12 1218.29,-164.33 1218.09,-157.34"/>
</a>
</g>
</g>
<!-- Node10 -->
<g id="Node000010" class="node">
<title>Node10</title>
<g id="a_Node000010"><a xlink:href="../../d1/d58/http__handler__json__base_8hpp.html" target="_top" xlink:title="Convenient base for handlers that accept requests with body in JSON format and respond with body in J...">
<polygon fill="white" stroke="#666666" points="306,-101.5 150,-101.5 150,-71.5 306,-71.5 306,-101.5"/>
<text text-anchor="start" x="158" y="-89.5" font-family="Helvetica,sans-Serif" font-size="10.00">userver/server/handlers</text>
<text text-anchor="middle" x="228" y="-78.5" font-family="Helvetica,sans-Serif" font-size="10.00">/http_handler_json_base.hpp</text>
</a>
</g>
</g>
<!-- Node6&#45;&gt;Node10 -->
<g id="edge9_Node000006_Node000010" class="edge">
<title>Node6&#45;&gt;Node10</title>
<g id="a_edge9_Node000006_Node000010"><a xlink:title=" ">
<path fill="none" stroke="#63b8ff" d="M1083.8,-146.12C1078.15,-144.91 1072.49,-143.84 1067,-143 736.21,-92.63 646.6,-151.76 315,-107 304.88,-105.63 294.19,-103.68 283.9,-101.52"/>
<polygon fill="#63b8ff" stroke="#63b8ff" points="1083.36,-149.61 1093.89,-148.43 1084.92,-142.79 1083.36,-149.61"/>
</a>
</g>
</g>
<!-- Node13 -->
<g id="Node000013" class="node">
<title>Node13</title>
<g id="a_Node000013"><a xlink:href="../../dd/db6/http__handler__static_8hpp.html" target="_top" xlink:title="Handler that returns HTTP 200 if file exist and returns file data with mapped content/type.">
<polygon fill="white" stroke="#666666" points="458,-101.5 324,-101.5 324,-71.5 458,-71.5 458,-101.5"/>
<text text-anchor="start" x="332" y="-89.5" font-family="Helvetica,sans-Serif" font-size="10.00">userver/server/handlers</text>
<text text-anchor="middle" x="391" y="-78.5" font-family="Helvetica,sans-Serif" font-size="10.00">/http_handler_static.hpp</text>
</a>
</g>
</g>
<!-- Node6&#45;&gt;Node13 -->
<g id="edge12_Node000006_Node000013" class="edge">
<title>Node6&#45;&gt;Node13</title>
<g id="a_edge12_Node000006_Node000013"><a xlink:title=" ">
<path fill="none" stroke="#63b8ff" d="M1083.53,-146.13C1077.97,-144.93 1072.4,-143.86 1067,-143 803.15,-101.19 730.92,-148.39 467,-107 458.25,-105.63 449.05,-103.7 440.18,-101.58"/>
<polygon fill="#63b8ff" stroke="#63b8ff" points="1082.94,-149.59 1093.47,-148.42 1084.51,-142.77 1082.94,-149.59"/>
</a>
</g>
</g>
<!-- Node14 -->
<g id="Node000014" class="node">
<title>Node14</title>
<g id="a_Node000014"><a xlink:href="../../d5/d86/jemalloc_8hpp.html" target="_top" xlink:title="Handler that controls the jemalloc allocator.">
<polygon fill="white" stroke="#666666" points="608,-101.5 476,-101.5 476,-71.5 608,-71.5 608,-101.5"/>
<text text-anchor="start" x="484" y="-89.5" font-family="Helvetica,sans-Serif" font-size="10.00">userver/server/handlers</text>
<text text-anchor="middle" x="542" y="-78.5" font-family="Helvetica,sans-Serif" font-size="10.00">/jemalloc.hpp</text>
</a>
</g>
</g>
<!-- Node6&#45;&gt;Node14 -->
<g id="edge13_Node000006_Node000014" class="edge">
<title>Node6&#45;&gt;Node14</title>
<g id="a_edge13_Node000006_Node000014"><a xlink:title=" ">
<path fill="none" stroke="#63b8ff" d="M1083.25,-146.19C1077.79,-144.99 1072.31,-143.9 1067,-143 869.16,-109.63 814.84,-140.37 617,-107 608.51,-105.57 599.58,-103.63 590.95,-101.54"/>
<polygon fill="#63b8ff" stroke="#63b8ff" points="1082.51,-149.61 1093.05,-148.46 1084.1,-142.79 1082.51,-149.61"/>
</a>
</g>
</g>
<!-- Node15 -->
<g id="Node000015" class="node">
<title>Node15</title>
<g id="a_Node000015"><a xlink:href="../../d0/d01/log__level_8hpp.html" target="_top" xlink:title="Handler that controls logging levels of all the loggers.">
<polygon fill="white" stroke="#666666" points="758,-101.5 626,-101.5 626,-71.5 758,-71.5 758,-101.5"/>
<text text-anchor="start" x="634" y="-89.5" font-family="Helvetica,sans-Serif" font-size="10.00">userver/server/handlers</text>
<text text-anchor="middle" x="692" y="-78.5" font-family="Helvetica,sans-Serif" font-size="10.00">/log_level.hpp</text>
</a>
</g>
</g>
<!-- Node6&#45;&gt;Node15 -->
<g id="edge14_Node000006_Node000015" class="edge">
<title>Node6&#45;&gt;Node15</title>
<g id="a_edge14_Node000006_Node000015"><a xlink:title=" ">
<path fill="none" stroke="#63b8ff" d="M1081.67,-146.06C1076.72,-144.94 1071.79,-143.91 1067,-143 935.05,-118.05 898.95,-131.95 767,-107 758.94,-105.48 750.46,-103.57 742.22,-101.55"/>
<polygon fill="#63b8ff" stroke="#63b8ff" points="1081.25,-149.56 1091.78,-148.45 1082.85,-142.75 1081.25,-149.56"/>
</a>
</g>
</g>
<!-- Node16 -->
<g id="Node000016" class="node">
<title>Node16</title>
<g id="a_Node000016"><a xlink:href="../../d7/d72/on__log__rotate_8hpp.html" target="_top" xlink:title="Handler that controls logging levels of all the loggers.">
<polygon fill="white" stroke="#666666" points="908,-101.5 776,-101.5 776,-71.5 908,-71.5 908,-101.5"/>
<text text-anchor="start" x="784" y="-89.5" font-family="Helvetica,sans-Serif" font-size="10.00">userver/server/handlers</text>
<text text-anchor="middle" x="842" y="-78.5" font-family="Helvetica,sans-Serif" font-size="10.00">/on_log_rotate.hpp</text>
</a>
</g>
</g>
<!-- Node6&#45;&gt;Node16 -->
<g id="edge15_Node000006_Node000016" class="edge">
<title>Node6&#45;&gt;Node16</title>
<g id="a_edge15_Node000006_Node000016"><a xlink:title=" ">
<path fill="none" stroke="#63b8ff" d="M1078.59,-145.92C1074.67,-144.93 1070.78,-143.95 1067,-143 1000.49,-126.37 983.51,-123.63 917,-107 910.08,-105.27 902.81,-103.42 895.64,-101.58"/>
<polygon fill="#63b8ff" stroke="#63b8ff" points="1077.81,-149.34 1088.36,-148.42 1079.54,-142.55 1077.81,-149.34"/>
</a>
</g>
</g>
<!-- Node17 -->
<g id="Node000017" class="node">
<title>Node17</title>
<g id="a_Node000017"><a xlink:href="../../d8/d39/ping_8hpp.html" target="_top" xlink:title="Handler that returns HTTP 200 if the service is OK and able to process requests.">
<polygon fill="white" stroke="#666666" points="1058,-101.5 926,-101.5 926,-71.5 1058,-71.5 1058,-101.5"/>
<text text-anchor="start" x="934" y="-89.5" font-family="Helvetica,sans-Serif" font-size="10.00">userver/server/handlers</text>
<text text-anchor="middle" x="992" y="-78.5" font-family="Helvetica,sans-Serif" font-size="10.00">/ping.hpp</text>
</a>
</g>
</g>
<!-- Node6&#45;&gt;Node17 -->
<g id="edge16_Node000006_Node000017" class="edge">
<title>Node6&#45;&gt;Node17</title>
<g id="a_edge16_Node000006_Node000017"><a xlink:title=" ">
<path fill="none" stroke="#63b8ff" d="M1104.54,-143.77C1078.35,-130.68 1043.93,-113.47 1020.09,-101.54"/>
<polygon fill="#63b8ff" stroke="#63b8ff" points="1103.28,-147.05 1113.79,-148.39 1106.41,-140.79 1103.28,-147.05"/>
</a>
</g>
</g>
<!-- Node18 -->
<g id="Node000018" class="node">
<title>Node18</title>
<g id="a_Node000018"><a xlink:href="../../de/d18/server__monitor_8hpp.html" target="_top" xlink:title="Handler that returns statistics data.">
<polygon fill="white" stroke="#666666" points="1208,-101.5 1076,-101.5 1076,-71.5 1208,-71.5 1208,-101.5"/>
<text text-anchor="start" x="1084" y="-89.5" font-family="Helvetica,sans-Serif" font-size="10.00">userver/server/handlers</text>
<text text-anchor="middle" x="1142" y="-78.5" font-family="Helvetica,sans-Serif" font-size="10.00">/server_monitor.hpp</text>
</a>
</g>
</g>
<!-- Node6&#45;&gt;Node18 -->
<g id="edge17_Node000006_Node000018" class="edge">
<title>Node6&#45;&gt;Node18</title>
<g id="a_edge17_Node000006_Node000018"><a xlink:title=" ">
<path fill="none" stroke="#63b8ff" d="M1142,-138.04C1142,-125.95 1142,-111.79 1142,-101.54"/>
<polygon fill="#63b8ff" stroke="#63b8ff" points="1138.5,-138.39 1142,-148.39 1145.5,-138.39 1138.5,-138.39"/>
</a>
</g>
</g>
<!-- Node19 -->
<g id="Node000019" class="node">
<title>Node19</title>
<g id="a_Node000019"><a xlink:href="../../d8/d82/core_2include_2userver_2server_2server_8hpp_source.html" target="_top" xlink:title=" ">
<polygon fill="white" stroke="#666666" points="1367.5,-96 1226.5,-96 1226.5,-77 1367.5,-77 1367.5,-96"/>
<text text-anchor="middle" x="1297" y="-84" font-family="Helvetica,sans-Serif" font-size="10.00">userver/server/server.hpp</text>
</a>
</g>
</g>
<!-- Node6&#45;&gt;Node19 -->
<g id="edge18_Node000006_Node000019" class="edge">
<title>Node6&#45;&gt;Node19</title>
<g id="a_edge18_Node000006_Node000019"><a xlink:title=" ">
<path fill="none" stroke="#63b8ff" d="M1180.52,-143.86C1212.03,-128.62 1255.14,-107.75 1279.1,-96.16"/>
<polygon fill="#63b8ff" stroke="#63b8ff" points="1178.63,-140.89 1171.15,-148.39 1181.68,-147.19 1178.63,-140.89"/>
</a>
</g>
</g>
<!-- Node21 -->
<g id="Node000021" class="node">
<title>Node21</title>
<g id="a_Node000021"><a xlink:href="../../d4/d64/websocket__handler_8hpp.html" target="_top" xlink:title=" ">
<polygon fill="white" stroke="#666666" points="1528,-101.5 1386,-101.5 1386,-71.5 1528,-71.5 1528,-101.5"/>
<text text-anchor="start" x="1394" y="-89.5" font-family="Helvetica,sans-Serif" font-size="10.00">userver/server/websocket</text>
<text text-anchor="middle" x="1457" y="-78.5" font-family="Helvetica,sans-Serif" font-size="10.00">/websocket_handler.hpp</text>
</a>
</g>
</g>
<!-- Node6&#45;&gt;Node21 -->
<g id="edge20_Node000006_Node000021" class="edge">
<title>Node6&#45;&gt;Node21</title>
<g id="a_edge20_Node000006_Node000021"><a xlink:title=" ">
<path fill="none" stroke="#63b8ff" d="M1211.62,-146.05C1258.16,-135.04 1320.76,-120.2 1376,-107 1383.32,-105.25 1391,-103.41 1398.6,-101.58"/>
<polygon fill="#63b8ff" stroke="#63b8ff" points="1210.57,-142.7 1201.64,-148.41 1212.18,-149.52 1210.57,-142.7"/>
</a>
</g>
</g>
<!-- Node11 -->
<g id="Node000011" class="node">
<title>Node11</title>
<g id="a_Node000011"><a xlink:href="../../d7/d79/inspect__requests_8hpp.html" target="_top" xlink:title="Handler that returns information about all in&#45;flight requests.">
<polygon fill="white" stroke="#666666" points="369,-30 237,-30 237,0 369,0 369,-30"/>
<text text-anchor="start" x="245" y="-18" font-family="Helvetica,sans-Serif" font-size="10.00">userver/server/handlers</text>
<text text-anchor="middle" x="303" y="-7" font-family="Helvetica,sans-Serif" font-size="10.00">/inspect_requests.hpp</text>
</a>
</g>
</g>
<!-- Node10&#45;&gt;Node11 -->
<g id="edge10_Node000010_Node000011" class="edge">
<title>Node10&#45;&gt;Node11</title>
<g id="a_edge10_Node000010_Node000011"><a xlink:title=" ">
<path fill="none" stroke="#63b8ff" d="M250.67,-64.49C262.71,-53.34 277.18,-39.93 287.85,-30.04"/>
<polygon fill="#63b8ff" stroke="#63b8ff" points="248.13,-62.07 243.18,-71.44 252.89,-67.21 248.13,-62.07"/>
</a>
</g>
</g>
<!-- Node12 -->
<g id="Node000012" class="node">
<title>Node12</title>
<g id="a_Node000012"><a xlink:href="../../d6/d43/tests__control_8hpp.html" target="_top" xlink:title="Handler that allows to control the behavior of server from tests, and functional tests with testsuite...">
<polygon fill="white" stroke="#666666" points="219,-30 87,-30 87,0 219,0 219,-30"/>
<text text-anchor="start" x="95" y="-18" font-family="Helvetica,sans-Serif" font-size="10.00">userver/server/handlers</text>
<text text-anchor="middle" x="153" y="-7" font-family="Helvetica,sans-Serif" font-size="10.00">/tests_control.hpp</text>
</a>
</g>
</g>
<!-- Node10&#45;&gt;Node12 -->
<g id="edge11_Node000010_Node000012" class="edge">
<title>Node10&#45;&gt;Node12</title>
<g id="a_edge11_Node000010_Node000012"><a xlink:title=" ">
<path fill="none" stroke="#63b8ff" d="M205.33,-64.49C193.29,-53.34 178.82,-39.93 168.15,-30.04"/>
<polygon fill="#63b8ff" stroke="#63b8ff" points="203.11,-67.21 212.82,-71.44 207.87,-62.07 203.11,-67.21"/>
</a>
</g>
</g>
<!-- Node20 -->
<g id="Node000020" class="node">
<title>Node20</title>
<g id="a_Node000020"><a xlink:href="../../d3/ddd/core_2include_2userver_2server_2component_8hpp.html" target="_top" xlink:title="Component that listens for incoming requests, manages incoming connections and passes the requests to...">
<polygon fill="white" stroke="#666666" points="1380,-24.5 1214,-24.5 1214,-5.5 1380,-5.5 1380,-24.5"/>
<text text-anchor="middle" x="1297" y="-12.5" font-family="Helvetica,sans-Serif" font-size="10.00">userver/server/component.hpp</text>
</a>
</g>
</g>
<!-- Node19&#45;&gt;Node20 -->
<g id="edge19_Node000019_Node000020" class="edge">
<title>Node19&#45;&gt;Node20</title>
<g id="a_edge19_Node000019_Node000020"><a xlink:title=" ">
<path fill="none" stroke="#63b8ff" d="M1297,-66.71C1297,-53 1297,-35.05 1297,-24.59"/>
<polygon fill="#63b8ff" stroke="#63b8ff" points="1293.5,-66.98 1297,-76.98 1300.5,-66.98 1293.5,-66.98"/>
</a>
</g>
</g>
<!-- Node22&#45;&gt;Node6 -->
<g id="edge22_Node000022_Node000006" class="edge">
<title>Node22&#45;&gt;Node6</title>
<g id="a_edge22_Node000022_Node000006"><a xlink:title=" ">
<path fill="none" stroke="#63b8ff" d="M1208.87,-213.94C1193.54,-202.6 1174.75,-188.71 1160.99,-178.54"/>
<polygon fill="#63b8ff" stroke="#63b8ff" points="1206.86,-216.8 1216.98,-219.94 1211.02,-211.18 1206.86,-216.8"/>
</a>
</g>
</g>
<!-- Node25&#45;&gt;Node9 -->
<g id="edge27_Node000025_Node000009" class="edge">
<title>Node25&#45;&gt;Node9</title>
<g id="a_edge27_Node000025_Node000009"><a xlink:title=" ">
<path fill="none" stroke="#63b8ff" d="M1855.14,-141.69C1867.64,-130.91 1882.83,-117.82 1895.14,-107.2"/>
<polygon fill="#63b8ff" stroke="#63b8ff" points="1852.65,-139.21 1847.36,-148.39 1857.22,-144.51 1852.65,-139.21"/>
</a>
</g>
</g>
<!-- Node27 -->
<g id="Node000027" class="node">
<title>Node27</title>
<g id="a_Node000027"><a xlink:href="../../db/d93/service__worker__impl_8hpp_source.html" target="_top" xlink:title=" ">
<polygon fill="white" stroke="#666666" points="2102,-184 1984,-184 1984,-143 2102,-143 2102,-184"/>
<text text-anchor="start" x="1992" y="-172" font-family="Helvetica,sans-Serif" font-size="10.00">userver/ugrpc/server</text>
<text text-anchor="start" x="1992" y="-161" font-family="Helvetica,sans-Serif" font-size="10.00">/impl/service_worker</text>
<text text-anchor="middle" x="2043" y="-150" font-family="Helvetica,sans-Serif" font-size="10.00">_impl.hpp</text>
</a>
</g>
</g>
<!-- Node26&#45;&gt;Node27 -->
<g id="edge29_Node000026_Node000027" class="edge">
<title>Node26&#45;&gt;Node27</title>
<g id="a_edge29_Node000026_Node000027"><a xlink:title=" ">
<path fill="none" stroke="#63b8ff" d="M1985.5,-213.23C1996.4,-203.99 2009.17,-193.17 2019.91,-184.07"/>
<polygon fill="#63b8ff" stroke="#63b8ff" points="1982.96,-210.8 1977.59,-219.94 1987.49,-216.14 1982.96,-210.8"/>
</a>
</g>
</g>
<!-- Node28 -->
<g id="Node000028" class="node">
<title>Node28</title>
<g id="a_Node000028"><a xlink:href="../../d1/dac/server_2impl_2codegen__definitions_8hpp_source.html" target="_top" xlink:title=" ">
<polygon fill="white" stroke="#666666" points="2165.5,-101.5 2002.5,-101.5 2002.5,-71.5 2165.5,-71.5 2165.5,-101.5"/>
<text text-anchor="start" x="2010.5" y="-89.5" font-family="Helvetica,sans-Serif" font-size="10.00">userver/ugrpc/server</text>
<text text-anchor="middle" x="2084" y="-78.5" font-family="Helvetica,sans-Serif" font-size="10.00">/impl/codegen_definitions.hpp</text>
</a>
</g>
</g>
<!-- Node27&#45;&gt;Node28 -->
<g id="edge30_Node000027_Node000028" class="edge">
<title>Node27&#45;&gt;Node28</title>
<g id="a_edge30_Node000027_Node000028"><a xlink:title=" ">
<path fill="none" stroke="#63b8ff" d="M2058.62,-133.93C2064.61,-122.97 2071.19,-110.93 2076.15,-101.86"/>
<polygon fill="#63b8ff" stroke="#63b8ff" points="2055.5,-132.34 2053.77,-142.79 2061.64,-135.7 2055.5,-132.34"/>
</a>
</g>
</g>
</g>
</svg>
