<?xml version="1.0" encoding="UTF-8" standalone="no"?>
<!DOCTYPE svg PUBLIC "-//W3C//DTD SVG 1.1//EN"
 "http://www.w3.org/Graphics/SVG/1.1/DTD/svg11.dtd">
<!-- Generated by graphviz version 2.43.0 (0)
 -->
<!-- Title: userver/dynamic_config/storage/component.hpp Pages: 1 -->
<svg width="1139pt" height="313pt"
 viewBox="0.00 0.00 1139.19 313.00" xmlns="http://www.w3.org/2000/svg" xmlns:xlink="http://www.w3.org/1999/xlink">
<g id="graph0" class="graph" transform="scale(1 1) rotate(0) translate(4 309)">
<title>userver/dynamic_config/storage/component.hpp</title>
<!-- Node1 -->
<g id="Node000001" class="node">
<title>Node1</title>
<g id="a_Node000001"><a xlink:title="Component that stores the runtime config.">
<polygon fill="#999999" stroke="#666666" points="684.69,-305 549.69,-305 549.69,-275 684.69,-275 684.69,-305"/>
<text text-anchor="start" x="557.69" y="-293" font-family="Helvetica,sans-Serif" font-size="10.00">userver/dynamic_config</text>
<text text-anchor="middle" x="617.19" y="-282" font-family="Helvetica,sans-Serif" font-size="10.00">/storage/component.hpp</text>
</a>
</g>
</g>
<!-- Node2 -->
<g id="Node000002" class="node">
<title>Node2</title>
<g id="a_Node000002"><a xlink:title=" ">
<polygon fill="#e0e0e0" stroke="#999999" points="720.19,-162 662.19,-162 662.19,-143 720.19,-143 720.19,-162"/>
<text text-anchor="middle" x="691.19" y="-150" font-family="Helvetica,sans-Serif" font-size="10.00">memory</text>
</a>
</g>
</g>
<!-- Node1&#45;&gt;Node2 -->
<g id="edge1_Node000001_Node000002" class="edge">
<title>Node1&#45;&gt;Node2</title>
<g id="a_edge1_Node000001_Node000002"><a xlink:title=" ">
<path fill="none" stroke="#63b8ff" d="M662.84,-274.87C679.86,-267.14 697.4,-255.64 707.19,-239 719.6,-217.91 709.9,-189.28 701.1,-171.09"/>
<polygon fill="#63b8ff" stroke="#63b8ff" points="704.18,-169.42 696.45,-162.17 697.97,-172.66 704.18,-169.42"/>
</a>
</g>
</g>
<!-- Node3 -->
<g id="Node000003" class="node">
<title>Node3</title>
<g id="a_Node000003"><a xlink:title=" ">
<polygon fill="#e0e0e0" stroke="#999999" points="173.69,-90.5 100.69,-90.5 100.69,-71.5 173.69,-71.5 173.69,-90.5"/>
<text text-anchor="middle" x="137.19" y="-78.5" font-family="Helvetica,sans-Serif" font-size="10.00">string_view</text>
</a>
</g>
</g>
<!-- Node1&#45;&gt;Node3 -->
<g id="edge2_Node000001_Node000003" class="edge">
<title>Node1&#45;&gt;Node3</title>
<g id="a_edge2_Node000001_Node000003"><a xlink:title=" ">
<path fill="none" stroke="#63b8ff" d="M549.69,-287.58C404.25,-282.83 69.73,-262.23 11.19,-173 1.2,-157.76 0.96,-147.08 11.19,-132 28.86,-105.99 62.4,-93.51 90.44,-87.52"/>
<polygon fill="#63b8ff" stroke="#63b8ff" points="91.31,-90.92 100.48,-85.6 90,-84.04 91.31,-90.92"/>
</a>
</g>
</g>
<!-- Node4 -->
<g id="Node000004" class="node">
<title>Node4</title>
<g id="a_Node000004"><a xlink:title=" ">
<polygon fill="#e0e0e0" stroke="#999999" points="871.69,-24.5 802.69,-24.5 802.69,-5.5 871.69,-5.5 871.69,-24.5"/>
<text text-anchor="middle" x="837.19" y="-12.5" font-family="Helvetica,sans-Serif" font-size="10.00">type_traits</text>
</a>
</g>
</g>
<!-- Node1&#45;&gt;Node4 -->
<g id="edge3_Node000001_Node000004" class="edge">
<title>Node1&#45;&gt;Node4</title>
<g id="a_edge3_Node000001_Node000004"><a xlink:title=" ">
<path fill="none" stroke="#63b8ff" d="M684.98,-283.66C758.71,-274.09 874.67,-247.41 939.19,-173 971.33,-135.95 993.91,-106.47 966.19,-66 947.38,-38.52 911.1,-26.14 881.8,-20.57"/>
<polygon fill="#63b8ff" stroke="#63b8ff" points="882.21,-17.09 871.76,-18.86 881.04,-23.99 882.21,-17.09"/>
</a>
</g>
</g>
<!-- Node5 -->
<g id="Node000005" class="node">
<title>Node5</title>
<g id="a_Node000005"><a xlink:href="../../da/d11/loggable__component__base_8hpp.html" target="_top" xlink:title="Contains components::LoggableComponentBase declaration and forward declarations of components::Compon...">
<polygon fill="white" stroke="#666666" points="930.19,-173 808.19,-173 808.19,-132 930.19,-132 930.19,-173"/>
<text text-anchor="start" x="816.19" y="-161" font-family="Helvetica,sans-Serif" font-size="10.00">userver/components</text>
<text text-anchor="start" x="816.19" y="-150" font-family="Helvetica,sans-Serif" font-size="10.00">/loggable_component</text>
<text text-anchor="middle" x="869.19" y="-139" font-family="Helvetica,sans-Serif" font-size="10.00">_base.hpp</text>
</a>
</g>
</g>
<!-- Node1&#45;&gt;Node5 -->
<g id="edge4_Node000001_Node000005" class="edge">
<title>Node1&#45;&gt;Node5</title>
<g id="a_edge4_Node000001_Node000005"><a xlink:title=" ">
<path fill="none" stroke="#63b8ff" d="M684.7,-275.56C714.94,-267.72 750.24,-255.95 779.19,-239 805.23,-223.76 829.71,-199.62 846.54,-180.87"/>
<polygon fill="#63b8ff" stroke="#63b8ff" points="849.3,-183.03 853.27,-173.2 844.04,-178.41 849.3,-183.03"/>
</a>
</g>
</g>
<!-- Node9 -->
<g id="Node000009" class="node">
<title>Node9</title>
<g id="a_Node000009"><a xlink:href="../../d4/de4/async__event__source_8hpp.html" target="_top" xlink:title="The read&#45;only side of an event channel. Events are delivered to listeners in a strict FIFO order,...">
<polygon fill="white" stroke="#666666" points="445.19,-167.5 305.19,-167.5 305.19,-137.5 445.19,-137.5 445.19,-167.5"/>
<text text-anchor="start" x="313.19" y="-155.5" font-family="Helvetica,sans-Serif" font-size="10.00">userver/concurrent</text>
<text text-anchor="middle" x="375.19" y="-144.5" font-family="Helvetica,sans-Serif" font-size="10.00">/async_event_source.hpp</text>
</a>
</g>
</g>
<!-- Node1&#45;&gt;Node9 -->
<g id="edge8_Node000001_Node000009" class="edge">
<title>Node1&#45;&gt;Node9</title>
<g id="a_edge8_Node000001_Node000009"><a xlink:title=" ">
<path fill="none" stroke="#63b8ff" d="M586.47,-274.85C566.02,-265.21 538.71,-251.91 515.19,-239 476.67,-217.85 433.73,-191.14 405.68,-173.25"/>
<polygon fill="#63b8ff" stroke="#63b8ff" points="407.44,-170.21 397.13,-167.77 403.66,-176.11 407.44,-170.21"/>
</a>
</g>
</g>
<!-- Node14 -->
<g id="Node000014" class="node">
<title>Node14</title>
<g id="a_Node000014"><a xlink:href="../../df/d22/snapshot_8hpp.html" target="_top" xlink:title="The storage for a snapshot of configs.">
<polygon fill="white" stroke="#666666" points="596.69,-167.5 463.69,-167.5 463.69,-137.5 596.69,-137.5 596.69,-167.5"/>
<text text-anchor="start" x="471.69" y="-155.5" font-family="Helvetica,sans-Serif" font-size="10.00">userver/dynamic_config</text>
<text text-anchor="middle" x="530.19" y="-144.5" font-family="Helvetica,sans-Serif" font-size="10.00">/snapshot.hpp</text>
</a>
</g>
</g>
<!-- Node1&#45;&gt;Node14 -->
<g id="edge14_Node000001_Node000014" class="edge">
<title>Node1&#45;&gt;Node14</title>
<g id="a_edge14_Node000001_Node000014"><a xlink:title=" ">
<path fill="none" stroke="#63b8ff" d="M571.06,-274.99C553.85,-267.27 536.11,-255.76 526.19,-239 515.25,-220.5 517.95,-195.62 522.37,-177.47"/>
<polygon fill="#63b8ff" stroke="#63b8ff" points="525.79,-178.23 525.08,-167.66 519.04,-176.36 525.79,-178.23"/>
</a>
</g>
</g>
<!-- Node22 -->
<g id="Node000022" class="node">
<title>Node22</title>
<g id="a_Node000022"><a xlink:href="../../d5/d02/fast__pimpl_8hpp.html" target="_top" xlink:title="Implements pimpl idiom without dynamic memory allocation.">
<polygon fill="white" stroke="#666666" points="752.69,-96 653.69,-96 653.69,-66 752.69,-66 752.69,-96"/>
<text text-anchor="start" x="661.69" y="-84" font-family="Helvetica,sans-Serif" font-size="10.00">userver/utils/fast</text>
<text text-anchor="middle" x="703.19" y="-73" font-family="Helvetica,sans-Serif" font-size="10.00">_pimpl.hpp</text>
</a>
</g>
</g>
<!-- Node1&#45;&gt;Node22 -->
<g id="edge44_Node000001_Node000022" class="edge">
<title>Node1&#45;&gt;Node22</title>
<g id="a_edge44_Node000001_Node000022"><a xlink:title=" ">
<path fill="none" stroke="#63b8ff" d="M674.42,-274.95C693.28,-267.41 712.42,-256.04 724.19,-239 751.26,-199.83 740.5,-178.25 729.19,-132 726.9,-122.61 722.5,-113.02 717.97,-104.78"/>
<polygon fill="#63b8ff" stroke="#63b8ff" points="720.97,-102.99 712.89,-96.14 714.94,-106.53 720.97,-102.99"/>
</a>
</g>
</g>
<!-- Node24 -->
<g id="Node000024" class="node">
<title>Node24</title>
<g id="a_Node000024"><a xlink:href="../../d2/d2e/source_8hpp.html" target="_top" xlink:title="A client for easy dynamic config fetching in components.">
<polygon fill="white" stroke="#666666" points="305.69,-239 172.69,-239 172.69,-209 305.69,-209 305.69,-239"/>
<text text-anchor="start" x="180.69" y="-227" font-family="Helvetica,sans-Serif" font-size="10.00">userver/dynamic_config</text>
<text text-anchor="middle" x="239.19" y="-216" font-family="Helvetica,sans-Serif" font-size="10.00">/source.hpp</text>
</a>
</g>
</g>
<!-- Node1&#45;&gt;Node24 -->
<g id="edge31_Node000001_Node000024" class="edge">
<title>Node1&#45;&gt;Node24</title>
<g id="a_edge31_Node000001_Node000024"><a xlink:title=" ">
<path fill="none" stroke="#63b8ff" d="M549.62,-277.56C483.94,-266.44 384.33,-249.57 315.76,-237.96"/>
<polygon fill="#63b8ff" stroke="#63b8ff" points="316.31,-234.51 305.87,-236.29 315.15,-241.41 316.31,-234.51"/>
</a>
</g>
</g>
<!-- Node27 -->
<g id="Node000027" class="node">
<title>Node27</title>
<g id="a_Node000027"><a xlink:href="../../d5/d81/core_2include_2userver_2dynamic__config_2updates__sink_2component_8hpp.html" target="_top" xlink:title="Base class for components acting as dynamic config updates sinks.">
<polygon fill="white" stroke="#666666" points="698.69,-239 535.69,-239 535.69,-209 698.69,-209 698.69,-239"/>
<text text-anchor="start" x="543.69" y="-227" font-family="Helvetica,sans-Serif" font-size="10.00">userver/dynamic_config</text>
<text text-anchor="middle" x="617.19" y="-216" font-family="Helvetica,sans-Serif" font-size="10.00">/updates_sink/component.hpp</text>
</a>
</g>
</g>
<!-- Node1&#45;&gt;Node27 -->
<g id="edge39_Node000001_Node000027" class="edge">
<title>Node1&#45;&gt;Node27</title>
<g id="a_edge39_Node000001_Node000027"><a xlink:title=" ">
<path fill="none" stroke="#63b8ff" d="M617.19,-274.8C617.19,-267.34 617.19,-257.99 617.19,-249.41"/>
<polygon fill="#63b8ff" stroke="#63b8ff" points="620.69,-249.16 617.19,-239.16 613.69,-249.16 620.69,-249.16"/>
</a>
</g>
</g>
<!-- Node6 -->
<g id="Node000006" class="node">
<title>Node6</title>
<g id="a_Node000006"><a xlink:href="../../d7/d47/component__fwd_8hpp.html" target="_top" xlink:title="Forward declarations for components::ComponentContext and components::ComponentConfig; function compo...">
<polygon fill="white" stroke="#666666" points="1131.19,-96 1013.19,-96 1013.19,-66 1131.19,-66 1131.19,-96"/>
<text text-anchor="start" x="1021.19" y="-84" font-family="Helvetica,sans-Serif" font-size="10.00">userver/components</text>
<text text-anchor="middle" x="1072.19" y="-73" font-family="Helvetica,sans-Serif" font-size="10.00">/component_fwd.hpp</text>
</a>
</g>
</g>
<!-- Node5&#45;&gt;Node6 -->
<g id="edge5_Node000005_Node000006" class="edge">
<title>Node5&#45;&gt;Node6</title>
<g id="a_edge5_Node000005_Node000006"><a xlink:title=" ">
<path fill="none" stroke="#63b8ff" d="M926.28,-131.96C956.31,-121.68 992.8,-109.18 1021.77,-99.26"/>
<polygon fill="#63b8ff" stroke="#63b8ff" points="1022.96,-102.55 1031.29,-96 1020.7,-95.93 1022.96,-102.55"/>
</a>
</g>
</g>
<!-- Node8 -->
<g id="Node000008" class="node">
<title>Node8</title>
<g id="a_Node000008"><a xlink:href="../../d2/d61/component__base_8hpp_source.html" target="_top" xlink:title=" ">
<polygon fill="white" stroke="#666666" points="957.69,-96 808.69,-96 808.69,-66 957.69,-66 957.69,-96"/>
<text text-anchor="start" x="816.69" y="-84" font-family="Helvetica,sans-Serif" font-size="10.00">userver/components</text>
<text text-anchor="middle" x="883.19" y="-73" font-family="Helvetica,sans-Serif" font-size="10.00">/impl/component_base.hpp</text>
</a>
</g>
</g>
<!-- Node5&#45;&gt;Node8 -->
<g id="edge7_Node000005_Node000008" class="edge">
<title>Node5&#45;&gt;Node8</title>
<g id="a_edge7_Node000005_Node000008"><a xlink:title=" ">
<path fill="none" stroke="#63b8ff" d="M873.17,-131.77C874.78,-123.76 876.66,-114.42 878.36,-106.02"/>
<polygon fill="#63b8ff" stroke="#63b8ff" points="881.82,-106.53 880.37,-96.04 874.96,-105.15 881.82,-106.53"/>
</a>
</g>
</g>
<!-- Node7 -->
<g id="Node000007" class="node">
<title>Node7</title>
<g id="a_Node000007"><a xlink:title=" ">
<polygon fill="#e0e0e0" stroke="#999999" points="1094.19,-24.5 1050.19,-24.5 1050.19,-5.5 1094.19,-5.5 1094.19,-24.5"/>
<text text-anchor="middle" x="1072.19" y="-12.5" font-family="Helvetica,sans-Serif" font-size="10.00">string</text>
</a>
</g>
</g>
<!-- Node6&#45;&gt;Node7 -->
<g id="edge6_Node000006_Node000007" class="edge">
<title>Node6&#45;&gt;Node7</title>
<g id="a_edge6_Node000006_Node000007"><a xlink:title=" ">
<path fill="none" stroke="#63b8ff" d="M1072.19,-65.8C1072.19,-56.7 1072.19,-44.79 1072.19,-34.9"/>
<polygon fill="#63b8ff" stroke="#63b8ff" points="1075.69,-34.84 1072.19,-24.84 1068.69,-34.84 1075.69,-34.84"/>
</a>
</g>
</g>
<!-- Node9&#45;&gt;Node3 -->
<g id="edge11_Node000009_Node000003" class="edge">
<title>Node9&#45;&gt;Node3</title>
<g id="a_edge11_Node000009_Node000003"><a xlink:title=" ">
<path fill="none" stroke="#63b8ff" d="M327.03,-137.44C282.61,-124.46 217.48,-105.45 176.23,-93.4"/>
<polygon fill="#63b8ff" stroke="#63b8ff" points="177.11,-90.01 166.53,-90.57 175.15,-96.73 177.11,-90.01"/>
</a>
</g>
</g>
<!-- Node10 -->
<g id="Node000010" class="node">
<title>Node10</title>
<g id="a_Node000010"><a xlink:title=" ">
<polygon fill="#e0e0e0" stroke="#999999" points="729.69,-24.5 676.69,-24.5 676.69,-5.5 729.69,-5.5 729.69,-24.5"/>
<text text-anchor="middle" x="703.19" y="-12.5" font-family="Helvetica,sans-Serif" font-size="10.00">cstddef</text>
</a>
</g>
</g>
<!-- Node9&#45;&gt;Node10 -->
<g id="edge9_Node000009_Node000010" class="edge">
<title>Node9&#45;&gt;Node10</title>
<g id="a_edge9_Node000009_Node000010"><a xlink:title=" ">
<path fill="none" stroke="#63b8ff" d="M410.03,-137.48C434.08,-127.23 466.43,-112.33 493.19,-96 511.86,-84.61 512.58,-75.67 532.19,-66 587.89,-38.54 608.17,-49.28 667.19,-30 669.06,-29.39 670.97,-28.74 672.89,-28.06"/>
<polygon fill="#63b8ff" stroke="#63b8ff" points="674.23,-31.29 682.4,-24.54 671.8,-24.73 674.23,-31.29"/>
</a>
</g>
</g>
<!-- Node11 -->
<g id="Node000011" class="node">
<title>Node11</title>
<g id="a_Node000011"><a xlink:title=" ">
<polygon fill="#e0e0e0" stroke="#999999" points="333.69,-90.5 268.69,-90.5 268.69,-71.5 333.69,-71.5 333.69,-90.5"/>
<text text-anchor="middle" x="301.19" y="-78.5" font-family="Helvetica,sans-Serif" font-size="10.00">functional</text>
</a>
</g>
</g>
<!-- Node9&#45;&gt;Node11 -->
<g id="edge10_Node000009_Node000011" class="edge">
<title>Node9&#45;&gt;Node11</title>
<g id="a_edge10_Node000009_Node000011"><a xlink:title=" ">
<path fill="none" stroke="#63b8ff" d="M360.22,-137.44C348.02,-125.98 330.81,-109.82 318.12,-97.9"/>
<polygon fill="#63b8ff" stroke="#63b8ff" points="320.21,-95.06 310.53,-90.77 315.42,-100.16 320.21,-95.06"/>
</a>
</g>
</g>
<!-- Node12 -->
<g id="Node000012" class="node">
<title>Node12</title>
<g id="a_Node000012"><a xlink:title=" ">
<polygon fill="#e0e0e0" stroke="#999999" points="223.69,-24.5 166.69,-24.5 166.69,-5.5 223.69,-5.5 223.69,-24.5"/>
<text text-anchor="middle" x="195.19" y="-12.5" font-family="Helvetica,sans-Serif" font-size="10.00">typeinfo</text>
</a>
</g>
</g>
<!-- Node9&#45;&gt;Node12 -->
<g id="edge12_Node000009_Node000012" class="edge">
<title>Node9&#45;&gt;Node12</title>
<g id="a_edge12_Node000009_Node000012"><a xlink:title=" ">
<path fill="none" stroke="#63b8ff" d="M334.8,-137.41C311.25,-127.97 281.83,-113.98 259.19,-96 236.63,-78.08 216.99,-50.8 205.62,-33.19"/>
<polygon fill="#63b8ff" stroke="#63b8ff" points="208.46,-31.13 200.18,-24.52 202.53,-34.85 208.46,-31.13"/>
</a>
</g>
</g>
<!-- Node13 -->
<g id="Node000013" class="node">
<title>Node13</title>
<g id="a_Node000013"><a xlink:title=" ">
<polygon fill="#e0e0e0" stroke="#999999" points="148.69,-24.5 103.69,-24.5 103.69,-5.5 148.69,-5.5 148.69,-24.5"/>
<text text-anchor="middle" x="126.19" y="-12.5" font-family="Helvetica,sans-Serif" font-size="10.00">utility</text>
</a>
</g>
</g>
<!-- Node9&#45;&gt;Node13 -->
<g id="edge13_Node000009_Node000013" class="edge">
<title>Node9&#45;&gt;Node13</title>
<g id="a_edge13_Node000009_Node000013"><a xlink:title=" ">
<path fill="none" stroke="#63b8ff" d="M325.81,-137.48C295.93,-127.95 257.65,-113.83 226.19,-96 193.84,-77.66 161.08,-49.14 142.25,-31.57"/>
<polygon fill="#63b8ff" stroke="#63b8ff" points="144.52,-28.89 134.86,-24.55 139.7,-33.97 144.52,-28.89"/>
</a>
</g>
</g>
<!-- Node14&#45;&gt;Node4 -->
<g id="edge16_Node000014_Node000004" class="edge">
<title>Node14&#45;&gt;Node4</title>
<g id="a_edge16_Node000014_Node000004"><a xlink:title=" ">
<path fill="none" stroke="#63b8ff" d="M596.76,-139.86C654.67,-128.95 733.51,-111.98 761.19,-96 788.73,-80.11 812.51,-51.2 825.82,-32.83"/>
<polygon fill="#63b8ff" stroke="#63b8ff" points="828.76,-34.73 831.64,-24.54 823.03,-30.71 828.76,-34.73"/>
</a>
</g>
</g>
<!-- Node15 -->
<g id="Node000015" class="node">
<title>Node15</title>
<g id="a_Node000015"><a xlink:title=" ">
<polygon fill="#e0e0e0" stroke="#999999" points="597.19,-90.5 541.19,-90.5 541.19,-71.5 597.19,-71.5 597.19,-90.5"/>
<text text-anchor="middle" x="569.19" y="-78.5" font-family="Helvetica,sans-Serif" font-size="10.00">optional</text>
</a>
</g>
</g>
<!-- Node14&#45;&gt;Node15 -->
<g id="edge15_Node000014_Node000015" class="edge">
<title>Node14&#45;&gt;Node15</title>
<g id="a_edge15_Node000014_Node000015"><a xlink:title=" ">
<path fill="none" stroke="#63b8ff" d="M538.09,-137.44C544.21,-126.53 552.73,-111.35 559.3,-99.63"/>
<polygon fill="#63b8ff" stroke="#63b8ff" points="562.43,-101.2 564.27,-90.77 556.33,-97.77 562.43,-101.2"/>
</a>
</g>
</g>
<!-- Node16 -->
<g id="Node000016" class="node">
<title>Node16</title>
<g id="a_Node000016"><a xlink:href="../../d8/d20/impl_2snapshot_8hpp_source.html" target="_top" xlink:title=" ">
<polygon fill="white" stroke="#666666" points="484.69,-96 351.69,-96 351.69,-66 484.69,-66 484.69,-96"/>
<text text-anchor="start" x="359.69" y="-84" font-family="Helvetica,sans-Serif" font-size="10.00">userver/dynamic_config</text>
<text text-anchor="middle" x="418.19" y="-73" font-family="Helvetica,sans-Serif" font-size="10.00">/impl/snapshot.hpp</text>
</a>
</g>
</g>
<!-- Node14&#45;&gt;Node16 -->
<g id="edge17_Node000014_Node000016" class="edge">
<title>Node14&#45;&gt;Node16</title>
<g id="a_edge17_Node000014_Node000016"><a xlink:title=" ">
<path fill="none" stroke="#63b8ff" d="M507.53,-137.44C490.83,-127.07 467.91,-112.85 449.47,-101.41"/>
<polygon fill="#63b8ff" stroke="#63b8ff" points="451.17,-98.34 440.83,-96.04 447.48,-104.29 451.17,-98.34"/>
</a>
</g>
</g>
<!-- Node14&#45;&gt;Node22 -->
<g id="edge26_Node000014_Node000022" class="edge">
<title>Node14&#45;&gt;Node22</title>
<g id="a_edge26_Node000014_Node000022"><a xlink:title=" ">
<path fill="none" stroke="#63b8ff" d="M565.2,-137.44C592.17,-126.6 629.63,-111.55 658.72,-99.87"/>
<polygon fill="#63b8ff" stroke="#63b8ff" points="660.26,-103.02 668.24,-96.04 657.65,-96.52 660.26,-103.02"/>
</a>
</g>
</g>
<!-- Node16&#45;&gt;Node4 -->
<g id="edge21_Node000016_Node000004" class="edge">
<title>Node16&#45;&gt;Node4</title>
<g id="a_edge21_Node000016_Node000004"><a xlink:title=" ">
<path fill="none" stroke="#63b8ff" d="M484.72,-71.77C584.36,-59.36 763.83,-36.58 793.19,-30 796.4,-29.28 799.71,-28.43 803.01,-27.52"/>
<polygon fill="#63b8ff" stroke="#63b8ff" points="804.15,-30.83 812.74,-24.62 802.15,-24.12 804.15,-30.83"/>
</a>
</g>
</g>
<!-- Node16&#45;&gt;Node10 -->
<g id="edge19_Node000016_Node000010" class="edge">
<title>Node16&#45;&gt;Node10</title>
<g id="a_edge19_Node000016_Node000010"><a xlink:title=" ">
<path fill="none" stroke="#63b8ff" d="M484.74,-67.98C546.47,-56.59 633.71,-39.79 667.19,-30 669.13,-29.44 671.1,-28.81 673.08,-28.15"/>
<polygon fill="#63b8ff" stroke="#63b8ff" points="674.63,-31.31 682.85,-24.62 672.25,-24.72 674.63,-31.31"/>
</a>
</g>
</g>
<!-- Node16&#45;&gt;Node12 -->
<g id="edge23_Node000016_Node000012" class="edge">
<title>Node16&#45;&gt;Node12</title>
<g id="a_edge23_Node000016_Node000012"><a xlink:title=" ">
<path fill="none" stroke="#63b8ff" d="M359.95,-65.92C323.07,-56.62 274.52,-43.66 232.19,-30 230.28,-29.38 228.32,-28.72 226.36,-28.04"/>
<polygon fill="#63b8ff" stroke="#63b8ff" points="227.18,-24.62 216.59,-24.51 224.8,-31.2 227.18,-24.62"/>
</a>
</g>
</g>
<!-- Node17 -->
<g id="Node000017" class="node">
<title>Node17</title>
<g id="a_Node000017"><a xlink:title=" ">
<polygon fill="#e0e0e0" stroke="#999999" points="276.69,-24.5 241.69,-24.5 241.69,-5.5 276.69,-5.5 276.69,-24.5"/>
<text text-anchor="middle" x="259.19" y="-12.5" font-family="Helvetica,sans-Serif" font-size="10.00">any</text>
</a>
</g>
</g>
<!-- Node16&#45;&gt;Node17 -->
<g id="edge18_Node000016_Node000017" class="edge">
<title>Node16&#45;&gt;Node17</title>
<g id="a_edge18_Node000016_Node000017"><a xlink:title=" ">
<path fill="none" stroke="#63b8ff" d="M376.57,-65.97C350.05,-56.64 315.17,-43.63 285.19,-30 284.64,-29.75 284.08,-29.49 283.52,-29.22"/>
<polygon fill="#63b8ff" stroke="#63b8ff" points="284.93,-26.01 274.42,-24.64 281.77,-32.26 284.93,-26.01"/>
</a>
</g>
</g>
<!-- Node18 -->
<g id="Node000018" class="node">
<title>Node18</title>
<g id="a_Node000018"><a xlink:title=" ">
<polygon fill="#e0e0e0" stroke="#999999" points="359.69,-24.5 294.69,-24.5 294.69,-5.5 359.69,-5.5 359.69,-24.5"/>
<text text-anchor="middle" x="327.19" y="-12.5" font-family="Helvetica,sans-Serif" font-size="10.00">exception</text>
</a>
</g>
</g>
<!-- Node16&#45;&gt;Node18 -->
<g id="edge20_Node000016_Node000018" class="edge">
<title>Node16&#45;&gt;Node18</title>
<g id="a_edge20_Node000016_Node000018"><a xlink:title=" ">
<path fill="none" stroke="#63b8ff" d="M398,-65.8C383.17,-55.37 363.08,-41.24 348.09,-30.69"/>
<polygon fill="#63b8ff" stroke="#63b8ff" points="349.7,-27.55 339.51,-24.66 345.67,-33.27 349.7,-27.55"/>
</a>
</g>
</g>
<!-- Node19 -->
<g id="Node000019" class="node">
<title>Node19</title>
<g id="a_Node000019"><a xlink:title=" ">
<polygon fill="#e0e0e0" stroke="#999999" points="442.69,-24.5 377.69,-24.5 377.69,-5.5 442.69,-5.5 442.69,-24.5"/>
<text text-anchor="middle" x="410.19" y="-12.5" font-family="Helvetica,sans-Serif" font-size="10.00">typeindex</text>
</a>
</g>
</g>
<!-- Node16&#45;&gt;Node19 -->
<g id="edge22_Node000016_Node000019" class="edge">
<title>Node16&#45;&gt;Node19</title>
<g id="a_edge22_Node000016_Node000019"><a xlink:title=" ">
<path fill="none" stroke="#63b8ff" d="M416.42,-65.8C415.28,-56.7 413.79,-44.79 412.56,-34.9"/>
<polygon fill="#63b8ff" stroke="#63b8ff" points="416.01,-34.33 411.3,-24.84 409.07,-35.2 416.01,-34.33"/>
</a>
</g>
</g>
<!-- Node20 -->
<g id="Node000020" class="node">
<title>Node20</title>
<g id="a_Node000020"><a xlink:title=" ">
<polygon fill="#e0e0e0" stroke="#999999" points="507.69,-24.5 460.69,-24.5 460.69,-5.5 507.69,-5.5 507.69,-24.5"/>
<text text-anchor="middle" x="484.19" y="-12.5" font-family="Helvetica,sans-Serif" font-size="10.00">vector</text>
</a>
</g>
</g>
<!-- Node16&#45;&gt;Node20 -->
<g id="edge24_Node000016_Node000020" class="edge">
<title>Node16&#45;&gt;Node20</title>
<g id="a_edge24_Node000016_Node000020"><a xlink:title=" ">
<path fill="none" stroke="#63b8ff" d="M432.84,-65.8C443.13,-55.82 456.91,-42.46 467.61,-32.09"/>
<polygon fill="#63b8ff" stroke="#63b8ff" points="470.33,-34.32 475.07,-24.84 465.46,-29.29 470.33,-34.32"/>
</a>
</g>
</g>
<!-- Node21 -->
<g id="Node000021" class="node">
<title>Node21</title>
<g id="a_Node000021"><a xlink:href="../../df/d7e/core_2include_2userver_2dynamic__config_2fwd_8hpp.html" target="_top" xlink:title="Forward declarations of dynamic_config classes.">
<polygon fill="white" stroke="#666666" points="658.69,-30 525.69,-30 525.69,0 658.69,0 658.69,-30"/>
<text text-anchor="start" x="533.69" y="-18" font-family="Helvetica,sans-Serif" font-size="10.00">userver/dynamic_config</text>
<text text-anchor="middle" x="592.19" y="-7" font-family="Helvetica,sans-Serif" font-size="10.00">/fwd.hpp</text>
</a>
</g>
</g>
<!-- Node16&#45;&gt;Node21 -->
<g id="edge25_Node000016_Node000021" class="edge">
<title>Node16&#45;&gt;Node21</title>
<g id="a_edge25_Node000016_Node000021"><a xlink:title=" ">
<path fill="none" stroke="#63b8ff" d="M456.38,-65.95C482.33,-56.41 516.85,-43.71 544.59,-33.51"/>
<polygon fill="#63b8ff" stroke="#63b8ff" points="545.92,-36.75 554.1,-30.01 543.5,-30.18 545.92,-36.75"/>
</a>
</g>
</g>
<!-- Node22&#45;&gt;Node4 -->
<g id="edge29_Node000022_Node000004" class="edge">
<title>Node22&#45;&gt;Node4</title>
<g id="a_edge29_Node000022_Node000004"><a xlink:title=" ">
<path fill="none" stroke="#63b8ff" d="M732.6,-65.95C755.69,-54.93 787.58,-39.7 810.06,-28.96"/>
<polygon fill="#63b8ff" stroke="#63b8ff" points="811.85,-31.99 819.36,-24.52 808.83,-25.67 811.85,-31.99"/>
</a>
</g>
</g>
<!-- Node22&#45;&gt;Node10 -->
<g id="edge27_Node000022_Node000010" class="edge">
<title>Node22&#45;&gt;Node10</title>
<g id="a_edge27_Node000022_Node000010"><a xlink:title=" ">
<path fill="none" stroke="#63b8ff" d="M703.19,-65.8C703.19,-56.7 703.19,-44.79 703.19,-34.9"/>
<polygon fill="#63b8ff" stroke="#63b8ff" points="706.69,-34.84 703.19,-24.84 699.69,-34.84 706.69,-34.84"/>
</a>
</g>
</g>
<!-- Node22&#45;&gt;Node13 -->
<g id="edge30_Node000022_Node000013" class="edge">
<title>Node22&#45;&gt;Node13</title>
<g id="a_edge30_Node000022_Node000013"><a xlink:title=" ">
<path fill="none" stroke="#63b8ff" d="M653.43,-72.2C638.29,-69.99 621.58,-67.73 606.19,-66 407.25,-43.69 351.06,-79.94 157.19,-30 155.5,-29.56 153.79,-29.04 152.08,-28.46"/>
<polygon fill="#63b8ff" stroke="#63b8ff" points="153.13,-25.11 142.54,-24.65 150.53,-31.61 153.13,-25.11"/>
</a>
</g>
</g>
<!-- Node23 -->
<g id="Node000023" class="node">
<title>Node23</title>
<g id="a_Node000023"><a xlink:title=" ">
<polygon fill="#e0e0e0" stroke="#999999" points="784.69,-24.5 747.69,-24.5 747.69,-5.5 784.69,-5.5 784.69,-24.5"/>
<text text-anchor="middle" x="766.19" y="-12.5" font-family="Helvetica,sans-Serif" font-size="10.00">new</text>
</a>
</g>
</g>
<!-- Node22&#45;&gt;Node23 -->
<g id="edge28_Node000022_Node000023" class="edge">
<title>Node22&#45;&gt;Node23</title>
<g id="a_edge28_Node000022_Node000023"><a xlink:title=" ">
<path fill="none" stroke="#63b8ff" d="M717.18,-65.8C727,-55.82 740.15,-42.46 750.36,-32.09"/>
<polygon fill="#63b8ff" stroke="#63b8ff" points="752.97,-34.43 757.49,-24.84 747.98,-29.52 752.97,-34.43"/>
</a>
</g>
</g>
<!-- Node24&#45;&gt;Node3 -->
<g id="edge32_Node000024_Node000003" class="edge">
<title>Node24&#45;&gt;Node3</title>
<g id="a_edge32_Node000024_Node000003"><a xlink:title=" ">
<path fill="none" stroke="#63b8ff" d="M239.4,-208.68C238.98,-189.5 235.73,-155.17 219.19,-132 207.18,-115.17 187.56,-102.91 170.52,-94.74"/>
<polygon fill="#63b8ff" stroke="#63b8ff" points="171.94,-91.54 161.39,-90.62 169.07,-97.92 171.94,-91.54"/>
</a>
</g>
</g>
<!-- Node24&#45;&gt;Node9 -->
<g id="edge35_Node000024_Node000009" class="edge">
<title>Node24&#45;&gt;Node9</title>
<g id="a_edge35_Node000024_Node000009"><a xlink:title=" ">
<path fill="none" stroke="#63b8ff" d="M266.72,-208.94C287.45,-198.34 316.09,-183.7 338.73,-172.13"/>
<polygon fill="#63b8ff" stroke="#63b8ff" points="340.4,-175.21 347.71,-167.54 337.22,-168.98 340.4,-175.21"/>
</a>
</g>
</g>
<!-- Node24&#45;&gt;Node13 -->
<g id="edge34_Node000024_Node000013" class="edge">
<title>Node24&#45;&gt;Node13</title>
<g id="a_edge34_Node000024_Node000013"><a xlink:title=" ">
<path fill="none" stroke="#63b8ff" d="M172.51,-217.5C112.63,-211.02 31.17,-197.83 11.19,-173 -30.03,-121.76 57.93,-57.67 102.45,-29.9"/>
<polygon fill="#63b8ff" stroke="#63b8ff" points="104.51,-32.74 111.23,-24.54 100.87,-26.76 104.51,-32.74"/>
</a>
</g>
</g>
<!-- Node24&#45;&gt;Node14 -->
<g id="edge36_Node000024_Node000014" class="edge">
<title>Node24&#45;&gt;Node14</title>
<g id="a_edge36_Node000024_Node000014"><a xlink:title=" ">
<path fill="none" stroke="#63b8ff" d="M301.38,-208.93C344.36,-199.11 402.82,-185.56 454.19,-173 458.03,-172.06 461.97,-171.09 465.94,-170.09"/>
<polygon fill="#63b8ff" stroke="#63b8ff" points="467,-173.44 475.85,-167.6 465.3,-166.65 467,-173.44"/>
</a>
</g>
</g>
<!-- Node25 -->
<g id="Node000025" class="node">
<title>Node25</title>
<g id="a_Node000025"><a xlink:title=" ">
<polygon fill="#e0e0e0" stroke="#999999" points="61.69,-162 20.69,-162 20.69,-143 61.69,-143 61.69,-162"/>
<text text-anchor="middle" x="41.19" y="-150" font-family="Helvetica,sans-Serif" font-size="10.00">tuple</text>
</a>
</g>
</g>
<!-- Node24&#45;&gt;Node25 -->
<g id="edge33_Node000024_Node000025" class="edge">
<title>Node24&#45;&gt;Node25</title>
<g id="a_edge33_Node000024_Node000025"><a xlink:title=" ">
<path fill="none" stroke="#63b8ff" d="M175.31,-209C142.95,-200.7 103.56,-188.7 70.19,-173 67.07,-171.53 63.89,-169.74 60.85,-167.86"/>
<polygon fill="#63b8ff" stroke="#63b8ff" points="62.54,-164.78 52.29,-162.13 58.65,-170.6 62.54,-164.78"/>
</a>
</g>
</g>
<!-- Node26 -->
<g id="Node000026" class="node">
<title>Node26</title>
<g id="a_Node000026"><a xlink:href="../../d2/d54/assert_8hpp.html" target="_top" xlink:title="Assertion macros UASSERT, UASSERT_MSG, UINVARIANT.">
<polygon fill="white" stroke="#666666" points="210.69,-162 79.69,-162 79.69,-143 210.69,-143 210.69,-162"/>
<text text-anchor="middle" x="145.19" y="-150" font-family="Helvetica,sans-Serif" font-size="10.00">userver/utils/assert.hpp</text>
</a>
</g>
</g>
<!-- Node24&#45;&gt;Node26 -->
<g id="edge37_Node000024_Node000026" class="edge">
<title>Node24&#45;&gt;Node26</title>
<g id="a_edge37_Node000024_Node000026"><a xlink:title=" ">
<path fill="none" stroke="#63b8ff" d="M220.17,-208.94C204.15,-197.09 181.3,-180.2 165.05,-168.18"/>
<polygon fill="#63b8ff" stroke="#63b8ff" points="166.9,-165.2 156.78,-162.07 162.74,-170.83 166.9,-165.2"/>
</a>
</g>
</g>
<!-- Node26&#45;&gt;Node3 -->
<g id="edge38_Node000026_Node000003" class="edge">
<title>Node26&#45;&gt;Node3</title>
<g id="a_edge38_Node000026_Node000003"><a xlink:title=" ">
<path fill="none" stroke="#63b8ff" d="M144.21,-142.98C143.01,-132.56 140.95,-114.61 139.37,-100.88"/>
<polygon fill="#63b8ff" stroke="#63b8ff" points="142.8,-100.13 138.18,-90.59 135.85,-100.93 142.8,-100.13"/>
</a>
</g>
</g>
<!-- Node27&#45;&gt;Node2 -->
<g id="edge40_Node000027_Node000002" class="edge">
<title>Node27&#45;&gt;Node2</title>
<g id="a_edge40_Node000027_Node000002"><a xlink:title=" ">
<path fill="none" stroke="#63b8ff" d="M632.17,-208.94C644.36,-197.48 661.58,-181.32 674.27,-169.4"/>
<polygon fill="#63b8ff" stroke="#63b8ff" points="676.97,-171.66 681.86,-162.27 672.17,-166.56 676.97,-171.66"/>
</a>
</g>
</g>
<!-- Node27&#45;&gt;Node3 -->
<g id="edge41_Node000027_Node000003" class="edge">
<title>Node27&#45;&gt;Node3</title>
<g id="a_edge41_Node000027_Node000003"><a xlink:title=" ">
<path fill="none" stroke="#63b8ff" d="M535.36,-221.27C468.62,-217.3 373.14,-205.71 296.19,-173 268.46,-161.21 267.93,-147.67 242.19,-132 218.12,-117.34 189.07,-103.8 167.64,-94.52"/>
<polygon fill="#63b8ff" stroke="#63b8ff" points="168.94,-91.27 158.37,-90.56 166.19,-97.71 168.94,-91.27"/>
</a>
</g>
</g>
<!-- Node27&#45;&gt;Node5 -->
<g id="edge42_Node000027_Node000005" class="edge">
<title>Node27&#45;&gt;Node5</title>
<g id="a_edge42_Node000027_Node000005"><a xlink:title=" ">
<path fill="none" stroke="#63b8ff" d="M668.19,-208.94C705.6,-198.62 756.89,-184.47 798.29,-173.05"/>
<polygon fill="#63b8ff" stroke="#63b8ff" points="799.34,-176.4 808.05,-170.36 797.48,-169.65 799.34,-176.4"/>
</a>
</g>
</g>
<!-- Node27&#45;&gt;Node21 -->
<g id="edge43_Node000027_Node000021" class="edge">
<title>Node27&#45;&gt;Node21</title>
<g id="a_edge43_Node000027_Node000021"><a xlink:title=" ">
<path fill="none" stroke="#63b8ff" d="M617.16,-208.6C616.88,-180.81 615.19,-117.96 606.19,-66 604.7,-57.38 602.33,-48.11 599.96,-39.93"/>
<polygon fill="#63b8ff" stroke="#63b8ff" points="603.28,-38.81 597.02,-30.26 596.58,-40.85 603.28,-38.81"/>
</a>
</g>
</g>
</g>
</svg>
