<?xml version="1.0" encoding="UTF-8" standalone="no"?>
<!DOCTYPE svg PUBLIC "-//W3C//DTD SVG 1.1//EN"
 "http://www.w3.org/Graphics/SVG/1.1/DTD/svg11.dtd">
<!-- Generated by graphviz version 2.43.0 (0)
 -->
<!-- Title: userver/storages/clickhouse/io/columns/int8_column.hpp Pages: 1 -->
<svg width="332pt" height="489pt"
 viewBox="0.00 0.00 332.00 489.00" xmlns="http://www.w3.org/2000/svg" xmlns:xlink="http://www.w3.org/1999/xlink">
<g id="graph0" class="graph" transform="scale(1 1) rotate(0) translate(4 485)">
<title>userver/storages/clickhouse/io/columns/int8_column.hpp</title>
<!-- Node1 -->
<g id="Node000001" class="node">
<title>Node1</title>
<g id="a_Node000001"><a xlink:title="Int8 column support.">
<polygon fill="#999999" stroke="#666666" points="252,-481 95,-481 95,-451 252,-451 252,-481"/>
<text text-anchor="start" x="103" y="-469" font-family="Helvetica,sans-Serif" font-size="10.00">userver/storages/clickhouse</text>
<text text-anchor="middle" x="173.5" y="-458" font-family="Helvetica,sans-Serif" font-size="10.00">/io/columns/int8_column.hpp</text>
</a>
</g>
</g>
<!-- Node2 -->
<g id="Node000002" class="node">
<title>Node2</title>
<g id="a_Node000002"><a xlink:href="../../d3/d25/common__columns_8hpp.html" target="_top" xlink:title=" ">
<polygon fill="white" stroke="#666666" points="266.5,-415 80.5,-415 80.5,-385 266.5,-385 266.5,-415"/>
<text text-anchor="start" x="88.5" y="-403" font-family="Helvetica,sans-Serif" font-size="10.00">userver/storages/clickhouse</text>
<text text-anchor="middle" x="173.5" y="-392" font-family="Helvetica,sans-Serif" font-size="10.00">/io/columns/common_columns.hpp</text>
</a>
</g>
</g>
<!-- Node1&#45;&gt;Node2 -->
<g id="edge1_Node000001_Node000002" class="edge">
<title>Node1&#45;&gt;Node2</title>
<g id="a_edge1_Node000001_Node000002"><a xlink:title=" ">
<path fill="none" stroke="#63b8ff" d="M173.5,-440.54C173.5,-431.96 173.5,-422.61 173.5,-415.16"/>
<polygon fill="#63b8ff" stroke="#63b8ff" points="170,-440.8 173.5,-450.8 177,-440.8 170,-440.8"/>
</a>
</g>
</g>
<!-- Node3 -->
<g id="Node000003" class="node">
<title>Node3</title>
<g id="a_Node000003"><a xlink:href="../../dd/d84/insertion__request_8hpp_source.html" target="_top" xlink:title=" ">
<polygon fill="white" stroke="#666666" points="153,-217 0,-217 0,-187 153,-187 153,-217"/>
<text text-anchor="start" x="8" y="-205" font-family="Helvetica,sans-Serif" font-size="10.00">userver/storages/clickhouse</text>
<text text-anchor="middle" x="76.5" y="-194" font-family="Helvetica,sans-Serif" font-size="10.00">/impl/insertion_request.hpp</text>
</a>
</g>
</g>
<!-- Node2&#45;&gt;Node3 -->
<g id="edge2_Node000002_Node000003" class="edge">
<title>Node2&#45;&gt;Node3</title>
<g id="a_edge2_Node000002_Node000003"><a xlink:title=" ">
<path fill="none" stroke="#63b8ff" d="M113.48,-380.68C98.88,-373.25 85.03,-363 76.5,-349 50.91,-307.01 64.1,-244.82 72,-217.15"/>
<polygon fill="#63b8ff" stroke="#63b8ff" points="112.08,-383.89 122.62,-384.95 115.04,-377.55 112.08,-383.89"/>
</a>
</g>
</g>
<!-- Node6 -->
<g id="Node000006" class="node">
<title>Node6</title>
<g id="a_Node000006"><a xlink:href="../../d3/d11/nullable__column_8hpp.html" target="_top" xlink:title="Nullable column support.">
<polygon fill="white" stroke="#666666" points="262,-349 85,-349 85,-319 262,-319 262,-349"/>
<text text-anchor="start" x="93" y="-337" font-family="Helvetica,sans-Serif" font-size="10.00">userver/storages/clickhouse</text>
<text text-anchor="middle" x="173.5" y="-326" font-family="Helvetica,sans-Serif" font-size="10.00">/io/columns/nullable_column.hpp</text>
</a>
</g>
</g>
<!-- Node2&#45;&gt;Node6 -->
<g id="edge5_Node000002_Node000006" class="edge">
<title>Node2&#45;&gt;Node6</title>
<g id="a_edge5_Node000002_Node000006"><a xlink:title=" ">
<path fill="none" stroke="#63b8ff" d="M173.5,-374.54C173.5,-365.96 173.5,-356.61 173.5,-349.16"/>
<polygon fill="#63b8ff" stroke="#63b8ff" points="170,-374.8 173.5,-384.8 177,-374.8 170,-374.8"/>
</a>
</g>
</g>
<!-- Node7 -->
<g id="Node000007" class="node">
<title>Node7</title>
<g id="a_Node000007"><a xlink:href="../../dc/d3f/validate_8hpp_source.html" target="_top" xlink:title=" ">
<polygon fill="white" stroke="#666666" points="312,-283 159,-283 159,-253 312,-253 312,-283"/>
<text text-anchor="start" x="167" y="-271" font-family="Helvetica,sans-Serif" font-size="10.00">userver/storages/clickhouse</text>
<text text-anchor="middle" x="235.5" y="-260" font-family="Helvetica,sans-Serif" font-size="10.00">/io/impl/validate.hpp</text>
</a>
</g>
</g>
<!-- Node2&#45;&gt;Node7 -->
<g id="edge13_Node000002_Node000007" class="edge">
<title>Node2&#45;&gt;Node7</title>
<g id="a_edge13_Node000002_Node000007"><a xlink:title=" ">
<path fill="none" stroke="#63b8ff" d="M233.52,-380.68C248.12,-373.25 261.97,-363 270.5,-349 283.76,-327.25 264.54,-299.6 249.76,-283.15"/>
<polygon fill="#63b8ff" stroke="#63b8ff" points="231.96,-377.55 224.38,-384.95 234.92,-383.89 231.96,-377.55"/>
</a>
</g>
</g>
<!-- Node4 -->
<g id="Node000004" class="node">
<title>Node4</title>
<g id="a_Node000004"><a xlink:href="../../da/de8/clickhouse_2include_2userver_2storages_2clickhouse_2cluster_8hpp.html" target="_top" xlink:title="Interface for executing queries on a cluster of ClickHouse servers.">
<polygon fill="white" stroke="#666666" points="258,-85 105,-85 105,-55 258,-55 258,-85"/>
<text text-anchor="start" x="113" y="-73" font-family="Helvetica,sans-Serif" font-size="10.00">userver/storages/clickhouse</text>
<text text-anchor="middle" x="181.5" y="-62" font-family="Helvetica,sans-Serif" font-size="10.00">/cluster.hpp</text>
</a>
</g>
</g>
<!-- Node3&#45;&gt;Node4 -->
<g id="edge3_Node000003_Node000004" class="edge">
<title>Node3&#45;&gt;Node4</title>
<g id="a_edge3_Node000003_Node000004"><a xlink:title=" ">
<path fill="none" stroke="#63b8ff" d="M77.32,-176.59C79,-159.56 83.56,-137.08 95.5,-121 107.44,-104.92 126.22,-93.14 143.19,-85.07"/>
<polygon fill="#63b8ff" stroke="#63b8ff" points="73.81,-176.65 76.58,-186.88 80.79,-177.16 73.81,-176.65"/>
</a>
</g>
</g>
<!-- Node5 -->
<g id="Node000005" class="node">
<title>Node5</title>
<g id="a_Node000005"><a xlink:href="../../d7/d29/clickhouse_8hpp.html" target="_top" xlink:title=" ">
<polygon fill="white" stroke="#666666" points="320.5,-19 146.5,-19 146.5,0 320.5,0 320.5,-19"/>
<text text-anchor="middle" x="233.5" y="-7" font-family="Helvetica,sans-Serif" font-size="10.00">userver/storages/clickhouse.hpp</text>
</a>
</g>
</g>
<!-- Node4&#45;&gt;Node5 -->
<g id="edge4_Node000004_Node000005" class="edge">
<title>Node4&#45;&gt;Node5</title>
<g id="a_edge4_Node000004_Node000005"><a xlink:title=" ">
<path fill="none" stroke="#63b8ff" d="M200.98,-47.09C209.57,-37.42 219.18,-26.61 225.71,-19.27"/>
<polygon fill="#63b8ff" stroke="#63b8ff" points="198.12,-45.04 194.09,-54.84 203.35,-49.69 198.12,-45.04"/>
</a>
</g>
</g>
<!-- Node6&#45;&gt;Node3 -->
<g id="edge6_Node000006_Node000003" class="edge">
<title>Node6&#45;&gt;Node3</title>
<g id="a_edge6_Node000006_Node000003"><a xlink:title=" ">
<path fill="none" stroke="#63b8ff" d="M156.94,-310.8C136.93,-283.99 103.88,-239.7 87.05,-217.14"/>
<polygon fill="#63b8ff" stroke="#63b8ff" points="154.15,-312.92 162.93,-318.84 159.76,-308.73 154.15,-312.92"/>
</a>
</g>
</g>
<!-- Node6&#45;&gt;Node7 -->
<g id="edge7_Node000006_Node000007" class="edge">
<title>Node6&#45;&gt;Node7</title>
<g id="a_edge7_Node000006_Node000007"><a xlink:title=" ">
<path fill="none" stroke="#63b8ff" d="M194.46,-311.37C203.47,-302.06 213.76,-291.44 221.78,-283.16"/>
<polygon fill="#63b8ff" stroke="#63b8ff" points="191.7,-309.18 187.26,-318.8 196.73,-314.05 191.7,-309.18"/>
</a>
</g>
</g>
<!-- Node7&#45;&gt;Node3 -->
<g id="edge12_Node000007_Node000003" class="edge">
<title>Node7&#45;&gt;Node3</title>
<g id="a_edge12_Node000007_Node000003"><a xlink:title=" ">
<path fill="none" stroke="#63b8ff" d="M191.25,-249.19C166,-239.02 134.8,-226.47 111.31,-217.01"/>
<polygon fill="#63b8ff" stroke="#63b8ff" points="190.02,-252.47 200.61,-252.95 192.64,-245.97 190.02,-252.47"/>
</a>
</g>
</g>
<!-- Node8 -->
<g id="Node000008" class="node">
<title>Node8</title>
<g id="a_Node000008"><a xlink:href="../../db/d1b/clickhouse_2include_2userver_2storages_2clickhouse_2execution__result_8hpp.html" target="_top" xlink:title="Result accessor.">
<polygon fill="white" stroke="#666666" points="324,-217 171,-217 171,-187 324,-187 324,-217"/>
<text text-anchor="start" x="179" y="-205" font-family="Helvetica,sans-Serif" font-size="10.00">userver/storages/clickhouse</text>
<text text-anchor="middle" x="247.5" y="-194" font-family="Helvetica,sans-Serif" font-size="10.00">/execution_result.hpp</text>
</a>
</g>
</g>
<!-- Node7&#45;&gt;Node8 -->
<g id="edge8_Node000007_Node000008" class="edge">
<title>Node7&#45;&gt;Node8</title>
<g id="a_edge8_Node000007_Node000008"><a xlink:title=" ">
<path fill="none" stroke="#63b8ff" d="M240.03,-242.83C241.66,-234.17 243.43,-224.7 244.84,-217.16"/>
<polygon fill="#63b8ff" stroke="#63b8ff" points="236.57,-242.32 238.16,-252.8 243.45,-243.61 236.57,-242.32"/>
</a>
</g>
</g>
<!-- Node8&#45;&gt;Node5 -->
<g id="edge9_Node000008_Node000005" class="edge">
<title>Node8&#45;&gt;Node5</title>
<g id="a_edge9_Node000008_Node000005"><a xlink:title=" ">
<path fill="none" stroke="#63b8ff" d="M258.96,-177.68C262.42,-169.45 265.77,-160.01 267.5,-151 275.57,-109.1 281.17,-95.42 267.5,-55 262.7,-40.82 251.37,-27.59 243.11,-19.31"/>
<polygon fill="#63b8ff" stroke="#63b8ff" points="255.68,-176.44 254.78,-187 262.06,-179.31 255.68,-176.44"/>
</a>
</g>
</g>
<!-- Node9 -->
<g id="Node000009" class="node">
<title>Node9</title>
<g id="a_Node000009"><a xlink:href="../../d3/de4/clickhouse_2include_2userver_2storages_2clickhouse_2impl_2pool_8hpp_source.html" target="_top" xlink:title=" ">
<polygon fill="white" stroke="#666666" points="258,-151 105,-151 105,-121 258,-121 258,-151"/>
<text text-anchor="start" x="113" y="-139" font-family="Helvetica,sans-Serif" font-size="10.00">userver/storages/clickhouse</text>
<text text-anchor="middle" x="181.5" y="-128" font-family="Helvetica,sans-Serif" font-size="10.00">/impl/pool.hpp</text>
</a>
</g>
</g>
<!-- Node8&#45;&gt;Node9 -->
<g id="edge10_Node000008_Node000009" class="edge">
<title>Node8&#45;&gt;Node9</title>
<g id="a_edge10_Node000008_Node000009"><a xlink:title=" ">
<path fill="none" stroke="#63b8ff" d="M225.48,-179.65C215.81,-170.27 204.73,-159.53 196.11,-151.16"/>
<polygon fill="#63b8ff" stroke="#63b8ff" points="223.24,-182.35 232.85,-186.8 228.11,-177.32 223.24,-182.35"/>
</a>
</g>
</g>
<!-- Node9&#45;&gt;Node4 -->
<g id="edge11_Node000009_Node000004" class="edge">
<title>Node9&#45;&gt;Node4</title>
<g id="a_edge11_Node000009_Node000004"><a xlink:title=" ">
<path fill="none" stroke="#63b8ff" d="M181.5,-110.54C181.5,-101.96 181.5,-92.61 181.5,-85.16"/>
<polygon fill="#63b8ff" stroke="#63b8ff" points="178,-110.8 181.5,-120.8 185,-110.8 178,-110.8"/>
</a>
</g>
</g>
</g>
</svg>
