<?xml version="1.0" encoding="UTF-8" standalone="no"?>
<!DOCTYPE svg PUBLIC "-//W3C//DTD SVG 1.1//EN"
 "http://www.w3.org/Graphics/SVG/1.1/DTD/svg11.dtd">
<!-- Generated by graphviz version 2.43.0 (0)
 -->
<!-- Title: userver/engine/wait_any.hpp Pages: 1 -->
<svg width="795pt" height="291pt"
 viewBox="0.00 0.00 794.50 291.00" xmlns="http://www.w3.org/2000/svg" xmlns:xlink="http://www.w3.org/1999/xlink">
<g id="graph0" class="graph" transform="scale(1 1) rotate(0) translate(4 287)">
<title>userver/engine/wait_any.hpp</title>
<!-- Node1 -->
<g id="Node000001" class="node">
<title>Node1</title>
<g id="a_Node000001"><a xlink:title="Provides engine::WaitAny, engine::WaitAnyFor and engine::WaitAnyUntil.">
<polygon fill="#999999" stroke="#666666" points="509.5,-283 396.5,-283 396.5,-253 509.5,-253 509.5,-283"/>
<text text-anchor="start" x="404.5" y="-271" font-family="Helvetica,sans-Serif" font-size="10.00">userver/engine/wait</text>
<text text-anchor="middle" x="453" y="-260" font-family="Helvetica,sans-Serif" font-size="10.00">_any.hpp</text>
</a>
</g>
</g>
<!-- Node2 -->
<g id="Node000002" class="node">
<title>Node2</title>
<g id="a_Node000002"><a xlink:title=" ">
<polygon fill="#e0e0e0" stroke="#999999" points="50,-145.5 0,-145.5 0,-126.5 50,-126.5 50,-145.5"/>
<text text-anchor="middle" x="25" y="-133.5" font-family="Helvetica,sans-Serif" font-size="10.00">chrono</text>
</a>
</g>
</g>
<!-- Node1&#45;&gt;Node2 -->
<g id="edge1_Node000001_Node000002" class="edge">
<title>Node1&#45;&gt;Node2</title>
<g id="a_edge1_Node000001_Node000002"><a xlink:title=" ">
<path fill="none" stroke="#63b8ff" d="M396.43,-266.12C301.9,-263.61 117.05,-253.97 65,-217 44.47,-202.42 33.9,-174.21 28.91,-155.49"/>
<polygon fill="#63b8ff" stroke="#63b8ff" points="32.31,-154.65 26.58,-145.73 25.5,-156.27 32.31,-154.65"/>
</a>
</g>
</g>
<!-- Node3 -->
<g id="Node000003" class="node">
<title>Node3</title>
<g id="a_Node000003"><a xlink:title=" ">
<polygon fill="#e0e0e0" stroke="#999999" points="721,-145.5 665,-145.5 665,-126.5 721,-126.5 721,-145.5"/>
<text text-anchor="middle" x="693" y="-133.5" font-family="Helvetica,sans-Serif" font-size="10.00">optional</text>
</a>
</g>
</g>
<!-- Node1&#45;&gt;Node3 -->
<g id="edge2_Node000001_Node000003" class="edge">
<title>Node1&#45;&gt;Node3</title>
<g id="a_edge2_Node000001_Node000003"><a xlink:title=" ">
<path fill="none" stroke="#63b8ff" d="M509.51,-266.43C554.46,-263.14 616.49,-251.88 658,-217 676.55,-201.41 685.58,-174.11 689.75,-155.79"/>
<polygon fill="#63b8ff" stroke="#63b8ff" points="693.23,-156.22 691.75,-145.73 686.36,-154.85 693.23,-156.22"/>
</a>
</g>
</g>
<!-- Node4 -->
<g id="Node000004" class="node">
<title>Node4</title>
<g id="a_Node000004"><a xlink:title=" ">
<polygon fill="#e0e0e0" stroke="#999999" points="786.5,-145.5 739.5,-145.5 739.5,-126.5 786.5,-126.5 786.5,-145.5"/>
<text text-anchor="middle" x="763" y="-133.5" font-family="Helvetica,sans-Serif" font-size="10.00">vector</text>
</a>
</g>
</g>
<!-- Node1&#45;&gt;Node4 -->
<g id="edge3_Node000001_Node000004" class="edge">
<title>Node1&#45;&gt;Node4</title>
<g id="a_edge3_Node000001_Node000004"><a xlink:title=" ">
<path fill="none" stroke="#63b8ff" d="M509.71,-263.45C558.02,-258.43 627.99,-246.3 682,-217 710.96,-201.29 736.56,-172.11 750.88,-153.67"/>
<polygon fill="#63b8ff" stroke="#63b8ff" points="753.75,-155.68 756.98,-145.59 748.16,-151.46 753.75,-155.68"/>
</a>
</g>
</g>
<!-- Node5 -->
<g id="Node000005" class="node">
<title>Node5</title>
<g id="a_Node000005"><a xlink:href="../../d2/d22/deadline_8hpp.html" target="_top" xlink:title="Internal representation of a deadline time point.">
<polygon fill="white" stroke="#666666" points="229.5,-211.5 74.5,-211.5 74.5,-192.5 229.5,-192.5 229.5,-211.5"/>
<text text-anchor="middle" x="152" y="-199.5" font-family="Helvetica,sans-Serif" font-size="10.00">userver/engine/deadline.hpp</text>
</a>
</g>
</g>
<!-- Node1&#45;&gt;Node5 -->
<g id="edge4_Node000001_Node000005" class="edge">
<title>Node1&#45;&gt;Node5</title>
<g id="a_edge4_Node000001_Node000005"><a xlink:title=" ">
<path fill="none" stroke="#63b8ff" d="M396.38,-254.96C340.39,-243.06 255.52,-225.01 201.96,-213.62"/>
<polygon fill="#63b8ff" stroke="#63b8ff" points="202.52,-210.16 192.01,-211.51 201.07,-217.01 202.52,-210.16"/>
</a>
</g>
</g>
<!-- Node9 -->
<g id="Node000009" class="node">
<title>Node9</title>
<g id="a_Node000009"><a xlink:href="../../d5/dd8/universal_2include_2userver_2utils_2impl_2span_8hpp_source.html" target="_top" xlink:title=" ">
<polygon fill="white" stroke="#666666" points="372,-217 270,-217 270,-187 372,-187 372,-217"/>
<text text-anchor="start" x="278" y="-205" font-family="Helvetica,sans-Serif" font-size="10.00">userver/utils/impl</text>
<text text-anchor="middle" x="321" y="-194" font-family="Helvetica,sans-Serif" font-size="10.00">/span.hpp</text>
</a>
</g>
</g>
<!-- Node1&#45;&gt;Node9 -->
<g id="edge9_Node000001_Node000009" class="edge">
<title>Node1&#45;&gt;Node9</title>
<g id="a_edge9_Node000001_Node000009"><a xlink:title=" ">
<path fill="none" stroke="#63b8ff" d="M424.03,-252.95C404.95,-243.7 379.75,-231.49 359.06,-221.45"/>
<polygon fill="#63b8ff" stroke="#63b8ff" points="360.43,-218.23 349.9,-217.01 357.37,-224.52 360.43,-218.23"/>
</a>
</g>
</g>
<!-- Node12 -->
<g id="Node000012" class="node">
<title>Node12</title>
<g id="a_Node000012"><a xlink:href="../../d0/d03/universal_2include_2userver_2utils_2meta_8hpp.html" target="_top" xlink:title="Metaprogramming, template variables and concepts.">
<polygon fill="white" stroke="#666666" points="648.5,-211.5 521.5,-211.5 521.5,-192.5 648.5,-192.5 648.5,-211.5"/>
<text text-anchor="middle" x="585" y="-199.5" font-family="Helvetica,sans-Serif" font-size="10.00">userver/utils/meta.hpp</text>
</a>
</g>
</g>
<!-- Node1&#45;&gt;Node12 -->
<g id="edge14_Node000001_Node000012" class="edge">
<title>Node1&#45;&gt;Node12</title>
<g id="a_edge14_Node000001_Node000012"><a xlink:title=" ">
<path fill="none" stroke="#63b8ff" d="M481.97,-252.95C504.71,-241.93 536.12,-226.7 558.27,-215.96"/>
<polygon fill="#63b8ff" stroke="#63b8ff" points="559.96,-219.03 567.43,-211.52 556.91,-212.73 559.96,-219.03"/>
</a>
</g>
</g>
<!-- Node5&#45;&gt;Node2 -->
<g id="edge5_Node000005_Node000002" class="edge">
<title>Node5&#45;&gt;Node2</title>
<g id="a_edge5_Node000005_Node000002"><a xlink:title=" ">
<path fill="none" stroke="#63b8ff" d="M134.87,-192.37C113.38,-181.54 76.3,-162.85 51.23,-150.22"/>
<polygon fill="#63b8ff" stroke="#63b8ff" points="52.77,-147.07 42.26,-145.7 49.62,-153.32 52.77,-147.07"/>
</a>
</g>
</g>
<!-- Node6 -->
<g id="Node000006" class="node">
<title>Node6</title>
<g id="a_Node000006"><a xlink:title=" ">
<polygon fill="#e0e0e0" stroke="#999999" points="445.5,-19 376.5,-19 376.5,0 445.5,0 445.5,-19"/>
<text text-anchor="middle" x="411" y="-7" font-family="Helvetica,sans-Serif" font-size="10.00">type_traits</text>
</a>
</g>
</g>
<!-- Node5&#45;&gt;Node6 -->
<g id="edge6_Node000005_Node000006" class="edge">
<title>Node5&#45;&gt;Node6</title>
<g id="a_edge6_Node000005_Node000006"><a xlink:title=" ">
<path fill="none" stroke="#63b8ff" d="M137.11,-192.5C123.79,-183.95 105.14,-169.41 97,-151 78.97,-110.24 90.68,-82.18 126,-55 162.76,-26.71 295.54,-16.06 366.14,-12.34"/>
<polygon fill="#63b8ff" stroke="#63b8ff" points="366.69,-15.81 376.5,-11.82 366.34,-8.82 366.69,-15.81"/>
</a>
</g>
</g>
<!-- Node7 -->
<g id="Node000007" class="node">
<title>Node7</title>
<g id="a_Node000007"><a xlink:href="../../d2/d54/assert_8hpp.html" target="_top" xlink:title="Assertion macros UASSERT, UASSERT_MSG, UINVARIANT.">
<polygon fill="white" stroke="#666666" points="237.5,-145.5 106.5,-145.5 106.5,-126.5 237.5,-126.5 237.5,-145.5"/>
<text text-anchor="middle" x="172" y="-133.5" font-family="Helvetica,sans-Serif" font-size="10.00">userver/utils/assert.hpp</text>
</a>
</g>
</g>
<!-- Node5&#45;&gt;Node7 -->
<g id="edge7_Node000005_Node000007" class="edge">
<title>Node5&#45;&gt;Node7</title>
<g id="a_edge7_Node000005_Node000007"><a xlink:title=" ">
<path fill="none" stroke="#63b8ff" d="M154.7,-192.37C157.63,-182.97 162.42,-167.67 166.21,-155.53"/>
<polygon fill="#63b8ff" stroke="#63b8ff" points="169.57,-156.49 169.22,-145.91 162.89,-154.41 169.57,-156.49"/>
</a>
</g>
</g>
<!-- Node8 -->
<g id="Node000008" class="node">
<title>Node8</title>
<g id="a_Node000008"><a xlink:title=" ">
<polygon fill="#e0e0e0" stroke="#999999" points="208.5,-79.5 135.5,-79.5 135.5,-60.5 208.5,-60.5 208.5,-79.5"/>
<text text-anchor="middle" x="172" y="-67.5" font-family="Helvetica,sans-Serif" font-size="10.00">string_view</text>
</a>
</g>
</g>
<!-- Node7&#45;&gt;Node8 -->
<g id="edge8_Node000007_Node000008" class="edge">
<title>Node7&#45;&gt;Node8</title>
<g id="a_edge8_Node000007_Node000008"><a xlink:title=" ">
<path fill="none" stroke="#63b8ff" d="M172,-126.37C172,-117.16 172,-102.29 172,-90.27"/>
<polygon fill="#63b8ff" stroke="#63b8ff" points="175.5,-89.91 172,-79.91 168.5,-89.91 175.5,-89.91"/>
</a>
</g>
</g>
<!-- Node9&#45;&gt;Node6 -->
<g id="edge12_Node000009_Node000006" class="edge">
<title>Node9&#45;&gt;Node6</title>
<g id="a_edge12_Node000009_Node000006"><a xlink:title=" ">
<path fill="none" stroke="#63b8ff" d="M306.89,-186.63C298.77,-177.31 289.33,-164.44 285,-151 280.91,-138.31 279.9,-133.32 285,-121 303.97,-75.2 353.5,-41.42 384.51,-23.95"/>
<polygon fill="#63b8ff" stroke="#63b8ff" points="386.38,-26.91 393.48,-19.05 383.03,-20.77 386.38,-26.91"/>
</a>
</g>
</g>
<!-- Node9&#45;&gt;Node7 -->
<g id="edge13_Node000009_Node000007" class="edge">
<title>Node9&#45;&gt;Node7</title>
<g id="a_edge13_Node000009_Node000007"><a xlink:title=" ">
<path fill="none" stroke="#63b8ff" d="M288.3,-186.95C262.29,-175.78 226.22,-160.29 201.17,-149.53"/>
<polygon fill="#63b8ff" stroke="#63b8ff" points="202.4,-146.25 191.83,-145.52 199.64,-152.68 202.4,-146.25"/>
</a>
</g>
</g>
<!-- Node10 -->
<g id="Node000010" class="node">
<title>Node10</title>
<g id="a_Node000010"><a xlink:title=" ">
<polygon fill="#e0e0e0" stroke="#999999" points="347.5,-145.5 294.5,-145.5 294.5,-126.5 347.5,-126.5 347.5,-145.5"/>
<text text-anchor="middle" x="321" y="-133.5" font-family="Helvetica,sans-Serif" font-size="10.00">cstddef</text>
</a>
</g>
</g>
<!-- Node9&#45;&gt;Node10 -->
<g id="edge10_Node000009_Node000010" class="edge">
<title>Node9&#45;&gt;Node10</title>
<g id="a_edge10_Node000009_Node000010"><a xlink:title=" ">
<path fill="none" stroke="#63b8ff" d="M321,-186.8C321,-177.7 321,-165.79 321,-155.9"/>
<polygon fill="#63b8ff" stroke="#63b8ff" points="324.5,-155.84 321,-145.84 317.5,-155.84 324.5,-155.84"/>
</a>
</g>
</g>
<!-- Node11 -->
<g id="Node000011" class="node">
<title>Node11</title>
<g id="a_Node000011"><a xlink:title=" ">
<polygon fill="#e0e0e0" stroke="#999999" points="418.5,-145.5 365.5,-145.5 365.5,-126.5 418.5,-126.5 418.5,-145.5"/>
<text text-anchor="middle" x="392" y="-133.5" font-family="Helvetica,sans-Serif" font-size="10.00">iterator</text>
</a>
</g>
</g>
<!-- Node9&#45;&gt;Node11 -->
<g id="edge11_Node000009_Node000011" class="edge">
<title>Node9&#45;&gt;Node11</title>
<g id="a_edge11_Node000009_Node000011"><a xlink:title=" ">
<path fill="none" stroke="#63b8ff" d="M336.76,-186.8C347.93,-176.72 362.94,-163.19 374.49,-152.78"/>
<polygon fill="#63b8ff" stroke="#63b8ff" points="377.1,-155.14 382.19,-145.84 372.42,-149.94 377.1,-155.14"/>
</a>
</g>
</g>
<!-- Node12&#45;&gt;Node3 -->
<g id="edge17_Node000012_Node000003" class="edge">
<title>Node12&#45;&gt;Node3</title>
<g id="a_edge17_Node000012_Node000003"><a xlink:title=" ">
<path fill="none" stroke="#63b8ff" d="M599.57,-192.37C617.52,-181.73 648.27,-163.51 669.56,-150.89"/>
<polygon fill="#63b8ff" stroke="#63b8ff" points="671.5,-153.81 678.32,-145.7 667.93,-147.79 671.5,-153.81"/>
</a>
</g>
</g>
<!-- Node12&#45;&gt;Node4 -->
<g id="edge19_Node000012_Node000004" class="edge">
<title>Node12&#45;&gt;Node4</title>
<g id="a_edge19_Node000012_Node000004"><a xlink:title=" ">
<path fill="none" stroke="#63b8ff" d="M611.66,-192.42C640.9,-182.87 689.11,-166.7 730,-151 731.38,-150.47 732.79,-149.92 734.21,-149.35"/>
<polygon fill="#63b8ff" stroke="#63b8ff" points="735.63,-152.55 743.55,-145.52 732.97,-146.08 735.63,-152.55"/>
</a>
</g>
</g>
<!-- Node12&#45;&gt;Node6 -->
<g id="edge18_Node000012_Node000006" class="edge">
<title>Node12&#45;&gt;Node6</title>
<g id="a_edge18_Node000012_Node000006"><a xlink:title=" ">
<path fill="none" stroke="#63b8ff" d="M593.82,-192.19C607.92,-177.01 632.53,-145.22 618,-121 582.91,-62.5 505.15,-33.25 455.56,-20.02"/>
<polygon fill="#63b8ff" stroke="#63b8ff" points="456.29,-16.59 445.74,-17.5 454.56,-23.37 456.29,-16.59"/>
</a>
</g>
</g>
<!-- Node12&#45;&gt;Node11 -->
<g id="edge16_Node000012_Node000011" class="edge">
<title>Node12&#45;&gt;Node11</title>
<g id="a_edge16_Node000012_Node000011"><a xlink:title=" ">
<path fill="none" stroke="#63b8ff" d="M556.46,-192.5C524.86,-182.95 472.5,-166.72 428,-151 426.35,-150.42 424.66,-149.81 422.96,-149.18"/>
<polygon fill="#63b8ff" stroke="#63b8ff" points="423.83,-145.77 413.24,-145.51 421.36,-152.32 423.83,-145.77"/>
</a>
</g>
</g>
<!-- Node13 -->
<g id="Node000013" class="node">
<title>Node13</title>
<g id="a_Node000013"><a xlink:title=" ">
<polygon fill="#e0e0e0" stroke="#999999" points="609,-145.5 561,-145.5 561,-126.5 609,-126.5 609,-145.5"/>
<text text-anchor="middle" x="585" y="-133.5" font-family="Helvetica,sans-Serif" font-size="10.00">iosfwd</text>
</a>
</g>
</g>
<!-- Node12&#45;&gt;Node13 -->
<g id="edge15_Node000012_Node000013" class="edge">
<title>Node12&#45;&gt;Node13</title>
<g id="a_edge15_Node000012_Node000013"><a xlink:title=" ">
<path fill="none" stroke="#63b8ff" d="M585,-192.37C585,-183.16 585,-168.29 585,-156.27"/>
<polygon fill="#63b8ff" stroke="#63b8ff" points="588.5,-155.91 585,-145.91 581.5,-155.91 588.5,-155.91"/>
</a>
</g>
</g>
<!-- Node14 -->
<g id="Node000014" class="node">
<title>Node14</title>
<g id="a_Node000014"><a xlink:href="../../d3/da0/meta__light_8hpp.html" target="_top" xlink:title="Lightweight concepts.">
<polygon fill="white" stroke="#666666" points="543,-151 437,-151 437,-121 543,-121 543,-151"/>
<text text-anchor="start" x="445" y="-139" font-family="Helvetica,sans-Serif" font-size="10.00">userver/utils/meta</text>
<text text-anchor="middle" x="490" y="-128" font-family="Helvetica,sans-Serif" font-size="10.00">_light.hpp</text>
</a>
</g>
</g>
<!-- Node12&#45;&gt;Node14 -->
<g id="edge20_Node000012_Node000014" class="edge">
<title>Node12&#45;&gt;Node14</title>
<g id="a_edge20_Node000012_Node000014"><a xlink:title=" ">
<path fill="none" stroke="#63b8ff" d="M572.19,-192.37C558.7,-183.28 536.99,-168.66 519.28,-156.72"/>
<polygon fill="#63b8ff" stroke="#63b8ff" points="521.2,-153.8 510.95,-151.12 517.29,-159.61 521.2,-153.8"/>
</a>
</g>
</g>
<!-- Node14&#45;&gt;Node6 -->
<g id="edge21_Node000014_Node000006" class="edge">
<title>Node14&#45;&gt;Node6</title>
<g id="a_edge21_Node000014_Node000006"><a xlink:title=" ">
<path fill="none" stroke="#63b8ff" d="M489.29,-120.85C487.85,-103.91 483.43,-75.29 470,-55 461.65,-42.38 448.47,-31.95 436.68,-24.36"/>
<polygon fill="#63b8ff" stroke="#63b8ff" points="438.41,-21.31 428.05,-19.12 434.78,-27.3 438.41,-21.31"/>
</a>
</g>
</g>
<!-- Node15 -->
<g id="Node000015" class="node">
<title>Node15</title>
<g id="a_Node000015"><a xlink:href="../../d9/dce/void__t_8hpp.html" target="_top" xlink:title="std::void_t implementation with workarounds for compiler bugs">
<polygon fill="white" stroke="#666666" points="461.5,-85 360.5,-85 360.5,-55 461.5,-55 461.5,-85"/>
<text text-anchor="start" x="368.5" y="-73" font-family="Helvetica,sans-Serif" font-size="10.00">userver/utils/void</text>
<text text-anchor="middle" x="411" y="-62" font-family="Helvetica,sans-Serif" font-size="10.00">_t.hpp</text>
</a>
</g>
</g>
<!-- Node14&#45;&gt;Node15 -->
<g id="edge22_Node000014_Node000015" class="edge">
<title>Node14&#45;&gt;Node15</title>
<g id="a_edge22_Node000014_Node000015"><a xlink:title=" ">
<path fill="none" stroke="#63b8ff" d="M472.47,-120.8C461.83,-112.18 448.08,-101.04 436.28,-91.48"/>
<polygon fill="#63b8ff" stroke="#63b8ff" points="438.46,-88.74 428.48,-85.16 434.05,-94.18 438.46,-88.74"/>
</a>
</g>
</g>
<!-- Node15&#45;&gt;Node6 -->
<g id="edge23_Node000015_Node000006" class="edge">
<title>Node15&#45;&gt;Node6</title>
<g id="a_edge23_Node000015_Node000006"><a xlink:title=" ">
<path fill="none" stroke="#63b8ff" d="M411,-54.84C411,-47.21 411,-37.7 411,-29.45"/>
<polygon fill="#63b8ff" stroke="#63b8ff" points="414.5,-29.27 411,-19.27 407.5,-29.27 414.5,-29.27"/>
</a>
</g>
</g>
</g>
</svg>
