<?xml version="1.0" encoding="UTF-8" standalone="no"?>
<!DOCTYPE svg PUBLIC "-//W3C//DTD SVG 1.1//EN"
 "http://www.w3.org/Graphics/SVG/1.1/DTD/svg11.dtd">
<!-- Generated by graphviz version 2.43.0 (0)
 -->
<!-- Title: userver/engine/get_all.hpp Pages: 1 -->
<svg width="907pt" height="357pt"
 viewBox="0.00 0.00 907.00 357.00" xmlns="http://www.w3.org/2000/svg" xmlns:xlink="http://www.w3.org/1999/xlink">
<g id="graph0" class="graph" transform="scale(1 1) rotate(0) translate(4 353)">
<title>userver/engine/get_all.hpp</title>
<!-- Node1 -->
<g id="Node000001" class="node">
<title>Node1</title>
<g id="a_Node000001"><a xlink:title="Provides engine::GetAll.">
<polygon fill="#999999" stroke="#666666" points="851,-349 743,-349 743,-319 851,-319 851,-349"/>
<text text-anchor="start" x="751" y="-337" font-family="Helvetica,sans-Serif" font-size="10.00">userver/engine/get</text>
<text text-anchor="middle" x="797" y="-326" font-family="Helvetica,sans-Serif" font-size="10.00">_all.hpp</text>
</a>
</g>
</g>
<!-- Node2 -->
<g id="Node000002" class="node">
<title>Node2</title>
<g id="a_Node000002"><a xlink:title=" ">
<polygon fill="#e0e0e0" stroke="#999999" points="607.5,-19 538.5,-19 538.5,0 607.5,0 607.5,-19"/>
<text text-anchor="middle" x="573" y="-7" font-family="Helvetica,sans-Serif" font-size="10.00">type_traits</text>
</a>
</g>
</g>
<!-- Node1&#45;&gt;Node2 -->
<g id="edge1_Node000001_Node000002" class="edge">
<title>Node1&#45;&gt;Node2</title>
<g id="a_edge1_Node000001_Node000002"><a xlink:title=" ">
<path fill="none" stroke="#63b8ff" d="M818.88,-318.91C848.85,-297.69 899,-254.49 899,-203 899,-203 899,-203 899,-135 899,-75.48 706.99,-33.99 617.68,-17.91"/>
<polygon fill="#63b8ff" stroke="#63b8ff" points="618.04,-14.42 607.58,-16.12 616.82,-21.31 618.04,-14.42"/>
</a>
</g>
</g>
<!-- Node3 -->
<g id="Node000003" class="node">
<title>Node3</title>
<g id="a_Node000003"><a xlink:title=" ">
<polygon fill="#e0e0e0" stroke="#999999" points="870.5,-145.5 823.5,-145.5 823.5,-126.5 870.5,-126.5 870.5,-145.5"/>
<text text-anchor="middle" x="847" y="-133.5" font-family="Helvetica,sans-Serif" font-size="10.00">vector</text>
</a>
</g>
</g>
<!-- Node1&#45;&gt;Node3 -->
<g id="edge2_Node000001_Node000003" class="edge">
<title>Node1&#45;&gt;Node3</title>
<g id="a_edge2_Node000001_Node000003"><a xlink:title=" ">
<path fill="none" stroke="#63b8ff" d="M800.6,-318.9C809.46,-284.16 832.36,-194.4 842.29,-155.47"/>
<polygon fill="#63b8ff" stroke="#63b8ff" points="845.69,-156.28 844.77,-145.73 838.91,-154.55 845.69,-156.28"/>
</a>
</g>
</g>
<!-- Node4 -->
<g id="Node000004" class="node">
<title>Node4</title>
<g id="a_Node000004"><a xlink:href="../../db/d30/wait__all__checked_8hpp.html" target="_top" xlink:title="Provides engine::WaitAllChecked.">
<polygon fill="white" stroke="#666666" points="460.5,-283 347.5,-283 347.5,-253 460.5,-253 460.5,-283"/>
<text text-anchor="start" x="355.5" y="-271" font-family="Helvetica,sans-Serif" font-size="10.00">userver/engine/wait</text>
<text text-anchor="middle" x="404" y="-260" font-family="Helvetica,sans-Serif" font-size="10.00">_all_checked.hpp</text>
</a>
</g>
</g>
<!-- Node1&#45;&gt;Node4 -->
<g id="edge3_Node000001_Node000004" class="edge">
<title>Node1&#45;&gt;Node4</title>
<g id="a_edge3_Node000001_Node000004"><a xlink:title=" ">
<path fill="none" stroke="#63b8ff" d="M742.77,-324.17C671.73,-312.6 547.23,-292.33 470.56,-279.84"/>
<polygon fill="#63b8ff" stroke="#63b8ff" points="470.97,-276.36 460.54,-278.21 469.84,-283.27 470.97,-276.36"/>
</a>
</g>
</g>
<!-- Node13 -->
<g id="Node000013" class="node">
<title>Node13</title>
<g id="a_Node000013"><a xlink:href="../../d0/d03/universal_2include_2userver_2utils_2meta_8hpp.html" target="_top" xlink:title="Metaprogramming, template variables and concepts.">
<polygon fill="white" stroke="#666666" points="741.5,-211.5 614.5,-211.5 614.5,-192.5 741.5,-192.5 741.5,-211.5"/>
<text text-anchor="middle" x="678" y="-199.5" font-family="Helvetica,sans-Serif" font-size="10.00">userver/utils/meta.hpp</text>
</a>
</g>
</g>
<!-- Node1&#45;&gt;Node13 -->
<g id="edge27_Node000001_Node000013" class="edge">
<title>Node1&#45;&gt;Node13</title>
<g id="a_edge27_Node000001_Node000013"><a xlink:title=" ">
<path fill="none" stroke="#63b8ff" d="M784.04,-318.84C761.75,-294.49 716.31,-244.85 692.81,-219.18"/>
<polygon fill="#63b8ff" stroke="#63b8ff" points="695.34,-216.76 686.01,-211.75 690.18,-221.49 695.34,-216.76"/>
</a>
</g>
</g>
<!-- Node4&#45;&gt;Node3 -->
<g id="edge5_Node000004_Node000003" class="edge">
<title>Node4&#45;&gt;Node3</title>
<g id="a_edge5_Node000004_Node000003"><a xlink:title=" ">
<path fill="none" stroke="#63b8ff" d="M460.84,-262.59C545.52,-255.38 700.26,-239.59 751,-217 784.67,-202.01 815.92,-171.69 833.14,-152.98"/>
<polygon fill="#63b8ff" stroke="#63b8ff" points="835.76,-155.31 839.83,-145.53 830.55,-150.64 835.76,-155.31"/>
</a>
</g>
</g>
<!-- Node5 -->
<g id="Node000005" class="node">
<title>Node5</title>
<g id="a_Node000005"><a xlink:title=" ">
<polygon fill="#e0e0e0" stroke="#999999" points="134,-145.5 84,-145.5 84,-126.5 134,-126.5 134,-145.5"/>
<text text-anchor="middle" x="109" y="-133.5" font-family="Helvetica,sans-Serif" font-size="10.00">chrono</text>
</a>
</g>
</g>
<!-- Node4&#45;&gt;Node5 -->
<g id="edge4_Node000004_Node000005" class="edge">
<title>Node4&#45;&gt;Node5</title>
<g id="a_edge4_Node000004_Node000005"><a xlink:title=" ">
<path fill="none" stroke="#63b8ff" d="M347.1,-265.95C296.7,-262.58 222.96,-251.47 169,-217 145.05,-201.7 127.2,-173.26 117.44,-154.74"/>
<polygon fill="#63b8ff" stroke="#63b8ff" points="120.47,-152.98 112.86,-145.61 114.22,-156.12 120.47,-152.98"/>
</a>
</g>
</g>
<!-- Node6 -->
<g id="Node000006" class="node">
<title>Node6</title>
<g id="a_Node000006"><a xlink:href="../../d2/d22/deadline_8hpp.html" target="_top" xlink:title="Internal representation of a deadline time point.">
<polygon fill="white" stroke="#666666" points="333.5,-211.5 178.5,-211.5 178.5,-192.5 333.5,-192.5 333.5,-211.5"/>
<text text-anchor="middle" x="256" y="-199.5" font-family="Helvetica,sans-Serif" font-size="10.00">userver/engine/deadline.hpp</text>
</a>
</g>
</g>
<!-- Node4&#45;&gt;Node6 -->
<g id="edge6_Node000004_Node000006" class="edge">
<title>Node4&#45;&gt;Node6</title>
<g id="a_edge6_Node000004_Node000006"><a xlink:title=" ">
<path fill="none" stroke="#63b8ff" d="M371.52,-252.95C345.68,-241.78 309.85,-226.29 284.97,-215.53"/>
<polygon fill="#63b8ff" stroke="#63b8ff" points="286.26,-212.27 275.7,-211.52 283.49,-218.7 286.26,-212.27"/>
</a>
</g>
</g>
<!-- Node9 -->
<g id="Node000009" class="node">
<title>Node9</title>
<g id="a_Node000009"><a xlink:href="../../d0/dd6/future__status_8hpp.html" target="_top" xlink:title="std::future state extended with &quot;cancelled&quot; state">
<polygon fill="white" stroke="#666666" points="122,-217 0,-217 0,-187 122,-187 122,-217"/>
<text text-anchor="start" x="8" y="-205" font-family="Helvetica,sans-Serif" font-size="10.00">userver/engine/future</text>
<text text-anchor="middle" x="61" y="-194" font-family="Helvetica,sans-Serif" font-size="10.00">_status.hpp</text>
</a>
</g>
</g>
<!-- Node4&#45;&gt;Node9 -->
<g id="edge11_Node000004_Node000009" class="edge">
<title>Node4&#45;&gt;Node9</title>
<g id="a_edge11_Node000004_Node000009"><a xlink:title=" ">
<path fill="none" stroke="#63b8ff" d="M347.36,-256.43C288.39,-245.43 195.89,-228.17 132.05,-216.26"/>
<polygon fill="#63b8ff" stroke="#63b8ff" points="132.54,-212.79 122.07,-214.39 131.25,-219.67 132.54,-212.79"/>
</a>
</g>
</g>
<!-- Node10 -->
<g id="Node000010" class="node">
<title>Node10</title>
<g id="a_Node000010"><a xlink:href="../../d5/dd8/universal_2include_2userver_2utils_2impl_2span_8hpp_source.html" target="_top" xlink:title=" ">
<polygon fill="white" stroke="#666666" points="455,-217 353,-217 353,-187 455,-187 455,-217"/>
<text text-anchor="start" x="361" y="-205" font-family="Helvetica,sans-Serif" font-size="10.00">userver/utils/impl</text>
<text text-anchor="middle" x="404" y="-194" font-family="Helvetica,sans-Serif" font-size="10.00">/span.hpp</text>
</a>
</g>
</g>
<!-- Node4&#45;&gt;Node10 -->
<g id="edge12_Node000004_Node000010" class="edge">
<title>Node4&#45;&gt;Node10</title>
<g id="a_edge12_Node000004_Node000010"><a xlink:title=" ">
<path fill="none" stroke="#63b8ff" d="M404,-252.8C404,-245.34 404,-235.99 404,-227.41"/>
<polygon fill="#63b8ff" stroke="#63b8ff" points="407.5,-227.16 404,-217.16 400.5,-227.16 407.5,-227.16"/>
</a>
</g>
</g>
<!-- Node4&#45;&gt;Node13 -->
<g id="edge17_Node000004_Node000013" class="edge">
<title>Node4&#45;&gt;Node13</title>
<g id="a_edge17_Node000004_Node000013"><a xlink:title=" ">
<path fill="none" stroke="#63b8ff" d="M460.77,-253.74C511.3,-241.94 584.31,-224.88 631.46,-213.87"/>
<polygon fill="#63b8ff" stroke="#63b8ff" points="632.47,-217.23 641.41,-211.55 630.87,-210.41 632.47,-217.23"/>
</a>
</g>
</g>
<!-- Node6&#45;&gt;Node2 -->
<g id="edge8_Node000006_Node000002" class="edge">
<title>Node6&#45;&gt;Node2</title>
<g id="a_edge8_Node000006_Node000002"><a xlink:title=" ">
<path fill="none" stroke="#63b8ff" d="M232.33,-192.4C214.66,-184.57 191.78,-171.14 181,-151 159.97,-111.7 174.23,-81.6 210,-55 259.4,-18.27 442.24,-11.65 528.02,-10.6"/>
<polygon fill="#63b8ff" stroke="#63b8ff" points="528.26,-14.1 538.23,-10.5 528.19,-7.1 528.26,-14.1"/>
</a>
</g>
</g>
<!-- Node6&#45;&gt;Node5 -->
<g id="edge7_Node000006_Node000005" class="edge">
<title>Node6&#45;&gt;Node5</title>
<g id="a_edge7_Node000006_Node000005"><a xlink:title=" ">
<path fill="none" stroke="#63b8ff" d="M236.17,-192.37C210.97,-181.39 167.24,-162.36 138.21,-149.72"/>
<polygon fill="#63b8ff" stroke="#63b8ff" points="139.55,-146.48 128.98,-145.7 136.75,-152.9 139.55,-146.48"/>
</a>
</g>
</g>
<!-- Node7 -->
<g id="Node000007" class="node">
<title>Node7</title>
<g id="a_Node000007"><a xlink:href="../../d2/d54/assert_8hpp.html" target="_top" xlink:title="Assertion macros UASSERT, UASSERT_MSG, UINVARIANT.">
<polygon fill="white" stroke="#666666" points="321.5,-145.5 190.5,-145.5 190.5,-126.5 321.5,-126.5 321.5,-145.5"/>
<text text-anchor="middle" x="256" y="-133.5" font-family="Helvetica,sans-Serif" font-size="10.00">userver/utils/assert.hpp</text>
</a>
</g>
</g>
<!-- Node6&#45;&gt;Node7 -->
<g id="edge9_Node000006_Node000007" class="edge">
<title>Node6&#45;&gt;Node7</title>
<g id="a_edge9_Node000006_Node000007"><a xlink:title=" ">
<path fill="none" stroke="#63b8ff" d="M256,-192.37C256,-183.16 256,-168.29 256,-156.27"/>
<polygon fill="#63b8ff" stroke="#63b8ff" points="259.5,-155.91 256,-145.91 252.5,-155.91 259.5,-155.91"/>
</a>
</g>
</g>
<!-- Node8 -->
<g id="Node000008" class="node">
<title>Node8</title>
<g id="a_Node000008"><a xlink:title=" ">
<polygon fill="#e0e0e0" stroke="#999999" points="292.5,-79.5 219.5,-79.5 219.5,-60.5 292.5,-60.5 292.5,-79.5"/>
<text text-anchor="middle" x="256" y="-67.5" font-family="Helvetica,sans-Serif" font-size="10.00">string_view</text>
</a>
</g>
</g>
<!-- Node7&#45;&gt;Node8 -->
<g id="edge10_Node000007_Node000008" class="edge">
<title>Node7&#45;&gt;Node8</title>
<g id="a_edge10_Node000007_Node000008"><a xlink:title=" ">
<path fill="none" stroke="#63b8ff" d="M256,-126.37C256,-117.16 256,-102.29 256,-90.27"/>
<polygon fill="#63b8ff" stroke="#63b8ff" points="259.5,-89.91 256,-79.91 252.5,-89.91 259.5,-89.91"/>
</a>
</g>
</g>
<!-- Node10&#45;&gt;Node2 -->
<g id="edge15_Node000010_Node000002" class="edge">
<title>Node10&#45;&gt;Node2</title>
<g id="a_edge15_Node000010_Node000002"><a xlink:title=" ">
<path fill="none" stroke="#63b8ff" d="M389.81,-186.75C375.38,-170.45 356.76,-143.16 369,-121 401.62,-61.96 478.86,-32.88 528.38,-19.82"/>
<polygon fill="#63b8ff" stroke="#63b8ff" points="529.36,-23.19 538.2,-17.35 527.65,-16.4 529.36,-23.19"/>
</a>
</g>
</g>
<!-- Node10&#45;&gt;Node7 -->
<g id="edge16_Node000010_Node000007" class="edge">
<title>Node10&#45;&gt;Node7</title>
<g id="a_edge16_Node000010_Node000007"><a xlink:title=" ">
<path fill="none" stroke="#63b8ff" d="M371.52,-186.95C345.68,-175.78 309.85,-160.29 284.97,-149.53"/>
<polygon fill="#63b8ff" stroke="#63b8ff" points="286.26,-146.27 275.7,-145.52 283.49,-152.7 286.26,-146.27"/>
</a>
</g>
</g>
<!-- Node11 -->
<g id="Node000011" class="node">
<title>Node11</title>
<g id="a_Node000011"><a xlink:title=" ">
<polygon fill="#e0e0e0" stroke="#999999" points="431.5,-145.5 378.5,-145.5 378.5,-126.5 431.5,-126.5 431.5,-145.5"/>
<text text-anchor="middle" x="405" y="-133.5" font-family="Helvetica,sans-Serif" font-size="10.00">cstddef</text>
</a>
</g>
</g>
<!-- Node10&#45;&gt;Node11 -->
<g id="edge13_Node000010_Node000011" class="edge">
<title>Node10&#45;&gt;Node11</title>
<g id="a_edge13_Node000010_Node000011"><a xlink:title=" ">
<path fill="none" stroke="#63b8ff" d="M404.22,-186.8C404.36,-177.7 404.55,-165.79 404.7,-155.9"/>
<polygon fill="#63b8ff" stroke="#63b8ff" points="408.21,-155.9 404.86,-145.84 401.21,-155.79 408.21,-155.9"/>
</a>
</g>
</g>
<!-- Node12 -->
<g id="Node000012" class="node">
<title>Node12</title>
<g id="a_Node000012"><a xlink:title=" ">
<polygon fill="#e0e0e0" stroke="#999999" points="502.5,-145.5 449.5,-145.5 449.5,-126.5 502.5,-126.5 502.5,-145.5"/>
<text text-anchor="middle" x="476" y="-133.5" font-family="Helvetica,sans-Serif" font-size="10.00">iterator</text>
</a>
</g>
</g>
<!-- Node10&#45;&gt;Node12 -->
<g id="edge14_Node000010_Node000012" class="edge">
<title>Node10&#45;&gt;Node12</title>
<g id="a_edge14_Node000010_Node000012"><a xlink:title=" ">
<path fill="none" stroke="#63b8ff" d="M419.98,-186.8C431.31,-176.72 446.53,-163.19 458.25,-152.78"/>
<polygon fill="#63b8ff" stroke="#63b8ff" points="460.9,-155.1 466.05,-145.84 456.25,-149.87 460.9,-155.1"/>
</a>
</g>
</g>
<!-- Node13&#45;&gt;Node2 -->
<g id="edge21_Node000013_Node000002" class="edge">
<title>Node13&#45;&gt;Node2</title>
<g id="a_edge21_Node000013_Node000002"><a xlink:title=" ">
<path fill="none" stroke="#63b8ff" d="M686.14,-192.44C699.19,-177.62 722.13,-146.37 710,-121 687.56,-74.08 634.41,-40.71 601.29,-23.61"/>
<polygon fill="#63b8ff" stroke="#63b8ff" points="602.63,-20.36 592.12,-19.02 599.5,-26.62 602.63,-20.36"/>
</a>
</g>
</g>
<!-- Node13&#45;&gt;Node3 -->
<g id="edge22_Node000013_Node000003" class="edge">
<title>Node13&#45;&gt;Node3</title>
<g id="a_edge22_Node000013_Node000003"><a xlink:title=" ">
<path fill="none" stroke="#63b8ff" d="M702.71,-192.33C730.06,-182.63 775.4,-166.27 814,-151 815.2,-150.52 816.43,-150.03 817.67,-149.53"/>
<polygon fill="#63b8ff" stroke="#63b8ff" points="819.27,-152.66 827.17,-145.6 816.59,-146.19 819.27,-152.66"/>
</a>
</g>
</g>
<!-- Node13&#45;&gt;Node12 -->
<g id="edge19_Node000013_Node000012" class="edge">
<title>Node13&#45;&gt;Node12</title>
<g id="a_edge19_Node000013_Node000012"><a xlink:title=" ">
<path fill="none" stroke="#63b8ff" d="M647.17,-192.5C613.67,-183.07 558.67,-167.08 512,-151 510.34,-150.43 508.65,-149.83 506.94,-149.21"/>
<polygon fill="#63b8ff" stroke="#63b8ff" points="507.81,-145.8 497.22,-145.57 505.36,-152.35 507.81,-145.8"/>
</a>
</g>
</g>
<!-- Node14 -->
<g id="Node000014" class="node">
<title>Node14</title>
<g id="a_Node000014"><a xlink:title=" ">
<polygon fill="#e0e0e0" stroke="#999999" points="805,-145.5 757,-145.5 757,-126.5 805,-126.5 805,-145.5"/>
<text text-anchor="middle" x="781" y="-133.5" font-family="Helvetica,sans-Serif" font-size="10.00">iosfwd</text>
</a>
</g>
</g>
<!-- Node13&#45;&gt;Node14 -->
<g id="edge18_Node000013_Node000014" class="edge">
<title>Node13&#45;&gt;Node14</title>
<g id="a_edge18_Node000013_Node000014"><a xlink:title=" ">
<path fill="none" stroke="#63b8ff" d="M691.89,-192.37C708.94,-181.78 738.07,-163.67 758.37,-151.06"/>
<polygon fill="#63b8ff" stroke="#63b8ff" points="760.35,-153.95 767,-145.7 756.66,-148 760.35,-153.95"/>
</a>
</g>
</g>
<!-- Node15 -->
<g id="Node000015" class="node">
<title>Node15</title>
<g id="a_Node000015"><a xlink:title=" ">
<polygon fill="#e0e0e0" stroke="#999999" points="701,-145.5 645,-145.5 645,-126.5 701,-126.5 701,-145.5"/>
<text text-anchor="middle" x="673" y="-133.5" font-family="Helvetica,sans-Serif" font-size="10.00">optional</text>
</a>
</g>
</g>
<!-- Node13&#45;&gt;Node15 -->
<g id="edge20_Node000013_Node000015" class="edge">
<title>Node13&#45;&gt;Node15</title>
<g id="a_edge20_Node000013_Node000015"><a xlink:title=" ">
<path fill="none" stroke="#63b8ff" d="M677.33,-192.37C676.6,-183.07 675.42,-167.98 674.48,-155.9"/>
<polygon fill="#63b8ff" stroke="#63b8ff" points="677.96,-155.6 673.7,-145.91 670.99,-156.15 677.96,-155.6"/>
</a>
</g>
</g>
<!-- Node16 -->
<g id="Node000016" class="node">
<title>Node16</title>
<g id="a_Node000016"><a xlink:href="../../d3/da0/meta__light_8hpp.html" target="_top" xlink:title="Lightweight concepts.">
<polygon fill="white" stroke="#666666" points="627,-151 521,-151 521,-121 627,-121 627,-151"/>
<text text-anchor="start" x="529" y="-139" font-family="Helvetica,sans-Serif" font-size="10.00">userver/utils/meta</text>
<text text-anchor="middle" x="574" y="-128" font-family="Helvetica,sans-Serif" font-size="10.00">_light.hpp</text>
</a>
</g>
</g>
<!-- Node13&#45;&gt;Node16 -->
<g id="edge23_Node000013_Node000016" class="edge">
<title>Node13&#45;&gt;Node16</title>
<g id="a_edge23_Node000013_Node000016"><a xlink:title=" ">
<path fill="none" stroke="#63b8ff" d="M663.97,-192.37C649.07,-183.2 625.01,-168.39 605.52,-156.4"/>
<polygon fill="#63b8ff" stroke="#63b8ff" points="607.29,-153.38 596.94,-151.12 603.62,-159.34 607.29,-153.38"/>
</a>
</g>
</g>
<!-- Node16&#45;&gt;Node2 -->
<g id="edge24_Node000016_Node000002" class="edge">
<title>Node16&#45;&gt;Node2</title>
<g id="a_edge24_Node000016_Node000002"><a xlink:title=" ">
<path fill="none" stroke="#63b8ff" d="M580.91,-120.96C585.35,-111.15 590.69,-97.6 593,-85 595.41,-71.89 595.8,-68.04 593,-55 591.03,-45.8 587,-36.2 583.07,-28.29"/>
<polygon fill="#63b8ff" stroke="#63b8ff" points="586.09,-26.51 578.32,-19.32 579.91,-29.79 586.09,-26.51"/>
</a>
</g>
</g>
<!-- Node17 -->
<g id="Node000017" class="node">
<title>Node17</title>
<g id="a_Node000017"><a xlink:href="../../d9/dce/void__t_8hpp.html" target="_top" xlink:title="std::void_t implementation with workarounds for compiler bugs">
<polygon fill="white" stroke="#666666" points="584.5,-85 483.5,-85 483.5,-55 584.5,-55 584.5,-85"/>
<text text-anchor="start" x="491.5" y="-73" font-family="Helvetica,sans-Serif" font-size="10.00">userver/utils/void</text>
<text text-anchor="middle" x="534" y="-62" font-family="Helvetica,sans-Serif" font-size="10.00">_t.hpp</text>
</a>
</g>
</g>
<!-- Node16&#45;&gt;Node17 -->
<g id="edge25_Node000016_Node000017" class="edge">
<title>Node16&#45;&gt;Node17</title>
<g id="a_edge25_Node000016_Node000017"><a xlink:title=" ">
<path fill="none" stroke="#63b8ff" d="M565.12,-120.8C560.15,-112.84 553.84,-102.74 548.19,-93.71"/>
<polygon fill="#63b8ff" stroke="#63b8ff" points="551.12,-91.79 542.85,-85.16 545.18,-95.5 551.12,-91.79"/>
</a>
</g>
</g>
<!-- Node17&#45;&gt;Node2 -->
<g id="edge26_Node000017_Node000002" class="edge">
<title>Node17&#45;&gt;Node2</title>
<g id="a_edge26_Node000017_Node000002"><a xlink:title=" ">
<path fill="none" stroke="#63b8ff" d="M543.44,-54.84C548.87,-46.69 555.73,-36.4 561.48,-27.78"/>
<polygon fill="#63b8ff" stroke="#63b8ff" points="564.52,-29.53 567.16,-19.27 558.7,-25.65 564.52,-29.53"/>
</a>
</g>
</g>
</g>
</svg>
