<?xml version="1.0" encoding="UTF-8" standalone="no"?>
<!DOCTYPE svg PUBLIC "-//W3C//DTD SVG 1.1//EN"
 "http://www.w3.org/Graphics/SVG/1.1/DTD/svg11.dtd">
<!-- Generated by graphviz version 2.43.0 (0)
 -->
<!-- Title: userver/storages/clickhouse/io/columns/column_includes.hpp Pages: 1 -->
<svg width="2462pt" height="555pt"
 viewBox="0.00 0.00 2462.00 555.00" xmlns="http://www.w3.org/2000/svg" xmlns:xlink="http://www.w3.org/1999/xlink">
<g id="graph0" class="graph" transform="scale(1 1) rotate(0) translate(4 551)">
<title>userver/storages/clickhouse/io/columns/column_includes.hpp</title>
<!-- Node1 -->
<g id="Node000001" class="node">
<title>Node1</title>
<g id="a_Node000001"><a xlink:title=" ">
<polygon fill="#999999" stroke="#666666" points="1381.5,-547 1202.5,-547 1202.5,-517 1381.5,-517 1381.5,-547"/>
<text text-anchor="start" x="1210.5" y="-535" font-family="Helvetica,sans-Serif" font-size="10.00">userver/storages/clickhouse</text>
<text text-anchor="middle" x="1292" y="-524" font-family="Helvetica,sans-Serif" font-size="10.00">/io/columns/column_includes.hpp</text>
</a>
</g>
</g>
<!-- Node2 -->
<g id="Node000002" class="node">
<title>Node2</title>
<g id="a_Node000002"><a xlink:href="../../d0/dbe/datetime64__column_8hpp.html" target="_top" xlink:title="DateTime64 columns support.">
<polygon fill="white" stroke="#666666" points="2454,-481 2260,-481 2260,-451 2454,-451 2454,-481"/>
<text text-anchor="start" x="2268" y="-469" font-family="Helvetica,sans-Serif" font-size="10.00">userver/storages/clickhouse</text>
<text text-anchor="middle" x="2357" y="-458" font-family="Helvetica,sans-Serif" font-size="10.00">/io/columns/datetime64_column.hpp</text>
</a>
</g>
</g>
<!-- Node1&#45;&gt;Node2 -->
<g id="edge1_Node000001_Node000002" class="edge">
<title>Node1&#45;&gt;Node2</title>
<g id="a_edge1_Node000001_Node000002"><a xlink:title=" ">
<path fill="none" stroke="#63b8ff" d="M1391.74,-528.17C1565.53,-522.71 1935.02,-508.72 2246,-481 2250.55,-480.59 2255.19,-480.15 2259.88,-479.66"/>
<polygon fill="#63b8ff" stroke="#63b8ff" points="1391.48,-524.68 1381.59,-528.49 1391.7,-531.68 1391.48,-524.68"/>
</a>
</g>
</g>
<!-- Node7 -->
<g id="Node000007" class="node">
<title>Node7</title>
<g id="a_Node000007"><a xlink:href="../../d3/d11/nullable__column_8hpp.html" target="_top" xlink:title="Nullable column support.">
<polygon fill="white" stroke="#666666" points="1699.5,-349 1522.5,-349 1522.5,-319 1699.5,-319 1699.5,-349"/>
<text text-anchor="start" x="1530.5" y="-337" font-family="Helvetica,sans-Serif" font-size="10.00">userver/storages/clickhouse</text>
<text text-anchor="middle" x="1611" y="-326" font-family="Helvetica,sans-Serif" font-size="10.00">/io/columns/nullable_column.hpp</text>
</a>
</g>
</g>
<!-- Node1&#45;&gt;Node7 -->
<g id="edge32_Node000001_Node000007" class="edge">
<title>Node1&#45;&gt;Node7</title>
<g id="a_edge32_Node000001_Node000007"><a xlink:title=" ">
<path fill="none" stroke="#63b8ff" d="M1391.82,-529.23C1624.45,-524.6 2185.11,-510.44 2213,-481 2286.4,-403.51 1884.03,-358.41 1699.58,-342.06"/>
<polygon fill="#63b8ff" stroke="#63b8ff" points="1391.59,-525.73 1381.66,-529.42 1391.73,-532.73 1391.59,-525.73"/>
</a>
</g>
</g>
<!-- Node14 -->
<g id="Node000014" class="node">
<title>Node14</title>
<g id="a_Node000014"><a xlink:href="../../dd/d64/datetime__column_8hpp.html" target="_top" xlink:title="DateTime column support.">
<polygon fill="white" stroke="#666666" points="1286,-481 1104,-481 1104,-451 1286,-451 1286,-481"/>
<text text-anchor="start" x="1112" y="-469" font-family="Helvetica,sans-Serif" font-size="10.00">userver/storages/clickhouse</text>
<text text-anchor="middle" x="1195" y="-458" font-family="Helvetica,sans-Serif" font-size="10.00">/io/columns/datetime_column.hpp</text>
</a>
</g>
</g>
<!-- Node1&#45;&gt;Node14 -->
<g id="edge20_Node000001_Node000014" class="edge">
<title>Node1&#45;&gt;Node14</title>
<g id="a_edge20_Node000001_Node000014"><a xlink:title=" ">
<path fill="none" stroke="#63b8ff" d="M1261.73,-511.03C1247.05,-501.34 1229.77,-489.94 1216.47,-481.16"/>
<polygon fill="#63b8ff" stroke="#63b8ff" points="1260.2,-514.21 1270.47,-516.8 1264.05,-508.37 1260.2,-514.21"/>
</a>
</g>
</g>
<!-- Node15 -->
<g id="Node000015" class="node">
<title>Node15</title>
<g id="a_Node000015"><a xlink:href="../../d5/d0f/float32__column_8hpp.html" target="_top" xlink:title="Float32 column support.">
<polygon fill="white" stroke="#666666" points="1476,-481 1304,-481 1304,-451 1476,-451 1476,-481"/>
<text text-anchor="start" x="1312" y="-469" font-family="Helvetica,sans-Serif" font-size="10.00">userver/storages/clickhouse</text>
<text text-anchor="middle" x="1390" y="-458" font-family="Helvetica,sans-Serif" font-size="10.00">/io/columns/float32_column.hpp</text>
</a>
</g>
</g>
<!-- Node1&#45;&gt;Node15 -->
<g id="edge22_Node000001_Node000015" class="edge">
<title>Node1&#45;&gt;Node15</title>
<g id="a_edge22_Node000001_Node000015"><a xlink:title=" ">
<path fill="none" stroke="#63b8ff" d="M1322.16,-511.3C1337.08,-501.56 1354.75,-490.02 1368.31,-481.16"/>
<polygon fill="#63b8ff" stroke="#63b8ff" points="1320.21,-508.4 1313.75,-516.8 1324.04,-514.26 1320.21,-508.4"/>
</a>
</g>
</g>
<!-- Node16 -->
<g id="Node000016" class="node">
<title>Node16</title>
<g id="a_Node000016"><a xlink:href="../../d5/d1e/float64__column_8hpp.html" target="_top" xlink:title="Float64 column support.">
<polygon fill="white" stroke="#666666" points="1666,-481 1494,-481 1494,-451 1666,-451 1666,-481"/>
<text text-anchor="start" x="1502" y="-469" font-family="Helvetica,sans-Serif" font-size="10.00">userver/storages/clickhouse</text>
<text text-anchor="middle" x="1580" y="-458" font-family="Helvetica,sans-Serif" font-size="10.00">/io/columns/float64_column.hpp</text>
</a>
</g>
</g>
<!-- Node1&#45;&gt;Node16 -->
<g id="edge24_Node000001_Node000016" class="edge">
<title>Node1&#45;&gt;Node16</title>
<g id="a_edge24_Node000001_Node000016"><a xlink:title=" ">
<path fill="none" stroke="#63b8ff" d="M1364.99,-514.78C1411.87,-504.36 1472.15,-490.97 1516.94,-481.01"/>
<polygon fill="#63b8ff" stroke="#63b8ff" points="1364.21,-511.37 1355.2,-516.95 1365.72,-518.2 1364.21,-511.37"/>
</a>
</g>
</g>
<!-- Node17 -->
<g id="Node000017" class="node">
<title>Node17</title>
<g id="a_Node000017"><a xlink:href="../../d6/d6e/int32__column_8hpp.html" target="_top" xlink:title="Int32 column support.">
<polygon fill="white" stroke="#666666" points="1847.5,-481 1684.5,-481 1684.5,-451 1847.5,-451 1847.5,-481"/>
<text text-anchor="start" x="1692.5" y="-469" font-family="Helvetica,sans-Serif" font-size="10.00">userver/storages/clickhouse</text>
<text text-anchor="middle" x="1766" y="-458" font-family="Helvetica,sans-Serif" font-size="10.00">/io/columns/int32_column.hpp</text>
</a>
</g>
</g>
<!-- Node1&#45;&gt;Node17 -->
<g id="edge26_Node000001_Node000017" class="edge">
<title>Node1&#45;&gt;Node17</title>
<g id="a_edge26_Node000001_Node000017"><a xlink:title=" ">
<path fill="none" stroke="#63b8ff" d="M1392.06,-518.57C1469.39,-508.81 1579.06,-494.64 1675,-481 1678.01,-480.57 1681.07,-480.13 1684.16,-479.68"/>
<polygon fill="#63b8ff" stroke="#63b8ff" points="1391.33,-515.14 1381.85,-519.86 1392.21,-522.08 1391.33,-515.14"/>
</a>
</g>
</g>
<!-- Node18 -->
<g id="Node000018" class="node">
<title>Node18</title>
<g id="a_Node000018"><a xlink:href="../../d5/d88/int64__column_8hpp.html" target="_top" xlink:title="Int64 column support.">
<polygon fill="white" stroke="#666666" points="2028.5,-481 1865.5,-481 1865.5,-451 2028.5,-451 2028.5,-481"/>
<text text-anchor="start" x="1873.5" y="-469" font-family="Helvetica,sans-Serif" font-size="10.00">userver/storages/clickhouse</text>
<text text-anchor="middle" x="1947" y="-458" font-family="Helvetica,sans-Serif" font-size="10.00">/io/columns/int64_column.hpp</text>
</a>
</g>
</g>
<!-- Node1&#45;&gt;Node18 -->
<g id="edge28_Node000001_Node000018" class="edge">
<title>Node1&#45;&gt;Node18</title>
<g id="a_edge28_Node000001_Node000018"><a xlink:title=" ">
<path fill="none" stroke="#63b8ff" d="M1391.75,-524.17C1504.81,-515.97 1694.51,-500.81 1857,-481 1859.67,-480.67 1862.38,-480.33 1865.12,-479.97"/>
<polygon fill="#63b8ff" stroke="#63b8ff" points="1391.45,-520.69 1381.73,-524.9 1391.96,-527.67 1391.45,-520.69"/>
</a>
</g>
</g>
<!-- Node19 -->
<g id="Node000019" class="node">
<title>Node19</title>
<g id="a_Node000019"><a xlink:href="../../de/dff/int8__column_8hpp.html" target="_top" xlink:title="Int8 column support.">
<polygon fill="white" stroke="#666666" points="2203.5,-481 2046.5,-481 2046.5,-451 2203.5,-451 2203.5,-481"/>
<text text-anchor="start" x="2054.5" y="-469" font-family="Helvetica,sans-Serif" font-size="10.00">userver/storages/clickhouse</text>
<text text-anchor="middle" x="2125" y="-458" font-family="Helvetica,sans-Serif" font-size="10.00">/io/columns/int8_column.hpp</text>
</a>
</g>
</g>
<!-- Node1&#45;&gt;Node19 -->
<g id="edge30_Node000001_Node000019" class="edge">
<title>Node1&#45;&gt;Node19</title>
<g id="a_edge30_Node000001_Node000019"><a xlink:title=" ">
<path fill="none" stroke="#63b8ff" d="M1391.61,-527.26C1534.91,-521.21 1807.35,-507.23 2038,-481 2040.74,-480.69 2043.52,-480.35 2046.32,-480"/>
<polygon fill="#63b8ff" stroke="#63b8ff" points="1391.37,-523.77 1381.52,-527.68 1391.66,-530.76 1391.37,-523.77"/>
</a>
</g>
</g>
<!-- Node20 -->
<g id="Node000020" class="node">
<title>Node20</title>
<g id="a_Node000020"><a xlink:href="../../d2/d33/string__column_8hpp.html" target="_top" xlink:title="String column support.">
<polygon fill="white" stroke="#666666" points="166,-481 0,-481 0,-451 166,-451 166,-481"/>
<text text-anchor="start" x="8" y="-469" font-family="Helvetica,sans-Serif" font-size="10.00">userver/storages/clickhouse</text>
<text text-anchor="middle" x="83" y="-458" font-family="Helvetica,sans-Serif" font-size="10.00">/io/columns/string_column.hpp</text>
</a>
</g>
</g>
<!-- Node1&#45;&gt;Node20 -->
<g id="edge33_Node000001_Node000020" class="edge">
<title>Node1&#45;&gt;Node20</title>
<g id="a_edge33_Node000001_Node000020"><a xlink:title=" ">
<path fill="none" stroke="#63b8ff" d="M1192.1,-530.08C996.44,-527.5 549.13,-517.73 175,-481 172.11,-480.72 169.16,-480.4 166.19,-480.07"/>
<polygon fill="#63b8ff" stroke="#63b8ff" points="1192.32,-533.59 1202.36,-530.22 1192.41,-526.59 1192.32,-533.59"/>
</a>
</g>
</g>
<!-- Node21 -->
<g id="Node000021" class="node">
<title>Node21</title>
<g id="a_Node000021"><a xlink:href="../../d3/d31/uint16__column_8hpp.html" target="_top" xlink:title="UInt16 column support.">
<polygon fill="white" stroke="#666666" points="353.5,-481 184.5,-481 184.5,-451 353.5,-451 353.5,-481"/>
<text text-anchor="start" x="192.5" y="-469" font-family="Helvetica,sans-Serif" font-size="10.00">userver/storages/clickhouse</text>
<text text-anchor="middle" x="269" y="-458" font-family="Helvetica,sans-Serif" font-size="10.00">/io/columns/uint16_column.hpp</text>
</a>
</g>
</g>
<!-- Node1&#45;&gt;Node21 -->
<g id="edge35_Node000001_Node000021" class="edge">
<title>Node1&#45;&gt;Node21</title>
<g id="a_edge35_Node000001_Node000021"><a xlink:title=" ">
<path fill="none" stroke="#63b8ff" d="M1192.11,-528.76C1021.53,-524.24 663.29,-511.71 362,-481 359.24,-480.72 356.43,-480.41 353.6,-480.09"/>
<polygon fill="#63b8ff" stroke="#63b8ff" points="1192.24,-532.27 1202.33,-529.03 1192.42,-525.27 1192.24,-532.27"/>
</a>
</g>
</g>
<!-- Node22 -->
<g id="Node000022" class="node">
<title>Node22</title>
<g id="a_Node000022"><a xlink:href="../../d8/d18/uint32__column_8hpp.html" target="_top" xlink:title="UInt32 column support.">
<polygon fill="white" stroke="#666666" points="540.5,-481 371.5,-481 371.5,-451 540.5,-451 540.5,-481"/>
<text text-anchor="start" x="379.5" y="-469" font-family="Helvetica,sans-Serif" font-size="10.00">userver/storages/clickhouse</text>
<text text-anchor="middle" x="456" y="-458" font-family="Helvetica,sans-Serif" font-size="10.00">/io/columns/uint32_column.hpp</text>
</a>
</g>
</g>
<!-- Node1&#45;&gt;Node22 -->
<g id="edge37_Node000001_Node000022" class="edge">
<title>Node1&#45;&gt;Node22</title>
<g id="a_edge37_Node000001_Node000022"><a xlink:title=" ">
<path fill="none" stroke="#63b8ff" d="M1192.24,-526.9C1049.41,-520.43 778.54,-505.96 549,-481 546.24,-480.7 543.44,-480.38 540.61,-480.04"/>
<polygon fill="#63b8ff" stroke="#63b8ff" points="1192.15,-530.39 1202.3,-527.35 1192.46,-523.4 1192.15,-530.39"/>
</a>
</g>
</g>
<!-- Node23 -->
<g id="Node000023" class="node">
<title>Node23</title>
<g id="a_Node000023"><a xlink:href="../../d8/d6c/uint64__column_8hpp.html" target="_top" xlink:title="UInt64 column support.">
<polygon fill="white" stroke="#666666" points="727.5,-481 558.5,-481 558.5,-451 727.5,-451 727.5,-481"/>
<text text-anchor="start" x="566.5" y="-469" font-family="Helvetica,sans-Serif" font-size="10.00">userver/storages/clickhouse</text>
<text text-anchor="middle" x="643" y="-458" font-family="Helvetica,sans-Serif" font-size="10.00">/io/columns/uint64_column.hpp</text>
</a>
</g>
</g>
<!-- Node1&#45;&gt;Node23 -->
<g id="edge39_Node000001_Node000023" class="edge">
<title>Node1&#45;&gt;Node23</title>
<g id="a_edge39_Node000001_Node000023"><a xlink:title=" ">
<path fill="none" stroke="#63b8ff" d="M1192.05,-523.82C1080.61,-515.39 895.1,-500.11 736,-481 733.24,-480.67 730.44,-480.32 727.62,-479.96"/>
<polygon fill="#63b8ff" stroke="#63b8ff" points="1192.04,-527.33 1202.27,-524.59 1192.56,-520.35 1192.04,-527.33"/>
</a>
</g>
</g>
<!-- Node24 -->
<g id="Node000024" class="node">
<title>Node24</title>
<g id="a_Node000024"><a xlink:href="../../d3/d2d/uint8__column_8hpp.html" target="_top" xlink:title="UInt8 column support.">
<polygon fill="white" stroke="#666666" points="908.5,-481 745.5,-481 745.5,-451 908.5,-451 908.5,-481"/>
<text text-anchor="start" x="753.5" y="-469" font-family="Helvetica,sans-Serif" font-size="10.00">userver/storages/clickhouse</text>
<text text-anchor="middle" x="827" y="-458" font-family="Helvetica,sans-Serif" font-size="10.00">/io/columns/uint8_column.hpp</text>
</a>
</g>
</g>
<!-- Node1&#45;&gt;Node24 -->
<g id="edge41_Node000001_Node000024" class="edge">
<title>Node1&#45;&gt;Node24</title>
<g id="a_edge41_Node000001_Node000024"><a xlink:title=" ">
<path fill="none" stroke="#63b8ff" d="M1192.14,-518.29C1116.54,-508.52 1010.16,-494.46 917,-481 914.34,-480.62 911.64,-480.22 908.91,-479.82"/>
<polygon fill="#63b8ff" stroke="#63b8ff" points="1191.77,-521.77 1202.14,-519.58 1192.67,-514.82 1191.77,-521.77"/>
</a>
</g>
</g>
<!-- Node25 -->
<g id="Node000025" class="node">
<title>Node25</title>
<g id="a_Node000025"><a xlink:href="../../d6/dca/uuid__column_8hpp.html" target="_top" xlink:title="UUID column support.">
<polygon fill="white" stroke="#666666" points="1085.5,-481 926.5,-481 926.5,-451 1085.5,-451 1085.5,-481"/>
<text text-anchor="start" x="934.5" y="-469" font-family="Helvetica,sans-Serif" font-size="10.00">userver/storages/clickhouse</text>
<text text-anchor="middle" x="1006" y="-458" font-family="Helvetica,sans-Serif" font-size="10.00">/io/columns/uuid_column.hpp</text>
</a>
</g>
</g>
<!-- Node1&#45;&gt;Node25 -->
<g id="edge43_Node000001_Node000025" class="edge">
<title>Node1&#45;&gt;Node25</title>
<g id="a_edge43_Node000001_Node000025"><a xlink:title=" ">
<path fill="none" stroke="#63b8ff" d="M1219.22,-514.71C1172.71,-504.31 1113.01,-490.95 1068.62,-481.01"/>
<polygon fill="#63b8ff" stroke="#63b8ff" points="1218.71,-518.19 1229.24,-516.95 1220.24,-511.36 1218.71,-518.19"/>
</a>
</g>
</g>
<!-- Node3 -->
<g id="Node000003" class="node">
<title>Node3</title>
<g id="a_Node000003"><a xlink:href="../../d3/d25/common__columns_8hpp.html" target="_top" xlink:title=" ">
<polygon fill="white" stroke="#666666" points="1483,-415 1297,-415 1297,-385 1483,-385 1483,-415"/>
<text text-anchor="start" x="1305" y="-403" font-family="Helvetica,sans-Serif" font-size="10.00">userver/storages/clickhouse</text>
<text text-anchor="middle" x="1390" y="-392" font-family="Helvetica,sans-Serif" font-size="10.00">/io/columns/common_columns.hpp</text>
</a>
</g>
</g>
<!-- Node2&#45;&gt;Node3 -->
<g id="edge2_Node000002_Node000003" class="edge">
<title>Node2&#45;&gt;Node3</title>
<g id="a_edge2_Node000002_Node000003"><a xlink:title=" ">
<path fill="none" stroke="#63b8ff" d="M2249.52,-454.12C2237.21,-453 2224.84,-451.93 2213,-451 1948.65,-430.13 1635.92,-413.28 1483.26,-405.56"/>
<polygon fill="#63b8ff" stroke="#63b8ff" points="2249.55,-457.64 2259.83,-455.07 2250.19,-450.67 2249.55,-457.64"/>
</a>
</g>
</g>
<!-- Node11 -->
<g id="Node000011" class="node">
<title>Node11</title>
<g id="a_Node000011"><a xlink:href="../../de/dab/clickhouse_2include_2userver_2storages_2clickhouse_2io_2typedefs_8hpp.html" target="_top" xlink:title=" ">
<polygon fill="white" stroke="#666666" points="2423.5,-415 2270.5,-415 2270.5,-385 2423.5,-385 2423.5,-415"/>
<text text-anchor="start" x="2278.5" y="-403" font-family="Helvetica,sans-Serif" font-size="10.00">userver/storages/clickhouse</text>
<text text-anchor="middle" x="2347" y="-392" font-family="Helvetica,sans-Serif" font-size="10.00">/io/typedefs.hpp</text>
</a>
</g>
</g>
<!-- Node2&#45;&gt;Node11 -->
<g id="edge15_Node000002_Node000011" class="edge">
<title>Node2&#45;&gt;Node11</title>
<g id="a_edge15_Node000002_Node000011"><a xlink:title=" ">
<path fill="none" stroke="#63b8ff" d="M2353.22,-440.83C2351.87,-432.17 2350.39,-422.7 2349.21,-415.16"/>
<polygon fill="#63b8ff" stroke="#63b8ff" points="2349.78,-441.46 2354.78,-450.8 2356.69,-440.38 2349.78,-441.46"/>
</a>
</g>
</g>
<!-- Node4 -->
<g id="Node000004" class="node">
<title>Node4</title>
<g id="a_Node000004"><a xlink:href="../../dd/d84/insertion__request_8hpp_source.html" target="_top" xlink:title=" ">
<polygon fill="white" stroke="#666666" points="1652.5,-217 1499.5,-217 1499.5,-187 1652.5,-187 1652.5,-217"/>
<text text-anchor="start" x="1507.5" y="-205" font-family="Helvetica,sans-Serif" font-size="10.00">userver/storages/clickhouse</text>
<text text-anchor="middle" x="1576" y="-194" font-family="Helvetica,sans-Serif" font-size="10.00">/impl/insertion_request.hpp</text>
</a>
</g>
</g>
<!-- Node3&#45;&gt;Node4 -->
<g id="edge3_Node000003_Node000004" class="edge">
<title>Node3&#45;&gt;Node4</title>
<g id="a_edge3_Node000003_Node000004"><a xlink:title=" ">
<path fill="none" stroke="#63b8ff" d="M1410.43,-377.47C1448.71,-337.14 1530.27,-251.19 1562.49,-217.23"/>
<polygon fill="#63b8ff" stroke="#63b8ff" points="1407.72,-375.24 1403.38,-384.9 1412.8,-380.06 1407.72,-375.24"/>
</a>
</g>
</g>
<!-- Node3&#45;&gt;Node7 -->
<g id="edge6_Node000003_Node000007" class="edge">
<title>Node3&#45;&gt;Node7</title>
<g id="a_edge6_Node000003_Node000007"><a xlink:title=" ">
<path fill="none" stroke="#63b8ff" d="M1448.28,-382.12C1483.92,-371.8 1528.96,-358.76 1562.61,-349.01"/>
<polygon fill="#63b8ff" stroke="#63b8ff" points="1447.13,-378.81 1438.5,-384.95 1449.08,-385.54 1447.13,-378.81"/>
</a>
</g>
</g>
<!-- Node8 -->
<g id="Node000008" class="node">
<title>Node8</title>
<g id="a_Node000008"><a xlink:href="../../dc/d3f/validate_8hpp_source.html" target="_top" xlink:title=" ">
<polygon fill="white" stroke="#666666" points="1466.5,-283 1313.5,-283 1313.5,-253 1466.5,-253 1466.5,-283"/>
<text text-anchor="start" x="1321.5" y="-271" font-family="Helvetica,sans-Serif" font-size="10.00">userver/storages/clickhouse</text>
<text text-anchor="middle" x="1390" y="-260" font-family="Helvetica,sans-Serif" font-size="10.00">/io/impl/validate.hpp</text>
</a>
</g>
</g>
<!-- Node3&#45;&gt;Node8 -->
<g id="edge14_Node000003_Node000008" class="edge">
<title>Node3&#45;&gt;Node8</title>
<g id="a_edge14_Node000003_Node000008"><a xlink:title=" ">
<path fill="none" stroke="#63b8ff" d="M1390,-374.68C1390,-347.7 1390,-305.11 1390,-283.14"/>
<polygon fill="#63b8ff" stroke="#63b8ff" points="1386.5,-374.84 1390,-384.84 1393.5,-374.84 1386.5,-374.84"/>
</a>
</g>
</g>
<!-- Node5 -->
<g id="Node000005" class="node">
<title>Node5</title>
<g id="a_Node000005"><a xlink:href="../../da/de8/clickhouse_2include_2userver_2storages_2clickhouse_2cluster_8hpp.html" target="_top" xlink:title="Interface for executing queries on a cluster of ClickHouse servers.">
<polygon fill="white" stroke="#666666" points="1657.5,-85 1504.5,-85 1504.5,-55 1657.5,-55 1657.5,-85"/>
<text text-anchor="start" x="1512.5" y="-73" font-family="Helvetica,sans-Serif" font-size="10.00">userver/storages/clickhouse</text>
<text text-anchor="middle" x="1581" y="-62" font-family="Helvetica,sans-Serif" font-size="10.00">/cluster.hpp</text>
</a>
</g>
</g>
<!-- Node4&#45;&gt;Node5 -->
<g id="edge4_Node000004_Node000005" class="edge">
<title>Node4&#45;&gt;Node5</title>
<g id="a_edge4_Node000004_Node000005"><a xlink:title=" ">
<path fill="none" stroke="#63b8ff" d="M1576.94,-176.68C1577.97,-149.7 1579.61,-107.11 1580.46,-85.14"/>
<polygon fill="#63b8ff" stroke="#63b8ff" points="1573.43,-176.71 1576.54,-186.84 1580.43,-176.98 1573.43,-176.71"/>
</a>
</g>
</g>
<!-- Node6 -->
<g id="Node000006" class="node">
<title>Node6</title>
<g id="a_Node000006"><a xlink:href="../../d7/d29/clickhouse_8hpp.html" target="_top" xlink:title=" ">
<polygon fill="white" stroke="#666666" points="1668,-19 1494,-19 1494,0 1668,0 1668,-19"/>
<text text-anchor="middle" x="1581" y="-7" font-family="Helvetica,sans-Serif" font-size="10.00">userver/storages/clickhouse.hpp</text>
</a>
</g>
</g>
<!-- Node5&#45;&gt;Node6 -->
<g id="edge5_Node000005_Node000006" class="edge">
<title>Node5&#45;&gt;Node6</title>
<g id="a_edge5_Node000005_Node000006"><a xlink:title=" ">
<path fill="none" stroke="#63b8ff" d="M1581,-44.75C1581,-35.72 1581,-26.03 1581,-19.27"/>
<polygon fill="#63b8ff" stroke="#63b8ff" points="1577.5,-44.84 1581,-54.84 1584.5,-44.84 1577.5,-44.84"/>
</a>
</g>
</g>
<!-- Node7&#45;&gt;Node4 -->
<g id="edge7_Node000007_Node000004" class="edge">
<title>Node7&#45;&gt;Node4</title>
<g id="a_edge7_Node000007_Node000004"><a xlink:title=" ">
<path fill="none" stroke="#63b8ff" d="M1604.55,-309.04C1597.29,-282.08 1585.75,-239.21 1579.81,-217.14"/>
<polygon fill="#63b8ff" stroke="#63b8ff" points="1601.21,-310.09 1607.19,-318.84 1607.97,-308.27 1601.21,-310.09"/>
</a>
</g>
</g>
<!-- Node7&#45;&gt;Node8 -->
<g id="edge8_Node000007_Node000008" class="edge">
<title>Node7&#45;&gt;Node8</title>
<g id="a_edge8_Node000007_Node000008"><a xlink:title=" ">
<path fill="none" stroke="#63b8ff" d="M1552.72,-316.12C1517.08,-305.8 1472.04,-292.76 1438.39,-283.01"/>
<polygon fill="#63b8ff" stroke="#63b8ff" points="1551.92,-319.54 1562.5,-318.95 1553.87,-312.81 1551.92,-319.54"/>
</a>
</g>
</g>
<!-- Node8&#45;&gt;Node4 -->
<g id="edge13_Node000008_Node000004" class="edge">
<title>Node8&#45;&gt;Node4</title>
<g id="a_edge13_Node000008_Node000004"><a xlink:title=" ">
<path fill="none" stroke="#63b8ff" d="M1440.6,-249.59C1470.34,-239.36 1507.44,-226.59 1535.28,-217.01"/>
<polygon fill="#63b8ff" stroke="#63b8ff" points="1439.14,-246.39 1430.82,-252.95 1441.41,-253.01 1439.14,-246.39"/>
</a>
</g>
</g>
<!-- Node9 -->
<g id="Node000009" class="node">
<title>Node9</title>
<g id="a_Node000009"><a xlink:href="../../db/d1b/clickhouse_2include_2userver_2storages_2clickhouse_2execution__result_8hpp.html" target="_top" xlink:title="Result accessor.">
<polygon fill="white" stroke="#666666" points="1466.5,-217 1313.5,-217 1313.5,-187 1466.5,-187 1466.5,-217"/>
<text text-anchor="start" x="1321.5" y="-205" font-family="Helvetica,sans-Serif" font-size="10.00">userver/storages/clickhouse</text>
<text text-anchor="middle" x="1390" y="-194" font-family="Helvetica,sans-Serif" font-size="10.00">/execution_result.hpp</text>
</a>
</g>
</g>
<!-- Node8&#45;&gt;Node9 -->
<g id="edge9_Node000008_Node000009" class="edge">
<title>Node8&#45;&gt;Node9</title>
<g id="a_edge9_Node000008_Node000009"><a xlink:title=" ">
<path fill="none" stroke="#63b8ff" d="M1390,-242.54C1390,-233.96 1390,-224.61 1390,-217.16"/>
<polygon fill="#63b8ff" stroke="#63b8ff" points="1386.5,-242.8 1390,-252.8 1393.5,-242.8 1386.5,-242.8"/>
</a>
</g>
</g>
<!-- Node9&#45;&gt;Node6 -->
<g id="edge10_Node000009_Node000006" class="edge">
<title>Node9&#45;&gt;Node6</title>
<g id="a_edge10_Node000009_Node000006"><a xlink:title=" ">
<path fill="none" stroke="#63b8ff" d="M1384.54,-176.86C1382.08,-160.12 1381.53,-137.89 1391,-121 1423.76,-62.59 1500.9,-32.33 1546.17,-19.08"/>
<polygon fill="#63b8ff" stroke="#63b8ff" points="1381.14,-177.73 1386.35,-186.95 1388.03,-176.49 1381.14,-177.73"/>
</a>
</g>
</g>
<!-- Node10 -->
<g id="Node000010" class="node">
<title>Node10</title>
<g id="a_Node000010"><a xlink:href="../../d3/de4/clickhouse_2include_2userver_2storages_2clickhouse_2impl_2pool_8hpp_source.html" target="_top" xlink:title=" ">
<polygon fill="white" stroke="#666666" points="1552.5,-151 1399.5,-151 1399.5,-121 1552.5,-121 1552.5,-151"/>
<text text-anchor="start" x="1407.5" y="-139" font-family="Helvetica,sans-Serif" font-size="10.00">userver/storages/clickhouse</text>
<text text-anchor="middle" x="1476" y="-128" font-family="Helvetica,sans-Serif" font-size="10.00">/impl/pool.hpp</text>
</a>
</g>
</g>
<!-- Node9&#45;&gt;Node10 -->
<g id="edge11_Node000009_Node000010" class="edge">
<title>Node9&#45;&gt;Node10</title>
<g id="a_edge11_Node000009_Node000010"><a xlink:title=" ">
<path fill="none" stroke="#63b8ff" d="M1417.21,-180.75C1430.14,-171.13 1445.29,-159.86 1456.97,-151.16"/>
<polygon fill="#63b8ff" stroke="#63b8ff" points="1415.02,-178.02 1409.09,-186.8 1419.2,-183.63 1415.02,-178.02"/>
</a>
</g>
</g>
<!-- Node10&#45;&gt;Node5 -->
<g id="edge12_Node000010_Node000005" class="edge">
<title>Node10&#45;&gt;Node5</title>
<g id="a_edge12_Node000010_Node000005"><a xlink:title=" ">
<path fill="none" stroke="#63b8ff" d="M1507.67,-115.69C1523.88,-105.82 1543.25,-94.01 1558.01,-85.01"/>
<polygon fill="#63b8ff" stroke="#63b8ff" points="1505.76,-112.76 1499.04,-120.95 1509.4,-118.74 1505.76,-112.76"/>
</a>
</g>
</g>
<!-- Node12 -->
<g id="Node000012" class="node">
<title>Node12</title>
<g id="a_Node000012"><a xlink:href="../../d3/d92/escape_8hpp_source.html" target="_top" xlink:title=" ">
<polygon fill="white" stroke="#666666" points="2147.5,-349 1994.5,-349 1994.5,-319 2147.5,-319 2147.5,-349"/>
<text text-anchor="start" x="2002.5" y="-337" font-family="Helvetica,sans-Serif" font-size="10.00">userver/storages/clickhouse</text>
<text text-anchor="middle" x="2071" y="-326" font-family="Helvetica,sans-Serif" font-size="10.00">/io/impl/escape.hpp</text>
</a>
</g>
</g>
<!-- Node11&#45;&gt;Node12 -->
<g id="edge16_Node000011_Node000012" class="edge">
<title>Node11&#45;&gt;Node12</title>
<g id="a_edge16_Node000011_Node000012"><a xlink:title=" ">
<path fill="none" stroke="#63b8ff" d="M2276.48,-382.65C2231.64,-372.25 2174.18,-358.93 2131.43,-349.01"/>
<polygon fill="#63b8ff" stroke="#63b8ff" points="2275.9,-386.11 2286.43,-384.95 2277.48,-379.29 2275.9,-386.11"/>
</a>
</g>
</g>
<!-- Node13 -->
<g id="Node000013" class="node">
<title>Node13</title>
<g id="a_Node000013"><a xlink:href="../../d7/de9/clickhouse_2include_2userver_2storages_2clickhouse_2query_8hpp.html" target="_top" xlink:title="Holds a query and its name. In case query is expected to be executed with parameters,...">
<polygon fill="white" stroke="#666666" points="1762.5,-151 1609.5,-151 1609.5,-121 1762.5,-121 1762.5,-151"/>
<text text-anchor="start" x="1617.5" y="-139" font-family="Helvetica,sans-Serif" font-size="10.00">userver/storages/clickhouse</text>
<text text-anchor="middle" x="1686" y="-128" font-family="Helvetica,sans-Serif" font-size="10.00">/query.hpp</text>
</a>
</g>
</g>
<!-- Node12&#45;&gt;Node13 -->
<g id="edge17_Node000012_Node000013" class="edge">
<title>Node12&#45;&gt;Node13</title>
<g id="a_edge17_Node000012_Node000013"><a xlink:title=" ">
<path fill="none" stroke="#63b8ff" d="M2034.01,-314.17C1957.16,-275.05 1781.74,-185.74 1713.7,-151.1"/>
<polygon fill="#63b8ff" stroke="#63b8ff" points="2032.81,-317.49 2043.31,-318.9 2035.99,-311.25 2032.81,-317.49"/>
</a>
</g>
</g>
<!-- Node13&#45;&gt;Node5 -->
<g id="edge19_Node000013_Node000005" class="edge">
<title>Node13&#45;&gt;Node5</title>
<g id="a_edge19_Node000013_Node000005"><a xlink:title=" ">
<path fill="none" stroke="#63b8ff" d="M1654.33,-115.69C1638.12,-105.82 1618.75,-94.01 1603.99,-85.01"/>
<polygon fill="#63b8ff" stroke="#63b8ff" points="1652.6,-118.74 1662.96,-120.95 1656.24,-112.76 1652.6,-118.74"/>
</a>
</g>
</g>
<!-- Node13&#45;&gt;Node6 -->
<g id="edge18_Node000013_Node000006" class="edge">
<title>Node13&#45;&gt;Node6</title>
<g id="a_edge18_Node000013_Node000006"><a xlink:title=" ">
<path fill="none" stroke="#63b8ff" d="M1685.42,-110.41C1683.85,-93.29 1679.33,-70.78 1667,-55 1653.13,-37.25 1630.22,-25.89 1611.53,-19.09"/>
<polygon fill="#63b8ff" stroke="#63b8ff" points="1681.95,-111 1686.08,-120.76 1688.94,-110.56 1681.95,-111"/>
</a>
</g>
</g>
<!-- Node14&#45;&gt;Node3 -->
<g id="edge21_Node000014_Node000003" class="edge">
<title>Node14&#45;&gt;Node3</title>
<g id="a_edge21_Node000014_Node000003"><a xlink:title=" ">
<path fill="none" stroke="#63b8ff" d="M1247.64,-447.72C1278.89,-437.47 1317.99,-424.63 1347.31,-415.01"/>
<polygon fill="#63b8ff" stroke="#63b8ff" points="1246.2,-444.51 1237.79,-450.95 1248.39,-451.16 1246.2,-444.51"/>
</a>
</g>
</g>
<!-- Node15&#45;&gt;Node3 -->
<g id="edge23_Node000015_Node000003" class="edge">
<title>Node15&#45;&gt;Node3</title>
<g id="a_edge23_Node000015_Node000003"><a xlink:title=" ">
<path fill="none" stroke="#63b8ff" d="M1390,-440.54C1390,-431.96 1390,-422.61 1390,-415.16"/>
<polygon fill="#63b8ff" stroke="#63b8ff" points="1386.5,-440.8 1390,-450.8 1393.5,-440.8 1386.5,-440.8"/>
</a>
</g>
</g>
<!-- Node16&#45;&gt;Node3 -->
<g id="edge25_Node000016_Node000003" class="edge">
<title>Node16&#45;&gt;Node3</title>
<g id="a_edge25_Node000016_Node000003"><a xlink:title=" ">
<path fill="none" stroke="#63b8ff" d="M1528.71,-447.72C1498.27,-437.47 1460.16,-424.63 1431.6,-415.01"/>
<polygon fill="#63b8ff" stroke="#63b8ff" points="1527.71,-451.08 1538.3,-450.95 1529.94,-444.45 1527.71,-451.08"/>
</a>
</g>
</g>
<!-- Node17&#45;&gt;Node3 -->
<g id="edge27_Node000017_Node000003" class="edge">
<title>Node17&#45;&gt;Node3</title>
<g id="a_edge27_Node000017_Node000003"><a xlink:title=" ">
<path fill="none" stroke="#63b8ff" d="M1674.3,-449.39C1612.63,-438.89 1532.03,-425.17 1472.4,-415.03"/>
<polygon fill="#63b8ff" stroke="#63b8ff" points="1673.97,-452.89 1684.41,-451.11 1675.14,-445.98 1673.97,-452.89"/>
</a>
</g>
</g>
<!-- Node18&#45;&gt;Node3 -->
<g id="edge29_Node000018_Node000003" class="edge">
<title>Node18&#45;&gt;Node3</title>
<g id="a_edge29_Node000018_Node000003"><a xlink:title=" ">
<path fill="none" stroke="#63b8ff" d="M1855.02,-450.77C1720.35,-433.28 1575.26,-418.52 1483.19,-409.66"/>
<polygon fill="#63b8ff" stroke="#63b8ff" points="1854.74,-454.27 1865.11,-452.09 1855.65,-447.33 1854.74,-454.27"/>
</a>
</g>
</g>
<!-- Node19&#45;&gt;Node3 -->
<g id="edge31_Node000019_Node000003" class="edge">
<title>Node19&#45;&gt;Node3</title>
<g id="a_edge31_Node000019_Node000003"><a xlink:title=" ">
<path fill="none" stroke="#63b8ff" d="M2036.38,-450.87C1833.63,-427.12 1607.1,-412.65 1483.06,-405.76"/>
<polygon fill="#63b8ff" stroke="#63b8ff" points="2035.98,-454.34 2046.32,-452.04 2036.8,-447.39 2035.98,-454.34"/>
</a>
</g>
</g>
<!-- Node20&#45;&gt;Node3 -->
<g id="edge34_Node000020_Node000003" class="edge">
<title>Node20&#45;&gt;Node3</title>
<g id="a_edge34_Node000020_Node000003"><a xlink:title=" ">
<path fill="none" stroke="#63b8ff" d="M176.19,-450.96C599.94,-410.68 1094.47,-402.87 1296.78,-401.35"/>
<polygon fill="#63b8ff" stroke="#63b8ff" points="175.81,-447.48 166.19,-451.92 176.48,-454.45 175.81,-447.48"/>
</a>
</g>
</g>
<!-- Node21&#45;&gt;Node3 -->
<g id="edge36_Node000021_Node000003" class="edge">
<title>Node21&#45;&gt;Node3</title>
<g id="a_edge36_Node000021_Node000003"><a xlink:title=" ">
<path fill="none" stroke="#63b8ff" d="M363.67,-450.9C713.41,-416.66 1117.98,-405.74 1296.92,-402.39"/>
<polygon fill="#63b8ff" stroke="#63b8ff" points="363.21,-447.43 353.6,-451.89 363.9,-454.4 363.21,-447.43"/>
</a>
</g>
</g>
<!-- Node22&#45;&gt;Node3 -->
<g id="edge38_Node000022_Node000003" class="edge">
<title>Node22&#45;&gt;Node3</title>
<g id="a_edge38_Node000022_Node000003"><a xlink:title=" ">
<path fill="none" stroke="#63b8ff" d="M550.85,-450.87C827.58,-422.3 1143.26,-409.02 1296.75,-403.8"/>
<polygon fill="#63b8ff" stroke="#63b8ff" points="550.19,-447.42 540.61,-451.93 550.91,-454.38 550.19,-447.42"/>
</a>
</g>
</g>
<!-- Node23&#45;&gt;Node3 -->
<g id="edge40_Node000023_Node000003" class="edge">
<title>Node23&#45;&gt;Node3</title>
<g id="a_edge40_Node000023_Node000003"><a xlink:title=" ">
<path fill="none" stroke="#63b8ff" d="M737.67,-450.86C942.82,-427.93 1171.96,-413.12 1296.93,-405.97"/>
<polygon fill="#63b8ff" stroke="#63b8ff" points="737.16,-447.4 727.61,-451.99 737.94,-454.35 737.16,-447.4"/>
</a>
</g>
</g>
<!-- Node24&#45;&gt;Node3 -->
<g id="edge42_Node000024_Node000003" class="edge">
<title>Node24&#45;&gt;Node3</title>
<g id="a_edge42_Node000024_Node000003"><a xlink:title=" ">
<path fill="none" stroke="#63b8ff" d="M919.15,-450.75C1056.05,-433.07 1203.78,-418.28 1296.95,-409.48"/>
<polygon fill="#63b8ff" stroke="#63b8ff" points="918.36,-447.33 908.89,-452.09 919.26,-454.27 918.36,-447.33"/>
</a>
</g>
</g>
<!-- Node25&#45;&gt;Node3 -->
<g id="edge44_Node000025_Node000003" class="edge">
<title>Node25&#45;&gt;Node3</title>
<g id="a_edge44_Node000025_Node000003"><a xlink:title=" ">
<path fill="none" stroke="#63b8ff" d="M1095.57,-450.07C1159.05,-439.49 1243.66,-425.39 1305.88,-415.02"/>
<polygon fill="#63b8ff" stroke="#63b8ff" points="1094.85,-446.64 1085.57,-451.74 1096,-453.55 1094.85,-446.64"/>
</a>
</g>
</g>
</g>
</svg>
