<?xml version="1.0" encoding="UTF-8" standalone="no"?>
<!DOCTYPE svg PUBLIC "-//W3C//DTD SVG 1.1//EN"
 "http://www.w3.org/Graphics/SVG/1.1/DTD/svg11.dtd">
<!-- Generated by graphviz version 2.43.0 (0)
 -->
<!-- Title: userver/storages/postgres/io/buffer_io.hpp Pages: 1 -->
<svg width="2242pt" height="632pt"
 viewBox="0.00 0.00 2242.00 632.00" xmlns="http://www.w3.org/2000/svg" xmlns:xlink="http://www.w3.org/1999/xlink">
<g id="graph0" class="graph" transform="scale(1 1) rotate(0) translate(4 628)">
<title>userver/storages/postgres/io/buffer_io.hpp</title>
<!-- Node1 -->
<g id="Node000001" class="node">
<title>Node1</title>
<g id="a_Node000001"><a xlink:title="I/O buffer helpers.">
<polygon fill="#999999" stroke="#666666" points="1613,-624 1470,-624 1470,-594 1613,-594 1613,-624"/>
<text text-anchor="start" x="1478" y="-612" font-family="Helvetica,sans-Serif" font-size="10.00">userver/storages/postgres</text>
<text text-anchor="middle" x="1541.5" y="-601" font-family="Helvetica,sans-Serif" font-size="10.00">/io/buffer_io.hpp</text>
</a>
</g>
</g>
<!-- Node2 -->
<g id="Node000002" class="node">
<title>Node2</title>
<g id="a_Node000002"><a xlink:href="../../d6/d31/bitstring_8hpp.html" target="_top" xlink:title="storages::postgres::BitString I/O support">
<polygon fill="white" stroke="#666666" points="143,-558 0,-558 0,-528 143,-528 143,-558"/>
<text text-anchor="start" x="8" y="-546" font-family="Helvetica,sans-Serif" font-size="10.00">userver/storages/postgres</text>
<text text-anchor="middle" x="71.5" y="-535" font-family="Helvetica,sans-Serif" font-size="10.00">/io/bitstring.hpp</text>
</a>
</g>
</g>
<!-- Node1&#45;&gt;Node2 -->
<g id="edge1_Node000001_Node000002" class="edge">
<title>Node1&#45;&gt;Node2</title>
<g id="a_edge1_Node000001_Node000002"><a xlink:title=" ">
<path fill="none" stroke="#63b8ff" d="M1459.76,-608.61C1245.5,-609.45 650.09,-606.8 157.5,-558 152.83,-557.54 148.04,-556.98 143.21,-556.36"/>
<polygon fill="#63b8ff" stroke="#63b8ff" points="1460,-612.11 1469.98,-608.57 1459.97,-605.11 1460,-612.11"/>
</a>
</g>
</g>
<!-- Node3 -->
<g id="Node000003" class="node">
<title>Node3</title>
<g id="a_Node000003"><a xlink:href="../../dd/d1d/boost__multiprecision_8hpp.html" target="_top" xlink:title="boost::multiprecision I/O support">
<polygon fill="white" stroke="#666666" points="1560,-492 1405,-492 1405,-462 1560,-462 1560,-492"/>
<text text-anchor="start" x="1413" y="-480" font-family="Helvetica,sans-Serif" font-size="10.00">userver/storages/postgres</text>
<text text-anchor="middle" x="1482.5" y="-469" font-family="Helvetica,sans-Serif" font-size="10.00">/io/boost_multiprecision.hpp</text>
</a>
</g>
</g>
<!-- Node1&#45;&gt;Node3 -->
<g id="edge2_Node000001_Node000003" class="edge">
<title>Node1&#45;&gt;Node3</title>
<g id="a_edge2_Node000001_Node000003"><a xlink:title=" ">
<path fill="none" stroke="#63b8ff" d="M1538.18,-583.93C1535.28,-567.56 1530.15,-545.73 1521.5,-528 1515.03,-514.74 1504.65,-501.66 1496.22,-492.21"/>
<polygon fill="#63b8ff" stroke="#63b8ff" points="1534.72,-584.49 1539.77,-593.8 1541.63,-583.37 1534.72,-584.49"/>
</a>
</g>
</g>
<!-- Node4 -->
<g id="Node000004" class="node">
<title>Node4</title>
<g id="a_Node000004"><a xlink:href="../../d0/d1b/bytea_8hpp.html" target="_top" xlink:title="storages::postgres::Bytea I/O support">
<polygon fill="white" stroke="#666666" points="1847,-426 1704,-426 1704,-396 1847,-396 1847,-426"/>
<text text-anchor="start" x="1712" y="-414" font-family="Helvetica,sans-Serif" font-size="10.00">userver/storages/postgres</text>
<text text-anchor="middle" x="1775.5" y="-403" font-family="Helvetica,sans-Serif" font-size="10.00">/io/bytea.hpp</text>
</a>
</g>
</g>
<!-- Node1&#45;&gt;Node4 -->
<g id="edge3_Node000001_Node000004" class="edge">
<title>Node1&#45;&gt;Node4</title>
<g id="a_edge3_Node000001_Node000004"><a xlink:title=" ">
<path fill="none" stroke="#63b8ff" d="M1600.47,-590.47C1620.56,-582.64 1642.27,-571.97 1659.5,-558 1699.92,-525.24 1693.29,-502.05 1726.5,-462 1737.05,-449.28 1750.22,-435.96 1760.25,-426.27"/>
<polygon fill="#63b8ff" stroke="#63b8ff" points="1599.22,-587.2 1591.08,-593.97 1601.67,-593.76 1599.22,-587.2"/>
</a>
</g>
</g>
<!-- Node17 -->
<g id="Node000017" class="node">
<title>Node17</title>
<g id="a_Node000017"><a xlink:href="../../d6/db8/chrono_8hpp.html" target="_top" xlink:title="Timestamp (std::chrono::*) I/O support.">
<polygon fill="white" stroke="#666666" points="504,-426 361,-426 361,-396 504,-396 504,-426"/>
<text text-anchor="start" x="369" y="-414" font-family="Helvetica,sans-Serif" font-size="10.00">userver/storages/postgres</text>
<text text-anchor="middle" x="432.5" y="-403" font-family="Helvetica,sans-Serif" font-size="10.00">/io/chrono.hpp</text>
</a>
</g>
</g>
<!-- Node1&#45;&gt;Node17 -->
<g id="edge27_Node000001_Node000017" class="edge">
<title>Node1&#45;&gt;Node17</title>
<g id="a_edge27_Node000001_Node000017"><a xlink:title=" ">
<path fill="none" stroke="#63b8ff" d="M1459.82,-607.77C1179.32,-606.07 268.29,-592.79 190.5,-492 143.19,-430.7 273.65,-415.82 360.94,-412.55"/>
<polygon fill="#63b8ff" stroke="#63b8ff" points="1459.91,-611.27 1469.93,-607.83 1459.95,-604.27 1459.91,-611.27"/>
</a>
</g>
</g>
<!-- Node18 -->
<g id="Node000018" class="node">
<title>Node18</title>
<g id="a_Node000018"><a xlink:href="../../d5/d3a/postgresql_2include_2userver_2storages_2postgres_2io_2date_8hpp.html" target="_top" xlink:title="utils::datetime::Date I/O support">
<polygon fill="white" stroke="#666666" points="1912,-558 1769,-558 1769,-528 1912,-528 1912,-558"/>
<text text-anchor="start" x="1777" y="-546" font-family="Helvetica,sans-Serif" font-size="10.00">userver/storages/postgres</text>
<text text-anchor="middle" x="1840.5" y="-535" font-family="Helvetica,sans-Serif" font-size="10.00">/io/date.hpp</text>
</a>
</g>
</g>
<!-- Node1&#45;&gt;Node18 -->
<g id="edge30_Node000001_Node000018" class="edge">
<title>Node1&#45;&gt;Node18</title>
<g id="a_edge30_Node000001_Node000018"><a xlink:title=" ">
<path fill="none" stroke="#63b8ff" d="M1616.98,-591.84C1665.69,-581.42 1728.43,-567.99 1775.04,-558.01"/>
<polygon fill="#63b8ff" stroke="#63b8ff" points="1616.16,-588.44 1607.12,-593.95 1617.63,-595.28 1616.16,-588.44"/>
</a>
</g>
</g>
<!-- Node19 -->
<g id="Node000019" class="node">
<title>Node19</title>
<g id="a_Node000019"><a xlink:href="../../df/dbe/postgresql_2include_2userver_2storages_2postgres_2io_2decimal64_8hpp.html" target="_top" xlink:title="decimal64::Decimal I/O support">
<polygon fill="white" stroke="#666666" points="1387,-492 1244,-492 1244,-462 1387,-462 1387,-492"/>
<text text-anchor="start" x="1252" y="-480" font-family="Helvetica,sans-Serif" font-size="10.00">userver/storages/postgres</text>
<text text-anchor="middle" x="1315.5" y="-469" font-family="Helvetica,sans-Serif" font-size="10.00">/io/decimal64.hpp</text>
</a>
</g>
</g>
<!-- Node1&#45;&gt;Node19 -->
<g id="edge31_Node000001_Node000019" class="edge">
<title>Node1&#45;&gt;Node19</title>
<g id="a_edge31_Node000001_Node000019"><a xlink:title=" ">
<path fill="none" stroke="#63b8ff" d="M1459.69,-599.35C1426.21,-592.46 1388.77,-580.12 1360.5,-558 1338.66,-540.91 1325.72,-510.1 1319.67,-492.11"/>
<polygon fill="#63b8ff" stroke="#63b8ff" points="1459.46,-602.87 1469.94,-601.31 1460.78,-595.99 1459.46,-602.87"/>
</a>
</g>
</g>
<!-- Node20 -->
<g id="Node000020" class="node">
<title>Node20</title>
<g id="a_Node000020"><a xlink:href="../../d5/d23/enum__types_8hpp.html" target="_top" xlink:title="Enum I/O support.">
<polygon fill="white" stroke="#666666" points="2008,-426 1865,-426 1865,-396 2008,-396 2008,-426"/>
<text text-anchor="start" x="1873" y="-414" font-family="Helvetica,sans-Serif" font-size="10.00">userver/storages/postgres</text>
<text text-anchor="middle" x="1936.5" y="-403" font-family="Helvetica,sans-Serif" font-size="10.00">/io/enum_types.hpp</text>
</a>
</g>
</g>
<!-- Node1&#45;&gt;Node20 -->
<g id="edge33_Node000001_Node000020" class="edge">
<title>Node1&#45;&gt;Node20</title>
<g id="a_edge33_Node000001_Node000020"><a xlink:title=" ">
<path fill="none" stroke="#63b8ff" d="M1599.44,-590.91C1626.39,-582.23 1658.59,-570.81 1686.5,-558 1775.35,-517.22 1873.5,-454.13 1915.53,-426.17"/>
<polygon fill="#63b8ff" stroke="#63b8ff" points="1598.24,-587.62 1589.77,-593.98 1600.36,-594.29 1598.24,-587.62"/>
</a>
</g>
</g>
<!-- Node21 -->
<g id="Node000021" class="node">
<title>Node21</title>
<g id="a_Node000021"><a xlink:href="../../da/d98/field__buffer_8hpp_source.html" target="_top" xlink:title=" ">
<polygon fill="white" stroke="#666666" points="865,-558 722,-558 722,-528 865,-528 865,-558"/>
<text text-anchor="start" x="730" y="-546" font-family="Helvetica,sans-Serif" font-size="10.00">userver/storages/postgres</text>
<text text-anchor="middle" x="793.5" y="-535" font-family="Helvetica,sans-Serif" font-size="10.00">/io/field_buffer.hpp</text>
</a>
</g>
</g>
<!-- Node1&#45;&gt;Node21 -->
<g id="edge35_Node000001_Node000021" class="edge">
<title>Node1&#45;&gt;Node21</title>
<g id="a_edge35_Node000001_Node000021"><a xlink:title=" ">
<path fill="none" stroke="#63b8ff" d="M1459.44,-600.98C1311.95,-588.36 1004.45,-562.05 865,-550.12"/>
<polygon fill="#63b8ff" stroke="#63b8ff" points="1459.52,-604.5 1469.78,-601.86 1460.11,-597.52 1459.52,-604.5"/>
</a>
</g>
</g>
<!-- Node27 -->
<g id="Node000027" class="node">
<title>Node27</title>
<g id="a_Node000027"><a xlink:href="../../d9/d6e/transform__io_8hpp_source.html" target="_top" xlink:title=" ">
<polygon fill="white" stroke="#666666" points="504,-492 361,-492 361,-462 504,-462 504,-492"/>
<text text-anchor="start" x="369" y="-480" font-family="Helvetica,sans-Serif" font-size="10.00">userver/storages/postgres</text>
<text text-anchor="middle" x="432.5" y="-469" font-family="Helvetica,sans-Serif" font-size="10.00">/io/transform_io.hpp</text>
</a>
</g>
</g>
<!-- Node1&#45;&gt;Node27 -->
<g id="edge60_Node000001_Node000027" class="edge">
<title>Node1&#45;&gt;Node27</title>
<g id="a_edge60_Node000001_Node000027"><a xlink:title=" ">
<path fill="none" stroke="#63b8ff" d="M1459.92,-608.94C1310.51,-609.37 983.42,-604.3 712.5,-558 624.54,-542.97 524.77,-510.64 471.29,-492"/>
<polygon fill="#63b8ff" stroke="#63b8ff" points="1459.94,-612.44 1469.93,-608.9 1459.92,-605.44 1459.94,-612.44"/>
</a>
</g>
</g>
<!-- Node28 -->
<g id="Node000028" class="node">
<title>Node28</title>
<g id="a_Node000028"><a xlink:href="../../dc/de2/interval_8hpp.html" target="_top" xlink:title="Time intervals I/O support.">
<polygon fill="white" stroke="#666666" points="343,-492 200,-492 200,-462 343,-462 343,-492"/>
<text text-anchor="start" x="208" y="-480" font-family="Helvetica,sans-Serif" font-size="10.00">userver/storages/postgres</text>
<text text-anchor="middle" x="271.5" y="-469" font-family="Helvetica,sans-Serif" font-size="10.00">/io/interval.hpp</text>
</a>
</g>
</g>
<!-- Node1&#45;&gt;Node28 -->
<g id="edge47_Node000001_Node000028" class="edge">
<title>Node1&#45;&gt;Node28</title>
<g id="a_edge47_Node000001_Node000028"><a xlink:title=" ">
<path fill="none" stroke="#63b8ff" d="M1459.71,-605.81C1260.13,-600.13 752.23,-583.56 584.5,-558 486.64,-543.09 374.93,-510.71 314.99,-492.04"/>
<polygon fill="#63b8ff" stroke="#63b8ff" points="1459.75,-609.31 1469.84,-606.1 1459.95,-602.31 1459.75,-609.31"/>
</a>
</g>
</g>
<!-- Node29 -->
<g id="Node000029" class="node">
<title>Node29</title>
<g id="a_Node000029"><a xlink:href="../../d1/dd2/postgresql_2include_2userver_2storages_2postgres_2io_2ip_8hpp_source.html" target="_top" xlink:title=" ">
<polygon fill="white" stroke="#666666" points="2073,-558 1930,-558 1930,-528 2073,-528 2073,-558"/>
<text text-anchor="start" x="1938" y="-546" font-family="Helvetica,sans-Serif" font-size="10.00">userver/storages/postgres</text>
<text text-anchor="middle" x="2001.5" y="-535" font-family="Helvetica,sans-Serif" font-size="10.00">/io/ip.hpp</text>
</a>
</g>
</g>
<!-- Node1&#45;&gt;Node29 -->
<g id="edge49_Node000001_Node000029" class="edge">
<title>Node1&#45;&gt;Node29</title>
<g id="a_edge49_Node000001_Node000029"><a xlink:title=" ">
<path fill="none" stroke="#63b8ff" d="M1623.19,-598.27C1700.24,-588.85 1818.9,-573.72 1921.5,-558 1924.29,-557.57 1927.13,-557.13 1930,-556.67"/>
<polygon fill="#63b8ff" stroke="#63b8ff" points="1622.57,-594.82 1613.07,-599.5 1623.42,-601.77 1622.57,-594.82"/>
</a>
</g>
</g>
<!-- Node30 -->
<g id="Node000030" class="node">
<title>Node30</title>
<g id="a_Node000030"><a xlink:href="../../d3/d98/postgresql_2include_2userver_2storages_2postgres_2io_2macaddr_8hpp.html" target="_top" xlink:title="utils::Macaddr and utils::Macaddr8 I/O support">
<polygon fill="white" stroke="#666666" points="2234,-558 2091,-558 2091,-528 2234,-528 2234,-558"/>
<text text-anchor="start" x="2099" y="-546" font-family="Helvetica,sans-Serif" font-size="10.00">userver/storages/postgres</text>
<text text-anchor="middle" x="2162.5" y="-535" font-family="Helvetica,sans-Serif" font-size="10.00">/io/macaddr.hpp</text>
</a>
</g>
</g>
<!-- Node1&#45;&gt;Node30 -->
<g id="edge50_Node000001_Node000030" class="edge">
<title>Node1&#45;&gt;Node30</title>
<g id="a_edge50_Node000001_Node000030"><a xlink:title=" ">
<path fill="none" stroke="#63b8ff" d="M1623.03,-602.53C1729.13,-594.95 1920.15,-579.67 2082.5,-558 2085.16,-557.65 2087.86,-557.27 2090.58,-556.87"/>
<polygon fill="#63b8ff" stroke="#63b8ff" points="1622.76,-599.04 1613.03,-603.24 1623.26,-606.03 1622.76,-599.04"/>
</a>
</g>
</g>
<!-- Node31 -->
<g id="Node000031" class="node">
<title>Node31</title>
<g id="a_Node000031"><a xlink:href="../../d9/d3d/numeric__data_8hpp_source.html" target="_top" xlink:title=" ">
<polygon fill="white" stroke="#666666" points="1513,-558 1370,-558 1370,-528 1513,-528 1513,-558"/>
<text text-anchor="start" x="1378" y="-546" font-family="Helvetica,sans-Serif" font-size="10.00">userver/storages/postgres</text>
<text text-anchor="middle" x="1441.5" y="-535" font-family="Helvetica,sans-Serif" font-size="10.00">/io/numeric_data.hpp</text>
</a>
</g>
</g>
<!-- Node1&#45;&gt;Node31 -->
<g id="edge51_Node000001_Node000031" class="edge">
<title>Node1&#45;&gt;Node31</title>
<g id="a_edge51_Node000001_Node000031"><a xlink:title=" ">
<path fill="none" stroke="#63b8ff" d="M1510.72,-588.3C1495.5,-578.56 1477.47,-567.02 1463.63,-558.16"/>
<polygon fill="#63b8ff" stroke="#63b8ff" points="1509,-591.35 1519.31,-593.8 1512.77,-585.46 1509,-591.35"/>
</a>
</g>
</g>
<!-- Node32 -->
<g id="Node000032" class="node">
<title>Node32</title>
<g id="a_Node000032"><a xlink:href="../../db/dd5/optional_8hpp.html" target="_top" xlink:title="Optional values I/O support.">
<polygon fill="white" stroke="#666666" points="1164,-426 1021,-426 1021,-396 1164,-396 1164,-426"/>
<text text-anchor="start" x="1029" y="-414" font-family="Helvetica,sans-Serif" font-size="10.00">userver/storages/postgres</text>
<text text-anchor="middle" x="1092.5" y="-403" font-family="Helvetica,sans-Serif" font-size="10.00">/io/optional.hpp</text>
</a>
</g>
</g>
<!-- Node1&#45;&gt;Node32 -->
<g id="edge54_Node000001_Node000032" class="edge">
<title>Node1&#45;&gt;Node32</title>
<g id="a_edge54_Node000001_Node000032"><a xlink:title=" ">
<path fill="none" stroke="#63b8ff" d="M1459.63,-595.23C1420.42,-587.4 1373.42,-575.44 1333.5,-558 1285.04,-536.83 1277.48,-522.81 1234.5,-492 1216.73,-479.26 1214.1,-473.5 1195.5,-462 1173.18,-448.2 1146.5,-435.34 1125.88,-426.12"/>
<polygon fill="#63b8ff" stroke="#63b8ff" points="1459.21,-598.71 1469.69,-597.19 1460.54,-591.84 1459.21,-598.71"/>
</a>
</g>
</g>
<!-- Node33 -->
<g id="Node000033" class="node">
<title>Node33</title>
<g id="a_Node000033"><a xlink:href="../../d7/da7/postgresql_2include_2userver_2storages_2postgres_2io_2strong__typedef_8hpp.html" target="_top" xlink:title="utils::StrongTypedef I/O support">
<polygon fill="white" stroke="#666666" points="1364,-426 1221,-426 1221,-396 1364,-396 1364,-426"/>
<text text-anchor="start" x="1229" y="-414" font-family="Helvetica,sans-Serif" font-size="10.00">userver/storages/postgres</text>
<text text-anchor="middle" x="1292.5" y="-403" font-family="Helvetica,sans-Serif" font-size="10.00">/io/strong_typedef.hpp</text>
</a>
</g>
</g>
<!-- Node1&#45;&gt;Node33 -->
<g id="edge56_Node000001_Node000033" class="edge">
<title>Node1&#45;&gt;Node33</title>
<g id="a_edge56_Node000001_Node000033"><a xlink:title=" ">
<path fill="none" stroke="#63b8ff" d="M1556.07,-584.72C1573.72,-553.23 1597.7,-496.96 1568.5,-462 1567.67,-461 1445.52,-439.16 1364.02,-424.67"/>
<polygon fill="#63b8ff" stroke="#63b8ff" points="1552.87,-583.25 1550.86,-593.65 1558.92,-586.78 1552.87,-583.25"/>
</a>
</g>
</g>
<!-- Node34 -->
<g id="Node000034" class="node">
<title>Node34</title>
<g id="a_Node000034"><a xlink:href="../../d5/d8e/postgresql_2include_2userver_2storages_2postgres_2io_2time__of__day_8hpp.html" target="_top" xlink:title="utils::datetime::TimeOfDay I/O support">
<polygon fill="white" stroke="#666666" points="1525,-426 1382,-426 1382,-396 1525,-396 1525,-426"/>
<text text-anchor="start" x="1390" y="-414" font-family="Helvetica,sans-Serif" font-size="10.00">userver/storages/postgres</text>
<text text-anchor="middle" x="1453.5" y="-403" font-family="Helvetica,sans-Serif" font-size="10.00">/io/time_of_day.hpp</text>
</a>
</g>
</g>
<!-- Node1&#45;&gt;Node34 -->
<g id="edge58_Node000001_Node000034" class="edge">
<title>Node1&#45;&gt;Node34</title>
<g id="a_edge58_Node000001_Node000034"><a xlink:title=" ">
<path fill="none" stroke="#63b8ff" d="M1576.27,-588C1586.67,-580.1 1596.81,-570.01 1602.5,-558 1620.75,-519.44 1627.41,-496.64 1602.5,-462 1592.18,-447.66 1554.18,-435.03 1519.13,-426.05"/>
<polygon fill="#63b8ff" stroke="#63b8ff" points="1574.11,-585.24 1567.95,-593.86 1578.14,-590.96 1574.11,-585.24"/>
</a>
</g>
</g>
<!-- Node35 -->
<g id="Node000035" class="node">
<title>Node35</title>
<g id="a_Node000035"><a xlink:href="../../d7/db4/uuid_8hpp.html" target="_top" xlink:title="UUID (boost::uuids::uuid) I/O support.">
<polygon fill="white" stroke="#666666" points="1686,-426 1543,-426 1543,-396 1686,-396 1686,-426"/>
<text text-anchor="start" x="1551" y="-414" font-family="Helvetica,sans-Serif" font-size="10.00">userver/storages/postgres</text>
<text text-anchor="middle" x="1614.5" y="-403" font-family="Helvetica,sans-Serif" font-size="10.00">/io/uuid.hpp</text>
</a>
</g>
</g>
<!-- Node1&#45;&gt;Node35 -->
<g id="edge61_Node000001_Node000035" class="edge">
<title>Node1&#45;&gt;Node35</title>
<g id="a_edge61_Node000001_Node000035"><a xlink:title=" ">
<path fill="none" stroke="#63b8ff" d="M1603.16,-589.72C1617.9,-582.31 1631.85,-572.06 1640.5,-558 1662.86,-521.66 1650.63,-503.45 1640.5,-462 1637.34,-449.07 1630.2,-435.77 1624.2,-426.14"/>
<polygon fill="#63b8ff" stroke="#63b8ff" points="1601.54,-586.61 1593.92,-593.98 1604.47,-592.97 1601.54,-586.61"/>
</a>
</g>
</g>
<!-- Node5 -->
<g id="Node000005" class="node">
<title>Node5</title>
<g id="a_Node000005"><a xlink:href="../../de/d7f/supported__types_8hpp_source.html" target="_top" xlink:title=" ">
<polygon fill="white" stroke="#666666" points="1164,-360 1021,-360 1021,-330 1164,-330 1164,-360"/>
<text text-anchor="start" x="1029" y="-348" font-family="Helvetica,sans-Serif" font-size="10.00">userver/storages/postgres</text>
<text text-anchor="middle" x="1092.5" y="-337" font-family="Helvetica,sans-Serif" font-size="10.00">/io/supported_types.hpp</text>
</a>
</g>
</g>
<!-- Node4&#45;&gt;Node5 -->
<g id="edge4_Node000004_Node000005" class="edge">
<title>Node4&#45;&gt;Node5</title>
<g id="a_edge4_Node000004_Node000005"><a xlink:title=" ">
<path fill="none" stroke="#63b8ff" d="M1693.64,-395.83C1496.81,-370.9 1275.51,-356.27 1164.19,-349.84"/>
<polygon fill="#63b8ff" stroke="#63b8ff" points="1693.23,-399.3 1703.59,-397.1 1694.11,-392.36 1693.23,-399.3"/>
</a>
</g>
</g>
<!-- Node6 -->
<g id="Node000006" class="node">
<title>Node6</title>
<g id="a_Node000006"><a xlink:href="../../d2/d3f/query__parameters_8hpp_source.html" target="_top" xlink:title=" ">
<polygon fill="white" stroke="#666666" points="835,-294 674,-294 674,-264 835,-264 835,-294"/>
<text text-anchor="start" x="682" y="-282" font-family="Helvetica,sans-Serif" font-size="10.00">userver/storages/postgres</text>
<text text-anchor="middle" x="754.5" y="-271" font-family="Helvetica,sans-Serif" font-size="10.00">/detail/query_parameters.hpp</text>
</a>
</g>
</g>
<!-- Node5&#45;&gt;Node6 -->
<g id="edge5_Node000005_Node000006" class="edge">
<title>Node5&#45;&gt;Node6</title>
<g id="a_edge5_Node000005_Node000006"><a xlink:title=" ">
<path fill="none" stroke="#63b8ff" d="M1010.67,-328.51C955.21,-318 882.49,-304.24 828.71,-294.05"/>
<polygon fill="#63b8ff" stroke="#63b8ff" points="1010.34,-332.01 1020.82,-330.43 1011.64,-325.13 1010.34,-332.01"/>
</a>
</g>
</g>
<!-- Node14 -->
<g id="Node000014" class="node">
<title>Node14</title>
<g id="a_Node000014"><a xlink:href="../../de/d1d/result__set_8hpp.html" target="_top" xlink:title="Result accessors.">
<polygon fill="white" stroke="#666666" points="1164,-294 1021,-294 1021,-264 1164,-264 1164,-294"/>
<text text-anchor="start" x="1029" y="-282" font-family="Helvetica,sans-Serif" font-size="10.00">userver/storages/postgres</text>
<text text-anchor="middle" x="1092.5" y="-271" font-family="Helvetica,sans-Serif" font-size="10.00">/result_set.hpp</text>
</a>
</g>
</g>
<!-- Node5&#45;&gt;Node14 -->
<g id="edge18_Node000005_Node000014" class="edge">
<title>Node5&#45;&gt;Node14</title>
<g id="a_edge18_Node000005_Node000014"><a xlink:title=" ">
<path fill="none" stroke="#63b8ff" d="M1092.5,-319.54C1092.5,-310.96 1092.5,-301.61 1092.5,-294.16"/>
<polygon fill="#63b8ff" stroke="#63b8ff" points="1089,-319.8 1092.5,-329.8 1096,-319.8 1089,-319.8"/>
</a>
</g>
</g>
<!-- Node7 -->
<g id="Node000007" class="node">
<title>Node7</title>
<g id="a_Node000007"><a xlink:href="../../d4/dd3/non__transaction_8hpp_source.html" target="_top" xlink:title=" ">
<polygon fill="white" stroke="#666666" points="729,-162 580,-162 580,-132 729,-132 729,-162"/>
<text text-anchor="start" x="588" y="-150" font-family="Helvetica,sans-Serif" font-size="10.00">userver/storages/postgres</text>
<text text-anchor="middle" x="654.5" y="-139" font-family="Helvetica,sans-Serif" font-size="10.00">/detail/non_transaction.hpp</text>
</a>
</g>
</g>
<!-- Node6&#45;&gt;Node7 -->
<g id="edge6_Node000006_Node000007" class="edge">
<title>Node6&#45;&gt;Node7</title>
<g id="a_edge6_Node000006_Node000007"><a xlink:title=" ">
<path fill="none" stroke="#63b8ff" d="M664.03,-263.52C624.82,-255.22 585.2,-243.36 573.5,-228 565.42,-217.39 567,-209.64 573.5,-198 582.6,-181.69 599.45,-170.04 615.43,-162.11"/>
<polygon fill="#63b8ff" stroke="#63b8ff" points="663.47,-266.97 673.97,-265.55 664.88,-260.12 663.47,-266.97"/>
</a>
</g>
</g>
<!-- Node11 -->
<g id="Node000011" class="node">
<title>Node11</title>
<g id="a_Node000011"><a xlink:href="../../db/d6e/parameter__store_8hpp.html" target="_top" xlink:title="Class for dynamic PostgreSQL parameter list construction.">
<polygon fill="white" stroke="#666666" points="726,-228 583,-228 583,-198 726,-198 726,-228"/>
<text text-anchor="start" x="591" y="-216" font-family="Helvetica,sans-Serif" font-size="10.00">userver/storages/postgres</text>
<text text-anchor="middle" x="654.5" y="-205" font-family="Helvetica,sans-Serif" font-size="10.00">/parameter_store.hpp</text>
</a>
</g>
</g>
<!-- Node6&#45;&gt;Node11 -->
<g id="edge10_Node000006_Node000011" class="edge">
<title>Node6&#45;&gt;Node11</title>
<g id="a_edge10_Node000006_Node000011"><a xlink:title=" ">
<path fill="none" stroke="#63b8ff" d="M723.72,-258.3C708.5,-248.56 690.47,-237.02 676.63,-228.16"/>
<polygon fill="#63b8ff" stroke="#63b8ff" points="722,-261.35 732.31,-263.8 725.77,-255.46 722,-261.35"/>
</a>
</g>
</g>
<!-- Node12 -->
<g id="Node000012" class="node">
<title>Node12</title>
<g id="a_Node000012"><a xlink:href="../../da/deb/postgresql_2include_2userver_2storages_2postgres_2transaction_8hpp.html" target="_top" xlink:title="Transactions.">
<polygon fill="white" stroke="#666666" points="890,-162 747,-162 747,-132 890,-132 890,-162"/>
<text text-anchor="start" x="755" y="-150" font-family="Helvetica,sans-Serif" font-size="10.00">userver/storages/postgres</text>
<text text-anchor="middle" x="818.5" y="-139" font-family="Helvetica,sans-Serif" font-size="10.00">/transaction.hpp</text>
</a>
</g>
</g>
<!-- Node6&#45;&gt;Node12 -->
<g id="edge17_Node000006_Node000012" class="edge">
<title>Node6&#45;&gt;Node12</title>
<g id="a_edge17_Node000006_Node000012"><a xlink:title=" ">
<path fill="none" stroke="#63b8ff" d="M757.02,-254.02C759.5,-237.53 764.31,-215.53 773.5,-198 780.66,-184.35 792.4,-171.48 802.09,-162.22"/>
<polygon fill="#63b8ff" stroke="#63b8ff" points="753.55,-253.59 755.71,-263.96 760.49,-254.51 753.55,-253.59"/>
</a>
</g>
</g>
<!-- Node13 -->
<g id="Node000013" class="node">
<title>Node13</title>
<g id="a_Node000013"><a xlink:href="../../d2/de3/portal_8hpp_source.html" target="_top" xlink:title=" ">
<polygon fill="white" stroke="#666666" points="926,-228 783,-228 783,-198 926,-198 926,-228"/>
<text text-anchor="start" x="791" y="-216" font-family="Helvetica,sans-Serif" font-size="10.00">userver/storages/postgres</text>
<text text-anchor="middle" x="854.5" y="-205" font-family="Helvetica,sans-Serif" font-size="10.00">/portal.hpp</text>
</a>
</g>
</g>
<!-- Node6&#45;&gt;Node13 -->
<g id="edge15_Node000006_Node000013" class="edge">
<title>Node6&#45;&gt;Node13</title>
<g id="a_edge15_Node000006_Node000013"><a xlink:title=" ">
<path fill="none" stroke="#63b8ff" d="M785.28,-258.3C800.5,-248.56 818.53,-237.02 832.37,-228.16"/>
<polygon fill="#63b8ff" stroke="#63b8ff" points="783.23,-255.46 776.69,-263.8 787,-261.35 783.23,-255.46"/>
</a>
</g>
</g>
<!-- Node8 -->
<g id="Node000008" class="node">
<title>Node8</title>
<g id="a_Node000008"><a xlink:href="../../de/dd3/postgresql_2include_2userver_2storages_2postgres_2cluster_8hpp.html" target="_top" xlink:title="Interface for executing queries on a cluster of PostgreSQL servers.">
<polygon fill="white" stroke="#666666" points="758,-96 615,-96 615,-66 758,-66 758,-96"/>
<text text-anchor="start" x="623" y="-84" font-family="Helvetica,sans-Serif" font-size="10.00">userver/storages/postgres</text>
<text text-anchor="middle" x="686.5" y="-73" font-family="Helvetica,sans-Serif" font-size="10.00">/cluster.hpp</text>
</a>
</g>
</g>
<!-- Node7&#45;&gt;Node8 -->
<g id="edge7_Node000007_Node000008" class="edge">
<title>Node7&#45;&gt;Node8</title>
<g id="a_edge7_Node000007_Node000008"><a xlink:title=" ">
<path fill="none" stroke="#63b8ff" d="M666.16,-122.68C670.6,-113.79 675.53,-103.95 679.42,-96.16"/>
<polygon fill="#63b8ff" stroke="#63b8ff" points="662.94,-121.29 661.6,-131.8 669.2,-124.42 662.94,-121.29"/>
</a>
</g>
</g>
<!-- Node9 -->
<g id="Node000009" class="node">
<title>Node9</title>
<g id="a_Node000009"><a xlink:href="../../dc/df7/base__postgres__cache_8hpp.html" target="_top" xlink:title="Caching component for PostgreSQL. See Caching Component for PostgreSQL.">
<polygon fill="white" stroke="#666666" points="653,-30 534,-30 534,0 653,0 653,-30"/>
<text text-anchor="start" x="542" y="-18" font-family="Helvetica,sans-Serif" font-size="10.00">userver/cache/base</text>
<text text-anchor="middle" x="593.5" y="-7" font-family="Helvetica,sans-Serif" font-size="10.00">_postgres_cache.hpp</text>
</a>
</g>
</g>
<!-- Node8&#45;&gt;Node9 -->
<g id="edge8_Node000008_Node000009" class="edge">
<title>Node8&#45;&gt;Node9</title>
<g id="a_edge8_Node000008_Node000009"><a xlink:title=" ">
<path fill="none" stroke="#63b8ff" d="M657.48,-60.03C643.41,-50.34 626.83,-38.94 614.08,-30.16"/>
<polygon fill="#63b8ff" stroke="#63b8ff" points="655.64,-63.01 665.86,-65.8 659.61,-57.24 655.64,-63.01"/>
</a>
</g>
</g>
<!-- Node10 -->
<g id="Node000010" class="node">
<title>Node10</title>
<g id="a_Node000010"><a xlink:href="../../df/d02/postgres_8hpp.html" target="_top" xlink:title=" ">
<polygon fill="white" stroke="#666666" points="890,-30 747,-30 747,0 890,0 890,-30"/>
<text text-anchor="start" x="755" y="-18" font-family="Helvetica,sans-Serif" font-size="10.00">userver/storages/postgres</text>
<text text-anchor="middle" x="818.5" y="-7" font-family="Helvetica,sans-Serif" font-size="10.00">/postgres.hpp</text>
</a>
</g>
</g>
<!-- Node8&#45;&gt;Node10 -->
<g id="edge9_Node000008_Node000010" class="edge">
<title>Node8&#45;&gt;Node10</title>
<g id="a_edge9_Node000008_Node000010"><a xlink:title=" ">
<path fill="none" stroke="#63b8ff" d="M724.63,-61.51C745.34,-51.47 770.53,-39.26 789.6,-30.01"/>
<polygon fill="#63b8ff" stroke="#63b8ff" points="722.94,-58.44 715.47,-65.95 725.99,-64.74 722.94,-58.44"/>
</a>
</g>
</g>
<!-- Node11&#45;&gt;Node7 -->
<g id="edge11_Node000011_Node000007" class="edge">
<title>Node11&#45;&gt;Node7</title>
<g id="a_edge11_Node000011_Node000007"><a xlink:title=" ">
<path fill="none" stroke="#63b8ff" d="M654.5,-187.54C654.5,-178.96 654.5,-169.61 654.5,-162.16"/>
<polygon fill="#63b8ff" stroke="#63b8ff" points="651,-187.8 654.5,-197.8 658,-187.8 651,-187.8"/>
</a>
</g>
</g>
<!-- Node11&#45;&gt;Node12 -->
<g id="edge12_Node000011_Node000012" class="edge">
<title>Node11&#45;&gt;Node12</title>
<g id="a_edge12_Node000011_Node000012"><a xlink:title=" ">
<path fill="none" stroke="#63b8ff" d="M700.14,-194.19C726.19,-184.02 758.37,-171.47 782.59,-162.01"/>
<polygon fill="#63b8ff" stroke="#63b8ff" points="698.53,-191.06 690.49,-197.95 701.08,-197.58 698.53,-191.06"/>
</a>
</g>
</g>
<!-- Node12&#45;&gt;Node8 -->
<g id="edge13_Node000012_Node000008" class="edge">
<title>Node12&#45;&gt;Node8</title>
<g id="a_edge13_Node000012_Node000008"><a xlink:title=" ">
<path fill="none" stroke="#63b8ff" d="M780.37,-127.51C759.66,-117.47 734.47,-105.26 715.4,-96.01"/>
<polygon fill="#63b8ff" stroke="#63b8ff" points="779.01,-130.74 789.53,-131.95 782.06,-124.44 779.01,-130.74"/>
</a>
</g>
</g>
<!-- Node12&#45;&gt;Node10 -->
<g id="edge14_Node000012_Node000010" class="edge">
<title>Node12&#45;&gt;Node10</title>
<g id="a_edge14_Node000012_Node000010"><a xlink:title=" ">
<path fill="none" stroke="#63b8ff" d="M818.5,-121.68C818.5,-94.7 818.5,-52.11 818.5,-30.14"/>
<polygon fill="#63b8ff" stroke="#63b8ff" points="815,-121.84 818.5,-131.84 822,-121.84 815,-121.84"/>
</a>
</g>
</g>
<!-- Node13&#45;&gt;Node12 -->
<g id="edge16_Node000013_Node000012" class="edge">
<title>Node13&#45;&gt;Node12</title>
<g id="a_edge16_Node000013_Node000012"><a xlink:title=" ">
<path fill="none" stroke="#63b8ff" d="M841.54,-188.96C836.5,-180 830.89,-170.03 826.47,-162.16"/>
<polygon fill="#63b8ff" stroke="#63b8ff" points="838.56,-190.8 846.51,-197.8 844.66,-187.36 838.56,-190.8"/>
</a>
</g>
</g>
<!-- Node14&#45;&gt;Node7 -->
<g id="edge19_Node000014_Node000007" class="edge">
<title>Node14&#45;&gt;Node7</title>
<g id="a_edge19_Node000014_Node000007"><a xlink:title=" ">
<path fill="none" stroke="#63b8ff" d="M1037.75,-260.5C1015.45,-252.22 989.92,-241.23 968.5,-228 951.35,-217.41 952.65,-206.76 934.5,-198 929.83,-195.75 810.7,-174.92 729.36,-160.86"/>
<polygon fill="#63b8ff" stroke="#63b8ff" points="1036.83,-263.88 1047.42,-263.99 1039.21,-257.3 1036.83,-263.88"/>
</a>
</g>
</g>
<!-- Node14&#45;&gt;Node10 -->
<g id="edge24_Node000014_Node000010" class="edge">
<title>Node14&#45;&gt;Node10</title>
<g id="a_edge24_Node000014_Node000010"><a xlink:title=" ">
<path fill="none" stroke="#63b8ff" d="M1149.25,-259.96C1166.7,-252.27 1184.88,-241.81 1198.5,-228 1229.88,-196.17 1255.47,-167.65 1228.5,-132 1187.78,-78.16 996.75,-42.13 890.41,-25.88"/>
<polygon fill="#63b8ff" stroke="#63b8ff" points="1147.55,-256.88 1139.66,-263.95 1150.24,-263.34 1147.55,-256.88"/>
</a>
</g>
</g>
<!-- Node14&#45;&gt;Node12 -->
<g id="edge25_Node000014_Node000012" class="edge">
<title>Node14&#45;&gt;Node12</title>
<g id="a_edge25_Node000014_Node000012"><a xlink:title=" ">
<path fill="none" stroke="#63b8ff" d="M1060.03,-258.53C1045.12,-249.44 1027.29,-238.37 1011.5,-228 992.02,-215.21 989.32,-208.46 968.5,-198 938.21,-182.78 902.23,-170.61 873.11,-162.09"/>
<polygon fill="#63b8ff" stroke="#63b8ff" points="1058.52,-261.71 1068.89,-263.9 1062.15,-255.72 1058.52,-261.71"/>
</a>
</g>
</g>
<!-- Node14&#45;&gt;Node13 -->
<g id="edge23_Node000014_Node000013" class="edge">
<title>Node14&#45;&gt;Node13</title>
<g id="a_edge23_Node000014_Node000013"><a xlink:title=" ">
<path fill="none" stroke="#63b8ff" d="M1030.22,-261.25C991.77,-250.91 943.01,-237.8 906.61,-228.01"/>
<polygon fill="#63b8ff" stroke="#63b8ff" points="1029.7,-264.74 1040.27,-263.95 1031.52,-257.98 1029.7,-264.74"/>
</a>
</g>
</g>
<!-- Node15 -->
<g id="Node000015" class="node">
<title>Node15</title>
<g id="a_Node000015"><a xlink:href="../../d7/d52/typed__rows_8hpp_source.html" target="_top" xlink:title=" ">
<polygon fill="white" stroke="#666666" points="1164,-228 1021,-228 1021,-198 1164,-198 1164,-228"/>
<text text-anchor="start" x="1029" y="-216" font-family="Helvetica,sans-Serif" font-size="10.00">userver/storages/postgres</text>
<text text-anchor="middle" x="1092.5" y="-205" font-family="Helvetica,sans-Serif" font-size="10.00">/detail/typed_rows.hpp</text>
</a>
</g>
</g>
<!-- Node14&#45;&gt;Node15 -->
<g id="edge20_Node000014_Node000015" class="edge">
<title>Node14&#45;&gt;Node15</title>
<g id="a_edge20_Node000014_Node000015"><a xlink:title=" ">
<path fill="none" stroke="#63b8ff" d="M1092.5,-253.54C1092.5,-244.96 1092.5,-235.61 1092.5,-228.16"/>
<polygon fill="#63b8ff" stroke="#63b8ff" points="1089,-253.8 1092.5,-263.8 1096,-253.8 1089,-253.8"/>
</a>
</g>
</g>
<!-- Node16 -->
<g id="Node000016" class="node">
<title>Node16</title>
<g id="a_Node000016"><a xlink:href="../../d1/dee/typed__result__set_8hpp.html" target="_top" xlink:title="Typed PostgreSQL results.">
<polygon fill="white" stroke="#666666" points="1220,-162 1077,-162 1077,-132 1220,-132 1220,-162"/>
<text text-anchor="start" x="1085" y="-150" font-family="Helvetica,sans-Serif" font-size="10.00">userver/storages/postgres</text>
<text text-anchor="middle" x="1148.5" y="-139" font-family="Helvetica,sans-Serif" font-size="10.00">/typed_result_set.hpp</text>
</a>
</g>
</g>
<!-- Node14&#45;&gt;Node16 -->
<g id="edge26_Node000014_Node000016" class="edge">
<title>Node14&#45;&gt;Node16</title>
<g id="a_edge26_Node000014_Node000016"><a xlink:title=" ">
<path fill="none" stroke="#63b8ff" d="M1131.46,-258.89C1143.88,-251.28 1156.22,-241.14 1163.5,-228 1175.38,-206.57 1161.12,-178.57 1152.64,-162.01"/>
<polygon fill="#63b8ff" stroke="#63b8ff" points="1129.45,-256.01 1122.48,-263.99 1132.9,-262.1 1129.45,-256.01"/>
</a>
</g>
</g>
<!-- Node15&#45;&gt;Node16 -->
<g id="edge21_Node000015_Node000016" class="edge">
<title>Node15&#45;&gt;Node16</title>
<g id="a_edge21_Node000015_Node000016"><a xlink:title=" ">
<path fill="none" stroke="#63b8ff" d="M1111.67,-190.09C1119.76,-180.85 1128.94,-170.36 1136.11,-162.16"/>
<polygon fill="#63b8ff" stroke="#63b8ff" points="1108.88,-187.97 1104.93,-197.8 1114.15,-192.58 1108.88,-187.97"/>
</a>
</g>
</g>
<!-- Node16&#45;&gt;Node14 -->
<g id="edge22_Node000016_Node000014" class="edge">
<title>Node16&#45;&gt;Node14</title>
<g id="a_edge22_Node000016_Node000014"><a xlink:title=" ">
<path fill="none" stroke="#63b8ff" d="M1171.49,-170.08C1182.77,-186.73 1191.62,-209.75 1181.5,-228 1172.45,-244.33 1155.59,-256.03 1138.89,-263.99"/>
<polygon fill="#63b8ff" stroke="#63b8ff" points="1174.25,-167.92 1165.46,-162.01 1168.64,-172.12 1174.25,-167.92"/>
</a>
</g>
</g>
<!-- Node17&#45;&gt;Node5 -->
<g id="edge29_Node000017_Node000005" class="edge">
<title>Node17&#45;&gt;Node5</title>
<g id="a_edge29_Node000017_Node000005"><a xlink:title=" ">
<path fill="none" stroke="#63b8ff" d="M514.38,-402.06C644.64,-389.43 896.94,-364.96 1020.62,-352.97"/>
<polygon fill="#63b8ff" stroke="#63b8ff" points="513.69,-398.61 504.07,-403.06 514.36,-405.58 513.69,-398.61"/>
</a>
</g>
</g>
<!-- Node17&#45;&gt;Node9 -->
<g id="edge28_Node000017_Node000009" class="edge">
<title>Node17&#45;&gt;Node9</title>
<g id="a_edge28_Node000017_Node000009"><a xlink:title=" ">
<path fill="none" stroke="#63b8ff" d="M445.03,-386.45C457.41,-360.96 474.5,-318.74 474.5,-280 474.5,-280 474.5,-280 474.5,-146 474.5,-91.84 531.39,-50.43 566.5,-30.03"/>
<polygon fill="#63b8ff" stroke="#63b8ff" points="441.76,-385.17 440.4,-395.67 448.01,-388.31 441.76,-385.17"/>
</a>
</g>
</g>
<!-- Node19&#45;&gt;Node5 -->
<g id="edge32_Node000019_Node000005" class="edge">
<title>Node19&#45;&gt;Node5</title>
<g id="a_edge32_Node000019_Node000005"><a xlink:title=" ">
<path fill="none" stroke="#63b8ff" d="M1272.41,-457.72C1253.27,-448.99 1230.76,-437.86 1211.5,-426 1192.88,-414.53 1190.46,-408.48 1172.5,-396 1154.07,-383.2 1132.46,-369.78 1116.34,-360.07"/>
<polygon fill="#63b8ff" stroke="#63b8ff" points="1271.23,-461.03 1281.79,-461.93 1274.1,-454.64 1271.23,-461.03"/>
</a>
</g>
</g>
<!-- Node20&#45;&gt;Node5 -->
<g id="edge34_Node000020_Node000005" class="edge">
<title>Node20&#45;&gt;Node5</title>
<g id="a_edge34_Node000020_Node000005"><a xlink:title=" ">
<path fill="none" stroke="#63b8ff" d="M1854.61,-395.85C1595.26,-365.28 1297.94,-352.61 1164.1,-348.11"/>
<polygon fill="#63b8ff" stroke="#63b8ff" points="1854.25,-399.33 1864.6,-397.04 1855.08,-392.38 1854.25,-399.33"/>
</a>
</g>
</g>
<!-- Node22 -->
<g id="Node000022" class="node">
<title>Node22</title>
<g id="a_Node000022"><a xlink:href="../../d4/d90/array__types_8hpp.html" target="_top" xlink:title="I/O support for arrays (std::array, std::set, std::unordered_set, std::vector)">
<polygon fill="white" stroke="#666666" points="776,-426 633,-426 633,-396 776,-396 776,-426"/>
<text text-anchor="start" x="641" y="-414" font-family="Helvetica,sans-Serif" font-size="10.00">userver/storages/postgres</text>
<text text-anchor="middle" x="704.5" y="-403" font-family="Helvetica,sans-Serif" font-size="10.00">/io/array_types.hpp</text>
</a>
</g>
</g>
<!-- Node21&#45;&gt;Node22 -->
<g id="edge36_Node000021_Node000022" class="edge">
<title>Node21&#45;&gt;Node22</title>
<g id="a_edge36_Node000021_Node000022"><a xlink:title=" ">
<path fill="none" stroke="#63b8ff" d="M711.64,-535.99C649.56,-529.52 571.58,-516.66 551.5,-492 523.11,-457.14 580.51,-435.66 632.92,-423.86"/>
<polygon fill="#63b8ff" stroke="#63b8ff" points="711.55,-539.5 721.85,-537.01 712.25,-532.53 711.55,-539.5"/>
</a>
</g>
</g>
<!-- Node23 -->
<g id="Node000023" class="node">
<title>Node23</title>
<g id="a_Node000023"><a xlink:href="../../d4/dda/composite__types_8hpp.html" target="_top" xlink:title="Composite types I/O support.">
<polygon fill="white" stroke="#666666" points="865,-492 722,-492 722,-462 865,-462 865,-492"/>
<text text-anchor="start" x="730" y="-480" font-family="Helvetica,sans-Serif" font-size="10.00">userver/storages/postgres</text>
<text text-anchor="middle" x="793.5" y="-469" font-family="Helvetica,sans-Serif" font-size="10.00">/io/composite_types.hpp</text>
</a>
</g>
</g>
<!-- Node21&#45;&gt;Node23 -->
<g id="edge38_Node000021_Node000023" class="edge">
<title>Node21&#45;&gt;Node23</title>
<g id="a_edge38_Node000021_Node000023"><a xlink:title=" ">
<path fill="none" stroke="#63b8ff" d="M793.5,-517.54C793.5,-508.96 793.5,-499.61 793.5,-492.16"/>
<polygon fill="#63b8ff" stroke="#63b8ff" points="790,-517.8 793.5,-527.8 797,-517.8 790,-517.8"/>
</a>
</g>
</g>
<!-- Node24 -->
<g id="Node000024" class="node">
<title>Node24</title>
<g id="a_Node000024"><a xlink:href="../../da/d26/geometry__types_8hpp.html" target="_top" xlink:title="Geometry I/O support.">
<polygon fill="white" stroke="#666666" points="704,-492 561,-492 561,-462 704,-462 704,-492"/>
<text text-anchor="start" x="569" y="-480" font-family="Helvetica,sans-Serif" font-size="10.00">userver/storages/postgres</text>
<text text-anchor="middle" x="632.5" y="-469" font-family="Helvetica,sans-Serif" font-size="10.00">/io/geometry_types.hpp</text>
</a>
</g>
</g>
<!-- Node21&#45;&gt;Node24 -->
<g id="edge40_Node000021_Node000024" class="edge">
<title>Node21&#45;&gt;Node24</title>
<g id="a_edge40_Node000021_Node000024"><a xlink:title=" ">
<path fill="none" stroke="#63b8ff" d="M748.69,-524.19C723.13,-514.02 691.53,-501.47 667.75,-492.01"/>
<polygon fill="#63b8ff" stroke="#63b8ff" points="747.58,-527.51 758.17,-527.95 750.17,-521.01 747.58,-527.51"/>
</a>
</g>
</g>
<!-- Node25 -->
<g id="Node000025" class="node">
<title>Node25</title>
<g id="a_Node000025"><a xlink:href="../../dd/d50/json__types_8hpp.html" target="_top" xlink:title="JSON I/O support.">
<polygon fill="white" stroke="#666666" points="1026,-492 883,-492 883,-462 1026,-462 1026,-492"/>
<text text-anchor="start" x="891" y="-480" font-family="Helvetica,sans-Serif" font-size="10.00">userver/storages/postgres</text>
<text text-anchor="middle" x="954.5" y="-469" font-family="Helvetica,sans-Serif" font-size="10.00">/io/json_types.hpp</text>
</a>
</g>
</g>
<!-- Node21&#45;&gt;Node25 -->
<g id="edge41_Node000021_Node000025" class="edge">
<title>Node21&#45;&gt;Node25</title>
<g id="a_edge41_Node000021_Node000025"><a xlink:title=" ">
<path fill="none" stroke="#63b8ff" d="M838.31,-524.19C863.87,-514.02 895.47,-501.47 919.25,-492.01"/>
<polygon fill="#63b8ff" stroke="#63b8ff" points="836.83,-521.01 828.83,-527.95 839.42,-527.51 836.83,-521.01"/>
</a>
</g>
</g>
<!-- Node26 -->
<g id="Node000026" class="node">
<title>Node26</title>
<g id="a_Node000026"><a xlink:href="../../d5/d60/range__types_8hpp.html" target="_top" xlink:title="Ranges I/O support.">
<polygon fill="white" stroke="#666666" points="1187,-492 1044,-492 1044,-462 1187,-462 1187,-492"/>
<text text-anchor="start" x="1052" y="-480" font-family="Helvetica,sans-Serif" font-size="10.00">userver/storages/postgres</text>
<text text-anchor="middle" x="1115.5" y="-469" font-family="Helvetica,sans-Serif" font-size="10.00">/io/range_types.hpp</text>
</a>
</g>
</g>
<!-- Node21&#45;&gt;Node26 -->
<g id="edge43_Node000021_Node000026" class="edge">
<title>Node21&#45;&gt;Node26</title>
<g id="a_edge43_Node000021_Node000026"><a xlink:title=" ">
<path fill="none" stroke="#63b8ff" d="M874.13,-525.98C926.68,-515.53 994.6,-502.03 1045,-492.01"/>
<polygon fill="#63b8ff" stroke="#63b8ff" points="873.29,-522.57 864.16,-527.95 874.65,-529.44 873.29,-522.57"/>
</a>
</g>
</g>
<!-- Node21&#45;&gt;Node27 -->
<g id="edge45_Node000021_Node000027" class="edge">
<title>Node21&#45;&gt;Node27</title>
<g id="a_edge45_Node000021_Node000027"><a xlink:title=" ">
<path fill="none" stroke="#63b8ff" d="M711.53,-527.47C649.06,-516.39 563.88,-501.29 504.12,-490.7"/>
<polygon fill="#63b8ff" stroke="#63b8ff" points="711.29,-530.98 721.75,-529.28 712.51,-524.09 711.29,-530.98"/>
</a>
</g>
</g>
<!-- Node22&#45;&gt;Node5 -->
<g id="edge37_Node000022_Node000005" class="edge">
<title>Node22&#45;&gt;Node5</title>
<g id="a_edge37_Node000022_Node000005"><a xlink:title=" ">
<path fill="none" stroke="#63b8ff" d="M786.15,-396.53C855.66,-385.07 954.53,-368.76 1020.97,-357.8"/>
<polygon fill="#63b8ff" stroke="#63b8ff" points="785.41,-393.11 776.12,-398.19 786.55,-400.01 785.41,-393.11"/>
</a>
</g>
</g>
<!-- Node23&#45;&gt;Node5 -->
<g id="edge39_Node000023_Node000005" class="edge">
<title>Node23&#45;&gt;Node5</title>
<g id="a_edge39_Node000023_Node000005"><a xlink:title=" ">
<path fill="none" stroke="#63b8ff" d="M834.76,-457.72C871.62,-441.42 927.1,-416.98 975.5,-396 1003.77,-383.75 1035.98,-370 1059.43,-360.03"/>
<polygon fill="#63b8ff" stroke="#63b8ff" points="833.08,-454.64 825.35,-461.88 835.91,-461.04 833.08,-454.64"/>
</a>
</g>
</g>
<!-- Node25&#45;&gt;Node5 -->
<g id="edge42_Node000025_Node000005" class="edge">
<title>Node25&#45;&gt;Node5</title>
<g id="a_edge42_Node000025_Node000005"><a xlink:title=" ">
<path fill="none" stroke="#63b8ff" d="M964.58,-452.39C972.84,-435.16 985.86,-412.1 1002.5,-396 1018.3,-380.72 1039.7,-368.58 1057.66,-360.09"/>
<polygon fill="#63b8ff" stroke="#63b8ff" points="961.27,-451.22 960.28,-461.77 967.63,-454.14 961.27,-451.22"/>
</a>
</g>
</g>
<!-- Node26&#45;&gt;Node5 -->
<g id="edge44_Node000026_Node000005" class="edge">
<title>Node26&#45;&gt;Node5</title>
<g id="a_edge44_Node000026_Node000005"><a xlink:title=" ">
<path fill="none" stroke="#63b8ff" d="M1049.46,-457.71C1034.47,-450.34 1020.38,-440.11 1011.5,-426 1004.4,-414.71 1005,-407.64 1011.5,-396 1020.6,-379.69 1037.45,-368.04 1053.43,-360.11"/>
<polygon fill="#63b8ff" stroke="#63b8ff" points="1048.31,-461.03 1058.86,-461.93 1051.18,-454.64 1048.31,-461.03"/>
</a>
</g>
</g>
<!-- Node27&#45;&gt;Node17 -->
<g id="edge46_Node000027_Node000017" class="edge">
<title>Node27&#45;&gt;Node17</title>
<g id="a_edge46_Node000027_Node000017"><a xlink:title=" ">
<path fill="none" stroke="#63b8ff" d="M432.5,-451.54C432.5,-442.96 432.5,-433.61 432.5,-426.16"/>
<polygon fill="#63b8ff" stroke="#63b8ff" points="429,-451.8 432.5,-461.8 436,-451.8 429,-451.8"/>
</a>
</g>
</g>
<!-- Node28&#45;&gt;Node17 -->
<g id="edge48_Node000028_Node000017" class="edge">
<title>Node28&#45;&gt;Node17</title>
<g id="a_edge48_Node000028_Node000017"><a xlink:title=" ">
<path fill="none" stroke="#63b8ff" d="M316.31,-458.19C341.87,-448.02 373.47,-435.47 397.25,-426.01"/>
<polygon fill="#63b8ff" stroke="#63b8ff" points="314.83,-455.01 306.83,-461.95 317.42,-461.51 314.83,-455.01"/>
</a>
</g>
</g>
<!-- Node31&#45;&gt;Node3 -->
<g id="edge52_Node000031_Node000003" class="edge">
<title>Node31&#45;&gt;Node3</title>
<g id="a_edge52_Node000031_Node000003"><a xlink:title=" ">
<path fill="none" stroke="#63b8ff" d="M1456.08,-519.24C1461.86,-510.21 1468.34,-500.11 1473.43,-492.16"/>
<polygon fill="#63b8ff" stroke="#63b8ff" points="1453.05,-517.49 1450.6,-527.8 1458.94,-521.26 1453.05,-517.49"/>
</a>
</g>
</g>
<!-- Node31&#45;&gt;Node19 -->
<g id="edge53_Node000031_Node000019" class="edge">
<title>Node31&#45;&gt;Node19</title>
<g id="a_edge53_Node000031_Node000019"><a xlink:title=" ">
<path fill="none" stroke="#63b8ff" d="M1404.84,-523.38C1385.12,-513.36 1361.21,-501.22 1343.09,-492.01"/>
<polygon fill="#63b8ff" stroke="#63b8ff" points="1403.35,-526.55 1413.85,-527.95 1406.52,-520.31 1403.35,-526.55"/>
</a>
</g>
</g>
<!-- Node32&#45;&gt;Node5 -->
<g id="edge55_Node000032_Node000005" class="edge">
<title>Node32&#45;&gt;Node5</title>
<g id="a_edge55_Node000032_Node000005"><a xlink:title=" ">
<path fill="none" stroke="#63b8ff" d="M1092.5,-385.54C1092.5,-376.96 1092.5,-367.61 1092.5,-360.16"/>
<polygon fill="#63b8ff" stroke="#63b8ff" points="1089,-385.8 1092.5,-395.8 1096,-385.8 1089,-385.8"/>
</a>
</g>
</g>
<!-- Node33&#45;&gt;Node5 -->
<g id="edge57_Node000033_Node000005" class="edge">
<title>Node33&#45;&gt;Node5</title>
<g id="a_edge57_Node000033_Node000005"><a xlink:title=" ">
<path fill="none" stroke="#63b8ff" d="M1238.93,-392.86C1206.81,-382.58 1166.49,-369.68 1136.29,-360.01"/>
<polygon fill="#63b8ff" stroke="#63b8ff" points="1238.02,-396.24 1248.61,-395.95 1240.15,-389.57 1238.02,-396.24"/>
</a>
</g>
</g>
<!-- Node34&#45;&gt;Node5 -->
<g id="edge59_Node000034_Node000005" class="edge">
<title>Node34&#45;&gt;Node5</title>
<g id="a_edge59_Node000034_Node000005"><a xlink:title=" ">
<path fill="none" stroke="#63b8ff" d="M1371.53,-395.47C1309.06,-384.39 1223.88,-369.29 1164.12,-358.7"/>
<polygon fill="#63b8ff" stroke="#63b8ff" points="1371.29,-398.98 1381.75,-397.28 1372.51,-392.09 1371.29,-398.98"/>
</a>
</g>
</g>
<!-- Node35&#45;&gt;Node5 -->
<g id="edge62_Node000035_Node000005" class="edge">
<title>Node35&#45;&gt;Node5</title>
<g id="a_edge62_Node000035_Node000005"><a xlink:title=" ">
<path fill="none" stroke="#63b8ff" d="M1532.75,-395.95C1396.25,-376.66 1249.33,-361.24 1164.08,-352.82"/>
<polygon fill="#63b8ff" stroke="#63b8ff" points="1532.59,-399.46 1542.98,-397.41 1533.58,-392.53 1532.59,-399.46"/>
</a>
</g>
</g>
</g>
</svg>
