<?xml version="1.0" encoding="UTF-8" standalone="no"?>
<!DOCTYPE svg PUBLIC "-//W3C//DTD SVG 1.1//EN"
 "http://www.w3.org/Graphics/SVG/1.1/DTD/svg11.dtd">
<!-- Generated by graphviz version 2.43.0 (0)
 -->
<!-- Title: userver/utils/statistics/percentile.hpp Pages: 1 -->
<svg width="534pt" height="236pt"
 viewBox="0.00 0.00 534.00 236.00" xmlns="http://www.w3.org/2000/svg" xmlns:xlink="http://www.w3.org/1999/xlink">
<g id="graph0" class="graph" transform="scale(1 1) rotate(0) translate(4 232)">
<title>userver/utils/statistics/percentile.hpp</title>
<!-- Node1 -->
<g id="Node000001" class="node">
<title>Node1</title>
<g id="a_Node000001"><a xlink:title="Class stores M buckets of type Counter and allows easy calculation of percentiles.">
<polygon fill="#999999" stroke="#666666" points="335.5,-228 210.5,-228 210.5,-198 335.5,-198 335.5,-228"/>
<text text-anchor="start" x="218.5" y="-216" font-family="Helvetica,sans-Serif" font-size="10.00">userver/utils/statistics</text>
<text text-anchor="middle" x="273" y="-205" font-family="Helvetica,sans-Serif" font-size="10.00">/percentile.hpp</text>
</a>
</g>
</g>
<!-- Node2 -->
<g id="Node000002" class="node">
<title>Node2</title>
<g id="a_Node000002"><a xlink:title=" ">
<polygon fill="#e0e0e0" stroke="#999999" points="154,-156.5 112,-156.5 112,-137.5 154,-137.5 154,-156.5"/>
<text text-anchor="middle" x="133" y="-144.5" font-family="Helvetica,sans-Serif" font-size="10.00">array</text>
</a>
</g>
</g>
<!-- Node1&#45;&gt;Node2 -->
<g id="edge1_Node000001_Node000002" class="edge">
<title>Node1&#45;&gt;Node2</title>
<g id="a_edge1_Node000001_Node000002"><a xlink:title=" ">
<path fill="none" stroke="#63b8ff" d="M242.28,-197.95C218.05,-186.88 184.54,-171.56 161.04,-160.82"/>
<polygon fill="#63b8ff" stroke="#63b8ff" points="162.18,-157.49 151.63,-156.52 159.27,-163.86 162.18,-157.49"/>
</a>
</g>
</g>
<!-- Node3 -->
<g id="Node000003" class="node">
<title>Node3</title>
<g id="a_Node000003"><a xlink:title=" ">
<polygon fill="#e0e0e0" stroke="#999999" points="56,-90.5 6,-90.5 6,-71.5 56,-71.5 56,-90.5"/>
<text text-anchor="middle" x="31" y="-78.5" font-family="Helvetica,sans-Serif" font-size="10.00">atomic</text>
</a>
</g>
</g>
<!-- Node1&#45;&gt;Node3 -->
<g id="edge2_Node000001_Node000003" class="edge">
<title>Node1&#45;&gt;Node3</title>
<g id="a_edge2_Node000001_Node000003"><a xlink:title=" ">
<path fill="none" stroke="#63b8ff" d="M252.33,-197.79C238.08,-187.9 218.75,-174.33 202,-162 184.39,-149.03 182.13,-142.59 163,-132 122.77,-109.73 108.91,-112.54 66,-96 64.59,-95.46 63.15,-94.9 61.69,-94.33"/>
<polygon fill="#63b8ff" stroke="#63b8ff" points="62.65,-90.94 52.07,-90.53 60.08,-97.45 62.65,-90.94"/>
</a>
</g>
</g>
<!-- Node4 -->
<g id="Node000004" class="node">
<title>Node4</title>
<g id="a_Node000004"><a xlink:title=" ">
<polygon fill="#e0e0e0" stroke="#999999" points="526,-156.5 476,-156.5 476,-137.5 526,-137.5 526,-156.5"/>
<text text-anchor="middle" x="501" y="-144.5" font-family="Helvetica,sans-Serif" font-size="10.00">chrono</text>
</a>
</g>
</g>
<!-- Node1&#45;&gt;Node4 -->
<g id="edge3_Node000001_Node000004" class="edge">
<title>Node1&#45;&gt;Node4</title>
<g id="a_edge3_Node000001_Node000004"><a xlink:title=" ">
<path fill="none" stroke="#63b8ff" d="M331.27,-197.96C368.82,-188.58 418.57,-175.51 462,-162 464.12,-161.34 466.3,-160.64 468.49,-159.91"/>
<polygon fill="#63b8ff" stroke="#63b8ff" points="469.7,-163.19 478.01,-156.62 467.42,-156.57 469.7,-163.19"/>
</a>
</g>
</g>
<!-- Node5 -->
<g id="Node000005" class="node">
<title>Node5</title>
<g id="a_Node000005"><a xlink:title=" ">
<polygon fill="#e0e0e0" stroke="#999999" points="468,-24.5 424,-24.5 424,-5.5 468,-5.5 468,-24.5"/>
<text text-anchor="middle" x="446" y="-12.5" font-family="Helvetica,sans-Serif" font-size="10.00">string</text>
</a>
</g>
</g>
<!-- Node1&#45;&gt;Node5 -->
<g id="edge4_Node000001_Node000005" class="edge">
<title>Node1&#45;&gt;Node5</title>
<g id="a_edge4_Node000001_Node000005"><a xlink:title=" ">
<path fill="none" stroke="#63b8ff" d="M295.95,-197.83C310.56,-188.4 329.56,-175.32 345,-162 375.47,-135.71 384.15,-129.13 407,-96 420.53,-76.39 431.91,-51.37 438.82,-34.58"/>
<polygon fill="#63b8ff" stroke="#63b8ff" points="442.24,-35.46 442.7,-24.87 435.74,-32.86 442.24,-35.46"/>
</a>
</g>
</g>
<!-- Node6 -->
<g id="Node000006" class="node">
<title>Node6</title>
<g id="a_Node000006"><a xlink:href="../../de/d11/writer_8hpp.html" target="_top" xlink:title="Class for writing metrics.">
<polygon fill="white" stroke="#666666" points="335.5,-162 210.5,-162 210.5,-132 335.5,-132 335.5,-162"/>
<text text-anchor="start" x="218.5" y="-150" font-family="Helvetica,sans-Serif" font-size="10.00">userver/utils/statistics</text>
<text text-anchor="middle" x="273" y="-139" font-family="Helvetica,sans-Serif" font-size="10.00">/writer.hpp</text>
</a>
</g>
</g>
<!-- Node1&#45;&gt;Node6 -->
<g id="edge5_Node000001_Node000006" class="edge">
<title>Node1&#45;&gt;Node6</title>
<g id="a_edge5_Node000001_Node000006"><a xlink:title=" ">
<path fill="none" stroke="#63b8ff" d="M273,-197.8C273,-190.34 273,-180.99 273,-172.41"/>
<polygon fill="#63b8ff" stroke="#63b8ff" points="276.5,-172.16 273,-162.16 269.5,-172.16 276.5,-172.16"/>
</a>
</g>
</g>
<!-- Node6&#45;&gt;Node3 -->
<g id="edge6_Node000006_Node000003" class="edge">
<title>Node6&#45;&gt;Node3</title>
<g id="a_edge6_Node000006_Node000003"><a xlink:title=" ">
<path fill="none" stroke="#63b8ff" d="M210.31,-133.31C168.92,-124.34 113.73,-111.22 66,-96 64.33,-95.47 62.62,-94.89 60.91,-94.29"/>
<polygon fill="#63b8ff" stroke="#63b8ff" points="61.77,-90.87 51.18,-90.64 59.31,-97.43 61.77,-90.87"/>
</a>
</g>
</g>
<!-- Node7 -->
<g id="Node000007" class="node">
<title>Node7</title>
<g id="a_Node000007"><a xlink:title=" ">
<polygon fill="#e0e0e0" stroke="#999999" points="309.5,-24.5 236.5,-24.5 236.5,-5.5 309.5,-5.5 309.5,-24.5"/>
<text text-anchor="middle" x="273" y="-12.5" font-family="Helvetica,sans-Serif" font-size="10.00">string_view</text>
</a>
</g>
</g>
<!-- Node6&#45;&gt;Node7 -->
<g id="edge7_Node000006_Node000007" class="edge">
<title>Node6&#45;&gt;Node7</title>
<g id="a_edge7_Node000006_Node000007"><a xlink:title=" ">
<path fill="none" stroke="#63b8ff" d="M263.67,-131.81C257.9,-122.15 251.03,-108.85 248,-96 244.94,-83.02 244.94,-78.98 248,-66 250.71,-54.5 256.5,-42.64 261.82,-33.35"/>
<polygon fill="#63b8ff" stroke="#63b8ff" points="264.86,-35.09 267.05,-24.73 258.87,-31.46 264.86,-35.09"/>
</a>
</g>
</g>
<!-- Node8 -->
<g id="Node000008" class="node">
<title>Node8</title>
<g id="a_Node000008"><a xlink:title=" ">
<polygon fill="#e0e0e0" stroke="#999999" points="402.5,-24.5 333.5,-24.5 333.5,-5.5 402.5,-5.5 402.5,-24.5"/>
<text text-anchor="middle" x="368" y="-12.5" font-family="Helvetica,sans-Serif" font-size="10.00">type_traits</text>
</a>
</g>
</g>
<!-- Node6&#45;&gt;Node8 -->
<g id="edge8_Node000006_Node000008" class="edge">
<title>Node6&#45;&gt;Node8</title>
<g id="a_edge8_Node000006_Node000008"><a xlink:title=" ">
<path fill="none" stroke="#63b8ff" d="M335.5,-134.24C356.77,-126.93 378.35,-115.11 391,-96 403.79,-76.68 391.54,-50.19 380.6,-33.08"/>
<polygon fill="#63b8ff" stroke="#63b8ff" points="383.36,-30.92 374.82,-24.65 377.59,-34.87 383.36,-30.92"/>
</a>
</g>
</g>
<!-- Node9 -->
<g id="Node000009" class="node">
<title>Node9</title>
<g id="a_Node000009"><a xlink:href="../../d1/d0e/labels_8hpp.html" target="_top" xlink:title="Owning and non owning labels representations.">
<polygon fill="white" stroke="#666666" points="381.5,-96 256.5,-96 256.5,-66 381.5,-66 381.5,-96"/>
<text text-anchor="start" x="264.5" y="-84" font-family="Helvetica,sans-Serif" font-size="10.00">userver/utils/statistics</text>
<text text-anchor="middle" x="319" y="-73" font-family="Helvetica,sans-Serif" font-size="10.00">/labels.hpp</text>
</a>
</g>
</g>
<!-- Node6&#45;&gt;Node9 -->
<g id="edge9_Node000006_Node000009" class="edge">
<title>Node6&#45;&gt;Node9</title>
<g id="a_edge9_Node000006_Node000009"><a xlink:title=" ">
<path fill="none" stroke="#63b8ff" d="M283.21,-131.8C288.99,-123.76 296.34,-113.53 302.88,-104.43"/>
<polygon fill="#63b8ff" stroke="#63b8ff" points="305.83,-106.33 308.82,-96.16 300.14,-102.24 305.83,-106.33"/>
</a>
</g>
</g>
<!-- Node10 -->
<g id="Node000010" class="node">
<title>Node10</title>
<g id="a_Node000010"><a xlink:href="../../d6/dab/rate_8hpp.html" target="_top" xlink:title=" ">
<polygon fill="white" stroke="#666666" points="199.5,-96 74.5,-96 74.5,-66 199.5,-66 199.5,-96"/>
<text text-anchor="start" x="82.5" y="-84" font-family="Helvetica,sans-Serif" font-size="10.00">userver/utils/statistics</text>
<text text-anchor="middle" x="137" y="-73" font-family="Helvetica,sans-Serif" font-size="10.00">/rate.hpp</text>
</a>
</g>
</g>
<!-- Node6&#45;&gt;Node10 -->
<g id="edge13_Node000006_Node000010" class="edge">
<title>Node6&#45;&gt;Node10</title>
<g id="a_edge13_Node000006_Node000010"><a xlink:title=" ">
<path fill="none" stroke="#63b8ff" d="M243.15,-131.95C223.4,-122.66 197.3,-110.38 175.92,-100.32"/>
<polygon fill="#63b8ff" stroke="#63b8ff" points="177.31,-97.1 166.78,-96.01 174.33,-103.44 177.31,-97.1"/>
</a>
</g>
</g>
<!-- Node9&#45;&gt;Node5 -->
<g id="edge10_Node000009_Node000005" class="edge">
<title>Node9&#45;&gt;Node5</title>
<g id="a_edge10_Node000009_Node000005"><a xlink:title=" ">
<path fill="none" stroke="#63b8ff" d="M346.87,-65.95C368.65,-54.98 398.7,-39.83 419.99,-29.11"/>
<polygon fill="#63b8ff" stroke="#63b8ff" points="421.74,-32.14 429.1,-24.52 418.59,-25.89 421.74,-32.14"/>
</a>
</g>
</g>
<!-- Node9&#45;&gt;Node7 -->
<g id="edge11_Node000009_Node000007" class="edge">
<title>Node9&#45;&gt;Node7</title>
<g id="a_edge11_Node000009_Node000007"><a xlink:title=" ">
<path fill="none" stroke="#63b8ff" d="M308.79,-65.8C301.83,-56.11 292.58,-43.24 285.23,-33.01"/>
<polygon fill="#63b8ff" stroke="#63b8ff" points="288.04,-30.92 279.36,-24.84 282.35,-35.01 288.04,-30.92"/>
</a>
</g>
</g>
<!-- Node9&#45;&gt;Node8 -->
<g id="edge12_Node000009_Node000008" class="edge">
<title>Node9&#45;&gt;Node8</title>
<g id="a_edge12_Node000009_Node000008"><a xlink:title=" ">
<path fill="none" stroke="#63b8ff" d="M329.87,-65.8C337.29,-56.11 347.14,-43.24 354.98,-33.01"/>
<polygon fill="#63b8ff" stroke="#63b8ff" points="357.93,-34.91 361.23,-24.84 352.37,-30.66 357.93,-34.91"/>
</a>
</g>
</g>
<!-- Node11 -->
<g id="Node000011" class="node">
<title>Node11</title>
<g id="a_Node000011"><a xlink:title=" ">
<polygon fill="#e0e0e0" stroke="#999999" points="50,-24.5 0,-24.5 0,-5.5 50,-5.5 50,-24.5"/>
<text text-anchor="middle" x="25" y="-12.5" font-family="Helvetica,sans-Serif" font-size="10.00">cstdint</text>
</a>
</g>
</g>
<!-- Node10&#45;&gt;Node11 -->
<g id="edge14_Node000010_Node000011" class="edge">
<title>Node10&#45;&gt;Node11</title>
<g id="a_edge14_Node000010_Node000011"><a xlink:title=" ">
<path fill="none" stroke="#63b8ff" d="M112.42,-65.95C93.47,-55.13 67.42,-40.24 48.7,-29.54"/>
<polygon fill="#63b8ff" stroke="#63b8ff" points="50.32,-26.44 39.91,-24.52 46.85,-32.52 50.32,-26.44"/>
</a>
</g>
</g>
<!-- Node12 -->
<g id="Node000012" class="node">
<title>Node12</title>
<g id="a_Node000012"><a xlink:href="../../d6/d8e/universal_2include_2userver_2formats_2serialize_2to_8hpp.html" target="_top" xlink:title="Helper for serializers.">
<polygon fill="white" stroke="#666666" points="207.5,-30 68.5,-30 68.5,0 207.5,0 207.5,-30"/>
<text text-anchor="start" x="76.5" y="-18" font-family="Helvetica,sans-Serif" font-size="10.00">userver/formats/serialize</text>
<text text-anchor="middle" x="138" y="-7" font-family="Helvetica,sans-Serif" font-size="10.00">/to.hpp</text>
</a>
</g>
</g>
<!-- Node10&#45;&gt;Node12 -->
<g id="edge15_Node000010_Node000012" class="edge">
<title>Node10&#45;&gt;Node12</title>
<g id="a_edge15_Node000010_Node000012"><a xlink:title=" ">
<path fill="none" stroke="#63b8ff" d="M137.22,-65.8C137.34,-58.34 137.48,-48.99 137.62,-40.41"/>
<polygon fill="#63b8ff" stroke="#63b8ff" points="141.12,-40.22 137.78,-30.16 134.12,-40.11 141.12,-40.22"/>
</a>
</g>
</g>
</g>
</svg>
