<?xml version="1.0" encoding="UTF-8" standalone="no"?>
<!DOCTYPE svg PUBLIC "-//W3C//DTD SVG 1.1//EN"
 "http://www.w3.org/Graphics/SVG/1.1/DTD/svg11.dtd">
<!-- Generated by graphviz version 2.43.0 (0)
 -->
<!-- Title: userver/tracing/in_place_span.hpp Pages: 1 -->
<svg width="2230pt" height="478pt"
 viewBox="0.00 0.00 2229.50 478.00" xmlns="http://www.w3.org/2000/svg" xmlns:xlink="http://www.w3.org/1999/xlink">
<g id="graph0" class="graph" transform="scale(1 1) rotate(0) translate(4 474)">
<title>userver/tracing/in_place_span.hpp</title>
<!-- Node1 -->
<g id="Node000001" class="node">
<title>Node1</title>
<g id="a_Node000001"><a xlink:title="Avoids an extra allocation by storing tracing::Span data in&#45;place.">
<polygon fill="#999999" stroke="#666666" points="1713,-470 1611,-470 1611,-440 1713,-440 1713,-470"/>
<text text-anchor="start" x="1619" y="-458" font-family="Helvetica,sans-Serif" font-size="10.00">userver/tracing/in</text>
<text text-anchor="middle" x="1662" y="-447" font-family="Helvetica,sans-Serif" font-size="10.00">_place_span.hpp</text>
</a>
</g>
</g>
<!-- Node2 -->
<g id="Node000002" class="node">
<title>Node2</title>
<g id="a_Node000002"><a xlink:title=" ">
<polygon fill="#e0e0e0" stroke="#999999" points="1566,-145.5 1522,-145.5 1522,-126.5 1566,-126.5 1566,-145.5"/>
<text text-anchor="middle" x="1544" y="-133.5" font-family="Helvetica,sans-Serif" font-size="10.00">string</text>
</a>
</g>
</g>
<!-- Node1&#45;&gt;Node2 -->
<g id="edge1_Node000001_Node000002" class="edge">
<title>Node1&#45;&gt;Node2</title>
<g id="a_edge1_Node000001_Node000002"><a xlink:title=" ">
<path fill="none" stroke="#63b8ff" d="M1662,-439.71C1662,-417.37 1662,-372.81 1662,-335 1662,-335 1662,-335 1662,-267 1662,-228.87 1655.84,-215.93 1631,-187 1622.36,-176.94 1593.23,-161.16 1571.03,-150.02"/>
<polygon fill="#63b8ff" stroke="#63b8ff" points="1572.54,-146.86 1562.02,-145.56 1569.43,-153.14 1572.54,-146.86"/>
</a>
</g>
</g>
<!-- Node3 -->
<g id="Node000003" class="node">
<title>Node3</title>
<g id="a_Node000003"><a xlink:href="../../d2/d68/core_2include_2userver_2tracing_2span_8hpp.html" target="_top" xlink:title="Measures the execution time of the current code block, links it with the parent tracing::Spans and st...">
<polygon fill="white" stroke="#666666" points="1355.5,-404 1218.5,-404 1218.5,-385 1355.5,-385 1355.5,-404"/>
<text text-anchor="middle" x="1287" y="-392" font-family="Helvetica,sans-Serif" font-size="10.00">userver/tracing/span.hpp</text>
</a>
</g>
</g>
<!-- Node1&#45;&gt;Node3 -->
<g id="edge2_Node000001_Node000003" class="edge">
<title>Node1&#45;&gt;Node3</title>
<g id="a_edge2_Node000001_Node000003"><a xlink:title=" ">
<path fill="none" stroke="#63b8ff" d="M1610.64,-445.99C1543.3,-435.48 1425.13,-417.05 1351.73,-405.6"/>
<polygon fill="#63b8ff" stroke="#63b8ff" points="1352.11,-402.11 1341.69,-404.03 1351.03,-409.03 1352.11,-402.11"/>
</a>
</g>
</g>
<!-- Node30 -->
<g id="Node000030" class="node">
<title>Node30</title>
<g id="a_Node000030"><a xlink:href="../../d5/d02/fast__pimpl_8hpp.html" target="_top" xlink:title="Implements pimpl idiom without dynamic memory allocation.">
<polygon fill="white" stroke="#666666" points="2221.5,-151 2122.5,-151 2122.5,-121 2221.5,-121 2221.5,-151"/>
<text text-anchor="start" x="2130.5" y="-139" font-family="Helvetica,sans-Serif" font-size="10.00">userver/utils/fast</text>
<text text-anchor="middle" x="2172" y="-128" font-family="Helvetica,sans-Serif" font-size="10.00">_pimpl.hpp</text>
</a>
</g>
</g>
<!-- Node1&#45;&gt;Node30 -->
<g id="edge71_Node000001_Node000030" class="edge">
<title>Node1&#45;&gt;Node30</title>
<g id="a_edge71_Node000001_Node000030"><a xlink:title=" ">
<path fill="none" stroke="#63b8ff" d="M1713.15,-447.8C1811.86,-434.4 2019,-398.7 2019,-335 2019,-335 2019,-335 2019,-267 2019,-211.68 2077.81,-174.99 2122.5,-155.09"/>
<polygon fill="#63b8ff" stroke="#63b8ff" points="2123.99,-158.26 2131.8,-151.09 2121.23,-151.82 2123.99,-158.26"/>
</a>
</g>
</g>
<!-- Node4 -->
<g id="Node000004" class="node">
<title>Node4</title>
<g id="a_Node000004"><a xlink:title=" ">
<polygon fill="#e0e0e0" stroke="#999999" points="857,-145.5 801,-145.5 801,-126.5 857,-126.5 857,-145.5"/>
<text text-anchor="middle" x="829" y="-133.5" font-family="Helvetica,sans-Serif" font-size="10.00">optional</text>
</a>
</g>
</g>
<!-- Node3&#45;&gt;Node4 -->
<g id="edge3_Node000003_Node000004" class="edge">
<title>Node3&#45;&gt;Node4</title>
<g id="a_edge3_Node000003_Node000004"><a xlink:title=" ">
<path fill="none" stroke="#63b8ff" d="M1222.35,-384.98C1077.24,-364.41 732.97,-306.94 665,-217 656.96,-206.36 656.96,-197.64 665,-187 700.38,-140.2 736.29,-169.4 792,-151 793.86,-150.39 795.76,-149.74 797.68,-149.06"/>
<polygon fill="#63b8ff" stroke="#63b8ff" points="799,-152.31 807.2,-145.6 796.6,-145.73 799,-152.31"/>
</a>
</g>
</g>
<!-- Node5 -->
<g id="Node000005" class="node">
<title>Node5</title>
<g id="a_Node000005"><a xlink:title=" ">
<polygon fill="#e0e0e0" stroke="#999999" points="201.5,-79.5 128.5,-79.5 128.5,-60.5 201.5,-60.5 201.5,-79.5"/>
<text text-anchor="middle" x="165" y="-67.5" font-family="Helvetica,sans-Serif" font-size="10.00">string_view</text>
</a>
</g>
</g>
<!-- Node3&#45;&gt;Node5 -->
<g id="edge4_Node000003_Node000005" class="edge">
<title>Node3&#45;&gt;Node5</title>
<g id="a_edge4_Node000003_Node000005"><a xlink:title=" ">
<path fill="none" stroke="#63b8ff" d="M1218.26,-394.13C951.56,-395.67 0,-392.53 0,-269 0,-269 0,-269 0,-201 0,-137.37 76.65,-100.09 125.46,-82.79"/>
<polygon fill="#63b8ff" stroke="#63b8ff" points="126.78,-86.04 135.12,-79.5 124.53,-79.42 126.78,-86.04"/>
</a>
</g>
</g>
<!-- Node6 -->
<g id="Node000006" class="node">
<title>Node6</title>
<g id="a_Node000006"><a xlink:href="../../dd/de6/universal_2include_2userver_2logging_2log_8hpp.html" target="_top" xlink:title="Logging helpers.">
<polygon fill="white" stroke="#666666" points="1352.5,-343.5 1221.5,-343.5 1221.5,-324.5 1352.5,-324.5 1352.5,-343.5"/>
<text text-anchor="middle" x="1287" y="-331.5" font-family="Helvetica,sans-Serif" font-size="10.00">userver/logging/log.hpp</text>
</a>
</g>
</g>
<!-- Node3&#45;&gt;Node6 -->
<g id="edge5_Node000003_Node000006" class="edge">
<title>Node3&#45;&gt;Node6</title>
<g id="a_edge5_Node000003_Node000006"><a xlink:title=" ">
<path fill="none" stroke="#63b8ff" d="M1287,-384.87C1287,-376.75 1287,-364.31 1287,-353.89"/>
<polygon fill="#63b8ff" stroke="#63b8ff" points="1290.5,-353.67 1287,-343.67 1283.5,-353.67 1290.5,-353.67"/>
</a>
</g>
</g>
<!-- Node25 -->
<g id="Node000025" class="node">
<title>Node25</title>
<g id="a_Node000025"><a xlink:href="../../d6/def/log__extra_8hpp.html" target="_top" xlink:title="Extra tskv fields storage.">
<polygon fill="white" stroke="#666666" points="1838,-217 1728,-217 1728,-187 1838,-187 1838,-217"/>
<text text-anchor="start" x="1736" y="-205" font-family="Helvetica,sans-Serif" font-size="10.00">userver/logging/log</text>
<text text-anchor="middle" x="1783" y="-194" font-family="Helvetica,sans-Serif" font-size="10.00">_extra.hpp</text>
</a>
</g>
</g>
<!-- Node3&#45;&gt;Node25 -->
<g id="edge61_Node000003_Node000025" class="edge">
<title>Node3&#45;&gt;Node25</title>
<g id="a_edge61_Node000003_Node000025"><a xlink:title=" ">
<path fill="none" stroke="#63b8ff" d="M1332.58,-384.97C1405.31,-370.32 1551.03,-336.67 1665,-283 1699.5,-266.75 1735.22,-241.08 1758.19,-223.22"/>
<polygon fill="#63b8ff" stroke="#63b8ff" points="1760.36,-225.96 1766.05,-217.02 1756.03,-220.47 1760.36,-225.96"/>
</a>
</g>
</g>
<!-- Node32 -->
<g id="Node000032" class="node">
<title>Node32</title>
<g id="a_Node000032"><a xlink:href="../../df/dd4/source__location_8hpp_source.html" target="_top" xlink:title=" ">
<polygon fill="white" stroke="#666666" points="236.5,-217 119.5,-217 119.5,-187 236.5,-187 236.5,-217"/>
<text text-anchor="start" x="127.5" y="-205" font-family="Helvetica,sans-Serif" font-size="10.00">userver/utils/impl</text>
<text text-anchor="middle" x="178" y="-194" font-family="Helvetica,sans-Serif" font-size="10.00">/source_location.hpp</text>
</a>
</g>
</g>
<!-- Node3&#45;&gt;Node32 -->
<g id="edge69_Node000003_Node000032" class="edge">
<title>Node3&#45;&gt;Node32</title>
<g id="a_edge69_Node000003_Node000032"><a xlink:title=" ">
<path fill="none" stroke="#63b8ff" d="M1218.46,-392.99C1051.57,-391.22 627.84,-383.38 491,-349 381.6,-321.51 263.97,-255.59 209.28,-222.56"/>
<polygon fill="#63b8ff" stroke="#63b8ff" points="210.79,-219.38 200.43,-217.17 207.15,-225.36 210.79,-219.38"/>
</a>
</g>
</g>
<!-- Node36 -->
<g id="Node000036" class="node">
<title>Node36</title>
<g id="a_Node000036"><a xlink:href="../../d4/d54/scope__time_8hpp.html" target="_top" xlink:title="Type to measure execution time of a scope.">
<polygon fill="white" stroke="#666666" points="1634,-283 1512,-283 1512,-253 1634,-253 1634,-283"/>
<text text-anchor="start" x="1520" y="-271" font-family="Helvetica,sans-Serif" font-size="10.00">userver/tracing/scope</text>
<text text-anchor="middle" x="1573" y="-260" font-family="Helvetica,sans-Serif" font-size="10.00">_time.hpp</text>
</a>
</g>
</g>
<!-- Node3&#45;&gt;Node36 -->
<g id="edge62_Node000003_Node000036" class="edge">
<title>Node3&#45;&gt;Node36</title>
<g id="a_edge62_Node000003_Node000036"><a xlink:title=" ">
<path fill="none" stroke="#63b8ff" d="M1306.76,-384.99C1327.5,-376.06 1361.06,-361.58 1390,-349 1438.6,-327.88 1494.4,-303.46 1531.48,-287.21"/>
<polygon fill="#63b8ff" stroke="#63b8ff" points="1533.2,-290.28 1540.95,-283.06 1530.39,-283.87 1533.2,-290.28"/>
</a>
</g>
</g>
<!-- Node38 -->
<g id="Node000038" class="node">
<title>Node38</title>
<g id="a_Node000038"><a xlink:href="../../dc/d90/tracer__fwd_8hpp_source.html" target="_top" xlink:title=" ">
<polygon fill="white" stroke="#666666" points="1494,-283 1372,-283 1372,-253 1494,-253 1494,-283"/>
<text text-anchor="start" x="1380" y="-271" font-family="Helvetica,sans-Serif" font-size="10.00">userver/tracing/tracer</text>
<text text-anchor="middle" x="1433" y="-260" font-family="Helvetica,sans-Serif" font-size="10.00">_fwd.hpp</text>
</a>
</g>
</g>
<!-- Node3&#45;&gt;Node38 -->
<g id="edge67_Node000003_Node000038" class="edge">
<title>Node3&#45;&gt;Node38</title>
<g id="a_edge67_Node000003_Node000038"><a xlink:title=" ">
<path fill="none" stroke="#63b8ff" d="M1304.4,-384.93C1320.03,-376.81 1343.19,-363.69 1361,-349 1381.87,-331.79 1402.16,-308.46 1415.85,-291.44"/>
<polygon fill="#63b8ff" stroke="#63b8ff" points="1418.93,-293.19 1422.38,-283.18 1413.43,-288.85 1418.93,-293.19"/>
</a>
</g>
</g>
<!-- Node39 -->
<g id="Node000039" class="node">
<title>Node39</title>
<g id="a_Node000039"><a xlink:href="../../d7/d2e/core_2include_2userver_2utils_2internal__tag__fwd_8hpp.html" target="_top" xlink:title=" ">
<polygon fill="white" stroke="#666666" points="618,-349 500,-349 500,-319 618,-319 618,-349"/>
<text text-anchor="start" x="508" y="-337" font-family="Helvetica,sans-Serif" font-size="10.00">userver/utils/internal</text>
<text text-anchor="middle" x="559" y="-326" font-family="Helvetica,sans-Serif" font-size="10.00">_tag_fwd.hpp</text>
</a>
</g>
</g>
<!-- Node3&#45;&gt;Node39 -->
<g id="edge70_Node000003_Node000039" class="edge">
<title>Node3&#45;&gt;Node39</title>
<g id="a_edge70_Node000003_Node000039"><a xlink:title=" ">
<path fill="none" stroke="#63b8ff" d="M1218.37,-391.58C1098.81,-387.63 844.79,-376.53 632,-349 630.74,-348.84 629.47,-348.67 628.19,-348.49"/>
<polygon fill="#63b8ff" stroke="#63b8ff" points="628.68,-345.02 618.26,-346.99 627.63,-351.94 628.68,-345.02"/>
</a>
</g>
</g>
<!-- Node7 -->
<g id="Node000007" class="node">
<title>Node7</title>
<g id="a_Node000007"><a xlink:title=" ">
<polygon fill="#e0e0e0" stroke="#999999" points="1478,-211.5 1428,-211.5 1428,-192.5 1478,-192.5 1478,-211.5"/>
<text text-anchor="middle" x="1453" y="-199.5" font-family="Helvetica,sans-Serif" font-size="10.00">chrono</text>
</a>
</g>
</g>
<!-- Node6&#45;&gt;Node7 -->
<g id="edge6_Node000006_Node000007" class="edge">
<title>Node6&#45;&gt;Node7</title>
<g id="a_edge6_Node000006_Node000007"><a xlink:title=" ">
<path fill="none" stroke="#63b8ff" d="M1293.62,-324.48C1306,-308.91 1334.07,-275.41 1363,-253 1382.13,-238.18 1406.2,-225.05 1424.64,-215.97"/>
<polygon fill="#63b8ff" stroke="#63b8ff" points="1426.21,-219.09 1433.71,-211.6 1423.18,-212.79 1426.21,-219.09"/>
</a>
</g>
</g>
<!-- Node8 -->
<g id="Node000008" class="node">
<title>Node8</title>
<g id="a_Node000008"><a xlink:href="../../d2/d84/select_8hpp.html" target="_top" xlink:title="Utilities for selection of platform specific values.">
<polygon fill="white" stroke="#666666" points="1736,-145.5 1584,-145.5 1584,-126.5 1736,-126.5 1736,-145.5"/>
<text text-anchor="middle" x="1660" y="-133.5" font-family="Helvetica,sans-Serif" font-size="10.00">userver/compiler/select.hpp</text>
</a>
</g>
</g>
<!-- Node6&#45;&gt;Node8 -->
<g id="edge7_Node000006_Node000008" class="edge">
<title>Node6&#45;&gt;Node8</title>
<g id="a_edge7_Node000006_Node000008"><a xlink:title=" ">
<path fill="none" stroke="#63b8ff" d="M1352.5,-333.02C1444.14,-331.56 1603.81,-323.13 1643,-283 1676.35,-248.86 1670.04,-186.67 1664.22,-155.65"/>
<polygon fill="#63b8ff" stroke="#63b8ff" points="1667.63,-154.82 1662.18,-145.73 1660.77,-156.24 1667.63,-154.82"/>
</a>
</g>
</g>
<!-- Node10 -->
<g id="Node000010" class="node">
<title>Node10</title>
<g id="a_Node000010"><a xlink:href="../../db/dfb/universal_2include_2userver_2logging_2fwd_8hpp.html" target="_top" xlink:title="Forward declarations for logging types.">
<polygon fill="white" stroke="#666666" points="1466,-145.5 1332,-145.5 1332,-126.5 1466,-126.5 1466,-145.5"/>
<text text-anchor="middle" x="1399" y="-133.5" font-family="Helvetica,sans-Serif" font-size="10.00">userver/logging/fwd.hpp</text>
</a>
</g>
</g>
<!-- Node6&#45;&gt;Node10 -->
<g id="edge9_Node000006_Node000010" class="edge">
<title>Node6&#45;&gt;Node10</title>
<g id="a_edge9_Node000006_Node000010"><a xlink:title=" ">
<path fill="none" stroke="#63b8ff" d="M1289.77,-324.47C1295.15,-308.87 1308.26,-275.33 1328,-253 1346.86,-231.66 1364.97,-240.54 1381,-217 1393.43,-198.74 1397.41,-173.22 1398.61,-155.95"/>
<polygon fill="#63b8ff" stroke="#63b8ff" points="1402.13,-155.65 1399.07,-145.51 1395.13,-155.34 1402.13,-155.65"/>
</a>
</g>
</g>
<!-- Node12 -->
<g id="Node000012" class="node">
<title>Node12</title>
<g id="a_Node000012"><a xlink:href="../../d5/d37/level_8hpp.html" target="_top" xlink:title="Log levels.">
<polygon fill="white" stroke="#666666" points="1372,-211.5 1232,-211.5 1232,-192.5 1372,-192.5 1372,-211.5"/>
<text text-anchor="middle" x="1302" y="-199.5" font-family="Helvetica,sans-Serif" font-size="10.00">userver/logging/level.hpp</text>
</a>
</g>
</g>
<!-- Node6&#45;&gt;Node12 -->
<g id="edge11_Node000006_Node000012" class="edge">
<title>Node6&#45;&gt;Node12</title>
<g id="a_edge11_Node000006_Node000012"><a xlink:title=" ">
<path fill="none" stroke="#63b8ff" d="M1287.16,-324.08C1287.53,-309.27 1288.65,-278.67 1292,-253 1293.37,-242.53 1295.63,-230.96 1297.66,-221.58"/>
<polygon fill="#63b8ff" stroke="#63b8ff" points="1301.08,-222.32 1299.87,-211.79 1294.26,-220.78 1301.08,-222.32"/>
</a>
</g>
</g>
<!-- Node13 -->
<g id="Node000013" class="node">
<title>Node13</title>
<g id="a_Node000013"><a xlink:href="../../d4/dc3/log__filepath_8hpp.html" target="_top" xlink:title="Short source path calculator.">
<polygon fill="white" stroke="#666666" points="282,-151 172,-151 172,-121 282,-121 282,-151"/>
<text text-anchor="start" x="180" y="-139" font-family="Helvetica,sans-Serif" font-size="10.00">userver/logging/log</text>
<text text-anchor="middle" x="227" y="-128" font-family="Helvetica,sans-Serif" font-size="10.00">_filepath.hpp</text>
</a>
</g>
</g>
<!-- Node6&#45;&gt;Node13 -->
<g id="edge14_Node000006_Node000013" class="edge">
<title>Node6&#45;&gt;Node13</title>
<g id="a_edge14_Node000006_Node000013"><a xlink:title=" ">
<path fill="none" stroke="#63b8ff" d="M1221.23,-332.07C1070.26,-328.32 688.55,-309.63 386,-217 338.8,-202.55 288.6,-174.99 257.52,-156.3"/>
<polygon fill="#63b8ff" stroke="#63b8ff" points="259.26,-153.26 248.9,-151.05 255.62,-159.24 259.26,-153.26"/>
</a>
</g>
</g>
<!-- Node14 -->
<g id="Node000014" class="node">
<title>Node14</title>
<g id="a_Node000014"><a xlink:href="../../db/d94/log__helper_8hpp.html" target="_top" xlink:title=" ">
<polygon fill="white" stroke="#666666" points="1079,-283 969,-283 969,-253 1079,-253 1079,-283"/>
<text text-anchor="start" x="977" y="-271" font-family="Helvetica,sans-Serif" font-size="10.00">userver/logging/log</text>
<text text-anchor="middle" x="1024" y="-260" font-family="Helvetica,sans-Serif" font-size="10.00">_helper.hpp</text>
</a>
</g>
</g>
<!-- Node6&#45;&gt;Node14 -->
<g id="edge16_Node000006_Node000014" class="edge">
<title>Node6&#45;&gt;Node14</title>
<g id="a_edge16_Node000006_Node000014"><a xlink:title=" ">
<path fill="none" stroke="#63b8ff" d="M1251.8,-324.44C1210.34,-314.34 1140.59,-297.37 1089.17,-284.86"/>
<polygon fill="#63b8ff" stroke="#63b8ff" points="1089.69,-281.38 1079.15,-282.42 1088.03,-288.18 1089.69,-281.38"/>
</a>
</g>
</g>
<!-- Node9 -->
<g id="Node000009" class="node">
<title>Node9</title>
<g id="a_Node000009"><a xlink:title=" ">
<polygon fill="#e0e0e0" stroke="#999999" points="1870.5,-79.5 1817.5,-79.5 1817.5,-60.5 1870.5,-60.5 1870.5,-79.5"/>
<text text-anchor="middle" x="1844" y="-67.5" font-family="Helvetica,sans-Serif" font-size="10.00">cstddef</text>
</a>
</g>
</g>
<!-- Node8&#45;&gt;Node9 -->
<g id="edge8_Node000008_Node000009" class="edge">
<title>Node8&#45;&gt;Node9</title>
<g id="a_edge8_Node000008_Node000009"><a xlink:title=" ">
<path fill="none" stroke="#63b8ff" d="M1684.82,-126.37C1717,-115.17 1773.32,-95.58 1809.62,-82.96"/>
<polygon fill="#63b8ff" stroke="#63b8ff" points="1810.99,-86.19 1819.28,-79.6 1808.69,-79.58 1810.99,-86.19"/>
</a>
</g>
</g>
<!-- Node11 -->
<g id="Node000011" class="node">
<title>Node11</title>
<g id="a_Node000011"><a xlink:title=" ">
<polygon fill="#e0e0e0" stroke="#999999" points="1428,-79.5 1370,-79.5 1370,-60.5 1428,-60.5 1428,-79.5"/>
<text text-anchor="middle" x="1399" y="-67.5" font-family="Helvetica,sans-Serif" font-size="10.00">memory</text>
</a>
</g>
</g>
<!-- Node10&#45;&gt;Node11 -->
<g id="edge10_Node000010_Node000011" class="edge">
<title>Node10&#45;&gt;Node11</title>
<g id="a_edge10_Node000010_Node000011"><a xlink:title=" ">
<path fill="none" stroke="#63b8ff" d="M1399,-126.37C1399,-117.16 1399,-102.29 1399,-90.27"/>
<polygon fill="#63b8ff" stroke="#63b8ff" points="1402.5,-89.91 1399,-79.91 1395.5,-89.91 1402.5,-89.91"/>
</a>
</g>
</g>
<!-- Node12&#45;&gt;Node2 -->
<g id="edge13_Node000012_Node000002" class="edge">
<title>Node12&#45;&gt;Node2</title>
<g id="a_edge13_Node000012_Node000002"><a xlink:title=" ">
<path fill="none" stroke="#63b8ff" d="M1334.39,-192.44C1380.84,-180.15 1465.88,-157.66 1512.08,-145.44"/>
<polygon fill="#63b8ff" stroke="#63b8ff" points="1513.09,-148.79 1521.86,-142.85 1511.3,-142.03 1513.09,-148.79"/>
</a>
</g>
</g>
<!-- Node12&#45;&gt;Node4 -->
<g id="edge12_Node000012_Node000004" class="edge">
<title>Node12&#45;&gt;Node4</title>
<g id="a_edge12_Node000012_Node000004"><a xlink:title=" ">
<path fill="none" stroke="#63b8ff" d="M1231.96,-195.09C1126.91,-185.87 933.66,-167.41 866,-151 863.55,-150.41 861.04,-149.69 858.53,-148.91"/>
<polygon fill="#63b8ff" stroke="#63b8ff" points="859.67,-145.6 849.07,-145.63 857.37,-152.21 859.67,-145.6"/>
</a>
</g>
</g>
<!-- Node13&#45;&gt;Node5 -->
<g id="edge15_Node000013_Node000005" class="edge">
<title>Node13&#45;&gt;Node5</title>
<g id="a_edge15_Node000013_Node000005"><a xlink:title=" ">
<path fill="none" stroke="#63b8ff" d="M213.24,-120.8C203.57,-110.82 190.63,-97.46 180.58,-87.09"/>
<polygon fill="#63b8ff" stroke="#63b8ff" points="183.04,-84.59 173.57,-79.84 178.01,-89.46 183.04,-84.59"/>
</a>
</g>
</g>
<!-- Node14&#45;&gt;Node4 -->
<g id="edge22_Node000014_Node000004" class="edge">
<title>Node14&#45;&gt;Node4</title>
<g id="a_edge22_Node000014_Node000004"><a xlink:title=" ">
<path fill="none" stroke="#63b8ff" d="M968.76,-261.38C913.7,-254.5 834.71,-240.74 816,-217 802.02,-199.26 810.68,-172.32 819.09,-154.69"/>
<polygon fill="#63b8ff" stroke="#63b8ff" points="822.34,-156.01 823.83,-145.52 816.13,-152.79 822.34,-156.01"/>
</a>
</g>
</g>
<!-- Node14&#45;&gt;Node5 -->
<g id="edge23_Node000014_Node000005" class="edge">
<title>Node14&#45;&gt;Node5</title>
<g id="a_edge23_Node000014_Node000005"><a xlink:title=" ">
<path fill="none" stroke="#63b8ff" d="M968.9,-264.49C847.88,-258.57 562.25,-242.32 469,-217 402.61,-198.97 387.49,-187.21 329,-151 310.71,-139.67 309.64,-131.75 291,-121 262.92,-104.81 228.59,-91.57 202.86,-82.79"/>
<polygon fill="#63b8ff" stroke="#63b8ff" points="203.69,-79.38 193.1,-79.53 201.48,-86.02 203.69,-79.38"/>
</a>
</g>
</g>
<!-- Node14&#45;&gt;Node7 -->
<g id="edge17_Node000014_Node000007" class="edge">
<title>Node14&#45;&gt;Node7</title>
<g id="a_edge17_Node000014_Node000007"><a xlink:title=" ">
<path fill="none" stroke="#63b8ff" d="M1079.18,-260.19C1149.44,-251.31 1274.52,-234.8 1381,-217 1393.05,-214.99 1406.17,-212.52 1417.88,-210.22"/>
<polygon fill="#63b8ff" stroke="#63b8ff" points="1418.61,-213.64 1427.74,-208.25 1417.24,-206.77 1418.61,-213.64"/>
</a>
</g>
</g>
<!-- Node14&#45;&gt;Node10 -->
<g id="edge34_Node000014_Node000010" class="edge">
<title>Node14&#45;&gt;Node10</title>
<g id="a_edge34_Node000014_Node000010"><a xlink:title=" ">
<path fill="none" stroke="#63b8ff" d="M1079.35,-253.61C1109.9,-245.16 1148.01,-232.84 1180,-217 1200.88,-206.66 1201.95,-196.99 1223,-187 1261.53,-168.72 1308.05,-155.86 1343.58,-147.77"/>
<polygon fill="#63b8ff" stroke="#63b8ff" points="1344.76,-151.09 1353.77,-145.51 1343.24,-144.26 1344.76,-151.09"/>
</a>
</g>
</g>
<!-- Node14&#45;&gt;Node11 -->
<g id="edge21_Node000014_Node000011" class="edge">
<title>Node14&#45;&gt;Node11</title>
<g id="a_edge21_Node000014_Node000011"><a xlink:title=" ">
<path fill="none" stroke="#63b8ff" d="M1053.33,-252.86C1073.57,-243.01 1101.04,-229.46 1125,-217 1149.7,-204.15 1155.47,-200.18 1180,-187 1249.99,-149.38 1332.98,-105.66 1373.78,-84.23"/>
<polygon fill="#63b8ff" stroke="#63b8ff" points="1375.53,-87.27 1382.75,-79.52 1372.27,-81.07 1375.53,-87.27"/>
</a>
</g>
</g>
<!-- Node14&#45;&gt;Node12 -->
<g id="edge35_Node000014_Node000012" class="edge">
<title>Node14&#45;&gt;Node12</title>
<g id="a_edge35_Node000014_Node000012"><a xlink:title=" ">
<path fill="none" stroke="#63b8ff" d="M1079.26,-254.28C1130.7,-242.44 1206.55,-224.97 1255.11,-213.79"/>
<polygon fill="#63b8ff" stroke="#63b8ff" points="1256.08,-217.16 1265.04,-211.51 1254.51,-210.34 1256.08,-217.16"/>
</a>
</g>
</g>
<!-- Node15 -->
<g id="Node000015" class="node">
<title>Node15</title>
<g id="a_Node000015"><a xlink:title=" ">
<polygon fill="#e0e0e0" stroke="#999999" points="739.5,-211.5 674.5,-211.5 674.5,-192.5 739.5,-192.5 739.5,-211.5"/>
<text text-anchor="middle" x="707" y="-199.5" font-family="Helvetica,sans-Serif" font-size="10.00">exception</text>
</a>
</g>
</g>
<!-- Node14&#45;&gt;Node15 -->
<g id="edge18_Node000014_Node000015" class="edge">
<title>Node14&#45;&gt;Node15</title>
<g id="a_edge18_Node000014_Node000015"><a xlink:title=" ">
<path fill="none" stroke="#63b8ff" d="M968.82,-258.55C914,-249.74 827.69,-234.75 754,-217 750.77,-216.22 747.44,-215.36 744.1,-214.45"/>
<polygon fill="#63b8ff" stroke="#63b8ff" points="744.78,-211 734.2,-211.64 742.87,-217.74 744.78,-211"/>
</a>
</g>
</g>
<!-- Node16 -->
<g id="Node000016" class="node">
<title>Node16</title>
<g id="a_Node000016"><a xlink:title=" ">
<polygon fill="#e0e0e0" stroke="#999999" points="1098,-145.5 1050,-145.5 1050,-126.5 1098,-126.5 1098,-145.5"/>
<text text-anchor="middle" x="1074" y="-133.5" font-family="Helvetica,sans-Serif" font-size="10.00">iosfwd</text>
</a>
</g>
</g>
<!-- Node14&#45;&gt;Node16 -->
<g id="edge19_Node000014_Node000016" class="edge">
<title>Node14&#45;&gt;Node16</title>
<g id="a_edge19_Node000014_Node000016"><a xlink:title=" ">
<path fill="none" stroke="#63b8ff" d="M1065.36,-252.81C1081.66,-244.95 1098.69,-233.38 1108,-217 1119.94,-196 1103.65,-169.98 1089.77,-153.43"/>
<polygon fill="#63b8ff" stroke="#63b8ff" points="1092.16,-150.85 1082.89,-145.71 1086.93,-155.51 1092.16,-150.85"/>
</a>
</g>
</g>
<!-- Node17 -->
<g id="Node000017" class="node">
<title>Node17</title>
<g id="a_Node000017"><a xlink:title=" ">
<polygon fill="#e0e0e0" stroke="#999999" points="928.5,-145.5 875.5,-145.5 875.5,-126.5 928.5,-126.5 928.5,-145.5"/>
<text text-anchor="middle" x="902" y="-133.5" font-family="Helvetica,sans-Serif" font-size="10.00">iterator</text>
</a>
</g>
</g>
<!-- Node14&#45;&gt;Node17 -->
<g id="edge20_Node000014_Node000017" class="edge">
<title>Node14&#45;&gt;Node17</title>
<g id="a_edge20_Node000014_Node000017"><a xlink:title=" ">
<path fill="none" stroke="#63b8ff" d="M968.92,-260.73C916.34,-253.47 842.58,-239.54 825,-217 805.21,-191.62 843.97,-165.33 873.34,-150.1"/>
<polygon fill="#63b8ff" stroke="#63b8ff" points="875.06,-153.15 882.46,-145.56 871.94,-146.88 875.06,-153.15"/>
</a>
</g>
</g>
<!-- Node18 -->
<g id="Node000018" class="node">
<title>Node18</title>
<g id="a_Node000018"><a xlink:title=" ">
<polygon fill="#e0e0e0" stroke="#999999" points="1099.5,-211.5 1018.5,-211.5 1018.5,-192.5 1099.5,-192.5 1099.5,-211.5"/>
<text text-anchor="middle" x="1059" y="-199.5" font-family="Helvetica,sans-Serif" font-size="10.00">system_error</text>
</a>
</g>
</g>
<!-- Node14&#45;&gt;Node18 -->
<g id="edge24_Node000014_Node000018" class="edge">
<title>Node14&#45;&gt;Node18</title>
<g id="a_edge24_Node000014_Node000018"><a xlink:title=" ">
<path fill="none" stroke="#63b8ff" d="M1031.77,-252.8C1036.96,-243.31 1043.82,-230.76 1049.36,-220.63"/>
<polygon fill="#63b8ff" stroke="#63b8ff" points="1052.44,-222.3 1054.16,-211.84 1046.29,-218.94 1052.44,-222.3"/>
</a>
</g>
</g>
<!-- Node19 -->
<g id="Node000019" class="node">
<title>Node19</title>
<g id="a_Node000019"><a xlink:title=" ">
<polygon fill="#e0e0e0" stroke="#999999" points="843.5,-19 774.5,-19 774.5,0 843.5,0 843.5,-19"/>
<text text-anchor="middle" x="809" y="-7" font-family="Helvetica,sans-Serif" font-size="10.00">type_traits</text>
</a>
</g>
</g>
<!-- Node14&#45;&gt;Node19 -->
<g id="edge25_Node000014_Node000019" class="edge">
<title>Node14&#45;&gt;Node19</title>
<g id="a_edge25_Node000014_Node000019"><a xlink:title=" ">
<path fill="none" stroke="#63b8ff" d="M1015.56,-252.95C1006.51,-235.85 995.17,-206.81 1009,-187 1035.56,-148.95 1080.44,-189.05 1107,-151 1114.63,-140.07 1114.17,-132.24 1107,-121 1052.45,-35.49 922.6,-15.81 853.71,-11.51"/>
<polygon fill="#63b8ff" stroke="#63b8ff" points="853.77,-8.01 843.6,-10.96 853.4,-14.99 853.77,-8.01"/>
</a>
</g>
</g>
<!-- Node20 -->
<g id="Node000020" class="node">
<title>Node20</title>
<g id="a_Node000020"><a xlink:href="../../da/d00/universal_2include_2userver_2formats_2common_2meta_8hpp.html" target="_top" xlink:title="Metaprogramming helpers for converters detection.">
<polygon fill="white" stroke="#666666" points="618,-217 478,-217 478,-187 618,-187 618,-217"/>
<text text-anchor="start" x="486" y="-205" font-family="Helvetica,sans-Serif" font-size="10.00">userver/formats/common</text>
<text text-anchor="middle" x="548" y="-194" font-family="Helvetica,sans-Serif" font-size="10.00">/meta.hpp</text>
</a>
</g>
</g>
<!-- Node14&#45;&gt;Node20 -->
<g id="edge26_Node000014_Node000020" class="edge">
<title>Node14&#45;&gt;Node20</title>
<g id="a_edge26_Node000014_Node000020"><a xlink:title=" ">
<path fill="none" stroke="#63b8ff" d="M968.93,-259.6C885.14,-248.33 725.18,-226.82 628.39,-213.81"/>
<polygon fill="#63b8ff" stroke="#63b8ff" points="628.74,-210.32 618.36,-212.46 627.81,-217.26 628.74,-210.32"/>
</a>
</g>
</g>
<!-- Node14&#45;&gt;Node25 -->
<g id="edge36_Node000014_Node000025" class="edge">
<title>Node14&#45;&gt;Node25</title>
<g id="a_edge36_Node000014_Node000025"><a xlink:title=" ">
<path fill="none" stroke="#63b8ff" d="M1079.25,-262.63C1185.93,-254.15 1427.7,-234.74 1631,-217 1659.44,-214.52 1690.87,-211.65 1717.72,-209.15"/>
<polygon fill="#63b8ff" stroke="#63b8ff" points="1718.15,-212.63 1727.78,-208.22 1717.5,-205.66 1718.15,-212.63"/>
</a>
</g>
</g>
<!-- Node14&#45;&gt;Node32 -->
<g id="edge49_Node000014_Node000032" class="edge">
<title>Node14&#45;&gt;Node32</title>
<g id="a_edge49_Node000014_Node000032"><a xlink:title=" ">
<path fill="none" stroke="#63b8ff" d="M968.82,-262.83C820.01,-251.57 410.69,-220.6 246.99,-208.22"/>
<polygon fill="#63b8ff" stroke="#63b8ff" points="246.8,-204.7 236.57,-207.43 246.27,-211.68 246.8,-204.7"/>
</a>
</g>
</g>
<!-- Node34 -->
<g id="Node000034" class="node">
<title>Node34</title>
<g id="a_Node000034"><a xlink:href="../../d0/d03/universal_2include_2userver_2utils_2meta_8hpp.html" target="_top" xlink:title="Metaprogramming, template variables and concepts.">
<polygon fill="white" stroke="#666666" points="961.5,-211.5 834.5,-211.5 834.5,-192.5 961.5,-192.5 961.5,-211.5"/>
<text text-anchor="middle" x="898" y="-199.5" font-family="Helvetica,sans-Serif" font-size="10.00">userver/utils/meta.hpp</text>
</a>
</g>
</g>
<!-- Node14&#45;&gt;Node34 -->
<g id="edge54_Node000014_Node000034" class="edge">
<title>Node14&#45;&gt;Node34</title>
<g id="a_edge54_Node000014_Node000034"><a xlink:title=" ">
<path fill="none" stroke="#63b8ff" d="M996.35,-252.95C974.74,-241.98 944.92,-226.83 923.8,-216.11"/>
<polygon fill="#63b8ff" stroke="#63b8ff" points="925.27,-212.93 914.77,-211.52 922.1,-219.17 925.27,-212.93"/>
</a>
</g>
</g>
<!-- Node20&#45;&gt;Node19 -->
<g id="edge27_Node000020_Node000019" class="edge">
<title>Node20&#45;&gt;Node19</title>
<g id="a_edge27_Node000020_Node000019"><a xlink:title=" ">
<path fill="none" stroke="#63b8ff" d="M573.64,-186.88C589.99,-177.46 611.36,-164.39 629,-151 679.11,-112.97 682.45,-92.44 733,-55 748.87,-43.24 768.08,-32.02 783.21,-23.79"/>
<polygon fill="#63b8ff" stroke="#63b8ff" points="784.87,-26.87 792.04,-19.07 781.57,-20.69 784.87,-26.87"/>
</a>
</g>
</g>
<!-- Node21 -->
<g id="Node000021" class="node">
<title>Node21</title>
<g id="a_Node000021"><a xlink:href="../../d2/dc8/universal_2include_2userver_2formats_2parse_2to_8hpp.html" target="_top" xlink:title="Helper for parsers.">
<polygon fill="white" stroke="#666666" points="463.5,-151 338.5,-151 338.5,-121 463.5,-121 463.5,-151"/>
<text text-anchor="start" x="346.5" y="-139" font-family="Helvetica,sans-Serif" font-size="10.00">userver/formats/parse</text>
<text text-anchor="middle" x="401" y="-128" font-family="Helvetica,sans-Serif" font-size="10.00">/to.hpp</text>
</a>
</g>
</g>
<!-- Node20&#45;&gt;Node21 -->
<g id="edge28_Node000020_Node000021" class="edge">
<title>Node20&#45;&gt;Node21</title>
<g id="a_edge28_Node000020_Node000021"><a xlink:title=" ">
<path fill="none" stroke="#63b8ff" d="M515.74,-186.95C494.2,-177.58 465.67,-165.16 442.45,-155.05"/>
<polygon fill="#63b8ff" stroke="#63b8ff" points="443.75,-151.8 433.18,-151.01 440.96,-158.21 443.75,-151.8"/>
</a>
</g>
</g>
<!-- Node22 -->
<g id="Node000022" class="node">
<title>Node22</title>
<g id="a_Node000022"><a xlink:href="../../d6/d8e/universal_2include_2userver_2formats_2serialize_2to_8hpp.html" target="_top" xlink:title="Helper for serializers.">
<polygon fill="white" stroke="#666666" points="620.5,-151 481.5,-151 481.5,-121 620.5,-121 620.5,-151"/>
<text text-anchor="start" x="489.5" y="-139" font-family="Helvetica,sans-Serif" font-size="10.00">userver/formats/serialize</text>
<text text-anchor="middle" x="551" y="-128" font-family="Helvetica,sans-Serif" font-size="10.00">/to.hpp</text>
</a>
</g>
</g>
<!-- Node20&#45;&gt;Node22 -->
<g id="edge29_Node000020_Node000022" class="edge">
<title>Node20&#45;&gt;Node22</title>
<g id="a_edge29_Node000020_Node000022"><a xlink:title=" ">
<path fill="none" stroke="#63b8ff" d="M548.67,-186.8C549.02,-179.34 549.45,-169.99 549.86,-161.41"/>
<polygon fill="#63b8ff" stroke="#63b8ff" points="553.36,-161.32 550.34,-151.16 546.37,-160.99 553.36,-161.32"/>
</a>
</g>
</g>
<!-- Node23 -->
<g id="Node000023" class="node">
<title>Node23</title>
<g id="a_Node000023"><a xlink:href="../../d3/da0/meta__light_8hpp.html" target="_top" xlink:title="Lightweight concepts.">
<polygon fill="white" stroke="#666666" points="783,-151 677,-151 677,-121 783,-121 783,-151"/>
<text text-anchor="start" x="685" y="-139" font-family="Helvetica,sans-Serif" font-size="10.00">userver/utils/meta</text>
<text text-anchor="middle" x="730" y="-128" font-family="Helvetica,sans-Serif" font-size="10.00">_light.hpp</text>
</a>
</g>
</g>
<!-- Node20&#45;&gt;Node23 -->
<g id="edge30_Node000020_Node000023" class="edge">
<title>Node20&#45;&gt;Node23</title>
<g id="a_edge30_Node000020_Node000023"><a xlink:title=" ">
<path fill="none" stroke="#63b8ff" d="M587.94,-186.95C615.2,-177.37 651.51,-164.6 680.59,-154.37"/>
<polygon fill="#63b8ff" stroke="#63b8ff" points="681.88,-157.63 690.15,-151.01 679.56,-151.03 681.88,-157.63"/>
</a>
</g>
</g>
<!-- Node23&#45;&gt;Node19 -->
<g id="edge31_Node000023_Node000019" class="edge">
<title>Node23&#45;&gt;Node19</title>
<g id="a_edge31_Node000023_Node000019"><a xlink:title=" ">
<path fill="none" stroke="#63b8ff" d="M730.47,-120.84C731.65,-103.89 735.64,-75.26 749,-55 757.42,-42.23 770.82,-31.78 782.82,-24.23"/>
<polygon fill="#63b8ff" stroke="#63b8ff" points="784.79,-27.13 791.62,-19.02 781.23,-21.1 784.79,-27.13"/>
</a>
</g>
</g>
<!-- Node24 -->
<g id="Node000024" class="node">
<title>Node24</title>
<g id="a_Node000024"><a xlink:href="../../d9/dce/void__t_8hpp.html" target="_top" xlink:title="std::void_t implementation with workarounds for compiler bugs">
<polygon fill="white" stroke="#666666" points="859.5,-85 758.5,-85 758.5,-55 859.5,-55 859.5,-85"/>
<text text-anchor="start" x="766.5" y="-73" font-family="Helvetica,sans-Serif" font-size="10.00">userver/utils/void</text>
<text text-anchor="middle" x="809" y="-62" font-family="Helvetica,sans-Serif" font-size="10.00">_t.hpp</text>
</a>
</g>
</g>
<!-- Node23&#45;&gt;Node24 -->
<g id="edge32_Node000023_Node000024" class="edge">
<title>Node23&#45;&gt;Node24</title>
<g id="a_edge32_Node000023_Node000024"><a xlink:title=" ">
<path fill="none" stroke="#63b8ff" d="M747.53,-120.8C758.17,-112.18 771.92,-101.04 783.72,-91.48"/>
<polygon fill="#63b8ff" stroke="#63b8ff" points="785.95,-94.18 791.52,-85.16 781.54,-88.74 785.95,-94.18"/>
</a>
</g>
</g>
<!-- Node24&#45;&gt;Node19 -->
<g id="edge33_Node000024_Node000019" class="edge">
<title>Node24&#45;&gt;Node19</title>
<g id="a_edge33_Node000024_Node000019"><a xlink:title=" ">
<path fill="none" stroke="#63b8ff" d="M809,-54.84C809,-47.21 809,-37.7 809,-29.45"/>
<polygon fill="#63b8ff" stroke="#63b8ff" points="812.5,-29.27 809,-19.27 805.5,-29.27 812.5,-29.27"/>
</a>
</g>
</g>
<!-- Node25&#45;&gt;Node2 -->
<g id="edge38_Node000025_Node000002" class="edge">
<title>Node25&#45;&gt;Node2</title>
<g id="a_edge38_Node000025_Node000002"><a xlink:title=" ">
<path fill="none" stroke="#63b8ff" d="M1727.89,-190.71C1685.5,-182.08 1625.77,-168.39 1575,-151 1573.6,-150.52 1572.18,-150 1570.76,-149.46"/>
<polygon fill="#63b8ff" stroke="#63b8ff" points="1572.05,-146.2 1561.47,-145.58 1569.35,-152.66 1572.05,-146.2"/>
</a>
</g>
</g>
<!-- Node25&#45;&gt;Node8 -->
<g id="edge42_Node000025_Node000008" class="edge">
<title>Node25&#45;&gt;Node8</title>
<g id="a_edge42_Node000025_Node000008"><a xlink:title=" ">
<path fill="none" stroke="#63b8ff" d="M1756.01,-186.95C1735.01,-176.03 1706.07,-160.97 1685.47,-150.25"/>
<polygon fill="#63b8ff" stroke="#63b8ff" points="1686.86,-147.03 1676.37,-145.52 1683.62,-153.24 1686.86,-147.03"/>
</a>
</g>
</g>
<!-- Node25&#45;&gt;Node10 -->
<g id="edge43_Node000025_Node000010" class="edge">
<title>Node25&#45;&gt;Node10</title>
<g id="a_edge43_Node000025_Node000010"><a xlink:title=" ">
<path fill="none" stroke="#63b8ff" d="M1727.98,-191.83C1657.07,-180.01 1534.16,-159.53 1460.32,-147.22"/>
<polygon fill="#63b8ff" stroke="#63b8ff" points="1460.67,-143.73 1450.23,-145.54 1459.52,-150.64 1460.67,-143.73"/>
</a>
</g>
</g>
<!-- Node26 -->
<g id="Node000026" class="node">
<title>Node26</title>
<g id="a_Node000026"><a xlink:title=" ">
<polygon fill="#e0e0e0" stroke="#999999" points="1837.5,-145.5 1754.5,-145.5 1754.5,-126.5 1837.5,-126.5 1837.5,-145.5"/>
<text text-anchor="middle" x="1796" y="-133.5" font-family="Helvetica,sans-Serif" font-size="10.00">initializer_list</text>
</a>
</g>
</g>
<!-- Node25&#45;&gt;Node26 -->
<g id="edge37_Node000025_Node000026" class="edge">
<title>Node25&#45;&gt;Node26</title>
<g id="a_edge37_Node000025_Node000026"><a xlink:title=" ">
<path fill="none" stroke="#63b8ff" d="M1785.89,-186.8C1787.73,-177.7 1790.15,-165.79 1792.16,-155.9"/>
<polygon fill="#63b8ff" stroke="#63b8ff" points="1795.64,-156.34 1794.2,-145.84 1788.78,-154.95 1795.64,-156.34"/>
</a>
</g>
</g>
<!-- Node27 -->
<g id="Node000027" class="node">
<title>Node27</title>
<g id="a_Node000027"><a xlink:title=" ">
<polygon fill="#e0e0e0" stroke="#999999" points="2116.5,-79.5 2071.5,-79.5 2071.5,-60.5 2116.5,-60.5 2116.5,-79.5"/>
<text text-anchor="middle" x="2094" y="-67.5" font-family="Helvetica,sans-Serif" font-size="10.00">utility</text>
</a>
</g>
</g>
<!-- Node25&#45;&gt;Node27 -->
<g id="edge39_Node000025_Node000027" class="edge">
<title>Node25&#45;&gt;Node27</title>
<g id="a_edge39_Node000025_Node000027"><a xlink:title=" ">
<path fill="none" stroke="#63b8ff" d="M1838.19,-198.65C1913.13,-194.29 2041.57,-182.37 2075,-151 2091.64,-135.39 2094.91,-108.09 2095.01,-89.78"/>
<polygon fill="#63b8ff" stroke="#63b8ff" points="2098.51,-89.63 2094.76,-79.73 2091.51,-89.81 2098.51,-89.63"/>
</a>
</g>
</g>
<!-- Node28 -->
<g id="Node000028" class="node">
<title>Node28</title>
<g id="a_Node000028"><a xlink:title=" ">
<polygon fill="#e0e0e0" stroke="#999999" points="1906.5,-145.5 1855.5,-145.5 1855.5,-126.5 1906.5,-126.5 1906.5,-145.5"/>
<text text-anchor="middle" x="1881" y="-133.5" font-family="Helvetica,sans-Serif" font-size="10.00">variant</text>
</a>
</g>
</g>
<!-- Node25&#45;&gt;Node28 -->
<g id="edge40_Node000025_Node000028" class="edge">
<title>Node25&#45;&gt;Node28</title>
<g id="a_edge40_Node000025_Node000028"><a xlink:title=" ">
<path fill="none" stroke="#63b8ff" d="M1804.75,-186.8C1820.87,-176.27 1842.76,-161.97 1858.95,-151.4"/>
<polygon fill="#63b8ff" stroke="#63b8ff" points="1861.28,-154.06 1867.74,-145.66 1857.46,-148.2 1861.28,-154.06"/>
</a>
</g>
</g>
<!-- Node29 -->
<g id="Node000029" class="node">
<title>Node29</title>
<g id="a_Node000029"><a xlink:title=" ">
<polygon fill="#e0e0e0" stroke="#999999" points="2065.5,-151 1924.5,-151 1924.5,-121 2065.5,-121 2065.5,-151"/>
<text text-anchor="start" x="1932.5" y="-139" font-family="Helvetica,sans-Serif" font-size="10.00">boost/container/container</text>
<text text-anchor="middle" x="1995" y="-128" font-family="Helvetica,sans-Serif" font-size="10.00">_fwd.hpp</text>
</a>
</g>
</g>
<!-- Node25&#45;&gt;Node29 -->
<g id="edge41_Node000025_Node000029" class="edge">
<title>Node25&#45;&gt;Node29</title>
<g id="a_edge41_Node000025_Node000029"><a xlink:title=" ">
<path fill="none" stroke="#63b8ff" d="M1829.52,-186.95C1861.7,-177.24 1904.67,-164.27 1938.77,-153.98"/>
<polygon fill="#63b8ff" stroke="#63b8ff" points="1940.02,-157.25 1948.58,-151.01 1938,-150.55 1940.02,-157.25"/>
</a>
</g>
</g>
<!-- Node25&#45;&gt;Node30 -->
<g id="edge44_Node000025_Node000030" class="edge">
<title>Node25&#45;&gt;Node30</title>
<g id="a_edge44_Node000025_Node000030"><a xlink:title=" ">
<path fill="none" stroke="#63b8ff" d="M1838.09,-193.6C1902.88,-184.65 2013.57,-168.57 2108,-151 2109.47,-150.73 2110.95,-150.44 2112.45,-150.16"/>
<polygon fill="#63b8ff" stroke="#63b8ff" points="2113.33,-153.55 2122.45,-148.16 2111.96,-146.69 2113.33,-153.55"/>
</a>
</g>
</g>
<!-- Node30&#45;&gt;Node9 -->
<g id="edge45_Node000030_Node000009" class="edge">
<title>Node30&#45;&gt;Node9</title>
<g id="a_edge45_Node000030_Node000009"><a xlink:title=" ">
<path fill="none" stroke="#63b8ff" d="M2122.18,-125.28C2055.74,-112.32 1939.66,-89.67 1880.67,-78.15"/>
<polygon fill="#63b8ff" stroke="#63b8ff" points="1881.17,-74.69 1870.68,-76.21 1879.83,-81.56 1881.17,-74.69"/>
</a>
</g>
</g>
<!-- Node30&#45;&gt;Node19 -->
<g id="edge47_Node000030_Node000019" class="edge">
<title>Node30&#45;&gt;Node19</title>
<g id="a_edge47_Node000030_Node000019"><a xlink:title=" ">
<path fill="none" stroke="#63b8ff" d="M2179.53,-120.7C2187.8,-102.8 2197.82,-72.37 2181,-55 2133.81,-6.25 1084.69,-9.02 853.71,-10.23"/>
<polygon fill="#63b8ff" stroke="#63b8ff" points="853.63,-6.73 843.65,-10.28 853.67,-13.73 853.63,-6.73"/>
</a>
</g>
</g>
<!-- Node30&#45;&gt;Node27 -->
<g id="edge48_Node000030_Node000027" class="edge">
<title>Node30&#45;&gt;Node27</title>
<g id="a_edge48_Node000030_Node000027"><a xlink:title=" ">
<path fill="none" stroke="#63b8ff" d="M2154.69,-120.8C2142.29,-110.62 2125.6,-96.93 2112.87,-86.48"/>
<polygon fill="#63b8ff" stroke="#63b8ff" points="2114.73,-83.48 2104.78,-79.84 2110.29,-88.89 2114.73,-83.48"/>
</a>
</g>
</g>
<!-- Node31 -->
<g id="Node000031" class="node">
<title>Node31</title>
<g id="a_Node000031"><a xlink:title=" ">
<polygon fill="#e0e0e0" stroke="#999999" points="2171.5,-79.5 2134.5,-79.5 2134.5,-60.5 2171.5,-60.5 2171.5,-79.5"/>
<text text-anchor="middle" x="2153" y="-67.5" font-family="Helvetica,sans-Serif" font-size="10.00">new</text>
</a>
</g>
</g>
<!-- Node30&#45;&gt;Node31 -->
<g id="edge46_Node000030_Node000031" class="edge">
<title>Node30&#45;&gt;Node31</title>
<g id="a_edge46_Node000030_Node000031"><a xlink:title=" ">
<path fill="none" stroke="#63b8ff" d="M2167.78,-120.8C2165.05,-111.6 2161.47,-99.53 2158.52,-89.58"/>
<polygon fill="#63b8ff" stroke="#63b8ff" points="2161.83,-88.43 2155.63,-79.84 2155.12,-90.43 2161.83,-88.43"/>
</a>
</g>
</g>
<!-- Node32&#45;&gt;Node5 -->
<g id="edge51_Node000032_Node000005" class="edge">
<title>Node32&#45;&gt;Node5</title>
<g id="a_edge51_Node000032_Node000005"><a xlink:title=" ">
<path fill="none" stroke="#63b8ff" d="M137.56,-186.91C121.31,-179.02 104.27,-167.4 95,-151 88.44,-139.39 88.9,-132.86 95,-121 103.43,-104.61 120,-92.41 134.9,-84.16"/>
<polygon fill="#63b8ff" stroke="#63b8ff" points="136.59,-87.23 143.87,-79.53 133.38,-81 136.59,-87.23"/>
</a>
</g>
</g>
<!-- Node32&#45;&gt;Node13 -->
<g id="edge53_Node000032_Node000013" class="edge">
<title>Node32&#45;&gt;Node13</title>
<g id="a_edge53_Node000032_Node000013"><a xlink:title=" ">
<path fill="none" stroke="#63b8ff" d="M188.87,-186.8C195.09,-178.68 203.02,-168.31 210.04,-159.15"/>
<polygon fill="#63b8ff" stroke="#63b8ff" points="212.86,-161.23 216.16,-151.16 207.3,-156.98 212.86,-161.23"/>
</a>
</g>
</g>
<!-- Node32&#45;&gt;Node19 -->
<g id="edge52_Node000032_Node000019" class="edge">
<title>Node32&#45;&gt;Node19</title>
<g id="a_edge52_Node000032_Node000019"><a xlink:title=" ">
<path fill="none" stroke="#63b8ff" d="M131.86,-186.99C114.66,-179.27 96.91,-167.76 87,-151 64.1,-112.29 81.68,-80.09 119,-55 172.33,-19.15 619.24,-12.14 763.97,-10.8"/>
<polygon fill="#63b8ff" stroke="#63b8ff" points="764.28,-14.3 774.25,-10.71 764.22,-7.3 764.28,-14.3"/>
</a>
</g>
</g>
<!-- Node33 -->
<g id="Node000033" class="node">
<title>Node33</title>
<g id="a_Node000033"><a xlink:title=" ">
<polygon fill="#e0e0e0" stroke="#999999" points="154,-145.5 104,-145.5 104,-126.5 154,-126.5 154,-145.5"/>
<text text-anchor="middle" x="129" y="-133.5" font-family="Helvetica,sans-Serif" font-size="10.00">cstdint</text>
</a>
</g>
</g>
<!-- Node32&#45;&gt;Node33 -->
<g id="edge50_Node000032_Node000033" class="edge">
<title>Node32&#45;&gt;Node33</title>
<g id="a_edge50_Node000032_Node000033"><a xlink:title=" ">
<path fill="none" stroke="#63b8ff" d="M167.13,-186.8C159.71,-177.11 149.86,-164.24 142.02,-154.01"/>
<polygon fill="#63b8ff" stroke="#63b8ff" points="144.63,-151.66 135.77,-145.84 139.07,-155.91 144.63,-151.66"/>
</a>
</g>
</g>
<!-- Node34&#45;&gt;Node4 -->
<g id="edge57_Node000034_Node000004" class="edge">
<title>Node34&#45;&gt;Node4</title>
<g id="a_edge57_Node000034_Node000004"><a xlink:title=" ">
<path fill="none" stroke="#63b8ff" d="M888.69,-192.37C877.85,-182.31 859.7,-165.48 846.26,-153.01"/>
<polygon fill="#63b8ff" stroke="#63b8ff" points="848.31,-150.14 838.6,-145.91 843.55,-155.27 848.31,-150.14"/>
</a>
</g>
</g>
<!-- Node34&#45;&gt;Node16 -->
<g id="edge55_Node000034_Node000016" class="edge">
<title>Node34&#45;&gt;Node16</title>
<g id="a_edge55_Node000034_Node000016"><a xlink:title=" ">
<path fill="none" stroke="#63b8ff" d="M921.95,-192.37C949.48,-182.43 996.03,-165.6 1036,-151 1037.63,-150.4 1039.31,-149.79 1041,-149.17"/>
<polygon fill="#63b8ff" stroke="#63b8ff" points="1042.52,-152.34 1050.7,-145.61 1040.1,-145.77 1042.52,-152.34"/>
</a>
</g>
</g>
<!-- Node34&#45;&gt;Node17 -->
<g id="edge56_Node000034_Node000017" class="edge">
<title>Node34&#45;&gt;Node17</title>
<g id="a_edge56_Node000034_Node000017"><a xlink:title=" ">
<path fill="none" stroke="#63b8ff" d="M898.54,-192.37C899.12,-183.07 900.06,-167.98 900.82,-155.9"/>
<polygon fill="#63b8ff" stroke="#63b8ff" points="904.31,-156.1 901.44,-145.91 897.33,-155.67 904.31,-156.1"/>
</a>
</g>
</g>
<!-- Node34&#45;&gt;Node19 -->
<g id="edge58_Node000034_Node000019" class="edge">
<title>Node34&#45;&gt;Node19</title>
<g id="a_edge58_Node000034_Node000019"><a xlink:title=" ">
<path fill="none" stroke="#63b8ff" d="M939.23,-192.45C961.94,-185.4 988.24,-172.88 1002,-151 1009.1,-139.71 1008.69,-132.53 1002,-121 970.25,-66.23 899.99,-36.29 853.58,-21.84"/>
<polygon fill="#63b8ff" stroke="#63b8ff" points="854.36,-18.42 843.78,-18.91 852.35,-25.13 854.36,-18.42"/>
</a>
</g>
</g>
<!-- Node34&#45;&gt;Node23 -->
<g id="edge60_Node000034_Node000023" class="edge">
<title>Node34&#45;&gt;Node23</title>
<g id="a_edge60_Node000034_Node000023"><a xlink:title=" ">
<path fill="none" stroke="#63b8ff" d="M875.34,-192.37C850.18,-182.78 808.87,-167.05 776.71,-154.8"/>
<polygon fill="#63b8ff" stroke="#63b8ff" points="777.64,-151.4 767.05,-151.12 775.15,-157.95 777.64,-151.4"/>
</a>
</g>
</g>
<!-- Node35 -->
<g id="Node000035" class="node">
<title>Node35</title>
<g id="a_Node000035"><a xlink:title=" ">
<polygon fill="#e0e0e0" stroke="#999999" points="993.5,-145.5 946.5,-145.5 946.5,-126.5 993.5,-126.5 993.5,-145.5"/>
<text text-anchor="middle" x="970" y="-133.5" font-family="Helvetica,sans-Serif" font-size="10.00">vector</text>
</a>
</g>
</g>
<!-- Node34&#45;&gt;Node35 -->
<g id="edge59_Node000034_Node000035" class="edge">
<title>Node34&#45;&gt;Node35</title>
<g id="a_edge59_Node000034_Node000035"><a xlink:title=" ">
<path fill="none" stroke="#63b8ff" d="M907.71,-192.37C919.13,-182.21 938.32,-165.16 952.39,-152.65"/>
<polygon fill="#63b8ff" stroke="#63b8ff" points="954.83,-155.16 959.98,-145.91 950.18,-149.93 954.83,-155.16"/>
</a>
</g>
</g>
<!-- Node36&#45;&gt;Node2 -->
<g id="edge65_Node000036_Node000002" class="edge">
<title>Node36&#45;&gt;Node2</title>
<g id="a_edge65_Node000036_Node000002"><a xlink:title=" ">
<path fill="none" stroke="#63b8ff" d="M1569.84,-252.84C1564.57,-229.23 1554,-181.83 1548.14,-155.58"/>
<polygon fill="#63b8ff" stroke="#63b8ff" points="1551.54,-154.75 1545.95,-145.75 1544.71,-156.27 1551.54,-154.75"/>
</a>
</g>
</g>
<!-- Node36&#45;&gt;Node7 -->
<g id="edge64_Node000036_Node000007" class="edge">
<title>Node36&#45;&gt;Node7</title>
<g id="a_edge64_Node000036_Node000007"><a xlink:title=" ">
<path fill="none" stroke="#63b8ff" d="M1546.67,-252.95C1526.18,-242.03 1497.94,-226.97 1477.84,-216.25"/>
<polygon fill="#63b8ff" stroke="#63b8ff" points="1479.44,-213.14 1468.97,-211.52 1476.15,-219.31 1479.44,-213.14"/>
</a>
</g>
</g>
<!-- Node36&#45;&gt;Node25 -->
<g id="edge66_Node000036_Node000025" class="edge">
<title>Node36&#45;&gt;Node25</title>
<g id="a_edge66_Node000036_Node000025"><a xlink:title=" ">
<path fill="none" stroke="#63b8ff" d="M1619.09,-252.95C1650.95,-243.24 1693.53,-230.27 1727.3,-219.98"/>
<polygon fill="#63b8ff" stroke="#63b8ff" points="1728.48,-223.28 1737.02,-217.01 1726.44,-216.58 1728.48,-223.28"/>
</a>
</g>
</g>
<!-- Node37 -->
<g id="Node000037" class="node">
<title>Node37</title>
<g id="a_Node000037"><a xlink:title=" ">
<polygon fill="#e0e0e0" stroke="#999999" points="1622,-211.5 1572,-211.5 1572,-192.5 1622,-192.5 1622,-211.5"/>
<text text-anchor="middle" x="1597" y="-199.5" font-family="Helvetica,sans-Serif" font-size="10.00">atomic</text>
</a>
</g>
</g>
<!-- Node36&#45;&gt;Node37 -->
<g id="edge63_Node000036_Node000037" class="edge">
<title>Node36&#45;&gt;Node37</title>
<g id="a_edge63_Node000036_Node000037"><a xlink:title=" ">
<path fill="none" stroke="#63b8ff" d="M1578.33,-252.8C1581.81,-243.5 1586.4,-231.27 1590.15,-221.26"/>
<polygon fill="#63b8ff" stroke="#63b8ff" points="1593.45,-222.44 1593.68,-211.84 1586.89,-219.98 1593.45,-222.44"/>
</a>
</g>
</g>
<!-- Node38&#45;&gt;Node11 -->
<g id="edge68_Node000038_Node000011" class="edge">
<title>Node38&#45;&gt;Node11</title>
<g id="a_edge68_Node000038_Node000011"><a xlink:title=" ">
<path fill="none" stroke="#63b8ff" d="M1455.65,-252.83C1467.37,-244.09 1480.55,-231.75 1487,-217 1492.34,-204.78 1488.2,-200.28 1487,-187 1484.32,-157.31 1491.45,-145.87 1475,-121 1464.15,-104.59 1445.86,-92.31 1429.95,-84.03"/>
<polygon fill="#63b8ff" stroke="#63b8ff" points="1431.45,-80.87 1420.93,-79.62 1428.37,-87.16 1431.45,-80.87"/>
</a>
</g>
</g>
</g>
</svg>
